<?xml version="1.0" standalone="no"?>
<!DOCTYPE svg PUBLIC "-//W3C//DTD SVG 1.1//EN" "http://www.w3.org/Graphics/SVG/1.1/DTD/svg11.dtd" >
<svg>
<metadata>
Created by FontForge 20090914 at Wed Aug 26 07:44:03 2015
 By www-data
Typeface &#194;&#169; The scict.ir Corporation plc. Data &#194;&#169; The scict.ir Corporation plc/Type Solutions Inc. 2012-2013. All Rights Reserved.Modify by Hossein Zahedi.
</metadata>
<defs>
<font id="IRBadr" horiz-adv-x="0" >
  <font-face 
    font-family="IRBadr"
    font-weight="400"
    font-stretch="normal"
    units-per-em="2048"
    panose-1="2 0 5 6 0 0 0 2 0 2"
    ascent="1638"
    descent="-410"
    x-height="777"
    cap-height="1150"
    bbox="-431 -994 2624 1918"
    underline-thickness="60"
    underline-position="-40"
    unicode-range="U+0020-U+FFFC"
  />
<missing-glyph horiz-adv-x="496" 
 />
    <glyph glyph-name="afii64184" unicode="&#xfedf;&#xfee0;&#x651;&#x670;&#xfeea;" horiz-adv-x="1370" arabic-form="isolated" 
d="M1272 236c0 -20.667 -3.16992 -42.8311 -9.50293 -66.498s-16.166 -49.5 -29.499 -77.5c-13.333 -32.667 -30.166 -56.834 -50.499 -72.501s-39.166 -23.5 -56.499 -23.5c-47.333 0 -93.666 12 -138.999 36s-85 61 -119 111
c-25.333 -62.667 -57.5 -109.334 -96.5 -140.001s-83.167 -46 -132.5 -46c-117.333 0 -176 97 -176 291l-88 -74c-27.333 -22 -61 -33 -101 -33c-28.667 0 -66.667 4.33301 -114 13c-53.333 10 -80 18 -80 24c0 4 2 11.5 6 22.5s11.667 24.833 23 41.5
c9.33301 16 18.666 31.167 27.999 45.5s19.666 27.833 30.999 40.5c28 28.667 66.5 60.5 115.5 95.5s108.833 73.5 179.5 115.5c18 104.667 35 157 51 157c23.333 0 35 -122.667 35 -368c0 -78 10.333 -133 31 -165s50.667 -48 90 -48c36 0 69.5 8.66699 100.5 26
s58.167 44 81.5 80l-53 459l36.5 107.5c8.33301 23.667 14.5 35.5 18.5 35.5c10 0 16 -15 18 -45l50 -375c5.33301 -43.333 14.833 -80.666 28.5 -111.999s30.334 -57.333 50.001 -78s41.834 -36 66.501 -46s50.667 -15 78 -15c13.333 0 24.833 1.66699 34.5 5
s14.5 7.66602 14.5 12.999c0 1.33301 -1.5 8.83301 -4.5 22.5l-12.5 55.5c-5.33301 23.333 -12.166 51 -20.499 83l-28.5 105c-19.333 78.667 -34 140.334 -44 185.001s-15 72.667 -15 84c0 7.33301 2.16699 17 6.5 29s11.166 26.667 20.499 44
c18 35.333 33 56.666 45 63.999c0 -7.33301 5.16699 -33.5 15.5 -78.5s26.166 -109.167 47.499 -192.5l27.5 -116c8.33301 -36.667 15.5 -69.667 21.5 -99s10.667 -54.5 14 -75.5s5 -35.833 5 -44.5zM462.997 328.003c1.33301 8 2.6709 16.6689 4.00391 26.002
s2 19.666 2 30.999c0 12.667 -0.666992 23.667 -2 33l-4 28c-12.667 -5.33301 -27.834 -12.666 -45.501 -21.999s-38.834 -22.333 -63.501 -39l-61.5 -43.5c-16.333 -11.667 -28.5 -21.834 -36.5 -30.501c15.333 -8 32 -13.667 50 -17s36.667 -5 56 -5
s37.666 3.16699 54.999 9.5s32.666 16.166 45.999 29.499zM1010 1100c0 -13.333 -2.5 -27.1709 -7.5 -41.5039s-12.167 -27.166 -21.5 -38.499c-12.667 -17.333 -26.834 -31.5 -42.501 -42.5s-32.167 -16.5 -49.5 -16.5c-11.333 0 -22.833 1 -34.5 3
s-22.167 5.66699 -31.5 11c-47.333 -49.333 -91 -74 -131 -74c-23.333 0 -42.166 7.33301 -56.499 22s-21.5 36 -21.5 64c0 14 2.66699 30.5 8 49.5s12 37.167 20 54.5s16.5 32 25.5 44s17.167 18 24.5 18c5.33301 0 8.83301 -2.66699 10.5 -8s2.5 -11.666 2.5 -18.999
c0 -6 -1.5 -13 -4.5 -21s-6.33301 -16.333 -10 -25s-7 -17.667 -10 -27s-4.5 -18.333 -4.5 -27c0 -9.33301 2.33301 -16.833 7 -22.5s11 -8.5 19 -8.5c27.333 0 50 13 68 39c2.66699 14.667 6.16699 31 10.5 49s9.5 35 15.5 51s13 29.333 21 40s17.667 16 29 16
c10.667 0 16 -3.33301 16 -10c0 -5.33301 -2.66699 -15.166 -8 -29.499s-8 -29.833 -8 -46.5c0 -36.667 17.667 -55 53 -55c2.66699 0 6.5 0.666992 11.5 2s9.83301 3 14.5 5s8.66699 4.66699 12 8s5 7 5 11c0 16.667 -0.333008 32.834 -1 48.501s-1.66699 33.167 -3 52.5
c0 0.666992 1.83301 4 5.5 10s8 12.5 13 19.5s10.333 13.333 16 19s10.5 8.5 14.5 8.5s7.5 -4.83301 10.5 -14.5s5.5 -21.334 7.5 -35.001s3.33301 -28.167 4 -43.5s1 -28.666 1 -39.999zM860.002 1423c0 -40.667 -8.00098 -82.334 -24.001 -125.001
c-7.33301 -16 -13.333 -28.5 -18 -37.5s-11 -13.5 -19 -13.5c-5.33301 0 -8.83301 1.66699 -10.5 5s-2.5 9.33301 -2.5 18c0 5.33301 1.16699 16 3.5 32s3.5 34.667 3.5 56c0 25.333 -3.16699 50.833 -9.5 76.5s-18.166 53.5 -35.499 83.5c12 32.667 21.833 56.5 29.5 71.5
s14.167 22.5 19.5 22.5c7.33301 0 13.833 -5.16699 19.5 -15.5s12.167 -25.833 19.5 -46.5c16 -39.333 24 -81.666 24 -126.999z" />
    <glyph glyph-name="afii62834" unicode="&#xfedf;&#xfe82;" horiz-adv-x="1069" arabic-form="isolated" 
d="M1028 981c0 -7.33301 -20.3301 -51.6709 -60.9971 -133.004l-23 10c0 -32 -2 -67 -6 -105s-10.667 -80 -20 -126c-11.333 -54.667 -23.833 -105 -37.5 -151s-29.167 -88 -46.5 -126c58.667 -95.333 88 -173.666 88 -234.999c0 -46 -7 -78.667 -21 -98
s-37.667 -31 -71 -35c-46 -6.66699 -90.5 -11.5 -133.5 -14.5s-84.5 -4.5 -124.5 -4.5c-61.333 0 -92 17 -92 51v62c0 28.667 7.33301 43 22 43c1.33301 0 6.16602 -1.66699 14.499 -5s17.166 -5 26.499 -5c25.333 0 55.833 17.833 91.5 53.5s75.5 90.167 119.5 163.5
c-23.333 34 -52 71.667 -86 113s-73 86 -117 134c-44 48.667 -83 89.834 -117 123.501s-64 60.167 -90 79.5c-18.667 -18.667 -36.334 -28 -53.001 -28c-21.333 0 -68.333 23 -141 69c-28.667 18.667 -43 53.667 -43 105c0 76 13 114 39 114c60 0 150.667 -58.667 272 -176
c66 -62 130 -130.667 192 -206s123 -159 183 -251c9.33301 19.333 18 46.666 26 81.999s15.667 79 23 131c18 112.667 27 221.334 27 326.001c-16.667 16 -25 30.333 -25 43c0 5.33301 3.16699 16.333 9.5 33s16.166 39 29.499 67c26.667 56 44.334 84 53.001 84
c12.667 0 19 -9.33301 19 -28c0 -4 -1 -11.667 -3 -23s-3 -20.666 -3 -27.999c0 -34 18.333 -62 55 -84c16 -9.33301 24 -17.666 24 -24.999zM871.003 142.995c0 22.667 -26 67 -78 133c-35.333 -59.333 -77 -115 -125 -167c135.333 8 203 19.333 203 34zM41.0029 1300
c7.33301 0 23.3311 -3.33301 47.998 -10c30.667 -8 63.334 -12 98.001 -12c60 0 117.833 10.333 173.5 31s95.167 46.667 118.5 78c4.66699 5.33301 8.33398 8 11.001 8l3 -1c1.33301 -1.33301 2 -3.33301 2 -6c0 -13.333 -6 -31.333 -18 -54s-25.667 -41.667 -41 -57
c-31.333 -30.667 -76.5 -56.167 -135.5 -76.5s-117.167 -30.5 -174.5 -30.5c-22 0 -46.667 2.33301 -74 7l-26 4c-6.66699 1.33301 -12 2 -16 2c-22 0 -50.667 -16.667 -86 -50c-4 -4 -7 -6 -9 -6c-4.66699 0 -7 5 -7 15c0 21.333 10.333 49.333 31 84
c14.667 22.667 31 40.667 49 54s35.667 20 53 20z" />
    <glyph glyph-name="afii62835" unicode="&#xfee0;&#xfe82;" horiz-adv-x="1113" arabic-form="final" 
d="M1113 0c-116 0 -188.999 60 -218.999 180c-8.66699 33.333 -18 86.5 -28 159.5s-21.333 166.833 -34 281.5c-17.333 -116 -39.5 -215.167 -66.5 -297.5s-58.5 -149.166 -94.5 -200.499c-28 -40 -62.833 -74 -104.5 -102s-90.167 -50.667 -145.5 -68
c-90.667 -28.667 -169.334 -43 -236.001 -43c-19.333 0 -29 6 -29 18c0 11.333 14.667 21 44 29c38 11.333 77.833 27.166 119.5 47.499s85.5 45.5 131.5 75.5c50.667 32.667 93.167 65.167 127.5 97.5s60.833 64.5 79.5 96.5c0 160.667 -116.667 334.334 -350 521.001
c-32.667 -24.667 -58 -37 -76 -37c-18.667 0 -50 19 -94 57c-45.333 39.333 -68 69.333 -68 90c0 11.333 1.5 23.666 4.5 36.999s7.16699 27.666 12.5 42.999c12 38 26.333 57 43 57c15.333 0 35.333 -6.16699 60 -18.5s55 -31.166 91 -56.499c76 -54 150 -119 222 -195
c62.667 -66.667 109.667 -136.334 141 -209.001s47 -149.667 47 -231c30 60.667 52.5 133.334 67.5 218.001s22.5 182.667 22.5 294c0 16.667 -0.5 33.334 -1.5 50.001s-2.16699 31.667 -3.5 45s-2.5 24.166 -3.5 32.499s-1.5 12.833 -1.5 13.5
c49.333 113.333 77.333 170 84 170c5.33301 0 14 -64.667 26 -194c8.66699 -102 18.667 -202.667 30 -302s24.666 -199 39.999 -299c6 -42 13.667 -77 23 -105s20 -49.667 32 -65c22.667 -25.333 58.334 -38 107.001 -38v-152v0zM69.001 1323
c7.33301 0 23.3311 -3.33301 47.998 -10c30.667 -8 63.334 -12 98.001 -12c60 0 117.833 10.333 173.5 31s95.167 46.667 118.5 78c4.66699 5.33301 8.33398 8 11.001 8l3 -1c1.33301 -1.33301 2 -3.33301 2 -6c0 -13.333 -6 -31.333 -18 -54s-25.667 -41.667 -41 -57
c-31.333 -30.667 -76.5 -56.167 -135.5 -76.5s-117.167 -30.5 -174.5 -30.5c-22 0 -46.667 2.33301 -74 7l-26 4c-6.66699 1.33301 -12 2 -16 2c-22 0 -50.667 -16.667 -86 -50c-4 -4 -7 -6 -9 -6c-4.66699 0 -7 5 -7 15c0 21.333 10.333 49.333 31 84
c14.667 22.667 31 40.667 49 54s35.667 20 53 20z" />
    <glyph glyph-name="afii62836" unicode="&#xfedf;&#xfe84;" horiz-adv-x="1069" arabic-form="isolated" 
d="M1028 981c0 -7.33301 -20.3301 -51.6709 -60.9971 -133.004l-23 10c0 -32 -2 -67 -6 -105s-10.667 -80 -20 -126c-11.333 -54.667 -23.833 -105 -37.5 -151s-29.167 -88 -46.5 -126c58.667 -95.333 88 -173.666 88 -234.999c0 -46 -7 -78.667 -21 -98
s-37.667 -31 -71 -35c-46 -6.66699 -90.5 -11.5 -133.5 -14.5s-84.5 -4.5 -124.5 -4.5c-61.333 0 -92 17 -92 51v62c0 28.667 7.33301 43 22 43c1.33301 0 6.16602 -1.66699 14.499 -5s17.166 -5 26.499 -5c25.333 0 55.833 17.833 91.5 53.5s75.5 90.167 119.5 163.5
c-23.333 34 -52 71.667 -86 113s-73 86 -117 134c-44 48.667 -83 89.834 -117 123.501s-64 60.167 -90 79.5c-18.667 -18.667 -36.334 -28 -53.001 -28c-21.333 0 -68.333 23 -141 69c-28.667 18.667 -43 53.667 -43 105c0 76 13 114 39 114c60 0 150.667 -58.667 272 -176
c66 -62 130 -130.667 192 -206s123 -159 183 -251c9.33301 19.333 18 46.666 26 81.999s15.667 79 23 131c18 112.667 27 221.334 27 326.001c-16.667 16 -25 30.333 -25 43c0 5.33301 3.16699 16.333 9.5 33s16.166 39 29.499 67c26.667 56 44.334 84 53.001 84
c12.667 0 19 -9.33301 19 -28c0 -4 -1 -11.667 -3 -23s-3 -20.666 -3 -27.999c0 -34 18.333 -62 55 -84c16 -9.33301 24 -17.666 24 -24.999zM871.003 142.995c0 22.667 -26 67 -78 133c-35.333 -59.333 -77 -115 -125 -167c135.333 8 203 19.333 203 34zM294.003 1249
c0 -3.33301 -0.500977 -7.66895 -1.50098 -13.002s-2.66699 -10.666 -5 -15.999s-5.66602 -10 -9.99902 -14s-9.5 -6.66699 -15.5 -8c-6.66699 0 -16.334 -0.333008 -29.001 -1s-26.667 -2.5 -42 -5.5s-31.166 -7.33301 -47.499 -13s-31.5 -13.5 -45.5 -23.5
c-4.66699 -2.66699 -10.834 -7.16699 -18.501 -13.5s-14.834 -9.5 -21.501 -9.5c-6 0 -9 4.33301 -9 13c0 5.33301 3.33301 13.5 10 24.5s18.334 25.167 35.001 42.5c-34 19.333 -51 41 -51 65c0 9.33301 2.5 19 7.5 29s13.833 20.667 26.5 32c50.667 42.667 91 64 121 64
c18 0 31.5 -4.66699 40.5 -14s13.5 -18.666 13.5 -27.999c0 -6 -1.5 -11.5 -4.5 -16.5s-6.66699 -9.33301 -11 -13s-9 -6.5 -14 -8.5s-9.16699 -3 -12.5 -3c-6.66699 0 -14.5 3.66699 -23.5 11s-19.167 11 -30.5 11c-12.667 0 -23.167 -3 -31.5 -9s-12.5 -13.667 -12.5 -23
c0 -5.33301 2 -11.333 6 -18s9.16699 -12.667 15.5 -18s13.833 -9.83301 22.5 -13.5s18 -5.5 28 -5.5c4.66699 0 11.834 0.333008 21.501 1s19.667 1.5 30 2.5s19.833 2 28.5 3s14 1.5 16 1.5c3.33301 0 6.5 -1 9.5 -3s4.5 -5.33301 4.5 -10z" />
    <glyph glyph-name="afii62837" unicode="&#xfee0;&#xfe84;" horiz-adv-x="1113" arabic-form="final" 
d="M1113 0c-116 0 -188.999 60 -218.999 180c-8.66699 33.333 -18 86.5 -28 159.5s-21.333 166.833 -34 281.5c-17.333 -116 -39.5 -215.167 -66.5 -297.5s-58.5 -149.166 -94.5 -200.499c-28 -40 -62.833 -74 -104.5 -102s-90.167 -50.667 -145.5 -68
c-90.667 -28.667 -169.334 -43 -236.001 -43c-19.333 0 -29 6 -29 18c0 11.333 14.667 21 44 29c38 11.333 77.833 27.166 119.5 47.499s85.5 45.5 131.5 75.5c50.667 32.667 93.167 65.167 127.5 97.5s60.833 64.5 79.5 96.5c0 160.667 -116.667 334.334 -350 521.001
c-32.667 -24.667 -58 -37 -76 -37c-18.667 0 -50 19 -94 57c-45.333 39.333 -68 69.333 -68 90c0 11.333 1.5 23.666 4.5 36.999s7.16699 27.666 12.5 42.999c12 38 26.333 57 43 57c15.333 0 35.333 -6.16699 60 -18.5s55 -31.166 91 -56.499c76 -54 150 -119 222 -195
c62.667 -66.667 109.667 -136.334 141 -209.001s47 -149.667 47 -231c30 60.667 52.5 133.334 67.5 218.001s22.5 182.667 22.5 294c0 16.667 -0.5 33.334 -1.5 50.001s-2.16699 31.667 -3.5 45s-2.5 24.166 -3.5 32.499s-1.5 12.833 -1.5 13.5
c49.333 113.333 77.333 170 84 170c5.33301 0 14 -64.667 26 -194c8.66699 -102 18.667 -202.667 30 -302s24.666 -199 39.999 -299c6 -42 13.667 -77 23 -105s20 -49.667 32 -65c22.667 -25.333 58.334 -38 107.001 -38v-152v0zM286.001 1266
c0 -3.33301 -0.500977 -7.66895 -1.50098 -13.002s-2.66699 -10.666 -5 -15.999s-5.66602 -10 -9.99902 -14s-9.5 -6.66699 -15.5 -8c-6.66699 0 -16.334 -0.333008 -29.001 -1s-26.667 -2.5 -42 -5.5s-31.166 -7.33301 -47.499 -13s-31.5 -13.5 -45.5 -23.5
c-4.66699 -2.66699 -10.834 -7.16699 -18.501 -13.5s-14.834 -9.5 -21.501 -9.5c-6 0 -9 4.33301 -9 13c0 5.33301 3.33301 13.5 10 24.5s18.334 25.167 35.001 42.5c-34 19.333 -51 41 -51 65c0 9.33301 2.5 19 7.5 29s13.833 20.667 26.5 32c50.667 42.667 91 64 121 64
c18 0 31.5 -4.66699 40.5 -14s13.5 -18.666 13.5 -27.999c0 -6 -1.5 -11.5 -4.5 -16.5s-6.66699 -9.33301 -11 -13s-9 -6.5 -14 -8.5s-9.16699 -3 -12.5 -3c-6.66699 0 -14.5 3.66699 -23.5 11s-19.167 11 -30.5 11c-12.667 0 -23.167 -3 -31.5 -9s-12.5 -13.667 -12.5 -23
c0 -5.33301 2 -11.333 6 -18s9.16699 -12.667 15.5 -18s13.833 -9.83301 22.5 -13.5s18 -5.5 28 -5.5c4.66699 0 11.834 0.333008 21.501 1s19.667 1.5 30 2.5s19.833 2 28.5 3s14 1.5 16 1.5c3.33301 0 6.5 -1 9.5 -3s4.5 -5.33301 4.5 -10z" />
    <glyph glyph-name="afii62838" unicode="&#xfedf;&#xfe88;" horiz-adv-x="1069" arabic-form="isolated" 
d="M1028 981c0 -7.33301 -20.3301 -51.6709 -60.9971 -133.004l-23 10c0 -32 -2 -67 -6 -105s-10.667 -80 -20 -126c-11.333 -54.667 -23.833 -105 -37.5 -151s-29.167 -88 -46.5 -126c58.667 -95.333 88 -173.666 88 -234.999c0 -46 -7 -78.667 -21 -98
s-37.667 -31 -71 -35c-46 -6.66699 -90.5 -11.5 -133.5 -14.5s-84.5 -4.5 -124.5 -4.5c-61.333 0 -92 17 -92 51v62c0 28.667 7.33301 43 22 43c1.33301 0 6.16602 -1.66699 14.499 -5s17.166 -5 26.499 -5c25.333 0 55.833 17.833 91.5 53.5s75.5 90.167 119.5 163.5
c-23.333 34 -52 71.667 -86 113s-73 86 -117 134c-44 48.667 -83 89.834 -117 123.501s-64 60.167 -90 79.5c-18.667 -18.667 -36.334 -28 -53.001 -28c-21.333 0 -68.333 23 -141 69c-28.667 18.667 -43 53.667 -43 105c0 76 13 114 39 114c60 0 150.667 -58.667 272 -176
c66 -62 130 -130.667 192 -206s123 -159 183 -251c9.33301 19.333 18 46.666 26 81.999s15.667 79 23 131c18 112.667 27 221.334 27 326.001c-16.667 16 -25 30.333 -25 43c0 5.33301 3.16699 16.333 9.5 33s16.166 39 29.499 67c26.667 56 44.334 84 53.001 84
c12.667 0 19 -9.33301 19 -28c0 -4 -1 -11.667 -3 -23s-3 -20.666 -3 -27.999c0 -34 18.333 -62 55 -84c16 -9.33301 24 -17.666 24 -24.999zM871.003 142.995c0 22.667 -26 67 -78 133c-35.333 -59.333 -77 -115 -125 -167c135.333 8 203 19.333 203 34zM705.003 -283.005
c0 -3.33301 -0.500977 -7.66895 -1.50098 -13.002s-2.66699 -10.666 -5 -15.999s-5.66602 -10 -9.99902 -14s-9.5 -6.66699 -15.5 -8c-6.66699 0 -16.334 -0.333008 -29.001 -1s-26.667 -2.5 -42 -5.5s-31.166 -7.33301 -47.499 -13s-31.5 -13.5 -45.5 -23.5
c-4.66699 -2.66699 -10.834 -7.16699 -18.501 -13.5s-14.834 -9.5 -21.501 -9.5c-6 0 -9 4.33301 -9 13c0 5.33301 3.33301 13.5 10 24.5s18.334 25.167 35.001 42.5c-34 19.333 -51 41 -51 65c0 9.33301 2.5 19 7.5 29s13.833 20.667 26.5 32c50.667 42.667 91 64 121 64
c18 0 31.5 -4.66699 40.5 -14s13.5 -18.666 13.5 -27.999c0 -6 -1.5 -11.5 -4.5 -16.5s-6.66699 -9.33301 -11 -13s-9 -6.5 -14 -8.5s-9.16699 -3 -12.5 -3c-6.66699 0 -14.5 3.66699 -23.5 11s-19.167 11 -30.5 11c-12.667 0 -23.167 -3 -31.5 -9s-12.5 -13.667 -12.5 -23
c0 -5.33301 2 -11.333 6 -18s9.16699 -12.667 15.5 -18s13.833 -9.83301 22.5 -13.5s18 -5.5 28 -5.5c4.66699 0 11.834 0.333008 21.501 1s19.667 1.5 30 2.5s19.833 2 28.5 3s14 1.5 16 1.5c3.33301 0 6.5 -1 9.5 -3s4.5 -5.33301 4.5 -10z" />
    <glyph glyph-name="afii62839" unicode="&#xfee0;&#xfe88;" horiz-adv-x="1113" arabic-form="final" 
d="M1113 0c-116 0 -188.999 60 -218.999 180c-8.66699 33.333 -18 86.5 -28 159.5s-21.333 166.833 -34 281.5c-17.333 -116 -39.5 -215.167 -66.5 -297.5s-58.5 -149.166 -94.5 -200.499c-28 -40 -62.833 -74 -104.5 -102s-90.167 -50.667 -145.5 -68
c-90.667 -28.667 -169.334 -43 -236.001 -43c-19.333 0 -29 6 -29 18c0 11.333 14.667 21 44 29c38 11.333 77.833 27.166 119.5 47.499s85.5 45.5 131.5 75.5c50.667 32.667 93.167 65.167 127.5 97.5s60.833 64.5 79.5 96.5c0 160.667 -116.667 334.334 -350 521.001
c-32.667 -24.667 -58 -37 -76 -37c-18.667 0 -50 19 -94 57c-45.333 39.333 -68 69.333 -68 90c0 11.333 1.5 23.666 4.5 36.999s7.16699 27.666 12.5 42.999c12 38 26.333 57 43 57c15.333 0 35.333 -6.16699 60 -18.5s55 -31.166 91 -56.499c76 -54 150 -119 222 -195
c62.667 -66.667 109.667 -136.334 141 -209.001s47 -149.667 47 -231c30 60.667 52.5 133.334 67.5 218.001s22.5 182.667 22.5 294c0 16.667 -0.5 33.334 -1.5 50.001s-2.16699 31.667 -3.5 45s-2.5 24.166 -3.5 32.499s-1.5 12.833 -1.5 13.5
c49.333 113.333 77.333 170 84 170c5.33301 0 14 -64.667 26 -194c8.66699 -102 18.667 -202.667 30 -302s24.666 -199 39.999 -299c6 -42 13.667 -77 23 -105s20 -49.667 32 -65c22.667 -25.333 58.334 -38 107.001 -38v-152v0zM434.001 -340
c0 -3.33301 -0.500977 -7.66895 -1.50098 -13.002s-2.66699 -10.666 -5 -15.999s-5.66602 -10 -9.99902 -14s-9.5 -6.66699 -15.5 -8c-6.66699 0 -16.334 -0.333008 -29.001 -1s-26.667 -2.5 -42 -5.5s-31.166 -7.33301 -47.499 -13s-31.5 -13.5 -45.5 -23.5
c-4.66699 -2.66699 -10.834 -7.16699 -18.501 -13.5s-14.834 -9.5 -21.501 -9.5c-6 0 -9 4.33301 -9 13c0 5.33301 3.33301 13.5 10 24.5s18.334 25.167 35.001 42.5c-34 19.333 -51 41 -51 65c0 9.33301 2.5 19 7.5 29s13.833 20.667 26.5 32c50.667 42.667 91 64 121 64
c18 0 31.5 -4.66699 40.5 -14s13.5 -18.666 13.5 -27.999c0 -6 -1.5 -11.5 -4.5 -16.5s-6.66699 -9.33301 -11 -13s-9 -6.5 -14 -8.5s-9.16699 -3 -12.5 -3c-6.66699 0 -14.5 3.66699 -23.5 11s-19.167 11 -30.5 11c-12.667 0 -23.167 -3 -31.5 -9s-12.5 -13.667 -12.5 -23
c0 -5.33301 2 -11.333 6 -18s9.16699 -12.667 15.5 -18s13.833 -9.83301 22.5 -13.5s18 -5.5 28 -5.5c4.66699 0 11.834 0.333008 21.501 1s19.667 1.5 30 2.5s19.833 2 28.5 3s14 1.5 16 1.5c3.33301 0 6.5 -1 9.5 -3s4.5 -5.33301 4.5 -10z" />
    <glyph glyph-name="afii62840" unicode="&#xfedf;&#xfe8e;" horiz-adv-x="1069" arabic-form="isolated" 
d="M1028 981c0 -7.33301 -20.3301 -51.6709 -60.9971 -133.004l-23 10c0 -32 -2 -67 -6 -105s-10.667 -80 -20 -126c-11.333 -54.667 -23.833 -105 -37.5 -151s-29.167 -88 -46.5 -126c58.667 -95.333 88 -173.666 88 -234.999c0 -46 -7 -78.667 -21 -98
s-37.667 -31 -71 -35c-46 -6.66699 -90.5 -11.5 -133.5 -14.5s-84.5 -4.5 -124.5 -4.5c-61.333 0 -92 17 -92 51v62c0 28.667 7.33301 43 22 43c1.33301 0 6.16602 -1.66699 14.499 -5s17.166 -5 26.499 -5c25.333 0 55.833 17.833 91.5 53.5s75.5 90.167 119.5 163.5
c-23.333 34 -52 71.667 -86 113s-73 86 -117 134c-44 48.667 -83 89.834 -117 123.501s-64 60.167 -90 79.5c-18.667 -18.667 -36.334 -28 -53.001 -28c-21.333 0 -68.333 23 -141 69c-28.667 18.667 -43 53.667 -43 105c0 76 13 114 39 114c60 0 150.667 -58.667 272 -176
c66 -62 130 -130.667 192 -206s123 -159 183 -251c9.33301 19.333 18 46.666 26 81.999s15.667 79 23 131c18 112.667 27 221.334 27 326.001c-16.667 16 -25 30.333 -25 43c0 5.33301 3.16699 16.333 9.5 33s16.166 39 29.499 67c26.667 56 44.334 84 53.001 84
c12.667 0 19 -9.33301 19 -28c0 -4 -1 -11.667 -3 -23s-3 -20.666 -3 -27.999c0 -34 18.333 -62 55 -84c16 -9.33301 24 -17.666 24 -24.999zM871.003 142.995c0 22.667 -26 67 -78 133c-35.333 -59.333 -77 -115 -125 -167c135.333 8 203 19.333 203 34z" />
    <glyph glyph-name="afii62841" unicode="&#xfee0;&#xfe8e;" horiz-adv-x="1113" arabic-form="final" 
d="M1113 0c-116 0 -188.999 60 -218.999 180c-8.66699 33.333 -18 86.5 -28 159.5s-21.333 166.833 -34 281.5c-17.333 -116 -39.5 -215.167 -66.5 -297.5s-58.5 -149.166 -94.5 -200.499c-28 -40 -62.833 -74 -104.5 -102s-90.167 -50.667 -145.5 -68
c-90.667 -28.667 -169.334 -43 -236.001 -43c-19.333 0 -29 6 -29 18c0 11.333 14.667 21 44 29c38 11.333 77.833 27.166 119.5 47.499s85.5 45.5 131.5 75.5c50.667 32.667 93.167 65.167 127.5 97.5s60.833 64.5 79.5 96.5c0 160.667 -116.667 334.334 -350 521.001
c-32.667 -24.667 -58 -37 -76 -37c-18.667 0 -50 19 -94 57c-45.333 39.333 -68 69.333 -68 90c0 11.333 1.5 23.666 4.5 36.999s7.16699 27.666 12.5 42.999c12 38 26.333 57 43 57c15.333 0 35.333 -6.16699 60 -18.5s55 -31.166 91 -56.499c76 -54 150 -119 222 -195
c62.667 -66.667 109.667 -136.334 141 -209.001s47 -149.667 47 -231c30 60.667 52.5 133.334 67.5 218.001s22.5 182.667 22.5 294c0 16.667 -0.5 33.334 -1.5 50.001s-2.16699 31.667 -3.5 45s-2.5 24.166 -3.5 32.499s-1.5 12.833 -1.5 13.5
c49.333 113.333 77.333 170 84 170c5.33301 0 14 -64.667 26 -194c8.66699 -102 18.667 -202.667 30 -302s24.666 -199 39.999 -299c6 -42 13.667 -77 23 -105s20 -49.667 32 -65c22.667 -25.333 58.334 -38 107.001 -38v-152v0z" />
    <glyph glyph-name="uni0672.fina" unicode="&#x672;" horiz-adv-x="489" 
d="M429 0c-70 0 -126 26 -168 78c-38.667 48.667 -61 130 -67 244c-20.667 342.667 -44.667 580.667 -72 714c33.333 101.333 55.333 152 66 152c11.333 0 22 -42.333 32 -127c4.66699 -38 10.5 -101.333 17.5 -190s15.5 -203.667 25.5 -345
c12.667 -162.667 30.667 -267.667 54 -315c20 -39.333 58 -59 114 -59h58v-152h-60zM226 1482c2.66699 1.33301 -1.99902 7.99902 -13.999 19.999s-24.667 20.333 -38 25c-10 2.66699 -24 -0.833008 -42 -10.5s-29.667 -23.834 -35 -42.501
c4.66699 -20.667 14.667 -35.5 30 -44.5s33.5 -14.5 54.5 -16.5s42.667 -1.16699 65 2.5s42.5 7.83398 60.5 12.501c8 2 10 -2.16699 6 -12.5s-10.333 -23.833 -19 -40.5c-34.667 -25.333 -90.167 -40.666 -166.5 -45.999s-121.166 -23.666 -134.499 -54.999
c-7.33301 -2.66699 -10.333 1.5 -9 12.5s3.33301 19.833 6 26.5c11.333 26 35.666 41.167 72.999 45.5s64 10.166 80 17.499c-16.667 0.666992 -36.167 6.83398 -58.5 18.501s-31.5 33.834 -27.5 66.501c0.666992 25.333 7.83398 48.166 21.501 68.499s30.167 36 49.5 47
s41.166 15.167 65.499 12.5s47.833 -14.667 70.5 -36c6.66699 -10.667 6.16699 -21.834 -1.5 -33.501s-19.834 -24.167 -36.501 -37.5z" />
    <glyph glyph-name="uni0673.fina" unicode="&#x673;" horiz-adv-x="489" 
d="M429 0c-70 0 -126 26 -168 78c-38.667 48.667 -61 130 -67 244c-20.667 342.667 -44.667 580.667 -72 714c33.333 101.333 55.333 152 66 152c11.333 0 22 -42.333 32 -127c4.66699 -38 10.5 -101.333 17.5 -190s15.5 -203.667 25.5 -345
c12.667 -162.667 30.667 -267.667 54 -315c20 -39.333 58 -59 114 -59h58v-152h-60zM334 -214c2.66699 1.33301 -1.99902 7.99902 -13.999 19.999s-24.667 20.333 -38 25c-10 2.66699 -24 -0.833008 -42 -10.5s-29.667 -23.834 -35 -42.501
c4.66699 -20.667 14.667 -35.5 30 -44.5s33.5 -14.5 54.5 -16.5s42.667 -1.16699 65 2.5s42.5 7.83398 60.5 12.501c8 2 10 -2.16699 6 -12.5s-10.333 -23.833 -19 -40.5c-34.667 -25.333 -90.167 -40.666 -166.5 -45.999s-121.166 -23.666 -134.499 -54.999
c-7.33301 -2.66699 -10.333 1.5 -9 12.5s3.33301 19.833 6 26.5c11.333 26 35.666 41.167 72.999 45.5s64 10.166 80 17.499c-16.667 0.666992 -36.167 6.83398 -58.5 18.501s-31.5 33.834 -27.5 66.501c0.666992 25.333 7.83398 48.166 21.501 68.499s30.167 36 49.5 47
s41.166 15.167 65.499 12.5s47.833 -14.667 70.5 -36c6.66699 -10.667 6.16699 -21.834 -1.5 -33.501s-19.834 -24.167 -36.501 -37.5z" />
    <glyph glyph-name="uni0675.fina" unicode="&#x675;" horiz-adv-x="489" 
d="M429 0c-70 0 -126 26 -168 78c-38.667 48.667 -61 130 -67 244c-20.667 342.667 -44.667 580.667 -72 714c33.333 101.333 55.333 152 66 152c11.333 0 22 -42.333 32 -127c4.66699 -38 10.5 -101.333 17.5 -190s15.5 -203.667 25.5 -345
c12.667 -162.667 30.667 -267.667 54 -315c20 -39.333 58 -59 114 -59h58v-152h-60zM305 1369c0 -3.33301 -0.500977 -7.66895 -1.50098 -13.002s-2.66699 -10.666 -5 -15.999s-5.66602 -10 -9.99902 -14s-9.5 -6.66699 -15.5 -8c-6.66699 0 -16.334 -0.333008 -29.001 -1
s-26.667 -2.5 -42 -5.5s-31.166 -7.33301 -47.499 -13s-31.5 -13.5 -45.5 -23.5c-4.66699 -2.66699 -10.834 -7.16699 -18.501 -13.5s-14.834 -9.5 -21.501 -9.5c-6 0 -9 4.33301 -9 13c0 5.33301 3.33301 13.5 10 24.5s18.334 25.167 35.001 42.5c-34 19.333 -51 41 -51 65
c0 9.33301 2.5 19 7.5 29s13.833 20.667 26.5 32c50.667 42.667 91 64 121 64c18 0 31.5 -4.66699 40.5 -14s13.5 -18.666 13.5 -27.999c0 -6 -1.5 -11.5 -4.5 -16.5s-6.66699 -9.33301 -11 -13s-9 -6.5 -14 -8.5s-9.16699 -3 -12.5 -3c-6.66699 0 -14.5 3.66699 -23.5 11
s-19.167 11 -30.5 11c-12.667 0 -23.167 -3 -31.5 -9s-12.5 -13.667 -12.5 -23c0 -5.33301 2 -11.333 6 -18s9.16699 -12.667 15.5 -18s13.833 -9.83301 22.5 -13.5s18 -5.5 28 -5.5c4.66699 0 11.834 0.333008 21.501 1s19.667 1.5 30 2.5s19.833 2 28.5 3s14 1.5 16 1.5
c3.33301 0 6.5 -1 9.5 -3s4.5 -5.33301 4.5 -10z" />
    <glyph glyph-name="uni0676.fina" unicode="&#x676;" horiz-adv-x="721" 
d="M676 0c-5.33301 -32 -17.833 -67.333 -37.5 -106s-47.5 -81 -83.5 -127c-92 -116.667 -189.667 -175 -293 -175c-56 0 -118 16.667 -186 50c-61.333 30 -92 53 -92 69c0 10 6 15 18 15c-1.33301 0 15.667 -5 51 -15c18.667 -5.33301 37.167 -9 55.5 -11
s36.166 -3 53.499 -3c132 0 246.667 54 344 162c28.667 32 51.5 59.667 68.5 83s28.167 43.333 33.5 60c-9.33301 -1.33301 -21 -2.33301 -35 -3s-30.333 -1 -49 -1c-57.333 0 -103.666 15.667 -138.999 47c-28.667 26.667 -43 57.334 -43 92.001
c0 51.333 19.667 106.666 59 165.999c42 62.667 83.667 94 125 94c32 0 60.667 -19.667 86 -59s47.333 -101.333 66 -186h43v-152h-45zM586 154c-12 34 -26.5 58.5 -43.5 73.5s-36.167 22.5 -57.5 22.5c-16 0 -29.167 -5 -39.5 -15s-16.166 -25.333 -17.499 -46
c-1.33301 -12 4.16699 -21 16.5 -27s27.166 -10 44.499 -12s35 -2.5 53 -1.5s32.667 2.83301 44 5.5zM598 628c0 -3.33301 -0.500977 -7.66895 -1.50098 -13.002s-2.66699 -10.666 -5 -15.999s-5.66602 -10 -9.99902 -14s-9.5 -6.66699 -15.5 -8
c-6.66699 0 -16.334 -0.333008 -29.001 -1s-26.667 -2.5 -42 -5.5s-31.166 -7.33301 -47.499 -13s-31.5 -13.5 -45.5 -23.5c-4.66699 -2.66699 -10.834 -7.16699 -18.501 -13.5s-14.834 -9.5 -21.501 -9.5c-6 0 -9 4.33301 -9 13c0 5.33301 3.33301 13.5 10 24.5
s18.334 25.167 35.001 42.5c-34 19.333 -51 41 -51 65c0 9.33301 2.5 19 7.5 29s13.833 20.667 26.5 32c50.667 42.667 91 64 121 64c18 0 31.5 -4.66699 40.5 -14s13.5 -18.666 13.5 -27.999c0 -6 -1.5 -11.5 -4.5 -16.5s-6.66699 -9.33301 -11 -13s-9 -6.5 -14 -8.5
s-9.16699 -3 -12.5 -3c-6.66699 0 -14.5 3.66699 -23.5 11s-19.167 11 -30.5 11c-12.667 0 -23.167 -3 -31.5 -9s-12.5 -13.667 -12.5 -23c0 -5.33301 2 -11.333 6 -18s9.16699 -12.667 15.5 -18s13.833 -9.83301 22.5 -13.5s18 -5.5 28 -5.5
c4.66699 0 11.834 0.333008 21.501 1s19.667 1.5 30 2.5s19.833 2 28.5 3s14 1.5 16 1.5c3.33301 0 6.5 -1 9.5 -3s4.5 -5.33301 4.5 -10z" />
    <glyph glyph-name="uni0677.fina" unicode="&#x677;" horiz-adv-x="721" 
d="M676 0c-5.33301 -32 -17.833 -67.333 -37.5 -106s-47.5 -81 -83.5 -127c-92 -116.667 -189.667 -175 -293 -175c-56 0 -118 16.667 -186 50c-61.333 30 -92 53 -92 69c0 10 6 15 18 15c-1.33301 0 15.667 -5 51 -15c18.667 -5.33301 37.167 -9 55.5 -11
s36.166 -3 53.499 -3c132 0 246.667 54 344 162c28.667 32 51.5 59.667 68.5 83s28.167 43.333 33.5 60c-9.33301 -1.33301 -21 -2.33301 -35 -3s-30.333 -1 -49 -1c-57.333 0 -103.666 15.667 -138.999 47c-28.667 26.667 -43 57.334 -43 92.001
c0 51.333 19.667 106.666 59 165.999c42 62.667 83.667 94 125 94c32 0 60.667 -19.667 86 -59s47.333 -101.333 66 -186h43v-152h-45zM586 154c-12 34 -26.5 58.5 -43.5 73.5s-36.167 22.5 -57.5 22.5c-16 0 -29.167 -5 -39.5 -15s-16.166 -25.333 -17.499 -46
c-1.33301 -12 4.16699 -21 16.5 -27s27.166 -10 44.499 -12s35 -2.5 53 -1.5s32.667 2.83301 44 5.5zM692 620c0 -3.33301 -0.500977 -7.66895 -1.50098 -13.002s-2.66699 -10.666 -5 -15.999s-5.66602 -10 -9.99902 -14s-9.5 -6.66699 -15.5 -8
c-6.66699 0 -16.334 -0.333008 -29.001 -1s-26.667 -2.5 -42 -5.5s-31.166 -7.33301 -47.499 -13s-31.5 -13.5 -45.5 -23.5c-4.66699 -2.66699 -10.834 -7.16699 -18.501 -13.5s-14.834 -9.5 -21.501 -9.5c-6 0 -9 4.33301 -9 13c0 5.33301 3.33301 13.5 10 24.5
s18.334 25.167 35.001 42.5c-34 19.333 -51 41 -51 65c0 9.33301 2.5 19 7.5 29s13.833 20.667 26.5 32c50.667 42.667 91 64 121 64c18 0 31.5 -4.66699 40.5 -14s13.5 -18.666 13.5 -27.999c0 -6 -1.5 -11.5 -4.5 -16.5s-6.66699 -9.33301 -11 -13s-9 -6.5 -14 -8.5
s-9.16699 -3 -12.5 -3c-6.66699 0 -14.5 3.66699 -23.5 11s-19.167 11 -30.5 11c-12.667 0 -23.167 -3 -31.5 -9s-12.5 -13.667 -12.5 -23c0 -5.33301 2 -11.333 6 -18s9.16699 -12.667 15.5 -18s13.833 -9.83301 22.5 -13.5s18 -5.5 28 -5.5
c4.66699 0 11.834 0.333008 21.501 1s19.667 1.5 30 2.5s19.833 2 28.5 3s14 1.5 16 1.5c3.33301 0 6.5 -1 9.5 -3s4.5 -5.33301 4.5 -10zM371.528 580.966l-5.9209 -78.6221l-64.3066 43.1152c-63.7412 -77.2139 -116.201 -115.82 -157.38 -115.82
c-10.1533 0 -25.9482 3.09961 -47.3838 9.2998c54.1523 30.4346 110.843 71.5771 170.072 123.428c-32.1533 24.7988 -48.2295 49.0332 -48.2295 72.7041c0 32.126 11.8457 65.3789 35.5381 99.7588c16.3584 22.5439 35.2549 33.8154 56.6895 33.8154
c36.666 0 54.999 -23.3896 54.999 -70.168c0 -25.3623 -8.46191 -56.3604 -25.3848 -92.9941c7.33301 -5.07227 17.7686 -13.2441 31.3066 -24.5166zM315.686 651.979c0 11.2725 -4.08984 22.1201 -12.2695 32.5469c-8.17871 10.4268 -18.1914 15.6396 -30.0371 15.6396
c-9.58984 0 -14.3848 -5.35449 -14.3848 -16.0625c0 -15.7803 17.2051 -35.5059 51.6143 -59.1768c3.38477 10.708 5.07715 19.7256 5.07715 27.0527z" />
    <glyph glyph-name="uni0678.fina" unicode="&#x678;" horiz-adv-x="1049" 
d="M1049 0c-44 0 -84.998 -2.16992 -122.998 -6.50293s-73 -11.166 -105 -20.499c-53.333 -14 -80 -29 -80 -45c0 -9.33301 53.333 -23.666 160 -42.999c70 -10 105 -40 105 -90c0 -51.333 -22 -95 -66 -131c-162.667 -129.333 -334.667 -194 -516 -194
c-56.667 0 -107.334 6.66699 -152.001 20s-82.5 32.833 -113.5 58.5s-54.667 57.334 -71 95.001s-24.5 80.834 -24.5 129.501c0 115.333 50 223 150 323c11.333 11.333 21.666 17 30.999 17s14 -7 14 -21c0 3.33301 -19.667 -25.334 -59 -86.001
c-19.333 -30 -34.166 -59.333 -44.499 -88s-15.5 -57.334 -15.5 -86.001c0 -58.667 28 -112 84 -160c57.333 -48.667 125.666 -73 204.999 -73c110 0 220 20.333 330 61c95.333 36.667 143 65.334 143 86.001c0 10 -25.333 18.333 -76 25c-69.333 10 -116.333 18 -141 24
c-50.667 18.667 -76 46 -76 82c0 66.667 46.667 128.667 140 186c90.667 59.333 191 89 301 89v-152v0zM619.002 408.997c0 -3.33301 -0.500977 -7.66895 -1.50098 -13.002s-2.66699 -10.666 -5 -15.999s-5.66602 -10 -9.99902 -14s-9.5 -6.66699 -15.5 -8
c-6.66699 0 -16.334 -0.333008 -29.001 -1s-26.667 -2.5 -42 -5.5s-31.166 -7.33301 -47.499 -13s-31.5 -13.5 -45.5 -23.5c-4.66699 -2.66699 -10.834 -7.16699 -18.501 -13.5s-14.834 -9.5 -21.501 -9.5c-6 0 -9 4.33301 -9 13c0 5.33301 3.33301 13.5 10 24.5
s18.334 25.167 35.001 42.5c-34 19.333 -51 41 -51 65c0 9.33301 2.5 19 7.5 29s13.833 20.667 26.5 32c50.667 42.667 91 64 121 64c18 0 31.5 -4.66699 40.5 -14s13.5 -18.666 13.5 -27.999c0 -6 -1.5 -11.5 -4.5 -16.5s-6.66699 -9.33301 -11 -13s-9 -6.5 -14 -8.5
s-9.16699 -3 -12.5 -3c-6.66699 0 -14.5 3.66699 -23.5 11s-19.167 11 -30.5 11c-12.667 0 -23.167 -3 -31.5 -9s-12.5 -13.667 -12.5 -23c0 -5.33301 2 -11.333 6 -18s9.16699 -12.667 15.5 -18s13.833 -9.83301 22.5 -13.5s18 -5.5 28 -5.5
c4.66699 0 11.834 0.333008 21.501 1s19.667 1.5 30 2.5s19.833 2 28.5 3s14 1.5 16 1.5c3.33301 0 6.5 -1 9.5 -3s4.5 -5.33301 4.5 -10z" />
    <glyph glyph-name="uni067C.init" unicode="&#x67c;" horiz-adv-x="318" 
d="M276 260c0 -96 -20.332 -164.332 -60.999 -204.999c-13.333 -13.333 -45.333 -26.333 -96 -39c-24.667 -5.33301 -46.834 -9.33301 -66.501 -12s-37.167 -4 -52.5 -4c-46.667 0 -70 25.333 -70 76s23.333 76 70 76h37c86 0 144 10.667 174 32
c0 41.333 -22 88.666 -66 141.999l45 104c3.33301 6.66699 7 10 11 10s9.33301 -5.33301 16 -16c39.333 -59.333 59 -114 59 -164zM11.001 590.001l-93 93l93 93l93 -93zM208.001 598.001l-93 93l93 93l93 -93zM258.001 -42.999c0 -22 -3.66992 -43.168 -11.0029 -63.501
s-17.666 -38.5 -30.999 -54.5s-29.166 -28.667 -47.499 -38s-38.166 -14 -59.499 -14c-29.333 0 -53.5 9.5 -72.5 28.5s-28.5 45.167 -28.5 78.5c0 23.333 3.66699 45.5 11 66.5s19.333 41.833 36 62.5c34 42 71 63 111 63c30 0 52.833 -12.167 68.5 -36.5
s23.5 -55.166 23.5 -92.499zM206.998 -65c0 10 -1.66699 19.5 -5 28.5s-7.66602 17.167 -12.999 24.5s-11.833 13.166 -19.5 17.499s-15.834 6.5 -24.501 6.5c-10 0 -20 -2.5 -30 -7.5s-19 -11.667 -27 -20s-14.5 -17.833 -19.5 -28.5s-7.5 -22 -7.5 -34
c0 -17.333 6.16699 -31.166 18.5 -41.499s26.166 -15.5 41.499 -15.5c12 0 23.167 2.16699 33.5 6.5s19.333 9.83301 27 16.5s13.834 14.167 18.501 22.5s7 16.5 7 24.5z" />
    <glyph glyph-name="uni067C.medi" unicode="&#x67c;" horiz-adv-x="440" 
d="M395 0c-33.333 0 -68.666 11.667 -105.999 35c-44 25.333 -71.333 57.333 -82 96c-40.667 -83.333 -109.667 -127 -207 -131c-46.667 -0 -70 25.333 -70 76s23.333 76 70 76h45c83.333 0 144.666 44.333 183.999 133c13.333 27.333 27 41 41 41c11.333 0 17 -5 17 -15
c0 -1.33301 -1.83301 -8.5 -5.5 -21.5s-5.5 -26.167 -5.5 -39.5c0 -65.333 56 -98 168 -98v-152h-49zM119 504l-93 93l93 93l93 -93zM316 512l-93 93l93 93l93 -93zM213 -48c0 -22 -3.66992 -43.168 -11.0029 -63.501s-17.666 -38.5 -30.999 -54.5
s-29.166 -28.667 -47.499 -38s-38.166 -14 -59.499 -14c-29.333 0 -53.5 9.5 -72.5 28.5s-28.5 45.167 -28.5 78.5c0 23.333 3.66699 45.5 11 66.5s19.333 41.833 36 62.5c34 42 71 63 111 63c30 0 52.833 -12.167 68.5 -36.5s23.5 -55.166 23.5 -92.499zM161.997 -70.001
c0 10 -1.66699 19.5 -5 28.5s-7.66602 17.167 -12.999 24.5s-11.833 13.166 -19.5 17.499s-15.834 6.5 -24.501 6.5c-10 0 -20 -2.5 -30 -7.5s-19 -11.667 -27 -20s-14.5 -17.833 -19.5 -28.5s-7.5 -22 -7.5 -34c0 -17.333 6.16699 -31.166 18.5 -41.499
s26.166 -15.5 41.499 -15.5c12 0 23.167 2.16699 33.5 6.5s19.333 9.83301 27 16.5s13.834 14.167 18.501 22.5s7 16.5 7 24.5z" />
    <glyph glyph-name="uni067C.fina" unicode="&#x67c;" horiz-adv-x="1384" 
d="M1384 0c-21.333 0 -43.501 1.16602 -66.501 3.49902s-44.333 8 -64 17s-36.667 22.667 -51 41s-23.5 43.5 -27.5 75.5c-23.333 -19.333 -54.666 -40.5 -93.999 -63.5s-85.5 -44.5 -138.5 -64.5s-112 -36.667 -177 -50s-135.167 -20 -210.5 -20
c-93.333 0 -170.5 8.83301 -231.5 26.5s-109.5 39.834 -145.5 66.501s-61.167 55.667 -75.5 87s-21.5 60.666 -21.5 87.999c0 26.667 5 54 15 82s21.667 53.5 35 76.5s26.5 41.833 39.5 56.5s22.167 22 27.5 22c11.333 0 17 -4.66699 17 -14
c0 -3.33301 -2.5 -9.66602 -7.5 -18.999s-10.333 -20.833 -16 -34.5s-11 -28.834 -16 -45.501s-7.5 -34 -7.5 -52c0 -19.333 7 -40.166 21 -62.499s37.5 -42.833 70.5 -61.5s76.5 -34.167 130.5 -46.5s121 -18.5 201 -18.5c65.333 0 130 5.33301 194 16
s123 24.334 177 41.001s101 35.334 141 56.001s68.667 41 86 61c13.333 15.333 23.5 25.666 30.5 30.999s12.833 8 17.5 8c4 0 8 -1.66699 12 -5s6 -7 6 -11c0 -7.33301 -1.66699 -16.333 -5 -27s-5 -20.334 -5 -29.001c0 -6 2.5 -13.5 7.5 -22.5s12 -17.667 21 -26
s20.167 -15.5 33.5 -21.5s28 -9 44 -9h33v-152v0zM560.999 501.999l-93 93l93 93l93 -93zM757.999 509.999l-93 93l93 93l93 -93zM677.999 -120.001c0 -22 -3.66992 -43.168 -11.0029 -63.501s-17.666 -38.5 -30.999 -54.5s-29.166 -28.667 -47.499 -38
s-38.166 -14 -59.499 -14c-29.333 0 -53.5 9.5 -72.5 28.5s-28.5 45.167 -28.5 78.5c0 23.333 3.66699 45.5 11 66.5s19.333 41.833 36 62.5c34 42 71 63 111 63c30 0 52.833 -12.167 68.5 -36.5s23.5 -55.166 23.5 -92.499zM626.996 -142.002c0 10 -1.66699 19.5 -5 28.5
s-7.66602 17.167 -12.999 24.5s-11.833 13.166 -19.5 17.499s-15.834 6.5 -24.501 6.5c-10 0 -20 -2.5 -30 -7.5s-19 -11.667 -27 -20s-14.5 -17.833 -19.5 -28.5s-7.5 -22 -7.5 -34c0 -17.333 6.16699 -31.166 18.5 -41.499s26.166 -15.5 41.499 -15.5
c12 0 23.167 2.16699 33.5 6.5s19.333 9.83301 27 16.5s13.834 14.167 18.501 22.5s7 16.5 7 24.5z" />
    <glyph glyph-name="uni067D.init" unicode="&#x67d;" horiz-adv-x="318" 
d="M276 260c0 -96 -20.332 -164.332 -60.999 -204.999c-13.333 -13.333 -45.333 -26.333 -96 -39c-24.667 -5.33301 -46.834 -9.33301 -66.501 -12s-37.167 -4 -52.5 -4c-46.667 0 -70 25.333 -70 76s23.333 76 70 76h37c86 0 144 10.667 174 32
c0 41.333 -22 88.666 -66 141.999l45 104c3.33301 6.66699 7 10 11 10s9.33301 -5.33301 16 -16c39.333 -59.333 59 -114 59 -164zM-3.99902 899.001l90 -90l-90 -90l-90 90zM205.001 905.001l90 -90l-90 -90l-90 90zM103.001 739.001l90 -90l-90 -90l-90 90z" />
    <glyph glyph-name="uni067D.medi" unicode="&#x67d;" horiz-adv-x="440" 
d="M395 0c-33.333 0 -68.666 11.667 -105.999 35c-44 25.333 -71.333 57.333 -82 96c-40.667 -83.333 -109.667 -127 -207 -131c-46.667 -0 -70 25.333 -70 76s23.333 76 70 76h45c83.333 0 144.666 44.333 183.999 133c13.333 27.333 27 41 41 41c11.333 0 17 -5 17 -15
c0 -1.33301 -1.83301 -8.5 -5.5 -21.5s-5.5 -26.167 -5.5 -39.5c0 -65.333 56 -98 168 -98v-152h-49zM125 836l90 -90l-90 -90l-90 90zM334 842l90 -90l-90 -90l-90 90zM232 676l90 -90l-90 -90l-90 90z" />
    <glyph glyph-name="uni067D.fina" unicode="&#x67d;" horiz-adv-x="1384" 
d="M1384 0c-21.333 0 -43.501 1.16602 -66.501 3.49902s-44.333 8 -64 17s-36.667 22.667 -51 41s-23.5 43.5 -27.5 75.5c-23.333 -19.333 -54.666 -40.5 -93.999 -63.5s-85.5 -44.5 -138.5 -64.5s-112 -36.667 -177 -50s-135.167 -20 -210.5 -20
c-93.333 0 -170.5 8.83301 -231.5 26.5s-109.5 39.834 -145.5 66.501s-61.167 55.667 -75.5 87s-21.5 60.666 -21.5 87.999c0 26.667 5 54 15 82s21.667 53.5 35 76.5s26.5 41.833 39.5 56.5s22.167 22 27.5 22c11.333 0 17 -4.66699 17 -14
c0 -3.33301 -2.5 -9.66602 -7.5 -18.999s-10.333 -20.833 -16 -34.5s-11 -28.834 -16 -45.501s-7.5 -34 -7.5 -52c0 -19.333 7 -40.166 21 -62.499s37.5 -42.833 70.5 -61.5s76.5 -34.167 130.5 -46.5s121 -18.5 201 -18.5c65.333 0 130 5.33301 194 16
s123 24.334 177 41.001s101 35.334 141 56.001s68.667 41 86 61c13.333 15.333 23.5 25.666 30.5 30.999s12.833 8 17.5 8c4 0 8 -1.66699 12 -5s6 -7 6 -11c0 -7.33301 -1.66699 -16.333 -5 -27s-5 -20.334 -5 -29.001c0 -6 2.5 -13.5 7.5 -22.5s12 -17.667 21 -26
s20.167 -15.5 33.5 -21.5s28 -9 44 -9h33v-152v0zM563.999 802.999l90 -90l-90 -90l-90 90zM772.999 808.999l90 -90l-90 -90l-90 90zM670.999 642.999l90 -90l-90 -90l-90 90z" />
    <glyph glyph-name="uni0681.init" unicode="&#x681;" horiz-adv-x="996" 
d="M877 141c-2 0 -6.83203 0.169922 -14.499 0.50293s-16.334 0.833008 -26.001 1.5s-19.834 1.16699 -30.501 1.5s-20 0.5 -28 0.5c-136 0 -273 -23.667 -411 -71c-71.333 -24.667 -137.333 -43.167 -198 -55.5s-117 -18.5 -169 -18.5c-46.667 0 -70 25.333 -70 76
s23.333 76 70 76c93.333 0 180.5 5.66699 261.5 17s156.833 28.666 227.5 51.999c-120 70 -201.667 105 -245 105c-38 0 -69.333 -10.333 -94 -31c-25.333 -19.333 -40.666 -29 -45.999 -29c-8 0 -12 7 -12 21c0 23.333 13.667 54.666 41 93.999
c19.333 25.333 41.5 44.666 66.5 57.999s53.5 20 85.5 20c38.667 0 119 -29.333 241 -88c62 -30 121 -52.167 177 -66.5s109 -21.5 159 -21.5h90zM658.001 722.003c0 -3.33301 -0.500977 -7.66895 -1.50098 -13.002s-2.66699 -10.666 -5 -15.999s-5.66602 -10 -9.99902 -14
s-9.5 -6.66699 -15.5 -8c-6.66699 0 -16.334 -0.333008 -29.001 -1s-26.667 -2.5 -42 -5.5s-31.166 -7.33301 -47.499 -13s-31.5 -13.5 -45.5 -23.5c-4.66699 -2.66699 -10.834 -7.16699 -18.501 -13.5s-14.834 -9.5 -21.501 -9.5c-6 0 -9 4.33301 -9 13
c0 5.33301 3.33301 13.5 10 24.5s18.334 25.167 35.001 42.5c-34 19.333 -51 41 -51 65c0 9.33301 2.5 19 7.5 29s13.833 20.667 26.5 32c50.667 42.667 91 64 121 64c18 0 31.5 -4.66699 40.5 -14s13.5 -18.666 13.5 -27.999c0 -6 -1.5 -11.5 -4.5 -16.5
s-6.66699 -9.33301 -11 -13s-9 -6.5 -14 -8.5s-9.16699 -3 -12.5 -3c-6.66699 0 -14.5 3.66699 -23.5 11s-19.167 11 -30.5 11c-12.667 0 -23.167 -3 -31.5 -9s-12.5 -13.667 -12.5 -23c0 -5.33301 2 -11.333 6 -18s9.16699 -12.667 15.5 -18s13.833 -9.83301 22.5 -13.5
s18 -5.5 28 -5.5c4.66699 0 11.834 0.333008 21.501 1s19.667 1.5 30 2.5s19.833 2 28.5 3s14 1.5 16 1.5c3.33301 0 6.5 -1 9.5 -3s4.5 -5.33301 4.5 -10z" />
    <glyph glyph-name="uni0681.medi" unicode="&#x681;" horiz-adv-x="1063" 
d="M871 0c-51.333 0 -91.502 13.001 -120.502 39.001s-43.5 66.333 -43.5 121c0 7.33301 0.5 15.833 1.5 25.5s2.5 20.167 4.5 31.5c-60.667 -9.33301 -125.167 -26 -193.5 -50s-141.166 -55 -218.499 -93c-100.667 -49.333 -201 -74 -301 -74c-46.667 0 -70 25.333 -70 76
s23.333 76 70 76c189.333 0 349 42.333 479 127c-66 25.333 -120 44.166 -162 56.499s-72.667 18.5 -92 18.5c-22 0 -43.667 -8.66699 -65 -26c-22.667 -16.667 -37 -25 -43 -25c-11.333 0 -17 7 -17 21c0 21.333 14.333 52 43 92c41.333 53.333 91.333 80 150 80
c37.333 0 99.333 -18.667 186 -56c58 -24.667 115.833 -43 173.5 -55s115.834 -18 174.501 -18h88l-53 -131l-112 -13v-16c0 -21.333 11 -35.833 33 -43.5s52 -11.5 90 -11.5h190v-152h-192zM670.998 774.001c0 -3.33301 -0.500977 -7.66895 -1.50098 -13.002
s-2.66699 -10.666 -5 -15.999s-5.66602 -10 -9.99902 -14s-9.5 -6.66699 -15.5 -8c-6.66699 0 -16.334 -0.333008 -29.001 -1s-26.667 -2.5 -42 -5.5s-31.166 -7.33301 -47.499 -13s-31.5 -13.5 -45.5 -23.5c-4.66699 -2.66699 -10.834 -7.16699 -18.501 -13.5
s-14.834 -9.5 -21.501 -9.5c-6 0 -9 4.33301 -9 13c0 5.33301 3.33301 13.5 10 24.5s18.334 25.167 35.001 42.5c-34 19.333 -51 41 -51 65c0 9.33301 2.5 19 7.5 29s13.833 20.667 26.5 32c50.667 42.667 91 64 121 64c18 0 31.5 -4.66699 40.5 -14
s13.5 -18.666 13.5 -27.999c0 -6 -1.5 -11.5 -4.5 -16.5s-6.66699 -9.33301 -11 -13s-9 -6.5 -14 -8.5s-9.16699 -3 -12.5 -3c-6.66699 0 -14.5 3.66699 -23.5 11s-19.167 11 -30.5 11c-12.667 0 -23.167 -3 -31.5 -9s-12.5 -13.667 -12.5 -23c0 -5.33301 2 -11.333 6 -18
s9.16699 -12.667 15.5 -18s13.833 -9.83301 22.5 -13.5s18 -5.5 28 -5.5c4.66699 0 11.834 0.333008 21.501 1s19.667 1.5 30 2.5s19.833 2 28.5 3s14 1.5 16 1.5c3.33301 0 6.5 -1 9.5 -3s4.5 -5.33301 4.5 -10z" />
    <glyph glyph-name="uni0681.fina" unicode="&#x681;" horiz-adv-x="1063" 
d="M1153 -666c0 -11.333 -20.3369 -21.999 -61.0039 -31.999c-19.333 -4 -90.333 -26.667 -213 -68c-36 -11.333 -74.167 -20 -114.5 -26s-83.5 -9 -129.5 -9c-87.333 0 -164.166 7 -230.499 21s-122.5 35 -168.5 63c-118 72.667 -177 195 -177 367
c0 132 31.667 249.333 95 352c26.667 44 60.334 87.667 101.001 131s89.334 87 146.001 131c-26 10 -64.667 15 -116 15c-23.333 0 -44.5 -3 -63.5 -9s-36.167 -14.667 -51.5 -26c-8 -6 -19.667 -20.333 -35 -43c-9.33301 -18 -19 -27 -29 -27
c-9.33301 0 -14 8.33301 -14 25c0 44 22 91 66 141c47.333 53.333 112 80 194 80c21.333 0 70 -4 146 -12c38 -3.33301 71.333 -6 100 -8s52.667 -3 72 -3c53.333 0 101.833 1.66699 145.5 5s82.5 8.66602 116.5 15.999l-53 -133l-107 -13
c-6.66699 -11.333 -10 -34.333 -10 -69c0 -20.667 8.16699 -34.334 24.5 -41.001s41.5 -10 75.5 -10h201v-152h-203c-51.333 0 -89.666 13 -114.999 39s-38 66.333 -38 121c0 34.667 6.66699 70.667 20 108c-177.333 -22 -320 -85.333 -428 -190
c-99.333 -97.333 -149 -214 -149 -350c0 -149.333 57.333 -254 172 -314c103.333 -55.333 266.333 -79.666 489 -72.999l291 6c34 2 51 -2.33301 51 -13zM570.996 732.001c0 -3.33301 -0.500977 -7.66895 -1.50098 -13.002s-2.66699 -10.666 -5 -15.999
s-5.66602 -10 -9.99902 -14s-9.5 -6.66699 -15.5 -8c-6.66699 0 -16.334 -0.333008 -29.001 -1s-26.667 -2.5 -42 -5.5s-31.166 -7.33301 -47.499 -13s-31.5 -13.5 -45.5 -23.5c-4.66699 -2.66699 -10.834 -7.16699 -18.501 -13.5s-14.834 -9.5 -21.501 -9.5
c-6 0 -9 4.33301 -9 13c0 5.33301 3.33301 13.5 10 24.5s18.334 25.167 35.001 42.5c-34 19.333 -51 41 -51 65c0 9.33301 2.5 19 7.5 29s13.833 20.667 26.5 32c50.667 42.667 91 64 121 64c18 0 31.5 -4.66699 40.5 -14s13.5 -18.666 13.5 -27.999
c0 -6 -1.5 -11.5 -4.5 -16.5s-6.66699 -9.33301 -11 -13s-9 -6.5 -14 -8.5s-9.16699 -3 -12.5 -3c-6.66699 0 -14.5 3.66699 -23.5 11s-19.167 11 -30.5 11c-12.667 0 -23.167 -3 -31.5 -9s-12.5 -13.667 -12.5 -23c0 -5.33301 2 -11.333 6 -18s9.16699 -12.667 15.5 -18
s13.833 -9.83301 22.5 -13.5s18 -5.5 28 -5.5c4.66699 0 11.834 0.333008 21.501 1s19.667 1.5 30 2.5s19.833 2 28.5 3s14 1.5 16 1.5c3.33301 0 6.5 -1 9.5 -3s4.5 -5.33301 4.5 -10z" />
    <glyph glyph-name="uni0682.init" unicode="&#x682;" horiz-adv-x="996" 
d="M877 141c-2 0 -6.83203 0.169922 -14.499 0.50293s-16.334 0.833008 -26.001 1.5s-19.834 1.16699 -30.501 1.5s-20 0.5 -28 0.5c-136 0 -273 -23.667 -411 -71c-71.333 -24.667 -137.333 -43.167 -198 -55.5s-117 -18.5 -169 -18.5c-46.667 0 -70 25.333 -70 76
s23.333 76 70 76c93.333 0 180.5 5.66699 261.5 17s156.833 28.666 227.5 51.999c-120 70 -201.667 105 -245 105c-38 0 -69.333 -10.333 -94 -31c-25.333 -19.333 -40.666 -29 -45.999 -29c-8 0 -12 7 -12 21c0 23.333 13.667 54.666 41 93.999
c19.333 25.333 41.5 44.666 66.5 57.999s53.5 20 85.5 20c38.667 0 119 -29.333 241 -88c62 -30 121 -52.167 177 -66.5s109 -21.5 159 -21.5h90zM389.001 808.003l-90 90l90 90l90 -90zM392.001 604.003l-90 90l90 90l90 -90z" />
    <glyph glyph-name="uni0682.medi" unicode="&#x682;" horiz-adv-x="1063" 
d="M871 0c-51.333 0 -91.502 13.001 -120.502 39.001s-43.5 66.333 -43.5 121c0 7.33301 0.5 15.833 1.5 25.5s2.5 20.167 4.5 31.5c-60.667 -9.33301 -125.167 -26 -193.5 -50s-141.166 -55 -218.499 -93c-100.667 -49.333 -201 -74 -301 -74c-46.667 0 -70 25.333 -70 76
s23.333 76 70 76c189.333 0 349 42.333 479 127c-66 25.333 -120 44.166 -162 56.499s-72.667 18.5 -92 18.5c-22 0 -43.667 -8.66699 -65 -26c-22.667 -16.667 -37 -25 -43 -25c-11.333 0 -17 7 -17 21c0 21.333 14.333 52 43 92c41.333 53.333 91.333 80 150 80
c37.333 0 99.333 -18.667 186 -56c58 -24.667 115.833 -43 173.5 -55s115.834 -18 174.501 -18h88l-53 -131l-112 -13v-16c0 -21.333 11 -35.833 33 -43.5s52 -11.5 90 -11.5h190v-152h-192zM357.998 850.001l-90 90l90 90l90 -90zM360.998 646.001l-90 90l90 90l90 -90z
" />
    <glyph glyph-name="uni0682.fina" unicode="&#x682;" horiz-adv-x="1063" 
d="M1153 -666c0 -11.333 -20.3369 -21.999 -61.0039 -31.999c-19.333 -4 -90.333 -26.667 -213 -68c-36 -11.333 -74.167 -20 -114.5 -26s-83.5 -9 -129.5 -9c-87.333 0 -164.166 7 -230.499 21s-122.5 35 -168.5 63c-118 72.667 -177 195 -177 367
c0 132 31.667 249.333 95 352c26.667 44 60.334 87.667 101.001 131s89.334 87 146.001 131c-26 10 -64.667 15 -116 15c-23.333 0 -44.5 -3 -63.5 -9s-36.167 -14.667 -51.5 -26c-8 -6 -19.667 -20.333 -35 -43c-9.33301 -18 -19 -27 -29 -27
c-9.33301 0 -14 8.33301 -14 25c0 44 22 91 66 141c47.333 53.333 112 80 194 80c21.333 0 70 -4 146 -12c38 -3.33301 71.333 -6 100 -8s52.667 -3 72 -3c53.333 0 101.833 1.66699 145.5 5s82.5 8.66602 116.5 15.999l-53 -133l-107 -13
c-6.66699 -11.333 -10 -34.333 -10 -69c0 -20.667 8.16699 -34.334 24.5 -41.001s41.5 -10 75.5 -10h201v-152h-203c-51.333 0 -89.666 13 -114.999 39s-38 66.333 -38 121c0 34.667 6.66699 70.667 20 108c-177.333 -22 -320 -85.333 -428 -190
c-99.333 -97.333 -149 -214 -149 -350c0 -149.333 57.333 -254 172 -314c103.333 -55.333 266.333 -79.666 489 -72.999l291 6c34 2 51 -2.33301 51 -13zM475.996 802.001l-90 90l90 90l90 -90zM478.996 598.001l-90 90l90 90l90 -90z" />
    <glyph glyph-name="uni0685.init" unicode="&#x685;" horiz-adv-x="996" 
d="M877 141c-2 0 -6.83203 0.169922 -14.499 0.50293s-16.334 0.833008 -26.001 1.5s-19.834 1.16699 -30.501 1.5s-20 0.5 -28 0.5c-136 0 -273 -23.667 -411 -71c-71.333 -24.667 -137.333 -43.167 -198 -55.5s-117 -18.5 -169 -18.5c-46.667 0 -70 25.333 -70 76
s23.333 76 70 76c93.333 0 180.5 5.66699 261.5 17s156.833 28.666 227.5 51.999c-120 70 -201.667 105 -245 105c-38 0 -69.333 -10.333 -94 -31c-25.333 -19.333 -40.666 -29 -45.999 -29c-8 0 -12 7 -12 21c0 23.333 13.667 54.666 41 93.999
c19.333 25.333 41.5 44.666 66.5 57.999s53.5 20 85.5 20c38.667 0 119 -29.333 241 -88c62 -30 121 -52.167 177 -66.5s109 -21.5 159 -21.5h90zM653.001 642.003l-90 90l90 90l90 -90zM444.001 636.003l-90 90l90 90l90 -90zM546.001 802.003l-90 90l90 90l90 -90z" />
    <glyph glyph-name="uni0685.medi" unicode="&#x685;" horiz-adv-x="1063" 
d="M871 0c-51.333 0 -91.502 13.001 -120.502 39.001s-43.5 66.333 -43.5 121c0 7.33301 0.5 15.833 1.5 25.5s2.5 20.167 4.5 31.5c-60.667 -9.33301 -125.167 -26 -193.5 -50s-141.166 -55 -218.499 -93c-100.667 -49.333 -201 -74 -301 -74c-46.667 0 -70 25.333 -70 76
s23.333 76 70 76c189.333 0 349 42.333 479 127c-66 25.333 -120 44.166 -162 56.499s-72.667 18.5 -92 18.5c-22 0 -43.667 -8.66699 -65 -26c-22.667 -16.667 -37 -25 -43 -25c-11.333 0 -17 7 -17 21c0 21.333 14.333 52 43 92c41.333 53.333 91.333 80 150 80
c37.333 0 99.333 -18.667 186 -56c58 -24.667 115.833 -43 173.5 -55s115.834 -18 174.501 -18h88l-53 -131l-112 -13v-16c0 -21.333 11 -35.833 33 -43.5s52 -11.5 90 -11.5h190v-152h-192zM660.998 630.001l-90 90l90 90l90 -90zM451.998 624.001l-90 90l90 90l90 -90z
M553.998 790.001l-90 90l90 90l90 -90z" />
    <glyph glyph-name="uni0685.fina" unicode="&#x685;" horiz-adv-x="1063" 
d="M1153 -666c0 -11.333 -20.3369 -21.999 -61.0039 -31.999c-19.333 -4 -90.333 -26.667 -213 -68c-36 -11.333 -74.167 -20 -114.5 -26s-83.5 -9 -129.5 -9c-87.333 0 -164.166 7 -230.499 21s-122.5 35 -168.5 63c-118 72.667 -177 195 -177 367
c0 132 31.667 249.333 95 352c26.667 44 60.334 87.667 101.001 131s89.334 87 146.001 131c-26 10 -64.667 15 -116 15c-23.333 0 -44.5 -3 -63.5 -9s-36.167 -14.667 -51.5 -26c-8 -6 -19.667 -20.333 -35 -43c-9.33301 -18 -19 -27 -29 -27
c-9.33301 0 -14 8.33301 -14 25c0 44 22 91 66 141c47.333 53.333 112 80 194 80c21.333 0 70 -4 146 -12c38 -3.33301 71.333 -6 100 -8s52.667 -3 72 -3c53.333 0 101.833 1.66699 145.5 5s82.5 8.66602 116.5 15.999l-53 -133l-107 -13
c-6.66699 -11.333 -10 -34.333 -10 -69c0 -20.667 8.16699 -34.334 24.5 -41.001s41.5 -10 75.5 -10h201v-152h-203c-51.333 0 -89.666 13 -114.999 39s-38 66.333 -38 121c0 34.667 6.66699 70.667 20 108c-177.333 -22 -320 -85.333 -428 -190
c-99.333 -97.333 -149 -214 -149 -350c0 -149.333 57.333 -254 172 -314c103.333 -55.333 266.333 -79.666 489 -72.999l291 6c34 2 51 -2.33301 51 -13zM562.996 634.001l-90 90l90 90l90 -90zM353.996 628.001l-90 90l90 90l90 -90zM455.996 794.001l-90 90l90 90l90 -90z
" />
    <glyph glyph-name="uni0689.fina" unicode="&#x689;" horiz-adv-x="834" 
d="M834 0c-29.333 0 -54.499 2.66895 -75.499 8.00195s-38.167 13.666 -51.5 24.999c-37.333 28 -69.666 86.667 -96.999 176c-18 -33.333 -39.833 -63.5 -65.5 -90.5s-53.834 -50 -84.501 -69s-63.167 -33.667 -97.5 -44s-69.166 -15.5 -104.499 -15.5
c-98 0 -147 34 -147 102c0 87.333 11.667 131 35 131c13.333 0 20 -10 20 -30c0 -34.667 36.333 -52 109 -52c134 0 238.333 44.333 313 133c-53.333 221.333 -80 347.666 -80 378.999c23.333 84.667 37.666 127 42.999 127c4 0 8 -8 12 -24l68 -283
c16.667 -68.667 32.167 -125 46.5 -169s28.166 -76.333 41.499 -97c20 -36.667 50.667 -55 92 -55h23v-152v0zM450.001 -55.998c0 -22 -3.66992 -43.168 -11.0029 -63.501s-17.666 -38.5 -30.999 -54.5s-29.166 -28.667 -47.499 -38s-38.166 -14 -59.499 -14
c-29.333 0 -53.5 9.5 -72.5 28.5s-28.5 45.167 -28.5 78.5c0 23.333 3.66699 45.5 11 66.5s19.333 41.833 36 62.5c34 42 71 63 111 63c30 0 52.833 -12.167 68.5 -36.5s23.5 -55.166 23.5 -92.499zM398.998 -77.999c0 10 -1.66699 19.5 -5 28.5
s-7.66602 17.167 -12.999 24.5s-11.833 13.166 -19.5 17.499s-15.834 6.5 -24.501 6.5c-10 0 -20 -2.5 -30 -7.5s-19 -11.667 -27 -20s-14.5 -17.833 -19.5 -28.5s-7.5 -22 -7.5 -34c0 -17.333 6.16699 -31.166 18.5 -41.499s26.166 -15.5 41.499 -15.5
c12 0 23.167 2.16699 33.5 6.5s19.333 9.83301 27 16.5s13.834 14.167 18.501 22.5s7 16.5 7 24.5z" />
    <glyph glyph-name="uni068A.fina" unicode="&#x68a;" horiz-adv-x="834" 
d="M834 0c-29.333 0 -54.499 2.66895 -75.499 8.00195s-38.167 13.666 -51.5 24.999c-37.333 28 -69.666 86.667 -96.999 176c-18 -33.333 -39.833 -63.5 -65.5 -90.5s-53.834 -50 -84.501 -69s-63.167 -33.667 -97.5 -44s-69.166 -15.5 -104.499 -15.5
c-98 0 -147 34 -147 102c0 87.333 11.667 131 35 131c13.333 0 20 -10 20 -30c0 -34.667 36.333 -52 109 -52c134 0 238.333 44.333 313 133c-53.333 221.333 -80 347.666 -80 378.999c23.333 84.667 37.666 127 42.999 127c4 0 8 -8 12 -24l68 -283
c16.667 -68.667 32.167 -125 46.5 -169s28.166 -76.333 41.499 -97c20 -36.667 50.667 -55 92 -55h23v-152v0zM279.001 -360.998l-104 104l104 104l104 -104z" />
    <glyph glyph-name="uni068b.fina" unicode="&#x68b;" horiz-adv-x="834" 
d="M834 0c-29.333 0 -54.499 2.66895 -75.499 8.00195s-38.167 13.666 -51.5 24.999c-37.333 28 -69.666 86.667 -96.999 176c-18 -33.333 -39.833 -63.5 -65.5 -90.5s-53.834 -50 -84.501 -69s-63.167 -33.667 -97.5 -44s-69.166 -15.5 -104.499 -15.5
c-98 0 -147 34 -147 102c0 87.333 11.667 131 35 131c13.333 0 20 -10 20 -30c0 -34.667 36.333 -52 109 -52c134 0 238.333 44.333 313 133c-53.333 221.333 -80 347.666 -80 378.999c23.333 84.667 37.666 127 42.999 127c4 0 8 -8 12 -24l68 -283
c16.667 -68.667 32.167 -125 46.5 -169s28.166 -76.333 41.499 -97c20 -36.667 50.667 -55 92 -55h23v-152v0zM657.001 1014c0 -12 -5.00098 -26.333 -15.001 -43c-4.66699 -9.33301 -9.83398 -17.5 -15.501 -24.5s-11.5 -13.5 -17.5 -19.5
c-23.333 -21.333 -57 -38.666 -101 -51.999c-38 -10.667 -77 -16 -117 -16c-32 0 -62.333 8 -91 24c-25.333 14 -38 25 -38 33c0 3.33301 5.33301 5 16 5h76c9.33301 0 18.333 3.33301 27 10c20.667 14.667 33.334 24.667 38.001 30c6.66699 10 10 19.667 10 29
c0 32 -2 67 -6 105s-9.66699 79 -17 123c-8 10 -12 22.333 -12 37c0 9.33301 7 26.666 21 51.999c4 6 7.33301 9 10 9c4.66699 0 7 -9 7 -27c0 -15.333 6.66699 -25 20 -29c10.667 -2.66699 16 -6 16 -10c0 -15.333 -1.33301 -28 -4 -38c-3.33301 -8 -6 -12 -8 -12
c-1.33301 0 -3 0.166992 -5 0.5s-4.66699 1.16602 -8 2.49902c4.66699 -30 8 -57.167 10 -81.5s3 -46.166 3 -65.499c0 -32.667 -2.33301 -56.334 -7 -71.001c54.667 54 98.334 81 131.001 81c14.667 0 30.667 -5 48 -15c19.333 -11.333 29 -23.666 29 -36.999zM619 980.002
c0 4.66699 -6.99902 10.999 -20.999 18.999c-14 7.33301 -29.333 11 -46 11c-14.667 0 -35.334 -8.33301 -62.001 -25c-14.667 -8.66699 -28.667 -18.167 -42 -28.5s-26 -22.166 -38 -35.499h24c37.333 0 78 6.66699 122 20c42 14 63 27 63 39zM304.001 -344.999l-104 104
l104 104l104 -104z" />
    <glyph glyph-name="uni068F.fina" unicode="&#x68f;" horiz-adv-x="834" 
d="M834 0c-29.333 0 -54.499 2.66895 -75.499 8.00195s-38.167 13.666 -51.5 24.999c-37.333 28 -69.666 86.667 -96.999 176c-18 -33.333 -39.833 -63.5 -65.5 -90.5s-53.834 -50 -84.501 -69s-63.167 -33.667 -97.5 -44s-69.166 -15.5 -104.499 -15.5
c-98 0 -147 34 -147 102c0 87.333 11.667 131 35 131c13.333 0 20 -10 20 -30c0 -34.667 36.333 -52 109 -52c134 0 238.333 44.333 313 133c-53.333 221.333 -80 347.666 -80 378.999c23.333 84.667 37.666 127 42.999 127c4 0 8 -8 12 -24l68 -283
c16.667 -68.667 32.167 -125 46.5 -169s28.166 -76.333 41.499 -97c20 -36.667 50.667 -55 92 -55h23v-152v0zM373.001 1193l90 -90l-90 -90l-90 90zM582.001 1199l90 -90l-90 -90l-90 90zM480.001 1033l90 -90l-90 -90l-90 90z" />
    <glyph glyph-name="uni0690.fina" unicode="&#x690;" horiz-adv-x="834" 
d="M834 0c-29.333 0 -54.499 2.66895 -75.499 8.00195s-38.167 13.666 -51.5 24.999c-37.333 28 -69.666 86.667 -96.999 176c-18 -33.333 -39.833 -63.5 -65.5 -90.5s-53.834 -50 -84.501 -69s-63.167 -33.667 -97.5 -44s-69.166 -15.5 -104.499 -15.5
c-98 0 -147 34 -147 102c0 87.333 11.667 131 35 131c13.333 0 20 -10 20 -30c0 -34.667 36.333 -52 109 -52c134 0 238.333 44.333 313 133c-53.333 221.333 -80 347.666 -80 378.999c23.333 84.667 37.666 127 42.999 127c4 0 8 -8 12 -24l68 -283
c16.667 -68.667 32.167 -125 46.5 -169s28.166 -76.333 41.499 -97c20 -36.667 50.667 -55 92 -55h23v-152v0zM587.001 1004l-90 90l90 90l90 -90zM378.001 998.002l-90 90l90 90l90 -90zM480.001 1164l-90 90l90 90l90 -90zM484.001 832.002l-90 90l90 90l90 -90z" />
    <glyph glyph-name="uni0692.fina" unicode="&#x692;" horiz-adv-x="682" 
d="M620 0c-46.667 -156.667 -111.331 -275.334 -193.998 -356.001c-74.667 -72.667 -155.334 -109 -242.001 -109c-35.333 0 -70 8.33301 -104 25c-90 42.667 -135 74 -135 94c0 12 6 18 18 18c2 0 7.5 -1 16.5 -3s20.167 -4 33.5 -6s27.833 -4 43.5 -6s31.5 -3 47.5 -3
c44 0 89 9.33301 135 28s92 47 138 85c88 71.333 150.667 155 188 251c-69.333 35.333 -104 64 -104 86l22 113c2 9.33301 5.33301 14 10 14l15 -10c5.33301 -3.33301 11.666 -7.66602 18.999 -12.999s16 -11.333 26 -18c19.333 -13.333 38 -23 56 -29s34.667 -9 50 -9h23
v-152h-62zM593.003 638c-10 -8 -21.499 -20.832 -34.499 -38.499s-26 -38.5 -39 -62.5s-25.167 -50.167 -36.5 -78.5s-20.666 -57.5 -27.999 -87.5h-28l-1 3c-8 29.333 -17.833 58.166 -29.5 86.499s-23.834 54.333 -36.501 78s-25.334 44.167 -38.001 61.5
s-23.667 30 -33 38l88 2c14 -21.333 26.167 -47.333 36.5 -78s19.166 -62.667 26.499 -96c7.33301 33.333 16.333 65.333 27 96s23.334 56.667 38.001 78z" />
    <glyph glyph-name="uni0693.fina" unicode="&#x693;" horiz-adv-x="682" 
d="M620 0c-46.667 -156.667 -111.331 -275.334 -193.998 -356.001c-74.667 -72.667 -155.334 -109 -242.001 -109c-35.333 0 -70 8.33301 -104 25c-90 42.667 -135 74 -135 94c0 12 6 18 18 18c2 0 7.5 -1 16.5 -3s20.167 -4 33.5 -6s27.833 -4 43.5 -6s31.5 -3 47.5 -3
c44 0 89 9.33301 135 28s92 47 138 85c88 71.333 150.667 155 188 251c-69.333 35.333 -104 64 -104 86l22 113c2 9.33301 5.33301 14 10 14l15 -10c5.33301 -3.33301 11.666 -7.66602 18.999 -12.999s16 -11.333 26 -18c19.333 -13.333 38 -23 56 -29s34.667 -9 50 -9h23
v-152h-62zM296.003 -523c0 -22 -3.66992 -43.168 -11.0029 -63.501s-17.666 -38.5 -30.999 -54.5s-29.166 -28.667 -47.499 -38s-38.166 -14 -59.499 -14c-29.333 0 -53.5 9.5 -72.5 28.5s-28.5 45.167 -28.5 78.5c0 23.333 3.66699 45.5 11 66.5s19.333 41.833 36 62.5
c34 42 71 63 111 63c30 0 52.833 -12.167 68.5 -36.5s23.5 -55.166 23.5 -92.499zM245 -545.001c0 10 -1.66699 19.5 -5 28.5s-7.66602 17.167 -12.999 24.5s-11.833 13.166 -19.5 17.499s-15.834 6.5 -24.501 6.5c-10 0 -20 -2.5 -30 -7.5s-19 -11.667 -27 -20
s-14.5 -17.833 -19.5 -28.5s-7.5 -22 -7.5 -34c0 -17.333 6.16699 -31.166 18.5 -41.499s26.166 -15.5 41.499 -15.5c12 0 23.167 2.16699 33.5 6.5s19.333 9.83301 27 16.5s13.834 14.167 18.501 22.5s7 16.5 7 24.5z" />
    <glyph glyph-name="uni0694.fina" unicode="&#x694;" horiz-adv-x="682" 
d="M620 0c-46.667 -156.667 -111.331 -275.334 -193.998 -356.001c-74.667 -72.667 -155.334 -109 -242.001 -109c-35.333 0 -70 8.33301 -104 25c-90 42.667 -135 74 -135 94c0 12 6 18 18 18c2 0 7.5 -1 16.5 -3s20.167 -4 33.5 -6s27.833 -4 43.5 -6s31.5 -3 47.5 -3
c44 0 89 9.33301 135 28s92 47 138 85c88 71.333 150.667 155 188 251c-69.333 35.333 -104 64 -104 86l22 113c2 9.33301 5.33301 14 10 14l15 -10c5.33301 -3.33301 11.666 -7.66602 18.999 -12.999s16 -11.333 26 -18c19.333 -13.333 38 -23 56 -29s34.667 -9 50 -9h23
v-152h-62zM222.003 -786l-104 104l104 104l104 -104z" />
    <glyph glyph-name="uni0695.fina" unicode="&#x695;" horiz-adv-x="682" 
d="M620 0c-46.667 -156.667 -111.331 -275.334 -193.998 -356.001c-74.667 -72.667 -155.334 -109 -242.001 -109c-35.333 0 -70 8.33301 -104 25c-90 42.667 -135 74 -135 94c0 12 6 18 18 18c2 0 7.5 -1 16.5 -3s20.167 -4 33.5 -6s27.833 -4 43.5 -6s31.5 -3 47.5 -3
c44 0 89 9.33301 135 28s92 47 138 85c88 71.333 150.667 155 188 251c-69.333 35.333 -104 64 -104 86l22 113c2 9.33301 5.33301 14 10 14l15 -10c5.33301 -3.33301 11.666 -7.66602 18.999 -12.999s16 -11.333 26 -18c19.333 -13.333 38 -23 56 -29s34.667 -9 50 -9h23
v-152h-62zM374.003 -582c-10 -8 -21.499 -20.832 -34.499 -38.499s-26 -38.5 -39 -62.5s-25.167 -50.167 -36.5 -78.5s-20.666 -57.5 -27.999 -87.5h-28l-1 3c-8 29.333 -17.833 58.166 -29.5 86.499s-23.834 54.333 -36.501 78s-25.334 44.167 -38.001 61.5
s-23.667 30 -33 38l88 2c14 -21.333 26.167 -47.333 36.5 -78s19.166 -62.667 26.499 -96c7.33301 33.333 16.333 65.333 27 96s23.334 56.667 38.001 78z" />
    <glyph glyph-name="uni0696.fina" unicode="&#x696;" horiz-adv-x="682" 
d="M620 0c-46.667 -156.667 -111.331 -275.334 -193.998 -356.001c-74.667 -72.667 -155.334 -109 -242.001 -109c-35.333 0 -70 8.33301 -104 25c-90 42.667 -135 74 -135 94c0 12 6 18 18 18c2 0 7.5 -1 16.5 -3s20.167 -4 33.5 -6s27.833 -4 43.5 -6s31.5 -3 47.5 -3
c44 0 89 9.33301 135 28s92 47 138 85c88 71.333 150.667 155 188 251c-69.333 35.333 -104 64 -104 86l22 113c2 9.33301 5.33301 14 10 14l15 -10c5.33301 -3.33301 11.666 -7.66602 18.999 -12.999s16 -11.333 26 -18c19.333 -13.333 38 -23 56 -29s34.667 -9 50 -9h23
v-152h-62zM237.003 -770l-104 104l104 104l104 -104zM190.003 -228l-104 104l104 104l104 -104z" />
    <glyph glyph-name="uni0697.fina" unicode="&#x697;" horiz-adv-x="682" 
d="M620 0c-46.667 -156.667 -111.331 -275.334 -193.998 -356.001c-74.667 -72.667 -155.334 -109 -242.001 -109c-35.333 0 -70 8.33301 -104 25c-90 42.667 -135 74 -135 94c0 12 6 18 18 18c2 0 7.5 -1 16.5 -3s20.167 -4 33.5 -6s27.833 -4 43.5 -6s31.5 -3 47.5 -3
c44 0 89 9.33301 135 28s92 47 138 85c88 71.333 150.667 155 188 251c-69.333 35.333 -104 64 -104 86l22 113c2 9.33301 5.33301 14 10 14l15 -10c5.33301 -3.33301 11.666 -7.66602 18.999 -12.999s16 -11.333 26 -18c19.333 -13.333 38 -23 56 -29s34.667 -9 50 -9h23
v-152h-62zM341.003 400l-93 93l93 93l93 -93zM538.003 408l-93 93l93 93l93 -93z" />
    <glyph glyph-name="uni0699.fina" unicode="&#x699;" horiz-adv-x="682" 
d="M620 0c-46.667 -156.667 -111.331 -275.334 -193.998 -356.001c-74.667 -72.667 -155.334 -109 -242.001 -109c-35.333 0 -70 8.33301 -104 25c-90 42.667 -135 74 -135 94c0 12 6 18 18 18c2 0 7.5 -1 16.5 -3s20.167 -4 33.5 -6s27.833 -4 43.5 -6s31.5 -3 47.5 -3
c44 0 89 9.33301 135 28s92 47 138 85c88 71.333 150.667 155 188 251c-69.333 35.333 -104 64 -104 86l22 113c2 9.33301 5.33301 14 10 14l15 -10c5.33301 -3.33301 11.666 -7.66602 18.999 -12.999s16 -11.333 26 -18c19.333 -13.333 38 -23 56 -29s34.667 -9 50 -9h23
v-152h-62zM594.003 515l-90 90l90 90l90 -90zM385.003 509l-90 90l90 90l90 -90zM487.003 675l-90 90l90 90l90 -90zM491.003 343l-90 90l90 90l90 -90z" />
    <glyph glyph-name="uni069A.init" unicode="&#x69a;" horiz-adv-x="945" 
d="M920 285c0 -52 -13.001 -105.334 -39.001 -160.001c-33.333 -70 -73.666 -105 -120.999 -105c-68 0 -137.667 31.667 -209 95c-58.667 -71.333 -127.667 -107 -207 -107c-76 0 -123 38.333 -141 115c-28.667 -78 -96.334 -119 -203.001 -123c-46.667 0 -70 25.333 -70 76
s23.333 76 70 76h27c56 0 101.667 15.667 137 47c22.667 18.667 43 47.334 61 86.001c18 31.333 29.667 47 35 47c13.333 0 18.666 -5 15.999 -15l-4 -47c-6 -83.333 33.667 -125 119 -125c50.667 0 92.334 17.333 125.001 52c18.667 20 38.334 52 59.001 96
c16.667 34 29 51 37 51c10 0 15 -5.33301 15 -16l-9 -90c12 -16 39.333 -33.333 82 -52c49.333 -20.667 94 -30 134 -28c14 42 14 84.333 0 127l28 49c19.333 28.667 32.333 43 39 43c12.667 0 19 -30.667 19 -92zM548.999 550.999l-104 104l104 104l104 -104z
M531.999 -421.001l-104 104l104 104l104 -104z" />
    <glyph glyph-name="uni069A.medi" unicode="&#x69a;" horiz-adv-x="1063" 
d="M1020 0c-18.667 0 -37.1631 2.33398 -55.4961 7.00098s-35.5 11 -51.5 19s-30.333 17.5 -43 28.5s-22.667 22.833 -30 35.5c-39.333 -60 -82.333 -90 -129 -90c-55.333 0 -110.666 28.667 -165.999 86c-47.333 -57.333 -111 -86 -191 -86c-81.333 0 -133 37.667 -155 113
c-40.667 -71.333 -107 -109 -199 -113c-46.667 0 -70 25.333 -70 76s23.333 76 70 76h25c92.667 0 160.667 38 204 114c14.667 22 25 33 31 33c14 0 21 -5.33301 21 -16c0 -4.66699 -1.16699 -12.667 -3.5 -24s-3.5 -20.666 -3.5 -27.999c0 -56 38.333 -84 115 -84
c51.333 0 94.333 15.333 129 46c20 17.333 40 43.666 60 78.999c7.33301 15.333 13.666 26.666 18.999 33.999s9.66602 11 12.999 11c16 0 23 -7.33301 21 -22l-10 -74c0 -8 4 -16 12 -24s18.333 -15.333 31 -22s27 -12.167 43 -16.5s32.333 -6.5 49 -6.5
c27.333 0 56.666 25.667 87.999 77c15.333 26 27.833 45.5 37.5 58.5s16.167 19.5 19.5 19.5c15.333 0 23 -6 23 -18c0 -0.666992 -0.833008 -3 -2.5 -7s-3.33398 -9 -5.00098 -15s-3.33398 -12.667 -5.00098 -20s-2.5 -14 -2.5 -20c0 -50 31.667 -75 95 -75h59v-152h-43z
M599.004 534.001l-104 104l104 104l104 -104zM554.004 -382.999l-104 104l104 104l104 -104z" />
    <glyph glyph-name="uni069A.fina" unicode="&#x69a;" horiz-adv-x="1702" 
d="M1659 0c-18.667 0 -37.1621 2.33105 -55.4951 6.99805s-35.5 11 -51.5 19s-30.333 17.5 -43 28.5s-22.667 22.833 -30 35.5c-42 -60 -85 -90 -129 -90c-36 0 -68 7 -96 21s-52.667 35 -74 63c-44 -56 -105.667 -84 -185 -84c-15.333 0 -29.333 1.5 -42 4.5
s-23.667 7.5 -33 13.5c0 -100 -20.667 -183.667 -62 -251c-13.333 -21.333 -31.5 -42.666 -54.5 -63.999s-50.5 -42.333 -82.5 -63c-92 -56 -194.333 -84 -307 -84c-131.333 0 -226.333 34 -285 102c-44 48 -66 105.333 -66 172c0 72 17.333 143.667 52 215
c28 61.333 49.667 92 65 92c14 0 21 -6.66699 21 -20c-2.66699 -5.33301 -5.33398 -11.666 -8.00098 -18.999c-2.66699 -6 -5.83398 -13.667 -9.50098 -23s-8.16699 -20 -13.5 -32c-20.667 -48.667 -31 -90.334 -31 -125.001c0 -144.667 104.667 -217 314 -217
c183.333 0 317 47 401 141c0 114 -26.667 218.667 -80 314l53 127c5.33301 0 30.666 -33 75.999 -99c11.333 -15.333 26.833 -27 46.5 -35s44.5 -12 74.5 -12c25.333 0 49.166 4 71.499 12s42.166 19.667 59.499 35c24.667 18.667 47.334 47.334 68.001 86.001
c16 31.333 26.667 47 32 47c12.667 0 19 -6 19 -18l-8 -78c0 -12.667 15.667 -27.667 47 -45c32.667 -16 63.334 -24 92.001 -24c25.333 0 52.666 25.667 81.999 77c30.667 52 48.334 78 53.001 78c15.333 0 23 -6 23 -18c0 -0.666992 -0.833008 -3 -2.5 -7
s-3.33398 -9 -5.00098 -15s-3.33398 -12.5 -5.00098 -19.5s-2.5 -13.833 -2.5 -20.5c0 -50 31.333 -75 94 -75h60v-152h-43zM1247 542.998l-104 104l104 104l104 -104zM1243 -430.002l-104 104l104 104l104 -104z" />
    <glyph glyph-name="uni069B.init" unicode="&#x69b;" horiz-adv-x="945" 
d="M920 285c0 -52 -13.001 -105.334 -39.001 -160.001c-33.333 -70 -73.666 -105 -120.999 -105c-68 0 -137.667 31.667 -209 95c-58.667 -71.333 -127.667 -107 -207 -107c-76 0 -123 38.333 -141 115c-28.667 -78 -96.334 -119 -203.001 -123c-46.667 0 -70 25.333 -70 76
s23.333 76 70 76h27c56 0 101.667 15.667 137 47c22.667 18.667 43 47.334 61 86.001c18 31.333 29.667 47 35 47c13.333 0 18.666 -5 15.999 -15l-4 -47c-6 -83.333 33.667 -125 119 -125c50.667 0 92.334 17.333 125.001 52c18.667 20 38.334 52 59.001 96
c16.667 34 29 51 37 51c10 0 15 -5.33301 15 -16l-9 -90c12 -16 39.333 -33.333 82 -52c49.333 -20.667 94 -30 134 -28c14 42 14 84.333 0 127l28 49c19.333 28.667 32.333 43 39 43c12.667 0 19 -30.667 19 -92zM404.999 -172.001l90 -90l-90 -90l-90 90z
M613.999 -166.001l90 -90l-90 -90l-90 90zM511.999 -332.001l90 -90l-90 -90l-90 90z" />
    <glyph glyph-name="uni069B.medi" unicode="&#x69b;" horiz-adv-x="1063" 
d="M1020 0c-18.667 0 -37.1631 2.33398 -55.4961 7.00098s-35.5 11 -51.5 19s-30.333 17.5 -43 28.5s-22.667 22.833 -30 35.5c-39.333 -60 -82.333 -90 -129 -90c-55.333 0 -110.666 28.667 -165.999 86c-47.333 -57.333 -111 -86 -191 -86c-81.333 0 -133 37.667 -155 113
c-40.667 -71.333 -107 -109 -199 -113c-46.667 0 -70 25.333 -70 76s23.333 76 70 76h25c92.667 0 160.667 38 204 114c14.667 22 25 33 31 33c14 0 21 -5.33301 21 -16c0 -4.66699 -1.16699 -12.667 -3.5 -24s-3.5 -20.666 -3.5 -27.999c0 -56 38.333 -84 115 -84
c51.333 0 94.333 15.333 129 46c20 17.333 40 43.666 60 78.999c7.33301 15.333 13.666 26.666 18.999 33.999s9.66602 11 12.999 11c16 0 23 -7.33301 21 -22l-10 -74c0 -8 4 -16 12 -24s18.333 -15.333 31 -22s27 -12.167 43 -16.5s32.333 -6.5 49 -6.5
c27.333 0 56.666 25.667 87.999 77c15.333 26 27.833 45.5 37.5 58.5s16.167 19.5 19.5 19.5c15.333 0 23 -6 23 -18c0 -0.666992 -0.833008 -3 -2.5 -7s-3.33398 -9 -5.00098 -15s-3.33398 -12.667 -5.00098 -20s-2.5 -14 -2.5 -20c0 -50 31.667 -75 95 -75h59v-152h-43z
M442.004 -180.999l90 -90l-90 -90l-90 90zM651.004 -174.999l90 -90l-90 -90l-90 90zM549.004 -340.999l90 -90l-90 -90l-90 90z" />
    <glyph glyph-name="uni069B.fina" unicode="&#x69b;" horiz-adv-x="1702" 
d="M1659 0c-18.667 0 -37.1621 2.33105 -55.4951 6.99805s-35.5 11 -51.5 19s-30.333 17.5 -43 28.5s-22.667 22.833 -30 35.5c-42 -60 -85 -90 -129 -90c-36 0 -68 7 -96 21s-52.667 35 -74 63c-44 -56 -105.667 -84 -185 -84c-15.333 0 -29.333 1.5 -42 4.5
s-23.667 7.5 -33 13.5c0 -100 -20.667 -183.667 -62 -251c-13.333 -21.333 -31.5 -42.666 -54.5 -63.999s-50.5 -42.333 -82.5 -63c-92 -56 -194.333 -84 -307 -84c-131.333 0 -226.333 34 -285 102c-44 48 -66 105.333 -66 172c0 72 17.333 143.667 52 215
c28 61.333 49.667 92 65 92c14 0 21 -6.66699 21 -20c-2.66699 -5.33301 -5.33398 -11.666 -8.00098 -18.999c-2.66699 -6 -5.83398 -13.667 -9.50098 -23s-8.16699 -20 -13.5 -32c-20.667 -48.667 -31 -90.334 -31 -125.001c0 -144.667 104.667 -217 314 -217
c183.333 0 317 47 401 141c0 114 -26.667 218.667 -80 314l53 127c5.33301 0 30.666 -33 75.999 -99c11.333 -15.333 26.833 -27 46.5 -35s44.5 -12 74.5 -12c25.333 0 49.166 4 71.499 12s42.166 19.667 59.499 35c24.667 18.667 47.334 47.334 68.001 86.001
c16 31.333 26.667 47 32 47c12.667 0 19 -6 19 -18l-8 -78c0 -12.667 15.667 -27.667 47 -45c32.667 -16 63.334 -24 92.001 -24c25.333 0 52.666 25.667 81.999 77c30.667 52 48.334 78 53.001 78c15.333 0 23 -6 23 -18c0 -0.666992 -0.833008 -3 -2.5 -7
s-3.33398 -9 -5.00098 -15s-3.33398 -12.5 -5.00098 -19.5s-2.5 -13.833 -2.5 -20.5c0 -50 31.333 -75 94 -75h60v-152h-43zM1143 -213.002l90 -90l-90 -90l-90 90zM1352 -207.002l90 -90l-90 -90l-90 90zM1250 -373.002l90 -90l-90 -90l-90 90z" />
    <glyph glyph-name="uni069C.init" unicode="&#x69c;" horiz-adv-x="945" 
d="M920 285c0 -52 -13.001 -105.334 -39.001 -160.001c-33.333 -70 -73.666 -105 -120.999 -105c-68 0 -137.667 31.667 -209 95c-58.667 -71.333 -127.667 -107 -207 -107c-76 0 -123 38.333 -141 115c-28.667 -78 -96.334 -119 -203.001 -123c-46.667 0 -70 25.333 -70 76
s23.333 76 70 76h27c56 0 101.667 15.667 137 47c22.667 18.667 43 47.334 61 86.001c18 31.333 29.667 47 35 47c13.333 0 18.666 -5 15.999 -15l-4 -47c-6 -83.333 33.667 -125 119 -125c50.667 0 92.334 17.333 125.001 52c18.667 20 38.334 52 59.001 96
c16.667 34 29 51 37 51c10 0 15 -5.33301 15 -16l-9 -90c12 -16 39.333 -33.333 82 -52c49.333 -20.667 94 -30 134 -28c14 42 14 84.333 0 127l28 49c19.333 28.667 32.333 43 39 43c12.667 0 19 -30.667 19 -92zM453.999 -167.001l90 -90l-90 -90l-90 90z
M662.999 -161.001l90 -90l-90 -90l-90 90zM560.999 -327.001l90 -90l-90 -90l-90 90zM650.999 538.999l-90 90l90 90l90 -90zM441.999 532.999l-90 90l90 90l90 -90zM543.999 698.999l-90 90l90 90l90 -90z" />
    <glyph glyph-name="uni069C.medi" unicode="&#x69c;" horiz-adv-x="1063" 
d="M1020 0c-18.667 0 -37.1631 2.33398 -55.4961 7.00098s-35.5 11 -51.5 19s-30.333 17.5 -43 28.5s-22.667 22.833 -30 35.5c-39.333 -60 -82.333 -90 -129 -90c-55.333 0 -110.666 28.667 -165.999 86c-47.333 -57.333 -111 -86 -191 -86c-81.333 0 -133 37.667 -155 113
c-40.667 -71.333 -107 -109 -199 -113c-46.667 0 -70 25.333 -70 76s23.333 76 70 76h25c92.667 0 160.667 38 204 114c14.667 22 25 33 31 33c14 0 21 -5.33301 21 -16c0 -4.66699 -1.16699 -12.667 -3.5 -24s-3.5 -20.666 -3.5 -27.999c0 -56 38.333 -84 115 -84
c51.333 0 94.333 15.333 129 46c20 17.333 40 43.666 60 78.999c7.33301 15.333 13.666 26.666 18.999 33.999s9.66602 11 12.999 11c16 0 23 -7.33301 21 -22l-10 -74c0 -8 4 -16 12 -24s18.333 -15.333 31 -22s27 -12.167 43 -16.5s32.333 -6.5 49 -6.5
c27.333 0 56.666 25.667 87.999 77c15.333 26 27.833 45.5 37.5 58.5s16.167 19.5 19.5 19.5c15.333 0 23 -6 23 -18c0 -0.666992 -0.833008 -3 -2.5 -7s-3.33398 -9 -5.00098 -15s-3.33398 -12.667 -5.00098 -20s-2.5 -14 -2.5 -20c0 -50 31.667 -75 95 -75h59v-152h-43z
M404.004 -214.999l90 -90l-90 -90l-90 90zM613.004 -208.999l90 -90l-90 -90l-90 90zM511.004 -374.999l90 -90l-90 -90l-90 90zM623.004 494.001l-90 90l90 90l90 -90zM414.004 488.001l-90 90l90 90l90 -90zM516.004 654.001l-90 90l90 90l90 -90z" />
    <glyph glyph-name="uni069C.fina" unicode="&#x69c;" horiz-adv-x="1702" 
d="M1659 0c-18.667 0 -37.1621 2.33105 -55.4951 6.99805s-35.5 11 -51.5 19s-30.333 17.5 -43 28.5s-22.667 22.833 -30 35.5c-42 -60 -85 -90 -129 -90c-36 0 -68 7 -96 21s-52.667 35 -74 63c-44 -56 -105.667 -84 -185 -84c-15.333 0 -29.333 1.5 -42 4.5
s-23.667 7.5 -33 13.5c0 -100 -20.667 -183.667 -62 -251c-13.333 -21.333 -31.5 -42.666 -54.5 -63.999s-50.5 -42.333 -82.5 -63c-92 -56 -194.333 -84 -307 -84c-131.333 0 -226.333 34 -285 102c-44 48 -66 105.333 -66 172c0 72 17.333 143.667 52 215
c28 61.333 49.667 92 65 92c14 0 21 -6.66699 21 -20c-2.66699 -5.33301 -5.33398 -11.666 -8.00098 -18.999c-2.66699 -6 -5.83398 -13.667 -9.50098 -23s-8.16699 -20 -13.5 -32c-20.667 -48.667 -31 -90.334 -31 -125.001c0 -144.667 104.667 -217 314 -217
c183.333 0 317 47 401 141c0 114 -26.667 218.667 -80 314l53 127c5.33301 0 30.666 -33 75.999 -99c11.333 -15.333 26.833 -27 46.5 -35s44.5 -12 74.5 -12c25.333 0 49.166 4 71.499 12s42.166 19.667 59.499 35c24.667 18.667 47.334 47.334 68.001 86.001
c16 31.333 26.667 47 32 47c12.667 0 19 -6 19 -18l-8 -78c0 -12.667 15.667 -27.667 47 -45c32.667 -16 63.334 -24 92.001 -24c25.333 0 52.666 25.667 81.999 77c30.667 52 48.334 78 53.001 78c15.333 0 23 -6 23 -18c0 -0.666992 -0.833008 -3 -2.5 -7
s-3.33398 -9 -5.00098 -15s-3.33398 -12.5 -5.00098 -19.5s-2.5 -13.833 -2.5 -20.5c0 -50 31.333 -75 94 -75h60v-152h-43zM1119 -238.002l90 -90l-90 -90l-90 90zM1328 -232.002l90 -90l-90 -90l-90 90zM1226 -398.002l90 -90l-90 -90l-90 90zM1330 537.998l-90 90l90 90
l90 -90zM1121 531.998l-90 90l90 90l90 -90zM1223 697.998l-90 90l90 90l90 -90z" />
    <glyph glyph-name="uni069D.init" unicode="&#x69d;" horiz-adv-x="1146" 
d="M1006 330c0 9.33301 -4.83203 18.335 -14.499 27.002s-24.167 16.667 -43.5 24c-19.333 8 -38.833 14.167 -58.5 18.5s-39.834 6.5 -60.501 6.5c-96 0 -235.667 -91.667 -419 -275h51c48 0 100.667 6.16699 158 18.5s119.333 30.166 186 53.499
c134 49.333 201 91.666 201 126.999zM1110 406.002c0 -30 -9.83105 -63.332 -29.498 -99.999s-49.5 -76 -89.5 -118c-59.333 -63.333 -148 -114.333 -266 -153c-108 -36.667 -205.667 -55 -293 -55c-76 0 -133.333 14.333 -172 43c-15.333 11.333 -29.333 27 -42 47
s-24.667 45 -36 75c-42.667 -90.667 -103.334 -139 -182.001 -145c-46.667 0 -70 25.333 -70 76s23.333 76 70 76h16c50.667 0 93.667 19 129 57c39.333 39.333 57.333 59 54 59c7.33301 0 14 -6.66699 20 -20c27.333 -68.667 65.666 -103 114.999 -103
c262 262.667 455 394 579 394c24 0 47 -3.5 69 -10.5s43.667 -17.167 65 -30.5c42 -26.667 63 -57.334 63 -92.001zM327.003 -414.997l-93 93l93 93l93 -93zM524.003 -406.997l-93 93l93 93l93 -93z" />
    <glyph glyph-name="uni069D.medi" unicode="&#x69d;" horiz-adv-x="1210" 
d="M1210 0h-91.999c-33.333 -0 -70 -0.666992 -110 -2c-39.333 -1.33301 -71.833 -2.33301 -97.5 -3s-45.167 -1 -58.5 -1c-60.667 0 -110.167 0.833008 -148.5 2.5s-65.166 4.16699 -80.499 7.5c-74 -16 -137.667 -24 -191 -24c-76 0 -133.333 14.333 -172 43
c-15.333 11.333 -29.333 27 -42 47s-24.667 45 -36 75c-42.667 -90.667 -103.334 -139 -182.001 -145c-46.667 -0 -70 25.333 -70 76s23.333 76 70 76h16c50.667 0 93.667 19 129 57c39.333 39.333 57.333 59 54 59c7.33301 0 14 -6.66699 20 -20
c27.333 -68.667 65.666 -103 114.999 -103c262 262.667 455 394 579 394c24 0 47 -3.5 69 -10.5s43.667 -17.167 65 -30.5c42 -26.667 63 -57.334 63 -92.001c0 -35.333 -15.667 -77.666 -47 -126.999c-17.333 -28 -37.666 -54.333 -60.999 -79s-49.333 -47.667 -78 -69
c11.333 0 27.166 0.833008 47.499 2.5s45.5 4.16699 75.5 7.5s58.333 6 85 8s52.667 3 78 3v-152zM1006 330c0 9.33301 -4.83203 18.335 -14.499 27.002s-24.167 16.667 -43.5 24c-19.333 8 -38.833 14.167 -58.5 18.5s-39.834 6.5 -60.501 6.5
c-96 0 -235.667 -91.667 -419 -275h51c48 0 100.667 6.16699 158 18.5s119.333 30.166 186 53.499c134 49.333 201 91.666 201 126.999zM359.002 -433.998l-93 93l93 93l93 -93zM556.002 -425.998l-93 93l93 93l93 -93z" />
    <glyph glyph-name="uni069D.fina" unicode="&#x69d;" horiz-adv-x="1896" 
d="M1896 0l-91.998 -0.000976562c-33.333 0 -70 -0.666992 -110 -2c-39.333 -1.33301 -71.833 -2.33301 -97.5 -3s-45.167 -1 -58.5 -1c-60.667 0 -110.167 0.833008 -148.5 2.5s-65.166 4.16699 -80.499 7.5c-74 -16 -137.667 -24 -191 -24c-82 0 -148 12.667 -198 38
c0 -100 -20.667 -183.667 -62 -251c-13.333 -21.333 -31.5 -42.666 -54.5 -63.999s-50.5 -42.333 -82.5 -63c-92 -56 -194.333 -84 -307 -84c-131.333 0 -226.333 34 -285 102c-44 48 -66 105.333 -66 172c0 72 17.333 143.667 52 215c28 61.333 49.667 92 65 92
c14 0 21 -6.66699 21 -20c-2.66699 -5.33301 -5.33398 -11.666 -8.00098 -18.999c-2.66699 -6 -5.83398 -13.667 -9.50098 -23s-8.16699 -20 -13.5 -32c-20.667 -48.667 -31 -90.334 -31 -125.001c0 -144.667 104.667 -217 314 -217c183.333 0 317 47 401 141
c0 114 -26.667 218.667 -80 314l53 127c5.33301 0 30.666 -33 75.999 -99c18.667 -26 57.667 -39 117 -39c262 262.667 455 394 579 394c24 0 47 -3.5 69 -10.5s43.667 -17.167 65 -30.5c42 -26.667 63 -57.334 63 -92.001c0 -35.333 -15.667 -77.666 -47 -126.999
c-17.333 -28 -37.666 -54.333 -60.999 -79s-49.333 -47.667 -78 -69c11.333 0 27.166 0.833008 47.499 2.5s45.5 4.16699 75.5 7.5s58.5 6 85.5 8s52.833 3 77.5 3v-152zM1692 329.999c0 9.33301 -4.83301 18.335 -14.5 27.002s-24.167 16.667 -43.5 24
c-19.333 8 -38.833 14.167 -58.5 18.5s-39.5 6.5 -59.5 6.5c-96.667 0 -236.667 -91.667 -420 -275h51c48 0 100.667 6.16699 158 18.5s119.333 30.166 186 53.499c134 49.333 201 91.666 201 126.999zM1210 -434.999l-93 93l93 93l93 -93zM1407 -426.999l-93 93l93 93
l93 -93z" />
    <glyph glyph-name="uni069E.init" unicode="&#x69e;" horiz-adv-x="1146" 
d="M1006 330c0 9.33301 -4.83203 18.335 -14.499 27.002s-24.167 16.667 -43.5 24c-19.333 8 -38.833 14.167 -58.5 18.5s-39.834 6.5 -60.501 6.5c-96 0 -235.667 -91.667 -419 -275h51c48 0 100.667 6.16699 158 18.5s119.333 30.166 186 53.499
c134 49.333 201 91.666 201 126.999zM1110 406.002c0 -30 -9.83105 -63.332 -29.498 -99.999s-49.5 -76 -89.5 -118c-59.333 -63.333 -148 -114.333 -266 -153c-108 -36.667 -205.667 -55 -293 -55c-76 0 -133.333 14.333 -172 43c-15.333 11.333 -29.333 27 -42 47
s-24.667 45 -36 75c-42.667 -90.667 -103.334 -139 -182.001 -145c-46.667 0 -70 25.333 -70 76s23.333 76 70 76h16c50.667 0 93.667 19 129 57c39.333 39.333 57.333 59 54 59c7.33301 0 14 -6.66699 20 -20c27.333 -68.667 65.666 -103 114.999 -103
c262 262.667 455 394 579 394c24 0 47 -3.5 69 -10.5s43.667 -17.167 65 -30.5c42 -26.667 63 -57.334 63 -92.001zM561.003 611.003l-90 90l90 90l90 -90zM352.003 605.003l-90 90l90 90l90 -90zM454.003 771.003l-90 90l90 90l90 -90z" />
    <glyph glyph-name="uni069E.medi" unicode="&#x69e;" horiz-adv-x="1210" 
d="M1210 0h-91.999c-33.333 -0 -70 -0.666992 -110 -2c-39.333 -1.33301 -71.833 -2.33301 -97.5 -3s-45.167 -1 -58.5 -1c-60.667 0 -110.167 0.833008 -148.5 2.5s-65.166 4.16699 -80.499 7.5c-74 -16 -137.667 -24 -191 -24c-76 0 -133.333 14.333 -172 43
c-15.333 11.333 -29.333 27 -42 47s-24.667 45 -36 75c-42.667 -90.667 -103.334 -139 -182.001 -145c-46.667 -0 -70 25.333 -70 76s23.333 76 70 76h16c50.667 0 93.667 19 129 57c39.333 39.333 57.333 59 54 59c7.33301 0 14 -6.66699 20 -20
c27.333 -68.667 65.666 -103 114.999 -103c262 262.667 455 394 579 394c24 0 47 -3.5 69 -10.5s43.667 -17.167 65 -30.5c42 -26.667 63 -57.334 63 -92.001c0 -35.333 -15.667 -77.666 -47 -126.999c-17.333 -28 -37.666 -54.333 -60.999 -79s-49.333 -47.667 -78 -69
c11.333 0 27.166 0.833008 47.499 2.5s45.5 4.16699 75.5 7.5s58.333 6 85 8s52.667 3 78 3v-152zM1006 330c0 9.33301 -4.83203 18.335 -14.499 27.002s-24.167 16.667 -43.5 24c-19.333 8 -38.833 14.167 -58.5 18.5s-39.834 6.5 -60.501 6.5
c-96 0 -235.667 -91.667 -419 -275h51c48 0 100.667 6.16699 158 18.5s119.333 30.166 186 53.499c134 49.333 201 91.666 201 126.999zM596.002 649.002l-90 90l90 90l90 -90zM387.002 643.002l-90 90l90 90l90 -90zM489.002 809.002l-90 90l90 90l90 -90z" />
    <glyph glyph-name="uni069E.fina" unicode="&#x69e;" horiz-adv-x="1896" 
d="M1896 0l-91.998 -0.000976562c-33.333 0 -70 -0.666992 -110 -2c-39.333 -1.33301 -71.833 -2.33301 -97.5 -3s-45.167 -1 -58.5 -1c-60.667 0 -110.167 0.833008 -148.5 2.5s-65.166 4.16699 -80.499 7.5c-74 -16 -137.667 -24 -191 -24c-82 0 -148 12.667 -198 38
c0 -100 -20.667 -183.667 -62 -251c-13.333 -21.333 -31.5 -42.666 -54.5 -63.999s-50.5 -42.333 -82.5 -63c-92 -56 -194.333 -84 -307 -84c-131.333 0 -226.333 34 -285 102c-44 48 -66 105.333 -66 172c0 72 17.333 143.667 52 215c28 61.333 49.667 92 65 92
c14 0 21 -6.66699 21 -20c-2.66699 -5.33301 -5.33398 -11.666 -8.00098 -18.999c-2.66699 -6 -5.83398 -13.667 -9.50098 -23s-8.16699 -20 -13.5 -32c-20.667 -48.667 -31 -90.334 -31 -125.001c0 -144.667 104.667 -217 314 -217c183.333 0 317 47 401 141
c0 114 -26.667 218.667 -80 314l53 127c5.33301 0 30.666 -33 75.999 -99c18.667 -26 57.667 -39 117 -39c262 262.667 455 394 579 394c24 0 47 -3.5 69 -10.5s43.667 -17.167 65 -30.5c42 -26.667 63 -57.334 63 -92.001c0 -35.333 -15.667 -77.666 -47 -126.999
c-17.333 -28 -37.666 -54.333 -60.999 -79s-49.333 -47.667 -78 -69c11.333 0 27.166 0.833008 47.499 2.5s45.5 4.16699 75.5 7.5s58.5 6 85.5 8s52.833 3 77.5 3v-152zM1692 329.999c0 9.33301 -4.83301 18.335 -14.5 27.002s-24.167 16.667 -43.5 24
c-19.333 8 -38.833 14.167 -58.5 18.5s-39.5 6.5 -59.5 6.5c-96.667 0 -236.667 -91.667 -420 -275h51c48 0 100.667 6.16699 158 18.5s119.333 30.166 186 53.499c134 49.333 201 91.666 201 126.999zM1275 626.001l-90 90l90 90l90 -90zM1066 620.001l-90 90l90 90l90 -90
zM1168 786.001l-90 90l90 90l90 -90z" />
    <glyph glyph-name="uni069F.medi" unicode="&#x69f;" horiz-adv-x="1268" 
d="M1268 0c-13.333 0 -37.001 -0.835938 -71.001 -2.50293s-78.667 -4.16699 -134 -7.5c-54.667 -3.33301 -102 -5.83301 -142 -7.5s-72.667 -2.5 -98 -2.5c-52 0 -95.333 1 -130 3s-59.667 5.66699 -75 11c-15.333 -5.33301 -38.333 -9 -69 -11s-69 -3 -115 -3
c-86 0 -169.333 21.667 -250 65c-69.333 39.333 -104 70 -104 92c0 10 14.333 15 43 15h209c26.667 0 51.667 8.66699 75 26c28 19.333 50.667 35.833 68 49.5s29.666 25.167 36.999 34.5c18 22.667 27 48.667 27 78c0 88.667 -5.16699 185 -15.5 289
s-25.833 217.333 -46.5 340c-22 28 -33 61.333 -33 100c0 28.667 19.333 76.334 58 143.001c9.33301 18 18 27 26 27c14 0 21 -25.333 21 -76c0 -42.667 18.333 -69.334 55 -80.001c28.667 -8 43 -17.333 43 -28c0 -38 -4 -72.333 -12 -103c-6 -22.667 -13 -34 -21 -34
c-9.33301 0 -21.666 2.66699 -36.999 8c12.667 -82.667 22 -157.5 28 -224.5s9 -126.833 9 -179.5c0 -43.333 -1.5 -81.166 -4.5 -113.499s-8.16699 -59.166 -15.5 -80.499c151.333 147.333 271.333 221 360 221c41.333 0 85.666 -13.667 132.999 -41
c53.333 -30.667 80 -64 80 -100c0 -41.333 -18.333 -91.333 -55 -150c-17.333 -28.667 -35.666 -53.167 -54.999 -73.5s-38.666 -36.166 -57.999 -47.499c64 10 153.667 15 269 15v-152zM1063 312.997c0 13.333 -19 30.667 -57 52c-42 21.333 -84.333 32 -127 32
c-19.333 0 -43.333 -5.66699 -72 -17s-62 -28.666 -100 -51.999c-40 -23.333 -78.333 -49.833 -115 -79.5s-71.667 -61.834 -105 -96.501h66c108 0 220 18.333 336 55s174 72 174 106zM1113 819.998l-90 90l90 90l90 -90zM903.999 813.998l-90 90l90 90l90 -90z
M1006 979.998l-90 90l90 90l90 -90z" />
    <glyph glyph-name="uni06A0.init" unicode="&#x6a0;" horiz-adv-x="791" 
d="M713 199c-33.333 -17.333 -81.166 -36.499 -143.499 -57.499s-140.166 -44.167 -233.499 -69.5c-82.667 -21.333 -151.834 -38.166 -207.501 -50.499s-98.5 -19.5 -128.5 -21.5c-46.667 0 -70 25.333 -70 76s23.333 76 70 76c64.667 0 118.667 6 162 18
c-48 60 -72 114 -72 162c0 50.667 27.333 110.667 82 180c64 82 133 123 207 123c51.333 0 104 -17 158 -51c46 -30.667 69 -55.334 69 -74.001c0 -8 -4.66699 -12 -14 -12c-0.666992 0 -5.33398 1.66699 -14.001 5s-19.667 7 -33 11s-28.333 7.66699 -45 11s-33 5 -49 5
c-34 0 -76.333 -8 -127 -24c-62 -20.667 -116 -47.334 -162 -80.001c45.333 -110 127.333 -182.333 246 -217c68 16 140.333 39.333 217 70l133 49zM443 813.001l-90 90l90 90l90 -90zM234 807.001l-90 90l90 90l90 -90zM336 973.001l-90 90l90 90l90 -90z" />
    <glyph glyph-name="uni06A0.medi" unicode="&#x6a0;" horiz-adv-x="647" 
d="M647 0c-68.667 0 -123.998 8.33203 -165.998 24.999c-47.333 19.333 -97 56 -149 110c-118.667 -86 -229.334 -131 -332.001 -135c-46.667 0 -70 25.333 -70 76s23.333 76 70 76c105.333 0 195.333 20.333 270 61c-24 46.667 -82 72 -174 76c0 46 21.333 86.333 64 121
c47.333 39.333 110.666 59 189.999 59c66.667 0 119.834 -11.833 159.501 -35.5s59.5 -56.167 59.5 -97.5c0 -12 -3.16699 -24.667 -9.5 -38s-14.833 -26.333 -25.5 -39s-23.167 -24.667 -37.5 -36s-29.5 -20.666 -45.5 -27.999c33.333 -28.667 87.666 -43 162.999 -43h33
v-152v0zM417.002 674.999l-90 90l90 90l90 -90zM208.002 668.999l-90 90l90 90l90 -90zM310.002 834.999l-90 90l90 90l90 -90z" />
    <glyph glyph-name="uni06A0.fina" unicode="&#x6a0;" horiz-adv-x="848" 
d="M997 -672c0 -12 -19.666 -23.666 -58.999 -34.999c-1.33301 0 -15.666 -4.66699 -42.999 -14l-123 -43c-68.667 -24.667 -130.667 -37 -186 -37c-358 0 -537 138 -537 414c0 134.667 33.667 259 101 373c28 49.333 58.833 93.166 92.5 131.499s71.5 71.5 113.5 99.5
c-30 31.333 -86.667 47 -170 47c3.33301 28 12.166 53.667 26.499 77s34.166 44 59.499 62c27.333 19.333 57.333 34.166 90 44.499s69 15.5 109 15.5c28 0 54 -3.33301 78 -10s44.667 -16.167 62 -28.5s30.833 -26.833 40.5 -43.5s14.5 -35 14.5 -55
c0 -43.333 -38.333 -89.333 -115 -138c20 -24 59 -36 117 -36h180v-152h-123c-108 0 -202.333 48.333 -283 145c-89.333 -50.667 -163 -116 -221 -196c-64 -91.333 -96 -183.666 -96 -276.999c0 -136 60.667 -230.667 182 -284c84.667 -37.333 248.667 -56 492 -56
c16.667 0 34.167 0.5 52.5 1.5l52.5 3c16.667 1 31.167 2 43.5 3s20.833 1.5 25.5 1.5c16 0 24 -4.33301 24 -13zM538.001 721.001l-90 90l90 90l90 -90zM329.001 715.001l-90 90l90 90l90 -90zM431.001 881.001l-90 90l90 90l90 -90z" />
    <glyph glyph-name="afii57459" unicode="&#x6a1;" horiz-adv-x="486" 
d="M446 283c0 -56.667 -5.66602 -102.67 -16.999 -138.003s-28.666 -59.666 -51.999 -72.999c-42 -23.333 -90.167 -41.166 -144.5 -53.499s-114.833 -18.5 -181.5 -18.5h-51c-46.667 0 -70 25.333 -70 76s23.333 76 70 76h74c173.333 0 281.666 23.667 324.999 71
c0 8 -1.5 18.333 -4.5 31s-6.83301 26 -11.5 40s-10.167 27.333 -16.5 40s-12.5 23 -18.5 31c-26 -86 -67 -129 -123 -129c-18 0 -35.333 3.83301 -52 11.5s-31.334 18.167 -44.001 31.5s-22.667 29 -30 47s-11 37.667 -11 59c0 32 4.16699 63.167 12.5 93.5
s21.166 59.833 38.499 88.5c32.667 53.333 64 80 94 80c38.667 0 83.334 -36 134.001 -108c52.667 -79.333 79 -164.666 79 -255.999zM299.001 435.997c-23.333 48 -54 72 -92 72c-45.333 0 -68 -22.667 -68 -68c0 -7.33301 2.5 -15.333 7.5 -24s11.5 -16.667 19.5 -24
s17 -13.333 27 -18s20 -7 30 -7c44.667 0 70 23 76 69z" />
    <glyph glyph-name="afii57374" unicode="&#x6a1;" horiz-adv-x="606" 
d="M606 0c-157.333 0 -268.667 25.334 -334 76.001c-72.667 -50.667 -163.334 -76 -272.001 -76c-46.667 0 -70 25.333 -70 76s23.333 76 70 76h18c72.667 0 116.667 4 132 12c-3.33301 13.333 -5.66602 27 -6.99902 41s-2 28.333 -2 43c2 69.333 33.667 145.666 95 228.999
c56.667 79.333 103.667 119 141 119c23.333 0 47.333 -25.333 72 -76c24 -51.333 36 -100.333 36 -147c0 -40.667 -8.66699 -81.667 -26 -123c-14.667 -38 -31 -66 -49 -84c13.333 -5.33301 36.333 -9 69 -11s75 -3 127 -3v-152zM419.999 299.001
c0 18.667 -7.66699 43.999 -23 75.999c-16 36.667 -33.667 55 -53 55c-27.333 0 -57.333 -16.333 -90 -49c-31.333 -33.333 -47 -60.666 -47 -81.999s29.333 -53.333 88 -96c83.333 34.667 125 66.667 125 96z" />
    <glyph glyph-name="afii52258" unicode="&#x6a1;" horiz-adv-x="1364" 
d="M1364 0c-135.333 0 -237 26.002 -305 78.002c-28 -20 -64.333 -38.333 -109 -55s-91.667 -31.167 -141 -43.5s-98 -21.833 -146 -28.5s-90 -10 -126 -10c-85.333 0 -158.833 7.5 -220.5 22.5s-113.167 37.5 -154.5 67.5c-66 46.667 -99 105.334 -99 176.001
c0 48 16.667 101.333 50 160c30 51.333 52.333 77 67 77c11.333 0 17 -4.66699 17 -14c0 3.33301 -8.33301 -14.334 -25 -53.001c-14.667 -38.667 -22 -71.334 -22 -98.001c0 -24 7.5 -46.5 22.5 -67.5s38.167 -40.167 69.5 -57.5c74.667 -42.667 185 -64 331 -64
c73.333 0 141.666 6.16699 204.999 18.5s122.666 30.166 177.999 53.499c-12 28 -18 58 -18 90c0 53.333 28.667 124.333 86 213c58.667 87.333 104.334 131 137.001 131c23.333 0 47.333 -25.333 72 -76s37 -99.667 37 -147c0 -19.333 -2.16699 -39.333 -6.5 -60
s-11.166 -41.667 -20.499 -63c-14 -37.333 -30.333 -65.333 -49 -84c15.333 -5.33301 35.5 -9 60.5 -11s55.5 -3 91.5 -3h18v-152zM1204 307.002c0 16 -8.66797 40 -26.001 72c-18.667 34 -34.667 51 -48 51c-19.333 0 -43.666 -15 -72.999 -45
c-35.333 -33.333 -53 -64 -53 -92c7.33301 -17.333 33 -44 77 -80c82 40.667 123 72 123 94z" />
    <glyph glyph-name="uni06A2.init" unicode="&#x6a2;" horiz-adv-x="486" 
d="M446 283c0 -56.667 -5.66602 -102.67 -16.999 -138.003s-28.666 -59.666 -51.999 -72.999c-42 -23.333 -90.167 -41.166 -144.5 -53.499s-114.833 -18.5 -181.5 -18.5h-51c-46.667 0 -70 25.333 -70 76s23.333 76 70 76h74c173.333 0 281.666 23.667 324.999 71
c0 8 -1.5 18.333 -4.5 31s-6.83301 26 -11.5 40s-10.167 27.333 -16.5 40s-12.5 23 -18.5 31c-26 -86 -67 -129 -123 -129c-18 0 -35.333 3.83301 -52 11.5s-31.334 18.167 -44.001 31.5s-22.667 29 -30 47s-11 37.667 -11 59c0 32 4.16699 63.167 12.5 93.5
s21.166 59.833 38.499 88.5c32.667 53.333 64 80 94 80c38.667 0 83.334 -36 134.001 -108c52.667 -79.333 79 -164.666 79 -255.999zM299.001 435.997c-23.333 48 -54 72 -92 72c-45.333 0 -68 -22.667 -68 -68c0 -7.33301 2.5 -15.333 7.5 -24s11.5 -16.667 19.5 -24
s17 -13.333 27 -18s20 -7 30 -7c44.667 0 70 23 76 69zM203.001 -367.003l-104 104l104 104l104 -104z" />
    <glyph glyph-name="uni06A2.medi" unicode="&#x6a2;" horiz-adv-x="606" 
d="M606 0c-157.333 0 -268.667 25.334 -334 76.001c-72.667 -50.667 -163.334 -76 -272.001 -76c-46.667 0 -70 25.333 -70 76s23.333 76 70 76h18c72.667 0 116.667 4 132 12c-3.33301 13.333 -5.66602 27 -6.99902 41s-2 28.333 -2 43c2 69.333 33.667 145.666 95 228.999
c56.667 79.333 103.667 119 141 119c23.333 0 47.333 -25.333 72 -76c24 -51.333 36 -100.333 36 -147c0 -40.667 -8.66699 -81.667 -26 -123c-14.667 -38 -31 -66 -49 -84c13.333 -5.33301 36.333 -9 69 -11s75 -3 127 -3v-152zM419.999 299.001
c0 18.667 -7.66699 43.999 -23 75.999c-16 36.667 -33.667 55 -53 55c-27.333 0 -57.333 -16.333 -90 -49c-31.333 -33.333 -47 -60.666 -47 -81.999s29.333 -53.333 88 -96c83.333 34.667 125 66.667 125 96zM261.999 -373l-104 104l104 104l104 -104z" />
    <glyph glyph-name="uni06A2.fina" unicode="&#x6a2;" horiz-adv-x="1364" 
d="M1364 0c-135.333 0 -237 26.002 -305 78.002c-28 -20 -64.333 -38.333 -109 -55s-91.667 -31.167 -141 -43.5s-98 -21.833 -146 -28.5s-90 -10 -126 -10c-85.333 0 -158.833 7.5 -220.5 22.5s-113.167 37.5 -154.5 67.5c-66 46.667 -99 105.334 -99 176.001
c0 48 16.667 101.333 50 160c30 51.333 52.333 77 67 77c11.333 0 17 -4.66699 17 -14c0 3.33301 -8.33301 -14.334 -25 -53.001c-14.667 -38.667 -22 -71.334 -22 -98.001c0 -24 7.5 -46.5 22.5 -67.5s38.167 -40.167 69.5 -57.5c74.667 -42.667 185 -64 331 -64
c73.333 0 141.666 6.16699 204.999 18.5s122.666 30.166 177.999 53.499c-12 28 -18 58 -18 90c0 53.333 28.667 124.333 86 213c58.667 87.333 104.334 131 137.001 131c23.333 0 47.333 -25.333 72 -76s37 -99.667 37 -147c0 -19.333 -2.16699 -39.333 -6.5 -60
s-11.166 -41.667 -20.499 -63c-14 -37.333 -30.333 -65.333 -49 -84c15.333 -5.33301 35.5 -9 60.5 -11s55.5 -3 91.5 -3h18v-152zM1204 307.002c0 16 -8.66797 40 -26.001 72c-18.667 34 -34.667 51 -48 51c-19.333 0 -43.666 -15 -72.999 -45
c-35.333 -33.333 -53 -64 -53 -92c7.33301 -17.333 33 -44 77 -80c82 40.667 123 72 123 94zM1066 -349.998l-104 104l104 104l104 -104z" />
    <glyph glyph-name="uni06A3.init" unicode="&#x6a3;" horiz-adv-x="486" 
d="M446 283c0 -56.667 -5.66602 -102.67 -16.999 -138.003s-28.666 -59.666 -51.999 -72.999c-42 -23.333 -90.167 -41.166 -144.5 -53.499s-114.833 -18.5 -181.5 -18.5h-51c-46.667 0 -70 25.333 -70 76s23.333 76 70 76h74c173.333 0 281.666 23.667 324.999 71
c0 8 -1.5 18.333 -4.5 31s-6.83301 26 -11.5 40s-10.167 27.333 -16.5 40s-12.5 23 -18.5 31c-26 -86 -67 -129 -123 -129c-18 0 -35.333 3.83301 -52 11.5s-31.334 18.167 -44.001 31.5s-22.667 29 -30 47s-11 37.667 -11 59c0 32 4.16699 63.167 12.5 93.5
s21.166 59.833 38.499 88.5c32.667 53.333 64 80 94 80c38.667 0 83.334 -36 134.001 -108c52.667 -79.333 79 -164.666 79 -255.999zM299.001 435.997c-23.333 48 -54 72 -92 72c-45.333 0 -68 -22.667 -68 -68c0 -7.33301 2.5 -15.333 7.5 -24s11.5 -16.667 19.5 -24
s17 -13.333 27 -18s20 -7 30 -7c44.667 0 70 23 76 69zM235.001 791.997l-104 104l104 104l104 -104zM233.001 -376.003l-104 104l104 104l104 -104z" />
    <glyph glyph-name="uni06A3.medi" unicode="&#x6a3;" horiz-adv-x="606" 
d="M606 0c-157.333 0 -268.667 25.334 -334 76.001c-72.667 -50.667 -163.334 -76 -272.001 -76c-46.667 0 -70 25.333 -70 76s23.333 76 70 76h18c72.667 0 116.667 4 132 12c-3.33301 13.333 -5.66602 27 -6.99902 41s-2 28.333 -2 43c2 69.333 33.667 145.666 95 228.999
c56.667 79.333 103.667 119 141 119c23.333 0 47.333 -25.333 72 -76c24 -51.333 36 -100.333 36 -147c0 -40.667 -8.66699 -81.667 -26 -123c-14.667 -38 -31 -66 -49 -84c13.333 -5.33301 36.333 -9 69 -11s75 -3 127 -3v-152zM419.999 299.001
c0 18.667 -7.66699 43.999 -23 75.999c-16 36.667 -33.667 55 -53 55c-27.333 0 -57.333 -16.333 -90 -49c-31.333 -33.333 -47 -60.666 -47 -81.999s29.333 -53.333 88 -96c83.333 34.667 125 66.667 125 96zM332.999 742l-104 104l104 104l104 -104zM277.999 -373
l-104 104l104 104l104 -104z" />
    <glyph glyph-name="uni06A3.fina" unicode="&#x6a3;" horiz-adv-x="1364" 
d="M1364 0c-135.333 0 -237 26.002 -305 78.002c-28 -20 -64.333 -38.333 -109 -55s-91.667 -31.167 -141 -43.5s-98 -21.833 -146 -28.5s-90 -10 -126 -10c-85.333 0 -158.833 7.5 -220.5 22.5s-113.167 37.5 -154.5 67.5c-66 46.667 -99 105.334 -99 176.001
c0 48 16.667 101.333 50 160c30 51.333 52.333 77 67 77c11.333 0 17 -4.66699 17 -14c0 3.33301 -8.33301 -14.334 -25 -53.001c-14.667 -38.667 -22 -71.334 -22 -98.001c0 -24 7.5 -46.5 22.5 -67.5s38.167 -40.167 69.5 -57.5c74.667 -42.667 185 -64 331 -64
c73.333 0 141.666 6.16699 204.999 18.5s122.666 30.166 177.999 53.499c-12 28 -18 58 -18 90c0 53.333 28.667 124.333 86 213c58.667 87.333 104.334 131 137.001 131c23.333 0 47.333 -25.333 72 -76s37 -99.667 37 -147c0 -19.333 -2.16699 -39.333 -6.5 -60
s-11.166 -41.667 -20.499 -63c-14 -37.333 -30.333 -65.333 -49 -84c15.333 -5.33301 35.5 -9 60.5 -11s55.5 -3 91.5 -3h18v-152zM1204 307.002c0 16 -8.66797 40 -26.001 72c-18.667 34 -34.667 51 -48 51c-19.333 0 -43.666 -15 -72.999 -45
c-35.333 -33.333 -53 -64 -53 -92c7.33301 -17.333 33 -44 77 -80c82 40.667 123 72 123 94zM1115 751.002l-104 104l104 104l104 -104zM1098 -391.998l-104 104l104 104l104 -104z" />
    <glyph glyph-name="uni06A5.init" unicode="&#x6a5;" horiz-adv-x="486" 
d="M446 283c0 -56.667 -5.66602 -102.67 -16.999 -138.003s-28.666 -59.666 -51.999 -72.999c-42 -23.333 -90.167 -41.166 -144.5 -53.499s-114.833 -18.5 -181.5 -18.5h-51c-46.667 0 -70 25.333 -70 76s23.333 76 70 76h74c173.333 0 281.666 23.667 324.999 71
c0 8 -1.5 18.333 -4.5 31s-6.83301 26 -11.5 40s-10.167 27.333 -16.5 40s-12.5 23 -18.5 31c-26 -86 -67 -129 -123 -129c-18 0 -35.333 3.83301 -52 11.5s-31.334 18.167 -44.001 31.5s-22.667 29 -30 47s-11 37.667 -11 59c0 32 4.16699 63.167 12.5 93.5
s21.166 59.833 38.499 88.5c32.667 53.333 64 80 94 80c38.667 0 83.334 -36 134.001 -108c52.667 -79.333 79 -164.666 79 -255.999zM299.001 435.997c-23.333 48 -54 72 -92 72c-45.333 0 -68 -22.667 -68 -68c0 -7.33301 2.5 -15.333 7.5 -24s11.5 -16.667 19.5 -24
s17 -13.333 27 -18s20 -7 30 -7c44.667 0 70 23 76 69zM119.001 -139.003l90 -90l-90 -90l-90 90zM328.001 -133.003l90 -90l-90 -90l-90 90zM226.001 -299.003l90 -90l-90 -90l-90 90z" />
    <glyph glyph-name="uni06A5.medi" unicode="&#x6a5;" horiz-adv-x="606" 
d="M606 0c-157.333 0 -268.667 25.334 -334 76.001c-72.667 -50.667 -163.334 -76 -272.001 -76c-46.667 0 -70 25.333 -70 76s23.333 76 70 76h18c72.667 0 116.667 4 132 12c-3.33301 13.333 -5.66602 27 -6.99902 41s-2 28.333 -2 43c2 69.333 33.667 145.666 95 228.999
c56.667 79.333 103.667 119 141 119c23.333 0 47.333 -25.333 72 -76c24 -51.333 36 -100.333 36 -147c0 -40.667 -8.66699 -81.667 -26 -123c-14.667 -38 -31 -66 -49 -84c13.333 -5.33301 36.333 -9 69 -11s75 -3 127 -3v-152zM419.999 299.001
c0 18.667 -7.66699 43.999 -23 75.999c-16 36.667 -33.667 55 -53 55c-27.333 0 -57.333 -16.333 -90 -49c-31.333 -33.333 -47 -60.666 -47 -81.999s29.333 -53.333 88 -96c83.333 34.667 125 66.667 125 96zM173.999 -165l90 -90l-90 -90l-90 90zM382.999 -159l90 -90
l-90 -90l-90 90zM280.999 -325l90 -90l-90 -90l-90 90z" />
    <glyph glyph-name="uni06A5.fina" unicode="&#x6a5;" horiz-adv-x="1364" 
d="M1364 0c-135.333 0 -237 26.002 -305 78.002c-28 -20 -64.333 -38.333 -109 -55s-91.667 -31.167 -141 -43.5s-98 -21.833 -146 -28.5s-90 -10 -126 -10c-85.333 0 -158.833 7.5 -220.5 22.5s-113.167 37.5 -154.5 67.5c-66 46.667 -99 105.334 -99 176.001
c0 48 16.667 101.333 50 160c30 51.333 52.333 77 67 77c11.333 0 17 -4.66699 17 -14c0 3.33301 -8.33301 -14.334 -25 -53.001c-14.667 -38.667 -22 -71.334 -22 -98.001c0 -24 7.5 -46.5 22.5 -67.5s38.167 -40.167 69.5 -57.5c74.667 -42.667 185 -64 331 -64
c73.333 0 141.666 6.16699 204.999 18.5s122.666 30.166 177.999 53.499c-12 28 -18 58 -18 90c0 53.333 28.667 124.333 86 213c58.667 87.333 104.334 131 137.001 131c23.333 0 47.333 -25.333 72 -76s37 -99.667 37 -147c0 -19.333 -2.16699 -39.333 -6.5 -60
s-11.166 -41.667 -20.499 -63c-14 -37.333 -30.333 -65.333 -49 -84c15.333 -5.33301 35.5 -9 60.5 -11s55.5 -3 91.5 -3h18v-152zM1204 307.002c0 16 -8.66797 40 -26.001 72c-18.667 34 -34.667 51 -48 51c-19.333 0 -43.666 -15 -72.999 -45
c-35.333 -33.333 -53 -64 -53 -92c7.33301 -17.333 33 -44 77 -80c82 40.667 123 72 123 94zM946.999 -191.998l90 -90l-90 -90l-90 90zM1156 -185.998l90 -90l-90 -90l-90 90zM1054 -351.998l90 -90l-90 -90l-90 90z" />
    <glyph glyph-name="uni06A7.fina" unicode="&#x6a7;" horiz-adv-x="1053" 
d="M989 0c0 -40 -4.66797 -77.332 -14.001 -111.999s-23.666 -67 -42.999 -97c-36.667 -58.667 -104.334 -107.667 -203.001 -147c-98.667 -41.333 -199.667 -62 -303 -62c-124.667 0 -219 37 -283 111c-47.333 55.333 -71 118 -71 188c0 86.667 19.667 163.334 59 230.001
c37.333 61.333 62.666 92 75.999 92c10.667 0 16 -6.33301 16 -19c0 -2 -3.16699 -10 -9.5 -24s-16.166 -34.667 -29.499 -62c-24.667 -54.667 -37 -101.667 -37 -141c0 -70.667 31 -127.334 93 -170.001c63.333 -45.333 141 -68 233 -68c89.333 0 185 21.333 287 64
c88 37.333 142.667 70 164 98c1.33301 7.33301 2.33301 14.833 3 22.5s1 15.167 1 22.5c0 14.667 -0.833008 27.667 -2.5 39s-4.16699 21.666 -7.5 30.999c-17.333 -5.33301 -35.166 -9.33301 -53.499 -12s-36.833 -4 -55.5 -4c-116 0 -174 45.667 -174 137
c0 63.333 18.333 121.333 55 174c37.333 53.333 76.333 80 117 80c70.667 0 124.667 -75.333 162 -226c13.333 4.66699 46 7 98 7v-152h-78zM865.999 129.001c-24 83.333 -55.999 125 -95.999 125c-10 0 -19.667 -2.83301 -29 -8.5s-17.833 -12.667 -25.5 -21
s-13.834 -17.5 -18.501 -27.5s-7 -19 -7 -27c0 -33.333 32 -51 96 -53c31.333 0 58 4 80 12zM752 513.001l-104 104l104 104l104 -104z" />
    <glyph glyph-name="uni06A8.fina" unicode="&#x6a8;" horiz-adv-x="1053" 
d="M989 0c0 -40 -4.66797 -77.332 -14.001 -111.999s-23.666 -67 -42.999 -97c-36.667 -58.667 -104.334 -107.667 -203.001 -147c-98.667 -41.333 -199.667 -62 -303 -62c-124.667 0 -219 37 -283 111c-47.333 55.333 -71 118 -71 188c0 86.667 19.667 163.334 59 230.001
c37.333 61.333 62.666 92 75.999 92c10.667 0 16 -6.33301 16 -19c0 -2 -3.16699 -10 -9.5 -24s-16.166 -34.667 -29.499 -62c-24.667 -54.667 -37 -101.667 -37 -141c0 -70.667 31 -127.334 93 -170.001c63.333 -45.333 141 -68 233 -68c89.333 0 185 21.333 287 64
c88 37.333 142.667 70 164 98c1.33301 7.33301 2.33301 14.833 3 22.5s1 15.167 1 22.5c0 14.667 -0.833008 27.667 -2.5 39s-4.16699 21.666 -7.5 30.999c-17.333 -5.33301 -35.166 -9.33301 -53.499 -12s-36.833 -4 -55.5 -4c-116 0 -174 45.667 -174 137
c0 63.333 18.333 121.333 55 174c37.333 53.333 76.333 80 117 80c70.667 0 124.667 -75.333 162 -226c13.333 4.66699 46 7 98 7v-152h-78zM865.999 129.001c-24 83.333 -55.999 125 -95.999 125c-10 0 -19.667 -2.83301 -29 -8.5s-17.833 -12.667 -25.5 -21
s-13.834 -17.5 -18.501 -27.5s-7 -19 -7 -27c0 -33.333 32 -51 96 -53c31.333 0 58 4 80 12zM883 541.001l-90 90l90 90l90 -90zM674 535.001l-90 90l90 90l90 -90zM776 701.001l-90 90l90 90l90 -90z" />
    <glyph glyph-name="uni06AA.init" unicode="&#x6aa;" horiz-adv-x="1694" 
d="M-15 152c274 2 540.504 13.833 799.504 35.5s501.167 48.834 726.5 81.501c0 6.66699 0.166992 14.667 0.5 24s-0.166992 17 -1.5 23c-4 28.667 -9.83301 55.334 -17.5 80.001s-19.834 45.667 -36.501 63s-39.334 30.5 -68.001 39.5s-66 12.5 -112 10.5
c-28.667 0 -64.667 -1.33301 -108 -4l-145 -9l-170.5 -10.5c-60.333 -3.66699 -121 -6.66699 -182 -9s-121.333 -3.66602 -181 -3.99902s-115.5 1.16699 -167.5 4.5c-41.333 3.33301 -76 7.5 -104 12.5s-50.833 11.167 -68.5 18.5s-30.334 16.166 -38.001 26.499
s-11.834 22.5 -12.501 36.5c0.666992 36.667 12.167 74.167 34.5 112.5s51.5 76.166 87.5 113.499s77.167 74 123.5 110s94.333 70.167 144 102.5s99.167 62.333 148.5 90s94.666 52 135.999 73s77.166 38.167 107.499 51.5s51.5 21.666 63.5 24.999
s19.5 5.16602 22.5 5.49902s3.16699 -3.83398 0.5 -12.501s-7.66699 -23.334 -15 -44.001s-15.333 -50.334 -24 -89.001l-191 -87.5l-175 -87.5c-54.667 -28.667 -104.667 -56.5 -150 -83.5s-84.5 -52 -117.5 -75s-58.833 -43.833 -77.5 -62.5s-28.334 -34 -29.001 -46
c4 -17.333 20 -31 48 -41s64.333 -17 109 -21s95.667 -5.66699 153 -5s117.5 2.5 180.5 5.5s127 6.83301 192 11.5l187 13c59.667 4 114.834 7.33301 165.501 10s93.334 3.33398 128.001 2.00098c59.333 -4.66699 108.666 -20.167 147.999 -46.5s68.333 -58.666 87 -96.999
s27.334 -80.666 26.001 -126.999s-12.666 -92.166 -33.999 -137.499l-63 -102c-508.667 -76 -1020.67 -120 -1536 -132l-21.5 44.5c-5.66699 11.667 -9 22.667 -10 33s1 21 6 32s13.5 25.167 25.5 42.5h6v0z" />
    <glyph glyph-name="uni06AA.medi" unicode="&#x6aa;" horiz-adv-x="1907" 
d="M-2 152c274 2 540.505 13.835 799.505 35.502s501.167 48.834 726.5 81.501c0 6.66699 0.166992 14.667 0.5 24s-0.166992 17 -1.5 23c-4 28.667 -9.83301 55.334 -17.5 80.001s-19.834 45.667 -36.501 63s-39.334 30.5 -68.001 39.5s-66 12.5 -112 10.5
c-28.667 0 -64.667 -1.33301 -108 -4l-145 -9l-170 -10.5c-60 -3.66699 -120.667 -6.66699 -182 -9s-121.833 -3.66602 -181.5 -3.99902s-115.5 1.16699 -167.5 4.5c-41.333 3.33301 -76 7.5 -104 12.5s-50.833 11.167 -68.5 18.5s-30.334 16.166 -38.001 26.499
s-11.834 22.5 -12.501 36.5c0.666992 36.667 12.167 74.167 34.5 112.5s51.5 76.166 87.5 113.499s77.167 74 123.5 110s94.333 70.167 144 102.5s99.167 62.333 148.5 90s94.666 52 135.999 73s77.166 38.167 107.499 51.5s51.5 21.666 63.5 24.999
s19.5 5.16602 22.5 5.49902s3.16699 -3.83398 0.5 -12.501s-7.66699 -23.334 -15 -44.001s-15.333 -50.334 -24 -89.001l-191 -87.5l-175 -87.5c-54.667 -28.667 -104.667 -56.5 -150 -83.5s-84.5 -52 -117.5 -75s-58.833 -43.833 -77.5 -62.5s-28.334 -34 -29.001 -46
c4 -17.333 20 -31 48 -41s64.333 -17 109 -21s95.667 -5.66699 153 -5s117.5 2.5 180.5 5.5s127 6.83301 192 11.5l187 13c59.667 4 114.834 7.33301 165.501 10s93.334 3.33398 128.001 2.00098c59.333 -4.66699 108.666 -20.334 147.999 -47.001s68.333 -59.5 87 -98.5
s27.334 -81.833 26.001 -128.5s-12.666 -92.667 -33.999 -138c-4.66699 -28.667 7.16602 -49.167 35.499 -61.5s85.5 -17.833 171.5 -16.5h127c7.33301 -17.333 12.833 -31.666 16.5 -42.999s5.5 -22.333 5.5 -33s-1.83301 -21.667 -5.5 -33s-9.16699 -25.666 -16.5 -42.999
h-112c-82.667 -1.33301 -144 1.16699 -184 7.5s-70 18 -90 35s-28 46.833 -24 89.5c-500 -76 -1007.67 -120 -1523 -132l-21.5 44.5c-5.66699 11.667 -9 22.667 -10 33s1 21 6 32s13.5 25.167 25.5 42.5h6v0z" />
    <glyph glyph-name="uni06AA.fina" unicode="&#x6aa;" horiz-adv-x="2592" 
d="M2216 42c-18 15.333 -26.3262 39.001 -24.9932 71.001c-435.333 -54 -774.333 -86.333 -1017 -97s-397.667 -16 -465 -16c-38.667 -0.666992 -74 -0.666992 -106 0h-24c-93.333 0 -170.5 8.83301 -231.5 26.5s-109.5 39.834 -145.5 66.501s-61.167 55.667 -75.5 87
s-21.5 60.666 -21.5 87.999c0 26.667 5 54 15 82s21.667 53.5 35 76.5s26.5 41.833 39.5 56.5s22.167 22 27.5 22c11.333 0 17 -4.66699 17 -14c0 -3.33301 -2.5 -9.66602 -7.5 -18.999s-10.333 -20.833 -16 -34.5s-11 -28.834 -16 -45.501s-7.5 -34 -7.5 -52
c0 -19.333 6.83301 -39.833 20.5 -61.5s36.5 -41.834 68.5 -60.501s74.333 -34.334 127 -47.001s117.667 -19.334 195 -20.001h142c40 0 123.333 0.833008 250 2.5s303.167 13.5 529.5 35.5s452.166 48.667 677.499 80c0 6.66699 0.166992 14.667 0.5 24
s-0.166992 17 -1.5 23c-4 28.667 -9.83301 53.334 -17.5 74.001s-19.834 37.334 -36.5 50.001c-16.667 12.667 -39.334 21.667 -68 27c-28.667 5.33301 -66 7 -112 5c-28 0 -63.833 -1.33301 -107.5 -4l-145.5 -9l-170.5 -10.5c-60.333 -3.66699 -121 -6.66699 -182 -9
s-121.333 -3.66602 -181 -3.99902s-115.5 1.16699 -167.5 4.5c-41.333 3.33301 -76 7.5 -104 12.5s-50.833 11.167 -68.5 18.5s-30.334 16.166 -38.001 26.499s-11.834 22.5 -12.501 36.5c0.666992 36.667 12.167 73.5 34.5 110.5s51.5 73.333 87.5 109
s77.167 70.334 123.5 104.001s94.333 65.334 144 95.001s99.167 57.167 148.5 82.5s94.666 47.5 135.999 66.5s77.166 34.667 107.499 47s51.5 20.166 63.5 23.499s19.5 5.16602 22.5 5.49902s3.16699 -3.83398 0.5 -12.501s-7.66699 -23.334 -15 -44.001
s-15.333 -50.334 -24 -89.001l-191 -85l-175.5 -81.5c-55 -26.333 -105.333 -51.666 -151 -75.999s-85.167 -46.833 -118.5 -67.5s-59.333 -39.5 -78 -56.5s-28.334 -31.5 -29.001 -43.5c4 -17.333 20.167 -31 48.5 -41s64.833 -17 109.5 -21s95.667 -5.83301 153 -5.5
s117.666 2 180.999 5s127.5 6.83301 192.5 11.5l187 13c59.667 4 115 7.33301 166 10s93.833 3.33398 128.5 2.00098c59.333 -4.66699 108.666 -17.667 148 -39c39.333 -21.333 68.333 -48.333 87 -81s27.334 -69.834 26 -111.501
c-1.33301 -41.667 -12.666 -85.167 -34 -130.5l-2 -4c-2.66699 -29.333 9.33301 -50 36 -62c28.667 -12 86 -17.333 172 -16h127c7.33301 -17.333 12.833 -31.666 16.5 -42.999s5.5 -22.333 5.5 -33s-1.83301 -21.667 -5.5 -33s-9.16699 -25.666 -16.5 -42.999h-112
c-82.667 -1.33301 -144 1.16699 -184 7.5s-70 17.833 -90 34.5z" />
    <glyph glyph-name="uni06AB.init" unicode="&#x6ab;" horiz-adv-x="646" 
d="M643 1057l-222.998 -107.502l-182 -93.5c-122 -63.333 -183 -106.333 -183 -129c0 -16.667 15.667 -32.334 47 -47.001c28 -14.667 52.667 -28.5 74 -41.5s39.666 -25.833 54.999 -38.5c72.667 -54 126.667 -108.5 162 -163.5s53 -109.833 53 -164.5
c0 -181.333 -139 -272 -417 -272h-29c-46.667 0 -70 25.333 -70 76s23.333 76 70 76h90c92.667 0 167.667 10 225 30c56 20.667 84 45.334 84 74.001c0 18.667 -6.83301 39.667 -20.5 63s-33 47.5 -58 72.5s-54.833 50.5 -89.5 76.5s-72.667 51 -114 75
c-20.667 11.333 -37.167 21 -49.5 29s-20.5 14 -24.5 18c-20.667 14.667 -31 33.667 -31 57v72c0 73.333 54.667 144.333 164 213c43.333 26.667 105.666 61.334 186.999 104.001s183 93.334 305 152.001zM588.002 909.998c0 -22 -3.66992 -43.168 -11.0029 -63.501
s-17.666 -38.5 -30.999 -54.5s-29.166 -28.667 -47.499 -38s-38.166 -14 -59.499 -14c-29.333 0 -53.5 9.5 -72.5 28.5s-28.5 45.167 -28.5 78.5c0 23.333 3.66699 45.5 11 66.5s19.333 41.833 36 62.5c34 42 71 63 111 63c30 0 52.833 -12.167 68.5 -36.5
s23.5 -55.166 23.5 -92.499zM536.999 887.997c0 10 -1.66699 19.5 -5 28.5s-7.66602 17.167 -12.999 24.5s-11.833 13.166 -19.5 17.499s-15.834 6.5 -24.501 6.5c-10 0 -20 -2.5 -30 -7.5s-19 -11.667 -27 -20s-14.5 -17.833 -19.5 -28.5s-7.5 -22 -7.5 -34
c0 -17.333 6.16699 -31.166 18.5 -41.499s26.166 -15.5 41.499 -15.5c12 0 23.167 2.16699 33.5 6.5s19.333 9.83301 27 16.5s13.834 14.167 18.501 22.5s7 16.5 7 24.5z" />
    <glyph glyph-name="uni06AB.medi" unicode="&#x6ab;" horiz-adv-x="909" 
d="M909 0c-41.333 0 -77.333 9.66406 -108 28.9971c-18.667 11.333 -39.5 27.333 -62.5 48s-48.5 47 -76.5 79c-46 50 -88.167 93.333 -126.5 130s-73.5 66.334 -105.5 89.001c10.667 -26.667 16 -61 16 -103c0 -181.333 -141 -272 -423 -272h-23
c-46.667 0 -70 25.333 -70 76s23.333 76 70 76h82c211.333 0 317 40.667 317 122c0 72 -94 161.667 -282 269c-20.667 11.333 -37.167 21 -49.5 29s-20.5 14 -24.5 18c-20.667 14.667 -31 33.667 -31 57v72c0 40 16.5 79 49.5 117s82.833 76 149.5 114
c56.667 32 134.167 72 232.5 120l359.5 169l-29 -127l-382.5 -178.5c-101.667 -49 -178.167 -88.5 -229.5 -118.5c-36 -19.333 -62.833 -36.5 -80.5 -51.5s-26.5 -27.167 -26.5 -36.5c0 -16.667 25.333 -37 76 -61c66.667 -32 123.5 -60.667 170.5 -86
s84.5 -46.666 112.5 -63.999c32.667 -20.667 65.167 -43.667 97.5 -69s64.5 -53.666 96.5 -84.999c144.667 -140 237 -210 277 -210h24v-152v0zM700 957.997c0 -22 -3.66992 -43.168 -11.0029 -63.501s-17.666 -38.5 -30.999 -54.5s-29.166 -28.667 -47.499 -38
s-38.166 -14 -59.499 -14c-29.333 0 -53.5 9.5 -72.5 28.5s-28.5 45.167 -28.5 78.5c0 23.333 3.66699 45.5 11 66.5s19.333 41.833 36 62.5c34 42 71 63 111 63c30 0 52.833 -12.167 68.5 -36.5s23.5 -55.166 23.5 -92.499zM648.997 935.996c0 10 -1.66699 19.5 -5 28.5
s-7.66602 17.167 -12.999 24.5s-11.833 13.166 -19.5 17.499s-15.834 6.5 -24.501 6.5c-10 0 -20 -2.5 -30 -7.5s-19 -11.667 -27 -20s-14.5 -17.833 -19.5 -28.5s-7.5 -22 -7.5 -34c0 -17.333 6.16699 -31.166 18.5 -41.499s26.166 -15.5 41.499 -15.5
c12 0 23.167 2.16699 33.5 6.5s19.333 9.83301 27 16.5s13.834 14.167 18.501 22.5s7 16.5 7 24.5z" />
    <glyph glyph-name="uni06AB.fina" unicode="&#x6ab;" horiz-adv-x="1730" 
d="M1595 1112l-287.995 -134.493l-199 -96.5c-53.333 -26.667 -95.333 -48.5 -126 -65.5s-53.834 -31.167 -69.501 -42.5s-25.667 -20.333 -30 -27s-6.5 -13 -6.5 -19c0 -11.333 5.66699 -21 17 -29s31 -18.667 59 -32l112.5 -55l92.5 -47.5
c28 -15 53.833 -29.833 77.5 -44.5s46.334 -30 68.001 -46s42.667 -33 63 -51s41.5 -38 63.5 -60c39.333 -39.333 73.666 -72.333 102.999 -99s55 -48.334 77 -65.001s40.667 -28.5 56 -35.5s28.666 -10.5 39.999 -10.5h25v-152c-18.667 0 -36.667 2 -54 6
s-35.5 11.667 -54.5 23s-39.833 27.166 -62.5 47.499s-48.334 46.833 -77.001 79.5l-43 47.5l-47 48l-47.5 45l-44.5 39.5l-49 37c4.66699 -6.66699 8 -18.334 10 -35.001c4 -19.333 6 -41.333 6 -66c0 -35.333 -10.333 -68 -31 -98s-48.834 -57.333 -84.501 -82
s-77.167 -46.5 -124.5 -65.5s-97.833 -35 -151.5 -48s-108.834 -22.833 -165.501 -29.5s-112 -10 -166 -10c-62 0 -116 4.16699 -162 12.5s-85.667 19.5 -119 33.5s-60.833 30.167 -82.5 48.5s-38.834 37.166 -51.501 56.499s-21.5 38.666 -26.5 57.999s-7.5 37 -7.5 53
c0 26.667 5 54 15 82s21.667 53.5 35 76.5s26.5 41.833 39.5 56.5s22.167 22 27.5 22c11.333 0 17 -4.66699 17 -14c0 -3.33301 -2.5 -9.5 -7.5 -18.5s-10.333 -20.5 -16 -34.5s-11 -29.833 -16 -47.5s-7.5 -36.167 -7.5 -55.5c0 -22 8 -44.333 24 -67
s40.833 -43.334 74.5 -62.001s76.167 -33.834 127.5 -45.501s112.333 -17.5 183 -17.5c49.333 0 99.166 3.33301 149.499 10s98.833 15.334 145.5 26.001s90.334 23 131.001 37s76 28.333 106 43s53.667 29.167 71 43.5s26 27.166 26 38.499
c0 18 -4.16699 36.167 -12.5 54.5s-23.166 38.166 -44.499 59.499s-50.333 44.5 -87 69.5s-83 53.5 -139 85.5l-42 22.5c-12.667 7 -23.667 14.5 -33 22.5s-16.5 16.667 -21.5 26s-7.5 20.333 -7.5 33v72c0 16 3 33 9 51s16.5 36.833 31.5 56.5s35.167 39.834 60.5 60.501
s57.666 41.667 96.999 63c70.667 40 154.334 83 251.001 129l341 160l-28 -127v0zM1554 980.007c0 -22 -3.66992 -43.168 -11.0029 -63.501s-17.666 -38.5 -30.999 -54.5s-29.166 -28.667 -47.499 -38s-38.166 -14 -59.499 -14c-29.333 0 -53.5 9.5 -72.5 28.5
s-28.5 45.167 -28.5 78.5c0 23.333 3.66699 45.5 11 66.5s19.333 41.833 36 62.5c34 42 71 63 111 63c30 0 52.833 -12.167 68.5 -36.5s23.5 -55.166 23.5 -92.499zM1503 958.006c0 10 -1.66699 19.5 -5 28.5s-7.66602 17.167 -12.999 24.5s-11.833 13.166 -19.5 17.499
s-15.834 6.5 -24.501 6.5c-10 0 -20 -2.5 -30 -7.5s-19 -11.667 -27 -20s-14.5 -17.833 -19.5 -28.5s-7.5 -22 -7.5 -34c0 -17.333 6.16699 -31.166 18.5 -41.499s26.166 -15.5 41.499 -15.5c12 0 23.167 2.16699 33.5 6.5s19.333 9.83301 27 16.5
s13.834 14.167 18.501 22.5s7 16.5 7 24.5z" />
    <glyph glyph-name="uni06AE.init" unicode="&#x6ae;" horiz-adv-x="646" 
d="M643 1057l-222.998 -107.502l-182 -93.5c-122 -63.333 -183 -106.333 -183 -129c0 -16.667 15.667 -32.334 47 -47.001c28 -14.667 52.667 -28.5 74 -41.5s39.666 -25.833 54.999 -38.5c72.667 -54 126.667 -108.5 162 -163.5s53 -109.833 53 -164.5
c0 -181.333 -139 -272 -417 -272h-29c-46.667 0 -70 25.333 -70 76s23.333 76 70 76h90c92.667 0 167.667 10 225 30c56 20.667 84 45.334 84 74.001c0 18.667 -6.83301 39.667 -20.5 63s-33 47.5 -58 72.5s-54.833 50.5 -89.5 76.5s-72.667 51 -114 75
c-20.667 11.333 -37.167 21 -49.5 29s-20.5 14 -24.5 18c-20.667 14.667 -31 33.667 -31 57v72c0 73.333 54.667 144.333 164 213c43.333 26.667 105.666 61.334 186.999 104.001s183 93.334 305 152.001zM117.002 -163.002l90 -90l-90 -90l-90 90zM326.002 -157.002l90 -90
l-90 -90l-90 90zM224.002 -323.002l90 -90l-90 -90l-90 90z" />
    <glyph glyph-name="uni06AE.medi" unicode="&#x6ae;" horiz-adv-x="909" 
d="M909 0c-41.333 0 -77.333 9.66406 -108 28.9971c-18.667 11.333 -39.5 27.333 -62.5 48s-48.5 47 -76.5 79c-46 50 -88.167 93.333 -126.5 130s-73.5 66.334 -105.5 89.001c10.667 -26.667 16 -61 16 -103c0 -181.333 -141 -272 -423 -272h-23
c-46.667 0 -70 25.333 -70 76s23.333 76 70 76h82c211.333 0 317 40.667 317 122c0 72 -94 161.667 -282 269c-20.667 11.333 -37.167 21 -49.5 29s-20.5 14 -24.5 18c-20.667 14.667 -31 33.667 -31 57v72c0 40 16.5 79 49.5 117s82.833 76 149.5 114
c56.667 32 134.167 72 232.5 120l359.5 169l-29 -127l-382.5 -178.5c-101.667 -49 -178.167 -88.5 -229.5 -118.5c-36 -19.333 -62.833 -36.5 -80.5 -51.5s-26.5 -27.167 -26.5 -36.5c0 -16.667 25.333 -37 76 -61c66.667 -32 123.5 -60.667 170.5 -86
s84.5 -46.666 112.5 -63.999c32.667 -20.667 65.167 -43.667 97.5 -69s64.5 -53.666 96.5 -84.999c144.667 -140 237 -210 277 -210h24v-152v0zM157 -161.003l90 -90l-90 -90l-90 90zM366 -155.003l90 -90l-90 -90l-90 90zM264 -321.003l90 -90l-90 -90l-90 90z" />
    <glyph glyph-name="uni06AE.fina" unicode="&#x6ae;" horiz-adv-x="1247" 
d="M1247 0c-68 0 -117.999 16.9971 -149.999 50.9971c-19.333 19.333 -35.333 46.5 -48 81.5s-22.667 77.5 -30 127.5c-7.33301 -15.333 -13.5 -29 -18.5 -41s-10.167 -21.667 -15.5 -29c-8.66699 -11.333 -18 -22 -28 -32s-20.667 -19 -32 -27
c-50 -36 -123.667 -69.333 -221 -100c-53.333 -17.333 -104.166 -30.166 -152.499 -38.499s-94.5 -12.5 -138.5 -12.5c-103.333 0 -185 25 -245 75c-58 46.667 -87 108.334 -87 185.001c0 60.667 17.333 122.667 52 186c30.667 56 54.334 84 71.001 84
c14 0 21 -7.66699 21 -23c0 -2.66699 -11.667 -25.667 -35 -69c-22 -43.333 -33 -80.333 -33 -111c0 -55.333 25.333 -100.333 76 -135c56.667 -36.667 138.667 -55 246 -55c87.333 0 183 18.333 287 55c50 18.667 94.5 38.667 133.5 60s72.833 43.666 101.5 66.999l-53 778
l45 133c6 19.333 11.333 29 16 29c3.33301 0 6.33301 -9.16699 9 -27.5s4.66699 -45.5 6 -81.5c1.33301 -28 4.66602 -73.333 9.99902 -136s12.666 -142.667 21.999 -240c9.33301 -106 18 -196.667 26 -272s15.667 -135.666 23 -180.999
c5.33301 -32 11.166 -58.167 17.499 -78.5s13.5 -35.166 21.5 -44.499c18 -17.333 52.333 -26 103 -26v-152zM710.001 591.997c0 -50.667 -18.9971 -97.001 -56.9971 -139.001c-22.667 -24.667 -56 -37 -100 -37c-39.333 0 -73 9.33301 -101 28
c-20.667 15.333 -31 28.333 -31 39c0 10 5 15 15 15c11.333 -6 22.666 -11 33.999 -15c9.33301 -3.33301 19.666 -6.5 30.999 -9.5s22.333 -4.5 33 -4.5c28 0 55.333 8.33301 82 25c24.667 14 37 25.333 37 34c0 16 -28.667 27 -86 33c-53.333 8 -80 32 -80 72s22 89 66 147
c46.667 60 80 90 100 90c4.66699 0 10.167 -2.33301 16.5 -7s12.5 -10 18.5 -16s11.167 -11.833 15.5 -17.5s6.5 -9.83398 6.5 -12.501c0 -18.667 -3.33301 -33.667 -10 -45l-39 -49c-22.667 20.667 -41.667 31 -57 31c-6 0 -12.333 -1.66699 -19 -5
s-12.834 -7.66602 -18.501 -12.999s-10.167 -11.166 -13.5 -17.499s-5 -12.5 -5 -18.5c0 -18.667 26.667 -35.667 80 -51c54.667 -12 82 -31 82 -57zM428.004 -206.004l90 -90l-90 -90l-90 90zM637.004 -200.004l90 -90l-90 -90l-90 90zM535.004 -366.004l90 -90l-90 -90
l-90 90z" />
    <glyph glyph-name="uni06B0.init" unicode="&#x6b0;" horiz-adv-x="639" 
d="M0 0c-46.667 0 -70 25.3291 -70 75.9961s23.333 76 70 76h90c47.333 0 90 2.66699 128 8s70.5 12.833 97.5 22.5s47.667 20.834 62 33.501s21.5 26 21.5 40c0 18.667 -6.83301 39.834 -20.5 63.501s-33 48.167 -58 73.5s-54.833 50.833 -89.5 76.5
s-72.667 50.167 -114 73.5l-42.5 23c-13 7.33301 -24.167 15 -33.5 23s-16.5 16.667 -21.5 26s-7.5 20 -7.5 32v72c0 16.667 2.33301 33.167 7 49.5s13.167 33 25.5 50s29.166 34.833 50.499 53.5s48.333 38.667 81 60l63.5 33.5l81.5 42.5l91.5 48l93 48.5l87.5 45l75 38.5
l-25 -131l-241 -117l-164 -84c-33.333 -17.333 -61.666 -32.666 -84.999 -45.999s-42.333 -25 -57 -35s-25.167 -18.833 -31.5 -26.5s-9.5 -14.834 -9.5 -21.501c0 -11.333 4.16699 -20.166 12.5 -26.499s20 -13.333 35 -21l55 -29c21.667 -11.667 46.167 -28.5 73.5 -50.5
c42 -31.333 76.833 -61.5 104.5 -90.5s49.667 -57.167 66 -84.5s27.833 -53.666 34.5 -78.999s10 -50 10 -74c0 -51.333 -10.5 -94.5 -31.5 -129.5s-50 -63 -87 -84s-81 -36 -132 -45s-106.5 -13.5 -166.5 -13.5h-29zM676 1298l-592 -299l22 103l592 299zM598 909.996
c0 -22 -3.66992 -43.168 -11.0029 -63.501s-17.666 -38.5 -30.999 -54.5s-29.166 -28.667 -47.499 -38s-38.166 -14 -59.499 -14c-29.333 0 -53.5 9.5 -72.5 28.5s-28.5 45.167 -28.5 78.5c0 23.333 3.66699 45.5 11 66.5s19.333 41.833 36 62.5c34 42 71 63 111 63
c30 0 52.833 -12.167 68.5 -36.5s23.5 -55.166 23.5 -92.499zM546.997 887.995c0 10 -1.66699 19.5 -5 28.5s-7.66602 17.167 -12.999 24.5s-11.833 13.166 -19.5 17.499s-15.834 6.5 -24.501 6.5c-10 0 -20 -2.5 -30 -7.5s-19 -11.667 -27 -20s-14.5 -17.833 -19.5 -28.5
s-7.5 -22 -7.5 -34c0 -17.333 6.16699 -31.166 18.5 -41.499s26.166 -15.5 41.499 -15.5c12 0 23.167 2.16699 33.5 6.5s19.333 9.83301 27 16.5s13.834 14.167 18.501 22.5s7 16.5 7 24.5z" />
    <glyph glyph-name="uni06B0.medi" unicode="&#x6b0;" horiz-adv-x="909" 
d="M0 0c-46.667 0 -70.0039 25.3359 -70.0039 76.0029s23.333 76 70 76h82c44.667 0 86.167 2.33301 124.5 7s71.833 12 100.5 22s51.167 22.667 67.5 38s24.5 33.666 24.5 54.999c0 18 -4.16699 36.333 -12.5 55s-23.166 38.667 -44.499 60s-50.166 44.5 -86.499 69.5
s-82.5 53.167 -138.5 84.5l-42.5 23c-13 7.33301 -24.167 15 -33.5 23s-16.5 16.667 -21.5 26s-7.5 20 -7.5 32v72c0 16.667 3 34 9 52s16.667 36.5 32 55.5s35.666 38.833 60.999 59.5s57.666 42 96.999 64c34.667 20 72.667 40.667 114 62l135.5 67l159 75l183.5 85
l-29 -127l-288 -134.5l-199 -96.5c-53.333 -26.667 -95.333 -48.5 -126 -65.5s-53.834 -31.167 -69.501 -42.5s-25.667 -20.333 -30 -27s-6.5 -13 -6.5 -19c0 -11.333 5.5 -21 16.5 -29s30.833 -18.667 59.5 -32l162 -79.5c45.333 -23 86 -45.833 122 -68.5
s69.167 -46.167 99.5 -70.5s61.5 -52.833 93.5 -85.5l104.5 -98c29 -26.667 54.167 -48.334 75.5 -65.001s39.666 -28.667 54.999 -36s29.333 -11 42 -11h24v-152c-19.333 0 -37.666 2 -54.999 6s-35.166 11.667 -53.499 23s-38.666 27.166 -60.999 47.499
s-48.166 46.833 -77.499 79.5c-13.333 15.333 -27.833 31.166 -43.5 47.499l-47.5 48l-47.5 45l-44.5 39.5l-49 37l10 -35c4 -19.333 6 -41.333 6 -66c0 -55.333 -11.333 -100.666 -34 -135.999s-53.167 -63 -91.5 -83s-83.166 -33.833 -134.499 -41.5
s-105.666 -11.5 -162.999 -11.5h-23zM808.996 1358l-733 -359l22 103l733 358zM719.996 969.003c0 -22 -3.66992 -43.168 -11.0029 -63.501s-17.666 -38.5 -30.999 -54.5s-29.166 -28.667 -47.499 -38s-38.166 -14 -59.499 -14c-29.333 0 -53.5 9.5 -72.5 28.5
s-28.5 45.167 -28.5 78.5c0 23.333 3.66699 45.5 11 66.5s19.333 41.833 36 62.5c34 42 71 63 111 63c30 0 52.833 -12.167 68.5 -36.5s23.5 -55.166 23.5 -92.499zM668.993 947.002c0 10 -1.66699 19.5 -5 28.5s-7.66602 17.167 -12.999 24.5s-11.833 13.166 -19.5 17.499
s-15.834 6.5 -24.501 6.5c-10 0 -20 -2.5 -30 -7.5s-19 -11.667 -27 -20s-14.5 -17.833 -19.5 -28.5s-7.5 -22 -7.5 -34c0 -17.333 6.16699 -31.166 18.5 -41.499s26.166 -15.5 41.499 -15.5c12 0 23.167 2.16699 33.5 6.5s19.333 9.83301 27 16.5
s13.834 14.167 18.501 22.5s7 16.5 7 24.5z" />
    <glyph glyph-name="uni06B0.fina" unicode="&#x6b0;" horiz-adv-x="1720" 
d="M1585 1112l-287.995 -134.493l-199 -96.5c-53.333 -26.667 -95.333 -48.5 -126 -65.5s-53.834 -31.167 -69.501 -42.5s-25.667 -20.333 -30 -27s-6.5 -13 -6.5 -19c0 -11.333 5.66699 -21 17 -29s31 -18.667 59 -32l112.5 -55l92.5 -47.5
c28 -15 53.833 -29.833 77.5 -44.5s46.334 -30 68.001 -46s42.667 -33 63 -51s41.5 -38 63.5 -60c39.333 -39.333 73.666 -72.333 102.999 -99s55 -48.334 77 -65.001s40.667 -28.5 56 -35.5s28.666 -10.5 39.999 -10.5h25v-152c-18.667 0 -36.667 2 -54 6
s-35.5 11.667 -54.5 23s-39.833 27.166 -62.5 47.499s-48.334 46.833 -77.001 79.5l-43 47.5l-47 48l-47.5 45l-44.5 39.5l-49 37c4.66699 -6.66699 8 -18.334 10 -35.001c4 -19.333 6 -41.333 6 -66c0 -35.333 -10.333 -68 -31 -98s-48.834 -57.333 -84.501 -82
s-77.167 -46.5 -124.5 -65.5s-97.833 -35 -151.5 -48s-108.834 -22.833 -165.501 -29.5s-112 -10 -166 -10c-62 0 -116 4.16699 -162 12.5s-85.667 19.5 -119 33.5s-60.833 30.167 -82.5 48.5s-38.834 37.166 -51.501 56.499s-21.5 38.666 -26.5 57.999s-7.5 37 -7.5 53
c0 26.667 5 54 15 82s21.667 53.5 35 76.5s26.5 41.833 39.5 56.5s22.167 22 27.5 22c11.333 0 17 -4.66699 17 -14c0 -3.33301 -2.5 -9.5 -7.5 -18.5s-10.333 -20.5 -16 -34.5s-11 -29.833 -16 -47.5s-7.5 -36.167 -7.5 -55.5c0 -22 8 -44.333 24 -67
s40.833 -43.334 74.5 -62.001s76.167 -33.834 127.5 -45.501s112.333 -17.5 183 -17.5c49.333 0 99.166 3.33301 149.499 10s98.833 15.334 145.5 26.001s90.334 23 131.001 37s76 28.333 106 43s53.667 29.167 71 43.5s26 27.166 26 38.499
c0 18 -4.16699 36.167 -12.5 54.5s-23.166 38.166 -44.499 59.499s-50.333 44.5 -87 69.5s-83 53.5 -139 85.5l-42 22.5c-12.667 7 -23.667 14.5 -33 22.5s-16.5 16.667 -21.5 26s-7.5 20.333 -7.5 33v72c0 16 3 33 9 51s16.5 36.833 31.5 56.5s35.167 39.834 60.5 60.501
s57.666 41.667 96.999 63c70.667 40 154.334 83 251.001 129l341 160zM1619 1358.01l-733 -359l23 103l733 358zM1475 943.007c0 -22 -3.66992 -43.168 -11.0029 -63.501s-17.666 -38.5 -30.999 -54.5s-29.166 -28.667 -47.499 -38s-38.166 -14 -59.499 -14
c-29.333 0 -53.5 9.5 -72.5 28.5s-28.5 45.167 -28.5 78.5c0 23.333 3.66699 45.5 11 66.5s19.333 41.833 36 62.5c34 42 71 63 111 63c30 0 52.833 -12.167 68.5 -36.5s23.5 -55.166 23.5 -92.499zM1424 921.006c0 10 -1.66699 19.5 -5 28.5s-7.66602 17.167 -12.999 24.5
s-11.833 13.166 -19.5 17.499s-15.834 6.5 -24.501 6.5c-10 0 -20 -2.5 -30 -7.5s-19 -11.667 -27 -20s-14.5 -17.833 -19.5 -28.5s-7.5 -22 -7.5 -34c0 -17.333 6.16699 -31.166 18.5 -41.499s26.166 -15.5 41.499 -15.5c12 0 23.167 2.16699 33.5 6.5
s19.333 9.83301 27 16.5s13.834 14.167 18.501 22.5s7 16.5 7 24.5z" />
    <glyph glyph-name="uni06B2.init" unicode="&#x6b2;" horiz-adv-x="639" 
d="M0 0c-46.667 0 -70 25.3291 -70 75.9961s23.333 76 70 76h90c47.333 0 90 2.66699 128 8s70.5 12.833 97.5 22.5s47.667 20.834 62 33.501s21.5 26 21.5 40c0 18.667 -6.83301 39.834 -20.5 63.501s-33 48.167 -58 73.5s-54.833 50.833 -89.5 76.5
s-72.667 50.167 -114 73.5l-42.5 23c-13 7.33301 -24.167 15 -33.5 23s-16.5 16.667 -21.5 26s-7.5 20 -7.5 32v72c0 16.667 2.33301 33.167 7 49.5s13.167 33 25.5 50s29.166 34.833 50.499 53.5s48.333 38.667 81 60l63.5 33.5l81.5 42.5l91.5 48l93 48.5l87.5 45l75 38.5
l-25 -131l-241 -117l-164 -84c-33.333 -17.333 -61.666 -32.666 -84.999 -45.999s-42.333 -25 -57 -35s-25.167 -18.833 -31.5 -26.5s-9.5 -14.834 -9.5 -21.501c0 -11.333 4.16699 -20.166 12.5 -26.499s20 -13.333 35 -21l55 -29c21.667 -11.667 46.167 -28.5 73.5 -50.5
c42 -31.333 76.833 -61.5 104.5 -90.5s49.667 -57.167 66 -84.5s27.833 -53.666 34.5 -78.999s10 -50 10 -74c0 -51.333 -10.5 -94.5 -31.5 -129.5s-50 -63 -87 -84s-81 -36 -132 -45s-106.5 -13.5 -166.5 -13.5h-29zM676 1298l-592 -299l22 103l592 299zM50 -365.004
l-93 93l93 93l93 -93zM247 -357.004l-93 93l93 93l93 -93z" />
    <glyph glyph-name="uni06B2.medi" unicode="&#x6b2;" horiz-adv-x="909" 
d="M0 0c-46.667 0 -70.0039 25.3359 -70.0039 76.0029s23.333 76 70 76h82c44.667 0 86.167 2.33301 124.5 7s71.833 12 100.5 22s51.167 22.667 67.5 38s24.5 33.666 24.5 54.999c0 18 -4.16699 36.333 -12.5 55s-23.166 38.667 -44.499 60s-50.166 44.5 -86.499 69.5
s-82.5 53.167 -138.5 84.5l-42.5 23c-13 7.33301 -24.167 15 -33.5 23s-16.5 16.667 -21.5 26s-7.5 20 -7.5 32v72c0 16.667 3 34 9 52s16.667 36.5 32 55.5s35.666 38.833 60.999 59.5s57.666 42 96.999 64c34.667 20 72.667 40.667 114 62l135.5 67l159 75l183.5 85
l-29 -127l-288 -134.5l-199 -96.5c-53.333 -26.667 -95.333 -48.5 -126 -65.5s-53.834 -31.167 -69.501 -42.5s-25.667 -20.333 -30 -27s-6.5 -13 -6.5 -19c0 -11.333 5.5 -21 16.5 -29s30.833 -18.667 59.5 -32l162 -79.5c45.333 -23 86 -45.833 122 -68.5
s69.167 -46.167 99.5 -70.5s61.5 -52.833 93.5 -85.5l104.5 -98c29 -26.667 54.167 -48.334 75.5 -65.001s39.666 -28.667 54.999 -36s29.333 -11 42 -11h24v-152c-19.333 0 -37.666 2 -54.999 6s-35.166 11.667 -53.499 23s-38.666 27.166 -60.999 47.499
s-48.166 46.833 -77.499 79.5c-13.333 15.333 -27.833 31.166 -43.5 47.499l-47.5 48l-47.5 45l-44.5 39.5l-49 37l10 -35c4 -19.333 6 -41.333 6 -66c0 -55.333 -11.333 -100.666 -34 -135.999s-53.167 -63 -91.5 -83s-83.166 -33.833 -134.499 -41.5
s-105.666 -11.5 -162.999 -11.5h-23zM808.996 1358l-733 -359l22 103l733 358zM136.996 -358.997l-93 93l93 93l93 -93zM333.996 -350.997l-93 93l93 93l93 -93z" />
    <glyph glyph-name="uni06B2.fina" unicode="&#x6b2;" horiz-adv-x="1720" 
d="M1585 1112l-287.995 -134.493l-199 -96.5c-53.333 -26.667 -95.333 -48.5 -126 -65.5s-53.834 -31.167 -69.501 -42.5s-25.667 -20.333 -30 -27s-6.5 -13 -6.5 -19c0 -11.333 5.66699 -21 17 -29s31 -18.667 59 -32l112.5 -55l92.5 -47.5
c28 -15 53.833 -29.833 77.5 -44.5s46.334 -30 68.001 -46s42.667 -33 63 -51s41.5 -38 63.5 -60c39.333 -39.333 73.666 -72.333 102.999 -99s55 -48.334 77 -65.001s40.667 -28.5 56 -35.5s28.666 -10.5 39.999 -10.5h25v-152c-18.667 0 -36.667 2 -54 6
s-35.5 11.667 -54.5 23s-39.833 27.166 -62.5 47.499s-48.334 46.833 -77.001 79.5l-43 47.5l-47 48l-47.5 45l-44.5 39.5l-49 37c4.66699 -6.66699 8 -18.334 10 -35.001c4 -19.333 6 -41.333 6 -66c0 -35.333 -10.333 -68 -31 -98s-48.834 -57.333 -84.501 -82
s-77.167 -46.5 -124.5 -65.5s-97.833 -35 -151.5 -48s-108.834 -22.833 -165.501 -29.5s-112 -10 -166 -10c-62 0 -116 4.16699 -162 12.5s-85.667 19.5 -119 33.5s-60.833 30.167 -82.5 48.5s-38.834 37.166 -51.501 56.499s-21.5 38.666 -26.5 57.999s-7.5 37 -7.5 53
c0 26.667 5 54 15 82s21.667 53.5 35 76.5s26.5 41.833 39.5 56.5s22.167 22 27.5 22c11.333 0 17 -4.66699 17 -14c0 -3.33301 -2.5 -9.5 -7.5 -18.5s-10.333 -20.5 -16 -34.5s-11 -29.833 -16 -47.5s-7.5 -36.167 -7.5 -55.5c0 -22 8 -44.333 24 -67
s40.833 -43.334 74.5 -62.001s76.167 -33.834 127.5 -45.501s112.333 -17.5 183 -17.5c49.333 0 99.166 3.33301 149.499 10s98.833 15.334 145.5 26.001s90.334 23 131.001 37s76 28.333 106 43s53.667 29.167 71 43.5s26 27.166 26 38.499
c0 18 -4.16699 36.167 -12.5 54.5s-23.166 38.166 -44.499 59.499s-50.333 44.5 -87 69.5s-83 53.5 -139 85.5l-42 22.5c-12.667 7 -23.667 14.5 -33 22.5s-16.5 16.667 -21.5 26s-7.5 20.333 -7.5 33v72c0 16 3 33 9 51s16.5 36.833 31.5 56.5s35.167 39.834 60.5 60.501
s57.666 41.667 96.999 63c70.667 40 154.334 83 251.001 129l341 160zM1619 1358.01l-733 -359l23 103l733 358zM566.005 -422.993l-93 93l93 93l93 -93zM763.005 -414.993l-93 93l93 93l93 -93z" />
    <glyph glyph-name="uni06B4.init" unicode="&#x6b4;" horiz-adv-x="639" 
d="M0 0c-46.667 0 -70 25.3291 -70 75.9961s23.333 76 70 76h90c47.333 0 90 2.66699 128 8s70.5 12.833 97.5 22.5s47.667 20.834 62 33.501s21.5 26 21.5 40c0 18.667 -6.83301 39.834 -20.5 63.501s-33 48.167 -58 73.5s-54.833 50.833 -89.5 76.5
s-72.667 50.167 -114 73.5l-42.5 23c-13 7.33301 -24.167 15 -33.5 23s-16.5 16.667 -21.5 26s-7.5 20 -7.5 32v72c0 16.667 2.33301 33.167 7 49.5s13.167 33 25.5 50s29.166 34.833 50.499 53.5s48.333 38.667 81 60l63.5 33.5l81.5 42.5l91.5 48l93 48.5l87.5 45l75 38.5
l-25 -131l-241 -117l-164 -84c-33.333 -17.333 -61.666 -32.666 -84.999 -45.999s-42.333 -25 -57 -35s-25.167 -18.833 -31.5 -26.5s-9.5 -14.834 -9.5 -21.501c0 -11.333 4.16699 -20.166 12.5 -26.499s20 -13.333 35 -21l55 -29c21.667 -11.667 46.167 -28.5 73.5 -50.5
c42 -31.333 76.833 -61.5 104.5 -90.5s49.667 -57.167 66 -84.5s27.833 -53.666 34.5 -78.999s10 -50 10 -74c0 -51.333 -10.5 -94.5 -31.5 -129.5s-50 -63 -87 -84s-81 -36 -132 -45s-106.5 -13.5 -166.5 -13.5h-29zM676 1298l-592 -299l22 103l592 299zM405 1341l-90 90
l90 90l90 -90zM196 1335l-90 90l90 90l90 -90zM298 1501l-90 90l90 90l90 -90z" />
    <glyph glyph-name="uni06B4.medi" unicode="&#x6b4;" horiz-adv-x="909" 
d="M0 0c-46.667 0 -70.0039 25.3359 -70.0039 76.0029s23.333 76 70 76h82c44.667 0 86.167 2.33301 124.5 7s71.833 12 100.5 22s51.167 22.667 67.5 38s24.5 33.666 24.5 54.999c0 18 -4.16699 36.333 -12.5 55s-23.166 38.667 -44.499 60s-50.166 44.5 -86.499 69.5
s-82.5 53.167 -138.5 84.5l-42.5 23c-13 7.33301 -24.167 15 -33.5 23s-16.5 16.667 -21.5 26s-7.5 20 -7.5 32v72c0 16.667 3 34 9 52s16.667 36.5 32 55.5s35.666 38.833 60.999 59.5s57.666 42 96.999 64c34.667 20 72.667 40.667 114 62l135.5 67l159 75l183.5 85
l-29 -127l-288 -134.5l-199 -96.5c-53.333 -26.667 -95.333 -48.5 -126 -65.5s-53.834 -31.167 -69.501 -42.5s-25.667 -20.333 -30 -27s-6.5 -13 -6.5 -19c0 -11.333 5.5 -21 16.5 -29s30.833 -18.667 59.5 -32l162 -79.5c45.333 -23 86 -45.833 122 -68.5
s69.167 -46.167 99.5 -70.5s61.5 -52.833 93.5 -85.5l104.5 -98c29 -26.667 54.167 -48.334 75.5 -65.001s39.666 -28.667 54.999 -36s29.333 -11 42 -11h24v-152c-19.333 0 -37.666 2 -54.999 6s-35.166 11.667 -53.499 23s-38.666 27.166 -60.999 47.499
s-48.166 46.833 -77.499 79.5c-13.333 15.333 -27.833 31.166 -43.5 47.499l-47.5 48l-47.5 45l-44.5 39.5l-49 37l10 -35c4 -19.333 6 -41.333 6 -66c0 -55.333 -11.333 -100.666 -34 -135.999s-53.167 -63 -91.5 -83s-83.166 -33.833 -134.499 -41.5
s-105.666 -11.5 -162.999 -11.5h-23zM808.996 1358l-733 -359l22 103l733 358zM459.996 1390l-90 90l90 90l90 -90zM250.996 1384l-90 90l90 90l90 -90zM352.996 1550l-90 90l90 90l90 -90z" />
    <glyph glyph-name="uni06B4.fina" unicode="&#x6b4;" horiz-adv-x="1720" 
d="M1585 1112l-287.995 -134.493l-199 -96.5c-53.333 -26.667 -95.333 -48.5 -126 -65.5s-53.834 -31.167 -69.501 -42.5s-25.667 -20.333 -30 -27s-6.5 -13 -6.5 -19c0 -11.333 5.66699 -21 17 -29s31 -18.667 59 -32l112.5 -55l92.5 -47.5
c28 -15 53.833 -29.833 77.5 -44.5s46.334 -30 68.001 -46s42.667 -33 63 -51s41.5 -38 63.5 -60c39.333 -39.333 73.666 -72.333 102.999 -99s55 -48.334 77 -65.001s40.667 -28.5 56 -35.5s28.666 -10.5 39.999 -10.5h25v-152c-18.667 0 -36.667 2 -54 6
s-35.5 11.667 -54.5 23s-39.833 27.166 -62.5 47.499s-48.334 46.833 -77.001 79.5l-43 47.5l-47 48l-47.5 45l-44.5 39.5l-49 37c4.66699 -6.66699 8 -18.334 10 -35.001c4 -19.333 6 -41.333 6 -66c0 -35.333 -10.333 -68 -31 -98s-48.834 -57.333 -84.501 -82
s-77.167 -46.5 -124.5 -65.5s-97.833 -35 -151.5 -48s-108.834 -22.833 -165.501 -29.5s-112 -10 -166 -10c-62 0 -116 4.16699 -162 12.5s-85.667 19.5 -119 33.5s-60.833 30.167 -82.5 48.5s-38.834 37.166 -51.501 56.499s-21.5 38.666 -26.5 57.999s-7.5 37 -7.5 53
c0 26.667 5 54 15 82s21.667 53.5 35 76.5s26.5 41.833 39.5 56.5s22.167 22 27.5 22c11.333 0 17 -4.66699 17 -14c0 -3.33301 -2.5 -9.5 -7.5 -18.5s-10.333 -20.5 -16 -34.5s-11 -29.833 -16 -47.5s-7.5 -36.167 -7.5 -55.5c0 -22 8 -44.333 24 -67
s40.833 -43.334 74.5 -62.001s76.167 -33.834 127.5 -45.501s112.333 -17.5 183 -17.5c49.333 0 99.166 3.33301 149.499 10s98.833 15.334 145.5 26.001s90.334 23 131.001 37s76 28.333 106 43s53.667 29.167 71 43.5s26 27.166 26 38.499
c0 18 -4.16699 36.167 -12.5 54.5s-23.166 38.166 -44.499 59.499s-50.333 44.5 -87 69.5s-83 53.5 -139 85.5l-42 22.5c-12.667 7 -23.667 14.5 -33 22.5s-16.5 16.667 -21.5 26s-7.5 20.333 -7.5 33v72c0 16 3 33 9 51s16.5 36.833 31.5 56.5s35.167 39.834 60.5 60.501
s57.666 41.667 96.999 63c70.667 40 154.334 83 251.001 129l341 160zM1619 1358.01l-733 -359l23 103l733 358zM1197 1351.01l-90 90l90 90l90 -90zM988.005 1345.01l-90 90l90 90l90 -90zM1090 1511.01l-90 90l90 90l90 -90z" />
    <glyph glyph-name="uni06B5.init" unicode="&#x6b5;" horiz-adv-x="330" 
d="M287 1022c0 -23.333 -10.999 -61.001 -32.999 -113.001c-6 -13.333 -13 -20 -21 -20s-15.333 3.33301 -22 10c0 -3.33301 1.5 -28.666 4.5 -75.999s8.16699 -117.666 15.5 -210.999c7.33301 -92.667 13 -169 17 -229s6 -104.333 6 -133
c0 -54.667 -5.66699 -99.5 -17 -134.5s-28.333 -61.167 -51 -78.5c-15.333 -12.667 -34.5 -22 -57.5 -28s-49.5 -9 -79.5 -9h-49c-46.667 0 -70 25.333 -70 76s23.333 76 70 76h84c21.333 0 40.666 1 57.999 3s32 5.66699 44 11c-6 43.333 -12.167 101.5 -18.5 174.5
s-13.166 161.5 -20.499 265.5c-5.33301 90.667 -9.33301 164.5 -12 221.5s-4 97.833 -4 122.5c-9.33301 11.333 -16.5 21.666 -21.5 30.999s-7.5 18.333 -7.5 27c0 10.667 11 42.667 33 96c25.333 56 43.666 84 54.999 84c14 0 21 -22.667 21 -68c0 -34 11 -55.667 33 -65
c28.667 -13.333 43 -24.333 43 -33zM324.001 1555c-10 -8 -21.499 -20.832 -34.499 -38.499s-26 -38.5 -39 -62.5s-25.167 -50.167 -36.5 -78.5s-20.666 -57.5 -27.999 -87.5h-28l-1 3c-8 29.333 -17.833 58.166 -29.5 86.499s-23.834 54.333 -36.501 78
s-25.334 44.167 -38.001 61.5s-23.667 30 -33 38l88 2c14 -21.333 26.167 -47.333 36.5 -78s19.166 -62.667 26.499 -96c7.33301 33.333 16.333 65.333 27 96s23.334 56.667 38.001 78z" />
    <glyph glyph-name="uni06B5.medi" unicode="&#x6b5;" horiz-adv-x="455" 
d="M410 0c-48.667 0 -88.501 20.8311 -119.501 62.498s-54.167 104.167 -69.5 187.5c-37.333 -158.667 -111 -242 -221 -250c-46.667 0 -70 25.333 -70 76s23.333 76 70 76c40 1.33301 73.5 7.33301 100.5 18s48.167 26.334 63.5 47.001c1.33301 9.33301 2.33301 21 3 35
s1 29.667 1 47c0 41.333 -1.33301 96.5 -4 165.5s-6.66699 152.5 -12 250.5c-7.33301 108 -12.666 192 -15.999 252s-5 96 -5 108c36.667 75.333 58 113 64 113s14 -83.333 24 -250c9.33301 -111.333 18 -210.166 26 -296.499s15.667 -161.5 23 -225.5
c22.667 -176 76 -264 160 -264h27v-152h-45zM301.999 1532c-10 -8 -21.499 -20.832 -34.499 -38.499s-26 -38.5 -39 -62.5s-25.167 -50.167 -36.5 -78.5s-20.666 -57.5 -27.999 -87.5h-28l-1 3c-8 29.333 -17.833 58.166 -29.5 86.499s-23.834 54.333 -36.501 78
s-25.334 44.167 -38.001 61.5s-23.667 30 -33 38l88 2c14 -21.333 26.167 -47.333 36.5 -78s19.166 -62.667 26.499 -96c7.33301 33.333 16.333 65.333 27 96s23.334 56.667 38.001 78z" />
    <glyph glyph-name="uni06B5.fina" unicode="&#x6b5;" horiz-adv-x="1040" 
d="M1038 0c-70.667 0 -133.334 38.999 -188.001 116.999c0 -64 -1.33301 -119.333 -4 -166s-6.66699 -85.667 -12 -117c-5.33301 -22.667 -12.166 -44.334 -20.499 -65.001s-18.833 -40.667 -31.5 -60c-34.667 -56 -91.334 -99.667 -170.001 -131
c-68 -28.667 -143.667 -43 -227 -43c-50 0 -94.667 6.66699 -134 20s-74 33.333 -104 60c-56 52 -84 115.333 -84 190c0 78.667 19.333 156.667 58 234c33.333 68 59.333 102 78 102c10.667 0 16 -5.33301 16 -16c0 -1.33301 -3.16699 -8.66602 -9.5 -21.999
s-16.166 -32.666 -29.499 -57.999c-12 -25.333 -21.167 -50.333 -27.5 -75s-9.5 -49.334 -9.5 -74.001c0 -59.333 24 -110 72 -152c28 -23.333 60.5 -41.166 97.5 -53.499s79.5 -18.5 127.5 -18.5c60.667 0 127 13 199 39c76 29.333 121 60.666 135 93.999
c-1.33301 41.333 -4.5 115 -9.5 221s-12.833 246 -23.5 420c-20 338 -30 525.333 -30 562c42.667 107.333 67 161 73 161c2.66699 0 7.66699 -40 15 -120c5.33301 -85.333 12.5 -180.666 21.5 -285.999s20.167 -222.333 33.5 -351c5.33301 -45.333 11 -83.333 17 -114
s13.333 -53.667 22 -69c13.333 -25.333 32.5 -44.5 57.5 -57.5s55.5 -19.5 91.5 -19.5h25v-152h-25zM822 1551c-10 -8 -21.499 -20.832 -34.499 -38.499s-26 -38.5 -39 -62.5s-25.167 -50.167 -36.5 -78.5s-20.666 -57.5 -27.999 -87.5h-28l-1 3
c-8 29.333 -17.833 58.166 -29.5 86.499s-23.834 54.333 -36.501 78s-25.334 44.167 -38.001 61.5s-23.667 30 -33 38l88 2c14 -21.333 26.167 -47.333 36.5 -78s19.166 -62.667 26.499 -96c7.33301 33.333 16.333 65.333 27 96s23.334 56.667 38.001 78z" />
    <glyph glyph-name="uni06B6.init" unicode="&#x6b6;" horiz-adv-x="330" 
d="M287 1022c0 -23.333 -10.999 -61.001 -32.999 -113.001c-6 -13.333 -13 -20 -21 -20s-15.333 3.33301 -22 10c0 -3.33301 1.5 -28.666 4.5 -75.999s8.16699 -117.666 15.5 -210.999c7.33301 -92.667 13 -169 17 -229s6 -104.333 6 -133
c0 -54.667 -5.66699 -99.5 -17 -134.5s-28.333 -61.167 -51 -78.5c-15.333 -12.667 -34.5 -22 -57.5 -28s-49.5 -9 -79.5 -9h-49c-46.667 0 -70 25.333 -70 76s23.333 76 70 76h84c21.333 0 40.666 1 57.999 3s32 5.66699 44 11c-6 43.333 -12.167 101.5 -18.5 174.5
s-13.166 161.5 -20.499 265.5c-5.33301 90.667 -9.33301 164.5 -12 221.5s-4 97.833 -4 122.5c-9.33301 11.333 -16.5 21.666 -21.5 30.999s-7.5 18.333 -7.5 27c0 10.667 11 42.667 33 96c25.333 56 43.666 84 54.999 84c14 0 21 -22.667 21 -68c0 -34 11 -55.667 33 -65
c28.667 -13.333 43 -24.333 43 -33zM149.001 1290l-104 104l104 104l104 -104z" />
    <glyph glyph-name="uni06B6.medi" unicode="&#x6b6;" horiz-adv-x="455" 
d="M410 0c-48.667 0 -88.501 20.8311 -119.501 62.498s-54.167 104.167 -69.5 187.5c-37.333 -158.667 -111 -242 -221 -250c-46.667 0 -70 25.333 -70 76s23.333 76 70 76c40 1.33301 73.5 7.33301 100.5 18s48.167 26.334 63.5 47.001c1.33301 9.33301 2.33301 21 3 35
s1 29.667 1 47c0 41.333 -1.33301 96.5 -4 165.5s-6.66699 152.5 -12 250.5c-7.33301 108 -12.666 192 -15.999 252s-5 96 -5 108c36.667 75.333 58 113 64 113s14 -83.333 24 -250c9.33301 -111.333 18 -210.166 26 -296.499s15.667 -161.5 23 -225.5
c22.667 -176 76 -264 160 -264h27v-152h-45zM145.999 1280l-104 104l104 104l104 -104z" />
    <glyph glyph-name="uni06B6.fina" unicode="&#x6b6;" horiz-adv-x="1056" 
d="M1038 0c-70.667 0 -133.334 38.999 -188.001 116.999c0 -64 -1.33301 -119.333 -4 -166s-6.66699 -85.667 -12 -117c-5.33301 -22.667 -12.166 -44.334 -20.499 -65.001s-18.833 -40.667 -31.5 -60c-34.667 -56 -91.334 -99.667 -170.001 -131
c-68 -28.667 -143.667 -43 -227 -43c-50 0 -94.667 6.66699 -134 20s-74 33.333 -104 60c-56 52 -84 115.333 -84 190c0 78.667 19.333 156.667 58 234c33.333 68 59.333 102 78 102c10.667 0 16 -5.33301 16 -16c0 -1.33301 -3.16699 -8.66602 -9.5 -21.999
s-16.166 -32.666 -29.499 -57.999c-12 -25.333 -21.167 -50.333 -27.5 -75s-9.5 -49.334 -9.5 -74.001c0 -59.333 24 -110 72 -152c28 -23.333 60.5 -41.166 97.5 -53.499s79.5 -18.5 127.5 -18.5c60.667 0 127 13 199 39c76 29.333 121 60.666 135 93.999
c-1.33301 41.333 -4.5 115 -9.5 221s-12.833 246 -23.5 420c-20 338 -30 525.333 -30 562c42.667 107.333 67 161 73 161c2.66699 0 7.66699 -40 15 -120c5.33301 -85.333 12.5 -180.666 21.5 -285.999s20.167 -222.333 33.5 -351c5.33301 -45.333 11 -83.333 17 -114
s13.333 -53.667 22 -69c13.333 -25.333 32.5 -44.5 57.5 -57.5s55.5 -19.5 91.5 -19.5h25v-152h-25zM695 1285l-104 104l104 104l104 -104z" />
    <glyph glyph-name="uni06B7.init" unicode="&#x6b7;" horiz-adv-x="330" 
d="M287 1022c0 -23.333 -10.999 -61.001 -32.999 -113.001c-6 -13.333 -13 -20 -21 -20s-15.333 3.33301 -22 10c0 -3.33301 1.5 -28.666 4.5 -75.999s8.16699 -117.666 15.5 -210.999c7.33301 -92.667 13 -169 17 -229s6 -104.333 6 -133
c0 -54.667 -5.66699 -99.5 -17 -134.5s-28.333 -61.167 -51 -78.5c-15.333 -12.667 -34.5 -22 -57.5 -28s-49.5 -9 -79.5 -9h-49c-46.667 0 -70 25.333 -70 76s23.333 76 70 76h84c21.333 0 40.666 1 57.999 3s32 5.66699 44 11c-6 43.333 -12.167 101.5 -18.5 174.5
s-13.166 161.5 -20.499 265.5c-5.33301 90.667 -9.33301 164.5 -12 221.5s-4 97.833 -4 122.5c-9.33301 11.333 -16.5 21.666 -21.5 30.999s-7.5 18.333 -7.5 27c0 10.667 11 42.667 33 96c25.333 56 43.666 84 54.999 84c14 0 21 -22.667 21 -68c0 -34 11 -55.667 33 -65
c28.667 -13.333 43 -24.333 43 -33zM244.001 1276l-90 90l90 90l90 -90zM35.001 1270l-90 90l90 90l90 -90zM137.001 1436l-90 90l90 90l90 -90z" />
    <glyph glyph-name="uni06B7.medi" unicode="&#x6b7;" horiz-adv-x="455" 
d="M410 0c-48.667 0 -88.501 20.8311 -119.501 62.498s-54.167 104.167 -69.5 187.5c-37.333 -158.667 -111 -242 -221 -250c-46.667 0 -70 25.333 -70 76s23.333 76 70 76c40 1.33301 73.5 7.33301 100.5 18s48.167 26.334 63.5 47.001c1.33301 9.33301 2.33301 21 3 35
s1 29.667 1 47c0 41.333 -1.33301 96.5 -4 165.5s-6.66699 152.5 -12 250.5c-7.33301 108 -12.666 192 -15.999 252s-5 96 -5 108c36.667 75.333 58 113 64 113s14 -83.333 24 -250c9.33301 -111.333 18 -210.166 26 -296.499s15.667 -161.5 23 -225.5
c22.667 -176 76 -264 160 -264h27v-152h-45zM260.999 1298l-90 90l90 90l90 -90zM51.999 1292l-90 90l90 90l90 -90zM153.999 1458l-90 90l90 90l90 -90z" />
    <glyph glyph-name="uni06B7.fina" unicode="&#x6b7;" horiz-adv-x="1050" 
d="M1038 0c-70.667 0 -133.334 38.999 -188.001 116.999c0 -64 -1.33301 -119.333 -4 -166s-6.66699 -85.667 -12 -117c-5.33301 -22.667 -12.166 -44.334 -20.499 -65.001s-18.833 -40.667 -31.5 -60c-34.667 -56 -91.334 -99.667 -170.001 -131
c-68 -28.667 -143.667 -43 -227 -43c-50 0 -94.667 6.66699 -134 20s-74 33.333 -104 60c-56 52 -84 115.333 -84 190c0 78.667 19.333 156.667 58 234c33.333 68 59.333 102 78 102c10.667 0 16 -5.33301 16 -16c0 -1.33301 -3.16699 -8.66602 -9.5 -21.999
s-16.166 -32.666 -29.499 -57.999c-12 -25.333 -21.167 -50.333 -27.5 -75s-9.5 -49.334 -9.5 -74.001c0 -59.333 24 -110 72 -152c28 -23.333 60.5 -41.166 97.5 -53.499s79.5 -18.5 127.5 -18.5c60.667 0 127 13 199 39c76 29.333 121 60.666 135 93.999
c-1.33301 41.333 -4.5 115 -9.5 221s-12.833 246 -23.5 420c-20 338 -30 525.333 -30 562c42.667 107.333 67 161 73 161c2.66699 0 7.66699 -40 15 -120c5.33301 -85.333 12.5 -180.666 21.5 -285.999s20.167 -222.333 33.5 -351c5.33301 -45.333 11 -83.333 17 -114
s13.333 -53.667 22 -69c13.333 -25.333 32.5 -44.5 57.5 -57.5s55.5 -19.5 91.5 -19.5h25v-152h-25zM760 1278l-90 90l90 90l90 -90zM551 1272l-90 90l90 90l90 -90zM653 1438l-90 90l90 90l90 -90z" />
    <glyph glyph-name="uni06B8.init" unicode="&#x6b8;" horiz-adv-x="330" 
d="M287 1022c0 -23.333 -10.999 -61.001 -32.999 -113.001c-6 -13.333 -13 -20 -21 -20s-15.333 3.33301 -22 10c0 -3.33301 1.5 -28.666 4.5 -75.999s8.16699 -117.666 15.5 -210.999c7.33301 -92.667 13 -169 17 -229s6 -104.333 6 -133
c0 -54.667 -5.66699 -99.5 -17 -134.5s-28.333 -61.167 -51 -78.5c-15.333 -12.667 -34.5 -22 -57.5 -28s-49.5 -9 -79.5 -9h-49c-46.667 0 -70 25.333 -70 76s23.333 76 70 76h84c21.333 0 40.666 1 57.999 3s32 5.66699 44 11c-6 43.333 -12.167 101.5 -18.5 174.5
s-13.166 161.5 -20.499 265.5c-5.33301 90.667 -9.33301 164.5 -12 221.5s-4 97.833 -4 122.5c-9.33301 11.333 -16.5 21.666 -21.5 30.999s-7.5 18.333 -7.5 27c0 10.667 11 42.667 33 96c25.333 56 43.666 84 54.999 84c14 0 21 -22.667 21 -68c0 -34 11 -55.667 33 -65
c28.667 -13.333 43 -24.333 43 -33zM27.001 -165.001l90 -90l-90 -90l-90 90zM236.001 -159.001l90 -90l-90 -90l-90 90zM134.001 -325.001l90 -90l-90 -90l-90 90z" />
    <glyph glyph-name="uni06B8.medi" unicode="&#x6b8;" horiz-adv-x="455" 
d="M410 0c-48.667 0 -88.501 20.8311 -119.501 62.498s-54.167 104.167 -69.5 187.5c-37.333 -158.667 -111 -242 -221 -250c-46.667 0 -70 25.333 -70 76s23.333 76 70 76c40 1.33301 73.5 7.33301 100.5 18s48.167 26.334 63.5 47.001c1.33301 9.33301 2.33301 21 3 35
s1 29.667 1 47c0 41.333 -1.33301 96.5 -4 165.5s-6.66699 152.5 -12 250.5c-7.33301 108 -12.666 192 -15.999 252s-5 96 -5 108c36.667 75.333 58 113 64 113s14 -83.333 24 -250c9.33301 -111.333 18 -210.166 26 -296.499s15.667 -161.5 23 -225.5
c22.667 -176 76 -264 160 -264h27v-152h-45zM99.999 -160.002l90 -90l-90 -90l-90 90zM308.999 -154.002l90 -90l-90 -90l-90 90zM206.999 -320.002l90 -90l-90 -90l-90 90z" />
    <glyph glyph-name="uni06B8.fina" unicode="&#x6b8;" horiz-adv-x="1053" 
d="M1038 0c-70.667 0 -133.334 38.999 -188.001 116.999c0 -64 -1.33301 -119.333 -4 -166s-6.66699 -85.667 -12 -117c-5.33301 -22.667 -12.166 -44.334 -20.499 -65.001s-18.833 -40.667 -31.5 -60c-34.667 -56 -91.334 -99.667 -170.001 -131
c-68 -28.667 -143.667 -43 -227 -43c-50 0 -94.667 6.66699 -134 20s-74 33.333 -104 60c-56 52 -84 115.333 -84 190c0 78.667 19.333 156.667 58 234c33.333 68 59.333 102 78 102c10.667 0 16 -5.33301 16 -16c0 -1.33301 -3.16699 -8.66602 -9.5 -21.999
s-16.166 -32.666 -29.499 -57.999c-12 -25.333 -21.167 -50.333 -27.5 -75s-9.5 -49.334 -9.5 -74.001c0 -59.333 24 -110 72 -152c28 -23.333 60.5 -41.166 97.5 -53.499s79.5 -18.5 127.5 -18.5c60.667 0 127 13 199 39c76 29.333 121 60.666 135 93.999
c-1.33301 41.333 -4.5 115 -9.5 221s-12.833 246 -23.5 420c-20 338 -30 525.333 -30 562c42.667 107.333 67 161 73 161c2.66699 0 7.66699 -40 15 -120c5.33301 -85.333 12.5 -180.666 21.5 -285.999s20.167 -222.333 33.5 -351c5.33301 -45.333 11 -83.333 17 -114
s13.333 -53.667 22 -69c13.333 -25.333 32.5 -44.5 57.5 -57.5s55.5 -19.5 91.5 -19.5h25v-152h-25zM307 -563.001l90 -90l-90 -90l-90 90zM516 -557.001l90 -90l-90 -90l-90 90zM414 -723.001l90 -90l-90 -90l-90 90z" />
    <glyph glyph-name="uni06B9.init" unicode="&#x6b9;" horiz-adv-x="318" 
d="M276 260c0 -96 -20.332 -164.332 -60.999 -204.999c-13.333 -13.333 -45.333 -26.333 -96 -39c-24.667 -5.33301 -46.834 -9.33301 -66.501 -12s-37.167 -4 -52.5 -4c-46.667 0 -70 25.333 -70 76s23.333 76 70 76h37c86 0 144 10.667 174 32
c0 41.333 -22 88.666 -66 141.999l45 104c3.33301 6.66699 7 10 11 10s9.33301 -5.33301 16 -16c39.333 -59.333 59 -114 59 -164zM64.001 530.001l-104 104l104 104l104 -104zM101.001 -370.999l-104 104l104 104l104 -104z" />
    <glyph glyph-name="uni06B9.medi" unicode="&#x6b9;" horiz-adv-x="440" 
d="M395 0c-33.333 0 -68.666 11.667 -105.999 35c-44 25.333 -71.333 57.333 -82 96c-40.667 -83.333 -109.667 -127 -207 -131c-46.667 -0 -70 25.333 -70 76s23.333 76 70 76h45c83.333 0 144.666 44.333 183.999 133c13.333 27.333 27 41 41 41c11.333 0 17 -5 17 -15
c0 -1.33301 -1.83301 -8.5 -5.5 -21.5s-5.5 -26.167 -5.5 -39.5c0 -65.333 56 -98 168 -98v-152h-49zM216 453l-104 104l104 104l104 -104zM206 -362l-104 104l104 104l104 -104z" />
    <glyph glyph-name="uni06B9.fina" unicode="&#x6b9;" horiz-adv-x="1027" 
d="M495 339l-104 104l104 104l104 -104zM463 -788l-104 104l104 104l104 -104zM997 0c-29.333 0 -54.998 5.99902 -76.998 17.999c0 -100 -20.667 -183.667 -62 -251c-13.333 -21.333 -31.5 -42.666 -54.5 -63.999s-50.5 -42.333 -82.5 -63c-92 -56 -194.333 -84 -307 -84
c-131.333 0 -226.333 34 -285 102c-44 48 -66 105.333 -66 172c0 72 17.333 143.667 52 215c28 61.333 49.667 92 65 92c14 0 21 -6.66699 21 -20c-2.66699 -5.33301 -5.33398 -11.666 -8.00098 -18.999c-2.66699 -6 -5.83398 -13.667 -9.50098 -23s-8.16699 -20 -13.5 -32
c-20.667 -48.667 -31 -90.334 -31 -125.001c0 -144.667 104.667 -217 314 -217c183.333 0 317 47 401 141c0 114 -26.667 218.667 -80 314l53 127c7.33301 0 32.666 -33 75.999 -99c14.667 -21.333 39.334 -32 74.001 -32h78v-152h-58z" />
    <glyph glyph-name="uni06BC.init" unicode="&#x6bc;" horiz-adv-x="318" 
d="M276 260c0 -96 -20.332 -164.332 -60.999 -204.999c-13.333 -13.333 -45.333 -26.333 -96 -39c-24.667 -5.33301 -46.834 -9.33301 -66.501 -12s-37.167 -4 -52.5 -4c-46.667 0 -70 25.333 -70 76s23.333 76 70 76h37c86 0 144 10.667 174 32
c0 41.333 -22 88.666 -66 141.999l45 104c3.33301 6.66699 7 10 11 10s9.33301 -5.33301 16 -16c39.333 -59.333 59 -114 59 -164zM45.001 490.001l-104 104l104 104l104 -104zM223.001 -39.999c0 -22 -3.66992 -43.168 -11.0029 -63.501s-17.666 -38.5 -30.999 -54.5
s-29.166 -28.667 -47.499 -38s-38.166 -14 -59.499 -14c-29.333 0 -53.5 9.5 -72.5 28.5s-28.5 45.167 -28.5 78.5c0 23.333 3.66699 45.5 11 66.5s19.333 41.833 36 62.5c34 42 71 63 111 63c30 0 52.833 -12.167 68.5 -36.5s23.5 -55.166 23.5 -92.499zM171.998 -62
c0 10 -1.66699 19.5 -5 28.5s-7.66602 17.167 -12.999 24.5s-11.833 13.166 -19.5 17.499s-15.834 6.5 -24.501 6.5c-10 0 -20 -2.5 -30 -7.5s-19 -11.667 -27 -20s-14.5 -17.833 -19.5 -28.5s-7.5 -22 -7.5 -34c0 -17.333 6.16699 -31.166 18.5 -41.499
s26.166 -15.5 41.499 -15.5c12 0 23.167 2.16699 33.5 6.5s19.333 9.83301 27 16.5s13.834 14.167 18.501 22.5s7 16.5 7 24.5z" />
    <glyph glyph-name="uni06BC.medi" unicode="&#x6bc;" horiz-adv-x="440" 
d="M395 0c-33.333 0 -68.666 11.667 -105.999 35c-44 25.333 -71.333 57.333 -82 96c-40.667 -83.333 -109.667 -127 -207 -131c-46.667 -0 -70 25.333 -70 76s23.333 76 70 76h45c83.333 0 144.666 44.333 183.999 133c13.333 27.333 27 41 41 41c11.333 0 17 -5 17 -15
c0 -1.33301 -1.83301 -8.5 -5.5 -21.5s-5.5 -26.167 -5.5 -39.5c0 -65.333 56 -98 168 -98v-152h-49zM184 464l-104 104l104 104l104 -104zM213 -40c0 -22 -3.66992 -43.168 -11.0029 -63.501s-17.666 -38.5 -30.999 -54.5s-29.166 -28.667 -47.499 -38
s-38.166 -14 -59.499 -14c-29.333 0 -53.5 9.5 -72.5 28.5s-28.5 45.167 -28.5 78.5c0 23.333 3.66699 45.5 11 66.5s19.333 41.833 36 62.5c34 42 71 63 111 63c30 0 52.833 -12.167 68.5 -36.5s23.5 -55.166 23.5 -92.499zM161.997 -62.001c0 10 -1.66699 19.5 -5 28.5
s-7.66602 17.167 -12.999 24.5s-11.833 13.166 -19.5 17.499s-15.834 6.5 -24.501 6.5c-10 0 -20 -2.5 -30 -7.5s-19 -11.667 -27 -20s-14.5 -17.833 -19.5 -28.5s-7.5 -22 -7.5 -34c0 -17.333 6.16699 -31.166 18.5 -41.499s26.166 -15.5 41.499 -15.5
c12 0 23.167 2.16699 33.5 6.5s19.333 9.83301 27 16.5s13.834 14.167 18.501 22.5s7 16.5 7 24.5z" />
    <glyph glyph-name="uni06BC.fina" unicode="&#x6bc;" horiz-adv-x="1027" 
d="M491 342l-104 104l104 104l104 -104zM997 0c-29.333 0 -54.998 5.99902 -76.998 17.999c0 -100 -20.667 -183.667 -62 -251c-13.333 -21.333 -31.5 -42.666 -54.5 -63.999s-50.5 -42.333 -82.5 -63c-92 -56 -194.333 -84 -307 -84c-131.333 0 -226.333 34 -285 102
c-44 48 -66 105.333 -66 172c0 72 17.333 143.667 52 215c28 61.333 49.667 92 65 92c14 0 21 -6.66699 21 -20c-2.66699 -5.33301 -5.33398 -11.666 -8.00098 -18.999c-2.66699 -6 -5.83398 -13.667 -9.50098 -23s-8.16699 -20 -13.5 -32
c-20.667 -48.667 -31 -90.334 -31 -125.001c0 -144.667 104.667 -217 314 -217c183.333 0 317 47 401 141c0 114 -26.667 218.667 -80 314l53 127c7.33301 0 32.666 -33 75.999 -99c14.667 -21.333 39.334 -32 74.001 -32h78v-152h-58zM578.002 -507.001
c0 -22 -3.66992 -43.168 -11.0029 -63.501s-17.666 -38.5 -30.999 -54.5s-29.166 -28.667 -47.499 -38s-38.166 -14 -59.499 -14c-29.333 0 -53.5 9.5 -72.5 28.5s-28.5 45.167 -28.5 78.5c0 23.333 3.66699 45.5 11 66.5s19.333 41.833 36 62.5c34 42 71 63 111 63
c30 0 52.833 -12.167 68.5 -36.5s23.5 -55.166 23.5 -92.499zM526.999 -529.002c0 10 -1.66699 19.5 -5 28.5s-7.66602 17.167 -12.999 24.5s-11.833 13.166 -19.5 17.499s-15.834 6.5 -24.501 6.5c-10 0 -20 -2.5 -30 -7.5s-19 -11.667 -27 -20s-14.5 -17.833 -19.5 -28.5
s-7.5 -22 -7.5 -34c0 -17.333 6.16699 -31.166 18.5 -41.499s26.166 -15.5 41.499 -15.5c12 0 23.167 2.16699 33.5 6.5s19.333 9.83301 27 16.5s13.834 14.167 18.501 22.5s7 16.5 7 24.5z" />
    <glyph glyph-name="uni06BD.fina" unicode="&#x6bd;" horiz-adv-x="1027" 
d="M997 0c-29.333 0 -54.998 5.99902 -76.998 17.999c0 -100 -20.667 -183.667 -62 -251c-13.333 -21.333 -31.5 -42.666 -54.5 -63.999s-50.5 -42.333 -82.5 -63c-92 -56 -194.333 -84 -307 -84c-131.333 0 -226.333 34 -285 102c-44 48 -66 105.333 -66 172
c0 72 17.333 143.667 52 215c28 61.333 49.667 92 65 92c14 0 21 -6.66699 21 -20c-2.66699 -5.33301 -5.33398 -11.666 -8.00098 -18.999c-2.66699 -6 -5.83398 -13.667 -9.50098 -23s-8.16699 -20 -13.5 -32c-20.667 -48.667 -31 -90.334 -31 -125.001
c0 -144.667 104.667 -217 314 -217c183.333 0 317 47 401 141c0 114 -26.667 218.667 -80 314l53 127c7.33301 0 32.666 -33 75.999 -99c14.667 -21.333 39.334 -32 74.001 -32h78v-152h-58zM610.002 312.999l-90 90l90 90l90 -90zM401.002 306.999l-90 90l90 90l90 -90z
M503.002 472.999l-90 90l90 90l90 -90z" />
    <glyph glyph-name="uni06BF.init" unicode="&#x6bf;" horiz-adv-x="996" 
d="M877 141c-2 0 -6.83203 0.169922 -14.499 0.50293s-16.334 0.833008 -26.001 1.5s-19.834 1.16699 -30.501 1.5s-20 0.5 -28 0.5c-136 0 -273 -23.667 -411 -71c-71.333 -24.667 -137.333 -43.167 -198 -55.5s-117 -18.5 -169 -18.5c-46.667 0 -70 25.333 -70 76
s23.333 76 70 76c93.333 0 180.5 5.66699 261.5 17s156.833 28.666 227.5 51.999c-120 70 -201.667 105 -245 105c-38 0 -69.333 -10.333 -94 -31c-25.333 -19.333 -40.666 -29 -45.999 -29c-8 0 -12 7 -12 21c0 23.333 13.667 54.666 41 93.999
c19.333 25.333 41.5 44.666 66.5 57.999s53.5 20 85.5 20c38.667 0 119 -29.333 241 -88c62 -30 121 -52.167 177 -66.5s109 -21.5 159 -21.5h90zM293.001 -139.997l90 -90l-90 -90l-90 90zM502.001 -133.997l90 -90l-90 -90l-90 90zM400.001 -299.997l90 -90l-90 -90
l-90 90zM307.001 589.003l-104 104l104 104l104 -104z" />
    <glyph glyph-name="uni06BF.medi" unicode="&#x6bf;" horiz-adv-x="1063" 
d="M871 0c-51.333 0 -91.502 13.001 -120.502 39.001s-43.5 66.333 -43.5 121c0 7.33301 0.5 15.833 1.5 25.5s2.5 20.167 4.5 31.5c-60.667 -9.33301 -125.167 -26 -193.5 -50s-141.166 -55 -218.499 -93c-100.667 -49.333 -201 -74 -301 -74c-46.667 0 -70 25.333 -70 76
s23.333 76 70 76c189.333 0 349 42.333 479 127c-66 25.333 -120 44.166 -162 56.499s-72.667 18.5 -92 18.5c-22 0 -43.667 -8.66699 -65 -26c-22.667 -16.667 -37 -25 -43 -25c-11.333 0 -17 7 -17 21c0 21.333 14.333 52 43 92c41.333 53.333 91.333 80 150 80
c37.333 0 99.333 -18.667 186 -56c58 -24.667 115.833 -43 173.5 -55s115.834 -18 174.501 -18h88l-53 -131l-112 -13v-16c0 -21.333 11 -35.833 33 -43.5s52 -11.5 90 -11.5h190v-152h-192zM282.998 -129.999l90 -90l-90 -90l-90 90zM491.998 -123.999l90 -90l-90 -90
l-90 90zM389.998 -289.999l90 -90l-90 -90l-90 90zM358.998 648.001l-104 104l104 104l104 -104z" />
    <glyph glyph-name="uni06BF.fina" unicode="&#x6bf;" horiz-adv-x="1063" 
d="M1153 -666c0 -11.333 -20.3369 -21.999 -61.0039 -31.999c-19.333 -4 -90.333 -26.667 -213 -68c-36 -11.333 -74.167 -20 -114.5 -26s-83.5 -9 -129.5 -9c-87.333 0 -164.166 7 -230.499 21s-122.5 35 -168.5 63c-118 72.667 -177 195 -177 367
c0 132 31.667 249.333 95 352c26.667 44 60.334 87.667 101.001 131s89.334 87 146.001 131c-26 10 -64.667 15 -116 15c-23.333 0 -44.5 -3 -63.5 -9s-36.167 -14.667 -51.5 -26c-8 -6 -19.667 -20.333 -35 -43c-9.33301 -18 -19 -27 -29 -27
c-9.33301 0 -14 8.33301 -14 25c0 44 22 91 66 141c47.333 53.333 112 80 194 80c21.333 0 70 -4 146 -12c38 -3.33301 71.333 -6 100 -8s52.667 -3 72 -3c53.333 0 101.833 1.66699 145.5 5s82.5 8.66602 116.5 15.999l-53 -133l-107 -13
c-6.66699 -11.333 -10 -34.333 -10 -69c0 -20.667 8.16699 -34.334 24.5 -41.001s41.5 -10 75.5 -10h201v-152h-203c-51.333 0 -89.666 13 -114.999 39s-38 66.333 -38 121c0 34.667 6.66699 70.667 20 108c-177.333 -22 -320 -85.333 -428 -190
c-99.333 -97.333 -149 -214 -149 -350c0 -149.333 57.333 -254 172 -314c103.333 -55.333 266.333 -79.666 489 -72.999l291 6c34 2 51 -2.33301 51 -13zM531.996 -100.999l90 -90l-90 -90l-90 90zM740.996 -94.999l90 -90l-90 -90l-90 90zM638.996 -260.999l90 -90l-90 -90
l-90 90zM385.996 580.001l-104 104l104 104l104 -104z" />
    <glyph glyph-name="uni06C4.fina" unicode="&#x6c4;" horiz-adv-x="721" 
d="M676 0c-5.33301 -32 -17.833 -67.333 -37.5 -106s-47.5 -81 -83.5 -127c-92 -116.667 -189.667 -175 -293 -175c-56 0 -118 16.667 -186 50c-61.333 30 -92 53 -92 69c0 10 6 15 18 15c-1.33301 0 15.667 -5 51 -15c18.667 -5.33301 37.167 -9 55.5 -11
s36.166 -3 53.499 -3c132 0 246.667 54 344 162c28.667 32 51.5 59.667 68.5 83s28.167 43.333 33.5 60c-9.33301 -1.33301 -21 -2.33301 -35 -3s-30.333 -1 -49 -1c-57.333 0 -103.666 15.667 -138.999 47c-28.667 26.667 -43 57.334 -43 92.001
c0 51.333 19.667 106.666 59 165.999c42 62.667 83.667 94 125 94c32 0 60.667 -19.667 86 -59s47.333 -101.333 66 -186h43v-152h-45zM586 154c-12 34 -26.5 58.5 -43.5 73.5s-36.167 22.5 -57.5 22.5c-16 0 -29.167 -5 -39.5 -15s-16.166 -25.333 -17.499 -46
c-1.33301 -12 4.16699 -21 16.5 -27s27.166 -10 44.499 -12s35 -2.5 53 -1.5s32.667 2.83301 44 5.5zM391 -470c0 -22 -3.66992 -43.168 -11.0029 -63.501s-17.666 -38.5 -30.999 -54.5s-29.166 -28.667 -47.499 -38s-38.166 -14 -59.499 -14
c-29.333 0 -53.5 9.5 -72.5 28.5s-28.5 45.167 -28.5 78.5c0 23.333 3.66699 45.5 11 66.5s19.333 41.833 36 62.5c34 42 71 63 111 63c30 0 52.833 -12.167 68.5 -36.5s23.5 -55.166 23.5 -92.499zM339.997 -492.001c0 10 -1.66699 19.5 -5 28.5
s-7.66602 17.167 -12.999 24.5s-11.833 13.166 -19.5 17.499s-15.834 6.5 -24.501 6.5c-10 0 -20 -2.5 -30 -7.5s-19 -11.667 -27 -20s-14.5 -17.833 -19.5 -28.5s-7.5 -22 -7.5 -34c0 -17.333 6.16699 -31.166 18.5 -41.499s26.166 -15.5 41.499 -15.5
c12 0 23.167 2.16699 33.5 6.5s19.333 9.83301 27 16.5s13.834 14.167 18.501 22.5s7 16.5 7 24.5z" />
    <glyph glyph-name="uni06CA.fina" unicode="&#x6ca;" horiz-adv-x="721" 
d="M676 0c-5.33301 -32 -17.833 -67.333 -37.5 -106s-47.5 -81 -83.5 -127c-92 -116.667 -189.667 -175 -293 -175c-56 0 -118 16.667 -186 50c-61.333 30 -92 53 -92 69c0 10 6 15 18 15c-1.33301 0 15.667 -5 51 -15c18.667 -5.33301 37.167 -9 55.5 -11
s36.166 -3 53.499 -3c132 0 246.667 54 344 162c28.667 32 51.5 59.667 68.5 83s28.167 43.333 33.5 60c-9.33301 -1.33301 -21 -2.33301 -35 -3s-30.333 -1 -49 -1c-57.333 0 -103.666 15.667 -138.999 47c-28.667 26.667 -43 57.334 -43 92.001
c0 51.333 19.667 106.666 59 165.999c42 62.667 83.667 94 125 94c32 0 60.667 -19.667 86 -59s47.333 -101.333 66 -186h43v-152h-45zM586 154c-12 34 -26.5 58.5 -43.5 73.5s-36.167 22.5 -57.5 22.5c-16 0 -29.167 -5 -39.5 -15s-16.166 -25.333 -17.499 -46
c-1.33301 -12 4.16699 -21 16.5 -27s27.166 -10 44.499 -12s35 -2.5 53 -1.5s32.667 2.83301 44 5.5zM418 564l-93 93l93 93l93 -93zM615 572l-93 93l93 93l93 -93z" />
    <glyph glyph-name="uni06CD.fina" unicode="&#x6cd;" horiz-adv-x="1049" 
d="M1049 0c-44 0 -84.999 -2.1709 -122.999 -6.50391s-73 -11.166 -105 -20.499c-53.333 -14 -80 -29 -80 -45c0 -9.33301 53.333 -23.666 160 -42.999c70 -10 105 -40 105 -90c0 -51.333 -22 -95 -66 -131c-162.667 -129.333 -334.667 -194 -516 -194
c-56.667 0 -107.334 6.66699 -152.001 20s-82.5 32.833 -113.5 58.5s-54.667 57.334 -71 95.001s-24.5 80.834 -24.5 129.501c0 96.667 35 187.667 105 273l-206 -63l15 64l257 64c4 1.33301 7.33301 2 10 2c9.33301 0 14 -7 14 -21c0 0.666992 -1.66699 -1.33301 -5 -6
l-13 -18v-1l-1 -1c-5.33301 -7.33301 -11 -15.833 -17 -25.5s-13.667 -21.167 -23 -34.5c-19.333 -30 -34.166 -59.333 -44.499 -88s-15.5 -57.334 -15.5 -86.001c0 -58.667 28 -112 84 -160c57.333 -48.667 125.666 -73 204.999 -73c110 0 220 20.333 330 61
c95.333 36.667 143 65.334 143 86.001c0 10 -25.333 18.333 -76 25c-69.333 10 -116.333 18 -141 24c-50.667 18.667 -76 46 -76 82c0 66.667 46.667 128.667 140 186c90.667 59.333 191 89 301 89v-152v0z" />
    <glyph glyph-name="uni06CE.init" unicode="&#x6ce;" horiz-adv-x="318" 
d="M276 260c0 -96 -20.332 -164.332 -60.999 -204.999c-13.333 -13.333 -45.333 -26.333 -96 -39c-24.667 -5.33301 -46.834 -9.33301 -66.501 -12s-37.167 -4 -52.5 -4c-46.667 0 -70 25.333 -70 76s23.333 76 70 76h37c86 0 144 10.667 174 32
c0 41.333 -22 88.666 -66 141.999l45 104c3.33301 6.66699 7 10 11 10s9.33301 -5.33301 16 -16c39.333 -59.333 59 -114 59 -164zM250.001 879.001c-10 -8 -21.499 -20.832 -34.499 -38.499s-26 -38.5 -39 -62.5s-25.167 -50.167 -36.5 -78.5s-20.666 -57.5 -27.999 -87.5
h-28l-1 3c-8 29.333 -17.833 58.166 -29.5 86.499s-23.834 54.333 -36.501 78s-25.334 44.167 -38.001 61.5s-23.667 30 -33 38l88 2c14 -21.333 26.167 -47.333 36.5 -78s19.166 -62.667 26.499 -96c7.33301 33.333 16.333 65.333 27 96s23.334 56.667 38.001 78z
M29.002 -371.998l-93 93l93 93l93 -93zM226.002 -363.998l-93 93l93 93l93 -93z" />
    <glyph glyph-name="uni06CE.medi" unicode="&#x6ce;" horiz-adv-x="440" 
d="M395 0c-33.333 0 -68.666 11.667 -105.999 35c-44 25.333 -71.333 57.333 -82 96c-40.667 -83.333 -109.667 -127 -207 -131c-46.667 -0 -70 25.333 -70 76s23.333 76 70 76h45c83.333 0 144.666 44.333 183.999 133c13.333 27.333 27 41 41 41c11.333 0 17 -5 17 -15
c0 -1.33301 -1.83301 -8.5 -5.5 -21.5s-5.5 -26.167 -5.5 -39.5c0 -65.333 56 -98 168 -98v-152h-49zM410 787c-10 -8 -21.499 -20.832 -34.499 -38.499s-26 -38.5 -39 -62.5s-25.167 -50.167 -36.5 -78.5s-20.666 -57.5 -27.999 -87.5h-28l-1 3
c-8 29.333 -17.833 58.166 -29.5 86.499s-23.834 54.333 -36.501 78s-25.334 44.167 -38.001 61.5s-23.667 30 -33 38l88 2c14 -21.333 26.167 -47.333 36.5 -78s19.166 -62.667 26.499 -96c7.33301 33.333 16.333 65.333 27 96s23.334 56.667 38.001 78zM103.001 -361.999
l-93 93l93 93l93 -93zM300.001 -353.999l-93 93l93 93l93 -93z" />
    <glyph glyph-name="uni06CE.fina" unicode="&#x6ce;" horiz-adv-x="1049" 
d="M1049 0c-44 0 -84.998 -2.16992 -122.998 -6.50293s-73 -11.166 -105 -20.499c-53.333 -14 -80 -29 -80 -45c0 -9.33301 53.333 -23.666 160 -42.999c70 -10 105 -40 105 -90c0 -51.333 -22 -95 -66 -131c-162.667 -129.333 -334.667 -194 -516 -194
c-56.667 0 -107.334 6.66699 -152.001 20s-82.5 32.833 -113.5 58.5s-54.667 57.334 -71 95.001s-24.5 80.834 -24.5 129.501c0 115.333 50 223 150 323c11.333 11.333 21.666 17 30.999 17s14 -7 14 -21c0 3.33301 -19.667 -25.334 -59 -86.001
c-19.333 -30 -34.166 -59.333 -44.499 -88s-15.5 -57.334 -15.5 -86.001c0 -58.667 28 -112 84 -160c57.333 -48.667 125.666 -73 204.999 -73c110 0 220 20.333 330 61c95.333 36.667 143 65.334 143 86.001c0 10 -25.333 18.333 -76 25c-69.333 10 -116.333 18 -141 24
c-50.667 18.667 -76 46 -76 82c0 66.667 46.667 128.667 140 186c90.667 59.333 191 89 301 89v-152v0zM665.002 523.997c-10 -8 -21.499 -20.832 -34.499 -38.499s-26 -38.5 -39 -62.5s-25.167 -50.167 -36.5 -78.5s-20.666 -57.5 -27.999 -87.5h-28l-1 3
c-8 29.333 -17.833 58.166 -29.5 86.499s-23.834 54.333 -36.501 78s-25.334 44.167 -38.001 61.5s-23.667 30 -33 38l88 2c14 -21.333 26.167 -47.333 36.5 -78s19.166 -62.667 26.499 -96c7.33301 33.333 16.333 65.333 27 96s23.334 56.667 38.001 78z" />
    <glyph glyph-name="uni06CF.fina" unicode="&#x6cf;" horiz-adv-x="721" 
d="M676 0c-5.33301 -32 -17.833 -67.333 -37.5 -106s-47.5 -81 -83.5 -127c-92 -116.667 -189.667 -175 -293 -175c-56 0 -118 16.667 -186 50c-61.333 30 -92 53 -92 69c0 10 6 15 18 15c-1.33301 0 15.667 -5 51 -15c18.667 -5.33301 37.167 -9 55.5 -11
s36.166 -3 53.499 -3c132 0 246.667 54 344 162c28.667 32 51.5 59.667 68.5 83s28.167 43.333 33.5 60c-9.33301 -1.33301 -21 -2.33301 -35 -3s-30.333 -1 -49 -1c-57.333 0 -103.666 15.667 -138.999 47c-28.667 26.667 -43 57.334 -43 92.001
c0 51.333 19.667 106.666 59 165.999c42 62.667 83.667 94 125 94c32 0 60.667 -19.667 86 -59s47.333 -101.333 66 -186h43v-152h-45zM586 154c-12 34 -26.5 58.5 -43.5 73.5s-36.167 22.5 -57.5 22.5c-16 0 -29.167 -5 -39.5 -15s-16.166 -25.333 -17.499 -46
c-1.33301 -12 4.16699 -21 16.5 -27s27.166 -10 44.499 -12s35 -2.5 53 -1.5s32.667 2.83301 44 5.5zM493 551l-104 104l104 104l104 -104z" />
    <glyph glyph-name="uni06D1.fina" unicode="&#x6d1;" horiz-adv-x="1049" 
d="M329 -654l90 -90l-90 -90l-90 90zM538 -648l90 -90l-90 -90l-90 90zM436 -814l90 -90l-90 -90l-90 90zM1049 0c-44 0 -84.998 -2.16992 -122.998 -6.50293s-73 -11.166 -105 -20.499c-53.333 -14 -80 -29 -80 -45c0 -9.33301 53.333 -23.666 160 -42.999
c70 -10 105 -40 105 -90c0 -51.333 -22 -95 -66 -131c-162.667 -129.333 -334.667 -194 -516 -194c-56.667 0 -107.334 6.66699 -152.001 20s-82.5 32.833 -113.5 58.5s-54.667 57.334 -71 95.001s-24.5 80.834 -24.5 129.501c0 115.333 50 223 150 323
c11.333 11.333 21.666 17 30.999 17s14 -7 14 -21c0 3.33301 -19.667 -25.334 -59 -86.001c-19.333 -30 -34.166 -59.333 -44.499 -88s-15.5 -57.334 -15.5 -86.001c0 -58.667 28 -112 84 -160c57.333 -48.667 125.666 -73 204.999 -73c110 0 220 20.333 330 61
c95.333 36.667 143 65.334 143 86.001c0 10 -25.333 18.333 -76 25c-69.333 10 -116.333 18 -141 24c-50.667 18.667 -76 46 -76 82c0 66.667 46.667 128.667 140 186c90.667 59.333 191 89 301 89v-152v0z" />
    <glyph glyph-name="uni06FA.init" unicode="&#x6fa;" horiz-adv-x="945" 
d="M920 285c0 -52 -13.001 -105.334 -39.001 -160.001c-33.333 -70 -73.666 -105 -120.999 -105c-68 0 -137.667 31.667 -209 95c-58.667 -71.333 -127.667 -107 -207 -107c-76 0 -123 38.333 -141 115c-28.667 -78 -96.334 -119 -203.001 -123c-46.667 0 -70 25.333 -70 76
s23.333 76 70 76h27c56 0 101.667 15.667 137 47c22.667 18.667 43 47.334 61 86.001c18 31.333 29.667 47 35 47c13.333 0 18.666 -5 15.999 -15l-4 -47c-6 -83.333 33.667 -125 119 -125c50.667 0 92.334 17.333 125.001 52c18.667 20 38.334 52 59.001 96
c16.667 34 29 51 37 51c10 0 15 -5.33301 15 -16l-9 -90c12 -16 39.333 -33.333 82 -52c49.333 -20.667 94 -30 134 -28c14 42 14 84.333 0 127l28 49c19.333 28.667 32.333 43 39 43c12.667 0 19 -30.667 19 -92zM670.999 507.999l-90 90l90 90l90 -90zM461.999 501.999
l-90 90l90 90l90 -90zM563.999 667.999l-90 90l90 90l90 -90zM515.999 -394.001l-104 104l104 104l104 -104z" />
    <glyph glyph-name="uni06FA.medi" unicode="&#x6fa;" horiz-adv-x="1063" 
d="M1020 0c-18.667 0 -37.1631 2.33398 -55.4961 7.00098s-35.5 11 -51.5 19s-30.333 17.5 -43 28.5s-22.667 22.833 -30 35.5c-39.333 -60 -82.333 -90 -129 -90c-55.333 0 -110.666 28.667 -165.999 86c-47.333 -57.333 -111 -86 -191 -86c-81.333 0 -133 37.667 -155 113
c-40.667 -71.333 -107 -109 -199 -113c-46.667 0 -70 25.333 -70 76s23.333 76 70 76h25c92.667 0 160.667 38 204 114c14.667 22 25 33 31 33c14 0 21 -5.33301 21 -16c0 -4.66699 -1.16699 -12.667 -3.5 -24s-3.5 -20.666 -3.5 -27.999c0 -56 38.333 -84 115 -84
c51.333 0 94.333 15.333 129 46c20 17.333 40 43.666 60 78.999c7.33301 15.333 13.666 26.666 18.999 33.999s9.66602 11 12.999 11c16 0 23 -7.33301 21 -22l-10 -74c0 -8 4 -16 12 -24s18.333 -15.333 31 -22s27 -12.167 43 -16.5s32.333 -6.5 49 -6.5
c27.333 0 56.666 25.667 87.999 77c15.333 26 27.833 45.5 37.5 58.5s16.167 19.5 19.5 19.5c15.333 0 23 -6 23 -18c0 -0.666992 -0.833008 -3 -2.5 -7s-3.33398 -9 -5.00098 -15s-3.33398 -12.667 -5.00098 -20s-2.5 -14 -2.5 -20c0 -50 31.667 -75 95 -75h59v-152h-43z
M730.004 508.001l-90 90l90 90l90 -90zM521.004 502.001l-90 90l90 90l90 -90zM623.004 668.001l-90 90l90 90l90 -90zM571.004 -413.999l-104 104l104 104l104 -104z" />
    <glyph glyph-name="uni06FA.fina" unicode="&#x6fa;" horiz-adv-x="1702" 
d="M1659 0c-18.667 0 -37.1621 2.33105 -55.4951 6.99805s-35.5 11 -51.5 19s-30.333 17.5 -43 28.5s-22.667 22.833 -30 35.5c-42 -60 -85 -90 -129 -90c-36 0 -68 7 -96 21s-52.667 35 -74 63c-44 -56 -105.667 -84 -185 -84c-15.333 0 -29.333 1.5 -42 4.5
s-23.667 7.5 -33 13.5c0 -100 -20.667 -183.667 -62 -251c-13.333 -21.333 -31.5 -42.666 -54.5 -63.999s-50.5 -42.333 -82.5 -63c-92 -56 -194.333 -84 -307 -84c-131.333 0 -226.333 34 -285 102c-44 48 -66 105.333 -66 172c0 72 17.333 143.667 52 215
c28 61.333 49.667 92 65 92c14 0 21 -6.66699 21 -20c-2.66699 -5.33301 -5.33398 -11.666 -8.00098 -18.999c-2.66699 -6 -5.83398 -13.667 -9.50098 -23s-8.16699 -20 -13.5 -32c-20.667 -48.667 -31 -90.334 -31 -125.001c0 -144.667 104.667 -217 314 -217
c183.333 0 317 47 401 141c0 114 -26.667 218.667 -80 314l53 127c5.33301 0 30.666 -33 75.999 -99c11.333 -15.333 26.833 -27 46.5 -35s44.5 -12 74.5 -12c25.333 0 49.166 4 71.499 12s42.166 19.667 59.499 35c24.667 18.667 47.334 47.334 68.001 86.001
c16 31.333 26.667 47 32 47c12.667 0 19 -6 19 -18l-8 -78c0 -12.667 15.667 -27.667 47 -45c32.667 -16 63.334 -24 92.001 -24c25.333 0 52.666 25.667 81.999 77c30.667 52 48.334 78 53.001 78c15.333 0 23 -6 23 -18c0 -0.666992 -0.833008 -3 -2.5 -7
s-3.33398 -9 -5.00098 -15s-3.33398 -12.5 -5.00098 -19.5s-2.5 -13.833 -2.5 -20.5c0 -50 31.333 -75 94 -75h60v-152h-43zM1340 473.998l-90 90l90 90l90 -90zM1131 467.998l-90 90l90 90l90 -90zM1233 633.998l-90 90l90 90l90 -90zM1224 -415.002l-104 104l104 104
l104 -104z" />
    <glyph glyph-name="uni06FB.init" unicode="&#x6fb;" horiz-adv-x="1146" 
d="M1006 330c0 9.33301 -4.83203 18.335 -14.499 27.002s-24.167 16.667 -43.5 24c-19.333 8 -38.833 14.167 -58.5 18.5s-39.834 6.5 -60.501 6.5c-96 0 -235.667 -91.667 -419 -275h51c48 0 100.667 6.16699 158 18.5s119.333 30.166 186 53.499
c134 49.333 201 91.666 201 126.999zM1110 406.002c0 -30 -9.83105 -63.332 -29.498 -99.999s-49.5 -76 -89.5 -118c-59.333 -63.333 -148 -114.333 -266 -153c-108 -36.667 -205.667 -55 -293 -55c-76 0 -133.333 14.333 -172 43c-15.333 11.333 -29.333 27 -42 47
s-24.667 45 -36 75c-42.667 -90.667 -103.334 -139 -182.001 -145c-46.667 0 -70 25.333 -70 76s23.333 76 70 76h16c50.667 0 93.667 19 129 57c39.333 39.333 57.333 59 54 59c7.33301 0 14 -6.66699 20 -20c27.333 -68.667 65.666 -103 114.999 -103
c262 262.667 455 394 579 394c24 0 47 -3.5 69 -10.5s43.667 -17.167 65 -30.5c42 -26.667 63 -57.334 63 -92.001zM410.003 560.003l-104 104l104 104l104 -104zM421.003 -439.997l-104 104l104 104l104 -104z" />
    <glyph glyph-name="uni06FB.medi" unicode="&#x6fb;" horiz-adv-x="1471" 
d="M1210 0h-91.999c-33.333 -0 -70 -0.666992 -110 -2c-39.333 -1.33301 -71.833 -2.33301 -97.5 -3s-45.167 -1 -58.5 -1c-60.667 0 -110.167 0.833008 -148.5 2.5s-65.166 4.16699 -80.499 7.5c-74 -16 -137.667 -24 -191 -24c-76 0 -133.333 14.333 -172 43
c-15.333 11.333 -29.333 27 -42 47s-24.667 45 -36 75c-42.667 -90.667 -103.334 -139 -182.001 -145c-46.667 -0 -70 25.333 -70 76s23.333 76 70 76h16c50.667 0 93.667 19 129 57c39.333 39.333 57.333 59 54 59c7.33301 0 14 -6.66699 20 -20
c27.333 -68.667 65.666 -103 114.999 -103c262 262.667 455 394 579 394c24 0 47 -3.5 69 -10.5s43.667 -17.167 65 -30.5c42 -26.667 63 -57.334 63 -92.001c0 -35.333 -15.667 -77.666 -47 -126.999c-17.333 -28 -37.666 -54.333 -60.999 -79s-49.333 -47.667 -78 -69
c11.333 0 27.166 0.833008 47.499 2.5s45.5 4.16699 75.5 7.5s58.333 6 85 8s52.667 3 78 3v-152zM1006 330c0 9.33301 -4.83203 18.335 -14.499 27.002s-24.167 16.667 -43.5 24c-19.333 8 -38.833 14.167 -58.5 18.5s-39.834 6.5 -60.501 6.5
c-96 0 -235.667 -91.667 -419 -275h51c48 0 100.667 6.16699 158 18.5s119.333 30.166 186 53.499c134 49.333 201 91.666 201 126.999zM493.002 547.002l-104 104l104 104l104 -104zM530.002 -413.998l-104 104l104 104l104 -104z" />
    <glyph glyph-name="uni06FB.fina" unicode="&#x6fb;" horiz-adv-x="1896" 
d="M1896 0l-91.998 -0.000976562c-33.333 0 -70 -0.666992 -110 -2c-39.333 -1.33301 -71.833 -2.33301 -97.5 -3s-45.167 -1 -58.5 -1c-60.667 0 -110.167 0.833008 -148.5 2.5s-65.166 4.16699 -80.499 7.5c-74 -16 -137.667 -24 -191 -24c-82 0 -148 12.667 -198 38
c0 -100 -20.667 -183.667 -62 -251c-13.333 -21.333 -31.5 -42.666 -54.5 -63.999s-50.5 -42.333 -82.5 -63c-92 -56 -194.333 -84 -307 -84c-131.333 0 -226.333 34 -285 102c-44 48 -66 105.333 -66 172c0 72 17.333 143.667 52 215c28 61.333 49.667 92 65 92
c14 0 21 -6.66699 21 -20c-2.66699 -5.33301 -5.33398 -11.666 -8.00098 -18.999c-2.66699 -6 -5.83398 -13.667 -9.50098 -23s-8.16699 -20 -13.5 -32c-20.667 -48.667 -31 -90.334 -31 -125.001c0 -144.667 104.667 -217 314 -217c183.333 0 317 47 401 141
c0 114 -26.667 218.667 -80 314l53 127c5.33301 0 30.666 -33 75.999 -99c18.667 -26 57.667 -39 117 -39c262 262.667 455 394 579 394c24 0 47 -3.5 69 -10.5s43.667 -17.167 65 -30.5c42 -26.667 63 -57.334 63 -92.001c0 -35.333 -15.667 -77.666 -47 -126.999
c-17.333 -28 -37.666 -54.333 -60.999 -79s-49.333 -47.667 -78 -69c11.333 0 27.166 0.833008 47.499 2.5s45.5 4.16699 75.5 7.5s58.5 6 85.5 8s52.833 3 77.5 3v-152zM1692 329.999c0 9.33301 -4.83301 18.335 -14.5 27.002s-24.167 16.667 -43.5 24
c-19.333 8 -38.833 14.167 -58.5 18.5s-39.5 6.5 -59.5 6.5c-96.667 0 -236.667 -91.667 -420 -275h51c48 0 100.667 6.16699 158 18.5s119.333 30.166 186 53.499c134 49.333 201 91.666 201 126.999zM1137 516.001l-104 104l104 104l104 -104zM1153 -405.999l-104 104
l104 104l104 -104z" />
    <glyph glyph-name="uni06FC.init" unicode="&#x6fc;" horiz-adv-x="791" 
d="M713 199c-33.333 -17.333 -81.166 -36.499 -143.499 -57.499s-140.166 -44.167 -233.499 -69.5c-82.667 -21.333 -151.834 -38.166 -207.501 -50.499s-98.5 -19.5 -128.5 -21.5c-46.667 0 -70 25.333 -70 76s23.333 76 70 76c64.667 0 118.667 6 162 18
c-48 60 -72 114 -72 162c0 50.667 27.333 110.667 82 180c64 82 133 123 207 123c51.333 0 104 -17 158 -51c46 -30.667 69 -55.334 69 -74.001c0 -8 -4.66699 -12 -14 -12c-0.666992 0 -5.33398 1.66699 -14.001 5s-19.667 7 -33 11s-28.333 7.66699 -45 11s-33 5 -49 5
c-34 0 -76.333 -8 -127 -24c-62 -20.667 -116 -47.334 -162 -80.001c45.333 -110 127.333 -182.333 246 -217c68 16 140.333 39.333 217 70l133 49zM355 807.001l-104 104l104 104l104 -104zM303 -386.999l-104 104l104 104l104 -104z" />
    <glyph glyph-name="uni06FC.medi" unicode="&#x6fc;" horiz-adv-x="647" 
d="M647 0c-68.667 0 -123.998 8.33203 -165.998 24.999c-47.333 19.333 -97 56 -149 110c-118.667 -86 -229.334 -131 -332.001 -135c-46.667 0 -70 25.333 -70 76s23.333 76 70 76c105.333 0 195.333 20.333 270 61c-24 46.667 -82 72 -174 76c0 46 21.333 86.333 64 121
c47.333 39.333 110.666 59 189.999 59c66.667 0 119.834 -11.833 159.501 -35.5s59.5 -56.167 59.5 -97.5c0 -12 -3.16699 -24.667 -9.5 -38s-14.833 -26.333 -25.5 -39s-23.167 -24.667 -37.5 -36s-29.5 -20.666 -45.5 -27.999c33.333 -28.667 87.666 -43 162.999 -43h33
v-152v0zM332.002 623.999l-104 104l104 104l104 -104zM310.002 -338.001l-104 104l104 104l104 -104z" />
    <glyph glyph-name="uni06FC.fina" unicode="&#x6fc;" horiz-adv-x="848" 
d="M997 -672c0 -12 -19.666 -23.666 -58.999 -34.999c-1.33301 0 -15.666 -4.66699 -42.999 -14l-123 -43c-68.667 -24.667 -130.667 -37 -186 -37c-358 0 -537 138 -537 414c0 134.667 33.667 259 101 373c28 49.333 58.833 93.166 92.5 131.499s71.5 71.5 113.5 99.5
c-30 31.333 -86.667 47 -170 47c3.33301 28 12.166 53.667 26.499 77s34.166 44 59.499 62c27.333 19.333 57.333 34.166 90 44.499s69 15.5 109 15.5c28 0 54 -3.33301 78 -10s44.667 -16.167 62 -28.5s30.833 -26.833 40.5 -43.5s14.5 -35 14.5 -55
c0 -43.333 -38.333 -89.333 -115 -138c20 -24 59 -36 117 -36h180v-152h-123c-108 0 -202.333 48.333 -283 145c-89.333 -50.667 -163 -116 -221 -196c-64 -91.333 -96 -183.666 -96 -276.999c0 -136 60.667 -230.667 182 -284c84.667 -37.333 248.667 -56 492 -56
c16.667 0 34.167 0.5 52.5 1.5l52.5 3c16.667 1 31.167 2 43.5 3s20.833 1.5 25.5 1.5c16 0 24 -4.33301 24 -13zM429.001 605.001l-104 104l104 104l104 -104zM494.001 -395.999l-104 104l104 104l104 -104z" />
    <glyph glyph-name="uniFB51" unicode="&#x671;" horiz-adv-x="489" arabic-form="final" 
d="M429 0c-70 0 -126 26 -168 78c-38.667 48.667 -61 130 -67 244c-20.667 342.667 -44.667 580.667 -72 714c33.333 101.333 55.333 152 66 152c11.333 0 22 -42.333 32 -127c4.66699 -38 10.5 -101.333 17.5 -190s15.5 -203.667 25.5 -345
c12.667 -162.667 30.667 -267.667 54 -315c20 -39.333 58 -59 114 -59h58v-152h-60zM-50 1340c24 25.333 51.167 39.166 81.5 41.499s56.5 -3.16699 78.5 -16.5c28.667 34 55.667 60.5 81 79.5s45.666 30.833 60.999 35.5c19.333 6.66699 36 6.83398 50 0.500977
s24.667 -15.833 32 -28.5s10.833 -27 10.5 -43s-4.83301 -30.667 -13.5 -44c-17.333 -22.667 -39.333 -39.5 -66 -50.5s-57.667 -16.167 -93 -15.5s-72 10.667 -110 30c-8 4.66699 -17.167 8.16699 -27.5 10.5s-20.666 3.83301 -30.999 4.5s-20.333 0.5 -30 -0.5
s-17.5 -2.16699 -23.5 -3.5zM250 1439c-20.667 -6.66699 -40.167 -17.168 -58.5 -31.501s-37.5 -30.833 -57.5 -49.5c4.66699 -3.33301 15.5 -5.33301 32.5 -6s35.167 0 54.5 2s38 5.83301 56 11.5s30.333 13.5 37 23.5c0.666992 5.33301 0 11.5 -2 18.5
s-5.5 13.5 -10.5 19.5s-11.667 10.333 -20 13s-18.833 2.33398 -31.5 -0.999023z" />
    <glyph glyph-name="uniFB53" unicode="&#x67b;" horiz-adv-x="1384" arabic-form="final" 
d="M1384 0c-21.333 0 -43.501 1.16602 -66.501 3.49902s-44.333 8 -64 17s-36.667 22.667 -51 41s-23.5 43.5 -27.5 75.5c-23.333 -19.333 -54.666 -40.5 -93.999 -63.5s-85.5 -44.5 -138.5 -64.5s-112 -36.667 -177 -50s-135.167 -20 -210.5 -20
c-93.333 0 -170.5 8.83301 -231.5 26.5s-109.5 39.834 -145.5 66.501s-61.167 55.667 -75.5 87s-21.5 60.666 -21.5 87.999c0 26.667 5 54 15 82s21.667 53.5 35 76.5s26.5 41.833 39.5 56.5s22.167 22 27.5 22c11.333 0 17 -4.66699 17 -14
c0 -3.33301 -2.5 -9.66602 -7.5 -18.999s-10.333 -20.833 -16 -34.5s-11 -28.834 -16 -45.501s-7.5 -34 -7.5 -52c0 -19.333 7 -40.166 21 -62.499s37.5 -42.833 70.5 -61.5s76.5 -34.167 130.5 -46.5s121 -18.5 201 -18.5c65.333 0 130 5.33301 194 16
s123 24.334 177 41.001s101 35.334 141 56.001s68.667 41 86 61c13.333 15.333 23.5 25.666 30.5 30.999s12.833 8 17.5 8c4 0 8 -1.66699 12 -5s6 -7 6 -11c0 -7.33301 -1.66699 -16.333 -5 -27s-5 -20.334 -5 -29.001c0 -6 2.5 -13.5 7.5 -22.5s12 -17.667 21 -26
s20.167 -15.5 33.5 -21.5s28 -9 44 -9h33v-152v0zM572.999 -383.001l-90 90l90 90l90 -90zM575.999 -587.001l-90 90l90 90l90 -90z" />
    <glyph glyph-name="uniFB54" unicode="&#x67b;" horiz-adv-x="318" arabic-form="initial" 
d="M276 260c0 -96 -20.332 -164.332 -60.999 -204.999c-13.333 -13.333 -45.333 -26.333 -96 -39c-24.667 -5.33301 -46.834 -9.33301 -66.501 -12s-37.167 -4 -52.5 -4c-46.667 0 -70 25.333 -70 76s23.333 76 70 76h37c86 0 144 10.667 174 32
c0 41.333 -22 88.666 -66 141.999l45 104c3.33301 6.66699 7 10 11 10s9.33301 -5.33301 16 -16c39.333 -59.333 59 -114 59 -164zM115.001 -331.999l-90 90l90 90l90 -90zM118.001 -535.999l-90 90l90 90l90 -90z" />
    <glyph glyph-name="uniFB55" unicode="&#x67b;" horiz-adv-x="440" arabic-form="medial" 
d="M395 0c-33.333 0 -68.666 11.667 -105.999 35c-44 25.333 -71.333 57.333 -82 96c-40.667 -83.333 -109.667 -127 -207 -131c-46.667 -0 -70 25.333 -70 76s23.333 76 70 76h45c83.333 0 144.666 44.333 183.999 133c13.333 27.333 27 41 41 41c11.333 0 17 -5 17 -15
c0 -1.33301 -1.83301 -8.5 -5.5 -21.5s-5.5 -26.167 -5.5 -39.5c0 -65.333 56 -98 168 -98v-152h-49zM218 -303l-90 90l90 90l90 -90zM221 -507l-90 90l90 90l90 -90z" />
    <glyph glyph-name="afii62958" unicode="&#x67e;" horiz-adv-x="1384" arabic-form="final" 
d="M1384 0c-21.333 0 -43.501 1.16602 -66.501 3.49902s-44.333 8 -64 17s-36.667 22.667 -51 41s-23.5 43.5 -27.5 75.5c-23.333 -19.333 -54.666 -40.5 -93.999 -63.5s-85.5 -44.5 -138.5 -64.5s-112 -36.667 -177 -50s-135.167 -20 -210.5 -20
c-93.333 0 -170.5 8.83301 -231.5 26.5s-109.5 39.834 -145.5 66.501s-61.167 55.667 -75.5 87s-21.5 60.666 -21.5 87.999c0 26.667 5 54 15 82s21.667 53.5 35 76.5s26.5 41.833 39.5 56.5s22.167 22 27.5 22c11.333 0 17 -4.66699 17 -14
c0 -3.33301 -2.5 -9.66602 -7.5 -18.999s-10.333 -20.833 -16 -34.5s-11 -28.834 -16 -45.501s-7.5 -34 -7.5 -52c0 -19.333 7 -40.166 21 -62.499s37.5 -42.833 70.5 -61.5s76.5 -34.167 130.5 -46.5s121 -18.5 201 -18.5c65.333 0 130 5.33301 194 16
s123 24.334 177 41.001s101 35.334 141 56.001s68.667 41 86 61c13.333 15.333 23.5 25.666 30.5 30.999s12.833 8 17.5 8c4 0 8 -1.66699 12 -5s6 -7 6 -11c0 -7.33301 -1.66699 -16.333 -5 -27s-5 -20.334 -5 -29.001c0 -6 2.5 -13.5 7.5 -22.5s12 -17.667 21 -26
s20.167 -15.5 33.5 -21.5s28 -9 44 -9h33v-152v0zM515.999 -189.001l90 -90l-90 -90l-90 90zM724.999 -183.001l90 -90l-90 -90l-90 90zM622.999 -349.001l90 -90l-90 -90l-90 90z" />
    <glyph glyph-name="afii62956" unicode="&#x67e;" horiz-adv-x="318" arabic-form="initial" 
d="M276 260c0 -96 -20.332 -164.332 -60.999 -204.999c-13.333 -13.333 -45.333 -26.333 -96 -39c-24.667 -5.33301 -46.834 -9.33301 -66.501 -12s-37.167 -4 -52.5 -4c-46.667 0 -70 25.333 -70 76s23.333 76 70 76h37c86 0 144 10.667 174 32
c0 41.333 -22 88.666 -66 141.999l45 104c3.33301 6.66699 7 10 11 10s9.33301 -5.33301 16 -16c39.333 -59.333 59 -114 59 -164zM17.001 -151.999l90 -90l-90 -90l-90 90zM226.001 -145.999l90 -90l-90 -90l-90 90zM124.001 -311.999l90 -90l-90 -90l-90 90z" />
    <glyph glyph-name="afii52957" unicode="&#x67e;" horiz-adv-x="440" arabic-form="medial" 
d="M395 0c-33.333 0 -68.666 11.667 -105.999 35c-44 25.333 -71.333 57.333 -82 96c-40.667 -83.333 -109.667 -127 -207 -131c-46.667 -0 -70 25.333 -70 76s23.333 76 70 76h45c83.333 0 144.666 44.333 183.999 133c13.333 27.333 27 41 41 41c11.333 0 17 -5 17 -15
c0 -1.33301 -1.83301 -8.5 -5.5 -21.5s-5.5 -26.167 -5.5 -39.5c0 -65.333 56 -98 168 -98v-152h-49zM106 -209l90 -90l-90 -90l-90 90zM315 -203l90 -90l-90 -90l-90 90zM213 -369l90 -90l-90 -90l-90 90z" />
    <glyph glyph-name="uniFB5B" unicode="&#x680;" horiz-adv-x="1384" arabic-form="final" 
d="M1384 0c-21.333 0 -43.501 1.16602 -66.501 3.49902s-44.333 8 -64 17s-36.667 22.667 -51 41s-23.5 43.5 -27.5 75.5c-23.333 -19.333 -54.666 -40.5 -93.999 -63.5s-85.5 -44.5 -138.5 -64.5s-112 -36.667 -177 -50s-135.167 -20 -210.5 -20
c-93.333 0 -170.5 8.83301 -231.5 26.5s-109.5 39.834 -145.5 66.501s-61.167 55.667 -75.5 87s-21.5 60.666 -21.5 87.999c0 26.667 5 54 15 82s21.667 53.5 35 76.5s26.5 41.833 39.5 56.5s22.167 22 27.5 22c11.333 0 17 -4.66699 17 -14
c0 -3.33301 -2.5 -9.66602 -7.5 -18.999s-10.333 -20.833 -16 -34.5s-11 -28.834 -16 -45.501s-7.5 -34 -7.5 -52c0 -19.333 7 -40.166 21 -62.499s37.5 -42.833 70.5 -61.5s76.5 -34.167 130.5 -46.5s121 -18.5 201 -18.5c65.333 0 130 5.33301 194 16
s123 24.334 177 41.001s101 35.334 141 56.001s68.667 41 86 61c13.333 15.333 23.5 25.666 30.5 30.999s12.833 8 17.5 8c4 0 8 -1.66699 12 -5s6 -7 6 -11c0 -7.33301 -1.66699 -16.333 -5 -27s-5 -20.334 -5 -29.001c0 -6 2.5 -13.5 7.5 -22.5s12 -17.667 21 -26
s20.167 -15.5 33.5 -21.5s28 -9 44 -9h33v-152v0zM733.999 -557.001l-90 90l90 90l90 -90zM524.999 -563.001l-90 90l90 90l90 -90zM626.999 -397.001l-90 90l90 90l90 -90zM630.999 -729.001l-90 90l90 90l90 -90z" />
    <glyph glyph-name="uniFB5C" unicode="&#x680;" horiz-adv-x="318" arabic-form="initial" 
d="M276 260c0 -96 -20.332 -164.332 -60.999 -204.999c-13.333 -13.333 -45.333 -26.333 -96 -39c-24.667 -5.33301 -46.834 -9.33301 -66.501 -12s-37.167 -4 -52.5 -4c-46.667 0 -70 25.333 -70 76s23.333 76 70 76h37c86 0 144 10.667 174 32
c0 41.333 -22 88.666 -66 141.999l45 104c3.33301 6.66699 7 10 11 10s9.33301 -5.33301 16 -16c39.333 -59.333 59 -114 59 -164zM259.496 -467.013l-84.4023 84.3086l84.4023 84.3086l84.4023 -84.3086zM63.4951 -472.634l-84.4023 84.3086l84.4023 84.3096
l84.4023 -84.3096zM159.151 -317.13l-84.4023 84.3086l84.4023 84.3086l84.4023 -84.3086zM162.902 -628.138l-84.4023 84.3096l84.4023 84.3096l84.4023 -84.3096z" />
    <glyph glyph-name="uniFB5D" unicode="&#x680;" horiz-adv-x="440" arabic-form="medial" 
d="M395 0c-33.333 0 -68.666 11.667 -105.999 35c-44 25.333 -71.333 57.333 -82 96c-40.667 -83.333 -109.667 -127 -207 -131c-46.667 -0 -70 25.333 -70 76s23.333 76 70 76h45c83.333 0 144.666 44.333 183.999 133c13.333 27.333 27 41 41 41c11.333 0 17 -5 17 -15
c0 -1.33301 -1.83301 -8.5 -5.5 -21.5s-5.5 -26.167 -5.5 -39.5c0 -65.333 56 -98 168 -98v-152h-49zM313.271 -448.158l-85.2646 85.1875l85.2646 85.1875l85.2646 -85.1875zM115.267 -453.838l-85.2646 85.1875l85.2646 85.1885l85.2646 -85.1885zM211.9 -296.713
l-85.2646 85.1875l85.2646 85.1875l85.2646 -85.1875zM215.689 -610.963l-85.2646 85.1885l85.2646 85.1885l85.2656 -85.1885z" />
    <glyph glyph-name="uniFB5F" unicode="&#x67a;" horiz-adv-x="1384" arabic-form="final" 
d="M1384 0c-21.333 0 -43.501 1.16602 -66.501 3.49902s-44.333 8 -64 17s-36.667 22.667 -51 41s-23.5 43.5 -27.5 75.5c-23.333 -19.333 -54.666 -40.5 -93.999 -63.5s-85.5 -44.5 -138.5 -64.5s-112 -36.667 -177 -50s-135.167 -20 -210.5 -20
c-93.333 0 -170.5 8.83301 -231.5 26.5s-109.5 39.834 -145.5 66.501s-61.167 55.667 -75.5 87s-21.5 60.666 -21.5 87.999c0 26.667 5 54 15 82s21.667 53.5 35 76.5s26.5 41.833 39.5 56.5s22.167 22 27.5 22c11.333 0 17 -4.66699 17 -14
c0 -3.33301 -2.5 -9.66602 -7.5 -18.999s-10.333 -20.833 -16 -34.5s-11 -28.834 -16 -45.501s-7.5 -34 -7.5 -52c0 -19.333 7 -40.166 21 -62.499s37.5 -42.833 70.5 -61.5s76.5 -34.167 130.5 -46.5s121 -18.5 201 -18.5c65.333 0 130 5.33301 194 16
s123 24.334 177 41.001s101 35.334 141 56.001s68.667 41 86 61c13.333 15.333 23.5 25.666 30.5 30.999s12.833 8 17.5 8c4 0 8 -1.66699 12 -5s6 -7 6 -11c0 -7.33301 -1.66699 -16.333 -5 -27s-5 -20.334 -5 -29.001c0 -6 2.5 -13.5 7.5 -22.5s12 -17.667 21 -26
s20.167 -15.5 33.5 -21.5s28 -9 44 -9h33v-152v0zM675.999 624.999l-90 90l90 90l90 -90zM678.999 420.999l-90 90l90 90l90 -90z" />
    <glyph glyph-name="uniFB60" unicode="&#x67a;" horiz-adv-x="318" arabic-form="initial" 
d="M276 260c0 -96 -20.332 -164.332 -60.999 -204.999c-13.333 -13.333 -45.333 -26.333 -96 -39c-24.667 -5.33301 -46.834 -9.33301 -66.501 -12s-37.167 -4 -52.5 -4c-46.667 0 -70 25.333 -70 76s23.333 76 70 76h37c86 0 144 10.667 174 32
c0 41.333 -22 88.666 -66 141.999l45 104c3.33301 6.66699 7 10 11 10s9.33301 -5.33301 16 -16c39.333 -59.333 59 -114 59 -164zM100.001 747.001l-90 90l90 90l90 -90zM103.001 543.001l-90 90l90 90l90 -90z" />
    <glyph glyph-name="uniFB61" unicode="&#x67a;" horiz-adv-x="440" arabic-form="medial" 
d="M395 0c-33.333 0 -68.666 11.667 -105.999 35c-44 25.333 -71.333 57.333 -82 96c-40.667 -83.333 -109.667 -127 -207 -131c-46.667 -0 -70 25.333 -70 76s23.333 76 70 76h45c83.333 0 144.666 44.333 183.999 133c13.333 27.333 27 41 41 41c11.333 0 17 -5 17 -15
c0 -1.33301 -1.83301 -8.5 -5.5 -21.5s-5.5 -26.167 -5.5 -39.5c0 -65.333 56 -98 168 -98v-152h-49zM231 612l-90 90l90 90l90 -90zM234 408l-90 90l90 90l90 -90z" />
    <glyph glyph-name="uniFB63" unicode="&#x67f;" horiz-adv-x="1384" arabic-form="final" 
d="M1384 0c-21.333 0 -43.501 1.16602 -66.501 3.49902s-44.333 8 -64 17s-36.667 22.667 -51 41s-23.5 43.5 -27.5 75.5c-23.333 -19.333 -54.666 -40.5 -93.999 -63.5s-85.5 -44.5 -138.5 -64.5s-112 -36.667 -177 -50s-135.167 -20 -210.5 -20
c-93.333 0 -170.5 8.83301 -231.5 26.5s-109.5 39.834 -145.5 66.501s-61.167 55.667 -75.5 87s-21.5 60.666 -21.5 87.999c0 26.667 5 54 15 82s21.667 53.5 35 76.5s26.5 41.833 39.5 56.5s22.167 22 27.5 22c11.333 0 17 -4.66699 17 -14
c0 -3.33301 -2.5 -9.66602 -7.5 -18.999s-10.333 -20.833 -16 -34.5s-11 -28.834 -16 -45.501s-7.5 -34 -7.5 -52c0 -19.333 7 -40.166 21 -62.499s37.5 -42.833 70.5 -61.5s76.5 -34.167 130.5 -46.5s121 -18.5 201 -18.5c65.333 0 130 5.33301 194 16
s123 24.334 177 41.001s101 35.334 141 56.001s68.667 41 86 61c13.333 15.333 23.5 25.666 30.5 30.999s12.833 8 17.5 8c4 0 8 -1.66699 12 -5s6 -7 6 -11c0 -7.33301 -1.66699 -16.333 -5 -27s-5 -20.334 -5 -29.001c0 -6 2.5 -13.5 7.5 -22.5s12 -17.667 21 -26
s20.167 -15.5 33.5 -21.5s28 -9 44 -9h33v-152v0zM822.999 590.999l-90 90l90 90l90 -90zM613.999 584.999l-90 90l90 90l90 -90zM715.999 750.999l-90 90l90 90l90 -90zM719.999 418.999l-90 90l90 90l90 -90z" />
    <glyph glyph-name="uniFB64" unicode="&#x67f;" horiz-adv-x="318" arabic-form="initial" 
d="M276 260c0 -96 -20.332 -164.332 -60.999 -204.999c-13.333 -13.333 -45.333 -26.333 -96 -39c-24.667 -5.33301 -46.834 -9.33301 -66.501 -12s-37.167 -4 -52.5 -4c-46.667 0 -70 25.333 -70 76s23.333 76 70 76h37c86 0 144 10.667 174 32
c0 41.333 -22 88.666 -66 141.999l45 104c3.33301 6.66699 7 10 11 10s9.33301 -5.33301 16 -16c39.333 -59.333 59 -114 59 -164zM242.001 748.001l-90 90l90 90l90 -90zM33.001 742.001l-90 90l90 90l90 -90zM135.001 908.001l-90 90l90 90l90 -90zM139.001 576.001
l-90 90l90 90l90 -90z" />
    <glyph glyph-name="uniFB65" unicode="&#x67f;" horiz-adv-x="440" arabic-form="medial" 
d="M395 0c-33.333 0 -68.666 11.667 -105.999 35c-44 25.333 -71.333 57.333 -82 96c-40.667 -83.333 -109.667 -127 -207 -131c-46.667 -0 -70 25.333 -70 76s23.333 76 70 76h45c83.333 0 144.666 44.333 183.999 133c13.333 27.333 27 41 41 41c11.333 0 17 -5 17 -15
c0 -1.33301 -1.83301 -8.5 -5.5 -21.5s-5.5 -26.167 -5.5 -39.5c0 -65.333 56 -98 168 -98v-152h-49zM330 648l-90 90l90 90l90 -90zM121 642l-90 90l90 90l90 -90zM223 808l-90 90l90 90l90 -90zM227 476l-90 90l90 90l90 -90z" />
    <glyph glyph-name="uniFB67" unicode="&#x679;" horiz-adv-x="1384" arabic-form="final" 
d="M1384 0c-21.333 0 -43.501 1.16602 -66.501 3.49902s-44.333 8 -64 17s-36.667 22.667 -51 41s-23.5 43.5 -27.5 75.5c-23.333 -19.333 -54.666 -40.5 -93.999 -63.5s-85.5 -44.5 -138.5 -64.5s-112 -36.667 -177 -50s-135.167 -20 -210.5 -20
c-93.333 0 -170.5 8.83301 -231.5 26.5s-109.5 39.834 -145.5 66.501s-61.167 55.667 -75.5 87s-21.5 60.666 -21.5 87.999c0 26.667 5 54 15 82s21.667 53.5 35 76.5s26.5 41.833 39.5 56.5s22.167 22 27.5 22c11.333 0 17 -4.66699 17 -14
c0 -3.33301 -2.5 -9.66602 -7.5 -18.999s-10.333 -20.833 -16 -34.5s-11 -28.834 -16 -45.501s-7.5 -34 -7.5 -52c0 -19.333 7 -40.166 21 -62.499s37.5 -42.833 70.5 -61.5s76.5 -34.167 130.5 -46.5s121 -18.5 201 -18.5c65.333 0 130 5.33301 194 16
s123 24.334 177 41.001s101 35.334 141 56.001s68.667 41 86 61c13.333 15.333 23.5 25.666 30.5 30.999s12.833 8 17.5 8c4 0 8 -1.66699 12 -5s6 -7 6 -11c0 -7.33301 -1.66699 -16.333 -5 -27s-5 -20.334 -5 -29.001c0 -6 2.5 -13.5 7.5 -22.5s12 -17.667 21 -26
s20.167 -15.5 33.5 -21.5s28 -9 44 -9h33v-152v0zM960.999 659.999c0 -12 -5.00098 -26.333 -15.001 -43c-4.66699 -9.33301 -9.83398 -17.5 -15.501 -24.5s-11.5 -13.5 -17.5 -19.5c-23.333 -21.333 -57 -38.666 -101 -51.999c-38 -10.667 -77 -16 -117 -16
c-32 0 -62.333 8 -91 24c-25.333 14 -38 25 -38 33c0 3.33301 5.33301 5 16 5h76c9.33301 0 18.333 3.33301 27 10c20.667 14.667 33.334 24.667 38.001 30c6.66699 10 10 19.667 10 29c0 32 -2 67 -6 105s-9.66699 79 -17 123c-8 10 -12 22.333 -12 37
c0 9.33301 7 26.666 21 51.999c4 6 7.33301 9 10 9c4.66699 0 7 -9 7 -27c0 -15.333 6.66699 -25 20 -29c10.667 -2.66699 16 -6 16 -10c0 -15.333 -1.33301 -28 -4 -38c-3.33301 -8 -6 -12 -8 -12c-1.33301 0 -3 0.166992 -5 0.5s-4.66699 1.16602 -8 2.49902
c4.66699 -30 8 -57.167 10 -81.5s3 -46.166 3 -65.499c0 -32.667 -2.33301 -56.334 -7 -71.001c54.667 54 98.334 81 131.001 81c14.667 0 30.667 -5 48 -15c19.333 -11.333 29 -23.666 29 -36.999zM922.998 625.999c0 4.66699 -6.99902 10.999 -20.999 18.999
c-14 7.33301 -29.333 11 -46 11c-14.667 0 -35.334 -8.33301 -62.001 -25c-14.667 -8.66699 -28.667 -18.167 -42 -28.5s-26 -22.166 -38 -35.499h24c37.333 0 78 6.66699 122 20c42 14 63 27 63 39z" />
    <glyph glyph-name="uniFB68" unicode="&#x679;" horiz-adv-x="318" arabic-form="initial" 
d="M276 260c0 -96 -20.332 -164.332 -60.999 -204.999c-13.333 -13.333 -45.333 -26.333 -96 -39c-24.667 -5.33301 -46.834 -9.33301 -66.501 -12s-37.167 -4 -52.5 -4c-46.667 0 -70 25.333 -70 76s23.333 76 70 76h37c86 0 144 10.667 174 32
c0 41.333 -22 88.666 -66 141.999l45 104c3.33301 6.66699 7 10 11 10s9.33301 -5.33301 16 -16c39.333 -59.333 59 -114 59 -164zM394.001 840.001c0 -12 -5.00098 -26.333 -15.001 -43c-4.66699 -9.33301 -9.83398 -17.5 -15.501 -24.5s-11.5 -13.5 -17.5 -19.5
c-23.333 -21.333 -57 -38.666 -101 -51.999c-38 -10.667 -77 -16 -117 -16c-32 0 -62.333 8 -91 24c-25.333 14 -38 25 -38 33c0 3.33301 5.33301 5 16 5h76c9.33301 0 18.333 3.33301 27 10c20.667 14.667 33.334 24.667 38.001 30c6.66699 10 10 19.667 10 29
c0 32 -2 67 -6 105s-9.66699 79 -17 123c-8 10 -12 22.333 -12 37c0 9.33301 7 26.666 21 51.999c4 6 7.33301 9 10 9c4.66699 0 7 -9 7 -27c0 -15.333 6.66699 -25 20 -29c10.667 -2.66699 16 -6 16 -10c0 -15.333 -1.33301 -28 -4 -38c-3.33301 -8 -6 -12 -8 -12
c-1.33301 0 -3 0.166992 -5 0.5s-4.66699 1.16602 -8 2.49902c4.66699 -30 8 -57.167 10 -81.5s3 -46.166 3 -65.499c0 -32.667 -2.33301 -56.334 -7 -71.001c54.667 54 98.334 81 131.001 81c14.667 0 30.667 -5 48 -15c19.333 -11.333 29 -23.666 29 -36.999zM356 806.001
c0 4.66699 -6.99902 10.999 -20.999 18.999c-14 7.33301 -29.333 11 -46 11c-14.667 0 -35.334 -8.33301 -62.001 -25c-14.667 -8.66699 -28.667 -18.167 -42 -28.5s-26 -22.166 -38 -35.499h24c37.333 0 78 6.66699 122 20c42 14 63 27 63 39z" />
    <glyph glyph-name="uniFB69" unicode="&#x679;" horiz-adv-x="440" arabic-form="medial" 
d="M395 0c-33.333 0 -68.666 11.667 -105.999 35c-44 25.333 -71.333 57.333 -82 96c-40.667 -83.333 -109.667 -127 -207 -131c-46.667 -0 -70 25.333 -70 76s23.333 76 70 76h45c83.333 0 144.666 44.333 183.999 133c13.333 27.333 27 41 41 41c11.333 0 17 -5 17 -15
c0 -1.33301 -1.83301 -8.5 -5.5 -21.5s-5.5 -26.167 -5.5 -39.5c0 -65.333 56 -98 168 -98v-152h-49zM417 702c0 -12 -5.00098 -26.333 -15.001 -43c-4.66699 -9.33301 -9.83398 -17.5 -15.501 -24.5s-11.5 -13.5 -17.5 -19.5c-23.333 -21.333 -57 -38.666 -101 -51.999
c-38 -10.667 -77 -16 -117 -16c-32 0 -62.333 8 -91 24c-25.333 14 -38 25 -38 33c0 3.33301 5.33301 5 16 5h76c9.33301 0 18.333 3.33301 27 10c20.667 14.667 33.334 24.667 38.001 30c6.66699 10 10 19.667 10 29c0 32 -2 67 -6 105s-9.66699 79 -17 123
c-8 10 -12 22.333 -12 37c0 9.33301 7 26.666 21 51.999c4 6 7.33301 9 10 9c4.66699 0 7 -9 7 -27c0 -15.333 6.66699 -25 20 -29c10.667 -2.66699 16 -6 16 -10c0 -15.333 -1.33301 -28 -4 -38c-3.33301 -8 -6 -12 -8 -12c-1.33301 0 -3 0.166992 -5 0.5
s-4.66699 1.16602 -8 2.49902c4.66699 -30 8 -57.167 10 -81.5s3 -46.166 3 -65.499c0 -32.667 -2.33301 -56.334 -7 -71.001c54.667 54 98.334 81 131.001 81c14.667 0 30.667 -5 48 -15c19.333 -11.333 29 -23.666 29 -36.999zM378.999 668
c0 4.66699 -6.99902 10.999 -20.999 18.999c-14 7.33301 -29.333 11 -46 11c-14.667 0 -35.334 -8.33301 -62.001 -25c-14.667 -8.66699 -28.667 -18.167 -42 -28.5s-26 -22.166 -38 -35.499h24c37.333 0 78 6.66699 122 20c42 14 63 27 63 39z" />
    <glyph glyph-name="afii57371" unicode="&#x6a4;" horiz-adv-x="1364" arabic-form="final" 
d="M1364 0c-135.333 0 -237 26.002 -305 78.002c-28 -20 -64.333 -38.333 -109 -55s-91.667 -31.167 -141 -43.5s-98 -21.833 -146 -28.5s-90 -10 -126 -10c-85.333 0 -158.833 7.5 -220.5 22.5s-113.167 37.5 -154.5 67.5c-66 46.667 -99 105.334 -99 176.001
c0 48 16.667 101.333 50 160c30 51.333 52.333 77 67 77c11.333 0 17 -4.66699 17 -14c0 3.33301 -8.33301 -14.334 -25 -53.001c-14.667 -38.667 -22 -71.334 -22 -98.001c0 -24 7.5 -46.5 22.5 -67.5s38.167 -40.167 69.5 -57.5c74.667 -42.667 185 -64 331 -64
c73.333 0 141.666 6.16699 204.999 18.5s122.666 30.166 177.999 53.499c-12 28 -18 58 -18 90c0 53.333 28.667 124.333 86 213c58.667 87.333 104.334 131 137.001 131c23.333 0 47.333 -25.333 72 -76s37 -99.667 37 -147c0 -19.333 -2.16699 -39.333 -6.5 -60
s-11.166 -41.667 -20.499 -63c-14 -37.333 -30.333 -65.333 -49 -84c15.333 -5.33301 35.5 -9 60.5 -11s55.5 -3 91.5 -3h18v-152zM1204 307.002c0 16 -8.66797 40 -26.001 72c-18.667 34 -34.667 51 -48 51c-19.333 0 -43.666 -15 -72.999 -45
c-35.333 -33.333 -53 -64 -53 -92c7.33301 -17.333 33 -44 77 -80c82 40.667 123 72 123 94zM1238 718.002l-90 90l90 90l90 -90zM1029 712.002l-90 90l90 90l90 -90zM1131 878.002l-90 90l90 90l90 -90z" />
    <glyph glyph-name="afii57372" unicode="&#x6a4;" horiz-adv-x="486" arabic-form="initial" 
d="M446 283c0 -56.667 -5.66602 -102.67 -16.999 -138.003s-28.666 -59.666 -51.999 -72.999c-42 -23.333 -90.167 -41.166 -144.5 -53.499s-114.833 -18.5 -181.5 -18.5h-51c-46.667 0 -70 25.333 -70 76s23.333 76 70 76h74c173.333 0 281.666 23.667 324.999 71
c0 8 -1.5 18.333 -4.5 31s-6.83301 26 -11.5 40s-10.167 27.333 -16.5 40s-12.5 23 -18.5 31c-26 -86 -67 -129 -123 -129c-18 0 -35.333 3.83301 -52 11.5s-31.334 18.167 -44.001 31.5s-22.667 29 -30 47s-11 37.667 -11 59c0 32 4.16699 63.167 12.5 93.5
s21.166 59.833 38.499 88.5c32.667 53.333 64 80 94 80c38.667 0 83.334 -36 134.001 -108c52.667 -79.333 79 -164.666 79 -255.999zM299.001 435.997c-23.333 48 -54 72 -92 72c-45.333 0 -68 -22.667 -68 -68c0 -7.33301 2.5 -15.333 7.5 -24s11.5 -16.667 19.5 -24
s17 -13.333 27 -18s20 -7 30 -7c44.667 0 70 23 76 69zM299.001 762.997l-90 90l90 90l90 -90zM90.001 756.997l-90 90l90 90l90 -90zM192.001 922.997l-90 90l90 90l90 -90z" />
    <glyph glyph-name="afii57369" unicode="&#x6a4;" horiz-adv-x="606" arabic-form="medial" 
d="M606 0c-157.333 0 -268.667 25.334 -334 76.001c-72.667 -50.667 -163.334 -76 -272.001 -76c-46.667 0 -70 25.333 -70 76s23.333 76 70 76h18c72.667 0 116.667 4 132 12c-3.33301 13.333 -5.66602 27 -6.99902 41s-2 28.333 -2 43c2 69.333 33.667 145.666 95 228.999
c56.667 79.333 103.667 119 141 119c23.333 0 47.333 -25.333 72 -76c24 -51.333 36 -100.333 36 -147c0 -40.667 -8.66699 -81.667 -26 -123c-14.667 -38 -31 -66 -49 -84c13.333 -5.33301 36.333 -9 69 -11s75 -3 127 -3v-152zM419.999 299.001
c0 18.667 -7.66699 43.999 -23 75.999c-16 36.667 -33.667 55 -53 55c-27.333 0 -57.333 -16.333 -90 -49c-31.333 -33.333 -47 -60.666 -47 -81.999s29.333 -53.333 88 -96c83.333 34.667 125 66.667 125 96zM450.999 719l-90 90l90 90l90 -90zM241.999 713l-90 90l90 90
l90 -90zM343.999 879l-90 90l90 90l90 -90z" />
    <glyph glyph-name="uniFB6f" unicode="&#x6a6;" horiz-adv-x="1364" arabic-form="final" 
d="M1364 0c-135.333 0 -237 26.002 -305 78.002c-28 -20 -64.333 -38.333 -109 -55s-91.667 -31.167 -141 -43.5s-98 -21.833 -146 -28.5s-90 -10 -126 -10c-85.333 0 -158.833 7.5 -220.5 22.5s-113.167 37.5 -154.5 67.5c-66 46.667 -99 105.334 -99 176.001
c0 48 16.667 101.333 50 160c30 51.333 52.333 77 67 77c11.333 0 17 -4.66699 17 -14c0 3.33301 -8.33301 -14.334 -25 -53.001c-14.667 -38.667 -22 -71.334 -22 -98.001c0 -24 7.5 -46.5 22.5 -67.5s38.167 -40.167 69.5 -57.5c74.667 -42.667 185 -64 331 -64
c73.333 0 141.666 6.16699 204.999 18.5s122.666 30.166 177.999 53.499c-12 28 -18 58 -18 90c0 53.333 28.667 124.333 86 213c58.667 87.333 104.334 131 137.001 131c23.333 0 47.333 -25.333 72 -76s37 -99.667 37 -147c0 -19.333 -2.16699 -39.333 -6.5 -60
s-11.166 -41.667 -20.499 -63c-14 -37.333 -30.333 -65.333 -49 -84c15.333 -5.33301 35.5 -9 60.5 -11s55.5 -3 91.5 -3h18v-152zM1204 307.002c0 16 -8.66797 40 -26.001 72c-18.667 34 -34.667 51 -48 51c-19.333 0 -43.666 -15 -72.999 -45
c-35.333 -33.333 -53 -64 -53 -92c7.33301 -17.333 33 -44 77 -80c82 40.667 123 72 123 94zM1259 865.002l-90 90l90 90l90 -90zM1050 859.002l-90 90l90 90l90 -90zM1152 1025l-90 90l90 90l90 -90zM1156 693.002l-90 90l90 90l90 -90z" />
    <glyph glyph-name="uniFB70" unicode="&#x6a6;" horiz-adv-x="508" arabic-form="initial" 
d="M446 283c0 -56.667 -5.66602 -102.67 -16.999 -138.003s-28.666 -59.666 -51.999 -72.999c-42 -23.333 -90.167 -41.166 -144.5 -53.499s-114.833 -18.5 -181.5 -18.5h-51c-46.667 0 -70 25.333 -70 76s23.333 76 70 76h74c173.333 0 281.666 23.667 324.999 71
c0 8 -1.5 18.333 -4.5 31s-6.83301 26 -11.5 40s-10.167 27.333 -16.5 40s-12.5 23 -18.5 31c-26 -86 -67 -129 -123 -129c-18 0 -35.333 3.83301 -52 11.5s-31.334 18.167 -44.001 31.5s-22.667 29 -30 47s-11 37.667 -11 59c0 32 4.16699 63.167 12.5 93.5
s21.166 59.833 38.499 88.5c32.667 53.333 64 80 94 80c38.667 0 83.334 -36 134.001 -108c52.667 -79.333 79 -164.666 79 -255.999zM299.001 435.997c-23.333 48 -54 72 -92 72c-45.333 0 -68 -22.667 -68 -68c0 -7.33301 2.5 -15.333 7.5 -24s11.5 -16.667 19.5 -24
s17 -13.333 27 -18s20 -7 30 -7c44.667 0 70 23 76 69zM302.001 948.997l-90 90l90 90l90 -90zM93.001 942.997l-90 90l90 90l90 -90zM195.001 1109l-90 90l90 90l90 -90zM199.001 776.997l-90 90l90 90l90 -90z" />
    <glyph glyph-name="uniFB71" unicode="&#x6a6;" horiz-adv-x="606" arabic-form="medial" 
d="M606 0c-157.333 0 -268.667 25.334 -334 76.001c-72.667 -50.667 -163.334 -76 -272.001 -76c-46.667 0 -70 25.333 -70 76s23.333 76 70 76h18c72.667 0 116.667 4 132 12c-3.33301 13.333 -5.66602 27 -6.99902 41s-2 28.333 -2 43c2 69.333 33.667 145.666 95 228.999
c56.667 79.333 103.667 119 141 119c23.333 0 47.333 -25.333 72 -76c24 -51.333 36 -100.333 36 -147c0 -40.667 -8.66699 -81.667 -26 -123c-14.667 -38 -31 -66 -49 -84c13.333 -5.33301 36.333 -9 69 -11s75 -3 127 -3v-152zM419.999 299.001
c0 18.667 -7.66699 43.999 -23 75.999c-16 36.667 -33.667 55 -53 55c-27.333 0 -57.333 -16.333 -90 -49c-31.333 -33.333 -47 -60.666 -47 -81.999s29.333 -53.333 88 -96c83.333 34.667 125 66.667 125 96zM426.999 877l-90 90l90 90l90 -90zM217.999 871l-90 90l90 90
l90 -90zM319.999 1037l-90 90l90 90l90 -90zM323.999 705l-90 90l90 90l90 -90z" />
    <glyph glyph-name="uniFB73" unicode="&#x684;" horiz-adv-x="1063" arabic-form="final" 
d="M1153 -666c0 -11.333 -20.3369 -21.999 -61.0039 -31.999c-19.333 -4 -90.333 -26.667 -213 -68c-36 -11.333 -74.167 -20 -114.5 -26s-83.5 -9 -129.5 -9c-87.333 0 -164.166 7 -230.499 21s-122.5 35 -168.5 63c-118 72.667 -177 195 -177 367
c0 132 31.667 249.333 95 352c26.667 44 60.334 87.667 101.001 131s89.334 87 146.001 131c-26 10 -64.667 15 -116 15c-23.333 0 -44.5 -3 -63.5 -9s-36.167 -14.667 -51.5 -26c-8 -6 -19.667 -20.333 -35 -43c-9.33301 -18 -19 -27 -29 -27
c-9.33301 0 -14 8.33301 -14 25c0 44 22 91 66 141c47.333 53.333 112 80 194 80c21.333 0 70 -4 146 -12c38 -3.33301 71.333 -6 100 -8s52.667 -3 72 -3c53.333 0 101.833 1.66699 145.5 5s82.5 8.66602 116.5 15.999l-53 -133l-107 -13
c-6.66699 -11.333 -10 -34.333 -10 -69c0 -20.667 8.16699 -34.334 24.5 -41.001s41.5 -10 75.5 -10h201v-152h-203c-51.333 0 -89.666 13 -114.999 39s-38 66.333 -38 121c0 34.667 6.66699 70.667 20 108c-177.333 -22 -320 -85.333 -428 -190
c-99.333 -97.333 -149 -214 -149 -350c0 -149.333 57.333 -254 172 -314c103.333 -55.333 266.333 -79.666 489 -72.999l291 6c34 2 51 -2.33301 51 -13zM619.996 -262.999l-90 90l90 90l90 -90zM622.996 -466.999l-90 90l90 90l90 -90z" />
    <glyph glyph-name="uniFB74" unicode="&#x684;" horiz-adv-x="996" arabic-form="initial" 
d="M877 141c-2 0 -6.83203 0.169922 -14.499 0.50293s-16.334 0.833008 -26.001 1.5s-19.834 1.16699 -30.501 1.5s-20 0.5 -28 0.5c-136 0 -273 -23.667 -411 -71c-71.333 -24.667 -137.333 -43.167 -198 -55.5s-117 -18.5 -169 -18.5c-46.667 0 -70 25.333 -70 76
s23.333 76 70 76c93.333 0 180.5 5.66699 261.5 17s156.833 28.666 227.5 51.999c-120 70 -201.667 105 -245 105c-38 0 -69.333 -10.333 -94 -31c-25.333 -19.333 -40.666 -29 -45.999 -29c-8 0 -12 7 -12 21c0 23.333 13.667 54.666 41 93.999
c19.333 25.333 41.5 44.666 66.5 57.999s53.5 20 85.5 20c38.667 0 119 -29.333 241 -88c62 -30 121 -52.167 177 -66.5s109 -21.5 159 -21.5h90zM427.001 -331.997l-90 90l90 90l90 -90zM430.001 -535.997l-90 90l90 90l90 -90z" />
    <glyph glyph-name="uniFB75" unicode="&#x684;" horiz-adv-x="1063" arabic-form="medial" 
d="M871 0c-51.333 0 -91.502 13.001 -120.502 39.001s-43.5 66.333 -43.5 121c0 7.33301 0.5 15.833 1.5 25.5s2.5 20.167 4.5 31.5c-60.667 -9.33301 -125.167 -26 -193.5 -50s-141.166 -55 -218.499 -93c-100.667 -49.333 -201 -74 -301 -74c-46.667 0 -70 25.333 -70 76
s23.333 76 70 76c189.333 0 349 42.333 479 127c-66 25.333 -120 44.166 -162 56.499s-72.667 18.5 -92 18.5c-22 0 -43.667 -8.66699 -65 -26c-22.667 -16.667 -37 -25 -43 -25c-11.333 0 -17 7 -17 21c0 21.333 14.333 52 43 92c41.333 53.333 91.333 80 150 80
c37.333 0 99.333 -18.667 186 -56c58 -24.667 115.833 -43 173.5 -55s115.834 -18 174.501 -18h88l-53 -131l-112 -13v-16c0 -21.333 11 -35.833 33 -43.5s52 -11.5 90 -11.5h190v-152h-192zM401.998 -361.999l-90 90l90 90l90 -90zM404.998 -565.999l-90 90l90 90l90 -90z
" />
    <glyph glyph-name="uniFB77" unicode="&#x683;" horiz-adv-x="1063" arabic-form="final" 
d="M1153 -666c0 -11.333 -20.3369 -21.999 -61.0039 -31.999c-19.333 -4 -90.333 -26.667 -213 -68c-36 -11.333 -74.167 -20 -114.5 -26s-83.5 -9 -129.5 -9c-87.333 0 -164.166 7 -230.499 21s-122.5 35 -168.5 63c-118 72.667 -177 195 -177 367
c0 132 31.667 249.333 95 352c26.667 44 60.334 87.667 101.001 131s89.334 87 146.001 131c-26 10 -64.667 15 -116 15c-23.333 0 -44.5 -3 -63.5 -9s-36.167 -14.667 -51.5 -26c-8 -6 -19.667 -20.333 -35 -43c-9.33301 -18 -19 -27 -29 -27
c-9.33301 0 -14 8.33301 -14 25c0 44 22 91 66 141c47.333 53.333 112 80 194 80c21.333 0 70 -4 146 -12c38 -3.33301 71.333 -6 100 -8s52.667 -3 72 -3c53.333 0 101.833 1.66699 145.5 5s82.5 8.66602 116.5 15.999l-53 -133l-107 -13
c-6.66699 -11.333 -10 -34.333 -10 -69c0 -20.667 8.16699 -34.334 24.5 -41.001s41.5 -10 75.5 -10h201v-152h-203c-51.333 0 -89.666 13 -114.999 39s-38 66.333 -38 121c0 34.667 6.66699 70.667 20 108c-177.333 -22 -320 -85.333 -428 -190
c-99.333 -97.333 -149 -214 -149 -350c0 -149.333 57.333 -254 172 -314c103.333 -55.333 266.333 -79.666 489 -72.999l291 6c34 2 51 -2.33301 51 -13zM545.996 -358.999l-93 93l93 93l93 -93zM742.996 -350.999l-93 93l93 93l93 -93z" />
    <glyph glyph-name="uniFB78" unicode="&#x683;" horiz-adv-x="996" arabic-form="initial" 
d="M877 141c-2 0 -6.83203 0.169922 -14.499 0.50293s-16.334 0.833008 -26.001 1.5s-19.834 1.16699 -30.501 1.5s-20 0.5 -28 0.5c-136 0 -273 -23.667 -411 -71c-71.333 -24.667 -137.333 -43.167 -198 -55.5s-117 -18.5 -169 -18.5c-46.667 0 -70 25.333 -70 76
s23.333 76 70 76c93.333 0 180.5 5.66699 261.5 17s156.833 28.666 227.5 51.999c-120 70 -201.667 105 -245 105c-38 0 -69.333 -10.333 -94 -31c-25.333 -19.333 -40.666 -29 -45.999 -29c-8 0 -12 7 -12 21c0 23.333 13.667 54.666 41 93.999
c19.333 25.333 41.5 44.666 66.5 57.999s53.5 20 85.5 20c38.667 0 119 -29.333 241 -88c62 -30 121 -52.167 177 -66.5s109 -21.5 159 -21.5h90zM346.001 -369.997l-93 93l93 93l93 -93zM543.001 -361.997l-93 93l93 93l93 -93z" />
    <glyph glyph-name="uniFB79" unicode="&#x683;" horiz-adv-x="1063" arabic-form="medial" 
d="M871 0c-51.333 0 -91.502 13.001 -120.502 39.001s-43.5 66.333 -43.5 121c0 7.33301 0.5 15.833 1.5 25.5s2.5 20.167 4.5 31.5c-60.667 -9.33301 -125.167 -26 -193.5 -50s-141.166 -55 -218.499 -93c-100.667 -49.333 -201 -74 -301 -74c-46.667 0 -70 25.333 -70 76
s23.333 76 70 76c189.333 0 349 42.333 479 127c-66 25.333 -120 44.166 -162 56.499s-72.667 18.5 -92 18.5c-22 0 -43.667 -8.66699 -65 -26c-22.667 -16.667 -37 -25 -43 -25c-11.333 0 -17 7 -17 21c0 21.333 14.333 52 43 92c41.333 53.333 91.333 80 150 80
c37.333 0 99.333 -18.667 186 -56c58 -24.667 115.833 -43 173.5 -55s115.834 -18 174.501 -18h88l-53 -131l-112 -13v-16c0 -21.333 11 -35.833 33 -43.5s52 -11.5 90 -11.5h190v-152h-192zM369.998 -398.999l-93 93l93 93l93 -93zM566.998 -390.999l-93 93l93 93l93 -93z
" />
    <glyph glyph-name="afii62961" unicode="&#x686;" horiz-adv-x="1063" arabic-form="final" 
d="M1153 -666c0 -11.333 -20.3369 -21.999 -61.0039 -31.999c-19.333 -4 -90.333 -26.667 -213 -68c-36 -11.333 -74.167 -20 -114.5 -26s-83.5 -9 -129.5 -9c-87.333 0 -164.166 7 -230.499 21s-122.5 35 -168.5 63c-118 72.667 -177 195 -177 367
c0 132 31.667 249.333 95 352c26.667 44 60.334 87.667 101.001 131s89.334 87 146.001 131c-26 10 -64.667 15 -116 15c-23.333 0 -44.5 -3 -63.5 -9s-36.167 -14.667 -51.5 -26c-8 -6 -19.667 -20.333 -35 -43c-9.33301 -18 -19 -27 -29 -27
c-9.33301 0 -14 8.33301 -14 25c0 44 22 91 66 141c47.333 53.333 112 80 194 80c21.333 0 70 -4 146 -12c38 -3.33301 71.333 -6 100 -8s52.667 -3 72 -3c53.333 0 101.833 1.66699 145.5 5s82.5 8.66602 116.5 15.999l-53 -133l-107 -13
c-6.66699 -11.333 -10 -34.333 -10 -69c0 -20.667 8.16699 -34.334 24.5 -41.001s41.5 -10 75.5 -10h201v-152h-203c-51.333 0 -89.666 13 -114.999 39s-38 66.333 -38 121c0 34.667 6.66699 70.667 20 108c-177.333 -22 -320 -85.333 -428 -190
c-99.333 -97.333 -149 -214 -149 -350c0 -149.333 57.333 -254 172 -314c103.333 -55.333 266.333 -79.666 489 -72.999l291 6c34 2 51 -2.33301 51 -13zM454.996 -142.999l90 -90l-90 -90l-90 90zM663.996 -136.999l90 -90l-90 -90l-90 90zM561.996 -302.999l90 -90
l-90 -90l-90 90z" />
    <glyph glyph-name="afii62959" unicode="&#x686;" horiz-adv-x="996" arabic-form="initial" 
d="M877 141c-2 0 -6.83203 0.169922 -14.499 0.50293s-16.334 0.833008 -26.001 1.5s-19.834 1.16699 -30.501 1.5s-20 0.5 -28 0.5c-136 0 -273 -23.667 -411 -71c-71.333 -24.667 -137.333 -43.167 -198 -55.5s-117 -18.5 -169 -18.5c-46.667 0 -70 25.333 -70 76
s23.333 76 70 76c93.333 0 180.5 5.66699 261.5 17s156.833 28.666 227.5 51.999c-120 70 -201.667 105 -245 105c-38 0 -69.333 -10.333 -94 -31c-25.333 -19.333 -40.666 -29 -45.999 -29c-8 0 -12 7 -12 21c0 23.333 13.667 54.666 41 93.999
c19.333 25.333 41.5 44.666 66.5 57.999s53.5 20 85.5 20c38.667 0 119 -29.333 241 -88c62 -30 121 -52.167 177 -66.5s109 -21.5 159 -21.5h90zM339.001 -116.997l90 -90l-90 -90l-90 90zM548.001 -110.997l90 -90l-90 -90l-90 90zM446.001 -276.997l90 -90l-90 -90
l-90 90z" />
    <glyph glyph-name="afii62960" unicode="&#x686;" horiz-adv-x="1063" arabic-form="medial" 
d="M871 0c-51.333 0 -91.502 13.001 -120.502 39.001s-43.5 66.333 -43.5 121c0 7.33301 0.5 15.833 1.5 25.5s2.5 20.167 4.5 31.5c-60.667 -9.33301 -125.167 -26 -193.5 -50s-141.166 -55 -218.499 -93c-100.667 -49.333 -201 -74 -301 -74c-46.667 0 -70 25.333 -70 76
s23.333 76 70 76c189.333 0 349 42.333 479 127c-66 25.333 -120 44.166 -162 56.499s-72.667 18.5 -92 18.5c-22 0 -43.667 -8.66699 -65 -26c-22.667 -16.667 -37 -25 -43 -25c-11.333 0 -17 7 -17 21c0 21.333 14.333 52 43 92c41.333 53.333 91.333 80 150 80
c37.333 0 99.333 -18.667 186 -56c58 -24.667 115.833 -43 173.5 -55s115.834 -18 174.501 -18h88l-53 -131l-112 -13v-16c0 -21.333 11 -35.833 33 -43.5s52 -11.5 90 -11.5h190v-152h-192zM319.998 -144.999l90 -90l-90 -90l-90 90zM528.998 -138.999l90 -90l-90 -90
l-90 90zM426.998 -304.999l90 -90l-90 -90l-90 90z" />
    </font>
</defs>
</svg>
