<?xml version="1.0" standalone="no"?>
<!DOCTYPE svg PUBLIC "-//W3C//DTD SVG 1.1//EN" "http://www.w3.org/Graphics/SVG/1.1/DTD/svg11.dtd" >
<svg>
<metadata>
Created by FontForge 20090914 at Wed Aug 26 07:44:17 2015
 By www-data
Typeface &#194;&#169; The scict.ir Corporation plc. Data &#194;&#169; The scict.ir Corporation plc/Type Solutions Inc. 2012-2013. All Rights Reserved.Modify by Hossein Zahedi.
</metadata>
<defs>
<font id="IRBadr-Italic" horiz-adv-x="0" >
  <font-face 
    font-family="IRBadr"
    font-weight="400"
    font-style="italic"
    font-stretch="normal"
    units-per-em="2048"
    panose-1="2 0 5 3 0 0 0 2 0 2"
    ascent="1638"
    descent="-410"
    x-height="733"
    cap-height="1085"
    bbox="-688.092 -994 2610 1918"
    underline-thickness="60"
    underline-position="-40"
    unicode-range="U+0020-U+FFFC"
  />
<missing-glyph horiz-adv-x="496" 
 />
    <glyph glyph-name="afii64184" unicode="&#xfedf;&#xfee0;&#x651;&#x670;&#xfeea;" horiz-adv-x="1370" arabic-form="isolated" 
d="M1221 236c9.33301 -42.667 6.66406 -90.6641 -8.00293 -143.997c-6.66699 -32.667 -18.5 -56.834 -35.5 -72.501s-34.167 -23.5 -51.5 -23.5c-47.333 0 -96.166 12 -146.499 36s-97.833 61 -142.5 111c-12 -62.667 -34.167 -109.334 -66.5 -140.001
s-73.166 -46 -122.499 -46c-118 0 -197.333 97 -238 291l-72 -74c-23.333 -22 -54.666 -33 -93.999 -33c-28.667 0 -67.667 4.33301 -117 13c-55.333 10 -83.666 18 -84.999 24c-1.33301 4 -1.16602 11.5 0.500977 22.5s6.5 24.833 14.5 41.5
c5.33301 16 11.166 31.167 17.499 45.5s14.166 27.833 23.499 40.5c21.333 28.667 52.833 60.5 94.5 95.5s93.5 73.5 155.5 115.5c-4 104.667 2 157 18 157c23.333 0 61 -122.667 113 -368c16.667 -78 38.667 -133 66 -165s60.666 -48 99.999 -48c36 0 67.667 8.66699 95 26
s49 44 65 80l-151 459c6 48 10.667 83.833 14 107.5s7 35.5 11 35.5c10 0 19 -15 27 -45l130 -375c14.667 -43.333 32.167 -80.666 52.5 -111.999s42.5 -57.333 66.5 -78s49.333 -36 76 -46s53.667 -15 81 -15c13.333 0 24.5 1.66699 33.5 5s12.833 7.66602 11.5 12.999
c0 1.33301 -3 8.83301 -9 22.5l-24.5 55.5l-38 83l-50.5 105l-83 185c-19.333 44.667 -30.333 72.667 -33 84c-3.33301 15.333 0.333984 39.666 11.001 72.999c5.33301 17.333 10.5 31.333 15.5 42s10.5 18 16.5 22c1.33301 -7.33301 11.833 -33.5 31.5 -78.5
s49.167 -109.167 88.5 -192.5l52 -116l42.5 -99c12.333 -29.333 22.333 -54.5 30 -75.5s12.5 -35.833 14.5 -44.5zM392.998 328.003c-1.33301 8 -1.99902 16.6699 -1.99902 26.0029s-1.33301 19.666 -4 30.999c-3.33301 12.667 -6.5 23.667 -9.5 33
s-6.16699 18.666 -9.5 27.999c-11.333 -5.33301 -24.833 -12.666 -40.5 -21.999s-34.167 -22.333 -55.5 -39l-52.5 -43.5c-13.667 -11.667 -23.834 -21.834 -30.501 -30.501c17.333 -8 35.333 -13.667 54 -17s37.667 -5 57 -5s37 3.16699 53 9.5s29.333 16.166 40 29.499z
M775.999 1100.01c2.66699 -13.333 2.99707 -27.1709 0.99707 -41.5039s-6.33301 -27.166 -13 -38.499c-9.33301 -17.333 -20.666 -31.5 -33.999 -42.5s-28.666 -16.5 -45.999 -16.5c-11.333 0 -23 1 -35 3s-23.333 5.66699 -34 11c-36 -49.333 -74.333 -74 -115 -74
c-23.333 0 -43.833 7.33301 -61.5 22s-29.167 36 -34.5 64c-3.33301 14 -4.16602 30.5 -2.49902 49.5s4.5 37.167 8.5 54.5s9.16699 32 15.5 44s13.166 18 20.499 18c5.33301 0 9.5 -2.66699 12.5 -8s5.16699 -11.666 6.5 -18.999c1.33301 -6 1.33301 -13 0 -21
s-2.83301 -16.333 -4.5 -25s-3.16699 -17.667 -4.5 -27s-1 -18.333 1 -27c2 -9.33301 6 -16.833 12 -22.5s13 -8.5 21 -8.5c26.667 0 46.667 13 60 39v49c0 18 1.33301 35 4 51s7 29.333 13 40s14.667 16 26 16c10 0 16 -3.33301 18 -10
c0.666992 -5.33301 0 -15.166 -2 -29.499s-1.33301 -29.833 2 -46.5c8 -36.667 29.667 -55 65 -55c2.66699 0 6.33398 0.666992 11.001 2s9 3 13 5s7.33301 4.66699 10 8s3.66699 7 3 11c-3.33301 16.667 -7 32.834 -11 48.501l-14 52.5c0 0.666992 1 4 3 10
s4.83301 12.5 8.5 19.5s7.66699 13.333 12 19s8.5 8.5 12.5 8.5s8.5 -4.83301 13.5 -14.5s10 -21.334 15 -35.001s9.5 -28.167 13.5 -43.5s7.33301 -28.666 10 -39.999zM556.996 1423c4.66699 -20.667 7.16699 -41.333 7.5 -62s-1.16699 -41.667 -4.5 -63l-11 -37.5
c-2.66699 -9 -8 -13.5 -16 -13.5c-5.33301 0 -9.16602 1.66699 -11.499 5s-4.16602 9.33301 -5.49902 18c-1.33301 5.33301 -2.5 16 -3.5 32s-3.83301 34.667 -8.5 56c-5.33301 25.333 -14 50.833 -26 76.5s-29.667 53.5 -53 83.5c5.33301 32.667 10.166 56.5 14.499 71.5
s9.16602 22.5 14.499 22.5c7.33301 0 14.833 -5.16699 22.5 -15.5s17.5 -25.833 29.5 -46.5c24 -38.667 41 -81 51 -127z" />
    <glyph glyph-name="afii62834" unicode="&#xfedf;&#xfe82;" horiz-adv-x="1069" arabic-form="isolated" 
d="M819 981c0.666992 -3.33301 -1.66504 -15.998 -6.99805 -37.998s-14 -53.667 -26 -95l-25 10c7.33301 -32 12.833 -67 16.5 -105s5.83398 -80 6.50098 -126c0 -54.667 -1.83301 -105 -5.5 -151s-10.167 -88 -19.5 -126c40 -48 71.333 -91.5 94 -130.5
s37.334 -73.833 44.001 -104.5c10 -46 10.167 -78.667 0.5 -98s-31.167 -31 -64.5 -35c-44.667 -6.66699 -88.167 -11.5 -130.5 -14.5s-83.5 -4.5 -123.5 -4.5c-61.333 0 -95.333 17 -102 51l-14 62c-6 28.667 -1.66699 43 13 43c1.33301 0 6.5 -1.66699 15.5 -5
s18.167 -5 27.5 -5c25.333 0 52 17.833 80 53.5s56.333 90.167 85 163.5c-30.667 34 -67.334 71.667 -110.001 113l-145 134l-143.5 123.5c-41 33.667 -76.5 60.167 -106.5 79.5c-15.333 -18.667 -31 -28 -47 -28c-10 0 -27.833 5.66699 -53.5 17
s-59.5 28.666 -101.5 51.999c-32.667 18.667 -54.334 53.667 -65.001 105c-16 76 -11.333 114 14 114c59.333 0 162.333 -58.667 309 -176c78.667 -62 157.167 -130.667 235.5 -206s157.166 -159 236.499 -251c5.33301 19.333 8.33301 46.666 9 81.999s-1 79 -5 131
c-3.33301 56.667 -8.5 112.167 -15.5 166.5s-16.167 107.5 -27.5 159.5c-19.333 15.333 -30.666 29.666 -33.999 42.999c-1.33301 5.33301 -0.5 16.333 2.5 33s8.16699 39 15.5 67c14.667 56 26.334 84 35.001 84c12.667 0 21 -9.33301 25 -28
c1.33301 -4 2.16602 -11.667 2.49902 -23s1.16602 -20.666 2.49902 -27.999c7.33301 -34 31.666 -62 72.999 -84c17.333 -8.66699 27 -17 29 -25zM840.001 143.002c-5.33301 22.667 -40.667 67 -106 133c-11.333 -30 -24.333 -58.667 -39 -86s-31.667 -54.333 -51 -81
c134 8 199.333 19.333 196 34zM-164 1296c7.33301 0 24.002 -3.33301 50.002 -10c32 -8 65.333 -12 100 -12c60 0 115.667 10.333 167 31s85.333 46.667 102 78c3.33301 5.33301 6.33301 8 9 8l3 -1c2 -1.33301 3 -3.33301 3 -6c3.33301 -13.333 1.33301 -31.333 -6 -54
s-17 -41.667 -29 -57c-24.667 -30.667 -64.334 -56.167 -119.001 -76.5s-110.667 -30.5 -168 -30.5c-22 0 -47 2.33301 -75 7l-27 4c-6.66699 1.33301 -12 2 -16 2c-22 0 -47 -16.667 -75 -50c-3.33301 -4 -6 -6 -8 -6c-4.66699 0 -8 5 -10 15
c-4.66699 21.333 -0.333984 49.333 12.999 84c10 22.667 22.5 40.667 37.5 54s31.167 20 48.5 20z" />
    <glyph glyph-name="afii62835" unicode="&#xfee0;&#xfe82;" horiz-adv-x="1113" arabic-form="final" 
d="M1113 0c-116.667 0 -202.665 60.001 -257.998 180.001c-15.333 33.333 -35.833 86.5 -61.5 159.5s-56.834 166.833 -93.501 281.5c7.33301 -116 6.16602 -215.167 -3.50098 -297.5s-27.167 -149.166 -52.5 -200.499c-19.333 -40 -46.833 -74 -82.5 -102
s-79.5 -50.667 -131.5 -68c-84 -28.667 -159.333 -43 -226 -43c-9.33301 0 -16.833 1.5 -22.5 4.5s-9.16699 7.5 -10.5 13.5c-3.33301 11.333 9.33398 21 38.001 29c35.333 11.333 71.5 27.166 108.5 47.499s75.5 45.5 115.5 75.5c44 32.667 79.833 65.167 107.5 97.5
s47.167 64.5 58.5 96.5c-17.333 81.333 -64 165 -140 251s-182.667 176 -320 270c-27.333 -24.667 -50.333 -37 -69 -37c-9.33301 0 -22.5 4.66699 -39.5 14s-38.833 23.666 -65.5 42.999c-54 40 -83 70 -87 90c-2.66699 11.333 -3.66699 23.666 -3 36.999
s1.66699 27.666 3 42.999c4 38 14.333 57 31 57c15.333 0 36.666 -6.16699 63.999 -18.5s61.333 -31.166 102 -56.499c88 -54.667 175.667 -119.667 263 -195c153.333 -132 247.333 -278.667 282 -440c16.667 60.667 23.5 133.334 20.5 218.001s-16.167 182.667 -39.5 294
c-3.33301 16.667 -7.33301 33.334 -12 50.001l-13 45c-4 13.333 -7.5 24.166 -10.5 32.499s-4.5 12.833 -4.5 13.5c25.333 113.333 41.333 170 48 170c5.33301 0 27.666 -64.667 66.999 -194c30 -102 61.333 -202.667 94 -302s67.334 -199 104.001 -299
c15.333 -42 30.5 -77 45.5 -105s30.167 -49.667 45.5 -65c28 -25.333 66.333 -38 115 -38l33 -152v0zM-169.998 1323c7.33301 0 24.002 -3.33301 50.002 -10c32 -8 65.333 -12 100 -12c60 0 115.667 10.333 167 31s85.333 46.667 102 78c3.33301 5.33301 6.33301 8 9 8l3 -1
c2 -1.33301 3 -3.33301 3 -6c3.33301 -13.333 1.33301 -31.333 -6 -54s-17 -41.667 -29 -57c-24.667 -30.667 -64.334 -56.167 -119.001 -76.5s-110.667 -30.5 -168 -30.5c-22 0 -47 2.33301 -75 7l-27 4c-6.66699 1.33301 -12 2 -16 2c-22 0 -47 -16.667 -75 -50
c-3.33301 -4 -6 -6 -8 -6c-4.66699 0 -8 5 -10 15c-4.66699 21.333 -0.333984 49.333 12.999 84c10 22.667 22.5 40.667 37.5 54s31.167 20 48.5 20z" />
    <glyph glyph-name="afii62836" unicode="&#xfedf;&#xfe84;" horiz-adv-x="1069" arabic-form="isolated" 
d="M819 981c0.666992 -3.33301 -1.66504 -15.998 -6.99805 -37.998s-14 -53.667 -26 -95l-25 10c7.33301 -32 12.833 -67 16.5 -105s5.83398 -80 6.50098 -126c0 -54.667 -1.83301 -105 -5.5 -151s-10.167 -88 -19.5 -126c40 -48 71.333 -91.5 94 -130.5
s37.334 -73.833 44.001 -104.5c10 -46 10.167 -78.667 0.5 -98s-31.167 -31 -64.5 -35c-44.667 -6.66699 -88.167 -11.5 -130.5 -14.5s-83.5 -4.5 -123.5 -4.5c-61.333 0 -95.333 17 -102 51l-14 62c-6 28.667 -1.66699 43 13 43c1.33301 0 6.5 -1.66699 15.5 -5
s18.167 -5 27.5 -5c25.333 0 52 17.833 80 53.5s56.333 90.167 85 163.5c-30.667 34 -67.334 71.667 -110.001 113l-145 134l-143.5 123.5c-41 33.667 -76.5 60.167 -106.5 79.5c-15.333 -18.667 -31 -28 -47 -28c-10 0 -27.833 5.66699 -53.5 17
s-59.5 28.666 -101.5 51.999c-32.667 18.667 -54.334 53.667 -65.001 105c-16 76 -11.333 114 14 114c59.333 0 162.333 -58.667 309 -176c78.667 -62 157.167 -130.667 235.5 -206s157.166 -159 236.499 -251c5.33301 19.333 8.33301 46.666 9 81.999s-1 79 -5 131
c-3.33301 56.667 -8.5 112.167 -15.5 166.5s-16.167 107.5 -27.5 159.5c-19.333 15.333 -30.666 29.666 -33.999 42.999c-1.33301 5.33301 -0.5 16.333 2.5 33s8.16699 39 15.5 67c14.667 56 26.334 84 35.001 84c12.667 0 21 -9.33301 25 -28
c1.33301 -4 2.16602 -11.667 2.49902 -23s1.16602 -20.666 2.49902 -27.999c7.33301 -34 31.666 -62 72.999 -84c17.333 -8.66699 27 -17 29 -25zM840.001 143.002c-5.33301 22.667 -40.667 67 -106 133c-11.333 -30 -24.333 -58.667 -39 -86s-31.667 -54.333 -51 -81
c134 8 199.333 19.333 196 34zM94 1244c0.666992 -3.33301 1.16504 -7.66895 1.49805 -13.002s-0.166992 -10.666 -1.5 -15.999s-3.66602 -10 -6.99902 -14s-8 -6.66699 -14 -8c-6.66699 0 -16.167 -0.333008 -28.5 -1s-25.833 -2.5 -40.5 -5.5s-29.667 -7.33301 -45 -13
s-29 -13.5 -41 -23.5c-4 -2.66699 -9.16699 -7.16699 -15.5 -13.5s-12.833 -9.5 -19.5 -9.5c-6 0 -10 4.33301 -12 13c-1.33301 5.33301 0.166992 13.5 4.5 24.5s13.166 25.167 26.499 42.5c-38 19.333 -59.333 41 -64 65c-2 9.33301 -1.5 19 1.5 29s9.5 20.667 19.5 32
c40.667 42.667 76.334 64 107.001 64c18 0 32.5 -4.66699 43.5 -14s17.5 -18.666 19.5 -27.999c1.33301 -6 1 -11.5 -1 -16.5s-4.83301 -9.33301 -8.5 -13s-7.83398 -6.5 -12.501 -8.5s-8.66699 -3 -12 -3s-7.16602 1.16699 -11.499 3.5l-14 7.5
c-5 2.66699 -10.167 5.16699 -15.5 7.5s-11 3.5 -17 3.5c-12.667 0 -22.5 -3 -29.5 -9s-9.5 -13.667 -7.5 -23c0.666992 -5.33301 3.66699 -11.333 9 -18s11.833 -12.667 19.5 -18s16.167 -9.83301 25.5 -13.5s19 -5.5 29 -5.5c4.66699 0 11.834 0.333008 21.501 1
s19.5 1.5 29.5 2.5s19.333 2 28 3s14 1.5 16 1.5c8.66699 0 14 -4.33301 16 -13z" />
    <glyph glyph-name="afii62837" unicode="&#xfee0;&#xfe84;" horiz-adv-x="1113" arabic-form="final" 
d="M1113 0c-116.667 0 -202.665 60.001 -257.998 180.001c-15.333 33.333 -35.833 86.5 -61.5 159.5s-56.834 166.833 -93.501 281.5c7.33301 -116 6.16602 -215.167 -3.50098 -297.5s-27.167 -149.166 -52.5 -200.499c-19.333 -40 -46.833 -74 -82.5 -102
s-79.5 -50.667 -131.5 -68c-84 -28.667 -159.333 -43 -226 -43c-9.33301 0 -16.833 1.5 -22.5 4.5s-9.16699 7.5 -10.5 13.5c-3.33301 11.333 9.33398 21 38.001 29c35.333 11.333 71.5 27.166 108.5 47.499s75.5 45.5 115.5 75.5c44 32.667 79.833 65.167 107.5 97.5
s47.167 64.5 58.5 96.5c-17.333 81.333 -64 165 -140 251s-182.667 176 -320 270c-27.333 -24.667 -50.333 -37 -69 -37c-9.33301 0 -22.5 4.66699 -39.5 14s-38.833 23.666 -65.5 42.999c-54 40 -83 70 -87 90c-2.66699 11.333 -3.66699 23.666 -3 36.999
s1.66699 27.666 3 42.999c4 38 14.333 57 31 57c15.333 0 36.666 -6.16699 63.999 -18.5s61.333 -31.166 102 -56.499c88 -54.667 175.667 -119.667 263 -195c153.333 -132 247.333 -278.667 282 -440c16.667 60.667 23.5 133.334 20.5 218.001s-16.167 182.667 -39.5 294
c-3.33301 16.667 -7.33301 33.334 -12 50.001l-13 45c-4 13.333 -7.5 24.166 -10.5 32.499s-4.5 12.833 -4.5 13.5c25.333 113.333 41.333 170 48 170c5.33301 0 27.666 -64.667 66.999 -194c30 -102 61.333 -202.667 94 -302s67.334 -199 104.001 -299
c15.333 -42 30.5 -77 45.5 -105s30.167 -49.667 45.5 -65c28 -25.333 66.333 -38 115 -38l33 -152v0zM75.002 1253c0.666992 -3.33301 1.16504 -7.66895 1.49805 -13.002s-0.166992 -10.666 -1.5 -15.999s-3.66602 -10 -6.99902 -14s-8 -6.66699 -14 -8
c-6.66699 0 -16.167 -0.333008 -28.5 -1s-25.833 -2.5 -40.5 -5.5s-29.667 -7.33301 -45 -13s-29 -13.5 -41 -23.5c-4 -2.66699 -9.16699 -7.16699 -15.5 -13.5s-12.833 -9.5 -19.5 -9.5c-6 0 -10 4.33301 -12 13c-1.33301 5.33301 0.166992 13.5 4.5 24.5
s13.166 25.167 26.499 42.5c-38 19.333 -59.333 41 -64 65c-2 9.33301 -1.5 19 1.5 29s9.5 20.667 19.5 32c40.667 42.667 76.334 64 107.001 64c18 0 32.5 -4.66699 43.5 -14s17.5 -18.666 19.5 -27.999c1.33301 -6 1 -11.5 -1 -16.5s-4.83301 -9.33301 -8.5 -13
s-7.83398 -6.5 -12.501 -8.5s-8.66699 -3 -12 -3s-7.16602 1.16699 -11.499 3.5l-14 7.5c-5 2.66699 -10.167 5.16699 -15.5 7.5s-11 3.5 -17 3.5c-12.667 0 -22.5 -3 -29.5 -9s-9.5 -13.667 -7.5 -23c0.666992 -5.33301 3.66699 -11.333 9 -18s11.833 -12.667 19.5 -18
s16.167 -9.83301 25.5 -13.5s19 -5.5 29 -5.5c4.66699 0 11.834 0.333008 21.501 1s19.5 1.5 29.5 2.5s19.333 2 28 3s14 1.5 16 1.5c8.66699 0 14 -4.33301 16 -13z" />
    <glyph glyph-name="afii62838" unicode="&#xfedf;&#xfe88;" horiz-adv-x="1069" arabic-form="isolated" 
d="M819 981c0.666992 -3.33301 -1.66504 -15.998 -6.99805 -37.998s-14 -53.667 -26 -95l-25 10c7.33301 -32 12.833 -67 16.5 -105s5.83398 -80 6.50098 -126c0 -54.667 -1.83301 -105 -5.5 -151s-10.167 -88 -19.5 -126c40 -48 71.333 -91.5 94 -130.5
s37.334 -73.833 44.001 -104.5c10 -46 10.167 -78.667 0.5 -98s-31.167 -31 -64.5 -35c-44.667 -6.66699 -88.167 -11.5 -130.5 -14.5s-83.5 -4.5 -123.5 -4.5c-61.333 0 -95.333 17 -102 51l-14 62c-6 28.667 -1.66699 43 13 43c1.33301 0 6.5 -1.66699 15.5 -5
s18.167 -5 27.5 -5c25.333 0 52 17.833 80 53.5s56.333 90.167 85 163.5c-30.667 34 -67.334 71.667 -110.001 113l-145 134l-143.5 123.5c-41 33.667 -76.5 60.167 -106.5 79.5c-15.333 -18.667 -31 -28 -47 -28c-10 0 -27.833 5.66699 -53.5 17
s-59.5 28.666 -101.5 51.999c-32.667 18.667 -54.334 53.667 -65.001 105c-16 76 -11.333 114 14 114c59.333 0 162.333 -58.667 309 -176c78.667 -62 157.167 -130.667 235.5 -206s157.166 -159 236.499 -251c5.33301 19.333 8.33301 46.666 9 81.999s-1 79 -5 131
c-3.33301 56.667 -8.5 112.167 -15.5 166.5s-16.167 107.5 -27.5 159.5c-19.333 15.333 -30.666 29.666 -33.999 42.999c-1.33301 5.33301 -0.5 16.333 2.5 33s8.16699 39 15.5 67c14.667 56 26.334 84 35.001 84c12.667 0 21 -9.33301 25 -28
c1.33301 -4 2.16602 -11.667 2.49902 -23s1.16602 -20.666 2.49902 -27.999c7.33301 -34 31.666 -62 72.999 -84c17.333 -8.66699 27 -17 29 -25zM840.001 143.002c-5.33301 22.667 -40.667 67 -106 133c-11.333 -30 -24.333 -58.667 -39 -86s-31.667 -54.333 -51 -81
c134 8 199.333 19.333 196 34zM740 -286.998c0.666992 -3.33301 1.16504 -7.66895 1.49805 -13.002s-0.166992 -10.666 -1.5 -15.999s-3.66602 -10 -6.99902 -14s-8 -6.66699 -14 -8c-6.66699 0 -16.167 -0.333008 -28.5 -1s-25.833 -2.5 -40.5 -5.5
s-29.667 -7.33301 -45 -13s-29 -13.5 -41 -23.5c-4 -2.66699 -9.16699 -7.16699 -15.5 -13.5s-12.833 -9.5 -19.5 -9.5c-6 0 -10 4.33301 -12 13c-1.33301 5.33301 0.166992 13.5 4.5 24.5s13.166 25.167 26.499 42.5c-38 19.333 -59.333 41 -64 65
c-2 9.33301 -1.5 19 1.5 29s9.5 20.667 19.5 32c40.667 42.667 76.334 64 107.001 64c18 0 32.5 -4.66699 43.5 -14s17.5 -18.666 19.5 -27.999c1.33301 -6 1 -11.5 -1 -16.5s-4.83301 -9.33301 -8.5 -13s-7.83398 -6.5 -12.501 -8.5s-8.66699 -3 -12 -3
s-7.16602 1.16699 -11.499 3.5l-14 7.5c-5 2.66699 -10.167 5.16699 -15.5 7.5s-11 3.5 -17 3.5c-12.667 0 -22.5 -3 -29.5 -9s-9.5 -13.667 -7.5 -23c0.666992 -5.33301 3.66699 -11.333 9 -18s11.833 -12.667 19.5 -18s16.167 -9.83301 25.5 -13.5s19 -5.5 29 -5.5
c4.66699 0 11.834 0.333008 21.501 1s19.5 1.5 29.5 2.5s19.333 2 28 3s14 1.5 16 1.5c8.66699 0 14 -4.33301 16 -13z" />
    <glyph glyph-name="afii62839" unicode="&#xfee0;&#xfe88;" horiz-adv-x="1113" arabic-form="final" 
d="M1113 0c-116.667 0 -202.665 60.001 -257.998 180.001c-15.333 33.333 -35.833 86.5 -61.5 159.5s-56.834 166.833 -93.501 281.5c7.33301 -116 6.16602 -215.167 -3.50098 -297.5s-27.167 -149.166 -52.5 -200.499c-19.333 -40 -46.833 -74 -82.5 -102
s-79.5 -50.667 -131.5 -68c-84 -28.667 -159.333 -43 -226 -43c-9.33301 0 -16.833 1.5 -22.5 4.5s-9.16699 7.5 -10.5 13.5c-3.33301 11.333 9.33398 21 38.001 29c35.333 11.333 71.5 27.166 108.5 47.499s75.5 45.5 115.5 75.5c44 32.667 79.833 65.167 107.5 97.5
s47.167 64.5 58.5 96.5c-17.333 81.333 -64 165 -140 251s-182.667 176 -320 270c-27.333 -24.667 -50.333 -37 -69 -37c-9.33301 0 -22.5 4.66699 -39.5 14s-38.833 23.666 -65.5 42.999c-54 40 -83 70 -87 90c-2.66699 11.333 -3.66699 23.666 -3 36.999
s1.66699 27.666 3 42.999c4 38 14.333 57 31 57c15.333 0 36.666 -6.16699 63.999 -18.5s61.333 -31.166 102 -56.499c88 -54.667 175.667 -119.667 263 -195c153.333 -132 247.333 -278.667 282 -440c16.667 60.667 23.5 133.334 20.5 218.001s-16.167 182.667 -39.5 294
c-3.33301 16.667 -7.33301 33.334 -12 50.001l-13 45c-4 13.333 -7.5 24.166 -10.5 32.499s-4.5 12.833 -4.5 13.5c25.333 113.333 41.333 170 48 170c5.33301 0 27.666 -64.667 66.999 -194c30 -102 61.333 -202.667 94 -302s67.334 -199 104.001 -299
c15.333 -42 30.5 -77 45.5 -105s30.167 -49.667 45.5 -65c28 -25.333 66.333 -38 115 -38l33 -152v0zM456.002 -335.999c0.666992 -3.33301 1.16504 -7.66895 1.49805 -13.002s-0.166992 -10.666 -1.5 -15.999s-3.66602 -10 -6.99902 -14s-8 -6.66699 -14 -8
c-6.66699 0 -16.167 -0.333008 -28.5 -1s-25.833 -2.5 -40.5 -5.5s-29.667 -7.33301 -45 -13s-29 -13.5 -41 -23.5c-4 -2.66699 -9.16699 -7.16699 -15.5 -13.5s-12.833 -9.5 -19.5 -9.5c-6 0 -10 4.33301 -12 13c-1.33301 5.33301 0.166992 13.5 4.5 24.5
s13.166 25.167 26.499 42.5c-38 19.333 -59.333 41 -64 65c-2 9.33301 -1.5 19 1.5 29s9.5 20.667 19.5 32c40.667 42.667 76.334 64 107.001 64c18 0 32.5 -4.66699 43.5 -14s17.5 -18.666 19.5 -27.999c1.33301 -6 1 -11.5 -1 -16.5s-4.83301 -9.33301 -8.5 -13
s-7.83398 -6.5 -12.501 -8.5s-8.66699 -3 -12 -3s-7.16602 1.16699 -11.499 3.5l-14 7.5c-5 2.66699 -10.167 5.16699 -15.5 7.5s-11 3.5 -17 3.5c-12.667 0 -22.5 -3 -29.5 -9s-9.5 -13.667 -7.5 -23c0.666992 -5.33301 3.66699 -11.333 9 -18s11.833 -12.667 19.5 -18
s16.167 -9.83301 25.5 -13.5s19 -5.5 29 -5.5c4.66699 0 11.834 0.333008 21.501 1s19.5 1.5 29.5 2.5s19.333 2 28 3s14 1.5 16 1.5c8.66699 0 14 -4.33301 16 -13z" />
    <glyph glyph-name="afii62840" unicode="&#xfedf;&#xfe8e;" horiz-adv-x="1069" arabic-form="isolated" 
d="M819 981c0.666992 -3.33301 -1.66504 -15.998 -6.99805 -37.998s-14 -53.667 -26 -95l-25 10c7.33301 -32 12.833 -67 16.5 -105s5.83398 -80 6.50098 -126c0 -54.667 -1.83301 -105 -5.5 -151s-10.167 -88 -19.5 -126c40 -48 71.333 -91.5 94 -130.5
s37.334 -73.833 44.001 -104.5c10 -46 10.167 -78.667 0.5 -98s-31.167 -31 -64.5 -35c-44.667 -6.66699 -88.167 -11.5 -130.5 -14.5s-83.5 -4.5 -123.5 -4.5c-61.333 0 -95.333 17 -102 51l-14 62c-6 28.667 -1.66699 43 13 43c1.33301 0 6.5 -1.66699 15.5 -5
s18.167 -5 27.5 -5c25.333 0 52 17.833 80 53.5s56.333 90.167 85 163.5c-30.667 34 -67.334 71.667 -110.001 113l-145 134l-143.5 123.5c-41 33.667 -76.5 60.167 -106.5 79.5c-15.333 -18.667 -31 -28 -47 -28c-10 0 -27.833 5.66699 -53.5 17
s-59.5 28.666 -101.5 51.999c-32.667 18.667 -54.334 53.667 -65.001 105c-16 76 -11.333 114 14 114c59.333 0 162.333 -58.667 309 -176c78.667 -62 157.167 -130.667 235.5 -206s157.166 -159 236.499 -251c5.33301 19.333 8.33301 46.666 9 81.999s-1 79 -5 131
c-3.33301 56.667 -8.5 112.167 -15.5 166.5s-16.167 107.5 -27.5 159.5c-19.333 15.333 -30.666 29.666 -33.999 42.999c-1.33301 5.33301 -0.5 16.333 2.5 33s8.16699 39 15.5 67c14.667 56 26.334 84 35.001 84c12.667 0 21 -9.33301 25 -28
c1.33301 -4 2.16602 -11.667 2.49902 -23s1.16602 -20.666 2.49902 -27.999c7.33301 -34 31.666 -62 72.999 -84c17.333 -8.66699 27 -17 29 -25zM840.001 143.002c-5.33301 22.667 -40.667 67 -106 133c-11.333 -30 -24.333 -58.667 -39 -86s-31.667 -54.333 -51 -81
c134 8 199.333 19.333 196 34z" />
    <glyph glyph-name="afii62841" unicode="&#xfee0;&#xfe8e;" horiz-adv-x="1113" arabic-form="final" 
d="M1113 0c-116.667 0 -202.665 60.001 -257.998 180.001c-15.333 33.333 -35.833 86.5 -61.5 159.5s-56.834 166.833 -93.501 281.5c7.33301 -116 6.16602 -215.167 -3.50098 -297.5s-27.167 -149.166 -52.5 -200.499c-19.333 -40 -46.833 -74 -82.5 -102
s-79.5 -50.667 -131.5 -68c-84 -28.667 -159.333 -43 -226 -43c-9.33301 0 -16.833 1.5 -22.5 4.5s-9.16699 7.5 -10.5 13.5c-3.33301 11.333 9.33398 21 38.001 29c35.333 11.333 71.5 27.166 108.5 47.499s75.5 45.5 115.5 75.5c44 32.667 79.833 65.167 107.5 97.5
s47.167 64.5 58.5 96.5c-17.333 81.333 -64 165 -140 251s-182.667 176 -320 270c-27.333 -24.667 -50.333 -37 -69 -37c-9.33301 0 -22.5 4.66699 -39.5 14s-38.833 23.666 -65.5 42.999c-54 40 -83 70 -87 90c-2.66699 11.333 -3.66699 23.666 -3 36.999
s1.66699 27.666 3 42.999c4 38 14.333 57 31 57c15.333 0 36.666 -6.16699 63.999 -18.5s61.333 -31.166 102 -56.499c88 -54.667 175.667 -119.667 263 -195c153.333 -132 247.333 -278.667 282 -440c16.667 60.667 23.5 133.334 20.5 218.001s-16.167 182.667 -39.5 294
c-3.33301 16.667 -7.33301 33.334 -12 50.001l-13 45c-4 13.333 -7.5 24.166 -10.5 32.499s-4.5 12.833 -4.5 13.5c25.333 113.333 41.333 170 48 170c5.33301 0 27.666 -64.667 66.999 -194c30 -102 61.333 -202.667 94 -302s67.334 -199 104.001 -299
c15.333 -42 30.5 -77 45.5 -105s30.167 -49.667 45.5 -65c28 -25.333 66.333 -38 115 -38l33 -152v0z" />
    <glyph glyph-name="uni0672.fina" unicode="&#x672;" horiz-adv-x="489" 
d="M429 0c-70 0 -131.667 26 -185 78c-49.333 49.333 -89 130.666 -119 243.999c-47.333 172 -89.333 317.333 -126 436s-69 211.334 -97 278.001c12 101.333 23.333 152 34 152c11.333 0 31 -42.333 59 -127l57 -190l99 -345c48 -163.333 88.333 -268.333 121 -315
c28 -39.333 70 -59 126 -59h58l33 -152h-60zM-90 1482c2 1.33301 -4.16504 7.99902 -18.498 19.999s-28.833 20.333 -43.5 25c-10.667 2.66699 -24 -0.833008 -40 -10.5s-24.667 -23.834 -26 -42.501c9.33301 -20.667 22.666 -35.5 39.999 -44.5s36.666 -14.5 57.999 -16.5
s42.833 -1.16699 64.5 2.5s40.834 7.83398 57.501 12.501c7.33301 2 10.166 -2.16699 8.49902 -12.5s-5.16699 -23.833 -10.5 -40.5c-28.667 -25.333 -80.667 -40.666 -156 -45.999s-116.333 -23.666 -123 -54.999c-6.66699 -2.66699 -10.5 1.5 -11.5 12.5
s-0.833008 19.833 0.5 26.5c5.33301 26 26.333 41.167 63 45.5s62 10.166 76 17.499c-16.667 0.666992 -37.334 6.83398 -62.001 18.501s-38.667 33.834 -42 66.501c-4.66699 25.333 -2.33398 48.166 6.99902 68.499s22.5 36 39.5 47s38 15.167 63 12.5
s51.167 -14.667 78.5 -36c8.66699 -10.667 10.334 -21.834 5.00098 -33.501s-14.666 -24.167 -27.999 -37.5z" />
    <glyph glyph-name="uni0673.fina" unicode="&#x673;" horiz-adv-x="489" 
d="M429 0c-70 0 -131.667 26 -185 78c-49.333 49.333 -89 130.666 -119 243.999c-47.333 172 -89.333 317.333 -126 436s-69 211.334 -97 278.001c12 101.333 23.333 152 34 152c11.333 0 31 -42.333 59 -127l57 -190l99 -345c48 -163.333 88.333 -268.333 121 -315
c28 -39.333 70 -59 126 -59h58l33 -152h-60zM380 -214c2 1.33301 -4.16504 7.99902 -18.498 19.999s-28.833 20.333 -43.5 25c-10.667 2.66699 -24 -0.833008 -40 -10.5s-24.667 -23.834 -26 -42.501c9.33301 -20.667 22.666 -35.5 39.999 -44.5s36.666 -14.5 57.999 -16.5
s42.833 -1.16699 64.5 2.5s40.834 7.83398 57.501 12.501c7.33301 2 10.166 -2.16699 8.49902 -12.5s-5.16699 -23.833 -10.5 -40.5c-28.667 -25.333 -80.667 -40.666 -156 -45.999s-116.333 -23.666 -123 -54.999c-6.66699 -2.66699 -10.5 1.5 -11.5 12.5
s-0.833008 19.833 0.5 26.5c5.33301 26 26.333 41.167 63 45.5s62 10.166 76 17.499c-16.667 0.666992 -37.334 6.83398 -62.001 18.501s-38.667 33.834 -42 66.501c-4.66699 25.333 -2.33398 48.166 6.99902 68.499s22.5 36 39.5 47s38 15.167 63 12.5
s51.167 -14.667 78.5 -36c8.66699 -10.667 10.334 -21.834 5.00098 -33.501s-14.666 -24.167 -27.999 -37.5z" />
    <glyph glyph-name="uni0675.fina" unicode="&#x675;" horiz-adv-x="489" 
d="M429 0c-70 0 -131.667 26 -185 78c-49.333 49.333 -89 130.666 -119 243.999c-47.333 172 -89.333 317.333 -126 436s-69 211.334 -97 278.001c12 101.333 23.333 152 34 152c11.333 0 31 -42.333 59 -127l57 -190l99 -345c48 -163.333 88.333 -268.333 121 -315
c28 -39.333 70 -59 126 -59h58l33 -152h-60zM14 1369c0.666992 -3.33301 1.16504 -7.66895 1.49805 -13.002s-0.166992 -10.666 -1.5 -15.999s-3.66602 -10 -6.99902 -14s-8 -6.66699 -14 -8c-6.66699 0 -16.167 -0.333008 -28.5 -1s-25.833 -2.5 -40.5 -5.5
s-29.667 -7.33301 -45 -13s-29 -13.5 -41 -23.5c-4 -2.66699 -9.16699 -7.16699 -15.5 -13.5s-12.833 -9.5 -19.5 -9.5c-6 0 -10 4.33301 -12 13c-1.33301 5.33301 0.166992 13.5 4.5 24.5s13.166 25.167 26.499 42.5c-38 19.333 -59.333 41 -64 65
c-2 9.33301 -1.5 19 1.5 29s9.5 20.667 19.5 32c40.667 42.667 76.334 64 107.001 64c18 0 32.5 -4.66699 43.5 -14s17.5 -18.666 19.5 -27.999c1.33301 -6 1 -11.5 -1 -16.5s-4.83301 -9.33301 -8.5 -13s-7.83398 -6.5 -12.501 -8.5s-8.66699 -3 -12 -3
s-7.16602 1.16699 -11.499 3.5l-14 7.5c-5 2.66699 -10.167 5.16699 -15.5 7.5s-11 3.5 -17 3.5c-12.667 0 -22.5 -3 -29.5 -9s-9.5 -13.667 -7.5 -23c0.666992 -5.33301 3.66699 -11.333 9 -18s11.833 -12.667 19.5 -18s16.167 -9.83301 25.5 -13.5s19 -5.5 29 -5.5
c4.66699 0 11.834 0.333008 21.501 1s19.5 1.5 29.5 2.5s19.333 2 28 3s14 1.5 16 1.5c8.66699 0 14 -4.33301 16 -13z" />
    <glyph glyph-name="uni0676.fina" unicode="&#x676;" horiz-adv-x="721" 
d="M676 0c3.33301 -64.667 -20.667 -142.332 -72 -232.999c-66.667 -116.667 -152 -175 -256 -175c-56 0 -121.333 16.667 -196 50c-68 30 -103.667 53 -107 69c-2 10 3 15 15 15c-1.33301 0 16.667 -5 54 -15c19.333 -5.33301 38.5 -9 57.5 -11s37.167 -3 54.5 -3
c132.667 0 235.667 54 309 162c22 32 39.167 59.667 51.5 83s19.166 43.333 20.499 60c-8.66699 -1.33301 -20 -2.33301 -34 -3s-30.333 -1 -49 -1c-30 0 -57 4 -81 12s-46.667 19.667 -68 35c-34 26 -55 56.667 -63 92c-10 51.333 -2 106.666 24 165.999
c28.667 62.667 63.667 94 105 94c32 0 64.833 -19.667 98.5 -59s68.834 -101.333 105.501 -186h43l33 -152h-45zM553 154.002c-19.333 34 -39.1689 58.5 -59.502 73.5s-41.166 22.5 -62.499 22.5c-16 0 -28 -5 -36 -15s-10.667 -25.333 -8 -46
c1.33301 -12 8.83301 -21 22.5 -27s29.334 -10 47.001 -12s35.5 -2.5 53.5 -1.5s32.333 2.83301 43 5.5zM462.997 628.002c0.666992 -3.33301 1.16504 -7.66895 1.49805 -13.002s-0.166992 -10.666 -1.5 -15.999s-3.66602 -10 -6.99902 -14s-8 -6.66699 -14 -8
c-6.66699 0 -16.167 -0.333008 -28.5 -1s-25.833 -2.5 -40.5 -5.5s-29.667 -7.33301 -45 -13s-29 -13.5 -41 -23.5c-4 -2.66699 -9.16699 -7.16699 -15.5 -13.5s-12.833 -9.5 -19.5 -9.5c-6 0 -10 4.33301 -12 13c-1.33301 5.33301 0.166992 13.5 4.5 24.5
s13.166 25.167 26.499 42.5c-38 19.333 -59.333 41 -64 65c-2 9.33301 -1.5 19 1.5 29s9.5 20.667 19.5 32c40.667 42.667 76.334 64 107.001 64c18 0 32.5 -4.66699 43.5 -14s17.5 -18.666 19.5 -27.999c1.33301 -6 1 -11.5 -1 -16.5s-4.83301 -9.33301 -8.5 -13
s-7.83398 -6.5 -12.501 -8.5s-8.66699 -3 -12 -3s-7.16602 1.16699 -11.499 3.5l-14 7.5c-5 2.66699 -10.167 5.16699 -15.5 7.5s-11 3.5 -17 3.5c-12.667 0 -22.5 -3 -29.5 -9s-9.5 -13.667 -7.5 -23c0.666992 -5.33301 3.66699 -11.333 9 -18s11.833 -12.667 19.5 -18
s16.167 -9.83301 25.5 -13.5s19 -5.5 29 -5.5c4.66699 0 11.834 0.333008 21.501 1s19.5 1.5 29.5 2.5s19.333 2 28 3s14 1.5 16 1.5c8.66699 0 14 -4.33301 16 -13z" />
    <glyph glyph-name="uni0677.fina" unicode="&#x677;" horiz-adv-x="721" 
d="M676 0c3.33301 -64.667 -20.667 -142.332 -72 -232.999c-66.667 -116.667 -152 -175 -256 -175c-56 0 -121.333 16.667 -196 50c-68 30 -103.667 53 -107 69c-2 10 3 15 15 15c-1.33301 0 16.667 -5 54 -15c19.333 -5.33301 38.5 -9 57.5 -11s37.167 -3 54.5 -3
c132.667 0 235.667 54 309 162c22 32 39.167 59.667 51.5 83s19.166 43.333 20.499 60c-8.66699 -1.33301 -20 -2.33301 -34 -3s-30.333 -1 -49 -1c-30 0 -57 4 -81 12s-46.667 19.667 -68 35c-34 26 -55 56.667 -63 92c-10 51.333 -2 106.666 24 165.999
c28.667 62.667 63.667 94 105 94c32 0 64.833 -19.667 98.5 -59s68.834 -101.333 105.501 -186h43l33 -152h-45zM553 154.002c-19.333 34 -39.1689 58.5 -59.502 73.5s-41.166 22.5 -62.499 22.5c-16 0 -28 -5 -36 -15s-10.667 -25.333 -8 -46
c1.33301 -12 8.83301 -21 22.5 -27s29.334 -10 47.001 -12s35.5 -2.5 53.5 -1.5s32.333 2.83301 43 5.5zM558.997 620.002c0.666992 -3.33301 1.16504 -7.66895 1.49805 -13.002s-0.166992 -10.666 -1.5 -15.999s-3.66602 -10 -6.99902 -14s-8 -6.66699 -14 -8
c-6.66699 0 -16.167 -0.333008 -28.5 -1s-25.833 -2.5 -40.5 -5.5s-29.667 -7.33301 -45 -13s-29 -13.5 -41 -23.5c-4 -2.66699 -9.16699 -7.16699 -15.5 -13.5s-12.833 -9.5 -19.5 -9.5c-6 0 -10 4.33301 -12 13c-1.33301 5.33301 0.166992 13.5 4.5 24.5
s13.166 25.167 26.499 42.5c-38 19.333 -59.333 41 -64 65c-2 9.33301 -1.5 19 1.5 29s9.5 20.667 19.5 32c40.667 42.667 76.334 64 107.001 64c18 0 32.5 -4.66699 43.5 -14s17.5 -18.666 19.5 -27.999c1.33301 -6 1 -11.5 -1 -16.5s-4.83301 -9.33301 -8.5 -13
s-7.83398 -6.5 -12.501 -8.5s-8.66699 -3 -12 -3s-7.16602 1.16699 -11.499 3.5l-14 7.5c-5 2.66699 -10.167 5.16699 -15.5 7.5s-11 3.5 -17 3.5c-12.667 0 -22.5 -3 -29.5 -9s-9.5 -13.667 -7.5 -23c0.666992 -5.33301 3.66699 -11.333 9 -18s11.833 -12.667 19.5 -18
s16.167 -9.83301 25.5 -13.5s19 -5.5 29 -5.5c4.66699 0 11.834 0.333008 21.501 1s19.5 1.5 29.5 2.5s19.333 2 28 3s14 1.5 16 1.5c8.66699 0 14 -4.33301 16 -13zM247.147 580.968l11 -78.6221l-72.7676 43.1152c-47.3828 -77.2139 -91.6631 -115.82 -132.842 -115.82
c-10.1533 0 -26.7939 3.09961 -49.9219 9.2998c47.9473 30.4346 95.8945 71.5771 143.842 123.428c-37.2295 24.7988 -58.3828 49.0332 -63.46 72.7041c-6.76855 32.126 -1.97363 65.3789 14.3848 99.7588c11.8457 22.5439 28.4863 33.8154 49.9219 33.8154
c36.665 0 59.5107 -23.3896 68.5361 -70.168c5.64062 -25.3623 3.94824 -56.3604 -5.07617 -92.9941zM176.919 651.98c-2.25684 11.2725 -8.60156 22.1201 -19.0371 32.5469s-21.5762 15.6396 -33.4219 15.6396c-9.58984 0 -13.2568 -5.35449 -11 -16.0625
c3.38477 -15.7803 24.8203 -35.5059 64.3057 -59.1768c1.12793 10.708 0.845703 19.7256 -0.84668 27.0527z" />
    <glyph glyph-name="uni0678.fina" unicode="&#x678;" horiz-adv-x="1049" 
d="M1049 0c-44 0 -84.665 -2.17188 -121.998 -6.50488s-71 -11.166 -101 -20.499c-50 -14 -73.333 -29 -70 -45c2 -9.33301 58.333 -23.666 169 -42.999c72.667 -10 114 -40 124 -90c10.667 -51.333 -2 -95 -38 -131c-135.333 -129.333 -293.666 -194 -474.999 -194
c-56.667 0 -108.834 6.66699 -156.501 20s-89.667 32.833 -126 58.5s-66.666 57.334 -90.999 95.001s-41.5 80.834 -51.5 129.501c-24.667 115.333 2.33301 223 81 323c4 5.33301 8.16699 9.5 12.5 12.5s9.16602 4.5 14.499 4.5c9.33301 0 15.666 -7 18.999 -21
c0 1.33301 -3.5 -5.16699 -10.5 -19.5s-17.167 -36.5 -30.5 -66.5s-22 -59.333 -26 -88s-3 -57.334 3 -86.001c13.333 -59.333 52.666 -112.666 117.999 -159.999c68.667 -48.667 142.334 -73 221.001 -73c109.333 0 215 20.333 317 61c88 36.667 129.333 65.334 124 86.001
c-1.33301 5.33301 -8.33301 10 -21 14s-32.667 7.66699 -60 11c-72 10 -120.667 18 -146 24c-54 18.667 -85 46 -93 82c-14.667 66.667 18.666 128.667 99.999 186c78 59.333 172 89 282 89l33 -152v0zM531.002 408.995c0.666992 -3.33301 1.16504 -7.66895 1.49805 -13.002
s-0.166992 -10.666 -1.5 -15.999s-3.66602 -10 -6.99902 -14s-8 -6.66699 -14 -8c-6.66699 0 -16.167 -0.333008 -28.5 -1s-25.833 -2.5 -40.5 -5.5s-29.667 -7.33301 -45 -13s-29 -13.5 -41 -23.5c-4 -2.66699 -9.16699 -7.16699 -15.5 -13.5s-12.833 -9.5 -19.5 -9.5
c-6 0 -10 4.33301 -12 13c-1.33301 5.33301 0.166992 13.5 4.5 24.5s13.166 25.167 26.499 42.5c-38 19.333 -59.333 41 -64 65c-2 9.33301 -1.5 19 1.5 29s9.5 20.667 19.5 32c40.667 42.667 76.334 64 107.001 64c18 0 32.5 -4.66699 43.5 -14s17.5 -18.666 19.5 -27.999
c1.33301 -6 1 -11.5 -1 -16.5s-4.83301 -9.33301 -8.5 -13s-7.83398 -6.5 -12.501 -8.5s-8.66699 -3 -12 -3s-7.16602 1.16699 -11.499 3.5l-14 7.5c-5 2.66699 -10.167 5.16699 -15.5 7.5s-11 3.5 -17 3.5c-12.667 0 -22.5 -3 -29.5 -9s-9.5 -13.667 -7.5 -23
c0.666992 -5.33301 3.66699 -11.333 9 -18s11.833 -12.667 19.5 -18s16.167 -9.83301 25.5 -13.5s19 -5.5 29 -5.5c4.66699 0 11.834 0.333008 21.501 1s19.5 1.5 29.5 2.5s19.333 2 28 3s14 1.5 16 1.5c8.66699 0 14 -4.33301 16 -13z" />
    <glyph glyph-name="uni067C.init" unicode="&#x67c;" horiz-adv-x="318" 
d="M220 260c20.667 -95.333 15.001 -163.667 -16.999 -205c-10 -12.667 -39.333 -25.667 -88 -39c-23.333 -5.33301 -44.5 -9.33301 -63.5 -12s-36.167 -4 -51.5 -4c-46.667 -0 -75.334 25.333 -86.001 76c-10 50.667 8 76 54 76h36c86 0 141.667 10.667 167 32
c-4.66699 21.333 -15 43.833 -31 67.5s-37.667 48.5 -65 74.5l23 104c2 6.66699 5 10 9 10s10.333 -5.33301 19 -16c52.667 -59.333 84 -114 94 -164zM-114.999 589.999l-113 93l74 93l112 -93zM81.001 597.999l-113 93l73 93l113 -93zM266.001 -43.001
c4.66699 -22 5.33203 -43.168 1.99902 -63.501s-9.83301 -38.5 -19.5 -54.5s-22.667 -28.667 -39 -38s-35.166 -14 -56.499 -14c-29.333 0 -55.333 9.5 -78 28.5s-37.667 45.167 -45 78.5c-5.33301 23.333 -6.5 45.5 -3.5 66.5s10.833 41.833 23.5 62.5
c24.667 42 56.667 63 96 63c30 0 55.5 -12.167 76.5 -36.5s35.5 -55.166 43.5 -92.499zM218.999 -65.002c-2 10 -5.49609 19.5 -10.4961 28.5s-11 17.167 -18 24.5s-14.833 13.166 -23.5 17.499s-17.334 6.5 -26.001 6.5c-10 0 -19.5 -2.5 -28.5 -7.5
s-16.5 -11.667 -22.5 -20s-10.333 -17.833 -13 -28.5s-2.66699 -22 0 -34c3.33301 -17.333 12.166 -31.166 26.499 -41.499s29.166 -15.5 44.499 -15.5c12 0 22.667 2.16699 32 6.5s17.166 9.83301 23.499 16.5s11 14.167 14 22.5s3.5 16.5 1.5 24.5z" />
    <glyph glyph-name="uni067C.medi" unicode="&#x67c;" horiz-adv-x="440" 
d="M395 0c-33.333 0 -71.3311 11.667 -113.998 35c-49.333 25.333 -83.333 57.333 -102 96c-22.667 -83.333 -82.334 -127 -179.001 -131c-46.667 -0 -75.334 25.333 -86.001 76c-10 50.667 8 76 54 76h44c84 0 136 44.333 156 133c7.33301 27.333 18 41 32 41
c11.333 0 18 -5 20 -15c0.666992 -1.33301 0.5 -8.5 -0.5 -21.5s-0.166992 -26.167 2.5 -39.5c14 -65.333 77 -98 189 -98l33 -152h-49zM12.002 504l-113 93l74 93l112 -93zM208.002 512l-113 93l73 93l113 -93zM222.002 -48c4.66699 -22 5.33203 -43.168 1.99902 -63.501
s-9.83301 -38.5 -19.5 -54.5s-22.667 -28.667 -39 -38s-35.166 -14 -56.499 -14c-29.333 0 -55.333 9.5 -78 28.5s-37.667 45.167 -45 78.5c-5.33301 23.333 -6.5 45.5 -3.5 66.5s10.833 41.833 23.5 62.5c24.667 42 56.667 63 96 63c30 0 55.5 -12.167 76.5 -36.5
s35.5 -55.166 43.5 -92.499zM175 -70.001c-2 10 -5.49609 19.5 -10.4961 28.5s-11 17.167 -18 24.5s-14.833 13.166 -23.5 17.499s-17.334 6.5 -26.001 6.5c-10 0 -19.5 -2.5 -28.5 -7.5s-16.5 -11.667 -22.5 -20s-10.333 -17.833 -13 -28.5s-2.66699 -22 0 -34
c3.33301 -17.333 12.166 -31.166 26.499 -41.499s29.166 -15.5 44.499 -15.5c12 0 22.667 2.16699 32 6.5s17.166 9.83301 23.499 16.5s11 14.167 14 22.5s3.5 16.5 1.5 24.5z" />
    <glyph glyph-name="uni067C.fina" unicode="&#x67c;" horiz-adv-x="1384" 
d="M1384 0c-21.333 0 -43.6699 1.16602 -67.0029 3.49902s-45.833 8 -67.5 17s-41.667 22.667 -60 41s-33.166 43.5 -44.499 75.5c-19.333 -19.333 -46.166 -40.5 -80.499 -63.5s-75.833 -44.5 -124.5 -64.5s-104.167 -36.667 -166.5 -50s-131.166 -20 -206.499 -20
c-93.333 0 -172.333 8.83301 -237 26.5s-117.834 39.834 -159.501 66.501s-72.834 55.667 -93.501 87s-34 60.666 -40 87.999c-6 26.667 -6.83301 54 -2.5 82s10.666 53.5 18.999 76.5s17.333 41.833 27 56.5s17.167 22 22.5 22c11.333 0 18 -4.66699 20 -14
c0.666992 -3.33301 -0.5 -9.66602 -3.5 -18.999s-6 -20.833 -9 -34.5s-5.16699 -28.834 -6.5 -45.501s0 -34 4 -52c4 -19.333 15.5 -40.166 34.5 -62.499s47 -42.833 84 -61.5s83.667 -34.167 140 -46.5s124.5 -18.5 204.5 -18.5c65.333 0 128.833 5.33301 190.5 16
s117.834 24.334 168.501 41.001s93.667 35.334 129 56.001s59.666 41 72.999 61c10.667 15.333 18.834 25.666 24.501 30.999s10.834 8 15.501 8c4 0 8.33301 -1.66699 13 -5s7.33398 -7 8.00098 -11c2 -7.33301 2.5 -16.333 1.5 -27s-0.833008 -20.334 0.5 -29.001
c1.33301 -6 5.5 -13.5 12.5 -22.5s16 -17.667 27 -26s23.667 -15.5 38 -21.5s29.5 -9 45.5 -9h33l33 -152v0zM452.996 501.999l-113 93l74 93l112 -93zM648.996 509.999l-113 93l73 93l113 -93zM702.996 -120.001c4.66699 -22 5.33203 -43.168 1.99902 -63.501
s-9.83301 -38.5 -19.5 -54.5s-22.667 -28.667 -39 -38s-35.166 -14 -56.499 -14c-29.333 0 -55.333 9.5 -78 28.5s-37.667 45.167 -45 78.5c-5.33301 23.333 -6.5 45.5 -3.5 66.5s10.833 41.833 23.5 62.5c24.667 42 56.667 63 96 63c30 0 55.5 -12.167 76.5 -36.5
s35.5 -55.166 43.5 -92.499zM655.994 -142.002c-2 10 -5.49609 19.5 -10.4961 28.5s-11 17.167 -18 24.5s-14.833 13.166 -23.5 17.499s-17.334 6.5 -26.001 6.5c-10 0 -19.5 -2.5 -28.5 -7.5s-16.5 -11.667 -22.5 -20s-10.333 -17.833 -13 -28.5s-2.66699 -22 0 -34
c3.33301 -17.333 12.166 -31.166 26.499 -41.499s29.166 -15.5 44.499 -15.5c12 0 22.667 2.16699 32 6.5s17.166 9.83301 23.499 16.5s11 14.167 14 22.5s3.5 16.5 1.5 24.5z" />
    <glyph glyph-name="uni067D.init" unicode="&#x67d;" horiz-adv-x="318" 
d="M220 260c20.667 -95.333 15.001 -163.667 -16.999 -205c-10 -12.667 -39.333 -25.667 -88 -39c-23.333 -5.33301 -44.5 -9.33301 -63.5 -12s-36.167 -4 -51.5 -4c-46.667 -0 -75.334 25.333 -86.001 76c-10 50.667 8 76 54 76h36c86 0 141.667 10.667 167 32
c-4.66699 21.333 -15 43.833 -31 67.5s-37.667 48.5 -65 74.5l23 104c2 6.66699 5 10 9 10s10.333 -5.33301 19 -16c52.667 -59.333 84 -114 94 -164zM-194.999 898.999l109 -90l-71 -90l-109 90zM12.001 904.999l109 -90l-71 -90l-109 90zM-53.999 738.999l109 -90l-71 -90
l-109 90z" />
    <glyph glyph-name="uni067D.medi" unicode="&#x67d;" horiz-adv-x="440" 
d="M395 0c-33.333 0 -71.3311 11.667 -113.998 35c-49.333 25.333 -83.333 57.333 -102 96c-22.667 -83.333 -82.334 -127 -179.001 -131c-46.667 -0 -75.334 25.333 -86.001 76c-10 50.667 8 76 54 76h44c84 0 136 44.333 156 133c7.33301 27.333 18 41 32 41
c11.333 0 18 -5 20 -15c0.666992 -1.33301 0.5 -8.5 -0.5 -21.5s-0.166992 -26.167 2.5 -39.5c14 -65.333 77 -98 189 -98l33 -152h-49zM-51.998 836l109 -90l-71 -90l-109 90zM155.002 842l109 -90l-71 -90l-109 90zM89.002 676l109 -90l-71 -90l-109 90z" />
    <glyph glyph-name="uni067D.fina" unicode="&#x67d;" horiz-adv-x="1384" 
d="M1384 0c-21.333 0 -43.6699 1.16602 -67.0029 3.49902s-45.833 8 -67.5 17s-41.667 22.667 -60 41s-33.166 43.5 -44.499 75.5c-19.333 -19.333 -46.166 -40.5 -80.499 -63.5s-75.833 -44.5 -124.5 -64.5s-104.167 -36.667 -166.5 -50s-131.166 -20 -206.499 -20
c-93.333 0 -172.333 8.83301 -237 26.5s-117.834 39.834 -159.501 66.501s-72.834 55.667 -93.501 87s-34 60.666 -40 87.999c-6 26.667 -6.83301 54 -2.5 82s10.666 53.5 18.999 76.5s17.333 41.833 27 56.5s17.167 22 22.5 22c11.333 0 18 -4.66699 20 -14
c0.666992 -3.33301 -0.5 -9.66602 -3.5 -18.999s-6 -20.833 -9 -34.5s-5.16699 -28.834 -6.5 -45.501s0 -34 4 -52c4 -19.333 15.5 -40.166 34.5 -62.499s47 -42.833 84 -61.5s83.667 -34.167 140 -46.5s124.5 -18.5 204.5 -18.5c65.333 0 128.833 5.33301 190.5 16
s117.834 24.334 168.501 41.001s93.667 35.334 129 56.001s59.666 41 72.999 61c10.667 15.333 18.834 25.666 24.501 30.999s10.834 8 15.501 8c4 0 8.33301 -1.66699 13 -5s7.33398 -7 8.00098 -11c2 -7.33301 2.5 -16.333 1.5 -27s-0.833008 -20.334 0.5 -29.001
c1.33301 -6 5.5 -13.5 12.5 -22.5s16 -17.667 27 -26s23.667 -15.5 38 -21.5s29.5 -9 45.5 -9h33l33 -152v0zM392.996 802.999l109 -90l-71 -90l-109 90zM599.996 808.999l109 -90l-71 -90l-109 90zM533.996 642.999l109 -90l-71 -90l-109 90z" />
    <glyph glyph-name="uni0681.init" unicode="&#x681;" horiz-adv-x="996" 
d="M847 141c-2 0 -6.83105 0.168945 -14.498 0.501953s-16.5 0.833008 -26.5 1.5s-20.333 1.16699 -31 1.5s-20 0.5 -28 0.5c-136 0 -268 -23.667 -396 -71c-66.667 -24.667 -128.834 -43.167 -186.501 -55.5s-112.5 -18.5 -164.5 -18.5
c-46.667 0 -75.334 25.333 -86.001 76c-10 50.667 8 76 54 76c93.333 0 179.166 5.66699 257.499 17s150.5 28.666 216.5 51.999c-135.333 70 -224.666 105 -267.999 105c-37.333 0 -66.333 -10.333 -87 -31c-21.333 -19.333 -34.666 -29 -39.999 -29
c-7.33301 0 -13 7 -17 21c-4.66699 22.667 2.66602 54 21.999 94c14 25.333 32 44.666 54 57.999s49 20 81 20c38 0 124.667 -29.333 260 -88c68 -30 131.5 -52.167 190.5 -66.5s113.5 -21.5 163.5 -21.5h90zM503.002 722.002
c0.666992 -3.33301 1.16504 -7.66895 1.49805 -13.002s-0.166992 -10.666 -1.5 -15.999s-3.66602 -10 -6.99902 -14s-8 -6.66699 -14 -8c-6.66699 0 -16.167 -0.333008 -28.5 -1s-25.833 -2.5 -40.5 -5.5s-29.667 -7.33301 -45 -13s-29 -13.5 -41 -23.5
c-4 -2.66699 -9.16699 -7.16699 -15.5 -13.5s-12.833 -9.5 -19.5 -9.5c-6 0 -10 4.33301 -12 13c-1.33301 5.33301 0.166992 13.5 4.5 24.5s13.166 25.167 26.499 42.5c-38 19.333 -59.333 41 -64 65c-2 9.33301 -1.5 19 1.5 29s9.5 20.667 19.5 32
c40.667 42.667 76.334 64 107.001 64c18 0 32.5 -4.66699 43.5 -14s17.5 -18.666 19.5 -27.999c1.33301 -6 1 -11.5 -1 -16.5s-4.83301 -9.33301 -8.5 -13s-7.83398 -6.5 -12.501 -8.5s-8.66699 -3 -12 -3s-7.16602 1.16699 -11.499 3.5l-14 7.5
c-5 2.66699 -10.167 5.16699 -15.5 7.5s-11 3.5 -17 3.5c-12.667 0 -22.5 -3 -29.5 -9s-9.5 -13.667 -7.5 -23c0.666992 -5.33301 3.66699 -11.333 9 -18s11.833 -12.667 19.5 -18s16.167 -9.83301 25.5 -13.5s19 -5.5 29 -5.5c4.66699 0 11.834 0.333008 21.501 1
s19.5 1.5 29.5 2.5s19.333 2 28 3s14 1.5 16 1.5c8.66699 0 14 -4.33301 16 -13z" />
    <glyph glyph-name="uni0681.medi" unicode="&#x681;" horiz-adv-x="1063" 
d="M871 0c-51.333 0 -94.332 13.001 -128.999 39.001s-58 66.333 -70 121c-1.33301 7.33301 -2.5 15.833 -3.5 25.5s-1.83301 20.167 -2.5 31.5c-58.667 -9.33301 -119.5 -26 -182.5 -50s-129.167 -55 -198.5 -93c-90.667 -49.333 -185.667 -74 -285 -74
c-46.667 0 -75.334 25.333 -86.001 76c-10 50.667 8 76 54 76c188.667 0 339 42.333 451 127c-71.333 25.333 -129.333 44.166 -174 56.499s-76.667 18.5 -96 18.5c-22 0 -41.667 -8.66699 -59 -26c-19.333 -16.667 -32 -25 -38 -25c-11.333 0 -18.333 7 -21 21
c-4.66699 22 3 52.667 23 92c30 53.333 74.333 80 133 80c37.333 0 103.333 -18.667 198 -56c62.667 -24.667 124.167 -43 184.5 -55s119.833 -18 178.5 -18h88l-25 -131l-109 -13l4 -16c4.66699 -21.333 18.667 -35.833 42 -43.5s54 -11.5 92 -11.5h190l33 -152h-192z
M505.001 774.001c0.666992 -3.33301 1.16504 -7.66895 1.49805 -13.002s-0.166992 -10.666 -1.5 -15.999s-3.66602 -10 -6.99902 -14s-8 -6.66699 -14 -8c-6.66699 0 -16.167 -0.333008 -28.5 -1s-25.833 -2.5 -40.5 -5.5s-29.667 -7.33301 -45 -13s-29 -13.5 -41 -23.5
c-4 -2.66699 -9.16699 -7.16699 -15.5 -13.5s-12.833 -9.5 -19.5 -9.5c-6 0 -10 4.33301 -12 13c-1.33301 5.33301 0.166992 13.5 4.5 24.5s13.166 25.167 26.499 42.5c-38 19.333 -59.333 41 -64 65c-2 9.33301 -1.5 19 1.5 29s9.5 20.667 19.5 32
c40.667 42.667 76.334 64 107.001 64c18 0 32.5 -4.66699 43.5 -14s17.5 -18.666 19.5 -27.999c1.33301 -6 1 -11.5 -1 -16.5s-4.83301 -9.33301 -8.5 -13s-7.83398 -6.5 -12.501 -8.5s-8.66699 -3 -12 -3s-7.16602 1.16699 -11.499 3.5l-14 7.5
c-5 2.66699 -10.167 5.16699 -15.5 7.5s-11 3.5 -17 3.5c-12.667 0 -22.5 -3 -29.5 -9s-9.5 -13.667 -7.5 -23c0.666992 -5.33301 3.66699 -11.333 9 -18s11.833 -12.667 19.5 -18s16.167 -9.83301 25.5 -13.5s19 -5.5 29 -5.5c4.66699 0 11.834 0.333008 21.501 1
s19.5 1.5 29.5 2.5s19.333 2 28 3s14 1.5 16 1.5c8.66699 0 14 -4.33301 16 -13z" />
    <glyph glyph-name="uni0681.fina" unicode="&#x681;" horiz-adv-x="1063" 
d="M1294 -666c2.66699 -11.333 -15.335 -21.999 -54.002 -31.999c-17.333 -4 -83.666 -26.667 -198.999 -68c-34 -11.333 -70.333 -20 -109 -26s-81 -9 -127 -9c-87.333 0 -165.666 7 -234.999 21s-130 35 -182 63c-66.667 36 -121.334 84.5 -164.001 145.5
s-73 134.833 -91 221.5c-28 132 -21.333 249.333 20 352c17.333 44 41.833 87.667 73.5 131s70.834 87 117.501 131c-28 10 -67.667 15 -119 15c-23.333 0 -43.666 -3 -60.999 -9s-32.666 -14.667 -45.999 -26c-7.33301 -6 -16 -20.333 -26 -43c-6 -18 -13.667 -27 -23 -27
s-16 8.33301 -20 25c-8.66699 44 3.33301 91 36 141c36 53.333 95 80 177 80c21.333 0 71 -4 149 -12c38 -3.33301 71.667 -6 101 -8s53.666 -3 72.999 -3c53.333 0 101.5 1.66699 144.5 5s80.833 8.66602 113.5 15.999l-25 -133l-104 -13
c-4.66699 -10.667 -3.33398 -33.667 3.99902 -69c4.66699 -20.667 15.834 -34.334 33.501 -41.001s43.5 -10 77.5 -10h201l33 -152h-203c-51.333 0 -92.5 13 -123.5 39s-52.5 66.333 -64.5 121c-3.33301 17.333 -5.33301 34.833 -6 52.5s0.666016 36.167 3.99902 55.5
c-173.333 -22 -302.666 -85.333 -387.999 -190c-78 -97.333 -103 -214 -75 -350c32 -149.333 111.667 -254 239 -314c115.333 -55.333 283.666 -79.666 504.999 -72.999l289 6c34 2 52 -2.33301 54 -13zM413.998 732.001
c0.666992 -3.33301 1.16504 -7.66895 1.49805 -13.002s-0.166992 -10.666 -1.5 -15.999s-3.66602 -10 -6.99902 -14s-8 -6.66699 -14 -8c-6.66699 0 -16.167 -0.333008 -28.5 -1s-25.833 -2.5 -40.5 -5.5s-29.667 -7.33301 -45 -13s-29 -13.5 -41 -23.5
c-4 -2.66699 -9.16699 -7.16699 -15.5 -13.5s-12.833 -9.5 -19.5 -9.5c-6 0 -10 4.33301 -12 13c-1.33301 5.33301 0.166992 13.5 4.5 24.5s13.166 25.167 26.499 42.5c-38 19.333 -59.333 41 -64 65c-2 9.33301 -1.5 19 1.5 29s9.5 20.667 19.5 32
c40.667 42.667 76.334 64 107.001 64c18 0 32.5 -4.66699 43.5 -14s17.5 -18.666 19.5 -27.999c1.33301 -6 1 -11.5 -1 -16.5s-4.83301 -9.33301 -8.5 -13s-7.83398 -6.5 -12.501 -8.5s-8.66699 -3 -12 -3s-7.16602 1.16699 -11.499 3.5l-14 7.5
c-5 2.66699 -10.167 5.16699 -15.5 7.5s-11 3.5 -17 3.5c-12.667 0 -22.5 -3 -29.5 -9s-9.5 -13.667 -7.5 -23c0.666992 -5.33301 3.66699 -11.333 9 -18s11.833 -12.667 19.5 -18s16.167 -9.83301 25.5 -13.5s19 -5.5 29 -5.5c4.66699 0 11.834 0.333008 21.501 1
s19.5 1.5 29.5 2.5s19.333 2 28 3s14 1.5 16 1.5c8.66699 0 14 -4.33301 16 -13z" />
    <glyph glyph-name="uni0682.init" unicode="&#x682;" horiz-adv-x="996" 
d="M847 141c-2 0 -6.83105 0.168945 -14.498 0.501953s-16.5 0.833008 -26.5 1.5s-20.333 1.16699 -31 1.5s-20 0.5 -28 0.5c-136 0 -268 -23.667 -396 -71c-66.667 -24.667 -128.834 -43.167 -186.501 -55.5s-112.5 -18.5 -164.5 -18.5
c-46.667 0 -75.334 25.333 -86.001 76c-10 50.667 8 76 54 76c93.333 0 179.166 5.66699 257.499 17s150.5 28.666 216.5 51.999c-135.333 70 -224.666 105 -267.999 105c-37.333 0 -66.333 -10.333 -87 -31c-21.333 -19.333 -34.666 -29 -39.999 -29
c-7.33301 0 -13 7 -17 21c-4.66699 22.667 2.66602 54 21.999 94c14 25.333 32 44.666 54 57.999s49 20 81 20c38 0 124.667 -29.333 260 -88c68 -30 131.5 -52.167 190.5 -66.5s113.5 -21.5 163.5 -21.5h90zM217.002 808.002l-110 90l71 90l109 -90zM263.002 604.002
l-109 90l71 90l109 -90z" />
    <glyph glyph-name="uni0682.medi" unicode="&#x682;" horiz-adv-x="1063" 
d="M871 0c-51.333 0 -94.332 13.001 -128.999 39.001s-58 66.333 -70 121c-1.33301 7.33301 -2.5 15.833 -3.5 25.5s-1.83301 20.167 -2.5 31.5c-58.667 -9.33301 -119.5 -26 -182.5 -50s-129.167 -55 -198.5 -93c-90.667 -49.333 -185.667 -74 -285 -74
c-46.667 0 -75.334 25.333 -86.001 76c-10 50.667 8 76 54 76c188.667 0 339 42.333 451 127c-71.333 25.333 -129.333 44.166 -174 56.499s-76.667 18.5 -96 18.5c-22 0 -41.667 -8.66699 -59 -26c-19.333 -16.667 -32 -25 -38 -25c-11.333 0 -18.333 7 -21 21
c-4.66699 22 3 52.667 23 92c30 53.333 74.333 80 133 80c37.333 0 103.333 -18.667 198 -56c62.667 -24.667 124.167 -43 184.5 -55s119.833 -18 178.5 -18h88l-25 -131l-109 -13l4 -16c4.66699 -21.333 18.667 -35.833 42 -43.5s54 -11.5 92 -11.5h190l33 -152h-192z
M177.001 850.001l-110 90l71 90l109 -90zM223.001 646.001l-109 90l71 90l109 -90z" />
    <glyph glyph-name="uni0682.fina" unicode="&#x682;" horiz-adv-x="1063" 
d="M1294 -666c2.66699 -11.333 -15.335 -21.999 -54.002 -31.999c-17.333 -4 -83.666 -26.667 -198.999 -68c-34 -11.333 -70.333 -20 -109 -26s-81 -9 -127 -9c-87.333 0 -165.666 7 -234.999 21s-130 35 -182 63c-66.667 36 -121.334 84.5 -164.001 145.5
s-73 134.833 -91 221.5c-28 132 -21.333 249.333 20 352c17.333 44 41.833 87.667 73.5 131s70.834 87 117.501 131c-28 10 -67.667 15 -119 15c-23.333 0 -43.666 -3 -60.999 -9s-32.666 -14.667 -45.999 -26c-7.33301 -6 -16 -20.333 -26 -43c-6 -18 -13.667 -27 -23 -27
s-16 8.33301 -20 25c-8.66699 44 3.33301 91 36 141c36 53.333 95 80 177 80c21.333 0 71 -4 149 -12c38 -3.33301 71.667 -6 101 -8s53.666 -3 72.999 -3c53.333 0 101.5 1.66699 144.5 5s80.833 8.66602 113.5 15.999l-25 -133l-104 -13
c-4.66699 -10.667 -3.33398 -33.667 3.99902 -69c4.66699 -20.667 15.834 -34.334 33.501 -41.001s43.5 -10 77.5 -10h201l33 -152h-203c-51.333 0 -92.5 13 -123.5 39s-52.5 66.333 -64.5 121c-3.33301 17.333 -5.33301 34.833 -6 52.5s0.666016 36.167 3.99902 55.5
c-173.333 -22 -302.666 -85.333 -387.999 -190c-78 -97.333 -103 -214 -75 -350c32 -149.333 111.667 -254 239 -314c115.333 -55.333 283.666 -79.666 504.999 -72.999l289 6c34 2 52 -2.33301 54 -13zM304.998 802.001l-110 90l71 90l109 -90zM350.998 598.001l-109 90
l71 90l109 -90z" />
    <glyph glyph-name="uni0685.init" unicode="&#x685;" horiz-adv-x="996" 
d="M847 141c-2 0 -6.83105 0.168945 -14.498 0.501953s-16.5 0.833008 -26.5 1.5s-20.333 1.16699 -31 1.5s-20 0.5 -28 0.5c-136 0 -268 -23.667 -396 -71c-66.667 -24.667 -128.834 -43.167 -186.501 -55.5s-112.5 -18.5 -164.5 -18.5
c-46.667 0 -75.334 25.333 -86.001 76c-10 50.667 8 76 54 76c93.333 0 179.166 5.66699 257.499 17s150.5 28.666 216.5 51.999c-135.333 70 -224.666 105 -267.999 105c-37.333 0 -66.333 -10.333 -87 -31c-21.333 -19.333 -34.666 -29 -39.999 -29
c-7.33301 0 -13 7 -17 21c-4.66699 22.667 2.66602 54 21.999 94c14 25.333 32 44.666 54 57.999s49 20 81 20c38 0 124.667 -29.333 260 -88c68 -30 131.5 -52.167 190.5 -66.5s113.5 -21.5 163.5 -21.5h90zM515.002 642.002l-109 90l71 90l109 -90zM308.002 636.002
l-110 90l71 90l109 -90zM374.002 802.002l-109 90l71 90l109 -90z" />
    <glyph glyph-name="uni0685.medi" unicode="&#x685;" horiz-adv-x="1063" 
d="M871 0c-51.333 0 -94.332 13.001 -128.999 39.001s-58 66.333 -70 121c-1.33301 7.33301 -2.5 15.833 -3.5 25.5s-1.83301 20.167 -2.5 31.5c-58.667 -9.33301 -119.5 -26 -182.5 -50s-129.167 -55 -198.5 -93c-90.667 -49.333 -185.667 -74 -285 -74
c-46.667 0 -75.334 25.333 -86.001 76c-10 50.667 8 76 54 76c188.667 0 339 42.333 451 127c-71.333 25.333 -129.333 44.166 -174 56.499s-76.667 18.5 -96 18.5c-22 0 -41.667 -8.66699 -59 -26c-19.333 -16.667 -32 -25 -38 -25c-11.333 0 -18.333 7 -21 21
c-4.66699 22 3 52.667 23 92c30 53.333 74.333 80 133 80c37.333 0 103.333 -18.667 198 -56c62.667 -24.667 124.167 -43 184.5 -55s119.833 -18 178.5 -18h88l-25 -131l-109 -13l4 -16c4.66699 -21.333 18.667 -35.833 42 -43.5s54 -11.5 92 -11.5h190l33 -152h-192z
M526.001 630.001l-109 90l71 90l109 -90zM319.001 624.001l-110 90l71 90l109 -90zM385.001 790.001l-109 90l71 90l109 -90z" />
    <glyph glyph-name="uni0685.fina" unicode="&#x685;" horiz-adv-x="1063" 
d="M1294 -666c2.66699 -11.333 -15.335 -21.999 -54.002 -31.999c-17.333 -4 -83.666 -26.667 -198.999 -68c-34 -11.333 -70.333 -20 -109 -26s-81 -9 -127 -9c-87.333 0 -165.666 7 -234.999 21s-130 35 -182 63c-66.667 36 -121.334 84.5 -164.001 145.5
s-73 134.833 -91 221.5c-28 132 -21.333 249.333 20 352c17.333 44 41.833 87.667 73.5 131s70.834 87 117.501 131c-28 10 -67.667 15 -119 15c-23.333 0 -43.666 -3 -60.999 -9s-32.666 -14.667 -45.999 -26c-7.33301 -6 -16 -20.333 -26 -43c-6 -18 -13.667 -27 -23 -27
s-16 8.33301 -20 25c-8.66699 44 3.33301 91 36 141c36 53.333 95 80 177 80c21.333 0 71 -4 149 -12c38 -3.33301 71.667 -6 101 -8s53.666 -3 72.999 -3c53.333 0 101.5 1.66699 144.5 5s80.833 8.66602 113.5 15.999l-25 -133l-104 -13
c-4.66699 -10.667 -3.33398 -33.667 3.99902 -69c4.66699 -20.667 15.834 -34.334 33.501 -41.001s43.5 -10 77.5 -10h201l33 -152h-203c-51.333 0 -92.5 13 -123.5 39s-52.5 66.333 -64.5 121c-3.33301 17.333 -5.33301 34.833 -6 52.5s0.666016 36.167 3.99902 55.5
c-173.333 -22 -302.666 -85.333 -387.999 -190c-78 -97.333 -103 -214 -75 -350c32 -149.333 111.667 -254 239 -314c115.333 -55.333 283.666 -79.666 504.999 -72.999l289 6c34 2 52 -2.33301 54 -13zM426.998 634.001l-109 90l71 90l109 -90zM219.998 628.001l-110 90
l71 90l109 -90zM285.998 794.001l-109 90l71 90l109 -90z" />
    <glyph glyph-name="uni0689.fina" unicode="&#x689;" horiz-adv-x="834" 
d="M834 0c-29.333 0 -55.3301 2.66699 -77.9971 8s-41.667 13.666 -57 24.999c-42.667 28.667 -87.334 87.334 -134.001 176.001c-10.667 -33.333 -26 -63.5 -46 -90.5s-43.333 -50 -70 -69s-56 -33.667 -88 -44s-65.667 -15.5 -101 -15.5c-98.667 0 -155 34 -169 102
c-18.667 87.333 -16.334 131 6.99902 131c13.333 0 22 -10 26 -30c8 -34.667 48.333 -52 121 -52c134 0 228.667 44.333 284 133l-115 260.5c-26.667 63 -41.667 102.5 -45 118.5c5.33301 84.667 10.666 127 15.999 127c3.33301 0 9 -8 17 -24l128 -283
c31.333 -68.667 58.833 -125 82.5 -169s44.5 -76.333 62.5 -97c26.667 -36.667 61 -55 103 -55h23l33 -152v0zM461.003 -56c4.66699 -22 5.33203 -43.168 1.99902 -63.501s-9.83301 -38.5 -19.5 -54.5s-22.667 -28.667 -39 -38s-35.166 -14 -56.499 -14
c-29.333 0 -55.333 9.5 -78 28.5s-37.667 45.167 -45 78.5c-5.33301 23.333 -6.5 45.5 -3.5 66.5s10.833 41.833 23.5 62.5c24.667 42 56.667 63 96 63c30 0 55.5 -12.167 76.5 -36.5s35.5 -55.166 43.5 -92.499zM414.001 -78.001c-2 10 -5.49609 19.5 -10.4961 28.5
s-11 17.167 -18 24.5s-14.833 13.166 -23.5 17.499s-17.334 6.5 -26.001 6.5c-10 0 -19.5 -2.5 -28.5 -7.5s-16.5 -11.667 -22.5 -20s-10.333 -17.833 -13 -28.5s-2.66699 -22 0 -34c3.33301 -17.333 12.166 -31.166 26.499 -41.499s29.166 -15.5 44.499 -15.5
c12 0 22.667 2.16699 32 6.5s17.166 9.83301 23.499 16.5s11 14.167 14 22.5s3.5 16.5 1.5 24.5z" />
    <glyph glyph-name="uni068A.fina" unicode="&#x68a;" horiz-adv-x="834" 
d="M834 0c-29.333 0 -55.3301 2.66699 -77.9971 8s-41.667 13.666 -57 24.999c-42.667 28.667 -87.334 87.334 -134.001 176.001c-10.667 -33.333 -26 -63.5 -46 -90.5s-43.333 -50 -70 -69s-56 -33.667 -88 -44s-65.667 -15.5 -101 -15.5c-98.667 0 -155 34 -169 102
c-18.667 87.333 -16.334 131 6.99902 131c13.333 0 22 -10 26 -30c8 -34.667 48.333 -52 121 -52c134 0 228.667 44.333 284 133l-115 260.5c-26.667 63 -41.667 102.5 -45 118.5c5.33301 84.667 10.666 127 15.999 127c3.33301 0 9 -8 17 -24l128 -283
c31.333 -68.667 58.833 -125 82.5 -169s44.5 -76.333 62.5 -97c26.667 -36.667 61 -55 103 -55h23l33 -152v0zM355.003 -361l-126 104l81 104l127 -104z" />
    <glyph glyph-name="uni068b.fina" unicode="&#x68b;" horiz-adv-x="834" 
d="M834 0c-29.333 0 -55.3301 2.66699 -77.9971 8s-41.667 13.666 -57 24.999c-42.667 28.667 -87.334 87.334 -134.001 176.001c-10.667 -33.333 -26 -63.5 -46 -90.5s-43.333 -50 -70 -69s-56 -33.667 -88 -44s-65.667 -15.5 -101 -15.5c-98.667 0 -155 34 -169 102
c-18.667 87.333 -16.334 131 6.99902 131c13.333 0 22 -10 26 -30c8 -34.667 48.333 -52 121 -52c134 0 228.667 44.333 284 133l-115 260.5c-26.667 63 -41.667 102.5 -45 118.5c5.33301 84.667 10.666 127 15.999 127c3.33301 0 9 -8 17 -24l128 -283
c31.333 -68.667 58.833 -125 82.5 -169s44.5 -76.333 62.5 -97c26.667 -36.667 61 -55 103 -55h23l33 -152v0zM443.003 1014c2 -11.333 -0.00390625 -25.6689 -6.00391 -43.002c-2.66699 -9.33301 -6.16699 -17.5 -10.5 -24.5s-8.83301 -13.5 -13.5 -19.5
c-9.33301 -11.333 -21.666 -21.166 -36.999 -29.499s-33 -15.833 -53 -22.5c-36 -10.667 -73.667 -16 -113 -16c-32 0 -64.333 8 -97 24c-28 14 -43 25 -45 33c0 3.33301 5 5 15 5h76c10 0 18.333 3.33301 25 10c18 14.667 28.667 24.667 32 30c4.66699 10 6 19.667 4 29
c-14 64 -38 140 -72 228c-9.33301 9.33301 -16 21.666 -20 36.999c-2 8.66699 1.33301 26 10 52c2.66699 6 5.33398 9 8.00098 9c4.66699 0 9 -9 13 -27c4 -15.333 12.667 -25 26 -29c12 -3.33301 18 -6.66602 18 -9.99902c1.33301 -7.33301 2.5 -14.166 3.5 -20.499
s1.16699 -12.166 0.5 -17.499c-1.33301 -8 -3 -12 -5 -12c-1.33301 0 -3.16602 0.166992 -5.49902 0.5s-5.16602 1.16602 -8.49902 2.49902c22 -60 37 -109 45 -147c6 -32.667 8.66699 -56.334 8 -71.001c42.667 54 80.667 81 114 81c14.667 0 31.667 -5 51 -15
c22 -11.333 34.333 -23.666 37 -36.999zM411.999 979.997c-0.666992 4 -8.99902 10.333 -24.999 19c-15.333 7.33301 -31.666 11 -48.999 11c-14.667 0 -33.334 -8.33301 -56.001 -25c-26 -16.667 -48.333 -38 -67 -64h24c37.333 0 76.666 6.66699 117.999 20
c38.667 14 57 27 55 39zM377 -345.003l-126 104l81 104l127 -104z" />
    <glyph glyph-name="uni068F.fina" unicode="&#x68f;" horiz-adv-x="834" 
d="M834 0c-29.333 0 -55.3301 2.66699 -77.9971 8s-41.667 13.666 -57 24.999c-42.667 28.667 -87.334 87.334 -134.001 176.001c-10.667 -33.333 -26 -63.5 -46 -90.5s-43.333 -50 -70 -69s-56 -33.667 -88 -44s-65.667 -15.5 -101 -15.5c-98.667 0 -155 34 -169 102
c-18.667 87.333 -16.334 131 6.99902 131c13.333 0 22 -10 26 -30c8 -34.667 48.333 -52 121 -52c134 0 228.667 44.333 284 133l-115 260.5c-26.667 63 -41.667 102.5 -45 118.5c5.33301 84.667 10.666 127 15.999 127c3.33301 0 9 -8 17 -24l128 -283
c31.333 -68.667 58.833 -125 82.5 -169s44.5 -76.333 62.5 -97c26.667 -36.667 61 -55 103 -55h23l33 -152v0zM121.003 1193l109 -90l-71 -90l-109 90zM328.003 1199l109 -90l-71 -90l-109 90zM262.003 1033l109 -90l-71 -90l-109 90z" />
    <glyph glyph-name="uni0690.fina" unicode="&#x690;" horiz-adv-x="834" 
d="M834 0c-29.333 0 -55.3301 2.66699 -77.9971 8s-41.667 13.666 -57 24.999c-42.667 28.667 -87.334 87.334 -134.001 176.001c-10.667 -33.333 -26 -63.5 -46 -90.5s-43.333 -50 -70 -69s-56 -33.667 -88 -44s-65.667 -15.5 -101 -15.5c-98.667 0 -155 34 -169 102
c-18.667 87.333 -16.334 131 6.99902 131c13.333 0 22 -10 26 -30c8 -34.667 48.333 -52 121 -52c134 0 228.667 44.333 284 133l-115 260.5c-26.667 63 -41.667 102.5 -45 118.5c5.33301 84.667 10.666 127 15.999 127c3.33301 0 9 -8 17 -24l128 -283
c31.333 -68.667 58.833 -125 82.5 -169s44.5 -76.333 62.5 -97c26.667 -36.667 61 -55 103 -55h23l33 -152v0zM372.003 1004l-109 90l71 90l109 -90zM164.003 998l-109 90l71 90l109 -90zM231.003 1164l-109 90l71 90l109 -90zM306.003 832l-109 90l70 90l110 -90z" />
    <glyph glyph-name="uni0692.fina" unicode="&#x692;" horiz-adv-x="682" 
d="M620 0c-14 -156.667 -53.667 -275.336 -119 -356.003c-59.333 -72.667 -132.333 -109 -219 -109c-34.667 0 -71 8.33301 -109 25c-98.667 42.667 -150.334 74 -155.001 94c-3.33301 12 1.33398 18 14.001 18c2 0 7.66699 -1 17 -3s20.833 -4 34.5 -6s28.667 -4 45 -6
s32.5 -3 48.5 -3c44 0 87 9.33301 129 28s82 47 120 85c72.667 70.667 117.667 154.334 135 251.001c-76.667 34.667 -117.667 63.334 -123 86.001l-2 113c0 9.33301 2.33301 14 7 14l18 -10c6 -3.33301 13.167 -7.66602 21.5 -12.999l29.5 -18
c22.667 -13.333 43.5 -23 62.5 -29s36.167 -9 51.5 -9h23l33 -152h-62zM456 637.998c-8.66699 -8 -17.5 -20.832 -26.5 -38.499s-17.5 -38.5 -25.5 -62.5s-14.667 -50.167 -20 -78.5s-8.33301 -57.5 -9 -87.5h-28l-2 3c-14 29.333 -29.833 58.166 -47.5 86.499
s-35.5 54.333 -53.5 78s-35.167 44.167 -51.5 61.5s-29.833 30 -40.5 38l87 2c19.333 -21.333 37.333 -47.333 54 -78s32 -62.667 46 -96c0 33.333 2.33301 65.333 7 96s11.667 56.667 21 78z" />
    <glyph glyph-name="uni0693.fina" unicode="&#x693;" horiz-adv-x="682" 
d="M620 0c-14 -156.667 -53.667 -275.336 -119 -356.003c-59.333 -72.667 -132.333 -109 -219 -109c-34.667 0 -71 8.33301 -109 25c-98.667 42.667 -150.334 74 -155.001 94c-3.33301 12 1.33398 18 14.001 18c2 0 7.66699 -1 17 -3s20.833 -4 34.5 -6s28.667 -4 45 -6
s32.5 -3 48.5 -3c44 0 87 9.33301 129 28s82 47 120 85c72.667 70.667 117.667 154.334 135 251.001c-76.667 34.667 -117.667 63.334 -123 86.001l-2 113c0 9.33301 2.33301 14 7 14l18 -10c6 -3.33301 13.167 -7.66602 21.5 -12.999l29.5 -18
c22.667 -13.333 43.5 -23 62.5 -29s36.167 -9 51.5 -9h23l33 -152h-62zM407 -523.002c4.66699 -22 5.33203 -43.168 1.99902 -63.501s-9.83301 -38.5 -19.5 -54.5s-22.667 -28.667 -39 -38s-35.166 -14 -56.499 -14c-29.333 0 -55.333 9.5 -78 28.5s-37.667 45.167 -45 78.5
c-5.33301 23.333 -6.5 45.5 -3.5 66.5s10.833 41.833 23.5 62.5c24.667 42 56.667 63 96 63c30 0 55.5 -12.167 76.5 -36.5s35.5 -55.166 43.5 -92.499zM359.998 -545.003c-2 10 -5.49609 19.5 -10.4961 28.5s-11 17.167 -18 24.5s-14.833 13.166 -23.5 17.499
s-17.334 6.5 -26.001 6.5c-10 0 -19.5 -2.5 -28.5 -7.5s-16.5 -11.667 -22.5 -20s-10.333 -17.833 -13 -28.5s-2.66699 -22 0 -34c3.33301 -17.333 12.166 -31.166 26.499 -41.499s29.166 -15.5 44.499 -15.5c12 0 22.667 2.16699 32 6.5s17.166 9.83301 23.499 16.5
s11 14.167 14 22.5s3.5 16.5 1.5 24.5z" />
    <glyph glyph-name="uni0694.fina" unicode="&#x694;" horiz-adv-x="682" 
d="M620 0c-14 -156.667 -53.667 -275.336 -119 -356.003c-59.333 -72.667 -132.333 -109 -219 -109c-34.667 0 -71 8.33301 -109 25c-98.667 42.667 -150.334 74 -155.001 94c-3.33301 12 1.33398 18 14.001 18c2 0 7.66699 -1 17 -3s20.833 -4 34.5 -6s28.667 -4 45 -6
s32.5 -3 48.5 -3c44 0 87 9.33301 129 28s82 47 120 85c72.667 70.667 117.667 154.334 135 251.001c-76.667 34.667 -117.667 63.334 -123 86.001l-2 113c0 9.33301 2.33301 14 7 14l18 -10c6 -3.33301 13.167 -7.66602 21.5 -12.999l29.5 -18
c22.667 -13.333 43.5 -23 62.5 -29s36.167 -9 51.5 -9h23l33 -152h-62zM389 -786.002l-126 104l81 104l127 -104z" />
    <glyph glyph-name="uni0695.fina" unicode="&#x695;" horiz-adv-x="682" 
d="M620 0c-14 -156.667 -53.667 -275.336 -119 -356.003c-59.333 -72.667 -132.333 -109 -219 -109c-34.667 0 -71 8.33301 -109 25c-98.667 42.667 -150.334 74 -155.001 94c-3.33301 12 1.33398 18 14.001 18c2 0 7.66699 -1 17 -3s20.833 -4 34.5 -6s28.667 -4 45 -6
s32.5 -3 48.5 -3c44 0 87 9.33301 129 28s82 47 120 85c72.667 70.667 117.667 154.334 135 251.001c-76.667 34.667 -117.667 63.334 -123 86.001l-2 113c0 9.33301 2.33301 14 7 14l18 -10c6 -3.33301 13.167 -7.66602 21.5 -12.999l29.5 -18
c22.667 -13.333 43.5 -23 62.5 -29s36.167 -9 51.5 -9h23l33 -152h-62zM496 -582.002c-8.66699 -8 -17.5 -20.832 -26.5 -38.499s-17.5 -38.5 -25.5 -62.5s-14.667 -50.167 -20 -78.5s-8.33301 -57.5 -9 -87.5h-28l-2 3c-14 29.333 -29.833 58.166 -47.5 86.499
s-35.5 54.333 -53.5 78s-35.167 44.167 -51.5 61.5s-29.833 30 -40.5 38l87 2c19.333 -21.333 37.333 -47.333 54 -78s32 -62.667 46 -96c0 33.333 2.33301 65.333 7 96s11.667 56.667 21 78z" />
    <glyph glyph-name="uni0696.fina" unicode="&#x696;" horiz-adv-x="682" 
d="M620 0c-14 -156.667 -53.667 -275.336 -119 -356.003c-59.333 -72.667 -132.333 -109 -219 -109c-34.667 0 -71 8.33301 -109 25c-98.667 42.667 -150.334 74 -155.001 94c-3.33301 12 1.33398 18 14.001 18c2 0 7.66699 -1 17 -3s20.833 -4 34.5 -6s28.667 -4 45 -6
s32.5 -3 48.5 -3c44 0 87 9.33301 129 28s82 47 120 85c72.667 70.667 117.667 154.334 135 251.001c-76.667 34.667 -117.667 63.334 -123 86.001l-2 113c0 9.33301 2.33301 14 7 14l18 -10c6 -3.33301 13.167 -7.66602 21.5 -12.999l29.5 -18
c22.667 -13.333 43.5 -23 62.5 -29s36.167 -9 51.5 -9h23l33 -152h-62zM400 -770.002l-126 104l81 104l127 -104zM237 -228.002l-126 104l81 104l127 -104z" />
    <glyph glyph-name="uni0697.fina" unicode="&#x697;" horiz-adv-x="682" 
d="M620 0c-14 -156.667 -53.667 -275.336 -119 -356.003c-59.333 -72.667 -132.333 -109 -219 -109c-34.667 0 -71 8.33301 -109 25c-98.667 42.667 -150.334 74 -155.001 94c-3.33301 12 1.33398 18 14.001 18c2 0 7.66699 -1 17 -3s20.833 -4 34.5 -6s28.667 -4 45 -6
s32.5 -3 48.5 -3c44 0 87 9.33301 129 28s82 47 120 85c72.667 70.667 117.667 154.334 135 251.001c-76.667 34.667 -117.667 63.334 -123 86.001l-2 113c0 9.33301 2.33301 14 7 14l18 -10c6 -3.33301 13.167 -7.66602 21.5 -12.999l29.5 -18
c22.667 -13.333 43.5 -23 62.5 -29s36.167 -9 51.5 -9h23l33 -152h-62zM255 399.998l-113 93l74 93l112 -93zM451 407.998l-113 93l73 93l113 -93z" />
    <glyph glyph-name="uni0699.fina" unicode="&#x699;" horiz-adv-x="682" 
d="M620 0c-14 -156.667 -53.667 -275.336 -119 -356.003c-59.333 -72.667 -132.333 -109 -219 -109c-34.667 0 -71 8.33301 -109 25c-98.667 42.667 -150.334 74 -155.001 94c-3.33301 12 1.33398 18 14.001 18c2 0 7.66699 -1 17 -3s20.833 -4 34.5 -6s28.667 -4 45 -6
s32.5 -3 48.5 -3c44 0 87 9.33301 129 28s82 47 120 85c72.667 70.667 117.667 154.334 135 251.001c-76.667 34.667 -117.667 63.334 -123 86.001l-2 113c0 9.33301 2.33301 14 7 14l18 -10c6 -3.33301 13.167 -7.66602 21.5 -12.999l29.5 -18
c22.667 -13.333 43.5 -23 62.5 -29s36.167 -9 51.5 -9h23l33 -152h-62zM483 514.998l-109 90l71 90l109 -90zM275 508.998l-109 90l71 90l109 -90zM342 674.998l-109 90l71 90l109 -90zM417 342.998l-109 90l70 90l110 -90z" />
    <glyph glyph-name="uni069A.init" unicode="&#x69a;" horiz-adv-x="945" 
d="M859 285c10.667 -51.333 9.00098 -104.668 -4.99902 -160.001c-18 -70 -51 -105 -99 -105c-67.333 0 -143.666 31.667 -228.999 95c-43.333 -71.333 -104.666 -107 -183.999 -107c-75.333 0 -130.666 38.333 -165.999 115c-12 -78 -70.667 -119 -176 -123
c-46.667 0 -75.334 25.333 -86.001 76c-10 50.667 8 76 54 76h27c27.333 0 51.666 4 72.999 12s39 19.667 53 35c18.667 18.667 33 47.334 43 86.001c11.333 31.333 19.666 47 24.999 47c13.333 0 19.666 -5 18.999 -15l6 -47c12 -83.333 60.667 -125 146 -125
c50 0 88 17.333 114 52c14 20 26.667 52 38 96c10 34 18.667 51 26 51c10.667 0 17 -5.33301 19 -16l10 -90c16 -16 47 -33.333 93 -52c53.333 -20.667 100 -30 140 -28c4.66699 42 -4.33301 84.333 -27 127l18 49c6.66699 14 12.167 24.667 16.5 32s8.5 11 12.5 11
c12.667 0 25.667 -30.667 39 -92zM431.001 550.998l-126 104l81 104l127 -104zM621.001 -421.002l-126 104l81 104l127 -104z" />
    <glyph glyph-name="uni069A.medi" unicode="&#x69a;" horiz-adv-x="1063" 
d="M1020 0c-18.667 0 -37.666 2.33301 -56.999 7s-37.833 11 -55.5 19s-34.167 17.5 -49.5 28.5s-28 22.833 -38 35.5c-26.667 -60 -63 -90 -109 -90c-56 0 -117.667 28.667 -185 86c-35.333 -57.333 -92.666 -86 -171.999 -86c-81.333 0 -141.333 37.667 -180 113
c-24.667 -71.333 -82.667 -109 -174 -113c-46.667 -0 -75.334 25.333 -86.001 76c-10 50.667 8 76 54 76h25c92 0 151.667 38 179 114c9.33301 22 17.333 33 24 33c14 0 22 -5.33301 24 -16c1.33301 -4.66699 2 -12.667 2 -24s0.666992 -20.666 2 -27.999
c12 -56 56.333 -84 133 -84c51.333 0 91 15.333 119 46c9.33301 9.33301 17.5 20.5 24.5 33.5s13.5 28.167 19.5 45.5c3.33301 15.333 7 26.666 11 33.999s7.66699 11 11 11c16 0 24.667 -7.33301 26 -22l6 -74c1.33301 -8 6.83301 -16 16.5 -24s21.5 -15.333 35.5 -22
s29.5 -12.167 46.5 -16.5s33.833 -6.5 50.5 -6.5c28 0 52 25.667 72 77c9.33301 26 17.5 45.5 24.5 58.5s12.167 19.5 15.5 19.5c7.33301 0 13.333 -1.5 18 -4.5s7.66699 -7.5 9 -13.5c0 -0.666992 -0.333008 -3 -1 -7s-1.33398 -9 -2.00098 -15s-1 -12.667 -1 -20
s0.666992 -14 2 -20c10.667 -50 47.667 -75 111 -75h59l33 -152h-43zM485.001 534l-126 104l81 104l127 -104zM635.001 -383l-126 104l81 104l127 -104z" />
    <glyph glyph-name="uni069A.fina" unicode="&#x69a;" horiz-adv-x="1702" 
d="M1659 0c-18.667 0 -37.666 2.3291 -56.999 6.99609s-37.833 11 -55.5 19s-34.167 17.5 -49.5 28.5s-28 22.833 -38 35.5c-28.667 -60 -65 -90 -109 -90c-70.667 0 -133.334 28 -188.001 84c-32.667 -56 -88.334 -84 -167.001 -84c-15.333 0 -29.833 1.5 -43.5 4.5
s-25.5 7.5 -35.5 13.5c21.333 -100 18.333 -183.667 -9 -251c-18 -42.667 -54.667 -85 -110 -127c-80 -56 -176.333 -84 -289 -84c-130.667 0 -233 34 -307 102c-54 48 -88 105.333 -102 172c-16 71.333 -14 143 6 215c15.333 61.333 30.333 92 45 92
s23.334 -6.66699 26.001 -20c-0.666992 -5.33301 -2 -11.666 -4 -18.999l-5 -23l-7 -32c-5.33301 -23.333 -8.33301 -45.666 -9 -66.999s1 -40.666 5 -57.999c30.667 -144.667 150.667 -217 360 -217c183.333 0 307 47 371 141c-24 114 -73 218.667 -147 314l26 127
c5.33301 0 37.666 -33 96.999 -99c15.333 -15.333 33.5 -27 54.5 -35s46.5 -12 76.5 -12c25.333 0 48.333 4 69 12s38 19.667 52 35c20.667 18.667 37.334 47.334 50.001 86.001c10 31.333 17.333 47 22 47c12 0 19.667 -6 23 -18l9 -78
c2.66699 -13.333 21.334 -28.333 56.001 -45c36 -16 68.333 -24 97 -24c26 0 48 25.667 66 77l23 58.5c5.33301 13 9.66602 19.5 12.999 19.5c7.33301 0 13.333 -1.5 18 -4.5s7.66699 -7.5 9 -13.5c0 -0.666992 -0.333008 -3 -1 -7s-1.33398 -9 -2.00098 -15
s-1 -12.5 -1 -19.5s0.666992 -13.833 2 -20.5c10.667 -50 47.334 -75 110.001 -75h60l33 -152h-43zM1131 542.996l-126 104l81 104l127 -104zM1334 -430.004l-126 104l81 104l127 -104z" />
    <glyph glyph-name="uni069B.init" unicode="&#x69b;" horiz-adv-x="945" 
d="M859 285c10.667 -51.333 9.00098 -104.668 -4.99902 -160.001c-18 -70 -51 -105 -99 -105c-67.333 0 -143.666 31.667 -228.999 95c-43.333 -71.333 -104.666 -107 -183.999 -107c-75.333 0 -130.666 38.333 -165.999 115c-12 -78 -70.667 -119 -176 -123
c-46.667 0 -75.334 25.333 -86.001 76c-10 50.667 8 76 54 76h27c27.333 0 51.666 4 72.999 12s39 19.667 53 35c18.667 18.667 33 47.334 43 86.001c11.333 31.333 19.666 47 24.999 47c13.333 0 19.666 -5 18.999 -15l6 -47c12 -83.333 60.667 -125 146 -125
c50 0 88 17.333 114 52c14 20 26.667 52 38 96c10 34 18.667 51 26 51c10.667 0 17 -5.33301 19 -16l10 -90c16 -16 47 -33.333 93 -52c53.333 -20.667 100 -30 140 -28c4.66699 42 -4.33301 84.333 -27 127l18 49c6.66699 14 12.167 24.667 16.5 32s8.5 11 12.5 11
c12.667 0 25.667 -30.667 39 -92zM441.001 -172.002l109 -90l-71 -90l-109 90zM648.001 -166.002l109 -90l-71 -90l-109 90zM582.001 -332.002l109 -90l-71 -90l-109 90z" />
    <glyph glyph-name="uni069B.medi" unicode="&#x69b;" horiz-adv-x="1063" 
d="M1020 0c-18.667 0 -37.666 2.33301 -56.999 7s-37.833 11 -55.5 19s-34.167 17.5 -49.5 28.5s-28 22.833 -38 35.5c-26.667 -60 -63 -90 -109 -90c-56 0 -117.667 28.667 -185 86c-35.333 -57.333 -92.666 -86 -171.999 -86c-81.333 0 -141.333 37.667 -180 113
c-24.667 -71.333 -82.667 -109 -174 -113c-46.667 -0 -75.334 25.333 -86.001 76c-10 50.667 8 76 54 76h25c92 0 151.667 38 179 114c9.33301 22 17.333 33 24 33c14 0 22 -5.33301 24 -16c1.33301 -4.66699 2 -12.667 2 -24s0.666992 -20.666 2 -27.999
c12 -56 56.333 -84 133 -84c51.333 0 91 15.333 119 46c9.33301 9.33301 17.5 20.5 24.5 33.5s13.5 28.167 19.5 45.5c3.33301 15.333 7 26.666 11 33.999s7.66699 11 11 11c16 0 24.667 -7.33301 26 -22l6 -74c1.33301 -8 6.83301 -16 16.5 -24s21.5 -15.333 35.5 -22
s29.5 -12.167 46.5 -16.5s33.833 -6.5 50.5 -6.5c28 0 52 25.667 72 77c9.33301 26 17.5 45.5 24.5 58.5s12.167 19.5 15.5 19.5c7.33301 0 13.333 -1.5 18 -4.5s7.66699 -7.5 9 -13.5c0 -0.666992 -0.333008 -3 -1 -7s-1.33398 -9 -2.00098 -15s-1 -12.667 -1 -20
s0.666992 -14 2 -20c10.667 -50 47.667 -75 111 -75h59l33 -152h-43zM480.001 -181l109 -90l-71 -90l-109 90zM687.001 -175l109 -90l-71 -90l-109 90zM621.001 -341l109 -90l-71 -90l-109 90z" />
    <glyph glyph-name="uni069B.fina" unicode="&#x69b;" horiz-adv-x="1702" 
d="M1659 0c-18.667 0 -37.666 2.3291 -56.999 6.99609s-37.833 11 -55.5 19s-34.167 17.5 -49.5 28.5s-28 22.833 -38 35.5c-28.667 -60 -65 -90 -109 -90c-70.667 0 -133.334 28 -188.001 84c-32.667 -56 -88.334 -84 -167.001 -84c-15.333 0 -29.833 1.5 -43.5 4.5
s-25.5 7.5 -35.5 13.5c21.333 -100 18.333 -183.667 -9 -251c-18 -42.667 -54.667 -85 -110 -127c-80 -56 -176.333 -84 -289 -84c-130.667 0 -233 34 -307 102c-54 48 -88 105.333 -102 172c-16 71.333 -14 143 6 215c15.333 61.333 30.333 92 45 92
s23.334 -6.66699 26.001 -20c-0.666992 -5.33301 -2 -11.666 -4 -18.999l-5 -23l-7 -32c-5.33301 -23.333 -8.33301 -45.666 -9 -66.999s1 -40.666 5 -57.999c30.667 -144.667 150.667 -217 360 -217c183.333 0 307 47 371 141c-24 114 -73 218.667 -147 314l26 127
c5.33301 0 37.666 -33 96.999 -99c15.333 -15.333 33.5 -27 54.5 -35s46.5 -12 76.5 -12c25.333 0 48.333 4 69 12s38 19.667 52 35c20.667 18.667 37.334 47.334 50.001 86.001c10 31.333 17.333 47 22 47c12 0 19.667 -6 23 -18l9 -78
c2.66699 -13.333 21.334 -28.333 56.001 -45c36 -16 68.333 -24 97 -24c26 0 48 25.667 66 77l23 58.5c5.33301 13 9.66602 19.5 12.999 19.5c7.33301 0 13.333 -1.5 18 -4.5s7.66699 -7.5 9 -13.5c0 -0.666992 -0.333008 -3 -1 -7s-1.33398 -9 -2.00098 -15
s-1 -12.5 -1 -19.5s0.666992 -13.833 2 -20.5c10.667 -50 47.334 -75 110.001 -75h60l33 -152h-43zM1188 -213.004l109 -90l-71 -90l-109 90zM1395 -207.004l109 -90l-71 -90l-109 90zM1329 -373.004l109 -90l-71 -90l-109 90z" />
    <glyph glyph-name="uni069C.init" unicode="&#x69c;" horiz-adv-x="945" 
d="M859 285c10.667 -51.333 9.00098 -104.668 -4.99902 -160.001c-18 -70 -51 -105 -99 -105c-67.333 0 -143.666 31.667 -228.999 95c-43.333 -71.333 -104.666 -107 -183.999 -107c-75.333 0 -130.666 38.333 -165.999 115c-12 -78 -70.667 -119 -176 -123
c-46.667 0 -75.334 25.333 -86.001 76c-10 50.667 8 76 54 76h27c27.333 0 51.666 4 72.999 12s39 19.667 53 35c18.667 18.667 33 47.334 43 86.001c11.333 31.333 19.666 47 24.999 47c13.333 0 19.666 -5 18.999 -15l6 -47c12 -83.333 60.667 -125 146 -125
c50 0 88 17.333 114 52c14 20 26.667 52 38 96c10 34 18.667 51 26 51c10.667 0 17 -5.33301 19 -16l10 -90c16 -16 47 -33.333 93 -52c53.333 -20.667 100 -30 140 -28c4.66699 42 -4.33301 84.333 -27 127l18 49c6.66699 14 12.167 24.667 16.5 32s8.5 11 12.5 11
c12.667 0 25.667 -30.667 39 -92zM489.001 -167.002l109 -90l-71 -90l-109 90zM696.001 -161.002l109 -90l-71 -90l-109 90zM630.001 -327.002l109 -90l-71 -90l-109 90zM535.001 538.998l-109 90l71 90l109 -90zM328.001 532.998l-110 90l71 90l109 -90zM394.001 698.998
l-109 90l71 90l109 -90z" />
    <glyph glyph-name="uni069C.medi" unicode="&#x69c;" horiz-adv-x="1063" 
d="M1020 0c-18.667 0 -37.666 2.33301 -56.999 7s-37.833 11 -55.5 19s-34.167 17.5 -49.5 28.5s-28 22.833 -38 35.5c-26.667 -60 -63 -90 -109 -90c-56 0 -117.667 28.667 -185 86c-35.333 -57.333 -92.666 -86 -171.999 -86c-81.333 0 -141.333 37.667 -180 113
c-24.667 -71.333 -82.667 -109 -174 -113c-46.667 -0 -75.334 25.333 -86.001 76c-10 50.667 8 76 54 76h25c92 0 151.667 38 179 114c9.33301 22 17.333 33 24 33c14 0 22 -5.33301 24 -16c1.33301 -4.66699 2 -12.667 2 -24s0.666992 -20.666 2 -27.999
c12 -56 56.333 -84 133 -84c51.333 0 91 15.333 119 46c9.33301 9.33301 17.5 20.5 24.5 33.5s13.5 28.167 19.5 45.5c3.33301 15.333 7 26.666 11 33.999s7.66699 11 11 11c16 0 24.667 -7.33301 26 -22l6 -74c1.33301 -8 6.83301 -16 16.5 -24s21.5 -15.333 35.5 -22
s29.5 -12.167 46.5 -16.5s33.833 -6.5 50.5 -6.5c28 0 52 25.667 72 77c9.33301 26 17.5 45.5 24.5 58.5s12.167 19.5 15.5 19.5c7.33301 0 13.333 -1.5 18 -4.5s7.66699 -7.5 9 -13.5c0 -0.666992 -0.333008 -3 -1 -7s-1.33398 -9 -2.00098 -15s-1 -12.667 -1 -20
s0.666992 -14 2 -20c10.667 -50 47.667 -75 111 -75h59l33 -152h-43zM449.001 -215l109 -90l-71 -90l-109 90zM656.001 -209l109 -90l-71 -90l-109 90zM590.001 -375l109 -90l-71 -90l-109 90zM517.001 494l-109 90l71 90l109 -90zM310.001 488l-110 90l71 90l109 -90z
M376.001 654l-109 90l71 90l109 -90z" />
    <glyph glyph-name="uni069C.fina" unicode="&#x69c;" horiz-adv-x="1702" 
d="M1659 0c-18.667 0 -37.666 2.3291 -56.999 6.99609s-37.833 11 -55.5 19s-34.167 17.5 -49.5 28.5s-28 22.833 -38 35.5c-28.667 -60 -65 -90 -109 -90c-70.667 0 -133.334 28 -188.001 84c-32.667 -56 -88.334 -84 -167.001 -84c-15.333 0 -29.833 1.5 -43.5 4.5
s-25.5 7.5 -35.5 13.5c21.333 -100 18.333 -183.667 -9 -251c-18 -42.667 -54.667 -85 -110 -127c-80 -56 -176.333 -84 -289 -84c-130.667 0 -233 34 -307 102c-54 48 -88 105.333 -102 172c-16 71.333 -14 143 6 215c15.333 61.333 30.333 92 45 92
s23.334 -6.66699 26.001 -20c-0.666992 -5.33301 -2 -11.666 -4 -18.999l-5 -23l-7 -32c-5.33301 -23.333 -8.33301 -45.666 -9 -66.999s1 -40.666 5 -57.999c30.667 -144.667 150.667 -217 360 -217c183.333 0 307 47 371 141c-24 114 -73 218.667 -147 314l26 127
c5.33301 0 37.666 -33 96.999 -99c15.333 -15.333 33.5 -27 54.5 -35s46.5 -12 76.5 -12c25.333 0 48.333 4 69 12s38 19.667 52 35c20.667 18.667 37.334 47.334 50.001 86.001c10 31.333 17.333 47 22 47c12 0 19.667 -6 23 -18l9 -78
c2.66699 -13.333 21.334 -28.333 56.001 -45c36 -16 68.333 -24 97 -24c26 0 48 25.667 66 77l23 58.5c5.33301 13 9.66602 19.5 12.999 19.5c7.33301 0 13.333 -1.5 18 -4.5s7.66699 -7.5 9 -13.5c0 -0.666992 -0.333008 -3 -1 -7s-1.33398 -9 -2.00098 -15
s-1 -12.5 -1 -19.5s0.666992 -13.833 2 -20.5c10.667 -50 47.334 -75 110.001 -75h60l33 -152h-43zM1169 -238.004l109 -90l-71 -90l-109 90zM1376 -232.004l109 -90l-71 -90l-109 90zM1310 -398.004l109 -90l-71 -90l-109 90zM1214 537.996l-109 90l71 90l109 -90z
M1007 531.996l-110 90l71 90l109 -90zM1073 697.996l-109 90l71 90l109 -90z" />
    <glyph glyph-name="uni069D.init" unicode="&#x69d;" horiz-adv-x="1146" 
d="M935 330c-3.33301 19.333 -25.999 36.335 -67.999 51.002c-21.333 8 -42.333 14.167 -63 18.5s-41.334 6.5 -62.001 6.5c-96 0 -216 -91.667 -360 -275h51c48 0 99.167 6.16699 153.5 18.5s112.5 30.166 174.5 53.499c124 49.333 182 91.666 174 126.999zM1023 406.002
c6.66699 -30 4.16797 -63.332 -7.49902 -99.999s-33.167 -76 -64.5 -118c-46.667 -63.333 -124.667 -114.333 -234 -153c-100 -36.667 -193.667 -55 -281 -55c-76 0 -136.333 14.333 -181 43c-18 11.333 -35.5 27 -52.5 47s-34.167 45 -51.5 75
c-23.333 -90.667 -73.666 -139 -150.999 -145c-46.667 0 -75.334 25.333 -86.001 76c-10 50.667 8 76 54 76h16c50 0 88.667 19 116 57c31.333 39.333 45.333 59 42 59c7.33301 0 15.333 -6.66699 24 -20c41.333 -68.667 87 -103 137 -103c206 262.667 371 394 495 394
c24 0 47.667 -3.5 71 -10.5s47.333 -17.167 72 -30.5c47.333 -26.667 74.666 -57.334 81.999 -92.001zM414.002 -414.997l-113 93l74 93l112 -93zM610.002 -406.997l-113 93l73 93l113 -93z" />
    <glyph glyph-name="uni069D.medi" unicode="&#x69d;" horiz-adv-x="1210" 
d="M1210 0h-91.999c-33.333 -0 -70 -0.666992 -110 -2c-39.333 -1.33301 -71.666 -2.33301 -96.999 -3s-44.666 -1 -57.999 -1c-60.667 0 -110.5 0.833008 -149.5 2.5s-66.167 4.16699 -81.5 7.5c-71.333 -16 -133.333 -24 -186 -24c-76 0 -136.333 14.333 -181 43
c-18 11.333 -35.5 27 -52.5 47s-34.167 45 -51.5 75c-23.333 -90.667 -73.666 -139 -150.999 -145c-46.667 -0 -75.334 25.333 -86.001 76c-10 50.667 8 76 54 76h16c50 0 88.667 19 116 57c31.333 39.333 45.333 59 42 59c7.33301 0 15.333 -6.66699 24 -20
c41.333 -68.667 87 -103 137 -103c206 262.667 371 394 495 394c24 0 47.667 -3.5 71 -10.5s47.333 -17.167 72 -30.5c47.333 -26.667 74.666 -57.334 81.999 -92.001c8 -34.667 1.33301 -77 -20 -127c-22.667 -55.333 -58.334 -104.666 -107.001 -147.999
c11.333 0 26.833 0.833008 46.5 2.5s44.5 4.16699 74.5 7.5c28.667 3.33301 56.167 6 82.5 8s52.166 3 77.499 3zM935.001 330c-3.33301 19.333 -25.999 36.335 -67.999 51.002c-21.333 8 -42.333 14.167 -63 18.5s-41.334 6.5 -62.001 6.5c-96 0 -216 -91.667 -360 -275h51
c48 0 99.167 6.16699 153.5 18.5s112.5 30.166 174.5 53.499c124 49.333 182 91.666 174 126.999zM450.002 -433.998l-113 93l74 93l112 -93zM646.002 -425.998l-113 93l73 93l113 -93z" />
    <glyph glyph-name="uni069D.fina" unicode="&#x69d;" horiz-adv-x="1896" 
d="M1896 0l-92.001 -0.00292969c-33.333 0 -70 -0.666992 -110 -2c-39.333 -1.33301 -71.666 -2.33301 -96.999 -3s-44.666 -1 -57.999 -1c-60.667 0 -110.5 0.833008 -149.5 2.5s-66.167 4.16699 -81.5 7.5c-71.333 -16 -133.333 -24 -186 -24
c-82.667 0 -151.334 12.667 -206.001 38c21.333 -100 18.333 -183.667 -9 -251c-18 -42.667 -54.667 -85 -110 -127c-80 -56 -176.333 -84 -289 -84c-130.667 0 -233 34 -307 102c-54 48 -88 105.333 -102 172c-16 71.333 -14 143 6 215c15.333 61.333 30.333 92 45 92
s23.334 -6.66699 26.001 -20c-0.666992 -5.33301 -2 -11.666 -4 -18.999l-5 -23l-7 -32c-5.33301 -23.333 -8.33301 -45.666 -9 -66.999s1 -40.666 5 -57.999c30.667 -144.667 150.667 -217 360 -217c183.333 0 307 47 371 141c-24 114 -73 218.667 -147 314l26 127
c5.33301 0 37.666 -33 96.999 -99c24.667 -26 66.667 -39 126 -39c206 262.667 371 394 495 394c24 0 47.667 -3.5 71 -10.5s47.333 -17.167 72 -30.5c47.333 -26.667 74.666 -57.334 81.999 -92.001c8 -34.667 1.33301 -77 -20 -127
c-22.667 -55.333 -58.334 -104.666 -107.001 -147.999c11.333 0 26.833 0.833008 46.5 2.5s44.5 4.16699 74.5 7.5c28.667 3.33301 56.334 6 83.001 8s52.334 3 77.001 3zM1621 329.997c-3.33301 19.333 -26 36.335 -68 51.002c-21.333 8 -42.333 14.167 -63 18.5
s-41 6.5 -61 6.5c-96.667 0 -217 -91.667 -361 -275h51c48 0 99.167 6.16699 153.5 18.5s112.5 30.166 174.5 53.499c124 49.333 182 91.666 174 126.999zM1301 -435.001l-113 93l74 93l112 -93zM1497 -427.001l-113 93l73 93l113 -93z" />
    <glyph glyph-name="uni069E.init" unicode="&#x69e;" horiz-adv-x="1146" 
d="M935 330c-3.33301 19.333 -25.999 36.335 -67.999 51.002c-21.333 8 -42.333 14.167 -63 18.5s-41.334 6.5 -62.001 6.5c-96 0 -216 -91.667 -360 -275h51c48 0 99.167 6.16699 153.5 18.5s112.5 30.166 174.5 53.499c124 49.333 182 91.666 174 126.999zM1023 406.002
c6.66699 -30 4.16797 -63.332 -7.49902 -99.999s-33.167 -76 -64.5 -118c-46.667 -63.333 -124.667 -114.333 -234 -153c-100 -36.667 -193.667 -55 -281 -55c-76 0 -136.333 14.333 -181 43c-18 11.333 -35.5 27 -52.5 47s-34.167 45 -51.5 75
c-23.333 -90.667 -73.666 -139 -150.999 -145c-46.667 0 -75.334 25.333 -86.001 76c-10 50.667 8 76 54 76h16c50 0 88.667 19 116 57c31.333 39.333 45.333 59 42 59c7.33301 0 15.333 -6.66699 24 -20c41.333 -68.667 87 -103 137 -103c206 262.667 371 394 495 394
c24 0 47.667 -3.5 71 -10.5s47.333 -17.167 72 -30.5c47.333 -26.667 74.666 -57.334 81.999 -92.001zM430.002 611.003l-109 90l71 90l109 -90zM223.002 605.003l-110 90l71 90l109 -90zM289.002 771.003l-109 90l71 90l109 -90z" />
    <glyph glyph-name="uni069E.medi" unicode="&#x69e;" horiz-adv-x="1210" 
d="M1210 0h-91.999c-33.333 -0 -70 -0.666992 -110 -2c-39.333 -1.33301 -71.666 -2.33301 -96.999 -3s-44.666 -1 -57.999 -1c-60.667 0 -110.5 0.833008 -149.5 2.5s-66.167 4.16699 -81.5 7.5c-71.333 -16 -133.333 -24 -186 -24c-76 0 -136.333 14.333 -181 43
c-18 11.333 -35.5 27 -52.5 47s-34.167 45 -51.5 75c-23.333 -90.667 -73.666 -139 -150.999 -145c-46.667 -0 -75.334 25.333 -86.001 76c-10 50.667 8 76 54 76h16c50 0 88.667 19 116 57c31.333 39.333 45.333 59 42 59c7.33301 0 15.333 -6.66699 24 -20
c41.333 -68.667 87 -103 137 -103c206 262.667 371 394 495 394c24 0 47.667 -3.5 71 -10.5s47.333 -17.167 72 -30.5c47.333 -26.667 74.666 -57.334 81.999 -92.001c8 -34.667 1.33301 -77 -20 -127c-22.667 -55.333 -58.334 -104.666 -107.001 -147.999
c11.333 0 26.833 0.833008 46.5 2.5s44.5 4.16699 74.5 7.5c28.667 3.33301 56.167 6 82.5 8s52.166 3 77.499 3zM935.001 330c-3.33301 19.333 -25.999 36.335 -67.999 51.002c-21.333 8 -42.333 14.167 -63 18.5s-41.334 6.5 -62.001 6.5c-96 0 -216 -91.667 -360 -275h51
c48 0 99.167 6.16699 153.5 18.5s112.5 30.166 174.5 53.499c124 49.333 182 91.666 174 126.999zM457.002 649.002l-109 90l71 90l109 -90zM250.002 643.002l-110 90l71 90l109 -90zM316.002 809.002l-109 90l71 90l109 -90z" />
    <glyph glyph-name="uni069E.fina" unicode="&#x69e;" horiz-adv-x="1896" 
d="M1896 0l-92.001 -0.00292969c-33.333 0 -70 -0.666992 -110 -2c-39.333 -1.33301 -71.666 -2.33301 -96.999 -3s-44.666 -1 -57.999 -1c-60.667 0 -110.5 0.833008 -149.5 2.5s-66.167 4.16699 -81.5 7.5c-71.333 -16 -133.333 -24 -186 -24
c-82.667 0 -151.334 12.667 -206.001 38c21.333 -100 18.333 -183.667 -9 -251c-18 -42.667 -54.667 -85 -110 -127c-80 -56 -176.333 -84 -289 -84c-130.667 0 -233 34 -307 102c-54 48 -88 105.333 -102 172c-16 71.333 -14 143 6 215c15.333 61.333 30.333 92 45 92
s23.334 -6.66699 26.001 -20c-0.666992 -5.33301 -2 -11.666 -4 -18.999l-5 -23l-7 -32c-5.33301 -23.333 -8.33301 -45.666 -9 -66.999s1 -40.666 5 -57.999c30.667 -144.667 150.667 -217 360 -217c183.333 0 307 47 371 141c-24 114 -73 218.667 -147 314l26 127
c5.33301 0 37.666 -33 96.999 -99c24.667 -26 66.667 -39 126 -39c206 262.667 371 394 495 394c24 0 47.667 -3.5 71 -10.5s47.333 -17.167 72 -30.5c47.333 -26.667 74.666 -57.334 81.999 -92.001c8 -34.667 1.33301 -77 -20 -127
c-22.667 -55.333 -58.334 -104.666 -107.001 -147.999c11.333 0 26.833 0.833008 46.5 2.5s44.5 4.16699 74.5 7.5c28.667 3.33301 56.334 6 83.001 8s52.334 3 77.001 3zM1621 329.997c-3.33301 19.333 -26 36.335 -68 51.002c-21.333 8 -42.333 14.167 -63 18.5
s-41 6.5 -61 6.5c-96.667 0 -217 -91.667 -361 -275h51c48 0 99.167 6.16699 153.5 18.5s112.5 30.166 174.5 53.499c124 49.333 182 91.666 174 126.999zM1141 625.999l-109 90l71 90l109 -90zM933.999 619.999l-110 90l71 90l109 -90zM999.999 785.999l-109 90l71 90
l109 -90z" />
    <glyph glyph-name="uni069F.medi" unicode="&#x69f;" horiz-adv-x="1268" 
d="M1268 0c-13.333 0 -36.999 -0.835938 -70.999 -2.50293s-78 -4.16699 -132 -7.5s-100.833 -5.83301 -140.5 -7.5s-72.167 -2.5 -97.5 -2.5c-52 0 -95.5 1 -130.5 3s-60.833 5.66699 -77.5 11c-14 -5.33301 -36.167 -9 -66.5 -11s-68.5 -3 -114.5 -3
c-86 0 -174 21.667 -264 65c-78 39.333 -119.333 70 -124 92c-2 10 11.333 15 40 15h209c26.667 0 50 8.66699 70 26c23.333 19.333 42.333 35.833 57 49.5s24.667 25.167 30 34.5c6.66699 11.333 10.834 23.333 12.501 36s0.833984 26.667 -2.49902 42
c-18.667 88.667 -44.334 185 -77.001 289s-72 217.333 -118 340c-28 27.333 -46.333 60.666 -55 99.999c-6 29.333 3.33301 77 28 143c6 18 12.667 27 20 27c14 0 26.333 -25.333 37 -76c8.66699 -42 32.667 -68.667 72 -80c30.667 -8 47 -17.333 49 -28
c4 -18.667 7 -36.667 9 -54s2.33301 -33.666 1 -48.999c-1.33301 -22.667 -6 -34 -14 -34c-4 0 -9 0.5 -15 1.5s-13.667 3.16699 -23 6.5c30 -82.667 55.167 -157.5 75.5 -224.5s36.166 -126.833 47.499 -179.5c9.33301 -43.333 15.833 -81.166 19.5 -113.499
s4.16699 -59.166 1.5 -80.499c120 147.333 224.333 221 313 221c41.333 0 88.666 -13.667 141.999 -41c59.333 -30.667 93 -64 101 -100c8 -42 0.333008 -92 -23 -150c-11.333 -28.667 -24.5 -53.167 -39.5 -73.5s-31.167 -36.166 -48.5 -47.499c62 10 150.667 15 266 15z
M996.001 312.997c-2.66699 13.333 -25.333 30.667 -68 52c-46.667 21.333 -91.334 32 -134.001 32c-19.333 0 -42.166 -5.66699 -68.499 -17s-55.833 -28.666 -88.5 -51.999c-35.333 -23.333 -68.166 -49.833 -98.499 -79.5s-58.5 -61.834 -84.5 -96.501h66
c107.333 0 215.666 18.333 324.999 55c108 36.667 158.333 72 151 106zM937.002 819.998l-109 90l71 90l109 -90zM730.002 813.998l-110 90l71 90l109 -90zM796.002 979.998l-109 90l71 90l109 -90z" />
    <glyph glyph-name="uni06A0.init" unicode="&#x6a0;" horiz-adv-x="791" 
d="M670 199c-29.333 -17.333 -73.001 -36.502 -131.001 -57.502s-131 -44.167 -219 -69.5c-78 -21.333 -143.5 -38.166 -196.5 -50.499s-94.167 -19.5 -123.5 -21.5c-46.667 0 -75.334 25.333 -86.001 76c-10 50.667 8 76 54 76c31.333 0 60.333 1.5 87 4.5s50 7.5 70 13.5
c-30 30 -53.833 58.333 -71.5 85s-29.167 52.334 -34.5 77.001c-10.667 50 4 110 44 180c46 82 106.333 123 181 123c50.667 0 106.667 -17 168 -51c52.667 -30 81 -54.667 85 -74c2 -8 -1.66699 -12 -11 -12c-0.666992 0 -5.66699 1.66699 -15 5s-21.166 7 -35.499 11
s-30.166 7.66699 -47.499 11s-34 5 -50 5c-33.333 0 -74 -8 -122 -24c-57.333 -20.667 -105.666 -47.334 -144.999 -80.001c68.667 -109.333 166 -181.666 292 -216.999c65.333 16 132.666 39.333 201.999 70l123 49zM270.999 812.998l-109 90l71 90l109 -90z
M63.999 806.998l-110 90l71 90l109 -90zM129.999 972.998l-109 90l71 90l109 -90z" />
    <glyph glyph-name="uni06A0.medi" unicode="&#x6a0;" horiz-adv-x="647" 
d="M647 0c-68.667 0 -125.997 8.33008 -171.997 24.9971c-52 19.333 -109.333 56 -172 110c-101.333 -86 -202.333 -131 -303 -135c-46.667 0 -75.334 25.333 -86.001 76c-10 50.667 8 76 54 76c52 0 99.333 5 142 15s80.667 25.333 114 46c-34 46.667 -97.333 72 -190 76
c-9.33301 46 3.33398 86.333 38.001 121c39.333 39.333 98.666 59 177.999 59c33.333 0 64.166 -3.16699 92.499 -9.5s53.166 -15.166 74.499 -26.499s39 -25.166 53 -41.499s23 -34.833 27 -55.5c2.66699 -12 2.33398 -24.667 -0.999023 -38s-9 -26.333 -17 -39
s-18 -24.667 -30 -36s-25.333 -20.666 -40 -27.999c39.333 -28.667 96.666 -43 171.999 -43h33l33 -152v0zM274.003 674.997l-109 90l71 90l109 -90zM67.0029 668.997l-110 90l71 90l109 -90zM133.003 834.997l-109 90l71 90l109 -90z" />
    <glyph glyph-name="uni06A0.fina" unicode="&#x6a0;" horiz-adv-x="848" 
d="M1139 -672c3.33301 -12 -13.6641 -23.665 -50.9971 -34.998c-1.33301 0 -14.666 -4.66699 -39.999 -14l-114 -43c-31.333 -12 -61.833 -21.167 -91.5 -27.5s-58.5 -9.5 -86.5 -9.5c-358 0 -566.333 138 -625 414c-29.333 133.333 -22.333 257.666 21 372.999
c17.333 49.333 38.833 93.166 64.5 131.499s56.5 71.5 92.5 99.5c-36.667 31.333 -96.667 47 -180 47c-2 28 1.5 53.667 10.5 77s24.5 44 46.5 62c23.333 19.333 50.166 34.166 80.499 44.499s65.5 15.5 105.5 15.5c28 0 54.667 -3.33301 80 -10s48 -16.167 68 -28.5
s36.667 -26.833 50 -43.5s22 -35 26 -55c9.33301 -43.333 -19 -89.333 -85 -138c24.667 -24 66 -36 124 -36h180l33 -152h-123c-108.667 0 -213.334 48.333 -314.001 145c-79.333 -51.333 -139.333 -116.666 -180 -195.999c-44.667 -90.667 -57 -183 -37 -277
c28.667 -136 109.667 -230.667 243 -284c92 -37.333 259.667 -56 503 -56c16.667 0 34.167 0.5 52.5 1.5s35.666 2 51.999 3s30.666 2 42.999 3s20.833 1.5 25.5 1.5c16 0 24.667 -4.33301 26 -13zM384.003 721.002l-109 90l71 90l109 -90zM177.003 715.002l-110 90l71 90
l109 -90zM243.003 881.002l-109 90l71 90l109 -90z" />
    <glyph glyph-name="afii57459" unicode="&#x6a1;" horiz-adv-x="486" 
d="M385 283c12 -56.667 16.333 -102.668 13 -138.001s-15.666 -59.666 -36.999 -72.999c-75.333 -48 -178.666 -72 -309.999 -72h-51c-46.667 -0 -75.334 25.333 -86.001 76c-10 50.667 8 76 54 76h73c173.333 0 276.666 23.667 309.999 71
c-1.33301 8 -4.83301 18.333 -10.5 31s-12.334 26 -20.001 40s-16 27.333 -25 40s-17.5 23 -25.5 31c-8 -86 -40 -129 -96 -129c-18 0 -36.167 3.83301 -54.5 11.5s-35.166 18.167 -50.499 31.5s-28.5 29 -39.5 47s-18.833 37.667 -23.5 59
c-6.66699 32 -9.16699 63.167 -7.5 93.5s8.16699 59.833 19.5 88.5c22 53.333 47.667 80 77 80c38.667 0 91 -36 157 -108c70 -80 114.333 -165.333 133 -256zM206 435.999c-34 48 -69.667 72 -107 72c-46 0 -64 -22.667 -54 -68c1.33301 -7.33301 5.5 -15.333 12.5 -24
s15.167 -16.667 24.5 -24s19.5 -13.333 30.5 -18s21.5 -7 31.5 -7c45.333 0 66 23 62 69z" />
    <glyph glyph-name="afii57374" unicode="&#x6a1;" horiz-adv-x="606" 
d="M606 0c-157.333 0 -274.332 25.334 -350.999 76.001c-61.333 -50.667 -146.333 -76 -255 -76c-46.667 0 -75.334 25.333 -86.001 76c-10 50.667 8 76 54 76h18c72 0 115 4 129 12c-6.66699 13.333 -12 27 -16 41s-7.66699 28.333 -11 43
c-13.333 69.333 2 145.666 46 228.999c39.333 79.333 78 119 116 119c22.667 0 52 -25.333 88 -76c34.667 -50 57 -99 67 -147c8.66699 -39.333 8.66699 -80.333 0 -123c-3.33301 -19.333 -7.5 -35.833 -12.5 -49.5s-11.167 -25.167 -18.5 -34.5
c14 -5.33301 37.667 -9 71 -11s76 -3 128 -3zM356.001 299.001c-2 9.33301 -6.33301 20.499 -13 33.499s-15.334 27.167 -26.001 42.5c-24 36.667 -45.667 55 -65 55c-26.667 0 -53 -16.333 -79 -49c-12 -16.667 -20.667 -31.667 -26 -45s-6.66602 -25.666 -3.99902 -36.999
c4.66699 -21.333 40.667 -53.333 108 -96c76 34.667 111 66.667 105 96z" />
    <glyph glyph-name="afii52258" unicode="&#x6a1;" horiz-adv-x="1364" 
d="M1364 0c-135.333 0 -242.664 26.0049 -321.997 78.0049c-24 -20 -56.5 -38.333 -97.5 -55s-84.833 -31.167 -131.5 -43.5s-93.334 -21.833 -140.001 -28.5s-88 -10 -124 -10c-85.333 0 -160.333 7.5 -225 22.5s-121 37.5 -169 67.5c-76.667 47.333 -122 106 -136 176
c-10.667 47.333 -5.66699 100.666 15 159.999c20 51.333 37 77 51 77c11.333 0 18 -4.66699 20 -14c0 3.33301 -4.66699 -14.334 -14 -53.001c-6 -38.667 -6.33301 -71.334 -1 -98.001c10 -49.333 49.667 -91 119 -125c83.333 -42.667 198 -64 344 -64
c73.333 0 140.5 6.16699 201.5 18.5s116.5 30.166 166.5 53.499c-9.33301 14 -17 28.667 -23 44s-10.667 30.666 -14 45.999c-12 54 1.66699 125 41 213c40 87.333 76.333 131 109 131c22.667 0 52 -25.333 88 -76c17.333 -24.667 31.666 -49.167 42.999 -73.5
s19.666 -48.833 24.999 -73.5c9.33301 -40 9 -81 -1 -123c-6 -37.333 -16.333 -65.333 -31 -84c16.667 -5.33301 37.667 -9 63 -11s56 -3 92 -3h18zM1138 307.005c-3.33301 16 -16.999 39.9971 -40.999 71.9971c-25.333 34 -45 51 -59 51
c-9.33301 0 -19.333 -3.66699 -30 -11s-21.667 -18.666 -33 -33.999c-28.667 -33.333 -40 -64 -34 -92c6 -9.33301 16.833 -20.666 32.5 -33.999s36.167 -28.666 61.5 -45.999c73.333 40.667 107.666 72 102.999 94z" />
    <glyph glyph-name="uni06A2.init" unicode="&#x6a2;" horiz-adv-x="486" 
d="M385 283c12 -56.667 16.333 -102.668 13 -138.001s-15.666 -59.666 -36.999 -72.999c-75.333 -48 -178.666 -72 -309.999 -72h-51c-46.667 -0 -75.334 25.333 -86.001 76c-10 50.667 8 76 54 76h73c173.333 0 276.666 23.667 309.999 71
c-1.33301 8 -4.83301 18.333 -10.5 31s-12.334 26 -20.001 40s-16 27.333 -25 40s-17.5 23 -25.5 31c-8 -86 -40 -129 -96 -129c-18 0 -36.167 3.83301 -54.5 11.5s-35.166 18.167 -50.499 31.5s-28.5 29 -39.5 47s-18.833 37.667 -23.5 59
c-6.66699 32 -9.16699 63.167 -7.5 93.5s8.16699 59.833 19.5 88.5c22 53.333 47.667 80 77 80c38.667 0 91 -36 157 -108c70 -80 114.333 -165.333 133 -256zM206 435.999c-34 48 -69.667 72 -107 72c-46 0 -64 -22.667 -54 -68c1.33301 -7.33301 5.5 -15.333 12.5 -24
s15.167 -16.667 24.5 -24s19.5 -13.333 30.5 -18s21.5 -7 31.5 -7c45.333 0 66 23 62 69zM281 -367.001l-126 104l81 104l127 -104z" />
    <glyph glyph-name="uni06A2.medi" unicode="&#x6a2;" horiz-adv-x="606" 
d="M606 0c-157.333 0 -274.332 25.334 -350.999 76.001c-61.333 -50.667 -146.333 -76 -255 -76c-46.667 0 -75.334 25.333 -86.001 76c-10 50.667 8 76 54 76h18c72 0 115 4 129 12c-6.66699 13.333 -12 27 -16 41s-7.66699 28.333 -11 43
c-13.333 69.333 2 145.666 46 228.999c39.333 79.333 78 119 116 119c22.667 0 52 -25.333 88 -76c34.667 -50 57 -99 67 -147c8.66699 -39.333 8.66699 -80.333 0 -123c-3.33301 -19.333 -7.5 -35.833 -12.5 -49.5s-11.167 -25.167 -18.5 -34.5
c14 -5.33301 37.667 -9 71 -11s76 -3 128 -3zM356.001 299.001c-2 9.33301 -6.33301 20.499 -13 33.499s-15.334 27.167 -26.001 42.5c-24 36.667 -45.667 55 -65 55c-26.667 0 -53 -16.333 -79 -49c-12 -16.667 -20.667 -31.667 -26 -45s-6.66602 -25.666 -3.99902 -36.999
c4.66699 -21.333 40.667 -53.333 108 -96c76 34.667 111 66.667 105 96zM341.001 -373l-126 104l81 104l127 -104z" />
    <glyph glyph-name="uni06A2.fina" unicode="&#x6a2;" horiz-adv-x="1364" 
d="M1364 0c-135.333 0 -242.664 26.0049 -321.997 78.0049c-24 -20 -56.5 -38.333 -97.5 -55s-84.833 -31.167 -131.5 -43.5s-93.334 -21.833 -140.001 -28.5s-88 -10 -124 -10c-85.333 0 -160.333 7.5 -225 22.5s-121 37.5 -169 67.5c-76.667 47.333 -122 106 -136 176
c-10.667 47.333 -5.66699 100.666 15 159.999c20 51.333 37 77 51 77c11.333 0 18 -4.66699 20 -14c0 3.33301 -4.66699 -14.334 -14 -53.001c-6 -38.667 -6.33301 -71.334 -1 -98.001c10 -49.333 49.667 -91 119 -125c83.333 -42.667 198 -64 344 -64
c73.333 0 140.5 6.16699 201.5 18.5s116.5 30.166 166.5 53.499c-9.33301 14 -17 28.667 -23 44s-10.667 30.666 -14 45.999c-12 54 1.66699 125 41 213c40 87.333 76.333 131 109 131c22.667 0 52 -25.333 88 -76c17.333 -24.667 31.666 -49.167 42.999 -73.5
s19.666 -48.833 24.999 -73.5c9.33301 -40 9 -81 -1 -123c-6 -37.333 -16.333 -65.333 -31 -84c16.667 -5.33301 37.667 -9 63 -11s56 -3 92 -3h18zM1138 307.005c-3.33301 16 -16.999 39.9971 -40.999 71.9971c-25.333 34 -45 51 -59 51
c-9.33301 0 -19.333 -3.66699 -30 -11s-21.667 -18.666 -33 -33.999c-28.667 -33.333 -40 -64 -34 -92c6 -9.33301 16.833 -20.666 32.5 -33.999s36.167 -28.666 61.5 -45.999c73.333 40.667 107.666 72 102.999 94zM1140 -349.998l-126 104l81 104l127 -104z" />
    <glyph glyph-name="uni06A3.init" unicode="&#x6a3;" horiz-adv-x="486" 
d="M385 283c12 -56.667 16.333 -102.668 13 -138.001s-15.666 -59.666 -36.999 -72.999c-75.333 -48 -178.666 -72 -309.999 -72h-51c-46.667 -0 -75.334 25.333 -86.001 76c-10 50.667 8 76 54 76h73c173.333 0 276.666 23.667 309.999 71
c-1.33301 8 -4.83301 18.333 -10.5 31s-12.334 26 -20.001 40s-16 27.333 -25 40s-17.5 23 -25.5 31c-8 -86 -40 -129 -96 -129c-18 0 -36.167 3.83301 -54.5 11.5s-35.166 18.167 -50.499 31.5s-28.5 29 -39.5 47s-18.833 37.667 -23.5 59
c-6.66699 32 -9.16699 63.167 -7.5 93.5s8.16699 59.833 19.5 88.5c22 53.333 47.667 80 77 80c38.667 0 91 -36 157 -108c70 -80 114.333 -165.333 133 -256zM206 435.999c-34 48 -69.667 72 -107 72c-46 0 -64 -22.667 -54 -68c1.33301 -7.33301 5.5 -15.333 12.5 -24
s15.167 -16.667 24.5 -24s19.5 -13.333 30.5 -18s21.5 -7 31.5 -7c45.333 0 66 23 62 69zM68 791.999l-126 104l81 104l127 -104zM312 -376.001l-126 104l81 104l127 -104z" />
    <glyph glyph-name="uni06A3.medi" unicode="&#x6a3;" horiz-adv-x="606" 
d="M606 0c-157.333 0 -274.332 25.334 -350.999 76.001c-61.333 -50.667 -146.333 -76 -255 -76c-46.667 0 -75.334 25.333 -86.001 76c-10 50.667 8 76 54 76h18c72 0 115 4 129 12c-6.66699 13.333 -12 27 -16 41s-7.66699 28.333 -11 43
c-13.333 69.333 2 145.666 46 228.999c39.333 79.333 78 119 116 119c22.667 0 52 -25.333 88 -76c34.667 -50 57 -99 67 -147c8.66699 -39.333 8.66699 -80.333 0 -123c-3.33301 -19.333 -7.5 -35.833 -12.5 -49.5s-11.167 -25.167 -18.5 -34.5
c14 -5.33301 37.667 -9 71 -11s76 -3 128 -3zM356.001 299.001c-2 9.33301 -6.33301 20.499 -13 33.499s-15.334 27.167 -26.001 42.5c-24 36.667 -45.667 55 -65 55c-26.667 0 -53 -16.333 -79 -49c-12 -16.667 -20.667 -31.667 -26 -45s-6.66602 -25.666 -3.99902 -36.999
c4.66699 -21.333 40.667 -53.333 108 -96c76 34.667 111 66.667 105 96zM177.001 742l-126 104l81 104l127 -104zM357.001 -373l-126 104l81 104l127 -104z" />
    <glyph glyph-name="uni06A3.fina" unicode="&#x6a3;" horiz-adv-x="1364" 
d="M1364 0c-135.333 0 -242.664 26.0049 -321.997 78.0049c-24 -20 -56.5 -38.333 -97.5 -55s-84.833 -31.167 -131.5 -43.5s-93.334 -21.833 -140.001 -28.5s-88 -10 -124 -10c-85.333 0 -160.333 7.5 -225 22.5s-121 37.5 -169 67.5c-76.667 47.333 -122 106 -136 176
c-10.667 47.333 -5.66699 100.666 15 159.999c20 51.333 37 77 51 77c11.333 0 18 -4.66699 20 -14c0 3.33301 -4.66699 -14.334 -14 -53.001c-6 -38.667 -6.33301 -71.334 -1 -98.001c10 -49.333 49.667 -91 119 -125c83.333 -42.667 198 -64 344 -64
c73.333 0 140.5 6.16699 201.5 18.5s116.5 30.166 166.5 53.499c-9.33301 14 -17 28.667 -23 44s-10.667 30.666 -14 45.999c-12 54 1.66699 125 41 213c40 87.333 76.333 131 109 131c22.667 0 52 -25.333 88 -76c17.333 -24.667 31.666 -49.167 42.999 -73.5
s19.666 -48.833 24.999 -73.5c9.33301 -40 9 -81 -1 -123c-6 -37.333 -16.333 -65.333 -31 -84c16.667 -5.33301 37.667 -9 63 -11s56 -3 92 -3h18zM1138 307.005c-3.33301 16 -16.999 39.9971 -40.999 71.9971c-25.333 34 -45 51 -59 51
c-9.33301 0 -19.333 -3.66699 -30 -11s-21.667 -18.666 -33 -33.999c-28.667 -33.333 -40 -64 -34 -92c6 -9.33301 16.833 -20.666 32.5 -33.999s36.167 -28.666 61.5 -45.999c73.333 40.667 107.666 72 102.999 94zM955.003 751.002l-126 104l81 104l127 -104z
M1181 -391.998l-126 104l81 104l127 -104z" />
    <glyph glyph-name="uni06A5.init" unicode="&#x6a5;" horiz-adv-x="486" 
d="M385 283c12 -56.667 16.333 -102.668 13 -138.001s-15.666 -59.666 -36.999 -72.999c-75.333 -48 -178.666 -72 -309.999 -72h-51c-46.667 -0 -75.334 25.333 -86.001 76c-10 50.667 8 76 54 76h73c173.333 0 276.666 23.667 309.999 71
c-1.33301 8 -4.83301 18.333 -10.5 31s-12.334 26 -20.001 40s-16 27.333 -25 40s-17.5 23 -25.5 31c-8 -86 -40 -129 -96 -129c-18 0 -36.167 3.83301 -54.5 11.5s-35.166 18.167 -50.499 31.5s-28.5 29 -39.5 47s-18.833 37.667 -23.5 59
c-6.66699 32 -9.16699 63.167 -7.5 93.5s8.16699 59.833 19.5 88.5c22 53.333 47.667 80 77 80c38.667 0 91 -36 157 -108c70 -80 114.333 -165.333 133 -256zM206 435.999c-34 48 -69.667 72 -107 72c-46 0 -64 -22.667 -54 -68c1.33301 -7.33301 5.5 -15.333 12.5 -24
s15.167 -16.667 24.5 -24s19.5 -13.333 30.5 -18s21.5 -7 31.5 -7c45.333 0 66 23 62 69zM147 -139.001l109 -90l-71 -90l-109 90zM354 -133.001l109 -90l-71 -90l-109 90zM288 -299.001l109 -90l-71 -90l-109 90z" />
    <glyph glyph-name="uni06A5.medi" unicode="&#x6a5;" horiz-adv-x="606" 
d="M606 0c-157.333 0 -274.332 25.334 -350.999 76.001c-61.333 -50.667 -146.333 -76 -255 -76c-46.667 0 -75.334 25.333 -86.001 76c-10 50.667 8 76 54 76h18c72 0 115 4 129 12c-6.66699 13.333 -12 27 -16 41s-7.66699 28.333 -11 43
c-13.333 69.333 2 145.666 46 228.999c39.333 79.333 78 119 116 119c22.667 0 52 -25.333 88 -76c34.667 -50 57 -99 67 -147c8.66699 -39.333 8.66699 -80.333 0 -123c-3.33301 -19.333 -7.5 -35.833 -12.5 -49.5s-11.167 -25.167 -18.5 -34.5
c14 -5.33301 37.667 -9 71 -11s76 -3 128 -3zM356.001 299.001c-2 9.33301 -6.33301 20.499 -13 33.499s-15.334 27.167 -26.001 42.5c-24 36.667 -45.667 55 -65 55c-26.667 0 -53 -16.333 -79 -49c-12 -16.667 -20.667 -31.667 -26 -45s-6.66602 -25.666 -3.99902 -36.999
c4.66699 -21.333 40.667 -53.333 108 -96c76 34.667 111 66.667 105 96zM209.001 -165l109 -90l-71 -90l-109 90zM416.001 -159l109 -90l-71 -90l-109 90zM350.001 -325l109 -90l-71 -90l-109 90z" />
    <glyph glyph-name="uni06A5.fina" unicode="&#x6a5;" horiz-adv-x="1364" 
d="M1364 0c-135.333 0 -242.664 26.0049 -321.997 78.0049c-24 -20 -56.5 -38.333 -97.5 -55s-84.833 -31.167 -131.5 -43.5s-93.334 -21.833 -140.001 -28.5s-88 -10 -124 -10c-85.333 0 -160.333 7.5 -225 22.5s-121 37.5 -169 67.5c-76.667 47.333 -122 106 -136 176
c-10.667 47.333 -5.66699 100.666 15 159.999c20 51.333 37 77 51 77c11.333 0 18 -4.66699 20 -14c0 3.33301 -4.66699 -14.334 -14 -53.001c-6 -38.667 -6.33301 -71.334 -1 -98.001c10 -49.333 49.667 -91 119 -125c83.333 -42.667 198 -64 344 -64
c73.333 0 140.5 6.16699 201.5 18.5s116.5 30.166 166.5 53.499c-9.33301 14 -17 28.667 -23 44s-10.667 30.666 -14 45.999c-12 54 1.66699 125 41 213c40 87.333 76.333 131 109 131c22.667 0 52 -25.333 88 -76c17.333 -24.667 31.666 -49.167 42.999 -73.5
s19.666 -48.833 24.999 -73.5c9.33301 -40 9 -81 -1 -123c-6 -37.333 -16.333 -65.333 -31 -84c16.667 -5.33301 37.667 -9 63 -11s56 -3 92 -3h18zM1138 307.005c-3.33301 16 -16.999 39.9971 -40.999 71.9971c-25.333 34 -45 51 -59 51
c-9.33301 0 -19.333 -3.66699 -30 -11s-21.667 -18.666 -33 -33.999c-28.667 -33.333 -40 -64 -34 -92c6 -9.33301 16.833 -20.666 32.5 -33.999s36.167 -28.666 61.5 -45.999c73.333 40.667 107.666 72 102.999 94zM988.003 -191.998l109 -90l-71 -90l-109 90z
M1195 -185.998l109 -90l-71 -90l-109 90zM1129 -351.998l109 -90l-71 -90l-109 90z" />
    <glyph glyph-name="uni06A7.fina" unicode="&#x6a7;" horiz-adv-x="1053" 
d="M989 0c17.333 -80.667 13.0029 -150.331 -12.9971 -208.998c-25.333 -59.333 -82.666 -108.333 -171.999 -147c-90 -41.333 -186.667 -62 -290 -62c-125.333 0 -227.333 37 -306 111c-59.333 55.333 -96.333 118 -111 188
c-18.667 86.667 -15.334 163.334 9.99902 230.001c24 61.333 42.667 92 56 92c11.333 0 18 -6.33301 20 -19c1.33301 -4.66699 -5.33398 -33.334 -20.001 -86.001c-13.333 -54.667 -15.666 -101.667 -6.99902 -141c15.333 -70.667 58.333 -127.334 129 -170.001
c72.667 -45.333 155 -68 247 -68c89.333 0 180.666 21.333 273.999 64c80 37.333 127.667 70 143 98c-1.33301 16.667 -3.33301 31.667 -6 45c-3.33301 14.667 -7 27.667 -11 39s-8.66699 21.666 -14 30.999c-16.667 -5.33301 -33.667 -9.33301 -51 -12s-35.333 -4 -54 -4
c-116.667 0 -184.334 45.667 -203.001 137c-14 62.667 -8 120.667 18 174c25.333 53.333 58.666 80 99.999 80c70.667 0 140.667 -75.333 210 -226c12 4.66699 44 7 96 7l33 -152h-78zM838.003 129.003c-42 83.333 -82.667 125 -122 125c-10 0 -19.167 -2.83301 -27.5 -8.5
s-15.5 -12.667 -21.5 -21s-10.333 -17.5 -13 -27.5s-3 -19 -1 -27c7.33301 -33.333 43.333 -51 108 -53c31.333 0 57 4 77 12zM642.003 513.003l-126 104l81 104l127 -104z" />
    <glyph glyph-name="uni06A8.fina" unicode="&#x6a8;" horiz-adv-x="1053" 
d="M989 0c17.333 -80.667 13.0029 -150.331 -12.9971 -208.998c-25.333 -59.333 -82.666 -108.333 -171.999 -147c-90 -41.333 -186.667 -62 -290 -62c-125.333 0 -227.333 37 -306 111c-59.333 55.333 -96.333 118 -111 188
c-18.667 86.667 -15.334 163.334 9.99902 230.001c24 61.333 42.667 92 56 92c11.333 0 18 -6.33301 20 -19c1.33301 -4.66699 -5.33398 -33.334 -20.001 -86.001c-13.333 -54.667 -15.666 -101.667 -6.99902 -141c15.333 -70.667 58.333 -127.334 129 -170.001
c72.667 -45.333 155 -68 247 -68c89.333 0 180.666 21.333 273.999 64c80 37.333 127.667 70 143 98c-1.33301 16.667 -3.33301 31.667 -6 45c-3.33301 14.667 -7 27.667 -11 39s-8.66699 21.666 -14 30.999c-16.667 -5.33301 -33.667 -9.33301 -51 -12s-35.333 -4 -54 -4
c-116.667 0 -184.334 45.667 -203.001 137c-14 62.667 -8 120.667 18 174c25.333 53.333 58.666 80 99.999 80c70.667 0 140.667 -75.333 210 -226c12 4.66699 44 7 96 7l33 -152h-78zM838.003 129.003c-42 83.333 -82.667 125 -122 125c-10 0 -19.167 -2.83301 -27.5 -8.5
s-15.5 -12.667 -21.5 -21s-10.333 -17.5 -13 -27.5s-3 -19 -1 -27c7.33301 -33.333 43.333 -51 108 -53c31.333 0 57 4 77 12zM767.003 541.003l-109 90l71 90l109 -90zM560.003 535.003l-110 90l71 90l109 -90zM626.003 701.003l-109 90l71 90l109 -90z" />
    <glyph glyph-name="uni06AA.init" unicode="&#x6aa;" horiz-adv-x="1694" 
d="M-47 152c273.333 2 537.173 13.835 791.506 35.502s490.5 48.834 708.5 81.501c-1.33301 6.66699 -2.83301 14.667 -4.5 24s-3.83398 17 -6.50098 23c-10 28.667 -21.333 55.334 -34 80.001s-29.167 45.667 -49.5 63s-45.833 30.5 -76.5 39.5s-69 12.5 -115 10.5
c-28 0 -63.5 -1.33301 -106.5 -4l-143.5 -9l-168 -10.5c-59.333 -3.66699 -119.333 -6.66699 -180 -9s-120.834 -3.66602 -180.501 -3.99902s-115.834 1.16699 -168.501 4.5c-42 3.33301 -77.5 7.5 -106.5 12.5s-53 11.167 -72 18.5s-33.5 16.166 -43.5 26.499
s-16.667 22.5 -20 36.5c-6.66699 36.667 -3 74.167 11 112.5s35 76.166 63 113.499s61.333 74 100 110s79.334 70.167 122.001 102.5s85.667 62.333 129 90s83.5 52 120.5 73s69.167 38.167 96.5 51.5s46.666 21.666 57.999 24.999
c10.667 3.33301 17.667 5.16602 21 5.49902s4.5 -3.83398 3.5 -12.501s-2.83301 -23.334 -5.5 -44.001s-4.33398 -50.334 -5.00098 -89.001c-59.333 -28.667 -116.833 -57.834 -172.5 -87.501s-107.834 -58.834 -156.501 -87.501s-92.834 -56.5 -132.501 -83.5
s-73.5 -52 -101.5 -75s-49.333 -43.833 -64 -62.5s-21 -34 -19 -46c8 -17.333 27 -31 57 -41s67.667 -17 113 -21s96.666 -5.66699 153.999 -5s117 2.5 179 5.5s125 6.83301 189 11.5l184.5 13c59 4 113.667 7.33301 164 10s92.833 3.33398 127.5 2.00098
c60.667 -4.66699 113.334 -20.167 158.001 -46.5s80.5 -58.666 107.5 -96.999s44.833 -80.666 53.5 -126.999s7 -92.166 -5 -137.499l-42 -102c-492 -76 -994.333 -120 -1507 -132l-30.5 44.5c-8.33301 11.667 -14 22.667 -17 33s-3.33301 21 -1 32
s7.83301 25.167 16.5 42.5h6v0z" />
    <glyph glyph-name="uni06AA.medi" unicode="&#x6aa;" horiz-adv-x="1907" 
d="M-34 152c273.333 2 537.174 13.8369 791.507 35.5039s490.5 48.834 708.5 81.501c-1.33301 6.66699 -2.83301 14.667 -4.5 24s-3.83398 17 -6.50098 23c-10 28.667 -21.333 55.334 -34 80.001s-29.167 45.667 -49.5 63s-45.833 30.5 -76.5 39.5s-69 12.5 -115 10.5
c-28 0 -63.5 -1.33301 -106.5 -4l-143.5 -9l-168 -10.5c-59.333 -3.66699 -119.333 -6.66699 -180 -9s-120.834 -3.66602 -180.501 -3.99902s-115.834 1.16699 -168.501 4.5c-42 3.33301 -77.5 7.5 -106.5 12.5s-53 11.167 -72 18.5s-33.5 16.166 -43.5 26.499
s-16.667 22.5 -20 36.5c-6.66699 36.667 -3 74.167 11 112.5s35 76.166 63 113.499s61.333 74 100 110s79.334 70.167 122.001 102.5s85.667 62.333 129 90s83.5 52 120.5 73s69.167 38.167 96.5 51.5s46.666 21.666 57.999 24.999
c10.667 3.33301 17.667 5.16602 21 5.49902s4.5 -3.83398 3.5 -12.501s-2.83301 -23.334 -5.5 -44.001s-4.33398 -50.334 -5.00098 -89.001c-59.333 -28.667 -116.833 -57.834 -172.5 -87.501s-107.834 -58.834 -156.501 -87.501s-92.834 -56.5 -132.501 -83.5
s-73.5 -52 -101.5 -75s-49.333 -43.833 -64 -62.5s-21 -34 -19 -46c8 -17.333 27 -31 57 -41s67.667 -17 113 -21s96.666 -5.66699 153.999 -5s117 2.5 179 5.5s125 6.83301 189 11.5l184.5 13c59 4 113.667 7.33301 164 10s92.833 3.33398 127.5 2.00098
c60.667 -4.66699 113.334 -20.334 158.001 -47.001s80.667 -59.5 108 -98.5s45.333 -81.833 54 -128.5s7 -92.667 -5 -138c1.33301 -28.667 17.5 -49.167 48.5 -61.5s89.167 -17.833 174.5 -16.5h127c11.333 -17.333 20.166 -31.666 26.499 -42.999s10.5 -22.333 12.5 -33
s2.5 -21.667 1.5 -33s-3.5 -25.666 -7.5 -42.999h-112c-82.667 -1.33301 -144.667 1.16699 -186 7.5s-73.833 18 -97.5 35s-38.167 46.833 -43.5 89.5c-483.333 -76 -981.333 -120 -1494 -132l-30.5 44.5c-8.33301 11.667 -14 22.667 -17 33s-3.33301 21 -1 32
s7.83301 25.167 16.5 42.5h6v0z" />
    <glyph glyph-name="uni06AA.fina" unicode="&#x6aa;" horiz-adv-x="2592" 
d="M2207 42c-21.333 15.333 -34.9932 39 -40.9932 71c-423.333 -54 -755.333 -86.333 -996 -97c-240 -10.667 -393.667 -16 -461 -16c-38.667 -0.666992 -74 -0.666992 -106 0h-24c-93.333 -0 -172.333 8.83301 -237 26.5s-117.834 39.834 -159.501 66.501
s-73 55.667 -94 87s-34.5 60.666 -40.5 87.999c-6 26.667 -6.83301 54 -2.5 82s10.666 53.5 18.999 76.5s17.333 41.833 27 56.5s17.167 22 22.5 22c11.333 0 18 -4.66699 20 -14c0.666992 -3.33301 -0.5 -9.66602 -3.5 -18.999s-6 -20.833 -9 -34.5
s-5.16699 -28.834 -6.5 -45.501s0 -34 4 -52c4 -19.333 15.333 -39.833 34 -61.5s46 -41.834 82 -60.501s81.5 -34.334 136.5 -47.001s121.167 -19.334 198.5 -20.001h142c40 0 123.167 0.833008 249.5 2.5s300.333 13.5 522 35.5s441.834 48.667 660.501 80
c-1.33301 6.66699 -2.83301 14.667 -4.5 24s-3.83398 17 -6.5 23c-10 28.667 -20.833 53.334 -32.5 74.001s-27.334 37.334 -47 50.001c-19.667 12.667 -44.334 21.667 -74.001 27s-67.5 7 -113.5 5c-28.667 0 -64.5 -1.33301 -107.5 -4l-143 -9l-167.5 -10.5
c-59.333 -3.66699 -119.333 -6.66699 -180 -9s-120.834 -3.66602 -180.501 -3.99902s-115.834 1.16699 -168.501 4.5c-42 3.33301 -77.5 7.5 -106.5 12.5s-53 11.167 -72 18.5s-33.667 16.166 -44 26.499s-17.166 22.5 -20.499 36.5c-6.66699 36.667 -3 73.5 11 110.5
s35.333 73.333 64 109s62.667 70.334 102 104.001s80.666 65.334 123.999 95.001s86.833 57.167 130.5 82.5s84.334 47.5 122.001 66.5s70.167 34.667 97.5 47s46.666 20.166 57.999 23.499c10.667 3.33301 17.667 5.16602 21 5.49902s4.5 -3.83398 3.5 -12.501
s-2.83301 -23.334 -5.5 -44.001s-4.33398 -50.334 -5.00098 -89.001l-173 -85l-158 -81.5c-49.333 -26.333 -94.333 -51.666 -135 -75.999s-75.334 -46.833 -104.001 -67.5s-50.667 -39.5 -66 -56.5s-22 -31.5 -20 -43.5c8 -17.333 27.167 -31 57.5 -41
s68.166 -17 113.499 -21s96.833 -5.83301 154.5 -5.5s117.667 2 180 5s125.666 6.83301 189.999 11.5l185 13c59 4 113.667 7.33301 164 10s92.833 3.33398 127.5 2.00098c60.667 -4.66699 112.834 -17.667 156.501 -39s78.334 -48.333 104 -81
c25.667 -32.667 42.334 -69.834 50 -111.501c7.66699 -41.667 5.5 -85.167 -6.5 -130.5c-0.666992 -1.33301 -1 -2.66602 -1 -3.99902c3.33301 -29.333 19.666 -50 49 -62c31.333 -12 89.666 -17.333 175 -16h127c11.333 -17.333 20.166 -31.666 26.5 -42.999
c6.33301 -11.333 10.5 -22.333 12.5 -33s2.5 -21.667 1.5 -33s-3.5 -25.666 -7.5 -42.999h-112c-82.667 -1.33301 -144.667 1.16699 -186 7.5s-73.666 17.833 -97 34.5z" />
    <glyph glyph-name="uni06AB.init" unicode="&#x6ab;" horiz-adv-x="646" 
d="M418 1057l-199.996 -107.5l-162 -93.5c-108 -64 -159.667 -107 -155 -129c3.33301 -16.667 22.333 -32.334 57 -47.001c30.667 -14.667 58.167 -28.5 82.5 -41.5s45.166 -25.833 62.499 -38.5c166.667 -108 261.667 -217.333 285 -328
c38 -181.333 -81.667 -272 -359 -272h-29c-46.667 0 -75.334 25.333 -86.001 76c-10 50.667 8 76 54 76h89c92.667 0 165.667 10 219 30c51.333 21.333 74 46 68 74c-4 18.667 -15.333 39.667 -34 63s-43.167 47.5 -73.5 72.5s-65.5 50.5 -105.5 76.5s-83.333 51 -130 75
c-22.667 11.333 -40.834 21 -54.501 29s-23.167 14 -28.5 18c-11.333 7.33301 -20.666 15.833 -27.999 25.5s-12.333 20.167 -15 31.5l-15 72c-8 37.333 -2 73.666 18 108.999s53.333 70 100 104c37.333 26.667 92.166 61.334 164.499 104.001
s163.166 93.334 272.499 152.001zM394.004 910c4.66699 -22 5.33203 -43.168 1.99902 -63.501s-9.83301 -38.5 -19.5 -54.5s-22.667 -28.667 -39 -38s-35.166 -14 -56.499 -14c-29.333 0 -55.333 9.5 -78 28.5s-37.667 45.167 -45 78.5c-5.33301 23.333 -6.5 45.5 -3.5 66.5
s10.833 41.833 23.5 62.5c24.667 42 56.667 63 96 63c30 0 55.5 -12.167 76.5 -36.5s35.5 -55.166 43.5 -92.499zM347.002 887.999c-2 10 -5.49609 19.5 -10.4961 28.5s-11 17.167 -18 24.5s-14.833 13.166 -23.5 17.499s-17.334 6.5 -26.001 6.5
c-10 0 -19.5 -2.5 -28.5 -7.5s-16.5 -11.667 -22.5 -20s-10.333 -17.833 -13 -28.5s-2.66699 -22 0 -34c3.33301 -17.333 12.166 -31.166 26.499 -41.499s29.166 -15.5 44.499 -15.5c12 0 22.667 2.16699 32 6.5s17.166 9.83301 23.499 16.5s11 14.167 14 22.5
s3.5 16.5 1.5 24.5z" />
    <glyph glyph-name="uni06AB.medi" unicode="&#x6ab;" horiz-adv-x="909" 
d="M909 0c-42 0 -80.334 9.66113 -115.001 28.9941c-20.667 11.333 -44.834 27.333 -72.501 48s-58.834 47 -93.501 79c-56.667 50 -108 93.333 -154 130s-87.333 66.334 -124 89.001c7.33301 -12.667 14.333 -27.667 21 -45s12.334 -36.666 17.001 -57.999
c38 -181.333 -83.667 -272 -365 -272h-23c-46.667 0 -75.334 25.333 -86.001 76c-10 50.667 8 76 54 76h81c211.333 0 308.333 40.667 291 122c-15.333 72.667 -128.333 162.334 -339 269.001c-22.667 11.333 -40.834 21 -54.501 29s-23.167 14 -28.5 18
c-11.333 7.33301 -20.666 15.833 -27.999 25.5s-12.333 20.167 -15 31.5l-15 72c-8.66699 40 -0.666992 79 24 117s66.334 76 125.001 114c50 32 119 72 207 120l323 169l-2 -127l-344.5 -178.5c-91 -49 -158.833 -88.5 -203.5 -118.5
c-63.333 -39.333 -92.666 -68.666 -87.999 -87.999c3.33301 -16.667 33 -37 89 -61c73.333 -32 136 -60.667 188 -86s94 -46.666 126 -63.999c37.333 -20.667 74.833 -43.667 112.5 -69s75.834 -53.666 114.501 -84.999c174.667 -140 281.667 -210 321 -210h24l33 -152v0z
M495.999 957.994c4.66699 -22 5.33203 -43.168 1.99902 -63.501s-9.83301 -38.5 -19.5 -54.5s-22.667 -28.667 -39 -38s-35.166 -14 -56.499 -14c-29.333 0 -55.333 9.5 -78 28.5s-37.667 45.167 -45 78.5c-5.33301 23.333 -6.5 45.5 -3.5 66.5s10.833 41.833 23.5 62.5
c24.667 42 56.667 63 96 63c30 0 55.5 -12.167 76.5 -36.5s35.5 -55.166 43.5 -92.499zM448.997 935.993c-2 10 -5.49609 19.5 -10.4961 28.5s-11 17.167 -18 24.5s-14.833 13.166 -23.5 17.499s-17.334 6.5 -26.001 6.5c-10 0 -19.5 -2.5 -28.5 -7.5
s-16.5 -11.667 -22.5 -20s-10.333 -17.833 -13 -28.5s-2.66699 -22 0 -34c3.33301 -17.333 12.166 -31.166 26.499 -41.499s29.166 -15.5 44.499 -15.5c12 0 22.667 2.16699 32 6.5s17.166 9.83301 23.499 16.5s11 14.167 14 22.5s3.5 16.5 1.5 24.5z" />
    <glyph glyph-name="uni06AB.fina" unicode="&#x6ab;" horiz-adv-x="1730" 
d="M1358 1112l-259.001 -134.496l-178.5 -96.5c-47.667 -26.667 -85 -48.5 -112 -65.5s-47.167 -31.167 -60.5 -42.5s-21.5 -20.333 -24.5 -27s-3.83301 -13 -2.5 -19c2.66699 -11.333 10.334 -21 23.001 -29s34.667 -18.667 66 -32l124 -55l103 -47.5
c31.333 -15 60.333 -29.833 87 -44.5s52.5 -30 77.5 -46s49.667 -33 74 -51s49.833 -38 76.5 -60l123.5 -99c35 -26.667 65.167 -48.334 90.5 -65.001s46.5 -28.5 63.5 -35.5s31.167 -10.5 42.5 -10.5h25l33 -152c-18.667 0 -37.167 2 -55.5 6s-38.333 11.667 -60 23
s-45.834 27.166 -72.501 47.499s-58 46.833 -94 79.5l-53 47.5l-57 48l-57.5 45l-52.5 39.5l-57 37c6 -7.33301 12 -19 18 -35c4 -9.33301 7.5 -19.5 10.5 -30.5l9.5 -35.5c7.33301 -35.333 3.83301 -68 -10.5 -98s-36.666 -57.333 -66.999 -82
s-67.166 -46.5 -110.499 -65.5s-90.5 -35 -141.5 -48s-104.167 -22.833 -159.5 -29.5s-110 -10 -164 -10c-92.667 0 -170.167 9.16699 -232.5 27.5s-112.666 40.833 -150.999 67.5s-66.833 55.167 -85.5 85.5s-30.334 57.5 -35.001 81.5c-6 26.667 -6.83301 54 -2.5 82
s10.666 53.5 18.999 76.5s17.333 41.833 27 56.5s17.167 22 22.5 22c11.333 0 18 -4.66699 20 -14c0.666992 -3.33301 -0.333008 -9.5 -3 -18.5s-5.5 -20.5 -8.5 -34.5s-5 -29.833 -6 -47.5s0.5 -36.167 4.5 -55.5c4.66699 -22 17.334 -44.333 38.001 -67
s49.667 -43.334 87 -62.001s83 -33.834 137 -45.501s116.333 -17.5 187 -17.5c49.333 0 98.5 3.33301 147.5 10s95.667 15.334 140 26.001s85.333 23 123 37s70 28.333 97 43s47.667 29.167 62 43.5s20.166 27.166 17.499 38.499c-4 18 -12 36.167 -24 54.5
s-31 38.166 -57 59.499s-60 44.5 -102 69.5s-94.333 53.5 -157 85.5c-34 16 -62.167 31 -84.5 45s-36.166 33.667 -41.499 59l-15 72c-3.33301 16 -4 33 -2 51s8.33301 36.833 19 56.5s26.667 39.834 48 60.501s49.333 41.667 84 63c61.333 40 135.666 83 222.999 129
l307 160l-1 -127v0zM1345 980.004c4.66699 -22 5.33203 -43.168 1.99902 -63.501s-9.83301 -38.5 -19.5 -54.5s-22.667 -28.667 -39 -38s-35.166 -14 -56.499 -14c-29.333 0 -55.333 9.5 -78 28.5s-37.667 45.167 -45 78.5c-5.33301 23.333 -6.5 45.5 -3.5 66.5
s10.833 41.833 23.5 62.5c24.667 42 56.667 63 96 63c30 0 55.5 -12.167 76.5 -36.5s35.5 -55.166 43.5 -92.499zM1298 958.003c-2 10 -5.49609 19.5 -10.4961 28.5s-11 17.167 -18 24.5s-14.833 13.166 -23.5 17.499s-17.334 6.5 -26.001 6.5c-10 0 -19.5 -2.5 -28.5 -7.5
s-16.5 -11.667 -22.5 -20s-10.333 -17.833 -13 -28.5s-2.66699 -22 0 -34c3.33301 -17.333 12.166 -31.166 26.499 -41.499s29.166 -15.5 44.499 -15.5c12 0 22.667 2.16699 32 6.5s17.166 9.83301 23.499 16.5s11 14.167 14 22.5s3.5 16.5 1.5 24.5z" />
    <glyph glyph-name="uni06AE.init" unicode="&#x6ae;" horiz-adv-x="646" 
d="M418 1057l-199.996 -107.5l-162 -93.5c-108 -64 -159.667 -107 -155 -129c3.33301 -16.667 22.333 -32.334 57 -47.001c30.667 -14.667 58.167 -28.5 82.5 -41.5s45.166 -25.833 62.499 -38.5c166.667 -108 261.667 -217.333 285 -328
c38 -181.333 -81.667 -272 -359 -272h-29c-46.667 0 -75.334 25.333 -86.001 76c-10 50.667 8 76 54 76h89c92.667 0 165.667 10 219 30c51.333 21.333 74 46 68 74c-4 18.667 -15.333 39.667 -34 63s-43.167 47.5 -73.5 72.5s-65.5 50.5 -105.5 76.5s-83.333 51 -130 75
c-22.667 11.333 -40.834 21 -54.501 29s-23.167 14 -28.5 18c-11.333 7.33301 -20.666 15.833 -27.999 25.5s-12.333 20.167 -15 31.5l-15 72c-8 37.333 -2 73.666 18 108.999s53.333 70 100 104c37.333 26.667 92.166 61.334 164.499 104.001
s163.166 93.334 272.499 152.001zM150.004 -163l109 -90l-71 -90l-109 90zM357.004 -157l109 -90l-71 -90l-109 90zM291.004 -323l109 -90l-71 -90l-109 90z" />
    <glyph glyph-name="uni06AE.medi" unicode="&#x6ae;" horiz-adv-x="909" 
d="M909 0c-42 0 -80.334 9.66113 -115.001 28.9941c-20.667 11.333 -44.834 27.333 -72.501 48s-58.834 47 -93.501 79c-56.667 50 -108 93.333 -154 130s-87.333 66.334 -124 89.001c7.33301 -12.667 14.333 -27.667 21 -45s12.334 -36.666 17.001 -57.999
c38 -181.333 -83.667 -272 -365 -272h-23c-46.667 0 -75.334 25.333 -86.001 76c-10 50.667 8 76 54 76h81c211.333 0 308.333 40.667 291 122c-15.333 72.667 -128.333 162.334 -339 269.001c-22.667 11.333 -40.834 21 -54.501 29s-23.167 14 -28.5 18
c-11.333 7.33301 -20.666 15.833 -27.999 25.5s-12.333 20.167 -15 31.5l-15 72c-8.66699 40 -0.666992 79 24 117s66.334 76 125.001 114c50 32 119 72 207 120l323 169l-2 -127l-344.5 -178.5c-91 -49 -158.833 -88.5 -203.5 -118.5
c-63.333 -39.333 -92.666 -68.666 -87.999 -87.999c3.33301 -16.667 33 -37 89 -61c73.333 -32 136 -60.667 188 -86s94 -46.666 126 -63.999c37.333 -20.667 74.833 -43.667 112.5 -69s75.834 -53.666 114.501 -84.999c174.667 -140 281.667 -210 321 -210h24l33 -152v0z
M190.999 -161.006l109 -90l-71 -90l-109 90zM397.999 -155.006l109 -90l-71 -90l-109 90zM331.999 -321.006l109 -90l-71 -90l-109 90z" />
    <glyph glyph-name="uni06AE.fina" unicode="&#x6ae;" horiz-adv-x="1247" 
d="M1247 0c-68.667 0 -122.336 16.998 -161.003 50.998c-24 19.333 -46 46.5 -66 81.5s-39 77.5 -57 127.5c-3.33301 -15.333 -6.5 -29 -9.5 -41s-6.16699 -21.667 -9.5 -29c-6 -11.333 -13 -22 -21 -32s-16.667 -19 -26 -27c-42 -36 -108.667 -69.333 -200 -100
c-50 -17.333 -98.167 -30.166 -144.5 -38.499s-91.5 -12.5 -135.5 -12.5c-103.333 0 -190.333 25 -261 75c-67.333 46.667 -109.666 108.334 -126.999 185.001c-12 60 -7.66699 122 13 186c18 56 35.667 84 53 84c14 0 22.667 -7.66699 26 -23
c0 -1.33301 -1.5 -7.83301 -4.5 -19.5s-8.16699 -28.167 -15.5 -49.5c-12.667 -42 -16 -79 -10 -111c12 -55.333 47 -100.333 105 -135c64.667 -36.667 150.667 -55 258 -55c87.333 0 179 18.333 275 55c46 18.667 86.333 38.667 121 60s63.667 43.666 87 66.999l-218 778
l16 133c2 19.333 5.33301 29 10 29c3.33301 0 8.33301 -9.16699 15 -27.5s14.334 -45.5 23.001 -81.5c7.33301 -28 20.333 -73.333 39 -136l73 -240l84 -272c24 -75.333 44.667 -135.666 62 -180.999c24.667 -64 46.334 -105 65.001 -123c21.333 -17.333 57.333 -26 108 -26
zM583.998 591.998c10.667 -50.667 1.33594 -96.999 -27.9971 -138.999c-16.667 -24.667 -47.334 -37 -92.001 -37c-39.333 0 -75 9.33301 -107 28c-11.333 7.33301 -20.333 14.166 -27 20.499s-10.667 12.5 -12 18.5c-2.66699 10 1.33301 15 12 15c12.667 -6 25 -11 37 -15
c10.667 -3.33301 21.834 -6.5 33.501 -9.5s22.834 -4.5 33.501 -4.5c28 0 53.333 8.33301 76 25c22 13.333 32 24.666 30 33.999c-3.33301 16 -34.333 27 -93 33c-55.333 8 -87 32 -95 72c-4.66699 20.667 -3.83398 43.167 2.49902 67.5s17.166 50.833 32.499 79.5
c34 60 61 90 81 90c4.66699 0 10.667 -2.33301 18 -7s14.666 -10 21.999 -16s13.666 -11.833 18.999 -17.5s8.33301 -9.83398 9 -12.501c2 -9.33301 2.83301 -17.833 2.5 -25.5s-1.5 -14.167 -3.5 -19.5l-28 -49c-26.667 20.667 -48 31 -64 31c-6 0 -12 -1.66699 -18 -5
s-11.167 -7.66602 -15.5 -12.999s-7.5 -11.166 -9.5 -17.499s-2.33301 -12.5 -1 -18.5c4 -19.333 34.333 -36.333 91 -51c56.667 -12 88 -31 94 -57zM471 -206.001l109 -90l-71 -90l-109 90zM678 -200.001l109 -90l-71 -90l-109 90zM612 -366.001l109 -90l-71 -90l-109 90z
" />
    <glyph glyph-name="uni06B0.init" unicode="&#x6b0;" horiz-adv-x="639" 
d="M0 0c-46.667 0 -75.3359 25.3291 -86.0029 75.9961c-10 50.667 8 76 54 76h89c47.333 0 89.5 2.66699 126.5 8s67.833 12.833 92.5 22.5s42.834 20.834 54.501 33.501s16.167 26 13.5 40c-4 18.667 -15.333 39.834 -34 63.501s-43.167 48.167 -73.5 73.5
s-65.5 50.833 -105.5 76.5s-83.333 50.167 -130 73.5c-34 16 -62.167 31.167 -84.5 45.5s-36.166 33.833 -41.499 58.5l-15 72c-4 16.667 -5.33301 33.167 -4 49.5s6.33301 33 15 50s21.667 34.833 39 53.5s40 38.667 68 60l91 54l118.5 70l123 72l104.5 60l3 -131
l-216 -117l-146 -84c-30 -17.333 -55.167 -32.666 -75.5 -45.999s-36.666 -25 -48.999 -35s-20.833 -18.833 -25.5 -26.5s-6.33398 -14.834 -5.00098 -21.501c2.66699 -11.333 8.66699 -20.166 18 -26.499s22.5 -13.333 39.5 -21l61.5 -29c24 -11.667 51.667 -28.5 83 -50.5
c48.667 -31.333 90 -61.5 124 -90.5s62 -57.167 84 -84.5s39 -53.666 51 -78.999s20.667 -50 26 -74c10.667 -51.333 9.33398 -94.5 -3.99902 -129.5s-36.333 -63 -69 -84s-73.5 -36 -122.5 -45s-103.5 -13.5 -163.5 -13.5h-29zM399.998 1298l-528 -299v103l528 299v-103z
M403.998 909.996c4.66699 -22 5.33203 -43.168 1.99902 -63.501s-9.83301 -38.5 -19.5 -54.5s-22.667 -28.667 -39 -38s-35.166 -14 -56.499 -14c-29.333 0 -55.333 9.5 -78 28.5s-37.667 45.167 -45 78.5c-5.33301 23.333 -6.5 45.5 -3.5 66.5s10.833 41.833 23.5 62.5
c24.667 42 56.667 63 96 63c30 0 55.5 -12.167 76.5 -36.5s35.5 -55.166 43.5 -92.499zM356.996 887.995c-2 10 -5.49609 19.5 -10.4961 28.5s-11 17.167 -18 24.5s-14.833 13.166 -23.5 17.499s-17.334 6.5 -26.001 6.5c-10 0 -19.5 -2.5 -28.5 -7.5
s-16.5 -11.667 -22.5 -20s-10.333 -17.833 -13 -28.5s-2.66699 -22 0 -34c3.33301 -17.333 12.166 -31.166 26.499 -41.499s29.166 -15.5 44.499 -15.5c12 0 22.667 2.16699 32 6.5s17.166 9.83301 23.499 16.5s11 14.167 14 22.5s3.5 16.5 1.5 24.5z" />
    <glyph glyph-name="uni06B0.medi" unicode="&#x6b0;" horiz-adv-x="909" 
d="M0 0c-46.667 0 -75.335 25.3359 -86.002 76.0029c-10 50.667 8 76 54 76h81c44.667 0 85.834 2.33301 123.501 7s69.667 12 96 22s46 22.667 59 38s17.167 33.666 12.5 54.999c-4 18 -12.167 36.333 -24.5 55s-31.333 38.667 -57 60s-59.334 44.5 -101.001 69.5
s-93.834 53.167 -156.501 84.5c-34 16 -62.167 31.167 -84.5 45.5s-36.166 33.833 -41.499 58.5l-15 72c-4 16.667 -4.83301 34 -2.5 52s9 36.5 20 55.5s27.167 38.833 48.5 59.5s49 42 83 64c60.667 40 134.667 83 222 129l308 160l-2 -127l-258.5 -134.5l-178 -96.5
c-47.667 -26.667 -85 -48.5 -112 -65.5s-47.167 -31.167 -60.5 -42.5s-21.5 -20.333 -24.5 -27s-3.83301 -13 -2.5 -19c1.33301 -5.33301 3.66602 -10.333 6.99902 -15s8.5 -9.33398 15.5 -14.001s15.833 -9.5 26.5 -14.5s24 -10.833 40 -17.5l178 -79.5
c50 -23 95.333 -45.833 136 -68.5s78.834 -46.167 114.501 -70.5s73.167 -52.833 112.5 -85.5l125 -98c34.667 -26.667 64.5 -48.334 89.5 -65.001s45.833 -28.667 62.5 -36s31.334 -11 44.001 -11h24l33 -152c-19.333 0 -38 2 -56 6s-37.667 11.667 -59 23
s-45.166 27.166 -71.499 47.499s-57.833 46.833 -94.5 79.5l-53.5 47.5l-57.5 48l-57 45l-53 39.5l-57 37l18 -35c4 -9.33301 7.5 -19.5 10.5 -30.5l9.5 -35.5c12 -55.333 10.333 -100.666 -5 -135.999s-40 -63 -74 -83s-75.833 -33.833 -125.5 -41.5
s-103.167 -11.5 -160.5 -11.5h-23zM519.999 1358l-656 -359v103l656 358v-102zM512.999 969.003c4.66699 -22 5.33203 -43.168 1.99902 -63.501s-9.83301 -38.5 -19.5 -54.5s-22.667 -28.667 -39 -38s-35.166 -14 -56.499 -14c-29.333 0 -55.333 9.5 -78 28.5
s-37.667 45.167 -45 78.5c-5.33301 23.333 -6.5 45.5 -3.5 66.5s10.833 41.833 23.5 62.5c24.667 42 56.667 63 96 63c30 0 55.5 -12.167 76.5 -36.5s35.5 -55.166 43.5 -92.499zM465.997 947.002c-2 10 -5.49609 19.5 -10.4961 28.5s-11 17.167 -18 24.5
s-14.833 13.166 -23.5 17.499s-17.334 6.5 -26.001 6.5c-10 0 -19.5 -2.5 -28.5 -7.5s-16.5 -11.667 -22.5 -20s-10.333 -17.833 -13 -28.5s-2.66699 -22 0 -34c3.33301 -17.333 12.166 -31.166 26.499 -41.499s29.166 -15.5 44.499 -15.5c12 0 22.667 2.16699 32 6.5
s17.166 9.83301 23.499 16.5s11 14.167 14 22.5s3.5 16.5 1.5 24.5z" />
    <glyph glyph-name="uni06B0.fina" unicode="&#x6b0;" horiz-adv-x="1720" 
d="M1348 1112l-259.001 -134.496l-178.5 -96.5c-47.667 -26.667 -85 -48.5 -112 -65.5s-47.167 -31.167 -60.5 -42.5s-21.5 -20.333 -24.5 -27s-3.83301 -13 -2.5 -19c2.66699 -11.333 10.334 -21 23.001 -29s34.667 -18.667 66 -32l124 -55l103 -47.5
c31.333 -15 60.333 -29.833 87 -44.5s52.5 -30 77.5 -46s49.667 -33 74 -51s49.833 -38 76.5 -60l123.5 -99c35 -26.667 65.167 -48.334 90.5 -65.001s46.5 -28.5 63.5 -35.5s31.167 -10.5 42.5 -10.5h25l33 -152c-18.667 0 -37.167 2 -55.5 6s-38.333 11.667 -60 23
s-45.834 27.166 -72.501 47.499s-58 46.833 -94 79.5l-53 47.5l-57 48l-57.5 45l-52.5 39.5l-57 37c6 -7.33301 12 -19 18 -35c4 -9.33301 7.5 -19.5 10.5 -30.5l9.5 -35.5c7.33301 -35.333 3.83301 -68 -10.5 -98s-36.666 -57.333 -66.999 -82
s-67.166 -46.5 -110.499 -65.5s-90.5 -35 -141.5 -48s-104.167 -22.833 -159.5 -29.5s-110 -10 -164 -10c-92.667 0 -170.167 9.16699 -232.5 27.5s-112.666 40.833 -150.999 67.5s-66.833 55.167 -85.5 85.5s-30.334 57.5 -35.001 81.5c-6 26.667 -6.83301 54 -2.5 82
s10.666 53.5 18.999 76.5s17.333 41.833 27 56.5s17.167 22 22.5 22c11.333 0 18 -4.66699 20 -14c0.666992 -3.33301 -0.333008 -9.5 -3 -18.5s-5.5 -20.5 -8.5 -34.5s-5 -29.833 -6 -47.5s0.5 -36.167 4.5 -55.5c4.66699 -22 17.334 -44.333 38.001 -67
s49.667 -43.334 87 -62.001s83 -33.834 137 -45.501s116.333 -17.5 187 -17.5c49.333 0 98.5 3.33301 147.5 10s95.667 15.334 140 26.001s85.333 23 123 37s70 28.333 97 43s47.667 29.167 62 43.5s20.166 27.166 17.499 38.499c-4 18 -12 36.167 -24 54.5
s-31 38.166 -57 59.499s-60 44.5 -102 69.5s-94.333 53.5 -157 85.5c-34 16 -62.167 31 -84.5 45s-36.166 33.667 -41.499 59l-15 72c-3.33301 16 -4 33 -2 51s8.33301 36.833 19 56.5s26.667 39.834 48 60.501s49.333 41.667 84 63c61.333 40 135.666 83 222.999 129
l307 160zM1330 1358l-657 -359l1 103l657 358zM1274 943.004c4.66699 -22 5.33203 -43.168 1.99902 -63.501s-9.83301 -38.5 -19.5 -54.5s-22.667 -28.667 -39 -38s-35.166 -14 -56.499 -14c-29.333 0 -55.333 9.5 -78 28.5s-37.667 45.167 -45 78.5
c-5.33301 23.333 -6.5 45.5 -3.5 66.5s10.833 41.833 23.5 62.5c24.667 42 56.667 63 96 63c30 0 55.5 -12.167 76.5 -36.5s35.5 -55.166 43.5 -92.499zM1227 921.003c-2 10 -5.49609 19.5 -10.4961 28.5s-11 17.167 -18 24.5s-14.833 13.166 -23.5 17.499
s-17.334 6.5 -26.001 6.5c-10 0 -19.5 -2.5 -28.5 -7.5s-16.5 -11.667 -22.5 -20s-10.333 -17.833 -13 -28.5s-2.66699 -22 0 -34c3.33301 -17.333 12.166 -31.166 26.499 -41.499s29.166 -15.5 44.499 -15.5c12 0 22.667 2.16699 32 6.5s17.166 9.83301 23.499 16.5
s11 14.167 14 22.5s3.5 16.5 1.5 24.5z" />
    <glyph glyph-name="uni06B2.init" unicode="&#x6b2;" horiz-adv-x="639" 
d="M0 0c-46.667 0 -75.3359 25.3291 -86.0029 75.9961c-10 50.667 8 76 54 76h89c47.333 0 89.5 2.66699 126.5 8s67.833 12.833 92.5 22.5s42.834 20.834 54.501 33.501s16.167 26 13.5 40c-4 18.667 -15.333 39.834 -34 63.501s-43.167 48.167 -73.5 73.5
s-65.5 50.833 -105.5 76.5s-83.333 50.167 -130 73.5c-34 16 -62.167 31.167 -84.5 45.5s-36.166 33.833 -41.499 58.5l-15 72c-4 16.667 -5.33301 33.167 -4 49.5s6.33301 33 15 50s21.667 34.833 39 53.5s40 38.667 68 60l91 54l118.5 70l123 72l104.5 60l3 -131
l-216 -117l-146 -84c-30 -17.333 -55.167 -32.666 -75.5 -45.999s-36.666 -25 -48.999 -35s-20.833 -18.833 -25.5 -26.5s-6.33398 -14.834 -5.00098 -21.501c2.66699 -11.333 8.66699 -20.166 18 -26.499s22.5 -13.333 39.5 -21l61.5 -29c24 -11.667 51.667 -28.5 83 -50.5
c48.667 -31.333 90 -61.5 124 -90.5s62 -57.167 84 -84.5s39 -53.666 51 -78.999s20.667 -50 26 -74c10.667 -51.333 9.33398 -94.5 -3.99902 -129.5s-36.333 -63 -69 -84s-73.5 -36 -122.5 -45s-103.5 -13.5 -163.5 -13.5h-29zM399.998 1298l-528 -299v103l528 299v-103z
M127.998 -365.004l-113 93l74 93l112 -93zM323.998 -357.004l-113 93l73 93l113 -93z" />
    <glyph glyph-name="uni06B2.medi" unicode="&#x6b2;" horiz-adv-x="909" 
d="M0 0c-46.667 0 -75.335 25.3359 -86.002 76.0029c-10 50.667 8 76 54 76h81c44.667 0 85.834 2.33301 123.501 7s69.667 12 96 22s46 22.667 59 38s17.167 33.666 12.5 54.999c-4 18 -12.167 36.333 -24.5 55s-31.333 38.667 -57 60s-59.334 44.5 -101.001 69.5
s-93.834 53.167 -156.501 84.5c-34 16 -62.167 31.167 -84.5 45.5s-36.166 33.833 -41.499 58.5l-15 72c-4 16.667 -4.83301 34 -2.5 52s9 36.5 20 55.5s27.167 38.833 48.5 59.5s49 42 83 64c60.667 40 134.667 83 222 129l308 160l-2 -127l-258.5 -134.5l-178 -96.5
c-47.667 -26.667 -85 -48.5 -112 -65.5s-47.167 -31.167 -60.5 -42.5s-21.5 -20.333 -24.5 -27s-3.83301 -13 -2.5 -19c1.33301 -5.33301 3.66602 -10.333 6.99902 -15s8.5 -9.33398 15.5 -14.001s15.833 -9.5 26.5 -14.5s24 -10.833 40 -17.5l178 -79.5
c50 -23 95.333 -45.833 136 -68.5s78.834 -46.167 114.501 -70.5s73.167 -52.833 112.5 -85.5l125 -98c34.667 -26.667 64.5 -48.334 89.5 -65.001s45.833 -28.667 62.5 -36s31.334 -11 44.001 -11h24l33 -152c-19.333 0 -38 2 -56 6s-37.667 11.667 -59 23
s-45.166 27.166 -71.499 47.499s-57.833 46.833 -94.5 79.5l-53.5 47.5l-57.5 48l-57 45l-53 39.5l-57 37l18 -35c4 -9.33301 7.5 -19.5 10.5 -30.5l9.5 -35.5c12 -55.333 10.333 -100.666 -5 -135.999s-40 -63 -74 -83s-75.833 -33.833 -125.5 -41.5
s-103.167 -11.5 -160.5 -11.5h-23zM519.999 1358l-656 -359v103l656 358v-102zM210.999 -358.997l-113 93l74 93l112 -93zM406.999 -350.997l-113 93l73 93l113 -93z" />
    <glyph glyph-name="uni06B2.fina" unicode="&#x6b2;" horiz-adv-x="1720" 
d="M1348 1112l-259.001 -134.496l-178.5 -96.5c-47.667 -26.667 -85 -48.5 -112 -65.5s-47.167 -31.167 -60.5 -42.5s-21.5 -20.333 -24.5 -27s-3.83301 -13 -2.5 -19c2.66699 -11.333 10.334 -21 23.001 -29s34.667 -18.667 66 -32l124 -55l103 -47.5
c31.333 -15 60.333 -29.833 87 -44.5s52.5 -30 77.5 -46s49.667 -33 74 -51s49.833 -38 76.5 -60l123.5 -99c35 -26.667 65.167 -48.334 90.5 -65.001s46.5 -28.5 63.5 -35.5s31.167 -10.5 42.5 -10.5h25l33 -152c-18.667 0 -37.167 2 -55.5 6s-38.333 11.667 -60 23
s-45.834 27.166 -72.501 47.499s-58 46.833 -94 79.5l-53 47.5l-57 48l-57.5 45l-52.5 39.5l-57 37c6 -7.33301 12 -19 18 -35c4 -9.33301 7.5 -19.5 10.5 -30.5l9.5 -35.5c7.33301 -35.333 3.83301 -68 -10.5 -98s-36.666 -57.333 -66.999 -82
s-67.166 -46.5 -110.499 -65.5s-90.5 -35 -141.5 -48s-104.167 -22.833 -159.5 -29.5s-110 -10 -164 -10c-92.667 0 -170.167 9.16699 -232.5 27.5s-112.666 40.833 -150.999 67.5s-66.833 55.167 -85.5 85.5s-30.334 57.5 -35.001 81.5c-6 26.667 -6.83301 54 -2.5 82
s10.666 53.5 18.999 76.5s17.333 41.833 27 56.5s17.167 22 22.5 22c11.333 0 18 -4.66699 20 -14c0.666992 -3.33301 -0.333008 -9.5 -3 -18.5s-5.5 -20.5 -8.5 -34.5s-5 -29.833 -6 -47.5s0.5 -36.167 4.5 -55.5c4.66699 -22 17.334 -44.333 38.001 -67
s49.667 -43.334 87 -62.001s83 -33.834 137 -45.501s116.333 -17.5 187 -17.5c49.333 0 98.5 3.33301 147.5 10s95.667 15.334 140 26.001s85.333 23 123 37s70 28.333 97 43s47.667 29.167 62 43.5s20.166 27.166 17.499 38.499c-4 18 -12 36.167 -24 54.5
s-31 38.166 -57 59.499s-60 44.5 -102 69.5s-94.333 53.5 -157 85.5c-34 16 -62.167 31 -84.5 45s-36.166 33.667 -41.499 59l-15 72c-3.33301 16 -4 33 -2 51s8.33301 36.833 19 56.5s26.667 39.834 48 60.501s49.333 41.667 84 63c61.333 40 135.666 83 222.999 129
l307 160zM1330 1358l-657 -359l1 103l657 358zM654.999 -422.996l-113 93l74 93l112 -93zM850.999 -414.996l-113 93l73 93l113 -93z" />
    <glyph glyph-name="uni06B4.init" unicode="&#x6b4;" horiz-adv-x="639" 
d="M0 0c-46.667 0 -75.3359 25.3291 -86.0029 75.9961c-10 50.667 8 76 54 76h89c47.333 0 89.5 2.66699 126.5 8s67.833 12.833 92.5 22.5s42.834 20.834 54.501 33.501s16.167 26 13.5 40c-4 18.667 -15.333 39.834 -34 63.501s-43.167 48.167 -73.5 73.5
s-65.5 50.833 -105.5 76.5s-83.333 50.167 -130 73.5c-34 16 -62.167 31.167 -84.5 45.5s-36.166 33.833 -41.499 58.5l-15 72c-4 16.667 -5.33301 33.167 -4 49.5s6.33301 33 15 50s21.667 34.833 39 53.5s40 38.667 68 60l91 54l118.5 70l123 72l104.5 60l3 -131
l-216 -117l-146 -84c-30 -17.333 -55.167 -32.666 -75.5 -45.999s-36.666 -25 -48.999 -35s-20.833 -18.833 -25.5 -26.5s-6.33398 -14.834 -5.00098 -21.501c2.66699 -11.333 8.66699 -20.166 18 -26.499s22.5 -13.333 39.5 -21l61.5 -29c24 -11.667 51.667 -28.5 83 -50.5
c48.667 -31.333 90 -61.5 124 -90.5s62 -57.167 84 -84.5s39 -53.666 51 -78.999s20.667 -50 26 -74c10.667 -51.333 9.33398 -94.5 -3.99902 -129.5s-36.333 -63 -69 -84s-73.5 -36 -122.5 -45s-103.5 -13.5 -163.5 -13.5h-29zM399.998 1298l-528 -299v103l528 299v-103z
M120.998 1341l-109 90l71 90l109 -90zM-86.002 1335l-110 90l71 90l109 -90zM-20.002 1501l-109 90l71 90l109 -90z" />
    <glyph glyph-name="uni06B4.medi" unicode="&#x6b4;" horiz-adv-x="909" 
d="M0 0c-46.667 0 -75.335 25.3359 -86.002 76.0029c-10 50.667 8 76 54 76h81c44.667 0 85.834 2.33301 123.501 7s69.667 12 96 22s46 22.667 59 38s17.167 33.666 12.5 54.999c-4 18 -12.167 36.333 -24.5 55s-31.333 38.667 -57 60s-59.334 44.5 -101.001 69.5
s-93.834 53.167 -156.501 84.5c-34 16 -62.167 31.167 -84.5 45.5s-36.166 33.833 -41.499 58.5l-15 72c-4 16.667 -4.83301 34 -2.5 52s9 36.5 20 55.5s27.167 38.833 48.5 59.5s49 42 83 64c60.667 40 134.667 83 222 129l308 160l-2 -127l-258.5 -134.5l-178 -96.5
c-47.667 -26.667 -85 -48.5 -112 -65.5s-47.167 -31.167 -60.5 -42.5s-21.5 -20.333 -24.5 -27s-3.83301 -13 -2.5 -19c1.33301 -5.33301 3.66602 -10.333 6.99902 -15s8.5 -9.33398 15.5 -14.001s15.833 -9.5 26.5 -14.5s24 -10.833 40 -17.5l178 -79.5
c50 -23 95.333 -45.833 136 -68.5s78.834 -46.167 114.501 -70.5s73.167 -52.833 112.5 -85.5l125 -98c34.667 -26.667 64.5 -48.334 89.5 -65.001s45.833 -28.667 62.5 -36s31.334 -11 44.001 -11h24l33 -152c-19.333 0 -38 2 -56 6s-37.667 11.667 -59 23
s-45.166 27.166 -71.499 47.499s-57.833 46.833 -94.5 79.5l-53.5 47.5l-57.5 48l-57 45l-53 39.5l-57 37l18 -35c4 -9.33301 7.5 -19.5 10.5 -30.5l9.5 -35.5c12 -55.333 10.333 -100.666 -5 -135.999s-40 -63 -74 -83s-75.833 -33.833 -125.5 -41.5
s-103.167 -11.5 -160.5 -11.5h-23zM519.999 1358l-656 -359v103l656 358v-102zM164.999 1390l-109 90l71 90l109 -90zM-42.001 1384l-110 90l71 90l109 -90zM23.999 1550l-109 90l71 90l109 -90z" />
    <glyph glyph-name="uni06B4.fina" unicode="&#x6b4;" horiz-adv-x="1720" 
d="M1348 1112l-259.001 -134.496l-178.5 -96.5c-47.667 -26.667 -85 -48.5 -112 -65.5s-47.167 -31.167 -60.5 -42.5s-21.5 -20.333 -24.5 -27s-3.83301 -13 -2.5 -19c2.66699 -11.333 10.334 -21 23.001 -29s34.667 -18.667 66 -32l124 -55l103 -47.5
c31.333 -15 60.333 -29.833 87 -44.5s52.5 -30 77.5 -46s49.667 -33 74 -51s49.833 -38 76.5 -60l123.5 -99c35 -26.667 65.167 -48.334 90.5 -65.001s46.5 -28.5 63.5 -35.5s31.167 -10.5 42.5 -10.5h25l33 -152c-18.667 0 -37.167 2 -55.5 6s-38.333 11.667 -60 23
s-45.834 27.166 -72.501 47.499s-58 46.833 -94 79.5l-53 47.5l-57 48l-57.5 45l-52.5 39.5l-57 37c6 -7.33301 12 -19 18 -35c4 -9.33301 7.5 -19.5 10.5 -30.5l9.5 -35.5c7.33301 -35.333 3.83301 -68 -10.5 -98s-36.666 -57.333 -66.999 -82
s-67.166 -46.5 -110.499 -65.5s-90.5 -35 -141.5 -48s-104.167 -22.833 -159.5 -29.5s-110 -10 -164 -10c-92.667 0 -170.167 9.16699 -232.5 27.5s-112.666 40.833 -150.999 67.5s-66.833 55.167 -85.5 85.5s-30.334 57.5 -35.001 81.5c-6 26.667 -6.83301 54 -2.5 82
s10.666 53.5 18.999 76.5s17.333 41.833 27 56.5s17.167 22 22.5 22c11.333 0 18 -4.66699 20 -14c0.666992 -3.33301 -0.333008 -9.5 -3 -18.5s-5.5 -20.5 -8.5 -34.5s-5 -29.833 -6 -47.5s0.5 -36.167 4.5 -55.5c4.66699 -22 17.334 -44.333 38.001 -67
s49.667 -43.334 87 -62.001s83 -33.834 137 -45.501s116.333 -17.5 187 -17.5c49.333 0 98.5 3.33301 147.5 10s95.667 15.334 140 26.001s85.333 23 123 37s70 28.333 97 43s47.667 29.167 62 43.5s20.166 27.166 17.499 38.499c-4 18 -12 36.167 -24 54.5
s-31 38.166 -57 59.499s-60 44.5 -102 69.5s-94.333 53.5 -157 85.5c-34 16 -62.167 31 -84.5 45s-36.166 33.667 -41.499 59l-15 72c-3.33301 16 -4 33 -2 51s8.33301 36.833 19 56.5s26.667 39.834 48 60.501s49.333 41.667 84 63c61.333 40 135.666 83 222.999 129
l307 160zM1330 1358l-657 -359l1 103l657 358zM908.999 1351l-109 90l71 90l109 -90zM701.999 1345l-110 90l71 90l109 -90zM767.999 1511l-109 90l71 90l109 -90z" />
    <glyph glyph-name="uni06B5.init" unicode="&#x6b5;" horiz-adv-x="330" 
d="M69 1022c3.33301 -12.667 4 -28.167 2 -46.5s-5.66699 -40.5 -11 -66.5c-2.66699 -13.333 -8 -20 -16 -20s-16.333 3.33301 -25 10c1.33301 -3.33301 8.5 -28.666 21.5 -75.999l59.5 -211c28 -92.667 50.167 -169 66.5 -229s27.5 -104.333 33.5 -133
c12 -54.667 16 -99.5 12 -134.5s-15.333 -61.167 -34 -78.5c-24.667 -24.667 -67.667 -37 -129 -37h-49c-46.667 0 -75.334 25.333 -86.001 76c-10 50.667 8 76 54 76h83c21.333 0 40.333 1 57 3s30.667 5.66699 42 11c-15.333 43.333 -33.666 101.5 -54.999 174.5
l-77 265.5l-58 221.5c-14.667 57 -24.667 97.833 -30 122.5c-11.333 11.333 -20.666 21.666 -27.999 30.999s-12 18.333 -14 27c-2 11.333 2.33301 43.333 13 96c13.333 56 25.666 84 36.999 84c14 0 25.667 -22.667 35 -68c8 -34 23.333 -55.667 46 -65
c31.333 -13.333 48 -24.333 50 -33zM-6 1555c-8.66699 -8 -17.5 -20.832 -26.5 -38.499s-17.5 -38.5 -25.5 -62.5s-14.667 -50.167 -20 -78.5s-8.33301 -57.5 -9 -87.5h-28l-2 3c-14 29.333 -29.833 58.166 -47.5 86.499s-35.5 54.333 -53.5 78s-35.167 44.167 -51.5 61.5
s-29.833 30 -40.5 38l87 2c19.333 -21.333 37.333 -47.333 54 -78s32 -62.667 46 -96c0 33.333 2.33301 65.333 7 96s11.667 56.667 21 78z" />
    <glyph glyph-name="uni06B5.medi" unicode="&#x6b5;" horiz-adv-x="455" 
d="M410 0c-48.667 0 -92.8311 20.833 -132.498 62.5s-76.5 104.167 -110.5 187.5c-3.33301 -158.667 -59 -242 -167 -250c-46.667 -0 -75.334 25.333 -86.001 76c-10 50.667 8 76 54 76c77.333 2 127 23.667 149 65l-5 35c-2 14 -4.66699 29.667 -8 47
c-8.66699 41.333 -21.834 96.5 -39.501 165.5l-64.5 250.5l-69 252c-16 60 -25.333 96 -28 108c20.667 75.333 34 113 40 113c6.66699 0 32 -83.333 76 -250l89.5 -296.5l70.5 -225.5c60 -176 132 -264 216 -264h27l33 -152h-45zM-23.9971 1532
c-8.66699 -8 -17.5 -20.832 -26.5 -38.499s-17.5 -38.5 -25.5 -62.5s-14.667 -50.167 -20 -78.5s-8.33301 -57.5 -9 -87.5h-28l-2 3c-14 29.333 -29.833 58.166 -47.5 86.499s-35.5 54.333 -53.5 78s-35.167 44.167 -51.5 61.5s-29.833 30 -40.5 38l87 2
c19.333 -21.333 37.333 -47.333 54 -78s32 -62.667 46 -96c0 33.333 2.33301 65.333 7 96s11.667 56.667 21 78z" />
    <glyph glyph-name="uni06B5.fina" unicode="&#x6b5;" horiz-adv-x="1055" 
d="M1038 0c-34.667 0 -69.832 9.66895 -105.499 29.002s-71.5 48.666 -107.5 87.999c13.333 -64 23.666 -119.333 30.999 -166s11.666 -85.667 12.999 -117c-1.33301 -22.667 -3.83301 -44.334 -7.5 -65.001s-9.83398 -40.667 -18.501 -60
c-22.667 -56 -70 -99.667 -142 -131c-62 -28.667 -134.667 -43 -218 -43c-50 0 -96 6.66699 -138 20s-81 33.333 -117 60c-66.667 51.333 -108 114.666 -124 189.999c-16.667 77.333 -14 155.333 8 234c19.333 68 38.333 102 57 102c10.667 0 17 -5.33301 19 -16
c0 -1.33301 -1.66699 -8.66602 -5 -21.999s-9 -32.666 -17 -57.999c-6.66699 -25.333 -10.5 -50.333 -11.5 -75s1.16699 -49.334 6.5 -74.001c12 -59.333 46.667 -110 104 -152c32.667 -23.333 68.834 -41.166 108.501 -53.499s83.5 -18.5 131.5 -18.5
c31.333 0 62.5 3.16699 93.5 9.5s63.5 16.166 97.5 29.499c70 28.667 108.333 60 115 94c-9.33301 41.333 -28 115 -56 221l-113 420l-106.5 395.5c-25 93.667 -39.5 149.167 -43.5 166.5c20 107.333 33 161 39 161c3.33301 0 17 -40 41 -120l82 -286l108 -351
c14.667 -45.333 28.334 -83.333 41.001 -114s25 -53.667 37 -69c37.333 -51.333 92.333 -77 165 -77h25l33 -152h-25zM491.002 1551c-8.66699 -8 -17.5 -20.832 -26.5 -38.499s-17.5 -38.5 -25.5 -62.5s-14.667 -50.167 -20 -78.5s-8.33301 -57.5 -9 -87.5h-28l-2 3
c-14 29.333 -29.833 58.166 -47.5 86.499s-35.5 54.333 -53.5 78s-35.167 44.167 -51.5 61.5s-29.833 30 -40.5 38l87 2c19.333 -21.333 37.333 -47.333 54 -78s32 -62.667 46 -96c0 33.333 2.33301 65.333 7 96s11.667 56.667 21 78z" />
    <glyph glyph-name="uni06B6.init" unicode="&#x6b6;" horiz-adv-x="330" 
d="M69 1022c3.33301 -12.667 4 -28.167 2 -46.5s-5.66699 -40.5 -11 -66.5c-2.66699 -13.333 -8 -20 -16 -20s-16.333 3.33301 -25 10c1.33301 -3.33301 8.5 -28.666 21.5 -75.999l59.5 -211c28 -92.667 50.167 -169 66.5 -229s27.5 -104.333 33.5 -133
c12 -54.667 16 -99.5 12 -134.5s-15.333 -61.167 -34 -78.5c-24.667 -24.667 -67.667 -37 -129 -37h-49c-46.667 0 -75.334 25.333 -86.001 76c-10 50.667 8 76 54 76h83c21.333 0 40.333 1 57 3s30.667 5.66699 42 11c-15.333 43.333 -33.666 101.5 -54.999 174.5
l-77 265.5l-58 221.5c-14.667 57 -24.667 97.833 -30 122.5c-11.333 11.333 -20.666 21.666 -27.999 30.999s-12 18.333 -14 27c-2 11.333 2.33301 43.333 13 96c13.333 56 25.666 84 36.999 84c14 0 25.667 -22.667 35 -68c8 -34 23.333 -55.667 46 -65
c31.333 -13.333 48 -24.333 50 -33zM-125 1290l-126 104l81 104l127 -104z" />
    <glyph glyph-name="uni06B6.medi" unicode="&#x6b6;" horiz-adv-x="455" 
d="M410 0c-48.667 0 -92.8311 20.833 -132.498 62.5s-76.5 104.167 -110.5 187.5c-3.33301 -158.667 -59 -242 -167 -250c-46.667 -0 -75.334 25.333 -86.001 76c-10 50.667 8 76 54 76c77.333 2 127 23.667 149 65l-5 35c-2 14 -4.66699 29.667 -8 47
c-8.66699 41.333 -21.834 96.5 -39.501 165.5l-64.5 250.5l-69 252c-16 60 -25.333 96 -28 108c20.667 75.333 34 113 40 113c6.66699 0 32 -83.333 76 -250l89.5 -296.5l70.5 -225.5c60 -176 132 -264 216 -264h27l33 -152h-45zM-125.997 1280l-126 104l81 104l127 -104z
" />
    <glyph glyph-name="uni06B6.fina" unicode="&#x6b6;" horiz-adv-x="1053" 
d="M1038 0c-34.667 0 -69.832 9.66895 -105.499 29.002s-71.5 48.666 -107.5 87.999c13.333 -64 23.666 -119.333 30.999 -166s11.666 -85.667 12.999 -117c-1.33301 -22.667 -3.83301 -44.334 -7.5 -65.001s-9.83398 -40.667 -18.501 -60
c-22.667 -56 -70 -99.667 -142 -131c-62 -28.667 -134.667 -43 -218 -43c-50 0 -96 6.66699 -138 20s-81 33.333 -117 60c-66.667 51.333 -108 114.666 -124 189.999c-16.667 77.333 -14 155.333 8 234c19.333 68 38.333 102 57 102c10.667 0 17 -5.33301 19 -16
c0 -1.33301 -1.66699 -8.66602 -5 -21.999s-9 -32.666 -17 -57.999c-6.66699 -25.333 -10.5 -50.333 -11.5 -75s1.16699 -49.334 6.5 -74.001c12 -59.333 46.667 -110 104 -152c32.667 -23.333 68.834 -41.166 108.501 -53.499s83.5 -18.5 131.5 -18.5
c31.333 0 62.5 3.16699 93.5 9.5s63.5 16.166 97.5 29.499c70 28.667 108.333 60 115 94c-9.33301 41.333 -28 115 -56 221l-113 420l-106.5 395.5c-25 93.667 -39.5 149.167 -43.5 166.5c20 107.333 33 161 39 161c3.33301 0 17 -40 41 -120l82 -286l108 -351
c14.667 -45.333 28.334 -83.333 41.001 -114s25 -53.667 37 -69c37.333 -51.333 92.333 -77 165 -77h25l33 -152h-25zM421.002 1285l-126 104l81 104l127 -104z" />
    <glyph glyph-name="uni06B7.init" unicode="&#x6b7;" horiz-adv-x="330" 
d="M69 1022c3.33301 -12.667 4 -28.167 2 -46.5s-5.66699 -40.5 -11 -66.5c-2.66699 -13.333 -8 -20 -16 -20s-16.333 3.33301 -25 10c1.33301 -3.33301 8.5 -28.666 21.5 -75.999l59.5 -211c28 -92.667 50.167 -169 66.5 -229s27.5 -104.333 33.5 -133
c12 -54.667 16 -99.5 12 -134.5s-15.333 -61.167 -34 -78.5c-24.667 -24.667 -67.667 -37 -129 -37h-49c-46.667 0 -75.334 25.333 -86.001 76c-10 50.667 8 76 54 76h83c21.333 0 40.333 1 57 3s30.667 5.66699 42 11c-15.333 43.333 -33.666 101.5 -54.999 174.5
l-77 265.5l-58 221.5c-14.667 57 -24.667 97.833 -30 122.5c-11.333 11.333 -20.666 21.666 -27.999 30.999s-12 18.333 -14 27c-2 11.333 2.33301 43.333 13 96c13.333 56 25.666 84 36.999 84c14 0 25.667 -22.667 35 -68c8 -34 23.333 -55.667 46 -65
c31.333 -13.333 48 -24.333 50 -33zM-27 1276l-109 90l71 90l109 -90zM-234 1270l-110 90l71 90l109 -90zM-168 1436l-109 90l71 90l109 -90z" />
    <glyph glyph-name="uni06B7.medi" unicode="&#x6b7;" horiz-adv-x="455" 
d="M410 0c-48.667 0 -92.8311 20.833 -132.498 62.5s-76.5 104.167 -110.5 187.5c-3.33301 -158.667 -59 -242 -167 -250c-46.667 -0 -75.334 25.333 -86.001 76c-10 50.667 8 76 54 76c77.333 2 127 23.667 149 65l-5 35c-2 14 -4.66699 29.667 -8 47
c-8.66699 41.333 -21.834 96.5 -39.501 165.5l-64.5 250.5l-69 252c-16 60 -25.333 96 -28 108c20.667 75.333 34 113 40 113c6.66699 0 32 -83.333 76 -250l89.5 -296.5l70.5 -225.5c60 -176 132 -264 216 -264h27l33 -152h-45zM-14.9971 1298l-109 90l71 90l109 -90z
M-221.997 1292l-110 90l71 90l109 -90zM-155.997 1458l-109 90l71 90l109 -90z" />
    <glyph glyph-name="uni06B7.fina" unicode="&#x6b7;" horiz-adv-x="1053" 
d="M1038 0c-34.667 0 -69.832 9.66895 -105.499 29.002s-71.5 48.666 -107.5 87.999c13.333 -64 23.666 -119.333 30.999 -166s11.666 -85.667 12.999 -117c-1.33301 -22.667 -3.83301 -44.334 -7.5 -65.001s-9.83398 -40.667 -18.501 -60
c-22.667 -56 -70 -99.667 -142 -131c-62 -28.667 -134.667 -43 -218 -43c-50 0 -96 6.66699 -138 20s-81 33.333 -117 60c-66.667 51.333 -108 114.666 -124 189.999c-16.667 77.333 -14 155.333 8 234c19.333 68 38.333 102 57 102c10.667 0 17 -5.33301 19 -16
c0 -1.33301 -1.66699 -8.66602 -5 -21.999s-9 -32.666 -17 -57.999c-6.66699 -25.333 -10.5 -50.333 -11.5 -75s1.16699 -49.334 6.5 -74.001c12 -59.333 46.667 -110 104 -152c32.667 -23.333 68.834 -41.166 108.501 -53.499s83.5 -18.5 131.5 -18.5
c31.333 0 62.5 3.16699 93.5 9.5s63.5 16.166 97.5 29.499c70 28.667 108.333 60 115 94c-9.33301 41.333 -28 115 -56 221l-113 420l-106.5 395.5c-25 93.667 -39.5 149.167 -43.5 166.5c20 107.333 33 161 39 161c3.33301 0 17 -40 41 -120l82 -286l108 -351
c14.667 -45.333 28.334 -83.333 41.001 -114s25 -53.667 37 -69c37.333 -51.333 92.333 -77 165 -77h25l33 -152h-25zM487.002 1278l-109 90l71 90l109 -90zM280.002 1272l-110 90l71 90l109 -90zM346.002 1438l-109 90l71 90l109 -90z" />
    <glyph glyph-name="uni06B8.init" unicode="&#x6b8;" horiz-adv-x="330" 
d="M69 1022c3.33301 -12.667 4 -28.167 2 -46.5s-5.66699 -40.5 -11 -66.5c-2.66699 -13.333 -8 -20 -16 -20s-16.333 3.33301 -25 10c1.33301 -3.33301 8.5 -28.666 21.5 -75.999l59.5 -211c28 -92.667 50.167 -169 66.5 -229s27.5 -104.333 33.5 -133
c12 -54.667 16 -99.5 12 -134.5s-15.333 -61.167 -34 -78.5c-24.667 -24.667 -67.667 -37 -129 -37h-49c-46.667 0 -75.334 25.333 -86.001 76c-10 50.667 8 76 54 76h83c21.333 0 40.333 1 57 3s30.667 5.66699 42 11c-15.333 43.333 -33.666 101.5 -54.999 174.5
l-77 265.5l-58 221.5c-14.667 57 -24.667 97.833 -30 122.5c-11.333 11.333 -20.666 21.666 -27.999 30.999s-12 18.333 -14 27c-2 11.333 2.33301 43.333 13 96c13.333 56 25.666 84 36.999 84c14 0 25.667 -22.667 35 -68c8 -34 23.333 -55.667 46 -65
c31.333 -13.333 48 -24.333 50 -33zM63 -165l109 -90l-71 -90l-109 90zM270 -159l109 -90l-71 -90l-109 90zM204 -325l109 -90l-71 -90l-109 90z" />
    <glyph glyph-name="uni06B8.medi" unicode="&#x6b8;" horiz-adv-x="455" 
d="M410 0c-48.667 0 -92.8311 20.833 -132.498 62.5s-76.5 104.167 -110.5 187.5c-3.33301 -158.667 -59 -242 -167 -250c-46.667 -0 -75.334 25.333 -86.001 76c-10 50.667 8 76 54 76c77.333 2 127 23.667 149 65l-5 35c-2 14 -4.66699 29.667 -8 47
c-8.66699 41.333 -21.834 96.5 -39.501 165.5l-64.5 250.5l-69 252c-16 60 -25.333 96 -28 108c20.667 75.333 34 113 40 113c6.66699 0 32 -83.333 76 -250l89.5 -296.5l70.5 -225.5c60 -176 132 -264 216 -264h27l33 -152h-45zM135.003 -160l109 -90l-71 -90l-109 90z
M342.003 -154l109 -90l-71 -90l-109 90zM276.003 -320l109 -90l-71 -90l-109 90z" />
    <glyph glyph-name="uni06B8.fina" unicode="&#x6b8;" horiz-adv-x="1053" 
d="M1038 0c-34.667 0 -69.832 9.66895 -105.499 29.002s-71.5 48.666 -107.5 87.999c13.333 -64 23.666 -119.333 30.999 -166s11.666 -85.667 12.999 -117c-1.33301 -22.667 -3.83301 -44.334 -7.5 -65.001s-9.83398 -40.667 -18.501 -60
c-22.667 -56 -70 -99.667 -142 -131c-62 -28.667 -134.667 -43 -218 -43c-50 0 -96 6.66699 -138 20s-81 33.333 -117 60c-66.667 51.333 -108 114.666 -124 189.999c-16.667 77.333 -14 155.333 8 234c19.333 68 38.333 102 57 102c10.667 0 17 -5.33301 19 -16
c0 -1.33301 -1.66699 -8.66602 -5 -21.999s-9 -32.666 -17 -57.999c-6.66699 -25.333 -10.5 -50.333 -11.5 -75s1.16699 -49.334 6.5 -74.001c12 -59.333 46.667 -110 104 -152c32.667 -23.333 68.834 -41.166 108.501 -53.499s83.5 -18.5 131.5 -18.5
c31.333 0 62.5 3.16699 93.5 9.5s63.5 16.166 97.5 29.499c70 28.667 108.333 60 115 94c-9.33301 41.333 -28 115 -56 221l-113 420l-106.5 395.5c-25 93.667 -39.5 149.167 -43.5 166.5c20 107.333 33 161 39 161c3.33301 0 17 -40 41 -120l82 -286l108 -351
c14.667 -45.333 28.334 -83.333 41.001 -114s25 -53.667 37 -69c37.333 -51.333 92.333 -77 165 -77h25l33 -152h-25zM426.002 -562.998l109 -90l-71 -90l-109 90zM633.002 -556.998l109 -90l-71 -90l-109 90zM567.002 -722.998l109 -90l-71 -90l-109 90z" />
    <glyph glyph-name="uni06B9.init" unicode="&#x6b9;" horiz-adv-x="318" 
d="M220 260c20.667 -95.333 15.001 -163.667 -16.999 -205c-10 -12.667 -39.333 -25.667 -88 -39c-23.333 -5.33301 -44.5 -9.33301 -63.5 -12s-36.167 -4 -51.5 -4c-46.667 -0 -75.334 25.333 -86.001 76c-10 50.667 8 76 54 76h36c86 0 141.667 10.667 167 32
c-4.66699 21.333 -15 43.833 -31 67.5s-37.667 48.5 -65 74.5l23 104c2 6.66699 5 10 9 10s10.333 -5.33301 19 -16c52.667 -59.333 84 -114 94 -164zM-47.999 529.999l-126 104l81 104l127 -104zM180.001 -371.001l-126 104l81 104l127 -104z" />
    <glyph glyph-name="uni06B9.medi" unicode="&#x6b9;" horiz-adv-x="440" 
d="M395 0c-33.333 0 -71.3311 11.667 -113.998 35c-49.333 25.333 -83.333 57.333 -102 96c-22.667 -83.333 -82.334 -127 -179.001 -131c-46.667 -0 -75.334 25.333 -86.001 76c-10 50.667 8 76 54 76h44c84 0 136 44.333 156 133c7.33301 27.333 18 41 32 41
c11.333 0 18 -5 20 -15c0.666992 -1.33301 0.5 -8.5 -0.5 -21.5s-0.166992 -26.167 2.5 -39.5c14 -65.333 77 -98 189 -98l33 -152h-49zM121.002 453l-126 104l81 104l127 -104zM283.002 -362l-126 104l81 104l127 -104z" />
    <glyph glyph-name="uni06B9.fina" unicode="&#x6b9;" horiz-adv-x="1027" 
d="M422 339l-126 104l81 104l127 -104zM630 -788l-126 104l81 104l127 -104zM997 0c-30 0 -57 5.99707 -81 17.9971c21.333 -100 18.333 -183.667 -9 -251c-18 -42.667 -54.667 -85 -110 -127c-80 -56 -176.333 -84 -289 -84c-130.667 0 -233 34 -307 102
c-54 48 -88 105.333 -102 172c-16 71.333 -14 143 6 215c15.333 61.333 30.333 92 45 92s23.334 -6.66699 26.001 -20c-0.666992 -5.33301 -2 -11.666 -4 -18.999l-5 -23l-7 -32c-5.33301 -23.333 -8.33301 -45.666 -9 -66.999s1 -40.666 5 -57.999
c30.667 -144.667 150.667 -217 360 -217c183.333 0 307 47 371 141c-24 114 -73 218.667 -147 314l26 127c7.33301 0 39.666 -33 96.999 -99c19.333 -21.333 46.333 -32 81 -32h78l33 -152h-58z" />
    <glyph glyph-name="uni06BC.init" unicode="&#x6bc;" horiz-adv-x="318" 
d="M220 260c20.667 -95.333 15.001 -163.667 -16.999 -205c-10 -12.667 -39.333 -25.667 -88 -39c-23.333 -5.33301 -44.5 -9.33301 -63.5 -12s-36.167 -4 -51.5 -4c-46.667 -0 -75.334 25.333 -86.001 76c-10 50.667 8 76 54 76h36c86 0 141.667 10.667 167 32
c-4.66699 21.333 -15 43.833 -31 67.5s-37.667 48.5 -65 74.5l23 104c2 6.66699 5 10 9 10s10.333 -5.33301 19 -16c52.667 -59.333 84 -114 94 -164zM-58.999 489.999l-126 104l81 104l127 -104zM230.001 -40.001c4.66699 -22 5.33203 -43.168 1.99902 -63.501
s-9.83301 -38.5 -19.5 -54.5s-22.667 -28.667 -39 -38s-35.166 -14 -56.499 -14c-29.333 0 -55.333 9.5 -78 28.5s-37.667 45.167 -45 78.5c-5.33301 23.333 -6.5 45.5 -3.5 66.5s10.833 41.833 23.5 62.5c24.667 42 56.667 63 96 63c30 0 55.5 -12.167 76.5 -36.5
s35.5 -55.166 43.5 -92.499zM182.999 -62.002c-2 10 -5.49609 19.5 -10.4961 28.5s-11 17.167 -18 24.5s-14.833 13.166 -23.5 17.499s-17.334 6.5 -26.001 6.5c-10 0 -19.5 -2.5 -28.5 -7.5s-16.5 -11.667 -22.5 -20s-10.333 -17.833 -13 -28.5s-2.66699 -22 0 -34
c3.33301 -17.333 12.166 -31.166 26.499 -41.499s29.166 -15.5 44.499 -15.5c12 0 22.667 2.16699 32 6.5s17.166 9.83301 23.499 16.5s11 14.167 14 22.5s3.5 16.5 1.5 24.5z" />
    <glyph glyph-name="uni06BC.medi" unicode="&#x6bc;" horiz-adv-x="440" 
d="M395 0c-33.333 0 -71.3311 11.667 -113.998 35c-49.333 25.333 -83.333 57.333 -102 96c-22.667 -83.333 -82.334 -127 -179.001 -131c-46.667 -0 -75.334 25.333 -86.001 76c-10 50.667 8 76 54 76h44c84 0 136 44.333 156 133c7.33301 27.333 18 41 32 41
c11.333 0 18 -5 20 -15c0.666992 -1.33301 0.5 -8.5 -0.5 -21.5s-0.166992 -26.167 2.5 -39.5c14 -65.333 77 -98 189 -98l33 -152h-49zM86.002 464l-126 104l81 104l127 -104zM220.002 -40c4.66699 -22 5.33203 -43.168 1.99902 -63.501s-9.83301 -38.5 -19.5 -54.5
s-22.667 -28.667 -39 -38s-35.166 -14 -56.499 -14c-29.333 0 -55.333 9.5 -78 28.5s-37.667 45.167 -45 78.5c-5.33301 23.333 -6.5 45.5 -3.5 66.5s10.833 41.833 23.5 62.5c24.667 42 56.667 63 96 63c30 0 55.5 -12.167 76.5 -36.5s35.5 -55.166 43.5 -92.499z
M173 -62.001c-2 10 -5.49609 19.5 -10.4961 28.5s-11 17.167 -18 24.5s-14.833 13.166 -23.5 17.499s-17.334 6.5 -26.001 6.5c-10 0 -19.5 -2.5 -28.5 -7.5s-16.5 -11.667 -22.5 -20s-10.333 -17.833 -13 -28.5s-2.66699 -22 0 -34
c3.33301 -17.333 12.166 -31.166 26.499 -41.499s29.166 -15.5 44.499 -15.5c12 0 22.667 2.16699 32 6.5s17.166 9.83301 23.499 16.5s11 14.167 14 22.5s3.5 16.5 1.5 24.5z" />
    <glyph glyph-name="uni06BC.fina" unicode="&#x6bc;" horiz-adv-x="1027" 
d="M418 342l-126 104l81 104l127 -104zM997 0c-30 0 -57 5.99707 -81 17.9971c21.333 -100 18.333 -183.667 -9 -251c-18 -42.667 -54.667 -85 -110 -127c-80 -56 -176.333 -84 -289 -84c-130.667 0 -233 34 -307 102c-54 48 -88 105.333 -102 172c-16 71.333 -14 143 6 215
c15.333 61.333 30.333 92 45 92s23.334 -6.66699 26.001 -20c-0.666992 -5.33301 -2 -11.666 -4 -18.999l-5 -23l-7 -32c-5.33301 -23.333 -8.33301 -45.666 -9 -66.999s1 -40.666 5 -57.999c30.667 -144.667 150.667 -217 360 -217c183.333 0 307 47 371 141
c-24 114 -73 218.667 -147 314l26 127c7.33301 0 39.666 -33 96.999 -99c19.333 -21.333 46.333 -32 81 -32h78l33 -152h-58zM685 -507.003c4.66699 -22 5.33203 -43.168 1.99902 -63.501s-9.83301 -38.5 -19.5 -54.5s-22.667 -28.667 -39 -38s-35.166 -14 -56.499 -14
c-29.333 0 -55.333 9.5 -78 28.5s-37.667 45.167 -45 78.5c-5.33301 23.333 -6.5 45.5 -3.5 66.5s10.833 41.833 23.5 62.5c24.667 42 56.667 63 96 63c30 0 55.5 -12.167 76.5 -36.5s35.5 -55.166 43.5 -92.499zM637.998 -529.004c-2 10 -5.49609 19.5 -10.4961 28.5
s-11 17.167 -18 24.5s-14.833 13.166 -23.5 17.499s-17.334 6.5 -26.001 6.5c-10 0 -19.5 -2.5 -28.5 -7.5s-16.5 -11.667 -22.5 -20s-10.333 -17.833 -13 -28.5s-2.66699 -22 0 -34c3.33301 -17.333 12.166 -31.166 26.499 -41.499s29.166 -15.5 44.499 -15.5
c12 0 22.667 2.16699 32 6.5s17.166 9.83301 23.499 16.5s11 14.167 14 22.5s3.5 16.5 1.5 24.5z" />
    <glyph glyph-name="uni06BD.fina" unicode="&#x6bd;" horiz-adv-x="1027" 
d="M997 0c-30 0 -57 5.99707 -81 17.9971c21.333 -100 18.333 -183.667 -9 -251c-18 -42.667 -54.667 -85 -110 -127c-80 -56 -176.333 -84 -289 -84c-130.667 0 -233 34 -307 102c-54 48 -88 105.333 -102 172c-16 71.333 -14 143 6 215c15.333 61.333 30.333 92 45 92
s23.334 -6.66699 26.001 -20c-0.666992 -5.33301 -2 -11.666 -4 -18.999l-5 -23l-7 -32c-5.33301 -23.333 -8.33301 -45.666 -9 -66.999s1 -40.666 5 -57.999c30.667 -144.667 150.667 -217 360 -217c183.333 0 307 47 371 141c-24 114 -73 218.667 -147 314l26 127
c7.33301 0 39.666 -33 96.999 -99c19.333 -21.333 46.333 -32 81 -32h78l33 -152h-58zM542 312.997l-109 90l71 90l109 -90zM335 306.997l-110 90l71 90l109 -90zM401 472.997l-109 90l71 90l109 -90z" />
    <glyph glyph-name="uni06BF.init" unicode="&#x6bf;" horiz-adv-x="996" 
d="M847 141c-2 0 -6.83105 0.168945 -14.498 0.501953s-16.5 0.833008 -26.5 1.5s-20.333 1.16699 -31 1.5s-20 0.5 -28 0.5c-136 0 -268 -23.667 -396 -71c-66.667 -24.667 -128.834 -43.167 -186.501 -55.5s-112.5 -18.5 -164.5 -18.5
c-46.667 0 -75.334 25.333 -86.001 76c-10 50.667 8 76 54 76c93.333 0 179.166 5.66699 257.499 17s150.5 28.666 216.5 51.999c-135.333 70 -224.666 105 -267.999 105c-37.333 0 -66.333 -10.333 -87 -31c-21.333 -19.333 -34.666 -29 -39.999 -29
c-7.33301 0 -13 7 -17 21c-4.66699 22.667 2.66602 54 21.999 94c14 25.333 32 44.666 54 57.999s49 20 81 20c38 0 124.667 -29.333 260 -88c68 -30 131.5 -52.167 190.5 -66.5s113.5 -21.5 163.5 -21.5h90zM322.002 -139.998l109 -90l-71 -90l-109 90zM529.002 -133.998
l109 -90l-71 -90l-109 90zM463.002 -299.998l109 -90l-71 -90l-109 90zM183.002 589.002l-126 104l81 104l127 -104z" />
    <glyph glyph-name="uni06BF.medi" unicode="&#x6bf;" horiz-adv-x="1063" 
d="M871 0c-51.333 0 -94.332 13.001 -128.999 39.001s-58 66.333 -70 121c-1.33301 7.33301 -2.5 15.833 -3.5 25.5s-1.83301 20.167 -2.5 31.5c-58.667 -9.33301 -119.5 -26 -182.5 -50s-129.167 -55 -198.5 -93c-90.667 -49.333 -185.667 -74 -285 -74
c-46.667 0 -75.334 25.333 -86.001 76c-10 50.667 8 76 54 76c188.667 0 339 42.333 451 127c-71.333 25.333 -129.333 44.166 -174 56.499s-76.667 18.5 -96 18.5c-22 0 -41.667 -8.66699 -59 -26c-19.333 -16.667 -32 -25 -38 -25c-11.333 0 -18.333 7 -21 21
c-4.66699 22 3 52.667 23 92c30 53.333 74.333 80 133 80c37.333 0 103.333 -18.667 198 -56c62.667 -24.667 124.167 -43 184.5 -55s119.833 -18 178.5 -18h88l-25 -131l-109 -13l4 -16c4.66699 -21.333 18.667 -35.833 42 -43.5s54 -11.5 92 -11.5h190l33 -152h-192z
M310.001 -129.999l109 -90l-71 -90l-109 90zM517.001 -123.999l109 -90l-71 -90l-109 90zM451.001 -289.999l109 -90l-71 -90l-109 90zM221.001 648.001l-126 104l81 104l127 -104z" />
    <glyph glyph-name="uni06BF.fina" unicode="&#x6bf;" horiz-adv-x="1063" 
d="M1294 -666c2.66699 -11.333 -15.335 -21.999 -54.002 -31.999c-17.333 -4 -83.666 -26.667 -198.999 -68c-34 -11.333 -70.333 -20 -109 -26s-81 -9 -127 -9c-87.333 0 -165.666 7 -234.999 21s-130 35 -182 63c-66.667 36 -121.334 84.5 -164.001 145.5
s-73 134.833 -91 221.5c-28 132 -21.333 249.333 20 352c17.333 44 41.833 87.667 73.5 131s70.834 87 117.501 131c-28 10 -67.667 15 -119 15c-23.333 0 -43.666 -3 -60.999 -9s-32.666 -14.667 -45.999 -26c-7.33301 -6 -16 -20.333 -26 -43c-6 -18 -13.667 -27 -23 -27
s-16 8.33301 -20 25c-8.66699 44 3.33301 91 36 141c36 53.333 95 80 177 80c21.333 0 71 -4 149 -12c38 -3.33301 71.667 -6 101 -8s53.666 -3 72.999 -3c53.333 0 101.5 1.66699 144.5 5s80.833 8.66602 113.5 15.999l-25 -133l-104 -13
c-4.66699 -10.667 -3.33398 -33.667 3.99902 -69c4.66699 -20.667 15.834 -34.334 33.501 -41.001s43.5 -10 77.5 -10h201l33 -152h-203c-51.333 0 -92.5 13 -123.5 39s-52.5 66.333 -64.5 121c-3.33301 17.333 -5.33301 34.833 -6 52.5s0.666016 36.167 3.99902 55.5
c-173.333 -22 -302.666 -85.333 -387.999 -190c-78 -97.333 -103 -214 -75 -350c32 -149.333 111.667 -254 239 -314c115.333 -55.333 283.666 -79.666 504.999 -72.999l289 6c34 2 52 -2.33301 54 -13zM552.998 -100.999l109 -90l-71 -90l-109 90zM759.998 -94.999l109 -90
l-71 -90l-109 90zM693.998 -260.999l109 -90l-71 -90l-109 90zM261.998 580.001l-126 104l81 104l127 -104z" />
    <glyph glyph-name="uni06C4.fina" unicode="&#x6c4;" horiz-adv-x="721" 
d="M676 0c3.33301 -64.667 -20.667 -142.332 -72 -232.999c-66.667 -116.667 -152 -175 -256 -175c-56 0 -121.333 16.667 -196 50c-68 30 -103.667 53 -107 69c-2 10 3 15 15 15c-1.33301 0 16.667 -5 54 -15c19.333 -5.33301 38.5 -9 57.5 -11s37.167 -3 54.5 -3
c132.667 0 235.667 54 309 162c22 32 39.167 59.667 51.5 83s19.166 43.333 20.499 60c-8.66699 -1.33301 -20 -2.33301 -34 -3s-30.333 -1 -49 -1c-30 0 -57 4 -81 12s-46.667 19.667 -68 35c-34 26 -55 56.667 -63 92c-10 51.333 -2 106.666 24 165.999
c28.667 62.667 63.667 94 105 94c32 0 64.833 -19.667 98.5 -59s68.834 -101.333 105.501 -186h43l33 -152h-45zM553 154.002c-19.333 34 -39.1689 58.5 -59.502 73.5s-41.166 22.5 -62.499 22.5c-16 0 -28 -5 -36 -15s-10.667 -25.333 -8 -46
c1.33301 -12 8.83301 -21 22.5 -27s29.334 -10 47.001 -12s35.5 -2.5 53.5 -1.5s32.333 2.83301 43 5.5zM489.997 -469.998c4.66699 -22 5.33203 -43.168 1.99902 -63.501s-9.83301 -38.5 -19.5 -54.5s-22.667 -28.667 -39 -38s-35.166 -14 -56.499 -14
c-29.333 0 -55.333 9.5 -78 28.5s-37.667 45.167 -45 78.5c-5.33301 23.333 -6.5 45.5 -3.5 66.5s10.833 41.833 23.5 62.5c24.667 42 56.667 63 96 63c30 0 55.5 -12.167 76.5 -36.5s35.5 -55.166 43.5 -92.499zM442.995 -491.999c-2 10 -5.49609 19.5 -10.4961 28.5
s-11 17.167 -18 24.5s-14.833 13.166 -23.5 17.499s-17.334 6.5 -26.001 6.5c-10 0 -19.5 -2.5 -28.5 -7.5s-16.5 -11.667 -22.5 -20s-10.333 -17.833 -13 -28.5s-2.66699 -22 0 -34c3.33301 -17.333 12.166 -31.166 26.499 -41.499s29.166 -15.5 44.499 -15.5
c12 0 22.667 2.16699 32 6.5s17.166 9.83301 23.499 16.5s11 14.167 14 22.5s3.5 16.5 1.5 24.5z" />
    <glyph glyph-name="uni06CA.fina" unicode="&#x6ca;" horiz-adv-x="721" 
d="M676 0c3.33301 -64.667 -20.667 -142.332 -72 -232.999c-66.667 -116.667 -152 -175 -256 -175c-56 0 -121.333 16.667 -196 50c-68 30 -103.667 53 -107 69c-2 10 3 15 15 15c-1.33301 0 16.667 -5 54 -15c19.333 -5.33301 38.5 -9 57.5 -11s37.167 -3 54.5 -3
c132.667 0 235.667 54 309 162c22 32 39.167 59.667 51.5 83s19.166 43.333 20.499 60c-8.66699 -1.33301 -20 -2.33301 -34 -3s-30.333 -1 -49 -1c-30 0 -57 4 -81 12s-46.667 19.667 -68 35c-34 26 -55 56.667 -63 92c-10 51.333 -2 106.666 24 165.999
c28.667 62.667 63.667 94 105 94c32 0 64.833 -19.667 98.5 -59s68.834 -101.333 105.501 -186h43l33 -152h-45zM553 154.002c-19.333 34 -39.1689 58.5 -59.502 73.5s-41.166 22.5 -62.499 22.5c-16 0 -28 -5 -36 -15s-10.667 -25.333 -8 -46
c1.33301 -12 8.83301 -21 22.5 -27s29.334 -10 47.001 -12s35.5 -2.5 53.5 -1.5s32.333 2.83301 43 5.5zM296.997 564.002l-113 93l74 93l112 -93zM492.997 572.002l-113 93l73 93l113 -93z" />
    <glyph glyph-name="uni06CD.fina" unicode="&#x6cd;" horiz-adv-x="1049" 
d="M1049 0c-44 0 -84.665 -2.17188 -121.998 -6.50488s-71 -11.166 -101 -20.499c-50 -14 -73.333 -29 -70 -45c2 -9.33301 58.333 -23.666 169 -42.999c72.667 -10 114 -40 124 -90c10.667 -51.333 -2 -95 -38 -131c-135.333 -129.333 -293.666 -194 -474.999 -194
c-56.667 0 -108.834 6.66699 -156.501 20s-89.667 32.833 -126 58.5s-66.666 57.334 -90.999 95.001s-41.5 80.834 -51.5 129.501c-20.667 96.667 -5 187.667 47 273l-192 -63l2 64l242 64c1.33301 0.666992 2.66602 1.16699 3.99902 1.5s3 0.5 5 0.5
c9.33301 0 15.666 -7 18.999 -21l-13 -24v-1l-1 -1l-11.5 -25.5l-15.5 -34.5c-13.333 -30 -22 -59.333 -26 -88s-3 -57.334 3 -86.001c13.333 -59.333 52.666 -112.666 117.999 -159.999c68.667 -48.667 142.334 -73 221.001 -73c109.333 0 215 20.333 317 61
c88 36.667 129.333 65.334 124 86.001c-1.33301 5.33301 -8.33301 10 -21 14s-32.667 7.66699 -60 11c-72 10 -120.667 18 -146 24c-54 18.667 -85 46 -93 82c-14.667 66.667 18.666 128.667 99.999 186c78 59.333 172 89 282 89l33 -152v0z" />
    <glyph glyph-name="uni06CE.init" unicode="&#x6ce;" horiz-adv-x="318" 
d="M220 260c20.667 -95.333 15.001 -163.667 -16.999 -205c-10 -12.667 -39.333 -25.667 -88 -39c-23.333 -5.33301 -44.5 -9.33301 -63.5 -12s-36.167 -4 -51.5 -4c-46.667 -0 -75.334 25.333 -86.001 76c-10 50.667 8 76 54 76h36c86 0 141.667 10.667 167 32
c-4.66699 21.333 -15 43.833 -31 67.5s-37.667 48.5 -65 74.5l23 104c2 6.66699 5 10 9 10s10.333 -5.33301 19 -16c52.667 -59.333 84 -114 94 -164zM63.001 878.999c-8.66699 -8 -17.5 -20.832 -26.5 -38.499s-17.5 -38.5 -25.5 -62.5s-14.667 -50.167 -20 -78.5
s-8.33301 -57.5 -9 -87.5h-28l-2 3c-14 29.333 -29.833 58.166 -47.5 86.499s-35.5 54.333 -53.5 78s-35.167 44.167 -51.5 61.5s-29.833 30 -40.5 38l87 2c19.333 -21.333 37.333 -47.333 54 -78s32 -62.667 46 -96c0 33.333 2.33301 65.333 7 96s11.667 56.667 21 78z
M108.001 -372l-113 93l74 93l112 -93zM304.001 -364l-113 93l73 93l113 -93z" />
    <glyph glyph-name="uni06CE.medi" unicode="&#x6ce;" horiz-adv-x="440" 
d="M395 0c-33.333 0 -71.3311 11.667 -113.998 35c-49.333 25.333 -83.333 57.333 -102 96c-22.667 -83.333 -82.334 -127 -179.001 -131c-46.667 -0 -75.334 25.333 -86.001 76c-10 50.667 8 76 54 76h44c84 0 136 44.333 156 133c7.33301 27.333 18 41 32 41
c11.333 0 18 -5 20 -15c0.666992 -1.33301 0.5 -8.5 -0.5 -21.5s-0.166992 -26.167 2.5 -39.5c14 -65.333 77 -98 189 -98l33 -152h-49zM243.002 787c-8.66699 -8 -17.5 -20.832 -26.5 -38.499s-17.5 -38.5 -25.5 -62.5s-14.667 -50.167 -20 -78.5s-8.33301 -57.5 -9 -87.5
h-28l-2 3c-14 29.333 -29.833 58.166 -47.5 86.499s-35.5 54.333 -53.5 78s-35.167 44.167 -51.5 61.5s-29.833 30 -40.5 38l87 2c19.333 -21.333 37.333 -47.333 54 -78s32 -62.667 46 -96c0 33.333 2.33301 65.333 7 96s11.667 56.667 21 78zM178.002 -361.999l-113 93
l74 93l112 -93zM374.002 -353.999l-113 93l73 93l113 -93z" />
    <glyph glyph-name="uni06CE.fina" unicode="&#x6ce;" horiz-adv-x="1049" 
d="M1049 0c-44 0 -84.665 -2.17188 -121.998 -6.50488s-71 -11.166 -101 -20.499c-50 -14 -73.333 -29 -70 -45c2 -9.33301 58.333 -23.666 169 -42.999c72.667 -10 114 -40 124 -90c10.667 -51.333 -2 -95 -38 -131c-135.333 -129.333 -293.666 -194 -474.999 -194
c-56.667 0 -108.834 6.66699 -156.501 20s-89.667 32.833 -126 58.5s-66.666 57.334 -90.999 95.001s-41.5 80.834 -51.5 129.501c-24.667 115.333 2.33301 223 81 323c4 5.33301 8.16699 9.5 12.5 12.5s9.16602 4.5 14.499 4.5c9.33301 0 15.666 -7 18.999 -21
c0 1.33301 -3.5 -5.16699 -10.5 -19.5s-17.167 -36.5 -30.5 -66.5s-22 -59.333 -26 -88s-3 -57.334 3 -86.001c13.333 -59.333 52.666 -112.666 117.999 -159.999c68.667 -48.667 142.334 -73 221.001 -73c109.333 0 215 20.333 317 61c88 36.667 129.333 65.334 124 86.001
c-1.33301 5.33301 -8.33301 10 -21 14s-32.667 7.66699 -60 11c-72 10 -120.667 18 -146 24c-54 18.667 -85 46 -93 82c-14.667 66.667 18.666 128.667 99.999 186c78 59.333 172 89 282 89l33 -152v0zM553.002 523.995c-8.66699 -8 -17.5 -20.832 -26.5 -38.499
s-17.5 -38.5 -25.5 -62.5s-14.667 -50.167 -20 -78.5s-8.33301 -57.5 -9 -87.5h-28l-2 3c-14 29.333 -29.833 58.166 -47.5 86.499s-35.5 54.333 -53.5 78s-35.167 44.167 -51.5 61.5s-29.833 30 -40.5 38l87 2c19.333 -21.333 37.333 -47.333 54 -78s32 -62.667 46 -96
c0 33.333 2.33301 65.333 7 96s11.667 56.667 21 78z" />
    <glyph glyph-name="uni06CF.fina" unicode="&#x6cf;" horiz-adv-x="721" 
d="M676 0c3.33301 -64.667 -20.667 -142.332 -72 -232.999c-66.667 -116.667 -152 -175 -256 -175c-56 0 -121.333 16.667 -196 50c-68 30 -103.667 53 -107 69c-2 10 3 15 15 15c-1.33301 0 16.667 -5 54 -15c19.333 -5.33301 38.5 -9 57.5 -11s37.167 -3 54.5 -3
c132.667 0 235.667 54 309 162c22 32 39.167 59.667 51.5 83s19.166 43.333 20.499 60c-8.66699 -1.33301 -20 -2.33301 -34 -3s-30.333 -1 -49 -1c-30 0 -57 4 -81 12s-46.667 19.667 -68 35c-34 26 -55 56.667 -63 92c-10 51.333 -2 106.666 24 165.999
c28.667 62.667 63.667 94 105 94c32 0 64.833 -19.667 98.5 -59s68.834 -101.333 105.501 -186h43l33 -152h-45zM553 154.002c-19.333 34 -39.1689 58.5 -59.502 73.5s-41.166 22.5 -62.499 22.5c-16 0 -28 -5 -36 -15s-10.667 -25.333 -8 -46
c1.33301 -12 8.83301 -21 22.5 -27s29.334 -10 47.001 -12s35.5 -2.5 53.5 -1.5s32.333 2.83301 43 5.5zM374.997 551.002l-126 104l81 104l127 -104z" />
    <glyph glyph-name="uni06D1.fina" unicode="&#x6d1;" horiz-adv-x="1049" 
d="M468 -654l109 -90l-71 -90l-109 90zM675 -648l109 -90l-71 -90l-109 90zM609 -814l109 -90l-71 -90l-109 90zM1049 0c-44 0 -84.665 -2.17188 -121.998 -6.50488s-71 -11.166 -101 -20.499c-50 -14 -73.333 -29 -70 -45c2 -9.33301 58.333 -23.666 169 -42.999
c72.667 -10 114 -40 124 -90c10.667 -51.333 -2 -95 -38 -131c-135.333 -129.333 -293.666 -194 -474.999 -194c-56.667 0 -108.834 6.66699 -156.501 20s-89.667 32.833 -126 58.5s-66.666 57.334 -90.999 95.001s-41.5 80.834 -51.5 129.501
c-24.667 115.333 2.33301 223 81 323c4 5.33301 8.16699 9.5 12.5 12.5s9.16602 4.5 14.499 4.5c9.33301 0 15.666 -7 18.999 -21c0 1.33301 -3.5 -5.16699 -10.5 -19.5s-17.167 -36.5 -30.5 -66.5s-22 -59.333 -26 -88s-3 -57.334 3 -86.001
c13.333 -59.333 52.666 -112.666 117.999 -159.999c68.667 -48.667 142.334 -73 221.001 -73c109.333 0 215 20.333 317 61c88 36.667 129.333 65.334 124 86.001c-1.33301 5.33301 -8.33301 10 -21 14s-32.667 7.66699 -60 11c-72 10 -120.667 18 -146 24
c-54 18.667 -85 46 -93 82c-14.667 66.667 18.666 128.667 99.999 186c78 59.333 172 89 282 89l33 -152v0z" />
    <glyph glyph-name="uni06FA.init" unicode="&#x6fa;" horiz-adv-x="945" 
d="M859 285c10.667 -51.333 9.00098 -104.668 -4.99902 -160.001c-18 -70 -51 -105 -99 -105c-67.333 0 -143.666 31.667 -228.999 95c-43.333 -71.333 -104.666 -107 -183.999 -107c-75.333 0 -130.666 38.333 -165.999 115c-12 -78 -70.667 -119 -176 -123
c-46.667 0 -75.334 25.333 -86.001 76c-10 50.667 8 76 54 76h27c27.333 0 51.666 4 72.999 12s39 19.667 53 35c18.667 18.667 33 47.334 43 86.001c11.333 31.333 19.666 47 24.999 47c13.333 0 19.666 -5 18.999 -15l6 -47c12 -83.333 60.667 -125 146 -125
c50 0 88 17.333 114 52c14 20 26.667 52 38 96c10 34 18.667 51 26 51c10.667 0 17 -5.33301 19 -16l10 -90c16 -16 47 -33.333 93 -52c53.333 -20.667 100 -30 140 -28c4.66699 42 -4.33301 84.333 -27 127l18 49c6.66699 14 12.167 24.667 16.5 32s8.5 11 12.5 11
c12.667 0 25.667 -30.667 39 -92zM562.001 507.998l-109 90l71 90l109 -90zM355.001 501.998l-110 90l71 90l109 -90zM421.001 667.998l-109 90l71 90l109 -90zM599.001 -394.002l-126 104l81 104l127 -104z" />
    <glyph glyph-name="uni06FA.medi" unicode="&#x6fa;" horiz-adv-x="1063" 
d="M1020 0c-18.667 0 -37.666 2.33301 -56.999 7s-37.833 11 -55.5 19s-34.167 17.5 -49.5 28.5s-28 22.833 -38 35.5c-26.667 -60 -63 -90 -109 -90c-56 0 -117.667 28.667 -185 86c-35.333 -57.333 -92.666 -86 -171.999 -86c-81.333 0 -141.333 37.667 -180 113
c-24.667 -71.333 -82.667 -109 -174 -113c-46.667 -0 -75.334 25.333 -86.001 76c-10 50.667 8 76 54 76h25c92 0 151.667 38 179 114c9.33301 22 17.333 33 24 33c14 0 22 -5.33301 24 -16c1.33301 -4.66699 2 -12.667 2 -24s0.666992 -20.666 2 -27.999
c12 -56 56.333 -84 133 -84c51.333 0 91 15.333 119 46c9.33301 9.33301 17.5 20.5 24.5 33.5s13.5 28.167 19.5 45.5c3.33301 15.333 7 26.666 11 33.999s7.66699 11 11 11c16 0 24.667 -7.33301 26 -22l6 -74c1.33301 -8 6.83301 -16 16.5 -24s21.5 -15.333 35.5 -22
s29.5 -12.167 46.5 -16.5s33.833 -6.5 50.5 -6.5c28 0 52 25.667 72 77c9.33301 26 17.5 45.5 24.5 58.5s12.167 19.5 15.5 19.5c7.33301 0 13.333 -1.5 18 -4.5s7.66699 -7.5 9 -13.5c0 -0.666992 -0.333008 -3 -1 -7s-1.33398 -9 -2.00098 -15s-1 -12.667 -1 -20
s0.666992 -14 2 -20c10.667 -50 47.667 -75 111 -75h59l33 -152h-43zM621.001 508l-109 90l71 90l109 -90zM414.001 502l-110 90l71 90l109 -90zM480.001 668l-109 90l71 90l109 -90zM659.001 -414l-126 104l81 104l127 -104z" />
    <glyph glyph-name="uni06FA.fina" unicode="&#x6fa;" horiz-adv-x="1702" 
d="M1659 0c-18.667 0 -37.666 2.3291 -56.999 6.99609s-37.833 11 -55.5 19s-34.167 17.5 -49.5 28.5s-28 22.833 -38 35.5c-28.667 -60 -65 -90 -109 -90c-70.667 0 -133.334 28 -188.001 84c-32.667 -56 -88.334 -84 -167.001 -84c-15.333 0 -29.833 1.5 -43.5 4.5
s-25.5 7.5 -35.5 13.5c21.333 -100 18.333 -183.667 -9 -251c-18 -42.667 -54.667 -85 -110 -127c-80 -56 -176.333 -84 -289 -84c-130.667 0 -233 34 -307 102c-54 48 -88 105.333 -102 172c-16 71.333 -14 143 6 215c15.333 61.333 30.333 92 45 92
s23.334 -6.66699 26.001 -20c-0.666992 -5.33301 -2 -11.666 -4 -18.999l-5 -23l-7 -32c-5.33301 -23.333 -8.33301 -45.666 -9 -66.999s1 -40.666 5 -57.999c30.667 -144.667 150.667 -217 360 -217c183.333 0 307 47 371 141c-24 114 -73 218.667 -147 314l26 127
c5.33301 0 37.666 -33 96.999 -99c15.333 -15.333 33.5 -27 54.5 -35s46.5 -12 76.5 -12c25.333 0 48.333 4 69 12s38 19.667 52 35c20.667 18.667 37.334 47.334 50.001 86.001c10 31.333 17.333 47 22 47c12 0 19.667 -6 23 -18l9 -78
c2.66699 -13.333 21.334 -28.333 56.001 -45c36 -16 68.333 -24 97 -24c26 0 48 25.667 66 77l23 58.5c5.33301 13 9.66602 19.5 12.999 19.5c7.33301 0 13.333 -1.5 18 -4.5s7.66699 -7.5 9 -13.5c0 -0.666992 -0.333008 -3 -1 -7s-1.33398 -9 -2.00098 -15
s-1 -12.5 -1 -19.5s0.666992 -13.833 2 -20.5c10.667 -50 47.334 -75 110.001 -75h60l33 -152h-43zM1238 473.996l-109 90l71 90l109 -90zM1031 467.996l-110 90l71 90l109 -90zM1097 633.996l-109 90l71 90l109 -90zM1312 -415.004l-126 104l81 104l127 -104z" />
    <glyph glyph-name="uni06FB.init" unicode="&#x6fb;" horiz-adv-x="1146" 
d="M935 330c-3.33301 19.333 -25.999 36.335 -67.999 51.002c-21.333 8 -42.333 14.167 -63 18.5s-41.334 6.5 -62.001 6.5c-96 0 -216 -91.667 -360 -275h51c48 0 99.167 6.16699 153.5 18.5s112.5 30.166 174.5 53.499c124 49.333 182 91.666 174 126.999zM1023 406.002
c6.66699 -30 4.16797 -63.332 -7.49902 -99.999s-33.167 -76 -64.5 -118c-46.667 -63.333 -124.667 -114.333 -234 -153c-100 -36.667 -193.667 -55 -281 -55c-76 0 -136.333 14.333 -181 43c-18 11.333 -35.5 27 -52.5 47s-34.167 45 -51.5 75
c-23.333 -90.667 -73.666 -139 -150.999 -145c-46.667 0 -75.334 25.333 -86.001 76c-10 50.667 8 76 54 76h16c50 0 88.667 19 116 57c31.333 39.333 45.333 59 42 59c7.33301 0 15.333 -6.66699 24 -20c41.333 -68.667 87 -103 137 -103c206 262.667 371 394 495 394
c24 0 47.667 -3.5 71 -10.5s47.333 -17.167 72 -30.5c47.333 -26.667 74.666 -57.334 81.999 -92.001zM290.002 560.003l-126 104l81 104l127 -104zM514.002 -439.997l-126 104l81 104l127 -104z" />
    <glyph glyph-name="uni06FB.medi" unicode="&#x6fb;" horiz-adv-x="1471" 
d="M1210 0h-91.999c-33.333 -0 -70 -0.666992 -110 -2c-39.333 -1.33301 -71.666 -2.33301 -96.999 -3s-44.666 -1 -57.999 -1c-60.667 0 -110.5 0.833008 -149.5 2.5s-66.167 4.16699 -81.5 7.5c-71.333 -16 -133.333 -24 -186 -24c-76 0 -136.333 14.333 -181 43
c-18 11.333 -35.5 27 -52.5 47s-34.167 45 -51.5 75c-23.333 -90.667 -73.666 -139 -150.999 -145c-46.667 -0 -75.334 25.333 -86.001 76c-10 50.667 8 76 54 76h16c50 0 88.667 19 116 57c31.333 39.333 45.333 59 42 59c7.33301 0 15.333 -6.66699 24 -20
c41.333 -68.667 87 -103 137 -103c206 262.667 371 394 495 394c24 0 47.667 -3.5 71 -10.5s47.333 -17.167 72 -30.5c47.333 -26.667 74.666 -57.334 81.999 -92.001c8 -34.667 1.33301 -77 -20 -127c-22.667 -55.333 -58.334 -104.666 -107.001 -147.999
c11.333 0 26.833 0.833008 46.5 2.5s44.5 4.16699 74.5 7.5c28.667 3.33301 56.167 6 82.5 8s52.166 3 77.499 3zM935.001 330c-3.33301 19.333 -25.999 36.335 -67.999 51.002c-21.333 8 -42.333 14.167 -63 18.5s-41.334 6.5 -62.001 6.5c-96 0 -216 -91.667 -360 -275h51
c48 0 99.167 6.16699 153.5 18.5s112.5 30.166 174.5 53.499c124 49.333 182 91.666 174 126.999zM376.002 547.002l-126 104l81 104l127 -104zM618.002 -413.998l-126 104l81 104l127 -104z" />
    <glyph glyph-name="uni06FB.fina" unicode="&#x6fb;" horiz-adv-x="1896" 
d="M1896 0l-92.001 -0.00292969c-33.333 0 -70 -0.666992 -110 -2c-39.333 -1.33301 -71.666 -2.33301 -96.999 -3s-44.666 -1 -57.999 -1c-60.667 0 -110.5 0.833008 -149.5 2.5s-66.167 4.16699 -81.5 7.5c-71.333 -16 -133.333 -24 -186 -24
c-82.667 0 -151.334 12.667 -206.001 38c21.333 -100 18.333 -183.667 -9 -251c-18 -42.667 -54.667 -85 -110 -127c-80 -56 -176.333 -84 -289 -84c-130.667 0 -233 34 -307 102c-54 48 -88 105.333 -102 172c-16 71.333 -14 143 6 215c15.333 61.333 30.333 92 45 92
s23.334 -6.66699 26.001 -20c-0.666992 -5.33301 -2 -11.666 -4 -18.999l-5 -23l-7 -32c-5.33301 -23.333 -8.33301 -45.666 -9 -66.999s1 -40.666 5 -57.999c30.667 -144.667 150.667 -217 360 -217c183.333 0 307 47 371 141c-24 114 -73 218.667 -147 314l26 127
c5.33301 0 37.666 -33 96.999 -99c24.667 -26 66.667 -39 126 -39c206 262.667 371 394 495 394c24 0 47.667 -3.5 71 -10.5s47.333 -17.167 72 -30.5c47.333 -26.667 74.666 -57.334 81.999 -92.001c8 -34.667 1.33301 -77 -20 -127
c-22.667 -55.333 -58.334 -104.666 -107.001 -147.999c11.333 0 26.833 0.833008 46.5 2.5s44.5 4.16699 74.5 7.5c28.667 3.33301 56.334 6 83.001 8s52.334 3 77.001 3zM1621 329.997c-3.33301 19.333 -26 36.335 -68 51.002c-21.333 8 -42.333 14.167 -63 18.5
s-41 6.5 -61 6.5c-96.667 0 -217 -91.667 -361 -275h51c48 0 99.167 6.16699 153.5 18.5s112.5 30.166 174.5 53.499c124 49.333 182 91.666 174 126.999zM1027 515.999l-126 104l81 104l127 -104zM1239 -406.001l-126 104l81 104l127 -104z" />
    <glyph glyph-name="uni06FC.init" unicode="&#x6fc;" horiz-adv-x="791" 
d="M670 199c-29.333 -17.333 -73.001 -36.502 -131.001 -57.502s-131 -44.167 -219 -69.5c-78 -21.333 -143.5 -38.166 -196.5 -50.499s-94.167 -19.5 -123.5 -21.5c-46.667 0 -75.334 25.333 -86.001 76c-10 50.667 8 76 54 76c31.333 0 60.333 1.5 87 4.5s50 7.5 70 13.5
c-30 30 -53.833 58.333 -71.5 85s-29.167 52.334 -34.5 77.001c-10.667 50 4 110 44 180c46 82 106.333 123 181 123c50.667 0 106.667 -17 168 -51c52.667 -30 81 -54.667 85 -74c2 -8 -1.66699 -12 -11 -12c-0.666992 0 -5.66699 1.66699 -15 5s-21.166 7 -35.499 11
s-30.166 7.66699 -47.499 11s-34 5 -50 5c-33.333 0 -74 -8 -122 -24c-57.333 -20.667 -105.666 -47.334 -144.999 -80.001c68.667 -109.333 166 -181.666 292 -216.999c65.333 16 132.666 39.333 201.999 70l123 49zM184.999 806.998l-126 104l81 104l127 -104z
M384.999 -387.002l-126 104l81 104l127 -104z" />
    <glyph glyph-name="uni06FC.medi" unicode="&#x6fc;" horiz-adv-x="647" 
d="M647 0c-68.667 0 -125.997 8.33008 -171.997 24.9971c-52 19.333 -109.333 56 -172 110c-101.333 -86 -202.333 -131 -303 -135c-46.667 0 -75.334 25.333 -86.001 76c-10 50.667 8 76 54 76c52 0 99.333 5 142 15s80.667 25.333 114 46c-34 46.667 -97.333 72 -190 76
c-9.33301 46 3.33398 86.333 38.001 121c39.333 39.333 98.666 59 177.999 59c33.333 0 64.166 -3.16699 92.499 -9.5s53.166 -15.166 74.499 -26.499s39 -25.166 53 -41.499s23 -34.833 27 -55.5c2.66699 -12 2.33398 -24.667 -0.999023 -38s-9 -26.333 -17 -39
s-18 -24.667 -30 -36s-25.333 -20.666 -40 -27.999c39.333 -28.667 96.666 -43 171.999 -43h33l33 -152v0zM199.003 623.997l-126 104l81 104l127 -104zM381.003 -338.003l-126 104l81 104l127 -104z" />
    <glyph glyph-name="uni06FC.fina" unicode="&#x6fc;" horiz-adv-x="848" 
d="M1139 -672c3.33301 -12 -13.6641 -23.665 -50.9971 -34.998c-1.33301 0 -14.666 -4.66699 -39.999 -14l-114 -43c-31.333 -12 -61.833 -21.167 -91.5 -27.5s-58.5 -9.5 -86.5 -9.5c-358 0 -566.333 138 -625 414c-29.333 133.333 -22.333 257.666 21 372.999
c17.333 49.333 38.833 93.166 64.5 131.499s56.5 71.5 92.5 99.5c-36.667 31.333 -96.667 47 -180 47c-2 28 1.5 53.667 10.5 77s24.5 44 46.5 62c23.333 19.333 50.166 34.166 80.499 44.499s65.5 15.5 105.5 15.5c28 0 54.667 -3.33301 80 -10s48 -16.167 68 -28.5
s36.667 -26.833 50 -43.5s22 -35 26 -55c9.33301 -43.333 -19 -89.333 -85 -138c24.667 -24 66 -36 124 -36h180l33 -152h-123c-108.667 0 -213.334 48.333 -314.001 145c-79.333 -51.333 -139.333 -116.666 -180 -195.999c-44.667 -90.667 -57 -183 -37 -277
c28.667 -136 109.667 -230.667 243 -284c92 -37.333 259.667 -56 503 -56c16.667 0 34.167 0.5 52.5 1.5s35.666 2 51.999 3s30.666 2 42.999 3s20.833 1.5 25.5 1.5c16 0 24.667 -4.33301 26 -13zM300.003 605.002l-126 104l81 104l127 -104zM578.003 -395.998l-126 104
l81 104l127 -104z" />
    <glyph glyph-name="uniFB51" unicode="&#x671;" horiz-adv-x="489" arabic-form="final" 
d="M429 0c-70 0 -131.667 26 -185 78c-49.333 49.333 -89 130.666 -119 243.999c-47.333 172 -89.333 317.333 -126 436s-69 211.334 -97 278.001c12 101.333 23.333 152 34 152c11.333 0 31 -42.333 59 -127l57 -190l99 -345c48 -163.333 88.333 -268.333 121 -315
c28 -39.333 70 -59 126 -59h58l33 -152h-60zM-333 1340c18 25.333 42.002 39.166 72.002 41.499s57.333 -3.16699 82 -16.5c21.333 34 42.666 60.5 63.999 79.5s39.333 30.833 54 35.5c18 6.66699 34.5 6.83398 49.5 0.500977s27.5 -15.833 37.5 -28.5s16.5 -27 19.5 -43
s1.5 -30.667 -4.5 -44c-12.667 -22.667 -31 -39.5 -55 -50.5s-53.667 -16.167 -89 -15.5s-74 10.667 -116 30c-9.33301 4.66699 -19.333 8.16699 -30 10.5s-21.334 3.83301 -32.001 4.5s-20.5 0.5 -29.5 -0.5s-16.5 -2.16699 -22.5 -3.5zM-53.998 1439
c-19.333 -6.66699 -36.668 -17.168 -52.001 -31.501s-31 -30.833 -47 -49.5c5.33301 -3.33301 16.5 -5.33301 33.5 -6s35 0 54 2s36.667 5.83301 53 11.5s26.833 13.5 31.5 23.5c-0.666992 5.33301 -2.66699 11.5 -6 18.5s-8.16602 13.5 -14.499 19.5
s-13.833 10.333 -22.5 13s-18.667 2.33398 -30 -0.999023z" />
    <glyph glyph-name="uniFB53" unicode="&#x67b;" horiz-adv-x="1384" arabic-form="final" 
d="M1384 0c-21.333 0 -43.6699 1.16602 -67.0029 3.49902s-45.833 8 -67.5 17s-41.667 22.667 -60 41s-33.166 43.5 -44.499 75.5c-19.333 -19.333 -46.166 -40.5 -80.499 -63.5s-75.833 -44.5 -124.5 -64.5s-104.167 -36.667 -166.5 -50s-131.166 -20 -206.499 -20
c-93.333 0 -172.333 8.83301 -237 26.5s-117.834 39.834 -159.501 66.501s-72.834 55.667 -93.501 87s-34 60.666 -40 87.999c-6 26.667 -6.83301 54 -2.5 82s10.666 53.5 18.999 76.5s17.333 41.833 27 56.5s17.167 22 22.5 22c11.333 0 18 -4.66699 20 -14
c0.666992 -3.33301 -0.5 -9.66602 -3.5 -18.999s-6 -20.833 -9 -34.5s-5.16699 -28.834 -6.5 -45.501s0 -34 4 -52c4 -19.333 15.5 -40.166 34.5 -62.499s47 -42.833 84 -61.5s83.667 -34.167 140 -46.5s124.5 -18.5 204.5 -18.5c65.333 0 128.833 5.33301 190.5 16
s117.834 24.334 168.501 41.001s93.667 35.334 129 56.001s59.666 41 72.999 61c10.667 15.333 18.834 25.666 24.501 30.999s10.834 8 15.501 8c4 0 8.33301 -1.66699 13 -5s7.33398 -7 8.00098 -11c2 -7.33301 2.5 -16.333 1.5 -27s-0.833008 -20.334 0.5 -29.001
c1.33301 -6 5.5 -13.5 12.5 -22.5s16 -17.667 27 -26s23.667 -15.5 38 -21.5s29.5 -9 45.5 -9h33l33 -152v0zM653.996 -383.001l-110 90l71 90l109 -90zM699.996 -587.001l-109 90l71 90l109 -90z" />
    <glyph glyph-name="uniFB54" unicode="&#x67b;" horiz-adv-x="318" arabic-form="initial" 
d="M220 260c20.667 -95.333 15.001 -163.667 -16.999 -205c-10 -12.667 -39.333 -25.667 -88 -39c-23.333 -5.33301 -44.5 -9.33301 -63.5 -12s-36.167 -4 -51.5 -4c-46.667 -0 -75.334 25.333 -86.001 76c-10 50.667 8 76 54 76h36c86 0 141.667 10.667 167 32
c-4.66699 21.333 -15 43.833 -31 67.5s-37.667 48.5 -65 74.5l23 104c2 6.66699 5 10 9 10s10.333 -5.33301 19 -16c52.667 -59.333 84 -114 94 -164zM184.001 -332.001l-110 90l71 90l109 -90zM230.001 -536.001l-109 90l71 90l109 -90z" />
    <glyph glyph-name="uniFB55" unicode="&#x67b;" horiz-adv-x="440" arabic-form="medial" 
d="M395 0c-33.333 0 -71.3311 11.667 -113.998 35c-49.333 25.333 -83.333 57.333 -102 96c-22.667 -83.333 -82.334 -127 -179.001 -131c-46.667 -0 -75.334 25.333 -86.001 76c-10 50.667 8 76 54 76h44c84 0 136 44.333 156 133c7.33301 27.333 18 41 32 41
c11.333 0 18 -5 20 -15c0.666992 -1.33301 0.5 -8.5 -0.5 -21.5s-0.166992 -26.167 2.5 -39.5c14 -65.333 77 -98 189 -98l33 -152h-49zM282.002 -303l-110 90l71 90l109 -90zM328.002 -507l-109 90l71 90l109 -90z" />
    <glyph glyph-name="afii62958" unicode="&#x67e;" horiz-adv-x="1384" arabic-form="final" 
d="M1384 0c-21.333 0 -43.6699 1.16602 -67.0029 3.49902s-45.833 8 -67.5 17s-41.667 22.667 -60 41s-33.166 43.5 -44.499 75.5c-19.333 -19.333 -46.166 -40.5 -80.499 -63.5s-75.833 -44.5 -124.5 -64.5s-104.167 -36.667 -166.5 -50s-131.166 -20 -206.499 -20
c-93.333 0 -172.333 8.83301 -237 26.5s-117.834 39.834 -159.501 66.501s-72.834 55.667 -93.501 87s-34 60.666 -40 87.999c-6 26.667 -6.83301 54 -2.5 82s10.666 53.5 18.999 76.5s17.333 41.833 27 56.5s17.167 22 22.5 22c11.333 0 18 -4.66699 20 -14
c0.666992 -3.33301 -0.5 -9.66602 -3.5 -18.999s-6 -20.833 -9 -34.5s-5.16699 -28.834 -6.5 -45.501s0 -34 4 -52c4 -19.333 15.5 -40.166 34.5 -62.499s47 -42.833 84 -61.5s83.667 -34.167 140 -46.5s124.5 -18.5 204.5 -18.5c65.333 0 128.833 5.33301 190.5 16
s117.834 24.334 168.501 41.001s93.667 35.334 129 56.001s59.666 41 72.999 61c10.667 15.333 18.834 25.666 24.501 30.999s10.834 8 15.501 8c4 0 8.33301 -1.66699 13 -5s7.33398 -7 8.00098 -11c2 -7.33301 2.5 -16.333 1.5 -27s-0.833008 -20.334 0.5 -29.001
c1.33301 -6 5.5 -13.5 12.5 -22.5s16 -17.667 27 -26s23.667 -15.5 38 -21.5s29.5 -9 45.5 -9h33l33 -152v0zM555.996 -189.001l109 -90l-71 -90l-109 90zM762.996 -183.001l109 -90l-71 -90l-109 90zM696.996 -349.001l109 -90l-71 -90l-109 90z" />
    <glyph glyph-name="afii62956" unicode="&#x67e;" horiz-adv-x="318" arabic-form="initial" 
d="M220 260c20.667 -95.333 15.001 -163.667 -16.999 -205c-10 -12.667 -39.333 -25.667 -88 -39c-23.333 -5.33301 -44.5 -9.33301 -63.5 -12s-36.167 -4 -51.5 -4c-46.667 -0 -75.334 25.333 -86.001 76c-10 50.667 8 76 54 76h36c86 0 141.667 10.667 167 32
c-4.66699 21.333 -15 43.833 -31 67.5s-37.667 48.5 -65 74.5l23 104c2 6.66699 5 10 9 10s10.333 -5.33301 19 -16c52.667 -59.333 84 -114 94 -164zM50.001 -152.001l109 -90l-71 -90l-109 90zM257.001 -146.001l109 -90l-71 -90l-109 90zM191.001 -312.001l109 -90
l-71 -90l-109 90z" />
    <glyph glyph-name="afii52957" unicode="&#x67e;" horiz-adv-x="440" arabic-form="medial" 
d="M395 0c-33.333 0 -71.3311 11.667 -113.998 35c-49.333 25.333 -83.333 57.333 -102 96c-22.667 -83.333 -82.334 -127 -179.001 -131c-46.667 -0 -75.334 25.333 -86.001 76c-10 50.667 8 76 54 76h44c84 0 136 44.333 156 133c7.33301 27.333 18 41 32 41
c11.333 0 18 -5 20 -15c0.666992 -1.33301 0.5 -8.5 -0.5 -21.5s-0.166992 -26.167 2.5 -39.5c14 -65.333 77 -98 189 -98l33 -152h-49zM149.002 -209l109 -90l-71 -90l-109 90zM356.002 -203l109 -90l-71 -90l-109 90zM290.002 -369l109 -90l-71 -90l-109 90z" />
    <glyph glyph-name="uniFB5B" unicode="&#x680;" horiz-adv-x="1384" arabic-form="final" 
d="M1384 0c-21.333 0 -43.6699 1.16602 -67.0029 3.49902s-45.833 8 -67.5 17s-41.667 22.667 -60 41s-33.166 43.5 -44.499 75.5c-19.333 -19.333 -46.166 -40.5 -80.499 -63.5s-75.833 -44.5 -124.5 -64.5s-104.167 -36.667 -166.5 -50s-131.166 -20 -206.499 -20
c-93.333 0 -172.333 8.83301 -237 26.5s-117.834 39.834 -159.501 66.501s-72.834 55.667 -93.501 87s-34 60.666 -40 87.999c-6 26.667 -6.83301 54 -2.5 82s10.666 53.5 18.999 76.5s17.333 41.833 27 56.5s17.167 22 22.5 22c11.333 0 18 -4.66699 20 -14
c0.666992 -3.33301 -0.5 -9.66602 -3.5 -18.999s-6 -20.833 -9 -34.5s-5.16699 -28.834 -6.5 -45.501s0 -34 4 -52c4 -19.333 15.5 -40.166 34.5 -62.499s47 -42.833 84 -61.5s83.667 -34.167 140 -46.5s124.5 -18.5 204.5 -18.5c65.333 0 128.833 5.33301 190.5 16
s117.834 24.334 168.501 41.001s93.667 35.334 129 56.001s59.666 41 72.999 61c10.667 15.333 18.834 25.666 24.501 30.999s10.834 8 15.501 8c4 0 8.33301 -1.66699 13 -5s7.33398 -7 8.00098 -11c2 -7.33301 2.5 -16.333 1.5 -27s-0.833008 -20.334 0.5 -29.001
c1.33301 -6 5.5 -13.5 12.5 -22.5s16 -17.667 27 -26s23.667 -15.5 38 -21.5s29.5 -9 45.5 -9h33l33 -152v0zM850.996 -557.001l-109 90l71 90l109 -90zM642.996 -563.001l-109 90l71 90l109 -90zM709.996 -397.001l-109 90l71 90l109 -90zM784.996 -729.001l-109 90l70 90
l110 -90z" />
    <glyph glyph-name="uniFB5C" unicode="&#x680;" horiz-adv-x="318" arabic-form="initial" 
d="M220 260c20.667 -95.333 15.001 -163.667 -16.999 -205c-10 -12.667 -39.333 -25.667 -88 -39c-23.333 -5.33301 -44.5 -9.33301 -63.5 -12s-36.167 -4 -51.5 -4c-46.667 -0 -75.334 25.333 -86.001 76c-10 50.667 8 76 54 76h36c86 0 141.667 10.667 167 32
c-4.66699 21.333 -15 43.833 -31 67.5s-37.667 48.5 -65 74.5l23 104c2 6.66699 5 10 9 10s10.333 -5.33301 19 -16c52.667 -59.333 84 -114 94 -164zM357.046 -467.015l-102.221 84.3086l66.584 84.3086l102.221 -84.3086zM161.982 -472.636l-102.221 84.3086
l66.584 84.3096l102.222 -84.3096zM224.815 -317.132l-102.221 84.3086l66.584 84.3086l102.221 -84.3086zM295.151 -628.14l-102.221 84.3096l65.6465 84.3096l103.158 -84.3096z" />
    <glyph glyph-name="uniFB5D" unicode="&#x680;" horiz-adv-x="440" arabic-form="medial" 
d="M395 0c-33.333 0 -71.3311 11.667 -113.998 35c-49.333 25.333 -83.333 57.333 -102 96c-22.667 -83.333 -82.334 -127 -179.001 -131c-46.667 -0 -75.334 25.333 -86.001 76c-10 50.667 8 76 54 76h44c84 0 136 44.333 156 133c7.33301 27.333 18 41 32 41
c11.333 0 18 -5 20 -15c0.666992 -1.33301 0.5 -8.5 -0.5 -21.5s-0.166992 -26.167 2.5 -39.5c14 -65.333 77 -98 189 -98l33 -152h-49zM451.43 -499.158l-103.266 85.1875l67.2646 85.1875l103.266 -85.1875zM254.373 -504.838l-103.266 85.1875l67.2646 85.1885
l103.266 -85.1885zM317.848 -347.713l-103.265 85.1875l67.2646 85.1875l103.265 -85.1875zM388.902 -661.963l-103.266 85.1885l66.3174 85.1885l104.213 -85.1885z" />
    <glyph glyph-name="uniFB5F" unicode="&#x67a;" horiz-adv-x="1384" arabic-form="final" 
d="M1384 0c-21.333 0 -43.6699 1.16602 -67.0029 3.49902s-45.833 8 -67.5 17s-41.667 22.667 -60 41s-33.166 43.5 -44.499 75.5c-19.333 -19.333 -46.166 -40.5 -80.499 -63.5s-75.833 -44.5 -124.5 -64.5s-104.167 -36.667 -166.5 -50s-131.166 -20 -206.499 -20
c-93.333 0 -172.333 8.83301 -237 26.5s-117.834 39.834 -159.501 66.501s-72.834 55.667 -93.501 87s-34 60.666 -40 87.999c-6 26.667 -6.83301 54 -2.5 82s10.666 53.5 18.999 76.5s17.333 41.833 27 56.5s17.167 22 22.5 22c11.333 0 18 -4.66699 20 -14
c0.666992 -3.33301 -0.5 -9.66602 -3.5 -18.999s-6 -20.833 -9 -34.5s-5.16699 -28.834 -6.5 -45.501s0 -34 4 -52c4 -19.333 15.5 -40.166 34.5 -62.499s47 -42.833 84 -61.5s83.667 -34.167 140 -46.5s124.5 -18.5 204.5 -18.5c65.333 0 128.833 5.33301 190.5 16
s117.834 24.334 168.501 41.001s93.667 35.334 129 56.001s59.666 41 72.999 61c10.667 15.333 18.834 25.666 24.501 30.999s10.834 8 15.501 8c4 0 8.33301 -1.66699 13 -5s7.33398 -7 8.00098 -11c2 -7.33301 2.5 -16.333 1.5 -27s-0.833008 -20.334 0.5 -29.001
c1.33301 -6 5.5 -13.5 12.5 -22.5s16 -17.667 27 -26s23.667 -15.5 38 -21.5s29.5 -9 45.5 -9h33l33 -152v0zM542.996 624.999l-110 90l71 90l109 -90zM588.996 420.999l-109 90l71 90l109 -90z" />
    <glyph glyph-name="uniFB60" unicode="&#x67a;" horiz-adv-x="318" arabic-form="initial" 
d="M220 260c20.667 -95.333 15.001 -163.667 -16.999 -205c-10 -12.667 -39.333 -25.667 -88 -39c-23.333 -5.33301 -44.5 -9.33301 -63.5 -12s-36.167 -4 -51.5 -4c-46.667 -0 -75.334 25.333 -86.001 76c-10 50.667 8 76 54 76h36c86 0 141.667 10.667 167 32
c-4.66699 21.333 -15 43.833 -31 67.5s-37.667 48.5 -65 74.5l23 104c2 6.66699 5 10 9 10s10.333 -5.33301 19 -16c52.667 -59.333 84 -114 94 -164zM-57.999 746.999l-110 90l71 90l109 -90zM-11.999 542.999l-109 90l71 90l109 -90z" />
    <glyph glyph-name="uniFB61" unicode="&#x67a;" horiz-adv-x="440" arabic-form="medial" 
d="M395 0c-33.333 0 -71.3311 11.667 -113.998 35c-49.333 25.333 -83.333 57.333 -102 96c-22.667 -83.333 -82.334 -127 -179.001 -131c-46.667 -0 -75.334 25.333 -86.001 76c-10 50.667 8 76 54 76h44c84 0 136 44.333 156 133c7.33301 27.333 18 41 32 41
c11.333 0 18 -5 20 -15c0.666992 -1.33301 0.5 -8.5 -0.5 -21.5s-0.166992 -26.167 2.5 -39.5c14 -65.333 77 -98 189 -98l33 -152h-49zM102.002 612l-110 90l71 90l109 -90zM148.002 408l-109 90l71 90l109 -90z" />
    <glyph glyph-name="uniFB63" unicode="&#x67f;" horiz-adv-x="1384" arabic-form="final" 
d="M1384 0c-21.333 0 -43.6699 1.16602 -67.0029 3.49902s-45.833 8 -67.5 17s-41.667 22.667 -60 41s-33.166 43.5 -44.499 75.5c-19.333 -19.333 -46.166 -40.5 -80.499 -63.5s-75.833 -44.5 -124.5 -64.5s-104.167 -36.667 -166.5 -50s-131.166 -20 -206.499 -20
c-93.333 0 -172.333 8.83301 -237 26.5s-117.834 39.834 -159.501 66.501s-72.834 55.667 -93.501 87s-34 60.666 -40 87.999c-6 26.667 -6.83301 54 -2.5 82s10.666 53.5 18.999 76.5s17.333 41.833 27 56.5s17.167 22 22.5 22c11.333 0 18 -4.66699 20 -14
c0.666992 -3.33301 -0.5 -9.66602 -3.5 -18.999s-6 -20.833 -9 -34.5s-5.16699 -28.834 -6.5 -45.501s0 -34 4 -52c4 -19.333 15.5 -40.166 34.5 -62.499s47 -42.833 84 -61.5s83.667 -34.167 140 -46.5s124.5 -18.5 204.5 -18.5c65.333 0 128.833 5.33301 190.5 16
s117.834 24.334 168.501 41.001s93.667 35.334 129 56.001s59.666 41 72.999 61c10.667 15.333 18.834 25.666 24.501 30.999s10.834 8 15.501 8c4 0 8.33301 -1.66699 13 -5s7.33398 -7 8.00098 -11c2 -7.33301 2.5 -16.333 1.5 -27s-0.833008 -20.334 0.5 -29.001
c1.33301 -6 5.5 -13.5 12.5 -22.5s16 -17.667 27 -26s23.667 -15.5 38 -21.5s29.5 -9 45.5 -9h33l33 -152v0zM695.996 590.999l-109 90l71 90l109 -90zM487.996 584.999l-109 90l71 90l109 -90zM554.996 750.999l-109 90l71 90l109 -90zM629.996 418.999l-109 90l70 90
l110 -90z" />
    <glyph glyph-name="uniFB64" unicode="&#x67f;" horiz-adv-x="318" arabic-form="initial" 
d="M220 260c20.667 -95.333 15.001 -163.667 -16.999 -205c-10 -12.667 -39.333 -25.667 -88 -39c-23.333 -5.33301 -44.5 -9.33301 -63.5 -12s-36.167 -4 -51.5 -4c-46.667 -0 -75.334 25.333 -86.001 76c-10 50.667 8 76 54 76h36c86 0 141.667 10.667 167 32
c-4.66699 21.333 -15 43.833 -31 67.5s-37.667 48.5 -65 74.5l23 104c2 6.66699 5 10 9 10s10.333 -5.33301 19 -16c52.667 -59.333 84 -114 94 -164zM83.001 747.999l-109 90l71 90l109 -90zM-124.999 741.999l-109 90l71 90l109 -90zM-57.999 907.999l-109 90l71 90
l109 -90zM17.001 575.999l-109 90l70 90l110 -90z" />
    <glyph glyph-name="uniFB65" unicode="&#x67f;" horiz-adv-x="440" arabic-form="medial" 
d="M395 0c-33.333 0 -71.3311 11.667 -113.998 35c-49.333 25.333 -83.333 57.333 -102 96c-22.667 -83.333 -82.334 -127 -179.001 -131c-46.667 -0 -75.334 25.333 -86.001 76c-10 50.667 8 76 54 76h44c84 0 136 44.333 156 133c7.33301 27.333 18 41 32 41
c11.333 0 18 -5 20 -15c0.666992 -1.33301 0.5 -8.5 -0.5 -21.5s-0.166992 -26.167 2.5 -39.5c14 -65.333 77 -98 189 -98l33 -152h-49zM192.002 648l-109 90l71 90l109 -90zM-15.998 642l-109 90l71 90l109 -90zM51.002 808l-109 90l71 90l109 -90zM126.002 476l-109 90
l70 90l110 -90z" />
    <glyph glyph-name="uniFB67" unicode="&#x679;" horiz-adv-x="1384" arabic-form="final" 
d="M1384 0c-21.333 0 -43.6699 1.16602 -67.0029 3.49902s-45.833 8 -67.5 17s-41.667 22.667 -60 41s-33.166 43.5 -44.499 75.5c-19.333 -19.333 -46.166 -40.5 -80.499 -63.5s-75.833 -44.5 -124.5 -64.5s-104.167 -36.667 -166.5 -50s-131.166 -20 -206.499 -20
c-93.333 0 -172.333 8.83301 -237 26.5s-117.834 39.834 -159.501 66.501s-72.834 55.667 -93.501 87s-34 60.666 -40 87.999c-6 26.667 -6.83301 54 -2.5 82s10.666 53.5 18.999 76.5s17.333 41.833 27 56.5s17.167 22 22.5 22c11.333 0 18 -4.66699 20 -14
c0.666992 -3.33301 -0.5 -9.66602 -3.5 -18.999s-6 -20.833 -9 -34.5s-5.16699 -28.834 -6.5 -45.501s0 -34 4 -52c4 -19.333 15.5 -40.166 34.5 -62.499s47 -42.833 84 -61.5s83.667 -34.167 140 -46.5s124.5 -18.5 204.5 -18.5c65.333 0 128.833 5.33301 190.5 16
s117.834 24.334 168.501 41.001s93.667 35.334 129 56.001s59.666 41 72.999 61c10.667 15.333 18.834 25.666 24.501 30.999s10.834 8 15.501 8c4 0 8.33301 -1.66699 13 -5s7.33398 -7 8.00098 -11c2 -7.33301 2.5 -16.333 1.5 -27s-0.833008 -20.334 0.5 -29.001
c1.33301 -6 5.5 -13.5 12.5 -22.5s16 -17.667 27 -26s23.667 -15.5 38 -21.5s29.5 -9 45.5 -9h33l33 -152v0zM819.996 659.999c2 -11.333 -0.00390625 -25.6689 -6.00391 -43.002c-2.66699 -9.33301 -6.16699 -17.5 -10.5 -24.5s-8.83301 -13.5 -13.5 -19.5
c-9.33301 -11.333 -21.666 -21.166 -36.999 -29.499s-33 -15.833 -53 -22.5c-36 -10.667 -73.667 -16 -113 -16c-32 0 -64.333 8 -97 24c-28 14 -43 25 -45 33c0 3.33301 5 5 15 5h76c10 0 18.333 3.33301 25 10c18 14.667 28.667 24.667 32 30c4.66699 10 6 19.667 4 29
c-14 64 -38 140 -72 228c-9.33301 9.33301 -16 21.666 -20 36.999c-2 8.66699 1.33301 26 10 52c2.66699 6 5.33398 9 8.00098 9c4.66699 0 9 -9 13 -27c4 -15.333 12.667 -25 26 -29c12 -3.33301 18 -6.66602 18 -9.99902c1.33301 -7.33301 2.5 -14.166 3.5 -20.499
s1.16699 -12.166 0.5 -17.499c-1.33301 -8 -3 -12 -5 -12c-1.33301 0 -3.16602 0.166992 -5.49902 0.5s-5.16602 1.16602 -8.49902 2.49902c22 -60 37 -109 45 -147c6 -32.667 8.66699 -56.334 8 -71.001c42.667 54 80.667 81 114 81c14.667 0 31.667 -5 51 -15
c22 -11.333 34.333 -23.666 37 -36.999zM788.992 625.996c-0.666992 4 -8.99902 10.333 -24.999 19c-15.333 7.33301 -31.666 11 -48.999 11c-14.667 0 -33.334 -8.33301 -56.001 -25c-26 -16.667 -48.333 -38 -67 -64h24c37.333 0 76.666 6.66699 117.999 20
c38.667 14 57 27 55 39z" />
    <glyph glyph-name="uniFB68" unicode="&#x679;" horiz-adv-x="318" arabic-form="initial" 
d="M220 260c20.667 -95.333 15.001 -163.667 -16.999 -205c-10 -12.667 -39.333 -25.667 -88 -39c-23.333 -5.33301 -44.5 -9.33301 -63.5 -12s-36.167 -4 -51.5 -4c-46.667 -0 -75.334 25.333 -86.001 76c-10 50.667 8 76 54 76h36c86 0 141.667 10.667 167 32
c-4.66699 21.333 -15 43.833 -31 67.5s-37.667 48.5 -65 74.5l23 104c2 6.66699 5 10 9 10s10.333 -5.33301 19 -16c52.667 -59.333 84 -114 94 -164zM216.001 839.999c2 -11.333 -0.00390625 -25.6689 -6.00391 -43.002c-2.66699 -9.33301 -6.16699 -17.5 -10.5 -24.5
s-8.83301 -13.5 -13.5 -19.5c-9.33301 -11.333 -21.666 -21.166 -36.999 -29.499s-33 -15.833 -53 -22.5c-36 -10.667 -73.667 -16 -113 -16c-32 0 -64.333 8 -97 24c-28 14 -43 25 -45 33c0 3.33301 5 5 15 5h76c10 0 18.333 3.33301 25 10c18 14.667 28.667 24.667 32 30
c4.66699 10 6 19.667 4 29c-14 64 -38 140 -72 228c-9.33301 9.33301 -16 21.666 -20 36.999c-2 8.66699 1.33301 26 10 52c2.66699 6 5.33398 9 8.00098 9c4.66699 0 9 -9 13 -27c4 -15.333 12.667 -25 26 -29c12 -3.33301 18 -6.66602 18 -9.99902
c1.33301 -7.33301 2.5 -14.166 3.5 -20.499s1.16699 -12.166 0.5 -17.499c-1.33301 -8 -3 -12 -5 -12c-1.33301 0 -3.16602 0.166992 -5.49902 0.5s-5.16602 1.16602 -8.49902 2.49902c22 -60 37 -109 45 -147c6 -32.667 8.66699 -56.334 8 -71.001
c42.667 54 80.667 81 114 81c14.667 0 31.667 -5 51 -15c22 -11.333 34.333 -23.666 37 -36.999zM184.997 805.996c-0.666992 4 -8.99902 10.333 -24.999 19c-15.333 7.33301 -31.666 11 -48.999 11c-14.667 0 -33.334 -8.33301 -56.001 -25
c-26 -16.667 -48.333 -38 -67 -64h24c37.333 0 76.666 6.66699 117.999 20c38.667 14 57 27 55 39z" />
    <glyph glyph-name="uniFB69" unicode="&#x679;" horiz-adv-x="440" arabic-form="medial" 
d="M395 0c-33.333 0 -71.3311 11.667 -113.998 35c-49.333 25.333 -83.333 57.333 -102 96c-22.667 -83.333 -82.334 -127 -179.001 -131c-46.667 -0 -75.334 25.333 -86.001 76c-10 50.667 8 76 54 76h44c84 0 136 44.333 156 133c7.33301 27.333 18 41 32 41
c11.333 0 18 -5 20 -15c0.666992 -1.33301 0.5 -8.5 -0.5 -21.5s-0.166992 -26.167 2.5 -39.5c14 -65.333 77 -98 189 -98l33 -152h-49zM268.002 702c2 -11.333 -0.00390625 -25.6689 -6.00391 -43.002c-2.66699 -9.33301 -6.16699 -17.5 -10.5 -24.5
s-8.83301 -13.5 -13.5 -19.5c-9.33301 -11.333 -21.666 -21.166 -36.999 -29.499s-33 -15.833 -53 -22.5c-36 -10.667 -73.667 -16 -113 -16c-32 0 -64.333 8 -97 24c-28 14 -43 25 -45 33c0 3.33301 5 5 15 5h76c10 0 18.333 3.33301 25 10c18 14.667 28.667 24.667 32 30
c4.66699 10 6 19.667 4 29c-14 64 -38 140 -72 228c-9.33301 9.33301 -16 21.666 -20 36.999c-2 8.66699 1.33301 26 10 52c2.66699 6 5.33398 9 8.00098 9c4.66699 0 9 -9 13 -27c4 -15.333 12.667 -25 26 -29c12 -3.33301 18 -6.66602 18 -9.99902
c1.33301 -7.33301 2.5 -14.166 3.5 -20.499s1.16699 -12.166 0.5 -17.499c-1.33301 -8 -3 -12 -5 -12c-1.33301 0 -3.16602 0.166992 -5.49902 0.5s-5.16602 1.16602 -8.49902 2.49902c22 -60 37 -109 45 -147c6 -32.667 8.66699 -56.334 8 -71.001
c42.667 54 80.667 81 114 81c14.667 0 31.667 -5 51 -15c22 -11.333 34.333 -23.666 37 -36.999zM236.998 667.997c-0.666992 4 -8.99902 10.333 -24.999 19c-15.333 7.33301 -31.666 11 -48.999 11c-14.667 0 -33.334 -8.33301 -56.001 -25
c-26 -16.667 -48.333 -38 -67 -64h24c37.333 0 76.666 6.66699 117.999 20c38.667 14 57 27 55 39z" />
    <glyph glyph-name="afii57371" unicode="&#x6a4;" horiz-adv-x="1364" arabic-form="final" 
d="M1364 0c-135.333 0 -242.664 26.0049 -321.997 78.0049c-24 -20 -56.5 -38.333 -97.5 -55s-84.833 -31.167 -131.5 -43.5s-93.334 -21.833 -140.001 -28.5s-88 -10 -124 -10c-85.333 0 -160.333 7.5 -225 22.5s-121 37.5 -169 67.5c-76.667 47.333 -122 106 -136 176
c-10.667 47.333 -5.66699 100.666 15 159.999c20 51.333 37 77 51 77c11.333 0 18 -4.66699 20 -14c0 3.33301 -4.66699 -14.334 -14 -53.001c-6 -38.667 -6.33301 -71.334 -1 -98.001c10 -49.333 49.667 -91 119 -125c83.333 -42.667 198 -64 344 -64
c73.333 0 140.5 6.16699 201.5 18.5s116.5 30.166 166.5 53.499c-9.33301 14 -17 28.667 -23 44s-10.667 30.666 -14 45.999c-12 54 1.66699 125 41 213c40 87.333 76.333 131 109 131c22.667 0 52 -25.333 88 -76c17.333 -24.667 31.666 -49.167 42.999 -73.5
s19.666 -48.833 24.999 -73.5c9.33301 -40 9 -81 -1 -123c-6 -37.333 -16.333 -65.333 -31 -84c16.667 -5.33301 37.667 -9 63 -11s56 -3 92 -3h18zM1138 307.005c-3.33301 16 -16.999 39.9971 -40.999 71.9971c-25.333 34 -45 51 -59 51
c-9.33301 0 -19.333 -3.66699 -30 -11s-21.667 -18.666 -33 -33.999c-28.667 -33.333 -40 -64 -34 -92c6 -9.33301 16.833 -20.666 32.5 -33.999s36.167 -28.666 61.5 -45.999c73.333 40.667 107.666 72 102.999 94zM1084 718.002l-109 90l71 90l109 -90zM877.003 712.002
l-110 90l71 90l109 -90zM943.003 878.002l-109 90l71 90l109 -90z" />
    <glyph glyph-name="afii57372" unicode="&#x6a4;" horiz-adv-x="486" arabic-form="initial" 
d="M385 283c12 -56.667 16.333 -102.668 13 -138.001s-15.666 -59.666 -36.999 -72.999c-75.333 -48 -178.666 -72 -309.999 -72h-51c-46.667 -0 -75.334 25.333 -86.001 76c-10 50.667 8 76 54 76h73c173.333 0 276.666 23.667 309.999 71
c-1.33301 8 -4.83301 18.333 -10.5 31s-12.334 26 -20.001 40s-16 27.333 -25 40s-17.5 23 -25.5 31c-8 -86 -40 -129 -96 -129c-18 0 -36.167 3.83301 -54.5 11.5s-35.166 18.167 -50.499 31.5s-28.5 29 -39.5 47s-18.833 37.667 -23.5 59
c-6.66699 32 -9.16699 63.167 -7.5 93.5s8.16699 59.833 19.5 88.5c22 53.333 47.667 80 77 80c38.667 0 91 -36 157 -108c70 -80 114.333 -165.333 133 -256zM206 435.999c-34 48 -69.667 72 -107 72c-46 0 -64 -22.667 -54 -68c1.33301 -7.33301 5.5 -15.333 12.5 -24
s15.167 -16.667 24.5 -24s19.5 -13.333 30.5 -18s21.5 -7 31.5 -7c45.333 0 66 23 62 69zM137 762.999l-109 90l71 90l109 -90zM-70 756.999l-110 90l71 90l109 -90zM-4 922.999l-109 90l71 90l109 -90z" />
    <glyph glyph-name="afii57369" unicode="&#x6a4;" horiz-adv-x="606" arabic-form="medial" 
d="M606 0c-157.333 0 -274.332 25.334 -350.999 76.001c-61.333 -50.667 -146.333 -76 -255 -76c-46.667 0 -75.334 25.333 -86.001 76c-10 50.667 8 76 54 76h18c72 0 115 4 129 12c-6.66699 13.333 -12 27 -16 41s-7.66699 28.333 -11 43
c-13.333 69.333 2 145.666 46 228.999c39.333 79.333 78 119 116 119c22.667 0 52 -25.333 88 -76c34.667 -50 57 -99 67 -147c8.66699 -39.333 8.66699 -80.333 0 -123c-3.33301 -19.333 -7.5 -35.833 -12.5 -49.5s-11.167 -25.167 -18.5 -34.5
c14 -5.33301 37.667 -9 71 -11s76 -3 128 -3zM356.001 299.001c-2 9.33301 -6.33301 20.499 -13 33.499s-15.334 27.167 -26.001 42.5c-24 36.667 -45.667 55 -65 55c-26.667 0 -53 -16.333 -79 -49c-12 -16.667 -20.667 -31.667 -26 -45s-6.66602 -25.666 -3.99902 -36.999
c4.66699 -21.333 40.667 -53.333 108 -96c76 34.667 111 66.667 105 96zM299.001 719l-109 90l71 90l109 -90zM92.001 713l-110 90l71 90l109 -90zM158.001 879l-109 90l71 90l109 -90z" />
    <glyph glyph-name="uniFB6f" unicode="&#x6a6;" horiz-adv-x="1364" arabic-form="final" 
d="M1364 0c-135.333 0 -242.664 26.0049 -321.997 78.0049c-24 -20 -56.5 -38.333 -97.5 -55s-84.833 -31.167 -131.5 -43.5s-93.334 -21.833 -140.001 -28.5s-88 -10 -124 -10c-85.333 0 -160.333 7.5 -225 22.5s-121 37.5 -169 67.5c-76.667 47.333 -122 106 -136 176
c-10.667 47.333 -5.66699 100.666 15 159.999c20 51.333 37 77 51 77c11.333 0 18 -4.66699 20 -14c0 3.33301 -4.66699 -14.334 -14 -53.001c-6 -38.667 -6.33301 -71.334 -1 -98.001c10 -49.333 49.667 -91 119 -125c83.333 -42.667 198 -64 344 -64
c73.333 0 140.5 6.16699 201.5 18.5s116.5 30.166 166.5 53.499c-9.33301 14 -17 28.667 -23 44s-10.667 30.666 -14 45.999c-12 54 1.66699 125 41 213c40 87.333 76.333 131 109 131c22.667 0 52 -25.333 88 -76c17.333 -24.667 31.666 -49.167 42.999 -73.5
s19.666 -48.833 24.999 -73.5c9.33301 -40 9 -81 -1 -123c-6 -37.333 -16.333 -65.333 -31 -84c16.667 -5.33301 37.667 -9 63 -11s56 -3 92 -3h18zM1138 307.005c-3.33301 16 -16.999 39.9971 -40.999 71.9971c-25.333 34 -45 51 -59 51
c-9.33301 0 -19.333 -3.66699 -30 -11s-21.667 -18.666 -33 -33.999c-28.667 -33.333 -40 -64 -34 -92c6 -9.33301 16.833 -20.666 32.5 -33.999s36.167 -28.666 61.5 -45.999c73.333 40.667 107.666 72 102.999 94zM1074 865.002l-109 90l71 90l109 -90zM866.003 859.002
l-109 90l71 90l109 -90zM933.003 1025l-109 90l71 90l109 -90zM1008 693.002l-109 90l70 90l110 -90z" />
    <glyph glyph-name="uniFB70" unicode="&#x6a6;" horiz-adv-x="508" arabic-form="initial" 
d="M385 283c12 -56.667 16.333 -102.668 13 -138.001s-15.666 -59.666 -36.999 -72.999c-75.333 -48 -178.666 -72 -309.999 -72h-51c-46.667 -0 -75.334 25.333 -86.001 76c-10 50.667 8 76 54 76h73c173.333 0 276.666 23.667 309.999 71
c-1.33301 8 -4.83301 18.333 -10.5 31s-12.334 26 -20.001 40s-16 27.333 -25 40s-17.5 23 -25.5 31c-8 -86 -40 -129 -96 -129c-18 0 -36.167 3.83301 -54.5 11.5s-35.166 18.167 -50.499 31.5s-28.5 29 -39.5 47s-18.833 37.667 -23.5 59
c-6.66699 32 -9.16699 63.167 -7.5 93.5s8.16699 59.833 19.5 88.5c22 53.333 47.667 80 77 80c38.667 0 91 -36 157 -108c70 -80 114.333 -165.333 133 -256zM206 435.999c-34 48 -69.667 72 -107 72c-46 0 -64 -22.667 -54 -68c1.33301 -7.33301 5.5 -15.333 12.5 -24
s15.167 -16.667 24.5 -24s19.5 -13.333 30.5 -18s21.5 -7 31.5 -7c45.333 0 66 23 62 69zM100 948.999l-109 90l71 90l109 -90zM-108 942.999l-109 90l71 90l109 -90zM-41 1109l-109 90l71 90l109 -90zM34 776.999l-109 90l70 90l110 -90z" />
    <glyph glyph-name="uniFB71" unicode="&#x6a6;" horiz-adv-x="606" arabic-form="medial" 
d="M606 0c-157.333 0 -274.332 25.334 -350.999 76.001c-61.333 -50.667 -146.333 -76 -255 -76c-46.667 0 -75.334 25.333 -86.001 76c-10 50.667 8 76 54 76h18c72 0 115 4 129 12c-6.66699 13.333 -12 27 -16 41s-7.66699 28.333 -11 43
c-13.333 69.333 2 145.666 46 228.999c39.333 79.333 78 119 116 119c22.667 0 52 -25.333 88 -76c34.667 -50 57 -99 67 -147c8.66699 -39.333 8.66699 -80.333 0 -123c-3.33301 -19.333 -7.5 -35.833 -12.5 -49.5s-11.167 -25.167 -18.5 -34.5
c14 -5.33301 37.667 -9 71 -11s76 -3 128 -3zM356.001 299.001c-2 9.33301 -6.33301 20.499 -13 33.499s-15.334 27.167 -26.001 42.5c-24 36.667 -45.667 55 -65 55c-26.667 0 -53 -16.333 -79 -49c-12 -16.667 -20.667 -31.667 -26 -45s-6.66602 -25.666 -3.99902 -36.999
c4.66699 -21.333 40.667 -53.333 108 -96c76 34.667 111 66.667 105 96zM241.001 877l-109 90l71 90l109 -90zM33.001 871l-109 90l71 90l109 -90zM100.001 1037l-109 90l71 90l109 -90zM175.001 705l-109 90l70 90l110 -90z" />
    <glyph glyph-name="uniFB73" unicode="&#x684;" horiz-adv-x="1063" arabic-form="final" 
d="M1294 -666c2.66699 -11.333 -15.335 -21.999 -54.002 -31.999c-17.333 -4 -83.666 -26.667 -198.999 -68c-34 -11.333 -70.333 -20 -109 -26s-81 -9 -127 -9c-87.333 0 -165.666 7 -234.999 21s-130 35 -182 63c-66.667 36 -121.334 84.5 -164.001 145.5
s-73 134.833 -91 221.5c-28 132 -21.333 249.333 20 352c17.333 44 41.833 87.667 73.5 131s70.834 87 117.501 131c-28 10 -67.667 15 -119 15c-23.333 0 -43.666 -3 -60.999 -9s-32.666 -14.667 -45.999 -26c-7.33301 -6 -16 -20.333 -26 -43c-6 -18 -13.667 -27 -23 -27
s-16 8.33301 -20 25c-8.66699 44 3.33301 91 36 141c36 53.333 95 80 177 80c21.333 0 71 -4 149 -12c38 -3.33301 71.667 -6 101 -8s53.666 -3 72.999 -3c53.333 0 101.5 1.66699 144.5 5s80.833 8.66602 113.5 15.999l-25 -133l-104 -13
c-4.66699 -10.667 -3.33398 -33.667 3.99902 -69c4.66699 -20.667 15.834 -34.334 33.501 -41.001s43.5 -10 77.5 -10h201l33 -152h-203c-51.333 0 -92.5 13 -123.5 39s-52.5 66.333 -64.5 121c-3.33301 17.333 -5.33301 34.833 -6 52.5s0.666016 36.167 3.99902 55.5
c-173.333 -22 -302.666 -85.333 -387.999 -190c-78 -97.333 -103 -214 -75 -350c32 -149.333 111.667 -254 239 -314c115.333 -55.333 283.666 -79.666 504.999 -72.999l289 6c34 2 52 -2.33301 54 -13zM675.998 -262.999l-110 90l71 90l109 -90zM721.998 -466.999l-109 90
l71 90l109 -90z" />
    <glyph glyph-name="uniFB74" unicode="&#x684;" horiz-adv-x="996" arabic-form="initial" 
d="M847 141c-2 0 -6.83105 0.168945 -14.498 0.501953s-16.5 0.833008 -26.5 1.5s-20.333 1.16699 -31 1.5s-20 0.5 -28 0.5c-136 0 -268 -23.667 -396 -71c-66.667 -24.667 -128.834 -43.167 -186.501 -55.5s-112.5 -18.5 -164.5 -18.5
c-46.667 0 -75.334 25.333 -86.001 76c-10 50.667 8 76 54 76c93.333 0 179.166 5.66699 257.499 17s150.5 28.666 216.5 51.999c-135.333 70 -224.666 105 -267.999 105c-37.333 0 -66.333 -10.333 -87 -31c-21.333 -19.333 -34.666 -29 -39.999 -29
c-7.33301 0 -13 7 -17 21c-4.66699 22.667 2.66602 54 21.999 94c14 25.333 32 44.666 54 57.999s49 20 81 20c38 0 124.667 -29.333 260 -88c68 -30 131.5 -52.167 190.5 -66.5s113.5 -21.5 163.5 -21.5h90zM497.002 -331.998l-110 90l71 90l109 -90zM543.002 -535.998
l-109 90l71 90l109 -90z" />
    </font>
</defs>
</svg>
