<?xml version="1.0" standalone="no"?>
<!DOCTYPE svg PUBLIC "-//W3C//DTD SVG 1.1//EN" "http://www.w3.org/Graphics/SVG/1.1/DTD/svg11.dtd" >
<svg>
<metadata>
Created by FontForge 20090914 at Wed Aug 26 07:44:10 2015
 By www-data
Typeface &#194;&#169; The scict.ir Corporation plc. Data &#194;&#169; The scict.ir Corporation plc/Type Solutions Inc. 2012-2013. All Rights Reserved.Modify by Hossein Zahedi.
</metadata>
<defs>
<font id="IRBadr-Bold" horiz-adv-x="0" >
  <font-face 
    font-family="IRBadr"
    font-weight="700"
    font-stretch="normal"
    units-per-em="2048"
    panose-1="2 0 8 6 0 0 0 2 0 2"
    ascent="1638"
    descent="-410"
    x-height="748"
    cap-height="1085"
    bbox="-431 -1222 2678 1986"
    underline-thickness="60"
    underline-position="-40"
    unicode-range="U+0020-U+FFFC"
  />
<missing-glyph horiz-adv-x="496" 
 />
    <glyph glyph-name="afii64184" unicode="&#xfedf;&#xfee0;&#x651;&#x670;&#xfeea;" horiz-adv-x="1365" arabic-form="isolated" 
d="M1293 287c0 -204.667 -62.3291 -306.999 -186.996 -306.999c-24.667 0 -48.5 3.16699 -71.5 9.5s-44.333 16 -64 29s-37.334 29.167 -53.001 48.5s-28.5 42 -38.5 68c-22.667 -64 -46.667 -109.667 -72 -137c-15.333 -13.333 -34 -23.5 -56 -30.5s-51 -10.5 -87 -10.5
c-32 0 -61.5 6 -88.5 18s-50.167 30.833 -69.5 56.5s-34 58.334 -44 98.001s-14.333 87.167 -13 142.5c-51.333 -61.333 -117.666 -92 -198.999 -92c-102 0 -153 17.667 -153 53c0 39.333 23.667 94.666 71 165.999c54.667 82.667 153 152.334 295 209.001
c0 14 10.333 41.333 31 82c30.667 65.333 49 98 55 98c11.333 0 17 -15.667 17 -47c0 -19.333 -0.833008 -41.5 -2.5 -66.5s-3.16699 -53.833 -4.5 -86.5c-4 -62 -6 -109.333 -6 -142c0 -20 0.166992 -40.333 0.5 -61s0.833008 -39.667 1.5 -57s1.5 -32.166 2.5 -44.499
s2.16699 -20.833 3.5 -25.5c4 -14 10.667 -26 20 -36s20.333 -18.5 33 -25.5s26.167 -12.167 40.5 -15.5s29.166 -5 44.499 -5c44 0 77.167 8.5 99.5 25.5s33.5 44.167 33.5 81.5c0 8 -0.333008 20.5 -1 37.5s-1.83398 37 -3.50098 60l-5.5 76
c-2 27.667 -4.33301 55.834 -7 84.501l-16 170c0 14.667 11.667 42.667 35 84c23.333 42 39.666 63 48.999 63c10 0 16 -20.333 18 -61l7.5 -123.5c2.33301 -39.667 4.66602 -76.167 6.99902 -109.5s5 -62.833 8 -88.5s6.5 -45.5 10.5 -59.5
c15.333 -77.333 39.833 -133.833 73.5 -169.5s71.5 -53.5 113.5 -53.5c23.333 0 42 4.16699 56 12.5s21 21.166 21 38.499l-53 213c-15.333 65.333 -27.666 122.166 -36.999 170.499s-14 82.166 -14 101.499c0 13.333 3.16699 29.166 9.5 47.499s16.166 38.833 29.499 61.5
c24 39.333 39.667 59 47 59c10.667 0 16 -7.66699 16 -23c0 -63.333 15 -157.333 45 -282c16.667 -64.667 29.5 -123.5 38.5 -176.5s13.5 -95.833 13.5 -128.5zM455.004 508.001c-131.333 -59.333 -196.998 -100.331 -196.998 -122.998
c0 -4.66699 13.667 -11.334 41 -20.001c13.333 -4.66699 26.166 -8 38.499 -10s23.5 -3 33.5 -3c29.333 0 56.666 9.66699 81.999 29c0 28.667 0.333008 53.167 1 73.5s1 38.166 1 53.499zM1034.01 1120c0 -12 -3.00098 -26.5029 -9.00098 -43.5029
s-13.333 -31.167 -22 -42.5c-13.333 -16 -26.666 -30.5 -39.999 -43.5s-27.666 -19.5 -42.999 -19.5c-12.667 0 -23.667 1 -33 3s-19.666 5 -30.999 9c-23.333 -23.333 -45 -39.666 -65 -48.999s-38.667 -14 -56 -14c-21.333 0 -39.333 7.5 -54 22.5s-22 34.833 -22 59.5
c0 16.667 2.66699 34.167 8 52.5s12 35 20 50s16.167 27.5 24.5 37.5s15.5 15 21.5 15c5.33301 0 9 -2.16699 11 -6.5s3 -10.166 3 -17.499c0 -5.33301 -1.16699 -11.5 -3.5 -18.5l-7.5 -22c-2.66699 -7.66699 -5.16699 -15.5 -7.5 -23.5s-3.5 -15.333 -3.5 -22
c0 -9.33301 2 -17.166 6 -23.499s11.667 -9.5 23 -9.5c12 0 22.167 2.66699 30.5 8s17.166 15.666 26.499 30.999c1.33301 11.333 3.5 25 6.5 41s7 31.5 12 46.5s11.333 27.667 19 38s16.834 15.5 27.501 15.5c5.33301 0 10.5 -1 15.5 -3s7.5 -5.66699 7.5 -11
c0 -1.33301 -1 -5 -3 -11s-4 -12.833 -6 -20.5l-6 -23c-2 -7.66699 -3 -14.167 -3 -19.5c0 -12 4 -22.167 12 -30.5s19.667 -12.5 35 -12.5c11.333 0 21 2.33301 29 7s12 11.334 12 20.001v94c0 1.33301 2 4.83301 6 10.5s8.83301 11.5 14.5 17.5s11 11.333 16 16
s8.5 7 10.5 7c3.33301 0 6.16602 -3.83301 8.49902 -11.5s4.16602 -17.334 5.49902 -29.001s2.33301 -24.167 3 -37.5s1 -25.666 1 -36.999zM891.005 1419c0 -22.667 -2 -42.1689 -6 -58.502s-10 -35.5 -18 -57.5c-7.33301 -20 -13.5 -33.5 -18.5 -40.5
s-10.167 -10.5 -15.5 -10.5c-10.667 0 -16 8.33301 -16 25c0 4.66699 1.5 15.834 4.5 33.501s4.5 37.5 4.5 59.5c0 20 -4 42 -12 66s-19.333 50 -34 78c6.66699 16 11.167 30 13.5 42s4 22 5 30s2 13.833 3 17.5s3.16699 5.5 6.5 5.5c5.33301 0 14 -3.66699 26 -11
s22.333 -22 31 -44c8.66699 -23.333 15.167 -45.666 19.5 -66.999s6.5 -44 6.5 -68z" />
    <glyph glyph-name="afii62834" unicode="&#xfedf;&#xfe82;" horiz-adv-x="1076" arabic-form="isolated" 
d="M1013 1024c0 -14.667 -6.33203 -42 -18.999 -82c-14 -45.333 -25.333 -68 -34 -68s-21 5 -37 15c-0.666992 -47.333 -4 -93.666 -10 -138.999s-13.333 -88 -22 -128s-18.167 -76.333 -28.5 -109s-20.166 -60 -29.499 -82c21.333 -50 36.5 -94.833 45.5 -134.5
s13.5 -78.5 13.5 -116.5c0 -96.667 -15.667 -152.667 -47 -168c-39.333 -17.333 -139.666 -26 -300.999 -26c-23.333 0 -42.5 1.5 -57.5 4.5s-25.167 8.16699 -30.5 15.5c-5.33301 6 -9.5 16.667 -12.5 32s-4.5 35.333 -4.5 60c0 76.667 7.66699 115 23 115
c3.33301 0 9.66602 -3.33301 18.999 -10s20 -10 32 -10c43.333 0 119 77 227 231c-123.333 167.333 -252.333 306.666 -387 417.999c-22 -28.667 -50 -43 -84 -43c-36.667 0 -73.334 18.333 -110.001 55c-44 44 -66 95.333 -66 154c0 16.667 2 32.667 6 48
s9.66699 28.833 17 40.5s16 21 26 28s21 10.5 33 10.5c64.667 0 167.667 -75.333 309 -226c67.333 -70.667 125.666 -138.167 174.999 -202.5s91.666 -128.833 126.999 -193.5c10 28 18.833 59 26.5 93s14 69.667 19 107s8.83301 75.666 11.5 114.999s4 78 4 116
c-27.333 23.333 -41 42.333 -41 57c0 27.333 15.667 71.333 47 132c30.667 58.667 53.334 88 68.001 88s22 -8.33301 22 -25c-4 -7.33301 -7.33301 -14.666 -10 -21.999c-2.66699 -6.66699 -5 -13.5 -7 -20.5s-3 -13.833 -3 -20.5c0 -30.667 15 -54.667 45 -72
c30 -18.667 45 -31 45 -37zM835.001 186c0 18 -1 34.3301 -3 48.9971s-5.16699 28.334 -9.5 41.001s-9.83301 24.834 -16.5 36.501s-14.334 23.834 -23.001 36.501c-9.33301 -12.667 -20.666 -27 -33.999 -43l-42 -48.5c-14.667 -16.333 -29.667 -31.833 -45 -46.5
s-29.333 -27 -42 -37c100 0 171.667 4 215 12zM516.001 1464c0 -26 -24.667 -59 -74 -99c-60 -48.667 -126.333 -73 -199 -73c-80 0 -142.667 18.667 -188 56c-39.333 -69.333 -68 -104 -86 -104c-12.667 0 -19 7 -19 21c0 10.667 37 77 111 199
c73.333 -36 142.333 -54 207 -54c52 0 101 11.167 147 33.5s72.667 35.833 80 40.5c14 0 21 -6.66699 21 -20z" />
    <glyph glyph-name="afii62835" unicode="&#xfee0;&#xfe82;" horiz-adv-x="1263" arabic-form="final" 
d="M1263 0c-103.333 0 -176.331 38.9961 -218.998 116.996c-12.667 22.667 -24.167 49.334 -34.5 80.001s-19.666 66.167 -27.999 106.5s-15.666 86.5 -21.999 138.5s-11.5 110.667 -15.5 176c-2 19.333 -6.66699 29 -14 29c-2.66699 0 -4.5 -3 -5.5 -9
s-1.83301 -13 -2.5 -21s-1 -16.333 -1 -25s-0.333008 -16 -1 -22c-4 -55.333 -10.167 -105.166 -18.5 -149.499s-19 -84.666 -32 -120.999s-27.833 -69.833 -44.5 -100.5s-35.334 -60 -56.001 -88c-96 -134 -253 -201 -471 -201c-38 0 -57 6 -57 18c0 10 29.333 30 88 60
c41.333 22.667 78.666 44.334 111.999 65.001s63.666 40.667 90.999 60c90.667 65.333 165.667 137.666 225 216.999c0 63.333 -37 145 -111 245c-38 52.667 -80.333 101 -127 145s-97 84.667 -151 122c-11.333 -31.333 -24.333 -47 -39 -47c-19.333 0 -40 3.66699 -62 11
s-45.667 18.666 -71 33.999c-68.667 39.333 -103 88.333 -103 147c0 18.667 2.16699 36.834 6.5 54.501s10 33.5 17 47.5s15 25.167 24 33.5s18.5 12.5 28.5 12.5c24 0 63.667 -16.667 119 -50c77.333 -44.667 153.666 -106.667 228.999 -186
c182 -188.667 273 -360.667 273 -516c54.667 114 82 280.667 82 500c0 28.667 -0.666992 57.834 -2 87.501s-3 60.5 -5 92.5c68 108 107 162 117 162c14 0 21 -65.667 21 -197c0 -68 4.5 -147.167 13.5 -237.5s22.167 -193.5 39.5 -309.5c18 -114 44.667 -189.667 80 -227
c26 -27.333 68.333 -41 127 -41v-213v0zM518.002 1445c0 -26 -24.667 -59 -74 -99c-60 -48.667 -126.333 -73 -199 -73c-80 0 -142.667 18.667 -188 56c-39.333 -69.333 -68 -104 -86 -104c-12.667 0 -19 7 -19 21c0 10.667 37 77 111 199c73.333 -36 142.333 -54 207 -54
c52 0 101 11.167 147 33.5s72.667 35.833 80 40.5c14 0 21 -6.66699 21 -20z" />
    <glyph glyph-name="afii62836" unicode="&#xfedf;&#xfe84;" horiz-adv-x="1062" arabic-form="isolated" 
d="M975 1024c0 -14.667 -6.33203 -42 -18.999 -82c-14 -45.333 -25.333 -68 -34 -68s-21 5 -37 15c-0.666992 -47.333 -4 -93.666 -10 -138.999s-13.333 -88 -22 -128s-18.167 -76.333 -28.5 -109s-20.166 -60 -29.499 -82c21.333 -50 36.5 -94.833 45.5 -134.5
s13.5 -78.5 13.5 -116.5c0 -96.667 -15.667 -152.667 -47 -168c-39.333 -17.333 -139.666 -26 -300.999 -26c-23.333 0 -42.5 1.5 -57.5 4.5s-25.167 8.16699 -30.5 15.5c-5.33301 6 -9.5 16.667 -12.5 32s-4.5 35.333 -4.5 60c0 76.667 7.66699 115 23 115
c3.33301 0 9.66602 -3.33301 18.999 -10s20 -10 32 -10c43.333 0 119 77 227 231c-123.333 167.333 -252.333 306.666 -387 417.999c-22 -28.667 -50 -43 -84 -43c-36.667 0 -73.334 18.333 -110.001 55c-44 44 -66 95.333 -66 154c0 16.667 2 32.667 6 48
s9.66699 28.833 17 40.5s16 21 26 28s21 10.5 33 10.5c64.667 0 167.667 -75.333 309 -226c67.333 -70.667 125.666 -138.167 174.999 -202.5s91.666 -128.833 126.999 -193.5c10 28 18.833 59 26.5 93s14 69.667 19 107s8.83301 75.666 11.5 114.999s4 78 4 116
c-27.333 23.333 -41 42.333 -41 57c0 27.333 15.667 71.333 47 132c30.667 58.667 53.334 88 68.001 88s22 -8.33301 22 -25c-4 -7.33301 -7.33301 -14.666 -10 -21.999c-2.66699 -6.66699 -5 -13.5 -7 -20.5s-3 -13.833 -3 -20.5c0 -30.667 15 -54.667 45 -72
c30 -18.667 45 -31 45 -37zM797.001 186c0 18 -1 34.3301 -3 48.9971s-5.16699 28.334 -9.5 41.001s-9.83301 24.834 -16.5 36.501s-14.334 23.834 -23.001 36.501c-9.33301 -12.667 -20.666 -27 -33.999 -43l-42 -48.5c-14.667 -16.333 -29.667 -31.833 -45 -46.5
s-29.333 -27 -42 -37c100 0 171.667 4 215 12zM264.001 1322c-6 -12 -14 -17.998 -24 -17.998c-94 0 -167 -20 -219 -60c-23.333 -16 -37.666 -24 -42.999 -24c-10 0 -15 6 -15 18c0 18 18 44 54 78c-45.333 34.667 -68 62.667 -68 84c0 26.667 11.667 50.667 35 72
c79.333 66.667 137.333 100 174 100c40.667 0 61 -19 61 -57c0 -14 -8 -27 -24 -39c-7.33301 -5.33301 -13.5 -9.5 -18.5 -12.5s-9.16699 -4.5 -12.5 -4.5c-4.66699 0 -9.33398 1.5 -14.001 4.5s-9.33398 6.33301 -14.001 10s-9.33398 7 -14.001 10s-9 4.5 -13 4.5
c-7.33301 0 -14.166 -0.833008 -20.499 -2.5s-13.166 -4.16699 -20.499 -7.5c-15.333 -8 -23 -18.333 -23 -31c0 -5.33301 2.66699 -11.833 8 -19.5s11.666 -14.834 18.999 -21.501s15.333 -12.334 24 -17.001s16.334 -7 23.001 -7h28c11.333 0 25.333 0.666992 42 2
c16 1.33301 29.5 2 40.5 2h24.5c16 0 23 -7 21 -21z" />
    <glyph glyph-name="afii62837" unicode="&#xfee0;&#xfe84;" horiz-adv-x="1225" arabic-form="final" 
d="M1225 0c-103.333 0 -176.331 38.9961 -218.998 116.996c-12.667 22.667 -24.167 49.334 -34.5 80.001s-19.666 66.167 -27.999 106.5s-15.666 86.5 -21.999 138.5s-11.5 110.667 -15.5 176c-2 19.333 -6.66699 29 -14 29c-2.66699 0 -4.5 -3 -5.5 -9
s-1.83301 -13 -2.5 -21s-1 -16.333 -1 -25s-0.333008 -16 -1 -22c-4 -55.333 -10.167 -105.166 -18.5 -149.499s-19 -84.666 -32 -120.999s-27.833 -69.833 -44.5 -100.5s-35.334 -60 -56.001 -88c-96 -134 -253 -201 -471 -201c-38 0 -57 6 -57 18c0 10 29.333 30 88 60
c41.333 22.667 78.666 44.334 111.999 65.001s63.666 40.667 90.999 60c90.667 65.333 165.667 137.666 225 216.999c0 63.333 -37 145 -111 245c-38 52.667 -80.333 101 -127 145s-97 84.667 -151 122c-11.333 -31.333 -24.333 -47 -39 -47c-19.333 0 -40 3.66699 -62 11
s-45.667 18.666 -71 33.999c-68.667 39.333 -103 88.333 -103 147c0 18.667 2.16699 36.834 6.5 54.501s10 33.5 17 47.5s15 25.167 24 33.5s18.5 12.5 28.5 12.5c24 0 63.667 -16.667 119 -50c77.333 -44.667 153.666 -106.667 228.999 -186
c182 -188.667 273 -360.667 273 -516c54.667 114 82 280.667 82 500c0 28.667 -0.666992 57.834 -2 87.501s-3 60.5 -5 92.5c68 108 107 162 117 162c14 0 21 -65.667 21 -197c0 -68 4.5 -147.167 13.5 -237.5s22.167 -193.5 39.5 -309.5c18 -114 44.667 -189.667 80 -227
c26 -27.333 68.333 -41 127 -41v-213v0zM260.002 1299c-6 -12 -14 -17.998 -24 -17.998c-94 0 -167 -20 -219 -60c-23.333 -16 -37.666 -24 -42.999 -24c-10 0 -15 6 -15 18c0 18 18 44 54 78c-45.333 34.667 -68 62.667 -68 84c0 26.667 11.667 50.667 35 72
c79.333 66.667 137.333 100 174 100c40.667 0 61 -19 61 -57c0 -14 -8 -27 -24 -39c-7.33301 -5.33301 -13.5 -9.5 -18.5 -12.5s-9.16699 -4.5 -12.5 -4.5c-4.66699 0 -9.33398 1.5 -14.001 4.5s-9.33398 6.33301 -14.001 10s-9.33398 7 -14.001 10s-9 4.5 -13 4.5
c-7.33301 0 -14.166 -0.833008 -20.499 -2.5s-13.166 -4.16699 -20.499 -7.5c-15.333 -8 -23 -18.333 -23 -31c0 -5.33301 2.66699 -11.833 8 -19.5s11.666 -14.834 18.999 -21.501s15.333 -12.334 24 -17.001s16.334 -7 23.001 -7h28c11.333 0 25.333 0.666992 42 2
c16 1.33301 29.5 2 40.5 2h24.5c16 0 23 -7 21 -21z" />
    <glyph glyph-name="afii62838" unicode="&#xfedf;&#xfe88;" horiz-adv-x="1062" arabic-form="isolated" 
d="M975 1024c0 -14.667 -6.33203 -42 -18.999 -82c-14 -45.333 -25.333 -68 -34 -68s-21 5 -37 15c-0.666992 -47.333 -4 -93.666 -10 -138.999s-13.333 -88 -22 -128s-18.167 -76.333 -28.5 -109s-20.166 -60 -29.499 -82c21.333 -50 36.5 -94.833 45.5 -134.5
s13.5 -78.5 13.5 -116.5c0 -96.667 -15.667 -152.667 -47 -168c-39.333 -17.333 -139.666 -26 -300.999 -26c-23.333 0 -42.5 1.5 -57.5 4.5s-25.167 8.16699 -30.5 15.5c-5.33301 6 -9.5 16.667 -12.5 32s-4.5 35.333 -4.5 60c0 76.667 7.66699 115 23 115
c3.33301 0 9.66602 -3.33301 18.999 -10s20 -10 32 -10c43.333 0 119 77 227 231c-123.333 167.333 -252.333 306.666 -387 417.999c-22 -28.667 -50 -43 -84 -43c-36.667 0 -73.334 18.333 -110.001 55c-44 44 -66 95.333 -66 154c0 16.667 2 32.667 6 48
s9.66699 28.833 17 40.5s16 21 26 28s21 10.5 33 10.5c64.667 0 167.667 -75.333 309 -226c67.333 -70.667 125.666 -138.167 174.999 -202.5s91.666 -128.833 126.999 -193.5c10 28 18.833 59 26.5 93s14 69.667 19 107s8.83301 75.666 11.5 114.999s4 78 4 116
c-27.333 23.333 -41 42.333 -41 57c0 27.333 15.667 71.333 47 132c30.667 58.667 53.334 88 68.001 88s22 -8.33301 22 -25c-4 -7.33301 -7.33301 -14.666 -10 -21.999c-2.66699 -6.66699 -5 -13.5 -7 -20.5s-3 -13.833 -3 -20.5c0 -30.667 15 -54.667 45 -72
c30 -18.667 45 -31 45 -37zM797.001 186c0 18 -1 34.3301 -3 48.9971s-5.16699 28.334 -9.5 41.001s-9.83301 24.834 -16.5 36.501s-14.334 23.834 -23.001 36.501c-9.33301 -12.667 -20.666 -27 -33.999 -43l-42 -48.5c-14.667 -16.333 -29.667 -31.833 -45 -46.5
s-29.333 -27 -42 -37c100 0 171.667 4 215 12zM647.001 -355.003c-6 -12 -14 -17.998 -24 -17.998c-94 0 -167 -20 -219 -60c-23.333 -16 -37.666 -24 -42.999 -24c-10 0 -15 6 -15 18c0 18 18 44 54 78c-45.333 34.667 -68 62.667 -68 84c0 26.667 11.667 50.667 35 72
c79.333 66.667 137.333 100 174 100c40.667 0 61 -19 61 -57c0 -14 -8 -27 -24 -39c-7.33301 -5.33301 -13.5 -9.5 -18.5 -12.5s-9.16699 -4.5 -12.5 -4.5c-4.66699 0 -9.33398 1.5 -14.001 4.5s-9.33398 6.33301 -14.001 10s-9.33398 7 -14.001 10s-9 4.5 -13 4.5
c-7.33301 0 -14.166 -0.833008 -20.499 -2.5s-13.166 -4.16699 -20.499 -7.5c-15.333 -8 -23 -18.333 -23 -31c0 -5.33301 2.66699 -11.833 8 -19.5s11.666 -14.834 18.999 -21.501s15.333 -12.334 24 -17.001s16.334 -7 23.001 -7h28c11.333 0 25.333 0.666992 42 2
c16 1.33301 29.5 2 40.5 2h24.5c16 0 23 -7 21 -21z" />
    <glyph glyph-name="afii62839" unicode="&#xfee0;&#xfe88;" horiz-adv-x="1225" arabic-form="final" 
d="M1225 0c-103.333 0 -176.331 38.9961 -218.998 116.996c-12.667 22.667 -24.167 49.334 -34.5 80.001s-19.666 66.167 -27.999 106.5s-15.666 86.5 -21.999 138.5s-11.5 110.667 -15.5 176c-2 19.333 -6.66699 29 -14 29c-2.66699 0 -4.5 -3 -5.5 -9
s-1.83301 -13 -2.5 -21s-1 -16.333 -1 -25s-0.333008 -16 -1 -22c-4 -55.333 -10.167 -105.166 -18.5 -149.499s-19 -84.666 -32 -120.999s-27.833 -69.833 -44.5 -100.5s-35.334 -60 -56.001 -88c-96 -134 -253 -201 -471 -201c-38 0 -57 6 -57 18c0 10 29.333 30 88 60
c41.333 22.667 78.666 44.334 111.999 65.001s63.666 40.667 90.999 60c90.667 65.333 165.667 137.666 225 216.999c0 63.333 -37 145 -111 245c-38 52.667 -80.333 101 -127 145s-97 84.667 -151 122c-11.333 -31.333 -24.333 -47 -39 -47c-19.333 0 -40 3.66699 -62 11
s-45.667 18.666 -71 33.999c-68.667 39.333 -103 88.333 -103 147c0 18.667 2.16699 36.834 6.5 54.501s10 33.5 17 47.5s15 25.167 24 33.5s18.5 12.5 28.5 12.5c24 0 63.667 -16.667 119 -50c77.333 -44.667 153.666 -106.667 228.999 -186
c182 -188.667 273 -360.667 273 -516c54.667 114 82 280.667 82 500c0 28.667 -0.666992 57.834 -2 87.501s-3 60.5 -5 92.5c68 108 107 162 117 162c14 0 21 -65.667 21 -197c0 -68 4.5 -147.167 13.5 -237.5s22.167 -193.5 39.5 -309.5c18 -114 44.667 -189.667 80 -227
c26 -27.333 68.333 -41 127 -41v-213v0zM475.002 -427.004c-6 -12 -14 -17.998 -24 -17.998c-94 0 -167 -20 -219 -60c-23.333 -16 -37.666 -24 -42.999 -24c-10 0 -15 6 -15 18c0 18 18 44 54 78c-45.333 34.667 -68 62.667 -68 84c0 26.667 11.667 50.667 35 72
c79.333 66.667 137.333 100 174 100c40.667 0 61 -19 61 -57c0 -14 -8 -27 -24 -39c-7.33301 -5.33301 -13.5 -9.5 -18.5 -12.5s-9.16699 -4.5 -12.5 -4.5c-4.66699 0 -9.33398 1.5 -14.001 4.5s-9.33398 6.33301 -14.001 10s-9.33398 7 -14.001 10s-9 4.5 -13 4.5
c-7.33301 0 -14.166 -0.833008 -20.499 -2.5s-13.166 -4.16699 -20.499 -7.5c-15.333 -8 -23 -18.333 -23 -31c0 -5.33301 2.66699 -11.833 8 -19.5s11.666 -14.834 18.999 -21.501s15.333 -12.334 24 -17.001s16.334 -7 23.001 -7h28c11.333 0 25.333 0.666992 42 2
c16 1.33301 29.5 2 40.5 2h24.5c16 0 23 -7 21 -21z" />
    <glyph glyph-name="afii62840" unicode="&#xfedf;&#xfe8e;" horiz-adv-x="1062" arabic-form="isolated" 
d="M975 1024c0 -14.667 -6.33203 -42 -18.999 -82c-14 -45.333 -25.333 -68 -34 -68s-21 5 -37 15c-0.666992 -47.333 -4 -93.666 -10 -138.999s-13.333 -88 -22 -128s-18.167 -76.333 -28.5 -109s-20.166 -60 -29.499 -82c21.333 -50 36.5 -94.833 45.5 -134.5
s13.5 -78.5 13.5 -116.5c0 -96.667 -15.667 -152.667 -47 -168c-39.333 -17.333 -139.666 -26 -300.999 -26c-23.333 0 -42.5 1.5 -57.5 4.5s-25.167 8.16699 -30.5 15.5c-5.33301 6 -9.5 16.667 -12.5 32s-4.5 35.333 -4.5 60c0 76.667 7.66699 115 23 115
c3.33301 0 9.66602 -3.33301 18.999 -10s20 -10 32 -10c43.333 0 119 77 227 231c-123.333 167.333 -252.333 306.666 -387 417.999c-22 -28.667 -50 -43 -84 -43c-36.667 0 -73.334 18.333 -110.001 55c-44 44 -66 95.333 -66 154c0 16.667 2 32.667 6 48
s9.66699 28.833 17 40.5s16 21 26 28s21 10.5 33 10.5c64.667 0 167.667 -75.333 309 -226c67.333 -70.667 125.666 -138.167 174.999 -202.5s91.666 -128.833 126.999 -193.5c10 28 18.833 59 26.5 93s14 69.667 19 107s8.83301 75.666 11.5 114.999s4 78 4 116
c-27.333 23.333 -41 42.333 -41 57c0 27.333 15.667 71.333 47 132c30.667 58.667 53.334 88 68.001 88s22 -8.33301 22 -25c-4 -7.33301 -7.33301 -14.666 -10 -21.999c-2.66699 -6.66699 -5 -13.5 -7 -20.5s-3 -13.833 -3 -20.5c0 -30.667 15 -54.667 45 -72
c30 -18.667 45 -31 45 -37zM797.001 186c0 18 -1 34.3301 -3 48.9971s-5.16699 28.334 -9.5 41.001s-9.83301 24.834 -16.5 36.501s-14.334 23.834 -23.001 36.501c-9.33301 -12.667 -20.666 -27 -33.999 -43l-42 -48.5c-14.667 -16.333 -29.667 -31.833 -45 -46.5
s-29.333 -27 -42 -37c100 0 171.667 4 215 12z" />
    <glyph glyph-name="afii62841" unicode="&#xfee0;&#xfe8e;" horiz-adv-x="1225" arabic-form="final" 
d="M1225 0c-103.333 0 -176.331 38.9961 -218.998 116.996c-12.667 22.667 -24.167 49.334 -34.5 80.001s-19.666 66.167 -27.999 106.5s-15.666 86.5 -21.999 138.5s-11.5 110.667 -15.5 176c-2 19.333 -6.66699 29 -14 29c-2.66699 0 -4.5 -3 -5.5 -9
s-1.83301 -13 -2.5 -21s-1 -16.333 -1 -25s-0.333008 -16 -1 -22c-4 -55.333 -10.167 -105.166 -18.5 -149.499s-19 -84.666 -32 -120.999s-27.833 -69.833 -44.5 -100.5s-35.334 -60 -56.001 -88c-96 -134 -253 -201 -471 -201c-38 0 -57 6 -57 18c0 10 29.333 30 88 60
c41.333 22.667 78.666 44.334 111.999 65.001s63.666 40.667 90.999 60c90.667 65.333 165.667 137.666 225 216.999c0 63.333 -37 145 -111 245c-38 52.667 -80.333 101 -127 145s-97 84.667 -151 122c-11.333 -31.333 -24.333 -47 -39 -47c-19.333 0 -40 3.66699 -62 11
s-45.667 18.666 -71 33.999c-68.667 39.333 -103 88.333 -103 147c0 18.667 2.16699 36.834 6.5 54.501s10 33.5 17 47.5s15 25.167 24 33.5s18.5 12.5 28.5 12.5c24 0 63.667 -16.667 119 -50c77.333 -44.667 153.666 -106.667 228.999 -186
c182 -188.667 273 -360.667 273 -516c54.667 114 82 280.667 82 500c0 28.667 -0.666992 57.834 -2 87.501s-3 60.5 -5 92.5c68 108 107 162 117 162c14 0 21 -65.667 21 -197c0 -68 4.5 -147.167 13.5 -237.5s22.167 -193.5 39.5 -309.5c18 -114 44.667 -189.667 80 -227
c26 -27.333 68.333 -41 127 -41v-213v0z" />
    <glyph glyph-name="uni0672.fina" unicode="&#x672;" horiz-adv-x="481" 
d="M481 0c-140 0 -233.333 55.333 -280 166c-17.333 40 -30.166 107.167 -38.499 201.5s-12.5 216.166 -12.5 365.499c0 34 -1 70.833 -3 110.5s-4.66699 82.167 -8 127.5l-7.5 100.5c-1.66699 21.667 -2.5 31.834 -2.5 30.501c58.667 82 92.667 123 102 123
c8 0 13 -24.667 15 -74c1.33301 -21.333 2 -65.333 2 -132v-271c0 -226 18.333 -375.667 55 -449c31.333 -57.333 90.666 -86 177.999 -86v-213v0zM226 1482c2.66699 1.33301 -1.99902 7.99902 -13.999 19.999s-24.667 20.333 -38 25c-10 2.66699 -24 -0.833008 -42 -10.5
s-29.667 -23.834 -35 -42.501c4.66699 -20.667 14.667 -35.5 30 -44.5s33.5 -14.5 54.5 -16.5s42.667 -1.16699 65 2.5s42.5 7.83398 60.5 12.501c8 2 10 -2.16699 6 -12.5s-10.333 -23.833 -19 -40.5c-34.667 -25.333 -90.167 -40.666 -166.5 -45.999
s-121.166 -23.666 -134.499 -54.999c-7.33301 -2.66699 -10.333 1.5 -9 12.5s3.33301 19.833 6 26.5c11.333 26 35.666 41.167 72.999 45.5s64 10.166 80 17.499c-16.667 0.666992 -36.167 6.83398 -58.5 18.501s-31.5 33.834 -27.5 66.501
c0.666992 25.333 7.83398 48.166 21.501 68.499s30.167 36 49.5 47s41.166 15.167 65.499 12.5s47.833 -14.667 70.5 -36c6.66699 -10.667 6.16699 -21.834 -1.5 -33.501s-19.834 -24.167 -36.501 -37.5z" />
    <glyph glyph-name="uni0673.fina" unicode="&#x673;" horiz-adv-x="481" 
d="M481 0c-140 0 -233.333 55.333 -280 166c-17.333 40 -30.166 107.167 -38.499 201.5s-12.5 216.166 -12.5 365.499c0 34 -1 70.833 -3 110.5s-4.66699 82.167 -8 127.5l-7.5 100.5c-1.66699 21.667 -2.5 31.834 -2.5 30.501c58.667 82 92.667 123 102 123
c8 0 13 -24.667 15 -74c1.33301 -21.333 2 -65.333 2 -132v-271c0 -226 18.333 -375.667 55 -449c31.333 -57.333 90.666 -86 177.999 -86v-213v0zM334 -214c2.66699 1.33301 -1.99902 7.99902 -13.999 19.999s-24.667 20.333 -38 25c-10 2.66699 -24 -0.833008 -42 -10.5
s-29.667 -23.834 -35 -42.501c4.66699 -20.667 14.667 -35.5 30 -44.5s33.5 -14.5 54.5 -16.5s42.667 -1.16699 65 2.5s42.5 7.83398 60.5 12.501c8 2 10 -2.16699 6 -12.5s-10.333 -23.833 -19 -40.5c-34.667 -25.333 -90.167 -40.666 -166.5 -45.999
s-121.166 -23.666 -134.499 -54.999c-7.33301 -2.66699 -10.333 1.5 -9 12.5s3.33301 19.833 6 26.5c11.333 26 35.666 41.167 72.999 45.5s64 10.166 80 17.499c-16.667 0.666992 -36.167 6.83398 -58.5 18.501s-31.5 33.834 -27.5 66.501
c0.666992 25.333 7.83398 48.166 21.501 68.499s30.167 36 49.5 47s41.166 15.167 65.499 12.5s47.833 -14.667 70.5 -36c6.66699 -10.667 6.16699 -21.834 -1.5 -33.501s-19.834 -24.167 -36.501 -37.5z" />
    <glyph glyph-name="uni0675.fina" unicode="&#x675;" horiz-adv-x="481" 
d="M481 0c-140 0 -233.333 55.333 -280 166c-17.333 40 -30.166 107.167 -38.499 201.5s-12.5 216.166 -12.5 365.499c0 34 -1 70.833 -3 110.5s-4.66699 82.167 -8 127.5l-7.5 100.5c-1.66699 21.667 -2.5 31.834 -2.5 30.501c58.667 82 92.667 123 102 123
c8 0 13 -24.667 15 -74c1.33301 -21.333 2 -65.333 2 -132v-271c0 -226 18.333 -375.667 55 -449c31.333 -57.333 90.666 -86 177.999 -86v-213v0zM363 1394c-6 -12 -14 -17.998 -24 -17.998c-94 0 -167 -20 -219 -60c-23.333 -16 -37.666 -24 -42.999 -24
c-10 0 -15 6 -15 18c0 18 18 44 54 78c-45.333 34.667 -68 62.667 -68 84c0 26.667 11.667 50.667 35 72c79.333 66.667 137.333 100 174 100c40.667 0 61 -19 61 -57c0 -14 -8 -27 -24 -39c-7.33301 -5.33301 -13.5 -9.5 -18.5 -12.5s-9.16699 -4.5 -12.5 -4.5
c-4.66699 0 -9.33398 1.5 -14.001 4.5s-9.33398 6.33301 -14.001 10s-9.33398 7 -14.001 10s-9 4.5 -13 4.5c-7.33301 0 -14.166 -0.833008 -20.499 -2.5s-13.166 -4.16699 -20.499 -7.5c-15.333 -8 -23 -18.333 -23 -31c0 -5.33301 2.66699 -11.833 8 -19.5
s11.666 -14.834 18.999 -21.501s15.333 -12.334 24 -17.001s16.334 -7 23.001 -7h28c11.333 0 25.333 0.666992 42 2c16 1.33301 29.5 2 40.5 2h24.5c16 0 23 -7 21 -21z" />
    <glyph glyph-name="uni0676.fina" unicode="&#x676;" horiz-adv-x="858" 
d="M752 0c-113.333 -264.667 -254.668 -396.999 -424.001 -396.999c-67.333 0 -141.333 17.667 -222 53c-70.667 30.667 -106 54 -106 70s7.66699 24 23 24c2.66699 0 7.83398 -0.666992 15.501 -2l29 -5c11.667 -2 25 -3.66699 40 -5s31.167 -2 48.5 -2
c215.333 0 388.666 88 519.999 264c-9.33301 -1.33301 -20.666 -2.33301 -33.999 -3s-28.666 -1 -45.999 -1c-60.667 0 -108.5 11.167 -143.5 33.5s-52.5 56.166 -52.5 101.499c0 14 1.5 30 4.5 48s7.33301 36.833 13 56.5s12.667 39.667 21 60s17.833 39.833 28.5 58.5
c45.333 73.333 84.333 110 117 110c34 0 67.167 -22.167 99.5 -66.5s59.166 -105.833 80.499 -184.5h94v-213h-106zM656.998 204.001c-11.333 44 -25.168 73.835 -41.501 89.502s-35.166 23.5 -56.499 23.5c-8 0 -16 -2.33301 -24 -7s-15.5 -10.834 -22.5 -18.501
s-12.667 -16 -17 -25s-6.5 -17.833 -6.5 -26.5c0 -30 25.333 -45 76 -45c22.667 0 41.667 0.666992 57 2s27 3.66602 35 6.99902zM712.996 696.003c-6 -12 -14 -17.998 -24 -17.998c-94 0 -167 -20 -219 -60c-23.333 -16 -37.666 -24 -42.999 -24c-10 0 -15 6 -15 18
c0 18 18 44 54 78c-45.333 34.667 -68 62.667 -68 84c0 26.667 11.667 50.667 35 72c79.333 66.667 137.333 100 174 100c40.667 0 61 -19 61 -57c0 -14 -8 -27 -24 -39c-7.33301 -5.33301 -13.5 -9.5 -18.5 -12.5s-9.16699 -4.5 -12.5 -4.5
c-4.66699 0 -9.33398 1.5 -14.001 4.5s-9.33398 6.33301 -14.001 10s-9.33398 7 -14.001 10s-9 4.5 -13 4.5c-7.33301 0 -14.166 -0.833008 -20.499 -2.5s-13.166 -4.16699 -20.499 -7.5c-15.333 -8 -23 -18.333 -23 -31c0 -5.33301 2.66699 -11.833 8 -19.5
s11.666 -14.834 18.999 -21.501s15.333 -12.334 24 -17.001s16.334 -7 23.001 -7h28c11.333 0 25.333 0.666992 42 2c16 1.33301 29.5 2 40.5 2h24.5c16 0 23 -7 21 -21z" />
    <glyph glyph-name="uni0677.fina" unicode="&#x677;" horiz-adv-x="858" 
d="M752 0c-113.333 -264.667 -254.668 -396.999 -424.001 -396.999c-67.333 0 -141.333 17.667 -222 53c-70.667 30.667 -106 54 -106 70s7.66699 24 23 24c2.66699 0 7.83398 -0.666992 15.501 -2l29 -5c11.667 -2 25 -3.66699 40 -5s31.167 -2 48.5 -2
c215.333 0 388.666 88 519.999 264c-9.33301 -1.33301 -20.666 -2.33301 -33.999 -3s-28.666 -1 -45.999 -1c-60.667 0 -108.5 11.167 -143.5 33.5s-52.5 56.166 -52.5 101.499c0 14 1.5 30 4.5 48s7.33301 36.833 13 56.5s12.667 39.667 21 60s17.833 39.833 28.5 58.5
c45.333 73.333 84.333 110 117 110c34 0 67.167 -22.167 99.5 -66.5s59.166 -105.833 80.499 -184.5h94v-213h-106zM656.998 204.001c-11.333 44 -25.168 73.835 -41.501 89.502s-35.166 23.5 -56.499 23.5c-8 0 -16 -2.33301 -24 -7s-15.5 -10.834 -22.5 -18.501
s-12.667 -16 -17 -25s-6.5 -17.833 -6.5 -26.5c0 -30 25.333 -45 76 -45c22.667 0 41.667 0.666992 57 2s27 3.66602 35 6.99902zM802.103 682.589c-5.30469 -10.6367 -12.3799 -15.9502 -21.2217 -15.9502c-83.1104 0 -147.653 -17.7266 -193.629 -53.1807
c-20.6299 -14.1816 -33.3027 -21.2725 -38.0186 -21.2725c-8.84082 0 -13.2617 5.31836 -13.2617 15.9541c0 15.9541 15.915 38.999 47.7441 69.1348c-40.082 30.7266 -60.123 55.5439 -60.123 74.4531c0 23.6367 10.3154 44.9092 30.9453 63.8184
c70.1436 59.0898 121.425 88.6348 153.844 88.6348c35.9561 0 53.9336 -16.8408 53.9336 -50.5225c0 -12.4092 -7.07324 -23.9316 -21.2207 -34.5674c-6.4834 -4.72754 -11.9355 -8.4209 -16.3564 -11.0801s-8.10449 -3.98926 -11.0518 -3.98926
c-4.12598 0 -8.25195 1.33008 -12.3779 3.98926s-8.25195 5.61328 -12.3779 8.86328s-8.25195 6.2041 -12.3779 8.86328s-7.95703 3.98926 -11.4932 3.98926c-6.4834 0 -12.5254 -0.739258 -18.125 -2.2168s-11.6416 -3.69336 -18.125 -6.64746
c-13.5576 -7.09082 -20.3359 -16.25 -20.3359 -27.4775c0 -4.72754 2.35742 -10.4893 7.07324 -17.2852s10.3154 -13.1484 16.7988 -19.0576s13.5566 -10.9316 21.2197 -15.0674c7.66309 -4.13672 14.4414 -6.20508 20.3359 -6.20508h24.7559
c10.0205 0 22.3984 0.59082 37.1338 1.77246c14.1465 1.18262 26.083 1.77344 35.8086 1.77344h21.6621c14.1465 0 20.335 -6.2041 18.5664 -18.6133zM467.309 758.194l-6.7373 -86.6045l-70.7363 47.0859c-70.7363 -85.2031 -128.842 -127.805 -174.315 -127.805
c-11.2275 0 -28.6309 3.36328 -52.21 10.0898c60.0703 33.6328 122.667 79.3174 187.789 137.054c-35.3682 27.4668 -53.0527 54.0928 -53.0527 79.8779c0 35.3145 13.1934 72.0303 39.5791 110.147c17.9648 25.2246 38.7363 37.8369 62.3154 37.8369
c40.4209 0 60.6309 -25.7852 60.6309 -77.3555c0 -28.0273 -9.2627 -62.501 -27.7891 -103.421c8.4209 -5.60547 19.9297 -14.5742 34.5264 -26.9062zM405.835 836.391c0 12.8926 -4.49121 25.085 -13.4736 36.5762s-20.21 17.2363 -33.6836 17.2363
c-10.667 0 -16 -5.88574 -16 -17.6572c0 -17.9375 19.0879 -39.7988 57.2627 -65.584c3.92969 11.7715 5.89453 21.5811 5.89453 29.4287z" />
    <glyph glyph-name="uni0678.fina" unicode="&#x678;" horiz-adv-x="1217" 
d="M991 0c-104.667 0 -157.006 -15.666 -157.006 -46.999c0 -17.333 25.667 -29 77 -35c40 -3.33301 72.333 -6.66602 97 -9.99902s42.334 -6.66602 53.001 -9.99902c53.333 -19.333 80 -51 80 -95s-19.333 -88.167 -58 -132.5s-97.334 -85.5 -176.001 -123.5
c-74 -36 -146.667 -61.5 -218 -76.5s-142 -22.5 -212 -22.5c-62.667 0 -118.5 8.16699 -167.5 24.5s-91.5 39.833 -127.5 70.5c-64 56.667 -96 128.334 -96 215.001c0 40 7.16699 82.167 21.5 126.5s35.833 91.833 64.5 142.5c51.333 88.667 89 133 113 133
c7.33301 0 13.5 -2.33301 18.5 -7s5.5 -12 1.5 -22c-1.33301 -3.33301 -6.16602 -11.333 -14.499 -24s-21.166 -35.334 -38.499 -68.001c-35.333 -66.667 -53 -130.334 -53 -191.001c0 -40 9.66699 -73.333 29 -100s44.5 -48 75.5 -64s65.667 -27.333 104 -34
s76.5 -10.334 114.5 -11.001c12 -0.666992 32.333 0.166016 61 2.49902s60.834 5.83301 96.501 10.5s72.834 10.5 111.501 17.5s74.334 15 107.001 24s60 18.667 82 29s34.667 21.5 38 33.5c0 12 -26 21 -78 27c-68.667 6 -115 14 -139 24c-50.667 18.667 -76 49 -76 91
c0 78 42.333 150.333 127 217c86.667 65.333 184.334 98 293.001 98h72v-213h-226zM718.994 432.001c-6 -12 -14 -17.998 -24 -17.998c-94 0 -167 -20 -219 -60c-23.333 -16 -37.666 -24 -42.999 -24c-10 0 -15 6 -15 18c0 18 18 44 54 78c-45.333 34.667 -68 62.667 -68 84
c0 26.667 11.667 50.667 35 72c79.333 66.667 137.333 100 174 100c40.667 0 61 -19 61 -57c0 -14 -8 -27 -24 -39c-7.33301 -5.33301 -13.5 -9.5 -18.5 -12.5s-9.16699 -4.5 -12.5 -4.5c-4.66699 0 -9.33398 1.5 -14.001 4.5s-9.33398 6.33301 -14.001 10
s-9.33398 7 -14.001 10s-9 4.5 -13 4.5c-7.33301 0 -14.166 -0.833008 -20.499 -2.5s-13.166 -4.16699 -20.499 -7.5c-15.333 -8 -23 -18.333 -23 -31c0 -5.33301 2.66699 -11.833 8 -19.5s11.666 -14.834 18.999 -21.501s15.333 -12.334 24 -17.001s16.334 -7 23.001 -7h28
c11.333 0 25.333 0.666992 42 2c16 1.33301 29.5 2 40.5 2h24.5c16 0 23 -7 21 -21z" />
    <glyph glyph-name="uni067C.init" unicode="&#x67c;" horiz-adv-x="389" 
d="M352 330c0 -54.667 -7.66602 -104.332 -22.999 -148.999s-39 -84.667 -71 -120c-36.667 -40.667 -98 -61 -184 -61h-68c-50.667 0 -76 35.333 -76 106c0 71.333 25.333 107 76 107h82c92.667 0 154 6 184 18c0 47.333 -17.667 94.666 -53 141.999
c43.333 113.333 68.666 170 75.999 170s18.333 -19.333 33 -58c16 -45.333 24 -97 24 -155zM279.001 696.002l-110 113l-115 -113l-113 115l123 121l111 -113l116 113l111 -115zM228.001 -32.998c0 -53.333 -13.667 -99.667 -41 -139
c-31.333 -45.333 -71.666 -68 -120.999 -68c-34 0 -61.333 10.5 -82 31.5s-31 47.5 -31 79.5c0 48.667 16.667 97.667 50 147c34.667 56 76.334 84 125.001 84c31.333 0 55.666 -15 72.999 -45c9.33301 -13.333 16.166 -27.5 20.499 -42.5s6.5 -30.833 6.5 -47.5z
M164.001 -65.999c0 20.667 -6.16797 37.168 -18.501 49.501s-25.166 18.5 -38.499 18.5c-20.667 0 -39.667 -9 -57 -27c-19.333 -18 -29 -41.333 -29 -70c0 -6.66699 2 -13.334 6 -20.001s8.83301 -12.834 14.5 -18.501s12 -10.167 19 -13.5s13.5 -5 19.5 -5
c10 0 20 2.33301 30 7s19 10.834 27 18.501s14.5 16.667 19.5 27s7.5 21.5 7.5 33.5z" />
    <glyph glyph-name="uni067C.medi" unicode="&#x67c;" horiz-adv-x="606" 
d="M541 0c-122.667 0 -203.331 45.6689 -241.998 137.002c-50.667 -91.333 -125.667 -137 -225 -137h-68c-50.667 0 -76 35.333 -76 106c0 71.333 25.333 107 76 107h139c25.333 0 47 2 65 6s33.667 10.667 47 20s24.666 22.166 33.999 38.499s18 37.166 26 62.499
c8.66699 24.667 21.667 37 39 37c12.667 0 19 -7 19 -21c0 -4 -0.666992 -10.333 -2 -19s-2 -16.667 -2 -24c0 -20 2.16699 -36.5 6.5 -49.5s12.166 -23.167 23.499 -30.5s26.833 -12.5 46.5 -15.5s45.167 -4.5 76.5 -4.5h82v-213h-65zM420.003 594.002l-110 113l-115 -113
l-113 115l123 121l111 -113l116 113l111 -115zM271.003 -30.998c0 -53.333 -13.667 -99.667 -41 -139c-31.333 -45.333 -71.666 -68 -120.999 -68c-34 0 -61.333 10.5 -82 31.5s-31 47.5 -31 79.5c0 48.667 16.667 97.667 50 147c34.667 56 76.334 84 125.001 84
c31.333 0 55.666 -15 72.999 -45c9.33301 -13.333 16.166 -27.5 20.499 -42.5s6.5 -30.833 6.5 -47.5zM207.003 -63.999c0 20.667 -6.16797 37.168 -18.501 49.501s-25.166 18.5 -38.499 18.5c-20.667 0 -39.667 -9 -57 -27c-19.333 -18 -29 -41.333 -29 -70
c0 -6.66699 2 -13.334 6 -20.001s8.83301 -12.834 14.5 -18.501s12 -10.167 19 -13.5s13.5 -5 19.5 -5c10 0 20 2.33301 30 7s19 10.834 27 18.501s14.5 16.667 19.5 27s7.5 21.5 7.5 33.5z" />
    <glyph glyph-name="uni067C.fina" unicode="&#x67c;" horiz-adv-x="1391" 
d="M1391 0c-21.333 0 -41.6689 3.16895 -61.002 9.50195s-36.666 16.166 -51.999 29.499c-37.333 30.667 -59.333 75.667 -66 135c-201.333 -132.667 -414.333 -199 -639 -199c-146 0 -262.667 31.667 -350 95c-82 58.667 -123 131.667 -123 219c0 56 14.333 117.333 43 184
c28.667 62.667 52 94 70 94c13.333 0 20 -6 20 -18c0 -3.33301 -1.5 -11 -4.5 -23s-8.16699 -27.667 -15.5 -47c-12 -39.333 -18 -72 -18 -98c0 -50 29.333 -93 88 -129c75.333 -49.333 189.333 -74 342 -74c70 0 136 4.66699 198 14s121.333 23 178 41
c48.667 15.333 90.834 33.166 126.501 53.499s65.5 42.166 89.5 65.499c22 23.333 37.667 35 47 35s14 -8.33301 14 -25c0 -2 -0.5 -5.83301 -1.5 -11.5s-2 -12 -3 -19s-1.83301 -14.167 -2.5 -21.5s-1 -13.666 -1 -18.999c0 -15.333 10 -31 30 -47
c24.667 -20.667 55 -31 91 -31v-213v0zM801.997 582.002l-110 113l-115 -113l-113 115l123 121l111 -113l116 113l111 -115zM709.997 -62.998c0 -53.333 -13.667 -99.667 -41 -139c-31.333 -45.333 -71.666 -68 -120.999 -68c-34 0 -61.333 10.5 -82 31.5s-31 47.5 -31 79.5
c0 48.667 16.667 97.667 50 147c34.667 56 76.334 84 125.001 84c31.333 0 55.666 -15 72.999 -45c9.33301 -13.333 16.166 -27.5 20.499 -42.5s6.5 -30.833 6.5 -47.5zM645.997 -95.999c0 20.667 -6.16797 37.168 -18.501 49.501s-25.166 18.5 -38.499 18.5
c-20.667 0 -39.667 -9 -57 -27c-19.333 -18 -29 -41.333 -29 -70c0 -6.66699 2 -13.334 6 -20.001s8.83301 -12.834 14.5 -18.501s12 -10.167 19 -13.5s13.5 -5 19.5 -5c10 0 20 2.33301 30 7s19 10.834 27 18.501s14.5 16.667 19.5 27s7.5 21.5 7.5 33.5z" />
    <glyph glyph-name="uni067D.init" unicode="&#x67d;" horiz-adv-x="389" 
d="M352 330c0 -54.667 -7.66602 -104.332 -22.999 -148.999s-39 -84.667 -71 -120c-36.667 -40.667 -98 -61 -184 -61h-68c-50.667 0 -76 35.333 -76 106c0 71.333 25.333 107 76 107h82c92.667 0 154 6 184 18c0 47.333 -17.667 94.666 -53 141.999
c43.333 113.333 68.666 170 75.999 170s18.333 -19.333 33 -58c16 -45.333 24 -97 24 -155zM166.001 955.002l110 115l123 -123l-111 -113l-116 111l-111 -111l-123 119l113 117zM174.001 857.002l123 -123l-113 -113l-123 119z" />
    <glyph glyph-name="uni067D.medi" unicode="&#x67d;" horiz-adv-x="606" 
d="M541 0c-122.667 0 -203.331 45.6689 -241.998 137.002c-50.667 -91.333 -125.667 -137 -225 -137h-68c-50.667 0 -76 35.333 -76 106c0 71.333 25.333 107 76 107h139c25.333 0 47 2 65 6s33.667 10.667 47 20s24.666 22.166 33.999 38.499s18 37.166 26 62.499
c8.66699 24.667 21.667 37 39 37c12.667 0 19 -7 19 -21c0 -4 -0.666992 -10.333 -2 -19s-2 -16.667 -2 -24c0 -20 2.16699 -36.5 6.5 -49.5s12.166 -23.167 23.499 -30.5s26.833 -12.5 46.5 -15.5s45.167 -4.5 76.5 -4.5h82v-213h-65zM314.003 898.002l110 115l123 -123
l-111 -113l-116 111l-111 -111l-123 119l113 117zM322.003 800.002l123 -123l-113 -113l-123 119z" />
    <glyph glyph-name="uni067D.fina" unicode="&#x67d;" horiz-adv-x="1391" 
d="M1391 0c-21.333 0 -41.6689 3.16895 -61.002 9.50195s-36.666 16.166 -51.999 29.499c-37.333 30.667 -59.333 75.667 -66 135c-201.333 -132.667 -414.333 -199 -639 -199c-146 0 -262.667 31.667 -350 95c-82 58.667 -123 131.667 -123 219c0 56 14.333 117.333 43 184
c28.667 62.667 52 94 70 94c13.333 0 20 -6 20 -18c0 -3.33301 -1.5 -11 -4.5 -23s-8.16699 -27.667 -15.5 -47c-12 -39.333 -18 -72 -18 -98c0 -50 29.333 -93 88 -129c75.333 -49.333 189.333 -74 342 -74c70 0 136 4.66699 198 14s121.333 23 178 41
c48.667 15.333 90.834 33.166 126.501 53.499s65.5 42.166 89.5 65.499c22 23.333 37.667 35 47 35s14 -8.33301 14 -25c0 -2 -0.5 -5.83301 -1.5 -11.5s-2 -12 -3 -19s-1.83301 -14.167 -2.5 -21.5s-1 -13.666 -1 -18.999c0 -15.333 10 -31 30 -47
c24.667 -20.667 55 -31 91 -31v-213v0zM683.997 902.002l110 115l123 -123l-111 -113l-116 111l-111 -111l-123 119l113 117zM691.997 804.002l123 -123l-113 -113l-123 119z" />
    <glyph glyph-name="uni0681.init" unicode="&#x681;" horiz-adv-x="938" 
d="M780 188l-122.999 13c-52 0 -106.333 -11 -163 -33c-13.333 -5.33301 -34.333 -14.333 -63 -27s-65 -29.667 -109 -51c-62.667 -30 -120.5 -52.5 -173.5 -67.5s-100.5 -22.5 -142.5 -22.5c-50.667 -0 -76 35.333 -76 106c0 71.333 25.333 107 76 107h55
c52.667 0 110 7 172 21s129 35 201 63c-106 78 -186.333 117 -241 117c-12.667 0 -25.667 -2.5 -39 -7.5s-27 -12.167 -41 -21.5c-29.333 -18 -46 -27 -50 -27c-10.667 0 -16 9.66699 -16 29c0 17.333 3.66699 36 11 56s18.666 41.667 33.999 65
c38.667 58.667 88.667 88 150 88c49.333 0 126.333 -30.667 231 -92c102 -60 203 -90 303 -90h86zM609.001 835c-6 -12 -14 -17.998 -24 -17.998c-94 0 -167 -20 -219 -60c-23.333 -16 -37.666 -24 -42.999 -24c-10 0 -15 6 -15 18c0 18 18 44 54 78
c-45.333 34.667 -68 62.667 -68 84c0 26.667 11.667 50.667 35 72c79.333 66.667 137.333 100 174 100c40.667 0 61 -19 61 -57c0 -14 -8 -27 -24 -39c-7.33301 -5.33301 -13.5 -9.5 -18.5 -12.5s-9.16699 -4.5 -12.5 -4.5c-4.66699 0 -9.33398 1.5 -14.001 4.5
s-9.33398 6.33301 -14.001 10s-9.33398 7 -14.001 10s-9 4.5 -13 4.5c-7.33301 0 -14.166 -0.833008 -20.499 -2.5s-13.166 -4.16699 -20.499 -7.5c-15.333 -8 -23 -18.333 -23 -31c0 -5.33301 2.66699 -11.833 8 -19.5s11.666 -14.834 18.999 -21.501
s15.333 -12.334 24 -17.001s16.334 -7 23.001 -7h28c11.333 0 25.333 0.666992 42 2c16 1.33301 29.5 2 40.5 2h24.5c16 0 23 -7 21 -21z" />
    <glyph glyph-name="uni0681.medi" unicode="&#x681;" horiz-adv-x="1063" 
d="M1016 0c-91.333 0 -163.001 22.001 -215.001 66.001c-48 38.667 -72 90.334 -72 155.001v62c-64.667 -15.333 -123.5 -33.333 -176.5 -54s-101.167 -45 -144.5 -73c-160.667 -104 -294.667 -156 -402 -156c-50.667 0 -76 35.333 -76 106c0 71.333 25.333 107 76 107
c26.667 0 55.834 2.16699 87.501 6.5s66.167 11.166 103.5 20.499c53.333 13.333 101.333 29.333 144 48s80 40.667 112 66c-40 21.333 -77.667 37.666 -113 48.999s-68 17 -98 17c-34 0 -68.333 -10.333 -103 -31c-36 -20.667 -54.333 -31 -55 -31
c-12 0 -18 6.33301 -18 19c0 17.333 4.66699 37.166 14 59.499s23.666 47.5 42.999 75.5c46.667 68 100 102 160 102c19.333 0 46 -5.16699 80 -15.5s76 -26.166 126 -47.499c100 -42.667 175.333 -64 226 -64c17.333 0 36.833 1 58.5 3s45.834 4.66699 72.501 8
c54.667 8 86 12 94 12l-43 -197l-121 -20c10 -53.333 81.667 -80 215 -80h72v-213h-47zM728.999 851.001c-6 -12 -14 -17.998 -24 -17.998c-94 0 -167 -20 -219 -60c-23.333 -16 -37.666 -24 -42.999 -24c-10 0 -15 6 -15 18c0 18 18 44 54 78
c-45.333 34.667 -68 62.667 -68 84c0 26.667 11.667 50.667 35 72c79.333 66.667 137.333 100 174 100c40.667 0 61 -19 61 -57c0 -14 -8 -27 -24 -39c-7.33301 -5.33301 -13.5 -9.5 -18.5 -12.5s-9.16699 -4.5 -12.5 -4.5c-4.66699 0 -9.33398 1.5 -14.001 4.5
s-9.33398 6.33301 -14.001 10s-9.33398 7 -14.001 10s-9 4.5 -13 4.5c-7.33301 0 -14.166 -0.833008 -20.499 -2.5s-13.166 -4.16699 -20.499 -7.5c-15.333 -8 -23 -18.333 -23 -31c0 -5.33301 2.66699 -11.833 8 -19.5s11.666 -14.834 18.999 -21.501
s15.333 -12.334 24 -17.001s16.334 -7 23.001 -7h28c11.333 0 25.333 0.666992 42 2c16 1.33301 29.5 2 40.5 2h24.5c16 0 23 -7 21 -21z" />
    <glyph glyph-name="uni0681.fina" unicode="&#x681;" horiz-adv-x="1063" 
d="M1174 -604c0 -14.667 -25.333 -33.001 -76 -55.001l-129 -58c-41.333 -23.333 -89.5 -40.666 -144.5 -51.999s-116.833 -17 -185.5 -17c-98 0 -181.833 9.16699 -251.5 27.5s-126.5 46.5 -170.5 84.5c-87.333 75.333 -131 200.333 -131 375
c0 68.667 6.66699 133.667 20 195s32.666 119.333 57.999 174c24.667 50 57.334 101 98.001 153s89.334 105.333 146.001 160c-24 5.33301 -44.667 9.33301 -62 12s-32.333 4 -45 4c-58 0 -106.333 -28.667 -145 -86c-11.333 -16 -21 -24 -29 -24c-12 0 -18 7.33301 -18 22
c0 15.333 6 40.666 18 75.999c7.33301 21.333 15.333 40.833 24 58.5s17.667 33.167 27 46.5c46.667 62.667 115.667 94 207 94c11.333 0 28.333 -1.5 51 -4.5s52 -7.16699 88 -12.5s67.5 -9.33301 94.5 -12s50.167 -4 69.5 -4c13.333 0 30.833 0.5 52.5 1.5
s47.834 3.16699 78.501 6.5c32 3.33301 57.167 5.83301 75.5 7.5s30.166 2.5 35.499 2.5l-94 -206l-121 -13c-6.66699 -11.333 -10 -27.666 -10 -48.999c0 -16 3.5 -29.833 10.5 -41.5s18.333 -21 34 -28s36.167 -12.167 61.5 -15.5s56 -5 92 -5h160v-213h-133
c-190 0 -285 71.667 -285 215c0 60.667 5.66699 103 17 127c-71.333 -14.667 -135.166 -38.167 -191.499 -70.5s-106.833 -74.5 -151.5 -126.5c-91.333 -105.333 -137 -230 -137 -374c0 -122 41.667 -211.667 125 -269c100.667 -66.667 272 -100 514 -100
c14.667 0 36.167 0.833008 64.5 2.5s63.5 4.16699 105.5 7.5c43.333 3.33301 77.666 5.83301 102.999 7.5s41.666 2.5 48.999 2.5c20.667 0 31 -8.66699 31 -26zM705 843.999c-6 -12 -14 -17.998 -24 -17.998c-94 0 -167 -20 -219 -60c-23.333 -16 -37.666 -24 -42.999 -24
c-10 0 -15 6 -15 18c0 18 18 44 54 78c-45.333 34.667 -68 62.667 -68 84c0 26.667 11.667 50.667 35 72c79.333 66.667 137.333 100 174 100c40.667 0 61 -19 61 -57c0 -14 -8 -27 -24 -39c-7.33301 -5.33301 -13.5 -9.5 -18.5 -12.5s-9.16699 -4.5 -12.5 -4.5
c-4.66699 0 -9.33398 1.5 -14.001 4.5s-9.33398 6.33301 -14.001 10s-9.33398 7 -14.001 10s-9 4.5 -13 4.5c-7.33301 0 -14.166 -0.833008 -20.499 -2.5s-13.166 -4.16699 -20.499 -7.5c-15.333 -8 -23 -18.333 -23 -31c0 -5.33301 2.66699 -11.833 8 -19.5
s11.666 -14.834 18.999 -21.501s15.333 -12.334 24 -17.001s16.334 -7 23.001 -7h28c11.333 0 25.333 0.666992 42 2c16 1.33301 29.5 2 40.5 2h24.5c16 0 23 -7 21 -21z" />
    <glyph glyph-name="uni0682.init" unicode="&#x682;" horiz-adv-x="938" 
d="M780 188l-122.999 13c-52 0 -106.333 -11 -163 -33c-13.333 -5.33301 -34.333 -14.333 -63 -27s-65 -29.667 -109 -51c-62.667 -30 -120.5 -52.5 -173.5 -67.5s-100.5 -22.5 -142.5 -22.5c-50.667 -0 -76 35.333 -76 106c0 71.333 25.333 107 76 107h55
c52.667 0 110 7 172 21s129 35 201 63c-106 78 -186.333 117 -241 117c-12.667 0 -25.667 -2.5 -39 -7.5s-27 -12.167 -41 -21.5c-29.333 -18 -46 -27 -50 -27c-10.667 0 -16 9.66699 -16 29c0 17.333 3.66699 36 11 56s18.666 41.667 33.999 65
c38.667 58.667 88.667 88 150 88c49.333 0 126.333 -30.667 231 -92c102 -60 203 -90 303 -90h86zM511.001 682l-128 127l128 129l127 -129zM514.001 955l-128 127l128 129l127 -129z" />
    <glyph glyph-name="uni0682.medi" unicode="&#x682;" horiz-adv-x="1063" 
d="M1016 0c-91.333 0 -163.001 22.001 -215.001 66.001c-48 38.667 -72 90.334 -72 155.001v62c-64.667 -15.333 -123.5 -33.333 -176.5 -54s-101.167 -45 -144.5 -73c-160.667 -104 -294.667 -156 -402 -156c-50.667 0 -76 35.333 -76 106c0 71.333 25.333 107 76 107
c26.667 0 55.834 2.16699 87.501 6.5s66.167 11.166 103.5 20.499c53.333 13.333 101.333 29.333 144 48s80 40.667 112 66c-40 21.333 -77.667 37.666 -113 48.999s-68 17 -98 17c-34 0 -68.333 -10.333 -103 -31c-36 -20.667 -54.333 -31 -55 -31
c-12 0 -18 6.33301 -18 19c0 17.333 4.66699 37.166 14 59.499s23.666 47.5 42.999 75.5c46.667 68 100 102 160 102c19.333 0 46 -5.16699 80 -15.5s76 -26.166 126 -47.499c100 -42.667 175.333 -64 226 -64c17.333 0 36.833 1 58.5 3s45.834 4.66699 72.501 8
c54.667 8 86 12 94 12l-43 -197l-121 -20c10 -53.333 81.667 -80 215 -80h72v-213h-47zM541.999 741.001l-128 127l128 129l127 -129zM544.999 1014l-128 127l128 129l127 -129z" />
    <glyph glyph-name="uni0682.fina" unicode="&#x682;" horiz-adv-x="1063" 
d="M1174 -604c0 -14.667 -25.333 -33.001 -76 -55.001l-129 -58c-41.333 -23.333 -89.5 -40.666 -144.5 -51.999s-116.833 -17 -185.5 -17c-98 0 -181.833 9.16699 -251.5 27.5s-126.5 46.5 -170.5 84.5c-87.333 75.333 -131 200.333 -131 375
c0 68.667 6.66699 133.667 20 195s32.666 119.333 57.999 174c24.667 50 57.334 101 98.001 153s89.334 105.333 146.001 160c-24 5.33301 -44.667 9.33301 -62 12s-32.333 4 -45 4c-58 0 -106.333 -28.667 -145 -86c-11.333 -16 -21 -24 -29 -24c-12 0 -18 7.33301 -18 22
c0 15.333 6 40.666 18 75.999c7.33301 21.333 15.333 40.833 24 58.5s17.667 33.167 27 46.5c46.667 62.667 115.667 94 207 94c11.333 0 28.333 -1.5 51 -4.5s52 -7.16699 88 -12.5s67.5 -9.33301 94.5 -12s50.167 -4 69.5 -4c13.333 0 30.833 0.5 52.5 1.5
s47.834 3.16699 78.501 6.5c32 3.33301 57.167 5.83301 75.5 7.5s30.166 2.5 35.499 2.5l-94 -206l-121 -13c-6.66699 -11.333 -10 -27.666 -10 -48.999c0 -16 3.5 -29.833 10.5 -41.5s18.333 -21 34 -28s36.167 -12.167 61.5 -15.5s56 -5 92 -5h160v-213h-133
c-190 0 -285 71.667 -285 215c0 60.667 5.66699 103 17 127c-71.333 -14.667 -135.166 -38.167 -191.499 -70.5s-106.833 -74.5 -151.5 -126.5c-91.333 -105.333 -137 -230 -137 -374c0 -122 41.667 -211.667 125 -269c100.667 -66.667 272 -100 514 -100
c14.667 0 36.167 0.833008 64.5 2.5s63.5 4.16699 105.5 7.5c43.333 3.33301 77.666 5.83301 102.999 7.5s41.666 2.5 48.999 2.5c20.667 0 31 -8.66699 31 -26zM540 730.999l-128 127l128 129l127 -129zM543 1004l-128 127l128 129l127 -129z" />
    <glyph glyph-name="uni0685.init" unicode="&#x685;" horiz-adv-x="938" 
d="M780 188l-122.999 13c-52 0 -106.333 -11 -163 -33c-13.333 -5.33301 -34.333 -14.333 -63 -27s-65 -29.667 -109 -51c-62.667 -30 -120.5 -52.5 -173.5 -67.5s-100.5 -22.5 -142.5 -22.5c-50.667 -0 -76 35.333 -76 106c0 71.333 25.333 107 76 107h55
c52.667 0 110 7 172 21s129 35 201 63c-106 78 -186.333 117 -241 117c-12.667 0 -25.667 -2.5 -39 -7.5s-27 -12.167 -41 -21.5c-29.333 -18 -46 -27 -50 -27c-10.667 0 -16 9.66699 -16 29c0 17.333 3.66699 36 11 56s18.666 41.667 33.999 65
c38.667 58.667 88.667 88 150 88c49.333 0 126.333 -30.667 231 -92c102 -60 203 -90 303 -90h86zM600.001 731l-115 109l-110 -117l-118 110l119 126l115 -109l112 118l115 -111zM489.001 940l-117 111l118 125l118 -110z" />
    <glyph glyph-name="uni0685.medi" unicode="&#x685;" horiz-adv-x="1063" 
d="M1016 0c-91.333 0 -163.001 22.001 -215.001 66.001c-48 38.667 -72 90.334 -72 155.001v62c-64.667 -15.333 -123.5 -33.333 -176.5 -54s-101.167 -45 -144.5 -73c-160.667 -104 -294.667 -156 -402 -156c-50.667 0 -76 35.333 -76 106c0 71.333 25.333 107 76 107
c26.667 0 55.834 2.16699 87.501 6.5s66.167 11.166 103.5 20.499c53.333 13.333 101.333 29.333 144 48s80 40.667 112 66c-40 21.333 -77.667 37.666 -113 48.999s-68 17 -98 17c-34 0 -68.333 -10.333 -103 -31c-36 -20.667 -54.333 -31 -55 -31
c-12 0 -18 6.33301 -18 19c0 17.333 4.66699 37.166 14 59.499s23.666 47.5 42.999 75.5c46.667 68 100 102 160 102c19.333 0 46 -5.16699 80 -15.5s76 -26.166 126 -47.499c100 -42.667 175.333 -64 226 -64c17.333 0 36.833 1 58.5 3s45.834 4.66699 72.501 8
c54.667 8 86 12 94 12l-43 -197l-121 -20c10 -53.333 81.667 -80 215 -80h72v-213h-47zM714.999 754.001l-115 109l-110 -117l-118 110l119 126l115 -109l112 118l115 -111zM603.999 963.001l-117 111l118 125l118 -110z" />
    <glyph glyph-name="uni0685.fina" unicode="&#x685;" horiz-adv-x="1063" 
d="M1174 -604c0 -14.667 -25.333 -33.001 -76 -55.001l-129 -58c-41.333 -23.333 -89.5 -40.666 -144.5 -51.999s-116.833 -17 -185.5 -17c-98 0 -181.833 9.16699 -251.5 27.5s-126.5 46.5 -170.5 84.5c-87.333 75.333 -131 200.333 -131 375
c0 68.667 6.66699 133.667 20 195s32.666 119.333 57.999 174c24.667 50 57.334 101 98.001 153s89.334 105.333 146.001 160c-24 5.33301 -44.667 9.33301 -62 12s-32.333 4 -45 4c-58 0 -106.333 -28.667 -145 -86c-11.333 -16 -21 -24 -29 -24c-12 0 -18 7.33301 -18 22
c0 15.333 6 40.666 18 75.999c7.33301 21.333 15.333 40.833 24 58.5s17.667 33.167 27 46.5c46.667 62.667 115.667 94 207 94c11.333 0 28.333 -1.5 51 -4.5s52 -7.16699 88 -12.5s67.5 -9.33301 94.5 -12s50.167 -4 69.5 -4c13.333 0 30.833 0.5 52.5 1.5
s47.834 3.16699 78.501 6.5c32 3.33301 57.167 5.83301 75.5 7.5s30.166 2.5 35.499 2.5l-94 -206l-121 -13c-6.66699 -11.333 -10 -27.666 -10 -48.999c0 -16 3.5 -29.833 10.5 -41.5s18.333 -21 34 -28s36.167 -12.167 61.5 -15.5s56 -5 92 -5h160v-213h-133
c-190 0 -285 71.667 -285 215c0 60.667 5.66699 103 17 127c-71.333 -14.667 -135.166 -38.167 -191.499 -70.5s-106.833 -74.5 -151.5 -126.5c-91.333 -105.333 -137 -230 -137 -374c0 -122 41.667 -211.667 125 -269c100.667 -66.667 272 -100 514 -100
c14.667 0 36.167 0.833008 64.5 2.5s63.5 4.16699 105.5 7.5c43.333 3.33301 77.666 5.83301 102.999 7.5s41.666 2.5 48.999 2.5c20.667 0 31 -8.66699 31 -26zM662 771.999l-115 109l-110 -117l-118 110l119 126l115 -109l112 118l115 -111zM551 980.999l-117 111l118 125
l118 -110z" />
    <glyph glyph-name="uni0689.fina" unicode="&#x689;" horiz-adv-x="801" 
d="M801 0c-89.333 0 -154.332 72.333 -194.999 217c-45.333 -100.667 -91.666 -167.667 -138.999 -201c-48 -32.667 -118.333 -49 -211 -49c-54.667 0 -97 12.333 -127 37c-26 22 -39 48.667 -39 80c0 113.333 9.66699 170 29 170c8 0 14 -9.66699 18 -29
c6 -30 37.333 -45 94 -45c33.333 0 67.666 3.5 102.999 10.5s72 17.167 110 30.5s68 26.333 90 39s36.667 25.667 44 39l-91 377c31.333 110.667 50.666 166 57.999 166c4.66699 0 12 -24 22 -72l97 -369c34 -125.333 79.667 -188 137 -188v-213v0zM428.001 -75
c0 -53.333 -13.667 -99.667 -41 -139c-31.333 -45.333 -71.666 -68 -120.999 -68c-34 0 -61.333 10.5 -82 31.5s-31 47.5 -31 79.5c0 48.667 16.667 97.667 50 147c34.667 56 76.334 84 125.001 84c31.333 0 55.666 -15 72.999 -45
c9.33301 -13.333 16.166 -27.5 20.499 -42.5s6.5 -30.833 6.5 -47.5zM364.001 -108.001c0 20.667 -6.16797 37.168 -18.501 49.501s-25.166 18.5 -38.499 18.5c-20.667 0 -39.667 -9 -57 -27c-19.333 -18 -29 -41.333 -29 -70c0 -6.66699 2 -13.334 6 -20.001
s8.83301 -12.834 14.5 -18.501s12 -10.167 19 -13.5s13.5 -5 19.5 -5c10 0 20 2.33301 30 7s19 10.834 27 18.501s14.5 16.667 19.5 27s7.5 21.5 7.5 33.5z" />
    <glyph glyph-name="uni068A.fina" unicode="&#x68a;" horiz-adv-x="801" 
d="M801 0c-89.333 0 -154.332 72.333 -194.999 217c-45.333 -100.667 -91.666 -167.667 -138.999 -201c-48 -32.667 -118.333 -49 -211 -49c-54.667 0 -97 12.333 -127 37c-26 22 -39 48.667 -39 80c0 113.333 9.66699 170 29 170c8 0 14 -9.66699 18 -29
c6 -30 37.333 -45 94 -45c33.333 0 67.666 3.5 102.999 10.5s72 17.167 110 30.5s68 26.333 90 39s36.667 25.667 44 39l-91 377c31.333 110.667 50.666 166 57.999 166c4.66699 0 12 -24 22 -72l97 -369c34 -125.333 79.667 -188 137 -188v-213v0zM280.001 -443l-127 126
l127 128l126 -128z" />
    <glyph glyph-name="uni068b.fina" unicode="&#x68b;" horiz-adv-x="801" 
d="M801 0c-89.333 0 -154.332 72.333 -194.999 217c-45.333 -100.667 -91.666 -167.667 -138.999 -201c-48 -32.667 -118.333 -49 -211 -49c-54.667 0 -97 12.333 -127 37c-26 22 -39 48.667 -39 80c0 113.333 9.66699 170 29 170c8 0 14 -9.66699 18 -29
c6 -30 37.333 -45 94 -45c33.333 0 67.666 3.5 102.999 10.5s72 17.167 110 30.5s68 26.333 90 39s36.667 25.667 44 39l-91 377c31.333 110.667 50.666 166 57.999 166c4.66699 0 12 -24 22 -72l97 -369c34 -125.333 79.667 -188 137 -188v-213v0zM652.001 1099
c0 -14 -4.99805 -31.332 -14.998 -51.999c-10.667 -21.333 -22 -37 -34 -47c-56 -54 -141 -81 -255 -81c-18.667 0 -35.334 5 -50.001 15c-12 8.66699 -23.333 18.667 -34 30c-9.33301 11.333 -14 19.333 -14 24c0 7.33301 6 11 18 11c42 0 68.667 4.66699 80 14
c32.667 23.333 49 51 49 83c0 36.667 -1.16699 71.167 -3.5 103.5s-5.83301 63.166 -10.5 92.499c-14 12 -21 23.333 -21 34c0 6 4.66699 17.333 14 34c21.333 37.333 33.666 56 36.999 56c6 0 9 -2.66699 9 -8c0 -1.33301 -1 -5.33301 -3 -12s-3 -12.667 -3 -18
c0 -7.33301 3 -14.833 9 -22.5s13 -12.834 21 -15.501c8.66699 -2 13 -5 13 -9c0 -9.33301 -5.33301 -25.666 -16 -48.999c-3.33301 -10 -9.33301 -15 -18 -15c6 -42 9 -78 9 -108c0 -37.333 -3 -63 -9 -77c64 53.333 114.667 80 152 80c16 0 32 -7 48 -21
c18 -14 27 -28 27 -42zM601.003 1057c0 6.66699 -7.66602 13.668 -22.999 21.001c-7.33301 3.33301 -15 6.16602 -23 8.49902s-15.667 3.5 -23 3.5c-40.667 0 -94.334 -31.667 -161.001 -95h33c42.667 0 87 7.66699 133 23c42.667 14.667 64 27.667 64 39zM342.004 -433.998
l-127 126l127 128l126 -128z" />
    <glyph glyph-name="uni068F.fina" unicode="&#x68f;" horiz-adv-x="801" 
d="M801 0c-89.333 0 -154.332 72.333 -194.999 217c-45.333 -100.667 -91.666 -167.667 -138.999 -201c-48 -32.667 -118.333 -49 -211 -49c-54.667 0 -97 12.333 -127 37c-26 22 -39 48.667 -39 80c0 113.333 9.66699 170 29 170c8 0 14 -9.66699 18 -29
c6 -30 37.333 -45 94 -45c33.333 0 67.666 3.5 102.999 10.5s72 17.167 110 30.5s68 26.333 90 39s36.667 25.667 44 39l-91 377c31.333 110.667 50.666 166 57.999 166c4.66699 0 12 -24 22 -72l97 -369c34 -125.333 79.667 -188 137 -188v-213v0zM458.001 1276l110 115
l123 -123l-111 -113l-116 111l-111 -111l-123 119l113 117zM466.001 1178l123 -123l-113 -113l-123 119z" />
    <glyph glyph-name="uni0690.fina" unicode="&#x690;" horiz-adv-x="801" 
d="M801 0c-89.333 0 -154.332 72.333 -194.999 217c-45.333 -100.667 -91.666 -167.667 -138.999 -201c-48 -32.667 -118.333 -49 -211 -49c-54.667 0 -97 12.333 -127 37c-26 22 -39 48.667 -39 80c0 113.333 9.66699 170 29 170c8 0 14 -9.66699 18 -29
c6 -30 37.333 -45 94 -45c33.333 0 67.666 3.5 102.999 10.5s72 17.167 110 30.5s68 26.333 90 39s36.667 25.667 44 39l-91 377c31.333 110.667 50.666 166 57.999 166c4.66699 0 12 -24 22 -72l97 -369c34 -125.333 79.667 -188 137 -188v-213v0zM585.001 1100l-113 93
l-94 -115l-115 95l101 123l113 -94l97 116l111 -95zM470.001 1285l-115 94l101 124l115 -94zM498.001 908l-115 94l100 124l115 -95z" />
    <glyph glyph-name="uni0692.fina" unicode="&#x692;" horiz-adv-x="623" 
d="M570 0c-54 -154 -107.994 -263.335 -161.994 -328.002c-26.667 -30.667 -55.334 -52.334 -86.001 -65.001s-63.334 -19 -98.001 -19c-14 0 -31.833 2.66699 -53.5 8s-44.334 12.333 -68.001 21s-47.5 18.334 -71.5 29.001s-45.5 21.334 -64.5 32.001
s-34.5 20.5 -46.5 29.5s-18 16.5 -18 22.5c0 12 8.33301 18 25 18c3.33301 0 25.666 -6 66.999 -18c40 -12.667 72.667 -19 98 -19c107.333 0 244 91.667 410 275l-51 80c-28.667 42.667 -43 69 -43 79c24 98.667 38.333 148 43 148c2 0 8.66699 -7 20 -21
c7.33301 -8 14.666 -15.167 21.999 -21.5s15.666 -12.166 24.999 -17.499c26 -13.333 59 -20 99 -20h6v-213h-53zM575.006 711.998l-30.501 -32.001c-11.667 -12.667 -24.5 -30.667 -38.5 -54s-28.833 -53.833 -44.5 -91.5s-31.5 -85.5 -47.5 -143.5l-28 -3
c-6.66699 31.333 -16 62.5 -28 93.5s-25.667 60.5 -41 88.5s-32.166 53.5 -50.499 76.5s-37.166 42.167 -56.499 57.5l104 -8c6.66699 -8 13.5 -17 20.5 -27s14.167 -23 21.5 -39s14.666 -35.5 21.999 -58.5s15 -51.5 23 -85.5c2 12.667 5 28.167 9 46.5s9 37.333 15 57
s13 39.334 21 59.001s17.333 37.5 28 53.5z" />
    <glyph glyph-name="uni0693.fina" unicode="&#x693;" horiz-adv-x="623" 
d="M570 0c-54 -154 -107.994 -263.335 -161.994 -328.002c-26.667 -30.667 -55.334 -52.334 -86.001 -65.001s-63.334 -19 -98.001 -19c-14 0 -31.833 2.66699 -53.5 8s-44.334 12.333 -68.001 21s-47.5 18.334 -71.5 29.001s-45.5 21.334 -64.5 32.001
s-34.5 20.5 -46.5 29.5s-18 16.5 -18 22.5c0 12 8.33301 18 25 18c3.33301 0 25.666 -6 66.999 -18c40 -12.667 72.667 -19 98 -19c107.333 0 244 91.667 410 275l-51 80c-28.667 42.667 -43 69 -43 79c24 98.667 38.333 148 43 148c2 0 8.66699 -7 20 -21
c7.33301 -8 14.666 -15.167 21.999 -21.5s15.666 -12.166 24.999 -17.499c26 -13.333 59 -20 99 -20h6v-213h-53zM394.006 -452.002c0 -53.333 -13.667 -99.667 -41 -139c-31.333 -45.333 -71.666 -68 -120.999 -68c-34 0 -61.333 10.5 -82 31.5s-31 47.5 -31 79.5
c0 48.667 16.667 97.667 50 147c34.667 56 76.334 84 125.001 84c31.333 0 55.666 -15 72.999 -45c9.33301 -13.333 16.166 -27.5 20.499 -42.5s6.5 -30.833 6.5 -47.5zM330.006 -485.003c0 20.667 -6.16797 37.168 -18.501 49.501s-25.166 18.5 -38.499 18.5
c-20.667 0 -39.667 -9 -57 -27c-19.333 -18 -29 -41.333 -29 -70c0 -6.66699 2 -13.334 6 -20.001s8.83301 -12.834 14.5 -18.501s12 -10.167 19 -13.5s13.5 -5 19.5 -5c10 0 20 2.33301 30 7s19 10.834 27 18.501s14.5 16.667 19.5 27s7.5 21.5 7.5 33.5z" />
    <glyph glyph-name="uni0694.fina" unicode="&#x694;" horiz-adv-x="623" 
d="M570 0c-54 -154 -107.994 -263.335 -161.994 -328.002c-26.667 -30.667 -55.334 -52.334 -86.001 -65.001s-63.334 -19 -98.001 -19c-14 0 -31.833 2.66699 -53.5 8s-44.334 12.333 -68.001 21s-47.5 18.334 -71.5 29.001s-45.5 21.334 -64.5 32.001
s-34.5 20.5 -46.5 29.5s-18 16.5 -18 22.5c0 12 8.33301 18 25 18c3.33301 0 25.666 -6 66.999 -18c40 -12.667 72.667 -19 98 -19c107.333 0 244 91.667 410 275l-51 80c-28.667 42.667 -43 69 -43 79c24 98.667 38.333 148 43 148c2 0 8.66699 -7 20 -21
c7.33301 -8 14.666 -15.167 21.999 -21.5s15.666 -12.166 24.999 -17.499c26 -13.333 59 -20 99 -20h6v-213h-53zM233.006 -804.002l-127 126l127 128l126 -128z" />
    <glyph glyph-name="uni0695.fina" unicode="&#x695;" horiz-adv-x="623" 
d="M570 0c-54 -154 -107.994 -263.335 -161.994 -328.002c-26.667 -30.667 -55.334 -52.334 -86.001 -65.001s-63.334 -19 -98.001 -19c-14 0 -31.833 2.66699 -53.5 8s-44.334 12.333 -68.001 21s-47.5 18.334 -71.5 29.001s-45.5 21.334 -64.5 32.001
s-34.5 20.5 -46.5 29.5s-18 16.5 -18 22.5c0 12 8.33301 18 25 18c3.33301 0 25.666 -6 66.999 -18c40 -12.667 72.667 -19 98 -19c107.333 0 244 91.667 410 275l-51 80c-28.667 42.667 -43 69 -43 79c24 98.667 38.333 148 43 148c2 0 8.66699 -7 20 -21
c7.33301 -8 14.666 -15.167 21.999 -21.5s15.666 -12.166 24.999 -17.499c26 -13.333 59 -20 99 -20h6v-213h-53zM445.006 -510.002l-30.501 -32.001c-11.667 -12.667 -24.5 -30.667 -38.5 -54s-28.833 -53.833 -44.5 -91.5s-31.5 -85.5 -47.5 -143.5l-28 -3
c-6.66699 31.333 -16 62.5 -28 93.5s-25.667 60.5 -41 88.5s-32.166 53.5 -50.499 76.5s-37.166 42.167 -56.499 57.5l104 -8c6.66699 -8 13.5 -17 20.5 -27s14.167 -23 21.5 -39s14.666 -35.5 21.999 -58.5s15 -51.5 23 -85.5c2 12.667 5 28.167 9 46.5s9 37.333 15 57
s13 39.334 21 59.001s17.333 37.5 28 53.5z" />
    <glyph glyph-name="uni0696.fina" unicode="&#x696;" horiz-adv-x="721" 
d="M668 0c-54 -154 -107.994 -263.335 -161.994 -328.002c-26.667 -30.667 -55.334 -52.334 -86.001 -65.001s-63.334 -19 -98.001 -19c-14 0 -31.833 2.66699 -53.5 8s-44.334 12.333 -68.001 21s-47.5 18.334 -71.5 29.001s-45.5 21.334 -64.5 32.001
s-34.5 20.5 -46.5 29.5s-18 16.5 -18 22.5c0 12 8.33301 18 25 18c3.33301 0 25.666 -6 66.999 -18c40 -12.667 72.667 -19 98 -19c107.333 0 244 91.667 410 275l-51 80c-28.667 42.667 -43 69 -43 79c24 98.667 38.333 148 43 148c2 0 8.66699 -7 20 -21
c7.33301 -8 14.666 -15.167 21.999 -21.5s15.666 -12.166 24.999 -17.499c26 -13.333 59 -20 99 -20h6v-213h-53zM267.006 -763.002l-127 126l127 128l126 -128zM246.006 -165.002l-127 126l127 128l126 -128z" />
    <glyph glyph-name="uni0697.fina" unicode="&#x697;" horiz-adv-x="623" 
d="M570 0c-54 -154 -107.994 -263.335 -161.994 -328.002c-26.667 -30.667 -55.334 -52.334 -86.001 -65.001s-63.334 -19 -98.001 -19c-14 0 -31.833 2.66699 -53.5 8s-44.334 12.333 -68.001 21s-47.5 18.334 -71.5 29.001s-45.5 21.334 -64.5 32.001
s-34.5 20.5 -46.5 29.5s-18 16.5 -18 22.5c0 12 8.33301 18 25 18c3.33301 0 25.666 -6 66.999 -18c40 -12.667 72.667 -19 98 -19c107.333 0 244 91.667 410 275l-51 80c-28.667 42.667 -43 69 -43 79c24 98.667 38.333 148 43 148c2 0 8.66699 -7 20 -21
c7.33301 -8 14.666 -15.167 21.999 -21.5s15.666 -12.166 24.999 -17.499c26 -13.333 59 -20 99 -20h6v-213h-53zM514.006 444.998l-110 113l-115 -113l-113 115l123 121l111 -113l116 113l111 -115z" />
    <glyph glyph-name="uni0699.fina" unicode="&#x699;" horiz-adv-x="623" 
d="M570 0c-54 -154 -107.994 -263.335 -161.994 -328.002c-26.667 -30.667 -55.334 -52.334 -86.001 -65.001s-63.334 -19 -98.001 -19c-14 0 -31.833 2.66699 -53.5 8s-44.334 12.333 -68.001 21s-47.5 18.334 -71.5 29.001s-45.5 21.334 -64.5 32.001
s-34.5 20.5 -46.5 29.5s-18 16.5 -18 22.5c0 12 8.33301 18 25 18c3.33301 0 25.666 -6 66.999 -18c40 -12.667 72.667 -19 98 -19c107.333 0 244 91.667 410 275l-51 80c-28.667 42.667 -43 69 -43 79c24 98.667 38.333 148 43 148c2 0 8.66699 -7 20 -21
c7.33301 -8 14.666 -15.167 21.999 -21.5s15.666 -12.166 24.999 -17.499c26 -13.333 59 -20 99 -20h6v-213h-53zM510.006 567.998l-113 93l-94 -115l-115 95l101 123l113 -94l97 116l111 -95zM395.006 752.998l-115 94l101 124l115 -94zM423.006 375.998l-115 94l100 124
l115 -95z" />
    <glyph glyph-name="uni069A.init" unicode="&#x69a;" horiz-adv-x="1024" 
d="M979 311c0 -62.667 -14.333 -125.999 -43 -189.999c-32.667 -71.333 -66.667 -107 -102 -107c-37.333 0 -97.666 31.667 -180.999 95c-51.333 -72.667 -114.666 -109 -189.999 -109c-38 0 -76.167 7.5 -114.5 22.5s-77.5 37.5 -117.5 67.5c-48 -60 -123 -90 -225 -90
c-50.667 0 -76 35.333 -76 106c0 71.333 25.333 107 76 107h64c24.667 0 46 2 64 6s33.667 10.667 47 20s24.833 22.166 34.5 38.499s18.5 37.166 26.5 62.499c8 24.667 21 37 39 37c12 0 18 -7 18 -21c0 -5.33301 -0.666992 -11.666 -2 -18.999s-2 -13.333 -2 -18
c0 -77.333 52 -116 156 -116c99.333 0 163.333 31.333 192 94c33.333 72.667 57.333 109 72 109c10 0 16 -6.33301 18 -19c-0.666992 0 -10 -36 -28 -108c67.333 -41.333 123.666 -62 168.999 -62c32 0 48 10.333 48 31c0 3.33301 -1.66699 8.5 -5 15.5l-14 29.5
c-12 26 -18 41.667 -18 47c43.333 88.667 68.666 133 75.999 133c12 0 18 -54 18 -162zM633 645.001l-127 126l127 128l126 -128zM593 -461.999l-127 126l127 128l126 -128z" />
    <glyph glyph-name="uni069A.medi" unicode="&#x69a;" horiz-adv-x="1214" 
d="M1145 0c-70.667 0 -128.671 26.665 -174.004 79.998c-41.333 -53.333 -78.333 -80 -111 -80c-13.333 0 -34.166 6.16699 -62.499 18.5s-64.166 30.166 -107.499 53.499c-23.333 -23.333 -49.833 -41.166 -79.5 -53.499s-63.167 -18.5 -100.5 -18.5
c-63.333 0 -133.666 30 -210.999 90c-38 -40 -83 -66.667 -135 -80c-15.333 -3.33301 -36 -5.83301 -62 -7.5s-58 -2.5 -96 -2.5c-50.667 0 -76 35.333 -76 106c0 71.333 25.333 107 76 107h107c57.333 0 98.333 8.33301 123 25c28.667 18.667 51 53.334 67 104.001
c8 24.667 21 37 39 37c12 0 18 -7 18 -21c0 -4 -1 -10.167 -3 -18.5s-3 -14.166 -3 -17.499c0 -72.667 66.333 -109 199 -109c46 0 84.167 11.167 114.5 33.5s52.166 55.5 65.499 99.5c12 41.333 25 62 39 62c12.667 0 19 -7 19 -21c0 -28.667 -11 -72.334 -33 -131.001
c4.66699 -7.33301 18.334 -16.333 41.001 -27c13.333 -5.33301 26.166 -9.33301 38.499 -12s24.5 -4 36.5 -4c14.667 0 27.834 2.33301 39.501 7s22.5 12.834 32.5 24.501s19.833 27.5 29.5 47.5s19.834 45.667 30.501 77c8 21.333 18 32 30 32c15.333 0 23 -9.33301 23 -28
c0 -2.66699 -1 -8 -3 -16l-6.5 -26l-6.5 -27c-2 -8.66699 -3 -15 -3 -19c0 -9.33301 2.5 -18 7.5 -26s12.167 -15.667 21.5 -23c23.333 -15.333 52 -23 86 -23h59v-213h-69zM645.996 607.998l-127 126l127 128l126 -128zM638.996 -483.002l-127 126l127 128l126 -128z" />
    <glyph glyph-name="uni069A.fina" unicode="&#x69a;" horiz-adv-x="1745" 
d="M1679 0c-70.667 0 -128.669 26.668 -174.002 80.001c-41.333 -53.333 -78 -80 -110 -80c-13.333 0 -34.166 6.16699 -62.499 18.5s-64.166 30.166 -107.499 53.499c-48 -48 -108.333 -72 -181 -72c-18 0 -37.167 2.66699 -57.5 8s-41.833 13.666 -64.5 24.999
c0 -173.333 -52 -303 -156 -389c-88.667 -72.667 -202 -109 -340 -109c-98.667 0 -178.667 24 -240 72c-64 52 -96 125.667 -96 221c0 80 19 166 57 258c34.667 83.333 60.667 125 78 125c14 0 21 -8.33301 21 -25c0 1.33301 -10.333 -26.667 -31 -84
c-20.667 -56.667 -31 -105.667 -31 -147c0 -144.667 95 -217 285 -217c144.667 0 269 41.667 373 125v57c0 47.333 -7.5 93.5 -22.5 138.5s-37.5 89.833 -67.5 134.5l92 172c3.33301 0 21.666 -32.333 54.999 -97c23.333 -43.333 71.666 -65 144.999 -65
c110.667 0 183.334 51.667 218.001 155c10 33.333 21.333 50 34 50s19 -7 19 -21c0 -27.333 -11.667 -71 -35 -131c22.667 -28.667 65.667 -43 129 -43c14.667 0 27.5 2.33301 38.5 7s21.5 12.834 31.5 24.501s19.667 27.5 29 47.5s20 45.667 32 77
c6 21.333 16.333 32 31 32s22 -9.33301 22 -28c0 -2.66699 -1 -8 -3 -16s-4 -16.667 -6 -26l-6 -27c-2 -8.66699 -3 -15 -3 -19c0 -18.667 9.66699 -35 29 -49c22.667 -15.333 51.334 -23 86.001 -23h55v-213h-66zM1280 579.001l-127 126l127 128l126 -128zM1239 -433.999
l-127 126l127 128l126 -128z" />
    <glyph glyph-name="uni069B.init" unicode="&#x69b;" horiz-adv-x="1024" 
d="M979 311c0 -62.667 -14.333 -125.999 -43 -189.999c-32.667 -71.333 -66.667 -107 -102 -107c-37.333 0 -97.666 31.667 -180.999 95c-51.333 -72.667 -114.666 -109 -189.999 -109c-38 0 -76.167 7.5 -114.5 22.5s-77.5 37.5 -117.5 67.5c-48 -60 -123 -90 -225 -90
c-50.667 0 -76 35.333 -76 106c0 71.333 25.333 107 76 107h64c24.667 0 46 2 64 6s33.667 10.667 47 20s24.833 22.166 34.5 38.499s18.5 37.166 26.5 62.499c8 24.667 21 37 39 37c12 0 18 -7 18 -21c0 -5.33301 -0.666992 -11.666 -2 -18.999s-2 -13.333 -2 -18
c0 -77.333 52 -116 156 -116c99.333 0 163.333 31.333 192 94c33.333 72.667 57.333 109 72 109c10 0 16 -6.33301 18 -19c-0.666992 0 -10 -36 -28 -108c67.333 -41.333 123.666 -62 168.999 -62c32 0 48 10.333 48 31c0 3.33301 -1.66699 8.5 -5 15.5l-14 29.5
c-12 26 -18 41.667 -18 47c43.333 88.667 68.666 133 75.999 133c12 0 18 -54 18 -162zM490 -307.999l110 115l123 -123l-111 -113l-116 111l-111 -111l-123 119l113 117zM498 -405.999l123 -123l-113 -113l-123 119z" />
    <glyph glyph-name="uni069B.medi" unicode="&#x69b;" horiz-adv-x="1214" 
d="M1145 0c-70.667 0 -128.671 26.665 -174.004 79.998c-41.333 -53.333 -78.333 -80 -111 -80c-13.333 0 -34.166 6.16699 -62.499 18.5s-64.166 30.166 -107.499 53.499c-23.333 -23.333 -49.833 -41.166 -79.5 -53.499s-63.167 -18.5 -100.5 -18.5
c-63.333 0 -133.666 30 -210.999 90c-38 -40 -83 -66.667 -135 -80c-15.333 -3.33301 -36 -5.83301 -62 -7.5s-58 -2.5 -96 -2.5c-50.667 0 -76 35.333 -76 106c0 71.333 25.333 107 76 107h107c57.333 0 98.333 8.33301 123 25c28.667 18.667 51 53.334 67 104.001
c8 24.667 21 37 39 37c12 0 18 -7 18 -21c0 -4 -1 -10.167 -3 -18.5s-3 -14.166 -3 -17.499c0 -72.667 66.333 -109 199 -109c46 0 84.167 11.167 114.5 33.5s52.166 55.5 65.499 99.5c12 41.333 25 62 39 62c12.667 0 19 -7 19 -21c0 -28.667 -11 -72.334 -33 -131.001
c4.66699 -7.33301 18.334 -16.333 41.001 -27c13.333 -5.33301 26.166 -9.33301 38.499 -12s24.5 -4 36.5 -4c14.667 0 27.834 2.33301 39.501 7s22.5 12.834 32.5 24.501s19.833 27.5 29.5 47.5s19.834 45.667 30.501 77c8 21.333 18 32 30 32c15.333 0 23 -9.33301 23 -28
c0 -2.66699 -1 -8 -3 -16l-6.5 -26l-6.5 -27c-2 -8.66699 -3 -15 -3 -19c0 -9.33301 2.5 -18 7.5 -26s12.167 -15.667 21.5 -23c23.333 -15.333 52 -23 86 -23h59v-213h-69zM622.996 -326.002l110 115l123 -123l-111 -113l-116 111l-111 -111l-123 119l113 117z
M630.996 -424.002l123 -123l-113 -113l-123 119z" />
    <glyph glyph-name="uni069B.fina" unicode="&#x69b;" horiz-adv-x="1745" 
d="M1679 0c-70.667 0 -128.669 26.668 -174.002 80.001c-41.333 -53.333 -78 -80 -110 -80c-13.333 0 -34.166 6.16699 -62.499 18.5s-64.166 30.166 -107.499 53.499c-48 -48 -108.333 -72 -181 -72c-18 0 -37.167 2.66699 -57.5 8s-41.833 13.666 -64.5 24.999
c0 -173.333 -52 -303 -156 -389c-88.667 -72.667 -202 -109 -340 -109c-98.667 0 -178.667 24 -240 72c-64 52 -96 125.667 -96 221c0 80 19 166 57 258c34.667 83.333 60.667 125 78 125c14 0 21 -8.33301 21 -25c0 1.33301 -10.333 -26.667 -31 -84
c-20.667 -56.667 -31 -105.667 -31 -147c0 -144.667 95 -217 285 -217c144.667 0 269 41.667 373 125v57c0 47.333 -7.5 93.5 -22.5 138.5s-37.5 89.833 -67.5 134.5l92 172c3.33301 0 21.666 -32.333 54.999 -97c23.333 -43.333 71.666 -65 144.999 -65
c110.667 0 183.334 51.667 218.001 155c10 33.333 21.333 50 34 50s19 -7 19 -21c0 -27.333 -11.667 -71 -35 -131c22.667 -28.667 65.667 -43 129 -43c14.667 0 27.5 2.33301 38.5 7s21.5 12.834 31.5 24.501s19.667 27.5 29 47.5s20 45.667 32 77
c6 21.333 16.333 32 31 32s22 -9.33301 22 -28c0 -2.66699 -1 -8 -3 -16s-4 -16.667 -6 -26l-6 -27c-2 -8.66699 -3 -15 -3 -19c0 -18.667 9.66699 -35 29 -49c22.667 -15.333 51.334 -23 86.001 -23h55v-213h-66zM1281 -335.999l110 115l123 -123l-111 -113l-116 111
l-111 -111l-123 119l113 117zM1289 -433.999l123 -123l-113 -113l-123 119z" />
    <glyph glyph-name="uni069C.init" unicode="&#x69c;" horiz-adv-x="1024" 
d="M979 311c0 -62.667 -14.333 -125.999 -43 -189.999c-32.667 -71.333 -66.667 -107 -102 -107c-37.333 0 -97.666 31.667 -180.999 95c-51.333 -72.667 -114.666 -109 -189.999 -109c-38 0 -76.167 7.5 -114.5 22.5s-77.5 37.5 -117.5 67.5c-48 -60 -123 -90 -225 -90
c-50.667 0 -76 35.333 -76 106c0 71.333 25.333 107 76 107h64c24.667 0 46 2 64 6s33.667 10.667 47 20s24.833 22.166 34.5 38.499s18.5 37.166 26.5 62.499c8 24.667 21 37 39 37c12 0 18 -7 18 -21c0 -5.33301 -0.666992 -11.666 -2 -18.999s-2 -13.333 -2 -18
c0 -77.333 52 -116 156 -116c99.333 0 163.333 31.333 192 94c33.333 72.667 57.333 109 72 109c10 0 16 -6.33301 18 -19c-0.666992 0 -10 -36 -28 -108c67.333 -41.333 123.666 -62 168.999 -62c32 0 48 10.333 48 31c0 3.33301 -1.66699 8.5 -5 15.5l-14 29.5
c-12 26 -18 41.667 -18 47c43.333 88.667 68.666 133 75.999 133c12 0 18 -54 18 -162zM557 -284.999l110 115l123 -123l-111 -113l-116 111l-111 -111l-123 119l113 117zM565 -382.999l123 -123l-113 -113l-123 119zM728 606.001l-115 109l-110 -117l-118 110l119 126
l115 -109l112 118l115 -111zM617 815.001l-117 111l118 125l118 -110z" />
    <glyph glyph-name="uni069C.medi" unicode="&#x69c;" horiz-adv-x="1214" 
d="M1145 0c-70.667 0 -128.671 26.665 -174.004 79.998c-41.333 -53.333 -78.333 -80 -111 -80c-13.333 0 -34.166 6.16699 -62.499 18.5s-64.166 30.166 -107.499 53.499c-23.333 -23.333 -49.833 -41.166 -79.5 -53.499s-63.167 -18.5 -100.5 -18.5
c-63.333 0 -133.666 30 -210.999 90c-38 -40 -83 -66.667 -135 -80c-15.333 -3.33301 -36 -5.83301 -62 -7.5s-58 -2.5 -96 -2.5c-50.667 0 -76 35.333 -76 106c0 71.333 25.333 107 76 107h107c57.333 0 98.333 8.33301 123 25c28.667 18.667 51 53.334 67 104.001
c8 24.667 21 37 39 37c12 0 18 -7 18 -21c0 -4 -1 -10.167 -3 -18.5s-3 -14.166 -3 -17.499c0 -72.667 66.333 -109 199 -109c46 0 84.167 11.167 114.5 33.5s52.166 55.5 65.499 99.5c12 41.333 25 62 39 62c12.667 0 19 -7 19 -21c0 -28.667 -11 -72.334 -33 -131.001
c4.66699 -7.33301 18.334 -16.333 41.001 -27c13.333 -5.33301 26.166 -9.33301 38.499 -12s24.5 -4 36.5 -4c14.667 0 27.834 2.33301 39.501 7s22.5 12.834 32.5 24.501s19.833 27.5 29.5 47.5s19.834 45.667 30.501 77c8 21.333 18 32 30 32c15.333 0 23 -9.33301 23 -28
c0 -2.66699 -1 -8 -3 -16l-6.5 -26l-6.5 -27c-2 -8.66699 -3 -15 -3 -19c0 -9.33301 2.5 -18 7.5 -26s12.167 -15.667 21.5 -23c23.333 -15.333 52 -23 86 -23h59v-213h-69zM632.996 -303.002l110 115l123 -123l-111 -113l-116 111l-111 -111l-123 119l113 117z
M640.996 -401.002l123 -123l-113 -113l-123 119zM805.996 590.998l-115 109l-110 -117l-118 110l119 126l115 -109l112 118l115 -111zM694.996 799.998l-117 111l118 125l118 -110z" />
    <glyph glyph-name="uni069C.fina" unicode="&#x69c;" horiz-adv-x="1745" 
d="M1679 0c-70.667 0 -128.669 26.668 -174.002 80.001c-41.333 -53.333 -78 -80 -110 -80c-13.333 0 -34.166 6.16699 -62.499 18.5s-64.166 30.166 -107.499 53.499c-48 -48 -108.333 -72 -181 -72c-18 0 -37.167 2.66699 -57.5 8s-41.833 13.666 -64.5 24.999
c0 -173.333 -52 -303 -156 -389c-88.667 -72.667 -202 -109 -340 -109c-98.667 0 -178.667 24 -240 72c-64 52 -96 125.667 -96 221c0 80 19 166 57 258c34.667 83.333 60.667 125 78 125c14 0 21 -8.33301 21 -25c0 1.33301 -10.333 -26.667 -31 -84
c-20.667 -56.667 -31 -105.667 -31 -147c0 -144.667 95 -217 285 -217c144.667 0 269 41.667 373 125v57c0 47.333 -7.5 93.5 -22.5 138.5s-37.5 89.833 -67.5 134.5l92 172c3.33301 0 21.666 -32.333 54.999 -97c23.333 -43.333 71.666 -65 144.999 -65
c110.667 0 183.334 51.667 218.001 155c10 33.333 21.333 50 34 50s19 -7 19 -21c0 -27.333 -11.667 -71 -35 -131c22.667 -28.667 65.667 -43 129 -43c14.667 0 27.5 2.33301 38.5 7s21.5 12.834 31.5 24.501s19.667 27.5 29 47.5s20 45.667 32 77
c6 21.333 16.333 32 31 32s22 -9.33301 22 -28c0 -2.66699 -1 -8 -3 -16s-4 -16.667 -6 -26l-6 -27c-2 -8.66699 -3 -15 -3 -19c0 -18.667 9.66699 -35 29 -49c22.667 -15.333 51.334 -23 86.001 -23h55v-213h-66zM1288 -301.999l110 115l123 -123l-111 -113l-116 111
l-111 -111l-123 119l113 117zM1296 -399.999l123 -123l-113 -113l-123 119zM1376 548.001l-115 109l-110 -117l-118 110l119 126l115 -109l112 118l115 -111zM1265 757.001l-117 111l118 125l118 -110z" />
    <glyph glyph-name="uni069D.init" unicode="&#x69d;" horiz-adv-x="1333" 
d="M1288 467c0 -19.333 -3.50195 -40.333 -10.502 -63s-17.167 -48 -30.5 -76c-13.333 -27.333 -27.166 -51.5 -41.499 -72.5s-29.833 -39.167 -46.5 -54.5c-152 -143.333 -378.667 -215 -680 -215c-147.333 0 -238.666 48.333 -273.999 145
c-42.667 -87.333 -109 -131 -199 -131c-50.667 -0 -76 35.333 -76 106c0 71.333 25.333 107 76 107h60c70.667 0 112 26.667 124 80c5.33301 19.333 14.333 29 27 29s21 -11 25 -33c14 -73.333 73.333 -107 178 -101c306 298 528.333 447 667 447
c42.667 0 86.667 -19 132 -57c46 -38 69 -75 69 -111zM1151 352c0 19.333 -20.333 38.667 -61 58c-39.333 20 -80.333 30 -123 30c-108.667 0 -252 -84 -430 -252h90c58.667 0 117.167 5.16699 175.5 15.5s117.833 25.833 178.5 46.5c113.333 39.333 170 73.333 170 102z
M639.998 -467.999l-110 113l-115 -113l-113 115l123 121l111 -113l116 113l111 -115z" />
    <glyph glyph-name="uni069D.medi" unicode="&#x69d;" horiz-adv-x="1372" 
d="M1372 0c-22.667 0 -88.0029 -3.99805 -196.003 -11.998c-54.667 -4 -103.834 -7.16699 -147.501 -9.5s-81.5 -3.5 -113.5 -3.5c-19.333 0 -41.333 1 -66 3s-52.334 4.66699 -83.001 8c-30 3.33301 -52.5 5.5 -67.5 6.5s-23.167 1.5 -24.5 1.5c-4 0 -9 -0.333008 -15 -1
c-5.33301 -0.666992 -11.833 -1.16699 -19.5 -1.5s-16.167 -0.833008 -25.5 -1.5c-19.333 -1.33301 -38.666 -2.33301 -57.999 -3s-38.666 -1 -57.999 -1c-43.333 0 -81.166 2.66699 -113.499 8s-60.166 13.833 -83.499 25.5s-42.666 26.667 -57.999 45s-28 40.5 -38 66.5
c-42.667 -87.333 -109 -131 -199 -131c-50.667 0 -76 35.333 -76 106c0 71.333 25.333 107 76 107h60c70.667 0 112 26.667 124 80c5.33301 19.333 14.333 29 27 29s21 -11 25 -33c14 -73.333 73.333 -107 178 -101c155.333 149.333 288.166 261.166 398.499 335.499
s199.833 111.5 268.5 111.5c42.667 0 86.667 -19 132 -57c46 -38 69 -75 69 -111c0 -42 -14.333 -90.333 -43 -145c-31.333 -62.667 -71.666 -113.334 -120.999 -152.001c123.333 28.667 206 43 248 43v-213zM1151 352.002c0 19.333 -20.333 38.667 -61 58
c-39.333 20 -80.333 30 -123 30c-108.667 0 -252 -84 -430 -252h90c58.667 0 117.167 5.16699 175.5 15.5s117.833 25.833 178.5 46.5c113.333 39.333 170 73.333 170 102zM715.997 -464.997l-110 113l-115 -113l-113 115l123 121l111 -113l116 113l111 -115z" />
    <glyph glyph-name="uni069D.fina" unicode="&#x69d;" horiz-adv-x="1954" 
d="M1954 0c-22.667 0 -88.333 -4 -197 -12c-54 -4 -102.833 -7.16699 -146.5 -9.5s-81.5 -3.5 -113.5 -3.5c-19.333 0 -41.333 1 -66 3s-52.334 4.66699 -83.001 8l-41 3.5c-12 1 -21.667 1.83301 -29 2.5c-9.33301 0.666992 -17 1.33398 -23 2.00098
c-1.33301 0 -6.66602 -0.333008 -15.999 -1l-43 -3c-19.333 -1.33301 -38.833 -2.33301 -58.5 -3s-39.167 -1 -58.5 -1c-68.667 0 -121 6 -157 18c0 -153.333 -50 -272 -150 -356c-44 -38 -95 -66.333 -153 -85s-122.333 -28 -193 -28c-98.667 0 -178.667 24 -240 72
c-64 52 -96 125.667 -96 221c0 80 19 166 57 258c34.667 83.333 60.667 125 78 125c14 0 21 -8.33301 21 -25c0 1.33301 -10.333 -26.667 -31 -84c-20.667 -56.667 -31 -105.667 -31 -147c0 -144.667 95 -217 285 -217c144.667 0 269 41.667 373 125v61
c0 55.333 -17 112.666 -51 171.999c-15.333 28 -27.5 48.667 -36.5 62s-14.167 20 -15.5 20c42.667 114.667 68 172 76 172l6 -9c2 -3.33301 4.33301 -7.5 7 -12.5s6 -10.833 10 -17.5c16 -29.333 35.667 -52.333 59 -69c32 -26 72.333 -39 121 -39c304 288 521 432 651 432
c40 0 83.667 -19 131 -57c46.667 -38.667 70 -75.667 70 -111c0 -21.333 -3.66699 -43.833 -11 -67.5s-18 -49.5 -32 -77.5c-30.667 -62 -71 -112.667 -121 -152c121.333 28.667 204 43 248 43v-213zM1733 352c0 19.333 -20.6689 38.667 -62.002 58
c-39.333 20 -80.333 30 -123 30c-108.667 0 -252 -84 -430 -252h90c58.667 0 117.334 5.16699 176.001 15.5s118.334 25.833 179.001 46.5c113.333 39.333 170 73.333 170 102zM1393 -474.999l-110 113l-115 -113l-113 115l123 121l111 -113l116 113l111 -115z" />
    <glyph glyph-name="uni069E.init" unicode="&#x69e;" horiz-adv-x="1333" 
d="M1288 467c0 -19.333 -3.50195 -40.333 -10.502 -63s-17.167 -48 -30.5 -76c-13.333 -27.333 -27.166 -51.5 -41.499 -72.5s-29.833 -39.167 -46.5 -54.5c-152 -143.333 -378.667 -215 -680 -215c-147.333 0 -238.666 48.333 -273.999 145
c-42.667 -87.333 -109 -131 -199 -131c-50.667 -0 -76 35.333 -76 106c0 71.333 25.333 107 76 107h60c70.667 0 112 26.667 124 80c5.33301 19.333 14.333 29 27 29s21 -11 25 -33c14 -73.333 73.333 -107 178 -101c306 298 528.333 447 667 447
c42.667 0 86.667 -19 132 -57c46 -38 69 -75 69 -111zM1151 352c0 19.333 -20.333 38.667 -61 58c-39.333 20 -80.333 30 -123 30c-108.667 0 -252 -84 -430 -252h90c58.667 0 117.167 5.16699 175.5 15.5s117.833 25.833 178.5 46.5c113.333 39.333 170 73.333 170 102z
M570.998 661.001l-115 109l-110 -117l-118 110l119 126l115 -109l112 118l115 -111zM459.998 870.001l-117 111l118 125l118 -110z" />
    <glyph glyph-name="uni069E.medi" unicode="&#x69e;" horiz-adv-x="1372" 
d="M1372 0c-22.667 0 -88.0029 -3.99805 -196.003 -11.998c-54.667 -4 -103.834 -7.16699 -147.501 -9.5s-81.5 -3.5 -113.5 -3.5c-19.333 0 -41.333 1 -66 3s-52.334 4.66699 -83.001 8c-30 3.33301 -52.5 5.5 -67.5 6.5s-23.167 1.5 -24.5 1.5c-4 0 -9 -0.333008 -15 -1
c-5.33301 -0.666992 -11.833 -1.16699 -19.5 -1.5s-16.167 -0.833008 -25.5 -1.5c-19.333 -1.33301 -38.666 -2.33301 -57.999 -3s-38.666 -1 -57.999 -1c-43.333 0 -81.166 2.66699 -113.499 8s-60.166 13.833 -83.499 25.5s-42.666 26.667 -57.999 45s-28 40.5 -38 66.5
c-42.667 -87.333 -109 -131 -199 -131c-50.667 0 -76 35.333 -76 106c0 71.333 25.333 107 76 107h60c70.667 0 112 26.667 124 80c5.33301 19.333 14.333 29 27 29s21 -11 25 -33c14 -73.333 73.333 -107 178 -101c155.333 149.333 288.166 261.166 398.499 335.499
s199.833 111.5 268.5 111.5c42.667 0 86.667 -19 132 -57c46 -38 69 -75 69 -111c0 -42 -14.333 -90.333 -43 -145c-31.333 -62.667 -71.666 -113.334 -120.999 -152.001c123.333 28.667 206 43 248 43v-213zM1151 352.002c0 19.333 -20.333 38.667 -61 58
c-39.333 20 -80.333 30 -123 30c-108.667 0 -252 -84 -430 -252h90c58.667 0 117.167 5.16699 175.5 15.5s117.833 25.833 178.5 46.5c113.333 39.333 170 73.333 170 102zM662.997 732.003l-115 109l-110 -117l-118 110l119 126l115 -109l112 118l115 -111z
M551.997 941.003l-117 111l118 125l118 -110z" />
    <glyph glyph-name="uni069E.fina" unicode="&#x69e;" horiz-adv-x="1954" 
d="M1954 0c-22.667 0 -88.333 -4 -197 -12c-54 -4 -102.833 -7.16699 -146.5 -9.5s-81.5 -3.5 -113.5 -3.5c-19.333 0 -41.333 1 -66 3s-52.334 4.66699 -83.001 8l-41 3.5c-12 1 -21.667 1.83301 -29 2.5c-9.33301 0.666992 -17 1.33398 -23 2.00098
c-1.33301 0 -6.66602 -0.333008 -15.999 -1l-43 -3c-19.333 -1.33301 -38.833 -2.33301 -58.5 -3s-39.167 -1 -58.5 -1c-68.667 0 -121 6 -157 18c0 -153.333 -50 -272 -150 -356c-44 -38 -95 -66.333 -153 -85s-122.333 -28 -193 -28c-98.667 0 -178.667 24 -240 72
c-64 52 -96 125.667 -96 221c0 80 19 166 57 258c34.667 83.333 60.667 125 78 125c14 0 21 -8.33301 21 -25c0 1.33301 -10.333 -26.667 -31 -84c-20.667 -56.667 -31 -105.667 -31 -147c0 -144.667 95 -217 285 -217c144.667 0 269 41.667 373 125v61
c0 55.333 -17 112.666 -51 171.999c-15.333 28 -27.5 48.667 -36.5 62s-14.167 20 -15.5 20c42.667 114.667 68 172 76 172l6 -9c2 -3.33301 4.33301 -7.5 7 -12.5s6 -10.833 10 -17.5c16 -29.333 35.667 -52.333 59 -69c32 -26 72.333 -39 121 -39c304 288 521 432 651 432
c40 0 83.667 -19 131 -57c46.667 -38.667 70 -75.667 70 -111c0 -21.333 -3.66699 -43.833 -11 -67.5s-18 -49.5 -32 -77.5c-30.667 -62 -71 -112.667 -121 -152c121.333 28.667 204 43 248 43v-213zM1733 352c0 19.333 -20.6689 38.667 -62.002 58
c-39.333 20 -80.333 30 -123 30c-108.667 0 -252 -84 -430 -252h90c58.667 0 117.334 5.16699 176.001 15.5s118.334 25.833 179.001 46.5c113.333 39.333 170 73.333 170 102zM1289 684.001l-115 109l-110 -117l-118 110l119 126l115 -109l112 118l115 -111zM1178 893.001
l-117 111l118 125l118 -110z" />
    <glyph glyph-name="uni069F.medi" unicode="&#x69f;" horiz-adv-x="1241" 
d="M1241 0c-73.333 0 -178.334 2.00195 -315.001 6.00195c-68 3.33301 -120.833 5.5 -158.5 6.5s-60.167 1.5 -67.5 1.5c-11.333 0 -31.166 -0.5 -59.499 -1.5s-65.833 -3.16699 -112.5 -6.5c-92 -4 -152 -6 -180 -6c-48.667 0 -93.667 13.667 -135 41
c-32 21.333 -62 48 -90 80c-24.667 30.667 -37 51.667 -37 63c0 19.333 16.333 29 49 29c109.333 0 180.333 12.333 213 37c86 60.667 129 131.667 129 213c0 100 -3 194.167 -9 282.5s-15.333 171.5 -28 249.5c-36.667 32.667 -55 62.667 -55 90c0 18 12.333 48.333 37 91
c56.667 99.333 89.334 149 98.001 149c16.667 0 25 -7.33301 25 -22c0 -2 -0.833008 -5.83301 -2.5 -11.5s-3.33398 -12.334 -5.00098 -20.001s-3.33398 -15.834 -5.00098 -24.501s-2.5 -16.667 -2.5 -24c0 -8.66699 2.16699 -18.167 6.5 -28.5s10 -20.333 17 -30
s15.333 -18.167 25 -25.5s19.5 -12.333 29.5 -15c23.333 -6 35 -14 35 -24c0 -24.667 -14.333 -69 -43 -133c-5.33301 -13.333 -12 -23.166 -20 -29.499s-17 -9.5 -27 -9.5c8 -56 14.167 -107.833 18.5 -155.5s6.5 -92.167 6.5 -133.5
c0 -96.667 -8.33301 -164.334 -25 -203.001c172 142 307 213 405 213c42 0 85 -19 129 -57c46.667 -36 70 -73 70 -111c0 -24 -4 -49.5 -12 -76.5s-19.333 -53.833 -34 -80.5s-32.5 -52.5 -53.5 -77.5s-44.5 -47.833 -70.5 -68.5c134.667 23.333 219.334 35 254.001 35v-213
zM1022 367.002c0 9.33301 -5.16699 18.834 -15.5 28.501s-25.5 19.167 -45.5 28.5c-42.667 20.667 -83.667 31 -123 31c-108.667 0 -252 -84 -430 -252h90c116 0 234 20.333 354 61c113.333 39.333 170 73.666 170 102.999zM1078 932.003l-115 109l-110 -117l-118 110
l119 126l115 -109l112 118l115 -111zM966.999 1141l-117 111l118 125l118 -110z" />
    <glyph glyph-name="uni06A0.init" unicode="&#x6a0;" horiz-adv-x="905" 
d="M766 174l-164 -47.001l-164 -49c-91.333 -25.333 -168.666 -44.666 -231.999 -57.999s-113 -20 -149 -20h-51c-50.667 -0 -76 35.333 -76 106c0 71.333 25.333 107 76 107c52.667 0 97.167 1 133.5 3s64.166 5.66699 83.499 11c-17.333 23.333 -30.166 48.333 -38.499 75
s-12.5 55 -12.5 85c0 21.333 2.66699 44.333 8 69s13.666 51.667 24.999 81c22 58.667 43.667 98.667 65 120c46.667 48 101.334 72 164.001 72s122.667 -24 180 -72c48 -39.333 72 -67.333 72 -84c0 -13.333 -5.33301 -20 -16 -20c-1.33301 0 -6.5 1.5 -15.5 4.5
s-21.833 8.16699 -38.5 15.5c-30.667 15.333 -59.334 23 -86.001 23c-19.333 0 -40.666 -2.66699 -63.999 -8s-49 -13.666 -77 -24.999c-30 -12 -56.5 -25.333 -79.5 -40s-42.167 -30.667 -57.5 -48c3.33301 -19.333 11.5 -38.833 24.5 -58.5s30.167 -39.834 51.5 -60.501
c43.333 -39.333 90.333 -65 141 -77c19.333 3.33301 43.666 8.5 72.999 15.5s63 16.833 101 29.5l123.5 38c29.667 9.33301 49.167 15 58.5 17zM529 864.999l-115 109l-110 -117l-118 110l119 126l115 -109l112 118l115 -111zM418 1074l-117 111l118 125l118 -110z" />
    <glyph glyph-name="uni06A0.medi" unicode="&#x6a0;" horiz-adv-x="758" 
d="M758 0c-138.667 0 -253.997 53.335 -345.997 160.002c-104.667 -106.667 -240 -160 -406 -160c-50.667 0 -76 35.333 -76 106c0 71.333 25.333 107 76 107c139.333 0 244.666 22 315.999 66c-17.333 19.333 -38.5 35.5 -63.5 48.5s-54.5 23.167 -88.5 30.5
c-19.333 4 -29 10.333 -29 19c0 5.33301 2 13.333 6 24s9.66699 23.667 17 39c9.33301 19.333 19.333 37.166 30 53.499s21.667 30.166 33 41.499c45.333 43.333 105.666 65 180.999 65s136.666 -15.667 183.999 -47c43.333 -31.333 65 -69 65 -113
c0 -26.667 -14.333 -59.334 -43 -98.001c-13.333 -17.333 -26.5 -32.333 -39.5 -45s-26.167 -23.667 -39.5 -33c30.667 -17.333 64.5 -30.166 101.5 -38.499s77.5 -12.5 121.5 -12.5v-213v0zM512.003 771.002l-115 109l-110 -117l-118 110l119 126l115 -109l112 118
l115 -111zM401.003 980.002l-117 111l118 125l118 -110z" />
    <glyph glyph-name="uni06A0.fina" unicode="&#x6a0;" horiz-adv-x="991" 
d="M1167 -604c0 -7.33301 -4.00195 -14.333 -12.002 -21s-20.333 -12.667 -37 -18c-11.333 -4 -30.5 -12.167 -57.5 -24.5l-106.5 -47.5c-34 -15.333 -77.833 -27 -131.5 -35s-117.5 -12 -191.5 -12c-367.333 0 -551 140.667 -551 422c0 270.667 103.667 489.667 311 657
c-36.667 28.667 -90 43 -160 43c-9.33301 0 -14 5.66699 -14 17c0 15.333 8.33301 40 25 74c9.33301 21.333 19.333 39.833 30 55.5s21.667 29.167 33 40.5c46 42 101.333 63 166 63c41.333 0 77.833 -4 109.5 -12s59.5 -19.667 83.5 -35c39.333 -26.667 59 -58 59 -94
c0 -25.333 -9.83301 -52.666 -29.5 -81.999s-49.5 -60 -89.5 -92c57.333 -54.667 130.333 -82 219 -82h168v-213h-94c-179.333 0 -311.666 80.667 -396.999 242c-214.667 -124.667 -322 -289.334 -322 -494.001c0 -226.667 192.667 -340 578 -340c86.667 0 170 2 250 6
l90.5 3c19.667 0.666992 28.834 1 27.501 1c28.667 0 43 -7.33301 43 -22zM601.998 767l-115 109l-110 -117l-118 110l119 126l115 -109l112 118l115 -111zM490.998 976l-117 111l118 125l118 -110z" />
    <glyph glyph-name="afii57459" unicode="&#x6a1;" horiz-adv-x="573" 
d="M524 367c0 -25.333 -1.50195 -50.334 -4.50195 -75.001s-8.16699 -49.667 -15.5 -75c-17.333 -55.333 -37.333 -94.333 -60 -117c-70.667 -66.667 -216.667 -100 -438 -100c-50.667 0 -76 35.333 -76 106c0 71.333 25.333 107 76 107c134.667 0 240 5.66699 316 17
s124.333 28.333 145 51c-4 12.667 -7.66699 23.5 -11 32.5s-6.66602 16.833 -9.99902 23.5s-6.5 12.5 -9.5 17.5l-8.5 14.5c-8 -17.333 -24.333 -34.333 -49 -51c-29.333 -19.333 -58 -29 -86 -29c-48 0 -84.333 16.833 -109 50.5s-37 78.834 -37 135.501
c0 21.333 3.66699 46.833 11 76.5s17.833 58 31.5 85s30.334 49.833 50.001 68.5s42.167 28 67.5 28c21.333 0 43.5 -8.5 66.5 -25.5s47.167 -45.833 72.5 -86.5c52 -86 78 -170.667 78 -254zM387.998 476.999c-8 18.667 -15.998 33.3311 -23.998 43.998
s-16 18.334 -24 23.001s-16.333 7.5 -25 8.5s-17.334 1.5 -26.001 1.5c-21.333 0 -39 -6.16699 -53 -18.5s-21 -29.166 -21 -50.499c0 -17.333 6.5 -30 19.5 -38s28.833 -12 47.5 -12s37.667 3.5 57 10.5s35.666 17.5 48.999 31.5z" />
    <glyph glyph-name="afii57374" unicode="&#x6a1;" horiz-adv-x="606" 
d="M606 0c-62.667 0 -120.499 8.5 -173.499 25.5s-102.167 42.5 -147.5 76.5c-50 -34 -98 -59.5 -144 -76.5s-91 -25.5 -135 -25.5c-50.667 -0 -76 35.333 -76 106c0 71.333 25.333 107 76 107c32 0 62.167 1 90.5 3s54.166 5.66699 77.499 11
c-7.33301 15.333 -12.833 32.833 -16.5 52.5s-5.5 41.834 -5.5 66.501c0 54.667 24.333 125.667 73 213c58 100 118.333 150 181 150c29.333 0 55 -22.667 77 -68c11.333 -21.333 19.666 -42.833 24.999 -64.5s8 -43.834 8 -66.501c0 -109.333 -30.667 -202.333 -92 -279
c36.667 -12 97.334 -18 182.001 -18v-213zM430.001 387c0 12.667 -2.33398 25.332 -7.00098 37.999s-11.167 24 -19.5 34s-18 18 -29 24s-22.5 9 -34.5 9c-15.333 0 -40.666 -16.667 -75.999 -50c-34 -29.333 -51 -53.666 -51 -72.999c0 -30.667 31.333 -62.334 94 -95.001
c82 40.667 123 78.334 123 113.001z" />
    <glyph glyph-name="afii52258" unicode="&#x6a1;" horiz-adv-x="1542" 
d="M1542 0c-116 0 -222.334 34.6699 -319.001 104.003c-211.333 -98 -426.333 -147 -645 -147c-153.333 0 -273.666 33.333 -360.999 100c-78 60 -117 136 -117 228c0 55.333 14.333 116.666 43 183.999c28.667 62.667 52 94 70 94c13.333 0 20 -6 20 -18
c0 -3.33301 -1.5 -11 -4.5 -23s-8.16699 -28.333 -15.5 -49c-12 -39.333 -18 -71.333 -18 -96c0 -50.667 35.333 -97 106 -139c84 -52 188.333 -78 313 -78c92 0 179.833 5.16699 263.5 15.5s163.834 26.166 240.501 47.499c-14.667 40.667 -22 81.667 -22 123
c0 54.667 24.333 125.667 73 213c58 100 118.333 150 181 150c29.333 0 55 -22.667 77 -68c11.333 -21.333 19.666 -42.833 24.999 -64.5s8 -43.834 8 -66.501c0 -102.667 -28.667 -195.667 -86 -279c30.667 -12 86.667 -18 168 -18v-213zM1374 387.003
c0 12.667 -2.33398 25.333 -7.00098 38s-11.167 24 -19.5 34s-18 18 -29 24s-22.5 9 -34.5 9c-15.333 0 -40.666 -16.667 -75.999 -50c-34 -30 -51 -54.333 -51 -73c0 -30.667 31.333 -62.334 94 -95.001c82 40.667 123 78.334 123 113.001z" />
    <glyph glyph-name="uni06A2.init" unicode="&#x6a2;" horiz-adv-x="573" 
d="M524 367c0 -25.333 -1.50195 -50.334 -4.50195 -75.001s-8.16699 -49.667 -15.5 -75c-17.333 -55.333 -37.333 -94.333 -60 -117c-70.667 -66.667 -216.667 -100 -438 -100c-50.667 0 -76 35.333 -76 106c0 71.333 25.333 107 76 107c134.667 0 240 5.66699 316 17
s124.333 28.333 145 51c-4 12.667 -7.66699 23.5 -11 32.5s-6.66602 16.833 -9.99902 23.5s-6.5 12.5 -9.5 17.5l-8.5 14.5c-8 -17.333 -24.333 -34.333 -49 -51c-29.333 -19.333 -58 -29 -86 -29c-48 0 -84.333 16.833 -109 50.5s-37 78.834 -37 135.501
c0 21.333 3.66699 46.833 11 76.5s17.833 58 31.5 85s30.334 49.833 50.001 68.5s42.167 28 67.5 28c21.333 0 43.5 -8.5 66.5 -25.5s47.167 -45.833 72.5 -86.5c52 -86 78 -170.667 78 -254zM387.998 476.999c-8 18.667 -15.998 33.3311 -23.998 43.998
s-16 18.334 -24 23.001s-16.333 7.5 -25 8.5s-17.334 1.5 -26.001 1.5c-21.333 0 -39 -6.16699 -53 -18.5s-21 -29.166 -21 -50.499c0 -17.333 6.5 -30 19.5 -38s28.833 -12 47.5 -12s37.667 3.5 57 10.5s35.666 17.5 48.999 31.5zM244 -402.004l-127 126l127 128l126 -128z
" />
    <glyph glyph-name="uni06A2.medi" unicode="&#x6a2;" horiz-adv-x="606" 
d="M606 0c-62.667 0 -120.499 8.5 -173.499 25.5s-102.167 42.5 -147.5 76.5c-50 -34 -98 -59.5 -144 -76.5s-91 -25.5 -135 -25.5c-50.667 -0 -76 35.333 -76 106c0 71.333 25.333 107 76 107c32 0 62.167 1 90.5 3s54.166 5.66699 77.499 11
c-7.33301 15.333 -12.833 32.833 -16.5 52.5s-5.5 41.834 -5.5 66.501c0 54.667 24.333 125.667 73 213c58 100 118.333 150 181 150c29.333 0 55 -22.667 77 -68c11.333 -21.333 19.666 -42.833 24.999 -64.5s8 -43.834 8 -66.501c0 -109.333 -30.667 -202.333 -92 -279
c36.667 -12 97.334 -18 182.001 -18v-213zM430.001 387c0 12.667 -2.33398 25.332 -7.00098 37.999s-11.167 24 -19.5 34s-18 18 -29 24s-22.5 9 -34.5 9c-15.333 0 -40.666 -16.667 -75.999 -50c-34 -29.333 -51 -53.666 -51 -72.999c0 -30.667 31.333 -62.334 94 -95.001
c82 40.667 123 78.334 123 113.001zM288 -440.002l-127 126l127 128l126 -128z" />
    <glyph glyph-name="uni06A2.fina" unicode="&#x6a2;" horiz-adv-x="1542" 
d="M1542 0c-116 0 -222.334 34.6699 -319.001 104.003c-211.333 -98 -426.333 -147 -645 -147c-153.333 0 -273.666 33.333 -360.999 100c-78 60 -117 136 -117 228c0 55.333 14.333 116.666 43 183.999c28.667 62.667 52 94 70 94c13.333 0 20 -6 20 -18
c0 -3.33301 -1.5 -11 -4.5 -23s-8.16699 -28.333 -15.5 -49c-12 -39.333 -18 -71.333 -18 -96c0 -50.667 35.333 -97 106 -139c84 -52 188.333 -78 313 -78c92 0 179.833 5.16699 263.5 15.5s163.834 26.166 240.501 47.499c-14.667 40.667 -22 81.667 -22 123
c0 54.667 24.333 125.667 73 213c58 100 118.333 150 181 150c29.333 0 55 -22.667 77 -68c11.333 -21.333 19.666 -42.833 24.999 -64.5s8 -43.834 8 -66.501c0 -102.667 -28.667 -195.667 -86 -279c30.667 -12 86.667 -18 168 -18v-213zM1374 387.003
c0 12.667 -2.33398 25.333 -7.00098 38s-11.167 24 -19.5 34s-18 18 -29 24s-22.5 9 -34.5 9c-15.333 0 -40.666 -16.667 -75.999 -50c-34 -30 -51 -54.333 -51 -73c0 -30.667 31.333 -62.334 94 -95.001c82 40.667 123 78.334 123 113.001zM1229 -391.998l-127 126l127 128
l126 -128z" />
    <glyph glyph-name="uni06A3.init" unicode="&#x6a3;" horiz-adv-x="608" 
d="M524 367c0 -25.333 -1.50195 -50.334 -4.50195 -75.001s-8.16699 -49.667 -15.5 -75c-17.333 -55.333 -37.333 -94.333 -60 -117c-70.667 -66.667 -216.667 -100 -438 -100c-50.667 0 -76 35.333 -76 106c0 71.333 25.333 107 76 107c134.667 0 240 5.66699 316 17
s124.333 28.333 145 51c-4 12.667 -7.66699 23.5 -11 32.5s-6.66602 16.833 -9.99902 23.5s-6.5 12.5 -9.5 17.5l-8.5 14.5c-8 -17.333 -24.333 -34.333 -49 -51c-29.333 -19.333 -58 -29 -86 -29c-48 0 -84.333 16.833 -109 50.5s-37 78.834 -37 135.501
c0 21.333 3.66699 46.833 11 76.5s17.833 58 31.5 85s30.334 49.833 50.001 68.5s42.167 28 67.5 28c21.333 0 43.5 -8.5 66.5 -25.5s47.167 -45.833 72.5 -86.5c52 -86 78 -170.667 78 -254zM387.998 476.999c-8 18.667 -15.998 33.3311 -23.998 43.998
s-16 18.334 -24 23.001s-16.333 7.5 -25 8.5s-17.334 1.5 -26.001 1.5c-21.333 0 -39 -6.16699 -53 -18.5s-21 -29.166 -21 -50.499c0 -17.333 6.5 -30 19.5 -38s28.833 -12 47.5 -12s37.667 3.5 57 10.5s35.666 17.5 48.999 31.5zM302 863.996l-127 126l127 128l126 -128z
M270 -426.004l-127 126l127 128l126 -128z" />
    <glyph glyph-name="uni06A3.medi" unicode="&#x6a3;" horiz-adv-x="606" 
d="M606 0c-62.667 0 -120.499 8.5 -173.499 25.5s-102.167 42.5 -147.5 76.5c-50 -34 -98 -59.5 -144 -76.5s-91 -25.5 -135 -25.5c-50.667 -0 -76 35.333 -76 106c0 71.333 25.333 107 76 107c32 0 62.167 1 90.5 3s54.166 5.66699 77.499 11
c-7.33301 15.333 -12.833 32.833 -16.5 52.5s-5.5 41.834 -5.5 66.501c0 54.667 24.333 125.667 73 213c58 100 118.333 150 181 150c29.333 0 55 -22.667 77 -68c11.333 -21.333 19.666 -42.833 24.999 -64.5s8 -43.834 8 -66.501c0 -109.333 -30.667 -202.333 -92 -279
c36.667 -12 97.334 -18 182.001 -18v-213zM430.001 387c0 12.667 -2.33398 25.332 -7.00098 37.999s-11.167 24 -19.5 34s-18 18 -29 24s-22.5 9 -34.5 9c-15.333 0 -40.666 -16.667 -75.999 -50c-34 -29.333 -51 -53.666 -51 -72.999c0 -30.667 31.333 -62.334 94 -95.001
c82 40.667 123 78.334 123 113.001zM357 853.998l-127 126l127 128l126 -128zM287 -434.002l-127 126l127 128l126 -128z" />
    <glyph glyph-name="uni06A3.fina" unicode="&#x6a3;" horiz-adv-x="1542" 
d="M1542 0c-116 0 -222.334 34.6699 -319.001 104.003c-211.333 -98 -426.333 -147 -645 -147c-153.333 0 -273.666 33.333 -360.999 100c-78 60 -117 136 -117 228c0 55.333 14.333 116.666 43 183.999c28.667 62.667 52 94 70 94c13.333 0 20 -6 20 -18
c0 -3.33301 -1.5 -11 -4.5 -23s-8.16699 -28.333 -15.5 -49c-12 -39.333 -18 -71.333 -18 -96c0 -50.667 35.333 -97 106 -139c84 -52 188.333 -78 313 -78c92 0 179.833 5.16699 263.5 15.5s163.834 26.166 240.501 47.499c-14.667 40.667 -22 81.667 -22 123
c0 54.667 24.333 125.667 73 213c58 100 118.333 150 181 150c29.333 0 55 -22.667 77 -68c11.333 -21.333 19.666 -42.833 24.999 -64.5s8 -43.834 8 -66.501c0 -102.667 -28.667 -195.667 -86 -279c30.667 -12 86.667 -18 168 -18v-213zM1374 387.003
c0 12.667 -2.33398 25.333 -7.00098 38s-11.167 24 -19.5 34s-18 18 -29 24s-22.5 9 -34.5 9c-15.333 0 -40.666 -16.667 -75.999 -50c-34 -30 -51 -54.333 -51 -73c0 -30.667 31.333 -62.334 94 -95.001c82 40.667 123 78.334 123 113.001zM1301 838.002l-127 126l127 128
l126 -128zM1242 -371.998l-127 126l127 128l126 -128z" />
    <glyph glyph-name="uni06A5.init" unicode="&#x6a5;" horiz-adv-x="573" 
d="M524 367c0 -25.333 -1.50195 -50.334 -4.50195 -75.001s-8.16699 -49.667 -15.5 -75c-17.333 -55.333 -37.333 -94.333 -60 -117c-70.667 -66.667 -216.667 -100 -438 -100c-50.667 0 -76 35.333 -76 106c0 71.333 25.333 107 76 107c134.667 0 240 5.66699 316 17
s124.333 28.333 145 51c-4 12.667 -7.66699 23.5 -11 32.5s-6.66602 16.833 -9.99902 23.5s-6.5 12.5 -9.5 17.5l-8.5 14.5c-8 -17.333 -24.333 -34.333 -49 -51c-29.333 -19.333 -58 -29 -86 -29c-48 0 -84.333 16.833 -109 50.5s-37 78.834 -37 135.501
c0 21.333 3.66699 46.833 11 76.5s17.833 58 31.5 85s30.334 49.833 50.001 68.5s42.167 28 67.5 28c21.333 0 43.5 -8.5 66.5 -25.5s47.167 -45.833 72.5 -86.5c52 -86 78 -170.667 78 -254zM387.998 476.999c-8 18.667 -15.998 33.3311 -23.998 43.998
s-16 18.334 -24 23.001s-16.333 7.5 -25 8.5s-17.334 1.5 -26.001 1.5c-21.333 0 -39 -6.16699 -53 -18.5s-21 -29.166 -21 -50.499c0 -17.333 6.5 -30 19.5 -38s28.833 -12 47.5 -12s37.667 3.5 57 10.5s35.666 17.5 48.999 31.5zM220 -299.004l110 115l123 -123l-111 -113
l-116 111l-111 -111l-123 119l113 117zM228 -397.004l123 -123l-113 -113l-123 119z" />
    <glyph glyph-name="uni06A5.medi" unicode="&#x6a5;" horiz-adv-x="606" 
d="M606 0c-62.667 0 -120.499 8.5 -173.499 25.5s-102.167 42.5 -147.5 76.5c-50 -34 -98 -59.5 -144 -76.5s-91 -25.5 -135 -25.5c-50.667 -0 -76 35.333 -76 106c0 71.333 25.333 107 76 107c32 0 62.167 1 90.5 3s54.166 5.66699 77.499 11
c-7.33301 15.333 -12.833 32.833 -16.5 52.5s-5.5 41.834 -5.5 66.501c0 54.667 24.333 125.667 73 213c58 100 118.333 150 181 150c29.333 0 55 -22.667 77 -68c11.333 -21.333 19.666 -42.833 24.999 -64.5s8 -43.834 8 -66.501c0 -109.333 -30.667 -202.333 -92 -279
c36.667 -12 97.334 -18 182.001 -18v-213zM430.001 387c0 12.667 -2.33398 25.332 -7.00098 37.999s-11.167 24 -19.5 34s-18 18 -29 24s-22.5 9 -34.5 9c-15.333 0 -40.666 -16.667 -75.999 -50c-34 -29.333 -51 -53.666 -51 -72.999c0 -30.667 31.333 -62.334 94 -95.001
c82 40.667 123 78.334 123 113.001zM289 -272.002l110 115l123 -123l-111 -113l-116 111l-111 -111l-123 119l113 117zM297 -370.002l123 -123l-113 -113l-123 119z" />
    <glyph glyph-name="uni06A5.fina" unicode="&#x6a5;" horiz-adv-x="1542" 
d="M1542 0c-116 0 -222.334 34.6699 -319.001 104.003c-211.333 -98 -426.333 -147 -645 -147c-153.333 0 -273.666 33.333 -360.999 100c-78 60 -117 136 -117 228c0 55.333 14.333 116.666 43 183.999c28.667 62.667 52 94 70 94c13.333 0 20 -6 20 -18
c0 -3.33301 -1.5 -11 -4.5 -23s-8.16699 -28.333 -15.5 -49c-12 -39.333 -18 -71.333 -18 -96c0 -50.667 35.333 -97 106 -139c84 -52 188.333 -78 313 -78c92 0 179.833 5.16699 263.5 15.5s163.834 26.166 240.501 47.499c-14.667 40.667 -22 81.667 -22 123
c0 54.667 24.333 125.667 73 213c58 100 118.333 150 181 150c29.333 0 55 -22.667 77 -68c11.333 -21.333 19.666 -42.833 24.999 -64.5s8 -43.834 8 -66.501c0 -102.667 -28.667 -195.667 -86 -279c30.667 -12 86.667 -18 168 -18v-213zM1374 387.003
c0 12.667 -2.33398 25.333 -7.00098 38s-11.167 24 -19.5 34s-18 18 -29 24s-22.5 9 -34.5 9c-15.333 0 -40.666 -16.667 -75.999 -50c-34 -30 -51 -54.333 -51 -73c0 -30.667 31.333 -62.334 94 -95.001c82 40.667 123 78.334 123 113.001zM1186 -265.998l110 115l123 -123
l-111 -113l-116 111l-111 -111l-123 119l113 117zM1194 -363.998l123 -123l-113 -113l-123 119z" />
    <glyph glyph-name="uni06A7.fina" unicode="&#x6a7;" horiz-adv-x="1126" 
d="M1008 0c0 -93.333 -33.0059 -174.001 -99.0059 -242.001c-23.333 -24.667 -50.166 -47.334 -80.499 -68.001s-63.5 -39.667 -99.5 -57c-92.667 -43.333 -187.667 -65 -285 -65c-121.333 0 -212.666 34.667 -273.999 104c-53.333 60.667 -80 136.667 -80 228
c0 43.333 4.33301 85.333 13 126s21.334 80.334 38.001 119.001c30.667 67.333 54.667 101 72 101c18 0 27 -6.33301 27 -19c0 -1.33301 -2.5 -9 -7.5 -23l-21.5 -63c-18 -55.333 -27 -101.666 -27 -138.999c0 -64 24 -118 72 -162c54 -46 132.667 -69 236 -69
c44 0 88.333 4 133 12s89 20.333 133 37c84 30 148 68 192 114l-10 63c-10 -3.33301 -22.667 -6 -38 -8s-35.333 -3 -60 -3c-31.333 0 -59.666 3.5 -84.999 10.5s-46.666 18.5 -63.999 34.5s-30.333 37 -39 63s-12 57.667 -10 95c2 34 7.33301 67.333 16 100
s21.667 63.667 39 93c34 58.667 72.667 88 116 88c18.667 0 37.334 -7.16699 56.001 -21.5s36 -33.5 52 -57.5s30.167 -51.5 42.5 -82.5s21.5 -62.833 27.5 -95.5h133v-213h-118zM898.994 208.999c-15.333 38 -30.832 63.999 -46.499 77.999s-33.167 21 -52.5 21
c-10 0 -19.667 -2 -29 -6s-17.833 -9.5 -25.5 -16.5s-13.834 -14.833 -18.501 -23.5s-7 -18 -7 -28c0 -16.667 7.66699 -28.167 23 -34.5s33.166 -9.66602 53.499 -9.99902s40.333 1.66699 60 6s33.834 8.83301 42.501 13.5zM781.995 574.998l-127 126l127 128l126 -128z
" />
    <glyph glyph-name="uni06A8.fina" unicode="&#x6a8;" horiz-adv-x="1126" 
d="M1008 0c0 -93.333 -33.0059 -174.001 -99.0059 -242.001c-23.333 -24.667 -50.166 -47.334 -80.499 -68.001s-63.5 -39.667 -99.5 -57c-92.667 -43.333 -187.667 -65 -285 -65c-121.333 0 -212.666 34.667 -273.999 104c-53.333 60.667 -80 136.667 -80 228
c0 43.333 4.33301 85.333 13 126s21.334 80.334 38.001 119.001c30.667 67.333 54.667 101 72 101c18 0 27 -6.33301 27 -19c0 -1.33301 -2.5 -9 -7.5 -23l-21.5 -63c-18 -55.333 -27 -101.666 -27 -138.999c0 -64 24 -118 72 -162c54 -46 132.667 -69 236 -69
c44 0 88.333 4 133 12s89 20.333 133 37c84 30 148 68 192 114l-10 63c-10 -3.33301 -22.667 -6 -38 -8s-35.333 -3 -60 -3c-31.333 0 -59.666 3.5 -84.999 10.5s-46.666 18.5 -63.999 34.5s-30.333 37 -39 63s-12 57.667 -10 95c2 34 7.33301 67.333 16 100
s21.667 63.667 39 93c34 58.667 72.667 88 116 88c18.667 0 37.334 -7.16699 56.001 -21.5s36 -33.5 52 -57.5s30.167 -51.5 42.5 -82.5s21.5 -62.833 27.5 -95.5h133v-213h-118zM898.994 208.999c-15.333 38 -30.832 63.999 -46.499 77.999s-33.167 21 -52.5 21
c-10 0 -19.667 -2 -29 -6s-17.833 -9.5 -25.5 -16.5s-13.834 -14.833 -18.501 -23.5s-7 -18 -7 -28c0 -16.667 7.66699 -28.167 23 -34.5s33.166 -9.66602 53.499 -9.99902s40.333 1.66699 60 6s33.834 8.83301 42.501 13.5zM884.995 549.998l-115 109l-110 -117l-118 110
l119 126l115 -109l112 118l115 -111zM773.995 758.998l-117 111l118 125l118 -110z" />
    <glyph glyph-name="uni06AA.init" unicode="&#x6aa;" horiz-adv-x="1694" 
d="M-2 214c671.333 14.667 1164.01 45.3291 1478.01 91.9961c-1.33301 35.333 -9.33301 65.333 -24 90s-33.334 44.834 -56.001 60.501s-47.834 27 -75.501 34s-55.167 10.833 -82.5 11.5c-28 0 -62.833 -1.16699 -104.5 -3.5l-137.5 -8
c-50 -3 -103.167 -5.83301 -159.5 -8.5s-113.5 -5 -171.5 -7s-115.667 -3 -173 -3s-112 1.66699 -164 5c-41.333 3.33301 -76 7.5 -104 12.5s-50.833 11.167 -68.5 18.5s-30.334 16.166 -38.001 26.499s-11.834 22.5 -12.501 36.5
c0.666992 36.667 12.167 74.334 34.5 113.001s51.666 77 87.999 115s78 75.333 125 112s95.5 71.5 145.5 104.5s99.833 63.667 149.5 92s95.5 53.333 137.5 75s78.167 39.334 108.5 53.001s51.5 22.167 63.5 25.5s19.667 1 23 -7s4 -21.333 2 -40s-6.33301 -42.667 -13 -72
l-23 -102c-46 -16.667 -95.333 -35.5 -148 -56.5s-104.834 -43 -156.501 -66l-149 -69c-47.667 -23 -89.834 -45.167 -126.501 -66.5s-66 -40.833 -88 -58.5s-33.333 -32.5 -34 -44.5c4 -17.333 19.5 -31 46.5 -41s61.667 -17 104 -21s90.833 -5.83301 145.5 -5.5
s112.167 2 172.5 5s121.666 6.83301 183.999 11.5l180 13c57.667 4 111.334 7.33301 161.001 10s91.834 3.33398 126.501 2.00098c59.333 -4.66699 108.666 -18.667 147.999 -42s68.333 -52.5 87 -87.5s27.334 -74.167 26.001 -117.5s-12.666 -87.666 -33.999 -132.999
l-72 -154c-394.667 -51.333 -903.667 -91 -1527 -119c-8.66699 18 -15.834 36 -21.501 54s-9 36 -10 54s1 35.833 6 53.5s13.5 35.167 25.5 52.5h6v0z" />
    <glyph glyph-name="uni06AA.medi" unicode="&#x6aa;" horiz-adv-x="1907" 
d="M-2 213c653.333 11.333 1146 48.999 1478 112.999c-1.33301 35.333 -9.33301 64.666 -24 87.999s-33.334 42 -56.001 56s-47.834 23.833 -75.501 29.5s-55.167 8.83398 -82.5 9.50098c-28 0 -62.833 -1.33301 -104.5 -4l-137.5 -9l-159.5 -10.5
c-56.333 -3.66699 -113.5 -6.66699 -171.5 -9s-115.667 -3.66602 -173 -3.99902s-112 1.16699 -164 4.5c-41.333 3.33301 -76 7.5 -104 12.5s-50.833 11.167 -68.5 18.5s-30.334 16.166 -38.001 26.499s-11.834 22.5 -12.501 36.5
c0.666992 36.667 12.167 74.334 34.5 113.001s51.666 77 87.999 115s78 75.333 125 112s95.5 71.5 145.5 104.5s99.833 63.667 149.5 92s95.5 53.333 137.5 75s78.167 39.334 108.5 53.001s51.5 22.167 63.5 25.5s19.5 1 22.5 -7s3.16699 -21.333 0.5 -40
s-7.5 -42.5 -14.5 -71.5l-23.5 -101.5c-46 -16.667 -95.167 -35.667 -147.5 -57l-155.5 -66c-51.333 -22.667 -100.666 -45.667 -147.999 -69s-89.166 -45.5 -125.499 -66.5s-65.5 -40.5 -87.5 -58.5s-33.333 -33 -34 -45c4 -17.333 19.5 -30.833 46.5 -40.5
s61.667 -16.334 104 -20.001s90.833 -5.16699 145.5 -4.5s112.167 2.83398 172.5 6.50098s121.666 8 183.999 13l180 14c57.667 4.33301 111.334 7.83301 161.001 10.5s91.834 3.33398 126.501 2.00098c59.333 -4.66699 108.666 -17.834 147.999 -39.501
s68.333 -49.167 87 -82.5s27.334 -71 26.001 -113s-12.666 -85.667 -33.999 -131c-4.66699 -25.333 7.16602 -45.333 35.499 -60s85.5 -21.667 171.5 -21h127c15.333 -34.667 23 -70.167 23 -106.5s-7.66699 -71.833 -23 -106.5h-112
c-82.667 -1.33301 -144 1.16699 -184 7.5s-70 16.833 -90 31.5s-28 48 -24 100c-423.333 -72.667 -931 -119 -1523 -139c-8.66699 18 -15.834 36 -21.501 54s-9 36 -10 54s1 35.667 6 53s13.5 34.666 25.5 51.999h6v0z" />
    <glyph glyph-name="uni06AA.fina" unicode="&#x6aa;" horiz-adv-x="2645" 
d="M298 243c37.333 -24 84.002 -44.0049 140.002 -60.0049s121.667 -24.667 197 -26h142c40 0 123.333 1 250 3s303.167 12.833 529.5 32.5s445.5 45.167 657.5 76.5c0 6.66699 0.166992 14.667 0.5 24s-0.166992 17 -1.5 23c-4 28.667 -10.5 55.334 -19.5 80.001
s-22.667 45.667 -41 63s-42.666 30.5 -73 39.5c-30.333 9 -68.5 12.5 -114.5 10.5c-28.667 0 -63.834 -1.33301 -105.501 -4l-139 -9l-162 -10.5c-57 -3.66699 -114.833 -6.66699 -173.5 -9s-117 -3.66602 -175 -3.99902s-113 1.16699 -165 4.5
c-41.333 3.33301 -76.5 7.5 -105.5 12.5s-52.833 11.167 -71.5 18.5s-32.334 16.166 -41.001 26.499s-13.334 22.5 -14.001 36.5c0.666992 36.667 12.167 75.167 34.5 115.5s51.833 81 88.5 122s78.5 81.833 125.5 122.5s95.5 79.5 145.5 116.5s99.833 71.5 149.5 103.5
l137.5 85c42 24.667 78.333 44.834 109 60.501s52 25.167 64 28.5s19.5 1.33301 22.5 -6s3.16699 -20.166 0.5 -38.499s-7.66699 -41.833 -15 -70.5s-15.333 -62.334 -24 -101.001l-271.5 -124.5c-83 -39.667 -154.667 -76.5 -215 -110.5s-107.666 -64.667 -141.999 -92
s-51.833 -50 -52.5 -68c4 -17.333 19.167 -31 45.5 -41s60.333 -17 102 -21s89.5 -5.66699 143.5 -5s110.667 2.5 170 5.5s119.666 6.83301 180.999 11.5l177.5 13c57 4 110 7.33301 159 10s90.833 3.33398 125.5 2.00098c54 -4.66699 100.5 -20.5 139.5 -47.5
s69.667 -60.333 92 -100s36.5 -82.834 42.5 -129.501s3 -91.667 -9 -135c-0.666992 -21.333 11.333 -37.333 36 -48c28.667 -12 86 -17.333 172 -16h108c15.333 -34.667 23 -70.167 23 -106.5s-7.66699 -71.833 -23 -106.5h-93c-82.667 -1.33301 -144 0.833984 -184 6.50098
s-69.667 14.334 -89 26.001s-34.333 28.834 -45 51.501c-448.667 -59.333 -794.5 -94.333 -1037.5 -105s-398.167 -16 -465.5 -16c-85.333 -0.666992 -144.666 0.333008 -177.999 3c-67.333 2 -127.833 10.667 -181.5 26s-101.5 38.333 -143.5 69
c-82 58.667 -123 131.667 -123 219c0 56 14.333 117.333 43 184c28.667 62.667 52 94 70 94c13.333 0 20 -6 20 -18c0 -3.33301 -1.5 -11 -4.5 -23s-8.16699 -27.667 -15.5 -47c-12 -39.333 -18 -72 -18 -98c0 -50 29.333 -93 88 -129z" />
    <glyph glyph-name="uni06AB.init" unicode="&#x6ab;" horiz-adv-x="808" 
d="M805 1116c-97.333 -44 -184.332 -85.332 -260.999 -123.999s-142.667 -73.5 -198 -104.5s-99.5 -58 -132.5 -81s-54.167 -40.5 -63.5 -52.5c69.333 -38.667 127.166 -74 173.499 -106s83.5 -63.5 111.5 -94.5s47.833 -62.667 59.5 -95s17.5 -67.833 17.5 -106.5
c0 -47.333 -7 -92.166 -21 -134.499s-37 -79.666 -69 -111.999s-74 -58 -126 -77s-116 -28.5 -192 -28.5h-98c-50.667 0 -76 35.333 -76 106c0 71.333 25.333 107 76 107h88c48.667 0 93.667 3.66699 135 11s77 16 107 26s53.5 20.667 70.5 32s25.5 21 25.5 29
c0 12 -2.83301 24.333 -8.5 37s-15.834 26.167 -30.501 40.5s-34.834 30.333 -60.501 48s-58.834 38.167 -99.501 61.5c-32 17.333 -58.167 33.333 -78.5 48s-36.166 29.667 -47.499 45s-19 32.166 -23 50.499s-6 39.5 -6 63.5c0 26.667 1.16699 52.167 3.5 76.5
s9.5 48 21.5 71s30.333 46.167 55 69.5s59.334 47.666 104.001 72.999c18.667 11.333 44.334 25.666 77.001 42.999l107 57l120 62.5l116 58.5l95.5 46.5c27.667 13 47.167 21.5 58.5 25.5l-31 -172v0zM696.001 952.001c0 -53.333 -13.667 -99.667 -41 -139
c-31.333 -45.333 -71.666 -68 -120.999 -68c-34 0 -61.333 10.5 -82 31.5s-31 47.5 -31 79.5c0 48.667 16.667 97.667 50 147c34.667 56 76.334 84 125.001 84c31.333 0 55.666 -15 72.999 -45c9.33301 -13.333 16.166 -27.5 20.499 -42.5s6.5 -30.833 6.5 -47.5z
M632.001 919c0 20.667 -6.16797 37.168 -18.501 49.501s-25.166 18.5 -38.499 18.5c-20.667 0 -39.667 -9 -57 -27c-19.333 -18 -29 -41.333 -29 -70c0 -6.66699 2 -13.334 6 -20.001s8.83301 -12.834 14.5 -18.501s12 -10.167 19 -13.5s13.5 -5 19.5 -5
c10 0 20 2.33301 30 7s19 10.834 27 18.501s14.5 16.667 19.5 27s7.5 21.5 7.5 33.5z" />
    <glyph glyph-name="uni06AB.medi" unicode="&#x6ab;" horiz-adv-x="1063" 
d="M-47 160c0 19.333 5.83203 33 17.499 41s23.5 12 35.5 12h80c42.667 0 83.5 3 122.5 9s73.333 14.833 103 26.5s53.167 25.667 70.5 42s26 34.833 26 55.5c0 12 -3 24.833 -9 38.5s-16.5 28.334 -31.5 44.001s-35 32.667 -60 51s-56.5 38.166 -94.5 59.499
c-32 19.333 -59.167 38 -81.5 56s-40.5 36 -54.5 54s-24.167 36.333 -30.5 55s-9.5 38.667 -9.5 60c0 50 16.167 96.5 48.5 139.5s77.5 81.167 135.5 114.5l80.5 45.5l108.5 58l122.5 62.5l122 60l107.5 49.5c32.667 14.333 58.667 24.833 78 31.5l-33 -188
c-54.667 -22 -109.667 -45.667 -165 -71l-161 -76l-146.5 -74l-120.5 -65.5c-34.667 -19.667 -62.667 -36.334 -84 -50.001s-33.333 -22.5 -36 -26.5c88.667 -38 187.667 -92.833 297 -164.5s231.666 -160.834 366.999 -267.501c36 -30 68.167 -53.5 96.5 -70.5
s54.333 -29.833 78 -38.5s46 -14.167 67 -16.5s42.167 -3.5 63.5 -3.5v-213c-25.333 0 -50.166 1.66699 -74.499 5s-48.666 10 -72.999 20s-49 24 -74 42s-50.833 42 -77.5 72l-70 72.5l-81.5 82l-76 73.5c-23.667 22 -41.5 37 -53.5 45
c1.33301 -7.33301 2.33301 -17.666 3 -30.999s1 -29.666 1 -48.999c0 -52 -9.33301 -98.667 -28 -140s-46 -76.166 -82 -104.499s-80.167 -50 -132.5 -65s-111.833 -22.5 -178.5 -22.5h-60c-19.333 0 -33 5.16699 -41 15.5s-12 22.166 -12 35.499v109v0zM754.999 1022
c0 -53.333 -13.667 -99.667 -41 -139c-31.333 -45.333 -71.666 -68 -120.999 -68c-34 0 -61.333 10.5 -82 31.5s-31 47.5 -31 79.5c0 48.667 16.667 97.667 50 147c34.667 56 76.334 84 125.001 84c31.333 0 55.666 -15 72.999 -45
c9.33301 -13.333 16.166 -27.5 20.499 -42.5s6.5 -30.833 6.5 -47.5zM690.999 988.999c0 20.667 -6.16797 37.168 -18.501 49.501s-25.166 18.5 -38.499 18.5c-20.667 0 -39.667 -9 -57 -27c-19.333 -18 -29 -41.333 -29 -70c0 -6.66699 2 -13.334 6 -20.001
s8.83301 -12.834 14.5 -18.501s12 -10.167 19 -13.5s13.5 -5 19.5 -5c10 0 20 2.33301 30 7s19 10.834 27 18.501s14.5 16.667 19.5 27s7.5 21.5 7.5 33.5z" />
    <glyph glyph-name="uni06AB.fina" unicode="&#x6ab;" horiz-adv-x="1970" 
d="M1970 0c-25.333 0 -49.832 1.83398 -73.499 5.50098s-47.5 10.5 -71.5 20.5s-48.667 24 -74 42s-52 41.667 -80 71l-54.5 57l-60.5 62l-61 60l-55 52.5c-16.667 15.667 -30.667 28.334 -42 38.001s-18.666 15.5 -21.999 17.5c3.33301 -9.33301 6.33301 -18.5 9 -27.5
s4 -20.167 4 -33.5c0 -49.333 -16.833 -98.333 -50.5 -147s-84.167 -92.334 -151.5 -131.001s-152 -70 -254 -94s-221.333 -36 -358 -36c-76 0 -143.333 7.83301 -202 23.5s-108.334 37.5 -149.001 65.5s-71.5 61.333 -92.5 100s-31.5 81.334 -31.5 128.001
c0 34 4.5 67.5 13.5 100.5s19.5 62.333 31.5 88s24.333 46.5 37 62.5s23 24 31 24c7.33301 0 12.166 -2.33301 14.499 -7s3.5 -10.667 3.5 -18c0 -2.66699 -1.83301 -8.83398 -5.5 -18.501l-12.5 -34.5c-4.66699 -13.333 -8.83398 -28 -12.501 -44s-5.5 -31.333 -5.5 -46
c0 -35.333 12.667 -66.666 38 -93.999s59 -50.5 101 -69.5s90 -33.333 144 -43s109.667 -14.5 167 -14.5c56.667 0 112.334 2.83301 167.001 8.5s106.667 13.334 156 23.001s94.833 21 136.5 34s77.667 27 108 42s54 30.5 71 46.5s25.5 32 25.5 48
c0 14 -5.16699 28.167 -15.5 42.5s-24.166 28.833 -41.499 43.5s-37.333 29.667 -60 45s-46.667 30.666 -72 45.999c-32 18.667 -59.167 37 -81.5 55s-40.5 36.167 -54.5 54.5s-24.167 37 -30.5 56s-9.5 38.833 -9.5 59.5c0 50 16.333 96.5 49 139.5
s77.667 81.167 135 114.5l80.5 45.5l108 58l122 62.5l122 60l107.5 49.5c32.667 14.333 59 24.833 79 31.5l-33 -188c-54 -22 -108.833 -45.667 -164.5 -71l-161 -76l-146.5 -74l-121 -65.5c-34.667 -19.667 -62.667 -36.334 -84 -50.001s-33.333 -22.5 -36 -26.5
c89.333 -38 188.5 -92.833 297.5 -164.5s231.167 -160.834 366.5 -267.501c37.333 -28.667 70 -51.5 98 -68.5s53.667 -30 77 -39s45.166 -14.833 65.499 -17.5s41.833 -4 64.5 -4v-213v0zM1617 992.001c0 -53.333 -13.667 -99.667 -41 -139
c-31.333 -45.333 -71.666 -68 -120.999 -68c-34 0 -61.333 10.5 -82 31.5s-31 47.5 -31 79.5c0 48.667 16.667 97.667 50 147c34.667 56 76.334 84 125.001 84c31.333 0 55.666 -15 72.999 -45c9.33301 -13.333 16.166 -27.5 20.499 -42.5s6.5 -30.833 6.5 -47.5zM1553 959
c0 20.667 -6.16797 37.168 -18.501 49.501s-25.166 18.5 -38.499 18.5c-20.667 0 -39.667 -9 -57 -27c-19.333 -18 -29 -41.333 -29 -70c0 -6.66699 2 -13.334 6 -20.001s8.83301 -12.834 14.5 -18.501s12 -10.167 19 -13.5s13.5 -5 19.5 -5c10 0 20 2.33301 30 7
s19 10.834 27 18.501s14.5 16.667 19.5 27s7.5 21.5 7.5 33.5z" />
    <glyph glyph-name="uni06AE.init" unicode="&#x6ae;" horiz-adv-x="808" 
d="M805 1116c-97.333 -44 -184.332 -85.332 -260.999 -123.999s-142.667 -73.5 -198 -104.5s-99.5 -58 -132.5 -81s-54.167 -40.5 -63.5 -52.5c69.333 -38.667 127.166 -74 173.499 -106s83.5 -63.5 111.5 -94.5s47.833 -62.667 59.5 -95s17.5 -67.833 17.5 -106.5
c0 -47.333 -7 -92.166 -21 -134.499s-37 -79.666 -69 -111.999s-74 -58 -126 -77s-116 -28.5 -192 -28.5h-98c-50.667 0 -76 35.333 -76 106c0 71.333 25.333 107 76 107h88c48.667 0 93.667 3.66699 135 11s77 16 107 26s53.5 20.667 70.5 32s25.5 21 25.5 29
c0 12 -2.83301 24.333 -8.5 37s-15.834 26.167 -30.501 40.5s-34.834 30.333 -60.501 48s-58.834 38.167 -99.501 61.5c-32 17.333 -58.167 33.333 -78.5 48s-36.166 29.667 -47.499 45s-19 32.166 -23 50.499s-6 39.5 -6 63.5c0 26.667 1.16699 52.167 3.5 76.5
s9.5 48 21.5 71s30.333 46.167 55 69.5s59.334 47.666 104.001 72.999c18.667 11.333 44.334 25.666 77.001 42.999l107 57l120 62.5l116 58.5l95.5 46.5c27.667 13 47.167 21.5 58.5 25.5l-31 -172v0zM360.001 -261.999l110 115l123 -123l-111 -113l-116 111l-111 -111
l-123 119l113 117zM368.001 -359.999l123 -123l-113 -113l-123 119z" />
    <glyph glyph-name="uni06AE.medi" unicode="&#x6ae;" horiz-adv-x="1063" 
d="M-47 160c0 19.333 5.83203 33 17.499 41s23.5 12 35.5 12h80c42.667 0 83.5 3 122.5 9s73.333 14.833 103 26.5s53.167 25.667 70.5 42s26 34.833 26 55.5c0 12 -3 24.833 -9 38.5s-16.5 28.334 -31.5 44.001s-35 32.667 -60 51s-56.5 38.166 -94.5 59.499
c-32 19.333 -59.167 38 -81.5 56s-40.5 36 -54.5 54s-24.167 36.333 -30.5 55s-9.5 38.667 -9.5 60c0 50 16.167 96.5 48.5 139.5s77.5 81.167 135.5 114.5l80.5 45.5l108.5 58l122.5 62.5l122 60l107.5 49.5c32.667 14.333 58.667 24.833 78 31.5l-33 -188
c-54.667 -22 -109.667 -45.667 -165 -71l-161 -76l-146.5 -74l-120.5 -65.5c-34.667 -19.667 -62.667 -36.334 -84 -50.001s-33.333 -22.5 -36 -26.5c88.667 -38 187.667 -92.833 297 -164.5s231.666 -160.834 366.999 -267.501c36 -30 68.167 -53.5 96.5 -70.5
s54.333 -29.833 78 -38.5s46 -14.167 67 -16.5s42.167 -3.5 63.5 -3.5v-213c-25.333 0 -50.166 1.66699 -74.499 5s-48.666 10 -72.999 20s-49 24 -74 42s-50.833 42 -77.5 72l-70 72.5l-81.5 82l-76 73.5c-23.667 22 -41.5 37 -53.5 45
c1.33301 -7.33301 2.33301 -17.666 3 -30.999s1 -29.666 1 -48.999c0 -52 -9.33301 -98.667 -28 -140s-46 -76.166 -82 -104.499s-80.167 -50 -132.5 -65s-111.833 -22.5 -178.5 -22.5h-60c-19.333 0 -33 5.16699 -41 15.5s-12 22.166 -12 35.499v109v0zM531.999 -247
l110 115l123 -123l-111 -113l-116 111l-111 -111l-123 119l113 117zM539.999 -345l123 -123l-113 -113l-123 119z" />
    <glyph glyph-name="uni06AE.fina" unicode="&#x6ae;" horiz-adv-x="1372" 
d="M1366 0c-145.333 0 -236.001 73.666 -272.001 220.999c-32 -40 -69.833 -76.167 -113.5 -108.5s-93.5 -60.166 -149.5 -83.499c-55.333 -23.333 -112.166 -41.166 -170.499 -53.499s-118.833 -18.5 -181.5 -18.5c-252.667 0 -379 99.667 -379 299
c0 63.333 18.667 130.333 56 201c32.667 64 58.334 96 77.001 96c15.333 0 23 -6 23 -18l-31 -66c-20 -43.333 -30 -80.333 -30 -111c0 -132 111.667 -198 335 -198c48.667 0 97.334 3.66699 146.001 11s97.667 18.666 147 33.999c50.667 15.333 95.5 33 134.5 53
s73.5 42.667 103.5 68c0 11.333 -2.5 46.5 -7.5 105.5l-21.5 250.5c-9.33301 108 -16.333 195.5 -21 262.5s-7 114.5 -7 142.5c56.667 92 90 138 100 138c6.66699 0 14 -51.333 22 -154l48 -627c3.33301 -41.333 8.16602 -75.833 14.499 -103.5s14.166 -49.167 23.499 -64.5
c28 -42 81.333 -63 160 -63v-213h-6zM796.999 769.999c0 -4.66699 -9.00098 -22.3311 -27.001 -52.998c-14 -27.333 -24.333 -41 -31 -41l-26 18c-18.667 12.667 -31.667 19 -39 19c-4.66699 0 -10.5 -3 -17.5 -9s-13.833 -13 -20.5 -21s-12.334 -16.167 -17.001 -24.5
s-7 -14.833 -7 -19.5c0 -19.333 28.667 -37 86 -53c58.667 -16.667 88 -37.334 88 -62.001c0 -19.333 -8.66699 -44.333 -26 -75c-17.333 -34 -31.666 -54.667 -42.999 -62c-13.333 -9.33301 -27.666 -16.5 -42.999 -21.5s-31 -7.5 -47 -7.5c-39.333 0 -75 8.33301 -107 25
c-24.667 12 -37 23 -37 33c0 12 8.33301 18 25 18c8.66699 -3.33301 17.334 -6.33301 26.001 -9c7.33301 -2.66699 15.5 -4.83398 24.5 -6.50098s18.167 -2.5 27.5 -2.5c26.667 0 54.667 6 84 18c30 12 45 23 45 33c0 16.667 -15.667 25 -47 25c-87.333 0 -131 25 -131 75
c0 44 43 115 129 213c13.333 15.333 25.833 27 37.5 35s22.167 12 31.5 12c6 0 12.5 -2.5 19.5 -7.5s13.667 -10.833 20 -17.5s11.666 -13 15.999 -19s6.5 -10.333 6.5 -13zM590.998 -303.998l110 115l123 -123l-111 -113l-116 111l-111 -111l-123 119l113 117z
M598.998 -401.998l123 -123l-113 -113l-123 119z" />
    <glyph glyph-name="uni06B0.init" unicode="&#x6b0;" horiz-adv-x="801" 
d="M879 1526l-31 -127l-729 -365l31 127zM805 1116c-97.333 -44 -184.332 -85.332 -260.999 -123.999s-142.667 -73.5 -198 -104.5s-99.5 -58 -132.5 -81s-54.167 -40.5 -63.5 -52.5c69.333 -38.667 127.166 -74 173.499 -106s83.5 -63.5 111.5 -94.5
s47.833 -62.667 59.5 -95s17.5 -67.833 17.5 -106.5c0 -47.333 -7 -92.166 -21 -134.499s-37 -79.666 -69 -111.999s-74 -58 -126 -77s-116 -28.5 -192 -28.5h-98c-50.667 0 -76 35.333 -76 106c0 71.333 25.333 107 76 107h88c48.667 0 93.667 3.66699 135 11s77 16 107 26
s53.5 20.667 70.5 32s25.5 21 25.5 29c0 12 -2.83301 24.333 -8.5 37s-15.834 26.167 -30.501 40.5s-34.834 30.333 -60.501 48s-58.834 38.167 -99.501 61.5c-32 17.333 -58.167 33.333 -78.5 48s-36.166 29.667 -47.499 45s-19 32.166 -23 50.499s-6 39.5 -6 63.5
c0 26.667 1.16699 52.167 3.5 76.5s9.5 48 21.5 71s30.333 46.167 55 69.5s59.334 47.666 104.001 72.999c18.667 11.333 44.334 25.666 77.001 42.999l107 57l120 62.5l116 58.5l95.5 46.5c27.667 13 47.167 21.5 58.5 25.5zM698.001 967.001
c0 -53.333 -13.667 -99.667 -41 -139c-31.333 -45.333 -71.666 -68 -120.999 -68c-34 0 -61.333 10.5 -82 31.5s-31 47.5 -31 79.5c0 48.667 16.667 97.667 50 147c34.667 56 76.334 84 125.001 84c31.333 0 55.666 -15 72.999 -45
c9.33301 -13.333 16.166 -27.5 20.499 -42.5s6.5 -30.833 6.5 -47.5zM634.001 934c0 20.667 -6.16797 37.168 -18.501 49.501s-25.166 18.5 -38.499 18.5c-20.667 0 -39.667 -9 -57 -27c-19.333 -18 -29 -41.333 -29 -70c0 -6.66699 2 -13.334 6 -20.001
s8.83301 -12.834 14.5 -18.501s12 -10.167 19 -13.5s13.5 -5 19.5 -5c10 0 20 2.33301 30 7s19 10.834 27 18.501s14.5 16.667 19.5 27s7.5 21.5 7.5 33.5z" />
    <glyph glyph-name="uni06B0.medi" unicode="&#x6b0;" horiz-adv-x="1063" 
d="M885 1571l-31 -127l-758 -377l31 127zM-47 160c0 19.333 5.83203 33 17.499 41s23.5 12 35.5 12h80c42.667 0 83.5 3 122.5 9s73.333 14.833 103 26.5s53.167 25.667 70.5 42s26 34.833 26 55.5c0 12 -3 24.833 -9 38.5s-16.5 28.334 -31.5 44.001s-35 32.667 -60 51
s-56.5 38.166 -94.5 59.499c-32 19.333 -59.167 38 -81.5 56s-40.5 36 -54.5 54s-24.167 36.333 -30.5 55s-9.5 38.667 -9.5 60c0 50 16.167 96.5 48.5 139.5s77.5 81.167 135.5 114.5l80.5 45.5l108.5 58l122.5 62.5l122 60l107.5 49.5
c32.667 14.333 58.667 24.833 78 31.5l-33 -188c-54.667 -22 -109.667 -45.667 -165 -71l-161 -76l-146.5 -74l-120.5 -65.5c-34.667 -19.667 -62.667 -36.334 -84 -50.001s-33.333 -22.5 -36 -26.5c88.667 -38 187.667 -92.833 297 -164.5
s231.666 -160.834 366.999 -267.501c36 -30 68.167 -53.5 96.5 -70.5s54.333 -29.833 78 -38.5s46 -14.167 67 -16.5s42.167 -3.5 63.5 -3.5v-213c-25.333 0 -50.166 1.66699 -74.499 5s-48.666 10 -72.999 20s-49 24 -74 42s-50.833 42 -77.5 72l-70 72.5l-81.5 82
l-76 73.5c-23.667 22 -41.5 37 -53.5 45c1.33301 -7.33301 2.33301 -17.666 3 -30.999s1 -29.666 1 -48.999c0 -52 -9.33301 -98.667 -28 -140s-46 -76.166 -82 -104.499s-80.167 -50 -132.5 -65s-111.833 -22.5 -178.5 -22.5h-60c-19.333 0 -33 5.16699 -41 15.5
s-12 22.166 -12 35.499v109zM752.999 996c0 -53.333 -13.667 -99.667 -41 -139c-31.333 -45.333 -71.666 -68 -120.999 -68c-34 0 -61.333 10.5 -82 31.5s-31 47.5 -31 79.5c0 48.667 16.667 97.667 50 147c34.667 56 76.334 84 125.001 84c31.333 0 55.666 -15 72.999 -45
c9.33301 -13.333 16.166 -27.5 20.499 -42.5s6.5 -30.833 6.5 -47.5zM688.999 962.999c0 20.667 -6.16797 37.168 -18.501 49.501s-25.166 18.5 -38.499 18.5c-20.667 0 -39.667 -9 -57 -27c-19.333 -18 -29 -41.333 -29 -70c0 -6.66699 2 -13.334 6 -20.001
s8.83301 -12.834 14.5 -18.501s12 -10.167 19 -13.5s13.5 -5 19.5 -5c10 0 20 2.33301 30 7s19 10.834 27 18.501s14.5 16.667 19.5 27s7.5 21.5 7.5 33.5z" />
    <glyph glyph-name="uni06B0.fina" unicode="&#x6b0;" horiz-adv-x="1970" 
d="M1792 1571l-31 -127l-757 -377l30 127zM1970 0c-25.333 0 -49.832 1.83398 -73.499 5.50098s-47.5 10.5 -71.5 20.5s-48.667 24 -74 42s-52 41.667 -80 71l-54.5 57l-60.5 62l-61 60l-55 52.5c-16.667 15.667 -30.667 28.334 -42 38.001s-18.666 15.5 -21.999 17.5
c3.33301 -9.33301 6.33301 -18.5 9 -27.5s4 -20.167 4 -33.5c0 -49.333 -16.833 -98.333 -50.5 -147s-84.167 -92.334 -151.5 -131.001s-152 -70 -254 -94s-221.333 -36 -358 -36c-76 0 -143.333 7.83301 -202 23.5s-108.334 37.5 -149.001 65.5s-71.5 61.333 -92.5 100
s-31.5 81.334 -31.5 128.001c0 34 4.5 67.5 13.5 100.5s19.5 62.333 31.5 88s24.333 46.5 37 62.5s23 24 31 24c7.33301 0 12.166 -2.33301 14.499 -7s3.5 -10.667 3.5 -18c0 -2.66699 -1.83301 -8.83398 -5.5 -18.501l-12.5 -34.5
c-4.66699 -13.333 -8.83398 -28 -12.501 -44s-5.5 -31.333 -5.5 -46c0 -35.333 12.667 -66.666 38 -93.999s59 -50.5 101 -69.5s90 -33.333 144 -43s109.667 -14.5 167 -14.5c56.667 0 112.334 2.83301 167.001 8.5s106.667 13.334 156 23.001s94.833 21 136.5 34
s77.667 27 108 42s54 30.5 71 46.5s25.5 32 25.5 48c0 14 -5.16699 28.167 -15.5 42.5s-24.166 28.833 -41.499 43.5s-37.333 29.667 -60 45s-46.667 30.666 -72 45.999c-32 18.667 -59.167 37 -81.5 55s-40.5 36.167 -54.5 54.5s-24.167 37 -30.5 56s-9.5 38.833 -9.5 59.5
c0 50 16.333 96.5 49 139.5s77.667 81.167 135 114.5l80.5 45.5l108 58l122 62.5l122 60l107.5 49.5c32.667 14.333 59 24.833 79 31.5l-33 -188c-54 -22 -108.833 -45.667 -164.5 -71l-161 -76l-146.5 -74l-121 -65.5c-34.667 -19.667 -62.667 -36.334 -84 -50.001
s-33.333 -22.5 -36 -26.5c89.333 -38 188.5 -92.833 297.5 -164.5s231.167 -160.834 366.5 -267.501c37.333 -28.667 70 -51.5 98 -68.5s53.667 -30 77 -39s45.166 -14.833 65.499 -17.5s41.833 -4 64.5 -4v-213zM1634 999.001c0 -53.333 -13.667 -99.667 -41 -139
c-31.333 -45.333 -71.666 -68 -120.999 -68c-34 0 -61.333 10.5 -82 31.5s-31 47.5 -31 79.5c0 48.667 16.667 97.667 50 147c34.667 56 76.334 84 125.001 84c31.333 0 55.666 -15 72.999 -45c9.33301 -13.333 16.166 -27.5 20.499 -42.5s6.5 -30.833 6.5 -47.5zM1570 966
c0 20.667 -6.16797 37.168 -18.501 49.501s-25.166 18.5 -38.499 18.5c-20.667 0 -39.667 -9 -57 -27c-19.333 -18 -29 -41.333 -29 -70c0 -6.66699 2 -13.334 6 -20.001s8.83301 -12.834 14.5 -18.501s12 -10.167 19 -13.5s13.5 -5 19.5 -5c10 0 20 2.33301 30 7
s19 10.834 27 18.501s14.5 16.667 19.5 27s7.5 21.5 7.5 33.5z" />
    <glyph glyph-name="uni06B2.init" unicode="&#x6b2;" horiz-adv-x="801" 
d="M879 1526l-31 -127l-729 -365l31 127zM805 1116c-97.333 -44 -184.332 -85.332 -260.999 -123.999s-142.667 -73.5 -198 -104.5s-99.5 -58 -132.5 -81s-54.167 -40.5 -63.5 -52.5c69.333 -38.667 127.166 -74 173.499 -106s83.5 -63.5 111.5 -94.5
s47.833 -62.667 59.5 -95s17.5 -67.833 17.5 -106.5c0 -47.333 -7 -92.166 -21 -134.499s-37 -79.666 -69 -111.999s-74 -58 -126 -77s-116 -28.5 -192 -28.5h-98c-50.667 0 -76 35.333 -76 106c0 71.333 25.333 107 76 107h88c48.667 0 93.667 3.66699 135 11s77 16 107 26
s53.5 20.667 70.5 32s25.5 21 25.5 29c0 12 -2.83301 24.333 -8.5 37s-15.834 26.167 -30.501 40.5s-34.834 30.333 -60.501 48s-58.834 38.167 -99.501 61.5c-32 17.333 -58.167 33.333 -78.5 48s-36.166 29.667 -47.499 45s-19 32.166 -23 50.499s-6 39.5 -6 63.5
c0 26.667 1.16699 52.167 3.5 76.5s9.5 48 21.5 71s30.333 46.167 55 69.5s59.334 47.666 104.001 72.999c18.667 11.333 44.334 25.666 77.001 42.999l107 57l120 62.5l116 58.5l95.5 46.5c27.667 13 47.167 21.5 58.5 25.5zM370.001 -395.999l-110 113l-115 -113l-113 115
l123 121l111 -113l116 113l111 -115z" />
    <glyph glyph-name="uni06B2.medi" unicode="&#x6b2;" horiz-adv-x="1063" 
d="M885 1571l-31 -127l-758 -377l31 127zM-47 160c0 19.333 5.83203 33 17.499 41s23.5 12 35.5 12h80c42.667 0 83.5 3 122.5 9s73.333 14.833 103 26.5s53.167 25.667 70.5 42s26 34.833 26 55.5c0 12 -3 24.833 -9 38.5s-16.5 28.334 -31.5 44.001s-35 32.667 -60 51
s-56.5 38.166 -94.5 59.499c-32 19.333 -59.167 38 -81.5 56s-40.5 36 -54.5 54s-24.167 36.333 -30.5 55s-9.5 38.667 -9.5 60c0 50 16.167 96.5 48.5 139.5s77.5 81.167 135.5 114.5l80.5 45.5l108.5 58l122.5 62.5l122 60l107.5 49.5
c32.667 14.333 58.667 24.833 78 31.5l-33 -188c-54.667 -22 -109.667 -45.667 -165 -71l-161 -76l-146.5 -74l-120.5 -65.5c-34.667 -19.667 -62.667 -36.334 -84 -50.001s-33.333 -22.5 -36 -26.5c88.667 -38 187.667 -92.833 297 -164.5
s231.666 -160.834 366.999 -267.501c36 -30 68.167 -53.5 96.5 -70.5s54.333 -29.833 78 -38.5s46 -14.167 67 -16.5s42.167 -3.5 63.5 -3.5v-213c-25.333 0 -50.166 1.66699 -74.499 5s-48.666 10 -72.999 20s-49 24 -74 42s-50.833 42 -77.5 72l-70 72.5l-81.5 82
l-76 73.5c-23.667 22 -41.5 37 -53.5 45c1.33301 -7.33301 2.33301 -17.666 3 -30.999s1 -29.666 1 -48.999c0 -52 -9.33301 -98.667 -28 -140s-46 -76.166 -82 -104.499s-80.167 -50 -132.5 -65s-111.833 -22.5 -178.5 -22.5h-60c-19.333 0 -33 5.16699 -41 15.5
s-12 22.166 -12 35.499v109zM637.999 -403l-110 113l-115 -113l-113 115l123 121l111 -113l116 113l111 -115z" />
    <glyph glyph-name="uni06B2.fina" unicode="&#x6b2;" horiz-adv-x="1970" 
d="M1792 1571l-31 -127l-757 -377l30 127zM1970 0c-25.333 0 -49.832 1.83398 -73.499 5.50098s-47.5 10.5 -71.5 20.5s-48.667 24 -74 42s-52 41.667 -80 71l-54.5 57l-60.5 62l-61 60l-55 52.5c-16.667 15.667 -30.667 28.334 -42 38.001s-18.666 15.5 -21.999 17.5
c3.33301 -9.33301 6.33301 -18.5 9 -27.5s4 -20.167 4 -33.5c0 -49.333 -16.833 -98.333 -50.5 -147s-84.167 -92.334 -151.5 -131.001s-152 -70 -254 -94s-221.333 -36 -358 -36c-76 0 -143.333 7.83301 -202 23.5s-108.334 37.5 -149.001 65.5s-71.5 61.333 -92.5 100
s-31.5 81.334 -31.5 128.001c0 34 4.5 67.5 13.5 100.5s19.5 62.333 31.5 88s24.333 46.5 37 62.5s23 24 31 24c7.33301 0 12.166 -2.33301 14.499 -7s3.5 -10.667 3.5 -18c0 -2.66699 -1.83301 -8.83398 -5.5 -18.501l-12.5 -34.5
c-4.66699 -13.333 -8.83398 -28 -12.501 -44s-5.5 -31.333 -5.5 -46c0 -35.333 12.667 -66.666 38 -93.999s59 -50.5 101 -69.5s90 -33.333 144 -43s109.667 -14.5 167 -14.5c56.667 0 112.334 2.83301 167.001 8.5s106.667 13.334 156 23.001s94.833 21 136.5 34
s77.667 27 108 42s54 30.5 71 46.5s25.5 32 25.5 48c0 14 -5.16699 28.167 -15.5 42.5s-24.166 28.833 -41.499 43.5s-37.333 29.667 -60 45s-46.667 30.666 -72 45.999c-32 18.667 -59.167 37 -81.5 55s-40.5 36.167 -54.5 54.5s-24.167 37 -30.5 56s-9.5 38.833 -9.5 59.5
c0 50 16.333 96.5 49 139.5s77.667 81.167 135 114.5l80.5 45.5l108 58l122 62.5l122 60l107.5 49.5c32.667 14.333 59 24.833 79 31.5l-33 -188c-54 -22 -108.833 -45.667 -164.5 -71l-161 -76l-146.5 -74l-121 -65.5c-34.667 -19.667 -62.667 -36.334 -84 -50.001
s-33.333 -22.5 -36 -26.5c89.333 -38 188.5 -92.833 297.5 -164.5s231.167 -160.834 366.5 -267.501c37.333 -28.667 70 -51.5 98 -68.5s53.667 -30 77 -39s45.166 -14.833 65.499 -17.5s41.833 -4 64.5 -4v-213zM787.001 -449.999l-110 113l-115 -113l-113 115l123 121
l111 -113l116 113l111 -115z" />
    <glyph glyph-name="uni06B4.init" unicode="&#x6b4;" horiz-adv-x="801" 
d="M879 1526l-31 -127l-729 -365l31 127zM805 1116c-97.333 -44 -184.332 -85.332 -260.999 -123.999s-142.667 -73.5 -198 -104.5s-99.5 -58 -132.5 -81s-54.167 -40.5 -63.5 -52.5c69.333 -38.667 127.166 -74 173.499 -106s83.5 -63.5 111.5 -94.5
s47.833 -62.667 59.5 -95s17.5 -67.833 17.5 -106.5c0 -47.333 -7 -92.166 -21 -134.499s-37 -79.666 -69 -111.999s-74 -58 -126 -77s-116 -28.5 -192 -28.5h-98c-50.667 0 -76 35.333 -76 106c0 71.333 25.333 107 76 107h88c48.667 0 93.667 3.66699 135 11s77 16 107 26
s53.5 20.667 70.5 32s25.5 21 25.5 29c0 12 -2.83301 24.333 -8.5 37s-15.834 26.167 -30.501 40.5s-34.834 30.333 -60.501 48s-58.834 38.167 -99.501 61.5c-32 17.333 -58.167 33.333 -78.5 48s-36.166 29.667 -47.499 45s-19 32.166 -23 50.499s-6 39.5 -6 63.5
c0 26.667 1.16699 52.167 3.5 76.5s9.5 48 21.5 71s30.333 46.167 55 69.5s59.334 47.666 104.001 72.999c18.667 11.333 44.334 25.666 77.001 42.999l107 57l120 62.5l116 58.5l95.5 46.5c27.667 13 47.167 21.5 58.5 25.5zM476.001 1446l-115 109l-110 -117l-118 110
l119 126l115 -109l112 118l115 -111zM365.001 1655l-117 111l118 125l118 -110z" />
    <glyph glyph-name="uni06B4.medi" unicode="&#x6b4;" horiz-adv-x="1063" 
d="M885 1571l-31 -127l-758 -377l31 127zM-47 160c0 19.333 5.83203 33 17.499 41s23.5 12 35.5 12h80c42.667 0 83.5 3 122.5 9s73.333 14.833 103 26.5s53.167 25.667 70.5 42s26 34.833 26 55.5c0 12 -3 24.833 -9 38.5s-16.5 28.334 -31.5 44.001s-35 32.667 -60 51
s-56.5 38.166 -94.5 59.499c-32 19.333 -59.167 38 -81.5 56s-40.5 36 -54.5 54s-24.167 36.333 -30.5 55s-9.5 38.667 -9.5 60c0 50 16.167 96.5 48.5 139.5s77.5 81.167 135.5 114.5l80.5 45.5l108.5 58l122.5 62.5l122 60l107.5 49.5
c32.667 14.333 58.667 24.833 78 31.5l-33 -188c-54.667 -22 -109.667 -45.667 -165 -71l-161 -76l-146.5 -74l-120.5 -65.5c-34.667 -19.667 -62.667 -36.334 -84 -50.001s-33.333 -22.5 -36 -26.5c88.667 -38 187.667 -92.833 297 -164.5
s231.666 -160.834 366.999 -267.501c36 -30 68.167 -53.5 96.5 -70.5s54.333 -29.833 78 -38.5s46 -14.167 67 -16.5s42.167 -3.5 63.5 -3.5v-213c-25.333 0 -50.166 1.66699 -74.499 5s-48.666 10 -72.999 20s-49 24 -74 42s-50.833 42 -77.5 72l-70 72.5l-81.5 82
l-76 73.5c-23.667 22 -41.5 37 -53.5 45c1.33301 -7.33301 2.33301 -17.666 3 -30.999s1 -29.666 1 -48.999c0 -52 -9.33301 -98.667 -28 -140s-46 -76.166 -82 -104.499s-80.167 -50 -132.5 -65s-111.833 -22.5 -178.5 -22.5h-60c-19.333 0 -33 5.16699 -41 15.5
s-12 22.166 -12 35.499v109zM493.999 1443l-115 109l-110 -117l-118 110l119 126l115 -109l112 118l115 -111zM382.999 1652l-117 111l118 125l118 -110z" />
    <glyph glyph-name="uni06B4.fina" unicode="&#x6b4;" horiz-adv-x="1970" 
d="M1792 1571l-31 -127l-757 -377l30 127zM1970 0c-25.333 0 -49.832 1.83398 -73.499 5.50098s-47.5 10.5 -71.5 20.5s-48.667 24 -74 42s-52 41.667 -80 71l-54.5 57l-60.5 62l-61 60l-55 52.5c-16.667 15.667 -30.667 28.334 -42 38.001s-18.666 15.5 -21.999 17.5
c3.33301 -9.33301 6.33301 -18.5 9 -27.5s4 -20.167 4 -33.5c0 -49.333 -16.833 -98.333 -50.5 -147s-84.167 -92.334 -151.5 -131.001s-152 -70 -254 -94s-221.333 -36 -358 -36c-76 0 -143.333 7.83301 -202 23.5s-108.334 37.5 -149.001 65.5s-71.5 61.333 -92.5 100
s-31.5 81.334 -31.5 128.001c0 34 4.5 67.5 13.5 100.5s19.5 62.333 31.5 88s24.333 46.5 37 62.5s23 24 31 24c7.33301 0 12.166 -2.33301 14.499 -7s3.5 -10.667 3.5 -18c0 -2.66699 -1.83301 -8.83398 -5.5 -18.501l-12.5 -34.5
c-4.66699 -13.333 -8.83398 -28 -12.501 -44s-5.5 -31.333 -5.5 -46c0 -35.333 12.667 -66.666 38 -93.999s59 -50.5 101 -69.5s90 -33.333 144 -43s109.667 -14.5 167 -14.5c56.667 0 112.334 2.83301 167.001 8.5s106.667 13.334 156 23.001s94.833 21 136.5 34
s77.667 27 108 42s54 30.5 71 46.5s25.5 32 25.5 48c0 14 -5.16699 28.167 -15.5 42.5s-24.166 28.833 -41.499 43.5s-37.333 29.667 -60 45s-46.667 30.666 -72 45.999c-32 18.667 -59.167 37 -81.5 55s-40.5 36.167 -54.5 54.5s-24.167 37 -30.5 56s-9.5 38.833 -9.5 59.5
c0 50 16.333 96.5 49 139.5s77.667 81.167 135 114.5l80.5 45.5l108 58l122 62.5l122 60l107.5 49.5c32.667 14.333 59 24.833 79 31.5l-33 -188c-54 -22 -108.833 -45.667 -164.5 -71l-161 -76l-146.5 -74l-121 -65.5c-34.667 -19.667 -62.667 -36.334 -84 -50.001
s-33.333 -22.5 -36 -26.5c89.333 -38 188.5 -92.833 297.5 -164.5s231.167 -160.834 366.5 -267.501c37.333 -28.667 70 -51.5 98 -68.5s53.667 -30 77 -39s45.166 -14.833 65.499 -17.5s41.833 -4 64.5 -4v-213zM1373 1490l-115 109l-110 -117l-118 110l119 126l115 -109
l112 118l115 -111zM1262 1699l-117 111l118 125l118 -110z" />
    <glyph glyph-name="uni06B5.init" unicode="&#x6b5;" horiz-adv-x="405" 
d="M336 1022c0 -13.333 -12.332 -49.668 -36.999 -109.001c-10 -21.333 -21 -32 -33 -32c11.333 -96 19.666 -180.5 24.999 -253.5s8 -135.5 8 -187.5c0 -114 -17.667 -210 -53 -288c-47.333 -101.333 -127.333 -152 -240 -152c-50.667 0 -76 35.333 -76 106
c0 71.333 25.333 107 76 107c50 0 91.833 3 125.5 9s58.167 15.333 73.5 28c0 15.333 -2.5 52 -7.5 110l-21.5 240c-9.33301 102 -16.5 182.5 -21.5 241.5s-7.5 97.167 -7.5 114.5c-31.333 24 -47 52 -47 84c0 31.333 29.333 90.333 88 177c14.667 21.333 29 32 43 32
s21 -6 21 -18c0 -3.33301 -2.33301 -12.666 -7 -27.999s-7 -31.333 -7 -48c0 -32 16.333 -61.333 49 -88c32.667 -27.333 49 -42.333 49 -45zM336.001 1644l-30.501 -32.001c-11.667 -12.667 -24.5 -30.667 -38.5 -54s-28.833 -53.833 -44.5 -91.5s-31.5 -85.5 -47.5 -143.5
l-28 -3c-6.66699 31.333 -16 62.5 -28 93.5s-25.667 60.5 -41 88.5s-32.166 53.5 -50.499 76.5s-37.166 42.167 -56.499 57.5l104 -8c6.66699 -8 13.5 -17 20.5 -27s14.167 -23 21.5 -39s14.666 -35.5 21.999 -58.5s15 -51.5 23 -85.5c2 12.667 5 28.167 9 46.5
s9 37.333 15 57s13 39.334 21 59.001s17.333 37.5 28 53.5z" />
    <glyph glyph-name="uni06B5.medi" unicode="&#x6b5;" horiz-adv-x="455" 
d="M455 0c-37.333 0 -75.666 15.667 -114.999 47c-24.667 19.333 -46.167 41.833 -64.5 67.5s-33.166 55.167 -44.499 88.5c-55.333 -135.333 -130.333 -203 -225 -203c-50.667 -0 -76 35.333 -76 106c0 71.333 25.333 107 76 107c43.333 0 80.333 10.333 111 31
c35.333 24 53 59.333 53 106c0 7.33301 -2 39 -6 95s-10.333 137 -19 243c-16 210.667 -24 343.667 -24 399c62 92 98.667 138 110 138c10.667 0 17 -47.333 19 -142c3.33301 -99.333 8.66602 -207.833 15.999 -325.5s17.666 -245.834 30.999 -384.501
c4 -49.333 24.333 -89.666 61 -120.999c30 -26 62.333 -39 97 -39v-213v0zM348 1608l-30.501 -32.001c-11.667 -12.667 -24.5 -30.667 -38.5 -54s-28.833 -53.833 -44.5 -91.5s-31.5 -85.5 -47.5 -143.5l-28 -3c-6.66699 31.333 -16 62.5 -28 93.5s-25.667 60.5 -41 88.5
s-32.166 53.5 -50.499 76.5s-37.166 42.167 -56.499 57.5l104 -8c6.66699 -8 13.5 -17 20.5 -27s14.167 -23 21.5 -39s14.666 -35.5 21.999 -58.5s15 -51.5 23 -85.5c2 12.667 5 28.167 9 46.5s9 37.333 15 57s13 39.334 21 59.001s17.333 37.5 28 53.5z" />
    <glyph glyph-name="uni06B5.fina" unicode="&#x6b5;" horiz-adv-x="1073" 
d="M875 1618l-30.501 -32.001c-11.667 -12.667 -24.5 -30.667 -38.5 -54s-28.833 -53.833 -44.5 -91.5s-31.5 -85.5 -47.5 -143.5l-28 -3c-6.66699 31.333 -16 62.5 -28 93.5s-25.667 60.5 -41 88.5s-32.166 53.5 -50.499 76.5s-37.166 42.167 -56.499 57.5l104 -8
c6.66699 -8 13.5 -17 20.5 -27s14.167 -23 21.5 -39s14.666 -35.5 21.999 -58.5s15 -51.5 23 -85.5c2 12.667 5 28.167 9 46.5s9 37.333 15 57s13 39.334 21 59.001s17.333 37.5 28 53.5zM1073 -0.000976562c-86.667 0 -155.667 37.667 -207 113v-123
c0 -145.333 -53.667 -260.666 -161 -345.999c-90 -72.667 -185.667 -109 -287 -109c-86.667 0 -159.667 22.667 -219 68c-72.667 55.333 -109 138.666 -109 249.999c0 90 19 173.667 57 251c32.667 66 59.334 99 80.001 99c12.667 0 19 -9 19 -27
c0 -1.33301 -2.5 -8.5 -7.5 -21.5s-12.833 -31.167 -23.5 -54.5c-20.667 -48.667 -31 -92.334 -31 -131.001c0 -130.667 91 -196 273 -196c70 0 131.333 9.33301 184 28c42.667 18.667 91 49.667 145 93c-7.33301 42.667 -19.5 160.834 -36.5 354.501
s-38.167 462.5 -63.5 806.5c53.333 113.333 86.666 170 99.999 170c8 0 17 -57.333 27 -172c10.667 -110 22.167 -220.5 34.5 -331.5s26.166 -222.5 41.499 -334.5c6 -55.333 27.667 -99 65 -131c32.667 -28.667 72.334 -43 119.001 -43v-213v0z" />
    <glyph glyph-name="uni06B6.init" unicode="&#x6b6;" horiz-adv-x="405" 
d="M336 1022c0 -13.333 -12.332 -49.668 -36.999 -109.001c-10 -21.333 -21 -32 -33 -32c11.333 -96 19.666 -180.5 24.999 -253.5s8 -135.5 8 -187.5c0 -114 -17.667 -210 -53 -288c-47.333 -101.333 -127.333 -152 -240 -152c-50.667 0 -76 35.333 -76 106
c0 71.333 25.333 107 76 107c50 0 91.833 3 125.5 9s58.167 15.333 73.5 28c0 15.333 -2.5 52 -7.5 110l-21.5 240c-9.33301 102 -16.5 182.5 -21.5 241.5s-7.5 97.167 -7.5 114.5c-31.333 24 -47 52 -47 84c0 31.333 29.333 90.333 88 177c14.667 21.333 29 32 43 32
s21 -6 21 -18c0 -3.33301 -2.33301 -12.666 -7 -27.999s-7 -31.333 -7 -48c0 -32 16.333 -61.333 49 -88c32.667 -27.333 49 -42.333 49 -45zM179.001 1367l-127 126l127 128l126 -128z" />
    <glyph glyph-name="uni06B6.medi" unicode="&#x6b6;" horiz-adv-x="455" 
d="M455 0c-37.333 0 -75.666 15.667 -114.999 47c-24.667 19.333 -46.167 41.833 -64.5 67.5s-33.166 55.167 -44.499 88.5c-55.333 -135.333 -130.333 -203 -225 -203c-50.667 -0 -76 35.333 -76 106c0 71.333 25.333 107 76 107c43.333 0 80.333 10.333 111 31
c35.333 24 53 59.333 53 106c0 7.33301 -2 39 -6 95s-10.333 137 -19 243c-16 210.667 -24 343.667 -24 399c62 92 98.667 138 110 138c10.667 0 17 -47.333 19 -142c3.33301 -99.333 8.66602 -207.833 15.999 -325.5s17.666 -245.834 30.999 -384.501
c4 -49.333 24.333 -89.666 61 -120.999c30 -26 62.333 -39 97 -39v-213v0zM191 1337l-127 126l127 128l126 -128z" />
    <glyph glyph-name="uni06B6.fina" unicode="&#x6b6;" horiz-adv-x="1073" 
d="M662 1325l-127 126l127 128l126 -128zM1073 0c-86.667 0 -155.667 37.667 -207 113v-123c0 -145.333 -53.667 -260.666 -161 -345.999c-90 -72.667 -185.667 -109 -287 -109c-86.667 0 -159.667 22.667 -219 68c-72.667 55.333 -109 138.666 -109 249.999
c0 90 19 173.667 57 251c32.667 66 59.334 99 80.001 99c12.667 0 19 -9 19 -27c0 -1.33301 -2.5 -8.5 -7.5 -21.5s-12.833 -31.167 -23.5 -54.5c-20.667 -48.667 -31 -92.334 -31 -131.001c0 -130.667 91 -196 273 -196c70 0 131.333 9.33301 184 28
c42.667 18.667 91 49.667 145 93c-7.33301 42.667 -19.5 160.834 -36.5 354.501s-38.167 462.5 -63.5 806.5c53.333 113.333 86.666 170 99.999 170c8 0 17 -57.333 27 -172c10.667 -110 22.167 -220.5 34.5 -331.5s26.166 -222.5 41.499 -334.5
c6 -55.333 27.667 -99 65 -131c32.667 -28.667 72.334 -43 119.001 -43v-213v0z" />
    <glyph glyph-name="uni06B7.init" unicode="&#x6b7;" horiz-adv-x="405" 
d="M336 1022c0 -13.333 -12.332 -49.668 -36.999 -109.001c-10 -21.333 -21 -32 -33 -32c11.333 -96 19.666 -180.5 24.999 -253.5s8 -135.5 8 -187.5c0 -114 -17.667 -210 -53 -288c-47.333 -101.333 -127.333 -152 -240 -152c-50.667 0 -76 35.333 -76 106
c0 71.333 25.333 107 76 107c50 0 91.833 3 125.5 9s58.167 15.333 73.5 28c0 15.333 -2.5 52 -7.5 110l-21.5 240c-9.33301 102 -16.5 182.5 -21.5 241.5s-7.5 97.167 -7.5 114.5c-31.333 24 -47 52 -47 84c0 31.333 29.333 90.333 88 177c14.667 21.333 29 32 43 32
s21 -6 21 -18c0 -3.33301 -2.33301 -12.666 -7 -27.999s-7 -31.333 -7 -48c0 -32 16.333 -61.333 49 -88c32.667 -27.333 49 -42.333 49 -45zM266.001 1348l-115 109l-110 -117l-118 110l119 126l115 -109l112 118l115 -111zM155.001 1557l-117 111l118 125l118 -110z" />
    <glyph glyph-name="uni06B7.medi" unicode="&#x6b7;" horiz-adv-x="455" 
d="M455 0c-37.333 0 -75.666 15.667 -114.999 47c-24.667 19.333 -46.167 41.833 -64.5 67.5s-33.166 55.167 -44.499 88.5c-55.333 -135.333 -130.333 -203 -225 -203c-50.667 -0 -76 35.333 -76 106c0 71.333 25.333 107 76 107c43.333 0 80.333 10.333 111 31
c35.333 24 53 59.333 53 106c0 7.33301 -2 39 -6 95s-10.333 137 -19 243c-16 210.667 -24 343.667 -24 399c62 92 98.667 138 110 138c10.667 0 17 -47.333 19 -142c3.33301 -99.333 8.66602 -207.833 15.999 -325.5s17.666 -245.834 30.999 -384.501
c4 -49.333 24.333 -89.666 61 -120.999c30 -26 62.333 -39 97 -39v-213v0zM306 1333l-115 109l-110 -117l-118 110l119 126l115 -109l112 118l115 -111zM195 1542l-117 111l118 125l118 -110z" />
    <glyph glyph-name="uni06B7.fina" unicode="&#x6b7;" horiz-adv-x="1073" 
d="M802 1313l-115 109l-110 -117l-118 110l119 126l115 -109l112 118l115 -111zM691 1522l-117 111l118 125l118 -110zM1073 0c-86.667 0 -155.667 37.667 -207 113v-123c0 -145.333 -53.667 -260.666 -161 -345.999c-90 -72.667 -185.667 -109 -287 -109
c-86.667 0 -159.667 22.667 -219 68c-72.667 55.333 -109 138.666 -109 249.999c0 90 19 173.667 57 251c32.667 66 59.334 99 80.001 99c12.667 0 19 -9 19 -27c0 -1.33301 -2.5 -8.5 -7.5 -21.5s-12.833 -31.167 -23.5 -54.5c-20.667 -48.667 -31 -92.334 -31 -131.001
c0 -130.667 91 -196 273 -196c70 0 131.333 9.33301 184 28c42.667 18.667 91 49.667 145 93c-7.33301 42.667 -19.5 160.834 -36.5 354.501s-38.167 462.5 -63.5 806.5c53.333 113.333 86.666 170 99.999 170c8 0 17 -57.333 27 -172
c10.667 -110 22.167 -220.5 34.5 -331.5s26.166 -222.5 41.499 -334.5c6 -55.333 27.667 -99 65 -131c32.667 -28.667 72.334 -43 119.001 -43v-213v0z" />
    <glyph glyph-name="uni06B8.init" unicode="&#x6b8;" horiz-adv-x="399" 
d="M336 1022c0 -13.333 -12.332 -49.668 -36.999 -109.001c-10 -21.333 -21 -32 -33 -32c11.333 -96 19.666 -180.5 24.999 -253.5s8 -135.5 8 -187.5c0 -114 -17.667 -210 -53 -288c-47.333 -101.333 -127.333 -152 -240 -152c-50.667 0 -76 35.333 -76 106
c0 71.333 25.333 107 76 107c50 0 91.833 3 125.5 9s58.167 15.333 73.5 28c0 15.333 -2.5 52 -7.5 110l-21.5 240c-9.33301 102 -16.5 182.5 -21.5 241.5s-7.5 97.167 -7.5 114.5c-31.333 24 -47 52 -47 84c0 31.333 29.333 90.333 88 177c14.667 21.333 29 32 43 32
s21 -6 21 -18c0 -3.33301 -2.33301 -12.666 -7 -27.999s-7 -31.333 -7 -48c0 -32 16.333 -61.333 49 -88c32.667 -27.333 49 -42.333 49 -45zM122.001 -296.002l110 115l123 -123l-111 -113l-116 111l-111 -111l-123 119l113 117zM130.001 -394.002l123 -123l-113 -113
l-123 119z" />
    <glyph glyph-name="uni06B8.medi" unicode="&#x6b8;" horiz-adv-x="455" 
d="M455 0c-37.333 0 -75.666 15.667 -114.999 47c-24.667 19.333 -46.167 41.833 -64.5 67.5s-33.166 55.167 -44.499 88.5c-55.333 -135.333 -130.333 -203 -225 -203c-50.667 -0 -76 35.333 -76 106c0 71.333 25.333 107 76 107c43.333 0 80.333 10.333 111 31
c35.333 24 53 59.333 53 106c0 7.33301 -2 39 -6 95s-10.333 137 -19 243c-16 210.667 -24 343.667 -24 399c62 92 98.667 138 110 138c10.667 0 17 -47.333 19 -142c3.33301 -99.333 8.66602 -207.833 15.999 -325.5s17.666 -245.834 30.999 -384.501
c4 -49.333 24.333 -89.666 61 -120.999c30 -26 62.333 -39 97 -39v-213v0zM205 -269l110 115l123 -123l-111 -113l-116 111l-111 -111l-123 119l113 117zM213 -367l123 -123l-113 -113l-123 119z" />
    <glyph glyph-name="uni06B8.fina" unicode="&#x6b8;" horiz-adv-x="1073" 
d="M439 -665l110 115l123 -123l-111 -113l-116 111l-111 -111l-123 119l113 117zM447 -763l123 -123l-113 -113l-123 119zM1073 0c-86.667 0 -155.667 37.667 -207 113v-123c0 -145.333 -53.667 -260.666 -161 -345.999c-90 -72.667 -185.667 -109 -287 -109
c-86.667 0 -159.667 22.667 -219 68c-72.667 55.333 -109 138.666 -109 249.999c0 90 19 173.667 57 251c32.667 66 59.334 99 80.001 99c12.667 0 19 -9 19 -27c0 -1.33301 -2.5 -8.5 -7.5 -21.5s-12.833 -31.167 -23.5 -54.5c-20.667 -48.667 -31 -92.334 -31 -131.001
c0 -130.667 91 -196 273 -196c70 0 131.333 9.33301 184 28c42.667 18.667 91 49.667 145 93c-7.33301 42.667 -19.5 160.834 -36.5 354.501s-38.167 462.5 -63.5 806.5c53.333 113.333 86.666 170 99.999 170c8 0 17 -57.333 27 -172
c10.667 -110 22.167 -220.5 34.5 -331.5s26.166 -222.5 41.499 -334.5c6 -55.333 27.667 -99 65 -131c32.667 -28.667 72.334 -43 119.001 -43v-213v0z" />
    <glyph glyph-name="uni06B9.init" unicode="&#x6b9;" horiz-adv-x="389" 
d="M352 330c0 -54.667 -7.66602 -104.332 -22.999 -148.999s-39 -84.667 -71 -120c-36.667 -40.667 -98 -61 -184 -61h-68c-50.667 0 -76 35.333 -76 106c0 71.333 25.333 107 76 107h82c92.667 0 154 6 184 18c0 47.333 -17.667 94.666 -53 141.999
c43.333 113.333 68.666 170 75.999 170s18.333 -19.333 33 -58c16 -45.333 24 -97 24 -155zM200.001 685.002l-127 126l127 128l126 -128zM189.001 -446.998l-127 126l127 128l126 -128z" />
    <glyph glyph-name="uni06B9.medi" unicode="&#x6b9;" horiz-adv-x="606" 
d="M541 0c-122.667 0 -203.331 45.6689 -241.998 137.002c-50.667 -91.333 -125.667 -137 -225 -137h-68c-50.667 0 -76 35.333 -76 106c0 71.333 25.333 107 76 107h139c25.333 0 47 2 65 6s33.667 10.667 47 20s24.666 22.166 33.999 38.499s18 37.166 26 62.499
c8.66699 24.667 21.667 37 39 37c12.667 0 19 -7 19 -21c0 -4 -0.666992 -10.333 -2 -19s-2 -16.667 -2 -24c0 -20 2.16699 -36.5 6.5 -49.5s12.166 -23.167 23.499 -30.5s26.833 -12.5 46.5 -15.5s45.167 -4.5 76.5 -4.5h82v-213h-65zM332.003 608.002l-127 126l127 128
l126 -128zM292.003 -427.998l-127 126l127 128l126 -128z" />
    <glyph glyph-name="uni06B9.fina" unicode="&#x6b9;" horiz-adv-x="1059" 
d="M496 414l-127 126l127 128l126 -128zM474 -878l-127 126l127 128l126 -128zM1059 0c-61.333 0 -104.333 11 -129 33c0 -144.667 -37 -260 -111 -346c-88 -101.333 -219 -152 -393 -152c-98.667 0 -178.667 24 -240 72c-64 52 -96 125.667 -96 221c0 80 19 166 57 258
c34.667 83.333 60.667 125 78 125c16.667 0 25 -8.33301 25 -25c0 1.33301 -2.66699 -5 -8 -19l-25 -65c-22 -55.333 -33 -104.333 -33 -147c0 -144.667 95 -217 285 -217c160.667 0 287.667 41.667 381 125v61c0 28 -4.5 56.167 -13.5 84.5s-22.167 57.5 -39.5 87.5
c-16.667 28 -29.5 48.667 -38.5 62s-14.167 20 -15.5 20l78 166c5.33301 0 13 -11.667 23 -35c7.33301 -13.333 14.5 -25 21.5 -35s14.167 -18.667 21.5 -26c22 -23.333 52 -35 90 -35h82v-213v0z" />
    <glyph glyph-name="uni06BC.init" unicode="&#x6bc;" horiz-adv-x="389" 
d="M352 330c0 -54.667 -7.66602 -104.332 -22.999 -148.999s-39 -84.667 -71 -120c-36.667 -40.667 -98 -61 -184 -61h-68c-50.667 0 -76 35.333 -76 106c0 71.333 25.333 107 76 107h82c92.667 0 154 6 184 18c0 47.333 -17.667 94.666 -53 141.999
c43.333 113.333 68.666 170 75.999 170s18.333 -19.333 33 -58c16 -45.333 24 -97 24 -155zM215.001 698.002l-127 126l127 128l126 -128zM316.001 -32.998c0 -53.333 -13.667 -99.667 -41 -139c-31.333 -45.333 -71.666 -68 -120.999 -68c-34 0 -61.333 10.5 -82 31.5
s-31 47.5 -31 79.5c0 48.667 16.667 97.667 50 147c34.667 56 76.334 84 125.001 84c31.333 0 55.666 -15 72.999 -45c9.33301 -13.333 16.166 -27.5 20.499 -42.5s6.5 -30.833 6.5 -47.5zM252.001 -65.999c0 20.667 -6.16797 37.168 -18.501 49.501
s-25.166 18.5 -38.499 18.5c-20.667 0 -39.667 -9 -57 -27c-19.333 -18 -29 -41.333 -29 -70c0 -6.66699 2 -13.334 6 -20.001s8.83301 -12.834 14.5 -18.501s12 -10.167 19 -13.5s13.5 -5 19.5 -5c10 0 20 2.33301 30 7s19 10.834 27 18.501s14.5 16.667 19.5 27
s7.5 21.5 7.5 33.5z" />
    <glyph glyph-name="uni06BC.medi" unicode="&#x6bc;" horiz-adv-x="606" 
d="M541 0c-122.667 0 -203.331 45.6689 -241.998 137.002c-50.667 -91.333 -125.667 -137 -225 -137h-68c-50.667 0 -76 35.333 -76 106c0 71.333 25.333 107 76 107h139c25.333 0 47 2 65 6s33.667 10.667 47 20s24.666 22.166 33.999 38.499s18 37.166 26 62.499
c8.66699 24.667 21.667 37 39 37c12.667 0 19 -7 19 -21c0 -4 -0.666992 -10.333 -2 -19s-2 -16.667 -2 -24c0 -20 2.16699 -36.5 6.5 -49.5s12.166 -23.167 23.499 -30.5s26.833 -12.5 46.5 -15.5s45.167 -4.5 76.5 -4.5h82v-213h-65zM272.003 566.002l-127 126l127 128
l126 -128zM261.003 -43.998c0 -53.333 -13.667 -99.667 -41 -139c-31.333 -45.333 -71.666 -68 -120.999 -68c-34 0 -61.333 10.5 -82 31.5s-31 47.5 -31 79.5c0 48.667 16.667 97.667 50 147c34.667 56 76.334 84 125.001 84c31.333 0 55.666 -15 72.999 -45
c9.33301 -13.333 16.166 -27.5 20.499 -42.5s6.5 -30.833 6.5 -47.5zM197.003 -76.999c0 20.667 -6.16797 37.168 -18.501 49.501s-25.166 18.5 -38.499 18.5c-20.667 0 -39.667 -9 -57 -27c-19.333 -18 -29 -41.333 -29 -70c0 -6.66699 2 -13.334 6 -20.001
s8.83301 -12.834 14.5 -18.501s12 -10.167 19 -13.5s13.5 -5 19.5 -5c10 0 20 2.33301 30 7s19 10.834 27 18.501s14.5 16.667 19.5 27s7.5 21.5 7.5 33.5z" />
    <glyph glyph-name="uni06BC.fina" unicode="&#x6bc;" horiz-adv-x="1059" 
d="M491 339l-127 126l127 128l126 -128zM1059 0c-61.333 0 -104.333 11 -129 33c0 -144.667 -37 -260 -111 -346c-88 -101.333 -219 -152 -393 -152c-98.667 0 -178.667 24 -240 72c-64 52 -96 125.667 -96 221c0 80 19 166 57 258c34.667 83.333 60.667 125 78 125
c16.667 0 25 -8.33301 25 -25c0 1.33301 -2.66699 -5 -8 -19l-25 -65c-22 -55.333 -33 -104.333 -33 -147c0 -144.667 95 -217 285 -217c160.667 0 287.667 41.667 381 125v61c0 28 -4.5 56.167 -13.5 84.5s-22.167 57.5 -39.5 87.5c-16.667 28 -29.5 48.667 -38.5 62
s-14.167 20 -15.5 20l78 166c5.33301 0 13 -11.667 23 -35c7.33301 -13.333 14.5 -25 21.5 -35s14.167 -18.667 21.5 -26c22 -23.333 52 -35 90 -35h82v-213v0zM587 -511c0 -53.333 -13.667 -99.667 -41 -139c-31.333 -45.333 -71.666 -68 -120.999 -68
c-34 0 -61.333 10.5 -82 31.5s-31 47.5 -31 79.5c0 48.667 16.667 97.667 50 147c34.667 56 76.334 84 125.001 84c31.333 0 55.666 -15 72.999 -45c9.33301 -13.333 16.166 -27.5 20.499 -42.5s6.5 -30.833 6.5 -47.5zM523 -544.001
c0 20.667 -6.16797 37.168 -18.501 49.501s-25.166 18.5 -38.499 18.5c-20.667 0 -39.667 -9 -57 -27c-19.333 -18 -29 -41.333 -29 -70c0 -6.66699 2 -13.334 6 -20.001s8.83301 -12.834 14.5 -18.501s12 -10.167 19 -13.5s13.5 -5 19.5 -5c10 0 20 2.33301 30 7
s19 10.834 27 18.501s14.5 16.667 19.5 27s7.5 21.5 7.5 33.5z" />
    <glyph glyph-name="uni06BD.fina" unicode="&#x6bd;" horiz-adv-x="1059" 
d="M1059 0c-61.333 0 -104.333 11 -129 33c0 -144.667 -37 -260 -111 -346c-88 -101.333 -219 -152 -393 -152c-98.667 0 -178.667 24 -240 72c-64 52 -96 125.667 -96 221c0 80 19 166 57 258c34.667 83.333 60.667 125 78 125c16.667 0 25 -8.33301 25 -25
c0 1.33301 -2.66699 -5 -8 -19l-25 -65c-22 -55.333 -33 -104.333 -33 -147c0 -144.667 95 -217 285 -217c160.667 0 287.667 41.667 381 125v61c0 28 -4.5 56.167 -13.5 84.5s-22.167 57.5 -39.5 87.5c-16.667 28 -29.5 48.667 -38.5 62s-14.167 20 -15.5 20l78 166
c5.33301 0 13 -11.667 23 -35c7.33301 -13.333 14.5 -25 21.5 -35s14.167 -18.667 21.5 -26c22 -23.333 52 -35 90 -35h82v-213v0zM619 366l-115 109l-110 -117l-118 110l119 126l115 -109l112 118l115 -111zM508 575l-117 111l118 125l118 -110z" />
    <glyph glyph-name="uni06BF.init" unicode="&#x6bf;" horiz-adv-x="938" 
d="M780 188l-122.999 13c-52 0 -106.333 -11 -163 -33c-13.333 -5.33301 -34.333 -14.333 -63 -27s-65 -29.667 -109 -51c-62.667 -30 -120.5 -52.5 -173.5 -67.5s-100.5 -22.5 -142.5 -22.5c-50.667 -0 -76 35.333 -76 106c0 71.333 25.333 107 76 107h55
c52.667 0 110 7 172 21s129 35 201 63c-106 78 -186.333 117 -241 117c-12.667 0 -25.667 -2.5 -39 -7.5s-27 -12.167 -41 -21.5c-29.333 -18 -46 -27 -50 -27c-10.667 0 -16 9.66699 -16 29c0 17.333 3.66699 36 11 56s18.666 41.667 33.999 65
c38.667 58.667 88.667 88 150 88c49.333 0 126.333 -30.667 231 -92c102 -60 203 -90 303 -90h86zM475.001 -191l110 115l123 -123l-111 -113l-116 111l-111 -111l-123 119l113 117zM483.001 -289l123 -123l-113 -113l-123 119zM439.001 722l-127 126l127 128l126 -128z" />
    <glyph glyph-name="uni06BF.medi" unicode="&#x6bf;" horiz-adv-x="1063" 
d="M1016 0c-91.333 0 -163.001 22.001 -215.001 66.001c-48 38.667 -72 90.334 -72 155.001v62c-64.667 -15.333 -123.5 -33.333 -176.5 -54s-101.167 -45 -144.5 -73c-160.667 -104 -294.667 -156 -402 -156c-50.667 0 -76 35.333 -76 106c0 71.333 25.333 107 76 107
c26.667 0 55.834 2.16699 87.501 6.5s66.167 11.166 103.5 20.499c53.333 13.333 101.333 29.333 144 48s80 40.667 112 66c-40 21.333 -77.667 37.666 -113 48.999s-68 17 -98 17c-34 0 -68.333 -10.333 -103 -31c-36 -20.667 -54.333 -31 -55 -31
c-12 0 -18 6.33301 -18 19c0 17.333 4.66699 37.166 14 59.499s23.666 47.5 42.999 75.5c46.667 68 100 102 160 102c19.333 0 46 -5.16699 80 -15.5s76 -26.166 126 -47.499c100 -42.667 175.333 -64 226 -64c17.333 0 36.833 1 58.5 3s45.834 4.66699 72.501 8
c54.667 8 86 12 94 12l-43 -197l-121 -20c10 -53.333 81.667 -80 215 -80h72v-213h-47zM491.999 -280.999l110 115l123 -123l-111 -113l-116 111l-111 -111l-123 119l113 117zM499.999 -378.999l123 -123l-113 -113l-123 119zM537.999 741.001l-127 126l127 128l126 -128z
" />
    <glyph glyph-name="uni06BF.fina" unicode="&#x6bf;" horiz-adv-x="1063" 
d="M1174 -604c0 -14.667 -25.333 -33.001 -76 -55.001l-129 -58c-41.333 -23.333 -89.5 -40.666 -144.5 -51.999s-116.833 -17 -185.5 -17c-98 0 -181.833 9.16699 -251.5 27.5s-126.5 46.5 -170.5 84.5c-87.333 75.333 -131 200.333 -131 375
c0 68.667 6.66699 133.667 20 195s32.666 119.333 57.999 174c24.667 50 57.334 101 98.001 153s89.334 105.333 146.001 160c-24 5.33301 -44.667 9.33301 -62 12s-32.333 4 -45 4c-58 0 -106.333 -28.667 -145 -86c-11.333 -16 -21 -24 -29 -24c-12 0 -18 7.33301 -18 22
c0 15.333 6 40.666 18 75.999c7.33301 21.333 15.333 40.833 24 58.5s17.667 33.167 27 46.5c46.667 62.667 115.667 94 207 94c11.333 0 28.333 -1.5 51 -4.5s52 -7.16699 88 -12.5s67.5 -9.33301 94.5 -12s50.167 -4 69.5 -4c13.333 0 30.833 0.5 52.5 1.5
s47.834 3.16699 78.501 6.5c32 3.33301 57.167 5.83301 75.5 7.5s30.166 2.5 35.499 2.5l-94 -206l-121 -13c-6.66699 -11.333 -10 -27.666 -10 -48.999c0 -16 3.5 -29.833 10.5 -41.5s18.333 -21 34 -28s36.167 -12.167 61.5 -15.5s56 -5 92 -5h160v-213h-133
c-190 0 -285 71.667 -285 215c0 60.667 5.66699 103 17 127c-71.333 -14.667 -135.166 -38.167 -191.499 -70.5s-106.833 -74.5 -151.5 -126.5c-91.333 -105.333 -137 -230 -137 -374c0 -122 41.667 -211.667 125 -269c100.667 -66.667 272 -100 514 -100
c14.667 0 36.167 0.833008 64.5 2.5s63.5 4.16699 105.5 7.5c43.333 3.33301 77.666 5.83301 102.999 7.5s41.666 2.5 48.999 2.5c20.667 0 31 -8.66699 31 -26zM556 -170.001l110 115l123 -123l-111 -113l-116 111l-111 -111l-123 119l113 117zM564 -268.001l123 -123
l-113 -113l-123 119zM561 776.999l-127 126l127 128l126 -128z" />
    <glyph glyph-name="uni06C4.fina" unicode="&#x6c4;" horiz-adv-x="858" 
d="M752 0c-113.333 -264.667 -254.668 -396.999 -424.001 -396.999c-67.333 0 -141.333 17.667 -222 53c-70.667 30.667 -106 54 -106 70s7.66699 24 23 24c2.66699 0 7.83398 -0.666992 15.501 -2l29 -5c11.667 -2 25 -3.66699 40 -5s31.167 -2 48.5 -2
c215.333 0 388.666 88 519.999 264c-9.33301 -1.33301 -20.666 -2.33301 -33.999 -3s-28.666 -1 -45.999 -1c-60.667 0 -108.5 11.167 -143.5 33.5s-52.5 56.166 -52.5 101.499c0 14 1.5 30 4.5 48s7.33301 36.833 13 56.5s12.667 39.667 21 60s17.833 39.833 28.5 58.5
c45.333 73.333 84.333 110 117 110c34 0 67.167 -22.167 99.5 -66.5s59.166 -105.833 80.499 -184.5h94v-213h-106zM656.998 204.001c-11.333 44 -25.168 73.835 -41.501 89.502s-35.166 23.5 -56.499 23.5c-8 0 -16 -2.33301 -24 -7s-15.5 -10.834 -22.5 -18.501
s-12.667 -16 -17 -25s-6.5 -17.833 -6.5 -26.5c0 -30 25.333 -45 76 -45c22.667 0 41.667 0.666992 57 2s27 3.66602 35 6.99902zM474.996 -451.997c0 -53.333 -13.667 -99.667 -41 -139c-31.333 -45.333 -71.666 -68 -120.999 -68c-34 0 -61.333 10.5 -82 31.5
s-31 47.5 -31 79.5c0 48.667 16.667 97.667 50 147c34.667 56 76.334 84 125.001 84c31.333 0 55.666 -15 72.999 -45c9.33301 -13.333 16.166 -27.5 20.499 -42.5s6.5 -30.833 6.5 -47.5zM410.996 -484.998c0 20.667 -6.16797 37.168 -18.501 49.501
s-25.166 18.5 -38.499 18.5c-20.667 0 -39.667 -9 -57 -27c-19.333 -18 -29 -41.333 -29 -70c0 -6.66699 2 -13.334 6 -20.001s8.83301 -12.834 14.5 -18.501s12 -10.167 19 -13.5s13.5 -5 19.5 -5c10 0 20 2.33301 30 7s19 10.834 27 18.501s14.5 16.667 19.5 27
s7.5 21.5 7.5 33.5z" />
    <glyph glyph-name="uni06CA.fina" unicode="&#x6ca;" horiz-adv-x="858" 
d="M752 0c-113.333 -264.667 -254.668 -396.999 -424.001 -396.999c-67.333 0 -141.333 17.667 -222 53c-70.667 30.667 -106 54 -106 70s7.66699 24 23 24c2.66699 0 7.83398 -0.666992 15.501 -2l29 -5c11.667 -2 25 -3.66699 40 -5s31.167 -2 48.5 -2
c215.333 0 388.666 88 519.999 264c-9.33301 -1.33301 -20.666 -2.33301 -33.999 -3s-28.666 -1 -45.999 -1c-60.667 0 -108.5 11.167 -143.5 33.5s-52.5 56.166 -52.5 101.499c0 14 1.5 30 4.5 48s7.33301 36.833 13 56.5s12.667 39.667 21 60s17.833 39.833 28.5 58.5
c45.333 73.333 84.333 110 117 110c34 0 67.167 -22.167 99.5 -66.5s59.166 -105.833 80.499 -184.5h94v-213h-106zM656.998 204.001c-11.333 44 -25.168 73.835 -41.501 89.502s-35.166 23.5 -56.499 23.5c-8 0 -16 -2.33301 -24 -7s-15.5 -10.834 -22.5 -18.501
s-12.667 -16 -17 -25s-6.5 -17.833 -6.5 -26.5c0 -30 25.333 -45 76 -45c22.667 0 41.667 0.666992 57 2s27 3.66602 35 6.99902zM634.996 599.003l-110 113l-115 -113l-113 115l123 121l111 -113l116 113l111 -115z" />
    <glyph glyph-name="uni06CD.fina" unicode="&#x6cd;" horiz-adv-x="1202" 
d="M991 0c-104.667 0 -157.001 -15.6709 -157.001 -47.0039c0 -17.333 25.667 -29 77 -35c40 -3.33301 72.333 -6.66602 97 -9.99902s42.334 -6.66602 53.001 -9.99902c53.333 -19.333 80 -51 80 -95c0 -87.333 -78 -168.333 -234 -243
c-148.667 -72.667 -292 -109 -430 -109c-124 0 -222.333 30.667 -295 92c-64 56.667 -96 128.334 -96 215.001c0 40 7.16699 82.167 21.5 126.5s35.833 91.833 64.5 142.5l19 31l17 27l-233 -77l15 64l279 82c2 1.33301 5.83301 2.33301 11.5 3s10.5 -0.333008 14.5 -3
s6.33301 -7.16699 7 -13.5s-2.33301 -15.5 -9 -27.5c-4.66699 -7.33301 -10.334 -17.166 -17.001 -29.499l-24 -44.5c-35.333 -66.667 -53 -130.334 -53 -191.001c0 -68.667 27.333 -123 82 -163c56.667 -42.667 137 -64 241 -64c54.667 0 109.5 4 164.5 12
s110.833 19.667 167.5 35c109.333 31.333 164 59.333 164 84c0 12 -26 21 -78 27c-68.667 6 -115 14 -139 24c-50.667 18.667 -76 50.334 -76 95.001c0 78 42.333 150.333 127 217c86.667 65.333 184.334 98 293.001 98h72v-213h-226z" />
    <glyph glyph-name="uni06CE.init" unicode="&#x6ce;" horiz-adv-x="389" 
d="M352 330c0 -54.667 -7.66602 -104.332 -22.999 -148.999s-39 -84.667 -71 -120c-36.667 -40.667 -98 -61 -184 -61h-68c-50.667 0 -76 35.333 -76 106c0 71.333 25.333 107 76 107h82c92.667 0 154 6 184 18c0 47.333 -17.667 94.666 -53 141.999
c43.333 113.333 68.666 170 75.999 170s18.333 -19.333 33 -58c16 -45.333 24 -97 24 -155zM314.001 964.002l-30.501 -32.001c-11.667 -12.667 -24.5 -30.667 -38.5 -54s-28.833 -53.833 -44.5 -91.5s-31.5 -85.5 -47.5 -143.5l-28 -3c-6.66699 31.333 -16 62.5 -28 93.5
s-25.667 60.5 -41 88.5s-32.166 53.5 -50.499 76.5s-37.166 42.167 -56.499 57.5l104 -8c6.66699 -8 13.5 -17 20.5 -27s14.167 -23 21.5 -39s14.666 -35.5 21.999 -58.5s15 -51.5 23 -85.5c2 12.667 5 28.167 9 46.5s9 37.333 15 57s13 39.334 21 59.001
s17.333 37.5 28 53.5zM267 -440.999l-110 113l-115 -113l-113 115l123 121l111 -113l116 113l111 -115z" />
    <glyph glyph-name="uni06CE.medi" unicode="&#x6ce;" horiz-adv-x="606" 
d="M541 0c-122.667 0 -203.331 45.6689 -241.998 137.002c-50.667 -91.333 -125.667 -137 -225 -137h-68c-50.667 0 -76 35.333 -76 106c0 71.333 25.333 107 76 107h139c25.333 0 47 2 65 6s33.667 10.667 47 20s24.666 22.166 33.999 38.499s18 37.166 26 62.499
c8.66699 24.667 21.667 37 39 37c12.667 0 19 -7 19 -21c0 -4 -0.666992 -10.333 -2 -19s-2 -16.667 -2 -24c0 -20 2.16699 -36.5 6.5 -49.5s12.166 -23.167 23.499 -30.5s26.833 -12.5 46.5 -15.5s45.167 -4.5 76.5 -4.5h82v-213h-65zM511.003 902.002l-30.501 -32.001
c-11.667 -12.667 -24.5 -30.667 -38.5 -54s-28.833 -53.833 -44.5 -91.5s-31.5 -85.5 -47.5 -143.5l-28 -3c-6.66699 31.333 -16 62.5 -28 93.5s-25.667 60.5 -41 88.5s-32.166 53.5 -50.499 76.5s-37.166 42.167 -56.499 57.5l104 -8c6.66699 -8 13.5 -17 20.5 -27
s14.167 -23 21.5 -39s14.666 -35.5 21.999 -58.5s15 -51.5 23 -85.5c2 12.667 5 28.167 9 46.5s9 37.333 15 57s13 39.334 21 59.001s17.333 37.5 28 53.5zM384.002 -452.999l-110 113l-115 -113l-113 115l123 121l111 -113l116 113l111 -115z" />
    <glyph glyph-name="uni06CE.fina" unicode="&#x6ce;" horiz-adv-x="1217" 
d="M991 0c-104.667 0 -157.006 -15.666 -157.006 -46.999c0 -17.333 25.667 -29 77 -35c40 -3.33301 72.333 -6.66602 97 -9.99902s42.334 -6.66602 53.001 -9.99902c53.333 -19.333 80 -51 80 -95s-19.333 -88.167 -58 -132.5s-97.334 -85.5 -176.001 -123.5
c-74 -36 -146.667 -61.5 -218 -76.5s-142 -22.5 -212 -22.5c-62.667 0 -118.5 8.16699 -167.5 24.5s-91.5 39.833 -127.5 70.5c-64 56.667 -96 128.334 -96 215.001c0 40 7.16699 82.167 21.5 126.5s35.833 91.833 64.5 142.5c51.333 88.667 89 133 113 133
c7.33301 0 13.5 -2.33301 18.5 -7s5.5 -12 1.5 -22c-1.33301 -3.33301 -6.16602 -11.333 -14.499 -24s-21.166 -35.334 -38.499 -68.001c-35.333 -66.667 -53 -130.334 -53 -191.001c0 -40 9.66699 -73.333 29 -100s44.5 -48 75.5 -64s65.667 -27.333 104 -34
s76.5 -10.334 114.5 -11.001c12 -0.666992 32.333 0.166016 61 2.49902s60.834 5.83301 96.501 10.5s72.834 10.5 111.501 17.5s74.334 15 107.001 24s60 18.667 82 29s34.667 21.5 38 33.5c0 12 -26 21 -78 27c-68.667 6 -115 14 -139 24c-50.667 18.667 -76 49 -76 91
c0 78 42.333 150.333 127 217c86.667 65.333 184.334 98 293.001 98h72v-213h-226zM744.994 638.001l-30.501 -32.001c-11.667 -12.667 -24.5 -30.667 -38.5 -54s-28.833 -53.833 -44.5 -91.5s-31.5 -85.5 -47.5 -143.5l-28 -3c-6.66699 31.333 -16 62.5 -28 93.5
s-25.667 60.5 -41 88.5s-32.166 53.5 -50.499 76.5s-37.166 42.167 -56.499 57.5l104 -8c6.66699 -8 13.5 -17 20.5 -27s14.167 -23 21.5 -39s14.666 -35.5 21.999 -58.5s15 -51.5 23 -85.5c2 12.667 5 28.167 9 46.5s9 37.333 15 57s13 39.334 21 59.001
s17.333 37.5 28 53.5z" />
    <glyph glyph-name="uni06CF.fina" unicode="&#x6cf;" horiz-adv-x="858" 
d="M752 0c-113.333 -264.667 -254.668 -396.999 -424.001 -396.999c-67.333 0 -141.333 17.667 -222 53c-70.667 30.667 -106 54 -106 70s7.66699 24 23 24c2.66699 0 7.83398 -0.666992 15.501 -2l29 -5c11.667 -2 25 -3.66699 40 -5s31.167 -2 48.5 -2
c215.333 0 388.666 88 519.999 264c-9.33301 -1.33301 -20.666 -2.33301 -33.999 -3s-28.666 -1 -45.999 -1c-60.667 0 -108.5 11.167 -143.5 33.5s-52.5 56.166 -52.5 101.499c0 14 1.5 30 4.5 48s7.33301 36.833 13 56.5s12.667 39.667 21 60s17.833 39.833 28.5 58.5
c45.333 73.333 84.333 110 117 110c34 0 67.167 -22.167 99.5 -66.5s59.166 -105.833 80.499 -184.5h94v-213h-106zM656.998 204.001c-11.333 44 -25.168 73.835 -41.501 89.502s-35.166 23.5 -56.499 23.5c-8 0 -16 -2.33301 -24 -7s-15.5 -10.834 -22.5 -18.501
s-12.667 -16 -17 -25s-6.5 -17.833 -6.5 -26.5c0 -30 25.333 -45 76 -45c22.667 0 41.667 0.666992 57 2s27 3.66602 35 6.99902zM550.996 608.003l-127 126l127 128l126 -128z" />
    <glyph glyph-name="uni06D1.fina" unicode="&#x6d1;" horiz-adv-x="1217" 
d="M513 -813l110 115l123 -123l-111 -113l-116 111l-111 -111l-123 119l113 117zM521 -911l123 -123l-113 -113l-123 119zM991 0c-104.667 0 -157.006 -15.666 -157.006 -46.999c0 -17.333 25.667 -29 77 -35c40 -3.33301 72.333 -6.66602 97 -9.99902
s42.334 -6.66602 53.001 -9.99902c53.333 -19.333 80 -51 80 -95s-19.333 -88.167 -58 -132.5s-97.334 -85.5 -176.001 -123.5c-74 -36 -146.667 -61.5 -218 -76.5s-142 -22.5 -212 -22.5c-62.667 0 -118.5 8.16699 -167.5 24.5s-91.5 39.833 -127.5 70.5
c-64 56.667 -96 128.334 -96 215.001c0 40 7.16699 82.167 21.5 126.5s35.833 91.833 64.5 142.5c51.333 88.667 89 133 113 133c7.33301 0 13.5 -2.33301 18.5 -7s5.5 -12 1.5 -22c-1.33301 -3.33301 -6.16602 -11.333 -14.499 -24s-21.166 -35.334 -38.499 -68.001
c-35.333 -66.667 -53 -130.334 -53 -191.001c0 -40 9.66699 -73.333 29 -100s44.5 -48 75.5 -64s65.667 -27.333 104 -34s76.5 -10.334 114.5 -11.001c12 -0.666992 32.333 0.166016 61 2.49902s60.834 5.83301 96.501 10.5s72.834 10.5 111.501 17.5s74.334 15 107.001 24
s60 18.667 82 29s34.667 21.5 38 33.5c0 12 -26 21 -78 27c-68.667 6 -115 14 -139 24c-50.667 18.667 -76 49 -76 91c0 78 42.333 150.333 127 217c86.667 65.333 184.334 98 293.001 98h72v-213h-226z" />
    <glyph glyph-name="uni06FA.init" unicode="&#x6fa;" horiz-adv-x="1024" 
d="M979 311c0 -62.667 -14.333 -125.999 -43 -189.999c-32.667 -71.333 -66.667 -107 -102 -107c-37.333 0 -97.666 31.667 -180.999 95c-51.333 -72.667 -114.666 -109 -189.999 -109c-38 0 -76.167 7.5 -114.5 22.5s-77.5 37.5 -117.5 67.5c-48 -60 -123 -90 -225 -90
c-50.667 0 -76 35.333 -76 106c0 71.333 25.333 107 76 107h64c24.667 0 46 2 64 6s33.667 10.667 47 20s24.833 22.166 34.5 38.499s18.5 37.166 26.5 62.499c8 24.667 21 37 39 37c12 0 18 -7 18 -21c0 -5.33301 -0.666992 -11.666 -2 -18.999s-2 -13.333 -2 -18
c0 -77.333 52 -116 156 -116c99.333 0 163.333 31.333 192 94c33.333 72.667 57.333 109 72 109c10 0 16 -6.33301 18 -19c-0.666992 0 -10 -36 -28 -108c67.333 -41.333 123.666 -62 168.999 -62c32 0 48 10.333 48 31c0 3.33301 -1.66699 8.5 -5 15.5l-14 29.5
c-12 26 -18 41.667 -18 47c43.333 88.667 68.666 133 75.999 133c12 0 18 -54 18 -162zM697 613.001l-115 109l-110 -117l-118 110l119 126l115 -109l112 118l115 -111zM586 822.001l-117 111l118 125l118 -110zM553 -493.999l-127 126l127 128l126 -128z" />
    <glyph glyph-name="uni06FA.medi" unicode="&#x6fa;" horiz-adv-x="1214" 
d="M1145 0c-70.667 0 -128.671 26.665 -174.004 79.998c-41.333 -53.333 -78.333 -80 -111 -80c-13.333 0 -34.166 6.16699 -62.499 18.5s-64.166 30.166 -107.499 53.499c-23.333 -23.333 -49.833 -41.166 -79.5 -53.499s-63.167 -18.5 -100.5 -18.5
c-63.333 0 -133.666 30 -210.999 90c-38 -40 -83 -66.667 -135 -80c-15.333 -3.33301 -36 -5.83301 -62 -7.5s-58 -2.5 -96 -2.5c-50.667 0 -76 35.333 -76 106c0 71.333 25.333 107 76 107h107c57.333 0 98.333 8.33301 123 25c28.667 18.667 51 53.334 67 104.001
c8 24.667 21 37 39 37c12 0 18 -7 18 -21c0 -4 -1 -10.167 -3 -18.5s-3 -14.166 -3 -17.499c0 -72.667 66.333 -109 199 -109c46 0 84.167 11.167 114.5 33.5s52.166 55.5 65.499 99.5c12 41.333 25 62 39 62c12.667 0 19 -7 19 -21c0 -28.667 -11 -72.334 -33 -131.001
c4.66699 -7.33301 18.334 -16.333 41.001 -27c13.333 -5.33301 26.166 -9.33301 38.499 -12s24.5 -4 36.5 -4c14.667 0 27.834 2.33301 39.501 7s22.5 12.834 32.5 24.501s19.833 27.5 29.5 47.5s19.834 45.667 30.501 77c8 21.333 18 32 30 32c15.333 0 23 -9.33301 23 -28
c0 -2.66699 -1 -8 -3 -16l-6.5 -26l-6.5 -27c-2 -8.66699 -3 -15 -3 -19c0 -9.33301 2.5 -18 7.5 -26s12.167 -15.667 21.5 -23c23.333 -15.333 52 -23 86 -23h59v-213h-69zM897.996 597.998l-115 109l-110 -117l-118 110l119 126l115 -109l112 118l115 -111z
M786.996 806.998l-117 111l118 125l118 -110zM764.996 -492.002l-127 126l127 128l126 -128z" />
    <glyph glyph-name="uni06FA.fina" unicode="&#x6fa;" horiz-adv-x="1745" 
d="M1679 0c-70.667 0 -128.669 26.668 -174.002 80.001c-41.333 -53.333 -78 -80 -110 -80c-13.333 0 -34.166 6.16699 -62.499 18.5s-64.166 30.166 -107.499 53.499c-48 -48 -108.333 -72 -181 -72c-18 0 -37.167 2.66699 -57.5 8s-41.833 13.666 -64.5 24.999
c0 -173.333 -52 -303 -156 -389c-88.667 -72.667 -202 -109 -340 -109c-98.667 0 -178.667 24 -240 72c-64 52 -96 125.667 -96 221c0 80 19 166 57 258c34.667 83.333 60.667 125 78 125c14 0 21 -8.33301 21 -25c0 1.33301 -10.333 -26.667 -31 -84
c-20.667 -56.667 -31 -105.667 -31 -147c0 -144.667 95 -217 285 -217c144.667 0 269 41.667 373 125v57c0 47.333 -7.5 93.5 -22.5 138.5s-37.5 89.833 -67.5 134.5l92 172c3.33301 0 21.666 -32.333 54.999 -97c23.333 -43.333 71.666 -65 144.999 -65
c110.667 0 183.334 51.667 218.001 155c10 33.333 21.333 50 34 50s19 -7 19 -21c0 -27.333 -11.667 -71 -35 -131c22.667 -28.667 65.667 -43 129 -43c14.667 0 27.5 2.33301 38.5 7s21.5 12.834 31.5 24.501s19.667 27.5 29 47.5s20 45.667 32 77
c6 21.333 16.333 32 31 32s22 -9.33301 22 -28c0 -2.66699 -1 -8 -3 -16s-4 -16.667 -6 -26l-6 -27c-2 -8.66699 -3 -15 -3 -19c0 -18.667 9.66699 -35 29 -49c22.667 -15.333 51.334 -23 86.001 -23h55v-213h-66zM1396 602.001l-115 109l-110 -117l-118 110l119 126
l115 -109l112 118l115 -111zM1285 811.001l-117 111l118 125l118 -110zM1261 -514.999l-127 126l127 128l126 -128z" />
    <glyph glyph-name="uni06FB.init" unicode="&#x6fb;" horiz-adv-x="1333" 
d="M1288 467c0 -19.333 -3.50195 -40.333 -10.502 -63s-17.167 -48 -30.5 -76c-13.333 -27.333 -27.166 -51.5 -41.499 -72.5s-29.833 -39.167 -46.5 -54.5c-152 -143.333 -378.667 -215 -680 -215c-147.333 0 -238.666 48.333 -273.999 145
c-42.667 -87.333 -109 -131 -199 -131c-50.667 -0 -76 35.333 -76 106c0 71.333 25.333 107 76 107h60c70.667 0 112 26.667 124 80c5.33301 19.333 14.333 29 27 29s21 -11 25 -33c14 -73.333 73.333 -107 178 -101c306 298 528.333 447 667 447
c42.667 0 86.667 -19 132 -57c46 -38 69 -75 69 -111zM1151 352c0 19.333 -20.333 38.667 -61 58c-39.333 20 -80.333 30 -123 30c-108.667 0 -252 -84 -430 -252h90c58.667 0 117.167 5.16699 175.5 15.5s117.833 25.833 178.5 46.5c113.333 39.333 170 73.333 170 102z
M526.998 647.001l-127 126l127 128l126 -128zM549.998 -475.999l-127 126l127 128l126 -128z" />
    <glyph glyph-name="uni06FB.medi" unicode="&#x6fb;" horiz-adv-x="1372" 
d="M1372 0c-22.667 0 -88.0029 -3.99805 -196.003 -11.998c-54.667 -4 -103.834 -7.16699 -147.501 -9.5s-81.5 -3.5 -113.5 -3.5c-19.333 0 -41.333 1 -66 3s-52.334 4.66699 -83.001 8c-30 3.33301 -52.5 5.5 -67.5 6.5s-23.167 1.5 -24.5 1.5c-4 0 -9 -0.333008 -15 -1
c-5.33301 -0.666992 -11.833 -1.16699 -19.5 -1.5s-16.167 -0.833008 -25.5 -1.5c-19.333 -1.33301 -38.666 -2.33301 -57.999 -3s-38.666 -1 -57.999 -1c-43.333 0 -81.166 2.66699 -113.499 8s-60.166 13.833 -83.499 25.5s-42.666 26.667 -57.999 45s-28 40.5 -38 66.5
c-42.667 -87.333 -109 -131 -199 -131c-50.667 0 -76 35.333 -76 106c0 71.333 25.333 107 76 107h60c70.667 0 112 26.667 124 80c5.33301 19.333 14.333 29 27 29s21 -11 25 -33c14 -73.333 73.333 -107 178 -101c155.333 149.333 288.166 261.166 398.499 335.499
s199.833 111.5 268.5 111.5c42.667 0 86.667 -19 132 -57c46 -38 69 -75 69 -111c0 -42 -14.333 -90.333 -43 -145c-31.333 -62.667 -71.666 -113.334 -120.999 -152.001c123.333 28.667 206 43 248 43v-213zM1151 352.002c0 19.333 -20.333 38.667 -61 58
c-39.333 20 -80.333 30 -123 30c-108.667 0 -252 -84 -430 -252h90c58.667 0 117.167 5.16699 175.5 15.5s117.833 25.833 178.5 46.5c113.333 39.333 170 73.333 170 102zM549.997 671.003l-127 126l127 128l126 -128zM537.997 -470.997l-127 126l127 128l126 -128z" />
    <glyph glyph-name="uni06FB.fina" unicode="&#x6fb;" horiz-adv-x="1954" 
d="M1954 0c-22.667 0 -88.333 -4 -197 -12c-54 -4 -102.833 -7.16699 -146.5 -9.5s-81.5 -3.5 -113.5 -3.5c-19.333 0 -41.333 1 -66 3s-52.334 4.66699 -83.001 8l-41 3.5c-12 1 -21.667 1.83301 -29 2.5c-9.33301 0.666992 -17 1.33398 -23 2.00098
c-1.33301 0 -6.66602 -0.333008 -15.999 -1l-43 -3c-19.333 -1.33301 -38.833 -2.33301 -58.5 -3s-39.167 -1 -58.5 -1c-68.667 0 -121 6 -157 18c0 -153.333 -50 -272 -150 -356c-44 -38 -95 -66.333 -153 -85s-122.333 -28 -193 -28c-98.667 0 -178.667 24 -240 72
c-64 52 -96 125.667 -96 221c0 80 19 166 57 258c34.667 83.333 60.667 125 78 125c14 0 21 -8.33301 21 -25c0 1.33301 -10.333 -26.667 -31 -84c-20.667 -56.667 -31 -105.667 -31 -147c0 -144.667 95 -217 285 -217c144.667 0 269 41.667 373 125v61
c0 55.333 -17 112.666 -51 171.999c-15.333 28 -27.5 48.667 -36.5 62s-14.167 20 -15.5 20c42.667 114.667 68 172 76 172l6 -9c2 -3.33301 4.33301 -7.5 7 -12.5s6 -10.833 10 -17.5c16 -29.333 35.667 -52.333 59 -69c32 -26 72.333 -39 121 -39c304 288 521 432 651 432
c40 0 83.667 -19 131 -57c46.667 -38.667 70 -75.667 70 -111c0 -21.333 -3.66699 -43.833 -11 -67.5s-18 -49.5 -32 -77.5c-30.667 -62 -71 -112.667 -121 -152c121.333 28.667 204 43 248 43v-213zM1733 352c0 19.333 -20.6689 38.667 -62.002 58
c-39.333 20 -80.333 30 -123 30c-108.667 0 -252 -84 -430 -252h90c58.667 0 117.334 5.16699 176.001 15.5s118.334 25.833 179.001 46.5c113.333 39.333 170 73.333 170 102zM1122 602.001l-127 126l127 128l126 -128zM1160 -490.999l-127 126l127 128l126 -128z" />
    <glyph glyph-name="uni06FC.init" unicode="&#x6fc;" horiz-adv-x="905" 
d="M766 174l-164 -47.001l-164 -49c-91.333 -25.333 -168.666 -44.666 -231.999 -57.999s-113 -20 -149 -20h-51c-50.667 -0 -76 35.333 -76 106c0 71.333 25.333 107 76 107c52.667 0 97.167 1 133.5 3s64.166 5.66699 83.499 11c-17.333 23.333 -30.166 48.333 -38.499 75
s-12.5 55 -12.5 85c0 21.333 2.66699 44.333 8 69s13.666 51.667 24.999 81c22 58.667 43.667 98.667 65 120c46.667 48 101.334 72 164.001 72s122.667 -24 180 -72c48 -39.333 72 -67.333 72 -84c0 -13.333 -5.33301 -20 -16 -20c-1.33301 0 -6.5 1.5 -15.5 4.5
s-21.833 8.16699 -38.5 15.5c-30.667 15.333 -59.334 23 -86.001 23c-19.333 0 -40.666 -2.66699 -63.999 -8s-49 -13.666 -77 -24.999c-30 -12 -56.5 -25.333 -79.5 -40s-42.167 -30.667 -57.5 -48c3.33301 -19.333 11.5 -38.833 24.5 -58.5s30.167 -39.834 51.5 -60.501
c43.333 -39.333 90.333 -65 141 -77c19.333 3.33301 43.666 8.5 72.999 15.5s63 16.833 101 29.5l123.5 38c29.667 9.33301 49.167 15 58.5 17zM385 870.999l-127 126l127 128l126 -128zM389 -415.001l-127 126l127 128l126 -128z" />
    <glyph glyph-name="uni06FC.medi" unicode="&#x6fc;" horiz-adv-x="758" 
d="M758 0c-138.667 0 -253.997 53.335 -345.997 160.002c-104.667 -106.667 -240 -160 -406 -160c-50.667 0 -76 35.333 -76 106c0 71.333 25.333 107 76 107c139.333 0 244.666 22 315.999 66c-17.333 19.333 -38.5 35.5 -63.5 48.5s-54.5 23.167 -88.5 30.5
c-19.333 4 -29 10.333 -29 19c0 5.33301 2 13.333 6 24s9.66699 23.667 17 39c9.33301 19.333 19.333 37.166 30 53.499s21.667 30.166 33 41.499c45.333 43.333 105.666 65 180.999 65s136.666 -15.667 183.999 -47c43.333 -31.333 65 -69 65 -113
c0 -26.667 -14.333 -59.334 -43 -98.001c-13.333 -17.333 -26.5 -32.333 -39.5 -45s-26.167 -23.667 -39.5 -33c30.667 -17.333 64.5 -30.166 101.5 -38.499s77.5 -12.5 121.5 -12.5v-213v0zM414.003 733.002l-127 126l127 128l126 -128zM369.003 -403.998l-127 126l127 128
l126 -128z" />
    <glyph glyph-name="uni06FC.fina" unicode="&#x6fc;" horiz-adv-x="991" 
d="M1167 -604c0 -7.33301 -4.00195 -14.333 -12.002 -21s-20.333 -12.667 -37 -18c-11.333 -4 -30.5 -12.167 -57.5 -24.5l-106.5 -47.5c-34 -15.333 -77.833 -27 -131.5 -35s-117.5 -12 -191.5 -12c-367.333 0 -551 140.667 -551 422c0 270.667 103.667 489.667 311 657
c-36.667 28.667 -90 43 -160 43c-9.33301 0 -14 5.66699 -14 17c0 15.333 8.33301 40 25 74c9.33301 21.333 19.333 39.833 30 55.5s21.667 29.167 33 40.5c46 42 101.333 63 166 63c41.333 0 77.833 -4 109.5 -12s59.5 -19.667 83.5 -35c39.333 -26.667 59 -58 59 -94
c0 -25.333 -9.83301 -52.666 -29.5 -81.999s-49.5 -60 -89.5 -92c57.333 -54.667 130.333 -82 219 -82h168v-213h-94c-179.333 0 -311.666 80.667 -396.999 242c-214.667 -124.667 -322 -289.334 -322 -494.001c0 -226.667 192.667 -340 578 -340c86.667 0 170 2 250 6
l90.5 3c19.667 0.666992 28.834 1 27.501 1c28.667 0 43 -7.33301 43 -22zM496.998 745l-127 126l127 128l126 -128zM475.998 -355l-127 126l127 128l126 -128z" />
    <glyph glyph-name="uniFB51" unicode="&#x671;" horiz-adv-x="481" arabic-form="final" 
d="M481 0c-140 0 -233.333 55.333 -280 166c-17.333 40 -30.166 107.167 -38.499 201.5s-12.5 216.166 -12.5 365.499c0 34 -1 70.833 -3 110.5s-4.66699 82.167 -8 127.5l-7.5 100.5c-1.66699 21.667 -2.5 31.834 -2.5 30.501c58.667 82 92.667 123 102 123
c8 0 13 -24.667 15 -74c1.33301 -21.333 2 -65.333 2 -132v-271c0 -226 18.333 -375.667 55 -449c31.333 -57.333 90.666 -86 177.999 -86v-213v0zM-29 1396c24 25.333 51.167 39.166 81.5 41.499s56.5 -3.16699 78.5 -16.5c28.667 34 55.667 60.5 81 79.5
s45.666 30.833 60.999 35.5c19.333 6.66699 36 6.83398 50 0.500977s24.667 -15.833 32 -28.5s10.833 -27 10.5 -43s-4.83301 -30.667 -13.5 -44c-17.333 -22.667 -39.333 -39.5 -66 -50.5s-57.667 -16.167 -93 -15.5s-72 10.667 -110 30
c-8 4.66699 -17.167 8.16699 -27.5 10.5s-20.666 3.83301 -30.999 4.5s-20.333 0.5 -30 -0.5s-17.5 -2.16699 -23.5 -3.5zM271 1495c-20.667 -6.66699 -40.167 -17.168 -58.5 -31.501s-37.5 -30.833 -57.5 -49.5c4.66699 -3.33301 15.5 -5.33301 32.5 -6s35.167 0 54.5 2
s38 5.83301 56 11.5s30.333 13.5 37 23.5c0.666992 5.33301 0 11.5 -2 18.5s-5.5 13.5 -10.5 19.5s-11.667 10.333 -20 13s-18.833 2.33398 -31.5 -0.999023z" />
    <glyph glyph-name="uniFB53" unicode="&#x67b;" horiz-adv-x="1391" arabic-form="final" 
d="M1391 0c-21.333 0 -41.6689 3.16895 -61.002 9.50195s-36.666 16.166 -51.999 29.499c-37.333 30.667 -59.333 75.667 -66 135c-201.333 -132.667 -414.333 -199 -639 -199c-146 0 -262.667 31.667 -350 95c-82 58.667 -123 131.667 -123 219c0 56 14.333 117.333 43 184
c28.667 62.667 52 94 70 94c13.333 0 20 -6 20 -18c0 -3.33301 -1.5 -11 -4.5 -23s-8.16699 -27.667 -15.5 -47c-12 -39.333 -18 -72 -18 -98c0 -50 29.333 -93 88 -129c75.333 -49.333 189.333 -74 342 -74c70 0 136 4.66699 198 14s121.333 23 178 41
c48.667 15.333 90.834 33.166 126.501 53.499s65.5 42.166 89.5 65.499c22 23.333 37.667 35 47 35s14 -8.33301 14 -25c0 -2 -0.5 -5.83301 -1.5 -11.5s-2 -12 -3 -19s-1.83301 -14.167 -2.5 -21.5s-1 -13.666 -1 -18.999c0 -15.333 10 -31 30 -47
c24.667 -20.667 55 -31 91 -31v-213v0zM600.997 -747.998l-128 127l128 129l127 -129zM603.997 -474.998l-128 127l128 129l127 -129z" />
    <glyph glyph-name="uniFB54" unicode="&#x67b;" horiz-adv-x="389" arabic-form="initial" 
d="M352 330c0 -54.667 -7.66602 -104.332 -22.999 -148.999s-39 -84.667 -71 -120c-36.667 -40.667 -98 -61 -184 -61h-68c-50.667 0 -76 35.333 -76 106c0 71.333 25.333 107 76 107h82c92.667 0 154 6 184 18c0 47.333 -17.667 94.666 -53 141.999
c43.333 113.333 68.666 170 75.999 170s18.333 -19.333 33 -58c16 -45.333 24 -97 24 -155zM154.001 -671.998l-128 127l128 129l127 -129zM157.001 -398.998l-128 127l128 129l127 -129z" />
    <glyph glyph-name="uniFB55" unicode="&#x67b;" horiz-adv-x="606" arabic-form="medial" 
d="M541 0c-122.667 0 -203.331 45.6689 -241.998 137.002c-50.667 -91.333 -125.667 -137 -225 -137h-68c-50.667 0 -76 35.333 -76 106c0 71.333 25.333 107 76 107h139c25.333 0 47 2 65 6s33.667 10.667 47 20s24.666 22.166 33.999 38.499s18 37.166 26 62.499
c8.66699 24.667 21.667 37 39 37c12.667 0 19 -7 19 -21c0 -4 -0.666992 -10.333 -2 -19s-2 -16.667 -2 -24c0 -20 2.16699 -36.5 6.5 -49.5s12.166 -23.167 23.499 -30.5s26.833 -12.5 46.5 -15.5s45.167 -4.5 76.5 -4.5h82v-213h-65zM259.003 -691.998l-128 127l128 129
l127 -129zM262.003 -418.998l-128 127l128 129l127 -129z" />
    <glyph glyph-name="afii62958" unicode="&#x67e;" horiz-adv-x="1391" arabic-form="final" 
d="M1391 0c-21.333 0 -41.6689 3.16895 -61.002 9.50195s-36.666 16.166 -51.999 29.499c-37.333 30.667 -59.333 75.667 -66 135c-201.333 -132.667 -414.333 -199 -639 -199c-146 0 -262.667 31.667 -350 95c-82 58.667 -123 131.667 -123 219c0 56 14.333 117.333 43 184
c28.667 62.667 52 94 70 94c13.333 0 20 -6 20 -18c0 -3.33301 -1.5 -11 -4.5 -23s-8.16699 -27.667 -15.5 -47c-12 -39.333 -18 -72 -18 -98c0 -50 29.333 -93 88 -129c75.333 -49.333 189.333 -74 342 -74c70 0 136 4.66699 198 14s121.333 23 178 41
c48.667 15.333 90.834 33.166 126.501 53.499s65.5 42.166 89.5 65.499c22 23.333 37.667 35 47 35s14 -8.33301 14 -25c0 -2 -0.5 -5.83301 -1.5 -11.5s-2 -12 -3 -19s-1.83301 -14.167 -2.5 -21.5s-1 -13.666 -1 -18.999c0 -15.333 10 -31 30 -47
c24.667 -20.667 55 -31 91 -31v-213v0zM636.997 -310.998l110 115l123 -123l-111 -113l-116 111l-111 -111l-123 119l113 117zM644.997 -408.998l123 -123l-113 -113l-123 119z" />
    <glyph glyph-name="afii62956" unicode="&#x67e;" horiz-adv-x="389" arabic-form="initial" 
d="M352 330c0 -54.667 -7.66602 -104.332 -22.999 -148.999s-39 -84.667 -71 -120c-36.667 -40.667 -98 -61 -184 -61h-68c-50.667 0 -76 35.333 -76 106c0 71.333 25.333 107 76 107h82c92.667 0 154 6 184 18c0 47.333 -17.667 94.666 -53 141.999
c43.333 113.333 68.666 170 75.999 170s18.333 -19.333 33 -58c16 -45.333 24 -97 24 -155zM159.001 -303.998l110 115l123 -123l-111 -113l-116 111l-111 -111l-123 119l113 117zM167.001 -401.998l123 -123l-113 -113l-123 119z" />
    <glyph glyph-name="afii52957" unicode="&#x67e;" horiz-adv-x="606" arabic-form="medial" 
d="M541 0c-122.667 0 -203.331 45.6689 -241.998 137.002c-50.667 -91.333 -125.667 -137 -225 -137h-68c-50.667 0 -76 35.333 -76 106c0 71.333 25.333 107 76 107h139c25.333 0 47 2 65 6s33.667 10.667 47 20s24.666 22.166 33.999 38.499s18 37.166 26 62.499
c8.66699 24.667 21.667 37 39 37c12.667 0 19 -7 19 -21c0 -4 -0.666992 -10.333 -2 -19s-2 -16.667 -2 -24c0 -20 2.16699 -36.5 6.5 -49.5s12.166 -23.167 23.499 -30.5s26.833 -12.5 46.5 -15.5s45.167 -4.5 76.5 -4.5h82v-213h-65zM311.003 -295.998l110 115l123 -123
l-111 -113l-116 111l-111 -111l-123 119l113 117zM319.003 -393.998l123 -123l-113 -113l-123 119z" />
    <glyph glyph-name="uniFB5B" unicode="&#x680;" horiz-adv-x="1391" arabic-form="final" 
d="M1391 0c-21.333 0 -41.6689 3.16895 -61.002 9.50195s-36.666 16.166 -51.999 29.499c-37.333 30.667 -59.333 75.667 -66 135c-201.333 -132.667 -414.333 -199 -639 -199c-146 0 -262.667 31.667 -350 95c-82 58.667 -123 131.667 -123 219c0 56 14.333 117.333 43 184
c28.667 62.667 52 94 70 94c13.333 0 20 -6 20 -18c0 -3.33301 -1.5 -11 -4.5 -23s-8.16699 -27.667 -15.5 -47c-12 -39.333 -18 -72 -18 -98c0 -50 29.333 -93 88 -129c75.333 -49.333 189.333 -74 342 -74c70 0 136 4.66699 198 14s121.333 23 178 41
c48.667 15.333 90.834 33.166 126.501 53.499s65.5 42.166 89.5 65.499c22 23.333 37.667 35 47 35s14 -8.33301 14 -25c0 -2 -0.5 -5.83301 -1.5 -11.5s-2 -12 -3 -19s-1.83301 -14.167 -2.5 -21.5s-1 -13.666 -1 -18.999c0 -15.333 10 -31 30 -47
c24.667 -20.667 55 -31 91 -31v-213v0zM738.997 -564.998l-113 93l-94 -115l-115 95l101 123l113 -94l97 116l111 -95zM623.997 -379.998l-115 94l101 124l115 -94zM651.997 -756.998l-115 94l100 124l115 -95z" />
    <glyph glyph-name="uniFB5C" unicode="&#x680;" horiz-adv-x="389" arabic-form="initial" 
d="M352 330c0 -54.667 -7.66602 -104.332 -22.999 -148.999s-39 -84.667 -71 -120c-36.667 -40.667 -98 -61 -184 -61h-68c-50.667 0 -76 35.333 -76 106c0 71.333 25.333 107 76 107h82c92.667 0 154 6 184 18c0 47.333 -17.667 94.666 -53 141.999
c43.333 113.333 68.666 170 75.999 170s18.333 -19.333 33 -58c16 -45.333 24 -97 24 -155zM305.232 -507.696l-105.972 87.1201l-88.1533 -107.729l-107.848 88.9922l94.7178 115.223l105.973 -88.0557l90.9668 108.665l104.097 -88.9932zM197.385 -334.395
l-107.847 88.0566l94.7178 116.159l107.848 -88.0557zM223.644 -687.556l-107.848 88.0566l93.7812 116.159l107.847 -88.9932z" />
    <glyph glyph-name="uniFB5D" unicode="&#x680;" horiz-adv-x="606" arabic-form="medial" 
d="M541 0c-122.667 0 -203.331 45.6689 -241.998 137.002c-50.667 -91.333 -125.667 -137 -225 -137h-68c-50.667 0 -76 35.333 -76 106c0 71.333 25.333 107 76 107h139c25.333 0 47 2 65 6s33.667 10.667 47 20s24.666 22.166 33.999 38.499s18 37.166 26 62.499
c8.66699 24.667 21.667 37 39 37c12.667 0 19 -7 19 -21c0 -4 -0.666992 -10.333 -2 -19s-2 -16.667 -2 -24c0 -20 2.16699 -36.5 6.5 -49.5s12.166 -23.167 23.499 -30.5s26.833 -12.5 46.5 -15.5s45.167 -4.5 76.5 -4.5h82v-213h-65zM405.589 -536.89l-107.055 88.0283
l-89.0547 -108.852l-108.949 89.9199l95.6855 116.424l107.055 -88.9736l91.8965 109.798l105.16 -89.9209zM296.639 -361.781l-108.949 88.9746l95.6865 117.37l108.949 -88.9736zM323.166 -718.624l-108.95 88.9746l94.7393 117.37l108.949 -89.9209z" />
    <glyph glyph-name="uniFB5F" unicode="&#x67a;" horiz-adv-x="1391" arabic-form="final" 
d="M1391 0c-21.333 0 -41.6689 3.16895 -61.002 9.50195s-36.666 16.166 -51.999 29.499c-37.333 30.667 -59.333 75.667 -66 135c-201.333 -132.667 -414.333 -199 -639 -199c-146 0 -262.667 31.667 -350 95c-82 58.667 -123 131.667 -123 219c0 56 14.333 117.333 43 184
c28.667 62.667 52 94 70 94c13.333 0 20 -6 20 -18c0 -3.33301 -1.5 -11 -4.5 -23s-8.16699 -27.667 -15.5 -47c-12 -39.333 -18 -72 -18 -98c0 -50 29.333 -93 88 -129c75.333 -49.333 189.333 -74 342 -74c70 0 136 4.66699 198 14s121.333 23 178 41
c48.667 15.333 90.834 33.166 126.501 53.499s65.5 42.166 89.5 65.499c22 23.333 37.667 35 47 35s14 -8.33301 14 -25c0 -2 -0.5 -5.83301 -1.5 -11.5s-2 -12 -3 -19s-1.83301 -14.167 -2.5 -21.5s-1 -13.666 -1 -18.999c0 -15.333 10 -31 30 -47
c24.667 -20.667 55 -31 91 -31v-213v0zM697.997 538.002l-128 127l128 129l127 -129zM700.997 811.002l-128 127l128 129l127 -129z" />
    <glyph glyph-name="uniFB60" unicode="&#x67a;" horiz-adv-x="389" arabic-form="initial" 
d="M352 330c0 -54.667 -7.66602 -104.332 -22.999 -148.999s-39 -84.667 -71 -120c-36.667 -40.667 -98 -61 -184 -61h-68c-50.667 0 -76 35.333 -76 106c0 71.333 25.333 107 76 107h82c92.667 0 154 6 184 18c0 47.333 -17.667 94.666 -53 141.999
c43.333 113.333 68.666 170 75.999 170s18.333 -19.333 33 -58c16 -45.333 24 -97 24 -155zM160.001 600.002l-128 127l128 129l127 -129zM163.001 873.002l-128 127l128 129l127 -129z" />
    <glyph glyph-name="uniFB61" unicode="&#x67a;" horiz-adv-x="606" arabic-form="medial" 
d="M541 0c-122.667 0 -203.331 45.6689 -241.998 137.002c-50.667 -91.333 -125.667 -137 -225 -137h-68c-50.667 0 -76 35.333 -76 106c0 71.333 25.333 107 76 107h139c25.333 0 47 2 65 6s33.667 10.667 47 20s24.666 22.166 33.999 38.499s18 37.166 26 62.499
c8.66699 24.667 21.667 37 39 37c12.667 0 19 -7 19 -21c0 -4 -0.666992 -10.333 -2 -19s-2 -16.667 -2 -24c0 -20 2.16699 -36.5 6.5 -49.5s12.166 -23.167 23.499 -30.5s26.833 -12.5 46.5 -15.5s45.167 -4.5 76.5 -4.5h82v-213h-65zM321.003 543.002l-128 127l128 129
l127 -129zM324.003 816.002l-128 127l128 129l127 -129z" />
    <glyph glyph-name="uniFB63" unicode="&#x67f;" horiz-adv-x="1391" arabic-form="final" 
d="M1391 0c-21.333 0 -41.6689 3.16895 -61.002 9.50195s-36.666 16.166 -51.999 29.499c-37.333 30.667 -59.333 75.667 -66 135c-201.333 -132.667 -414.333 -199 -639 -199c-146 0 -262.667 31.667 -350 95c-82 58.667 -123 131.667 -123 219c0 56 14.333 117.333 43 184
c28.667 62.667 52 94 70 94c13.333 0 20 -6 20 -18c0 -3.33301 -1.5 -11 -4.5 -23s-8.16699 -27.667 -15.5 -47c-12 -39.333 -18 -72 -18 -98c0 -50 29.333 -93 88 -129c75.333 -49.333 189.333 -74 342 -74c70 0 136 4.66699 198 14s121.333 23 178 41
c48.667 15.333 90.834 33.166 126.501 53.499s65.5 42.166 89.5 65.499c22 23.333 37.667 35 47 35s14 -8.33301 14 -25c0 -2 -0.5 -5.83301 -1.5 -11.5s-2 -12 -3 -19s-1.83301 -14.167 -2.5 -21.5s-1 -13.666 -1 -18.999c0 -15.333 10 -31 30 -47
c24.667 -20.667 55 -31 91 -31v-213v0zM834.997 664.002l-113 93l-94 -115l-115 95l101 123l113 -94l97 116l111 -95zM719.997 849.002l-115 94l101 124l115 -94zM747.997 472.002l-115 94l100 124l115 -95z" />
    <glyph glyph-name="uniFB64" unicode="&#x67f;" horiz-adv-x="389" arabic-form="initial" 
d="M352 330c0 -54.667 -7.66602 -104.332 -22.999 -148.999s-39 -84.667 -71 -120c-36.667 -40.667 -98 -61 -184 -61h-68c-50.667 0 -76 35.333 -76 106c0 71.333 25.333 107 76 107h82c92.667 0 154 6 184 18c0 47.333 -17.667 94.666 -53 141.999
c43.333 113.333 68.666 170 75.999 170s18.333 -19.333 33 -58c16 -45.333 24 -97 24 -155zM288.001 757.002l-113 93l-94 -115l-115 95l101 123l113 -94l97 116l111 -95zM173.001 942.002l-115 94l101 124l115 -94zM201.001 565.002l-115 94l100 124l115 -95z" />
    <glyph glyph-name="uniFB65" unicode="&#x67f;" horiz-adv-x="606" arabic-form="medial" 
d="M541 0c-122.667 0 -203.331 45.6689 -241.998 137.002c-50.667 -91.333 -125.667 -137 -225 -137h-68c-50.667 0 -76 35.333 -76 106c0 71.333 25.333 107 76 107h139c25.333 0 47 2 65 6s33.667 10.667 47 20s24.666 22.166 33.999 38.499s18 37.166 26 62.499
c8.66699 24.667 21.667 37 39 37c12.667 0 19 -7 19 -21c0 -4 -0.666992 -10.333 -2 -19s-2 -16.667 -2 -24c0 -20 2.16699 -36.5 6.5 -49.5s12.166 -23.167 23.499 -30.5s26.833 -12.5 46.5 -15.5s45.167 -4.5 76.5 -4.5h82v-213h-65zM426.003 702.002l-113 93l-94 -115
l-115 95l101 123l113 -94l97 116l111 -95zM311.003 887.002l-115 94l101 124l115 -94zM339.003 510.002l-115 94l100 124l115 -95z" />
    <glyph glyph-name="uniFB67" unicode="&#x679;" horiz-adv-x="1391" arabic-form="final" 
d="M1391 0c-21.333 0 -41.6689 3.16895 -61.002 9.50195s-36.666 16.166 -51.999 29.499c-37.333 30.667 -59.333 75.667 -66 135c-201.333 -132.667 -414.333 -199 -639 -199c-146 0 -262.667 31.667 -350 95c-82 58.667 -123 131.667 -123 219c0 56 14.333 117.333 43 184
c28.667 62.667 52 94 70 94c13.333 0 20 -6 20 -18c0 -3.33301 -1.5 -11 -4.5 -23s-8.16699 -27.667 -15.5 -47c-12 -39.333 -18 -72 -18 -98c0 -50 29.333 -93 88 -129c75.333 -49.333 189.333 -74 342 -74c70 0 136 4.66699 198 14s121.333 23 178 41
c48.667 15.333 90.834 33.166 126.501 53.499s65.5 42.166 89.5 65.499c22 23.333 37.667 35 47 35s14 -8.33301 14 -25c0 -2 -0.5 -5.83301 -1.5 -11.5s-2 -12 -3 -19s-1.83301 -14.167 -2.5 -21.5s-1 -13.666 -1 -18.999c0 -15.333 10 -31 30 -47
c24.667 -20.667 55 -31 91 -31v-213v0zM952.997 843.002c0 -14 -4.99805 -31.332 -14.998 -51.999c-10.667 -21.333 -22 -37 -34 -47c-56 -54 -141 -81 -255 -81c-18.667 0 -35.334 5 -50.001 15c-12 8.66699 -23.333 18.667 -34 30c-9.33301 11.333 -14 19.333 -14 24
c0 7.33301 6 11 18 11c42 0 68.667 4.66699 80 14c32.667 23.333 49 51 49 83c0 36.667 -1.16699 71.167 -3.5 103.5s-5.83301 63.166 -10.5 92.499c-14 12 -21 23.333 -21 34c0 6 4.66699 17.333 14 34c21.333 37.333 33.666 56 36.999 56c6 0 9 -2.66699 9 -8
c0 -1.33301 -1 -5.33301 -3 -12s-3 -12.667 -3 -18c0 -7.33301 3 -14.833 9 -22.5s13 -12.834 21 -15.501c8.66699 -2 13 -5 13 -9c0 -9.33301 -5.33301 -25.666 -16 -48.999c-3.33301 -10 -9.33301 -15 -18 -15c6 -42 9 -78 9 -108c0 -37.333 -3 -63 -9 -77
c64 53.333 114.667 80 152 80c16 0 32 -7 48 -21c18 -14 27 -28 27 -42zM901.999 801.003c0 6.66699 -7.66602 13.668 -22.999 21.001c-7.33301 3.33301 -15 6.16602 -23 8.49902s-15.667 3.5 -23 3.5c-40.667 0 -94.334 -31.667 -161.001 -95h33
c42.667 0 87 7.66699 133 23c42.667 14.667 64 27.667 64 39z" />
    <glyph glyph-name="uniFB68" unicode="&#x679;" horiz-adv-x="389" arabic-form="initial" 
d="M352 330c0 -54.667 -7.66602 -104.332 -22.999 -148.999s-39 -84.667 -71 -120c-36.667 -40.667 -98 -61 -184 -61h-68c-50.667 0 -76 35.333 -76 106c0 71.333 25.333 107 76 107h82c92.667 0 154 6 184 18c0 47.333 -17.667 94.666 -53 141.999
c43.333 113.333 68.666 170 75.999 170s18.333 -19.333 33 -58c16 -45.333 24 -97 24 -155zM347.001 805.002c0 -14 -4.99805 -31.332 -14.998 -51.999c-10.667 -21.333 -22 -37 -34 -47c-56 -54 -141 -81 -255 -81c-18.667 0 -35.334 5 -50.001 15
c-12 8.66699 -23.333 18.667 -34 30c-9.33301 11.333 -14 19.333 -14 24c0 7.33301 6 11 18 11c42 0 68.667 4.66699 80 14c32.667 23.333 49 51 49 83c0 36.667 -1.16699 71.167 -3.5 103.5s-5.83301 63.166 -10.5 92.499c-14 12 -21 23.333 -21 34
c0 6 4.66699 17.333 14 34c21.333 37.333 33.666 56 36.999 56c6 0 9 -2.66699 9 -8c0 -1.33301 -1 -5.33301 -3 -12s-3 -12.667 -3 -18c0 -7.33301 3 -14.833 9 -22.5s13 -12.834 21 -15.501c8.66699 -2 13 -5 13 -9c0 -9.33301 -5.33301 -25.666 -16 -48.999
c-3.33301 -10 -9.33301 -15 -18 -15c6 -42 9 -78 9 -108c0 -37.333 -3 -63 -9 -77c64 53.333 114.667 80 152 80c16 0 32 -7 48 -21c18 -14 27 -28 27 -42zM296.003 763.003c0 6.66699 -7.66602 13.668 -22.999 21.001c-7.33301 3.33301 -15 6.16602 -23 8.49902
s-15.667 3.5 -23 3.5c-40.667 0 -94.334 -31.667 -161.001 -95h33c42.667 0 87 7.66699 133 23c42.667 14.667 64 27.667 64 39z" />
    <glyph glyph-name="uniFB69" unicode="&#x679;" horiz-adv-x="606" arabic-form="medial" 
d="M541 0c-122.667 0 -203.331 45.6689 -241.998 137.002c-50.667 -91.333 -125.667 -137 -225 -137h-68c-50.667 0 -76 35.333 -76 106c0 71.333 25.333 107 76 107h139c25.333 0 47 2 65 6s33.667 10.667 47 20s24.666 22.166 33.999 38.499s18 37.166 26 62.499
c8.66699 24.667 21.667 37 39 37c12.667 0 19 -7 19 -21c0 -4 -0.666992 -10.333 -2 -19s-2 -16.667 -2 -24c0 -20 2.16699 -36.5 6.5 -49.5s12.166 -23.167 23.499 -30.5s26.833 -12.5 46.5 -15.5s45.167 -4.5 76.5 -4.5h82v-213h-65zM491.003 765.002
c0 -14 -4.99805 -31.332 -14.998 -51.999c-10.667 -21.333 -22 -37 -34 -47c-56 -54 -141 -81 -255 -81c-18.667 0 -35.334 5 -50.001 15c-12 8.66699 -23.333 18.667 -34 30c-9.33301 11.333 -14 19.333 -14 24c0 7.33301 6 11 18 11c42 0 68.667 4.66699 80 14
c32.667 23.333 49 51 49 83c0 36.667 -1.16699 71.167 -3.5 103.5s-5.83301 63.166 -10.5 92.499c-14 12 -21 23.333 -21 34c0 6 4.66699 17.333 14 34c21.333 37.333 33.666 56 36.999 56c6 0 9 -2.66699 9 -8c0 -1.33301 -1 -5.33301 -3 -12s-3 -12.667 -3 -18
c0 -7.33301 3 -14.833 9 -22.5s13 -12.834 21 -15.501c8.66699 -2 13 -5 13 -9c0 -9.33301 -5.33301 -25.666 -16 -48.999c-3.33301 -10 -9.33301 -15 -18 -15c6 -42 9 -78 9 -108c0 -37.333 -3 -63 -9 -77c64 53.333 114.667 80 152 80c16 0 32 -7 48 -21
c18 -14 27 -28 27 -42zM440.005 723.003c0 6.66699 -7.66602 13.668 -22.999 21.001c-7.33301 3.33301 -15 6.16602 -23 8.49902s-15.667 3.5 -23 3.5c-40.667 0 -94.334 -31.667 -161.001 -95h33c42.667 0 87 7.66699 133 23c42.667 14.667 64 27.667 64 39z" />
    <glyph glyph-name="afii57371" unicode="&#x6a4;" horiz-adv-x="1542" arabic-form="final" 
d="M1542 0c-116 0 -222.334 34.6699 -319.001 104.003c-211.333 -98 -426.333 -147 -645 -147c-153.333 0 -273.666 33.333 -360.999 100c-78 60 -117 136 -117 228c0 55.333 14.333 116.666 43 183.999c28.667 62.667 52 94 70 94c13.333 0 20 -6 20 -18
c0 -3.33301 -1.5 -11 -4.5 -23s-8.16699 -28.333 -15.5 -49c-12 -39.333 -18 -71.333 -18 -96c0 -50.667 35.333 -97 106 -139c84 -52 188.333 -78 313 -78c92 0 179.833 5.16699 263.5 15.5s163.834 26.166 240.501 47.499c-14.667 40.667 -22 81.667 -22 123
c0 54.667 24.333 125.667 73 213c58 100 118.333 150 181 150c29.333 0 55 -22.667 77 -68c11.333 -21.333 19.666 -42.833 24.999 -64.5s8 -43.834 8 -66.501c0 -102.667 -28.667 -195.667 -86 -279c30.667 -12 86.667 -18 168 -18v-213zM1374 387.003
c0 12.667 -2.33398 25.333 -7.00098 38s-11.167 24 -19.5 34s-18 18 -29 24s-22.5 9 -34.5 9c-15.333 0 -40.666 -16.667 -75.999 -50c-34 -30 -51 -54.333 -51 -73c0 -30.667 31.333 -62.334 94 -95.001c82 40.667 123 78.334 123 113.001zM1375 810.002l-115 109
l-110 -117l-118 110l119 126l115 -109l112 118l115 -111zM1264 1019l-117 111l118 125l118 -110z" />
    <glyph glyph-name="afii57372" unicode="&#x6a4;" horiz-adv-x="573" arabic-form="initial" 
d="M524 367c0 -25.333 -1.50195 -50.334 -4.50195 -75.001s-8.16699 -49.667 -15.5 -75c-17.333 -55.333 -37.333 -94.333 -60 -117c-70.667 -66.667 -216.667 -100 -438 -100c-50.667 0 -76 35.333 -76 106c0 71.333 25.333 107 76 107c134.667 0 240 5.66699 316 17
s124.333 28.333 145 51c-4 12.667 -7.66699 23.5 -11 32.5s-6.66602 16.833 -9.99902 23.5s-6.5 12.5 -9.5 17.5l-8.5 14.5c-8 -17.333 -24.333 -34.333 -49 -51c-29.333 -19.333 -58 -29 -86 -29c-48 0 -84.333 16.833 -109 50.5s-37 78.834 -37 135.501
c0 21.333 3.66699 46.833 11 76.5s17.833 58 31.5 85s30.334 49.833 50.001 68.5s42.167 28 67.5 28c21.333 0 43.5 -8.5 66.5 -25.5s47.167 -45.833 72.5 -86.5c52 -86 78 -170.667 78 -254zM387.998 476.999c-8 18.667 -15.998 33.3311 -23.998 43.998
s-16 18.334 -24 23.001s-16.333 7.5 -25 8.5s-17.334 1.5 -26.001 1.5c-21.333 0 -39 -6.16699 -53 -18.5s-21 -29.166 -21 -50.499c0 -17.333 6.5 -30 19.5 -38s28.833 -12 47.5 -12s37.667 3.5 57 10.5s35.666 17.5 48.999 31.5zM366 848.996l-115 109l-110 -117l-118 110
l119 126l115 -109l112 118l115 -111zM255 1058l-117 111l118 125l118 -110z" />
    <glyph glyph-name="afii57369" unicode="&#x6a4;" horiz-adv-x="606" arabic-form="medial" 
d="M606 0c-62.667 0 -120.499 8.5 -173.499 25.5s-102.167 42.5 -147.5 76.5c-50 -34 -98 -59.5 -144 -76.5s-91 -25.5 -135 -25.5c-50.667 -0 -76 35.333 -76 106c0 71.333 25.333 107 76 107c32 0 62.167 1 90.5 3s54.166 5.66699 77.499 11
c-7.33301 15.333 -12.833 32.833 -16.5 52.5s-5.5 41.834 -5.5 66.501c0 54.667 24.333 125.667 73 213c58 100 118.333 150 181 150c29.333 0 55 -22.667 77 -68c11.333 -21.333 19.666 -42.833 24.999 -64.5s8 -43.834 8 -66.501c0 -109.333 -30.667 -202.333 -92 -279
c36.667 -12 97.334 -18 182.001 -18v-213zM430.001 387c0 12.667 -2.33398 25.332 -7.00098 37.999s-11.167 24 -19.5 34s-18 18 -29 24s-22.5 9 -34.5 9c-15.333 0 -40.666 -16.667 -75.999 -50c-34 -29.333 -51 -53.666 -51 -72.999c0 -30.667 31.333 -62.334 94 -95.001
c82 40.667 123 78.334 123 113.001zM469 833.998l-115 109l-110 -117l-118 110l119 126l115 -109l112 118l115 -111zM358 1043l-117 111l118 125l118 -110z" />
    <glyph glyph-name="uniFB6f" unicode="&#x6a6;" horiz-adv-x="1542" arabic-form="final" 
d="M1542 0c-116 0 -222.334 34.6699 -319.001 104.003c-211.333 -98 -426.333 -147 -645 -147c-153.333 0 -273.666 33.333 -360.999 100c-78 60 -117 136 -117 228c0 55.333 14.333 116.666 43 183.999c28.667 62.667 52 94 70 94c13.333 0 20 -6 20 -18
c0 -3.33301 -1.5 -11 -4.5 -23s-8.16699 -28.333 -15.5 -49c-12 -39.333 -18 -71.333 -18 -96c0 -50.667 35.333 -97 106 -139c84 -52 188.333 -78 313 -78c92 0 179.833 5.16699 263.5 15.5s163.834 26.166 240.501 47.499c-14.667 40.667 -22 81.667 -22 123
c0 54.667 24.333 125.667 73 213c58 100 118.333 150 181 150c29.333 0 55 -22.667 77 -68c11.333 -21.333 19.666 -42.833 24.999 -64.5s8 -43.834 8 -66.501c0 -102.667 -28.667 -195.667 -86 -279c30.667 -12 86.667 -18 168 -18v-213zM1374 387.003
c0 12.667 -2.33398 25.333 -7.00098 38s-11.167 24 -19.5 34s-18 18 -29 24s-22.5 9 -34.5 9c-15.333 0 -40.666 -16.667 -75.999 -50c-34 -30 -51 -54.333 -51 -73c0 -30.667 31.333 -62.334 94 -95.001c82 40.667 123 78.334 123 113.001zM1406 995.002l-113 93l-94 -115
l-115 95l101 123l113 -94l97 116l111 -95zM1291 1180l-115 94l101 124l115 -94zM1319 803.002l-115 94l100 124l115 -95z" />
    <glyph glyph-name="uniFB70" unicode="&#x6a6;" horiz-adv-x="608" arabic-form="initial" 
d="M524 367c0 -25.333 -1.50195 -50.334 -4.50195 -75.001s-8.16699 -49.667 -15.5 -75c-17.333 -55.333 -37.333 -94.333 -60 -117c-70.667 -66.667 -216.667 -100 -438 -100c-50.667 0 -76 35.333 -76 106c0 71.333 25.333 107 76 107c134.667 0 240 5.66699 316 17
s124.333 28.333 145 51c-4 12.667 -7.66699 23.5 -11 32.5s-6.66602 16.833 -9.99902 23.5s-6.5 12.5 -9.5 17.5l-8.5 14.5c-8 -17.333 -24.333 -34.333 -49 -51c-29.333 -19.333 -58 -29 -86 -29c-48 0 -84.333 16.833 -109 50.5s-37 78.834 -37 135.501
c0 21.333 3.66699 46.833 11 76.5s17.833 58 31.5 85s30.334 49.833 50.001 68.5s42.167 28 67.5 28c21.333 0 43.5 -8.5 66.5 -25.5s47.167 -45.833 72.5 -86.5c52 -86 78 -170.667 78 -254zM387.998 476.999c-8 18.667 -15.998 33.3311 -23.998 43.998
s-16 18.334 -24 23.001s-16.333 7.5 -25 8.5s-17.334 1.5 -26.001 1.5c-21.333 0 -39 -6.16699 -53 -18.5s-21 -29.166 -21 -50.499c0 -17.333 6.5 -30 19.5 -38s28.833 -12 47.5 -12s37.667 3.5 57 10.5s35.666 17.5 48.999 31.5zM399 1036l-113 93l-94 -115l-115 95
l101 123l113 -94l97 116l111 -95zM284 1221l-115 94l101 124l115 -94zM312 843.996l-115 94l100 124l115 -95z" />
    <glyph glyph-name="uniFB71" unicode="&#x6a6;" horiz-adv-x="606" arabic-form="medial" 
d="M606 0c-62.667 0 -120.499 8.5 -173.499 25.5s-102.167 42.5 -147.5 76.5c-50 -34 -98 -59.5 -144 -76.5s-91 -25.5 -135 -25.5c-50.667 -0 -76 35.333 -76 106c0 71.333 25.333 107 76 107c32 0 62.167 1 90.5 3s54.166 5.66699 77.499 11
c-7.33301 15.333 -12.833 32.833 -16.5 52.5s-5.5 41.834 -5.5 66.501c0 54.667 24.333 125.667 73 213c58 100 118.333 150 181 150c29.333 0 55 -22.667 77 -68c11.333 -21.333 19.666 -42.833 24.999 -64.5s8 -43.834 8 -66.501c0 -109.333 -30.667 -202.333 -92 -279
c36.667 -12 97.334 -18 182.001 -18v-213zM430.001 387c0 12.667 -2.33398 25.332 -7.00098 37.999s-11.167 24 -19.5 34s-18 18 -29 24s-22.5 9 -34.5 9c-15.333 0 -40.666 -16.667 -75.999 -50c-34 -29.333 -51 -53.666 -51 -72.999c0 -30.667 31.333 -62.334 94 -95.001
c82 40.667 123 78.334 123 113.001zM463 998.998l-113 93l-94 -115l-115 95l101 123l113 -94l97 116l111 -95zM348 1184l-115 94l101 124l115 -94zM376 806.998l-115 94l100 124l115 -95z" />
    <glyph glyph-name="uniFB73" unicode="&#x684;" horiz-adv-x="1063" arabic-form="final" 
d="M1174 -604c0 -14.667 -25.333 -33.001 -76 -55.001l-129 -58c-41.333 -23.333 -89.5 -40.666 -144.5 -51.999s-116.833 -17 -185.5 -17c-98 0 -181.833 9.16699 -251.5 27.5s-126.5 46.5 -170.5 84.5c-87.333 75.333 -131 200.333 -131 375
c0 68.667 6.66699 133.667 20 195s32.666 119.333 57.999 174c24.667 50 57.334 101 98.001 153s89.334 105.333 146.001 160c-24 5.33301 -44.667 9.33301 -62 12s-32.333 4 -45 4c-58 0 -106.333 -28.667 -145 -86c-11.333 -16 -21 -24 -29 -24c-12 0 -18 7.33301 -18 22
c0 15.333 6 40.666 18 75.999c7.33301 21.333 15.333 40.833 24 58.5s17.667 33.167 27 46.5c46.667 62.667 115.667 94 207 94c11.333 0 28.333 -1.5 51 -4.5s52 -7.16699 88 -12.5s67.5 -9.33301 94.5 -12s50.167 -4 69.5 -4c13.333 0 30.833 0.5 52.5 1.5
s47.834 3.16699 78.501 6.5c32 3.33301 57.167 5.83301 75.5 7.5s30.166 2.5 35.499 2.5l-94 -206l-121 -13c-6.66699 -11.333 -10 -27.666 -10 -48.999c0 -16 3.5 -29.833 10.5 -41.5s18.333 -21 34 -28s36.167 -12.167 61.5 -15.5s56 -5 92 -5h160v-213h-133
c-190 0 -285 71.667 -285 215c0 60.667 5.66699 103 17 127c-71.333 -14.667 -135.166 -38.167 -191.499 -70.5s-106.833 -74.5 -151.5 -126.5c-91.333 -105.333 -137 -230 -137 -374c0 -122 41.667 -211.667 125 -269c100.667 -66.667 272 -100 514 -100
c14.667 0 36.167 0.833008 64.5 2.5s63.5 4.16699 105.5 7.5c43.333 3.33301 77.666 5.83301 102.999 7.5s41.666 2.5 48.999 2.5c20.667 0 31 -8.66699 31 -26zM491 -466.001l-128 127l128 129l127 -129zM494 -193.001l-128 127l128 129l127 -129z" />
    <glyph glyph-name="uniFB74" unicode="&#x684;" horiz-adv-x="938" arabic-form="initial" 
d="M780 188l-122.999 13c-52 0 -106.333 -11 -163 -33c-13.333 -5.33301 -34.333 -14.333 -63 -27s-65 -29.667 -109 -51c-62.667 -30 -120.5 -52.5 -173.5 -67.5s-100.5 -22.5 -142.5 -22.5c-50.667 -0 -76 35.333 -76 106c0 71.333 25.333 107 76 107h55
c52.667 0 110 7 172 21s129 35 201 63c-106 78 -186.333 117 -241 117c-12.667 0 -25.667 -2.5 -39 -7.5s-27 -12.167 -41 -21.5c-29.333 -18 -46 -27 -50 -27c-10.667 0 -16 9.66699 -16 29c0 17.333 3.66699 36 11 56s18.666 41.667 33.999 65
c38.667 58.667 88.667 88 150 88c49.333 0 126.333 -30.667 231 -92c102 -60 203 -90 303 -90h86zM428.001 -620l-128 127l128 129l127 -129zM431.001 -347l-128 127l128 129l127 -129z" />
    <glyph glyph-name="uniFB75" unicode="&#x684;" horiz-adv-x="1063" arabic-form="medial" 
d="M1016 0c-91.333 0 -163.001 22.001 -215.001 66.001c-48 38.667 -72 90.334 -72 155.001v62c-64.667 -15.333 -123.5 -33.333 -176.5 -54s-101.167 -45 -144.5 -73c-160.667 -104 -294.667 -156 -402 -156c-50.667 0 -76 35.333 -76 106c0 71.333 25.333 107 76 107
c26.667 0 55.834 2.16699 87.501 6.5s66.167 11.166 103.5 20.499c53.333 13.333 101.333 29.333 144 48s80 40.667 112 66c-40 21.333 -77.667 37.666 -113 48.999s-68 17 -98 17c-34 0 -68.333 -10.333 -103 -31c-36 -20.667 -54.333 -31 -55 -31
c-12 0 -18 6.33301 -18 19c0 17.333 4.66699 37.166 14 59.499s23.666 47.5 42.999 75.5c46.667 68 100 102 160 102c19.333 0 46 -5.16699 80 -15.5s76 -26.166 126 -47.499c100 -42.667 175.333 -64 226 -64c17.333 0 36.833 1 58.5 3s45.834 4.66699 72.501 8
c54.667 8 86 12 94 12l-43 -197l-121 -20c10 -53.333 81.667 -80 215 -80h72v-213h-47zM504.999 -586.999l-128 127l128 129l127 -129zM507.999 -313.999l-128 127l128 129l127 -129z" />
    <glyph glyph-name="uniFB77" unicode="&#x683;" horiz-adv-x="1063" arabic-form="final" 
d="M1174 -604c0 -14.667 -25.333 -33.001 -76 -55.001l-129 -58c-41.333 -23.333 -89.5 -40.666 -144.5 -51.999s-116.833 -17 -185.5 -17c-98 0 -181.833 9.16699 -251.5 27.5s-126.5 46.5 -170.5 84.5c-87.333 75.333 -131 200.333 -131 375
c0 68.667 6.66699 133.667 20 195s32.666 119.333 57.999 174c24.667 50 57.334 101 98.001 153s89.334 105.333 146.001 160c-24 5.33301 -44.667 9.33301 -62 12s-32.333 4 -45 4c-58 0 -106.333 -28.667 -145 -86c-11.333 -16 -21 -24 -29 -24c-12 0 -18 7.33301 -18 22
c0 15.333 6 40.666 18 75.999c7.33301 21.333 15.333 40.833 24 58.5s17.667 33.167 27 46.5c46.667 62.667 115.667 94 207 94c11.333 0 28.333 -1.5 51 -4.5s52 -7.16699 88 -12.5s67.5 -9.33301 94.5 -12s50.167 -4 69.5 -4c13.333 0 30.833 0.5 52.5 1.5
s47.834 3.16699 78.501 6.5c32 3.33301 57.167 5.83301 75.5 7.5s30.166 2.5 35.499 2.5l-94 -206l-121 -13c-6.66699 -11.333 -10 -27.666 -10 -48.999c0 -16 3.5 -29.833 10.5 -41.5s18.333 -21 34 -28s36.167 -12.167 61.5 -15.5s56 -5 92 -5h160v-213h-133
c-190 0 -285 71.667 -285 215c0 60.667 5.66699 103 17 127c-71.333 -14.667 -135.166 -38.167 -191.499 -70.5s-106.833 -74.5 -151.5 -126.5c-91.333 -105.333 -137 -230 -137 -374c0 -122 41.667 -211.667 125 -269c100.667 -66.667 272 -100 514 -100
c14.667 0 36.167 0.833008 64.5 2.5s63.5 4.16699 105.5 7.5c43.333 3.33301 77.666 5.83301 102.999 7.5s41.666 2.5 48.999 2.5c20.667 0 31 -8.66699 31 -26zM781 -353.001l-110 113l-115 -113l-113 115l123 121l111 -113l116 113l111 -115z" />
    <glyph glyph-name="uniFB78" unicode="&#x683;" horiz-adv-x="938" arabic-form="initial" 
d="M780 188l-122.999 13c-52 0 -106.333 -11 -163 -33c-13.333 -5.33301 -34.333 -14.333 -63 -27s-65 -29.667 -109 -51c-62.667 -30 -120.5 -52.5 -173.5 -67.5s-100.5 -22.5 -142.5 -22.5c-50.667 -0 -76 35.333 -76 106c0 71.333 25.333 107 76 107h55
c52.667 0 110 7 172 21s129 35 201 63c-106 78 -186.333 117 -241 117c-12.667 0 -25.667 -2.5 -39 -7.5s-27 -12.167 -41 -21.5c-29.333 -18 -46 -27 -50 -27c-10.667 0 -16 9.66699 -16 29c0 17.333 3.66699 36 11 56s18.666 41.667 33.999 65
c38.667 58.667 88.667 88 150 88c49.333 0 126.333 -30.667 231 -92c102 -60 203 -90 303 -90h86zM548.001 -343l-110 113l-115 -113l-113 115l123 121l111 -113l116 113l111 -115z" />
    <glyph glyph-name="uniFB79" unicode="&#x683;" horiz-adv-x="1063" arabic-form="medial" 
d="M1016 0c-91.333 0 -163.001 22.001 -215.001 66.001c-48 38.667 -72 90.334 -72 155.001v62c-64.667 -15.333 -123.5 -33.333 -176.5 -54s-101.167 -45 -144.5 -73c-160.667 -104 -294.667 -156 -402 -156c-50.667 0 -76 35.333 -76 106c0 71.333 25.333 107 76 107
c26.667 0 55.834 2.16699 87.501 6.5s66.167 11.166 103.5 20.499c53.333 13.333 101.333 29.333 144 48s80 40.667 112 66c-40 21.333 -77.667 37.666 -113 48.999s-68 17 -98 17c-34 0 -68.333 -10.333 -103 -31c-36 -20.667 -54.333 -31 -55 -31
c-12 0 -18 6.33301 -18 19c0 17.333 4.66699 37.166 14 59.499s23.666 47.5 42.999 75.5c46.667 68 100 102 160 102c19.333 0 46 -5.16699 80 -15.5s76 -26.166 126 -47.499c100 -42.667 175.333 -64 226 -64c17.333 0 36.833 1 58.5 3s45.834 4.66699 72.501 8
c54.667 8 86 12 94 12l-43 -197l-121 -20c10 -53.333 81.667 -80 215 -80h72v-213h-47zM624.999 -344.999l-110 113l-115 -113l-113 115l123 121l111 -113l116 113l111 -115z" />
    <glyph glyph-name="afii62961" unicode="&#x686;" horiz-adv-x="1063" arabic-form="final" 
d="M1174 -604c0 -14.667 -25.333 -33.001 -76 -55.001l-129 -58c-41.333 -23.333 -89.5 -40.666 -144.5 -51.999s-116.833 -17 -185.5 -17c-98 0 -181.833 9.16699 -251.5 27.5s-126.5 46.5 -170.5 84.5c-87.333 75.333 -131 200.333 -131 375
c0 68.667 6.66699 133.667 20 195s32.666 119.333 57.999 174c24.667 50 57.334 101 98.001 153s89.334 105.333 146.001 160c-24 5.33301 -44.667 9.33301 -62 12s-32.333 4 -45 4c-58 0 -106.333 -28.667 -145 -86c-11.333 -16 -21 -24 -29 -24c-12 0 -18 7.33301 -18 22
c0 15.333 6 40.666 18 75.999c7.33301 21.333 15.333 40.833 24 58.5s17.667 33.167 27 46.5c46.667 62.667 115.667 94 207 94c11.333 0 28.333 -1.5 51 -4.5s52 -7.16699 88 -12.5s67.5 -9.33301 94.5 -12s50.167 -4 69.5 -4c13.333 0 30.833 0.5 52.5 1.5
s47.834 3.16699 78.501 6.5c32 3.33301 57.167 5.83301 75.5 7.5s30.166 2.5 35.499 2.5l-94 -206l-121 -13c-6.66699 -11.333 -10 -27.666 -10 -48.999c0 -16 3.5 -29.833 10.5 -41.5s18.333 -21 34 -28s36.167 -12.167 61.5 -15.5s56 -5 92 -5h160v-213h-133
c-190 0 -285 71.667 -285 215c0 60.667 5.66699 103 17 127c-71.333 -14.667 -135.166 -38.167 -191.499 -70.5s-106.833 -74.5 -151.5 -126.5c-91.333 -105.333 -137 -230 -137 -374c0 -122 41.667 -211.667 125 -269c100.667 -66.667 272 -100 514 -100
c14.667 0 36.167 0.833008 64.5 2.5s63.5 4.16699 105.5 7.5c43.333 3.33301 77.666 5.83301 102.999 7.5s41.666 2.5 48.999 2.5c20.667 0 31 -8.66699 31 -26zM514 -137.001l110 115l123 -123l-111 -113l-116 111l-111 -111l-123 119l113 117zM522 -235.001l123 -123
l-113 -113l-123 119z" />
    <glyph glyph-name="afii62959" unicode="&#x686;" horiz-adv-x="938" arabic-form="initial" 
d="M780 188l-122.999 13c-52 0 -106.333 -11 -163 -33c-13.333 -5.33301 -34.333 -14.333 -63 -27s-65 -29.667 -109 -51c-62.667 -30 -120.5 -52.5 -173.5 -67.5s-100.5 -22.5 -142.5 -22.5c-50.667 -0 -76 35.333 -76 106c0 71.333 25.333 107 76 107h55
c52.667 0 110 7 172 21s129 35 201 63c-106 78 -186.333 117 -241 117c-12.667 0 -25.667 -2.5 -39 -7.5s-27 -12.167 -41 -21.5c-29.333 -18 -46 -27 -50 -27c-10.667 0 -16 9.66699 -16 29c0 17.333 3.66699 36 11 56s18.666 41.667 33.999 65
c38.667 58.667 88.667 88 150 88c49.333 0 126.333 -30.667 231 -92c102 -60 203 -90 303 -90h86zM347.001 -289l110 115l123 -123l-111 -113l-116 111l-111 -111l-123 119l113 117zM355.001 -387l123 -123l-113 -113l-123 119z" />
    </font>
</defs>
</svg>
