<?xml version="1.0" standalone="no"?>
<!DOCTYPE svg PUBLIC "-//W3C//DTD SVG 1.1//EN" "http://www.w3.org/Graphics/SVG/1.1/DTD/svg11.dtd" >
<svg>
<metadata>
Created by FontForge 20090914 at Wed Aug 26 07:45:22 2015
 By www-data
Typeface &#194;&#169; The scict.ir Corporation plc. Data &#194;&#169; The scict.ir Corporation plc/Type Solutions Inc. 2012-2013. All Rights Reserved - Modify by Hossein Zahedi.
</metadata>
<defs>
<font id="IRCompset" horiz-adv-x="0" >
  <font-face 
    font-family="IRCompset"
    font-weight="400"
    font-stretch="normal"
    units-per-em="2048"
    panose-1="2 0 5 6 0 0 0 2 0 2"
    ascent="1638"
    descent="-410"
    x-height="774"
    cap-height="1145"
    bbox="-431 -1116 2218 1919"
    underline-thickness="60"
    underline-position="-969"
    unicode-range="U+0020-U+FFFC"
  />
<missing-glyph horiz-adv-x="496" 
 />
    <glyph glyph-name="afii64184" unicode="&#xfedf;&#xfee0;&#x651;&#x670;&#xfeea;" horiz-adv-x="1333" arabic-form="isolated" 
d="M89 218c0 59.333 34.3311 123.334 102.998 192.001c60.667 58 124.334 100.333 191.001 127l-13 78l50 66l15 4l5 -8c3.33301 -64 7 -128.333 11 -193c6 -98.667 20.333 -174.667 43 -228c28.667 -71.333 71.667 -107 129 -107h19v1c115.333 0 173 52.333 173 157
c0 92 -3.33301 177.667 -10 257s-10 164.666 -10 255.999c0 38 10 57 30 57c38.667 0 58 -10.667 58 -32v-273c0 -48 4.66699 -106.333 14 -175c23.333 -164.667 73.333 -247 150 -247c108.667 5.33301 163 38 163 98c0 77.333 -8.33301 167 -25 269s-25 192 -25 270
c0 136.667 26 221.334 78 254.001c12.667 -8 30.334 -28.667 53.001 -62c20 -28 34 -51 42 -69c-18 -23.333 -36.667 -46.333 -56 -69c-18 -26.667 -27 -54.667 -27 -84c0 -70.667 4.5 -148.334 13.5 -233.001s13.5 -161.667 13.5 -231c0 -66 -17.667 -129 -53 -189
c-36 -59.333 -78.667 -93.333 -128 -102v-2h-85v2c-40 6.66699 -72 26 -96 58c-19.333 23.333 -40 67 -62 131c-12 -42 -30 -82 -54 -120c-30 -47.333 -79.5 -70 -148.5 -68s-116.833 18 -143.5 48c-40 34 -70.667 94.333 -92 181c-54.667 -69.333 -90.667 -104 -108 -104
c-46 0 -89.667 5 -131 15c-58 18 -87 43 -87 75zM963.998 1128c0 -48 -7.66895 -84.668 -23.002 -110.001s-38 -38 -68 -38c-13.333 0 -23.5 1 -30.5 3s-15.833 7.66699 -26.5 17c-5.33301 -20.667 -17.333 -39.334 -36 -56.001s-37 -25 -55 -25
c-21.333 0 -39.166 9 -53.499 27s-21.5 42 -21.5 72c0 16.667 3 35.667 9 57l10 32l22 2c0 -35.333 2.5 -60.166 7.5 -74.499s14.5 -21.5 28.5 -21.5c16.667 0 31.834 10.5 45.501 31.5s24.5 58.5 32.5 112.5l16 6c7.33301 -35.333 15 -59.166 23 -71.499
s17.667 -18.5 29 -18.5c39.333 0 59 44.667 59 134l20 8l10 -47zM205.996 322c0 -26 54.667 -38.999 164 -38.999h35l-11 154c-26 -7.33301 -61.667 -23 -107 -47c-54 -28.667 -81 -51.334 -81 -68.001zM818.996 1255c-2 -6.66699 -4.66699 -17 -8 -31
c-6.66699 -11.333 -13.667 -17 -21 -17c-1.33301 0 -3.33301 3.66699 -6 11l-35 186l41 38h5c2 0 10.667 -51.667 26 -155z" />
    <glyph glyph-name="afii62834" unicode="&#xfedf;&#xfe82;" horiz-adv-x="1057" arabic-form="isolated" 
d="M110 948c-0.666992 25.333 5.66992 60.9971 19.0029 106.997c15.333 49.333 31.666 80.333 48.999 93c110 -63.333 231 -179.666 363 -348.999c102.667 -133.333 194 -276.666 274 -429.999c54 124 81 304.333 81 541c0 21.333 -2.33301 51.833 -7 91.5s-7 69.5 -7 89.5
c0 12 7.83301 32 23.5 60s28.167 46 37.5 54c9.33301 -8 24 -28.167 44 -60.5s30 -53.166 30 -62.499c0 -2 -6.83301 -14 -20.5 -36s-21.834 -38 -24.501 -48c-4.66699 -16.667 -7 -43.334 -7 -80.001c0 -144.667 -4.33301 -252 -13 -322
c-14.667 -122.667 -47 -224 -97 -304c28 -72.667 42 -134.334 42 -185.001c0 -68 -11.667 -115.333 -35 -142c-24 -30 -69.667 -45 -137 -45h-182c-30.667 0 -51.667 13.667 -63 41c-6 16.667 -9 44.667 -9 84c0 14 9 24 27 30c52 22.667 106.333 52.334 163 89.001
c78 50 117 91 117 123c0 50.667 -60.667 146.334 -182 287.001c-110.667 129.333 -195.334 214 -254.001 254c-14.667 -29.333 -28.667 -49.333 -42 -60c-104.667 98 -168 156 -190 174v6zM599.004 62.9971c21.333 -5.33301 47.333 -8.00098 78 -8.00098
c103.333 0 161 11.667 173 35c0 26 -13.667 71.333 -41 136c-72 -77.333 -142 -131.666 -210 -162.999zM-150.996 1334c0 23.333 8.83105 44 26.498 62s38.167 27 61.5 27c26.667 0 67.667 -4.83301 123 -14.5s97 -14.5 125 -14.5c126 0 239.333 18 340 54
c14.667 7.33301 21.334 2.33301 20.001 -15c-8.66699 -44.667 -51.667 -82 -129 -112s-161.666 -43.333 -252.999 -40c-44.667 0 -100 6 -166 18c-31.333 -8 -53 -31.333 -65 -70c-22.667 0 -42.167 11.5 -58.5 34.5s-24.5 46.5 -24.5 70.5z" />
    <glyph glyph-name="afii62835" unicode="&#xfee0;&#xfe82;" horiz-adv-x="1177" arabic-form="final" 
d="M59 850c0 89.333 7.99707 133.997 23.9971 133.997c26 0 82.667 -28 170 -84c245.333 -157.333 407 -339.666 485 -546.999c53.333 142.667 80 301.334 80 476.001c0 44.667 -3.33301 121 -10 229c39.333 56 60 85.667 62 89c12.667 -76 18.334 -135 17.001 -177
c50 -546.667 128.667 -820 236 -820h69v-150h-49c-56.667 0 -102 20.667 -136 62c-42 53.333 -76 140 -102 260c-9.33301 40.667 -24.666 135.667 -45.999 285c-44.667 -303.333 -155 -532.333 -331 -687c-50.667 -8.66699 -101.667 -16.667 -153 -24
c-60 -10 -111.667 -15 -155 -15c-11.333 0 -21.333 5.66699 -30 17c15.333 18 69 50 161 96c108.667 53.333 185.334 96.333 230.001 129c78 55.333 117 110 117 164c0 55.333 -52 133.333 -156 234c-100 95.333 -179.667 150.333 -239 165c-14 -10 -23.667 -25.333 -29 -46
l-15 -11c-39.333 22 -68.333 40.667 -87 56c-59.333 36.667 -90 57 -92 61c-14 14.667 -21 49.334 -21 104.001zM-208.003 1167c0 23.333 8.83105 44 26.498 62s38.167 27 61.5 27c26.667 0 67.667 -4.83301 123 -14.5s97 -14.5 125 -14.5c126 0 239.333 18 340 54
c14.667 7.33301 21.334 2.33301 20.001 -15c-8.66699 -44.667 -51.667 -82 -129 -112s-161.666 -43.333 -252.999 -40c-44.667 0 -100 6 -166 18c-31.333 -8 -53 -31.333 -65 -70c-22.667 0 -42.167 11.5 -58.5 34.5s-24.5 46.5 -24.5 70.5z" />
    <glyph glyph-name="afii62836" unicode="&#xfedf;&#xfe84;" horiz-adv-x="1057" arabic-form="isolated" 
d="M110 948c-0.666992 25.333 5.66992 60.9971 19.0029 106.997c15.333 49.333 31.666 80.333 48.999 93c110 -63.333 231 -179.666 363 -348.999c102.667 -133.333 194 -276.666 274 -429.999c54 124 81 304.333 81 541c0 21.333 -2.33301 51.833 -7 91.5s-7 69.5 -7 89.5
c0 12 7.83301 32 23.5 60s28.167 46 37.5 54c9.33301 -8 24 -28.167 44 -60.5s30 -53.166 30 -62.499c0 -2 -6.83301 -14 -20.5 -36s-21.834 -38 -24.501 -48c-4.66699 -16.667 -7 -43.334 -7 -80.001c0 -144.667 -4.33301 -252 -13 -322
c-14.667 -122.667 -47 -224 -97 -304c28 -72.667 42 -134.334 42 -185.001c0 -68 -11.667 -115.333 -35 -142c-24 -30 -69.667 -45 -137 -45h-182c-30.667 0 -51.667 13.667 -63 41c-6 16.667 -9 44.667 -9 84c0 14 9 24 27 30c52 22.667 106.333 52.334 163 89.001
c78 50 117 91 117 123c0 50.667 -60.667 146.334 -182 287.001c-110.667 129.333 -195.334 214 -254.001 254c-14.667 -29.333 -28.667 -49.333 -42 -60c-104.667 98 -168 156 -190 174v6zM599.004 62.9971c21.333 -5.33301 47.333 -8.00098 78 -8.00098
c103.333 0 161 11.667 173 35c0 26 -13.667 71.333 -41 136c-72 -77.333 -142 -131.666 -210 -162.999zM38.0039 1283c34 18 60.001 31.334 78.001 40.001c-32 31.333 -48 61 -48 89c0 25.333 13.833 54.833 41.5 88.5s54.167 50.5 79.5 50.5
c11.333 0 23.833 -4.83301 37.5 -14.5s20.5 -20.834 20.5 -33.501c0 -8 -5 -20.667 -15 -38l-7 -6c-21.333 16 -41.333 24 -60 24c-16 0 -28.667 -14 -38 -42c0 -14 12 -32.167 36 -54.5s44 -33.5 60 -33.5c4 0 34 6.33301 90 19l8 -6v-53
c-0.666992 -4.66699 -2.33398 -8.66699 -5.00098 -12l-271 -53l-7 6l-3 17z" />
    <glyph glyph-name="afii62837" unicode="&#xfee0;&#xfe84;" horiz-adv-x="1177" arabic-form="final" 
d="M59 850c0 89.333 7.99707 133.997 23.9971 133.997c26 0 82.667 -28 170 -84c245.333 -157.333 407 -339.666 485 -546.999c53.333 142.667 80 301.334 80 476.001c0 44.667 -3.33301 121 -10 229c39.333 56 60 85.667 62 89c12.667 -76 18.334 -135 17.001 -177
c50 -546.667 128.667 -820 236 -820h69v-150h-49c-56.667 0 -102 20.667 -136 62c-42 53.333 -76 140 -102 260c-9.33301 40.667 -24.666 135.667 -45.999 285c-44.667 -303.333 -155 -532.333 -331 -687c-50.667 -8.66699 -101.667 -16.667 -153 -24
c-60 -10 -111.667 -15 -155 -15c-11.333 0 -21.333 5.66699 -30 17c15.333 18 69 50 161 96c108.667 53.333 185.334 96.333 230.001 129c78 55.333 117 110 117 164c0 55.333 -52 133.333 -156 234c-100 95.333 -179.667 150.333 -239 165c-14 -10 -23.667 -25.333 -29 -46
l-15 -11c-39.333 22 -68.333 40.667 -87 56c-59.333 36.667 -90 57 -92 61c-14 14.667 -21 49.334 -21 104.001zM-16.0029 1119c34 18 60.001 31.334 78.001 40.001c-32 31.333 -48 61 -48 89c0 25.333 13.833 54.833 41.5 88.5s54.167 50.5 79.5 50.5
c11.333 0 23.833 -4.83301 37.5 -14.5s20.5 -20.834 20.5 -33.501c0 -8 -5 -20.667 -15 -38l-7 -6c-21.333 16 -41.333 24 -60 24c-16 0 -28.667 -14 -38 -42c0 -14 12 -32.167 36 -54.5s44 -33.5 60 -33.5c4 0 34 6.33301 90 19l8 -6v-53
c-0.666992 -4.66699 -2.33398 -8.66699 -5.00098 -12l-271 -53l-7 6l-3 17z" />
    <glyph glyph-name="afii62838" unicode="&#xfedf;&#xfe88;" horiz-adv-x="1057" arabic-form="isolated" 
d="M110 948c-0.666992 25.333 5.66992 60.9971 19.0029 106.997c15.333 49.333 31.666 80.333 48.999 93c110 -63.333 231 -179.666 363 -348.999c102.667 -133.333 194 -276.666 274 -429.999c54 124 81 304.333 81 541c0 21.333 -2.33301 51.833 -7 91.5s-7 69.5 -7 89.5
c0 12 7.83301 32 23.5 60s28.167 46 37.5 54c9.33301 -8 24 -28.167 44 -60.5s30 -53.166 30 -62.499c0 -2 -6.83301 -14 -20.5 -36s-21.834 -38 -24.501 -48c-4.66699 -16.667 -7 -43.334 -7 -80.001c0 -144.667 -4.33301 -252 -13 -322
c-14.667 -122.667 -47 -224 -97 -304c28 -72.667 42 -134.334 42 -185.001c0 -68 -11.667 -115.333 -35 -142c-24 -30 -69.667 -45 -137 -45h-182c-30.667 0 -51.667 13.667 -63 41c-6 16.667 -9 44.667 -9 84c0 14 9 24 27 30c52 22.667 106.333 52.334 163 89.001
c78 50 117 91 117 123c0 50.667 -60.667 146.334 -182 287.001c-110.667 129.333 -195.334 214 -254.001 254c-14.667 -29.333 -28.667 -49.333 -42 -60c-104.667 98 -168 156 -190 174v6zM599.004 62.9971c21.333 -5.33301 47.333 -8.00098 78 -8.00098
c103.333 0 161 11.667 173 35c0 26 -13.667 71.333 -41 136c-72 -77.333 -142 -131.666 -210 -162.999zM401.004 -432.004c34 18 60.001 31.334 78.001 40.001c-32 31.333 -48 61 -48 89c0 25.333 13.833 54.833 41.5 88.5s54.167 50.5 79.5 50.5
c11.333 0 23.833 -4.83301 37.5 -14.5s20.5 -20.834 20.5 -33.501c0 -8 -5 -20.667 -15 -38l-7 -6c-21.333 16 -41.333 24 -60 24c-16 0 -28.667 -14 -38 -42c0 -14 12 -32.167 36 -54.5s44 -33.5 60 -33.5c4 0 34 6.33301 90 19l8 -6v-53
c-0.666992 -4.66699 -2.33398 -8.66699 -5.00098 -12l-271 -53l-7 6l-3 17z" />
    <glyph glyph-name="afii62839" unicode="&#xfee0;&#xfe88;" horiz-adv-x="1177" arabic-form="final" 
d="M59 850c0 89.333 7.99707 133.997 23.9971 133.997c26 0 82.667 -28 170 -84c245.333 -157.333 407 -339.666 485 -546.999c53.333 142.667 80 301.334 80 476.001c0 44.667 -3.33301 121 -10 229c39.333 56 60 85.667 62 89c12.667 -76 18.334 -135 17.001 -177
c50 -546.667 128.667 -820 236 -820h69v-150h-49c-56.667 0 -102 20.667 -136 62c-42 53.333 -76 140 -102 260c-9.33301 40.667 -24.666 135.667 -45.999 285c-44.667 -303.333 -155 -532.333 -331 -687c-50.667 -8.66699 -101.667 -16.667 -153 -24
c-60 -10 -111.667 -15 -155 -15c-11.333 0 -21.333 5.66699 -30 17c15.333 18 69 50 161 96c108.667 53.333 185.334 96.333 230.001 129c78 55.333 117 110 117 164c0 55.333 -52 133.333 -156 234c-100 95.333 -179.667 150.333 -239 165c-14 -10 -23.667 -25.333 -29 -46
l-15 -11c-39.333 22 -68.333 40.667 -87 56c-59.333 36.667 -90 57 -92 61c-14 14.667 -21 49.334 -21 104.001zM167.997 -483.003c34 18 60.001 31.334 78.001 40.001c-32 31.333 -48 61 -48 89c0 25.333 13.833 54.833 41.5 88.5s54.167 50.5 79.5 50.5
c11.333 0 23.833 -4.83301 37.5 -14.5s20.5 -20.834 20.5 -33.501c0 -8 -5 -20.667 -15 -38l-7 -6c-21.333 16 -41.333 24 -60 24c-16 0 -28.667 -14 -38 -42c0 -14 12 -32.167 36 -54.5s44 -33.5 60 -33.5c4 0 34 6.33301 90 19l8 -6v-53
c-0.666992 -4.66699 -2.33398 -8.66699 -5.00098 -12l-271 -53l-7 6l-3 17z" />
    <glyph glyph-name="afii62840" unicode="&#xfedf;&#xfe8e;" horiz-adv-x="1057" arabic-form="isolated" 
d="M110 948c-0.666992 25.333 5.66992 60.9971 19.0029 106.997c15.333 49.333 31.666 80.333 48.999 93c110 -63.333 231 -179.666 363 -348.999c102.667 -133.333 194 -276.666 274 -429.999c54 124 81 304.333 81 541c0 21.333 -2.33301 51.833 -7 91.5s-7 69.5 -7 89.5
c0 12 7.83301 32 23.5 60s28.167 46 37.5 54c9.33301 -8 24 -28.167 44 -60.5s30 -53.166 30 -62.499c0 -2 -6.83301 -14 -20.5 -36s-21.834 -38 -24.501 -48c-4.66699 -16.667 -7 -43.334 -7 -80.001c0 -144.667 -4.33301 -252 -13 -322
c-14.667 -122.667 -47 -224 -97 -304c28 -72.667 42 -134.334 42 -185.001c0 -68 -11.667 -115.333 -35 -142c-24 -30 -69.667 -45 -137 -45h-182c-30.667 0 -51.667 13.667 -63 41c-6 16.667 -9 44.667 -9 84c0 14 9 24 27 30c52 22.667 106.333 52.334 163 89.001
c78 50 117 91 117 123c0 50.667 -60.667 146.334 -182 287.001c-110.667 129.333 -195.334 214 -254.001 254c-14.667 -29.333 -28.667 -49.333 -42 -60c-104.667 98 -168 156 -190 174v6zM599.004 62.9971c21.333 -5.33301 47.333 -8.00098 78 -8.00098
c103.333 0 161 11.667 173 35c0 26 -13.667 71.333 -41 136c-72 -77.333 -142 -131.666 -210 -162.999z" />
    <glyph glyph-name="afii62841" unicode="&#xfee0;&#xfe8e;" horiz-adv-x="1177" arabic-form="final" 
d="M59 850c0 89.333 7.99707 133.997 23.9971 133.997c26 0 82.667 -28 170 -84c245.333 -157.333 407 -339.666 485 -546.999c53.333 142.667 80 301.334 80 476.001c0 44.667 -3.33301 121 -10 229c39.333 56 60 85.667 62 89c12.667 -76 18.334 -135 17.001 -177
c50 -546.667 128.667 -820 236 -820h69v-150h-49c-56.667 0 -102 20.667 -136 62c-42 53.333 -76 140 -102 260c-9.33301 40.667 -24.666 135.667 -45.999 285c-44.667 -303.333 -155 -532.333 -331 -687c-50.667 -8.66699 -101.667 -16.667 -153 -24
c-60 -10 -111.667 -15 -155 -15c-11.333 0 -21.333 5.66699 -30 17c15.333 18 69 50 161 96c108.667 53.333 185.334 96.333 230.001 129c78 55.333 117 110 117 164c0 55.333 -52 133.333 -156 234c-100 95.333 -179.667 150.333 -239 165c-14 -10 -23.667 -25.333 -29 -46
l-15 -11c-39.333 22 -68.333 40.667 -87 56c-59.333 36.667 -90 57 -92 61c-14 14.667 -21 49.334 -21 104.001z" />
    <glyph glyph-name="uni0672.fina" unicode="&#x672;" horiz-adv-x="505" 
d="M154 1076c0 16.667 10.332 35.168 30.999 55.501s38.667 34.166 54 41.499l52 -806c5.33301 -94 22 -153.667 50 -179s89.667 -38 185 -38v-150h-66c-89.333 0 -154.666 47.667 -195.999 143c-30 72 -47.667 174.333 -53 307l-14 261
c-4.66699 82.667 -10.5 153 -17.5 211s-15.5 109.333 -25.5 154zM91.999 1410c0 40 18.6689 71.665 56.002 94.998c31.333 18.667 69.333 25.334 114 20.001l-12 -58c-56.667 -8 -84.334 -27 -83.001 -57c-1.33301 -29.333 36 -43.333 112 -42
c18.667 0 39.334 5.33301 62.001 16l-9 -75c-32.667 -20 -85.334 -37.667 -158.001 -53s-122.667 -37.666 -150 -66.999c1.33301 30.667 8.16602 53.334 20.499 68.001s26.5 25.5 42.5 32.5s32 12.667 48 17s28.333 12.166 37 23.499c-53.333 0 -80 26.667 -80 80z" />
    <glyph glyph-name="uni0673.fina" unicode="&#x673;" horiz-adv-x="464" 
d="M113 1076c0 16.667 10.332 35.168 30.999 55.501s38.667 34.166 54 41.499l52 -806c5.33301 -94 22 -153.667 50 -179s89.667 -38 185 -38v-150h-66c-89.333 0 -154.666 47.667 -195.999 143c-30 72 -47.667 174.333 -53 307l-14 261
c-4.66699 82.667 -10.5 153 -17.5 211s-15.5 109.333 -25.5 154zM147.999 -190.999c0 40 18.6689 71.665 56.002 94.998c31.333 18.667 69.333 25.334 114 20.001l-12 -58c-56.667 -8 -84.334 -27 -83.001 -57c-1.33301 -29.333 36 -43.333 112 -42
c18.667 0 39.334 5.33301 62.001 16l-9 -75c-32.667 -20 -85.334 -37.667 -158.001 -53s-122.667 -37.666 -150 -66.999c1.33301 30.667 8.16602 53.334 20.499 68.001s26.5 25.5 42.5 32.5s32 12.667 48 17s28.333 12.166 37 23.499c-53.333 0 -80 26.667 -80 80z" />
    <glyph glyph-name="uni0675.fina" unicode="&#x675;" horiz-adv-x="505" 
d="M154 1076c0 16.667 10.332 35.168 30.999 55.501s38.667 34.166 54 41.499l52 -806c5.33301 -94 22 -153.667 50 -179s89.667 -38 185 -38v-150h-66c-89.333 0 -154.666 47.667 -195.999 143c-30 72 -47.667 174.333 -53 307l-14 261
c-4.66699 82.667 -10.5 153 -17.5 211s-15.5 109.333 -25.5 154zM36.999 1278c34 18 60.001 31.334 78.001 40.001c-32 31.333 -48 61 -48 89c0 25.333 13.833 54.833 41.5 88.5s54.167 50.5 79.5 50.5c11.333 0 23.833 -4.83301 37.5 -14.5s20.5 -20.834 20.5 -33.501
c0 -8 -5 -20.667 -15 -38l-7 -6c-21.333 16 -41.333 24 -60 24c-16 0 -28.667 -14 -38 -42c0 -14 12 -32.167 36 -54.5s44 -33.5 60 -33.5c4 0 34 6.33301 90 19l8 -6v-53c-0.666992 -4.66699 -2.33398 -8.66699 -5.00098 -12l-271 -53l-7 6l-3 17z" />
    <glyph glyph-name="uni0676.fina" unicode="&#x676;" horiz-adv-x="826" 
d="M52 -330c1.33301 14 34 22.667 98 26c39.333 0.666992 79.666 1.66699 120.999 3c74 12 143.667 40.333 209 85c103.333 78.667 155 150.667 155 216c-76 8 -131 22 -165 42c-49.333 32 -74 82 -74 150c0 44.667 17 94 51 148c36 60 74.667 90 116 90
c49.333 0 89.333 -36 120 -108c22 -52 35 -109.333 39 -172h119v-150h-134c-17.333 -101.333 -65.333 -197.333 -144 -288s-166 -136 -262 -136c-25.333 0 -68.666 11.5 -129.999 34.5s-101 42.833 -119 59.5zM476 221c0 -46 50.667 -69 152 -69
c0 32 -8.66699 61.667 -26 89c-17.333 32 -42 48 -74 48c-34.667 0 -52 -22.667 -52 -68zM370 547c34 18 60.001 31.334 78.001 40.001c-32 31.333 -48 61 -48 89c0 25.333 13.833 54.833 41.5 88.5s54.167 50.5 79.5 50.5c11.333 0 23.833 -4.83301 37.5 -14.5
s20.5 -20.834 20.5 -33.501c0 -8 -5 -20.667 -15 -38l-7 -6c-21.333 16 -41.333 24 -60 24c-16 0 -28.667 -14 -38 -42c0 -14 12 -32.167 36 -54.5s44 -33.5 60 -33.5c4 0 34 6.33301 90 19l8 -6v-53c-0.666992 -4.66699 -2.33398 -8.66699 -5.00098 -12l-271 -53l-7 6
l-3 17z" />
    <glyph glyph-name="uni0677.fina" unicode="&#x677;" horiz-adv-x="826" 
d="M52 -330c1.33301 14 34 22.667 98 26c39.333 0.666992 79.666 1.66699 120.999 3c74 12 143.667 40.333 209 85c103.333 78.667 155 150.667 155 216c-76 8 -131 22 -165 42c-49.333 32 -74 82 -74 150c0 44.667 17 94 51 148c36 60 74.667 90 116 90
c49.333 0 89.333 -36 120 -108c22 -52 35 -109.333 39 -172h119v-150h-134c-17.333 -101.333 -65.333 -197.333 -144 -288s-166 -136 -262 -136c-25.333 0 -68.666 11.5 -129.999 34.5s-101 42.833 -119 59.5zM476 221c0 -46 50.667 -69 152 -69
c0 32 -8.66699 61.667 -26 89c-17.333 32 -42 48 -74 48c-34.667 0 -52 -22.667 -52 -68zM479.124 561.058c29.9756 15.876 52.9004 27.6377 68.7705 35.2812c-28.2129 27.6367 -42.3193 53.8037 -42.3193 78.5c0 22.3447 12.1963 48.3643 36.5889 78.0586
s47.7568 44.542 70.0918 44.542c9.99121 0 21.0117 -4.2627 33.0615 -12.7891s18.0742 -18.376 18.0742 -29.5488c0 -7.05566 -4.4082 -18.2275 -13.2246 -33.5156l-6.17188 -5.29199c-18.8086 14.1123 -36.4414 21.168 -52.8994 21.168
c-14.1064 0 -25.2744 -12.3486 -33.5039 -37.0449c0 -12.3477 10.5801 -28.3711 31.7393 -48.0693c21.1602 -19.6982 38.793 -29.5479 52.8994 -29.5479c3.52637 0 29.9756 5.58594 79.3477 16.7588l7.05371 -5.29199v-46.748
c-0.587891 -4.11621 -2.05762 -7.64453 -4.4082 -10.585l-238.928 -46.7471l-6.17188 5.29199l-2.64551 14.9951zM418.857 588.203l-7.06641 -74.8398l-30.6211 16.8008l-29.8359 21.3828c-31.4062 -33.6016 -58.1016 -59.5664 -80.0859 -77.8945
c-29.3125 -21.3828 -55.4844 -32.0742 -78.5156 -32.0742c-7.32812 0 -16.75 1.01855 -28.2656 3.05469l-19.6289 6.10938c33.5 18.3281 60.9805 35.1289 82.4414 50.4023c15.7031 11.71 45.2773 35.1289 88.7227 70.2578c-19.3672 13.7461 -32.584 25.583 -39.6504 35.5107
s-10.5996 21.7646 -10.5996 35.5107c0 22.9102 9.68359 50.9111 29.0508 84.0039c9.42188 15.2734 19.7598 26.3467 31.0137 33.2197s21.8535 10.3096 31.7988 10.3096c36.1172 0 54.1758 -22.4014 54.1758 -67.2031c0 -11.2002 -1.83203 -23.6738 -5.49609 -37.4199
s-10.4688 -31.3105 -20.4141 -52.6934zM361.541 659.225c0 11.2002 -3.92578 21.6367 -11.7773 31.3096s-17.2734 14.5098 -28.2656 14.5098c-3.14062 0 -5.75781 -1.27246 -7.85156 -3.81836c-3.66406 -3.05469 -6.28125 -6.10938 -7.85156 -9.16406
c0 -10.6914 3.27148 -19.7285 9.81445 -27.1104s20.5449 -18.9639 42.0059 -34.7461c2.61719 12.2188 3.92578 21.8916 3.92578 29.0195z" />
    <glyph glyph-name="uni0678.fina" unicode="&#x678;" horiz-adv-x="1126" 
d="M95 -213c0 56.667 11 118.666 33 185.999c30.667 79.333 63.667 131 99 155l8 -16c-50.667 -93.333 -76 -176.333 -76 -249c0 -112.667 35.333 -193.667 106 -243c58.667 -38.667 146.334 -58 263.001 -58c74.667 0 168 12.667 280 38c143.333 33.333 215 73 215 119
c0 16 -25 30 -75 42c-75.333 14 -123.333 26 -144 36c-51.333 22.667 -77 58.334 -77 107.001c0 74 40.667 135.667 122 185c68.667 40.667 143.667 61 225 61h62v-150c-218 0 -330.333 -24 -337 -72c20 -17.333 57.667 -31 113 -41c57.333 -10.667 96.333 -23.667 117 -39
c35.333 -26 53 -71 53 -135c0 -98.667 -76.333 -177.667 -229 -237c-118.667 -44 -237.334 -66 -356.001 -66c-122.667 0 -220 32 -292 96c-73.333 65.333 -110 159 -110 281zM321 311.999c34 18 60.001 31.334 78.001 40.001c-32 31.333 -48 61 -48 89
c0 25.333 13.833 54.833 41.5 88.5s54.167 50.5 79.5 50.5c11.333 0 23.833 -4.83301 37.5 -14.5s20.5 -20.834 20.5 -33.501c0 -8 -5 -20.667 -15 -38l-7 -6c-21.333 16 -41.333 24 -60 24c-16 0 -28.667 -14 -38 -42c0 -14 12 -32.167 36 -54.5s44 -33.5 60 -33.5
c4 0 34 6.33301 90 19l8 -6v-53c-0.666992 -4.66699 -2.33398 -8.66699 -5.00098 -12l-271 -53l-7 6l-3 17z" />
    <glyph glyph-name="uni067C.init" unicode="&#x67c;" horiz-adv-x="334" 
d="M-6 150c177.333 -0.666992 266 26 266 80c0 29.333 -31 83 -93 161l65 120c6 12.667 13 13.334 21 2.00098c50 -82 75 -155.333 75 -220c0 -76.667 -24 -144.334 -72 -203.001c-53.333 -60 -117 -90 -191 -90h-71v150zM45 845l113 -113l-109 -111l-115 114zM262 854
l111 -110l-107 -112l-114 114zM294 -74c0 -108.667 -43.667 -163 -131 -163c-76.667 0 -115 40.333 -115 121c0 38 11 83 33 135c24 58 51.333 87 82 87c20 0 37.5 -5.16699 52.5 -15.5s29.5 -23.5 43.5 -39.5c23.333 -43.333 35 -85 35 -125zM250 -93
c0 22.667 -11 41.5 -33 56.5s-44 22.5 -66 22.5c-18 0 -32.667 -9 -44 -27s-17 -35.333 -17 -52c0 -32.667 24.333 -49 73 -49h9c52 0 78 16.333 78 49z" />
    <glyph glyph-name="uni067C.medi" unicode="&#x67c;" horiz-adv-x="521" 
d="M-18 150c94 0 151.669 4 173.002 12c47.333 18.667 91.333 56 132 112c41.333 -84 112.666 -125.333 213.999 -124h30v-150h-63c-40 0 -78.333 12.5 -115 37.5s-64 56.167 -82 93.5c-20 -37.333 -51.333 -68.5 -94 -93.5s-84.334 -37.5 -125.001 -37.5h-70v150z
M175.002 702l113 -113l-109 -111l-115 114zM392.002 711l111 -110l-107 -112l-114 114zM277.002 -58c0 -108.667 -43.667 -163 -131 -163c-76.667 0 -115 40.333 -115 121c0 38 11 83 33 135c24 58 51.333 87 82 87c20 0 37.5 -5.16699 52.5 -15.5s29.5 -23.5 43.5 -39.5
c23.333 -43.333 35 -85 35 -125zM233.002 -77c0 22.667 -11 41.5 -33 56.5s-44 22.5 -66 22.5c-18 0 -32.667 -9 -44 -27s-17 -35.333 -17 -52c0 -32.667 24.333 -49 73 -49h9c52 0 78 16.333 78 49z" />
    <glyph glyph-name="uni067C.fina" unicode="&#x67c;" horiz-adv-x="1591" 
d="M87 279c0 36.667 9.33398 80.332 28.001 130.999c25.333 58.667 52.333 93.334 81 104.001c7.33301 2 10.333 -2.33301 9 -13c-2 -11.333 -11.667 -36.333 -29 -75c-13.333 -31.333 -20 -57 -20 -77c0 -89.333 83.667 -151.666 251 -186.999
c104 -22.667 224.333 -34 361 -34c102 0 198.667 10.333 290 31c126 30.667 208 76.334 246 137.001c6 10 12.667 14.667 20 14s11.666 -6.33398 12.999 -17.001c10.667 -60 35 -100.333 73 -121c28 -14.667 73.667 -22 137 -22h57v-150c-90.667 0 -154 9 -190 27
c-48 23.333 -86.667 73.666 -116 150.999c-112 -135.333 -319 -203 -621 -203c-393.333 0 -590 101.333 -590 304zM608.001 806.998l113 -113l-109 -111l-115 114zM825.001 815.998l111 -110l-107 -112l-114 114zM796.001 -117.002c0 -108.667 -43.667 -163 -131 -163
c-76.667 0 -115 40.333 -115 121c0 38 11 83 33 135c24 58 51.333 87 82 87c20 0 37.5 -5.16699 52.5 -15.5s29.5 -23.5 43.5 -39.5c23.333 -43.333 35 -85 35 -125zM752.001 -136.002c0 22.667 -11 41.5 -33 56.5s-44 22.5 -66 22.5c-18 0 -32.667 -9 -44 -27
s-17 -35.333 -17 -52c0 -32.667 24.333 -49 73 -49h9c52 0 78 16.333 78 49z" />
    <glyph glyph-name="uni067D.init" unicode="&#x67d;" horiz-adv-x="334" 
d="M-6 150c177.333 -0.666992 266 26 266 80c0 29.333 -31 83 -93 161l65 120c6 12.667 13 13.334 21 2.00098c50 -82 75 -155.333 75 -220c0 -76.667 -24 -144.334 -72 -203.001c-53.333 -60 -117 -90 -191 -90h-71v150zM271 1009l99 -98l-97 -92l-97 96zM180 814l97 -97
l-95 -94l-96 95zM75 1000l100 -98l-95 -93l-97 97z" />
    <glyph glyph-name="uni067D.medi" unicode="&#x67d;" horiz-adv-x="521" 
d="M-18 150c94 0 151.669 4 173.002 12c47.333 18.667 91.333 56 132 112c41.333 -84 112.666 -125.333 213.999 -124h30v-150h-63c-40 0 -78.333 12.5 -115 37.5s-64 56.167 -82 93.5c-20 -37.333 -51.333 -68.5 -94 -93.5s-84.334 -37.5 -125.001 -37.5h-70v150z
M356.002 829l99 -98l-97 -92l-97 96zM265.002 634l97 -97l-95 -94l-96 95zM160.002 820l100 -98l-95 -93l-97 97z" />
    <glyph glyph-name="uni067D.fina" unicode="&#x67d;" horiz-adv-x="1591" 
d="M87 279c0 36.667 9.33398 80.332 28.001 130.999c25.333 58.667 52.333 93.334 81 104.001c7.33301 2 10.333 -2.33301 9 -13c-2 -11.333 -11.667 -36.333 -29 -75c-13.333 -31.333 -20 -57 -20 -77c0 -89.333 83.667 -151.666 251 -186.999
c104 -22.667 224.333 -34 361 -34c102 0 198.667 10.333 290 31c126 30.667 208 76.334 246 137.001c6 10 12.667 14.667 20 14s11.666 -6.33398 12.999 -17.001c10.667 -60 35 -100.333 73 -121c28 -14.667 73.667 -22 137 -22h57v-150c-90.667 0 -154 9 -190 27
c-48 23.333 -86.667 73.666 -116 150.999c-112 -135.333 -319 -203 -621 -203c-393.333 0 -590 101.333 -590 304zM823.001 911.998l99 -98l-97 -92l-97 96zM732.001 716.998l97 -97l-95 -94l-96 95zM627.001 902.998l100 -98l-95 -93l-97 97z" />
    <glyph glyph-name="uni0681.init" unicode="&#x681;" horiz-adv-x="979" 
d="M-18 150c90 0 183.332 13.667 279.999 41c44 12 132.667 42.667 266 92c-54 20 -108.667 39 -164 57c-64 19.333 -121.333 29 -172 29c-26 0 -63.667 -6.33301 -113 -19c-8.66699 3.33301 -13 9 -13 17c0 38 21.667 74.333 65 109c38.667 34 77.667 51 117 51
c31.333 0 76.333 -11.667 135 -35l133 -57c123.333 -48 271.333 -73.667 444 -77l18 -9c-4 -41.333 -17 -81 -39 -119c-11.333 -2 -19 -3 -23 -3c-20 0 -48.833 1.83301 -86.5 5.5s-66.5 5.5 -86.5 5.5c-92.667 0 -222.167 -39.667 -388.5 -119s-268.166 -119 -305.499 -119
h-67v150zM368.999 691c34 18 60.001 31.334 78.001 40.001c-32 31.333 -48 61 -48 89c0 25.333 13.833 54.833 41.5 88.5s54.167 50.5 79.5 50.5c11.333 0 23.833 -4.83301 37.5 -14.5s20.5 -20.834 20.5 -33.501c0 -8 -5 -20.667 -15 -38l-7 -6
c-21.333 16 -41.333 24 -60 24c-16 0 -28.667 -14 -38 -42c0 -14 12 -32.167 36 -54.5s44 -33.5 60 -33.5c4 0 34 6.33301 90 19l8 -6v-53c-0.666992 -4.66699 -2.33398 -8.66699 -5.00098 -12l-271 -53l-7 6l-3 17z" />
    <glyph glyph-name="uni0681.medi" unicode="&#x681;" horiz-adv-x="1034" 
d="M-9 150c81.333 0 173.001 17.667 275.001 53l262 100c-53.333 20 -106 38.333 -158 55c-62 20 -116 30 -162 30c-52.667 0 -95.667 -6 -129 -18l-11 18c0 38 20 74.333 60 109s80 52 120 52c35.333 0 95 -16.333 179 -49c61.333 -26.667 122.666 -52 183.999 -76
c81.333 -28 193 -42 335 -42l33 4c-8.66699 -60.667 -22 -105.667 -40 -135l-23 -3c-40 0 -104 2 -192 6c-3.33301 -14.667 -5 -24.667 -5 -30c0 -54 63.333 -78.667 190 -74h146v-150h-68c-110 0 -187.667 13 -233 39c-59.333 35.333 -89 104.333 -89 207
c-68 -5.33301 -179.667 -48.333 -335 -129c-150 -78 -245.333 -117 -286 -117h-53v150zM388.001 717c34 18 60.001 31.334 78.001 40.001c-32 31.333 -48 61 -48 89c0 25.333 13.833 54.833 41.5 88.5s54.167 50.5 79.5 50.5c11.333 0 23.833 -4.83301 37.5 -14.5
s20.5 -20.834 20.5 -33.501c0 -8 -5 -20.667 -15 -38l-7 -6c-21.333 16 -41.333 24 -60 24c-16 0 -28.667 -14 -38 -42c0 -14 12 -32.167 36 -54.5s44 -33.5 60 -33.5c4 0 34 6.33301 90 19l8 -6v-53c-0.666992 -4.66699 -2.33398 -8.66699 -5.00098 -12l-271 -53l-7 6
l-3 17z" />
    <glyph glyph-name="uni0681.fina" unicode="&#x681;" horiz-adv-x="1046" 
d="M95 -340c0 268.667 148.665 479.334 445.998 632.001c-36 7.33301 -85 11 -147 11c-107.333 0 -185.666 -10.667 -234.999 -32l-14 21c0 47.333 24.667 87.333 74 120c42.667 27.333 90 41 142 41c51.333 0 130.166 -5.5 236.499 -16.5s185.5 -15.5 237.5 -13.5h138
l6 -11c-2 -36 -17.667 -79.667 -47 -131c-91.333 -8.66699 -151.666 -15.667 -180.999 -21c-2 -76.667 60.667 -113.334 188 -110.001h119v-150h-44c-114.667 0 -193 12 -235 36c-62 35.333 -92 106 -90 212c-145.333 -36 -267.666 -100.667 -366.999 -194
c-114.667 -107.333 -172 -230 -172 -368s72.333 -245 217 -321c116 -60 250.667 -90 404 -90c50.667 0 127 4 229 12s178.667 12 230 12c18 0 25.333 -7.66699 22 -23c-233.333 -98.667 -415 -148 -545 -148c-181.333 0 -326 42.333 -434 127
c-118.667 93.333 -178 228.333 -178 405zM399.998 664c34 18 60.001 31.334 78.001 40.001c-32 31.333 -48 61 -48 89c0 25.333 13.833 54.833 41.5 88.5s54.167 50.5 79.5 50.5c11.333 0 23.833 -4.83301 37.5 -14.5s20.5 -20.834 20.5 -33.501c0 -8 -5 -20.667 -15 -38
l-7 -6c-21.333 16 -41.333 24 -60 24c-16 0 -28.667 -14 -38 -42c0 -14 12 -32.167 36 -54.5s44 -33.5 60 -33.5c4 0 34 6.33301 90 19l8 -6v-53c-0.666992 -4.66699 -2.33398 -8.66699 -5.00098 -12l-271 -53l-7 6l-3 17z" />
    <glyph glyph-name="uni0682.init" unicode="&#x682;" horiz-adv-x="979" 
d="M-18 150c90 0 183.332 13.667 279.999 41c44 12 132.667 42.667 266 92c-54 20 -108.667 39 -164 57c-64 19.333 -121.333 29 -172 29c-26 0 -63.667 -6.33301 -113 -19c-8.66699 3.33301 -13 9 -13 17c0 38 21.667 74.333 65 109c38.667 34 77.667 51 117 51
c31.333 0 76.333 -11.667 135 -35l133 -57c123.333 -48 271.333 -73.667 444 -77l18 -9c-4 -41.333 -17 -81 -39 -119c-11.333 -2 -19 -3 -23 -3c-20 0 -48.833 1.83301 -86.5 5.5s-66.5 5.5 -86.5 5.5c-92.667 0 -222.167 -39.667 -388.5 -119s-268.166 -119 -305.499 -119
h-67v150zM398.999 763l104 104l103 -103l-104 -103zM398.999 968l104 104l103 -103l-104 -103z" />
    <glyph glyph-name="uni0682.medi" unicode="&#x682;" horiz-adv-x="1034" 
d="M-9 150c81.333 0 173.001 17.667 275.001 53l262 100c-53.333 20 -106 38.333 -158 55c-62 20 -116 30 -162 30c-52.667 0 -95.667 -6 -129 -18l-11 18c0 38 20 74.333 60 109s80 52 120 52c35.333 0 95 -16.333 179 -49c61.333 -26.667 122.666 -52 183.999 -76
c81.333 -28 193 -42 335 -42l33 4c-8.66699 -60.667 -22 -105.667 -40 -135l-23 -3c-40 0 -104 2 -192 6c-3.33301 -14.667 -5 -24.667 -5 -30c0 -54 63.333 -78.667 190 -74h146v-150h-68c-110 0 -187.667 13 -233 39c-59.333 35.333 -89 104.333 -89 207
c-68 -5.33301 -179.667 -48.333 -335 -129c-150 -78 -245.333 -117 -286 -117h-53v150zM429.001 794l104 104l103 -103l-104 -103zM429.001 999l104 104l103 -103l-104 -103z" />
    <glyph glyph-name="uni0682.fina" unicode="&#x682;" horiz-adv-x="1046" 
d="M95 -340c0 268.667 148.665 479.334 445.998 632.001c-36 7.33301 -85 11 -147 11c-107.333 0 -185.666 -10.667 -234.999 -32l-14 21c0 47.333 24.667 87.333 74 120c42.667 27.333 90 41 142 41c51.333 0 130.166 -5.5 236.499 -16.5s185.5 -15.5 237.5 -13.5h138
l6 -11c-2 -36 -17.667 -79.667 -47 -131c-91.333 -8.66699 -151.666 -15.667 -180.999 -21c-2 -76.667 60.667 -113.334 188 -110.001h119v-150h-44c-114.667 0 -193 12 -235 36c-62 35.333 -92 106 -90 212c-145.333 -36 -267.666 -100.667 -366.999 -194
c-114.667 -107.333 -172 -230 -172 -368s72.333 -245 217 -321c116 -60 250.667 -90 404 -90c50.667 0 127 4 229 12s178.667 12 230 12c18 0 25.333 -7.66699 22 -23c-233.333 -98.667 -415 -148 -545 -148c-181.333 0 -326 42.333 -434 127
c-118.667 93.333 -178 228.333 -178 405zM452.998 683l104 104l103 -103l-104 -103zM452.998 888l104 104l103 -103l-104 -103z" />
    <glyph glyph-name="uni0685.init" unicode="&#x685;" horiz-adv-x="979" 
d="M-18 150c90 0 183.332 13.667 279.999 41c44 12 132.667 42.667 266 92c-54 20 -108.667 39 -164 57c-64 19.333 -121.333 29 -172 29c-26 0 -63.667 -6.33301 -113 -19c-8.66699 3.33301 -13 9 -13 17c0 38 21.667 74.333 65 109c38.667 34 77.667 51 117 51
c31.333 0 76.333 -11.667 135 -35l133 -57c123.333 -48 271.333 -73.667 444 -77l18 -9c-4 -41.333 -17 -81 -39 -119c-11.333 -2 -19 -3 -23 -3c-20 0 -48.833 1.83301 -86.5 5.5s-66.5 5.5 -86.5 5.5c-92.667 0 -222.167 -39.667 -388.5 -119s-268.166 -119 -305.499 -119
h-67v150zM408.999 649l-108 108l107 103l107 -107zM509.999 866l-107 107l106 104l105 -106zM625.999 659l-110 109l105 102l107 -107z" />
    <glyph glyph-name="uni0685.medi" unicode="&#x685;" horiz-adv-x="1034" 
d="M-9 150c81.333 0 173.001 17.667 275.001 53l262 100c-53.333 20 -106 38.333 -158 55c-62 20 -116 30 -162 30c-52.667 0 -95.667 -6 -129 -18l-11 18c0 38 20 74.333 60 109s80 52 120 52c35.333 0 95 -16.333 179 -49c61.333 -26.667 122.666 -52 183.999 -76
c81.333 -28 193 -42 335 -42l33 4c-8.66699 -60.667 -22 -105.667 -40 -135l-23 -3c-40 0 -104 2 -192 6c-3.33301 -14.667 -5 -24.667 -5 -30c0 -54 63.333 -78.667 190 -74h146v-150h-68c-110 0 -187.667 13 -233 39c-59.333 35.333 -89 104.333 -89 207
c-68 -5.33301 -179.667 -48.333 -335 -129c-150 -78 -245.333 -117 -286 -117h-53v150zM471.001 669l-108 108l107 103l107 -107zM572.001 886l-107 107l106 104l105 -106zM688.001 679l-110 109l105 102l107 -107z" />
    <glyph glyph-name="uni0685.fina" unicode="&#x685;" horiz-adv-x="1046" 
d="M95 -340c0 268.667 148.665 479.334 445.998 632.001c-36 7.33301 -85 11 -147 11c-107.333 0 -185.666 -10.667 -234.999 -32l-14 21c0 47.333 24.667 87.333 74 120c42.667 27.333 90 41 142 41c51.333 0 130.166 -5.5 236.499 -16.5s185.5 -15.5 237.5 -13.5h138
l6 -11c-2 -36 -17.667 -79.667 -47 -131c-91.333 -8.66699 -151.666 -15.667 -180.999 -21c-2 -76.667 60.667 -113.334 188 -110.001h119v-150h-44c-114.667 0 -193 12 -235 36c-62 35.333 -92 106 -90 212c-145.333 -36 -267.666 -100.667 -366.999 -194
c-114.667 -107.333 -172 -230 -172 -368s72.333 -245 217 -321c116 -60 250.667 -90 404 -90c50.667 0 127 4 229 12s178.667 12 230 12c18 0 25.333 -7.66699 22 -23c-233.333 -98.667 -415 -148 -545 -148c-181.333 0 -326 42.333 -434 127
c-118.667 93.333 -178 228.333 -178 405zM445.998 626l-108 108l107 103l107 -107zM546.998 843l-107 107l106 104l105 -106zM662.998 636l-110 109l105 102l107 -107z" />
    <glyph glyph-name="uni0689.fina" unicode="&#x689;" horiz-adv-x="860" 
d="M142 102c0 55.333 8.66797 107.999 26.001 157.999l8 8l10 -3c38 -54.667 86 -82 144 -82c60.667 0 116 10.667 166 32c59.333 30 89 72.667 89 128c0 112 -21.333 239.333 -64 382l3 21l64 88l9 -9c18 -76.667 35.667 -170.667 53 -282c10 -62 18.333 -124.667 25 -188
c17.333 -91.333 35.333 -147.666 54 -168.999c23.333 -24 61.666 -36 114.999 -36h31v-150c-86 -0 -146.667 18.333 -182 55c-22 24.667 -49 83.667 -81 177c-49.333 -71.333 -95.333 -121.333 -138 -150c-52.667 -36 -118 -54 -196 -54c-90.667 0 -136 24.667 -136 74z
M446.001 -45.001c0 -108.667 -43.667 -163 -131 -163c-76.667 0 -115 40.333 -115 121c0 38 11 83 33 135c24 58 51.333 87 82 87c20 0 37.5 -5.16699 52.5 -15.5s29.5 -23.5 43.5 -39.5c23.333 -43.333 35 -85 35 -125zM402.001 -64.001c0 22.667 -11 41.5 -33 56.5
s-44 22.5 -66 22.5c-18 0 -32.667 -9 -44 -27s-17 -35.333 -17 -52c0 -32.667 24.333 -49 73 -49h9c52 0 78 16.333 78 49z" />
    <glyph glyph-name="uni068A.fina" unicode="&#x68a;" horiz-adv-x="860" 
d="M142 102c0 55.333 8.66797 107.999 26.001 157.999l8 8l10 -3c38 -54.667 86 -82 144 -82c60.667 0 116 10.667 166 32c59.333 30 89 72.667 89 128c0 112 -21.333 239.333 -64 382l3 21l64 88l9 -9c18 -76.667 35.667 -170.667 53 -282c10 -62 18.333 -124.667 25 -188
c17.333 -91.333 35.333 -147.666 54 -168.999c23.333 -24 61.666 -36 114.999 -36h31v-150c-86 -0 -146.667 18.333 -182 55c-22 24.667 -49 83.667 -81 177c-49.333 -71.333 -95.333 -121.333 -138 -150c-52.667 -36 -118 -54 -196 -54c-90.667 0 -136 24.667 -136 74z
M274.001 -118.001l109 -107l-105 -106l-109 107z" />
    <glyph glyph-name="uni068b.fina" unicode="&#x68b;" horiz-adv-x="860" 
d="M142 102c0 55.333 8.66797 107.999 26.001 157.999l8 8l10 -3c38 -54.667 86 -82 144 -82c60.667 0 116 10.667 166 32c59.333 30 89 72.667 89 128c0 112 -21.333 239.333 -64 382l3 21l64 88l9 -9c18 -76.667 35.667 -170.667 53 -282c10 -62 18.333 -124.667 25 -188
c17.333 -91.333 35.333 -147.666 54 -168.999c23.333 -24 61.666 -36 114.999 -36h31v-150c-86 -0 -146.667 18.333 -182 55c-22 24.667 -49 83.667 -81 177c-49.333 -71.333 -95.333 -121.333 -138 -150c-52.667 -36 -118 -54 -196 -54c-90.667 0 -136 24.667 -136 74z
M393.001 970.999l2.00098 1.99805c14.667 -3.33301 30.667 -5 48 -5c14.667 0 27.334 4.83301 38.001 14.5s16 21.834 16 36.501c0 42.667 -4.66699 91.334 -14 146.001c-2.66699 12.667 -5 25.334 -7 38.001c-3.33301 14.667 -5 27 -5 37c0 6 1.66699 13.333 5 22
c3.33301 9.33301 7 15.666 11 18.999c3.33301 -2.66699 8.66602 -9 15.999 -19s12.333 -17 15 -21c-4 -5.33301 -7.33301 -10.333 -10 -15c-4.66699 -6 -7 -12 -7 -18s1 -14.667 3 -26c2.66699 -11.333 4 -20 4 -26l6 -137c24.667 22 42.667 37 54 45
c24.667 16.667 45.667 25 63 25c13.333 0 25 -4.33301 35 -13s15 -19.667 15 -33c0 -63.333 -60.667 -102 -182 -116c-28.667 -3.33301 -49.334 -5 -62.001 -5c-6.66699 0 -15 5.66699 -25 17c-8.66699 9.33301 -15 18.333 -19 27v5zM488.002 968.997
c30.667 0 61.001 3.33203 91.001 9.99902c44 10 66 24.667 66 44c0 7.33301 -4.66699 13 -14 17c-7.33301 4 -15 6 -23 6c-16.667 0 -38 -9.33301 -64 -28c-6.66699 -5.33301 -25.334 -21.666 -56.001 -48.999zM277.003 -84.0039l109 -107l-105 -106l-109 107z" />
    <glyph glyph-name="uni068F.fina" unicode="&#x68f;" horiz-adv-x="860" 
d="M142 102c0 55.333 8.66797 107.999 26.001 157.999l8 8l10 -3c38 -54.667 86 -82 144 -82c60.667 0 116 10.667 166 32c59.333 30 89 72.667 89 128c0 112 -21.333 239.333 -64 382l3 21l64 88l9 -9c18 -76.667 35.667 -170.667 53 -282c10 -62 18.333 -124.667 25 -188
c17.333 -91.333 35.333 -147.666 54 -168.999c23.333 -24 61.666 -36 114.999 -36h31v-150c-86 -0 -146.667 18.333 -182 55c-22 24.667 -49 83.667 -81 177c-49.333 -71.333 -95.333 -121.333 -138 -150c-52.667 -36 -118 -54 -196 -54c-90.667 0 -136 24.667 -136 74z
M615.001 1313l99 -98l-97 -92l-97 96zM524.001 1118l97 -97l-95 -94l-96 95zM419.001 1304l100 -98l-95 -93l-97 97z" />
    <glyph glyph-name="uni0690.fina" unicode="&#x690;" horiz-adv-x="860" 
d="M142 102c0 55.333 8.66797 107.999 26.001 157.999l8 8l10 -3c38 -54.667 86 -82 144 -82c60.667 0 116 10.667 166 32c59.333 30 89 72.667 89 128c0 112 -21.333 239.333 -64 382l3 21l64 88l9 -9c18 -76.667 35.667 -170.667 53 -282c10 -62 18.333 -124.667 25 -188
c17.333 -91.333 35.333 -147.666 54 -168.999c23.333 -24 61.666 -36 114.999 -36h31v-150c-86 -0 -146.667 18.333 -182 55c-22 24.667 -49 83.667 -81 177c-49.333 -71.333 -95.333 -121.333 -138 -150c-52.667 -36 -118 -54 -196 -54c-90.667 0 -136 24.667 -136 74z
M323.001 1169l97 97l97 -97l-97 -96zM537.001 1169l97 97l98 -97l-98 -96zM429.001 1324l97 95l97 -95l-97 -99zM429.001 1016l97 97l97 -97l-97 -97z" />
    <glyph glyph-name="uni0692.fina" unicode="&#x692;" horiz-adv-x="861" 
d="M30 -364c0 14.667 12.667 22.001 38 22.001c91.333 0 150.666 2.66699 177.999 8c74.667 14 158.334 57 251.001 129c100.667 78.667 151 151.667 151 219c0 18.667 -13.667 44.667 -41 78c-29.333 35.333 -44.666 57.333 -45.999 66c42 87.333 66.667 133 74 137
c14 -16 23.667 -29 29 -39c34.667 -48.667 64 -79.334 88 -92.001c21.333 -9.33301 63 -14 125 -14v-150h-42c-46.667 -1.33301 -92.334 12.667 -137.001 42c2 -10 3 -21.333 3 -34c0 -88.667 -47 -185 -141 -289c-87.333 -95.333 -174 -157.333 -260 -186l-148 43
c-81.333 26 -122 46 -122 60zM718 657.001l-23.5029 -24.5c-9 -9.66699 -18.833 -23.667 -29.5 -42s-22 -42 -34 -71s-24.333 -65.833 -37 -110.5l-37 -1c-5.33301 24 -12.5 48 -21.5 72s-19.5 46.667 -31.5 68s-25 40.833 -39 58.5s-28.333 32.5 -43 44.5l87 -6
c4.66699 -6 9.83398 -13 15.501 -21s11.334 -18 17.001 -30s11.334 -27 17.001 -45s11.5 -40 17.5 -66l7.5 36c3 14 6.83301 28.667 11.5 44s10.167 30.5 16.5 45.5s13.5 28.833 21.5 41.5z" />
    <glyph glyph-name="uni0693.fina" unicode="&#x693;" horiz-adv-x="861" 
d="M30 -364c0 14.667 12.667 22.001 38 22.001c91.333 0 150.666 2.66699 177.999 8c74.667 14 158.334 57 251.001 129c100.667 78.667 151 151.667 151 219c0 18.667 -13.667 44.667 -41 78c-29.333 35.333 -44.666 57.333 -45.999 66c42 87.333 66.667 133 74 137
c14 -16 23.667 -29 29 -39c34.667 -48.667 64 -79.334 88 -92.001c21.333 -9.33301 63 -14 125 -14v-150h-42c-46.667 -1.33301 -92.334 12.667 -137.001 42c2 -10 3 -21.333 3 -34c0 -88.667 -47 -185 -141 -289c-87.333 -95.333 -174 -157.333 -260 -186l-148 43
c-81.333 26 -122 46 -122 60zM406 -545.999c0 -108.667 -43.667 -163 -131 -163c-76.667 0 -115 40.333 -115 121c0 38 11 83 33 135c24 58 51.333 87 82 87c20 0 37.5 -5.16699 52.5 -15.5s29.5 -23.5 43.5 -39.5c23.333 -43.333 35 -85 35 -125zM362 -564.999
c0 22.667 -11 41.5 -33 56.5s-44 22.5 -66 22.5c-18 0 -32.667 -9 -44 -27s-17 -35.333 -17 -52c0 -32.667 24.333 -49 73 -49h9c52 0 78 16.333 78 49z" />
    <glyph glyph-name="uni0694.fina" unicode="&#x694;" horiz-adv-x="861" 
d="M30 -364c0 14.667 12.667 22.001 38 22.001c91.333 0 150.666 2.66699 177.999 8c74.667 14 158.334 57 251.001 129c100.667 78.667 151 151.667 151 219c0 18.667 -13.667 44.667 -41 78c-29.333 35.333 -44.666 57.333 -45.999 66c42 87.333 66.667 133 74 137
c14 -16 23.667 -29 29 -39c34.667 -48.667 64 -79.334 88 -92.001c21.333 -9.33301 63 -14 125 -14v-150h-42c-46.667 -1.33301 -92.334 12.667 -137.001 42c2 -10 3 -21.333 3 -34c0 -88.667 -47 -185 -141 -289c-87.333 -95.333 -174 -157.333 -260 -186l-148 43
c-81.333 26 -122 46 -122 60zM310 -571.999l109 -107l-105 -106l-109 107z" />
    <glyph glyph-name="uni0695.fina" unicode="&#x695;" horiz-adv-x="861" 
d="M30 -364c0 14.667 12.667 22.001 38 22.001c91.333 0 150.666 2.66699 177.999 8c74.667 14 158.334 57 251.001 129c100.667 78.667 151 151.667 151 219c0 18.667 -13.667 44.667 -41 78c-29.333 35.333 -44.666 57.333 -45.999 66c42 87.333 66.667 133 74 137
c14 -16 23.667 -29 29 -39c34.667 -48.667 64 -79.334 88 -92.001c21.333 -9.33301 63 -14 125 -14v-150h-42c-46.667 -1.33301 -92.334 12.667 -137.001 42c2 -10 3 -21.333 3 -34c0 -88.667 -47 -185 -141 -289c-87.333 -95.333 -174 -157.333 -260 -186l-148 43
c-81.333 26 -122 46 -122 60zM471 -547.999l-23.5029 -24.5c-9 -9.66699 -18.833 -23.667 -29.5 -42s-22 -42 -34 -71s-24.333 -65.833 -37 -110.5l-37 -1c-5.33301 24 -12.5 48 -21.5 72s-19.5 46.667 -31.5 68s-25 40.833 -39 58.5s-28.333 32.5 -43 44.5l87 -6
c4.66699 -6 9.83398 -13 15.501 -21s11.334 -18 17.001 -30s11.334 -27 17.001 -45s11.5 -40 17.5 -66l7.5 36c3 14 6.83301 28.667 11.5 44s10.167 30.5 16.5 45.5s13.5 28.833 21.5 41.5z" />
    <glyph glyph-name="uni0696.fina" unicode="&#x696;" horiz-adv-x="861" 
d="M30 -364c0 14.667 12.667 22.001 38 22.001c91.333 0 150.666 2.66699 177.999 8c74.667 14 158.334 57 251.001 129c100.667 78.667 151 151.667 151 219c0 18.667 -13.667 44.667 -41 78c-29.333 35.333 -44.666 57.333 -45.999 66c42 87.333 66.667 133 74 137
c14 -16 23.667 -29 29 -39c34.667 -48.667 64 -79.334 88 -92.001c21.333 -9.33301 63 -14 125 -14v-150h-42c-46.667 -1.33301 -92.334 12.667 -137.001 42c2 -10 3 -21.333 3 -34c0 -88.667 -47 -185 -141 -289c-87.333 -95.333 -174 -157.333 -260 -186l-148 43
c-81.333 26 -122 46 -122 60zM335 -536.999l109 -107l-105 -106l-109 107zM261 -28.999l109 -107l-105 -106l-109 107z" />
    <glyph glyph-name="uni0697.fina" unicode="&#x697;" horiz-adv-x="861" 
d="M30 -364c0 14.667 12.667 22.001 38 22.001c91.333 0 150.666 2.66699 177.999 8c74.667 14 158.334 57 251.001 129c100.667 78.667 151 151.667 151 219c0 18.667 -13.667 44.667 -41 78c-29.333 35.333 -44.666 57.333 -45.999 66c42 87.333 66.667 133 74 137
c14 -16 23.667 -29 29 -39c34.667 -48.667 64 -79.334 88 -92.001c21.333 -9.33301 63 -14 125 -14v-150h-42c-46.667 -1.33301 -92.334 12.667 -137.001 42c2 -10 3 -21.333 3 -34c0 -88.667 -47 -185 -141 -289c-87.333 -95.333 -174 -157.333 -260 -186l-148 43
c-81.333 26 -122 46 -122 60zM430 653.001l113 -113l-109 -111l-115 114zM647 662.001l111 -110l-107 -112l-114 114z" />
    <glyph glyph-name="uni0699.fina" unicode="&#x699;" horiz-adv-x="861" 
d="M30 -364c0 14.667 12.667 22.001 38 22.001c91.333 0 150.666 2.66699 177.999 8c74.667 14 158.334 57 251.001 129c100.667 78.667 151 151.667 151 219c0 18.667 -13.667 44.667 -41 78c-29.333 35.333 -44.666 57.333 -45.999 66c42 87.333 66.667 133 74 137
c14 -16 23.667 -29 29 -39c34.667 -48.667 64 -79.334 88 -92.001c21.333 -9.33301 63 -14 125 -14v-150h-42c-46.667 -1.33301 -92.334 12.667 -137.001 42c2 -10 3 -21.333 3 -34c0 -88.667 -47 -185 -141 -289c-87.333 -95.333 -174 -157.333 -260 -186l-148 43
c-81.333 26 -122 46 -122 60zM367 642.001l97 97l97 -97l-97 -96zM581 642.001l97 97l98 -97l-98 -96zM473 797.001l97 95l97 -95l-97 -99zM473 489.001l97 97l97 -97l-97 -97z" />
    <glyph glyph-name="uni069A.init" unicode="&#x69a;" horiz-adv-x="883" 
d="M-15 150c80 0 132.668 5.33398 158.001 16.001c35.333 16.667 66.333 57.667 93 123c8 16.667 17 25 27 25c9.33301 0 14 -8.33301 14 -25c0 -82 30.667 -123 92 -123c50.667 0 94.334 19.333 131.001 58c20 24 41 60.667 63 110c18 38 30 57 36 57
c14 -27.333 29 -54.666 45 -81.999c24.667 -47.333 59.667 -71 105 -71c34.667 0 52 17 52 51c0 35.333 -13.667 64.666 -41 87.999l-2 6c1.33301 7.33301 12.5 23.666 33.5 48.999s35.167 40 42.5 44c32 -19.333 48 -69.333 48 -150c0 -158 -46.667 -237 -140 -237
c-59.333 0 -114.333 31.333 -165 94c-40 -58.667 -69.333 -96.667 -88 -114c-32.667 -29.333 -76.334 -44 -131.001 -44c-69.333 0 -119.333 24.333 -150 73c-50.667 -65.333 -99.334 -98 -146.001 -98h-77v150zM571.001 833.001l109 -107l-105 -106l-109 107z
M575.001 -151.999l109 -107l-105 -106l-109 107z" />
    <glyph glyph-name="uni069A.medi" unicode="&#x69a;" horiz-adv-x="1079" 
d="M-12 150c101.333 0 165.997 9.33301 193.997 28c40.667 50.667 71 93.667 91 129c9.33301 -9.33301 17.666 -27 24.999 -53c6 -27.333 13.333 -45.666 22 -54.999c14.667 -17.333 40.334 -26 77.001 -26c52.667 0 93.334 19.667 122.001 59
c41.333 51.333 64.333 78.666 69 81.999c7.33301 0 12 -4.66699 14 -14c8 -29.333 15 -58.333 21 -87c12.667 -27.333 38.334 -41 77.001 -41c32.667 0 59 11 79 33c9.33301 10.667 20.333 31 33 61c10.667 23.333 20.334 37 29.001 41l20 -20c12 -58 39.333 -97 82 -117
c30.667 -13.333 80 -20 148 -20v-150c-72 0 -123.833 9.16699 -155.5 27.5s-63.167 59.833 -94.5 124.5c-45.333 -93.333 -105 -140 -179 -140c-53.333 0 -96.333 39 -129 117c-13.333 -28 -39.5 -54.167 -78.5 -78.5s-74.167 -36.5 -105.5 -36.5c-60 0 -101.667 27 -125 81
c-50 -63.333 -105 -95 -165 -95h-71v150zM588.997 741l109 -107l-105 -106l-109 107zM524.997 -200l109 -107l-105 -106l-109 107z" />
    <glyph glyph-name="uni069A.fina" unicode="&#x69a;" horiz-adv-x="1801" 
d="M87 -259c0 46.667 4.00488 87.332 12.0049 121.999c7.33301 29.333 26 71 56 125c31.333 61.333 57.333 95.333 78 102l15 -15c-6.66699 -17.333 -25.334 -57.333 -56.001 -120c-24.667 -47.333 -37 -91 -37 -131c0 -82.667 40.333 -144 121 -184
c60.667 -28.667 136.667 -43 228 -43c254.667 0 382 98 382 294c0 62.667 -2 103.667 -6 123c-6.66699 30.667 -24 67.667 -52 111l-3 12c0 10.667 7.5 31.5 22.5 62.5s26.833 50.833 35.5 59.5l6 -3c23.333 -25.333 45.666 -51.333 66.999 -78
c20 -18.667 55.667 -28 107 -28c48.667 0 90 23.667 124 71c45.333 61.333 69.666 92.333 72.999 93c10.667 1.33301 16 -5 16 -19c0 -34 9 -62 27 -84c18.667 -26 44.667 -39 78 -39c43.333 0 78 11.333 104 34c16 13.333 30.333 35 43 65c13.333 28 23.666 43 30.999 45
l21 -21c14.667 -60 43.334 -101 86.001 -123c30.667 -14.667 79.667 -22 147 -22v-150c-73.333 0 -128 10.333 -164 31s-72.667 61.334 -110 122.001c-60.667 -94 -126.334 -141 -197.001 -141c-45.333 0 -88 33.333 -128 100c-32.667 -74.667 -85.334 -112 -158.001 -112
c-51.333 0 -85.333 5 -102 15c0 -380 -169 -570 -507 -570c-103.333 0 -187 23 -251 69c-72.667 54 -109 129.667 -109 227zM1273 713.998l109 -107l-105 -106l-109 107zM1259 -184.002l109 -107l-105 -106l-109 107z" />
    <glyph glyph-name="uni069B.init" unicode="&#x69b;" horiz-adv-x="883" 
d="M-15 150c80 0 132.668 5.33398 158.001 16.001c35.333 16.667 66.333 57.667 93 123c8 16.667 17 25 27 25c9.33301 0 14 -8.33301 14 -25c0 -82 30.667 -123 92 -123c50.667 0 94.334 19.333 131.001 58c20 24 41 60.667 63 110c18 38 30 57 36 57
c14 -27.333 29 -54.666 45 -81.999c24.667 -47.333 59.667 -71 105 -71c34.667 0 52 17 52 51c0 35.333 -13.667 64.666 -41 87.999l-2 6c1.33301 7.33301 12.5 23.666 33.5 48.999s35.167 40 42.5 44c32 -19.333 48 -69.333 48 -150c0 -158 -46.667 -237 -140 -237
c-59.333 0 -114.333 31.333 -165 94c-40 -58.667 -69.333 -96.667 -88 -114c-32.667 -29.333 -76.334 -44 -131.001 -44c-69.333 0 -119.333 24.333 -150 73c-50.667 -65.333 -99.334 -98 -146.001 -98h-77v150zM583.001 -154.999l99 -98l-97 -92l-97 96zM492.001 -349.999
l97 -97l-95 -94l-96 95zM387.001 -163.999l100 -98l-95 -93l-97 97z" />
    <glyph glyph-name="uni069B.medi" unicode="&#x69b;" horiz-adv-x="1079" 
d="M-12 150c101.333 0 165.997 9.33301 193.997 28c40.667 50.667 71 93.667 91 129c9.33301 -9.33301 17.666 -27 24.999 -53c6 -27.333 13.333 -45.666 22 -54.999c14.667 -17.333 40.334 -26 77.001 -26c52.667 0 93.334 19.667 122.001 59
c41.333 51.333 64.333 78.666 69 81.999c7.33301 0 12 -4.66699 14 -14c8 -29.333 15 -58.333 21 -87c12.667 -27.333 38.334 -41 77.001 -41c32.667 0 59 11 79 33c9.33301 10.667 20.333 31 33 61c10.667 23.333 20.334 37 29.001 41l20 -20c12 -58 39.333 -97 82 -117
c30.667 -13.333 80 -20 148 -20v-150c-72 0 -123.833 9.16699 -155.5 27.5s-63.167 59.833 -94.5 124.5c-45.333 -93.333 -105 -140 -179 -140c-53.333 0 -96.333 39 -129 117c-13.333 -28 -39.5 -54.167 -78.5 -78.5s-74.167 -36.5 -105.5 -36.5c-60 0 -101.667 27 -125 81
c-50 -63.333 -105 -95 -165 -95h-71v150zM587.997 -201l99 -98l-97 -92l-97 96zM496.997 -396l97 -97l-95 -94l-96 95zM391.997 -210l100 -98l-95 -93l-97 97z" />
    <glyph glyph-name="uni069B.fina" unicode="&#x69b;" horiz-adv-x="1801" 
d="M87 -259c0 46.667 4.00488 87.332 12.0049 121.999c7.33301 29.333 26 71 56 125c31.333 61.333 57.333 95.333 78 102l15 -15c-6.66699 -17.333 -25.334 -57.333 -56.001 -120c-24.667 -47.333 -37 -91 -37 -131c0 -82.667 40.333 -144 121 -184
c60.667 -28.667 136.667 -43 228 -43c254.667 0 382 98 382 294c0 62.667 -2 103.667 -6 123c-6.66699 30.667 -24 67.667 -52 111l-3 12c0 10.667 7.5 31.5 22.5 62.5s26.833 50.833 35.5 59.5l6 -3c23.333 -25.333 45.666 -51.333 66.999 -78
c20 -18.667 55.667 -28 107 -28c48.667 0 90 23.667 124 71c45.333 61.333 69.666 92.333 72.999 93c10.667 1.33301 16 -5 16 -19c0 -34 9 -62 27 -84c18.667 -26 44.667 -39 78 -39c43.333 0 78 11.333 104 34c16 13.333 30.333 35 43 65c13.333 28 23.666 43 30.999 45
l21 -21c14.667 -60 43.334 -101 86.001 -123c30.667 -14.667 79.667 -22 147 -22v-150c-73.333 0 -128 10.333 -164 31s-72.667 61.334 -110 122.001c-60.667 -94 -126.334 -141 -197.001 -141c-45.333 0 -88 33.333 -128 100c-32.667 -74.667 -85.334 -112 -158.001 -112
c-51.333 0 -85.333 5 -102 15c0 -380 -169 -570 -507 -570c-103.333 0 -187 23 -251 69c-72.667 54 -109 129.667 -109 227zM1424 -182.002l99 -98l-97 -92l-97 96zM1333 -377.002l97 -97l-95 -94l-96 95zM1228 -191.002l100 -98l-95 -93l-97 97z" />
    <glyph glyph-name="uni069C.init" unicode="&#x69c;" horiz-adv-x="883" 
d="M-15 150c80 0 132.668 5.33398 158.001 16.001c35.333 16.667 66.333 57.667 93 123c8 16.667 17 25 27 25c9.33301 0 14 -8.33301 14 -25c0 -82 30.667 -123 92 -123c50.667 0 94.334 19.333 131.001 58c20 24 41 60.667 63 110c18 38 30 57 36 57
c14 -27.333 29 -54.666 45 -81.999c24.667 -47.333 59.667 -71 105 -71c34.667 0 52 17 52 51c0 35.333 -13.667 64.666 -41 87.999l-2 6c1.33301 7.33301 12.5 23.666 33.5 48.999s35.167 40 42.5 44c32 -19.333 48 -69.333 48 -150c0 -158 -46.667 -237 -140 -237
c-59.333 0 -114.333 31.333 -165 94c-40 -58.667 -69.333 -96.667 -88 -114c-32.667 -29.333 -76.334 -44 -131.001 -44c-69.333 0 -119.333 24.333 -150 73c-50.667 -65.333 -99.334 -98 -146.001 -98h-77v150zM623.001 -132.999l99 -98l-97 -92l-97 96zM532.001 -327.999
l97 -97l-95 -94l-96 95zM427.001 -141.999l100 -98l-95 -93l-97 97zM426.001 585.001l-108 108l107 103l107 -107zM527.001 802.001l-107 107l106 104l105 -106zM643.001 595.001l-110 109l105 102l107 -107z" />
    <glyph glyph-name="uni069C.medi" unicode="&#x69c;" horiz-adv-x="1079" 
d="M-12 150c101.333 0 165.997 9.33301 193.997 28c40.667 50.667 71 93.667 91 129c9.33301 -9.33301 17.666 -27 24.999 -53c6 -27.333 13.333 -45.666 22 -54.999c14.667 -17.333 40.334 -26 77.001 -26c52.667 0 93.334 19.667 122.001 59
c41.333 51.333 64.333 78.666 69 81.999c7.33301 0 12 -4.66699 14 -14c8 -29.333 15 -58.333 21 -87c12.667 -27.333 38.334 -41 77.001 -41c32.667 0 59 11 79 33c9.33301 10.667 20.333 31 33 61c10.667 23.333 20.334 37 29.001 41l20 -20c12 -58 39.333 -97 82 -117
c30.667 -13.333 80 -20 148 -20v-150c-72 0 -123.833 9.16699 -155.5 27.5s-63.167 59.833 -94.5 124.5c-45.333 -93.333 -105 -140 -179 -140c-53.333 0 -96.333 39 -129 117c-13.333 -28 -39.5 -54.167 -78.5 -78.5s-74.167 -36.5 -105.5 -36.5c-60 0 -101.667 27 -125 81
c-50 -63.333 -105 -95 -165 -95h-71v150zM649.997 -162l99 -98l-97 -92l-97 96zM558.997 -357l97 -97l-95 -94l-96 95zM453.997 -171l100 -98l-95 -93l-97 97zM482.997 482l-108 108l107 103l107 -107zM583.997 699l-107 107l106 104l105 -106zM699.997 492l-110 109
l105 102l107 -107z" />
    <glyph glyph-name="uni069C.fina" unicode="&#x69c;" horiz-adv-x="1801" 
d="M87 -259c0 46.667 4.00488 87.332 12.0049 121.999c7.33301 29.333 26 71 56 125c31.333 61.333 57.333 95.333 78 102l15 -15c-6.66699 -17.333 -25.334 -57.333 -56.001 -120c-24.667 -47.333 -37 -91 -37 -131c0 -82.667 40.333 -144 121 -184
c60.667 -28.667 136.667 -43 228 -43c254.667 0 382 98 382 294c0 62.667 -2 103.667 -6 123c-6.66699 30.667 -24 67.667 -52 111l-3 12c0 10.667 7.5 31.5 22.5 62.5s26.833 50.833 35.5 59.5l6 -3c23.333 -25.333 45.666 -51.333 66.999 -78
c20 -18.667 55.667 -28 107 -28c48.667 0 90 23.667 124 71c45.333 61.333 69.666 92.333 72.999 93c10.667 1.33301 16 -5 16 -19c0 -34 9 -62 27 -84c18.667 -26 44.667 -39 78 -39c43.333 0 78 11.333 104 34c16 13.333 30.333 35 43 65c13.333 28 23.666 43 30.999 45
l21 -21c14.667 -60 43.334 -101 86.001 -123c30.667 -14.667 79.667 -22 147 -22v-150c-73.333 0 -128 10.333 -164 31s-72.667 61.334 -110 122.001c-60.667 -94 -126.334 -141 -197.001 -141c-45.333 0 -88 33.333 -128 100c-32.667 -74.667 -85.334 -112 -158.001 -112
c-51.333 0 -85.333 5 -102 15c0 -380 -169 -570 -507 -570c-103.333 0 -187 23 -251 69c-72.667 54 -109 129.667 -109 227zM1363 -180.002l99 -98l-97 -92l-97 96zM1272 -375.002l97 -97l-95 -94l-96 95zM1167 -189.002l100 -98l-95 -93l-97 97zM1139 471.998l-108 108
l107 103l107 -107zM1240 688.998l-107 107l106 104l105 -106zM1356 481.998l-110 109l105 102l107 -107z" />
    <glyph glyph-name="uni069D.init" unicode="&#x69d;" horiz-adv-x="1246" 
d="M-15 150c93.333 0 149.999 6.66895 169.999 20.002c6 2 39.667 45.667 101 131c8.66699 -0.666992 13 -12.334 13 -35.001c0 -77.333 53.667 -116 161 -116c43.333 0 76 6.33301 98 19c26 13.333 57.667 42.333 95 87l84 102c126 133.333 250.333 200 373 200
c47.333 0 85.833 -14.167 115.5 -42.5s44.5 -66.166 44.5 -113.499c0 -138.667 -88.333 -243.667 -265 -315c-133.333 -58 -281.666 -87 -444.999 -87c-37.333 -72.667 -58.333 -112.334 -63 -119.001l-19 -10c-10.667 0 -16 6.33301 -16 19
c0 5.33301 9.33301 42.666 28 111.999c-68.667 0 -116.667 6.33301 -144 19c-36 14 -69.667 49.667 -101 107c-37.333 -85.333 -92 -128 -164 -128h-66v150zM677.999 152.002c46.667 0 130.666 18 251.999 54c133.333 41.333 200 77.333 200 108c0 24 -15.667 43.667 -47 59
c-24 12 -50 18 -78 18c-127.333 0 -260.666 -79.667 -399.999 -239h73zM423.998 -251.998l113 -113l-109 -111l-115 114zM640.998 -242.998l111 -110l-107 -112l-114 114z" />
    <glyph glyph-name="uni069D.medi" unicode="&#x69d;" horiz-adv-x="1333" 
d="M-12 150c93.333 0 149.334 6.66992 168.001 20.0029c7.33301 4 41.666 47.667 102.999 131c16.667 -24 28.667 -53.333 36 -88c6 -26.667 16 -43 30 -49c18.667 -9.33301 59.667 -14 123 -14c31.333 0 56.5 4.33301 75.5 13s50.5 39 94.5 91l90 104
c43.333 51.333 100.333 96.666 171 135.999c75.333 42.667 143.333 64 204 64c106.667 0 160 -52 160 -156c0 -58.667 -20.667 -115 -62 -169c-36 -47.333 -81.667 -86 -137 -116c41.333 7.33301 82.333 14 123 20c49.333 8.66699 90.333 13 123 13h60v-150h-203
c-28.667 0 -70.834 3.66699 -126.501 11s-97.167 11 -124.5 11c-1.33301 0 -122.333 -7.33301 -363 -22c-36.667 -72.667 -57.667 -112.334 -63 -119.001l-19 -10c-10.667 0 -16 6.33301 -16 19c0 5.33301 9.66699 42.666 29 111.999
c-71.333 0 -119.666 6.33301 -144.999 19c-36 14 -69.667 49.667 -101 107c-37.333 -85.333 -92 -128 -164 -128h-66v150zM681.001 152.003c46.667 0 130.667 18 252 54c134 41.333 201 77.333 201 108c0 24 -16 43.667 -48 59c-24.667 12 -50.667 18 -78 18
c-127.333 0 -260.333 -79.667 -399 -239h72zM446.001 -238.997l113 -113l-109 -111l-115 114zM663.001 -229.997l111 -110l-107 -112l-114 114z" />
    <glyph glyph-name="uni069D.fina" unicode="&#x69d;" horiz-adv-x="1997" 
d="M98 -259c0 48.667 4.00098 89.333 12.001 122c6.66699 29.333 24.667 71 54 125c32.667 61.333 59 95.333 79 102l16 -15c-6.66699 -18.667 -25.667 -57.667 -57 -117c-24 -47.333 -36 -92 -36 -134c0 -82.667 40.333 -144 121 -184
c61.333 -28.667 137.666 -43 228.999 -43c254 0 381 97.667 381 293c0 63.333 -2 104 -6 122c-5.33301 32 -23.333 69.667 -54 113l-2 12c0 10.667 7.83301 31.5 23.5 62.5s27.5 50.833 35.5 59.5c10.667 -2 22.334 -11.667 35.001 -29c15.333 -25.333 30 -43.333 44 -54
c26.667 -17.333 60.334 -26 101.001 -26c69.333 0 120.333 14 153 42c66 72 113.333 127.333 142 166c42 49.333 98.667 94.666 170 135.999c77.333 42.667 145.666 64 204.999 64c46 0 84.667 -12.333 116 -37c28.667 -27.333 43 -63.666 43 -108.999
c0 -124 -66 -223 -198 -297c143.333 23.333 225 35 245 35h60v-150h-200c-26 0 -65.5 3.66699 -118.5 11s-93.167 11 -120.5 11c-4 0 -129.333 -7.33301 -376 -22l-61 -119l-21 -10c-11.333 0 -17 6.33301 -17 19c0 22 10.333 59.333 31 112
c-97.333 2.66699 -151.333 7 -162 13c0 -380 -169.333 -570 -508 -570c-102.667 0 -186.334 23 -251.001 69c-72 54 -108 129.667 -108 227zM1271 151.999c82 0.666992 162 9.66699 240 27c44.667 12 97.667 29.667 159 53c84 34 126 61.333 126 82
c0 22 -16.667 40.667 -50 56c-27.333 14 -53 21 -77 21c-67.333 0 -141 -26 -221 -78c-70.667 -46 -129.667 -99.667 -177 -161zM1236 -256.001l113 -113l-109 -111l-115 114zM1453 -247.001l111 -110l-107 -112l-114 114z" />
    <glyph glyph-name="uni069E.init" unicode="&#x69e;" horiz-adv-x="1246" 
d="M-15 150c93.333 0 149.999 6.66895 169.999 20.002c6 2 39.667 45.667 101 131c8.66699 -0.666992 13 -12.334 13 -35.001c0 -77.333 53.667 -116 161 -116c43.333 0 76 6.33301 98 19c26 13.333 57.667 42.333 95 87l84 102c126 133.333 250.333 200 373 200
c47.333 0 85.833 -14.167 115.5 -42.5s44.5 -66.166 44.5 -113.499c0 -138.667 -88.333 -243.667 -265 -315c-133.333 -58 -281.666 -87 -444.999 -87c-37.333 -72.667 -58.333 -112.334 -63 -119.001l-19 -10c-10.667 0 -16 6.33301 -16 19
c0 5.33301 9.33301 42.666 28 111.999c-68.667 0 -116.667 6.33301 -144 19c-36 14 -69.667 49.667 -101 107c-37.333 -85.333 -92 -128 -164 -128h-66v150zM677.999 152.002c46.667 0 130.666 18 251.999 54c133.333 41.333 200 77.333 200 108c0 24 -15.667 43.667 -47 59
c-24 12 -50 18 -78 18c-127.333 0 -260.666 -79.667 -399.999 -239h73zM435.998 552.002l-108 108l107 103l107 -107zM536.998 769.002l-107 107l106 104l105 -106zM652.998 562.002l-110 109l105 102l107 -107z" />
    <glyph glyph-name="uni069E.medi" unicode="&#x69e;" horiz-adv-x="1333" 
d="M-12 150c93.333 0 149.334 6.66992 168.001 20.0029c7.33301 4 41.666 47.667 102.999 131c16.667 -24 28.667 -53.333 36 -88c6 -26.667 16 -43 30 -49c18.667 -9.33301 59.667 -14 123 -14c31.333 0 56.5 4.33301 75.5 13s50.5 39 94.5 91l90 104
c43.333 51.333 100.333 96.666 171 135.999c75.333 42.667 143.333 64 204 64c106.667 0 160 -52 160 -156c0 -58.667 -20.667 -115 -62 -169c-36 -47.333 -81.667 -86 -137 -116c41.333 7.33301 82.333 14 123 20c49.333 8.66699 90.333 13 123 13h60v-150h-203
c-28.667 0 -70.834 3.66699 -126.501 11s-97.167 11 -124.5 11c-1.33301 0 -122.333 -7.33301 -363 -22c-36.667 -72.667 -57.667 -112.334 -63 -119.001l-19 -10c-10.667 0 -16 6.33301 -16 19c0 5.33301 9.66699 42.666 29 111.999
c-71.333 0 -119.666 6.33301 -144.999 19c-36 14 -69.667 49.667 -101 107c-37.333 -85.333 -92 -128 -164 -128h-66v150zM681.001 152.003c46.667 0 130.667 18 252 54c134 41.333 201 77.333 201 108c0 24 -16 43.667 -48 59c-24.667 12 -50.667 18 -78 18
c-127.333 0 -260.333 -79.667 -399 -239h72zM439.001 586.003l-108 108l107 103l107 -107zM540.001 803.003l-107 107l106 104l105 -106zM656.001 596.003l-110 109l105 102l107 -107z" />
    <glyph glyph-name="uni069E.fina" unicode="&#x69e;" horiz-adv-x="1997" 
d="M98 -259c0 48.667 4.00098 89.333 12.001 122c6.66699 29.333 24.667 71 54 125c32.667 61.333 59 95.333 79 102l16 -15c-6.66699 -18.667 -25.667 -57.667 -57 -117c-24 -47.333 -36 -92 -36 -134c0 -82.667 40.333 -144 121 -184
c61.333 -28.667 137.666 -43 228.999 -43c254 0 381 97.667 381 293c0 63.333 -2 104 -6 122c-5.33301 32 -23.333 69.667 -54 113l-2 12c0 10.667 7.83301 31.5 23.5 62.5s27.5 50.833 35.5 59.5c10.667 -2 22.334 -11.667 35.001 -29c15.333 -25.333 30 -43.333 44 -54
c26.667 -17.333 60.334 -26 101.001 -26c69.333 0 120.333 14 153 42c66 72 113.333 127.333 142 166c42 49.333 98.667 94.666 170 135.999c77.333 42.667 145.666 64 204.999 64c46 0 84.667 -12.333 116 -37c28.667 -27.333 43 -63.666 43 -108.999
c0 -124 -66 -223 -198 -297c143.333 23.333 225 35 245 35h60v-150h-200c-26 0 -65.5 3.66699 -118.5 11s-93.167 11 -120.5 11c-4 0 -129.333 -7.33301 -376 -22l-61 -119l-21 -10c-11.333 0 -17 6.33301 -17 19c0 22 10.333 59.333 31 112
c-97.333 2.66699 -151.333 7 -162 13c0 -380 -169.333 -570 -508 -570c-102.667 0 -186.334 23 -251.001 69c-72 54 -108 129.667 -108 227zM1271 151.999c82 0.666992 162 9.66699 240 27c44.667 12 97.667 29.667 159 53c84 34 126 61.333 126 82
c0 22 -16.667 40.667 -50 56c-27.333 14 -53 21 -77 21c-67.333 0 -141 -26 -221 -78c-70.667 -46 -129.667 -99.667 -177 -161zM1068 557.999l-108 108l107 103l107 -107zM1169 774.999l-107 107l106 104l105 -106zM1285 567.999l-110 109l105 102l107 -107z" />
    <glyph glyph-name="uni069F.medi" unicode="&#x69f;" horiz-adv-x="1167" 
d="M90 162l8 8.00391c49.333 -12 103.333 -18 162 -18c50.667 0 94.167 16.5 130.5 49.5s54.5 74.5 54.5 124.5c0 144.667 -15.333 311.334 -46 500.001c-7.33301 43.333 -15.333 86.666 -24 129.999c-9.33301 50 -14 93 -14 129c0 20.667 4.66699 44.667 14 72
c12.667 32 26 54.333 40 67c10 -6.66699 27.833 -27.834 53.5 -63.501s42.5 -60.5 50.5 -74.5c0 -0.666992 -11.667 -18.334 -35 -53.001c-13.333 -18.667 -20 -38.667 -20 -60c0 -20.667 3 -49.667 9 -87c7.33301 -40.667 11.666 -70 12.999 -88l18 -472
c86.667 76 149 127.333 187 154c82 58 154 87 216 87c44 0 83.167 -14.833 117.5 -44.5s51.5 -67.167 51.5 -112.5c0 -58.667 -22.333 -116 -67 -172c-40.667 -52.667 -90 -91.334 -148 -116.001c120 18.667 206.667 28 260 28h60v-150l-504 12
c-48.667 0 -121 -2.83301 -217 -8.5s-168 -8.5 -216 -8.5c-23.333 0 -52.666 19.667 -87.999 59c-29.333 31.333 -51.333 61.666 -66 90.999v17zM418 153.004c105.333 0 208.333 12.001 309 36.001c152.667 33.333 229 83.666 229 150.999c0 24.667 -15.667 43.667 -47 57
c-26 13.333 -52.667 20 -80 20c-92 0 -229 -88 -411 -264zM750 780.005l-108 108l107 103l107 -107zM851 997.005l-107 107l106 104l105 -106zM967 790.005l-110 109l105 102l107 -107z" />
    <glyph glyph-name="uni06A0.init" unicode="&#x6a0;" horiz-adv-x="822" 
d="M-14 150c118.667 -4.66699 206.332 11 262.999 47c-49.333 41.333 -74 84.333 -74 129c0 76 33 151.333 99 226c68.667 75.333 140.667 113 216 113c28.667 0 64.667 -10 108 -30c48 -22.667 72 -46.667 72 -72c0 -19.333 -17.333 -29 -52 -29
c-10.667 0 -26.167 1.5 -46.5 4.5s-35.166 4.5 -44.499 4.5c-45.333 0 -96 -10.667 -152 -32c-69.333 -26.667 -104 -58 -104 -94c0 -39.333 55.333 -91 166 -155c182.667 72 294.667 113 336 123c7.33301 -6.66699 10.333 -12.667 9 -18l-27 -108l-12 -15l-316 -122
c-62 -25.333 -123.333 -52 -184 -80c-76.667 -28 -139.667 -42 -189 -42h-68v150zM352.998 770l-108 108l107 103l107 -107zM453.998 987l-107 107l106 104l105 -106zM569.998 780l-110 109l105 102l107 -107z" />
    <glyph glyph-name="uni06A0.medi" unicode="&#x6a0;" horiz-adv-x="664" 
d="M-18 150c76 -0.666992 131.167 1.16602 165.5 5.49902s74.5 28.833 120.5 73.5c-28 24 -56.667 44 -86 60c-6 2.66699 -12.833 5.5 -20.5 8.5l-23 9c-7.66699 3 -14.167 6 -19.5 9s-8.33301 6.16699 -9 9.5c1.33301 45.333 28.5 81.333 81.5 108s107.5 39 163.5 37
c42 0 85 -9 129 -27c49.333 -31.333 74 -65.666 74 -102.999s-41.333 -77 -124 -119c26 -30 59.167 -49.333 99.5 -58s89.166 -13 146.499 -13v-150c-142 0 -253.333 55.667 -334 167c-113.333 -111.333 -213.666 -167 -300.999 -167h-63v150zM216 592l-108 108l107 103
l107 -107zM317 809l-107 107l106 104l105 -106zM433 602l-110 109l105 102l107 -107z" />
    <glyph glyph-name="uni06A0.fina" unicode="&#x6a0;" horiz-adv-x="894" 
d="M109 -426c0 132.667 34.668 254.667 104.001 366c49.333 80 133.333 176.667 252 290c-30 16 -73 27.667 -129 35l-13 21c0 52 26.667 96.667 80 134c46.667 33.333 98.334 50 155.001 50c41.333 0 83.666 -13.333 126.999 -40c48.667 -30 73 -64 73 -102
c0 -26 -15 -50.667 -45 -74c-10 -8.66699 -36 -24.667 -78 -48c45.333 -38 107.666 -56.667 186.999 -56h82v-150c-92 0 -160.5 10.5 -205.5 31.5s-94.833 67.167 -149.5 138.5c-248.667 -175.333 -373 -354.333 -373 -537c0 -156 81.333 -270.667 244 -344
c120.667 -54.667 269.667 -82 447 -82c41.333 0 102.333 4 183 12c82 6.66699 142.333 10 181 10l32 -13c-35.333 -32 -121 -67 -257 -105c-124.667 -35.333 -217.667 -53 -279 -53c-180 0 -324 40 -432 120c-124 89.333 -186 221.333 -186 396zM398.001 562l-108 108
l107 103l107 -107zM499.001 779l-107 107l106 104l105 -106zM615.001 572l-110 109l105 102l107 -107z" />
    <glyph glyph-name="afii57459" unicode="&#x6a1;" horiz-adv-x="473" 
d="M-15 150c258 -3.33301 387 26 387 88c0 24 -8.66699 52 -26 84c-53.333 -38 -101.333 -57 -144 -57c-72.667 0 -109 39.333 -109 118c0 50.667 17.667 115 53 193c42 89.333 84.667 134 128 134c50.667 0 95 -46 133 -138c32.667 -75.333 49 -143 49 -203
c0 -246 -129 -369 -387 -369h-84v150zM175 451c0 -36 13.333 -53.999 40 -53.999h24c16 0 40.667 13.667 74 41c0 21.333 -6 45.666 -18 72.999c-16 31.333 -32.333 47 -49 47c-22 0 -40 -13 -54 -39c-11.333 -21.333 -17 -44 -17 -68z" />
    <glyph glyph-name="afii57374" unicode="&#x6a1;" horiz-adv-x="680" 
d="M-18 150c114 -3.33301 191 1.99805 231 15.998l-16 33c-4 34.667 -6 53.667 -6 57c0 56 32.667 127.667 98 215c68 92 128.667 138 182 138c28.667 0 52 -22.667 70 -68c14.667 -38 22 -73.333 22 -106c0 -121.333 -37.333 -208.666 -112 -261.999
c60 -16 129.333 -23.667 208 -23h33v-150h-151c-26.667 0 -65.667 7.83301 -117 23.5s-87.333 30.834 -108 45.501c-118 -46 -207.667 -69 -269 -69h-65v150zM269 306.998c0 -45.333 27.001 -76 81.001 -92c31.333 7.33301 60.666 21 87.999 41c32 24.667 48 50.667 48 78
c0 22 -9.33301 42.833 -28 62.5s-39 29.5 -61 29.5c-26 0 -53.833 -13.833 -83.5 -41.5s-44.5 -53.5 -44.5 -77.5z" />
    <glyph glyph-name="afii52258" unicode="&#x6a1;" horiz-adv-x="1729" 
d="M85 166c0 44 9 93.3311 27 147.998c20.667 60.667 46 101.667 76 123l6 -13c-1.33301 -6 -10.333 -40 -27 -102c-10 -41.333 -15 -76 -15 -104c0 -82 61.333 -141 184 -177c82 -24 178 -36 288 -36c109.333 0 227.666 11.333 354.999 34
c148.667 27.333 260.334 64 335.001 110c-49.333 36 -74 73 -74 111c0 50.667 26.667 121 80 211c58 97.333 110 146 156 146c33.333 0 65 -31.667 95 -95c24 -52.667 36 -99 36 -139c0 -96.667 -22 -167 -66 -211c40 -15.333 96.667 -22.666 170 -21.999h25v-150h-16
c-103.333 -1.33301 -201 24.334 -293 77.001c-98.667 -64 -223.5 -119.167 -374.5 -165.5s-284.833 -69.5 -401.5 -69.5c-164 0 -286.667 16 -368 48c-132 49.333 -198 141.333 -198 276zM1314 315.998c0 -13.333 12.333 -33.333 37 -60l76 -37l70 46c26 23.333 39 47 39 71
c0 18 -8.33301 41 -25 69c-19.333 32 -37 48 -53 48c-20 0 -49 -18.333 -87 -55s-57 -64 -57 -82z" />
    <glyph glyph-name="uni06A2.init" unicode="&#x6a2;" horiz-adv-x="473" 
d="M-15 150c258 -3.33301 387 26 387 88c0 24 -8.66699 52 -26 84c-53.333 -38 -101.333 -57 -144 -57c-72.667 0 -109 39.333 -109 118c0 50.667 17.667 115 53 193c42 89.333 84.667 134 128 134c50.667 0 95 -46 133 -138c32.667 -75.333 49 -143 49 -203
c0 -246 -129 -369 -387 -369h-84v150zM175 451c0 -36 13.333 -53.999 40 -53.999h24c16 0 40.667 13.667 74 41c0 21.333 -6 45.666 -18 72.999c-16 31.333 -32.333 47 -49 47c-22 0 -40 -13 -54 -39c-11.333 -21.333 -17 -44 -17 -68zM252 -151.999l109 -107l-105 -106
l-109 107z" />
    <glyph glyph-name="uni06A2.medi" unicode="&#x6a2;" horiz-adv-x="680" 
d="M-18 150c114 -3.33301 191 1.99805 231 15.998l-16 33c-4 34.667 -6 53.667 -6 57c0 56 32.667 127.667 98 215c68 92 128.667 138 182 138c28.667 0 52 -22.667 70 -68c14.667 -38 22 -73.333 22 -106c0 -121.333 -37.333 -208.666 -112 -261.999
c60 -16 129.333 -23.667 208 -23h33v-150h-151c-26.667 0 -65.667 7.83301 -117 23.5s-87.333 30.834 -108 45.501c-118 -46 -207.667 -69 -269 -69h-65v150zM269 306.998c0 -45.333 27.001 -76 81.001 -92c31.333 7.33301 60.666 21 87.999 41c32 24.667 48 50.667 48 78
c0 22 -9.33301 42.833 -28 62.5s-39 29.5 -61 29.5c-26 0 -53.833 -13.833 -83.5 -41.5s-44.5 -53.5 -44.5 -77.5zM311.001 -159.002l109 -107l-105 -106l-109 107z" />
    <glyph glyph-name="uni06A2.fina" unicode="&#x6a2;" horiz-adv-x="1729" 
d="M85 166c0 44 9 93.3311 27 147.998c20.667 60.667 46 101.667 76 123l6 -13c-1.33301 -6 -10.333 -40 -27 -102c-10 -41.333 -15 -76 -15 -104c0 -82 61.333 -141 184 -177c82 -24 178 -36 288 -36c109.333 0 227.666 11.333 354.999 34
c148.667 27.333 260.334 64 335.001 110c-49.333 36 -74 73 -74 111c0 50.667 26.667 121 80 211c58 97.333 110 146 156 146c33.333 0 65 -31.667 95 -95c24 -52.667 36 -99 36 -139c0 -96.667 -22 -167 -66 -211c40 -15.333 96.667 -22.666 170 -21.999h25v-150h-16
c-103.333 -1.33301 -201 24.334 -293 77.001c-98.667 -64 -223.5 -119.167 -374.5 -165.5s-284.833 -69.5 -401.5 -69.5c-164 0 -286.667 16 -368 48c-132 49.333 -198 141.333 -198 276zM1314 315.998c0 -13.333 12.333 -33.333 37 -60l76 -37l70 46c26 23.333 39 47 39 71
c0 18 -8.33301 41 -25 69c-19.333 32 -37 48 -53 48c-20 0 -49 -18.333 -87 -55s-57 -64 -57 -82zM1405 -144.002l109 -107l-105 -106l-109 107z" />
    <glyph glyph-name="uni06A3.init" unicode="&#x6a3;" horiz-adv-x="473" 
d="M-15 150c258 -3.33301 387 26 387 88c0 24 -8.66699 52 -26 84c-53.333 -38 -101.333 -57 -144 -57c-72.667 0 -109 39.333 -109 118c0 50.667 17.667 115 53 193c42 89.333 84.667 134 128 134c50.667 0 95 -46 133 -138c32.667 -75.333 49 -143 49 -203
c0 -246 -129 -369 -387 -369h-84v150zM175 451c0 -36 13.333 -53.999 40 -53.999h24c16 0 40.667 13.667 74 41c0 21.333 -6 45.666 -18 72.999c-16 31.333 -32.333 47 -49 47c-22 0 -40 -13 -54 -39c-11.333 -21.333 -17 -44 -17 -68zM243 1037l109 -107l-105 -106
l-109 107zM222 -122.999l109 -107l-105 -106l-109 107z" />
    <glyph glyph-name="uni06A3.medi" unicode="&#x6a3;" horiz-adv-x="680" 
d="M-18 150c114 -3.33301 191 1.99805 231 15.998l-16 33c-4 34.667 -6 53.667 -6 57c0 56 32.667 127.667 98 215c68 92 128.667 138 182 138c28.667 0 52 -22.667 70 -68c14.667 -38 22 -73.333 22 -106c0 -121.333 -37.333 -208.666 -112 -261.999
c60 -16 129.333 -23.667 208 -23h33v-150h-151c-26.667 0 -65.667 7.83301 -117 23.5s-87.333 30.834 -108 45.501c-118 -46 -207.667 -69 -269 -69h-65v150zM269 306.998c0 -45.333 27.001 -76 81.001 -92c31.333 7.33301 60.666 21 87.999 41c32 24.667 48 50.667 48 78
c0 22 -9.33301 42.833 -28 62.5s-39 29.5 -61 29.5c-26 0 -53.833 -13.833 -83.5 -41.5s-44.5 -53.5 -44.5 -77.5zM410.001 916.998l109 -107l-105 -106l-109 107zM335.001 -138.002l109 -107l-105 -106l-109 107z" />
    <glyph glyph-name="uni06A3.fina" unicode="&#x6a3;" horiz-adv-x="1729" 
d="M85 166c0 44 9 93.3311 27 147.998c20.667 60.667 46 101.667 76 123l6 -13c-1.33301 -6 -10.333 -40 -27 -102c-10 -41.333 -15 -76 -15 -104c0 -82 61.333 -141 184 -177c82 -24 178 -36 288 -36c109.333 0 227.666 11.333 354.999 34
c148.667 27.333 260.334 64 335.001 110c-49.333 36 -74 73 -74 111c0 50.667 26.667 121 80 211c58 97.333 110 146 156 146c33.333 0 65 -31.667 95 -95c24 -52.667 36 -99 36 -139c0 -96.667 -22 -167 -66 -211c40 -15.333 96.667 -22.666 170 -21.999h25v-150h-16
c-103.333 -1.33301 -201 24.334 -293 77.001c-98.667 -64 -223.5 -119.167 -374.5 -165.5s-284.833 -69.5 -401.5 -69.5c-164 0 -286.667 16 -368 48c-132 49.333 -198 141.333 -198 276zM1314 315.998c0 -13.333 12.333 -33.333 37 -60l76 -37l70 46c26 23.333 39 47 39 71
c0 18 -8.33301 41 -25 69c-19.333 32 -37 48 -53 48c-20 0 -49 -18.333 -87 -55s-57 -64 -57 -82zM1432 956.998l109 -107l-105 -106l-109 107zM1441 -139.002l109 -107l-105 -106l-109 107z" />
    <glyph glyph-name="uni06A5.init" unicode="&#x6a5;" horiz-adv-x="473" 
d="M-15 150c258 -3.33301 387 26 387 88c0 24 -8.66699 52 -26 84c-53.333 -38 -101.333 -57 -144 -57c-72.667 0 -109 39.333 -109 118c0 50.667 17.667 115 53 193c42 89.333 84.667 134 128 134c50.667 0 95 -46 133 -138c32.667 -75.333 49 -143 49 -203
c0 -246 -129 -369 -387 -369h-84v150zM175 451c0 -36 13.333 -53.999 40 -53.999h24c16 0 40.667 13.667 74 41c0 21.333 -6 45.666 -18 72.999c-16 31.333 -32.333 47 -49 47c-22 0 -40 -13 -54 -39c-11.333 -21.333 -17 -44 -17 -68zM362 -154.999l99 -98l-97 -92l-97 96z
M271 -349.999l97 -97l-95 -94l-96 95zM166 -163.999l100 -98l-95 -93l-97 97z" />
    <glyph glyph-name="uni06A5.medi" unicode="&#x6a5;" horiz-adv-x="680" 
d="M-18 150c114 -3.33301 191 1.99805 231 15.998l-16 33c-4 34.667 -6 53.667 -6 57c0 56 32.667 127.667 98 215c68 92 128.667 138 182 138c28.667 0 52 -22.667 70 -68c14.667 -38 22 -73.333 22 -106c0 -121.333 -37.333 -208.666 -112 -261.999
c60 -16 129.333 -23.667 208 -23h33v-150h-151c-26.667 0 -65.667 7.83301 -117 23.5s-87.333 30.834 -108 45.501c-118 -46 -207.667 -69 -269 -69h-65v150zM269 306.998c0 -45.333 27.001 -76 81.001 -92c31.333 7.33301 60.666 21 87.999 41c32 24.667 48 50.667 48 78
c0 22 -9.33301 42.833 -28 62.5s-39 29.5 -61 29.5c-26 0 -53.833 -13.833 -83.5 -41.5s-44.5 -53.5 -44.5 -77.5zM428.001 -139.002l99 -98l-97 -92l-97 96zM337.001 -334.002l97 -97l-95 -94l-96 95zM232.001 -148.002l100 -98l-95 -93l-97 97z" />
    <glyph glyph-name="uni06A5.fina" unicode="&#x6a5;" horiz-adv-x="1729" 
d="M85 166c0 44 9 93.3311 27 147.998c20.667 60.667 46 101.667 76 123l6 -13c-1.33301 -6 -10.333 -40 -27 -102c-10 -41.333 -15 -76 -15 -104c0 -82 61.333 -141 184 -177c82 -24 178 -36 288 -36c109.333 0 227.666 11.333 354.999 34
c148.667 27.333 260.334 64 335.001 110c-49.333 36 -74 73 -74 111c0 50.667 26.667 121 80 211c58 97.333 110 146 156 146c33.333 0 65 -31.667 95 -95c24 -52.667 36 -99 36 -139c0 -96.667 -22 -167 -66 -211c40 -15.333 96.667 -22.666 170 -21.999h25v-150h-16
c-103.333 -1.33301 -201 24.334 -293 77.001c-98.667 -64 -223.5 -119.167 -374.5 -165.5s-284.833 -69.5 -401.5 -69.5c-164 0 -286.667 16 -368 48c-132 49.333 -198 141.333 -198 276zM1314 315.998c0 -13.333 12.333 -33.333 37 -60l76 -37l70 46c26 23.333 39 47 39 71
c0 18 -8.33301 41 -25 69c-19.333 32 -37 48 -53 48c-20 0 -49 -18.333 -87 -55s-57 -64 -57 -82zM1513 -222.002l99 -98l-97 -92l-97 96zM1422 -417.002l97 -97l-95 -94l-96 95zM1317 -231.002l100 -98l-95 -93l-97 97z" />
    <glyph glyph-name="uni06A7.fina" unicode="&#x6a7;" horiz-adv-x="1173" 
d="M87 -213c0 46.667 19.333 119.331 58 217.998c42 110 81.333 163 118 159l8 -12c-5.33301 -26.667 -26 -70 -62 -130c-26.667 -49.333 -40 -98.333 -40 -147c0 -79.333 31.333 -140.666 94 -183.999c55.333 -38.667 124.333 -58 207 -58
c116.667 0 225.334 24.667 326.001 74c127.333 60 191 142 191 246c0 5.33301 -2 21 -6 47c-62 -1.33301 -115 7.66699 -159 27c-59.333 26 -89 66.667 -89 122c0 46 17 100.667 51 164c38.667 70 79.667 105 123 105c40.667 0 74.667 -36.333 102 -109
c19.333 -46.667 32.666 -99.667 39.999 -159h132v-150h-129c0 -151.333 -62.667 -279.666 -188 -384.999c-120.667 -97.333 -257.667 -146 -411 -146c-244 0 -366 106 -366 318zM823 214.997c0 -39.333 39 -59 117 -59h20c0 25.333 -6.66699 51.666 -20 78.999
c-16.667 34.667 -35.667 52 -57 52c-16 0 -30 -8.16699 -42 -24.5s-18 -32.166 -18 -47.499zM857 730.997l109 -107l-105 -106l-109 107z" />
    <glyph glyph-name="uni06A8.fina" unicode="&#x6a8;" horiz-adv-x="1173" 
d="M87 -213c0 46.667 19.333 119.331 58 217.998c42 110 81.333 163 118 159l8 -12c-5.33301 -26.667 -26 -70 -62 -130c-26.667 -49.333 -40 -98.333 -40 -147c0 -79.333 31.333 -140.666 94 -183.999c55.333 -38.667 124.333 -58 207 -58
c116.667 0 225.334 24.667 326.001 74c127.333 60 191 142 191 246c0 5.33301 -2 21 -6 47c-62 -1.33301 -115 7.66699 -159 27c-59.333 26 -89 66.667 -89 122c0 46 17 100.667 51 164c38.667 70 79.667 105 123 105c40.667 0 74.667 -36.333 102 -109
c19.333 -46.667 32.666 -99.667 39.999 -159h132v-150h-129c0 -151.333 -62.667 -279.666 -188 -384.999c-120.667 -97.333 -257.667 -146 -411 -146c-244 0 -366 106 -366 318zM823 214.997c0 -39.333 39 -59 117 -59h20c0 25.333 -6.66699 51.666 -20 78.999
c-16.667 34.667 -35.667 52 -57 52c-16 0 -30 -8.16699 -42 -24.5s-18 -32.166 -18 -47.499zM730 528.997l-108 108l107 103l107 -107zM831 745.997l-107 107l106 104l105 -106zM947 538.997l-110 109l105 102l107 -107z" />
    <glyph glyph-name="uni06AA.init" unicode="&#x6aa;" horiz-adv-x="1445" 
d="M1328 86c-308 -32 -575.5 -53.668 -802.5 -65.001s-412.5 -18.333 -556.5 -21v150c46 -0.666992 152.5 0.666016 319.5 3.99902s337.667 11 512 23s342.833 27.333 505.5 46c3.33301 26 -0.666992 49 -12 69s-26.666 36.833 -45.999 50.5s-41.333 24.167 -66 31.5
s-48.667 11.666 -72 12.999c-22 0 -52.333 -1.33301 -91 -4l-130.5 -9l-155.5 -10.5c-55.333 -3.66699 -110.333 -6.5 -165 -8.5s-107.5 -2.83301 -158.5 -2.5s-96.833 2.83301 -137.5 7.5c-17.333 -0.666992 -34.5 1 -51.5 5s-32.333 10.167 -46 18.5
s-24.834 18.666 -33.501 30.999s-13 26.833 -13 43.5c-4 28 6.16699 57.833 30.5 89.5s57.166 63 98.499 94s88.5 60.833 141.5 89.5s106.5 54.5 160.5 77.5s105.833 42.167 155.5 57.5s91.834 25.333 126.501 30l-38 -141c-44.667 -8 -90.167 -18.167 -136.5 -30.5
s-91.166 -25.833 -134.499 -40.5s-84.166 -30 -122.499 -46s-72 -31.667 -101 -47s-51.833 -29.666 -68.5 -42.999s-25.334 -24.666 -26.001 -33.999c2 -10.667 14.667 -19 38 -25s54.166 -10 92.499 -12s82.333 -2.5 132 -1.5s101.667 2.66699 156 5
s109.333 5.16602 165 8.49902l159.5 9.5c50.667 3 97 5.33301 139 7s76.333 2.16699 103 1.5c46 -3.33301 84 -15.666 114 -36.999s52.333 -47.666 67 -78.999s21.5 -65.666 20.5 -102.999s-9.83301 -73.333 -26.5 -108z" />
    <glyph glyph-name="uni06AA.medi" unicode="&#x6aa;" horiz-adv-x="1620" 
d="M1315 84c-298.667 -30.667 -558.998 -51.668 -780.998 -63.001c-226.667 -11.333 -412 -18.333 -556 -21v150c46 -0.666992 152.5 0.666016 319.5 3.99902s337.667 11 512 23s342.833 27.333 505.5 46c3.33301 26 -0.666992 49 -12 69s-26.666 36.833 -45.999 50.5
s-41.333 24.167 -66 31.5s-48.334 11.666 -71.001 12.999c-22 0 -52.333 -1.33301 -91 -4l-131 -9l-155.5 -10.5c-55 -3.66699 -110 -6.5 -165 -8.5s-108 -2.83301 -159 -2.5s-96.833 2.83301 -137.5 7.5c-15.333 0.666992 -31.333 3 -48 7s-32 10 -46 18s-25.667 18 -35 30
s-14.333 26.333 -15 43c-4 28 6.16699 57.833 30.5 89.5s57.166 63 98.499 94s88.5 60.833 141.5 89.5s106.667 54.5 161 77.5s106.166 42.167 155.499 57.5s91.333 25.333 126 30l-38 -141c-44.667 -8 -90.167 -18.167 -136.5 -30.5s-91.166 -25.833 -134.499 -40.5
s-84.166 -30 -122.499 -46s-72 -31.667 -101 -47s-51.833 -29.666 -68.5 -42.999s-25.334 -24.666 -26.001 -33.999c2 -10.667 14.667 -19 38 -25s54.166 -10 92.499 -12s82.333 -2.5 132 -1.5s101.667 2.66699 156 5s109.5 5.16602 165.5 8.49902l159.5 9.5
c50.333 3 96.5 5.33301 138.5 7s76.333 2.16699 103 1.5c46 -3.33301 84 -15.666 114 -36.999s52.167 -47.666 66.5 -78.999s21 -65.5 20 -102.5s-9.5 -72.833 -25.5 -107.5l-4 -9c5.33301 -10 15.833 -16.167 31.5 -18.5s56.5 -3.5 122.5 -3.5h98
c11.333 -26.667 17 -51.667 17 -75s-5.66699 -48.333 -17 -75h-86c-64 -1.33301 -111.333 0.5 -142 5.5s-53.667 13.833 -69 26.5z" />
    <glyph glyph-name="uni06AA.fina" unicode="&#x6aa;" horiz-adv-x="2184" 
d="M102 272c0 49.333 9.00195 96.9951 27.002 142.995c22.667 56.667 52.667 92.334 90 107.001l8 -8c-8.66699 -13.333 -19.334 -35.666 -32.001 -66.999s-19 -58 -19 -80c0 -86.667 49.667 -145.834 149 -177.501s217.333 -45.167 354 -40.5
c292.667 6.66699 526 15.667 700 27c174.667 12.667 343.334 28.334 506.001 47.001c3.33301 26 -0.666992 49 -12 69s-26.666 36.833 -45.999 50.5s-41.333 24.167 -66 31.5s-48.667 11.666 -72 12.999c-22 0 -52.333 -1.33301 -91 -4l-130.5 -9l-155.5 -10.5
c-55.333 -3.66699 -110.333 -6.5 -165 -8.5s-107.5 -2.83301 -158.5 -2.5s-96.833 2.83301 -137.5 7.5c-15.333 0.666992 -31.333 3 -48 7s-32.167 10 -46.5 18s-26.166 18 -35.499 30s-14 26.333 -14 43c-4 28 6.16699 57.833 30.5 89.5s57.166 63 98.499 94
s88.5 60.833 141.5 89.5s106.667 54.5 161 77.5s106.166 42.167 155.499 57.5s91.333 25.333 126 30l-38 -141c-44.667 -8 -90.167 -18.167 -136.5 -30.5s-91.166 -25.833 -134.499 -40.5s-84.166 -30 -122.499 -46s-72 -31.667 -101 -47s-51.833 -29.666 -68.5 -42.999
s-25.334 -24.666 -26.001 -33.999c2 -10.667 14.667 -19 38 -25s54.166 -10 92.499 -12s82.333 -2.5 132 -1.5s101.667 2.66699 156 5s109.333 5.16602 165 8.49902l159.5 9.5c50.667 3 97 5.33301 139 7s76.333 2.16699 103 1.5c45.333 -3.33301 83 -15.666 113 -36.999
s52.333 -47.666 67 -78.999s21.5 -65.5 20.5 -102.5s-9.5 -72.833 -25.5 -107.5l-4 -9c5.33301 -10 15.666 -16.333 30.999 -19c16 -2 57 -3 123 -3h98c11.333 -26.667 17 -51.667 17 -75s-5.66699 -48.333 -17 -75h-87c-63.333 -1.33301 -110.333 0.333984 -141 5.00098
c-30.667 5.33301 -54 14.333 -70 27l-18 52c-298.667 -30.667 -559 -51.667 -781 -63c-226.667 -11.333 -374.334 -18 -443.001 -20c-372.667 0 -559 90.333 -559 271z" />
    <glyph glyph-name="uni06AB.init" unicode="&#x6ab;" horiz-adv-x="697" 
d="M-24 150c72.667 -0.666992 102.333 -1 89 -1c226.667 0 340 42.333 340 127c0 44.667 -82.333 142.334 -247 293.001l-74 66c-23.333 33.333 -35 76.666 -35 129.999c0 40.667 10 72.667 30 96c51.333 45.333 91.333 78 120 98c250 194 504.667 323.333 764 388l16 4
c-12.667 -98 -25.667 -151.667 -39 -161c-96 -35.333 -180.667 -64.333 -254 -87c-244 -90 -436 -193.333 -576 -310l-8 -14c8.66699 -18 45.667 -54 111 -108c80.667 -66 137 -115.667 169 -149c56.667 -61.333 85 -113 85 -155c0 -244.667 -117.333 -367 -352 -367h-139
v150zM843.999 1027c0 -108.667 -43.667 -163 -131 -163c-76.667 0 -115 40.333 -115 121c0 38 11 83 33 135c24 58 51.333 87 82 87c20 0 37.5 -5.16699 52.5 -15.5s29.5 -23.5 43.5 -39.5c23.333 -43.333 35 -85 35 -125zM799.999 1008c0 22.667 -11 41.5 -33 56.5
s-44 22.5 -66 22.5c-18 0 -32.667 -9 -44 -27s-17 -35.333 -17 -52c0 -32.667 24.333 -49 73 -49h9c52 0 78 16.333 78 49z" />
    <glyph glyph-name="uni06AB.medi" unicode="&#x6ab;" horiz-adv-x="1088" 
d="M-21 150c8 0 28.002 -0.332031 60.002 -0.999023h74c238.667 0 358 54.667 358 164c0 55.333 -35 106 -105 152l-196 119c-70 56 -105 123.667 -105 203c0 81.333 130.333 192.333 391 333c221.333 120 394.666 195.667 519.999 227l11 -16c-8 -86 -19 -133 -33 -141
c-64 -24.667 -115.667 -41.334 -155 -50.001c-111.333 -38.667 -204.666 -75.667 -279.999 -111c-244 -116 -380.667 -201.333 -410 -256l13 -16c205.333 -100 362.333 -195.333 471 -286l272 -227c49.333 -39.333 85.333 -64 108 -74
c29.333 -13.333 72.666 -20 129.999 -20v-150h-89c-43.333 0 -125.333 54.667 -246 164c-140 124 -221.333 192.333 -244 205l-5 -11c4 -20 3.33301 -60 -2 -120c-16.667 -158.667 -135.334 -238 -356.001 -238h-182v150zM833.002 1026c0 -108.667 -43.667 -163 -131 -163
c-76.667 0 -115 40.333 -115 121c0 38 11 83 33 135c24 58 51.333 87 82 87c20 0 37.5 -5.16699 52.5 -15.5s29.5 -23.5 43.5 -39.5c23.333 -43.333 35 -85 35 -125zM789.002 1007c0 22.667 -11 41.5 -33 56.5s-44 22.5 -66 22.5c-18 0 -32.667 -9 -44 -27
s-17 -35.333 -17 -52c0 -32.667 24.333 -49 73 -49h9c52 0 78 16.333 78 49z" />
    <glyph glyph-name="uni06AB.fina" unicode="&#x6ab;" horiz-adv-x="1982" 
d="M104 256c0 49.333 8.33398 96.999 25.001 142.999c22 56.667 52.667 92.334 92 107.001l8 -8c-3.33301 -13.333 -13 -37.333 -29 -72c-16 -28.667 -24 -54 -24 -76c0 -86 72.333 -147.333 217 -184c91.333 -23.333 199 -35 323 -35c407.333 0 611 82.667 611 248
c0 31.333 -33 65.333 -99 102c-100.667 54.667 -162 92 -184 112c-65.333 54.667 -98 119.667 -98 195c0 27.333 4.66699 50 14 68c37.333 67.333 177.333 166.333 420 297c235.333 125.333 397.666 192.333 486.999 201l5 -7c-12 -88.667 -24.667 -137 -38 -145
c-70 -19.333 -140.667 -41.333 -212 -66c-226.667 -92 -396.667 -180.667 -510 -266c-65.333 -48 -103 -81 -113 -99c2.66699 -7.33301 8.33398 -13.666 17.001 -18.999c184.667 -102 289 -160.667 313 -176c105.333 -65.333 249 -176 431 -332
c73.333 -62.667 128.666 -94 165.999 -94h66v-150c-64 0 -107.667 4.16699 -131 12.5s-58.666 33.166 -105.999 74.499l-184 169c-87.333 82 -149 131 -185 147c-7.33301 -16 -13.833 -44.5 -19.5 -85.5s-12.834 -70.167 -21.501 -87.5
c-48 -106 -147.333 -177.667 -298 -215c-90 -20 -218.667 -30 -386 -30c-371.333 0 -557 90.333 -557 271zM1727 1038c0 -108.667 -43.667 -163 -131 -163c-76.667 0 -115 40.333 -115 121c0 38 11 83 33 135c24 58 51.333 87 82 87c20 0 37.5 -5.16699 52.5 -15.5
s29.5 -23.5 43.5 -39.5c23.333 -43.333 35 -85 35 -125zM1683 1019c0 22.667 -11 41.5 -33 56.5s-44 22.5 -66 22.5c-18 0 -32.667 -9 -44 -27s-17 -35.333 -17 -52c0 -32.667 24.333 -49 73 -49h9c52 0 78 16.333 78 49z" />
    <glyph glyph-name="uni06AE.init" unicode="&#x6ae;" horiz-adv-x="697" 
d="M-24 150c72.667 -0.666992 102.333 -1 89 -1c226.667 0 340 42.333 340 127c0 44.667 -82.333 142.334 -247 293.001l-74 66c-23.333 33.333 -35 76.666 -35 129.999c0 40.667 10 72.667 30 96c51.333 45.333 91.333 78 120 98c250 194 504.667 323.333 764 388l16 4
c-12.667 -98 -25.667 -151.667 -39 -161c-96 -35.333 -180.667 -64.333 -254 -87c-244 -90 -436 -193.333 -576 -310l-8 -14c8.66699 -18 45.667 -54 111 -108c80.667 -66 137 -115.667 169 -149c56.667 -61.333 85 -113 85 -155c0 -244.667 -117.333 -367 -352 -367h-139
v150zM390.999 -130l99 -98l-97 -92l-97 96zM299.999 -325l97 -97l-95 -94l-96 95zM194.999 -139l100 -98l-95 -93l-97 97z" />
    <glyph glyph-name="uni06AE.medi" unicode="&#x6ae;" horiz-adv-x="1088" 
d="M-21 150c8 0 28.002 -0.332031 60.002 -0.999023h74c238.667 0 358 54.667 358 164c0 55.333 -35 106 -105 152l-196 119c-70 56 -105 123.667 -105 203c0 81.333 130.333 192.333 391 333c221.333 120 394.666 195.667 519.999 227l11 -16c-8 -86 -19 -133 -33 -141
c-64 -24.667 -115.667 -41.334 -155 -50.001c-111.333 -38.667 -204.666 -75.667 -279.999 -111c-244 -116 -380.667 -201.333 -410 -256l13 -16c205.333 -100 362.333 -195.333 471 -286l272 -227c49.333 -39.333 85.333 -64 108 -74
c29.333 -13.333 72.666 -20 129.999 -20v-150h-89c-43.333 0 -125.333 54.667 -246 164c-140 124 -221.333 192.333 -244 205l-5 -11c4 -20 3.33301 -60 -2 -120c-16.667 -158.667 -135.334 -238 -356.001 -238h-182v150zM604.002 -118.999l99 -98l-97 -92l-97 96z
M513.002 -313.999l97 -97l-95 -94l-96 95zM408.002 -127.999l100 -98l-95 -93l-97 97z" />
    <glyph glyph-name="uni06AE.fina" unicode="&#x6ae;" horiz-adv-x="1525" 
d="M1263 128c-50.667 -52.667 -123.667 -90.334 -219 -113.001c-90 -20 -218.667 -30 -386 -30c-371.333 0 -557 90.333 -557 271c0 49.333 9 97 27 143c20.667 56.667 50.667 92.334 90 107.001l8 -8c-3.33301 -13.333 -13 -37.333 -29 -72c-16 -28.667 -24 -54 -24 -76
c0 -86 72.333 -147.333 217 -184c91.333 -23.333 199 -35 323 -35c253.333 0 428 31.667 524 95c10 22.667 15 49.667 15 81c0 92 -3.5 228.833 -10.5 410.5s-10.5 318.167 -10.5 409.5c0 38 9.66699 57 29 57c40 0 60 -10.333 60 -31v-417
c0 -157.333 4.66699 -270.333 14 -339c23.333 -164.667 73.333 -247 150 -247h49v-150h-55c-52.667 0 -95 20 -127 60c-20 23.333 -40.333 64.333 -61 123zM562 688c38.667 20.667 69.001 35.6689 91.001 45.002c-38.667 41.333 -58 75.333 -58 102
c0 31.333 16.667 67.166 50 107.499s64 60.5 92 60.5c12 0 26.5 -6.33301 43.5 -19s25.5 -24.667 25.5 -36c0 -23.333 -9 -41.333 -27 -54c-26 14.667 -49.667 23.667 -71 27l-31 -15l-12 -31c0 -17.333 13.5 -38.833 40.5 -64.5s50.5 -38.5 70.5 -38.5
c27.333 0 62.666 6.66699 105.999 20l11 -7c0 -40.667 -1.33301 -66.334 -4 -77.001l-322 -60l-6 6l-3 21zM795.001 -146.998l99 -98l-97 -92l-97 96zM704.001 -341.998l97 -97l-95 -94l-96 95zM599.001 -155.998l100 -98l-95 -93l-97 97z" />
    <glyph glyph-name="uni06B0.init" unicode="&#x6b0;" horiz-adv-x="701" 
d="M-15 150c72 -0.666992 101.001 -1 87.001 -1c227.333 0 341 42.333 341 127c0 44.667 -82.333 142.334 -247 293.001l-74 66c-23.333 33.333 -35 76.666 -35 129.999c0 40.667 10 72.667 30 96c49.333 45.333 88.666 78 117.999 98c251.333 194 507 323.333 767 388
l9 -16c-8.66699 -84.667 -19.667 -131.667 -33 -141c-96 -35.333 -180.667 -64.333 -254 -87c-244 -90 -435.667 -193.333 -575 -310l-9 -14c8.66699 -18 45.667 -54 111 -108c80.667 -66 137 -115.667 169 -149c56 -61.333 84 -113 84 -155c0 -244.667 -117 -367 -351 -367
h-138v150zM45.001 1064c132 114 281 219.668 447 317.001c175.333 104.667 340 182 494 232l9 2l6 -8c-5.33301 -41.333 -24 -91.333 -56 -150c-386 -150.667 -686 -308.334 -900 -473.001v80zM830.001 1023c0 -108.667 -43.667 -163 -131 -163
c-76.667 0 -115 40.333 -115 121c0 38 11 83 33 135c24 58 51.333 87 82 87c20 0 37.5 -5.16699 52.5 -15.5s29.5 -23.5 43.5 -39.5c23.333 -43.333 35 -85 35 -125zM786.001 1004c0 22.667 -11 41.5 -33 56.5s-44 22.5 -66 22.5c-18 0 -32.667 -9 -44 -27
s-17 -35.333 -17 -52c0 -32.667 24.333 -49 73 -49h9c52 0 78 16.333 78 49z" />
    <glyph glyph-name="uni06B0.medi" unicode="&#x6b0;" horiz-adv-x="1085" 
d="M-24 150c8 0 28.001 -0.332031 60.001 -0.999023h74c238.667 0 358 54.667 358 164c0 55.333 -35 106 -105 152l-196 119c-70 56 -105 123.667 -105 203c0 81.333 130.333 192.333 391 333c221.333 120 394.666 195.667 519.999 227l11 -16c-8 -86 -19 -133 -33 -141
c-64 -24.667 -115.667 -41.334 -155 -50.001c-111.333 -38.667 -204.666 -75.667 -279.999 -111c-244 -116 -381 -201.333 -411 -256l14 -16c205.333 -100 362.333 -195.333 471 -286l272 -227c48.667 -39.333 84.667 -64 108 -74c29.333 -13.333 72.333 -20 129 -20v-150
h-88c-43.333 0 -125.333 54.667 -246 164c-140 124 -221.333 192.333 -244 205l-5 -11c4 -20 3.33301 -60 -2 -120c-16.667 -158.667 -135.334 -238 -356.001 -238h-182v150zM49.001 1064c131.333 114 279.667 219.668 445 317.001c176 104.667 340.333 182 493 232l11 2
l7 -8c-8 -41.333 -27.667 -91.333 -59 -150c-384.667 -150.667 -683.667 -308.334 -897 -473.001v80zM846.002 1026c0 -108.667 -43.667 -163 -131 -163c-76.667 0 -115 40.333 -115 121c0 38 11 83 33 135c24 58 51.333 87 82 87c20 0 37.5 -5.16699 52.5 -15.5
s29.5 -23.5 43.5 -39.5c23.333 -43.333 35 -85 35 -125zM802.002 1007c0 22.667 -11 41.5 -33 56.5s-44 22.5 -66 22.5c-18 0 -32.667 -9 -44 -27s-17 -35.333 -17 -52c0 -32.667 24.333 -49 73 -49h9c52 0 78 16.333 78 49z" />
    <glyph glyph-name="uni06B0.fina" unicode="&#x6b0;" horiz-adv-x="1971" 
d="M93 256c0 49.333 8.99805 96.999 26.998 142.999c22 56.667 51.667 92.334 89 107.001l9 -8c-2 -13.333 -11.667 -37.333 -29 -72c-14.667 -28.667 -22 -54 -22 -76c0 -86 71.667 -147.333 215 -184c92.667 -23.333 201 -35 325 -35c406.667 0 610 82.667 610 248
c0 31.333 -32.667 65.333 -98 102c-101.333 54.667 -163 92 -185 112c-66 54.667 -99 119.667 -99 195c0 27.333 5.33301 50 16 68c36.667 67.333 176.667 166.333 420 297c234.667 125.333 396.334 192.333 485.001 201l7 -7c-13.333 -88.667 -26.666 -137 -39.999 -145
c-66.667 -22 -137 -44 -211 -66c-226 -92 -395.667 -180.667 -509 -266c-66.667 -48 -104.667 -81 -114 -99c2.66699 -7.33301 8.33398 -13.666 17.001 -18.999c184 -102 288.667 -160.667 314 -176c105.333 -65.333 248.666 -176 429.999 -332
c74 -62.667 129.333 -94 166 -94h64v-150c-64 0 -107.5 4.16699 -130.5 12.5s-57.5 33.166 -103.5 74.499l-184 169c-87.333 82 -149 131 -185 147c-8.66699 -16 -15.667 -44.5 -21 -85.5s-12 -70.167 -20 -87.5c-50 -106 -150 -177.667 -300 -215
c-90.667 -20 -219 -30 -385 -30c-372 0 -558 90.333 -558 271zM925.998 1074c228 191.333 507.665 357 838.998 497c58.667 24 97.334 38.667 116.001 44l9 -8c-13.333 -49.333 -35.666 -99.333 -66.999 -150c-341.333 -124 -640.333 -278.667 -897 -464v81zM1710 1033
c0 -108.667 -43.667 -163 -131 -163c-76.667 0 -115 40.333 -115 121c0 38 11 83 33 135c24 58 51.333 87 82 87c20 0 37.5 -5.16699 52.5 -15.5s29.5 -23.5 43.5 -39.5c23.333 -43.333 35 -85 35 -125zM1666 1014c0 22.667 -11 41.5 -33 56.5s-44 22.5 -66 22.5
c-18 0 -32.667 -9 -44 -27s-17 -35.333 -17 -52c0 -32.667 24.333 -49 73 -49h9c52 0 78 16.333 78 49z" />
    <glyph glyph-name="uni06B2.init" unicode="&#x6b2;" horiz-adv-x="701" 
d="M-15 150c72 -0.666992 101.001 -1 87.001 -1c227.333 0 341 42.333 341 127c0 44.667 -82.333 142.334 -247 293.001l-74 66c-23.333 33.333 -35 76.666 -35 129.999c0 40.667 10 72.667 30 96c49.333 45.333 88.666 78 117.999 98c251.333 194 507 323.333 767 388
l9 -16c-8.66699 -84.667 -19.667 -131.667 -33 -141c-96 -35.333 -180.667 -64.333 -254 -87c-244 -90 -435.667 -193.333 -575 -310l-9 -14c8.66699 -18 45.667 -54 111 -108c80.667 -66 137 -115.667 169 -149c56 -61.333 84 -113 84 -155c0 -244.667 -117 -367 -351 -367
h-138v150zM45.001 1064c132 114 281 219.668 447 317.001c175.333 104.667 340 182 494 232l9 2l6 -8c-5.33301 -41.333 -24 -91.333 -56 -150c-386 -150.667 -686 -308.334 -900 -473.001v80zM198.001 -154.999l113 -113l-109 -111l-115 114zM415.001 -145.999l111 -110
l-107 -112l-114 114z" />
    <glyph glyph-name="uni06B2.medi" unicode="&#x6b2;" horiz-adv-x="1085" 
d="M-24 150c8 0 28.001 -0.332031 60.001 -0.999023h74c238.667 0 358 54.667 358 164c0 55.333 -35 106 -105 152l-196 119c-70 56 -105 123.667 -105 203c0 81.333 130.333 192.333 391 333c221.333 120 394.666 195.667 519.999 227l11 -16c-8 -86 -19 -133 -33 -141
c-64 -24.667 -115.667 -41.334 -155 -50.001c-111.333 -38.667 -204.666 -75.667 -279.999 -111c-244 -116 -381 -201.333 -411 -256l14 -16c205.333 -100 362.333 -195.333 471 -286l272 -227c48.667 -39.333 84.667 -64 108 -74c29.333 -13.333 72.333 -20 129 -20v-150
h-88c-43.333 0 -125.333 54.667 -246 164c-140 124 -221.333 192.333 -244 205l-5 -11c4 -20 3.33301 -60 -2 -120c-16.667 -158.667 -135.334 -238 -356.001 -238h-182v150zM49.001 1064c131.333 114 279.667 219.668 445 317.001c176 104.667 340.333 182 493 232l11 2
l7 -8c-8 -41.333 -27.667 -91.333 -59 -150c-384.667 -150.667 -683.667 -308.334 -897 -473.001v80zM419.002 -140.998l113 -113l-109 -111l-115 114zM636.002 -131.998l111 -110l-107 -112l-114 114z" />
    <glyph glyph-name="uni06B2.fina" unicode="&#x6b2;" horiz-adv-x="1971" 
d="M93 256c0 49.333 8.99805 96.999 26.998 142.999c22 56.667 51.667 92.334 89 107.001l9 -8c-2 -13.333 -11.667 -37.333 -29 -72c-14.667 -28.667 -22 -54 -22 -76c0 -86 71.667 -147.333 215 -184c92.667 -23.333 201 -35 325 -35c406.667 0 610 82.667 610 248
c0 31.333 -32.667 65.333 -98 102c-101.333 54.667 -163 92 -185 112c-66 54.667 -99 119.667 -99 195c0 27.333 5.33301 50 16 68c36.667 67.333 176.667 166.333 420 297c234.667 125.333 396.334 192.333 485.001 201l7 -7c-13.333 -88.667 -26.666 -137 -39.999 -145
c-66.667 -22 -137 -44 -211 -66c-226 -92 -395.667 -180.667 -509 -266c-66.667 -48 -104.667 -81 -114 -99c2.66699 -7.33301 8.33398 -13.666 17.001 -18.999c184 -102 288.667 -160.667 314 -176c105.333 -65.333 248.666 -176 429.999 -332
c74 -62.667 129.333 -94 166 -94h64v-150c-64 0 -107.5 4.16699 -130.5 12.5s-57.5 33.166 -103.5 74.499l-184 169c-87.333 82 -149 131 -185 147c-8.66699 -16 -15.667 -44.5 -21 -85.5s-12 -70.167 -20 -87.5c-50 -106 -150 -177.667 -300 -215
c-90.667 -20 -219 -30 -385 -30c-372 0 -558 90.333 -558 271zM925.998 1074c228 191.333 507.665 357 838.998 497c58.667 24 97.334 38.667 116.001 44l9 -8c-13.333 -49.333 -35.666 -99.333 -66.999 -150c-341.333 -124 -640.333 -278.667 -897 -464v81z
M533.996 -177.001l113 -113l-109 -111l-115 114zM750.996 -168.001l111 -110l-107 -112l-114 114z" />
    <glyph glyph-name="uni06B4.init" unicode="&#x6b4;" horiz-adv-x="701" 
d="M-15 150c72 -0.666992 101.001 -1 87.001 -1c227.333 0 341 42.333 341 127c0 44.667 -82.333 142.334 -247 293.001l-74 66c-23.333 33.333 -35 76.666 -35 129.999c0 40.667 10 72.667 30 96c49.333 45.333 88.666 78 117.999 98c251.333 194 507 323.333 767 388
l9 -16c-8.66699 -84.667 -19.667 -131.667 -33 -141c-96 -35.333 -180.667 -64.333 -254 -87c-244 -90 -435.667 -193.333 -575 -310l-9 -14c8.66699 -18 45.667 -54 111 -108c80.667 -66 137 -115.667 169 -149c56 -61.333 84 -113 84 -155c0 -244.667 -117 -367 -351 -367
h-138v150zM45.001 1064c132 114 281 219.668 447 317.001c175.333 104.667 340 182 494 232l9 2l6 -8c-5.33301 -41.333 -24 -91.333 -56 -150c-386 -150.667 -686 -308.334 -900 -473.001v80zM255.001 1447l-108 108l107 103l107 -107zM356.001 1664l-107 107l106 104
l105 -106zM472.001 1457l-110 109l105 102l107 -107z" />
    <glyph glyph-name="uni06B4.medi" unicode="&#x6b4;" horiz-adv-x="1085" 
d="M-24 150c8 0 28.001 -0.332031 60.001 -0.999023h74c238.667 0 358 54.667 358 164c0 55.333 -35 106 -105 152l-196 119c-70 56 -105 123.667 -105 203c0 81.333 130.333 192.333 391 333c221.333 120 394.666 195.667 519.999 227l11 -16c-8 -86 -19 -133 -33 -141
c-64 -24.667 -115.667 -41.334 -155 -50.001c-111.333 -38.667 -204.666 -75.667 -279.999 -111c-244 -116 -381 -201.333 -411 -256l14 -16c205.333 -100 362.333 -195.333 471 -286l272 -227c48.667 -39.333 84.667 -64 108 -74c29.333 -13.333 72.333 -20 129 -20v-150
h-88c-43.333 0 -125.333 54.667 -246 164c-140 124 -221.333 192.333 -244 205l-5 -11c4 -20 3.33301 -60 -2 -120c-16.667 -158.667 -135.334 -238 -356.001 -238h-182v150zM49.001 1064c131.333 114 279.667 219.668 445 317.001c176 104.667 340.333 182 493 232l11 2
l7 -8c-8 -41.333 -27.667 -91.333 -59 -150c-384.667 -150.667 -683.667 -308.334 -897 -473.001v80zM332.002 1491l-108 108l107 103l107 -107zM433.002 1708l-107 107l106 104l105 -106zM549.002 1501l-110 109l105 102l107 -107z" />
    <glyph glyph-name="uni06B4.fina" unicode="&#x6b4;" horiz-adv-x="1971" 
d="M93 256c0 49.333 8.99805 96.999 26.998 142.999c22 56.667 51.667 92.334 89 107.001l9 -8c-2 -13.333 -11.667 -37.333 -29 -72c-14.667 -28.667 -22 -54 -22 -76c0 -86 71.667 -147.333 215 -184c92.667 -23.333 201 -35 325 -35c406.667 0 610 82.667 610 248
c0 31.333 -32.667 65.333 -98 102c-101.333 54.667 -163 92 -185 112c-66 54.667 -99 119.667 -99 195c0 27.333 5.33301 50 16 68c36.667 67.333 176.667 166.333 420 297c234.667 125.333 396.334 192.333 485.001 201l7 -7c-13.333 -88.667 -26.666 -137 -39.999 -145
c-66.667 -22 -137 -44 -211 -66c-226 -92 -395.667 -180.667 -509 -266c-66.667 -48 -104.667 -81 -114 -99c2.66699 -7.33301 8.33398 -13.666 17.001 -18.999c184 -102 288.667 -160.667 314 -176c105.333 -65.333 248.666 -176 429.999 -332
c74 -62.667 129.333 -94 166 -94h64v-150c-64 0 -107.5 4.16699 -130.5 12.5s-57.5 33.166 -103.5 74.499l-184 169c-87.333 82 -149 131 -185 147c-8.66699 -16 -15.667 -44.5 -21 -85.5s-12 -70.167 -20 -87.5c-50 -106 -150 -177.667 -300 -215
c-90.667 -20 -219 -30 -385 -30c-372 0 -558 90.333 -558 271zM925.998 1074c228 191.333 507.665 357 838.998 497c58.667 24 97.334 38.667 116.001 44l9 -8c-13.333 -49.333 -35.666 -99.333 -66.999 -150c-341.333 -124 -640.333 -278.667 -897 -464v81zM1095 1403
l-108 108l107 103l107 -107zM1196 1620l-107 107l106 104l105 -106zM1312 1413l-110 109l105 102l107 -107z" />
    <glyph glyph-name="uni06B5.init" unicode="&#x6b5;" horiz-adv-x="363" 
d="M-18 150c134 -0.666992 201 31.998 201 97.998c0 77.333 -8.5 194.333 -25.5 351s-25.5 274 -25.5 352c0 136.667 26.333 221.334 79 254.001c12 -8 30 -28.667 54 -62c20 -28 33.667 -51 41 -69c-18 -23.333 -37 -46.333 -57 -69c-16.667 -26.667 -25 -54.667 -25 -84
c0 -70.667 4.16699 -175.667 12.5 -315s12.5 -243.666 12.5 -312.999c0 -66 -17.333 -129 -52 -189c-43.333 -69.333 -95.333 -104 -156 -104h-59v150zM323 1530l-23.5029 -24.5c-9 -9.66699 -18.833 -23.667 -29.5 -42s-22 -42 -34 -71s-24.333 -65.833 -37 -110.5l-37 -1
c-5.33301 24 -12.5 48 -21.5 72s-19.5 46.667 -31.5 68s-25 40.833 -39 58.5s-28.333 32.5 -43 44.5l87 -6c4.66699 -6 9.83398 -13 15.501 -21s11.334 -18 17.001 -30s11.334 -27 17.001 -45s11.5 -40 17.5 -66l7.5 36c3 14 6.83301 28.667 11.5 44s10.167 30.5 16.5 45.5
s13.5 28.833 21.5 41.5z" />
    <glyph glyph-name="uni06B5.medi" unicode="&#x6b5;" horiz-adv-x="430" 
d="M-18 150c117.333 0 176.001 52.333 176.001 157c0 92 -3.5 228.833 -10.5 410.5s-10.5 318.167 -10.5 409.5c0 38 9.66699 57 29 57c40 0 60 -10.333 60 -31v-417c0 -157.333 4.33301 -270.333 13 -339c23.333 -164.667 73.666 -247 150.999 -247h48v-150h-55
c-53.333 0 -95.666 20 -126.999 60c-19.333 23.333 -40 67 -62 131c-10.667 -42 -28 -82 -52 -120c-30.667 -47.333 -63.334 -71 -98.001 -71h-62v150zM317.001 1524l-23.5029 -24.5c-9 -9.66699 -18.833 -23.667 -29.5 -42s-22 -42 -34 -71s-24.333 -65.833 -37 -110.5
l-37 -1c-5.33301 24 -12.5 48 -21.5 72s-19.5 46.667 -31.5 68s-25 40.833 -39 58.5s-28.333 32.5 -43 44.5l87 -6c4.66699 -6 9.83398 -13 15.501 -21s11.334 -18 17.001 -30s11.334 -27 17.001 -45s11.5 -40 17.5 -66l7.5 36c3 14 6.83301 28.667 11.5 44
s10.167 30.5 16.5 45.5s13.5 28.833 21.5 41.5z" />
    <glyph glyph-name="uni06B5.fina" unicode="&#x6b5;" horiz-adv-x="1085" 
d="M946 1522l-23.5029 -24.5c-9 -9.66699 -18.833 -23.667 -29.5 -42s-22 -42 -34 -71s-24.333 -65.833 -37 -110.5l-37 -1c-5.33301 24 -12.5 48 -21.5 72s-19.5 46.667 -31.5 68s-25 40.833 -39 58.5s-28.333 32.5 -43 44.5l87 -6c4.66699 -6 9.83398 -13 15.501 -21
s11.334 -18 17.001 -30s11.334 -27 17.001 -45s11.5 -40 17.5 -66l7.5 36c3 14 6.83301 28.667 11.5 44s10.167 30.5 16.5 45.5s13.5 28.833 21.5 41.5zM91.9971 -309c0 111.333 42.002 229.33 126.002 353.997l20 15l6 -11c-2 -14 -18 -60.333 -48 -139
c-22.667 -56.667 -34 -106 -34 -148c0 -74.667 30.667 -132 92 -172c51.333 -32.667 116.666 -49 195.999 -49c95.333 0 181.333 21.667 258 65c89.333 52 134 122.333 134 211c0 27.333 -4.33301 139.333 -13 336c-24.667 540 -37 862.333 -37 967
c0 18.667 7.83301 36.334 23.5 53.001s32.167 27.334 49.5 32.001c8 -6.66699 12 -12.667 12 -18l6 -469c1.33301 -154 8.33301 -265 21 -333c27.333 -156.667 80.666 -235 159.999 -235h35v-150c-66.667 0 -113 15.667 -139 47c-10 10.667 -31 57 -63 139v-345
c0 -147.333 -48.667 -262 -146 -344c-91.333 -74.667 -211.333 -112 -360 -112c-90 0 -162.333 28.333 -217 85s-82 130.334 -82 221.001z" />
    <glyph glyph-name="uni06B6.init" unicode="&#x6b6;" horiz-adv-x="363" 
d="M-18 150c134 -0.666992 201 31.998 201 97.998c0 77.333 -8.5 194.333 -25.5 351s-25.5 274 -25.5 352c0 136.667 26.333 221.334 79 254.001c12 -8 30 -28.667 54 -62c20 -28 33.667 -51 41 -69c-18 -23.333 -37 -46.333 -57 -69c-16.667 -26.667 -25 -54.667 -25 -84
c0 -70.667 4.16699 -175.667 12.5 -315s12.5 -243.666 12.5 -312.999c0 -66 -17.333 -129 -52 -189c-43.333 -69.333 -95.333 -104 -156 -104h-59v150zM189 1508l109 -107l-105 -106l-109 107z" />
    <glyph glyph-name="uni06B6.medi" unicode="&#x6b6;" horiz-adv-x="430" 
d="M-18 150c117.333 0 176.001 52.333 176.001 157c0 92 -3.5 228.833 -10.5 410.5s-10.5 318.167 -10.5 409.5c0 38 9.66699 57 29 57c40 0 60 -10.333 60 -31v-417c0 -157.333 4.33301 -270.333 13 -339c23.333 -164.667 73.666 -247 150.999 -247h48v-150h-55
c-53.333 0 -95.666 20 -126.999 60c-19.333 23.333 -40 67 -62 131c-10.667 -42 -28 -82 -52 -120c-30.667 -47.333 -63.334 -71 -98.001 -71h-62v150zM176.001 1483l109 -107l-105 -106l-109 107z" />
    <glyph glyph-name="uni06B6.fina" unicode="&#x6b6;" horiz-adv-x="1085" 
d="M813 1492l109 -107l-105 -106l-109 107zM92 -309c0 111.333 42.002 229.33 126.002 353.997l20 15l6 -11c-2 -14 -18 -60.333 -48 -139c-22.667 -56.667 -34 -106 -34 -148c0 -74.667 30.667 -132 92 -172c51.333 -32.667 116.666 -49 195.999 -49
c95.333 0 181.333 21.667 258 65c89.333 52 134 122.333 134 211c0 27.333 -4.33301 139.333 -13 336c-24.667 540 -37 862.333 -37 967c0 18.667 7.83301 36.334 23.5 53.001s32.167 27.334 49.5 32.001c8 -6.66699 12 -12.667 12 -18l6 -469
c1.33301 -154 8.33301 -265 21 -333c27.333 -156.667 80.666 -235 159.999 -235h35v-150c-66.667 0 -113 15.667 -139 47c-10 10.667 -31 57 -63 139v-345c0 -147.333 -48.667 -262 -146 -344c-91.333 -74.667 -211.333 -112 -360 -112c-90 0 -162.333 28.333 -217 85
s-82 130.334 -82 221.001z" />
    <glyph glyph-name="uni06B7.init" unicode="&#x6b7;" horiz-adv-x="363" 
d="M-18 150c134 -0.666992 201 31.998 201 97.998c0 77.333 -8.5 194.333 -25.5 351s-25.5 274 -25.5 352c0 136.667 26.333 221.334 79 254.001c12 -8 30 -28.667 54 -62c20 -28 33.667 -51 41 -69c-18 -23.333 -37 -46.333 -57 -69c-16.667 -26.667 -25 -54.667 -25 -84
c0 -70.667 4.16699 -175.667 12.5 -315s12.5 -243.666 12.5 -312.999c0 -66 -17.333 -129 -52 -189c-43.333 -69.333 -95.333 -104 -156 -104h-59v150zM74 1268l-108 108l107 103l107 -107zM175 1485l-107 107l106 104l105 -106zM291 1278l-110 109l105 102l107 -107z" />
    <glyph glyph-name="uni06B7.medi" unicode="&#x6b7;" horiz-adv-x="430" 
d="M-18 150c117.333 0 176.001 52.333 176.001 157c0 92 -3.5 228.833 -10.5 410.5s-10.5 318.167 -10.5 409.5c0 38 9.66699 57 29 57c40 0 60 -10.333 60 -31v-417c0 -157.333 4.33301 -270.333 13 -339c23.333 -164.667 73.666 -247 150.999 -247h48v-150h-55
c-53.333 0 -95.666 20 -126.999 60c-19.333 23.333 -40 67 -62 131c-10.667 -42 -28 -82 -52 -120c-30.667 -47.333 -63.334 -71 -98.001 -71h-62v150zM72.001 1280l-108 108l107 103l107 -107zM173.001 1497l-107 107l106 104l105 -106zM289.001 1290l-110 109l105 102
l107 -107z" />
    <glyph glyph-name="uni06B7.fina" unicode="&#x6b7;" horiz-adv-x="1085" 
d="M707 1305l-108 108l107 103l107 -107zM808 1522l-107 107l106 104l105 -106zM924 1315l-110 109l105 102l107 -107zM92 -309c0 111.333 42.002 229.33 126.002 353.997l20 15l6 -11c-2 -14 -18 -60.333 -48 -139c-22.667 -56.667 -34 -106 -34 -148
c0 -74.667 30.667 -132 92 -172c51.333 -32.667 116.666 -49 195.999 -49c95.333 0 181.333 21.667 258 65c89.333 52 134 122.333 134 211c0 27.333 -4.33301 139.333 -13 336c-24.667 540 -37 862.333 -37 967c0 18.667 7.83301 36.334 23.5 53.001
s32.167 27.334 49.5 32.001c8 -6.66699 12 -12.667 12 -18l6 -469c1.33301 -154 8.33301 -265 21 -333c27.333 -156.667 80.666 -235 159.999 -235h35v-150c-66.667 0 -113 15.667 -139 47c-10 10.667 -31 57 -63 139v-345c0 -147.333 -48.667 -262 -146 -344
c-91.333 -74.667 -211.333 -112 -360 -112c-90 0 -162.333 28.333 -217 85s-82 130.334 -82 221.001z" />
    <glyph glyph-name="uni06B8.init" unicode="&#x6b8;" horiz-adv-x="363" 
d="M-18 150c134 -0.666992 201 31.998 201 97.998c0 77.333 -8.5 194.333 -25.5 351s-25.5 274 -25.5 352c0 136.667 26.333 221.334 79 254.001c12 -8 30 -28.667 54 -62c20 -28 33.667 -51 41 -69c-18 -23.333 -37 -46.333 -57 -69c-16.667 -26.667 -25 -54.667 -25 -84
c0 -70.667 4.16699 -175.667 12.5 -315s12.5 -243.666 12.5 -312.999c0 -66 -17.333 -129 -52 -189c-43.333 -69.333 -95.333 -104 -156 -104h-59v150zM259 -118.002l99 -98l-97 -92l-97 96zM168 -313.002l97 -97l-95 -94l-96 95zM63 -127.002l100 -98l-95 -93l-97 97z" />
    <glyph glyph-name="uni06B8.medi" unicode="&#x6b8;" horiz-adv-x="430" 
d="M-18 150c117.333 0 176.001 52.333 176.001 157c0 92 -3.5 228.833 -10.5 410.5s-10.5 318.167 -10.5 409.5c0 38 9.66699 57 29 57c40 0 60 -10.333 60 -31v-417c0 -157.333 4.33301 -270.333 13 -339c23.333 -164.667 73.666 -247 150.999 -247h48v-150h-55
c-53.333 0 -95.666 20 -126.999 60c-19.333 23.333 -40 67 -62 131c-10.667 -42 -28 -82 -52 -120c-30.667 -47.333 -63.334 -71 -98.001 -71h-62v150zM286.001 -135l99 -98l-97 -92l-97 96zM195.001 -330l97 -97l-95 -94l-96 95zM90.001 -144l100 -98l-95 -93l-97 97z" />
    <glyph glyph-name="uni06B8.fina" unicode="&#x6b8;" horiz-adv-x="1085" 
d="M561 -716l99 -98l-97 -92l-97 96zM470 -911l97 -97l-95 -94l-96 95zM365 -725l100 -98l-95 -93l-97 97zM92 -309c0 111.333 42.002 229.33 126.002 353.997l20 15l6 -11c-2 -14 -18 -60.333 -48 -139c-22.667 -56.667 -34 -106 -34 -148c0 -74.667 30.667 -132 92 -172
c51.333 -32.667 116.666 -49 195.999 -49c95.333 0 181.333 21.667 258 65c89.333 52 134 122.333 134 211c0 27.333 -4.33301 139.333 -13 336c-24.667 540 -37 862.333 -37 967c0 18.667 7.83301 36.334 23.5 53.001s32.167 27.334 49.5 32.001
c8 -6.66699 12 -12.667 12 -18l6 -469c1.33301 -154 8.33301 -265 21 -333c27.333 -156.667 80.666 -235 159.999 -235h35v-150c-66.667 0 -113 15.667 -139 47c-10 10.667 -31 57 -63 139v-345c0 -147.333 -48.667 -262 -146 -344c-91.333 -74.667 -211.333 -112 -360 -112
c-90 0 -162.333 28.333 -217 85s-82 130.334 -82 221.001z" />
    <glyph glyph-name="uni06B9.init" unicode="&#x6b9;" horiz-adv-x="334" 
d="M-6 150c177.333 -0.666992 266 26 266 80c0 29.333 -31 83 -93 161l65 120c6 12.667 13 13.334 21 2.00098c50 -82 75 -155.333 75 -220c0 -76.667 -24 -144.334 -72 -203.001c-53.333 -60 -117 -90 -191 -90h-71v150zM153 840l109 -107l-105 -106l-109 107zM157 -146
l109 -107l-105 -106l-109 107z" />
    <glyph glyph-name="uni06B9.medi" unicode="&#x6b9;" horiz-adv-x="521" 
d="M-18 150c94 0 151.669 4 173.002 12c47.333 18.667 91.333 56 132 112c41.333 -84 112.666 -125.333 213.999 -124h30v-150h-63c-40 0 -78.333 12.5 -115 37.5s-64 56.167 -82 93.5c-20 -37.333 -51.333 -68.5 -94 -93.5s-84.334 -37.5 -125.001 -37.5h-70v150z
M264.002 662l109 -107l-105 -106l-109 107zM246.002 -148l109 -107l-105 -106l-109 107z" />
    <glyph glyph-name="uni06B9.fina" unicode="&#x6b9;" horiz-adv-x="1126" 
d="M551 496l109 -107l-105 -106l-109 107zM467 -676l109 -107l-105 -106l-109 107zM98 -259c0 48.667 11.8359 105.83 35.5029 171.497s58.834 124.834 105.501 177.501l14 -13c-53.333 -88 -82.333 -172.333 -87 -253c0 -82.667 40.333 -144 121 -184
c61.333 -28.667 137.666 -43 228.999 -43c254 0 381 97.667 381 293c0 63.333 -2 104 -6 122c-6 32 -24 69.667 -54 113c30 80.667 49 125.334 57 134.001l5 -3c27.333 -27.333 55.666 -54 84.999 -80c24 -17.333 63 -26 117 -26h42v-150h-30
c-74.667 -1.33301 -124 7.66699 -148 27c0 -189.333 -36.667 -330.666 -110 -423.999c-82.667 -105.333 -215.334 -158 -398.001 -158c-102.667 0 -186.334 23 -251.001 69c-72 54 -108 129.667 -108 227z" />
    <glyph glyph-name="uni06BC.init" unicode="&#x6bc;" horiz-adv-x="334" 
d="M-6 150c177.333 -0.666992 266 26 266 80c0 29.333 -31 83 -93 161l65 120c6 12.667 13 13.334 21 2.00098c50 -82 75 -155.333 75 -220c0 -76.667 -24 -144.334 -72 -203.001c-53.333 -60 -117 -90 -191 -90h-71v150zM158 891l109 -107l-105 -106l-109 107zM298 -63
c0 -108.667 -43.667 -163 -131 -163c-76.667 0 -115 40.333 -115 121c0 38 11 83 33 135c24 58 51.333 87 82 87c20 0 37.5 -5.16699 52.5 -15.5s29.5 -23.5 43.5 -39.5c23.333 -43.333 35 -85 35 -125zM254 -82c0 22.667 -11 41.5 -33 56.5s-44 22.5 -66 22.5
c-18 0 -32.667 -9 -44 -27s-17 -35.333 -17 -52c0 -32.667 24.333 -49 73 -49h9c52 0 78 16.333 78 49z" />
    <glyph glyph-name="uni06BC.medi" unicode="&#x6bc;" horiz-adv-x="521" 
d="M-18 150c94 0 151.669 4 173.002 12c47.333 18.667 91.333 56 132 112c41.333 -84 112.666 -125.333 213.999 -124h30v-150h-63c-40 0 -78.333 12.5 -115 37.5s-64 56.167 -82 93.5c-20 -37.333 -51.333 -68.5 -94 -93.5s-84.334 -37.5 -125.001 -37.5h-70v150z
M277.002 702l109 -107l-105 -106l-109 107zM270.002 -83c0 -108.667 -43.667 -163 -131 -163c-76.667 0 -115 40.333 -115 121c0 38 11 83 33 135c24 58 51.333 87 82 87c20 0 37.5 -5.16699 52.5 -15.5s29.5 -23.5 43.5 -39.5c23.333 -43.333 35 -85 35 -125zM226.002 -102
c0 22.667 -11 41.5 -33 56.5s-44 22.5 -66 22.5c-18 0 -32.667 -9 -44 -27s-17 -35.333 -17 -52c0 -32.667 24.333 -49 73 -49h9c52 0 78 16.333 78 49z" />
    <glyph glyph-name="uni06BC.fina" unicode="&#x6bc;" horiz-adv-x="1126" 
d="M540 502l109 -107l-105 -106l-109 107zM98 -259c0 48.667 11.8359 105.83 35.5029 171.497s58.834 124.834 105.501 177.501l14 -13c-53.333 -88 -82.333 -172.333 -87 -253c0 -82.667 40.333 -144 121 -184c61.333 -28.667 137.666 -43 228.999 -43
c254 0 381 97.667 381 293c0 63.333 -2 104 -6 122c-6 32 -24 69.667 -54 113c30 80.667 49 125.334 57 134.001l5 -3c27.333 -27.333 55.666 -54 84.999 -80c24 -17.333 63 -26 117 -26h42v-150h-30c-74.667 -1.33301 -124 7.66699 -148 27
c0 -189.333 -36.667 -330.666 -110 -423.999c-82.667 -105.333 -215.334 -158 -398.001 -158c-102.667 0 -186.334 23 -251.001 69c-72 54 -108 129.667 -108 227zM619.003 -646.004c0 -108.667 -43.667 -163 -131 -163c-76.667 0 -115 40.333 -115 121c0 38 11 83 33 135
c24 58 51.333 87 82 87c20 0 37.5 -5.16699 52.5 -15.5s29.5 -23.5 43.5 -39.5c23.333 -43.333 35 -85 35 -125zM575.003 -665.004c0 22.667 -11 41.5 -33 56.5s-44 22.5 -66 22.5c-18 0 -32.667 -9 -44 -27s-17 -35.333 -17 -52c0 -32.667 24.333 -49 73 -49h9
c52 0 78 16.333 78 49z" />
    <glyph glyph-name="uni06BD.fina" unicode="&#x6bd;" horiz-adv-x="1126" 
d="M98 -259c0 48.667 11.8359 105.83 35.5029 171.497s58.834 124.834 105.501 177.501l14 -13c-53.333 -88 -82.333 -172.333 -87 -253c0 -82.667 40.333 -144 121 -184c61.333 -28.667 137.666 -43 228.999 -43c254 0 381 97.667 381 293c0 63.333 -2 104 -6 122
c-6 32 -24 69.667 -54 113c30 80.667 49 125.334 57 134.001l5 -3c27.333 -27.333 55.666 -54 84.999 -80c24 -17.333 63 -26 117 -26h42v-150h-30c-74.667 -1.33301 -124 7.66699 -148 27c0 -189.333 -36.667 -330.666 -110 -423.999
c-82.667 -105.333 -215.334 -158 -398.001 -158c-102.667 0 -186.334 23 -251.001 69c-72 54 -108 129.667 -108 227zM446.003 419.996l-108 108l107 103l107 -107zM547.003 636.996l-107 107l106 104l105 -106zM663.003 429.996l-110 109l105 102l107 -107z" />
    <glyph glyph-name="uni06BF.init" unicode="&#x6bf;" horiz-adv-x="979" 
d="M-18 150c90 0 183.332 13.667 279.999 41c44 12 132.667 42.667 266 92c-54 20 -108.667 39 -164 57c-64 19.333 -121.333 29 -172 29c-26 0 -63.667 -6.33301 -113 -19c-8.66699 3.33301 -13 9 -13 17c0 38 21.667 74.333 65 109c38.667 34 77.667 51 117 51
c31.333 0 76.333 -11.667 135 -35l133 -57c123.333 -48 271.333 -73.667 444 -77l18 -9c-4 -41.333 -17 -81 -39 -119c-11.333 -2 -19 -3 -23 -3c-20 0 -48.833 1.83301 -86.5 5.5s-66.5 5.5 -86.5 5.5c-92.667 0 -222.167 -39.667 -388.5 -119s-268.166 -119 -305.499 -119
h-67v150zM614.999 -48l99 -98l-97 -92l-97 96zM523.999 -243l97 -97l-95 -94l-96 95zM418.999 -57l100 -98l-95 -93l-97 97zM547.999 857l109 -107l-105 -106l-109 107z" />
    <glyph glyph-name="uni06BF.medi" unicode="&#x6bf;" horiz-adv-x="1034" 
d="M-9 150c81.333 0 173.001 17.667 275.001 53l262 100c-53.333 20 -106 38.333 -158 55c-62 20 -116 30 -162 30c-52.667 0 -95.667 -6 -129 -18l-11 18c0 38 20 74.333 60 109s80 52 120 52c35.333 0 95 -16.333 179 -49c61.333 -26.667 122.666 -52 183.999 -76
c81.333 -28 193 -42 335 -42l33 4c-8.66699 -60.667 -22 -105.667 -40 -135l-23 -3c-40 0 -104 2 -192 6c-3.33301 -14.667 -5 -24.667 -5 -30c0 -54 63.333 -78.667 190 -74h146v-150h-68c-110 0 -187.667 13 -233 39c-59.333 35.333 -89 104.333 -89 207
c-68 -5.33301 -179.667 -48.333 -335 -129c-150 -78 -245.333 -117 -286 -117h-53v150zM560.001 -116l99 -98l-97 -92l-97 96zM469.001 -311l97 -97l-95 -94l-96 95zM364.001 -125l100 -98l-95 -93l-97 97zM545.001 877l109 -107l-105 -106l-109 107z" />
    <glyph glyph-name="uni06BF.fina" unicode="&#x6bf;" horiz-adv-x="1046" 
d="M95 -340c0 268.667 148.665 479.334 445.998 632.001c-36 7.33301 -85 11 -147 11c-107.333 0 -185.666 -10.667 -234.999 -32l-14 21c0 47.333 24.667 87.333 74 120c42.667 27.333 90 41 142 41c51.333 0 130.166 -5.5 236.499 -16.5s185.5 -15.5 237.5 -13.5h138
l6 -11c-2 -36 -17.667 -79.667 -47 -131c-91.333 -8.66699 -151.666 -15.667 -180.999 -21c-2 -76.667 60.667 -113.334 188 -110.001h119v-150h-44c-114.667 0 -193 12 -235 36c-62 35.333 -92 106 -90 212c-145.333 -36 -267.666 -100.667 -366.999 -194
c-114.667 -107.333 -172 -230 -172 -368s72.333 -245 217 -321c116 -60 250.667 -90 404 -90c50.667 0 127 4 229 12s178.667 12 230 12c18 0 25.333 -7.66699 22 -23c-233.333 -98.667 -415 -148 -545 -148c-181.333 0 -326 42.333 -434 127
c-118.667 93.333 -178 228.333 -178 405zM667.998 -159l99 -98l-97 -92l-97 96zM576.998 -354l97 -97l-95 -94l-96 95zM471.998 -168l100 -98l-95 -93l-97 97zM613.998 839l109 -107l-105 -106l-109 107z" />
    <glyph glyph-name="uni06C4.fina" unicode="&#x6c4;" horiz-adv-x="826" 
d="M52 -330c1.33301 14 34 22.667 98 26c39.333 0.666992 79.666 1.66699 120.999 3c74 12 143.667 40.333 209 85c103.333 78.667 155 150.667 155 216c-76 8 -131 22 -165 42c-49.333 32 -74 82 -74 150c0 44.667 17 94 51 148c36 60 74.667 90 116 90
c49.333 0 89.333 -36 120 -108c22 -52 35 -109.333 39 -172h119v-150h-134c-17.333 -101.333 -65.333 -197.333 -144 -288s-166 -136 -262 -136c-25.333 0 -68.666 11.5 -129.999 34.5s-101 42.833 -119 59.5zM476 221c0 -46 50.667 -69 152 -69
c0 32 -8.66699 61.667 -26 89c-17.333 32 -42 48 -74 48c-34.667 0 -52 -22.667 -52 -68zM472 -503c0 -108.667 -43.667 -163 -131 -163c-76.667 0 -115 40.333 -115 121c0 38 11 83 33 135c24 58 51.333 87 82 87c20 0 37.5 -5.16699 52.5 -15.5s29.5 -23.5 43.5 -39.5
c23.333 -43.333 35 -85 35 -125zM428 -522c0 22.667 -11 41.5 -33 56.5s-44 22.5 -66 22.5c-18 0 -32.667 -9 -44 -27s-17 -35.333 -17 -52c0 -32.667 24.333 -49 73 -49h9c52 0 78 16.333 78 49z" />
    <glyph glyph-name="uni06CA.fina" unicode="&#x6ca;" horiz-adv-x="826" 
d="M52 -330c1.33301 14 34 22.667 98 26c39.333 0.666992 79.666 1.66699 120.999 3c74 12 143.667 40.333 209 85c103.333 78.667 155 150.667 155 216c-76 8 -131 22 -165 42c-49.333 32 -74 82 -74 150c0 44.667 17 94 51 148c36 60 74.667 90 116 90
c49.333 0 89.333 -36 120 -108c22 -52 35 -109.333 39 -172h119v-150h-134c-17.333 -101.333 -65.333 -197.333 -144 -288s-166 -136 -262 -136c-25.333 0 -68.666 11.5 -129.999 34.5s-101 42.833 -119 59.5zM476 221c0 -46 50.667 -69 152 -69
c0 32 -8.66699 61.667 -26 89c-17.333 32 -42 48 -74 48c-34.667 0 -52 -22.667 -52 -68zM412 771l113 -113l-109 -111l-115 114zM629 780l111 -110l-107 -112l-114 114z" />
    <glyph glyph-name="uni06CD.fina" unicode="&#x6cd;" horiz-adv-x="1126" 
d="M95 -213c0 56.667 11 118.668 33 186.001c12 31.333 22.333 54.666 31 69.999l-184 -92l15 64l238 111c0.666992 -2.66699 3 -7.33398 7 -14.001c-50.667 -93.333 -76 -176.333 -76 -249c0 -112.667 35.333 -193.667 106 -243c58.667 -38.667 146.334 -58 263.001 -58
c74.667 0 168 12.667 280 38c143.333 33.333 215 73 215 119c0 16 -25 30 -75 42c-75.333 14 -123.333 26 -144 36c-51.333 22.667 -77 58.334 -77 107.001c0 74 40.667 135.667 122 185c68.667 40.667 143.667 61 225 61h62v-150c-218 0 -330.333 -24 -337 -72
c20 -17.333 57.667 -31 113 -41c57.333 -10.667 96.333 -23.667 117 -39c35.333 -26 53 -71 53 -135c0 -98.667 -76.333 -177.667 -229 -237c-118.667 -44 -237.334 -66 -356.001 -66c-122.667 0 -220 32 -292 96c-73.333 65.333 -110 159 -110 281z" />
    <glyph glyph-name="uni06CE.init" unicode="&#x6ce;" horiz-adv-x="334" 
d="M-6 150c177.333 -0.666992 266 26 266 80c0 29.333 -31 83 -93 161l65 120c6 12.667 13 13.334 21 2.00098c50 -82 75 -155.333 75 -220c0 -76.667 -24 -144.334 -72 -203.001c-53.333 -60 -117 -90 -191 -90h-71v150zM303 878l-23.5029 -24.5
c-9 -9.66699 -18.833 -23.667 -29.5 -42s-22 -42 -34 -71s-24.333 -65.833 -37 -110.5l-37 -1c-5.33301 24 -12.5 48 -21.5 72s-19.5 46.667 -31.5 68s-25 40.833 -39 58.5s-28.333 32.5 -43 44.5l87 -6c4.66699 -6 9.83398 -13 15.501 -21s11.334 -18 17.001 -30
s11.334 -27 17.001 -45s11.5 -40 17.5 -66l7.5 36c3 14 6.83301 28.667 11.5 44s10.167 30.5 16.5 45.5s13.5 28.833 21.5 41.5zM75.9971 -159l113 -113l-109 -111l-115 114zM292.997 -150l111 -110l-107 -112l-114 114z" />
    <glyph glyph-name="uni06CE.medi" unicode="&#x6ce;" horiz-adv-x="521" 
d="M-18 150c94 0 151.669 4 173.002 12c47.333 18.667 91.333 56 132 112c41.333 -84 112.666 -125.333 213.999 -124h30v-150h-63c-40 0 -78.333 12.5 -115 37.5s-64 56.167 -82 93.5c-20 -37.333 -51.333 -68.5 -94 -93.5s-84.334 -37.5 -125.001 -37.5h-70v150z
M403.002 720l-23.5029 -24.5c-9 -9.66699 -18.833 -23.667 -29.5 -42s-22 -42 -34 -71s-24.333 -65.833 -37 -110.5l-37 -1c-5.33301 24 -12.5 48 -21.5 72s-19.5 46.667 -31.5 68s-25 40.833 -39 58.5s-28.333 32.5 -43 44.5l87 -6c4.66699 -6 9.83398 -13 15.501 -21
s11.334 -18 17.001 -30s11.334 -27 17.001 -45s11.5 -40 17.5 -66l7.5 36c3 14 6.83301 28.667 11.5 44s10.167 30.5 16.5 45.5s13.5 28.833 21.5 41.5zM127.999 -161l113 -113l-109 -111l-115 114zM344.999 -152l111 -110l-107 -112l-114 114z" />
    <glyph glyph-name="uni06CE.fina" unicode="&#x6ce;" horiz-adv-x="1126" 
d="M95 -213c0 56.667 11 118.666 33 185.999c30.667 79.333 63.667 131 99 155l8 -16c-50.667 -93.333 -76 -176.333 -76 -249c0 -112.667 35.333 -193.667 106 -243c58.667 -38.667 146.334 -58 263.001 -58c74.667 0 168 12.667 280 38c143.333 33.333 215 73 215 119
c0 16 -25 30 -75 42c-75.333 14 -123.333 26 -144 36c-51.333 22.667 -77 58.334 -77 107.001c0 74 40.667 135.667 122 185c68.667 40.667 143.667 61 225 61h62v-150c-218 0 -330.333 -24 -337 -72c20 -17.333 57.667 -31 113 -41c57.333 -10.667 96.333 -23.667 117 -39
c35.333 -26 53 -71 53 -135c0 -98.667 -76.333 -177.667 -229 -237c-118.667 -44 -237.334 -66 -356.001 -66c-122.667 0 -220 32 -292 96c-73.333 65.333 -110 159 -110 281zM590 551.999l-23.5029 -24.5c-9 -9.66699 -18.833 -23.667 -29.5 -42s-22 -42 -34 -71
s-24.333 -65.833 -37 -110.5l-37 -1c-5.33301 24 -12.5 48 -21.5 72s-19.5 46.667 -31.5 68s-25 40.833 -39 58.5s-28.333 32.5 -43 44.5l87 -6c4.66699 -6 9.83398 -13 15.501 -21s11.334 -18 17.001 -30s11.334 -27 17.001 -45s11.5 -40 17.5 -66l7.5 36
c3 14 6.83301 28.667 11.5 44s10.167 30.5 16.5 45.5s13.5 28.833 21.5 41.5z" />
    <glyph glyph-name="uni06CF.fina" unicode="&#x6cf;" horiz-adv-x="826" 
d="M52 -330c1.33301 14 34 22.667 98 26c39.333 0.666992 79.666 1.66699 120.999 3c74 12 143.667 40.333 209 85c103.333 78.667 155 150.667 155 216c-76 8 -131 22 -165 42c-49.333 32 -74 82 -74 150c0 44.667 17 94 51 148c36 60 74.667 90 116 90
c49.333 0 89.333 -36 120 -108c22 -52 35 -109.333 39 -172h119v-150h-134c-17.333 -101.333 -65.333 -197.333 -144 -288s-166 -136 -262 -136c-25.333 0 -68.666 11.5 -129.999 34.5s-101 42.833 -119 59.5zM476 221c0 -46 50.667 -69 152 -69
c0 32 -8.66699 61.667 -26 89c-17.333 32 -42 48 -74 48c-34.667 0 -52 -22.667 -52 -68zM506 779l109 -107l-105 -106l-109 107z" />
    <glyph glyph-name="uni06D1.fina" unicode="&#x6d1;" horiz-adv-x="1126" 
d="M613 -704l99 -98l-97 -92l-97 96zM522 -899l97 -97l-95 -94l-96 95zM417 -713l100 -98l-95 -93l-97 97zM95 -213c0 56.667 11 118.666 33 185.999c30.667 79.333 63.667 131 99 155l8 -16c-50.667 -93.333 -76 -176.333 -76 -249c0 -112.667 35.333 -193.667 106 -243
c58.667 -38.667 146.334 -58 263.001 -58c74.667 0 168 12.667 280 38c143.333 33.333 215 73 215 119c0 16 -25 30 -75 42c-75.333 14 -123.333 26 -144 36c-51.333 22.667 -77 58.334 -77 107.001c0 74 40.667 135.667 122 185c68.667 40.667 143.667 61 225 61h62v-150
c-218 0 -330.333 -24 -337 -72c20 -17.333 57.667 -31 113 -41c57.333 -10.667 96.333 -23.667 117 -39c35.333 -26 53 -71 53 -135c0 -98.667 -76.333 -177.667 -229 -237c-118.667 -44 -237.334 -66 -356.001 -66c-122.667 0 -220 32 -292 96
c-73.333 65.333 -110 159 -110 281z" />
    <glyph glyph-name="uni06FA.init" unicode="&#x6fa;" horiz-adv-x="883" 
d="M-15 150c80 0 132.668 5.33398 158.001 16.001c35.333 16.667 66.333 57.667 93 123c8 16.667 17 25 27 25c9.33301 0 14 -8.33301 14 -25c0 -82 30.667 -123 92 -123c50.667 0 94.334 19.333 131.001 58c20 24 41 60.667 63 110c18 38 30 57 36 57
c14 -27.333 29 -54.666 45 -81.999c24.667 -47.333 59.667 -71 105 -71c34.667 0 52 17 52 51c0 35.333 -13.667 64.666 -41 87.999l-2 6c1.33301 7.33301 12.5 23.666 33.5 48.999s35.167 40 42.5 44c32 -19.333 48 -69.333 48 -150c0 -158 -46.667 -237 -140 -237
c-59.333 0 -114.333 31.333 -165 94c-40 -58.667 -69.333 -96.667 -88 -114c-32.667 -29.333 -76.334 -44 -131.001 -44c-69.333 0 -119.333 24.333 -150 73c-50.667 -65.333 -99.334 -98 -146.001 -98h-77v150zM431.001 581.001l-108 108l107 103l107 -107z
M532.001 798.001l-107 107l106 104l105 -106zM648.001 591.001l-110 109l105 102l107 -107zM508.001 -154.999l109 -107l-105 -106l-109 107z" />
    <glyph glyph-name="uni06FA.medi" unicode="&#x6fa;" horiz-adv-x="1079" 
d="M-12 150c101.333 0 165.997 9.33301 193.997 28c40.667 50.667 71 93.667 91 129c9.33301 -9.33301 17.666 -27 24.999 -53c6 -27.333 13.333 -45.666 22 -54.999c14.667 -17.333 40.334 -26 77.001 -26c52.667 0 93.334 19.667 122.001 59
c41.333 51.333 64.333 78.666 69 81.999c7.33301 0 12 -4.66699 14 -14c8 -29.333 15 -58.333 21 -87c12.667 -27.333 38.334 -41 77.001 -41c32.667 0 59 11 79 33c9.33301 10.667 20.333 31 33 61c10.667 23.333 20.334 37 29.001 41l20 -20c12 -58 39.333 -97 82 -117
c30.667 -13.333 80 -20 148 -20v-150c-72 0 -123.833 9.16699 -155.5 27.5s-63.167 59.833 -94.5 124.5c-45.333 -93.333 -105 -140 -179 -140c-53.333 0 -96.333 39 -129 117c-13.333 -28 -39.5 -54.167 -78.5 -78.5s-74.167 -36.5 -105.5 -36.5c-60 0 -101.667 27 -125 81
c-50 -63.333 -105 -95 -165 -95h-71v150zM464.997 482l-108 108l107 103l107 -107zM565.997 699l-107 107l106 104l105 -106zM681.997 492l-110 109l105 102l107 -107zM536.997 -167l109 -107l-105 -106l-109 107z" />
    <glyph glyph-name="uni06FA.fina" unicode="&#x6fa;" horiz-adv-x="1801" 
d="M87 -259c0 46.667 4.00488 87.332 12.0049 121.999c7.33301 29.333 26 71 56 125c31.333 61.333 57.333 95.333 78 102l15 -15c-6.66699 -17.333 -25.334 -57.333 -56.001 -120c-24.667 -47.333 -37 -91 -37 -131c0 -82.667 40.333 -144 121 -184
c60.667 -28.667 136.667 -43 228 -43c254.667 0 382 98 382 294c0 62.667 -2 103.667 -6 123c-6.66699 30.667 -24 67.667 -52 111l-3 12c0 10.667 7.5 31.5 22.5 62.5s26.833 50.833 35.5 59.5l6 -3c23.333 -25.333 45.666 -51.333 66.999 -78
c20 -18.667 55.667 -28 107 -28c48.667 0 90 23.667 124 71c45.333 61.333 69.666 92.333 72.999 93c10.667 1.33301 16 -5 16 -19c0 -34 9 -62 27 -84c18.667 -26 44.667 -39 78 -39c43.333 0 78 11.333 104 34c16 13.333 30.333 35 43 65c13.333 28 23.666 43 30.999 45
l21 -21c14.667 -60 43.334 -101 86.001 -123c30.667 -14.667 79.667 -22 147 -22v-150c-73.333 0 -128 10.333 -164 31s-72.667 61.334 -110 122.001c-60.667 -94 -126.334 -141 -197.001 -141c-45.333 0 -88 33.333 -128 100c-32.667 -74.667 -85.334 -112 -158.001 -112
c-51.333 0 -85.333 5 -102 15c0 -380 -169 -570 -507 -570c-103.333 0 -187 23 -251 69c-72.667 54 -109 129.667 -109 227zM1155 478.998l-108 108l107 103l107 -107zM1256 695.998l-107 107l106 104l105 -106zM1372 488.998l-110 109l105 102l107 -107zM1243 -197.002
l109 -107l-105 -106l-109 107z" />
    <glyph glyph-name="uni06FB.init" unicode="&#x6fb;" horiz-adv-x="1246" 
d="M-15 150c93.333 0 149.999 6.66895 169.999 20.002c6 2 39.667 45.667 101 131c8.66699 -0.666992 13 -12.334 13 -35.001c0 -77.333 53.667 -116 161 -116c43.333 0 76 6.33301 98 19c26 13.333 57.667 42.333 95 87l84 102c126 133.333 250.333 200 373 200
c47.333 0 85.833 -14.167 115.5 -42.5s44.5 -66.166 44.5 -113.499c0 -138.667 -88.333 -243.667 -265 -315c-133.333 -58 -281.666 -87 -444.999 -87c-37.333 -72.667 -58.333 -112.334 -63 -119.001l-19 -10c-10.667 0 -16 6.33301 -16 19
c0 5.33301 9.33301 42.666 28 111.999c-68.667 0 -116.667 6.33301 -144 19c-36 14 -69.667 49.667 -101 107c-37.333 -85.333 -92 -128 -164 -128h-66v150zM677.999 152.002c46.667 0 130.666 18 251.999 54c133.333 41.333 200 77.333 200 108c0 24 -15.667 43.667 -47 59
c-24 12 -50 18 -78 18c-127.333 0 -260.666 -79.667 -399.999 -239h73zM520.998 786.002l109 -107l-105 -106l-109 107zM483.998 -243.998l109 -107l-105 -106l-109 107z" />
    <glyph glyph-name="uni06FB.medi" unicode="&#x6fb;" horiz-adv-x="1333" 
d="M-12 150c93.333 0 149.334 6.66992 168.001 20.0029c7.33301 4 41.666 47.667 102.999 131c16.667 -24 28.667 -53.333 36 -88c6 -26.667 16 -43 30 -49c18.667 -9.33301 59.667 -14 123 -14c31.333 0 56.5 4.33301 75.5 13s50.5 39 94.5 91l90 104
c43.333 51.333 100.333 96.666 171 135.999c75.333 42.667 143.333 64 204 64c106.667 0 160 -52 160 -156c0 -58.667 -20.667 -115 -62 -169c-36 -47.333 -81.667 -86 -137 -116c41.333 7.33301 82.333 14 123 20c49.333 8.66699 90.333 13 123 13h60v-150h-203
c-28.667 0 -70.834 3.66699 -126.501 11s-97.167 11 -124.5 11c-1.33301 0 -122.333 -7.33301 -363 -22c-36.667 -72.667 -57.667 -112.334 -63 -119.001l-19 -10c-10.667 0 -16 6.33301 -16 19c0 5.33301 9.66699 42.666 29 111.999
c-71.333 0 -119.666 6.33301 -144.999 19c-36 14 -69.667 49.667 -101 107c-37.333 -85.333 -92 -128 -164 -128h-66v150zM681.001 152.003c46.667 0 130.667 18 252 54c134 41.333 201 77.333 201 108c0 24 -16 43.667 -48 59c-24.667 12 -50.667 18 -78 18
c-127.333 0 -260.333 -79.667 -399 -239h72zM525.001 786.003l109 -107l-105 -106l-109 107zM511.001 -265.997l109 -107l-105 -106l-109 107z" />
    <glyph glyph-name="uni06FB.fina" unicode="&#x6fb;" horiz-adv-x="1997" 
d="M98 -259c0 48.667 4.00098 89.333 12.001 122c6.66699 29.333 24.667 71 54 125c32.667 61.333 59 95.333 79 102l16 -15c-6.66699 -18.667 -25.667 -57.667 -57 -117c-24 -47.333 -36 -92 -36 -134c0 -82.667 40.333 -144 121 -184
c61.333 -28.667 137.666 -43 228.999 -43c254 0 381 97.667 381 293c0 63.333 -2 104 -6 122c-5.33301 32 -23.333 69.667 -54 113l-2 12c0 10.667 7.83301 31.5 23.5 62.5s27.5 50.833 35.5 59.5c10.667 -2 22.334 -11.667 35.001 -29c15.333 -25.333 30 -43.333 44 -54
c26.667 -17.333 60.334 -26 101.001 -26c69.333 0 120.333 14 153 42c66 72 113.333 127.333 142 166c42 49.333 98.667 94.666 170 135.999c77.333 42.667 145.666 64 204.999 64c46 0 84.667 -12.333 116 -37c28.667 -27.333 43 -63.666 43 -108.999
c0 -124 -66 -223 -198 -297c143.333 23.333 225 35 245 35h60v-150h-200c-26 0 -65.5 3.66699 -118.5 11s-93.167 11 -120.5 11c-4 0 -129.333 -7.33301 -376 -22l-61 -119l-21 -10c-11.333 0 -17 6.33301 -17 19c0 22 10.333 59.333 31 112
c-97.333 2.66699 -151.333 7 -162 13c0 -380 -169.333 -570 -508 -570c-102.667 0 -186.334 23 -251.001 69c-72 54 -108 129.667 -108 227zM1271 151.999c82 0.666992 162 9.66699 240 27c44.667 12 97.667 29.667 159 53c84 34 126 61.333 126 82
c0 22 -16.667 40.667 -50 56c-27.333 14 -53 21 -77 21c-67.333 0 -141 -26 -221 -78c-70.667 -46 -129.667 -99.667 -177 -161zM1242 748.999l109 -107l-105 -106l-109 107zM1219 -255.001l109 -107l-105 -106l-109 107z" />
    <glyph glyph-name="uni06FC.init" unicode="&#x6fc;" horiz-adv-x="822" 
d="M-14 150c118.667 -4.66699 206.332 11 262.999 47c-49.333 41.333 -74 84.333 -74 129c0 76 33 151.333 99 226c68.667 75.333 140.667 113 216 113c28.667 0 64.667 -10 108 -30c48 -22.667 72 -46.667 72 -72c0 -19.333 -17.333 -29 -52 -29
c-10.667 0 -26.167 1.5 -46.5 4.5s-35.166 4.5 -44.499 4.5c-45.333 0 -96 -10.667 -152 -32c-69.333 -26.667 -104 -58 -104 -94c0 -39.333 55.333 -91 166 -155c182.667 72 294.667 113 336 123c7.33301 -6.66699 10.333 -12.667 9 -18l-27 -108l-12 -15l-316 -122
c-62 -25.333 -123.333 -52 -184 -80c-76.667 -28 -139.667 -42 -189 -42h-68v150zM440.998 994l109 -107l-105 -106l-109 107zM437.998 -90l109 -107l-105 -106l-109 107z" />
    <glyph glyph-name="uni06FC.medi" unicode="&#x6fc;" horiz-adv-x="664" 
d="M-18 150c76 -0.666992 131.167 1.16602 165.5 5.49902s74.5 28.833 120.5 73.5c-28 24 -56.667 44 -86 60c-6 2.66699 -12.833 5.5 -20.5 8.5l-23 9c-7.66699 3 -14.167 6 -19.5 9s-8.33301 6.16699 -9 9.5c1.33301 45.333 28.5 81.333 81.5 108s107.5 39 163.5 37
c42 0 85 -9 129 -27c49.333 -31.333 74 -65.666 74 -102.999s-41.333 -77 -124 -119c26 -30 59.167 -49.333 99.5 -58s89.166 -13 146.499 -13v-150c-142 0 -253.333 55.667 -334 167c-113.333 -111.333 -213.666 -167 -300.999 -167h-63v150zM338 823l109 -107l-105 -106
l-109 107zM325 -117l109 -107l-105 -106l-109 107z" />
    <glyph glyph-name="uni06FC.fina" unicode="&#x6fc;" horiz-adv-x="894" 
d="M109 -426c0 132.667 34.668 254.667 104.001 366c49.333 80 133.333 176.667 252 290c-30 16 -73 27.667 -129 35l-13 21c0 52 26.667 96.667 80 134c46.667 33.333 98.334 50 155.001 50c41.333 0 83.666 -13.333 126.999 -40c48.667 -30 73 -64 73 -102
c0 -26 -15 -50.667 -45 -74c-10 -8.66699 -36 -24.667 -78 -48c45.333 -38 107.666 -56.667 186.999 -56h82v-150c-92 0 -160.5 10.5 -205.5 31.5s-94.833 67.167 -149.5 138.5c-248.667 -175.333 -373 -354.333 -373 -537c0 -156 81.333 -270.667 244 -344
c120.667 -54.667 269.667 -82 447 -82c41.333 0 102.333 4 183 12c82 6.66699 142.333 10 181 10l32 -13c-35.333 -32 -121 -67 -257 -105c-124.667 -35.333 -217.667 -53 -279 -53c-180 0 -324 40 -432 120c-124 89.333 -186 221.333 -186 396zM555.001 798l109 -107
l-105 -106l-109 107zM544.001 -227l109 -107l-105 -106l-109 107z" />
    <glyph glyph-name="uniFB51" unicode="&#x671;" horiz-adv-x="505" arabic-form="final" 
d="M154 1076c0 16.667 10.332 35.168 30.999 55.501s38.667 34.166 54 41.499l52 -806c5.33301 -94 22 -153.667 50 -179s89.667 -38 185 -38v-150h-66c-89.333 0 -154.666 47.667 -195.999 143c-30 72 -47.667 174.333 -53 307l-14 261
c-4.66699 82.667 -10.5 153 -17.5 211s-15.5 109.333 -25.5 154zM335.999 1393c0 -42 -14.3301 -77 -42.9971 -105s-64 -42 -106 -42c-13.333 0 -33 3.5 -59 10.5s-46 10.5 -60 10.5c-24.667 0 -49.667 -5.66699 -75 -17c0 15.333 9.66699 33 29 53s36.666 30 51.999 30
c6.66699 0 27.667 -2 63 -6c25.333 28.667 49.666 58.667 72.999 90c25.333 20 48.666 30 69.999 30c37.333 0 56 -18 56 -54zM295.002 1358c-10 14 -23.668 21 -41.001 21c-22 0 -49.333 -20 -82 -60c12 -4 29.333 -6 52 -6c34.667 0 58.334 15 71.001 45z" />
    <glyph glyph-name="uniFB53" unicode="&#x67b;" horiz-adv-x="1591" arabic-form="final" 
d="M87 279c0 36.667 9.33398 80.332 28.001 130.999c25.333 58.667 52.333 93.334 81 104.001c7.33301 2 10.333 -2.33301 9 -13c-2 -11.333 -11.667 -36.333 -29 -75c-13.333 -31.333 -20 -57 -20 -77c0 -89.333 83.667 -151.666 251 -186.999
c104 -22.667 224.333 -34 361 -34c102 0 198.667 10.333 290 31c126 30.667 208 76.334 246 137.001c6 10 12.667 14.667 20 14s11.666 -6.33398 12.999 -17.001c10.667 -60 35 -100.333 73 -121c28 -14.667 73.667 -22 137 -22h57v-150c-90.667 0 -154 9 -190 27
c-48 23.333 -86.667 73.666 -116 150.999c-112 -135.333 -319 -203 -621 -203c-393.333 0 -590 101.333 -590 304zM565.001 -483.002l104 104l103 -103l-104 -103zM565.001 -278.002l104 104l103 -103l-104 -103z" />
    <glyph glyph-name="uniFB54" unicode="&#x67b;" horiz-adv-x="334" arabic-form="initial" 
d="M-6 150c177.333 -0.666992 266 26 266 80c0 29.333 -31 83 -93 161l65 120c6 12.667 13 13.334 21 2.00098c50 -82 75 -155.333 75 -220c0 -76.667 -24 -144.334 -72 -203.001c-53.333 -60 -117 -90 -191 -90h-71v150zM66 -451l104 104l103 -103l-104 -103zM66 -246
l104 104l103 -103l-104 -103z" />
    <glyph glyph-name="uniFB55" unicode="&#x67b;" horiz-adv-x="521" arabic-form="medial" 
d="M-18 150c94 0 151.669 4 173.002 12c47.333 18.667 91.333 56 132 112c41.333 -84 112.666 -125.333 213.999 -124h30v-150h-63c-40 0 -78.333 12.5 -115 37.5s-64 56.167 -82 93.5c-20 -37.333 -51.333 -68.5 -94 -93.5s-84.334 -37.5 -125.001 -37.5h-70v150z
M141.002 -432l104 104l103 -103l-104 -103zM141.002 -227l104 104l103 -103l-104 -103z" />
    <glyph glyph-name="afii62958" unicode="&#x67e;" horiz-adv-x="1591" arabic-form="final" 
d="M87 279c0 36.667 9.33398 80.332 28.001 130.999c25.333 58.667 52.333 93.334 81 104.001c7.33301 2 10.333 -2.33301 9 -13c-2 -11.333 -11.667 -36.333 -29 -75c-13.333 -31.333 -20 -57 -20 -77c0 -89.333 83.667 -151.666 251 -186.999
c104 -22.667 224.333 -34 361 -34c102 0 198.667 10.333 290 31c126 30.667 208 76.334 246 137.001c6 10 12.667 14.667 20 14s11.666 -6.33398 12.999 -17.001c10.667 -60 35 -100.333 73 -121c28 -14.667 73.667 -22 137 -22h57v-150c-90.667 0 -154 9 -190 27
c-48 23.333 -86.667 73.666 -116 150.999c-112 -135.333 -319 -203 -621 -203c-393.333 0 -590 101.333 -590 304zM788.001 -187.002l99 -98l-97 -92l-97 96zM697.001 -382.002l97 -97l-95 -94l-96 95zM592.001 -196.002l100 -98l-95 -93l-97 97z" />
    <glyph glyph-name="afii62956" unicode="&#x67e;" horiz-adv-x="334" arabic-form="initial" 
d="M-6 150c177.333 -0.666992 266 26 266 80c0 29.333 -31 83 -93 161l65 120c6 12.667 13 13.334 21 2.00098c50 -82 75 -155.333 75 -220c0 -76.667 -24 -144.334 -72 -203.001c-53.333 -60 -117 -90 -191 -90h-71v150zM268 -142l99 -98l-97 -92l-97 96zM177 -337l97 -97
l-95 -94l-96 95zM72 -151l100 -98l-95 -93l-97 97z" />
    <glyph glyph-name="afii52957" unicode="&#x67e;" horiz-adv-x="521" arabic-form="medial" 
d="M-18 150c94 0 151.669 4 173.002 12c47.333 18.667 91.333 56 132 112c41.333 -84 112.666 -125.333 213.999 -124h30v-150h-63c-40 0 -78.333 12.5 -115 37.5s-64 56.167 -82 93.5c-20 -37.333 -51.333 -68.5 -94 -93.5s-84.334 -37.5 -125.001 -37.5h-70v150z
M358.002 -141l99 -98l-97 -92l-97 96zM267.002 -336l97 -97l-95 -94l-96 95zM162.002 -150l100 -98l-95 -93l-97 97z" />
    <glyph glyph-name="uniFB5B" unicode="&#x680;" horiz-adv-x="1591" arabic-form="final" 
d="M87 279c0 36.667 9.33398 80.332 28.001 130.999c25.333 58.667 52.333 93.334 81 104.001c7.33301 2 10.333 -2.33301 9 -13c-2 -11.333 -11.667 -36.333 -29 -75c-13.333 -31.333 -20 -57 -20 -77c0 -89.333 83.667 -151.666 251 -186.999
c104 -22.667 224.333 -34 361 -34c102 0 198.667 10.333 290 31c126 30.667 208 76.334 246 137.001c6 10 12.667 14.667 20 14s11.666 -6.33398 12.999 -17.001c10.667 -60 35 -100.333 73 -121c28 -14.667 73.667 -22 137 -22h57v-150c-90.667 0 -154 9 -190 27
c-48 23.333 -86.667 73.666 -116 150.999c-112 -135.333 -319 -203 -621 -203c-393.333 0 -590 101.333 -590 304zM461.001 -456.002l97 97l97 -97l-97 -96zM675.001 -456.002l97 97l98 -97l-98 -96zM567.001 -301.002l97 95l97 -95l-97 -99zM567.001 -609.002l97 97l97 -97
l-97 -97z" />
    <glyph glyph-name="uniFB5C" unicode="&#x680;" horiz-adv-x="334" arabic-form="initial" 
d="M-6 150c177.333 -0.666992 266 26 266 80c0 29.333 -31 83 -93 161l65 120c6 12.667 13 13.334 21 2.00098c50 -82 75 -155.333 75 -220c0 -76.667 -24 -144.334 -72 -203.001c-53.333 -60 -117 -90 -191 -90h-71v150zM0.0341797 -354.124l90.9668 90.8662
l90.9678 -90.8662l-90.9678 -89.9297zM200.725 -354.124l90.9668 90.8662l91.9053 -90.8662l-91.9053 -89.9297zM99.4414 -208.926l90.9668 88.9932l90.9678 -88.9932l-90.9678 -92.7393zM99.4414 -497.449l90.9668 90.8662l90.9678 -90.8662l-90.9678 -90.8672z" />
    <glyph glyph-name="uniFB5D" unicode="&#x680;" horiz-adv-x="521" arabic-form="medial" 
d="M-18 150c94 0 151.669 4 173.002 12c47.333 18.667 91.333 56 132 112c41.333 -84 112.666 -125.333 213.999 -124h30v-150h-63c-40 0 -78.333 12.5 -115 37.5s-64 56.167 -82 93.5c-20 -37.333 -51.333 -68.5 -94 -93.5s-84.334 -37.5 -125.001 -37.5h-70v150z
M72.1094 -366.634l91.8965 91.8135l91.8965 -91.8135l-91.8965 -90.8672zM274.851 -366.634l91.8965 91.8135l92.8438 -91.8135l-92.8438 -90.8672zM172.532 -219.922l91.8965 89.9209l91.8975 -89.9209l-91.8975 -93.7061zM172.532 -511.453l91.8965 91.8135
l91.8975 -91.8135l-91.8975 -91.8145z" />
    <glyph glyph-name="uniFB5F" unicode="&#x67a;" horiz-adv-x="1591" arabic-form="final" 
d="M87 279c0 36.667 9.33398 80.332 28.001 130.999c25.333 58.667 52.333 93.334 81 104.001c7.33301 2 10.333 -2.33301 9 -13c-2 -11.333 -11.667 -36.333 -29 -75c-13.333 -31.333 -20 -57 -20 -77c0 -89.333 83.667 -151.666 251 -186.999
c104 -22.667 224.333 -34 361 -34c102 0 198.667 10.333 290 31c126 30.667 208 76.334 246 137.001c6 10 12.667 14.667 20 14s11.666 -6.33398 12.999 -17.001c10.667 -60 35 -100.333 73 -121c28 -14.667 73.667 -22 137 -22h57v-150c-90.667 0 -154 9 -190 27
c-48 23.333 -86.667 73.666 -116 150.999c-112 -135.333 -319 -203 -621 -203c-393.333 0 -590 101.333 -590 304zM616.001 629.998l104 104l103 -103l-104 -103zM616.001 834.998l104 104l103 -103l-104 -103z" />
    <glyph glyph-name="uniFB60" unicode="&#x67a;" horiz-adv-x="334" arabic-form="initial" 
d="M-6 150c177.333 -0.666992 266 26 266 80c0 29.333 -31 83 -93 161l65 120c6 12.667 13 13.334 21 2.00098c50 -82 75 -155.333 75 -220c0 -76.667 -24 -144.334 -72 -203.001c-53.333 -60 -117 -90 -191 -90h-71v150zM39 690l104 104l103 -103l-104 -103zM39 895
l104 104l103 -103l-104 -103z" />
    <glyph glyph-name="uniFB61" unicode="&#x67a;" horiz-adv-x="521" arabic-form="medial" 
d="M-18 150c94 0 151.669 4 173.002 12c47.333 18.667 91.333 56 132 112c41.333 -84 112.666 -125.333 213.999 -124h30v-150h-63c-40 0 -78.333 12.5 -115 37.5s-64 56.167 -82 93.5c-20 -37.333 -51.333 -68.5 -94 -93.5s-84.334 -37.5 -125.001 -37.5h-70v150z
M163.002 537l104 104l103 -103l-104 -103zM163.002 742l104 104l103 -103l-104 -103z" />
    <glyph glyph-name="uniFB63" unicode="&#x67f;" horiz-adv-x="1591" arabic-form="final" 
d="M87 279c0 36.667 9.33398 80.332 28.001 130.999c25.333 58.667 52.333 93.334 81 104.001c7.33301 2 10.333 -2.33301 9 -13c-2 -11.333 -11.667 -36.333 -29 -75c-13.333 -31.333 -20 -57 -20 -77c0 -89.333 83.667 -151.666 251 -186.999
c104 -22.667 224.333 -34 361 -34c102 0 198.667 10.333 290 31c126 30.667 208 76.334 246 137.001c6 10 12.667 14.667 20 14s11.666 -6.33398 12.999 -17.001c10.667 -60 35 -100.333 73 -121c28 -14.667 73.667 -22 137 -22h57v-150c-90.667 0 -154 9 -190 27
c-48 23.333 -86.667 73.666 -116 150.999c-112 -135.333 -319 -203 -621 -203c-393.333 0 -590 101.333 -590 304zM545.001 802.998l97 97l97 -97l-97 -96zM759.001 802.998l97 97l98 -97l-98 -96zM651.001 957.998l97 95l97 -95l-97 -99zM651.001 649.998l97 97l97 -97
l-97 -97z" />
    <glyph glyph-name="uniFB64" unicode="&#x67f;" horiz-adv-x="334" arabic-form="initial" 
d="M-6 150c177.333 -0.666992 266 26 266 80c0 29.333 -31 83 -93 161l65 120c6 12.667 13 13.334 21 2.00098c50 -82 75 -155.333 75 -220c0 -76.667 -24 -144.334 -72 -203.001c-53.333 -60 -117 -90 -191 -90h-71v150zM-42 805l97 97l97 -97l-97 -96zM172 805l97 97
l98 -97l-98 -96zM64 960l97 95l97 -95l-97 -99zM64 652l97 97l97 -97l-97 -97z" />
    <glyph glyph-name="uniFB65" unicode="&#x67f;" horiz-adv-x="521" arabic-form="medial" 
d="M-18 150c94 0 151.669 4 173.002 12c47.333 18.667 91.333 56 132 112c41.333 -84 112.666 -125.333 213.999 -124h30v-150h-63c-40 0 -78.333 12.5 -115 37.5s-64 56.167 -82 93.5c-20 -37.333 -51.333 -68.5 -94 -93.5s-84.334 -37.5 -125.001 -37.5h-70v150z
M72.002 655l97 97l97 -97l-97 -96zM286.002 655l97 97l98 -97l-98 -96zM178.002 810l97 95l97 -95l-97 -99zM178.002 502l97 97l97 -97l-97 -97z" />
    <glyph glyph-name="uniFB67" unicode="&#x679;" horiz-adv-x="1591" arabic-form="final" 
d="M87 279c0 36.667 9.33398 80.332 28.001 130.999c25.333 58.667 52.333 93.334 81 104.001c7.33301 2 10.333 -2.33301 9 -13c-2 -11.333 -11.667 -36.333 -29 -75c-13.333 -31.333 -20 -57 -20 -77c0 -89.333 83.667 -151.666 251 -186.999
c104 -22.667 224.333 -34 361 -34c102 0 198.667 10.333 290 31c126 30.667 208 76.334 246 137.001c6 10 12.667 14.667 20 14s11.666 -6.33398 12.999 -17.001c10.667 -60 35 -100.333 73 -121c28 -14.667 73.667 -22 137 -22h57v-150c-90.667 0 -154 9 -190 27
c-48 23.333 -86.667 73.666 -116 150.999c-112 -135.333 -319 -203 -621 -203c-393.333 0 -590 101.333 -590 304zM622.001 700.998l2.00098 1.99805c14.667 -3.33301 30.667 -5 48 -5c14.667 0 27.334 4.83301 38.001 14.5s16 21.834 16 36.501
c0 42.667 -4.66699 91.334 -14 146.001c-2.66699 12.667 -5 25.334 -7 38.001c-3.33301 14.667 -5 27 -5 37c0 6 1.66699 13.333 5 22c3.33301 9.33301 7 15.666 11 18.999c3.33301 -2.66699 8.66602 -9 15.999 -19s12.333 -17 15 -21c-4 -5.33301 -7.33301 -10.333 -10 -15
c-4.66699 -6 -7 -12 -7 -18s1 -14.667 3 -26c2.66699 -11.333 4 -20 4 -26l6 -137c24.667 22 42.667 37 54 45c24.667 16.667 45.667 25 63 25c13.333 0 25 -4.33301 35 -13s15 -19.667 15 -33c0 -63.333 -60.667 -102 -182 -116c-28.667 -3.33301 -49.334 -5 -62.001 -5
c-6.66699 0 -15 5.66699 -25 17c-8.66699 9.33301 -15 18.333 -19 27v5zM717.002 698.996c30.667 0 61.001 3.33203 91.001 9.99902c44 10 66 24.667 66 44c0 7.33301 -4.66699 13 -14 17c-7.33301 4 -15 6 -23 6c-16.667 0 -38 -9.33301 -64 -28
c-6.66699 -5.33301 -25.334 -21.666 -56.001 -48.999z" />
    <glyph glyph-name="uniFB68" unicode="&#x679;" horiz-adv-x="334" arabic-form="initial" 
d="M-6 150c177.333 -0.666992 266 26 266 80c0 29.333 -31 83 -93 161l65 120c6 12.667 13 13.334 21 2.00098c50 -82 75 -155.333 75 -220c0 -76.667 -24 -144.334 -72 -203.001c-53.333 -60 -117 -90 -191 -90h-71v150zM13 692l2.00098 1.99805
c14.667 -3.33301 30.667 -5 48 -5c14.667 0 27.334 4.83301 38.001 14.5s16 21.834 16 36.501c0 42.667 -4.66699 91.334 -14 146.001c-2.66699 12.667 -5 25.334 -7 38.001c-3.33301 14.667 -5 27 -5 37c0 6 1.66699 13.333 5 22c3.33301 9.33301 7 15.666 11 18.999
c3.33301 -2.66699 8.66602 -9 15.999 -19s12.333 -17 15 -21c-4 -5.33301 -7.33301 -10.333 -10 -15c-4.66699 -6 -7 -12 -7 -18s1 -14.667 3 -26c2.66699 -11.333 4 -20 4 -26l6 -137c24.667 22 42.667 37 54 45c24.667 16.667 45.667 25 63 25
c13.333 0 25 -4.33301 35 -13s15 -19.667 15 -33c0 -63.333 -60.667 -102 -182 -116c-28.667 -3.33301 -49.334 -5 -62.001 -5c-6.66699 0 -15 5.66699 -25 17c-8.66699 9.33301 -15 18.333 -19 27v5zM108.001 689.998c30.667 0 61.001 3.33203 91.001 9.99902
c44 10 66 24.667 66 44c0 7.33301 -4.66699 13 -14 17c-7.33301 4 -15 6 -23 6c-16.667 0 -38 -9.33301 -64 -28c-6.66699 -5.33301 -25.334 -21.666 -56.001 -48.999z" />
    <glyph glyph-name="uniFB69" unicode="&#x679;" horiz-adv-x="521" arabic-form="medial" 
d="M-18 150c94 0 151.669 4 173.002 12c47.333 18.667 91.333 56 132 112c41.333 -84 112.666 -125.333 213.999 -124h30v-150h-63c-40 0 -78.333 12.5 -115 37.5s-64 56.167 -82 93.5c-20 -37.333 -51.333 -68.5 -94 -93.5s-84.334 -37.5 -125.001 -37.5h-70v150z
M132.002 538l2.00098 1.99805c14.667 -3.33301 30.667 -5 48 -5c14.667 0 27.334 4.83301 38.001 14.5s16 21.834 16 36.501c0 42.667 -4.66699 91.334 -14 146.001c-2.66699 12.667 -5 25.334 -7 38.001c-3.33301 14.667 -5 27 -5 37c0 6 1.66699 13.333 5 22
c3.33301 9.33301 7 15.666 11 18.999c3.33301 -2.66699 8.66602 -9 15.999 -19s12.333 -17 15 -21c-4 -5.33301 -7.33301 -10.333 -10 -15c-4.66699 -6 -7 -12 -7 -18s1 -14.667 3 -26c2.66699 -11.333 4 -20 4 -26l6 -137c24.667 22 42.667 37 54 45
c24.667 16.667 45.667 25 63 25c13.333 0 25 -4.33301 35 -13s15 -19.667 15 -33c0 -63.333 -60.667 -102 -182 -116c-28.667 -3.33301 -49.334 -5 -62.001 -5c-6.66699 0 -15 5.66699 -25 17c-8.66699 9.33301 -15 18.333 -19 27v5zM227.003 535.998
c30.667 0 61.001 3.33203 91.001 9.99902c44 10 66 24.667 66 44c0 7.33301 -4.66699 13 -14 17c-7.33301 4 -15 6 -23 6c-16.667 0 -38 -9.33301 -64 -28c-6.66699 -5.33301 -25.334 -21.666 -56.001 -48.999z" />
    <glyph glyph-name="afii57371" unicode="&#x6a4;" horiz-adv-x="1729" arabic-form="final" 
d="M85 166c0 44 9 93.3311 27 147.998c20.667 60.667 46 101.667 76 123l6 -13c-1.33301 -6 -10.333 -40 -27 -102c-10 -41.333 -15 -76 -15 -104c0 -82 61.333 -141 184 -177c82 -24 178 -36 288 -36c109.333 0 227.666 11.333 354.999 34
c148.667 27.333 260.334 64 335.001 110c-49.333 36 -74 73 -74 111c0 50.667 26.667 121 80 211c58 97.333 110 146 156 146c33.333 0 65 -31.667 95 -95c24 -52.667 36 -99 36 -139c0 -96.667 -22 -167 -66 -211c40 -15.333 96.667 -22.666 170 -21.999h25v-150h-16
c-103.333 -1.33301 -201 24.334 -293 77.001c-98.667 -64 -223.5 -119.167 -374.5 -165.5s-284.833 -69.5 -401.5 -69.5c-164 0 -286.667 16 -368 48c-132 49.333 -198 141.333 -198 276zM1314 315.998c0 -13.333 12.333 -33.333 37 -60l76 -37l70 46c26 23.333 39 47 39 71
c0 18 -8.33301 41 -25 69c-19.333 32 -37 48 -53 48c-20 0 -49 -18.333 -87 -55s-57 -64 -57 -82zM1328 708.998l-108 108l107 103l107 -107zM1429 925.998l-107 107l106 104l105 -106zM1545 718.998l-110 109l105 102l107 -107z" />
    <glyph glyph-name="afii57372" unicode="&#x6a4;" horiz-adv-x="473" arabic-form="initial" 
d="M-15 150c258 -3.33301 387 26 387 88c0 24 -8.66699 52 -26 84c-53.333 -38 -101.333 -57 -144 -57c-72.667 0 -109 39.333 -109 118c0 50.667 17.667 115 53 193c42 89.333 84.667 134 128 134c50.667 0 95 -46 133 -138c32.667 -75.333 49 -143 49 -203
c0 -246 -129 -369 -387 -369h-84v150zM175 451c0 -36 13.333 -53.999 40 -53.999h24c16 0 40.667 13.667 74 41c0 21.333 -6 45.666 -18 72.999c-16 31.333 -32.333 47 -49 47c-22 0 -40 -13 -54 -39c-11.333 -21.333 -17 -44 -17 -68zM109 764.001l-108 108l107 103
l107 -107zM210 981.001l-107 107l106 104l105 -106zM326 774.001l-110 109l105 102l107 -107z" />
    <glyph glyph-name="afii57369" unicode="&#x6a4;" horiz-adv-x="680" arabic-form="medial" 
d="M-18 150c114 -3.33301 191 1.99805 231 15.998l-16 33c-4 34.667 -6 53.667 -6 57c0 56 32.667 127.667 98 215c68 92 128.667 138 182 138c28.667 0 52 -22.667 70 -68c14.667 -38 22 -73.333 22 -106c0 -121.333 -37.333 -208.666 -112 -261.999
c60 -16 129.333 -23.667 208 -23h33v-150h-151c-26.667 0 -65.667 7.83301 -117 23.5s-87.333 30.834 -108 45.501c-118 -46 -207.667 -69 -269 -69h-65v150zM269 306.998c0 -45.333 27.001 -76 81.001 -92c31.333 7.33301 60.666 21 87.999 41c32 24.667 48 50.667 48 78
c0 22 -9.33301 42.833 -28 62.5s-39 29.5 -61 29.5c-26 0 -53.833 -13.833 -83.5 -41.5s-44.5 -53.5 -44.5 -77.5zM288.001 712.998l-108 108l107 103l107 -107zM389.001 929.998l-107 107l106 104l105 -106zM505.001 722.998l-110 109l105 102l107 -107z" />
    <glyph glyph-name="uniFB6f" unicode="&#x6a6;" horiz-adv-x="1729" arabic-form="final" 
d="M85 166c0 44 9 93.3311 27 147.998c20.667 60.667 46 101.667 76 123l6 -13c-1.33301 -6 -10.333 -40 -27 -102c-10 -41.333 -15 -76 -15 -104c0 -82 61.333 -141 184 -177c82 -24 178 -36 288 -36c109.333 0 227.666 11.333 354.999 34
c148.667 27.333 260.334 64 335.001 110c-49.333 36 -74 73 -74 111c0 50.667 26.667 121 80 211c58 97.333 110 146 156 146c33.333 0 65 -31.667 95 -95c24 -52.667 36 -99 36 -139c0 -96.667 -22 -167 -66 -211c40 -15.333 96.667 -22.666 170 -21.999h25v-150h-16
c-103.333 -1.33301 -201 24.334 -293 77.001c-98.667 -64 -223.5 -119.167 -374.5 -165.5s-284.833 -69.5 -401.5 -69.5c-164 0 -286.667 16 -368 48c-132 49.333 -198 141.333 -198 276zM1314 315.998c0 -13.333 12.333 -33.333 37 -60l76 -37l70 46c26 23.333 39 47 39 71
c0 18 -8.33301 41 -25 69c-19.333 32 -37 48 -53 48c-20 0 -49 -18.333 -87 -55s-57 -64 -57 -82zM1237 951.998l97 97l97 -97l-97 -96zM1451 951.998l97 97l98 -97l-98 -96zM1343 1107l97 95l97 -95l-97 -99zM1343 798.998l97 97l97 -97l-97 -97z" />
    <glyph glyph-name="uniFB70" unicode="&#x6a6;" horiz-adv-x="473" arabic-form="initial" 
d="M-15 150c258 -3.33301 387 26 387 88c0 24 -8.66699 52 -26 84c-53.333 -38 -101.333 -57 -144 -57c-72.667 0 -109 39.333 -109 118c0 50.667 17.667 115 53 193c42 89.333 84.667 134 128 134c50.667 0 95 -46 133 -138c32.667 -75.333 49 -143 49 -203
c0 -246 -129 -369 -387 -369h-84v150zM175 451c0 -36 13.333 -53.999 40 -53.999h24c16 0 40.667 13.667 74 41c0 21.333 -6 45.666 -18 72.999c-16 31.333 -32.333 47 -49 47c-22 0 -40 -13 -54 -39c-11.333 -21.333 -17 -44 -17 -68zM14 1047l97 97l97 -97l-97 -96z
M228 1047l97 97l98 -97l-98 -96zM120 1202l97 95l97 -95l-97 -99zM120 894.001l97 97l97 -97l-97 -97z" />
    <glyph glyph-name="uniFB71" unicode="&#x6a6;" horiz-adv-x="680" arabic-form="medial" 
d="M-18 150c114 -3.33301 191 1.99805 231 15.998l-16 33c-4 34.667 -6 53.667 -6 57c0 56 32.667 127.667 98 215c68 92 128.667 138 182 138c28.667 0 52 -22.667 70 -68c14.667 -38 22 -73.333 22 -106c0 -121.333 -37.333 -208.666 -112 -261.999
c60 -16 129.333 -23.667 208 -23h33v-150h-151c-26.667 0 -65.667 7.83301 -117 23.5s-87.333 30.834 -108 45.501c-118 -46 -207.667 -69 -269 -69h-65v150zM269 306.998c0 -45.333 27.001 -76 81.001 -92c31.333 7.33301 60.666 21 87.999 41c32 24.667 48 50.667 48 78
c0 22 -9.33301 42.833 -28 62.5s-39 29.5 -61 29.5c-26 0 -53.833 -13.833 -83.5 -41.5s-44.5 -53.5 -44.5 -77.5zM202.001 967.998l97 97l97 -97l-97 -96zM416.001 967.998l97 97l98 -97l-98 -96zM308.001 1123l97 95l97 -95l-97 -99zM308.001 814.998l97 97l97 -97
l-97 -97z" />
    <glyph glyph-name="uniFB73" unicode="&#x684;" horiz-adv-x="1046" arabic-form="final" 
d="M95 -340c0 268.667 148.665 479.334 445.998 632.001c-36 7.33301 -85 11 -147 11c-107.333 0 -185.666 -10.667 -234.999 -32l-14 21c0 47.333 24.667 87.333 74 120c42.667 27.333 90 41 142 41c51.333 0 130.166 -5.5 236.499 -16.5s185.5 -15.5 237.5 -13.5h138
l6 -11c-2 -36 -17.667 -79.667 -47 -131c-91.333 -8.66699 -151.666 -15.667 -180.999 -21c-2 -76.667 60.667 -113.334 188 -110.001h119v-150h-44c-114.667 0 -193 12 -235 36c-62 35.333 -92 106 -90 212c-145.333 -36 -267.666 -100.667 -366.999 -194
c-114.667 -107.333 -172 -230 -172 -368s72.333 -245 217 -321c116 -60 250.667 -90 404 -90c50.667 0 127 4 229 12s178.667 12 230 12c18 0 25.333 -7.66699 22 -23c-233.333 -98.667 -415 -148 -545 -148c-181.333 0 -326 42.333 -434 127
c-118.667 93.333 -178 228.333 -178 405zM444.998 -434l104 104l103 -103l-104 -103zM444.998 -229l104 104l103 -103l-104 -103z" />
    <glyph glyph-name="uniFB74" unicode="&#x684;" horiz-adv-x="979" arabic-form="initial" 
d="M-18 150c90 0 183.332 13.667 279.999 41c44 12 132.667 42.667 266 92c-54 20 -108.667 39 -164 57c-64 19.333 -121.333 29 -172 29c-26 0 -63.667 -6.33301 -113 -19c-8.66699 3.33301 -13 9 -13 17c0 38 21.667 74.333 65 109c38.667 34 77.667 51 117 51
c31.333 0 76.333 -11.667 135 -35l133 -57c123.333 -48 271.333 -73.667 444 -77l18 -9c-4 -41.333 -17 -81 -39 -119c-11.333 -2 -19 -3 -23 -3c-20 0 -48.833 1.83301 -86.5 5.5s-66.5 5.5 -86.5 5.5c-92.667 0 -222.167 -39.667 -388.5 -119s-268.166 -119 -305.499 -119
h-67v150zM417.999 -432l104 104l103 -103l-104 -103zM417.999 -227l104 104l103 -103l-104 -103z" />
    <glyph glyph-name="uniFB75" unicode="&#x684;" horiz-adv-x="1034" arabic-form="medial" 
d="M-9 150c81.333 0 173.001 17.667 275.001 53l262 100c-53.333 20 -106 38.333 -158 55c-62 20 -116 30 -162 30c-52.667 0 -95.667 -6 -129 -18l-11 18c0 38 20 74.333 60 109s80 52 120 52c35.333 0 95 -16.333 179 -49c61.333 -26.667 122.666 -52 183.999 -76
c81.333 -28 193 -42 335 -42l33 4c-8.66699 -60.667 -22 -105.667 -40 -135l-23 -3c-40 0 -104 2 -192 6c-3.33301 -14.667 -5 -24.667 -5 -30c0 -54 63.333 -78.667 190 -74h146v-150h-68c-110 0 -187.667 13 -233 39c-59.333 35.333 -89 104.333 -89 207
c-68 -5.33301 -179.667 -48.333 -335 -129c-150 -78 -245.333 -117 -286 -117h-53v150zM382.001 -451l104 104l103 -103l-104 -103zM382.001 -246l104 104l103 -103l-104 -103z" />
    <glyph glyph-name="uniFB77" unicode="&#x683;" horiz-adv-x="1046" arabic-form="final" 
d="M95 -340c0 268.667 148.665 479.334 445.998 632.001c-36 7.33301 -85 11 -147 11c-107.333 0 -185.666 -10.667 -234.999 -32l-14 21c0 47.333 24.667 87.333 74 120c42.667 27.333 90 41 142 41c51.333 0 130.166 -5.5 236.499 -16.5s185.5 -15.5 237.5 -13.5h138
l6 -11c-2 -36 -17.667 -79.667 -47 -131c-91.333 -8.66699 -151.666 -15.667 -180.999 -21c-2 -76.667 60.667 -113.334 188 -110.001h119v-150h-44c-114.667 0 -193 12 -235 36c-62 35.333 -92 106 -90 212c-145.333 -36 -267.666 -100.667 -366.999 -194
c-114.667 -107.333 -172 -230 -172 -368s72.333 -245 217 -321c116 -60 250.667 -90 404 -90c50.667 0 127 4 229 12s178.667 12 230 12c18 0 25.333 -7.66699 22 -23c-233.333 -98.667 -415 -148 -545 -148c-181.333 0 -326 42.333 -434 127
c-118.667 93.333 -178 228.333 -178 405zM474.998 -179l113 -113l-109 -111l-115 114zM691.998 -170l111 -110l-107 -112l-114 114z" />
    <glyph glyph-name="uniFB78" unicode="&#x683;" horiz-adv-x="979" arabic-form="initial" 
d="M-18 150c90 0 183.332 13.667 279.999 41c44 12 132.667 42.667 266 92c-54 20 -108.667 39 -164 57c-64 19.333 -121.333 29 -172 29c-26 0 -63.667 -6.33301 -113 -19c-8.66699 3.33301 -13 9 -13 17c0 38 21.667 74.333 65 109c38.667 34 77.667 51 117 51
c31.333 0 76.333 -11.667 135 -35l133 -57c123.333 -48 271.333 -73.667 444 -77l18 -9c-4 -41.333 -17 -81 -39 -119c-11.333 -2 -19 -3 -23 -3c-20 0 -48.833 1.83301 -86.5 5.5s-66.5 5.5 -86.5 5.5c-92.667 0 -222.167 -39.667 -388.5 -119s-268.166 -119 -305.499 -119
h-67v150zM408.999 -139l113 -113l-109 -111l-115 114zM625.999 -130l111 -110l-107 -112l-114 114z" />
    <glyph glyph-name="uniFB79" unicode="&#x683;" horiz-adv-x="1034" arabic-form="medial" 
d="M-9 150c81.333 0 173.001 17.667 275.001 53l262 100c-53.333 20 -106 38.333 -158 55c-62 20 -116 30 -162 30c-52.667 0 -95.667 -6 -129 -18l-11 18c0 38 20 74.333 60 109s80 52 120 52c35.333 0 95 -16.333 179 -49c61.333 -26.667 122.666 -52 183.999 -76
c81.333 -28 193 -42 335 -42l33 4c-8.66699 -60.667 -22 -105.667 -40 -135l-23 -3c-40 0 -104 2 -192 6c-3.33301 -14.667 -5 -24.667 -5 -30c0 -54 63.333 -78.667 190 -74h146v-150h-68c-110 0 -187.667 13 -233 39c-59.333 35.333 -89 104.333 -89 207
c-68 -5.33301 -179.667 -48.333 -335 -129c-150 -78 -245.333 -117 -286 -117h-53v150zM399.001 -155l113 -113l-109 -111l-115 114zM616.001 -146l111 -110l-107 -112l-114 114z" />
    <glyph glyph-name="afii62961" unicode="&#x686;" horiz-adv-x="1046" arabic-form="final" 
d="M95 -340c0 268.667 148.665 479.334 445.998 632.001c-36 7.33301 -85 11 -147 11c-107.333 0 -185.666 -10.667 -234.999 -32l-14 21c0 47.333 24.667 87.333 74 120c42.667 27.333 90 41 142 41c51.333 0 130.166 -5.5 236.499 -16.5s185.5 -15.5 237.5 -13.5h138
l6 -11c-2 -36 -17.667 -79.667 -47 -131c-91.333 -8.66699 -151.666 -15.667 -180.999 -21c-2 -76.667 60.667 -113.334 188 -110.001h119v-150h-44c-114.667 0 -193 12 -235 36c-62 35.333 -92 106 -90 212c-145.333 -36 -267.666 -100.667 -366.999 -194
c-114.667 -107.333 -172 -230 -172 -368s72.333 -245 217 -321c116 -60 250.667 -90 404 -90c50.667 0 127 4 229 12s178.667 12 230 12c18 0 25.333 -7.66699 22 -23c-233.333 -98.667 -415 -148 -545 -148c-181.333 0 -326 42.333 -434 127
c-118.667 93.333 -178 228.333 -178 405zM643.998 -165l99 -98l-97 -92l-97 96zM552.998 -360l97 -97l-95 -94l-96 95zM447.998 -174l100 -98l-95 -93l-97 97z" />
    <glyph glyph-name="afii62959" unicode="&#x686;" horiz-adv-x="979" arabic-form="initial" 
d="M-18 150c90 0 183.332 13.667 279.999 41c44 12 132.667 42.667 266 92c-54 20 -108.667 39 -164 57c-64 19.333 -121.333 29 -172 29c-26 0 -63.667 -6.33301 -113 -19c-8.66699 3.33301 -13 9 -13 17c0 38 21.667 74.333 65 109c38.667 34 77.667 51 117 51
c31.333 0 76.333 -11.667 135 -35l133 -57c123.333 -48 271.333 -73.667 444 -77l18 -9c-4 -41.333 -17 -81 -39 -119c-11.333 -2 -19 -3 -23 -3c-20 0 -48.833 1.83301 -86.5 5.5s-66.5 5.5 -86.5 5.5c-92.667 0 -222.167 -39.667 -388.5 -119s-268.166 -119 -305.499 -119
h-67v150zM604.999 -115l99 -98l-97 -92l-97 96zM513.999 -310l97 -97l-95 -94l-96 95zM408.999 -124l100 -98l-95 -93l-97 97z" />
    <glyph glyph-name="afii62960" unicode="&#x686;" horiz-adv-x="1034" arabic-form="medial" 
d="M-9 150c81.333 0 173.001 17.667 275.001 53l262 100c-53.333 20 -106 38.333 -158 55c-62 20 -116 30 -162 30c-52.667 0 -95.667 -6 -129 -18l-11 18c0 38 20 74.333 60 109s80 52 120 52c35.333 0 95 -16.333 179 -49c61.333 -26.667 122.666 -52 183.999 -76
c81.333 -28 193 -42 335 -42l33 4c-8.66699 -60.667 -22 -105.667 -40 -135l-23 -3c-40 0 -104 2 -192 6c-3.33301 -14.667 -5 -24.667 -5 -30c0 -54 63.333 -78.667 190 -74h146v-150h-68c-110 0 -187.667 13 -233 39c-59.333 35.333 -89 104.333 -89 207
c-68 -5.33301 -179.667 -48.333 -335 -129c-150 -78 -245.333 -117 -286 -117h-53v150zM587.001 -140l99 -98l-97 -92l-97 96zM496.001 -335l97 -97l-95 -94l-96 95zM391.001 -149l100 -98l-95 -93l-97 97z" />
    <glyph glyph-name="uniFB7F" unicode="&#x687;" horiz-adv-x="1046" arabic-form="final" 
d="M95 -340c0 268.667 148.665 479.334 445.998 632.001c-36 7.33301 -85 11 -147 11c-107.333 0 -185.666 -10.667 -234.999 -32l-14 21c0 47.333 24.667 87.333 74 120c42.667 27.333 90 41 142 41c51.333 0 130.166 -5.5 236.499 -16.5s185.5 -15.5 237.5 -13.5h138
l6 -11c-2 -36 -17.667 -79.667 -47 -131c-91.333 -8.66699 -151.666 -15.667 -180.999 -21c-2 -76.667 60.667 -113.334 188 -110.001h119v-150h-44c-114.667 0 -193 12 -235 36c-62 35.333 -92 106 -90 212c-145.333 -36 -267.666 -100.667 -366.999 -194
c-114.667 -107.333 -172 -230 -172 -368s72.333 -245 217 -321c116 -60 250.667 -90 404 -90c50.667 0 127 4 229 12s178.667 12 230 12c18 0 25.333 -7.66699 22 -23c-233.333 -98.667 -415 -148 -545 -148c-181.333 0 -326 42.333 -434 127
c-118.667 93.333 -178 228.333 -178 405zM353.998 -310l97 97l97 -97l-97 -96zM567.998 -310l97 97l98 -97l-98 -96zM459.998 -155l97 95l97 -95l-97 -99zM459.998 -463l97 97l97 -97l-97 -97z" />
    <glyph glyph-name="uniFB80" unicode="&#x687;" horiz-adv-x="979" arabic-form="initial" 
d="M-18 150c90 0 183.332 13.667 279.999 41c44 12 132.667 42.667 266 92c-54 20 -108.667 39 -164 57c-64 19.333 -121.333 29 -172 29c-26 0 -63.667 -6.33301 -113 -19c-8.66699 3.33301 -13 9 -13 17c0 38 21.667 74.333 65 109c38.667 34 77.667 51 117 51
c31.333 0 76.333 -11.667 135 -35l133 -57c123.333 -48 271.333 -73.667 444 -77l18 -9c-4 -41.333 -17 -81 -39 -119c-11.333 -2 -19 -3 -23 -3c-20 0 -48.833 1.83301 -86.5 5.5s-66.5 5.5 -86.5 5.5c-92.667 0 -222.167 -39.667 -388.5 -119s-268.166 -119 -305.499 -119
h-67v150zM305.999 -300l97 97l97 -97l-97 -96zM519.999 -300l97 97l98 -97l-98 -96zM411.999 -145l97 95l97 -95l-97 -99zM411.999 -453l97 97l97 -97l-97 -97z" />
    <glyph glyph-name="uniFB81" unicode="&#x687;" horiz-adv-x="1034" arabic-form="medial" 
d="M-9 150c81.333 0 173.001 17.667 275.001 53l262 100c-53.333 20 -106 38.333 -158 55c-62 20 -116 30 -162 30c-52.667 0 -95.667 -6 -129 -18l-11 18c0 38 20 74.333 60 109s80 52 120 52c35.333 0 95 -16.333 179 -49c61.333 -26.667 122.666 -52 183.999 -76
c81.333 -28 193 -42 335 -42l33 4c-8.66699 -60.667 -22 -105.667 -40 -135l-23 -3c-40 0 -104 2 -192 6c-3.33301 -14.667 -5 -24.667 -5 -30c0 -54 63.333 -78.667 190 -74h146v-150h-68c-110 0 -187.667 13 -233 39c-59.333 35.333 -89 104.333 -89 207
c-68 -5.33301 -179.667 -48.333 -335 -129c-150 -78 -245.333 -117 -286 -117h-53v150zM298.001 -318l97 97l97 -97l-97 -96zM512.001 -318l97 97l98 -97l-98 -96zM404.001 -163l97 95l97 -95l-97 -99zM404.001 -471l97 97l97 -97l-97 -97z" />
    <glyph glyph-name="uniFB83" unicode="&#x68d;" horiz-adv-x="912" arabic-form="final" 
d="M194 102c0 55.333 8.66797 107.999 26.001 157.999l8 8l10 -3c38 -54.667 86 -82 144 -82c60.667 0 116 10.667 166 32c59.333 30 89 72.667 89 128c0 112 -21.333 239.333 -64 382l3 21l64 88l9 -9c18 -76.667 35.667 -170.667 53 -282c10 -62 18.333 -124.667 25 -188
c17.333 -91.333 35.333 -147.666 54 -168.999c23.333 -24 61.666 -36 114.999 -36h31v-150c-86 -0 -146.667 18.333 -182 55c-22 24.667 -49 83.667 -81 177c-49.333 -71.333 -95.333 -121.333 -138 -150c-52.667 -36 -118 -54 -196 -54c-90.667 0 -136 24.667 -136 74z
M258.001 -116.001l113 -113l-109 -111l-115 114zM475.001 -107.001l111 -110l-107 -112l-114 114z" />
    <glyph glyph-name="uniFB85" unicode="&#x68c;" horiz-adv-x="912" arabic-form="final" 
d="M194 102c0 55.333 8.66797 107.999 26.001 157.999l8 8l10 -3c38 -54.667 86 -82 144 -82c60.667 0 116 10.667 166 32c59.333 30 89 72.667 89 128c0 112 -21.333 239.333 -64 382l3 21l64 88l9 -9c18 -76.667 35.667 -170.667 53 -282c10 -62 18.333 -124.667 25 -188
c17.333 -91.333 35.333 -147.666 54 -168.999c23.333 -24 61.666 -36 114.999 -36h31v-150c-86 -0 -146.667 18.333 -182 55c-22 24.667 -49 83.667 -81 177c-49.333 -71.333 -95.333 -121.333 -138 -150c-52.667 -36 -118 -54 -196 -54c-90.667 0 -136 24.667 -136 74z
M459.001 1137l113 -113l-109 -111l-115 114zM676.001 1146l111 -110l-107 -112l-114 114z" />
    <glyph glyph-name="uniFB87" unicode="&#x68e;" horiz-adv-x="912" arabic-form="final" 
d="M194 102c0 55.333 8.66797 107.999 26.001 157.999l8 8l10 -3c38 -54.667 86 -82 144 -82c60.667 0 116 10.667 166 32c59.333 30 89 72.667 89 128c0 112 -21.333 239.333 -64 382l3 21l64 88l9 -9c18 -76.667 35.667 -170.667 53 -282c10 -62 18.333 -124.667 25 -188
c17.333 -91.333 35.333 -147.666 54 -168.999c23.333 -24 61.666 -36 114.999 -36h31v-150c-86 -0 -146.667 18.333 -182 55c-22 24.667 -49 83.667 -81 177c-49.333 -71.333 -95.333 -121.333 -138 -150c-52.667 -36 -118 -54 -196 -54c-90.667 0 -136 24.667 -136 74z
M462.001 925.999l-108 108l107 103l107 -107zM563.001 1143l-107 107l106 104l105 -106zM679.001 935.999l-110 109l105 102l107 -107z" />
    <glyph glyph-name="uniFB89" unicode="&#x688;" horiz-adv-x="912" arabic-form="final" 
d="M194 102c0 55.333 8.66797 107.999 26.001 157.999l8 8l10 -3c38 -54.667 86 -82 144 -82c60.667 0 116 10.667 166 32c59.333 30 89 72.667 89 128c0 112 -21.333 239.333 -64 382l3 21l64 88l9 -9c18 -76.667 35.667 -170.667 53 -282c10 -62 18.333 -124.667 25 -188
c17.333 -91.333 35.333 -147.666 54 -168.999c23.333 -24 61.666 -36 114.999 -36h31v-150c-86 -0 -146.667 18.333 -182 55c-22 24.667 -49 83.667 -81 177c-49.333 -71.333 -95.333 -121.333 -138 -150c-52.667 -36 -118 -54 -196 -54c-90.667 0 -136 24.667 -136 74z
M425.001 953.999l2.00098 1.99805c14.667 -3.33301 30.667 -5 48 -5c14.667 0 27.334 4.83301 38.001 14.5s16 21.834 16 36.501c0 42.667 -4.66699 91.334 -14 146.001c-2.66699 12.667 -5 25.334 -7 38.001c-3.33301 14.667 -5 27 -5 37c0 6 1.66699 13.333 5 22
c3.33301 9.33301 7 15.666 11 18.999c3.33301 -2.66699 8.66602 -9 15.999 -19s12.333 -17 15 -21c-4 -5.33301 -7.33301 -10.333 -10 -15c-4.66699 -6 -7 -12 -7 -18s1 -14.667 3 -26c2.66699 -11.333 4 -20 4 -26l6 -137c24.667 22 42.667 37 54 45
c24.667 16.667 45.667 25 63 25c13.333 0 25 -4.33301 35 -13s15 -19.667 15 -33c0 -63.333 -60.667 -102 -182 -116c-28.667 -3.33301 -49.334 -5 -62.001 -5c-6.66699 0 -15 5.66699 -25 17c-8.66699 9.33301 -15 18.333 -19 27v5zM520.002 951.997
c30.667 0 61.001 3.33203 91.001 9.99902c44 10 66 24.667 66 44c0 7.33301 -4.66699 13 -14 17c-7.33301 4 -15 6 -23 6c-16.667 0 -38 -9.33301 -64 -28c-6.66699 -5.33301 -25.334 -21.666 -56.001 -48.999z" />
    <glyph glyph-name="afii62962" unicode="&#x698;" horiz-adv-x="861" arabic-form="final" 
d="M30 -364c0 14.667 12.667 22.001 38 22.001c91.333 0 150.666 2.66699 177.999 8c74.667 14 158.334 57 251.001 129c100.667 78.667 151 151.667 151 219c0 18.667 -13.667 44.667 -41 78c-29.333 35.333 -44.666 57.333 -45.999 66c42 87.333 66.667 133 74 137
c14 -16 23.667 -29 29 -39c34.667 -48.667 64 -79.334 88 -92.001c21.333 -9.33301 63 -14 125 -14v-150h-42c-46.667 -1.33301 -92.334 12.667 -137.001 42c2 -10 3 -21.333 3 -34c0 -88.667 -47 -185 -141 -289c-87.333 -95.333 -174 -157.333 -260 -186l-148 43
c-81.333 26 -122 46 -122 60zM423 418.001l-108 108l107 103l107 -107zM524 635.001l-107 107l106 104l105 -106zM640 428.001l-110 109l105 102l107 -107z" />
    <glyph glyph-name="uniFB8D" unicode="&#x691;" horiz-adv-x="861" arabic-form="final" 
d="M30 -364c0 14.667 12.667 22.001 38 22.001c91.333 0 150.666 2.66699 177.999 8c74.667 14 158.334 57 251.001 129c100.667 78.667 151 151.667 151 219c0 18.667 -13.667 44.667 -41 78c-29.333 35.333 -44.666 57.333 -45.999 66c42 87.333 66.667 133 74 137
c14 -16 23.667 -29 29 -39c34.667 -48.667 64 -79.334 88 -92.001c21.333 -9.33301 63 -14 125 -14v-150h-42c-46.667 -1.33301 -92.334 12.667 -137.001 42c2 -10 3 -21.333 3 -34c0 -88.667 -47 -185 -141 -289c-87.333 -95.333 -174 -157.333 -260 -186l-148 43
c-81.333 26 -122 46 -122 60zM436 453.001l2.00098 1.99805c14.667 -3.33301 30.667 -5 48 -5c14.667 0 27.334 4.83301 38.001 14.5s16 21.834 16 36.501c0 42.667 -4.66699 91.334 -14 146.001c-2.66699 12.667 -5 25.334 -7 38.001c-3.33301 14.667 -5 27 -5 37
c0 6 1.66699 13.333 5 22c3.33301 9.33301 7 15.666 11 18.999c3.33301 -2.66699 8.66602 -9 15.999 -19s12.333 -17 15 -21c-4 -5.33301 -7.33301 -10.333 -10 -15c-4.66699 -6 -7 -12 -7 -18s1 -14.667 3 -26c2.66699 -11.333 4 -20 4 -26l6 -137
c24.667 22 42.667 37 54 45c24.667 16.667 45.667 25 63 25c13.333 0 25 -4.33301 35 -13s15 -19.667 15 -33c0 -63.333 -60.667 -102 -182 -116c-28.667 -3.33301 -49.334 -5 -62.001 -5c-6.66699 0 -15 5.66699 -25 17c-8.66699 9.33301 -15 18.333 -19 27v5z
M531.001 450.999c30.667 0 61.001 3.33203 91.001 9.99902c44 10 66 24.667 66 44c0 7.33301 -4.66699 13 -14 17c-7.33301 4 -15 6 -23 6c-16.667 0 -38 -9.33301 -64 -28c-6.66699 -5.33301 -25.334 -21.666 -56.001 -48.999z" />
    <glyph glyph-name="afii62964" unicode="&#x6a9;" horiz-adv-x="1982" arabic-form="final" 
d="M104 256c0 49.333 8.33398 96.999 25.001 142.999c22 56.667 52.667 92.334 92 107.001l8 -8c-3.33301 -13.333 -13 -37.333 -29 -72c-16 -28.667 -24 -54 -24 -76c0 -86 72.333 -147.333 217 -184c91.333 -23.333 199 -35 323 -35c407.333 0 611 82.667 611 248
c0 31.333 -33 65.333 -99 102c-100.667 54.667 -162 92 -184 112c-65.333 54.667 -98 119.667 -98 195c0 27.333 4.66699 50 14 68c37.333 67.333 177.333 166.333 420 297c235.333 125.333 397.666 192.333 486.999 201l5 -7c-12 -88.667 -24.667 -137 -38 -145
c-70 -19.333 -140.667 -41.333 -212 -66c-226.667 -92 -396.667 -180.667 -510 -266c-65.333 -48 -103 -81 -113 -99c2.66699 -7.33301 8.33398 -13.666 17.001 -18.999c184.667 -102 289 -160.667 313 -176c105.333 -65.333 249 -176 431 -332
c73.333 -62.667 128.666 -94 165.999 -94h66v-150c-64 0 -107.667 4.16699 -131 12.5s-58.666 33.166 -105.999 74.499l-184 169c-87.333 82 -149 131 -185 147c-7.33301 -16 -13.833 -44.5 -19.5 -85.5s-12.834 -70.167 -21.501 -87.5
c-48 -106 -147.333 -177.667 -298 -215c-90 -20 -218.667 -30 -386 -30c-371.333 0 -557 90.333 -557 271z" />
    <glyph glyph-name="afii52305" unicode="&#x6a9;" horiz-adv-x="697" arabic-form="initial" 
d="M-24 150c72.667 -0.666992 102.333 -1 89 -1c226.667 0 340 42.333 340 127c0 44.667 -82.333 142.334 -247 293.001l-74 66c-23.333 33.333 -35 76.666 -35 129.999c0 40.667 10 72.667 30 96c51.333 45.333 91.333 78 120 98c250 194 504.667 323.333 764 388l16 4
c-12.667 -98 -25.667 -151.667 -39 -161c-96 -35.333 -180.667 -64.333 -254 -87c-244 -90 -436 -193.333 -576 -310l-8 -14c8.66699 -18 45.667 -54 111 -108c80.667 -66 137 -115.667 169 -149c56.667 -61.333 85 -113 85 -155c0 -244.667 -117.333 -367 -352 -367h-139
v150z" />
    <glyph glyph-name="afii52306" unicode="&#x6a9;" horiz-adv-x="1088" arabic-form="medial" 
d="M-21 150c8 0 28.002 -0.332031 60.002 -0.999023h74c238.667 0 358 54.667 358 164c0 55.333 -35 106 -105 152l-196 119c-70 56 -105 123.667 -105 203c0 81.333 130.333 192.333 391 333c221.333 120 394.666 195.667 519.999 227l11 -16c-8 -86 -19 -133 -33 -141
c-64 -24.667 -115.667 -41.334 -155 -50.001c-111.333 -38.667 -204.666 -75.667 -279.999 -111c-244 -116 -380.667 -201.333 -410 -256l13 -16c205.333 -100 362.333 -195.333 471 -286l272 -227c49.333 -39.333 85.333 -64 108 -74
c29.333 -13.333 72.666 -20 129.999 -20v-150h-89c-43.333 0 -125.333 54.667 -246 164c-140 124 -221.333 192.333 -244 205l-5 -11c4 -20 3.33301 -60 -2 -120c-16.667 -158.667 -135.334 -238 -356.001 -238h-182v150z" />
    <glyph glyph-name="afii62967" unicode="&#x6af;" horiz-adv-x="1971" arabic-form="final" 
d="M93 256c0 49.333 8.99805 96.999 26.998 142.999c22 56.667 51.667 92.334 89 107.001l9 -8c-2 -13.333 -11.667 -37.333 -29 -72c-14.667 -28.667 -22 -54 -22 -76c0 -86 71.667 -147.333 215 -184c92.667 -23.333 201 -35 325 -35c406.667 0 610 82.667 610 248
c0 31.333 -32.667 65.333 -98 102c-101.333 54.667 -163 92 -185 112c-66 54.667 -99 119.667 -99 195c0 27.333 5.33301 50 16 68c36.667 67.333 176.667 166.333 420 297c234.667 125.333 396.334 192.333 485.001 201l7 -7c-13.333 -88.667 -26.666 -137 -39.999 -145
c-66.667 -22 -137 -44 -211 -66c-226 -92 -395.667 -180.667 -509 -266c-66.667 -48 -104.667 -81 -114 -99c2.66699 -7.33301 8.33398 -13.666 17.001 -18.999c184 -102 288.667 -160.667 314 -176c105.333 -65.333 248.666 -176 429.999 -332
c74 -62.667 129.333 -94 166 -94h64v-150c-64 0 -107.5 4.16699 -130.5 12.5s-57.5 33.166 -103.5 74.499l-184 169c-87.333 82 -149 131 -185 147c-8.66699 -16 -15.667 -44.5 -21 -85.5s-12 -70.167 -20 -87.5c-50 -106 -150 -177.667 -300 -215
c-90.667 -20 -219 -30 -385 -30c-372 0 -558 90.333 -558 271zM925.998 1074c228 191.333 507.665 357 838.998 497c58.667 24 97.334 38.667 116.001 44l9 -8c-13.333 -49.333 -35.666 -99.333 -66.999 -150c-341.333 -124 -640.333 -278.667 -897 -464v81z" />
    <glyph glyph-name="afii62965" unicode="&#x6af;" horiz-adv-x="701" arabic-form="initial" 
d="M-15 150c72 -0.666992 101.001 -1 87.001 -1c227.333 0 341 42.333 341 127c0 44.667 -82.333 142.334 -247 293.001l-74 66c-23.333 33.333 -35 76.666 -35 129.999c0 40.667 10 72.667 30 96c49.333 45.333 88.666 78 117.999 98c251.333 194 507 323.333 767 388
l9 -16c-8.66699 -84.667 -19.667 -131.667 -33 -141c-96 -35.333 -180.667 -64.333 -254 -87c-244 -90 -435.667 -193.333 -575 -310l-9 -14c8.66699 -18 45.667 -54 111 -108c80.667 -66 137 -115.667 169 -149c56 -61.333 84 -113 84 -155c0 -244.667 -117 -367 -351 -367
h-138v150zM45.001 1064c132 114 281 219.668 447 317.001c175.333 104.667 340 182 494 232l9 2l6 -8c-5.33301 -41.333 -24 -91.333 -56 -150c-386 -150.667 -686 -308.334 -900 -473.001v80z" />
    <glyph glyph-name="afii62966" unicode="&#x6af;" horiz-adv-x="1085" arabic-form="medial" 
d="M-24 150c8 0 28.001 -0.332031 60.001 -0.999023h74c238.667 0 358 54.667 358 164c0 55.333 -35 106 -105 152l-196 119c-70 56 -105 123.667 -105 203c0 81.333 130.333 192.333 391 333c221.333 120 394.666 195.667 519.999 227l11 -16c-8 -86 -19 -133 -33 -141
c-64 -24.667 -115.667 -41.334 -155 -50.001c-111.333 -38.667 -204.666 -75.667 -279.999 -111c-244 -116 -381 -201.333 -411 -256l14 -16c205.333 -100 362.333 -195.333 471 -286l272 -227c48.667 -39.333 84.667 -64 108 -74c29.333 -13.333 72.333 -20 129 -20v-150
h-88c-43.333 0 -125.333 54.667 -246 164c-140 124 -221.333 192.333 -244 205l-5 -11c4 -20 3.33301 -60 -2 -120c-16.667 -158.667 -135.334 -238 -356.001 -238h-182v150zM49.001 1064c131.333 114 279.667 219.668 445 317.001c176 104.667 340.333 182 493 232l11 2
l7 -8c-8 -41.333 -27.667 -91.333 -59 -150c-384.667 -150.667 -683.667 -308.334 -897 -473.001v80z" />
    <glyph glyph-name="uniFB97" unicode="&#x6b3;" horiz-adv-x="1971" arabic-form="final" 
d="M93 256c0 49.333 8.99805 96.999 26.998 142.999c22 56.667 51.667 92.334 89 107.001l9 -8c-2 -13.333 -11.667 -37.333 -29 -72c-14.667 -28.667 -22 -54 -22 -76c0 -86 71.667 -147.333 215 -184c92.667 -23.333 201 -35 325 -35c406.667 0 610 82.667 610 248
c0 31.333 -32.667 65.333 -98 102c-101.333 54.667 -163 92 -185 112c-66 54.667 -99 119.667 -99 195c0 27.333 5.33301 50 16 68c36.667 67.333 176.667 166.333 420 297c234.667 125.333 396.334 192.333 485.001 201l7 -7c-13.333 -88.667 -26.666 -137 -39.999 -145
c-66.667 -22 -137 -44 -211 -66c-226 -92 -395.667 -180.667 -509 -266c-66.667 -48 -104.667 -81 -114 -99c2.66699 -7.33301 8.33398 -13.666 17.001 -18.999c184 -102 288.667 -160.667 314 -176c105.333 -65.333 248.666 -176 429.999 -332
c74 -62.667 129.333 -94 166 -94h64v-150c-64 0 -107.5 4.16699 -130.5 12.5s-57.5 33.166 -103.5 74.499l-184 169c-87.333 82 -149 131 -185 147c-8.66699 -16 -15.667 -44.5 -21 -85.5s-12 -70.167 -20 -87.5c-50 -106 -150 -177.667 -300 -215
c-90.667 -20 -219 -30 -385 -30c-372 0 -558 90.333 -558 271zM925.998 1074c228 191.333 507.665 357 838.998 497c58.667 24 97.334 38.667 116.001 44l9 -8c-13.333 -49.333 -35.666 -99.333 -66.999 -150c-341.333 -124 -640.333 -278.667 -897 -464v81z
M536.996 -461.001l104 104l103 -103l-104 -103zM536.996 -256.001l104 104l103 -103l-104 -103z" />
    <glyph glyph-name="uniFB98" unicode="&#x6b3;" horiz-adv-x="701" arabic-form="initial" 
d="M-15 150c72 -0.666992 101.001 -1 87.001 -1c227.333 0 341 42.333 341 127c0 44.667 -82.333 142.334 -247 293.001l-74 66c-23.333 33.333 -35 76.666 -35 129.999c0 40.667 10 72.667 30 96c49.333 45.333 88.666 78 117.999 98c251.333 194 507 323.333 767 388
l9 -16c-8.66699 -84.667 -19.667 -131.667 -33 -141c-96 -35.333 -180.667 -64.333 -254 -87c-244 -90 -435.667 -193.333 -575 -310l-9 -14c8.66699 -18 45.667 -54 111 -108c80.667 -66 137 -115.667 169 -149c56 -61.333 84 -113 84 -155c0 -244.667 -117 -367 -351 -367
h-138v150zM45.001 1064c132 114 281 219.668 447 317.001c175.333 104.667 340 182 494 232l9 2l6 -8c-5.33301 -41.333 -24 -91.333 -56 -150c-386 -150.667 -686 -308.334 -900 -473.001v80zM248.001 -443.999l104 104l103 -103l-104 -103zM248.001 -238.999l104 104
l103 -103l-104 -103z" />
    <glyph glyph-name="uniFB99" unicode="&#x6b3;" horiz-adv-x="1085" arabic-form="medial" 
d="M-24 150c8 0 28.001 -0.332031 60.001 -0.999023h74c238.667 0 358 54.667 358 164c0 55.333 -35 106 -105 152l-196 119c-70 56 -105 123.667 -105 203c0 81.333 130.333 192.333 391 333c221.333 120 394.666 195.667 519.999 227l11 -16c-8 -86 -19 -133 -33 -141
c-64 -24.667 -115.667 -41.334 -155 -50.001c-111.333 -38.667 -204.666 -75.667 -279.999 -111c-244 -116 -381 -201.333 -411 -256l14 -16c205.333 -100 362.333 -195.333 471 -286l272 -227c48.667 -39.333 84.667 -64 108 -74c29.333 -13.333 72.333 -20 129 -20v-150
h-88c-43.333 0 -125.333 54.667 -246 164c-140 124 -221.333 192.333 -244 205l-5 -11c4 -20 3.33301 -60 -2 -120c-16.667 -158.667 -135.334 -238 -356.001 -238h-182v150zM49.001 1064c131.333 114 279.667 219.668 445 317.001c176 104.667 340.333 182 493 232l11 2
l7 -8c-8 -41.333 -27.667 -91.333 -59 -150c-384.667 -150.667 -683.667 -308.334 -897 -473.001v80zM495.002 -445.998l104 104l103 -103l-104 -103zM495.002 -240.998l104 104l103 -103l-104 -103z" />
    <glyph glyph-name="uniFB9B" unicode="&#x6b1;" horiz-adv-x="1971" arabic-form="final" 
d="M93 256c0 49.333 8.99805 96.999 26.998 142.999c22 56.667 51.667 92.334 89 107.001l9 -8c-2 -13.333 -11.667 -37.333 -29 -72c-14.667 -28.667 -22 -54 -22 -76c0 -86 71.667 -147.333 215 -184c92.667 -23.333 201 -35 325 -35c406.667 0 610 82.667 610 248
c0 31.333 -32.667 65.333 -98 102c-101.333 54.667 -163 92 -185 112c-66 54.667 -99 119.667 -99 195c0 27.333 5.33301 50 16 68c36.667 67.333 176.667 166.333 420 297c234.667 125.333 396.334 192.333 485.001 201l7 -7c-13.333 -88.667 -26.666 -137 -39.999 -145
c-66.667 -22 -137 -44 -211 -66c-226 -92 -395.667 -180.667 -509 -266c-66.667 -48 -104.667 -81 -114 -99c2.66699 -7.33301 8.33398 -13.666 17.001 -18.999c184 -102 288.667 -160.667 314 -176c105.333 -65.333 248.666 -176 429.999 -332
c74 -62.667 129.333 -94 166 -94h64v-150c-64 0 -107.5 4.16699 -130.5 12.5s-57.5 33.166 -103.5 74.499l-184 169c-87.333 82 -149 131 -185 147c-8.66699 -16 -15.667 -44.5 -21 -85.5s-12 -70.167 -20 -87.5c-50 -106 -150 -177.667 -300 -215
c-90.667 -20 -219 -30 -385 -30c-372 0 -558 90.333 -558 271zM925.998 1074c228 191.333 507.665 357 838.998 497c58.667 24 97.334 38.667 116.001 44l9 -8c-13.333 -49.333 -35.666 -99.333 -66.999 -150c-341.333 -124 -640.333 -278.667 -897 -464v81zM1024 1674
l113 -113l-109 -111l-115 114zM1241 1683l111 -110l-107 -112l-114 114z" />
    <glyph glyph-name="uniFB9C" unicode="&#x6b1;" horiz-adv-x="701" arabic-form="initial" 
d="M-15 150c72 -0.666992 101.001 -1 87.001 -1c227.333 0 341 42.333 341 127c0 44.667 -82.333 142.334 -247 293.001l-74 66c-23.333 33.333 -35 76.666 -35 129.999c0 40.667 10 72.667 30 96c49.333 45.333 88.666 78 117.999 98c251.333 194 507 323.333 767 388
l9 -16c-8.66699 -84.667 -19.667 -131.667 -33 -141c-96 -35.333 -180.667 -64.333 -254 -87c-244 -90 -435.667 -193.333 -575 -310l-9 -14c8.66699 -18 45.667 -54 111 -108c80.667 -66 137 -115.667 169 -149c56 -61.333 84 -113 84 -155c0 -244.667 -117 -367 -351 -367
h-138v150zM45.001 1064c132 114 281 219.668 447 317.001c175.333 104.667 340 182 494 232l9 2l6 -8c-5.33301 -41.333 -24 -91.333 -56 -150c-386 -150.667 -686 -308.334 -900 -473.001v80zM242.001 1680l113 -113l-109 -111l-115 114zM459.001 1689l111 -110l-107 -112
l-114 114z" />
    <glyph glyph-name="uniFB9D" unicode="&#x6b1;" horiz-adv-x="1085" arabic-form="medial" 
d="M-24 150c8 0 28.001 -0.332031 60.001 -0.999023h74c238.667 0 358 54.667 358 164c0 55.333 -35 106 -105 152l-196 119c-70 56 -105 123.667 -105 203c0 81.333 130.333 192.333 391 333c221.333 120 394.666 195.667 519.999 227l11 -16c-8 -86 -19 -133 -33 -141
c-64 -24.667 -115.667 -41.334 -155 -50.001c-111.333 -38.667 -204.666 -75.667 -279.999 -111c-244 -116 -381 -201.333 -411 -256l14 -16c205.333 -100 362.333 -195.333 471 -286l272 -227c48.667 -39.333 84.667 -64 108 -74c29.333 -13.333 72.333 -20 129 -20v-150
h-88c-43.333 0 -125.333 54.667 -246 164c-140 124 -221.333 192.333 -244 205l-5 -11c4 -20 3.33301 -60 -2 -120c-16.667 -158.667 -135.334 -238 -356.001 -238h-182v150zM49.001 1064c131.333 114 279.667 219.668 445 317.001c176 104.667 340.333 182 493 232l11 2
l7 -8c-8 -41.333 -27.667 -91.333 -59 -150c-384.667 -150.667 -683.667 -308.334 -897 -473.001v80zM219.002 1687l113 -113l-109 -111l-115 114zM436.002 1696l111 -110l-107 -112l-114 114z" />
    <glyph glyph-name="uniFB9F" unicode="&#x6ba;" horiz-adv-x="1126" arabic-form="final" 
d="M98 -259c0 48.667 11.8359 105.83 35.5029 171.497s58.834 124.834 105.501 177.501l14 -13c-53.333 -88 -82.333 -172.333 -87 -253c0 -82.667 40.333 -144 121 -184c61.333 -28.667 137.666 -43 228.999 -43c254 0 381 97.667 381 293c0 63.333 -2 104 -6 122
c-6 32 -24 69.667 -54 113c30 80.667 49 125.334 57 134.001l5 -3c27.333 -27.333 55.666 -54 84.999 -80c24 -17.333 63 -26 117 -26h42v-150h-30c-74.667 -1.33301 -124 7.66699 -148 27c0 -189.333 -36.667 -330.666 -110 -423.999
c-82.667 -105.333 -215.334 -158 -398.001 -158c-102.667 0 -186.334 23 -251.001 69c-72 54 -108 129.667 -108 227z" />
    <glyph glyph-name="uniFBA1" unicode="&#x6bb;" horiz-adv-x="1126" arabic-form="final" 
d="M98 -259c0 48.667 11.8359 105.83 35.5029 171.497s58.834 124.834 105.501 177.501l14 -13c-53.333 -88 -82.333 -172.333 -87 -253c0 -82.667 40.333 -144 121 -184c61.333 -28.667 137.666 -43 228.999 -43c254 0 381 97.667 381 293c0 63.333 -2 104 -6 122
c-6 32 -24 69.667 -54 113c30 80.667 49 125.334 57 134.001l5 -3c27.333 -27.333 55.666 -54 84.999 -80c24 -17.333 63 -26 117 -26h42v-150h-30c-74.667 -1.33301 -124 7.66699 -148 27c0 -189.333 -36.667 -330.666 -110 -423.999
c-82.667 -105.333 -215.334 -158 -398.001 -158c-102.667 0 -186.334 23 -251.001 69c-72 54 -108 129.667 -108 227zM409.003 318.996l2.00098 1.99805c14.667 -3.33301 30.667 -5 48 -5c14.667 0 27.334 4.83301 38.001 14.5s16 21.834 16 36.501
c0 42.667 -4.66699 91.334 -14 146.001c-2.66699 12.667 -5 25.334 -7 38.001c-3.33301 14.667 -5 27 -5 37c0 6 1.66699 13.333 5 22c3.33301 9.33301 7 15.666 11 18.999c3.33301 -2.66699 8.66602 -9 15.999 -19s12.333 -17 15 -21c-4 -5.33301 -7.33301 -10.333 -10 -15
c-4.66699 -6 -7 -12 -7 -18s1 -14.667 3 -26c2.66699 -11.333 4 -20 4 -26l6 -137c24.667 22 42.667 37 54 45c24.667 16.667 45.667 25 63 25c13.333 0 25 -4.33301 35 -13s15 -19.667 15 -33c0 -63.333 -60.667 -102 -182 -116c-28.667 -3.33301 -49.334 -5 -62.001 -5
c-6.66699 0 -15 5.66699 -25 17c-8.66699 9.33301 -15 18.333 -19 27v5zM504.004 316.994c30.667 0 61.001 3.33203 91.001 9.99902c44 10 66 24.667 66 44c0 7.33301 -4.66699 13 -14 17c-7.33301 4 -15 6 -23 6c-16.667 0 -38 -9.33301 -64 -28
c-6.66699 -5.33301 -25.334 -21.666 -56.001 -48.999z" />
    <glyph glyph-name="uniFBA4" unicode="&#x6c0;" horiz-adv-x="581" arabic-form="isolated" 
d="M127 183c0 48.667 18.332 117 54.999 205c42.667 97.333 84.334 146 125.001 146c64 0 118.333 -32.333 163 -97c38 -58.667 57 -121.667 57 -189c0 -74.667 -16 -134.667 -48 -180c-37.333 -52.667 -92 -79 -164 -79c-125.333 0 -188 64.667 -188 194zM198.999 219
c0 -51.333 36.668 -77 110.001 -77h27c27.333 0 52 5.66699 74 17c26.667 16 40 36 40 60c0 31.333 -18 60.333 -54 87c-36 24 -70.333 36 -103 36c-24.667 0 -47.334 -14 -68.001 -42c-17.333 -27.333 -26 -54.333 -26 -81zM167 671c34 18 60.001 31.334 78.001 40.001
c-32 31.333 -48 61 -48 89c0 25.333 13.833 54.833 41.5 88.5s54.167 50.5 79.5 50.5c11.333 0 23.833 -4.83301 37.5 -14.5s20.5 -20.834 20.5 -33.501c0 -8 -5 -20.667 -15 -38l-7 -6c-21.333 16 -41.333 24 -60 24c-16 0 -28.667 -14 -38 -42c0 -14 12 -32.167 36 -54.5
s44 -33.5 60 -33.5c4 0 34 6.33301 90 19l8 -6v-53c-0.666992 -4.66699 -2.33398 -8.66699 -5.00098 -12l-271 -53l-7 6l-3 17z" />
    <glyph glyph-name="uniFBA5" unicode="&#x6c0;" horiz-adv-x="719" arabic-form="final" 
d="M112 218c0 59.333 35.334 123.333 106.001 192c59.333 58 122.666 100.333 189.999 127l-12 78l49 66l14 4l6 -8c3.33301 -64 7 -128.333 11 -193c6.66699 -98.667 21 -174.667 43 -228c28 -71.333 71 -107 129 -107c45.333 0.666992 72.666 1 81.999 1v-150
c-89.333 0 -154.833 17 -196.5 51s-73.5 94.333 -95.5 181c-54 -69.333 -89 -104 -105 -104c-47.333 0 -91.666 5 -132.999 15c-58.667 18 -88 43 -88 75zM232.001 322c0 -26 54.667 -38.999 164 -38.999h34l-12 154c-26 -7.33301 -61 -23 -105 -47
c-54 -28.667 -81 -51.334 -81 -68.001zM124.001 768.001c34 18 60.001 31.334 78.001 40.001c-32 31.333 -48 61 -48 89c0 25.333 13.833 54.833 41.5 88.5s54.167 50.5 79.5 50.5c11.333 0 23.833 -4.83301 37.5 -14.5s20.5 -20.834 20.5 -33.501c0 -8 -5 -20.667 -15 -38
l-7 -6c-21.333 16 -41.333 24 -60 24c-16 0 -28.667 -14 -38 -42c0 -14 12 -32.167 36 -54.5s44 -33.5 60 -33.5c4 0 34 6.33301 90 19l8 -6v-53c-0.666992 -4.66699 -2.33398 -8.66699 -5.00098 -12l-271 -53l-7 6l-3 17z" />
    <glyph glyph-name="uniFBA6" unicode="&#x6c1;" horiz-adv-x="581" arabic-form="isolated" 
d="M127 183c0 48.667 18.332 117 54.999 205c42.667 97.333 84.334 146 125.001 146c64 0 118.333 -32.333 163 -97c38 -58.667 57 -121.667 57 -189c0 -74.667 -16 -134.667 -48 -180c-37.333 -52.667 -92 -79 -164 -79c-125.333 0 -188 64.667 -188 194zM198.999 219
c0 -51.333 36.668 -77 110.001 -77h27c27.333 0 52 5.66699 74 17c26.667 16 40 36 40 60c0 31.333 -18 60.333 -54 87c-36 24 -70.333 36 -103 36c-24.667 0 -47.334 -14 -68.001 -42c-17.333 -27.333 -26 -54.333 -26 -81z" />
    <glyph glyph-name="uniFBA8" unicode="&#x6c1;" horiz-adv-x="334" arabic-form="initial" 
d="M156 -344c-28.667 0 -51.333 14 -68 42c-15.333 24 -23 50.667 -23 80c0 11.333 1.33301 23.333 4 36c10.667 63.333 38.334 109 83.001 137c0 0.666992 0.333008 1 1 1c6.66699 0 10 -4.66699 10 -14c0 -2.66699 -0.333008 -4.66699 -1 -6
c-17.333 -21.333 -27.333 -34.333 -30 -39c-10.667 -15.333 -18.334 -34 -23.001 -56c-6 -23.333 -3 -49 9 -77c14 11.333 29.333 17 46 17c36.667 0 55 -19.667 55 -59c0 -41.333 -21 -62 -63 -62zM-5.99902 150c177.333 -0.666992 266 26 266 80c0 29.333 -31 83 -93 161
l65 120c6 12.667 13 13.334 21 2.00098c50 -82 75 -155.333 75 -220c0 -76.667 -24 -144.334 -72 -203.001c-53.333 -60 -117 -90 -191 -90h-71v150z" />
    <glyph glyph-name="uniFBA9" unicode="&#x6c1;" horiz-adv-x="770" arabic-form="medial" 
d="M780 150c10 -13.333 16.165 -26.168 18.498 -38.501s2.83301 -24.5 1.5 -36.5s-4 -24.167 -8 -36.5l-12 -38.5c-42.667 0 -83.667 18.167 -123 54.5s-70.666 54.5 -93.999 54.5c-51.333 6.66699 -100.666 -8.33301 -147.999 -45s-37.666 -111 29.001 -223l-102 -92
c-72.667 84.667 -110.334 210.334 -113.001 377.001c-17.333 -34 -49.166 -63.5 -95.499 -88.5s-88.5 -37.5 -126.5 -37.5h-25c-5.33301 14 -9.83301 27.167 -13.5 39.5s-5.83398 24.5 -6.50098 36.5s0.5 24 3.5 36s8.5 24.667 16.5 38h33c56 0 105.833 20.333 149.5 61
s101.834 153 174.501 337l98 -98c-105.333 -177.333 -139 -311 -101 -401c17.333 55.333 45.833 105 85.5 149s84.167 66 133.5 66c42 0 81.167 -19 117.5 -57s72.166 -57 107.499 -57z" />
    <glyph glyph-name="uniFBAB" unicode="&#x6be;" horiz-adv-x="964" arabic-form="final" 
d="M109 130c140 10 234.331 23.333 282.998 40c13.333 72.667 43.666 155 90.999 247c58 113.333 113.667 170 167 170c34.667 0 60 -22 76 -66c12 -30 18 -65.333 18 -106c0 -80 -15.333 -144.667 -46 -194c-31.333 -43.333 -82.666 -85.333 -153.999 -126
c180 36.667 306.333 55 379 55h53v-150h-157c-54.667 3.33301 -100.667 -1.33398 -138 -14.001c53.333 -45.333 80 -101.666 80 -168.999c0 -140.667 -48 -211 -144 -211c-89.333 0 -151.666 50 -186.999 150l-65 259c-55.333 -10 -104 -13 -146 -9
c-10 0 -21.833 3.5 -35.5 10.5s-26.5 16.333 -38.5 28s-21.667 25 -29 40s-9.66602 30.167 -6.99902 45.5zM449.998 -35c18 -157.333 74.667 -236 170 -236c56 0 84 30.667 84 92c0 37.333 -33.667 72 -101 104c-57.333 26 -108.333 39.333 -153 40zM445.998 185
c148.667 35.333 223.001 79.333 223.001 132c0 24 -4 46 -12 66c-13.333 27.333 -30 41 -50 41c-44.667 0 -98.334 -79.667 -161.001 -239z" />
    <glyph glyph-name="uniFBAC" unicode="&#x6be;" horiz-adv-x="790" arabic-form="initial" 
d="M-18 150c141.333 -0.666992 226.666 13 255.999 41c-53.333 41.333 -80 83 -80 125c0 75.333 66.333 163 199 263l-88 63c32 64 59 104.333 81 121c38.667 -24 68.667 -45.667 90 -65c216.667 -186.667 325 -346.667 325 -480c0 -40 -7.66699 -76 -23 -108
c-19.333 -40.667 -47 -61 -83 -61c-51.333 0 -157 27.667 -317 83c-135.333 -88 -233.666 -132 -294.999 -132h-65v150zM447 224c125.333 -40 193.333 -60 204 -60c29.333 0 44 15 44 45s-26.667 74.667 -80 134c-48 57.333 -88.333 95.333 -121 114
c6.66699 -24.667 10 -46.667 10 -66c0 -84 -19 -139.667 -57 -167zM233 349c0 -18 15.834 -37.499 47.501 -58.499s57.167 -31.5 76.5 -31.5c13.333 0 30.166 9.16699 50.499 27.5s30.5 34.166 30.5 47.499c0 77.333 -22 116 -66 116c-20 0 -48.167 -11.833 -84.5 -35.5
s-54.5 -45.5 -54.5 -65.5z" />
    <glyph glyph-name="uniFBAD" unicode="&#x6be;" horiz-adv-x="792" arabic-form="medial" 
d="M-18 150c106.667 -3.33301 184.332 3.33301 232.999 20c13.333 72.667 43.666 155 90.999 247c58 113.333 113.667 170 167 170c34.667 0 60 -22 76 -66c12 -30 18 -65.333 18 -106c0 -80 -15.333 -144.667 -46 -194c-31.333 -43.333 -82.666 -85.333 -153.999 -126
c180 36.667 306.333 55 379 55h53v-150h-157c-54.667 3.33301 -100.667 -1.33398 -138 -14.001c53.333 -45.333 80 -101.666 80 -168.999c0 -140.667 -48 -211 -144 -211c-89.333 0 -151.666 50 -186.999 150l-65 259c-55.333 -10 -104 -15 -146 -15h-60v150z
M272.998 -35.001c18 -157.333 74.667 -236 170 -236c56 0 84 30.667 84 92c0 37.333 -33.667 72 -101 104c-57.333 26 -108.333 39.333 -153 40zM268.998 184.999c148.667 35.333 223.001 79.333 223.001 132c0 24 -4 46 -12 66c-13.333 27.333 -30 41 -50 41
c-44.667 0 -98.334 -79.667 -161.001 -239z" />
    <glyph glyph-name="uniFBAF" unicode="&#x6d2;" horiz-adv-x="932" arabic-form="final" 
d="M952 0l-209.997 -0.00195312c-58.667 0 -104.834 -0.333008 -138.501 -1s-64.667 -1.66699 -93 -3s-52.833 -3.33301 -73.5 -6s-39.167 -5.83398 -55.5 -9.50098s-33.5 -8.16699 -51.5 -13.5c-23.333 -7.33301 -50.333 -17.166 -81 -29.499s-52.167 -24 -64.5 -35
s-18.5 -20.833 -18.5 -29.5c0 -10.667 5.66699 -20.834 17 -30.501s31 -18.167 59 -25.5s61.667 -11.666 101 -12.999s95 -2 167 -2c54 0 114.833 1.5 182.5 4.5s144.5 7.5 230.5 13.5l-37 -88c-15.333 -36 -39 -55 -71 -57
c-79.333 -5.33301 -133.833 -8.66602 -163.5 -9.99902s-58.834 -2.83301 -87.501 -4.5s-57.667 -2.66699 -87 -3s-62 -0.5 -98 -0.5c-112 0 -195.667 9.5 -251 28.5s-83 49.833 -83 92.5c0 24 6.16699 48.333 18.5 73s26.333 47.834 42 69.501l37 50
c9 11.667 23.167 27.667 42.5 48s46.666 42.666 81.999 66.999s68 39.833 98 46.5s62.333 11.334 97 14.001s73 4 115 4h375v-150z" />
    <glyph glyph-name="unifbb1" unicode="&#x6d3;" horiz-adv-x="924" arabic-form="final" 
d="M952 0l-209.997 -0.00195312c-58.667 0 -104.834 -0.333008 -138.501 -1s-64.667 -1.66699 -93 -3s-52.833 -3.33301 -73.5 -6s-39.167 -5.83398 -55.5 -9.50098s-33.5 -8.16699 -51.5 -13.5c-23.333 -7.33301 -50.333 -17.166 -81 -29.499s-52.167 -24 -64.5 -35
s-18.5 -20.833 -18.5 -29.5c0 -10.667 5.66699 -20.834 17 -30.501s31 -18.167 59 -25.5s61.667 -11.666 101 -12.999s95 -2 167 -2c54 0 114.833 1.5 182.5 4.5s144.5 7.5 230.5 13.5l-37 -88c-15.333 -36 -39 -55 -71 -57
c-79.333 -5.33301 -133.833 -8.66602 -163.5 -9.99902s-58.834 -2.83301 -87.501 -4.5s-57.667 -2.66699 -87 -3s-62 -0.5 -98 -0.5c-112 0 -195.667 9.5 -251 28.5s-83 49.833 -83 92.5c0 24 6.16699 48.333 18.5 73s26.333 47.834 42 69.501l37 50
c9 11.667 23.167 27.667 42.5 48s46.666 42.666 81.999 66.999s68 39.833 98 46.5s62.333 11.334 97 14.001s73 4 115 4h375v-150zM188.003 308.998c34 18 60.001 31.334 78.001 40.001c-32 31.333 -48 61 -48 89c0 25.333 13.833 54.833 41.5 88.5s54.167 50.5 79.5 50.5
c11.333 0 23.833 -4.83301 37.5 -14.5s20.5 -20.834 20.5 -33.501c0 -8 -5 -20.667 -15 -38l-7 -6c-21.333 16 -41.333 24 -60 24c-16 0 -28.667 -14 -38 -42c0 -14 12 -32.167 36 -54.5s44 -33.5 60 -33.5c4 0 34 6.33301 90 19l8 -6v-53
c-0.666992 -4.66699 -2.33398 -8.66699 -5.00098 -12l-271 -53l-7 6l-3 17z" />
    <glyph glyph-name="uniFBD4" unicode="&#x6ad;" horiz-adv-x="1525" arabic-form="final" 
d="M1263 128c-50.667 -52.667 -123.667 -90.334 -219 -113.001c-90 -20 -218.667 -30 -386 -30c-371.333 0 -557 90.333 -557 271c0 49.333 9 97 27 143c20.667 56.667 50.667 92.334 90 107.001l8 -8c-3.33301 -13.333 -13 -37.333 -29 -72c-16 -28.667 -24 -54 -24 -76
c0 -86 72.333 -147.333 217 -184c91.333 -23.333 199 -35 323 -35c253.333 0 428 31.667 524 95c10 22.667 15 49.667 15 81c0 92 -3.5 228.833 -10.5 410.5s-10.5 318.167 -10.5 409.5c0 38 9.66699 57 29 57c40 0 60 -10.333 60 -31v-417
c0 -157.333 4.66699 -270.333 14 -339c23.333 -164.667 73.333 -247 150 -247h49v-150h-55c-52.667 0 -95 20 -127 60c-20 23.333 -40.333 64.333 -61 123zM562 688c38.667 20.667 69.001 35.6689 91.001 45.002c-38.667 41.333 -58 75.333 -58 102
c0 31.333 16.667 67.166 50 107.499s64 60.5 92 60.5c12 0 26.5 -6.33301 43.5 -19s25.5 -24.667 25.5 -36c0 -23.333 -9 -41.333 -27 -54c-26 14.667 -49.667 23.667 -71 27l-31 -15l-12 -31c0 -17.333 13.5 -38.833 40.5 -64.5s50.5 -38.5 70.5 -38.5
c27.333 0 62.666 6.66699 105.999 20l11 -7c0 -40.667 -1.33301 -66.334 -4 -77.001l-322 -60l-6 6l-3 21zM666.001 1040l-108 108l107 103l107 -107zM767.001 1257l-107 107l106 104l105 -106zM883.001 1050l-110 109l105 102l107 -107z" />
    <glyph glyph-name="uniFBD5" unicode="&#x6ad;" horiz-adv-x="697" arabic-form="initial" 
d="M189 1177l-108 108l107 103l107 -107zM290 1394l-107 107l106 104l105 -106zM406 1187l-110 109l105 102l107 -107zM-24 150c72.667 -0.666992 102.333 -1 89 -1c226.667 0 340 42.333 340 127c0 44.667 -82.333 142.334 -247 293.001l-74 66
c-23.333 33.333 -35 76.666 -35 129.999c0 40.667 10 72.667 30 96c51.333 45.333 91.333 78 120 98c250 194 504.667 323.333 764 388l16 4c-12.667 -98 -25.667 -151.667 -39 -161c-96 -35.333 -180.667 -64.333 -254 -87c-244 -90 -436 -193.333 -576 -310l-8 -14
c8.66699 -18 45.667 -54 111 -108c80.667 -66 137 -115.667 169 -149c56.667 -61.333 85 -113 85 -155c0 -244.667 -117.333 -367 -352 -367h-139v150z" />
    <glyph glyph-name="uniFBD6" unicode="&#x6ad;" horiz-adv-x="1088" arabic-form="medial" 
d="M226 1233l-108 108l107 103l107 -107zM327 1450l-107 107l106 104l105 -106zM443 1243l-110 109l105 102l107 -107zM-21 150c8 0 28.002 -0.332031 60.002 -0.999023h74c238.667 0 358 54.667 358 164c0 55.333 -35 106 -105 152l-196 119c-70 56 -105 123.667 -105 203
c0 81.333 130.333 192.333 391 333c221.333 120 394.666 195.667 519.999 227l11 -16c-8 -86 -19 -133 -33 -141c-64 -24.667 -115.667 -41.334 -155 -50.001c-111.333 -38.667 -204.666 -75.667 -279.999 -111c-244 -116 -380.667 -201.333 -410 -256l13 -16
c205.333 -100 362.333 -195.333 471 -286l272 -227c49.333 -39.333 85.333 -64 108 -74c29.333 -13.333 72.666 -20 129.999 -20v-150h-89c-43.333 0 -125.333 54.667 -246 164c-140 124 -221.333 192.333 -244 205l-5 -11c4 -20 3.33301 -60 -2 -120
c-16.667 -158.667 -135.334 -238 -356.001 -238h-182v150z" />
    <glyph glyph-name="uniFBD8" unicode="&#x6c7;" horiz-adv-x="826" arabic-form="final" 
d="M52 -330c1.33301 14 34 22.667 98 26c39.333 0.666992 79.666 1.66699 120.999 3c74 12 143.667 40.333 209 85c103.333 78.667 155 150.667 155 216c-76 8 -131 22 -165 42c-49.333 32 -74 82 -74 150c0 44.667 17 94 51 148c36 60 74.667 90 116 90
c49.333 0 89.333 -36 120 -108c22 -52 35 -109.333 39 -172h119v-150h-134c-17.333 -101.333 -65.333 -197.333 -144 -288s-166 -136 -262 -136c-25.333 0 -68.666 11.5 -129.999 34.5s-101 42.833 -119 59.5zM476 221c0 -46 50.667 -69 152 -69
c0 32 -8.66699 61.667 -26 89c-17.333 32 -42 48 -74 48c-34.667 0 -52 -22.667 -52 -68zM703 733l-9 -98l-39 22l-38 28c-40 -44 -74 -78 -102 -102c-37.333 -28 -70.666 -42 -99.999 -42c-9.33301 0 -21.333 1.33301 -36 4l-25 8c42.667 24 77.667 46 105 66
c20 15.333 57.667 46 113 92c-24.667 18 -41.5 33.5 -50.5 46.5s-13.5 28.5 -13.5 46.5c0 30 12.333 66.667 37 110c12 20 25.167 34.5 39.5 43.5s27.833 13.5 40.5 13.5c46 0 69 -29.333 69 -88c0 -14.667 -2.33301 -31 -7 -49s-13.334 -41 -26.001 -69zM630 826
c0 14.667 -4.99902 28.334 -14.999 41.001s-22 19 -36 19c-4 0 -7.33301 -1.66699 -10 -5c-4.66699 -4 -8 -8 -10 -12c0 -14 4.16699 -25.833 12.5 -35.5s26.166 -24.834 53.499 -45.501c3.33301 16 5 28.667 5 38z" />
    <glyph glyph-name="uniFBDA" unicode="&#x6c6;" horiz-adv-x="826" arabic-form="final" 
d="M52 -330c1.33301 14 34 22.667 98 26c39.333 0.666992 79.666 1.66699 120.999 3c74 12 143.667 40.333 209 85c103.333 78.667 155 150.667 155 216c-76 8 -131 22 -165 42c-49.333 32 -74 82 -74 150c0 44.667 17 94 51 148c36 60 74.667 90 116 90
c49.333 0 89.333 -36 120 -108c22 -52 35 -109.333 39 -172h119v-150h-134c-17.333 -101.333 -65.333 -197.333 -144 -288s-166 -136 -262 -136c-25.333 0 -68.666 11.5 -129.999 34.5s-101 42.833 -119 59.5zM476 221c0 -46 50.667 -69 152 -69
c0 32 -8.66699 61.667 -26 89c-17.333 32 -42 48 -74 48c-34.667 0 -52 -22.667 -52 -68zM687 830l-23.5029 -24.5c-9 -9.66699 -18.833 -23.667 -29.5 -42s-22 -42 -34 -71s-24.333 -65.833 -37 -110.5l-37 -1c-5.33301 24 -12.5 48 -21.5 72s-19.5 46.667 -31.5 68
s-25 40.833 -39 58.5s-28.333 32.5 -43 44.5l87 -6c4.66699 -6 9.83398 -13 15.501 -21s11.334 -18 17.001 -30s11.334 -27 17.001 -45s11.5 -40 17.5 -66l7.5 36c3 14 6.83301 28.667 11.5 44s10.167 30.5 16.5 45.5s13.5 28.833 21.5 41.5z" />
    <glyph glyph-name="uniFBDC" unicode="&#x6c8;" horiz-adv-x="826" arabic-form="final" 
d="M52 -330c1.33301 14 34 22.667 98 26c39.333 0.666992 79.666 1.66699 120.999 3c74 12 143.667 40.333 209 85c103.333 78.667 155 150.667 155 216c-76 8 -131 22 -165 42c-49.333 32 -74 82 -74 150c0 44.667 17 94 51 148c36 60 74.667 90 116 90
c49.333 0 89.333 -36 120 -108c22 -52 35 -109.333 39 -172h119v-150h-134c-17.333 -101.333 -65.333 -197.333 -144 -288s-166 -136 -262 -136c-25.333 0 -68.666 11.5 -129.999 34.5s-101 42.833 -119 59.5zM476 221c0 -46 50.667 -69 152 -69
c0 32 -8.66699 61.667 -26 89c-17.333 32 -42 48 -74 48c-34.667 0 -52 -22.667 -52 -68zM443 889l48.998 74.999c20 -36.667 36.5 -79.167 49.5 -127.5s20.833 -106.833 23.5 -175.5c-5.33301 -33.333 -23.666 -66.333 -54.999 -99c1.33301 12 2 38 2 78
c0 30.667 -7.16699 70.834 -21.5 120.501s-30.166 92.5 -47.499 128.5z" />
    <glyph glyph-name="uniFBDF" unicode="&#x6cb;" horiz-adv-x="826" arabic-form="final" 
d="M52 -330c1.33301 14 34 22.667 98 26c39.333 0.666992 79.666 1.66699 120.999 3c74 12 143.667 40.333 209 85c103.333 78.667 155 150.667 155 216c-76 8 -131 22 -165 42c-49.333 32 -74 82 -74 150c0 44.667 17 94 51 148c36 60 74.667 90 116 90
c49.333 0 89.333 -36 120 -108c22 -52 35 -109.333 39 -172h119v-150h-134c-17.333 -101.333 -65.333 -197.333 -144 -288s-166 -136 -262 -136c-25.333 0 -68.666 11.5 -129.999 34.5s-101 42.833 -119 59.5zM476 221c0 -46 50.667 -69 152 -69
c0 32 -8.66699 61.667 -26 89c-17.333 32 -42 48 -74 48c-34.667 0 -52 -22.667 -52 -68zM452 509l-108 108l107 103l107 -107zM553 726l-107 107l106 104l105 -106zM669 519l-110 109l105 102l107 -107z" />
    <glyph glyph-name="uniFBE1" unicode="&#x6c5;" horiz-adv-x="826" arabic-form="final" 
d="M338 -165l207.999 6c59.333 56.667 89 109.667 89 159c-76 8 -131 22 -165 42c-49.333 32 -74 82 -74 150c0 44.667 17 94 51 148c36 60 74.667 90 116 90c49.333 0 89.333 -36 120 -108c22 -52 35 -109.333 39 -172h119v-150h-134
c-17.333 -101.333 -65.333 -197.333 -144 -288s-166 -136 -262 -136c-25.333 0 -68.666 11.5 -129.999 34.5s-101 42.833 -119 59.5c1.33301 14 34 22.667 98 26c39.333 0.666992 79.666 1.66699 120.999 3c70.667 12 137.334 38.333 200.001 79l-165 9zM475.999 221
c0 -46 50.667 -69 152 -69c0 32 -8.66699 61.667 -26 89c-17.333 32 -42 48 -74 48c-34.667 0 -52 -22.667 -52 -68z" />
    <glyph glyph-name="uniFBE3" unicode="&#x6c9;" horiz-adv-x="826" arabic-form="final" 
d="M52 -330c1.33301 14 34 22.667 98 26c39.333 0.666992 79.666 1.66699 120.999 3c74 12 143.667 40.333 209 85c103.333 78.667 155 150.667 155 216c-76 8 -131 22 -165 42c-49.333 32 -74 82 -74 150c0 44.667 17 94 51 148c36 60 74.667 90 116 90
c49.333 0 89.333 -36 120 -108c22 -52 35 -109.333 39 -172h119v-150h-134c-17.333 -101.333 -65.333 -197.333 -144 -288s-166 -136 -262 -136c-25.333 0 -68.666 11.5 -129.999 34.5s-101 42.833 -119 59.5zM476 221c0 -46 50.667 -69 152 -69
c0 32 -8.66699 61.667 -26 89c-17.333 32 -42 48 -74 48c-34.667 0 -52 -22.667 -52 -68zM608 532c-8 12.667 -15.1641 26.5 -21.4971 41.5s-11.833 30 -16.5 45s-8.5 29.5 -11.5 43.5l-7.5 36c-6 -26 -11.833 -48 -17.5 -66s-11.334 -33 -17.001 -45
s-11.334 -22 -17.001 -30s-10.834 -15 -15.501 -21l-87 -6c14.667 12 29 26.833 43 44.5s27 37 39 58s22.5 43.5 31.5 67.5s16.167 48 21.5 72l37 -1c12.667 -44.667 25 -81.5 37 -110.5s23.333 -52.5 34 -70.5s20.5 -31.833 29.5 -41.5l23.5 -24.5z" />
    <glyph glyph-name="uniFBE5" unicode="&#x6d0;" horiz-adv-x="1126" arabic-form="final" 
d="M431 -1010l104 104l103 -103l-104 -103zM431 -805l104 104l103 -103l-104 -103zM95 -213c0 56.667 11 118.666 33 185.999c30.667 79.333 63.667 131 99 155l8 -16c-50.667 -93.333 -76 -176.333 -76 -249c0 -112.667 35.333 -193.667 106 -243
c58.667 -38.667 146.334 -58 263.001 -58c74.667 0 168 12.667 280 38c143.333 33.333 215 73 215 119c0 16 -25 30 -75 42c-75.333 14 -123.333 26 -144 36c-51.333 22.667 -77 58.334 -77 107.001c0 74 40.667 135.667 122 185c68.667 40.667 143.667 61 225 61h62v-150
c-218 0 -330.333 -24 -337 -72c20 -17.333 57.667 -31 113 -41c57.333 -10.667 96.333 -23.667 117 -39c35.333 -26 53 -71 53 -135c0 -98.667 -76.333 -177.667 -229 -237c-118.667 -44 -237.334 -66 -356.001 -66c-122.667 0 -220 32 -292 96
c-73.333 65.333 -110 159 -110 281z" />
    <glyph glyph-name="afii52364" unicode="&#x6cc;" horiz-adv-x="1126" arabic-form="final" 
d="M95 -213c0 56.667 11 118.666 33 185.999c30.667 79.333 63.667 131 99 155l8 -16c-50.667 -93.333 -76 -176.333 -76 -249c0 -112.667 35.333 -193.667 106 -243c58.667 -38.667 146.334 -58 263.001 -58c74.667 0 168 12.667 280 38c143.333 33.333 215 73 215 119
c0 16 -25 30 -75 42c-75.333 14 -123.333 26 -144 36c-51.333 22.667 -77 58.334 -77 107.001c0 74 40.667 135.667 122 185c68.667 40.667 143.667 61 225 61h62v-150c-218 0 -330.333 -24 -337 -72c20 -17.333 57.667 -31 113 -41c57.333 -10.667 96.333 -23.667 117 -39
c35.333 -26 53 -71 53 -135c0 -98.667 -76.333 -177.667 -229 -237c-118.667 -44 -237.334 -66 -356.001 -66c-122.667 0 -220 32 -292 96c-73.333 65.333 -110 159 -110 281z" />
    <glyph glyph-name="uniFBFE" unicode="&#x6cc;" horiz-adv-x="334" arabic-form="initial" 
d="M-6 150c177.333 -0.666992 266 26 266 80c0 29.333 -31 83 -93 161l65 120c6 12.667 13 13.334 21 2.00098c50 -82 75 -155.333 75 -220c0 -76.667 -24 -144.334 -72 -203.001c-53.333 -60 -117 -90 -191 -90h-71v150zM65 -149l113 -113l-109 -111l-115 114zM282 -140
l111 -110l-107 -112l-114 114z" />
    <glyph glyph-name="afii62832" unicode="&#x6cc;" horiz-adv-x="521" arabic-form="medial" 
d="M-18 150c94 0 151.669 4 173.002 12c47.333 18.667 91.333 56 132 112c41.333 -84 112.666 -125.333 213.999 -124h30v-150h-63c-40 0 -78.333 12.5 -115 37.5s-64 56.167 -82 93.5c-20 -37.333 -51.333 -68.5 -94 -93.5s-84.334 -37.5 -125.001 -37.5h-70v150z
M133.002 -163l113 -113l-109 -111l-115 114zM350.002 -154l111 -110l-107 -112l-114 114z" />
    <glyph glyph-name="uniFC5D" unicode="&#xfc5d;" horiz-adv-x="1208" arabic-form="isolated" 
d="M396 768l49 74.001c19.333 -36 35.666 -78.333 48.999 -127s21 -107.334 23 -176.001c-4.66699 -33.333 -22.667 -66.333 -54 -99c1.33301 12 2 35.667 2 71s-7.16699 78 -21.5 128s-30.166 93 -47.499 129zM125 -124.999c0 62 13.002 130.333 39.002 205
c32 83.333 68.333 141 109 173l8 -14c-56.667 -104.667 -85.667 -202.667 -87 -294c0 -89.333 37.667 -156.666 113 -201.999c63.333 -38 142 -57 236 -57c68 0 167.667 19 299 57c154.667 45.333 232.667 91 234 137c-25.333 20 -76.333 36.833 -153 50.5
s-129 27.5 -157 41.5c-50 24.667 -75 66 -75 124c0 95.333 41.333 195.333 124 300c87.333 106 177.666 159 270.999 159c59.333 0 96.333 -14 111 -42c-6.66699 -46.667 -23 -88.334 -49 -125.001c-36 10 -72.333 15 -109 15c-58.667 0 -118.667 -24 -180 -72
c-64.667 -51.333 -97 -106 -97 -164c0 -48 31.667 -79.333 95 -94s125.666 -27.334 186.999 -38.001c65.333 -17.333 98 -49.666 98 -96.999c0 -122.667 -80.667 -224 -242 -304c-134.667 -65.333 -270.667 -98 -408 -98c-244.667 0 -367 113 -367 339z" />
    <glyph glyph-name="afii62882" unicode="&#xfc5e;" arabic-form="isolated" 
d="M150 225c0 -50 -8.16797 -88.335 -24.501 -115.002s-40.166 -40 -71.499 -40c-14 0 -24.5 0.833008 -31.5 2.5s-16.5 7.83398 -28.5 18.501c-4.66699 -22 -17 -41.667 -37 -59s-39.333 -26 -58 -26c-22.667 0 -41.334 9.5 -56.001 28.5s-22 44.167 -22 75.5
c0 17.333 3.66699 37 11 59l8 35l24 1c0 -36.667 2.83301 -62.5 8.5 -77.5s15.167 -22.5 28.5 -22.5c17.333 0 33.333 10.833 48 32.5s26 60.834 34 117.501l18 6c7.33301 -36 15.333 -60.667 24 -74s18.334 -20 29.001 -20c42 0 63 46.667 63 140l19 9l12 -49z
M163.999 417.998l-49 24l-53 39c-51.333 -52.667 -95.833 -90 -133.5 -112s-80.167 -37 -127.5 -45c10.667 19.333 19.167 35.666 25.5 48.999s11 27.5 14 42.5s4.5 30.167 4.5 45.5c0 14 -4.66699 27.667 -14 41s-21.333 20 -36 20c-11.333 0 -22.833 -7.83301 -34.5 -23.5
s-18.167 -35.167 -19.5 -58.5l-10 33l-2 22c0 34 8.83301 63.167 26.5 87.5s40.167 36.5 67.5 36.5c22.667 0 40 -9.5 52 -28.5s18 -46.5 18 -82.5v-33l-7 -67c30 12 53 23.5 69 34.5s39 31.833 69 62.5c-28 18 -47 35.333 -57 52c-10.667 16.667 -16 34.334 -16 53.001
c0 37.333 15 73.333 45 108s58.667 52 86 52c16 0 32.833 -9.5 50.5 -28.5s26.5 -39.5 26.5 -61.5c0 -22.667 -4.33301 -43 -13 -61l-23 -62c17.333 -14 28.833 -25.667 34.5 -35s8.5 -23 8.5 -41zM78.999 638.998c0 16.667 -3.83301 30.3311 -11.5 40.998
s-16.5 16 -26.5 16c-8 0 -14.833 -2.66699 -20.5 -8s-9.5 -10.666 -11.5 -15.999c0 -17.333 10.667 -32.666 32 -45.999l36 -30l2 23v20z" />
    <glyph glyph-name="afii62883" unicode="&#xfc5f;" arabic-form="isolated" 
d="M166 568c0 -50 -8.16797 -88.335 -24.501 -115.002s-40.166 -40 -71.499 -40c-14 0 -24.5 0.833008 -31.5 2.5s-16.5 7.83398 -28.5 18.501c-4.66699 -22 -17 -41.667 -37 -59s-39.333 -26 -58 -26c-22.667 0 -41.334 9.5 -56.001 28.5s-22 44.167 -22 75.5
c0 17.333 3.66699 37 11 59l8 35l24 1c0 -36.667 2.83301 -62.5 8.5 -77.5s15.167 -22.5 28.5 -22.5c17.333 0 33.333 10.833 48 32.5s26 60.834 34 117.501l18 6c7.33301 -36 15.333 -60.667 24 -74s18.334 -20 29.001 -20c42 0 63 46.667 63 140l19 9l12 -49z
M151.999 248.998l-316 -141l15 67l317 142zM151.999 140.998l-316 -142l15 68l317 142z" />
    <glyph glyph-name="afii62884" unicode="&#xfc60;" arabic-form="isolated" 
d="M165 225c0 -50 -8.16797 -88.335 -24.501 -115.002s-40.166 -40 -71.499 -40c-14 0 -24.5 0.833008 -31.5 2.5s-16.5 7.83398 -28.5 18.501c-4.66699 -22 -17 -41.667 -37 -59s-39.333 -26 -58 -26c-22.667 0 -41.334 9.5 -56.001 28.5s-22 44.167 -22 75.5
c0 17.333 3.66699 37 11 59l8 35l24 1c0 -36.667 2.83301 -62.5 8.5 -77.5s15.167 -22.5 28.5 -22.5c17.333 0 33.333 10.833 48 32.5s26 60.834 34 117.501l18 6c7.33301 -36 15.333 -60.667 24 -74s18.334 -20 29.001 -20c42 0 63 46.667 63 140l19 9l12 -49z
M164.999 461.998l-316 -142l15 68l318 142z" />
    </font>
</defs>
</svg>
