<?xml version="1.0" standalone="no"?>
<!DOCTYPE svg PUBLIC "-//W3C//DTD SVG 1.1//EN" "http://www.w3.org/Graphics/SVG/1.1/DTD/svg11.dtd" >
<svg>
<metadata>
Created by FontForge 20090914 at Wed Aug 26 07:43:05 2015
 By www-data
Typeface &#194;&#169; The scict.ir Corporation plc. Data &#194;&#169; The scict.ir Corporation plc/Type Solutions Inc. 2012-2013. All Rights Reserved.Modify  by Hossein Zahedi.
</metadata>
<defs>
<font id="IRLotus" horiz-adv-x="0" >
  <font-face 
    font-family="IRLotus"
    font-weight="400"
    font-stretch="normal"
    units-per-em="2048"
    panose-1="2 0 5 3 0 0 0 2 0 2"
    ascent="1638"
    descent="-410"
    x-height="783.999"
    cap-height="1153"
    bbox="-431 -1116 2318 1831"
    underline-thickness="60"
    underline-position="-940"
    unicode-range="U+0020-U+FFFC"
  />
<missing-glyph horiz-adv-x="416" 
 />
    <glyph glyph-name="afii64184" unicode="&#xfedf;&#xfee0;&#x651;&#x670;&#xfeea;" horiz-adv-x="1177" arabic-form="isolated" 
d="M385 503l5.99609 20.001c5.33301 19.333 11.5 36.166 18.5 50.499s16.833 30.833 29.5 49.5l12 16c2.66699 5.33301 5.33398 9.33301 8.00098 12c5.33301 -3.33301 9.16602 -8.66602 11.499 -15.999s3.5 -19.333 3.5 -36c0 -20 -1.33301 -48.667 -4 -86
c-2 -35.333 -3 -54.333 -3 -57l-1 -71l-2 -57v-23c0 -64 7 -107.667 21 -131c17.333 -27.333 46.333 -41 87 -41c39.333 0 69.333 12.333 90 37c12 14 20.5 30.333 25.5 49s7.5 45 7.5 79c0 56 -5.66699 122 -17 198l-7 53l-5 42c-0.666992 6.66699 -1 10.334 -1 11.001
c0 16.667 14.333 45.667 43 87c19.333 27.333 31.333 41 36 41c6 0 10.667 -6.16699 14 -18.5s6 -37.166 8 -74.499l4 -54l5 -54l4 -65c7.33301 -90.667 23 -164 47 -220c14.667 -34.667 30.667 -59.667 48 -75s38 -23 62 -23c25.333 0 44.166 6.33301 56.499 19
s18.5 32.667 18.5 60c0 20.667 -1.66699 39.167 -5 55.5s-10.666 43.5 -21.999 81.5l-15 57c-15.333 52.667 -25.166 88.834 -29.499 108.501s-6.5 41.167 -6.5 64.5c0 43.333 9 79.666 27 108.999c6.66699 12 14.167 22 22.5 30s14.833 12 19.5 12
c2.66699 0 5.5 -1.5 8.5 -4.5s4.5 -5.83301 4.5 -8.5l-1 -28l1 -12l2 -22c2.66699 -26.667 12 -69 28 -127l17 -62c20 -76 30 -150.333 30 -223c0 -88 -13.333 -155 -40 -201s-65.334 -69 -116.001 -69s-93.667 14.667 -129 44c-14.667 12.667 -26.834 25.5 -36.501 38.5
s-19.167 30.833 -28.5 53.5l-5 -1c-7.33301 -26.667 -15.333 -47.834 -24 -63.501s-20.667 -29.834 -36 -42.501c-31.333 -28 -73.666 -42 -126.999 -42c-28 0 -54 6.33301 -78 19s-42.333 29.667 -55 51c-24.667 41.333 -37 102.666 -37 183.999
c-34.667 -35.333 -62.5 -58.833 -83.5 -70.5s-45.5 -17.5 -73.5 -17.5c-35.333 0 -67.166 5 -95.499 15s-42.5 21.333 -42.5 34v2c0.666992 16 12.834 46.667 36.501 92s44.834 79 63.501 101c18.667 21.333 46.834 43.333 84.501 66s76.167 40.667 115.5 54z
M205.996 298.001c33.333 -13.333 62.668 -20.002 88.001 -20.002c16 0 32.167 2 48.5 6s29.5 9.33301 39.5 16l1 122c-32 -9.33301 -62.333 -23.666 -91 -42.999s-53.667 -42 -75 -68c-2.66699 -3.33301 -6.33398 -7.66602 -11.001 -12.999zM585.998 778.999
c-18.667 0 -34.999 6 -48.999 18s-21 32 -21 60c0 15.333 2 31.833 6 49.5s9 33.834 15 48.501s12.667 26.834 20 36.501s14.666 14.5 21.999 14.5c2.66699 0 4.5 -2.5 5.5 -7.5s1.5 -9.16699 1.5 -12.5c0 -4.66699 -0.666992 -9.33398 -2 -14.001s-2.5 -9.66699 -3.5 -15
s-2.16699 -11 -3.5 -17s-2 -13 -2 -21c0 -10.667 2 -20.667 6 -30s12 -14 24 -14c16.667 0 32.167 7.83301 46.5 23.5s24.166 36.834 29.499 63.501c7.33301 40 21 60 41 60c2 0 4 -1 6 -3s2.66699 -6.33301 2 -13c-2 -6 -3.16699 -12.833 -3.5 -20.5
s-0.5 -14.834 -0.5 -21.501s5.33301 -14 16 -22s24 -12 40 -12c10.667 0 18.167 1.33301 22.5 4s6.5 7 6.5 13c0 2 -0.333008 5.66699 -1 11l-2 16.5l-2 16.5c-0.666992 5.33301 -1 9.66602 -1 12.999c0 16 4 31.333 12 46s24.667 28.667 50 42
c-1.33301 -18 -2.33301 -35 -3 -51s-1 -26 -1 -30c0 -12 -1 -28 -3 -48s-6.33301 -39.667 -13 -59s-15.667 -35.833 -27 -49.5s-26.333 -20.5 -45 -20.5c-15.333 0 -29 1.83301 -41 5.5s-20.667 8.16699 -26 13.5c-3.33301 -5.33301 -9.16602 -12 -17.499 -20
s-18 -16 -29 -24s-23.167 -15 -36.5 -21s-26.333 -9 -39 -9zM693.999 1493c21.333 -45.333 36.999 -87.501 46.999 -126.501s15 -79.5 15 -121.5c0 -38 -5 -70 -15 -96s-21.333 -46.667 -34 -62c-6 -7.33301 -10.167 -11.666 -12.5 -12.999s-5.16602 -2 -8.49902 -2
c-1.33301 0 -2.5 1 -3.5 3s-1.5 4 -1.5 6c0 5.33301 1.5 15.333 4.5 30s4.5 29.334 4.5 44.001c0 10 -0.5 23.667 -1.5 41s-3.5 36.666 -7.5 57.999s-10 44.5 -18 69.5s-19 50.167 -33 75.5z" />
    <glyph glyph-name="afii62834" unicode="&#xfedf;&#xfe82;" horiz-adv-x="1082" arabic-form="isolated" 
d="M811 97c-1.33301 8.66699 -2.33398 14.667 -3.00098 18l-5 15c-2 6.66699 -3.33301 11 -4 13l-5 12l-5 12c-2 5.33301 -6 12.666 -12 21.999c-4 -11.333 -15 -28.666 -33 -51.999c-16.667 -21.333 -35 -39.333 -55 -54l6 -5c50.667 6 89.334 12.333 116.001 19z
M467.999 -45v122.999c10 -0.666992 17 -1 21 -1c46 0 83 9.33301 111 28s68.333 60.667 121 126c6 6.66699 14 16.334 24 29.001c-25.333 50.667 -50 94.334 -74 131.001l-47 70l-41 61c-15.333 22 -34 46.333 -56 73l-49 60l-49 63c-35.333 44 -58.333 71 -69 81l-23 21
c-6 4.66699 -10 7 -12 7c-2.66699 0 -7 -3.66699 -13 -11l-12 -16c-7.33301 -9.33301 -12.666 -14 -15.999 -14c-4 0 -9.33301 3.66699 -16 11c-4.66699 4 -13.667 12.667 -27 26c-63.333 63.333 -102.333 104.666 -117 123.999c-12 15.333 -18 30 -18 44
c0 26 6 58.333 18 97c6.66699 20.667 14 37 22 49s15.667 18 23 18c11.333 0 34.833 -15.5 70.5 -46.5s75.5 -70.167 119.5 -117.5c52 -58 96.5 -112.167 133.5 -162.5s86.833 -125.166 149.5 -224.499l52 -81l40 -65l34 -58l21 -36c24.667 45.333 43.667 107.333 57 186
c12.667 70 19 151.667 19 245c0 106.667 -9.66699 209 -29 307c38 36 64.333 72 79 108c16.667 -34 32 -61.167 46 -81.5s31.667 -41.833 53 -64.5l-11 -7c-21.333 -14.667 -36 -29.334 -44 -44.001c-12.667 -22 -19 -58 -19 -108v-61c0 -42.667 -2.66699 -100 -8 -172
c-10.667 -132 -43.334 -262 -98.001 -390c4 -17.333 11.333 -39.333 22 -66c21.333 -52 32 -94.667 32 -128c0 -50.667 -18.667 -88 -56 -112c-29.333 -20 -85.333 -30 -168 -30c-74 0 -139.333 3 -196 9zM24.999 1391c6.66699 0 21.335 -2.99707 44.002 -8.99707
c28 -7.33301 58 -11 90 -11c55.333 0 108.666 9.5 159.999 28.5s87.666 42.833 108.999 71.5c4 4.66699 7.33301 7 10 7l3 -1c1.33301 -0.666992 2 -2.33398 2 -5.00098c0 -12.667 -5.5 -29.334 -16.5 -50.001s-23.833 -38 -38.5 -52
c-28.667 -28.667 -70.167 -52.334 -124.5 -71.001s-107.833 -28 -160.5 -28c-20 0 -42.667 2.33301 -68 7l-24 3c-6 1.33301 -11 2 -15 2c-20 0 -46.333 -15.333 -79 -46c-3.33301 -3.33301 -6 -5 -8 -5c-4 0 -6 4.66699 -6 14c0 19.333 9.33301 45 28 77
c13.333 20.667 28.333 37.167 45 49.5s33 18.5 49 18.5z" />
    <glyph glyph-name="afii62835" unicode="&#xfee0;&#xfe82;" horiz-adv-x="1178" arabic-form="final" 
d="M875 661l-6.00098 0.00195312c-4 -20 -8 -41.333 -12 -64l-10 -48c-4.66699 -25.333 -8 -41.666 -10 -48.999l-13 -57l-11 -50c-17.333 -75.333 -36.833 -137.333 -58.5 -186s-49.834 -94.667 -84.501 -138c-35.333 -43.333 -73.333 -76.833 -114 -100.5
s-93.334 -42.5 -158.001 -56.5c-76 -16 -130.333 -24 -163 -24c-10 0 -18.333 1.33301 -25 4s-10 6 -10 10c0 8 22 22.333 66 43l43 19l41 18c93.333 42 176 92.667 248 152c34.667 29.333 61.5 56.666 80.5 81.999s28.5 47 28.5 65c0 15.333 -5.66699 34.833 -17 58.5
s-26.666 48.5 -45.999 74.5c-57.333 76.667 -120.666 141.667 -189.999 195c-52.667 40.667 -90 61 -112 61c-6 0 -11.333 -4.33301 -16 -13l-8 -12l-7 -15c-6 -10 -12 -15 -18 -15c-4.66699 0 -10.334 1.66699 -17.001 5l-24 12l-32 16c-62 30 -100 54.333 -114 73
c-9.33301 12.667 -15.166 28.667 -17.499 48s-3.5 59 -3.5 119c0 23.333 3 41.166 9 53.499s15 18.5 27 18.5c25.333 0 80.333 -25 165 -75c62 -36.667 120.667 -79 176 -127c50 -44 91 -83.333 123 -118s60 -70.334 84 -107.001c20.667 -32.667 36.5 -61.167 47.5 -85.5
s21.5 -53.166 31.5 -86.499c19.333 55.333 38 132.666 56 231.999c15.333 86.667 23 183.334 23 290.001v49c0 27.333 -1.33301 54.666 -4 81.999l65 110c4.66699 -100.667 12.834 -196.5 24.501 -287.5s29.5 -201.5 53.5 -331.5c19.333 -106 37.5 -183.5 54.5 -232.5
s37.5 -82.833 61.5 -101.5c22.667 -18 60.334 -27 113.001 -27c19.333 0 31 -5.66699 35 -17l1 -4c0.666992 -1.33301 1 -2.33301 1 -3v-87c0 -8 -3.66699 -15 -11 -21c-5.33301 -4 -12.333 -6.83301 -21 -8.5s-23.334 -2.5 -44.001 -2.5c-39.333 0 -72.5 5.5 -99.5 16.5
s-48.833 27.833 -65.5 50.5c-12.667 18 -26.5 54.5 -41.5 109.5s-27.167 116.5 -36.5 184.5l-10 69l-11 70c-3.33301 25.333 -8 67.333 -14 126zM-73.001 1189c6.66699 0 21.335 -2.99707 44.002 -8.99707c28 -7.33301 58 -11 90 -11c55.333 0 108.666 9.5 159.999 28.5
s87.666 42.833 108.999 71.5c4 4.66699 7.33301 7 10 7l3 -1c1.33301 -0.666992 2 -2.33398 2 -5.00098c0 -12.667 -5.5 -29.334 -16.5 -50.001s-23.833 -38 -38.5 -52c-28.667 -28.667 -70.167 -52.334 -124.5 -71.001s-107.833 -28 -160.5 -28
c-20 0 -42.667 2.33301 -68 7l-24 3c-6 1.33301 -11 2 -15 2c-20 0 -46.333 -15.333 -79 -46c-3.33301 -3.33301 -6 -5 -8 -5c-4 0 -6 4.66699 -6 14c0 19.333 9.33301 45 28 77c13.333 20.667 28.333 37.167 45 49.5s33 18.5 49 18.5z" />
    <glyph glyph-name="afii62836" unicode="&#xfedf;&#xfe84;" horiz-adv-x="1082" arabic-form="isolated" 
d="M811 97c-1.33301 8.66699 -2.33398 14.667 -3.00098 18l-5 15c-2 6.66699 -3.33301 11 -4 13l-5 12l-5 12c-2 5.33301 -6 12.666 -12 21.999c-4 -11.333 -15 -28.666 -33 -51.999c-16.667 -21.333 -35 -39.333 -55 -54l6 -5c50.667 6 89.334 12.333 116.001 19z
M467.999 -45v122.999c10 -0.666992 17 -1 21 -1c46 0 83 9.33301 111 28s68.333 60.667 121 126c6 6.66699 14 16.334 24 29.001c-25.333 50.667 -50 94.334 -74 131.001l-47 70l-41 61c-15.333 22 -34 46.333 -56 73l-49 60l-49 63c-35.333 44 -58.333 71 -69 81l-23 21
c-6 4.66699 -10 7 -12 7c-2.66699 0 -7 -3.66699 -13 -11l-12 -16c-7.33301 -9.33301 -12.666 -14 -15.999 -14c-4 0 -9.33301 3.66699 -16 11c-4.66699 4 -13.667 12.667 -27 26c-63.333 63.333 -102.333 104.666 -117 123.999c-12 15.333 -18 30 -18 44
c0 26 6 58.333 18 97c6.66699 20.667 14 37 22 49s15.667 18 23 18c11.333 0 34.833 -15.5 70.5 -46.5s75.5 -70.167 119.5 -117.5c52 -58 96.5 -112.167 133.5 -162.5s86.833 -125.166 149.5 -224.499l52 -81l40 -65l34 -58l21 -36c24.667 45.333 43.667 107.333 57 186
c12.667 70 19 151.667 19 245c0 106.667 -9.66699 209 -29 307c38 36 64.333 72 79 108c16.667 -34 32 -61.167 46 -81.5s31.667 -41.833 53 -64.5l-11 -7c-21.333 -14.667 -36 -29.334 -44 -44.001c-12.667 -22 -19 -58 -19 -108v-61c0 -42.667 -2.66699 -100 -8 -172
c-10.667 -132 -43.334 -262 -98.001 -390c4 -17.333 11.333 -39.333 22 -66c21.333 -52 32 -94.667 32 -128c0 -50.667 -18.667 -88 -56 -112c-29.333 -20 -85.333 -30 -168 -30c-74 0 -139.333 3 -196 9zM117.999 1250
c-6.66699 -2.66699 -13.6641 -6.66895 -20.9971 -12.002s-14.166 -10.833 -20.499 -16.5s-12 -11.834 -17 -18.501s-8.5 -13 -10.5 -19c-4.66699 4 -7.5 9.16699 -8.5 15.5s-1 13.833 0 22.5s4 17.667 9 27s12.167 18.333 21.5 27c-17.333 8 -29.833 17 -37.5 27
s-11.5 22 -11.5 36s4 28.5 12 43.5s18.167 28.833 30.5 41.5s26 23.334 41 32.001s29.5 13 43.5 13s25.833 -3.66699 35.5 -11s14.5 -16.666 14.5 -27.999c0 -9.33301 -3.33301 -18.166 -10 -26.499s-13.667 -15.166 -21 -20.499
c-5.33301 9.33301 -11.833 15.833 -19.5 19.5s-15.167 5.5 -22.5 5.5c-8 0 -15.5 -1 -22.5 -3s-13.167 -4.66699 -18.5 -8s-9.5 -6.83301 -12.5 -10.5s-4.5 -7.16699 -4.5 -10.5c0 -4 1.83301 -8.66699 5.5 -14s8.66699 -10.5 15 -15.5s14.333 -9.16699 24 -12.5
s20.5 -5 32.5 -5c9.33301 0 19.833 1.16699 31.5 3.5s23.667 5.33301 36 9s24.5 7.66699 36.5 12s23 8.83301 33 13.5c-4.66699 -14.667 -9.33398 -26.834 -14.001 -36.501s-10.334 -17.667 -17.001 -24s-14.834 -11.5 -24.501 -15.5s-21.5 -7.66699 -35.5 -11
c-4.66699 -2 -10.334 -4.16699 -17.001 -6.5s-13.5 -5 -20.5 -8l-20 -8.5c-6.33301 -2.66699 -11.5 -5 -15.5 -7z" />
    <glyph glyph-name="afii62837" unicode="&#xfee0;&#xfe84;" horiz-adv-x="1178" arabic-form="final" 
d="M875 661l-6.00098 0.00195312c-4 -20 -8 -41.333 -12 -64l-10 -48c-4.66699 -25.333 -8 -41.666 -10 -48.999l-13 -57l-11 -50c-17.333 -75.333 -36.833 -137.333 -58.5 -186s-49.834 -94.667 -84.501 -138c-35.333 -43.333 -73.333 -76.833 -114 -100.5
s-93.334 -42.5 -158.001 -56.5c-76 -16 -130.333 -24 -163 -24c-10 0 -18.333 1.33301 -25 4s-10 6 -10 10c0 8 22 22.333 66 43l43 19l41 18c93.333 42 176 92.667 248 152c34.667 29.333 61.5 56.666 80.5 81.999s28.5 47 28.5 65c0 15.333 -5.66699 34.833 -17 58.5
s-26.666 48.5 -45.999 74.5c-57.333 76.667 -120.666 141.667 -189.999 195c-52.667 40.667 -90 61 -112 61c-6 0 -11.333 -4.33301 -16 -13l-8 -12l-7 -15c-6 -10 -12 -15 -18 -15c-4.66699 0 -10.334 1.66699 -17.001 5l-24 12l-32 16c-62 30 -100 54.333 -114 73
c-9.33301 12.667 -15.166 28.667 -17.499 48s-3.5 59 -3.5 119c0 23.333 3 41.166 9 53.499s15 18.5 27 18.5c25.333 0 80.333 -25 165 -75c62 -36.667 120.667 -79 176 -127c50 -44 91 -83.333 123 -118s60 -70.334 84 -107.001c20.667 -32.667 36.5 -61.167 47.5 -85.5
s21.5 -53.166 31.5 -86.499c19.333 55.333 38 132.666 56 231.999c15.333 86.667 23 183.334 23 290.001v49c0 27.333 -1.33301 54.666 -4 81.999l65 110c4.66699 -100.667 12.834 -196.5 24.501 -287.5s29.5 -201.5 53.5 -331.5c19.333 -106 37.5 -183.5 54.5 -232.5
s37.5 -82.833 61.5 -101.5c22.667 -18 60.334 -27 113.001 -27c19.333 0 31 -5.66699 35 -17l1 -4c0.666992 -1.33301 1 -2.33301 1 -3v-87c0 -8 -3.66699 -15 -11 -21c-5.33301 -4 -12.333 -6.83301 -21 -8.5s-23.334 -2.5 -44.001 -2.5c-39.333 0 -72.5 5.5 -99.5 16.5
s-48.833 27.833 -65.5 50.5c-12.667 18 -26.5 54.5 -41.5 109.5s-27.167 116.5 -36.5 184.5l-10 69l-11 70c-3.33301 25.333 -8 67.333 -14 126zM139.999 1117c-6.66699 -2.66699 -13.6641 -6.66895 -20.9971 -12.002s-14.166 -10.833 -20.499 -16.5
s-12 -11.834 -17 -18.501s-8.5 -13 -10.5 -19c-4.66699 4 -7.5 9.16699 -8.5 15.5s-1 13.833 0 22.5s4 17.667 9 27s12.167 18.333 21.5 27c-17.333 8 -29.833 17 -37.5 27s-11.5 22 -11.5 36s4 28.5 12 43.5s18.167 28.833 30.5 41.5s26 23.334 41 32.001s29.5 13 43.5 13
s25.833 -3.66699 35.5 -11s14.5 -16.666 14.5 -27.999c0 -9.33301 -3.33301 -18.166 -10 -26.499s-13.667 -15.166 -21 -20.499c-5.33301 9.33301 -11.833 15.833 -19.5 19.5s-15.167 5.5 -22.5 5.5c-8 0 -15.5 -1 -22.5 -3s-13.167 -4.66699 -18.5 -8
s-9.5 -6.83301 -12.5 -10.5s-4.5 -7.16699 -4.5 -10.5c0 -4 1.83301 -8.66699 5.5 -14s8.66699 -10.5 15 -15.5s14.333 -9.16699 24 -12.5s20.5 -5 32.5 -5c9.33301 0 19.833 1.16699 31.5 3.5s23.667 5.33301 36 9s24.5 7.66699 36.5 12s23 8.83301 33 13.5
c-4.66699 -14.667 -9.33398 -26.834 -14.001 -36.501s-10.334 -17.667 -17.001 -24s-14.834 -11.5 -24.501 -15.5s-21.5 -7.66699 -35.5 -11c-4.66699 -2 -10.334 -4.16699 -17.001 -6.5s-13.5 -5 -20.5 -8l-20 -8.5c-6.33301 -2.66699 -11.5 -5 -15.5 -7z" />
    <glyph glyph-name="afii62838" unicode="&#xfedf;&#xfe88;" horiz-adv-x="1082" arabic-form="isolated" 
d="M811 97c-1.33301 8.66699 -2.33398 14.667 -3.00098 18l-5 15c-2 6.66699 -3.33301 11 -4 13l-5 12l-5 12c-2 5.33301 -6 12.666 -12 21.999c-4 -11.333 -15 -28.666 -33 -51.999c-16.667 -21.333 -35 -39.333 -55 -54l6 -5c50.667 6 89.334 12.333 116.001 19z
M467.999 -45v122.999c10 -0.666992 17 -1 21 -1c46 0 83 9.33301 111 28s68.333 60.667 121 126c6 6.66699 14 16.334 24 29.001c-25.333 50.667 -50 94.334 -74 131.001l-47 70l-41 61c-15.333 22 -34 46.333 -56 73l-49 60l-49 63c-35.333 44 -58.333 71 -69 81l-23 21
c-6 4.66699 -10 7 -12 7c-2.66699 0 -7 -3.66699 -13 -11l-12 -16c-7.33301 -9.33301 -12.666 -14 -15.999 -14c-4 0 -9.33301 3.66699 -16 11c-4.66699 4 -13.667 12.667 -27 26c-63.333 63.333 -102.333 104.666 -117 123.999c-12 15.333 -18 30 -18 44
c0 26 6 58.333 18 97c6.66699 20.667 14 37 22 49s15.667 18 23 18c11.333 0 34.833 -15.5 70.5 -46.5s75.5 -70.167 119.5 -117.5c52 -58 96.5 -112.167 133.5 -162.5s86.833 -125.166 149.5 -224.499l52 -81l40 -65l34 -58l21 -36c24.667 45.333 43.667 107.333 57 186
c12.667 70 19 151.667 19 245c0 106.667 -9.66699 209 -29 307c38 36 64.333 72 79 108c16.667 -34 32 -61.167 46 -81.5s31.667 -41.833 53 -64.5l-11 -7c-21.333 -14.667 -36 -29.334 -44 -44.001c-12.667 -22 -19 -58 -19 -108v-61c0 -42.667 -2.66699 -100 -8 -172
c-10.667 -132 -43.334 -262 -98.001 -390c4 -17.333 11.333 -39.333 22 -66c21.333 -52 32 -94.667 32 -128c0 -50.667 -18.667 -88 -56 -112c-29.333 -20 -85.333 -30 -168 -30c-74 0 -139.333 3 -196 9zM519.999 -353.001
c-6.66699 -2.66699 -13.6641 -6.66895 -20.9971 -12.002s-14.166 -10.833 -20.499 -16.5s-12 -11.834 -17 -18.501s-8.5 -13 -10.5 -19c-4.66699 4 -7.5 9.16699 -8.5 15.5s-1 13.833 0 22.5s4 17.667 9 27s12.167 18.333 21.5 27c-17.333 8 -29.833 17 -37.5 27
s-11.5 22 -11.5 36s4 28.5 12 43.5s18.167 28.833 30.5 41.5s26 23.334 41 32.001s29.5 13 43.5 13s25.833 -3.66699 35.5 -11s14.5 -16.666 14.5 -27.999c0 -9.33301 -3.33301 -18.166 -10 -26.499s-13.667 -15.166 -21 -20.499
c-5.33301 9.33301 -11.833 15.833 -19.5 19.5s-15.167 5.5 -22.5 5.5c-8 0 -15.5 -1 -22.5 -3s-13.167 -4.66699 -18.5 -8s-9.5 -6.83301 -12.5 -10.5s-4.5 -7.16699 -4.5 -10.5c0 -4 1.83301 -8.66699 5.5 -14s8.66699 -10.5 15 -15.5s14.333 -9.16699 24 -12.5
s20.5 -5 32.5 -5c9.33301 0 19.833 1.16699 31.5 3.5s23.667 5.33301 36 9s24.5 7.66699 36.5 12s23 8.83301 33 13.5c-4.66699 -14.667 -9.33398 -26.834 -14.001 -36.501s-10.334 -17.667 -17.001 -24s-14.834 -11.5 -24.501 -15.5s-21.5 -7.66699 -35.5 -11
c-4.66699 -2 -10.334 -4.16699 -17.001 -6.5s-13.5 -5 -20.5 -8l-20 -8.5c-6.33301 -2.66699 -11.5 -5 -15.5 -7z" />
    <glyph glyph-name="afii62839" unicode="&#xfee0;&#xfe88;" horiz-adv-x="1178" arabic-form="final" 
d="M875 661l-6.00098 0.00195312c-4 -20 -8 -41.333 -12 -64l-10 -48c-4.66699 -25.333 -8 -41.666 -10 -48.999l-13 -57l-11 -50c-17.333 -75.333 -36.833 -137.333 -58.5 -186s-49.834 -94.667 -84.501 -138c-35.333 -43.333 -73.333 -76.833 -114 -100.5
s-93.334 -42.5 -158.001 -56.5c-76 -16 -130.333 -24 -163 -24c-10 0 -18.333 1.33301 -25 4s-10 6 -10 10c0 8 22 22.333 66 43l43 19l41 18c93.333 42 176 92.667 248 152c34.667 29.333 61.5 56.666 80.5 81.999s28.5 47 28.5 65c0 15.333 -5.66699 34.833 -17 58.5
s-26.666 48.5 -45.999 74.5c-57.333 76.667 -120.666 141.667 -189.999 195c-52.667 40.667 -90 61 -112 61c-6 0 -11.333 -4.33301 -16 -13l-8 -12l-7 -15c-6 -10 -12 -15 -18 -15c-4.66699 0 -10.334 1.66699 -17.001 5l-24 12l-32 16c-62 30 -100 54.333 -114 73
c-9.33301 12.667 -15.166 28.667 -17.499 48s-3.5 59 -3.5 119c0 23.333 3 41.166 9 53.499s15 18.5 27 18.5c25.333 0 80.333 -25 165 -75c62 -36.667 120.667 -79 176 -127c50 -44 91 -83.333 123 -118s60 -70.334 84 -107.001c20.667 -32.667 36.5 -61.167 47.5 -85.5
s21.5 -53.166 31.5 -86.499c19.333 55.333 38 132.666 56 231.999c15.333 86.667 23 183.334 23 290.001v49c0 27.333 -1.33301 54.666 -4 81.999l65 110c4.66699 -100.667 12.834 -196.5 24.501 -287.5s29.5 -201.5 53.5 -331.5c19.333 -106 37.5 -183.5 54.5 -232.5
s37.5 -82.833 61.5 -101.5c22.667 -18 60.334 -27 113.001 -27c19.333 0 31 -5.66699 35 -17l1 -4c0.666992 -1.33301 1 -2.33301 1 -3v-87c0 -8 -3.66699 -15 -11 -21c-5.33301 -4 -12.333 -6.83301 -21 -8.5s-23.334 -2.5 -44.001 -2.5c-39.333 0 -72.5 5.5 -99.5 16.5
s-48.833 27.833 -65.5 50.5c-12.667 18 -26.5 54.5 -41.5 109.5s-27.167 116.5 -36.5 184.5l-10 69l-11 70c-3.33301 25.333 -8 67.333 -14 126zM296.999 -409.998c-6.66699 -2.66699 -13.6641 -6.66895 -20.9971 -12.002s-14.166 -10.833 -20.499 -16.5
s-12 -11.834 -17 -18.501s-8.5 -13 -10.5 -19c-4.66699 4 -7.5 9.16699 -8.5 15.5s-1 13.833 0 22.5s4 17.667 9 27s12.167 18.333 21.5 27c-17.333 8 -29.833 17 -37.5 27s-11.5 22 -11.5 36s4 28.5 12 43.5s18.167 28.833 30.5 41.5s26 23.334 41 32.001s29.5 13 43.5 13
s25.833 -3.66699 35.5 -11s14.5 -16.666 14.5 -27.999c0 -9.33301 -3.33301 -18.166 -10 -26.499s-13.667 -15.166 -21 -20.499c-5.33301 9.33301 -11.833 15.833 -19.5 19.5s-15.167 5.5 -22.5 5.5c-8 0 -15.5 -1 -22.5 -3s-13.167 -4.66699 -18.5 -8
s-9.5 -6.83301 -12.5 -10.5s-4.5 -7.16699 -4.5 -10.5c0 -4 1.83301 -8.66699 5.5 -14s8.66699 -10.5 15 -15.5s14.333 -9.16699 24 -12.5s20.5 -5 32.5 -5c9.33301 0 19.833 1.16699 31.5 3.5s23.667 5.33301 36 9s24.5 7.66699 36.5 12s23 8.83301 33 13.5
c-4.66699 -14.667 -9.33398 -26.834 -14.001 -36.501s-10.334 -17.667 -17.001 -24s-14.834 -11.5 -24.501 -15.5s-21.5 -7.66699 -35.5 -11c-4.66699 -2 -10.334 -4.16699 -17.001 -6.5s-13.5 -5 -20.5 -8l-20 -8.5c-6.33301 -2.66699 -11.5 -5 -15.5 -7z" />
    <glyph glyph-name="afii62840" unicode="&#xfedf;&#xfe8e;" horiz-adv-x="1082" arabic-form="isolated" 
d="M811 97c-1.33301 8.66699 -2.33398 14.667 -3.00098 18l-5 15c-2 6.66699 -3.33301 11 -4 13l-5 12l-5 12c-2 5.33301 -6 12.666 -12 21.999c-4 -11.333 -15 -28.666 -33 -51.999c-16.667 -21.333 -35 -39.333 -55 -54l6 -5c50.667 6 89.334 12.333 116.001 19z
M467.999 -45v122.999c10 -0.666992 17 -1 21 -1c46 0 83 9.33301 111 28s68.333 60.667 121 126c6 6.66699 14 16.334 24 29.001c-25.333 50.667 -50 94.334 -74 131.001l-47 70l-41 61c-15.333 22 -34 46.333 -56 73l-49 60l-49 63c-35.333 44 -58.333 71 -69 81l-23 21
c-6 4.66699 -10 7 -12 7c-2.66699 0 -7 -3.66699 -13 -11l-12 -16c-7.33301 -9.33301 -12.666 -14 -15.999 -14c-4 0 -9.33301 3.66699 -16 11c-4.66699 4 -13.667 12.667 -27 26c-63.333 63.333 -102.333 104.666 -117 123.999c-12 15.333 -18 30 -18 44
c0 26 6 58.333 18 97c6.66699 20.667 14 37 22 49s15.667 18 23 18c11.333 0 34.833 -15.5 70.5 -46.5s75.5 -70.167 119.5 -117.5c52 -58 96.5 -112.167 133.5 -162.5s86.833 -125.166 149.5 -224.499l52 -81l40 -65l34 -58l21 -36c24.667 45.333 43.667 107.333 57 186
c12.667 70 19 151.667 19 245c0 106.667 -9.66699 209 -29 307c38 36 64.333 72 79 108c16.667 -34 32 -61.167 46 -81.5s31.667 -41.833 53 -64.5l-11 -7c-21.333 -14.667 -36 -29.334 -44 -44.001c-12.667 -22 -19 -58 -19 -108v-61c0 -42.667 -2.66699 -100 -8 -172
c-10.667 -132 -43.334 -262 -98.001 -390c4 -17.333 11.333 -39.333 22 -66c21.333 -52 32 -94.667 32 -128c0 -50.667 -18.667 -88 -56 -112c-29.333 -20 -85.333 -30 -168 -30c-74 0 -139.333 3 -196 9z" />
    <glyph glyph-name="afii62841" unicode="&#xfee0;&#xfe8e;" horiz-adv-x="1178" arabic-form="final" 
d="M875 661l-6.00098 0.00195312c-4 -20 -8 -41.333 -12 -64l-10 -48c-4.66699 -25.333 -8 -41.666 -10 -48.999l-13 -57l-11 -50c-17.333 -75.333 -36.833 -137.333 -58.5 -186s-49.834 -94.667 -84.501 -138c-35.333 -43.333 -73.333 -76.833 -114 -100.5
s-93.334 -42.5 -158.001 -56.5c-76 -16 -130.333 -24 -163 -24c-10 0 -18.333 1.33301 -25 4s-10 6 -10 10c0 8 22 22.333 66 43l43 19l41 18c93.333 42 176 92.667 248 152c34.667 29.333 61.5 56.666 80.5 81.999s28.5 47 28.5 65c0 15.333 -5.66699 34.833 -17 58.5
s-26.666 48.5 -45.999 74.5c-57.333 76.667 -120.666 141.667 -189.999 195c-52.667 40.667 -90 61 -112 61c-6 0 -11.333 -4.33301 -16 -13l-8 -12l-7 -15c-6 -10 -12 -15 -18 -15c-4.66699 0 -10.334 1.66699 -17.001 5l-24 12l-32 16c-62 30 -100 54.333 -114 73
c-9.33301 12.667 -15.166 28.667 -17.499 48s-3.5 59 -3.5 119c0 23.333 3 41.166 9 53.499s15 18.5 27 18.5c25.333 0 80.333 -25 165 -75c62 -36.667 120.667 -79 176 -127c50 -44 91 -83.333 123 -118s60 -70.334 84 -107.001c20.667 -32.667 36.5 -61.167 47.5 -85.5
s21.5 -53.166 31.5 -86.499c19.333 55.333 38 132.666 56 231.999c15.333 86.667 23 183.334 23 290.001v49c0 27.333 -1.33301 54.666 -4 81.999l65 110c4.66699 -100.667 12.834 -196.5 24.501 -287.5s29.5 -201.5 53.5 -331.5c19.333 -106 37.5 -183.5 54.5 -232.5
s37.5 -82.833 61.5 -101.5c22.667 -18 60.334 -27 113.001 -27c19.333 0 31 -5.66699 35 -17l1 -4c0.666992 -1.33301 1 -2.33301 1 -3v-87c0 -8 -3.66699 -15 -11 -21c-5.33301 -4 -12.333 -6.83301 -21 -8.5s-23.334 -2.5 -44.001 -2.5c-39.333 0 -72.5 5.5 -99.5 16.5
s-48.833 27.833 -65.5 50.5c-12.667 18 -26.5 54.5 -41.5 109.5s-27.167 116.5 -36.5 184.5l-10 69l-11 70c-3.33301 25.333 -8 67.333 -14 126z" />
    <glyph glyph-name="uni0672.fina" unicode="&#x672;" horiz-adv-x="443" 
d="M106 1017l91.002 101.002c0 -33.333 1.66699 -82 5 -146l5 -94c4 -70 6.33301 -111.333 7 -124l11 -159l8 -117l6 -81c5.33301 -70.667 12.833 -120.334 22.5 -149.001s26.167 -51.667 49.5 -69c34 -24 83.667 -36 149 -36c19.333 0 31.333 -5.66699 36 -17l1 -4v-3v-87
c0 -10.667 -5.33301 -18.667 -16 -24s-27.334 -8 -50.001 -8c-98 0 -167 23.667 -207 71c-18 22 -30.833 48.167 -38.5 78.5s-13.834 80.166 -18.501 149.499l-4 66l-6 99l-8 106c-4.66699 68.667 -7 106 -7 112l-11 111l-10 89c-2 27.333 -7 72.333 -15 135zM176.002 1363
c2.66699 1.33301 -1.49707 7.49902 -12.4971 18.499s-22.833 18.5 -35.5 22.5c-8.66699 2.66699 -21.334 -0.5 -38.001 -9.5s-27.334 -21.833 -32.001 -38.5c4 -19.333 13 -33.166 27 -41.499s30.667 -13.333 50 -15s39.333 -0.833984 60 2.49902s39.334 7 56.001 11
c7.33301 2 9.16602 -1.66699 5.49902 -11s-9.5 -21.666 -17.5 -36.999c-32 -23.333 -83.167 -37.5 -153.5 -42.5s-111.5 -21.833 -123.5 -50.5c-6.66699 -2.66699 -9.33398 1 -8.00098 11s3 18.333 5 25c10.667 23.333 33.167 37 67.5 41s58.833 9.66699 73.5 17
c-15.333 0 -33.333 5.5 -54 16.5s-29 31.5 -25 61.5c0.666992 23.333 7.16699 44.333 19.5 63s27.5 33 45.5 43s38.167 13.833 60.5 11.5s43.833 -13.5 64.5 -33.5c6 -9.33301 5.5 -19.5 -1.5 -30.5s-18.167 -22.5 -33.5 -34.5z" />
    <glyph glyph-name="uni0673.fina" unicode="&#x673;" horiz-adv-x="443" 
d="M106 1017l91.002 101.002c0 -33.333 1.66699 -82 5 -146l5 -94c4 -70 6.33301 -111.333 7 -124l11 -159l8 -117l6 -81c5.33301 -70.667 12.833 -120.334 22.5 -149.001s26.167 -51.667 49.5 -69c34 -24 83.667 -36 149 -36c19.333 0 31.333 -5.66699 36 -17l1 -4v-3v-87
c0 -10.667 -5.33301 -18.667 -16 -24s-27.334 -8 -50.001 -8c-98 0 -167 23.667 -207 71c-18 22 -30.833 48.167 -38.5 78.5s-13.834 80.166 -18.501 149.499l-4 66l-6 99l-8 106c-4.66699 68.667 -7 106 -7 112l-11 111l-10 89c-2 27.333 -7 72.333 -15 135z
M315.002 -191.998c2.66699 1.33301 -1.49707 7.49902 -12.4971 18.499s-22.833 18.5 -35.5 22.5c-8.66699 2.66699 -21.334 -0.5 -38.001 -9.5s-27.334 -21.833 -32.001 -38.5c4 -19.333 13 -33.166 27 -41.499s30.667 -13.333 50 -15s39.333 -0.833984 60 2.49902
s39.334 7 56.001 11c7.33301 2 9.16602 -1.66699 5.49902 -11s-9.5 -21.666 -17.5 -36.999c-32 -23.333 -83.167 -37.5 -153.5 -42.5s-111.5 -21.833 -123.5 -50.5c-6.66699 -2.66699 -9.33398 1 -8.00098 11s3 18.333 5 25c10.667 23.333 33.167 37 67.5 41
s58.833 9.66699 73.5 17c-15.333 0 -33.333 5.5 -54 16.5s-29 31.5 -25 61.5c0.666992 23.333 7.16699 44.333 19.5 63s27.5 33 45.5 43s38.167 13.833 60.5 11.5s43.833 -13.5 64.5 -33.5c6 -9.33301 5.5 -19.5 -1.5 -30.5s-18.167 -22.5 -33.5 -34.5z" />
    <glyph glyph-name="uni0675.fina" unicode="&#x675;" horiz-adv-x="443" 
d="M106 1017l91.002 101.002c0 -33.333 1.66699 -82 5 -146l5 -94c4 -70 6.33301 -111.333 7 -124l11 -159l8 -117l6 -81c5.33301 -70.667 12.833 -120.334 22.5 -149.001s26.167 -51.667 49.5 -69c34 -24 83.667 -36 149 -36c19.333 0 31.333 -5.66699 36 -17l1 -4v-3v-87
c0 -10.667 -5.33301 -18.667 -16 -24s-27.334 -8 -50.001 -8c-98 0 -167 23.667 -207 71c-18 22 -30.833 48.167 -38.5 78.5s-13.834 80.166 -18.501 149.499l-4 66l-6 99l-8 106c-4.66699 68.667 -7 106 -7 112l-11 111l-10 89c-2 27.333 -7 72.333 -15 135zM119.002 1172
c-6.66699 -2.66699 -13.6641 -6.66895 -20.9971 -12.002s-14.166 -10.833 -20.499 -16.5s-12 -11.834 -17 -18.501s-8.5 -13 -10.5 -19c-4.66699 4 -7.5 9.16699 -8.5 15.5s-1 13.833 0 22.5s4 17.667 9 27s12.167 18.333 21.5 27c-17.333 8 -29.833 17 -37.5 27
s-11.5 22 -11.5 36s4 28.5 12 43.5s18.167 28.833 30.5 41.5s26 23.334 41 32.001s29.5 13 43.5 13s25.833 -3.66699 35.5 -11s14.5 -16.666 14.5 -27.999c0 -9.33301 -3.33301 -18.166 -10 -26.499s-13.667 -15.166 -21 -20.499
c-5.33301 9.33301 -11.833 15.833 -19.5 19.5s-15.167 5.5 -22.5 5.5c-8 0 -15.5 -1 -22.5 -3s-13.167 -4.66699 -18.5 -8s-9.5 -6.83301 -12.5 -10.5s-4.5 -7.16699 -4.5 -10.5c0 -4 1.83301 -8.66699 5.5 -14s8.66699 -10.5 15 -15.5s14.333 -9.16699 24 -12.5
s20.5 -5 32.5 -5c9.33301 0 19.833 1.16699 31.5 3.5s23.667 5.33301 36 9s24.5 7.66699 36.5 12s23 8.83301 33 13.5c-4.66699 -14.667 -9.33398 -26.834 -14.001 -36.501s-10.334 -17.667 -17.001 -24s-14.834 -11.5 -24.501 -15.5s-21.5 -7.66699 -35.5 -11
c-4.66699 -2 -10.334 -4.16699 -17.001 -6.5s-13.5 -5 -20.5 -8l-20 -8.5c-6.33301 -2.66699 -11.5 -5 -15.5 -7z" />
    <glyph glyph-name="uni0676.fina" unicode="&#x676;" horiz-adv-x="693" 
d="M530 149c-2.66699 32 -9.33398 57.001 -20.001 75.001c-18 27.333 -40 41 -66 41c-15.333 0 -28.666 -7.33301 -39.999 -22s-17 -32.334 -17 -53.001c0 -37.333 24.667 -56 74 -56c24.667 0 47.667 5 69 15zM594 0.000976562
c-16.667 -68 -33.6709 -121.668 -51.0039 -161.001c-35.333 -78 -79.333 -143.667 -132 -197c-38.667 -39.333 -80.167 -70.5 -124.5 -93.5s-85.166 -34.5 -122.499 -34.5c-28.667 0 -54.5 4 -77.5 12s-49.833 22 -80.5 42c-27.333 17.333 -50.166 34.333 -68.499 51
s-27.5 28.334 -27.5 35.001c0 3.33301 1.33301 6 4 8s6 3 10 3c6 0 14 -1.66699 24 -5l30 -10l38 -11c36.667 -11.333 72 -17 106 -17c46.667 0 100.667 19 162 57c38.667 24 74.834 51.833 108.501 83.5s61.5 63.5 83.5 95.5c18.667 29.333 32.167 54.333 40.5 75
s12.5 41.667 12.5 63v5l-39 -1c-58.667 0 -100.667 5.66699 -126 17c-37.333 18.667 -56 52.334 -56 101.001c0 62.667 24 129 72 199c36.667 55.333 70 83 100 83c32 0 61.667 -35.667 89 -107c16 -42.667 25.667 -92.334 29 -149.001h94c10 -0.666992 16.333 -1 19 -1
c19.333 0 31 -5.66699 35 -17l1 -4v-3v-87c0 -10 -4.66699 -17.833 -14 -23.5s-22.666 -8.5 -39.999 -8.5h-99zM410.996 523c-6.66699 -2.66699 -13.6641 -6.66895 -20.9971 -12.002s-14.166 -10.833 -20.499 -16.5s-12 -11.834 -17 -18.501s-8.5 -13 -10.5 -19
c-4.66699 4 -7.5 9.16699 -8.5 15.5s-1 13.833 0 22.5s4 17.667 9 27s12.167 18.333 21.5 27c-17.333 8 -29.833 17 -37.5 27s-11.5 22 -11.5 36s4 28.5 12 43.5s18.167 28.833 30.5 41.5s26 23.334 41 32.001s29.5 13 43.5 13s25.833 -3.66699 35.5 -11
s14.5 -16.666 14.5 -27.999c0 -9.33301 -3.33301 -18.166 -10 -26.499s-13.667 -15.166 -21 -20.499c-5.33301 9.33301 -11.833 15.833 -19.5 19.5s-15.167 5.5 -22.5 5.5c-8 0 -15.5 -1 -22.5 -3s-13.167 -4.66699 -18.5 -8s-9.5 -6.83301 -12.5 -10.5
s-4.5 -7.16699 -4.5 -10.5c0 -4 1.83301 -8.66699 5.5 -14s8.66699 -10.5 15 -15.5s14.333 -9.16699 24 -12.5s20.5 -5 32.5 -5c9.33301 0 19.833 1.16699 31.5 3.5s23.667 5.33301 36 9s24.5 7.66699 36.5 12s23 8.83301 33 13.5
c-4.66699 -14.667 -9.33398 -26.834 -14.001 -36.501s-10.334 -17.667 -17.001 -24s-14.834 -11.5 -24.501 -15.5s-21.5 -7.66699 -35.5 -11c-4.66699 -2 -10.334 -4.16699 -17.001 -6.5s-13.5 -5 -20.5 -8l-20 -8.5c-6.33301 -2.66699 -11.5 -5 -15.5 -7z" />
    <glyph glyph-name="uni0677.fina" unicode="&#x677;" horiz-adv-x="693" 
d="M530 149c-2.66699 32 -9.33398 57.001 -20.001 75.001c-18 27.333 -40 41 -66 41c-15.333 0 -28.666 -7.33301 -39.999 -22s-17 -32.334 -17 -53.001c0 -37.333 24.667 -56 74 -56c24.667 0 47.667 5 69 15zM594 0.000976562
c-16.667 -68 -33.6709 -121.668 -51.0039 -161.001c-35.333 -78 -79.333 -143.667 -132 -197c-38.667 -39.333 -80.167 -70.5 -124.5 -93.5s-85.166 -34.5 -122.499 -34.5c-28.667 0 -54.5 4 -77.5 12s-49.833 22 -80.5 42c-27.333 17.333 -50.166 34.333 -68.499 51
s-27.5 28.334 -27.5 35.001c0 3.33301 1.33301 6 4 8s6 3 10 3c6 0 14 -1.66699 24 -5l30 -10l38 -11c36.667 -11.333 72 -17 106 -17c46.667 0 100.667 19 162 57c38.667 24 74.834 51.833 108.501 83.5s61.5 63.5 83.5 95.5c18.667 29.333 32.167 54.333 40.5 75
s12.5 41.667 12.5 63v5l-39 -1c-58.667 0 -100.667 5.66699 -126 17c-37.333 18.667 -56 52.334 -56 101.001c0 62.667 24 129 72 199c36.667 55.333 70 83 100 83c32 0 61.667 -35.667 89 -107c16 -42.667 25.667 -92.334 29 -149.001h94c10 -0.666992 16.333 -1 19 -1
c19.333 0 31 -5.66699 35 -17l1 -4v-3v-87c0 -10 -4.66699 -17.833 -14 -23.5s-22.666 -8.5 -39.999 -8.5h-99zM473.996 593c-6.66699 -2.66699 -13.6641 -6.66895 -20.9971 -12.002s-14.166 -10.833 -20.499 -16.5s-12 -11.834 -17 -18.501s-8.5 -13 -10.5 -19
c-4.66699 4 -7.5 9.16699 -8.5 15.5s-1 13.833 0 22.5s4 17.667 9 27s12.167 18.333 21.5 27c-17.333 8 -29.833 17 -37.5 27s-11.5 22 -11.5 36s4 28.5 12 43.5s18.167 28.833 30.5 41.5s26 23.334 41 32.001s29.5 13 43.5 13s25.833 -3.66699 35.5 -11
s14.5 -16.666 14.5 -27.999c0 -9.33301 -3.33301 -18.166 -10 -26.499s-13.667 -15.166 -21 -20.499c-5.33301 9.33301 -11.833 15.833 -19.5 19.5s-15.167 5.5 -22.5 5.5c-8 0 -15.5 -1 -22.5 -3s-13.167 -4.66699 -18.5 -8s-9.5 -6.83301 -12.5 -10.5
s-4.5 -7.16699 -4.5 -10.5c0 -4 1.83301 -8.66699 5.5 -14s8.66699 -10.5 15 -15.5s14.333 -9.16699 24 -12.5s20.5 -5 32.5 -5c9.33301 0 19.833 1.16699 31.5 3.5s23.667 5.33301 36 9s24.5 7.66699 36.5 12s23 8.83301 33 13.5
c-4.66699 -14.667 -9.33398 -26.834 -14.001 -36.501s-10.334 -17.667 -17.001 -24s-14.834 -11.5 -24.501 -15.5s-21.5 -7.66699 -35.5 -11c-4.66699 -2 -10.334 -4.16699 -17.001 -6.5s-13.5 -5 -20.5 -8l-20 -8.5c-6.33301 -2.66699 -11.5 -5 -15.5 -7zM310.81 636.725
l-5.35059 -72.4199l-58.8691 39.6406c-59.123 -71.1504 -107.798 -106.726 -146.024 -106.726c-9.17383 0 -23.6992 2.79492 -43.5771 8.38477c50.458 27.9521 102.7 66.0684 156.727 114.349c-29.5615 22.8701 -44.3428 44.9775 -44.3428 66.3232
c0 29.4766 11.2129 60.2236 33.6396 92.2412c14.7803 20.8369 32.1094 31.2559 51.9873 31.2559c33.6396 0 50.459 -21.5996 50.459 -64.7979c0 -23.3779 -7.90039 -52.0928 -23.7002 -86.1436c7.13574 -4.57422 16.8193 -11.9434 29.0518 -22.1074zM259.587 701.523
c0 11.1807 -3.69531 21.4717 -11.085 30.873c-7.39062 9.40234 -16.6924 14.1035 -27.9053 14.1035c-9.1748 0 -13.7617 -4.82812 -13.7617 -14.4844c0 -14.7383 16.0547 -33.0342 48.165 -54.8877c3.05762 10.165 4.58691 18.2969 4.58691 24.3955z" />
    <glyph glyph-name="uni0678.fina" unicode="&#x678;" horiz-adv-x="1111" 
d="M1165 119l0.00488281 -86.999c0 -8 -3.66699 -15 -11 -21c-5.33301 -4.66699 -12.5 -7.66699 -21.5 -9s-34.833 -2 -77.5 -2h-90c-32.667 0 -61 -5.33301 -85 -16c-14 -6 -25.667 -12.333 -35 -19s-14 -12.334 -14 -17.001c0 -8.66699 20.333 -18 61 -28l42 -10l41 -9
c46.667 -10 80 -20 100 -30c11.333 -5.33301 19.166 -10.833 23.499 -16.5s6.5 -13.5 6.5 -23.5c0 -38 -16.667 -78.333 -50 -121c-24.667 -32.667 -61.167 -64.5 -109.5 -95.5s-100.166 -56.833 -155.499 -77.5c-43.333 -22 -89.833 -38.167 -139.5 -48.5
s-98.834 -15.5 -147.501 -15.5c-24 0 -63 3 -117 9c-60.667 6.66699 -123.334 21.667 -188.001 45c-80.667 42 -121 111.667 -121 209c0 36.667 5.66699 75.5 17 116.5s27.666 79.833 48.999 116.5c16 28 31.833 51.167 47.5 69.5s27.5 27.5 35.5 27.5
c8.66699 0 13 -4.66699 13 -14c0 -4.66699 -4.66699 -14.334 -14 -29.001c-48 -72.667 -72 -139.667 -72 -201c0 -37.333 9.83301 -68.833 29.5 -94.5s49.5 -47.167 89.5 -64.5c58 -24 137 -36 237 -36c120 0 233.333 17.333 340 52c44.667 14.667 81 28.667 109 42
s42 24 42 32c0 4.66699 -8.66699 9.83398 -26 15.501s-48 13.5 -92 23.5c-30.667 6.66699 -49.667 11.334 -57 14.001l-58 16c-35.333 10 -53 21.667 -53 35c0 16.667 7 42 21 76c27.333 63.333 69 117.333 125 162c29.333 22 51.666 35.667 66.999 41s39.666 8 72.999 8h82
h48c10.667 0 18.5 -1.33301 23.5 -4s8.5 -7.33398 10.5 -14.001l1 -4v-3zM463.005 -848.999c-6.66699 -2.66699 -13.6641 -6.66895 -20.9971 -12.002s-14.166 -10.833 -20.499 -16.5s-12 -11.834 -17 -18.501s-8.5 -13 -10.5 -19c-4.66699 4 -7.5 9.16699 -8.5 15.5
s-1 13.833 0 22.5s4 17.667 9 27s12.167 18.333 21.5 27c-17.333 8 -29.833 17 -37.5 27s-11.5 22 -11.5 36s4 28.5 12 43.5s18.167 28.833 30.5 41.5s26 23.334 41 32.001s29.5 13 43.5 13s25.833 -3.66699 35.5 -11s14.5 -16.666 14.5 -27.999
c0 -9.33301 -3.33301 -18.166 -10 -26.499s-13.667 -15.166 -21 -20.499c-5.33301 9.33301 -11.833 15.833 -19.5 19.5s-15.167 5.5 -22.5 5.5c-8 0 -15.5 -1 -22.5 -3s-13.167 -4.66699 -18.5 -8s-9.5 -6.83301 -12.5 -10.5s-4.5 -7.16699 -4.5 -10.5
c0 -4 1.83301 -8.66699 5.5 -14s8.66699 -10.5 15 -15.5s14.333 -9.16699 24 -12.5s20.5 -5 32.5 -5c9.33301 0 19.833 1.16699 31.5 3.5s23.667 5.33301 36 9s24.5 7.66699 36.5 12s23 8.83301 33 13.5c-4.66699 -14.667 -9.33398 -26.834 -14.001 -36.501
s-10.334 -17.667 -17.001 -24s-14.834 -11.5 -24.501 -15.5s-21.5 -7.66699 -35.5 -11c-4.66699 -2 -10.334 -4.16699 -17.001 -6.5s-13.5 -5 -20.5 -8l-20 -8.5c-6.33301 -2.66699 -11.5 -5 -15.5 -7z" />
    <glyph glyph-name="uni067C.init" unicode="&#x67c;" horiz-adv-x="369" 
d="M14 -47c0 31.333 10.332 60.333 30.999 87c23.333 27.333 47.333 41 72 41c36 0 65 -15.333 87 -46c22 -34 33 -73.667 33 -119c0 -34.667 -8 -60.667 -24 -78c-17.333 -18.667 -40.666 -28 -69.999 -28c-20 0 -39 6 -57 18s-29.333 21 -34 27
c-25.333 29.333 -38 62 -38 98zM51.999 -69c92 -41.333 144.001 -35.666 156.001 17.001c0 15.333 -4.66699 29.666 -14 42.999c-10.667 9.33301 -23.334 14 -38.001 14s-33.667 -7.66699 -57 -23c-31.333 -20.667 -47 -37.667 -47 -51zM245 489
c18.667 -29.333 34.666 -63.998 47.999 -103.998c8 -20 14.333 -43.167 19 -69.5s7 -47.833 7 -64.5c0 -28.667 -11 -68.334 -33 -119.001c-15.333 -34.667 -28.333 -61 -39 -79c-6.66699 -8.66699 -16 -15.834 -28 -21.501s-32 -11.5 -60 -17.5
c-39.333 -8 -77 -12 -113 -12h-46c-17.333 0 -30.666 2.66699 -39.999 8s-14 13.333 -14 24v90l1 4c4 10.667 15.667 16 35 16l38 1l40 1c46 0 84.5 4.83301 115.5 14.5s56.833 24.167 77.5 43.5c-8 28.667 -17.5 53.5 -28.5 74.5s-27.5 46.5 -49.5 76.5zM28.999 841.002
c38 -31.333 70.332 -54.999 96.999 -70.999l17 -10c26 33.333 47 64.333 63 93l5 7c6 -4 9.66699 -7 11 -9l19 -15c18 -14.667 38.333 -28.334 61 -41.001l20 -12c2.66699 -1.33301 7.66699 -4.33301 15 -9c-30 -30.667 -57 -70.334 -81 -119.001
c-34 32.667 -70.333 59.334 -109 80.001c-20 -24 -41.333 -60 -64 -108c-22 24 -55 50.333 -99 79l-22 14c-1.33301 1.33301 -4.66602 4 -9.99902 8c33.333 39.333 59 77 77 113z" />
    <glyph glyph-name="uni067C.medi" unicode="&#x67c;" horiz-adv-x="419" 
d="M10 -37c0 -36 12.832 -68.667 38.499 -98s55.834 -44 90.501 -44c29.333 0 53 9 71 27c16 17.333 24 43.333 24 78c0 45.333 -11 85 -33 119c-22.667 30.667 -52 46 -88 46c-24.667 0 -48.667 -13.667 -72 -41c-20.667 -26.667 -31 -55.667 -31 -87zM59.999 -57
c0 13.333 12 29.667 36 49c23.333 15.333 42.333 23 57 23c14 0 26.333 -4.66699 37 -14c9.33301 -12.667 14 -26.667 14 -42c0 -33.333 -26 -50 -78 -50c-27.333 0.666992 -49.333 12 -66 34zM-54.001 38.001c0 -14 6.00391 -23.8311 18.0039 -29.498s24 -8.5 36 -8.5
c34.667 0 65 6.16699 91 18.5s48 25.666 66 39.999s32.667 27.666 44 39.999s20.333 18.5 27 18.5s13.5 -6 20.5 -18s17.167 -25.667 30.5 -41c6.66699 -6.66699 14.334 -13.5 23.001 -20.5s18.667 -13.333 30 -19s24.166 -10.167 38.499 -13.5s30.5 -5 48.5 -5
c12 0 24 2.83301 36 8.5s18 15.5 18 29.5v70c0 14 -3.5 23.667 -10.5 29s-16.833 8 -29.5 8c-30 0 -54.167 3.33301 -72.5 10s-32.5 14.667 -42.5 24s-17.167 19.666 -21.5 30.999s-7.83301 21.833 -10.5 31.5s-5.33398 17.667 -8.00098 24s-7.33398 9.5 -14.001 9.5
c-6 0 -12.167 -3.16699 -18.5 -9.5s-13.5 -14.333 -21.5 -24s-18 -20.167 -30 -31.5s-27.333 -21.666 -46 -30.999s-41.334 -17.333 -68.001 -24s-58.334 -10 -95.001 -10c-12 0 -21.5 -2.66699 -28.5 -8s-10.5 -15 -10.5 -29v-70zM77.0029 691.003
c38 -31.333 70.332 -54.999 96.999 -70.999l17 -10c26 33.333 47 64.333 63 93l5 7c6 -4 9.66699 -7 11 -9l19 -15c18 -14.667 38.333 -28.334 61 -41.001l20 -12c2.66699 -1.33301 7.66699 -4.33301 15 -9c-30 -30.667 -57 -70.334 -81 -119.001
c-34 32.667 -70.333 59.334 -109 80.001c-20 -24 -41.333 -60 -64 -108c-22 24 -55 50.333 -99 79l-22 14c-1.33301 1.33301 -4.66602 4 -9.99902 8c33.333 39.333 59 77 77 113z" />
    <glyph glyph-name="uni067C.fina" unicode="&#x67c;" horiz-adv-x="1496" 
d="M591 -104c0 -36 12.833 -68.833 38.5 -98.5s55.5 -44.5 89.5 -44.5c30 0 53.667 9.33301 71 28c16 17.333 24 43.333 24 78c0 45.333 -11 85 -33 119c-22 30.667 -51 46 -87 46c-24.667 0 -48.667 -13.667 -72 -41c-20.667 -26.667 -31 -55.667 -31 -87zM640 -124
c0 13.333 12 29.666 36 48.999c23.333 15.333 42.333 23 57 23c14 0 26.667 -4.66699 38 -14c9.33301 -13.333 14 -27.666 14 -42.999c0 -32.667 -26 -49 -78 -49c-28 0.666992 -50.333 12 -67 34zM1289 121c9.33301 -34 20.168 -58.332 32.501 -72.999
s31.833 -26.334 58.5 -35.001c28 -9.33301 70 -14 126 -14c12.667 0 23.334 3 32.001 9s13 13.667 13 23v86c0 1.33301 -0.333008 2.66602 -1 3.99902l-1 4c-4 11.333 -16.333 17 -37 17h-14c-35.333 0 -68 3.66699 -98 11c-28.667 7.33301 -49 16.833 -61 28.5
s-21 30.834 -27 57.501c-5.33301 21.333 -9.33301 34.5 -12 39.5s-7 7.5 -13 7.5c-10.667 0 -18.667 -14.333 -24 -43c-2.66699 -16 -10.667 -29.333 -24 -40c-35.333 -28 -105.333 -52.167 -210 -72.5s-212 -30.5 -322 -30.5c-79.333 0 -155.333 6.83301 -228 20.5
s-133.334 32.834 -182.001 57.501c-92 46 -138 110.333 -138 193c0 28.667 8.33301 65.667 25 111c5.33301 14 8 23.333 8 28c0 5.33301 -2 8 -6 8c-12 0 -29 -21.333 -51 -64c-33.333 -64.667 -50 -129.667 -50 -195c0 -52.667 14.5 -99.834 43.5 -141.501
s71.167 -75.5 126.5 -101.5c97.333 -46.667 225.666 -70 384.999 -70c151.333 0 280.333 15.667 387 47c37.333 10.667 79.833 27.667 127.5 51s92.5 49 134.5 77zM621.002 858.001c38 -31.333 70.332 -54.999 96.999 -70.999l17 -10c26 33.333 47 64.333 63 93l5 7
c6 -4 9.66699 -7 11 -9l19 -15c18 -14.667 38.333 -28.334 61 -41.001l20 -12c2.66699 -1.33301 7.66699 -4.33301 15 -9c-30 -30.667 -57 -70.334 -81 -119.001c-34 32.667 -70.333 59.334 -109 80.001c-20 -24 -41.333 -60 -64 -108c-22 24 -55 50.333 -99 79l-22 14
c-1.33301 1.33301 -4.66602 4 -9.99902 8c33.333 39.333 59 77 77 113z" />
    <glyph glyph-name="uni067D.init" unicode="&#x67d;" horiz-adv-x="427" 
d="M245 489c18.667 -29.333 34.666 -63.998 47.999 -103.998c8 -20 14.333 -43.167 19 -69.5s7 -47.833 7 -64.5c0 -28.667 -11 -68.334 -33 -119.001c-15.333 -34.667 -28.333 -61 -39 -79c-6.66699 -8.66699 -16 -15.834 -28 -21.501s-32 -11.5 -60 -17.5
c-39.333 -8 -77 -12 -113 -12h-46c-17.333 0 -30.666 2.66699 -39.999 8s-14 13.333 -14 24v90l1 4c4 10.667 15.667 16 35 16l38 1l40 1c46 0 84.5 4.83301 115.5 14.5s56.833 24.167 77.5 43.5c-8 28.667 -17.5 53.5 -28.5 74.5s-27.5 46.5 -49.5 76.5zM212.999 1030
c18.667 -18.667 38.8291 -36.1641 60.4961 -52.4971s44.834 -31.5 69.501 -45.5c-16 -19.333 -30.167 -38.5 -42.5 -57.5s-23.5 -38.833 -33.5 -59.5c-18 16 -36.333 31.167 -55 45.5s-37.667 26.833 -57 37.5c-13.333 -16 -26.166 -32.5 -38.499 -49.5
s-22.166 -34.833 -29.499 -53.5l-60.5 48c-20.333 16 -42.833 29.333 -67.5 40l43.5 58c14.333 20 26.833 40.667 37.5 62c14 -15.333 30.333 -29.833 49 -43.5s38.334 -25.834 59.001 -36.501c14 15.333 26.5 32.166 37.5 50.499s20.167 37.166 27.5 56.499z
M161.994 830.005l64.4961 -50.498c21.667 -17 44.834 -31.5 69.501 -43.5l-50 -62.5c-17.333 -21.667 -31.333 -44.167 -42 -67.5c-19.333 19.333 -39.166 37.666 -59.499 54.999s-42.166 31.666 -65.499 42.999c34.667 38 62.334 80 83.001 126z" />
    <glyph glyph-name="uni067D.medi" unicode="&#x67d;" horiz-adv-x="419" 
d="M-54 108c0 14 3.49609 23.665 10.4961 28.998s16.5 8 28.5 8c36.667 0 68.334 3.33301 95.001 10s49.334 14.667 68.001 24s34 19.666 46 30.999s22 21.833 30 31.5s15.167 17.667 21.5 24s12.5 9.5 18.5 9.5c6.66699 0 11.334 -3.16699 14.001 -9.5
s5.33398 -14.333 8.00098 -24s6.16699 -20.167 10.5 -31.5s11.5 -21.666 21.5 -30.999s24.167 -17.333 42.5 -24s42.5 -10 72.5 -10c12.667 0 22.5 -2.66699 29.5 -8s10.5 -15 10.5 -29v-70c0 -14 -6 -23.833 -18 -29.5s-24 -8.5 -36 -8.5c-18 0 -34.167 1.66699 -48.5 5
s-27.166 7.83301 -38.499 13.5s-21.333 12 -30 19s-16.334 13.833 -23.001 20.5c-13.333 15.333 -23.5 29 -30.5 41s-13.833 18 -20.5 18s-15.667 -6.16699 -27 -18.5s-26 -25.666 -44 -39.999s-40 -27.666 -66 -39.999s-56.333 -18.5 -91 -18.5c-12 -0 -24 2.83301 -36 8.5
s-18 15.5 -18 29.5v70zM255.996 863.998c18.667 -18.667 38.8291 -36.1641 60.4961 -52.4971s44.834 -31.5 69.501 -45.5c-16 -19.333 -30.167 -38.5 -42.5 -57.5s-23.5 -38.833 -33.5 -59.5c-18 16 -36.333 31.167 -55 45.5s-37.667 26.833 -57 37.5
c-13.333 -16 -26.166 -32.5 -38.499 -49.5s-22.166 -34.833 -29.499 -53.5l-60.5 48c-20.333 16 -42.833 29.333 -67.5 40l43.5 58c14.333 20 26.833 40.667 37.5 62c14 -15.333 30.333 -29.833 49 -43.5s38.334 -25.834 59.001 -36.501c14 15.333 26.5 32.166 37.5 50.499
s20.167 37.166 27.5 56.499zM204.991 664.001l64.4961 -50.498c21.667 -17 44.834 -31.5 69.501 -43.5l-50 -62.5c-17.333 -21.667 -31.333 -44.167 -42 -67.5c-19.333 19.333 -39.166 37.666 -59.499 54.999s-42.166 31.666 -65.499 42.999c34.667 38 62.334 80 83.001 126
z" />
    <glyph glyph-name="uni067D.fina" unicode="&#x67d;" horiz-adv-x="1496" 
d="M1289 121c-42 -28 -86.835 -53.668 -134.502 -77.001s-90.167 -40.333 -127.5 -51c-106.667 -31.333 -235.667 -47 -387 -47c-159.333 0 -287.666 23.333 -384.999 70c-55.333 26 -97.5 59.833 -126.5 101.5s-43.5 88.834 -43.5 141.501c0 65.333 16.667 130.333 50 195
c22 42.667 39 64 51 64c4 0 6 -2.66699 6 -8c0 -4.66699 -2.66699 -14 -8 -28c-16.667 -45.333 -25 -82.333 -25 -111c0 -82.667 46 -147 138 -193c48.667 -24.667 109.334 -43.834 182.001 -57.501s148.667 -20.5 228 -20.5c110 0 217.333 10.167 322 30.5
s174.667 44.5 210 72.5c13.333 10.667 21.333 24 24 40c5.33301 28.667 13.333 43 24 43c6 0 10.333 -2.5 13 -7.5s6.66699 -18.167 12 -39.5c6 -26.667 15 -45.834 27 -57.501s32.333 -21.167 61 -28.5c30 -7.33301 62.667 -11 98 -11h14c20.667 0 33 -5.66699 37 -17l1 -4
c0.666992 -1.33301 1 -2.66602 1 -3.99902v-86c0 -9.33301 -4.33301 -17 -13 -23s-19.334 -9 -32.001 -9c-56 0 -98 4.66699 -126 14c-26.667 8.66699 -46.167 20.334 -58.5 35.001s-23.166 39 -32.499 73zM754.998 952.999
c18.667 -18.667 38.8291 -36.1641 60.4961 -52.4971s44.834 -31.5 69.501 -45.5c-16 -19.333 -30.167 -38.5 -42.5 -57.5s-23.5 -38.833 -33.5 -59.5c-18 16 -36.333 31.167 -55 45.5s-37.667 26.833 -57 37.5c-13.333 -16 -26.166 -32.5 -38.499 -49.5
s-22.166 -34.833 -29.499 -53.5l-60.5 48c-20.333 16 -42.833 29.333 -67.5 40l43.5 58c14.333 20 26.833 40.667 37.5 62c14 -15.333 30.333 -29.833 49 -43.5s38.334 -25.834 59.001 -36.501c14 15.333 26.5 32.166 37.5 50.499s20.167 37.166 27.5 56.499z
M703.993 753.002l64.4961 -50.498c21.667 -17 44.834 -31.5 69.501 -43.5l-50 -62.5c-17.333 -21.667 -31.333 -44.167 -42 -67.5c-19.333 19.333 -39.166 37.666 -59.499 54.999s-42.166 31.666 -65.499 42.999c34.667 38 62.334 80 83.001 126z" />
    <glyph glyph-name="uni0681.init" unicode="&#x681;" horiz-adv-x="1076" 
d="M531 284c-29.333 18.667 -74.3359 39 -135.003 61c-42.667 15.333 -74.167 25.666 -94.5 30.999s-39.166 8 -56.499 8c-42.667 0 -90.667 -11.667 -144 -35c-5.33301 -2.66699 -10.333 -4 -15 -4c-10.667 0 -16 4.33301 -16 13c0 2.66699 1.33301 6.33398 4 11.001l7 14
c16.667 32 39.334 63.667 68.001 95c30 33.333 66.667 50 110 50c20.667 0 43.667 -3.83301 69 -11.5s63 -22.167 113 -43.5l62 -27c78.667 -32.667 148.834 -54.834 210.501 -66.501s141.167 -17.5 238.5 -17.5h58l-44 -125c-6 0 -28.667 1.33301 -68 4
c-35.333 2 -62 3 -80 3c-170.667 0 -349.334 -52 -536.001 -156c-41.333 -22.667 -72.5 -38.667 -93.5 -48s-44.5 -17.666 -70.5 -24.999c-36 -10.667 -73.333 -16 -112 -16c-40 0 -60 10.667 -60 32v87v3l1 4c4 11.333 15.667 17 35 17c38.667 0 82.334 3.33301 131.001 10
c34.667 4.66699 64.834 11 90.501 19s63.5 23 113.5 45c69.333 29.333 140.666 52 213.999 68zM549.997 716c-6.66699 -2.66699 -13.6641 -6.66895 -20.9971 -12.002s-14.166 -10.833 -20.499 -16.5s-12 -11.834 -17 -18.501s-8.5 -13 -10.5 -19
c-4.66699 4 -7.5 9.16699 -8.5 15.5s-1 13.833 0 22.5s4 17.667 9 27s12.167 18.333 21.5 27c-17.333 8 -29.833 17 -37.5 27s-11.5 22 -11.5 36s4 28.5 12 43.5s18.167 28.833 30.5 41.5s26 23.334 41 32.001s29.5 13 43.5 13s25.833 -3.66699 35.5 -11
s14.5 -16.666 14.5 -27.999c0 -9.33301 -3.33301 -18.166 -10 -26.499s-13.667 -15.166 -21 -20.499c-5.33301 9.33301 -11.833 15.833 -19.5 19.5s-15.167 5.5 -22.5 5.5c-8 0 -15.5 -1 -22.5 -3s-13.167 -4.66699 -18.5 -8s-9.5 -6.83301 -12.5 -10.5
s-4.5 -7.16699 -4.5 -10.5c0 -4 1.83301 -8.66699 5.5 -14s8.66699 -10.5 15 -15.5s14.333 -9.16699 24 -12.5s20.5 -5 32.5 -5c9.33301 0 19.833 1.16699 31.5 3.5s23.667 5.33301 36 9s24.5 7.66699 36.5 12s23 8.83301 33 13.5
c-4.66699 -14.667 -9.33398 -26.834 -14.001 -36.501s-10.334 -17.667 -17.001 -24s-14.834 -11.5 -24.501 -15.5s-21.5 -7.66699 -35.5 -11c-4.66699 -2 -10.334 -4.16699 -17.001 -6.5s-13.5 -5 -20.5 -8l-20 -8.5c-6.33301 -2.66699 -11.5 -5 -15.5 -7z" />
    <glyph glyph-name="uni0681.medi" unicode="&#x681;" horiz-adv-x="1145" 
d="M776 224c-19.333 0 -49.334 -2.83105 -90.001 -8.49805s-78 -12.167 -112 -19.5c-102.667 -22.667 -211 -63.667 -325 -123c-50 -26.667 -94 -45.5 -132 -56.5s-77 -16.5 -117 -16.5c-17.333 0 -30.666 2.83301 -39.999 8.5s-14 13.5 -14 23.5v87v3l1 4
c4 12 15.667 18 35 18h36c30.667 0 73.334 5 128.001 15c25.333 5.33301 47.5 11 66.5 17s46.167 16.333 81.5 31c68.667 29.333 133.667 52.666 195 69.999l34 10c-9.33301 3.33301 -15.333 5.33301 -18 6l-33 14l-42 16l-49 18c-57.333 22 -103 33 -137 33
c-24 0 -50.333 -4 -79 -12l-34 -11c-16.667 -4.66699 -27.334 -8.33398 -32.001 -11.001c-6 -2.66699 -11 -4 -15 -4c-7.33301 0 -11 3.66699 -11 11c0 4.66699 5.5 17 16.5 37s21.833 37.667 32.5 53c22 28.667 43.333 49.334 64 62.001s44.667 19 72 19
s55.333 -4.83301 84 -14.5s74 -30.167 136 -61.5c54.667 -28 98.167 -47.167 130.5 -57.5s70.833 -17.833 115.5 -22.5c65.333 -7.33301 131.333 -11 198 -11h56l54 1l-39 -123c-24.667 4 -45.667 6 -63 6c-30 0 -61 -3 -93 -9c-4.66699 -8.66699 -7 -17.334 -7 -26.001
c0 -15.333 9.66699 -28 29 -38c8.66699 -4.66699 21.5 -8.5 38.5 -11.5s33.833 -4.5 50.5 -4.5l196 -2l20 -1c18.667 0 30.334 -5.66699 35.001 -17l1 -4v-3v-87c0 -6.66699 -3 -13 -9 -19c-5.33301 -5.33301 -12.5 -8.83301 -21.5 -10.5s-24.5 -2.5 -46.5 -2.5h-91l-61 1
c-68.667 0 -121.334 9 -158.001 27c-47.333 22.667 -71 56 -71 100c0 32 11.333 64 34 96zM503.999 721.002c-6.66699 -2.66699 -13.6641 -6.66895 -20.9971 -12.002s-14.166 -10.833 -20.499 -16.5s-12 -11.834 -17 -18.501s-8.5 -13 -10.5 -19
c-4.66699 4 -7.5 9.16699 -8.5 15.5s-1 13.833 0 22.5s4 17.667 9 27s12.167 18.333 21.5 27c-17.333 8 -29.833 17 -37.5 27s-11.5 22 -11.5 36s4 28.5 12 43.5s18.167 28.833 30.5 41.5s26 23.334 41 32.001s29.5 13 43.5 13s25.833 -3.66699 35.5 -11
s14.5 -16.666 14.5 -27.999c0 -9.33301 -3.33301 -18.166 -10 -26.499s-13.667 -15.166 -21 -20.499c-5.33301 9.33301 -11.833 15.833 -19.5 19.5s-15.167 5.5 -22.5 5.5c-8 0 -15.5 -1 -22.5 -3s-13.167 -4.66699 -18.5 -8s-9.5 -6.83301 -12.5 -10.5
s-4.5 -7.16699 -4.5 -10.5c0 -4 1.83301 -8.66699 5.5 -14s8.66699 -10.5 15 -15.5s14.333 -9.16699 24 -12.5s20.5 -5 32.5 -5c9.33301 0 19.833 1.16699 31.5 3.5s23.667 5.33301 36 9s24.5 7.66699 36.5 12s23 8.83301 33 13.5
c-4.66699 -14.667 -9.33398 -26.834 -14.001 -36.501s-10.334 -17.667 -17.001 -24s-14.834 -11.5 -24.501 -15.5s-21.5 -7.66699 -35.5 -11c-4.66699 -2 -10.334 -4.16699 -17.001 -6.5s-13.5 -5 -20.5 -8l-20 -8.5c-6.33301 -2.66699 -11.5 -5 -15.5 -7z" />
    <glyph glyph-name="uni0681.fina" unicode="&#x681;" horiz-adv-x="1150" 
d="M781 261c4 -42.667 19.333 -72.333 46 -89c18 -11.333 43 -18.833 75 -22.5s83 -5.5 153 -5.5h82h30c20 0 32 -5.66699 36 -17l1 -4v-4v-86c0 -10.667 -5.16699 -18.834 -15.5 -24.501s-24.833 -8.5 -43.5 -8.5h-20h-32h-54h-82c-90 0 -154 9.33301 -192 28
c-46 22 -69 54 -69 96c0 36 10 78.667 30 128c-96.667 -13.333 -188.334 -44.666 -275.001 -93.999s-154 -108 -202 -176c-53.333 -76.667 -80 -159 -80 -247c0 -66 15.5 -126.833 46.5 -182.5s75.833 -102.5 134.5 -140.5c51.333 -33.333 115.5 -58.5 192.5 -75.5
s163.833 -25.5 260.5 -25.5c60 0 128 3.33301 204 10s137 15 183 25c23.333 4 38.666 6 45.999 6c16 0 24 -4.33301 24 -13c0 -5.33301 -3.16699 -10.833 -9.5 -16.5s-18.833 -13.834 -37.5 -24.501c-58.667 -33.333 -137 -64.666 -235 -93.999
c-84 -24.667 -174 -37 -270 -37c-192.667 0 -344.667 42.333 -456 127s-167 201 -167 349c0 148.667 43 281 129 397c40.667 54 85.167 100.833 133.5 140.5s103.833 74.834 166.5 105.501v7l-49 7l-41 6c-54.667 8 -94.667 12 -120 12c-30 0 -54 -3.16699 -72 -9.5
s-35 -17.5 -51 -33.5c-16.667 -16.667 -28 -25 -34 -25c-4 0 -7.5 1.66699 -10.5 5s-4.5 7.66602 -4.5 12.999c0 8 2.66699 17 8 27l15 29c8 15.333 19.5 32 34.5 50s29.5 33.333 43.5 46c34 28.667 72 43 114 43c28.667 0 75.334 -6.66699 140.001 -20
c72 -15.333 132.667 -25.333 182 -30s117.333 -7 204 -7l106 1h30l-60 -131c-11.333 1.33301 -19 2 -23 2c-53.333 0 -101.666 -5.66699 -144.999 -17zM585 664.001c-6.66699 -2.66699 -13.6641 -6.66895 -20.9971 -12.002s-14.166 -10.833 -20.499 -16.5
s-12 -11.834 -17 -18.501s-8.5 -13 -10.5 -19c-4.66699 4 -7.5 9.16699 -8.5 15.5s-1 13.833 0 22.5s4 17.667 9 27s12.167 18.333 21.5 27c-17.333 8 -29.833 17 -37.5 27s-11.5 22 -11.5 36s4 28.5 12 43.5s18.167 28.833 30.5 41.5s26 23.334 41 32.001s29.5 13 43.5 13
s25.833 -3.66699 35.5 -11s14.5 -16.666 14.5 -27.999c0 -9.33301 -3.33301 -18.166 -10 -26.499s-13.667 -15.166 -21 -20.499c-5.33301 9.33301 -11.833 15.833 -19.5 19.5s-15.167 5.5 -22.5 5.5c-8 0 -15.5 -1 -22.5 -3s-13.167 -4.66699 -18.5 -8
s-9.5 -6.83301 -12.5 -10.5s-4.5 -7.16699 -4.5 -10.5c0 -4 1.83301 -8.66699 5.5 -14s8.66699 -10.5 15 -15.5s14.333 -9.16699 24 -12.5s20.5 -5 32.5 -5c9.33301 0 19.833 1.16699 31.5 3.5s23.667 5.33301 36 9s24.5 7.66699 36.5 12s23 8.83301 33 13.5
c-4.66699 -14.667 -9.33398 -26.834 -14.001 -36.501s-10.334 -17.667 -17.001 -24s-14.834 -11.5 -24.501 -15.5s-21.5 -7.66699 -35.5 -11c-4.66699 -2 -10.334 -4.16699 -17.001 -6.5s-13.5 -5 -20.5 -8l-20 -8.5c-6.33301 -2.66699 -11.5 -5 -15.5 -7z" />
    <glyph glyph-name="uni0682.init" unicode="&#x682;" horiz-adv-x="1076" 
d="M531 284c-29.333 18.667 -74.3359 39 -135.003 61c-42.667 15.333 -74.167 25.666 -94.5 30.999s-39.166 8 -56.499 8c-42.667 0 -90.667 -11.667 -144 -35c-5.33301 -2.66699 -10.333 -4 -15 -4c-10.667 0 -16 4.33301 -16 13c0 2.66699 1.33301 6.33398 4 11.001l7 14
c16.667 32 39.334 63.667 68.001 95c30 33.333 66.667 50 110 50c20.667 0 43.667 -3.83301 69 -11.5s63 -22.167 113 -43.5l62 -27c78.667 -32.667 148.834 -54.834 210.501 -66.501s141.167 -17.5 238.5 -17.5h58l-44 -125c-6 0 -28.667 1.33301 -68 4
c-35.333 2 -62 3 -80 3c-170.667 0 -349.334 -52 -536.001 -156c-41.333 -22.667 -72.5 -38.667 -93.5 -48s-44.5 -17.666 -70.5 -24.999c-36 -10.667 -73.333 -16 -112 -16c-40 0 -60 10.667 -60 32v87v3l1 4c4 11.333 15.667 17 35 17c38.667 0 82.334 3.33301 131.001 10
c34.667 4.66699 64.834 11 90.501 19s63.5 23 113.5 45c69.333 29.333 140.666 52 213.999 68zM517.997 913c42.667 -43.333 83.334 -75.667 122.001 -97c-17.333 -20 -31.166 -37.667 -41.499 -53s-23.833 -39 -40.5 -71c-36 32 -76.333 60.667 -121 86l-11 7
c21.333 24.667 39.666 48.167 54.999 70.5s27.666 41.5 36.999 57.5zM474.997 1154c42.667 -44 83.333 -76.667 122 -98c-18 -20 -32 -37.667 -42 -53s-23.333 -39 -40 -71c-36 32 -76.333 60.667 -121 86l-11 7c6.66699 7.33301 11.667 13 15 17l21 30l20 27
c14.667 20.667 26.667 39 36 55z" />
    <glyph glyph-name="uni0682.medi" unicode="&#x682;" horiz-adv-x="1145" 
d="M776 224c-19.333 0 -49.334 -2.83105 -90.001 -8.49805s-78 -12.167 -112 -19.5c-102.667 -22.667 -211 -63.667 -325 -123c-50 -26.667 -94 -45.5 -132 -56.5s-77 -16.5 -117 -16.5c-17.333 0 -30.666 2.83301 -39.999 8.5s-14 13.5 -14 23.5v87v3l1 4
c4 12 15.667 18 35 18h36c30.667 0 73.334 5 128.001 15c25.333 5.33301 47.5 11 66.5 17s46.167 16.333 81.5 31c68.667 29.333 133.667 52.666 195 69.999l34 10c-9.33301 3.33301 -15.333 5.33301 -18 6l-33 14l-42 16l-49 18c-57.333 22 -103 33 -137 33
c-24 0 -50.333 -4 -79 -12l-34 -11c-16.667 -4.66699 -27.334 -8.33398 -32.001 -11.001c-6 -2.66699 -11 -4 -15 -4c-7.33301 0 -11 3.66699 -11 11c0 4.66699 5.5 17 16.5 37s21.833 37.667 32.5 53c22 28.667 43.333 49.334 64 62.001s44.667 19 72 19
s55.333 -4.83301 84 -14.5s74 -30.167 136 -61.5c54.667 -28 98.167 -47.167 130.5 -57.5s70.833 -17.833 115.5 -22.5c65.333 -7.33301 131.333 -11 198 -11h56l54 1l-39 -123c-24.667 4 -45.667 6 -63 6c-30 0 -61 -3 -93 -9c-4.66699 -8.66699 -7 -17.334 -7 -26.001
c0 -15.333 9.66699 -28 29 -38c8.66699 -4.66699 21.5 -8.5 38.5 -11.5s33.833 -4.5 50.5 -4.5l196 -2l20 -1c18.667 0 30.334 -5.66699 35.001 -17l1 -4v-3v-87c0 -6.66699 -3 -13 -9 -19c-5.33301 -5.33301 -12.5 -8.83301 -21.5 -10.5s-24.5 -2.5 -46.5 -2.5h-91l-61 1
c-68.667 0 -121.334 9 -158.001 27c-47.333 22.667 -71 56 -71 100c0 32 11.333 64 34 96zM576.999 895.002c42.667 -43.333 83.334 -75.667 122.001 -97c-17.333 -20 -31.166 -37.667 -41.499 -53s-23.833 -39 -40.5 -71c-36 32 -76.333 60.667 -121 86l-11 7
c21.333 24.667 39.666 48.167 54.999 70.5s27.666 41.5 36.999 57.5zM533.999 1136c42.667 -44 83.333 -76.667 122 -98c-18 -20 -32 -37.667 -42 -53s-23.333 -39 -40 -71c-36 32 -76.333 60.667 -121 86l-11 7c6.66699 7.33301 11.667 13 15 17l21 30l20 27
c14.667 20.667 26.667 39 36 55z" />
    <glyph glyph-name="uni0682.fina" unicode="&#x682;" horiz-adv-x="1150" 
d="M781 261c4 -42.667 19.333 -72.333 46 -89c18 -11.333 43 -18.833 75 -22.5s83 -5.5 153 -5.5h82h30c20 0 32 -5.66699 36 -17l1 -4v-4v-86c0 -10.667 -5.16699 -18.834 -15.5 -24.501s-24.833 -8.5 -43.5 -8.5h-20h-32h-54h-82c-90 0 -154 9.33301 -192 28
c-46 22 -69 54 -69 96c0 36 10 78.667 30 128c-96.667 -13.333 -188.334 -44.666 -275.001 -93.999s-154 -108 -202 -176c-53.333 -76.667 -80 -159 -80 -247c0 -66 15.5 -126.833 46.5 -182.5s75.833 -102.5 134.5 -140.5c51.333 -33.333 115.5 -58.5 192.5 -75.5
s163.833 -25.5 260.5 -25.5c60 0 128 3.33301 204 10s137 15 183 25c23.333 4 38.666 6 45.999 6c16 0 24 -4.33301 24 -13c0 -5.33301 -3.16699 -10.833 -9.5 -16.5s-18.833 -13.834 -37.5 -24.501c-58.667 -33.333 -137 -64.666 -235 -93.999
c-84 -24.667 -174 -37 -270 -37c-192.667 0 -344.667 42.333 -456 127s-167 201 -167 349c0 148.667 43 281 129 397c40.667 54 85.167 100.833 133.5 140.5s103.833 74.834 166.5 105.501v7l-49 7l-41 6c-54.667 8 -94.667 12 -120 12c-30 0 -54 -3.16699 -72 -9.5
s-35 -17.5 -51 -33.5c-16.667 -16.667 -28 -25 -34 -25c-4 0 -7.5 1.66699 -10.5 5s-4.5 7.66602 -4.5 12.999c0 8 2.66699 17 8 27l15 29c8 15.333 19.5 32 34.5 50s29.5 33.333 43.5 46c34 28.667 72 43 114 43c28.667 0 75.334 -6.66699 140.001 -20
c72 -15.333 132.667 -25.333 182 -30s117.333 -7 204 -7l106 1h30l-60 -131c-11.333 1.33301 -19 2 -23 2c-53.333 0 -101.666 -5.66699 -144.999 -17zM495 802.001c42.667 -43.333 83.334 -75.667 122.001 -97c-17.333 -20 -31.166 -37.667 -41.499 -53
s-23.833 -39 -40.5 -71c-36 32 -76.333 60.667 -121 86l-11 7c21.333 24.667 39.666 48.167 54.999 70.5s27.666 41.5 36.999 57.5zM452 1043c42.667 -44 83.333 -76.667 122 -98c-18 -20 -32 -37.667 -42 -53s-23.333 -39 -40 -71c-36 32 -76.333 60.667 -121 86l-11 7
c6.66699 7.33301 11.667 13 15 17l21 30l20 27c14.667 20.667 26.667 39 36 55z" />
    <glyph glyph-name="uni0685.init" unicode="&#x685;" horiz-adv-x="1076" 
d="M531 284c-29.333 18.667 -74.3359 39 -135.003 61c-42.667 15.333 -74.167 25.666 -94.5 30.999s-39.166 8 -56.499 8c-42.667 0 -90.667 -11.667 -144 -35c-5.33301 -2.66699 -10.333 -4 -15 -4c-10.667 0 -16 4.33301 -16 13c0 2.66699 1.33301 6.33398 4 11.001l7 14
c16.667 32 39.334 63.667 68.001 95c30 33.333 66.667 50 110 50c20.667 0 43.667 -3.83301 69 -11.5s63 -22.167 113 -43.5l62 -27c78.667 -32.667 148.834 -54.834 210.501 -66.501s141.167 -17.5 238.5 -17.5h58l-44 -125c-6 0 -28.667 1.33301 -68 4
c-35.333 2 -62 3 -80 3c-170.667 0 -349.334 -52 -536.001 -156c-41.333 -22.667 -72.5 -38.667 -93.5 -48s-44.5 -17.666 -70.5 -24.999c-36 -10.667 -73.333 -16 -112 -16c-40 0 -60 10.667 -60 32v87v3l1 4c4 11.333 15.667 17 35 17c38.667 0 82.334 3.33301 131.001 10
c34.667 4.66699 64.834 11 90.501 19s63.5 23 113.5 45c69.333 29.333 140.666 52 213.999 68zM393.997 902c37.333 -30.667 69.334 -54.333 96.001 -71l17 -10c26 33.333 47 64.333 63 93l5 7c6 -4 9.66699 -6.66699 11 -8l19 -15c18.667 -15.333 38.667 -29.333 60 -42
l21 -12c2 -1.33301 7 -4.33301 15 -9c-29.333 -30.667 -56.333 -70.334 -81 -119.001c-34 32.667 -70.333 59.334 -109 80.001c-20 -24 -41.333 -59.667 -64 -107c-22.667 24 -55.334 50 -98.001 78l-22 15c-1.33301 0.666992 -5 3 -11 7c32.667 40 58.667 77.667 78 113z
M454.998 1109l9.99902 -9c38.667 -38 76.334 -67 113.001 -87c-17.333 -20 -31 -37.833 -41 -53.5s-23.333 -39.5 -40 -71.5c-37.333 32 -78 60.667 -122 86l-11 6l13 18c38 48.667 64 85.667 78 111z" />
    <glyph glyph-name="uni0685.medi" unicode="&#x685;" horiz-adv-x="1145" 
d="M776 224c-19.333 0 -49.334 -2.83105 -90.001 -8.49805s-78 -12.167 -112 -19.5c-102.667 -22.667 -211 -63.667 -325 -123c-50 -26.667 -94 -45.5 -132 -56.5s-77 -16.5 -117 -16.5c-17.333 0 -30.666 2.83301 -39.999 8.5s-14 13.5 -14 23.5v87v3l1 4
c4 12 15.667 18 35 18h36c30.667 0 73.334 5 128.001 15c25.333 5.33301 47.5 11 66.5 17s46.167 16.333 81.5 31c68.667 29.333 133.667 52.666 195 69.999l34 10c-9.33301 3.33301 -15.333 5.33301 -18 6l-33 14l-42 16l-49 18c-57.333 22 -103 33 -137 33
c-24 0 -50.333 -4 -79 -12l-34 -11c-16.667 -4.66699 -27.334 -8.33398 -32.001 -11.001c-6 -2.66699 -11 -4 -15 -4c-7.33301 0 -11 3.66699 -11 11c0 4.66699 5.5 17 16.5 37s21.833 37.667 32.5 53c22 28.667 43.333 49.334 64 62.001s44.667 19 72 19
s55.333 -4.83301 84 -14.5s74 -30.167 136 -61.5c54.667 -28 98.167 -47.167 130.5 -57.5s70.833 -17.833 115.5 -22.5c65.333 -7.33301 131.333 -11 198 -11h56l54 1l-39 -123c-24.667 4 -45.667 6 -63 6c-30 0 -61 -3 -93 -9c-4.66699 -8.66699 -7 -17.334 -7 -26.001
c0 -15.333 9.66699 -28 29 -38c8.66699 -4.66699 21.5 -8.5 38.5 -11.5s33.833 -4.5 50.5 -4.5l196 -2l20 -1c18.667 0 30.334 -5.66699 35.001 -17l1 -4v-3v-87c0 -6.66699 -3 -13 -9 -19c-5.33301 -5.33301 -12.5 -8.83301 -21.5 -10.5s-24.5 -2.5 -46.5 -2.5h-91l-61 1
c-68.667 0 -121.334 9 -158.001 27c-47.333 22.667 -71 56 -71 100c0 32 11.333 64 34 96zM453.999 913.002c37.333 -30.667 69.334 -54.333 96.001 -71l17 -10c26 33.333 47 64.333 63 93l5 7c6 -4 9.66699 -6.66699 11 -8l19 -15c18.667 -15.333 38.667 -29.333 60 -42
l21 -12c2 -1.33301 7 -4.33301 15 -9c-29.333 -30.667 -56.333 -70.334 -81 -119.001c-34 32.667 -70.333 59.334 -109 80.001c-20 -24 -41.333 -59.667 -64 -107c-22.667 24 -55.334 50 -98.001 78l-22 15c-1.33301 0.666992 -5 3 -11 7c32.667 40 58.667 77.667 78 113z
M515 1120l9.99902 -9c38.667 -38 76.334 -67 113.001 -87c-17.333 -20 -31 -37.833 -41 -53.5s-23.333 -39.5 -40 -71.5c-37.333 32 -78 60.667 -122 86l-11 6l13 18c38 48.667 64 85.667 78 111z" />
    <glyph glyph-name="uni0685.fina" unicode="&#x685;" horiz-adv-x="1150" 
d="M781 261c4 -42.667 19.333 -72.333 46 -89c18 -11.333 43 -18.833 75 -22.5s83 -5.5 153 -5.5h82h30c20 0 32 -5.66699 36 -17l1 -4v-4v-86c0 -10.667 -5.16699 -18.834 -15.5 -24.501s-24.833 -8.5 -43.5 -8.5h-20h-32h-54h-82c-90 0 -154 9.33301 -192 28
c-46 22 -69 54 -69 96c0 36 10 78.667 30 128c-96.667 -13.333 -188.334 -44.666 -275.001 -93.999s-154 -108 -202 -176c-53.333 -76.667 -80 -159 -80 -247c0 -66 15.5 -126.833 46.5 -182.5s75.833 -102.5 134.5 -140.5c51.333 -33.333 115.5 -58.5 192.5 -75.5
s163.833 -25.5 260.5 -25.5c60 0 128 3.33301 204 10s137 15 183 25c23.333 4 38.666 6 45.999 6c16 0 24 -4.33301 24 -13c0 -5.33301 -3.16699 -10.833 -9.5 -16.5s-18.833 -13.834 -37.5 -24.501c-58.667 -33.333 -137 -64.666 -235 -93.999
c-84 -24.667 -174 -37 -270 -37c-192.667 0 -344.667 42.333 -456 127s-167 201 -167 349c0 148.667 43 281 129 397c40.667 54 85.167 100.833 133.5 140.5s103.833 74.834 166.5 105.501v7l-49 7l-41 6c-54.667 8 -94.667 12 -120 12c-30 0 -54 -3.16699 -72 -9.5
s-35 -17.5 -51 -33.5c-16.667 -16.667 -28 -25 -34 -25c-4 0 -7.5 1.66699 -10.5 5s-4.5 7.66602 -4.5 12.999c0 8 2.66699 17 8 27l15 29c8 15.333 19.5 32 34.5 50s29.5 33.333 43.5 46c34 28.667 72 43 114 43c28.667 0 75.334 -6.66699 140.001 -20
c72 -15.333 132.667 -25.333 182 -30s117.333 -7 204 -7l106 1h30l-60 -131c-11.333 1.33301 -19 2 -23 2c-53.333 0 -101.666 -5.66699 -144.999 -17zM435 885.001c37.333 -30.667 69.334 -54.333 96.001 -71l17 -10c26 33.333 47 64.333 63 93l5 7
c6 -4 9.66699 -6.66699 11 -8l19 -15c18.667 -15.333 38.667 -29.333 60 -42l21 -12c2 -1.33301 7 -4.33301 15 -9c-29.333 -30.667 -56.333 -70.334 -81 -119.001c-34 32.667 -70.333 59.334 -109 80.001c-20 -24 -41.333 -59.667 -64 -107
c-22.667 24 -55.334 50 -98.001 78l-22 15c-1.33301 0.666992 -5 3 -11 7c32.667 40 58.667 77.667 78 113zM496.001 1092l9.99902 -9c38.667 -38 76.334 -67 113.001 -87c-17.333 -20 -31 -37.833 -41 -53.5s-23.333 -39.5 -40 -71.5c-37.333 32 -78 60.667 -122 86l-11 6
l13 18c38 48.667 64 85.667 78 111z" />
    <glyph glyph-name="uni0689.fina" unicode="&#x689;" horiz-adv-x="865" 
d="M613 848c28 -200 44 -313.002 48 -339.002l12 -70c14 -75.333 26.5 -133.166 37.5 -173.499s22.5 -68.5 34.5 -84.5c11.333 -14 27.5 -23.833 48.5 -29.5s50.833 -8.5 89.5 -8.5c20 0 32 -5.66699 36 -17l1 -4v-90c0 -10 -4.83301 -17.833 -14.5 -23.5
s-22.5 -8.5 -38.5 -8.5c-47.333 0 -90 9.66699 -128 29c-20.667 10.667 -36.834 23.667 -48.501 39s-23.167 39 -34.5 71l-9 27c-8.66699 22 -16 33 -22 33c-6.66699 0 -17.667 -10.667 -33 -32c-40 -56 -78.667 -94.333 -116 -115c-46 -26.667 -100 -40 -162 -40
c-60 0 -112 9.33301 -156 28c-34 14.667 -51 28 -51 40c0 2.66699 0.333008 5.33398 1 8.00098l2 21l5 31c5.33301 39.333 11.833 71.166 19.5 95.499s14.834 36.5 21.501 36.5c3.33301 0 6 -4 8 -12c0.666992 -1.33301 1.66699 -4.66602 3 -9.99902l3 -11
c8 -30 24.333 -50.333 49 -61c36.667 -14.667 84 -22 142 -22c154 0 231 63.667 231 191c0 36.667 -7.66699 100.667 -23 192l-11 59c-7.33301 43.333 -18.333 95 -33 155zM181 -41.002c0 31.333 10.332 60.333 30.999 87c23.333 27.333 47.333 41 72 41
c36 0 65 -15.333 87 -46c22 -33.333 33 -73 33 -119c0 -34.667 -8 -60.667 -24 -78c-17.333 -18 -40.666 -27 -69.999 -27c-20 0 -39 6 -57 18s-29.333 20.667 -34 26c-25.333 29.333 -38 62 -38 98zM218.999 -63.002c91.333 -40.667 143.334 -34.667 156.001 18
c0 15.333 -4.66699 29.333 -14 42c-10.667 9.33301 -23.334 14 -38.001 14s-33.667 -7.66699 -57 -23c-31.333 -20.667 -47 -37.667 -47 -51z" />
    <glyph glyph-name="uni068A.fina" unicode="&#x68a;" horiz-adv-x="865" 
d="M613 848c28 -200 44 -313.002 48 -339.002l12 -70c14 -75.333 26.5 -133.166 37.5 -173.499s22.5 -68.5 34.5 -84.5c11.333 -14 27.5 -23.833 48.5 -29.5s50.833 -8.5 89.5 -8.5c20 0 32 -5.66699 36 -17l1 -4v-90c0 -10 -4.83301 -17.833 -14.5 -23.5
s-22.5 -8.5 -38.5 -8.5c-47.333 0 -90 9.66699 -128 29c-20.667 10.667 -36.834 23.667 -48.501 39s-23.167 39 -34.5 71l-9 27c-8.66699 22 -16 33 -22 33c-6.66699 0 -17.667 -10.667 -33 -32c-40 -56 -78.667 -94.333 -116 -115c-46 -26.667 -100 -40 -162 -40
c-60 0 -112 9.33301 -156 28c-34 14.667 -51 28 -51 40c0 2.66699 0.333008 5.33398 1 8.00098l2 21l5 31c5.33301 39.333 11.833 71.166 19.5 95.499s14.834 36.5 21.501 36.5c3.33301 0 6 -4 8 -12c0.666992 -1.33301 1.66699 -4.66602 3 -9.99902l3 -11
c8 -30 24.333 -50.333 49 -61c36.667 -14.667 84 -22 142 -22c154 0 231 63.667 231 191c0 36.667 -7.66699 100.667 -23 192l-11 59c-7.33301 43.333 -18.333 95 -33 155zM271 -89.002c43.333 -43.333 84 -75.668 122 -97.001c-17.333 -20.667 -31.166 -38.667 -41.499 -54
s-23.5 -38.666 -39.5 -69.999c-36.667 31.333 -77.334 60 -122.001 86l-11 7c6.66699 7.33301 12 13 16 17l20 29l20 28c14.667 20 26.667 38 36 54z" />
    <glyph glyph-name="uni068b.fina" unicode="&#x68b;" horiz-adv-x="865" 
d="M613 848c28 -200 44 -313.002 48 -339.002l12 -70c14 -75.333 26.5 -133.166 37.5 -173.499s22.5 -68.5 34.5 -84.5c11.333 -14 27.5 -23.833 48.5 -29.5s50.833 -8.5 89.5 -8.5c20 0 32 -5.66699 36 -17l1 -4v-90c0 -10 -4.83301 -17.833 -14.5 -23.5
s-22.5 -8.5 -38.5 -8.5c-47.333 0 -90 9.66699 -128 29c-20.667 10.667 -36.834 23.667 -48.501 39s-23.167 39 -34.5 71l-9 27c-8.66699 22 -16 33 -22 33c-6.66699 0 -17.667 -10.667 -33 -32c-40 -56 -78.667 -94.333 -116 -115c-46 -26.667 -100 -40 -162 -40
c-60 0 -112 9.33301 -156 28c-34 14.667 -51 28 -51 40c0 2.66699 0.333008 5.33398 1 8.00098l2 21l5 31c5.33301 39.333 11.833 71.166 19.5 95.499s14.834 36.5 21.501 36.5c3.33301 0 6 -4 8 -12c0.666992 -1.33301 1.66699 -4.66602 3 -9.99902l3 -11
c8 -30 24.333 -50.333 49 -61c36.667 -14.667 84 -22 142 -22c154 0 231 63.667 231 191c0 36.667 -7.66699 100.667 -23 192l-11 59c-7.33301 43.333 -18.333 95 -33 155zM421 1358c6.66699 -16.667 18.334 -34.3311 35.001 -52.998
c-8 -6.66699 -13.833 -13.334 -17.5 -20.001s-5.5 -14.334 -5.5 -23.001c0 -3.33301 1.66699 -14 5 -32c8 -48 12 -87.667 12 -119c0 -19.333 -1.66699 -39.333 -5 -60l5 -2c2.66699 4 7 9 13 15l16 14c14 13.333 31 25.666 51 36.999c19.333 11.333 37.666 17 54.999 17
c22 0 38.333 -8 49 -24c8 -10.667 12 -22.334 12 -35.001c0 -6.66699 -1.66699 -15.667 -5 -27s-7.66602 -20.666 -12.999 -27.999c-4.66699 -9.33301 -17 -19.333 -37 -30s-42 -19.334 -66 -26.001c-24 -6 -51.167 -11 -81.5 -15s-60.166 -6 -89.499 -6
c-9.33301 0 -17 1.33301 -23 4s-13 7.33398 -21 14.001c-14.667 12.667 -22 21.667 -22 27c0 3.33301 3 5 9 5h3l10 1h15c12.667 0 26 1 40 3c19.333 2 34.333 8.33301 45 19c6 6 10.167 13.167 12.5 21.5s3.5 19.5 3.5 33.5v8l-2 27l-1 23
c-0.666992 5.33301 -1.33398 13 -2.00098 23l-2 20l-2 23c-4 27.333 -9 55 -15 83c-2 11.333 -3.83301 19.333 -5.5 24s-4.5 10.334 -8.5 17.001c3.33301 3.33301 6.66602 7 9.99902 11l7 8zM614 1050c-4.66699 8 -10.0029 13.665 -16.0029 16.998
c-11.333 6.66699 -25.666 10 -42.999 10c-25.333 0 -52.666 -12 -81.999 -36c-10.667 -8 -19.667 -16 -27 -24s-11 -13.667 -11 -17s3 -5 9 -5c8 0 20.833 1.83301 38.5 5.5s33.834 7.83398 48.501 12.501c36.667 10.667 63.667 22.334 81 35.001zM347.997 -139.001
c43.333 -43.333 84 -75.668 122 -97.001c-17.333 -20.667 -31.166 -38.667 -41.499 -54s-23.5 -38.666 -39.5 -69.999c-36.667 31.333 -77.334 60 -122.001 86l-11 7c6.66699 7.33301 12 13 16 17l20 29l20 28c14.667 20 26.667 38 36 54z" />
    <glyph glyph-name="uni068F.fina" unicode="&#x68f;" horiz-adv-x="865" 
d="M613 848c28 -200 44 -313.002 48 -339.002l12 -70c14 -75.333 26.5 -133.166 37.5 -173.499s22.5 -68.5 34.5 -84.5c11.333 -14 27.5 -23.833 48.5 -29.5s50.833 -8.5 89.5 -8.5c20 0 32 -5.66699 36 -17l1 -4v-90c0 -10 -4.83301 -17.833 -14.5 -23.5
s-22.5 -8.5 -38.5 -8.5c-47.333 0 -90 9.66699 -128 29c-20.667 10.667 -36.834 23.667 -48.501 39s-23.167 39 -34.5 71l-9 27c-8.66699 22 -16 33 -22 33c-6.66699 0 -17.667 -10.667 -33 -32c-40 -56 -78.667 -94.333 -116 -115c-46 -26.667 -100 -40 -162 -40
c-60 0 -112 9.33301 -156 28c-34 14.667 -51 28 -51 40c0 2.66699 0.333008 5.33398 1 8.00098l2 21l5 31c5.33301 39.333 11.833 71.166 19.5 95.499s14.834 36.5 21.501 36.5c3.33301 0 6 -4 8 -12c0.666992 -1.33301 1.66699 -4.66602 3 -9.99902l3 -11
c8 -30 24.333 -50.333 49 -61c36.667 -14.667 84 -22 142 -22c154 0 231 63.667 231 191c0 36.667 -7.66699 100.667 -23 192l-11 59c-7.33301 43.333 -18.333 95 -33 155zM513 1379c18.667 -18.667 38.8291 -36.1641 60.4961 -52.4971s44.834 -31.5 69.501 -45.5
c-16 -19.333 -30.167 -38.5 -42.5 -57.5s-23.5 -38.833 -33.5 -59.5c-18 16 -36.333 31.167 -55 45.5s-37.667 26.833 -57 37.5c-13.333 -16 -26.166 -32.5 -38.499 -49.5s-22.166 -34.833 -29.499 -53.5l-60.5 48c-20.333 16 -42.833 29.333 -67.5 40l43.5 58
c14.333 20 26.833 40.667 37.5 62c14 -15.333 30.333 -29.833 49 -43.5s38.334 -25.834 59.001 -36.501c14 15.333 26.5 32.166 37.5 50.499s20.167 37.166 27.5 56.499zM461.995 1179l64.4961 -50.498c21.667 -17 44.834 -31.5 69.501 -43.5l-50 -62.5
c-17.333 -21.667 -31.333 -44.167 -42 -67.5c-19.333 19.333 -39.166 37.666 -59.499 54.999s-42.166 31.666 -65.499 42.999c34.667 38 62.334 80 83.001 126z" />
    <glyph glyph-name="uni0690.fina" unicode="&#x690;" horiz-adv-x="865" 
d="M613 848c28 -200 44 -313.002 48 -339.002l12 -70c14 -75.333 26.5 -133.166 37.5 -173.499s22.5 -68.5 34.5 -84.5c11.333 -14 27.5 -23.833 48.5 -29.5s50.833 -8.5 89.5 -8.5c20 0 32 -5.66699 36 -17l1 -4v-90c0 -10 -4.83301 -17.833 -14.5 -23.5
s-22.5 -8.5 -38.5 -8.5c-47.333 0 -90 9.66699 -128 29c-20.667 10.667 -36.834 23.667 -48.501 39s-23.167 39 -34.5 71l-9 27c-8.66699 22 -16 33 -22 33c-6.66699 0 -17.667 -10.667 -33 -32c-40 -56 -78.667 -94.333 -116 -115c-46 -26.667 -100 -40 -162 -40
c-60 0 -112 9.33301 -156 28c-34 14.667 -51 28 -51 40c0 2.66699 0.333008 5.33398 1 8.00098l2 21l5 31c5.33301 39.333 11.833 71.166 19.5 95.499s14.834 36.5 21.501 36.5c3.33301 0 6 -4 8 -12c0.666992 -1.33301 1.66699 -4.66602 3 -9.99902l3 -11
c8 -30 24.333 -50.333 49 -61c36.667 -14.667 84 -22 142 -22c154 0 231 63.667 231 191c0 36.667 -7.66699 100.667 -23 192l-11 59c-7.33301 43.333 -18.333 95 -33 155zM308 1264c37.333 -30.667 69.6631 -54.3311 96.9961 -70.998l16 -10c26 32.667 47.333 63.667 64 93
l4 7c6.66699 -4.66699 10.334 -7.33398 11.001 -8.00098l20 -16c18 -14.667 38 -28.334 60 -41.001l21 -12c1.33301 -1.33301 6 -4.66602 14 -9.99902c-29.333 -30.667 -56.333 -70 -81 -118c-33.333 32 -69.666 58.667 -108.999 80c-19.333 -24 -40.333 -60 -63 -108
c-23.333 24 -56.333 50 -99 78l-22 15c-1.33301 1.33301 -4.66602 3.66602 -9.99902 6.99902c32.667 40 58.334 78 77.001 114zM372.997 1454l9 -8c36 -36 71 -63.333 105 -82c-16 -18.667 -28.833 -35.167 -38.5 -49.5s-22.167 -36.5 -37.5 -66.5
c-34.667 30 -72.667 56.667 -114 80l-10 6l12 16c35.333 45.333 60 80 74 104zM444.997 1094l9.00195 -9.00098c37.333 -35.333 72.666 -62.666 105.999 -81.999c-16 -18 -28.667 -34.5 -38 -49.5s-22 -37.5 -38 -67.5c-35.333 30 -73.333 56.667 -114 80l-10 7l12 16
c35.333 45.333 59.666 80.333 72.999 105z" />
    <glyph glyph-name="uni0692.fina" unicode="&#x692;" horiz-adv-x="703" 
d="M523 254c34 -39.333 65.0039 -68 93.0039 -86c24.667 -15.333 53.667 -23.666 87 -24.999l16 -1c15.333 -1.33301 25.666 -3.5 30.999 -6.5s8 -8.83301 8 -17.5v-87c0 -5.33301 -2 -10.333 -6 -15c-4.66699 -6.66699 -10.334 -11 -17.001 -13s-16.667 -3 -30 -3h-30
c-11.333 1.33301 -18.666 2 -21.999 2c-10.667 0 -19 -4.33301 -25 -13s-11.333 -25.334 -16 -50.001c-16.667 -84 -45.334 -159.333 -86.001 -226s-88.667 -117.667 -144 -153c-22 -13.333 -47.167 -24.5 -75.5 -33.5s-53.5 -13.5 -75.5 -13.5
c-20.667 0 -49.834 6.66699 -87.501 20s-73.834 29.666 -108.501 48.999c-14 8 -23.333 14 -28 18s-7 8.33301 -7 13c0 8.66699 4.66699 13 14 13c5.33301 0 18.333 -1.66699 39 -5c39.333 -7.33301 67 -11 83 -11c44 0 96.333 14.5 157 43.5s113 65.167 157 108.5
c32.667 31.333 60.167 66 82.5 104s33.5 69 33.5 93c0 20.667 -10.167 45.334 -30.5 74.001s-48.5 58 -84.5 88zM623.004 666c-8 -8 -17.3291 -17.8359 -27.9961 -29.5029s-22.334 -28.167 -35.001 -49.5s-26.334 -49.333 -41.001 -84s-29.334 -78.667 -44.001 -132l-26 -3
c-6 28.667 -14.5 57.334 -25.5 86.001s-23.5 55.834 -37.5 81.501s-29.5 49.167 -46.5 70.5s-34.5 39 -52.5 53l96 -8c6 -7.33301 12.167 -15.666 18.5 -24.999s13 -21.166 20 -35.499s13.833 -32.333 20.5 -54s13.667 -47.834 21 -78.501c2 12 4.83301 26.333 8.5 43
s8.16699 34 13.5 52s11.666 36 18.999 54s16 34.667 26 50z" />
    <glyph glyph-name="uni0693.fina" unicode="&#x693;" horiz-adv-x="703" 
d="M187 -530c0 31.333 10.332 60.333 30.999 87c23.333 27.333 47.333 41 72 41c36 0 65 -15.333 87 -46c22 -34 33 -73.667 33 -119c0 -34.667 -8 -60.667 -24 -78c-17.333 -18.667 -40.666 -28 -69.999 -28c-20 0 -39 6 -57 18s-29.333 21 -34 27
c-25.333 29.333 -38 62 -38 98zM224.999 -552c91.333 -41.333 143.334 -35.666 156.001 17.001c0 15.333 -4.66699 29.666 -14 42.999c-10.667 9.33301 -23.334 14 -38.001 14s-33.667 -7.66699 -57 -23c-31.333 -20.667 -47 -37.667 -47 -51zM523 254
c34 -39.333 65.0039 -68 93.0039 -86c24.667 -15.333 53.667 -23.666 87 -24.999l16 -1c15.333 -1.33301 25.666 -3.5 30.999 -6.5s8 -8.83301 8 -17.5v-87c0 -5.33301 -2 -10.333 -6 -15c-4.66699 -6.66699 -10.334 -11 -17.001 -13s-16.667 -3 -30 -3h-30
c-11.333 1.33301 -18.666 2 -21.999 2c-10.667 0 -19 -4.33301 -25 -13s-11.333 -25.334 -16 -50.001c-16.667 -84 -45.334 -159.333 -86.001 -226s-88.667 -117.667 -144 -153c-22 -13.333 -47.167 -24.5 -75.5 -33.5s-53.5 -13.5 -75.5 -13.5
c-20.667 0 -49.834 6.66699 -87.501 20s-73.834 29.666 -108.501 48.999c-14 8 -23.333 14 -28 18s-7 8.33301 -7 13c0 8.66699 4.66699 13 14 13c5.33301 0 18.333 -1.66699 39 -5c39.333 -7.33301 67 -11 83 -11c44 0 96.333 14.5 157 43.5s113 65.167 157 108.5
c32.667 31.333 60.167 66 82.5 104s33.5 69 33.5 93c0 20.667 -10.167 45.334 -30.5 74.001s-48.5 58 -84.5 88z" />
    <glyph glyph-name="uni0694.fina" unicode="&#x694;" horiz-adv-x="703" 
d="M523 254c34 -39.333 65.0039 -68 93.0039 -86c24.667 -15.333 53.667 -23.666 87 -24.999l16 -1c15.333 -1.33301 25.666 -3.5 30.999 -6.5s8 -8.83301 8 -17.5v-87c0 -5.33301 -2 -10.333 -6 -15c-4.66699 -6.66699 -10.334 -11 -17.001 -13s-16.667 -3 -30 -3h-30
c-11.333 1.33301 -18.666 2 -21.999 2c-10.667 0 -19 -4.33301 -25 -13s-11.333 -25.334 -16 -50.001c-16.667 -84 -45.334 -159.333 -86.001 -226s-88.667 -117.667 -144 -153c-22 -13.333 -47.167 -24.5 -75.5 -33.5s-53.5 -13.5 -75.5 -13.5
c-20.667 0 -49.834 6.66699 -87.501 20s-73.834 29.666 -108.501 48.999c-14 8 -23.333 14 -28 18s-7 8.33301 -7 13c0 8.66699 4.66699 13 14 13c5.33301 0 18.333 -1.66699 39 -5c39.333 -7.33301 67 -11 83 -11c44 0 96.333 14.5 157 43.5s113 65.167 157 108.5
c32.667 31.333 60.167 66 82.5 104s33.5 69 33.5 93c0 20.667 -10.167 45.334 -30.5 74.001s-48.5 58 -84.5 88zM295.004 -608c43.333 -43.333 84 -75.668 122 -97.001c-17.333 -20.667 -31.166 -38.667 -41.499 -54s-23.5 -38.666 -39.5 -69.999
c-36.667 31.333 -77.334 60 -122.001 86l-11 7c6.66699 7.33301 12 13 16 17l20 29l20 28c14.667 20 26.667 38 36 54z" />
    <glyph glyph-name="uni0695.fina" unicode="&#x695;" horiz-adv-x="703" 
d="M523 254c34 -39.333 65.0039 -68 93.0039 -86c24.667 -15.333 53.667 -23.666 87 -24.999l16 -1c15.333 -1.33301 25.666 -3.5 30.999 -6.5s8 -8.83301 8 -17.5v-87c0 -5.33301 -2 -10.333 -6 -15c-4.66699 -6.66699 -10.334 -11 -17.001 -13s-16.667 -3 -30 -3h-30
c-11.333 1.33301 -18.666 2 -21.999 2c-10.667 0 -19 -4.33301 -25 -13s-11.333 -25.334 -16 -50.001c-16.667 -84 -45.334 -159.333 -86.001 -226s-88.667 -117.667 -144 -153c-22 -13.333 -47.167 -24.5 -75.5 -33.5s-53.5 -13.5 -75.5 -13.5
c-20.667 0 -49.834 6.66699 -87.501 20s-73.834 29.666 -108.501 48.999c-14 8 -23.333 14 -28 18s-7 8.33301 -7 13c0 8.66699 4.66699 13 14 13c5.33301 0 18.333 -1.66699 39 -5c39.333 -7.33301 67 -11 83 -11c44 0 96.333 14.5 157 43.5s113 65.167 157 108.5
c32.667 31.333 60.167 66 82.5 104s33.5 69 33.5 93c0 20.667 -10.167 45.334 -30.5 74.001s-48.5 58 -84.5 88zM479.004 -574c-8 -8 -17.3291 -17.8359 -27.9961 -29.5029s-22.334 -28.167 -35.001 -49.5s-26.334 -49.333 -41.001 -84s-29.334 -78.667 -44.001 -132l-26 -3
c-6 28.667 -14.5 57.334 -25.5 86.001s-23.5 55.834 -37.5 81.501s-29.5 49.167 -46.5 70.5s-34.5 39 -52.5 53l96 -8c6 -7.33301 12.167 -15.666 18.5 -24.999s13 -21.166 20 -35.499s13.833 -32.333 20.5 -54s13.667 -47.834 21 -78.501c2 12 4.83301 26.333 8.5 43
s8.16699 34 13.5 52s11.666 36 18.999 54s16 34.667 26 50z" />
    <glyph glyph-name="uni0696.fina" unicode="&#x696;" horiz-adv-x="703" 
d="M523 254c34 -39.333 65.0039 -68 93.0039 -86c24.667 -15.333 53.667 -23.666 87 -24.999l16 -1c15.333 -1.33301 25.666 -3.5 30.999 -6.5s8 -8.83301 8 -17.5v-87c0 -5.33301 -2 -10.333 -6 -15c-4.66699 -6.66699 -10.334 -11 -17.001 -13s-16.667 -3 -30 -3h-30
c-11.333 1.33301 -18.666 2 -21.999 2c-10.667 0 -19 -4.33301 -25 -13s-11.333 -25.334 -16 -50.001c-16.667 -84 -45.334 -159.333 -86.001 -226s-88.667 -117.667 -144 -153c-22 -13.333 -47.167 -24.5 -75.5 -33.5s-53.5 -13.5 -75.5 -13.5
c-20.667 0 -49.834 6.66699 -87.501 20s-73.834 29.666 -108.501 48.999c-14 8 -23.333 14 -28 18s-7 8.33301 -7 13c0 8.66699 4.66699 13 14 13c5.33301 0 18.333 -1.66699 39 -5c39.333 -7.33301 67 -11 83 -11c44 0 96.333 14.5 157 43.5s113 65.167 157 108.5
c32.667 31.333 60.167 66 82.5 104s33.5 69 33.5 93c0 20.667 -10.167 45.334 -30.5 74.001s-48.5 58 -84.5 88zM268.004 -571c43.333 -43.333 84 -75.668 122 -97.001c-17.333 -20.667 -31.166 -38.667 -41.499 -54s-23.5 -38.666 -39.5 -69.999
c-36.667 31.333 -77.334 60 -122.001 86l-11 7c6.66699 7.33301 12 13 16 17l20 29l20 28c14.667 20 26.667 38 36 54zM213.004 -53.002c43.333 -43.333 84 -75.668 122 -97.001c-17.333 -20.667 -31.166 -38.667 -41.499 -54s-23.5 -38.666 -39.5 -69.999
c-36.667 31.333 -77.334 60 -122.001 86l-11 7c6.66699 7.33301 12 13 16 17l20 29l20 28c14.667 20 26.667 38 36 54z" />
    <glyph glyph-name="uni0697.fina" unicode="&#x697;" horiz-adv-x="703" 
d="M523 254c34 -39.333 65.0039 -68 93.0039 -86c24.667 -15.333 53.667 -23.666 87 -24.999l16 -1c15.333 -1.33301 25.666 -3.5 30.999 -6.5s8 -8.83301 8 -17.5v-87c0 -5.33301 -2 -10.333 -6 -15c-4.66699 -6.66699 -10.334 -11 -17.001 -13s-16.667 -3 -30 -3h-30
c-11.333 1.33301 -18.666 2 -21.999 2c-10.667 0 -19 -4.33301 -25 -13s-11.333 -25.334 -16 -50.001c-16.667 -84 -45.334 -159.333 -86.001 -226s-88.667 -117.667 -144 -153c-22 -13.333 -47.167 -24.5 -75.5 -33.5s-53.5 -13.5 -75.5 -13.5
c-20.667 0 -49.834 6.66699 -87.501 20s-73.834 29.666 -108.501 48.999c-14 8 -23.333 14 -28 18s-7 8.33301 -7 13c0 8.66699 4.66699 13 14 13c5.33301 0 18.333 -1.66699 39 -5c39.333 -7.33301 67 -11 83 -11c44 0 96.333 14.5 157 43.5s113 65.167 157 108.5
c32.667 31.333 60.167 66 82.5 104s33.5 69 33.5 93c0 20.667 -10.167 45.334 -30.5 74.001s-48.5 58 -84.5 88zM304.004 641c38 -31.333 70.332 -54.999 96.999 -70.999l17 -10c26 33.333 47 64.333 63 93l5 7c6 -4 9.66699 -7 11 -9l19 -15
c18 -14.667 38.333 -28.334 61 -41.001l20 -12c2.66699 -1.33301 7.66699 -4.33301 15 -9c-30 -30.667 -57 -70.334 -81 -119.001c-34 32.667 -70.333 59.334 -109 80.001c-20 -24 -41.333 -60 -64 -108c-22 24 -55 50.333 -99 79l-22 14
c-1.33301 1.33301 -4.66602 4 -9.99902 8c33.333 39.333 59 77 77 113z" />
    <glyph glyph-name="uni0699.fina" unicode="&#x699;" horiz-adv-x="703" 
d="M523 254c34 -39.333 65.0039 -68 93.0039 -86c24.667 -15.333 53.667 -23.666 87 -24.999l16 -1c15.333 -1.33301 25.666 -3.5 30.999 -6.5s8 -8.83301 8 -17.5v-87c0 -5.33301 -2 -10.333 -6 -15c-4.66699 -6.66699 -10.334 -11 -17.001 -13s-16.667 -3 -30 -3h-30
c-11.333 1.33301 -18.666 2 -21.999 2c-10.667 0 -19 -4.33301 -25 -13s-11.333 -25.334 -16 -50.001c-16.667 -84 -45.334 -159.333 -86.001 -226s-88.667 -117.667 -144 -153c-22 -13.333 -47.167 -24.5 -75.5 -33.5s-53.5 -13.5 -75.5 -13.5
c-20.667 0 -49.834 6.66699 -87.501 20s-73.834 29.666 -108.501 48.999c-14 8 -23.333 14 -28 18s-7 8.33301 -7 13c0 8.66699 4.66699 13 14 13c5.33301 0 18.333 -1.66699 39 -5c39.333 -7.33301 67 -11 83 -11c44 0 96.333 14.5 157 43.5s113 65.167 157 108.5
c32.667 31.333 60.167 66 82.5 104s33.5 69 33.5 93c0 20.667 -10.167 45.334 -30.5 74.001s-48.5 58 -84.5 88zM291.004 806c37.333 -30.667 69.6631 -54.3311 96.9961 -70.998l16 -10c26 32.667 47.333 63.667 64 93l4 7
c6.66699 -4.66699 10.334 -7.33398 11.001 -8.00098l20 -16c18 -14.667 38 -28.334 60 -41.001l21 -12c1.33301 -1.33301 6 -4.66602 14 -9.99902c-29.333 -30.667 -56.333 -70 -81 -118c-33.333 32 -69.666 58.667 -108.999 80c-19.333 -24 -40.333 -60 -63 -108
c-23.333 24 -56.333 50 -99 78l-22 15c-1.33301 1.33301 -4.66602 3.66602 -9.99902 6.99902c32.667 40 58.334 78 77.001 114zM356.001 996.003l9 -8c36 -36 71 -63.333 105 -82c-16 -18.667 -28.833 -35.167 -38.5 -49.5s-22.167 -36.5 -37.5 -66.5
c-34.667 30 -72.667 56.667 -114 80l-10 6l12 16c35.333 45.333 60 80 74 104zM428.001 636.003l9.00195 -9.00098c37.333 -35.333 72.666 -62.666 105.999 -81.999c-16 -18 -28.667 -34.5 -38 -49.5s-22 -37.5 -38 -67.5c-35.333 30 -73.333 56.667 -114 80l-10 7l12 16
c35.333 45.333 59.666 80.333 72.999 105z" />
    <glyph glyph-name="uni069A.init" unicode="&#x69a;" horiz-adv-x="993" 
d="M930 455c25.333 -48 38.001 -98.001 38.001 -150.001c0 -63.333 -13 -118.333 -39 -165c-29.333 -52.667 -68.666 -79 -117.999 -79c-22 0 -45.167 5.33301 -69.5 16s-47.5 25.667 -69.5 45c-8 7.33301 -14 11 -18 11s-9.33301 -4 -16 -12l-23 -32
c-20 -26 -46.333 -47.333 -79 -64c-30.667 -16.667 -69 -25 -115 -25c-29.333 0 -56.333 5.66699 -81 17c-14.667 6.66699 -25.834 12.834 -33.501 18.501s-17.834 14.834 -30.501 27.501l-19 19c-12 12.667 -21 19 -27 19c-8 0 -17.667 -6.66699 -29 -20
c-23.333 -30 -49.833 -51 -79.5 -63s-70.5 -18 -122.5 -18c-16.667 0 -29.667 2.83301 -39 8.5s-14 13.5 -14 23.5v87v3l1 4c4 11.333 15.667 17 35 17l19 1h30c56.667 0 100.167 8.5 130.5 25.5s54.5 46.833 72.5 89.5c8.66699 18.667 17 28 25 28
c8.66699 0 17.334 -8.33301 26.001 -25l17 -32c12 -22.667 22.5 -38.834 31.5 -48.501s20.833 -18.167 35.5 -25.5c20 -8 42.333 -12 67 -12c20 0 41 3.16699 63 9.5s41.667 14.5 59 24.5c20 13.333 37.667 30.333 53 51s31.666 49.667 48.999 87
c12.667 28 25.334 42 38.001 42c15.333 0 26 -14.333 32 -43c5.33301 -26 11.166 -45.167 17.499 -57.5s16.5 -22.833 30.5 -31.5c22 -14 53.333 -21 94 -21h24c-2 28 -6.83301 51 -14.5 69s-21.167 36.667 -40.5 56zM599.001 806.999
c43.333 -43.333 84 -75.668 122 -97.001c-17.333 -20.667 -31.166 -38.667 -41.499 -54s-23.5 -38.666 -39.5 -69.999c-36.667 31.333 -77.334 60 -122.001 86l-11 7c6.66699 7.33301 12 13 16 17l20 29l20 28c14.667 20 26.667 38 36 54zM607.001 -219.003
c43.333 -43.333 84 -75.668 122 -97.001c-17.333 -20.667 -31.166 -38.667 -41.499 -54s-23.5 -38.666 -39.5 -69.999c-36.667 31.333 -77.334 60 -122.001 86l-11 7c6.66699 7.33301 12 13 16 17l20 29l20 28c14.667 20 26.667 38 36 54z" />
    <glyph glyph-name="uni069A.medi" unicode="&#x69a;" horiz-adv-x="1041" 
d="M1096 126l0.00390625 -96.999c0 -19.333 -17.333 -29 -52 -29c-38 0 -67.5 7 -88.5 21s-37.5 37.333 -49.5 70c-4.66699 13.333 -9.66699 20 -15 20c-4 0 -12.667 -8.33301 -26 -25l-17 -19c-20.667 -25.333 -38.834 -42.833 -54.501 -52.5s-32.834 -14.5 -51.501 -14.5
c-43.333 0 -75 25 -95 75l-8 17c-8.66699 24 -16.667 36 -24 36c-6 0 -14.667 -7.33301 -26 -22c-17.333 -22 -30 -37.167 -38 -45.5s-18.667 -17.5 -32 -27.5c-30 -22 -64.333 -33 -103 -33c-28.667 0 -54.334 5.5 -77.001 16.5s-46.667 29.833 -72 56.5
c-18 17.333 -31.333 26 -40 26c-8 0 -17.667 -7.66699 -29 -23c-38 -50.667 -98.333 -76 -181 -76c-47.333 0 -71 11 -71 33v93c0 5.33301 1.83301 9.83301 5.5 13.5s8.16699 5.5 13.5 5.5h10h18l24 -1h23c56.667 0 98.667 8.5 126 25.5s52 50.167 74 99.5
c5.33301 11.333 11.666 17 18.999 17c9.33301 0 20 -11 32 -33l12 -23c16.667 -30.667 34.5 -52.667 53.5 -66s42.5 -20 70.5 -20c31.333 0 59.833 6.16699 85.5 18.5s50.5 32.166 74.5 59.499l19 21c19.333 20.667 34 31 44 31c10.667 0 18.334 -6.66699 23.001 -20l7 -21
c9.33301 -28.667 19.666 -47.834 30.999 -57.501s28.333 -14.5 51 -14.5c23.333 0 41.833 5.33301 55.5 16s27.167 30.334 40.5 59.001l10 21c9.33301 19.333 18.666 29 27.999 29c12.667 0 22.667 -14 30 -42l6 -20c8.66699 -33.333 28 -56.333 58 -69
c16.667 -7.33301 41.334 -11 74.001 -11c21.333 0 32 -6 32 -18zM581.004 762.001c43.333 -43.333 84 -75.668 122 -97.001c-17.333 -20.667 -31.166 -38.667 -41.499 -54s-23.5 -38.666 -39.5 -69.999c-36.667 31.333 -77.334 60 -122.001 86l-11 7
c6.66699 7.33301 12 13 16 17l20 29l20 28c14.667 20 26.667 38 36 54zM569.004 -211.001c43.333 -43.333 84 -75.668 122 -97.001c-17.333 -20.667 -31.166 -38.667 -41.499 -54s-23.5 -38.666 -39.5 -69.999c-36.667 31.333 -77.334 60 -122.001 86l-11 7
c6.66699 7.33301 12 13 16 17l20 29l20 28c14.667 20 26.667 38 36 54z" />
    <glyph glyph-name="uni069A.fina" unicode="&#x69a;" horiz-adv-x="1661" 
d="M828 270c25.333 -47.333 47.9971 -78.668 67.9971 -94.001c28 -21.333 73.333 -32 136 -32c38 0 70.5 6.66699 97.5 20s57.167 37.666 90.5 72.999c15.333 17.333 25.666 28 30.999 32s10.666 6 15.999 6c12.667 0 22 -12 28 -36c7.33301 -28 17.5 -48 30.5 -60
s31.167 -18 54.5 -18s42 5.33301 56 16s27.333 30.334 40 59.001c15.333 33.333 28.333 50 39 50c12 0 21.333 -11.667 28 -35l5 -22c6 -18 12.667 -32 20 -42s18 -19 32 -27c21.333 -11.333 47.333 -17 78 -17c20 0 32 -5.66699 36 -17l1 -4v-3v-87
c0 -10 -4.66699 -17.833 -14 -23.5s-22.333 -8.5 -39 -8.5c-34.667 0 -62.5 6.33301 -83.5 19s-37.167 32.667 -48.5 60c-9.33301 22 -16.666 33 -21.999 33c-4.66699 0 -10 -4 -16 -12c-32 -40 -56.167 -66.5 -72.5 -79.5s-35.166 -19.5 -56.499 -19.5
c-25.333 0 -45.666 6.33301 -60.999 19s-29.666 34.667 -42.999 66c-11.333 27.333 -20.666 41 -27.999 41c-5.33301 0 -16.666 -10.333 -33.999 -31c-19.333 -23.333 -33.166 -39.166 -41.499 -47.499s-18.5 -16.5 -30.5 -24.5c-25.333 -15.333 -57.666 -23 -96.999 -23
c-44.667 0 -81 3.66699 -109 11c0 -81.333 -11.833 -157 -35.5 -227s-57.5 -128.667 -101.5 -176c-44.667 -47.333 -100.334 -83.666 -167.001 -108.999s-140 -38 -220 -38c-92 0 -168 24 -228 72c-29.333 23.333 -52 53.833 -68 91.5s-24 78.5 -24 122.5
c0 37.333 5.66699 76.166 17 116.499s27.666 78.166 48.999 113.499c14 24 27.5 43.5 40.5 58.5s22.167 22.5 27.5 22.5s8 -2.66699 8 -8c0 -3.33301 -1.33301 -7 -4 -11c0 -0.666992 -2.33301 -6.33398 -7 -17.001c-0.666992 -1.33301 -4.66699 -8.66602 -12 -21.999
c-18 -36 -32.333 -71 -43 -105s-16 -62.667 -16 -86c0 -57.333 29.167 -104.333 87.5 -141s132.5 -55 222.5 -55c60 0 118.5 7.83301 175.5 23.5s105.167 37.834 144.5 66.501c29.333 20 49 43.667 59 71s15 69.666 15 126.999c0 56.667 -4.66699 107.334 -14 152.001
c-6.66699 7.33301 -11 12 -13 14l-18 17c-14 13.333 -30 34 -48 62c25.333 42 52.666 83 81.999 123zM1236 715.998c43.333 -43.333 84 -75.668 122 -97.001c-17.333 -20.667 -31.166 -38.667 -41.499 -54s-23.5 -38.666 -39.5 -69.999
c-36.667 31.333 -77.334 60 -122.001 86l-11 7c6.66699 7.33301 12 13 16 17l20 29l20 28c14.667 20 26.667 38 36 54zM1281 -275.004c43.333 -43.333 84 -75.668 122 -97.001c-17.333 -20.667 -31.166 -38.667 -41.499 -54s-23.5 -38.666 -39.5 -69.999
c-36.667 31.333 -77.334 60 -122.001 86l-11 7c6.66699 7.33301 12 13 16 17l20 29l20 28c14.667 20 26.667 38 36 54z" />
    <glyph glyph-name="uni069B.init" unicode="&#x69b;" horiz-adv-x="993" 
d="M930 455c25.333 -48 38.001 -98.001 38.001 -150.001c0 -63.333 -13 -118.333 -39 -165c-29.333 -52.667 -68.666 -79 -117.999 -79c-22 0 -45.167 5.33301 -69.5 16s-47.5 25.667 -69.5 45c-8 7.33301 -14 11 -18 11s-9.33301 -4 -16 -12l-23 -32
c-20 -26 -46.333 -47.333 -79 -64c-30.667 -16.667 -69 -25 -115 -25c-29.333 0 -56.333 5.66699 -81 17c-14.667 6.66699 -25.834 12.834 -33.501 18.501s-17.834 14.834 -30.501 27.501l-19 19c-12 12.667 -21 19 -27 19c-8 0 -17.667 -6.66699 -29 -20
c-23.333 -30 -49.833 -51 -79.5 -63s-70.5 -18 -122.5 -18c-16.667 0 -29.667 2.83301 -39 8.5s-14 13.5 -14 23.5v87v3l1 4c4 11.333 15.667 17 35 17l19 1h30c56.667 0 100.167 8.5 130.5 25.5s54.5 46.833 72.5 89.5c8.66699 18.667 17 28 25 28
c8.66699 0 17.334 -8.33301 26.001 -25l17 -32c12 -22.667 22.5 -38.834 31.5 -48.501s20.833 -18.167 35.5 -25.5c20 -8 42.333 -12 67 -12c20 0 41 3.16699 63 9.5s41.667 14.5 59 24.5c20 13.333 37.667 30.333 53 51s31.666 49.667 48.999 87
c12.667 28 25.334 42 38.001 42c15.333 0 26 -14.333 32 -43c5.33301 -26 11.166 -45.167 17.499 -57.5s16.5 -22.833 30.5 -31.5c22 -14 53.333 -21 94 -21h24c-2 28 -6.83301 51 -14.5 69s-21.167 36.667 -40.5 56zM551.001 -168.001
c18.667 -18.667 38.8291 -36.1641 60.4961 -52.4971s44.834 -31.5 69.501 -45.5c-16 -19.333 -30.167 -38.5 -42.5 -57.5s-23.5 -38.833 -33.5 -59.5c-18 16 -36.333 31.167 -55 45.5s-37.667 26.833 -57 37.5c-13.333 -16 -26.166 -32.5 -38.499 -49.5
s-22.166 -34.833 -29.499 -53.5l-60.5 48c-20.333 16 -42.833 29.333 -67.5 40l43.5 58c14.333 20 26.833 40.667 37.5 62c14 -15.333 30.333 -29.833 49 -43.5s38.334 -25.834 59.001 -36.501c14 15.333 26.5 32.166 37.5 50.499s20.167 37.166 27.5 56.499z
M499.996 -367.998l64.4961 -50.498c21.667 -17 44.834 -31.5 69.501 -43.5l-50 -62.5c-17.333 -21.667 -31.333 -44.167 -42 -67.5c-19.333 19.333 -39.166 37.666 -59.499 54.999s-42.166 31.666 -65.499 42.999c34.667 38 62.334 80 83.001 126z" />
    <glyph glyph-name="uni069B.medi" unicode="&#x69b;" horiz-adv-x="1041" 
d="M1096 126l0.00390625 -96.999c0 -19.333 -17.333 -29 -52 -29c-38 0 -67.5 7 -88.5 21s-37.5 37.333 -49.5 70c-4.66699 13.333 -9.66699 20 -15 20c-4 0 -12.667 -8.33301 -26 -25l-17 -19c-20.667 -25.333 -38.834 -42.833 -54.501 -52.5s-32.834 -14.5 -51.501 -14.5
c-43.333 0 -75 25 -95 75l-8 17c-8.66699 24 -16.667 36 -24 36c-6 0 -14.667 -7.33301 -26 -22c-17.333 -22 -30 -37.167 -38 -45.5s-18.667 -17.5 -32 -27.5c-30 -22 -64.333 -33 -103 -33c-28.667 0 -54.334 5.5 -77.001 16.5s-46.667 29.833 -72 56.5
c-18 17.333 -31.333 26 -40 26c-8 0 -17.667 -7.66699 -29 -23c-38 -50.667 -98.333 -76 -181 -76c-47.333 0 -71 11 -71 33v93c0 5.33301 1.83301 9.83301 5.5 13.5s8.16699 5.5 13.5 5.5h10h18l24 -1h23c56.667 0 98.667 8.5 126 25.5s52 50.167 74 99.5
c5.33301 11.333 11.666 17 18.999 17c9.33301 0 20 -11 32 -33l12 -23c16.667 -30.667 34.5 -52.667 53.5 -66s42.5 -20 70.5 -20c31.333 0 59.833 6.16699 85.5 18.5s50.5 32.166 74.5 59.499l19 21c19.333 20.667 34 31 44 31c10.667 0 18.334 -6.66699 23.001 -20l7 -21
c9.33301 -28.667 19.666 -47.834 30.999 -57.501s28.333 -14.5 51 -14.5c23.333 0 41.833 5.33301 55.5 16s27.167 30.334 40.5 59.001l10 21c9.33301 19.333 18.666 29 27.999 29c12.667 0 22.667 -14 30 -42l6 -20c8.66699 -33.333 28 -56.333 58 -69
c16.667 -7.33301 41.334 -11 74.001 -11c21.333 0 32 -6 32 -18zM605.004 -170.999c18.667 -18.667 38.8291 -36.1641 60.4961 -52.4971s44.834 -31.5 69.501 -45.5c-16 -19.333 -30.167 -38.5 -42.5 -57.5s-23.5 -38.833 -33.5 -59.5c-18 16 -36.333 31.167 -55 45.5
s-37.667 26.833 -57 37.5c-13.333 -16 -26.166 -32.5 -38.499 -49.5s-22.166 -34.833 -29.499 -53.5l-60.5 48c-20.333 16 -42.833 29.333 -67.5 40l43.5 58c14.333 20 26.833 40.667 37.5 62c14 -15.333 30.333 -29.833 49 -43.5s38.334 -25.834 59.001 -36.501
c14 15.333 26.5 32.166 37.5 50.499s20.167 37.166 27.5 56.499zM553.999 -370.996l64.4961 -50.498c21.667 -17 44.834 -31.5 69.501 -43.5l-50 -62.5c-17.333 -21.667 -31.333 -44.167 -42 -67.5c-19.333 19.333 -39.166 37.666 -59.499 54.999
s-42.166 31.666 -65.499 42.999c34.667 38 62.334 80 83.001 126z" />
    <glyph glyph-name="uni069B.fina" unicode="&#x69b;" horiz-adv-x="1661" 
d="M828 270c25.333 -47.333 47.9971 -78.668 67.9971 -94.001c28 -21.333 73.333 -32 136 -32c38 0 70.5 6.66699 97.5 20s57.167 37.666 90.5 72.999c15.333 17.333 25.666 28 30.999 32s10.666 6 15.999 6c12.667 0 22 -12 28 -36c7.33301 -28 17.5 -48 30.5 -60
s31.167 -18 54.5 -18s42 5.33301 56 16s27.333 30.334 40 59.001c15.333 33.333 28.333 50 39 50c12 0 21.333 -11.667 28 -35l5 -22c6 -18 12.667 -32 20 -42s18 -19 32 -27c21.333 -11.333 47.333 -17 78 -17c20 0 32 -5.66699 36 -17l1 -4v-3v-87
c0 -10 -4.66699 -17.833 -14 -23.5s-22.333 -8.5 -39 -8.5c-34.667 0 -62.5 6.33301 -83.5 19s-37.167 32.667 -48.5 60c-9.33301 22 -16.666 33 -21.999 33c-4.66699 0 -10 -4 -16 -12c-32 -40 -56.167 -66.5 -72.5 -79.5s-35.166 -19.5 -56.499 -19.5
c-25.333 0 -45.666 6.33301 -60.999 19s-29.666 34.667 -42.999 66c-11.333 27.333 -20.666 41 -27.999 41c-5.33301 0 -16.666 -10.333 -33.999 -31c-19.333 -23.333 -33.166 -39.166 -41.499 -47.499s-18.5 -16.5 -30.5 -24.5c-25.333 -15.333 -57.666 -23 -96.999 -23
c-44.667 0 -81 3.66699 -109 11c0 -81.333 -11.833 -157 -35.5 -227s-57.5 -128.667 -101.5 -176c-44.667 -47.333 -100.334 -83.666 -167.001 -108.999s-140 -38 -220 -38c-92 0 -168 24 -228 72c-29.333 23.333 -52 53.833 -68 91.5s-24 78.5 -24 122.5
c0 37.333 5.66699 76.166 17 116.499s27.666 78.166 48.999 113.499c14 24 27.5 43.5 40.5 58.5s22.167 22.5 27.5 22.5s8 -2.66699 8 -8c0 -3.33301 -1.33301 -7 -4 -11c0 -0.666992 -2.33301 -6.33398 -7 -17.001c-0.666992 -1.33301 -4.66699 -8.66602 -12 -21.999
c-18 -36 -32.333 -71 -43 -105s-16 -62.667 -16 -86c0 -57.333 29.167 -104.333 87.5 -141s132.5 -55 222.5 -55c60 0 118.5 7.83301 175.5 23.5s105.167 37.834 144.5 66.501c29.333 20 49 43.667 59 71s15 69.666 15 126.999c0 56.667 -4.66699 107.334 -14 152.001
c-6.66699 7.33301 -11 12 -13 14l-18 17c-14 13.333 -30 34 -48 62c25.333 42 52.666 83 81.999 123zM1318 -310.002c18.667 -18.667 38.8291 -36.1641 60.4961 -52.4971s44.834 -31.5 69.501 -45.5c-16 -19.333 -30.167 -38.5 -42.5 -57.5s-23.5 -38.833 -33.5 -59.5
c-18 16 -36.333 31.167 -55 45.5s-37.667 26.833 -57 37.5c-13.333 -16 -26.166 -32.5 -38.499 -49.5s-22.166 -34.833 -29.499 -53.5l-60.5 48c-20.333 16 -42.833 29.333 -67.5 40l43.5 58c14.333 20 26.833 40.667 37.5 62c14 -15.333 30.333 -29.833 49 -43.5
s38.334 -25.834 59.001 -36.501c14 15.333 26.5 32.166 37.5 50.499s20.167 37.166 27.5 56.499zM1266.99 -509.999l64.4961 -50.498c21.667 -17 44.834 -31.5 69.501 -43.5l-50 -62.5c-17.333 -21.667 -31.333 -44.167 -42 -67.5
c-19.333 19.333 -39.166 37.666 -59.499 54.999s-42.166 31.666 -65.499 42.999c34.667 38 62.334 80 83.001 126z" />
    <glyph glyph-name="uni069C.init" unicode="&#x69c;" horiz-adv-x="993" 
d="M930 455c25.333 -48 38.001 -98.001 38.001 -150.001c0 -63.333 -13 -118.333 -39 -165c-29.333 -52.667 -68.666 -79 -117.999 -79c-22 0 -45.167 5.33301 -69.5 16s-47.5 25.667 -69.5 45c-8 7.33301 -14 11 -18 11s-9.33301 -4 -16 -12l-23 -32
c-20 -26 -46.333 -47.333 -79 -64c-30.667 -16.667 -69 -25 -115 -25c-29.333 0 -56.333 5.66699 -81 17c-14.667 6.66699 -25.834 12.834 -33.501 18.501s-17.834 14.834 -30.501 27.501l-19 19c-12 12.667 -21 19 -27 19c-8 0 -17.667 -6.66699 -29 -20
c-23.333 -30 -49.833 -51 -79.5 -63s-70.5 -18 -122.5 -18c-16.667 0 -29.667 2.83301 -39 8.5s-14 13.5 -14 23.5v87v3l1 4c4 11.333 15.667 17 35 17l19 1h30c56.667 0 100.167 8.5 130.5 25.5s54.5 46.833 72.5 89.5c8.66699 18.667 17 28 25 28
c8.66699 0 17.334 -8.33301 26.001 -25l17 -32c12 -22.667 22.5 -38.834 31.5 -48.501s20.833 -18.167 35.5 -25.5c20 -8 42.333 -12 67 -12c20 0 41 3.16699 63 9.5s41.667 14.5 59 24.5c20 13.333 37.667 30.333 53 51s31.666 49.667 48.999 87
c12.667 28 25.334 42 38.001 42c15.333 0 26 -14.333 32 -43c5.33301 -26 11.166 -45.167 17.499 -57.5s16.5 -22.833 30.5 -31.5c22 -14 53.333 -21 94 -21h24c-2 28 -6.83301 51 -14.5 69s-21.167 36.667 -40.5 56zM560.001 -195.001
c18.667 -18.667 38.8291 -36.1641 60.4961 -52.4971s44.834 -31.5 69.501 -45.5c-16 -19.333 -30.167 -38.5 -42.5 -57.5s-23.5 -38.833 -33.5 -59.5c-18 16 -36.333 31.167 -55 45.5s-37.667 26.833 -57 37.5c-13.333 -16 -26.166 -32.5 -38.499 -49.5
s-22.166 -34.833 -29.499 -53.5l-60.5 48c-20.333 16 -42.833 29.333 -67.5 40l43.5 58c14.333 20 26.833 40.667 37.5 62c14 -15.333 30.333 -29.833 49 -43.5s38.334 -25.834 59.001 -36.501c14 15.333 26.5 32.166 37.5 50.499s20.167 37.166 27.5 56.499z
M508.996 -394.998l64.4961 -50.498c21.667 -17 44.834 -31.5 69.501 -43.5l-50 -62.5c-17.333 -21.667 -31.333 -44.167 -42 -67.5c-19.333 19.333 -39.166 37.666 -59.499 54.999s-42.166 31.666 -65.499 42.999c34.667 38 62.334 80 83.001 126zM398.992 759.004
c37.333 -30.667 69.334 -54.333 96.001 -71l17 -10c26 33.333 47 64.333 63 93l5 7c6 -4 9.66699 -6.66699 11 -8l19 -15c18.667 -15.333 38.667 -29.333 60 -42l21 -12c2 -1.33301 7 -4.33301 15 -9c-29.333 -30.667 -56.333 -70.334 -81 -119.001
c-34 32.667 -70.333 59.334 -109 80.001c-20 -24 -41.333 -59.667 -64 -107c-22.667 24 -55.334 50 -98.001 78l-22 15c-1.33301 0.666992 -5 3 -11 7c32.667 40 58.667 77.667 78 113zM459.993 966.005l9.99902 -9c38.667 -38 76.334 -67 113.001 -87
c-17.333 -20 -31 -37.833 -41 -53.5s-23.333 -39.5 -40 -71.5c-37.333 32 -78 60.667 -122 86l-11 6l13 18c38 48.667 64 85.667 78 111z" />
    <glyph glyph-name="uni069C.medi" unicode="&#x69c;" horiz-adv-x="1041" 
d="M1096 126l0.00390625 -96.999c0 -19.333 -17.333 -29 -52 -29c-38 0 -67.5 7 -88.5 21s-37.5 37.333 -49.5 70c-4.66699 13.333 -9.66699 20 -15 20c-4 0 -12.667 -8.33301 -26 -25l-17 -19c-20.667 -25.333 -38.834 -42.833 -54.501 -52.5s-32.834 -14.5 -51.501 -14.5
c-43.333 0 -75 25 -95 75l-8 17c-8.66699 24 -16.667 36 -24 36c-6 0 -14.667 -7.33301 -26 -22c-17.333 -22 -30 -37.167 -38 -45.5s-18.667 -17.5 -32 -27.5c-30 -22 -64.333 -33 -103 -33c-28.667 0 -54.334 5.5 -77.001 16.5s-46.667 29.833 -72 56.5
c-18 17.333 -31.333 26 -40 26c-8 0 -17.667 -7.66699 -29 -23c-38 -50.667 -98.333 -76 -181 -76c-47.333 0 -71 11 -71 33v93c0 5.33301 1.83301 9.83301 5.5 13.5s8.16699 5.5 13.5 5.5h10h18l24 -1h23c56.667 0 98.667 8.5 126 25.5s52 50.167 74 99.5
c5.33301 11.333 11.666 17 18.999 17c9.33301 0 20 -11 32 -33l12 -23c16.667 -30.667 34.5 -52.667 53.5 -66s42.5 -20 70.5 -20c31.333 0 59.833 6.16699 85.5 18.5s50.5 32.166 74.5 59.499l19 21c19.333 20.667 34 31 44 31c10.667 0 18.334 -6.66699 23.001 -20l7 -21
c9.33301 -28.667 19.666 -47.834 30.999 -57.501s28.333 -14.5 51 -14.5c23.333 0 41.833 5.33301 55.5 16s27.167 30.334 40.5 59.001l10 21c9.33301 19.333 18.666 29 27.999 29c12.667 0 22.667 -14 30 -42l6 -20c8.66699 -33.333 28 -56.333 58 -69
c16.667 -7.33301 41.334 -11 74.001 -11c21.333 0 32 -6 32 -18zM569.004 -199.999c18.667 -18.667 38.8291 -36.1641 60.4961 -52.4971s44.834 -31.5 69.501 -45.5c-16 -19.333 -30.167 -38.5 -42.5 -57.5s-23.5 -38.833 -33.5 -59.5c-18 16 -36.333 31.167 -55 45.5
s-37.667 26.833 -57 37.5c-13.333 -16 -26.166 -32.5 -38.499 -49.5s-22.166 -34.833 -29.499 -53.5l-60.5 48c-20.333 16 -42.833 29.333 -67.5 40l43.5 58c14.333 20 26.833 40.667 37.5 62c14 -15.333 30.333 -29.833 49 -43.5s38.334 -25.834 59.001 -36.501
c14 15.333 26.5 32.166 37.5 50.499s20.167 37.166 27.5 56.499zM517.999 -399.996l64.4961 -50.498c21.667 -17 44.834 -31.5 69.501 -43.5l-50 -62.5c-17.333 -21.667 -31.333 -44.167 -42 -67.5c-19.333 19.333 -39.166 37.666 -59.499 54.999
s-42.166 31.666 -65.499 42.999c34.667 38 62.334 80 83.001 126zM420.995 668.006c37.333 -30.667 69.334 -54.333 96.001 -71l17 -10c26 33.333 47 64.333 63 93l5 7c6 -4 9.66699 -6.66699 11 -8l19 -15c18.667 -15.333 38.667 -29.333 60 -42l21 -12
c2 -1.33301 7 -4.33301 15 -9c-29.333 -30.667 -56.333 -70.334 -81 -119.001c-34 32.667 -70.333 59.334 -109 80.001c-20 -24 -41.333 -59.667 -64 -107c-22.667 24 -55.334 50 -98.001 78l-22 15c-1.33301 0.666992 -5 3 -11 7c32.667 40 58.667 77.667 78 113z
M481.996 875.007l9.99902 -9c38.667 -38 76.334 -67 113.001 -87c-17.333 -20 -31 -37.833 -41 -53.5s-23.333 -39.5 -40 -71.5c-37.333 32 -78 60.667 -122 86l-11 6l13 18c38 48.667 64 85.667 78 111z" />
    <glyph glyph-name="uni069C.fina" unicode="&#x69c;" horiz-adv-x="1661" 
d="M828 270c25.333 -47.333 47.9971 -78.668 67.9971 -94.001c28 -21.333 73.333 -32 136 -32c38 0 70.5 6.66699 97.5 20s57.167 37.666 90.5 72.999c15.333 17.333 25.666 28 30.999 32s10.666 6 15.999 6c12.667 0 22 -12 28 -36c7.33301 -28 17.5 -48 30.5 -60
s31.167 -18 54.5 -18s42 5.33301 56 16s27.333 30.334 40 59.001c15.333 33.333 28.333 50 39 50c12 0 21.333 -11.667 28 -35l5 -22c6 -18 12.667 -32 20 -42s18 -19 32 -27c21.333 -11.333 47.333 -17 78 -17c20 0 32 -5.66699 36 -17l1 -4v-3v-87
c0 -10 -4.66699 -17.833 -14 -23.5s-22.333 -8.5 -39 -8.5c-34.667 0 -62.5 6.33301 -83.5 19s-37.167 32.667 -48.5 60c-9.33301 22 -16.666 33 -21.999 33c-4.66699 0 -10 -4 -16 -12c-32 -40 -56.167 -66.5 -72.5 -79.5s-35.166 -19.5 -56.499 -19.5
c-25.333 0 -45.666 6.33301 -60.999 19s-29.666 34.667 -42.999 66c-11.333 27.333 -20.666 41 -27.999 41c-5.33301 0 -16.666 -10.333 -33.999 -31c-19.333 -23.333 -33.166 -39.166 -41.499 -47.499s-18.5 -16.5 -30.5 -24.5c-25.333 -15.333 -57.666 -23 -96.999 -23
c-44.667 0 -81 3.66699 -109 11c0 -81.333 -11.833 -157 -35.5 -227s-57.5 -128.667 -101.5 -176c-44.667 -47.333 -100.334 -83.666 -167.001 -108.999s-140 -38 -220 -38c-92 0 -168 24 -228 72c-29.333 23.333 -52 53.833 -68 91.5s-24 78.5 -24 122.5
c0 37.333 5.66699 76.166 17 116.499s27.666 78.166 48.999 113.499c14 24 27.5 43.5 40.5 58.5s22.167 22.5 27.5 22.5s8 -2.66699 8 -8c0 -3.33301 -1.33301 -7 -4 -11c0 -0.666992 -2.33301 -6.33398 -7 -17.001c-0.666992 -1.33301 -4.66699 -8.66602 -12 -21.999
c-18 -36 -32.333 -71 -43 -105s-16 -62.667 -16 -86c0 -57.333 29.167 -104.333 87.5 -141s132.5 -55 222.5 -55c60 0 118.5 7.83301 175.5 23.5s105.167 37.834 144.5 66.501c29.333 20 49 43.667 59 71s15 69.666 15 126.999c0 56.667 -4.66699 107.334 -14 152.001
c-6.66699 7.33301 -11 12 -13 14l-18 17c-14 13.333 -30 34 -48 62c25.333 42 52.666 83 81.999 123zM1275 -271.002c18.667 -18.667 38.8291 -36.1641 60.4961 -52.4971s44.834 -31.5 69.501 -45.5c-16 -19.333 -30.167 -38.5 -42.5 -57.5s-23.5 -38.833 -33.5 -59.5
c-18 16 -36.333 31.167 -55 45.5s-37.667 26.833 -57 37.5c-13.333 -16 -26.166 -32.5 -38.499 -49.5s-22.166 -34.833 -29.499 -53.5l-60.5 48c-20.333 16 -42.833 29.333 -67.5 40l43.5 58c14.333 20 26.833 40.667 37.5 62c14 -15.333 30.333 -29.833 49 -43.5
s38.334 -25.834 59.001 -36.501c14 15.333 26.5 32.166 37.5 50.499s20.167 37.166 27.5 56.499zM1223.99 -470.999l64.4961 -50.498c21.667 -17 44.834 -31.5 69.501 -43.5l-50 -62.5c-17.333 -21.667 -31.333 -44.167 -42 -67.5
c-19.333 19.333 -39.166 37.666 -59.499 54.999s-42.166 31.666 -65.499 42.999c34.667 38 62.334 80 83.001 126zM1149.99 680.003c37.333 -30.667 69.334 -54.333 96.001 -71l17 -10c26 33.333 47 64.333 63 93l5 7c6 -4 9.66699 -6.66699 11 -8l19 -15
c18.667 -15.333 38.667 -29.333 60 -42l21 -12c2 -1.33301 7 -4.33301 15 -9c-29.333 -30.667 -56.333 -70.334 -81 -119.001c-34 32.667 -70.333 59.334 -109 80.001c-20 -24 -41.333 -59.667 -64 -107c-22.667 24 -55.334 50 -98.001 78l-22 15
c-1.33301 0.666992 -5 3 -11 7c32.667 40 58.667 77.667 78 113zM1210.99 887.004l9.99902 -9c38.667 -38 76.334 -67 113.001 -87c-17.333 -20 -31 -37.833 -41 -53.5s-23.333 -39.5 -40 -71.5c-37.333 32 -78 60.667 -122 86l-11 6l13 18c38 48.667 64 85.667 78 111z" />
    <glyph glyph-name="uni069D.init" unicode="&#x69d;" horiz-adv-x="1286" 
d="M473 0c-9.33301 0.666992 -15 0.99707 -17 0.99707h-41c-16.667 0 -34.167 1.83301 -52.5 5.5s-32.5 7.83398 -42.5 12.501c-14.667 8 -26.667 16.667 -36 26s-19 23 -29 41c-6.66699 10.667 -13 16 -19 16c-5.33301 0 -11.666 -3.66699 -18.999 -11l-23 -22
c-22.667 -22 -50.667 -38.833 -84 -50.5s-70 -17.5 -110 -17.5c-14.667 0 -27.334 3.33301 -38.001 10s-16 14.667 -16 24v85c0 6.66699 4 12.334 12 17.001s17.333 7 28 7h14c12.667 0 34.334 1.66699 65.001 5s52 6 64 8c53.333 12 85.666 37.333 96.999 76
c6.66699 20.667 11.334 32.667 14.001 36c6 7.33301 13 11 21 11c8.66699 0 15.5 -3.16699 20.5 -9.5s10.167 -18.166 15.5 -35.499c11.333 -38 33 -63.333 65 -76c23.333 -9.33301 67.333 -14 132 -14c18.667 0 40 1.33301 64 4c4 6.66699 7.33301 12 10 16l23 29l34 47
c24.667 34 55.5 69.167 92.5 105.5s73.5 68.5 109.5 96.5c103.333 78 193.666 117 270.999 117c47.333 0 87 -17 119 -51s48 -76 48 -126c0 -61.333 -25 -119.666 -75 -174.999c-66 -74 -176.667 -130.333 -332 -169c-42 -10.667 -92.333 -20 -151 -28s-106 -12 -142 -12
l-19 1c-9.33301 -14 -20 -31.333 -32 -52l-16 -28l-15 -28c-9.33301 -16.667 -16.333 -25 -21 -25c-6 0 -9 8 -9 24c0 31.333 6.66699 67.666 20 108.999zM644 147.997c79.333 0 161.167 9 245.5 27s150.5 40.667 198.5 68c20.667 11.333 37 23 49 35s18 23 18 33
c0 18 -15.333 35.667 -46 53c-34.667 20.667 -70.667 31 -108 31c-28 0 -58.167 -6 -90.5 -18s-62.833 -28.667 -91.5 -50c-26 -18.667 -51.333 -40 -76 -64s-45.667 -47 -63 -69l-24 -31c-2 -2.66699 -6 -7.66699 -12 -15zM396.001 -267.003
c38 -31.333 70.332 -54.999 96.999 -70.999l17 -10c26 33.333 47 64.333 63 93l5 7c6 -4 9.66699 -7 11 -9l19 -15c18 -14.667 38.333 -28.334 61 -41.001l20 -12c2.66699 -1.33301 7.66699 -4.33301 15 -9c-30 -30.667 -57 -70.334 -81 -119.001
c-34 32.667 -70.333 59.334 -109 80.001c-20 -24 -41.333 -60 -64 -108c-22 24 -55 50.333 -99 79l-22 14c-1.33301 1.33301 -4.66602 4 -9.99902 8c33.333 39.333 59 77 77 113z" />
    <glyph glyph-name="uni069D.medi" unicode="&#x69d;" horiz-adv-x="1353" 
d="M644 146l26.999 1.99902c58.667 0 129.334 8 212.001 24c40 8 79.5 18.667 118.5 32s70.5 27.333 94.5 42c39.333 23.333 59 44.333 59 63c0 18 -15.333 36 -46 54c-34 20.667 -70 31 -108 31c-58.667 0 -120 -23 -184 -69c-24 -16.667 -48.5 -37.167 -73.5 -61.5
s-46.167 -48.166 -63.5 -71.499l-24 -31c-2 -2 -6 -7 -12 -15zM546.999 -0.000976562c-6 -8 -10.001 -13.668 -12.001 -17.001l-8 -14l-10 -18l-9 -16c-23.333 -46 -38.333 -69 -45 -69c-7.33301 0 -11 10.333 -11 31c0 24.667 7.33301 58.667 22 102
c-10 0.666992 -15.667 1 -17 1h-44c-38 0 -69.667 6 -95 18c-12.667 6.66699 -23.667 14.667 -33 24s-19.333 23.333 -30 42c-6.66699 11.333 -13 17 -19 17c-4.66699 0 -11 -4 -19 -12c-31.333 -32.667 -63.333 -55.667 -96 -69s-73.334 -20 -122.001 -20
c-13.333 0 -25.5 3.5 -36.5 10.5s-16.5 14.833 -16.5 23.5l1 85c0 6.66699 3.83301 12.334 11.5 17.001s16.834 7 27.501 7l15 1c12 0 33.333 1.5 64 4.5s52.334 5.5 65.001 7.5c52.667 11.333 85 36.666 97 75.999c6 20.667 10.667 32.667 14 36
c5.33301 7.33301 12.333 11 21 11s15.334 -3.16699 20.001 -9.5s9.66699 -18.166 15 -35.499c6 -21.333 14.167 -37.833 24.5 -49.5s23.833 -20.5 40.5 -26.5c14 -4.66699 30.667 -8.16699 50 -10.5s47 -3.5 83 -3.5c18.667 0 39.667 1.33301 63 4
c7.33301 11.333 18 26.333 32 45l34 48c25.333 34.667 62 74.667 110 120s92 81.666 132 108.999c88 59.333 166 89 234 89c43.333 0 81.333 -16.333 114 -49c34.667 -34 52 -79 52 -135c0 -64 -28.333 -123.333 -85 -178c-24 -23.333 -48 -42 -72 -56s-62 -32.333 -114 -55
v-6c6 0.666992 10 1.33398 12 2.00098l25 4c12.667 0.666992 29.667 4.66699 51 12l25 8c78 24 141.667 36 191 36l31 1l20 1l22 -1c19.333 0 31 -5.66699 35 -17l1 -4c0.666992 -0.666992 1 -1.66699 1 -3v-87c0 -8 -4 -15 -12 -21
c-5.33301 -4.66699 -12.333 -7.66699 -21 -9s-25 -2 -49 -2l-69 2l-75 1l-68 3l-77 2l-66 3l-62 2l-76 3c-52 0 -114.667 -3 -188 -9l-52 -4c-6.66699 -0.666992 -22.334 -1.66699 -47.001 -3zM459.998 -236.002c38 -31.333 70.332 -54.999 96.999 -70.999l17 -10
c26 33.333 47 64.333 63 93l5 7c6 -4 9.66699 -7 11 -9l19 -15c18 -14.667 38.333 -28.334 61 -41.001l20 -12c2.66699 -1.33301 7.66699 -4.33301 15 -9c-30 -30.667 -57 -70.334 -81 -119.001c-34 32.667 -70.333 59.334 -109 80.001c-20 -24 -41.333 -60 -64 -108
c-22 24 -55 50.333 -99 79l-22 14c-1.33301 1.33301 -4.66602 4 -9.99902 8c33.333 39.333 59 77 77 113z" />
    <glyph glyph-name="uni069D.fina" unicode="&#x69d;" horiz-adv-x="1969" 
d="M1609 83l7 1.00195c18 1.33301 33.333 3.33301 46 6s34.667 8.33398 66 17.001c56.667 16 98.334 26.167 125.001 30.5s62.667 6.5 108 6.5h26c19.333 0 31 -5.66699 35 -17l1 -4c0.666992 -1.33301 1 -2.33301 1 -3v-87c0 -8 -3.66699 -15 -11 -21
c-5.33301 -4.66699 -13 -7.83398 -23 -9.50098s-26.333 -2.5 -49 -2.5l-224 7l-114 4l-60 2c-23.333 0 -45.333 0.666992 -66 2c-34.667 1.33301 -53.334 2 -56.001 2c-9.33301 0 -26 -0.666992 -50 -2l-75 -6l-58 -4c-29.333 -2 -52.666 -3 -69.999 -3
c-9.33301 -12 -17.166 -23 -23.499 -33s-17.833 -31.667 -34.5 -65c-14.667 -25.333 -24.334 -38 -29.001 -38c-6.66699 0 -10 7.66699 -10 23c0 32.667 7 69.667 21 111l-76 1c-30 0 -62.667 3.66699 -98 11c0 -64 -8.33301 -127.167 -25 -189.5s-39.667 -115.5 -69 -159.5
c-22.667 -34 -51.834 -65.333 -87.501 -94s-74.5 -51.334 -116.5 -68.001c-64.667 -26 -138 -39 -220 -39c-88 0 -160.333 20.333 -217 61c-37.333 27.333 -64.666 58.333 -81.999 93s-26 77 -26 127c0 87.333 23.667 169.666 71 246.999c12.667 19.333 25 35.833 37 49.5
s21.333 20.5 28 20.5c4.66699 0 7 -2.66699 7 -8c0 -4 -3 -11 -9 -21c-50 -86 -75 -160.333 -75 -223c0 -29.333 7 -54.833 21 -76.5s36.333 -42.167 67 -61.5c26.667 -18 58.667 -31.833 96 -41.5s75.666 -14.5 114.999 -14.5c63.333 0 123.333 7.66699 180 23
s105 36.333 145 63c28.667 20 49.334 44.833 62.001 74.5s19 68.834 19 117.501c0 60.667 -5 114.667 -15 162l-17 17c-20.667 18.667 -41.334 43.667 -62.001 75c14.667 28 31.334 54.667 50.001 80l20 30c2.66699 2.66699 6.66699 8 12 16c21.333 -48 52 -81.333 92 -100
s101.667 -28 185 -28c19.333 0 43 1.33301 71 4l15 23c64.667 95.333 143 180.666 235 255.999c51.333 42 101.666 74.5 150.999 97.5s94 34.5 134 34.5c49.333 0 90.166 -17 122.499 -51s48.5 -77 48.5 -129c0 -35.333 -8 -70 -24 -104s-39 -63 -69 -87
c-43.333 -37.333 -102.666 -71.333 -177.999 -102zM1262 146.002c12 0.666992 18.668 0.999023 20.001 0.999023l32 1c10.667 0 32.5 1.83301 65.5 5.5s61.5 7.83398 85.5 12.501c48.667 8 99.667 21.333 153 40c46.667 15.333 84 32.333 112 51s42 35.667 42 51
c0 16.667 -13 34 -39 52c-32.667 23.333 -71 35 -115 35c-34 0 -69 -8.16699 -105 -24.5s-74.667 -41.5 -116 -75.5c-24 -20 -48.333 -43.5 -73 -70.5s-45.334 -53.167 -62.001 -78.5zM1145 -310.999c38 -31.333 70.332 -54.999 96.999 -70.999l17 -10
c26 33.333 47 64.333 63 93l5 7c6 -4 9.66699 -7 11 -9l19 -15c18 -14.667 38.333 -28.334 61 -41.001l20 -12c2.66699 -1.33301 7.66699 -4.33301 15 -9c-30 -30.667 -57 -70.334 -81 -119.001c-34 32.667 -70.333 59.334 -109 80.001c-20 -24 -41.333 -60 -64 -108
c-22 24 -55 50.333 -99 79l-22 14c-1.33301 1.33301 -4.66602 4 -9.99902 8c33.333 39.333 59 77 77 113z" />
    <glyph glyph-name="uni069E.init" unicode="&#x69e;" horiz-adv-x="1286" 
d="M473 0c-9.33301 0.666992 -15 0.99707 -17 0.99707h-41c-16.667 0 -34.167 1.83301 -52.5 5.5s-32.5 7.83398 -42.5 12.501c-14.667 8 -26.667 16.667 -36 26s-19 23 -29 41c-6.66699 10.667 -13 16 -19 16c-5.33301 0 -11.666 -3.66699 -18.999 -11l-23 -22
c-22.667 -22 -50.667 -38.833 -84 -50.5s-70 -17.5 -110 -17.5c-14.667 0 -27.334 3.33301 -38.001 10s-16 14.667 -16 24v85c0 6.66699 4 12.334 12 17.001s17.333 7 28 7h14c12.667 0 34.334 1.66699 65.001 5s52 6 64 8c53.333 12 85.666 37.333 96.999 76
c6.66699 20.667 11.334 32.667 14.001 36c6 7.33301 13 11 21 11c8.66699 0 15.5 -3.16699 20.5 -9.5s10.167 -18.166 15.5 -35.499c11.333 -38 33 -63.333 65 -76c23.333 -9.33301 67.333 -14 132 -14c18.667 0 40 1.33301 64 4c4 6.66699 7.33301 12 10 16l23 29l34 47
c24.667 34 55.5 69.167 92.5 105.5s73.5 68.5 109.5 96.5c103.333 78 193.666 117 270.999 117c47.333 0 87 -17 119 -51s48 -76 48 -126c0 -61.333 -25 -119.666 -75 -174.999c-66 -74 -176.667 -130.333 -332 -169c-42 -10.667 -92.333 -20 -151 -28s-106 -12 -142 -12
l-19 1c-9.33301 -14 -20 -31.333 -32 -52l-16 -28l-15 -28c-9.33301 -16.667 -16.333 -25 -21 -25c-6 0 -9 8 -9 24c0 31.333 6.66699 67.666 20 108.999zM644 147.997c79.333 0 161.167 9 245.5 27s150.5 40.667 198.5 68c20.667 11.333 37 23 49 35s18 23 18 33
c0 18 -15.333 35.667 -46 53c-34.667 20.667 -70.667 31 -108 31c-28 0 -58.167 -6 -90.5 -18s-62.833 -28.667 -91.5 -50c-26 -18.667 -51.333 -40 -76 -64s-45.667 -47 -63 -69l-24 -31c-2 -2.66699 -6 -7.66699 -12 -15zM409.001 833.997
c37.333 -30.667 69.334 -54.333 96.001 -71l17 -10c26 33.333 47 64.333 63 93l5 7c6 -4 9.66699 -6.66699 11 -8l19 -15c18.667 -15.333 38.667 -29.333 60 -42l21 -12c2 -1.33301 7 -4.33301 15 -9c-29.333 -30.667 -56.333 -70.334 -81 -119.001
c-34 32.667 -70.333 59.334 -109 80.001c-20 -24 -41.333 -59.667 -64 -107c-22.667 24 -55.334 50 -98.001 78l-22 15c-1.33301 0.666992 -5 3 -11 7c32.667 40 58.667 77.667 78 113zM470.002 1041l9.99902 -9c38.667 -38 76.334 -67 113.001 -87
c-17.333 -20 -31 -37.833 -41 -53.5s-23.333 -39.5 -40 -71.5c-37.333 32 -78 60.667 -122 86l-11 6l13 18c38 48.667 64 85.667 78 111z" />
    <glyph glyph-name="uni069E.medi" unicode="&#x69e;" horiz-adv-x="1353" 
d="M644 146l26.999 1.99902c58.667 0 129.334 8 212.001 24c40 8 79.5 18.667 118.5 32s70.5 27.333 94.5 42c39.333 23.333 59 44.333 59 63c0 18 -15.333 36 -46 54c-34 20.667 -70 31 -108 31c-58.667 0 -120 -23 -184 -69c-24 -16.667 -48.5 -37.167 -73.5 -61.5
s-46.167 -48.166 -63.5 -71.499l-24 -31c-2 -2 -6 -7 -12 -15zM546.999 -0.000976562c-6 -8 -10.001 -13.668 -12.001 -17.001l-8 -14l-10 -18l-9 -16c-23.333 -46 -38.333 -69 -45 -69c-7.33301 0 -11 10.333 -11 31c0 24.667 7.33301 58.667 22 102
c-10 0.666992 -15.667 1 -17 1h-44c-38 0 -69.667 6 -95 18c-12.667 6.66699 -23.667 14.667 -33 24s-19.333 23.333 -30 42c-6.66699 11.333 -13 17 -19 17c-4.66699 0 -11 -4 -19 -12c-31.333 -32.667 -63.333 -55.667 -96 -69s-73.334 -20 -122.001 -20
c-13.333 0 -25.5 3.5 -36.5 10.5s-16.5 14.833 -16.5 23.5l1 85c0 6.66699 3.83301 12.334 11.5 17.001s16.834 7 27.501 7l15 1c12 0 33.333 1.5 64 4.5s52.334 5.5 65.001 7.5c52.667 11.333 85 36.666 97 75.999c6 20.667 10.667 32.667 14 36
c5.33301 7.33301 12.333 11 21 11s15.334 -3.16699 20.001 -9.5s9.66699 -18.166 15 -35.499c6 -21.333 14.167 -37.833 24.5 -49.5s23.833 -20.5 40.5 -26.5c14 -4.66699 30.667 -8.16699 50 -10.5s47 -3.5 83 -3.5c18.667 0 39.667 1.33301 63 4
c7.33301 11.333 18 26.333 32 45l34 48c25.333 34.667 62 74.667 110 120s92 81.666 132 108.999c88 59.333 166 89 234 89c43.333 0 81.333 -16.333 114 -49c34.667 -34 52 -79 52 -135c0 -64 -28.333 -123.333 -85 -178c-24 -23.333 -48 -42 -72 -56s-62 -32.333 -114 -55
v-6c6 0.666992 10 1.33398 12 2.00098l25 4c12.667 0.666992 29.667 4.66699 51 12l25 8c78 24 141.667 36 191 36l31 1l20 1l22 -1c19.333 0 31 -5.66699 35 -17l1 -4c0.666992 -0.666992 1 -1.66699 1 -3v-87c0 -8 -4 -15 -12 -21
c-5.33301 -4.66699 -12.333 -7.66699 -21 -9s-25 -2 -49 -2l-69 2l-75 1l-68 3l-77 2l-66 3l-62 2l-76 3c-52 0 -114.667 -3 -188 -9l-52 -4c-6.66699 -0.666992 -22.334 -1.66699 -47.001 -3zM478.998 844.998c37.333 -30.667 69.334 -54.333 96.001 -71l17 -10
c26 33.333 47 64.333 63 93l5 7c6 -4 9.66699 -6.66699 11 -8l19 -15c18.667 -15.333 38.667 -29.333 60 -42l21 -12c2 -1.33301 7 -4.33301 15 -9c-29.333 -30.667 -56.333 -70.334 -81 -119.001c-34 32.667 -70.333 59.334 -109 80.001c-20 -24 -41.333 -59.667 -64 -107
c-22.667 24 -55.334 50 -98.001 78l-22 15c-1.33301 0.666992 -5 3 -11 7c32.667 40 58.667 77.667 78 113zM539.999 1052l9.99902 -9c38.667 -38 76.334 -67 113.001 -87c-17.333 -20 -31 -37.833 -41 -53.5s-23.333 -39.5 -40 -71.5c-37.333 32 -78 60.667 -122 86l-11 6
l13 18c38 48.667 64 85.667 78 111z" />
    <glyph glyph-name="uni069E.fina" unicode="&#x69e;" horiz-adv-x="1969" 
d="M1609 83l7 1.00195c18 1.33301 33.333 3.33301 46 6s34.667 8.33398 66 17.001c56.667 16 98.334 26.167 125.001 30.5s62.667 6.5 108 6.5h26c19.333 0 31 -5.66699 35 -17l1 -4c0.666992 -1.33301 1 -2.33301 1 -3v-87c0 -8 -3.66699 -15 -11 -21
c-5.33301 -4.66699 -13 -7.83398 -23 -9.50098s-26.333 -2.5 -49 -2.5l-224 7l-114 4l-60 2c-23.333 0 -45.333 0.666992 -66 2c-34.667 1.33301 -53.334 2 -56.001 2c-9.33301 0 -26 -0.666992 -50 -2l-75 -6l-58 -4c-29.333 -2 -52.666 -3 -69.999 -3
c-9.33301 -12 -17.166 -23 -23.499 -33s-17.833 -31.667 -34.5 -65c-14.667 -25.333 -24.334 -38 -29.001 -38c-6.66699 0 -10 7.66699 -10 23c0 32.667 7 69.667 21 111l-76 1c-30 0 -62.667 3.66699 -98 11c0 -64 -8.33301 -127.167 -25 -189.5s-39.667 -115.5 -69 -159.5
c-22.667 -34 -51.834 -65.333 -87.501 -94s-74.5 -51.334 -116.5 -68.001c-64.667 -26 -138 -39 -220 -39c-88 0 -160.333 20.333 -217 61c-37.333 27.333 -64.666 58.333 -81.999 93s-26 77 -26 127c0 87.333 23.667 169.666 71 246.999c12.667 19.333 25 35.833 37 49.5
s21.333 20.5 28 20.5c4.66699 0 7 -2.66699 7 -8c0 -4 -3 -11 -9 -21c-50 -86 -75 -160.333 -75 -223c0 -29.333 7 -54.833 21 -76.5s36.333 -42.167 67 -61.5c26.667 -18 58.667 -31.833 96 -41.5s75.666 -14.5 114.999 -14.5c63.333 0 123.333 7.66699 180 23
s105 36.333 145 63c28.667 20 49.334 44.833 62.001 74.5s19 68.834 19 117.501c0 60.667 -5 114.667 -15 162l-17 17c-20.667 18.667 -41.334 43.667 -62.001 75c14.667 28 31.334 54.667 50.001 80l20 30c2.66699 2.66699 6.66699 8 12 16c21.333 -48 52 -81.333 92 -100
s101.667 -28 185 -28c19.333 0 43 1.33301 71 4l15 23c64.667 95.333 143 180.666 235 255.999c51.333 42 101.666 74.5 150.999 97.5s94 34.5 134 34.5c49.333 0 90.166 -17 122.499 -51s48.5 -77 48.5 -129c0 -35.333 -8 -70 -24 -104s-39 -63 -69 -87
c-43.333 -37.333 -102.666 -71.333 -177.999 -102zM1262 146.002c12 0.666992 18.668 0.999023 20.001 0.999023l32 1c10.667 0 32.5 1.83301 65.5 5.5s61.5 7.83398 85.5 12.501c48.667 8 99.667 21.333 153 40c46.667 15.333 84 32.333 112 51s42 35.667 42 51
c0 16.667 -13 34 -39 52c-32.667 23.333 -71 35 -115 35c-34 0 -69 -8.16699 -105 -24.5s-74.667 -41.5 -116 -75.5c-24 -20 -48.333 -43.5 -73 -70.5s-45.334 -53.167 -62.001 -78.5zM1094 854.001c37.333 -30.667 69.334 -54.333 96.001 -71l17 -10
c26 33.333 47 64.333 63 93l5 7c6 -4 9.66699 -6.66699 11 -8l19 -15c18.667 -15.333 38.667 -29.333 60 -42l21 -12c2 -1.33301 7 -4.33301 15 -9c-29.333 -30.667 -56.333 -70.334 -81 -119.001c-34 32.667 -70.333 59.334 -109 80.001c-20 -24 -41.333 -59.667 -64 -107
c-22.667 24 -55.334 50 -98.001 78l-22 15c-1.33301 0.666992 -5 3 -11 7c32.667 40 58.667 77.667 78 113zM1155 1061l9.99902 -9c38.667 -38 76.334 -67 113.001 -87c-17.333 -20 -31 -37.833 -41 -53.5s-23.333 -39.5 -40 -71.5c-37.333 32 -78 60.667 -122 86l-11 6
l13 18c38 48.667 64 85.667 78 111z" />
    <glyph glyph-name="uni069F.medi" unicode="&#x69f;" horiz-adv-x="1186" 
d="M966 143l205 -1h15l19 -1c19.333 0 31 -5.33301 35 -16l1 -4c0.666992 -1.33301 1 -2.66602 1 -3.99902v-88c0 -7.33301 -3.66699 -14.333 -11 -21c-5.33301 -4 -12.166 -6.83301 -20.499 -8.5s-22.833 -2.5 -43.5 -2.5c-13.333 0 -40 1.33301 -80 4l-58 4
c-10 0.666992 -36.667 2.33398 -80 5.00098c-24.667 2.66699 -47.667 4.66699 -69 6c-30.667 2 -50 3.33301 -58 4c-41.333 3.33301 -72 5 -92 5c-59.333 0 -132.333 -3.33301 -219 -10l-57 -5c-25.333 -2 -43.666 -3.33301 -54.999 -4l-56 -2l-46 -3
c-12 -0.666992 -22.333 -1 -31 -1c-22.667 0 -43.334 4.16699 -62.001 12.5s-39.334 22.5 -62.001 42.5c-16.667 14.667 -30.334 29.167 -41.001 43.5s-16 25.166 -16 32.499c0 8.66699 11 13 33 13h33h36c48 0 92.333 4.16699 133 12.5s71.334 19.5 92.001 33.5
c46 30.667 69 85.667 69 165l-1 55l-2 55c0 28.667 -5.33301 93 -16 193l-8 68c-8 80 -18 148.167 -30 204.5s-27.333 107.166 -46 152.499c10 9.33301 16.333 15.333 19 18l18 20c14.667 17.333 24 28.833 28 34.5s12.667 19.167 26 40.5
c22.667 -50 56.667 -99.667 102 -149c-5.33301 -6 -9.33301 -10.333 -12 -13c-22 -22.667 -36.833 -42 -44.5 -58s-11.5 -35.333 -11.5 -58c0 -11.333 3 -35.333 9 -72l9 -58l10 -67c12 -85.333 18 -163.666 18 -234.999c0 -10.667 -0.333008 -23 -1 -37l-2 -35
c0 -16 -0.333008 -25.667 -1 -29l-3 -26l-2 -25c-0.666992 -4 -2.33398 -11.333 -5.00098 -22l12 -1l16 16l30 32c46.667 48 103.334 90.667 170.001 128s126.667 56 180 56c54 0 95.667 -17 125 -51c29.333 -32.667 44 -73.334 44 -122.001
c0 -46.667 -12.5 -89.667 -37.5 -129s-61.167 -72 -108.5 -98zM1018 311c-9.33301 23.333 -28.999 42.165 -58.999 56.498s-65 21.5 -105 21.5c-41.333 0 -82.333 -9.5 -123 -28.5s-87 -50.5 -139 -94.5c-21.333 -18 -40.5 -37.167 -57.5 -57.5s-25.5 -34.166 -25.5 -41.499
c0 -8.66699 5.66699 -13 17 -13c27.333 0 70.166 6.16699 128.499 18.5s112.833 26.833 163.5 43.5c111.333 36.667 178 68.334 200 95.001zM787.001 981.999c37.333 -30.667 69.334 -54.333 96.001 -71l17 -10c26 33.333 47 64.333 63 93l5 7c6 -4 9.66699 -6.66699 11 -8
l19 -15c18.667 -15.333 38.667 -29.333 60 -42l21 -12c2 -1.33301 7 -4.33301 15 -9c-29.333 -30.667 -56.333 -70.334 -81 -119.001c-34 32.667 -70.333 59.334 -109 80.001c-20 -24 -41.333 -59.667 -64 -107c-22.667 24 -55.334 50 -98.001 78l-22 15
c-1.33301 0.666992 -5 3 -11 7c32.667 40 58.667 77.667 78 113zM848.002 1189l9.99902 -9c38.667 -38 76.334 -67 113.001 -87c-17.333 -20 -31 -37.833 -41 -53.5s-23.333 -39.5 -40 -71.5c-37.333 32 -78 60.667 -122 86l-11 6l13 18c38 48.667 64 85.667 78 111z" />
    <glyph glyph-name="uni06A0.init" unicode="&#x6a0;" horiz-adv-x="785" 
d="M749 273c-26.667 -20 -111.005 -62.668 -253.005 -128.001l-52 -24c-86 -39.333 -164.667 -68.666 -236 -87.999c-84 -22.667 -147.333 -34 -190 -34c-48 0 -72 10.667 -72 32v93c0 8 2.33301 13.333 7 16s15.334 4 32.001 4c98.667 0 173 11.333 223 34
c-4 4 -6.33301 6.66699 -7 8l-15 14c-13.333 11.333 -26.333 28.666 -39 51.999c-10 18.667 -15 39 -15 61c0 24.667 8.66699 56.167 26 94.5s39.333 73.833 66 106.5c70.667 89.333 144.667 134 222 134c48.667 0 94.667 -18 138 -54
c16.667 -12.667 32.334 -27.5 47.001 -44.5s22 -27.833 22 -32.5c0 -6.66699 -4 -10 -12 -10c-3.33301 0 -8 1 -14 3c-38.667 12 -78 18 -118 18c-51.333 0 -100.666 -9 -147.999 -27c-37.333 -14 -66.5 -28.667 -87.5 -44s-31.5 -29.666 -31.5 -42.999
c0 -11.333 7.83301 -26.333 23.5 -45s34.834 -35.334 57.501 -50.001c46.667 -30.667 87.334 -46 122.001 -46c24.667 0 55.667 7.33301 93 22c51.333 21.333 115 52.333 191 93l25 14c1.33301 0.666992 5.66602 2.66699 12.999 6l-1 -8
c-1.33301 -27.333 -5.66602 -60.666 -12.999 -99.999zM250.995 1021c37.333 -30.667 69.334 -54.333 96.001 -71l17 -10c26 33.333 47 64.333 63 93l5 7c6 -4 9.66699 -6.66699 11 -8l19 -15c18.667 -15.333 38.667 -29.333 60 -42l21 -12c2 -1.33301 7 -4.33301 15 -9
c-29.333 -30.667 -56.333 -70.334 -81 -119.001c-34 32.667 -70.333 59.334 -109 80.001c-20 -24 -41.333 -59.667 -64 -107c-22.667 24 -55.334 50 -98.001 78l-22 15c-1.33301 0.666992 -5 3 -11 7c32.667 40 58.667 77.667 78 113zM311.996 1228l9.99902 -9
c38.667 -38 76.334 -67 113.001 -87c-17.333 -20 -31 -37.833 -41 -53.5s-23.333 -39.5 -40 -71.5c-37.333 32 -78 60.667 -122 86l-11 6l13 18c38 48.667 64 85.667 78 111z" />
    <glyph glyph-name="uni06A0.medi" unicode="&#x6a0;" horiz-adv-x="727" 
d="M290 227c-33.333 45.333 -71.9971 72.335 -115.997 81.002l-17 4l-9 4c-4.66699 0.666992 -7 3.33398 -7 8.00098c0 7.33301 4.33301 20.333 13 39c16 40.667 43.167 71.834 81.5 93.501s84.166 32.5 137.499 32.5c56.667 0 106.334 -9.66699 149.001 -29
c25.333 -11.333 46 -26.833 62 -46.5s24 -39.834 24 -60.501c0 -26.667 -14 -53.334 -42 -80.001c-12.667 -12 -36.334 -30 -71.001 -54c45.333 -34.667 87.666 -56.334 126.999 -65.001c32 -6.66699 67 -10 105 -10c21.333 0 35.833 -2 43.5 -6s11.5 -10.333 11.5 -19
l1 -87c0 -8 -4 -15 -12 -21c-8.66699 -7.33301 -28.667 -11 -60 -11c-36 0 -64.667 2.33301 -86 7c-18.667 4 -35.334 10.5 -50.001 19.5s-38.667 27.167 -72 54.5l-32 27c-46.667 38.667 -77 58 -91 58c-12 0 -46.333 -19 -103 -57c-67.333 -46 -117.5 -75.667 -150.5 -89
s-70.167 -20 -111.5 -20c-21.333 0 -36 2 -44 6c-16.667 7.33301 -25 16.666 -25 27.999l1 85c0 16.667 18 25 54 25h33c17.333 0 40 2.16699 68 6.5s52 9.5 72 15.5c41.333 10.667 80 31 116 61zM251.003 893.002c37.333 -30.667 69.334 -54.333 96.001 -71l17 -10
c26 33.333 47 64.333 63 93l5 7c6 -4 9.66699 -6.66699 11 -8l19 -15c18.667 -15.333 38.667 -29.333 60 -42l21 -12c2 -1.33301 7 -4.33301 15 -9c-29.333 -30.667 -56.333 -70.334 -81 -119.001c-34 32.667 -70.333 59.334 -109 80.001c-20 -24 -41.333 -59.667 -64 -107
c-22.667 24 -55.334 50 -98.001 78l-22 15c-1.33301 0.666992 -5 3 -11 7c32.667 40 58.667 77.667 78 113zM312.004 1100l9.99902 -9c38.667 -38 76.334 -67 113.001 -87c-17.333 -20 -31 -37.833 -41 -53.5s-23.333 -39.5 -40 -71.5c-37.333 32 -78 60.667 -122 86l-11 6
l13 18c38 48.667 64 85.667 78 111z" />
    <glyph glyph-name="uni06A0.fina" unicode="&#x6a0;" horiz-adv-x="906" 
d="M614 218c25.333 -29.333 53.6699 -48.998 85.0029 -58.998c32 -10 81.667 -15 149 -15h37h18h13h8l10 -2c8.66699 -1.33301 14.5 -3.16602 17.5 -5.49902s5.83301 -5.83301 8.5 -10.5v-4v-3v-87c0 -8 -3.66699 -15 -11 -21c-5.33301 -4.66699 -12 -7.66699 -20 -9
s-21.667 -2 -41 -2c-100.667 0 -174 8.33301 -220 25c-34.667 12.667 -62.834 29.5 -84.501 50.5s-45.834 54.167 -72.501 99.5l-19 -10c-54.667 -29.333 -100.834 -60.333 -138.501 -93s-71.834 -71 -102.501 -115c-56 -82.667 -84 -170.334 -84 -263.001
c0 -60.667 12.333 -116.167 37 -166.5s60.334 -92.5 107.001 -126.5c103.333 -74.667 263 -112 479 -112c106.667 0 210.667 7.33301 312 22c22.667 3.33301 40.667 5 54 5c14.667 0 22 -4.33301 22 -13c0 -6.66699 -10.667 -16.334 -32 -29.001s-54 -28.334 -98 -47.001
c-44 -18 -100.333 -35.667 -169 -53c-44 -11.333 -80 -19 -108 -23s-58 -6 -90 -6c-186.667 0 -332.667 42.167 -438 126.5s-158 201.166 -158 350.499c0 130.667 38.333 254.667 115 372c24 37.333 55.333 78.5 94 123.5s75.334 82.5 110.001 112.5
c-24.667 19.333 -45.834 32.333 -63.501 39s-44.167 11 -79.5 13c22 60.667 54.5 106.334 97.5 137.001s96.167 46 159.5 46c57.333 0 105.333 -12.333 144 -37c18 -12 32.167 -26.667 42.5 -44s15.5 -35.666 15.5 -54.999c0 -18 -6.16699 -34.333 -18.5 -49
s-33.5 -30.334 -63.5 -47.001zM362.004 892.002c37.333 -30.667 69.334 -54.333 96.001 -71l17 -10c26 33.333 47 64.333 63 93l5 7c6 -4 9.66699 -6.66699 11 -8l19 -15c18.667 -15.333 38.667 -29.333 60 -42l21 -12c2 -1.33301 7 -4.33301 15 -9
c-29.333 -30.667 -56.333 -70.334 -81 -119.001c-34 32.667 -70.333 59.334 -109 80.001c-20 -24 -41.333 -59.667 -64 -107c-22.667 24 -55.334 50 -98.001 78l-22 15c-1.33301 0.666992 -5 3 -11 7c32.667 40 58.667 77.667 78 113zM423.005 1099l9.99902 -9
c38.667 -38 76.334 -67 113.001 -87c-17.333 -20 -31 -37.833 -41 -53.5s-23.333 -39.5 -40 -71.5c-37.333 32 -78 60.667 -122 86l-11 6l13 18c38 48.667 64 85.667 78 111z" />
    <glyph glyph-name="afii57459" unicode="&#x6a1;" horiz-adv-x="467" 
d="M168 408c14.667 -15.333 31.667 -22.999 51 -22.999c17.333 0 33 4.66699 47 14s21 20 21 32c0 17.333 -9.33301 36.666 -28 57.999c-18 19.333 -30.667 29 -38 29c-9.33301 0 -20.5 -13.667 -33.5 -41s-19.5 -50.333 -19.5 -69zM351 349.001
c-10.667 -8 -19.665 -17.999 -26.998 -29.999c-8.66699 -13.333 -16.167 -22.833 -22.5 -28.5s-15.833 -11.5 -28.5 -17.5c-21.333 -9.33301 -46.333 -14 -75 -14c-34.667 0 -60 7.5 -76 22.5s-24 38.167 -24 69.5c0 62.667 15.333 129.334 46 200.001
c32 74 66.667 111 104 111c22 0 46.833 -13.5 74.5 -40.5s50.167 -59.833 67.5 -98.5c32 -68.667 48 -138.334 48 -209.001c0 -58.667 -10.333 -110.667 -31 -156c-13.333 -28.667 -33 -52.334 -59 -71.001s-62.667 -35 -110 -49c-36.667 -11.333 -75.5 -20.333 -116.5 -27
s-77.5 -10 -109.5 -10c-22.667 0 -39.334 2.66699 -50.001 8s-16 13.333 -16 24v87v3l1 5c4 10.667 15.667 16 35 16h19h17c22.667 0 54.167 2.16699 94.5 6.5s70.166 8.83301 89.499 13.5c66 14 118 34 156 60c12 8 19.833 15 23.5 21s5.5 14.333 5.5 25
c0 34 -12 60.333 -36 79z" />
    <glyph glyph-name="afii57374" unicode="&#x6a1;" horiz-adv-x="624" 
d="M356 230c6 -0.666992 17.1689 1.50195 33.502 6.50195s29.5 9.83301 39.5 14.5c38 20 57 45.667 57 77c0 26.667 -10.333 51.167 -31 73.5s-43.334 33.5 -68.001 33.5c-32 0 -63.333 -11.667 -94 -35c-14 -10 -25.5 -21.667 -34.5 -35s-13.5 -25 -13.5 -35
c0 -16.667 13.667 -37.334 41 -62.001s50.666 -37.334 69.999 -38.001zM678.002 119.002v-87.002c0 -21.333 -20 -32 -60 -32c-42.667 0 -83 4.66699 -121 14c-28 7.33301 -51.167 14.333 -69.5 21s-46.166 19.334 -83.499 38.001c-26 12 -43.333 18 -52 18
c-8 0 -30.667 -8.66699 -68 -26l-39 -18c-30 -13.333 -61.5 -24.5 -94.5 -33.5s-59.833 -13.5 -80.5 -13.5c-42.667 0 -64 11 -64 33v87v3l1 4c4 11.333 15.667 17 35 17h19c16 0 38.5 1.66699 67.5 5s50.167 6.33301 63.5 9c35.333 8 53 18.333 53 31
c0 2.66699 -0.333008 6 -1 10l-5 22c-0.666992 6.66699 -1 15.334 -1 26.001c0 34 9.33301 70.833 28 110.5s46 80.834 82 123.501c30 35.333 63.5 66 100.5 92s65.833 39 86.5 39c22 0 41 -20 57 -60c6 -17.333 11.167 -38.5 15.5 -63.5s6.5 -47.833 6.5 -68.5
c0 -26.667 -3.33301 -53.834 -10 -81.501s-15.334 -50.5 -26.001 -68.5l-26 -42c-10 -18 -16 -28 -18 -30c-5.33301 -8 -8 -14.333 -8 -19c0 -8.66699 8.66699 -16 26 -22c10.667 -2.66699 32.5 -5.66699 65.5 -9s60.833 -5 83.5 -5c20 0 32 -5.66699 36 -17l1 -4v-3z" />
    <glyph glyph-name="afii52258" unicode="&#x6a1;" horiz-adv-x="1603" 
d="M1228 333c0 -19.333 12.002 -40.332 36.002 -62.999c11.333 -10 24.166 -19.167 38.499 -27.5s25.166 -12.5 32.499 -12.5c6 0 16.5 2.16699 31.5 6.5s26.833 8.5 35.5 12.5c42.667 21.333 64 47.666 64 78.999c0 22 -7.66699 43.667 -23 65c-19.333 28 -46 42 -80 42
c-26 0 -55.333 -11.333 -88 -34c-31.333 -22 -47 -44.667 -47 -68zM1657 119.001l0.00195312 -86.001c0 -22 -19.667 -33 -59 -33c-45.333 -0 -88.333 5.33301 -129 16s-85.334 28.334 -134.001 53.001c-34 16.667 -56 25 -66 25s-38 -9.66699 -84 -29
c-54.667 -22 -102.167 -38.167 -142.5 -48.5s-93.5 -19.833 -159.5 -28.5c-79.333 -10.667 -157.333 -16 -234 -16c-376 0 -564 98 -564 294c0 56.667 17 119.334 51 188.001c21.333 43.333 38.333 65 51 65c4.66699 0 7 -2.66699 7 -8s-1.33301 -12.333 -4 -21l-11 -28
c-12 -34.667 -18 -65 -18 -91c0 -74.667 49.667 -133.667 149 -177s233 -65 401 -65c45.333 0 105.166 2.33301 179.499 7s125.5 9 153.5 13l60 10c40 6 60 17.333 60 34c0 2 -1 7 -3 15c-2.66699 7.33301 -4 17.333 -4 30c0 78 39 161 117 249
c31.333 35.333 64 64.666 98 87.999s61 35 81 35c23.333 0 42.666 -19 57.999 -57c16 -42 24 -87.667 24 -137c0 -34 -5.33301 -66.5 -16 -97.5s-28 -64.167 -52 -99.5c-14.667 -22.667 -22 -35.334 -22 -38.001c0 -11.333 12.667 -19.666 38 -24.999
c26.667 -5.33301 55.334 -9 86.001 -11l34 -1h17c20 0 32 -5.66699 36 -17l1 -4v-4z" />
    <glyph glyph-name="uni06A2.init" unicode="&#x6a2;" horiz-adv-x="467" 
d="M168 408c14.667 -15.333 31.667 -22.999 51 -22.999c17.333 0 33 4.66699 47 14s21 20 21 32c0 17.333 -9.33301 36.666 -28 57.999c-18 19.333 -30.667 29 -38 29c-9.33301 0 -20.5 -13.667 -33.5 -41s-19.5 -50.333 -19.5 -69zM351 349.001
c-10.667 -8 -19.665 -17.999 -26.998 -29.999c-8.66699 -13.333 -16.167 -22.833 -22.5 -28.5s-15.833 -11.5 -28.5 -17.5c-21.333 -9.33301 -46.333 -14 -75 -14c-34.667 0 -60 7.5 -76 22.5s-24 38.167 -24 69.5c0 62.667 15.333 129.334 46 200.001
c32 74 66.667 111 104 111c22 0 46.833 -13.5 74.5 -40.5s50.167 -59.833 67.5 -98.5c32 -68.667 48 -138.334 48 -209.001c0 -58.667 -10.333 -110.667 -31 -156c-13.333 -28.667 -33 -52.334 -59 -71.001s-62.667 -35 -110 -49c-36.667 -11.333 -75.5 -20.333 -116.5 -27
s-77.5 -10 -109.5 -10c-22.667 0 -39.334 2.66699 -50.001 8s-16 13.333 -16 24v87v3l1 5c4 10.667 15.667 16 35 16h19h17c22.667 0 54.167 2.16699 94.5 6.5s70.166 8.83301 89.499 13.5c66 14 118 34 156 60c12 8 19.833 15 23.5 21s5.5 14.333 5.5 25
c0 34 -12 60.333 -36 79zM185.002 -165.998c43.333 -43.333 84 -75.668 122 -97.001c-17.333 -20.667 -31.166 -38.667 -41.499 -54s-23.5 -38.666 -39.5 -69.999c-36.667 31.333 -77.334 60 -122.001 86l-11 7c6.66699 7.33301 12 13 16 17l20 29l20 28
c14.667 20 26.667 38 36 54z" />
    <glyph glyph-name="uni06A2.medi" unicode="&#x6a2;" horiz-adv-x="624" 
d="M356 230c6 -0.666992 17.1689 1.50195 33.502 6.50195s29.5 9.83301 39.5 14.5c38 20 57 45.667 57 77c0 26.667 -10.333 51.167 -31 73.5s-43.334 33.5 -68.001 33.5c-32 0 -63.333 -11.667 -94 -35c-14 -10 -25.5 -21.667 -34.5 -35s-13.5 -25 -13.5 -35
c0 -16.667 13.667 -37.334 41 -62.001s50.666 -37.334 69.999 -38.001zM678.002 119.002v-87.002c0 -21.333 -20 -32 -60 -32c-42.667 0 -83 4.66699 -121 14c-28 7.33301 -51.167 14.333 -69.5 21s-46.166 19.334 -83.499 38.001c-26 12 -43.333 18 -52 18
c-8 0 -30.667 -8.66699 -68 -26l-39 -18c-30 -13.333 -61.5 -24.5 -94.5 -33.5s-59.833 -13.5 -80.5 -13.5c-42.667 0 -64 11 -64 33v87v3l1 4c4 11.333 15.667 17 35 17h19c16 0 38.5 1.66699 67.5 5s50.167 6.33301 63.5 9c35.333 8 53 18.333 53 31
c0 2.66699 -0.333008 6 -1 10l-5 22c-0.666992 6.66699 -1 15.334 -1 26.001c0 34 9.33301 70.833 28 110.5s46 80.834 82 123.501c30 35.333 63.5 66 100.5 92s65.833 39 86.5 39c22 0 41 -20 57 -60c6 -17.333 11.167 -38.5 15.5 -63.5s6.5 -47.833 6.5 -68.5
c0 -26.667 -3.33301 -53.834 -10 -81.501s-15.334 -50.5 -26.001 -68.5l-26 -42c-10 -18 -16 -28 -18 -30c-5.33301 -8 -8 -14.333 -8 -19c0 -8.66699 8.66699 -16 26 -22c10.667 -2.66699 32.5 -5.66699 65.5 -9s60.833 -5 83.5 -5c20 0 32 -5.66699 36 -17l1 -4v-3z
M334.002 -169c43.333 -43.333 84 -75.668 122 -97.001c-17.333 -20.667 -31.166 -38.667 -41.499 -54s-23.5 -38.666 -39.5 -69.999c-36.667 31.333 -77.334 60 -122.001 86l-11 7c6.66699 7.33301 12 13 16 17l20 29l20 28c14.667 20 26.667 38 36 54z" />
    <glyph glyph-name="uni06A2.fina" unicode="&#x6a2;" horiz-adv-x="1603" 
d="M1228 333c0 -19.333 12.002 -40.332 36.002 -62.999c11.333 -10 24.166 -19.167 38.499 -27.5s25.166 -12.5 32.499 -12.5c6 0 16.5 2.16699 31.5 6.5s26.833 8.5 35.5 12.5c42.667 21.333 64 47.666 64 78.999c0 22 -7.66699 43.667 -23 65c-19.333 28 -46 42 -80 42
c-26 0 -55.333 -11.333 -88 -34c-31.333 -22 -47 -44.667 -47 -68zM1657 119.001l0.00195312 -86.001c0 -22 -19.667 -33 -59 -33c-45.333 -0 -88.333 5.33301 -129 16s-85.334 28.334 -134.001 53.001c-34 16.667 -56 25 -66 25s-38 -9.66699 -84 -29
c-54.667 -22 -102.167 -38.167 -142.5 -48.5s-93.5 -19.833 -159.5 -28.5c-79.333 -10.667 -157.333 -16 -234 -16c-376 0 -564 98 -564 294c0 56.667 17 119.334 51 188.001c21.333 43.333 38.333 65 51 65c4.66699 0 7 -2.66699 7 -8s-1.33301 -12.333 -4 -21l-11 -28
c-12 -34.667 -18 -65 -18 -91c0 -74.667 49.667 -133.667 149 -177s233 -65 401 -65c45.333 0 105.166 2.33301 179.499 7s125.5 9 153.5 13l60 10c40 6 60 17.333 60 34c0 2 -1 7 -3 15c-2.66699 7.33301 -4 17.333 -4 30c0 78 39 161 117 249
c31.333 35.333 64 64.666 98 87.999s61 35 81 35c23.333 0 42.666 -19 57.999 -57c16 -42 24 -87.667 24 -137c0 -34 -5.33301 -66.5 -16 -97.5s-28 -64.167 -52 -99.5c-14.667 -22.667 -22 -35.334 -22 -38.001c0 -11.333 12.667 -19.666 38 -24.999
c26.667 -5.33301 55.334 -9 86.001 -11l34 -1h17c20 0 32 -5.66699 36 -17l1 -4v-4zM1272 -161c43.333 -43.333 84 -75.668 122 -97.001c-17.333 -20.667 -31.166 -38.667 -41.499 -54s-23.5 -38.666 -39.5 -69.999c-36.667 31.333 -77.334 60 -122.001 86l-11 7
c6.66699 7.33301 12 13 16 17l20 29l20 28c14.667 20 26.667 38 36 54z" />
    <glyph glyph-name="uni06A3.init" unicode="&#x6a3;" horiz-adv-x="467" 
d="M168 408c14.667 -15.333 31.667 -22.999 51 -22.999c17.333 0 33 4.66699 47 14s21 20 21 32c0 17.333 -9.33301 36.666 -28 57.999c-18 19.333 -30.667 29 -38 29c-9.33301 0 -20.5 -13.667 -33.5 -41s-19.5 -50.333 -19.5 -69zM351 349.001
c-10.667 -8 -19.665 -17.999 -26.998 -29.999c-8.66699 -13.333 -16.167 -22.833 -22.5 -28.5s-15.833 -11.5 -28.5 -17.5c-21.333 -9.33301 -46.333 -14 -75 -14c-34.667 0 -60 7.5 -76 22.5s-24 38.167 -24 69.5c0 62.667 15.333 129.334 46 200.001
c32 74 66.667 111 104 111c22 0 46.833 -13.5 74.5 -40.5s50.167 -59.833 67.5 -98.5c32 -68.667 48 -138.334 48 -209.001c0 -58.667 -10.333 -110.667 -31 -156c-13.333 -28.667 -33 -52.334 -59 -71.001s-62.667 -35 -110 -49c-36.667 -11.333 -75.5 -20.333 -116.5 -27
s-77.5 -10 -109.5 -10c-22.667 0 -39.334 2.66699 -50.001 8s-16 13.333 -16 24v87v3l1 5c4 10.667 15.667 16 35 16h19h17c22.667 0 54.167 2.16699 94.5 6.5s70.166 8.83301 89.499 13.5c66 14 118 34 156 60c12 8 19.833 15 23.5 21s5.5 14.333 5.5 25
c0 34 -12 60.333 -36 79zM145.002 1009c43.333 -43.333 84 -75.668 122 -97.001c-17.333 -20.667 -31.166 -38.667 -41.499 -54s-23.5 -38.666 -39.5 -69.999c-36.667 31.333 -77.334 60 -122.001 86l-11 7c6.66699 7.33301 12 13 16 17l20 29l20 28
c14.667 20 26.667 38 36 54zM196.002 -104c43.333 -43.333 84 -75.668 122 -97.001c-17.333 -20.667 -31.166 -38.667 -41.499 -54s-23.5 -38.666 -39.5 -69.999c-36.667 31.333 -77.334 60 -122.001 86l-11 7c6.66699 7.33301 12 13 16 17l20 29l20 28
c14.667 20 26.667 38 36 54z" />
    <glyph glyph-name="uni06A3.medi" unicode="&#x6a3;" horiz-adv-x="624" 
d="M356 230c6 -0.666992 17.1689 1.50195 33.502 6.50195s29.5 9.83301 39.5 14.5c38 20 57 45.667 57 77c0 26.667 -10.333 51.167 -31 73.5s-43.334 33.5 -68.001 33.5c-32 0 -63.333 -11.667 -94 -35c-14 -10 -25.5 -21.667 -34.5 -35s-13.5 -25 -13.5 -35
c0 -16.667 13.667 -37.334 41 -62.001s50.666 -37.334 69.999 -38.001zM678.002 119.002v-87.002c0 -21.333 -20 -32 -60 -32c-42.667 0 -83 4.66699 -121 14c-28 7.33301 -51.167 14.333 -69.5 21s-46.166 19.334 -83.499 38.001c-26 12 -43.333 18 -52 18
c-8 0 -30.667 -8.66699 -68 -26l-39 -18c-30 -13.333 -61.5 -24.5 -94.5 -33.5s-59.833 -13.5 -80.5 -13.5c-42.667 0 -64 11 -64 33v87v3l1 4c4 11.333 15.667 17 35 17h19c16 0 38.5 1.66699 67.5 5s50.167 6.33301 63.5 9c35.333 8 53 18.333 53 31
c0 2.66699 -0.333008 6 -1 10l-5 22c-0.666992 6.66699 -1 15.334 -1 26.001c0 34 9.33301 70.833 28 110.5s46 80.834 82 123.501c30 35.333 63.5 66 100.5 92s65.833 39 86.5 39c22 0 41 -20 57 -60c6 -17.333 11.167 -38.5 15.5 -63.5s6.5 -47.833 6.5 -68.5
c0 -26.667 -3.33301 -53.834 -10 -81.501s-15.334 -50.5 -26.001 -68.5l-26 -42c-10 -18 -16 -28 -18 -30c-5.33301 -8 -8 -14.333 -8 -19c0 -8.66699 8.66699 -16 26 -22c10.667 -2.66699 32.5 -5.66699 65.5 -9s60.833 -5 83.5 -5c20 0 32 -5.66699 36 -17l1 -4v-3z
M385.002 1036c43.333 -43.333 84 -75.668 122 -97.001c-17.333 -20.667 -31.166 -38.667 -41.499 -54s-23.5 -38.666 -39.5 -69.999c-36.667 31.333 -77.334 60 -122.001 86l-11 7c6.66699 7.33301 12 13 16 17l20 29l20 28c14.667 20 26.667 38 36 54zM305.002 -147.002
c43.333 -43.333 84 -75.668 122 -97.001c-17.333 -20.667 -31.166 -38.667 -41.499 -54s-23.5 -38.666 -39.5 -69.999c-36.667 31.333 -77.334 60 -122.001 86l-11 7c6.66699 7.33301 12 13 16 17l20 29l20 28c14.667 20 26.667 38 36 54z" />
    <glyph glyph-name="uni06A3.fina" unicode="&#x6a3;" horiz-adv-x="1603" 
d="M1228 333c0 -19.333 12.002 -40.332 36.002 -62.999c11.333 -10 24.166 -19.167 38.499 -27.5s25.166 -12.5 32.499 -12.5c6 0 16.5 2.16699 31.5 6.5s26.833 8.5 35.5 12.5c42.667 21.333 64 47.666 64 78.999c0 22 -7.66699 43.667 -23 65c-19.333 28 -46 42 -80 42
c-26 0 -55.333 -11.333 -88 -34c-31.333 -22 -47 -44.667 -47 -68zM1657 119.001l0.00195312 -86.001c0 -22 -19.667 -33 -59 -33c-45.333 -0 -88.333 5.33301 -129 16s-85.334 28.334 -134.001 53.001c-34 16.667 -56 25 -66 25s-38 -9.66699 -84 -29
c-54.667 -22 -102.167 -38.167 -142.5 -48.5s-93.5 -19.833 -159.5 -28.5c-79.333 -10.667 -157.333 -16 -234 -16c-376 0 -564 98 -564 294c0 56.667 17 119.334 51 188.001c21.333 43.333 38.333 65 51 65c4.66699 0 7 -2.66699 7 -8s-1.33301 -12.333 -4 -21l-11 -28
c-12 -34.667 -18 -65 -18 -91c0 -74.667 49.667 -133.667 149 -177s233 -65 401 -65c45.333 0 105.166 2.33301 179.499 7s125.5 9 153.5 13l60 10c40 6 60 17.333 60 34c0 2 -1 7 -3 15c-2.66699 7.33301 -4 17.333 -4 30c0 78 39 161 117 249
c31.333 35.333 64 64.666 98 87.999s61 35 81 35c23.333 0 42.666 -19 57.999 -57c16 -42 24 -87.667 24 -137c0 -34 -5.33301 -66.5 -16 -97.5s-28 -64.167 -52 -99.5c-14.667 -22.667 -22 -35.334 -22 -38.001c0 -11.333 12.667 -19.666 38 -24.999
c26.667 -5.33301 55.334 -9 86.001 -11l34 -1h17c20 0 32 -5.66699 36 -17l1 -4v-4zM1362 950c43.333 -43.333 84 -75.668 122 -97.001c-17.333 -20.667 -31.166 -38.667 -41.499 -54s-23.5 -38.666 -39.5 -69.999c-36.667 31.333 -77.334 60 -122.001 86l-11 7
c6.66699 7.33301 12 13 16 17l20 29l20 28c14.667 20 26.667 38 36 54zM1266 -140.002c43.333 -43.333 84 -75.668 122 -97.001c-17.333 -20.667 -31.166 -38.667 -41.499 -54s-23.5 -38.666 -39.5 -69.999c-36.667 31.333 -77.334 60 -122.001 86l-11 7
c6.66699 7.33301 12 13 16 17l20 29l20 28c14.667 20 26.667 38 36 54z" />
    <glyph glyph-name="uni06A5.init" unicode="&#x6a5;" horiz-adv-x="467" 
d="M168 408c14.667 -15.333 31.667 -22.999 51 -22.999c17.333 0 33 4.66699 47 14s21 20 21 32c0 17.333 -9.33301 36.666 -28 57.999c-18 19.333 -30.667 29 -38 29c-9.33301 0 -20.5 -13.667 -33.5 -41s-19.5 -50.333 -19.5 -69zM351 349.001
c-10.667 -8 -19.665 -17.999 -26.998 -29.999c-8.66699 -13.333 -16.167 -22.833 -22.5 -28.5s-15.833 -11.5 -28.5 -17.5c-21.333 -9.33301 -46.333 -14 -75 -14c-34.667 0 -60 7.5 -76 22.5s-24 38.167 -24 69.5c0 62.667 15.333 129.334 46 200.001
c32 74 66.667 111 104 111c22 0 46.833 -13.5 74.5 -40.5s50.167 -59.833 67.5 -98.5c32 -68.667 48 -138.334 48 -209.001c0 -58.667 -10.333 -110.667 -31 -156c-13.333 -28.667 -33 -52.334 -59 -71.001s-62.667 -35 -110 -49c-36.667 -11.333 -75.5 -20.333 -116.5 -27
s-77.5 -10 -109.5 -10c-22.667 0 -39.334 2.66699 -50.001 8s-16 13.333 -16 24v87v3l1 5c4 10.667 15.667 16 35 16h19h17c22.667 0 54.167 2.16699 94.5 6.5s70.166 8.83301 89.499 13.5c66 14 118 34 156 60c12 8 19.833 15 23.5 21s5.5 14.333 5.5 25
c0 34 -12 60.333 -36 79zM248.002 -123.998c18.667 -18.667 38.8291 -36.1641 60.4961 -52.4971s44.834 -31.5 69.501 -45.5c-16 -19.333 -30.167 -38.5 -42.5 -57.5s-23.5 -38.833 -33.5 -59.5c-18 16 -36.333 31.167 -55 45.5s-37.667 26.833 -57 37.5
c-13.333 -16 -26.166 -32.5 -38.499 -49.5s-22.166 -34.833 -29.499 -53.5l-60.5 48c-20.333 16 -42.833 29.333 -67.5 40l43.5 58c14.333 20 26.833 40.667 37.5 62c14 -15.333 30.333 -29.833 49 -43.5s38.334 -25.834 59.001 -36.501c14 15.333 26.5 32.166 37.5 50.499
s20.167 37.166 27.5 56.499zM196.997 -323.995l64.4961 -50.498c21.667 -17 44.834 -31.5 69.501 -43.5l-50 -62.5c-17.333 -21.667 -31.333 -44.167 -42 -67.5c-19.333 19.333 -39.166 37.666 -59.499 54.999s-42.166 31.666 -65.499 42.999
c34.667 38 62.334 80 83.001 126z" />
    <glyph glyph-name="uni06A5.medi" unicode="&#x6a5;" horiz-adv-x="624" 
d="M356 230c6 -0.666992 17.1689 1.50195 33.502 6.50195s29.5 9.83301 39.5 14.5c38 20 57 45.667 57 77c0 26.667 -10.333 51.167 -31 73.5s-43.334 33.5 -68.001 33.5c-32 0 -63.333 -11.667 -94 -35c-14 -10 -25.5 -21.667 -34.5 -35s-13.5 -25 -13.5 -35
c0 -16.667 13.667 -37.334 41 -62.001s50.666 -37.334 69.999 -38.001zM678.002 119.002v-87.002c0 -21.333 -20 -32 -60 -32c-42.667 0 -83 4.66699 -121 14c-28 7.33301 -51.167 14.333 -69.5 21s-46.166 19.334 -83.499 38.001c-26 12 -43.333 18 -52 18
c-8 0 -30.667 -8.66699 -68 -26l-39 -18c-30 -13.333 -61.5 -24.5 -94.5 -33.5s-59.833 -13.5 -80.5 -13.5c-42.667 0 -64 11 -64 33v87v3l1 4c4 11.333 15.667 17 35 17h19c16 0 38.5 1.66699 67.5 5s50.167 6.33301 63.5 9c35.333 8 53 18.333 53 31
c0 2.66699 -0.333008 6 -1 10l-5 22c-0.666992 6.66699 -1 15.334 -1 26.001c0 34 9.33301 70.833 28 110.5s46 80.834 82 123.501c30 35.333 63.5 66 100.5 92s65.833 39 86.5 39c22 0 41 -20 57 -60c6 -17.333 11.167 -38.5 15.5 -63.5s6.5 -47.833 6.5 -68.5
c0 -26.667 -3.33301 -53.834 -10 -81.501s-15.334 -50.5 -26.001 -68.5l-26 -42c-10 -18 -16 -28 -18 -30c-5.33301 -8 -8 -14.333 -8 -19c0 -8.66699 8.66699 -16 26 -22c10.667 -2.66699 32.5 -5.66699 65.5 -9s60.833 -5 83.5 -5c20 0 32 -5.66699 36 -17l1 -4v-3z
M343.002 -115c18.667 -18.667 38.8291 -36.1641 60.4961 -52.4971s44.834 -31.5 69.501 -45.5c-16 -19.333 -30.167 -38.5 -42.5 -57.5s-23.5 -38.833 -33.5 -59.5c-18 16 -36.333 31.167 -55 45.5s-37.667 26.833 -57 37.5c-13.333 -16 -26.166 -32.5 -38.499 -49.5
s-22.166 -34.833 -29.499 -53.5l-60.5 48c-20.333 16 -42.833 29.333 -67.5 40l43.5 58c14.333 20 26.833 40.667 37.5 62c14 -15.333 30.333 -29.833 49 -43.5s38.334 -25.834 59.001 -36.501c14 15.333 26.5 32.166 37.5 50.499s20.167 37.166 27.5 56.499z
M291.997 -314.997l64.4961 -50.498c21.667 -17 44.834 -31.5 69.501 -43.5l-50 -62.5c-17.333 -21.667 -31.333 -44.167 -42 -67.5c-19.333 19.333 -39.166 37.666 -59.499 54.999s-42.166 31.666 -65.499 42.999c34.667 38 62.334 80 83.001 126z" />
    <glyph glyph-name="uni06A5.fina" unicode="&#x6a5;" horiz-adv-x="1603" 
d="M1228 333c0 -19.333 12.002 -40.332 36.002 -62.999c11.333 -10 24.166 -19.167 38.499 -27.5s25.166 -12.5 32.499 -12.5c6 0 16.5 2.16699 31.5 6.5s26.833 8.5 35.5 12.5c42.667 21.333 64 47.666 64 78.999c0 22 -7.66699 43.667 -23 65c-19.333 28 -46 42 -80 42
c-26 0 -55.333 -11.333 -88 -34c-31.333 -22 -47 -44.667 -47 -68zM1657 119.001l0.00195312 -86.001c0 -22 -19.667 -33 -59 -33c-45.333 -0 -88.333 5.33301 -129 16s-85.334 28.334 -134.001 53.001c-34 16.667 -56 25 -66 25s-38 -9.66699 -84 -29
c-54.667 -22 -102.167 -38.167 -142.5 -48.5s-93.5 -19.833 -159.5 -28.5c-79.333 -10.667 -157.333 -16 -234 -16c-376 0 -564 98 -564 294c0 56.667 17 119.334 51 188.001c21.333 43.333 38.333 65 51 65c4.66699 0 7 -2.66699 7 -8s-1.33301 -12.333 -4 -21l-11 -28
c-12 -34.667 -18 -65 -18 -91c0 -74.667 49.667 -133.667 149 -177s233 -65 401 -65c45.333 0 105.166 2.33301 179.499 7s125.5 9 153.5 13l60 10c40 6 60 17.333 60 34c0 2 -1 7 -3 15c-2.66699 7.33301 -4 17.333 -4 30c0 78 39 161 117 249
c31.333 35.333 64 64.666 98 87.999s61 35 81 35c23.333 0 42.666 -19 57.999 -57c16 -42 24 -87.667 24 -137c0 -34 -5.33301 -66.5 -16 -97.5s-28 -64.167 -52 -99.5c-14.667 -22.667 -22 -35.334 -22 -38.001c0 -11.333 12.667 -19.666 38 -24.999
c26.667 -5.33301 55.334 -9 86.001 -11l34 -1h17c20 0 32 -5.66699 36 -17l1 -4v-4zM1345 -180c18.667 -18.667 38.8291 -36.1641 60.4961 -52.4971s44.834 -31.5 69.501 -45.5c-16 -19.333 -30.167 -38.5 -42.5 -57.5s-23.5 -38.833 -33.5 -59.5
c-18 16 -36.333 31.167 -55 45.5s-37.667 26.833 -57 37.5c-13.333 -16 -26.166 -32.5 -38.499 -49.5s-22.166 -34.833 -29.499 -53.5l-60.5 48c-20.333 16 -42.833 29.333 -67.5 40l43.5 58c14.333 20 26.833 40.667 37.5 62c14 -15.333 30.333 -29.833 49 -43.5
s38.334 -25.834 59.001 -36.501c14 15.333 26.5 32.166 37.5 50.499s20.167 37.166 27.5 56.499zM1294 -379.997l64.4961 -50.498c21.667 -17 44.834 -31.5 69.501 -43.5l-50 -62.5c-17.333 -21.667 -31.333 -44.167 -42 -67.5
c-19.333 19.333 -39.166 37.666 -59.499 54.999s-42.166 31.666 -65.499 42.999c34.667 38 62.334 80 83.001 126z" />
    <glyph glyph-name="uni06A7.fina" unicode="&#x6a7;" horiz-adv-x="1019" 
d="M845 134c-8.66699 68 -38.332 102 -88.999 102c-16 0 -29.667 -4.16699 -41 -12.5s-17 -18.833 -17 -31.5c0 -17.333 15.667 -32.333 47 -45c21.333 -8.66699 54.666 -13 99.999 -13zM856.002 0c-20 0 -44.333 1.33203 -73 3.99902s-49 5.66699 -61 9
c-62 16 -93 51 -93 105c0 53.333 24.667 112.333 74 177c34.667 46 66 69 94 69c29.333 0 54.5 -17.333 75.5 -52s40.833 -90.667 59.5 -168h86l20 -1c18.667 0 30.334 -5.66699 35.001 -17l1 -4c0.666992 -0.666992 1 -1.66699 1 -3v-87c0 -8 -3.66699 -15 -11 -21
c-6.66699 -4.66699 -14.334 -7.66699 -23.001 -9s-27 -2 -55 -2h-67c-12.667 -65.333 -32.334 -121 -59.001 -167s-64.334 -88 -113.001 -126c-48.667 -38.667 -105.834 -69.667 -171.501 -93s-128.5 -35 -188.5 -35c-117.333 0 -204 42.333 -260 127
c-34.667 51.333 -52 111 -52 179c0 77.333 19 150.666 57 219.999c14 26 28.333 48.333 43 67s25.334 28 32.001 28c5.33301 0 8 -3 8 -9c0 -3.33301 -1 -7.66602 -3 -12.999c-2 -2 -5.66699 -8.33301 -11 -19c-2.66699 -6 -6.66699 -14.333 -12 -25
c-37.333 -67.333 -56 -130.666 -56 -189.999c0 -31.333 5.83301 -59 17.5 -83s30.5 -46.667 56.5 -68c27.333 -22 59.5 -39.667 96.5 -53s73.5 -20 109.5 -20c34.667 0 76.334 6 125.001 18s97.334 28.333 146.001 49c54.667 23.333 97.667 48.333 129 75
c10.667 14.667 19 31.667 25 51s12 48.333 18 87zM697.002 691.999c43.333 -43.333 84 -75.668 122 -97.001c-17.333 -20.667 -31.166 -38.667 -41.499 -54s-23.5 -38.666 -39.5 -69.999c-36.667 31.333 -77.334 60 -122.001 86l-11 7c6.66699 7.33301 12 13 16 17l20 29
l20 28c14.667 20 26.667 38 36 54z" />
    <glyph glyph-name="uni06A8.fina" unicode="&#x6a8;" horiz-adv-x="1019" 
d="M845 134c-8.66699 68 -38.332 102 -88.999 102c-16 0 -29.667 -4.16699 -41 -12.5s-17 -18.833 -17 -31.5c0 -17.333 15.667 -32.333 47 -45c21.333 -8.66699 54.666 -13 99.999 -13zM856.002 0c-20 0 -44.333 1.33203 -73 3.99902s-49 5.66699 -61 9
c-62 16 -93 51 -93 105c0 53.333 24.667 112.333 74 177c34.667 46 66 69 94 69c29.333 0 54.5 -17.333 75.5 -52s40.833 -90.667 59.5 -168h86l20 -1c18.667 0 30.334 -5.66699 35.001 -17l1 -4c0.666992 -0.666992 1 -1.66699 1 -3v-87c0 -8 -3.66699 -15 -11 -21
c-6.66699 -4.66699 -14.334 -7.66699 -23.001 -9s-27 -2 -55 -2h-67c-12.667 -65.333 -32.334 -121 -59.001 -167s-64.334 -88 -113.001 -126c-48.667 -38.667 -105.834 -69.667 -171.501 -93s-128.5 -35 -188.5 -35c-117.333 0 -204 42.333 -260 127
c-34.667 51.333 -52 111 -52 179c0 77.333 19 150.666 57 219.999c14 26 28.333 48.333 43 67s25.334 28 32.001 28c5.33301 0 8 -3 8 -9c0 -3.33301 -1 -7.66602 -3 -12.999c-2 -2 -5.66699 -8.33301 -11 -19c-2.66699 -6 -6.66699 -14.333 -12 -25
c-37.333 -67.333 -56 -130.666 -56 -189.999c0 -31.333 5.83301 -59 17.5 -83s30.5 -46.667 56.5 -68c27.333 -22 59.5 -39.667 96.5 -53s73.5 -20 109.5 -20c34.667 0 76.334 6 125.001 18s97.334 28.333 146.001 49c54.667 23.333 97.667 48.333 129 75
c10.667 14.667 19 31.667 25 51s12 48.333 18 87zM576.002 713.999c37.333 -30.667 69.334 -54.333 96.001 -71l17 -10c26 33.333 47 64.333 63 93l5 7c6 -4 9.66699 -6.66699 11 -8l19 -15c18.667 -15.333 38.667 -29.333 60 -42l21 -12c2 -1.33301 7 -4.33301 15 -9
c-29.333 -30.667 -56.333 -70.334 -81 -119.001c-34 32.667 -70.333 59.334 -109 80.001c-20 -24 -41.333 -59.667 -64 -107c-22.667 24 -55.334 50 -98.001 78l-22 15c-1.33301 0.666992 -5 3 -11 7c32.667 40 58.667 77.667 78 113zM637.003 921l9.99902 -9
c38.667 -38 76.334 -67 113.001 -87c-17.333 -20 -31 -37.833 -41 -53.5s-23.333 -39.5 -40 -71.5c-37.333 32 -78 60.667 -122 86l-11 6l13 18c38 48.667 64 85.667 78 111z" />
    <glyph glyph-name="uni06AA.init" unicode="&#x6aa;" horiz-adv-x="1558" 
d="M-14 144c252 -0.666992 497.17 8.83301 735.503 28.5s461.166 44.5 668.499 74.5c0 6 0.166992 13.5 0.5 22.5s-0.166992 16.167 -1.5 21.5c-4 26.667 -9.33301 51.167 -16 73.5s-17.667 41.5 -33 57.5s-36.166 28.167 -62.499 36.5s-60.833 11.5 -103.5 9.5
c-26 0 -59 -1.16699 -99 -3.5s-84.667 -5.16602 -134 -8.49902s-101.5 -6.66602 -156.5 -9.99902s-110.833 -6 -167.5 -8s-112.334 -3.16699 -167.001 -3.5s-106 1.16699 -154 4.5c-38 2.66699 -69.833 6.33398 -95.5 11.001s-46.5 10.5 -62.5 17.5s-27.667 15.167 -35 24.5
s-11.333 20.333 -12 33c0.666992 34 11.167 68.5 31.5 103.5s47.166 69.833 80.499 104.5s71.333 68.5 114 101.5s86.834 64.333 132.501 94s91.167 57.167 136.5 82.5s87 47.666 125 66.999s71 35.166 99 47.499s47.333 20.166 58 23.499s17.5 5.16602 20.5 5.49902
s3.33301 -3.5 1 -11.5s-6.83301 -21.5 -13.5 -40.5s-14 -46.5 -22 -82.5l-176 -80.5l-160.5 -80c-50.333 -26.333 -96.5 -52 -138.5 -77s-78.167 -48 -108.5 -69s-54 -40.167 -71 -57.5s-25.833 -31.333 -26.5 -42c4 -16 18.833 -28.5 44.5 -37.5s59 -15.5 100 -19.5
s87.833 -5.66699 140.5 -5s108 2.33398 166 5.00098s116.833 6.16699 176.5 10.5l172 12c55 3.66699 105.833 6.66699 152.5 9s86 3.16602 118 2.49902c54.667 -4.66699 100 -19 136 -43s62.667 -53.667 80 -89s25.5 -74.333 24.5 -117s-11.5 -85 -31.5 -127l-58 -94
c-468 -69.333 -939 -109.666 -1413 -120.999l-20 41c-5.33301 11.333 -8.33301 22 -9 32s1.16602 20.333 5.49902 31s12.166 24 23.499 40h5v0z" />
    <glyph glyph-name="uni06AA.medi" unicode="&#x6aa;" horiz-adv-x="1754" 
d="M-2 144c252 -0.666992 497.168 8.83203 735.501 28.499s461.166 44.5 668.499 74.5c0 6 0.166992 13.5 0.5 22.5s-0.166992 16.167 -1.5 21.5c-4 26.667 -9.33301 51.167 -16 73.5s-17.667 41.5 -33 57.5s-36.166 28.167 -62.499 36.5s-60.833 11.5 -103.5 9.5
c-26 0 -59.167 -1.16699 -99.5 -3.5s-85 -5.16602 -134 -8.49902s-101.167 -6.66602 -156.5 -9.99902s-111.166 -6 -167.499 -8s-111.833 -3.16699 -166.5 -3.5s-106 1.16699 -154 4.5c-38 2.66699 -69.833 6.33398 -95.5 11.001s-46.5 10.5 -62.5 17.5
s-27.667 15.167 -35 24.5s-11.333 20.333 -12 33c0.666992 34 11.167 68.5 31.5 103.5s47 69.833 80 104.5s71 68.5 114 101.5s87.333 64.333 133 94s91 57.167 136 82.5s86.667 47.666 125 66.999s71.5 35.166 99.5 47.499s47.333 20.166 58 23.499
s17.5 5.16602 20.5 5.49902s3.33301 -3.5 1 -11.5s-6.83301 -21.5 -13.5 -40.5s-14 -46.5 -22 -82.5l-176 -80.5l-160.5 -80c-50.333 -26.333 -96.5 -52 -138.5 -77s-78.167 -48 -108.5 -69s-54 -40.167 -71 -57.5s-25.833 -31.333 -26.5 -42c4 -16 18.833 -28.5 44.5 -37.5
s59 -15.5 100 -19.5s87.833 -5.66699 140.5 -5s108 2.33398 166 5.00098s116.833 6.16699 176.5 10.5l172 12c55 3.66699 105.833 6.66699 152.5 9s86 3.16602 118 2.49902c54.667 -4.66699 100 -19 136 -43s62.667 -53.667 80 -89s25.5 -74.333 24.5 -117
s-11.5 -85 -31.5 -127c-4.66699 -26 6 -44.667 32 -56s78.667 -16.333 158 -15h117c6.66699 -16 11.834 -29.5 15.501 -40.5s5.5 -21.5 5.5 -31.5s-1.83301 -20.5 -5.5 -31.5s-8.83398 -24.5 -15.501 -40.5h-103c-76 -1.33301 -132.5 1 -169.5 7s-64.667 16.833 -83 32.5
s-25.5 42.834 -21.5 81.501c-460 -69.333 -927 -109.666 -1401 -120.999l-20 41c-5.33301 11.333 -8.33301 22 -9 32s1.16602 20.333 5.49902 31s12.166 24 23.499 40h5v0z" />
    <glyph glyph-name="uni06AA.fina" unicode="&#x6aa;" horiz-adv-x="2288" 
d="M1920 115c-401.333 -57.333 -713.665 -91.833 -936.998 -103.5s-366 -17.5 -428 -17.5c-80.667 -2.66699 -146.667 -1.16699 -198 4.5s-96.333 15.5 -135 29.5c-60.667 21.333 -105.667 50 -135 86s-44 81.333 -44 136c0 64 16.667 124.667 50 182
c24 41.333 43.667 62 59 62c7.33301 0 11 -3.33301 11 -10c0 -4 -2 -8.33301 -6 -13l-13 -19c-17.333 -28.667 -26 -56.334 -26 -83.001c0 -33.333 10.167 -64.666 30.5 -93.999s51.833 -54.333 94.5 -75c44 -21.333 92.667 -36.333 146 -45c46 -7.33301 110 -11 192 -11
c37.333 0 114.166 1.66699 230.499 5s279.666 13 489.999 29s419.166 39 626.499 69c0 6 0.166992 13.5 0.5 22.5s-0.166992 16.167 -1.5 21.5c-3.33301 26.667 -8.5 51.167 -15.5 73.5s-18.167 41.5 -33.5 57.5s-36.166 28.167 -62.499 36.5s-60.833 11.5 -103.5 9.5
c-26 0 -59 -1.16699 -99 -3.5s-84.667 -5.16602 -134 -8.49902s-101.5 -6.66602 -156.5 -9.99902s-110.833 -6 -167.5 -8s-112.334 -3.16699 -167.001 -3.5s-106 1.16699 -154 4.5c-37.333 2.66699 -69 6.33398 -95 11.001s-47 10.5 -63 17.5s-27.667 15.167 -35 24.5
s-11.333 20.333 -12 33c0.666992 34 11.167 68.5 31.5 103.5s47.166 69.833 80.499 104.5s71.333 68.5 114 101.5s86.834 64.333 132.501 94s91.167 57.167 136.5 82.5s87.166 47.666 125.499 66.999s71.333 35.166 99 47.499s47.167 20.166 58.5 23.499
c10.667 3.33301 17.334 5.16602 20.001 5.49902s2.83398 -3.5 0.500977 -11.5s-6.83301 -21.5 -13.5 -40.5s-14 -46.5 -22 -82.5l-175.5 -80.5c-57 -27 -110.667 -53.667 -161 -80s-96.5 -52 -138.5 -77s-78.167 -48 -108.5 -69s-54 -40.167 -71 -57.5
s-25.833 -31.333 -26.5 -42c4 -16 18.833 -28.5 44.5 -37.5s59 -15.5 100 -19.5s87.833 -5.66699 140.5 -5s108 2.33398 166 5.00098s116.833 6.16699 176.5 10.5l172 12c55 3.66699 105.833 6.66699 152.5 9s86 3.16602 118 2.49902c54.667 -4.66699 100 -19 136 -43
s62.667 -53.667 80 -89s25.5 -74.333 24.5 -117s-11.5 -85 -31.5 -127c-4 -26 7 -44.667 33 -56s78.333 -16.333 157 -15h117c6.66699 -16 11.834 -29.5 15.5 -40.5c3.66699 -11 5.5 -21.5 5.5 -31.5s-1.83301 -20.5 -5.5 -31.5s-8.83398 -24.5 -15.5 -40.5h-103
c-76 -1.33301 -132.333 1 -169 7s-64.167 16.833 -82.5 32.5s-25.833 40.834 -22.5 75.501z" />
    <glyph glyph-name="uni06AB.init" unicode="&#x6ab;" horiz-adv-x="727" 
d="M457 861c0 31.333 10.665 60.333 31.998 87c22.667 27.333 46.334 41 71.001 41c36.667 0 66 -15.333 88 -46c22 -34 33 -73.667 33 -119c0 -34.667 -8 -60.667 -24 -78c-18 -18 -41.667 -27 -71 -27c-19.333 0 -38.166 5.83301 -56.499 17.5s-29.5 20.5 -33.5 26.5
c-26 29.333 -39 62 -39 98zM495.998 839c91.333 -41.333 143 -35.333 155 18c0 15.333 -4.33301 29.333 -13 42c-11.333 9.33301 -24 14 -38 14c-14.667 0 -33.667 -7.66699 -57 -23c-31.333 -20.667 -47 -37.667 -47 -51zM-54.002 108c0 14 3.5 23.6641 10.5 28.9971
s16.5 8 28.5 8h190c62 0 113.167 4.5 153.5 13.5s72.5 19.333 96.5 31s40.667 23 50 34s14 18.833 14 23.5c0 8 -7.66699 23 -23 45s-36.5 46.5 -63.5 73.5s-59.667 54.333 -98 82s-80.5 51.834 -126.5 72.501c-22.667 10 -40.334 20.167 -53.001 30.5s-22 21.833 -28 34.5
s-9.5 27.167 -10.5 43.5s-1.5 35.166 -1.5 56.499c0 22.667 1.16699 41.334 3.5 56.001s7.33301 27.5 15 38.5s18.167 21.667 31.5 32s31.333 22.5 54 36.5c28.667 18.667 63.167 39 103.5 61s86.5 45 138.5 69s109.333 48.5 172 73.5s131.334 49.5 206.001 73.5l-81 -149
c-50.667 -15.333 -100.334 -31.5 -149.001 -48.5s-95 -34.333 -139 -52s-84.667 -34.834 -122 -51.501s-69.5 -32.5 -96.5 -47.5s-48.167 -28 -63.5 -39s-23 -19.5 -23 -25.5c0 -15.333 5 -27.666 15 -36.999s29 -19 57 -29c21.333 -8 44.666 -18.5 69.999 -31.5
s50.333 -28.333 75 -46s48.334 -37.667 71.001 -60s42.834 -47 60.501 -74s31.667 -56.167 42 -87.5s15.5 -64.666 15.5 -99.999c0 -52 -10.667 -93.833 -32 -125.5s-49.5 -56.667 -84.5 -75s-74.5 -30.666 -118.5 -36.999s-88.333 -9.5 -133 -9.5h-173
c-12 -0 -24 2.83301 -36 8.5s-18 15.5 -18 29.5v70z" />
    <glyph glyph-name="uni06AB.medi" unicode="&#x6ab;" horiz-adv-x="938" 
d="M519 914c0 30.667 10.333 59.332 31 85.999c23.333 27.333 47.333 41 72 41c36 0 65 -15.333 87 -46c22 -33.333 33 -72.666 33 -117.999c0 -35.333 -7.66699 -61.333 -23 -78c-18 -18.667 -41.667 -28 -71 -28c-20 0 -39 6 -57 18s-29 20.667 -33 26
c-26 29.333 -39 62.333 -39 99zM558 890.998c91.333 -40.667 143.001 -34.667 155.001 18c0 15.333 -4.66699 29.333 -14 42c-10.667 9.33301 -23.334 14 -38.001 14s-33.667 -7.66699 -57 -23c-30.667 -20 -46 -37 -46 -51zM511.001 331.998
c-6 -47.333 -11.8359 -83.167 -17.5029 -107.5s-14.167 -48.833 -25.5 -73.5c-14.667 -34 -34.5 -61 -59.5 -81s-58.167 -35.333 -99.5 -46c-22 -6 -50.833 -11.167 -86.5 -15.5s-66.834 -6.5 -93.501 -6.5l-68 -1h-61c-17.333 0 -30.666 2.66699 -39.999 8
s-14 13.333 -14 24v90l1 4c4 11.333 15.667 17 35 17h19l87 3c40 0 84 3 132 9s85.667 13 113 21c74 22.667 111 59.334 111 110.001c0 31.333 -9.83301 57.5 -29.5 78.5s-56.167 43.5 -109.5 67.5l-72 33c-58 27.333 -98 62 -120 104c-19.333 38 -29 75.333 -29 112
c0 38 14 74.167 42 108.5s74.667 71.833 140 112.5c99.333 63.333 228 127.666 386 192.999l88 37l93 37c40.667 16 73 29.333 97 40l-91 -180l-17 -4c-93.333 -24 -227.666 -76.667 -402.999 -158c-84 -38 -152.333 -74.5 -205 -109.5s-79 -61.167 -79 -78.5
c0 -13.333 21.667 -29.333 65 -48l64 -28c79.333 -34 147 -69.667 203 -107c74 -48 154.667 -111.333 242 -190l64 -57l49 -45c30.667 -27.333 53.5 -44.5 68.5 -51.5s37.167 -10.5 66.5 -10.5c18.667 0 30.334 -5.66699 35.001 -17l1 -4v-90c0 -21.333 -20 -32 -60 -32
c-20.667 0 -39.667 3.66699 -57 11c-35.333 16 -69.833 38 -103.5 66s-78.5 71.333 -134.5 130c-47.333 50 -85.666 88 -114.999 114z" />
    <glyph glyph-name="uni06AB.fina" unicode="&#x6ab;" horiz-adv-x="1607" 
d="M1199 926c0 31.333 10.332 60.3311 30.999 86.998c23.333 27.333 47.333 41 72 41c36 0 65 -15.333 87 -46c22 -33.333 33 -72.666 33 -117.999c0 -35.333 -8 -61.666 -24 -78.999c-17.333 -18 -40.666 -27 -69.999 -27c-20 0 -39 6 -57 18s-29.333 20.667 -34 26
c-25.333 29.333 -38 62 -38 98zM1237 903.998c91.333 -40.667 143.334 -34.667 156.001 18c0 15.333 -4.66699 29.333 -14 42c-10.667 9.33301 -23.334 14 -38.001 14s-33.667 -7.66699 -57 -23c-31.333 -20 -47 -37 -47 -51zM1662 37.998
c0 -14 -5.99414 -23.832 -17.9941 -29.499s-24.333 -8.5 -37 -8.5c-16 0 -32.833 3.16699 -50.5 9.5s-35.834 15.166 -54.501 26.499s-37.5 24.666 -56.5 39.999s-38 32 -57 50s-37.667 36.833 -56 56.5l-54 57l-51.5 52.5c-16.667 16.667 -33 31.334 -49 44.001
c-7.33301 -60.667 -16.5 -109.334 -27.5 -146.001s-25.667 -66 -44 -88s-41.333 -39.167 -69 -51.5s-61.167 -24.166 -100.5 -35.499c-26 -6.66699 -55.333 -12.667 -88 -18s-65.834 -9.66602 -99.501 -12.999s-66.667 -6 -99 -8s-61.5 -3 -87.5 -3
c-28.667 0 -60.5 1.83301 -95.5 5.5s-70.167 9.83398 -105.5 18.501s-69.666 20.167 -102.999 34.5s-62.833 32.333 -88.5 54s-46.334 47.167 -62.001 76.5s-23.5 63.333 -23.5 102c0 31.333 4.16699 62.5 12.5 93.5s18.166 58.667 29.499 83s22.666 44 33.999 59
s19.333 22.5 24 22.5c7.33301 0 10.166 -3.83301 8.49902 -11.5s-5 -18.334 -10 -32.001s-10.167 -29.667 -15.5 -48s-8 -38.166 -8 -59.499c0 -32 6.16699 -60.333 18.5 -85s29.166 -45.834 50.499 -63.501s46.333 -32.5 75 -44.5s59.334 -21.5 92.001 -28.5
s66.5 -12 101.5 -15s69.5 -4.5 103.5 -4.5c82.667 0 155.834 4.16699 219.501 12.5s117 19.5 160 33.5s75.5 30.167 97.5 48.5s33 37.5 33 57.5c0 19.333 -2.5 36.333 -7.5 51s-15.167 29 -30.5 43s-37.333 28.5 -66 43.5s-66 32.167 -112 51.5
c-29.333 12.667 -53.5 28.167 -72.5 46.5s-34 37.5 -45 57.5s-18.667 40.667 -23 62s-6.5 41.333 -6.5 60c0 32 14.167 64.5 42.5 97.5s65.666 65.333 111.999 97s99.166 62.834 158.499 93.501s120.5 60 183.5 88l186 79l165.5 67l-89 -179
c-22.667 -6 -50.334 -14.333 -83.001 -25s-67.667 -23.334 -105 -38.001s-76 -30.667 -116 -48s-79.333 -35.333 -118 -54l-110 -55.5c-34.667 -18.333 -65 -35.833 -91 -52.5s-46.667 -32 -62 -46s-23 -26 -23 -36c0 -5.33301 3.33301 -10.833 10 -16.5
s15.667 -11.667 27 -18s24.333 -12.666 39 -18.999s30 -12.5 46 -18.5c54.667 -22.667 106.834 -48.834 156.501 -78.501s98.667 -62.334 147 -98.001s96.833 -75 145.5 -118l153 -139.5c8.66699 -9.33301 21.667 -17.333 39 -24s37.333 -10 60 -10
c12 0 21.667 -2.66699 29 -8s11 -15 11 -29v-70z" />
    <glyph glyph-name="uni06AE.init" unicode="&#x6ae;" horiz-adv-x="727" 
d="M-54 108c0 14 3.5 23.6641 10.5 28.9971s16.5 8 28.5 8h190c62 0 113.167 4.5 153.5 13.5s72.5 19.333 96.5 31s40.667 23 50 34s14 18.833 14 23.5c0 8 -7.66699 23 -23 45s-36.5 46.5 -63.5 73.5s-59.667 54.333 -98 82s-80.5 51.834 -126.5 72.501
c-22.667 10 -40.334 20.167 -53.001 30.5s-22 21.833 -28 34.5s-9.5 27.167 -10.5 43.5s-1.5 35.166 -1.5 56.499c0 22.667 1.16699 41.334 3.5 56.001s7.33301 27.5 15 38.5s18.167 21.667 31.5 32s31.333 22.5 54 36.5c28.667 18.667 63.167 39 103.5 61s86.5 45 138.5 69
s109.333 48.5 172 73.5s131.334 49.5 206.001 73.5l-81 -149c-50.667 -15.333 -100.334 -31.5 -149.001 -48.5s-95 -34.333 -139 -52s-84.667 -34.834 -122 -51.501s-69.5 -32.5 -96.5 -47.5s-48.167 -28 -63.5 -39s-23 -19.5 -23 -25.5c0 -15.333 5 -27.666 15 -36.999
s29 -19 57 -29c21.333 -8 44.666 -18.5 69.999 -31.5s50.333 -28.333 75 -46s48.334 -37.667 71.001 -60s42.834 -47 60.501 -74s31.667 -56.167 42 -87.5s15.5 -64.666 15.5 -99.999c0 -52 -10.667 -93.833 -32 -125.5s-49.5 -56.667 -84.5 -75
s-74.5 -30.666 -118.5 -36.999s-88.333 -9.5 -133 -9.5h-173c-12 -0 -24 2.83301 -36 8.5s-18 15.5 -18 29.5v70zM341 -152.003c18.667 -18.667 38.8291 -36.1641 60.4961 -52.4971s44.834 -31.5 69.501 -45.5c-16 -19.333 -30.167 -38.5 -42.5 -57.5
s-23.5 -38.833 -33.5 -59.5c-18 16 -36.333 31.167 -55 45.5s-37.667 26.833 -57 37.5c-13.333 -16 -26.166 -32.5 -38.499 -49.5s-22.166 -34.833 -29.499 -53.5l-60.5 48c-20.333 16 -42.833 29.333 -67.5 40l43.5 58c14.333 20 26.833 40.667 37.5 62
c14 -15.333 30.333 -29.833 49 -43.5s38.334 -25.834 59.001 -36.501c14 15.333 26.5 32.166 37.5 50.499s20.167 37.166 27.5 56.499zM289.995 -352l64.4961 -50.498c21.667 -17 44.834 -31.5 69.501 -43.5l-50 -62.5c-17.333 -21.667 -31.333 -44.167 -42 -67.5
c-19.333 19.333 -39.166 37.666 -59.499 54.999s-42.166 31.666 -65.499 42.999c34.667 38 62.334 80 83.001 126z" />
    <glyph glyph-name="uni06AE.medi" unicode="&#x6ae;" horiz-adv-x="938" 
d="M511 332c-6 -47.333 -11.8359 -83.167 -17.5029 -107.5s-14.167 -48.833 -25.5 -73.5c-14.667 -34 -34.5 -61 -59.5 -81s-58.167 -35.333 -99.5 -46c-22 -6 -50.833 -11.167 -86.5 -15.5s-66.834 -6.5 -93.501 -6.5l-68 -1h-61c-17.333 0 -30.666 2.66699 -39.999 8
s-14 13.333 -14 24v90l1 4c4 11.333 15.667 17 35 17h19l87 3c40 0 84 3 132 9s85.667 13 113 21c74 22.667 111 59.334 111 110.001c0 31.333 -9.83301 57.5 -29.5 78.5s-56.167 43.5 -109.5 67.5l-72 33c-58 27.333 -98 62 -120 104c-19.333 38 -29 75.333 -29 112
c0 38 14 74.167 42 108.5s74.667 71.833 140 112.5c99.333 63.333 228 127.666 386 192.999l88 37l93 37c40.667 16 73 29.333 97 40l-91 -180l-17 -4c-93.333 -24 -227.666 -76.667 -402.999 -158c-84 -38 -152.333 -74.5 -205 -109.5s-79 -61.167 -79 -78.5
c0 -13.333 21.667 -29.333 65 -48l64 -28c79.333 -34 147 -69.667 203 -107c74 -48 154.667 -111.333 242 -190l64 -57l49 -45c30.667 -27.333 53.5 -44.5 68.5 -51.5s37.167 -10.5 66.5 -10.5c18.667 0 30.334 -5.66699 35.001 -17l1 -4v-90c0 -21.333 -20 -32 -60 -32
c-20.667 0 -39.667 3.66699 -57 11c-35.333 16 -69.833 38 -103.5 66s-78.5 71.333 -134.5 130c-47.333 50 -85.666 88 -114.999 114zM498.997 -106.001c18.667 -18.667 38.8291 -36.1641 60.4961 -52.4971s44.834 -31.5 69.501 -45.5
c-16 -19.333 -30.167 -38.5 -42.5 -57.5s-23.5 -38.833 -33.5 -59.5c-18 16 -36.333 31.167 -55 45.5s-37.667 26.833 -57 37.5c-13.333 -16 -26.166 -32.5 -38.499 -49.5s-22.166 -34.833 -29.499 -53.5l-60.5 48c-20.333 16 -42.833 29.333 -67.5 40l43.5 58
c14.333 20 26.833 40.667 37.5 62c14 -15.333 30.333 -29.833 49 -43.5s38.334 -25.834 59.001 -36.501c14 15.333 26.5 32.166 37.5 50.499s20.167 37.166 27.5 56.499zM447.992 -305.998l64.4961 -50.498c21.667 -17 44.834 -31.5 69.501 -43.5l-50 -62.5
c-17.333 -21.667 -31.333 -44.167 -42 -67.5c-19.333 19.333 -39.166 37.666 -59.499 54.999s-42.166 31.666 -65.499 42.999c34.667 38 62.334 80 83.001 126z" />
    <glyph glyph-name="uni06AE.fina" unicode="&#x6ae;" horiz-adv-x="1472" 
d="M1254 216l-22.998 -2.00098c-19.333 -50.667 -35.666 -87.667 -48.999 -111c-17.333 -29.333 -35.166 -52 -53.499 -68s-39.833 -27.667 -64.5 -35c-41.333 -12 -106 -21.667 -194 -29s-188.333 -11 -301 -11c-150.667 0 -265.334 18.667 -344.001 56
c-93.333 43.333 -140 113 -140 209c0 29.333 4.5 59.833 13.5 91.5s21.5 61.167 37.5 88.5c23.333 40.667 43 61 59 61c6.66699 0 10 -3.33301 10 -10c0 -4.66699 -3.66699 -12.334 -11 -23.001c-23.333 -32 -35 -61.667 -35 -89c0 -72 47.667 -130 143 -174
c76 -34 180.333 -51 313 -51h57c112.667 0 203 3.33301 271 10s119.667 17.334 155 32.001c40 17.333 69 41 87 71s27 70.333 27 121l-1 44l-3 58l-6 115l-5 99l-6 105l-3 109c0 11.333 -1.66699 41 -5 89c-2.66699 40 -4 62.333 -4 67l85 109l1 -41l2 -64
c0 -16.667 1.66699 -61.5 5 -134.5s6.66602 -134.833 9.99902 -185.5c8 -132 15.667 -226.667 23 -284c10 -87.333 20.667 -150.666 32 -189.999s26.666 -66.666 45.999 -81.999c10.667 -8.66699 24.167 -14.834 40.5 -18.501s38.166 -5.5 65.499 -5.5
c20 0 32 -5.66699 36 -17l1 -4v-3v-87c0 -10 -4.5 -17.667 -13.5 -23s-21.833 -8 -38.5 -8c-34.667 0 -63 3 -85 9s-42.333 16.667 -61 32c-16.667 14 -30.5 33 -41.5 57s-20.833 57.667 -29.5 101zM820.002 955.999l11.999 -100.999
c-34.667 -8.66699 -61.834 -19.167 -81.501 -31.5s-29.5 -24.833 -29.5 -37.5c0 -8 3.66699 -14.333 11 -19s24 -11.334 50 -20.001c37.333 -12 63.666 -23.833 78.999 -35.5s23 -26.167 23 -43.5c0 -19.333 -6.5 -42.333 -19.5 -69s-30.167 -51 -51.5 -73
c-34 -36.667 -69.333 -55 -106 -55c-16 0 -39.167 5.16699 -69.5 15.5s-60.166 23.833 -89.499 40.5l3 23c10 -0.666992 15.667 -1 17 -1l18 -1h17l8 -1c18 0 40 1.66699 66 5s45 6.66602 57 9.99902c14 4.66699 26.167 10.834 36.5 18.501s15.5 15.5 15.5 23.5v2
c-2 5.33301 -9.33301 9 -22 11c-5.33301 1.33301 -14.666 4 -27.999 8l-28 8c-59.333 18 -89 40.333 -89 67c0 18 9 45 27 81s37.333 66.333 58 91c32.667 38.667 71.334 66.667 116.001 84zM712.001 -185c18.667 -18.667 38.8291 -36.1641 60.4961 -52.4971
s44.834 -31.5 69.501 -45.5c-16 -19.333 -30.167 -38.5 -42.5 -57.5s-23.5 -38.833 -33.5 -59.5c-18 16 -36.333 31.167 -55 45.5s-37.667 26.833 -57 37.5c-13.333 -16 -26.166 -32.5 -38.499 -49.5s-22.166 -34.833 -29.499 -53.5l-60.5 48
c-20.333 16 -42.833 29.333 -67.5 40l43.5 58c14.333 20 26.833 40.667 37.5 62c14 -15.333 30.333 -29.833 49 -43.5s38.334 -25.834 59.001 -36.501c14 15.333 26.5 32.166 37.5 50.499s20.167 37.166 27.5 56.499zM660.996 -384.997l64.4961 -50.498
c21.667 -17 44.834 -31.5 69.501 -43.5l-50 -62.5c-17.333 -21.667 -31.333 -44.167 -42 -67.5c-19.333 19.333 -39.166 37.666 -59.499 54.999s-42.166 31.666 -65.499 42.999c34.667 38 62.334 80 83.001 126z" />
    <glyph glyph-name="uni06B0.init" unicode="&#x6b0;" horiz-adv-x="722" 
d="M426 833c0 31.333 10.333 59.999 31 85.999c23.333 27.333 47.333 41 72 41c36 0 65 -15.333 87 -46c22.667 -33.333 34 -72.666 34 -117.999c0 -35.333 -8 -61.333 -24 -78c-18 -18.667 -41.667 -28 -71 -28c-20 0 -39 6 -57 18s-29 20.667 -33 26
c-26 29.333 -39 62.333 -39 99zM465 810.999c91.333 -41.333 143 -35.667 155 17c0 15.333 -4.66699 29.333 -14 42c-10.667 9.33301 -23 14 -37 14c-15.333 0 -34.333 -7.66699 -57 -23c-31.333 -20 -47 -36.667 -47 -50zM107 936.998
c24.667 19.333 54.1689 39.833 88.502 61.5s71.166 43.667 110.499 66l121.5 66c41.667 21.667 82.5 41.667 122.5 60s78.167 34.333 114.5 48s69.166 24.167 98.499 31.5l-38 -91c-22 -6 -48.167 -14.833 -78.5 -26.5s-63.333 -25.5 -99 -41.5s-73 -33.667 -112 -53
s-78.167 -39.833 -117.5 -61.5l-116 -66.5c-38 -22.667 -73.333 -45 -106 -67zM121.002 712.998c14.667 -30 36.3301 -51 64.9971 -63c60 -25.333 103.667 -46.666 131 -63.999c53.333 -32.667 99 -72.667 137 -120c54.667 -68 82 -141.667 82 -221
c0 -30 -4.5 -58.833 -13.5 -86.5s-21.5 -49.834 -37.5 -66.501c-26.667 -28.667 -65 -51.167 -115 -67.5s-106.333 -24.5 -169 -24.5l-80 1l-121 -1c-17.333 0 -30.666 2.83301 -39.999 8.5s-14 13.5 -14 23.5v90l1 4c4 11.333 15.667 17 35 17l19 1h32l80 -1
c68 0 118.833 1.33301 152.5 4s64.834 7.66699 93.501 15c33.333 10 62.833 23.167 88.5 39.5s38.5 30.833 38.5 43.5c0 6.66699 -6.5 19.667 -19.5 39s-27.833 38 -44.5 56c-28 31.333 -62.167 62 -102.5 92s-79.5 54 -117.5 72l-55 26
c-27.333 12.667 -47 30.334 -59 53.001s-18 53.334 -18 92.001c0 29.333 1.83301 52.166 5.5 68.499s10.167 29.833 19.5 40.5c23.333 26 87.333 64 192 114l61 28c40 19.333 106.333 46.666 199 81.999c66 26 124.333 46.333 175 61l-75 -146l-29 -9
c-29.333 -10.667 -47.333 -17 -54 -19l-57 -19c-5.33301 -2 -24.333 -8.66699 -57 -20l-73 -26c-109.333 -39.333 -194.666 -78.333 -255.999 -117z" />
    <glyph glyph-name="uni06B0.medi" unicode="&#x6b0;" horiz-adv-x="942" 
d="M563 932c0 31.333 10.333 60 31 86c23.333 28 47.333 42 72 42c36 0 65 -15.333 87 -46c22.667 -34 34 -73.667 34 -119c0 -34.667 -8 -60.667 -24 -78c-18 -18.667 -41.667 -28 -71 -28c-20 0 -39 6 -57 18s-29 21 -33 27c-26 29.333 -39 62 -39 98zM602 910
c91.333 -41.333 143 -35.666 155 17.001c0 15.333 -4.66699 29.666 -14 42.999c-10.667 8.66699 -23 13 -37 13c-14.667 0 -33.667 -7.66699 -57 -23c-31.333 -20 -47 -36.667 -47 -50zM861 1052l-112.998 -43.9971l-130 -52.5l-134 -57.5l-125.5 -58
c-39 -18.667 -73.667 -36.334 -104 -53.001s-53.5 -31.667 -69.5 -45c-4 -2 -7.83301 -5.33301 -11.5 -10s-7 -9.5 -10 -14.5s-5.5 -9.83301 -7.5 -14.5s-3 -8.33398 -3 -11.001c0 -2 0.666992 -5 2 -9s5.5 -9.16699 12.5 -15.5s17.5 -14 31.5 -23s33.333 -19.5 58 -31.5
c54.667 -22.667 106.667 -48.834 156 -78.501s98.166 -62.334 146.499 -98.001s96.833 -75 145.5 -118l152 -139.5c9.33301 -9.33301 22.666 -17.333 39.999 -24s37.333 -10 60 -10c12 0 21.5 -2.66699 28.5 -8s10.5 -15 10.5 -29v-70c0 -14 -6 -23.833 -18 -29.5
s-24 -8.5 -36 -8.5c-16 0 -32.833 3.16699 -50.5 9.5s-35.834 15.166 -54.501 26.499s-37.5 24.666 -56.5 39.999s-38.167 32 -57.5 50l-55 56.5l-54 57l-52 52.5c-17.333 16.667 -34 31.334 -50 44.001c-5.33301 -51.333 -12.833 -95.166 -22.5 -131.499s-23 -67 -40 -92
s-38 -44.833 -63 -59.5s-55.667 -26 -92 -34s-78.666 -13.167 -126.999 -15.5s-104.166 -3.5 -167.499 -3.5c-12 0 -24 2.83301 -36 8.5s-18 15.5 -18 29.5v70c0 14 3.5 23.667 10.5 29s16.5 8 28.5 8c82 0 152 3.16699 210 9.5s105.667 15.333 143 27s64.666 26 81.999 43
s26 36.167 26 57.5c0 16 -2 31.167 -6 45.5s-14 29.333 -30 45s-39.667 33.167 -71 52.5s-74.666 41.666 -129.999 66.999c-34 16 -60.333 40.667 -79 74s-28 75.333 -28 126c0 16.667 0.666992 31 2 43s4 23.167 8 33.5s9.66699 19.833 17 28.5s17 17.334 29 26.001
c27.333 21.333 62.166 44 104.499 68s88.5 48.667 138.5 74s101.333 50 154 74l151 66c48 20 91.667 37.333 131 52s70 25.334 92 32.001zM169.002 991.003c25.333 18.667 57.002 40 95.002 64s79.5 48.833 124.5 74.5l141.5 77l146.5 73
c48.333 23 94.666 43.833 138.999 62.5s84.166 33.334 119.499 44.001l-55 -93l-79.5 -36.5l-114 -54.5l-135.5 -67.5l-142 -74l-135.5 -74.5c-43.667 -24.667 -82.167 -48.334 -115.5 -71.001z" />
    <glyph glyph-name="uni06B0.fina" unicode="&#x6b0;" horiz-adv-x="1607" 
d="M1202 923c0 31.333 10.333 60 31 86c23.333 28 47.333 42 72 42c36 0 65 -15.333 87 -46c22 -34 33 -73.667 33 -119c0 -34.667 -8 -60.667 -24 -78c-18 -18.667 -41.667 -28 -71 -28c-19.333 0 -38 6 -56 18s-29.333 20.667 -34 26c-25.333 29.333 -38 62.333 -38 99z
M1240 901c91.333 -41.333 143.333 -35.667 156 17c0 15.333 -4.66699 29.333 -14 42c-11.333 9.33301 -24 14 -38 14c-14.667 0 -33.667 -7.66699 -57 -23c-31.333 -20 -47 -36.667 -47 -50zM1526 1052l-112.002 -44l-129.5 -53.5l-133 -58l-125 -58
c-39 -19 -74 -36.833 -105 -53.5s-54.833 -31 -71.5 -43c-8.66699 -6.66699 -16.167 -13.667 -22.5 -21s-9.5 -17 -9.5 -29c0 -3.33301 1 -7.16602 3 -11.499s6.66699 -9.66602 14 -15.999s17.833 -13.833 31.5 -22.5s31.834 -18.334 54.501 -29.001
c52.667 -26.667 103.667 -54.834 153 -84.501s98.333 -62 147 -97s97.834 -73.333 147.501 -115s101.167 -87.5 154.5 -137.5c8.66699 -9.33301 21.667 -17.333 39 -24s37.333 -10 60 -10c12 0 21.667 -2.66699 29 -8s11 -15 11 -29v-70c0 -14 -6 -23.833 -18 -29.5
s-24.333 -8.5 -37 -8.5c-16 0 -32.833 3.16699 -50.5 9.5s-35.834 15.166 -54.501 26.499s-37.5 24.666 -56.5 39.999s-38 32 -57 50s-37.667 36.833 -56 56.5l-54 57l-51.5 52.5c-16.667 16.667 -33 31.334 -49 44.001c-7.33301 -60.667 -16.5 -109.5 -27.5 -146.5
s-25.667 -66.667 -44 -89s-41.333 -39.5 -69 -51.5s-61.167 -23.333 -100.5 -34c-26 -6.66699 -55.333 -12.667 -88 -18s-65.834 -9.66602 -99.501 -12.999s-66.667 -6 -99 -8s-61.5 -3 -87.5 -3c-28.667 0 -60.5 1.83301 -95.5 5.5s-70.167 9.83398 -105.5 18.501
s-69.666 20.167 -102.999 34.5s-62.833 32.333 -88.5 54s-46.334 47.167 -62.001 76.5s-23.5 63.333 -23.5 102c0 31.333 4.16699 62.5 12.5 93.5s18.166 58.667 29.499 83s22.666 44 33.999 59s19.333 22.5 24 22.5c7.33301 0 10.166 -3.83301 8.49902 -11.5
s-5 -18.334 -10 -32.001s-10.167 -29.667 -15.5 -48s-8 -38.166 -8 -59.499c0 -32 6.16699 -60.333 18.5 -85s29.166 -45.834 50.499 -63.501s46.333 -32.5 75 -44.5s59.334 -21.5 92.001 -28.5s66.5 -12 101.5 -15s69.5 -4.5 103.5 -4.5
c82.667 0 155.834 4.16699 219.501 12.5s117 19.5 160 33.5s75.5 30.167 97.5 48.5s33 37.5 33 57.5c0 16 -1.83301 31.167 -5.5 45.5s-12 28.5 -25 42.5s-32.667 29.167 -59 45.5s-62.166 34.833 -107.499 55.5c-31.333 14.667 -56.666 29.167 -75.999 43.5
s-34.333 30.166 -45 47.499s-17.667 36.833 -21 58.5s-5 47.167 -5 76.5c0 22 1.66699 40.5 5 55.5s9 28 17 39s18.5 21.333 31.5 31s28.833 20.834 47.5 33.501c44.667 28.667 91.834 56.167 141.501 82.5s103.834 53 162.501 80s122.667 54.833 192 83.5l230 94z
M838.998 984.999c25.333 19.333 57 41 95 65s79.5 48.833 124.5 74.5s92.167 51.167 141.5 76.5l146.5 72.5c48.333 23 94.666 43.833 138.999 62.5s83.833 33.667 118.5 45l-55 -97l-142 -67l-186 -90.5l-142.5 -74l-135.5 -75c-43.333 -25 -81.666 -48.5 -114.999 -70.5z
" />
    <glyph glyph-name="uni06B2.init" unicode="&#x6b2;" horiz-adv-x="722" 
d="M107 937c24.667 19.333 54.1689 39.833 88.502 61.5s71.166 43.667 110.499 66l121.5 66c41.667 21.667 82.5 41.667 122.5 60s78.167 34.333 114.5 48s69.166 24.167 98.499 31.5l-38 -91c-22 -6 -48.167 -14.833 -78.5 -26.5s-63.333 -25.5 -99 -41.5
s-73 -33.667 -112 -53s-78.167 -39.833 -117.5 -61.5l-116 -66.5c-38 -22.667 -73.333 -45 -106 -67zM121.002 713c14.667 -30 36.3301 -51 64.9971 -63c60 -25.333 103.667 -46.666 131 -63.999c53.333 -32.667 99 -72.667 137 -120c54.667 -68 82 -141.667 82 -221
c0 -30 -4.5 -58.833 -13.5 -86.5s-21.5 -49.834 -37.5 -66.501c-26.667 -28.667 -65 -51.167 -115 -67.5s-106.333 -24.5 -169 -24.5l-80 1l-121 -1c-17.333 -0 -30.666 2.83301 -39.999 8.5s-14 13.5 -14 23.5v90l1 4c4 11.333 15.667 17 35 17l19 1h32l80 -1
c68 0 118.833 1.33301 152.5 4s64.834 7.66699 93.501 15c33.333 10 62.833 23.167 88.5 39.5s38.5 30.833 38.5 43.5c0 6.66699 -6.5 19.667 -19.5 39s-27.833 38 -44.5 56c-28 31.333 -62.167 62 -102.5 92s-79.5 54 -117.5 72l-55 26
c-27.333 12.667 -47 30.334 -59 53.001s-18 53.334 -18 92.001c0 29.333 1.83301 52.166 5.5 68.499s10.167 29.833 19.5 40.5c23.333 26 87.333 64 192 114l61 28c40 19.333 106.333 46.666 199 81.999c66 26 124.333 46.333 175 61l-75 -146l-29 -9
c-29.333 -10.667 -47.333 -17 -54 -19l-57 -19c-5.33301 -2 -24.333 -8.66699 -57 -20l-73 -26c-109.333 -39.333 -194.666 -78.333 -255.999 -117zM133.998 -150c38 -31.333 70.332 -54.999 96.999 -70.999l17 -10c26 33.333 47 64.333 63 93l5 7c6 -4 9.66699 -7 11 -9
l19 -15c18 -14.667 38.333 -28.334 61 -41.001l20 -12c2.66699 -1.33301 7.66699 -4.33301 15 -9c-30 -30.667 -57 -70.334 -81 -119.001c-34 32.667 -70.333 59.334 -109 80.001c-20 -24 -41.333 -60 -64 -108c-22 24 -55 50.333 -99 79l-22 14
c-1.33301 1.33301 -4.66602 4 -9.99902 8c33.333 39.333 59 77 77 113z" />
    <glyph glyph-name="uni06B2.medi" unicode="&#x6b2;" horiz-adv-x="942" 
d="M861 1052l-112.998 -43.9971l-130 -52.5l-134 -57.5l-125.5 -58c-39 -18.667 -73.667 -36.334 -104 -53.001s-53.5 -31.667 -69.5 -45c-4 -2 -7.83301 -5.33301 -11.5 -10s-7 -9.5 -10 -14.5s-5.5 -9.83301 -7.5 -14.5s-3 -8.33398 -3 -11.001c0 -2 0.666992 -5 2 -9
s5.5 -9.16699 12.5 -15.5s17.5 -14 31.5 -23s33.333 -19.5 58 -31.5c54.667 -22.667 106.667 -48.834 156 -78.501s98.166 -62.334 146.499 -98.001s96.833 -75 145.5 -118l152 -139.5c9.33301 -9.33301 22.666 -17.333 39.999 -24s37.333 -10 60 -10
c12 0 21.5 -2.66699 28.5 -8s10.5 -15 10.5 -29v-70c0 -14 -6 -23.833 -18 -29.5s-24 -8.5 -36 -8.5c-16 0 -32.833 3.16699 -50.5 9.5s-35.834 15.166 -54.501 26.499s-37.5 24.666 -56.5 39.999s-38.167 32 -57.5 50l-55 56.5l-54 57l-52 52.5
c-17.333 16.667 -34 31.334 -50 44.001c-5.33301 -51.333 -12.833 -95.166 -22.5 -131.499s-23 -67 -40 -92s-38 -44.833 -63 -59.5s-55.667 -26 -92 -34s-78.666 -13.167 -126.999 -15.5s-104.166 -3.5 -167.499 -3.5c-12 0 -24 2.83301 -36 8.5s-18 15.5 -18 29.5v70
c0 14 3.5 23.667 10.5 29s16.5 8 28.5 8c82 0 152 3.16699 210 9.5s105.667 15.333 143 27s64.666 26 81.999 43s26 36.167 26 57.5c0 16 -2 31.167 -6 45.5s-14 29.333 -30 45s-39.667 33.167 -71 52.5s-74.666 41.666 -129.999 66.999c-34 16 -60.333 40.667 -79 74
s-28 75.333 -28 126c0 16.667 0.666992 31 2 43s4 23.167 8 33.5s9.66699 19.833 17 28.5s17 17.334 29 26.001c27.333 21.333 62.166 44 104.499 68s88.5 48.667 138.5 74s101.333 50 154 74l151 66c48 20 91.667 37.333 131 52s70 25.334 92 32.001zM169.002 991.003
c25.333 18.667 57.002 40 95.002 64s79.5 48.833 124.5 74.5l141.5 77l146.5 73c48.333 23 94.666 43.833 138.999 62.5s84.166 33.334 119.499 44.001l-55 -93l-79.5 -36.5l-114 -54.5l-135.5 -67.5l-142 -74l-135.5 -74.5c-43.667 -24.667 -82.167 -48.334 -115.5 -71.001
zM355.004 -143.997c38 -31.333 70.332 -54.999 96.999 -70.999l17 -10c26 33.333 47 64.333 63 93l5 7c6 -4 9.66699 -7 11 -9l19 -15c18 -14.667 38.333 -28.334 61 -41.001l20 -12c2.66699 -1.33301 7.66699 -4.33301 15 -9c-30 -30.667 -57 -70.334 -81 -119.001
c-34 32.667 -70.333 59.334 -109 80.001c-20 -24 -41.333 -60 -64 -108c-22 24 -55 50.333 -99 79l-22 14c-1.33301 1.33301 -4.66602 4 -9.99902 8c33.333 39.333 59 77 77 113z" />
    <glyph glyph-name="uni06B2.fina" unicode="&#x6b2;" horiz-adv-x="1607" 
d="M1526 1052l-112.002 -44l-129.5 -53.5l-133 -58l-125 -58c-39 -19 -74 -36.833 -105 -53.5s-54.833 -31 -71.5 -43c-8.66699 -6.66699 -16.167 -13.667 -22.5 -21s-9.5 -17 -9.5 -29c0 -3.33301 1 -7.16602 3 -11.499s6.66699 -9.66602 14 -15.999
s17.833 -13.833 31.5 -22.5s31.834 -18.334 54.501 -29.001c52.667 -26.667 103.667 -54.834 153 -84.501s98.333 -62 147 -97s97.834 -73.333 147.501 -115s101.167 -87.5 154.5 -137.5c8.66699 -9.33301 21.667 -17.333 39 -24s37.333 -10 60 -10
c12 0 21.667 -2.66699 29 -8s11 -15 11 -29v-70c0 -14 -6 -23.833 -18 -29.5s-24.333 -8.5 -37 -8.5c-16 0 -32.833 3.16699 -50.5 9.5s-35.834 15.166 -54.501 26.499s-37.5 24.666 -56.5 39.999s-38 32 -57 50s-37.667 36.833 -56 56.5l-54 57l-51.5 52.5
c-16.667 16.667 -33 31.334 -49 44.001c-7.33301 -60.667 -16.5 -109.5 -27.5 -146.5s-25.667 -66.667 -44 -89s-41.333 -39.5 -69 -51.5s-61.167 -23.333 -100.5 -34c-26 -6.66699 -55.333 -12.667 -88 -18s-65.834 -9.66602 -99.501 -12.999s-66.667 -6 -99 -8
s-61.5 -3 -87.5 -3c-28.667 0 -60.5 1.83301 -95.5 5.5s-70.167 9.83398 -105.5 18.501s-69.666 20.167 -102.999 34.5s-62.833 32.333 -88.5 54s-46.334 47.167 -62.001 76.5s-23.5 63.333 -23.5 102c0 31.333 4.16699 62.5 12.5 93.5s18.166 58.667 29.499 83
s22.666 44 33.999 59s19.333 22.5 24 22.5c7.33301 0 10.166 -3.83301 8.49902 -11.5s-5 -18.334 -10 -32.001s-10.167 -29.667 -15.5 -48s-8 -38.166 -8 -59.499c0 -32 6.16699 -60.333 18.5 -85s29.166 -45.834 50.499 -63.501s46.333 -32.5 75 -44.5
s59.334 -21.5 92.001 -28.5s66.5 -12 101.5 -15s69.5 -4.5 103.5 -4.5c82.667 0 155.834 4.16699 219.501 12.5s117 19.5 160 33.5s75.5 30.167 97.5 48.5s33 37.5 33 57.5c0 16 -1.83301 31.167 -5.5 45.5s-12 28.5 -25 42.5s-32.667 29.167 -59 45.5
s-62.166 34.833 -107.499 55.5c-31.333 14.667 -56.666 29.167 -75.999 43.5s-34.333 30.166 -45 47.499s-17.667 36.833 -21 58.5s-5 47.167 -5 76.5c0 22 1.66699 40.5 5 55.5s9 28 17 39s18.5 21.333 31.5 31s28.833 20.834 47.5 33.501
c44.667 28.667 91.834 56.167 141.501 82.5s103.834 53 162.501 80s122.667 54.833 192 83.5l230 94zM838.998 985c25.333 19.333 57 41 95 65s79.5 48.833 124.5 74.5s92.167 51.167 141.5 76.5l146.5 72.5c48.333 23 94.666 43.833 138.999 62.5s83.833 33.667 118.5 45
l-55 -97l-142 -67l-186 -90.5l-142.5 -74l-135.5 -75c-43.333 -25 -81.666 -48.5 -114.999 -70.5zM500.998 -178c38 -31.333 70.332 -54.999 96.999 -70.999l17 -10c26 33.333 47 64.333 63 93l5 7c6 -4 9.66699 -7 11 -9l19 -15c18 -14.667 38.333 -28.334 61 -41.001
l20 -12c2.66699 -1.33301 7.66699 -4.33301 15 -9c-30 -30.667 -57 -70.334 -81 -119.001c-34 32.667 -70.333 59.334 -109 80.001c-20 -24 -41.333 -60 -64 -108c-22 24 -55 50.333 -99 79l-22 14c-1.33301 1.33301 -4.66602 4 -9.99902 8c33.333 39.333 59 77 77 113z" />
    <glyph glyph-name="uni06B4.init" unicode="&#x6b4;" horiz-adv-x="722" 
d="M107 937c24.667 19.333 54.1689 39.833 88.502 61.5s71.166 43.667 110.499 66l121.5 66c41.667 21.667 82.5 41.667 122.5 60s78.167 34.333 114.5 48s69.166 24.167 98.499 31.5l-38 -91c-22 -6 -48.167 -14.833 -78.5 -26.5s-63.333 -25.5 -99 -41.5
s-73 -33.667 -112 -53s-78.167 -39.833 -117.5 -61.5l-116 -66.5c-38 -22.667 -73.333 -45 -106 -67zM121.002 713c14.667 -30 36.3301 -51 64.9971 -63c60 -25.333 103.667 -46.666 131 -63.999c53.333 -32.667 99 -72.667 137 -120c54.667 -68 82 -141.667 82 -221
c0 -30 -4.5 -58.833 -13.5 -86.5s-21.5 -49.834 -37.5 -66.501c-26.667 -28.667 -65 -51.167 -115 -67.5s-106.333 -24.5 -169 -24.5l-80 1l-121 -1c-17.333 -0 -30.666 2.83301 -39.999 8.5s-14 13.5 -14 23.5v90l1 4c4 11.333 15.667 17 35 17l19 1h32l80 -1
c68 0 118.833 1.33301 152.5 4s64.834 7.66699 93.501 15c33.333 10 62.833 23.167 88.5 39.5s38.5 30.833 38.5 43.5c0 6.66699 -6.5 19.667 -19.5 39s-27.833 38 -44.5 56c-28 31.333 -62.167 62 -102.5 92s-79.5 54 -117.5 72l-55 26
c-27.333 12.667 -47 30.334 -59 53.001s-18 53.334 -18 92.001c0 29.333 1.83301 52.166 5.5 68.499s10.167 29.833 19.5 40.5c23.333 26 87.333 64 192 114l61 28c40 19.333 106.333 46.666 199 81.999c66 26 124.333 46.333 175 61l-75 -146l-29 -9
c-29.333 -10.667 -47.333 -17 -54 -19l-57 -19c-5.33301 -2 -24.333 -8.66699 -57 -20l-73 -26c-109.333 -39.333 -194.666 -78.333 -255.999 -117zM218.998 1420c37.333 -30.667 69.334 -54.333 96.001 -71l17 -10c26 33.333 47 64.333 63 93l5 7
c6 -4 9.66699 -6.66699 11 -8l19 -15c18.667 -15.333 38.667 -29.333 60 -42l21 -12c2 -1.33301 7 -4.33301 15 -9c-29.333 -30.667 -56.333 -70.334 -81 -119.001c-34 32.667 -70.333 59.334 -109 80.001c-20 -24 -41.333 -59.667 -64 -107
c-22.667 24 -55.334 50 -98.001 78l-22 15c-1.33301 0.666992 -5 3 -11 7c32.667 40 58.667 77.667 78 113zM279.999 1627l9.99902 -9c38.667 -38 76.334 -67 113.001 -87c-17.333 -20 -31 -37.833 -41 -53.5s-23.333 -39.5 -40 -71.5c-37.333 32 -78 60.667 -122 86l-11 6
l13 18c38 48.667 64 85.667 78 111z" />
    <glyph glyph-name="uni06B4.medi" unicode="&#x6b4;" horiz-adv-x="942" 
d="M861 1052l-112.998 -43.9971l-130 -52.5l-134 -57.5l-125.5 -58c-39 -18.667 -73.667 -36.334 -104 -53.001s-53.5 -31.667 -69.5 -45c-4 -2 -7.83301 -5.33301 -11.5 -10s-7 -9.5 -10 -14.5s-5.5 -9.83301 -7.5 -14.5s-3 -8.33398 -3 -11.001c0 -2 0.666992 -5 2 -9
s5.5 -9.16699 12.5 -15.5s17.5 -14 31.5 -23s33.333 -19.5 58 -31.5c54.667 -22.667 106.667 -48.834 156 -78.501s98.166 -62.334 146.499 -98.001s96.833 -75 145.5 -118l152 -139.5c9.33301 -9.33301 22.666 -17.333 39.999 -24s37.333 -10 60 -10
c12 0 21.5 -2.66699 28.5 -8s10.5 -15 10.5 -29v-70c0 -14 -6 -23.833 -18 -29.5s-24 -8.5 -36 -8.5c-16 0 -32.833 3.16699 -50.5 9.5s-35.834 15.166 -54.501 26.499s-37.5 24.666 -56.5 39.999s-38.167 32 -57.5 50l-55 56.5l-54 57l-52 52.5
c-17.333 16.667 -34 31.334 -50 44.001c-5.33301 -51.333 -12.833 -95.166 -22.5 -131.499s-23 -67 -40 -92s-38 -44.833 -63 -59.5s-55.667 -26 -92 -34s-78.666 -13.167 -126.999 -15.5s-104.166 -3.5 -167.499 -3.5c-12 0 -24 2.83301 -36 8.5s-18 15.5 -18 29.5v70
c0 14 3.5 23.667 10.5 29s16.5 8 28.5 8c82 0 152 3.16699 210 9.5s105.667 15.333 143 27s64.666 26 81.999 43s26 36.167 26 57.5c0 16 -2 31.167 -6 45.5s-14 29.333 -30 45s-39.667 33.167 -71 52.5s-74.666 41.666 -129.999 66.999c-34 16 -60.333 40.667 -79 74
s-28 75.333 -28 126c0 16.667 0.666992 31 2 43s4 23.167 8 33.5s9.66699 19.833 17 28.5s17 17.334 29 26.001c27.333 21.333 62.166 44 104.499 68s88.5 48.667 138.5 74s101.333 50 154 74l151 66c48 20 91.667 37.333 131 52s70 25.334 92 32.001zM169.002 991.003
c25.333 18.667 57.002 40 95.002 64s79.5 48.833 124.5 74.5l141.5 77l146.5 73c48.333 23 94.666 43.833 138.999 62.5s84.166 33.334 119.499 44.001l-55 -93l-79.5 -36.5l-114 -54.5l-135.5 -67.5l-142 -74l-135.5 -74.5c-43.667 -24.667 -82.167 -48.334 -115.5 -71.001
zM296.004 1517c37.333 -30.667 69.334 -54.333 96.001 -71l17 -10c26 33.333 47 64.333 63 93l5 7c6 -4 9.66699 -6.66699 11 -8l19 -15c18.667 -15.333 38.667 -29.333 60 -42l21 -12c2 -1.33301 7 -4.33301 15 -9c-29.333 -30.667 -56.333 -70.334 -81 -119.001
c-34 32.667 -70.333 59.334 -109 80.001c-20 -24 -41.333 -59.667 -64 -107c-22.667 24 -55.334 50 -98.001 78l-22 15c-1.33301 0.666992 -5 3 -11 7c32.667 40 58.667 77.667 78 113zM357.005 1724l9.99902 -9c38.667 -38 76.334 -67 113.001 -87
c-17.333 -20 -31 -37.833 -41 -53.5s-23.333 -39.5 -40 -71.5c-37.333 32 -78 60.667 -122 86l-11 6l13 18c38 48.667 64 85.667 78 111z" />
    <glyph glyph-name="uni06B4.fina" unicode="&#x6b4;" horiz-adv-x="1607" 
d="M1526 1052l-112.002 -44l-129.5 -53.5l-133 -58l-125 -58c-39 -19 -74 -36.833 -105 -53.5s-54.833 -31 -71.5 -43c-8.66699 -6.66699 -16.167 -13.667 -22.5 -21s-9.5 -17 -9.5 -29c0 -3.33301 1 -7.16602 3 -11.499s6.66699 -9.66602 14 -15.999
s17.833 -13.833 31.5 -22.5s31.834 -18.334 54.501 -29.001c52.667 -26.667 103.667 -54.834 153 -84.501s98.333 -62 147 -97s97.834 -73.333 147.501 -115s101.167 -87.5 154.5 -137.5c8.66699 -9.33301 21.667 -17.333 39 -24s37.333 -10 60 -10
c12 0 21.667 -2.66699 29 -8s11 -15 11 -29v-70c0 -14 -6 -23.833 -18 -29.5s-24.333 -8.5 -37 -8.5c-16 0 -32.833 3.16699 -50.5 9.5s-35.834 15.166 -54.501 26.499s-37.5 24.666 -56.5 39.999s-38 32 -57 50s-37.667 36.833 -56 56.5l-54 57l-51.5 52.5
c-16.667 16.667 -33 31.334 -49 44.001c-7.33301 -60.667 -16.5 -109.5 -27.5 -146.5s-25.667 -66.667 -44 -89s-41.333 -39.5 -69 -51.5s-61.167 -23.333 -100.5 -34c-26 -6.66699 -55.333 -12.667 -88 -18s-65.834 -9.66602 -99.501 -12.999s-66.667 -6 -99 -8
s-61.5 -3 -87.5 -3c-28.667 0 -60.5 1.83301 -95.5 5.5s-70.167 9.83398 -105.5 18.501s-69.666 20.167 -102.999 34.5s-62.833 32.333 -88.5 54s-46.334 47.167 -62.001 76.5s-23.5 63.333 -23.5 102c0 31.333 4.16699 62.5 12.5 93.5s18.166 58.667 29.499 83
s22.666 44 33.999 59s19.333 22.5 24 22.5c7.33301 0 10.166 -3.83301 8.49902 -11.5s-5 -18.334 -10 -32.001s-10.167 -29.667 -15.5 -48s-8 -38.166 -8 -59.499c0 -32 6.16699 -60.333 18.5 -85s29.166 -45.834 50.499 -63.501s46.333 -32.5 75 -44.5
s59.334 -21.5 92.001 -28.5s66.5 -12 101.5 -15s69.5 -4.5 103.5 -4.5c82.667 0 155.834 4.16699 219.501 12.5s117 19.5 160 33.5s75.5 30.167 97.5 48.5s33 37.5 33 57.5c0 16 -1.83301 31.167 -5.5 45.5s-12 28.5 -25 42.5s-32.667 29.167 -59 45.5
s-62.166 34.833 -107.499 55.5c-31.333 14.667 -56.666 29.167 -75.999 43.5s-34.333 30.166 -45 47.499s-17.667 36.833 -21 58.5s-5 47.167 -5 76.5c0 22 1.66699 40.5 5 55.5s9 28 17 39s18.5 21.333 31.5 31s28.833 20.834 47.5 33.501
c44.667 28.667 91.834 56.167 141.501 82.5s103.834 53 162.501 80s122.667 54.833 192 83.5l230 94zM838.998 985c25.333 19.333 57 41 95 65s79.5 48.833 124.5 74.5s92.167 51.167 141.5 76.5l146.5 72.5c48.333 23 94.666 43.833 138.999 62.5s83.833 33.667 118.5 45
l-55 -97l-142 -67l-186 -90.5l-142.5 -74l-135.5 -75c-43.333 -25 -81.666 -48.5 -114.999 -70.5zM958.998 1514c37.333 -30.667 69.334 -54.333 96.001 -71l17 -10c26 33.333 47 64.333 63 93l5 7c6 -4 9.66699 -6.66699 11 -8l19 -15
c18.667 -15.333 38.667 -29.333 60 -42l21 -12c2 -1.33301 7 -4.33301 15 -9c-29.333 -30.667 -56.333 -70.334 -81 -119.001c-34 32.667 -70.333 59.334 -109 80.001c-20 -24 -41.333 -59.667 -64 -107c-22.667 24 -55.334 50 -98.001 78l-22 15
c-1.33301 0.666992 -5 3 -11 7c32.667 40 58.667 77.667 78 113zM1020 1721l9.99902 -9c38.667 -38 76.334 -67 113.001 -87c-17.333 -20 -31 -37.833 -41 -53.5s-23.333 -39.5 -40 -71.5c-37.333 32 -78 60.667 -122 86l-11 6l13 18c38 48.667 64 85.667 78 111z" />
    <glyph glyph-name="uni06B5.init" unicode="&#x6b5;" horiz-adv-x="431" 
d="M346 1043c-20 -15.333 -37.6621 -32.3311 -52.9951 -50.998c-18 -22 -27 -51.667 -27 -89c0 -21.333 2.16699 -52.333 6.5 -93s9.16602 -77.667 14.499 -111l16 -94l11 -80l10 -71c6.66699 -50 10 -89 10 -117c0 -76.667 -17.333 -154.667 -52 -234
c-7.33301 -16 -13.833 -27.667 -19.5 -35s-13.5 -14 -23.5 -20c-28 -18 -61 -30 -99 -36c-18 -2.66699 -41.833 -5.33398 -71.5 -8.00098s-51.5 -4 -65.5 -4c-18.667 0 -32.834 2.83301 -42.501 8.5s-14.5 13.5 -14.5 23.5v87v3l1 4c4 11.333 15.667 17 35 17l21 1h29h49
l40 2c96.667 0 145 41.333 145 124c0 19.333 -4.66699 67 -14 143l-13 105c-11.333 93.333 -21.333 167.666 -30 222.999l-19 111l-12 75l-11 59c-4.66699 23.333 -9.66699 45.333 -15 66l-6 22l92 123c5.33301 -8 8.66602 -14 9.99902 -18
c15.333 -29.333 28.666 -51.833 39.999 -67.5s30.666 -38.5 57.999 -68.5zM347.005 1592c-8 -8 -17.3291 -17.8359 -27.9961 -29.5029s-22.334 -28.167 -35.001 -49.5s-26.334 -49.333 -41.001 -84s-29.334 -78.667 -44.001 -132l-26 -3
c-6 28.667 -14.5 57.334 -25.5 86.001s-23.5 55.834 -37.5 81.501s-29.5 49.167 -46.5 70.5s-34.5 39 -52.5 53l96 -8c6 -7.33301 12.167 -15.666 18.5 -24.999s13 -21.166 20 -35.499s13.833 -32.333 20.5 -54s13.667 -47.834 21 -78.501c2 12 4.83301 26.333 8.5 43
s8.16699 34 13.5 52s11.666 36 18.999 54s16 34.667 26 50z" />
    <glyph glyph-name="uni06B5.medi" unicode="&#x6b5;" horiz-adv-x="519" 
d="M163 1068l99.998 110.998l2 -26l3 -55c1.33301 -41.333 2.66602 -69.666 3.99902 -84.999l6 -81l5 -108c4.66699 -70 10.334 -140 17.001 -210l8 -79l9 -92c7.33301 -75.333 15.5 -131.833 24.5 -169.5s20.5 -65.5 34.5 -83.5c24.667 -30.667 66 -46 124 -46h19
c21.333 0 35.833 -2 43.5 -6s11.5 -10.333 11.5 -19v-87c0 -10 -4.66699 -17.833 -14 -23.5s-22.333 -8.5 -39 -8.5c-37.333 0 -69.166 3.5 -95.499 10.5s-48.5 18.5 -66.5 34.5c-18 14 -32.833 30.333 -44.5 49s-25.167 46.667 -40.5 84l-8 21l-14 -24l-16 -32
c-30 -55.333 -61 -93 -93 -113s-79 -30 -141 -30c-14.667 0 -27 2.66699 -37 8c-12.667 8 -19 16.667 -19 26l1 85c0 6.66699 3.83301 12.334 11.5 17.001s16.834 7 27.501 7l15 1h28l32 1c28.667 0 55.667 4.83301 81 14.5s45 22.5 59 38.5
c12.667 14 21.167 30.833 25.5 50.5s6.5 50.834 6.5 93.501c0 117.333 -6.33301 241.666 -19 372.999s-29.667 249 -51 353zM351.998 1552c-8 -8 -17.3291 -17.8359 -27.9961 -29.5029s-22.334 -28.167 -35.001 -49.5s-26.334 -49.333 -41.001 -84
s-29.334 -78.667 -44.001 -132l-26 -3c-6 28.667 -14.5 57.334 -25.5 86.001s-23.5 55.834 -37.5 81.501s-29.5 49.167 -46.5 70.5s-34.5 39 -52.5 53l96 -8c6 -7.33301 12.167 -15.666 18.5 -24.999s13 -21.166 20 -35.499s13.833 -32.333 20.5 -54
s13.667 -47.834 21 -78.501c2 12 4.83301 26.333 8.5 43s8.16699 34 13.5 52s11.666 36 18.999 54s16 34.667 26 50z" />
    <glyph glyph-name="uni06B5.fina" unicode="&#x6b5;" horiz-adv-x="1070" 
d="M821 1110l0.99707 -28.001l1 -55c12 -232 20 -374.667 24 -428c7.33301 -86.667 17 -164.334 29 -233.001s24.667 -118.667 38 -150c12.667 -28 29.834 -47.5 51.501 -58.5s53.834 -16.5 96.501 -16.5c18.667 0 30.334 -5.66699 35.001 -17l1 -3v-4v-87
c0 -9.33301 -4.83301 -17 -14.5 -23s-22.5 -9 -38.5 -9c-19.333 0 -39 2.33301 -59 7s-36.667 10.667 -50 18c-17.333 10 -31 21.333 -41 34s-21.333 34 -34 64l-18 -3c2 -28.667 3.66699 -54.667 5 -78l4 -66c2 -41.333 3 -71.666 3 -90.999c0 -69.333 -3 -119.333 -9 -150
c-4.66699 -27.333 -13.334 -55.666 -26.001 -84.999s-27.334 -55.333 -44.001 -78c-38 -54 -93 -96.333 -165 -127s-150.667 -46 -236 -46c-87.333 0 -158.666 24.667 -213.999 74c-26.667 24 -47.667 54.5 -63 91.5s-23 75.5 -23 115.5c0 41.333 9 90.5 27 147.5
s40.667 108.833 68 155.5c38.667 64.667 64 97 76 97c2 0 4.16699 -1.16699 6.5 -3.5s3.5 -5.16602 3.5 -8.49902c0 -8 -11 -34 -33 -78c-30 -59.333 -51.833 -109.333 -65.5 -150s-20.5 -76.667 -20.5 -108c0 -57.333 24.5 -102 73.5 -134s117.167 -48 204.5 -48
c108 0 203.667 29 287 87c62.667 43.333 94 91.333 94 144c0 13.333 -1 32.666 -3 57.999c-1.33301 11.333 -2.66602 30.666 -3.99902 57.999l-4 107l-7 141c0 16 -2.66699 74.333 -8 175l-11 192l-6 138c-7.33301 156.667 -11 237.334 -11 242.001l-4 85zM917.997 1507
c-8 -8 -17.3291 -17.8359 -27.9961 -29.5029s-22.334 -28.167 -35.001 -49.5s-26.334 -49.333 -41.001 -84s-29.334 -78.667 -44.001 -132l-26 -3c-6 28.667 -14.5 57.334 -25.5 86.001s-23.5 55.834 -37.5 81.501s-29.5 49.167 -46.5 70.5s-34.5 39 -52.5 53l96 -8
c6 -7.33301 12.167 -15.666 18.5 -24.999s13 -21.166 20 -35.499s13.833 -32.333 20.5 -54s13.667 -47.834 21 -78.501c2 12 4.83301 26.333 8.5 43s8.16699 34 13.5 52s11.666 36 18.999 54s16 34.667 26 50z" />
    <glyph glyph-name="uni06B6.init" unicode="&#x6b6;" horiz-adv-x="431" 
d="M346 1043c-20 -15.333 -37.6621 -32.3311 -52.9951 -50.998c-18 -22 -27 -51.667 -27 -89c0 -21.333 2.16699 -52.333 6.5 -93s9.16602 -77.667 14.499 -111l16 -94l11 -80l10 -71c6.66699 -50 10 -89 10 -117c0 -76.667 -17.333 -154.667 -52 -234
c-7.33301 -16 -13.833 -27.667 -19.5 -35s-13.5 -14 -23.5 -20c-28 -18 -61 -30 -99 -36c-18 -2.66699 -41.833 -5.33398 -71.5 -8.00098s-51.5 -4 -65.5 -4c-18.667 0 -32.834 2.83301 -42.501 8.5s-14.5 13.5 -14.5 23.5v87v3l1 4c4 11.333 15.667 17 35 17l21 1h29h49
l40 2c96.667 0 145 41.333 145 124c0 19.333 -4.66699 67 -14 143l-13 105c-11.333 93.333 -21.333 167.666 -30 222.999l-19 111l-12 75l-11 59c-4.66699 23.333 -9.66699 45.333 -15 66l-6 22l92 123c5.33301 -8 8.66602 -14 9.99902 -18
c15.333 -29.333 28.666 -51.833 39.999 -67.5s30.666 -38.5 57.999 -68.5zM155.005 1509c43.333 -43.333 84 -75.668 122 -97.001c-17.333 -20.667 -31.166 -38.667 -41.499 -54s-23.5 -38.666 -39.5 -69.999c-36.667 31.333 -77.334 60 -122.001 86l-11 7
c6.66699 7.33301 12 13 16 17l20 29l20 28c14.667 20 26.667 38 36 54z" />
    <glyph glyph-name="uni06B6.medi" unicode="&#x6b6;" horiz-adv-x="519" 
d="M163 1068l99.998 110.998l2 -26l3 -55c1.33301 -41.333 2.66602 -69.666 3.99902 -84.999l6 -81l5 -108c4.66699 -70 10.334 -140 17.001 -210l8 -79l9 -92c7.33301 -75.333 15.5 -131.833 24.5 -169.5s20.5 -65.5 34.5 -83.5c24.667 -30.667 66 -46 124 -46h19
c21.333 0 35.833 -2 43.5 -6s11.5 -10.333 11.5 -19v-87c0 -10 -4.66699 -17.833 -14 -23.5s-22.333 -8.5 -39 -8.5c-37.333 0 -69.166 3.5 -95.499 10.5s-48.5 18.5 -66.5 34.5c-18 14 -32.833 30.333 -44.5 49s-25.167 46.667 -40.5 84l-8 21l-14 -24l-16 -32
c-30 -55.333 -61 -93 -93 -113s-79 -30 -141 -30c-14.667 0 -27 2.66699 -37 8c-12.667 8 -19 16.667 -19 26l1 85c0 6.66699 3.83301 12.334 11.5 17.001s16.834 7 27.501 7l15 1h28l32 1c28.667 0 55.667 4.83301 81 14.5s45 22.5 59 38.5
c12.667 14 21.167 30.833 25.5 50.5s6.5 50.834 6.5 93.501c0 117.333 -6.33301 241.666 -19 372.999s-29.667 249 -51 353zM160.998 1487c43.333 -43.333 84 -75.668 122 -97.001c-17.333 -20.667 -31.166 -38.667 -41.499 -54s-23.5 -38.666 -39.5 -69.999
c-36.667 31.333 -77.334 60 -122.001 86l-11 7c6.66699 7.33301 12 13 16 17l20 29l20 28c14.667 20 26.667 38 36 54z" />
    <glyph glyph-name="uni06B6.fina" unicode="&#x6b6;" horiz-adv-x="1062" 
d="M821 1110l0.99707 -28.001l1 -55c12 -232 20 -374.667 24 -428c7.33301 -86.667 17 -164.334 29 -233.001s24.667 -118.667 38 -150c12.667 -28 29.834 -47.5 51.501 -58.5s53.834 -16.5 96.501 -16.5c18.667 0 30.334 -5.66699 35.001 -17l1 -3v-4v-87
c0 -9.33301 -4.83301 -17 -14.5 -23s-22.5 -9 -38.5 -9c-19.333 0 -39 2.33301 -59 7s-36.667 10.667 -50 18c-17.333 10 -31 21.333 -41 34s-21.333 34 -34 64l-18 -3c2 -28.667 3.66699 -54.667 5 -78l4 -66c2 -41.333 3 -71.666 3 -90.999c0 -69.333 -3 -119.333 -9 -150
c-4.66699 -27.333 -13.334 -55.666 -26.001 -84.999s-27.334 -55.333 -44.001 -78c-38 -54 -93 -96.333 -165 -127s-150.667 -46 -236 -46c-87.333 0 -158.666 24.667 -213.999 74c-26.667 24 -47.667 54.5 -63 91.5s-23 75.5 -23 115.5c0 41.333 9 90.5 27 147.5
s40.667 108.833 68 155.5c38.667 64.667 64 97 76 97c2 0 4.16699 -1.16699 6.5 -3.5s3.5 -5.16602 3.5 -8.49902c0 -8 -11 -34 -33 -78c-30 -59.333 -51.833 -109.333 -65.5 -150s-20.5 -76.667 -20.5 -108c0 -57.333 24.5 -102 73.5 -134s117.167 -48 204.5 -48
c108 0 203.667 29 287 87c62.667 43.333 94 91.333 94 144c0 13.333 -1 32.666 -3 57.999c-1.33301 11.333 -2.66602 30.666 -3.99902 57.999l-4 107l-7 141c0 16 -2.66699 74.333 -8 175l-11 192l-6 138c-7.33301 156.667 -11 237.334 -11 242.001l-4 85zM712.997 1457
c43.333 -43.333 84 -75.668 122 -97.001c-17.333 -20.667 -31.166 -38.667 -41.499 -54s-23.5 -38.666 -39.5 -69.999c-36.667 31.333 -77.334 60 -122.001 86l-11 7c6.66699 7.33301 12 13 16 17l20 29l20 28c14.667 20 26.667 38 36 54z" />
    <glyph glyph-name="uni06B7.init" unicode="&#x6b7;" horiz-adv-x="431" 
d="M346 1043c-20 -15.333 -37.6621 -32.3311 -52.9951 -50.998c-18 -22 -27 -51.667 -27 -89c0 -21.333 2.16699 -52.333 6.5 -93s9.16602 -77.667 14.499 -111l16 -94l11 -80l10 -71c6.66699 -50 10 -89 10 -117c0 -76.667 -17.333 -154.667 -52 -234
c-7.33301 -16 -13.833 -27.667 -19.5 -35s-13.5 -14 -23.5 -20c-28 -18 -61 -30 -99 -36c-18 -2.66699 -41.833 -5.33398 -71.5 -8.00098s-51.5 -4 -65.5 -4c-18.667 0 -32.834 2.83301 -42.501 8.5s-14.5 13.5 -14.5 23.5v87v3l1 4c4 11.333 15.667 17 35 17l21 1h29h49
l40 2c96.667 0 145 41.333 145 124c0 19.333 -4.66699 67 -14 143l-13 105c-11.333 93.333 -21.333 167.666 -30 222.999l-19 111l-12 75l-11 59c-4.66699 23.333 -9.66699 45.333 -15 66l-6 22l92 123c5.33301 -8 8.66602 -14 9.99902 -18
c15.333 -29.333 28.666 -51.833 39.999 -67.5s30.666 -38.5 57.999 -68.5zM47.0049 1492c37.333 -30.667 69.334 -54.333 96.001 -71l17 -10c26 33.333 47 64.333 63 93l5 7c6 -4 9.66699 -6.66699 11 -8l19 -15c18.667 -15.333 38.667 -29.333 60 -42l21 -12
c2 -1.33301 7 -4.33301 15 -9c-29.333 -30.667 -56.333 -70.334 -81 -119.001c-34 32.667 -70.333 59.334 -109 80.001c-20 -24 -41.333 -59.667 -64 -107c-22.667 24 -55.334 50 -98.001 78l-22 15c-1.33301 0.666992 -5 3 -11 7c32.667 40 58.667 77.667 78 113z
M108.006 1699l9.99902 -9c38.667 -38 76.334 -67 113.001 -87c-17.333 -20 -31 -37.833 -41 -53.5s-23.333 -39.5 -40 -71.5c-37.333 32 -78 60.667 -122 86l-11 6l13 18c38 48.667 64 85.667 78 111z" />
    <glyph glyph-name="uni06B7.medi" unicode="&#x6b7;" horiz-adv-x="519" 
d="M163 1068l99.998 110.998l2 -26l3 -55c1.33301 -41.333 2.66602 -69.666 3.99902 -84.999l6 -81l5 -108c4.66699 -70 10.334 -140 17.001 -210l8 -79l9 -92c7.33301 -75.333 15.5 -131.833 24.5 -169.5s20.5 -65.5 34.5 -83.5c24.667 -30.667 66 -46 124 -46h19
c21.333 0 35.833 -2 43.5 -6s11.5 -10.333 11.5 -19v-87c0 -10 -4.66699 -17.833 -14 -23.5s-22.333 -8.5 -39 -8.5c-37.333 0 -69.166 3.5 -95.499 10.5s-48.5 18.5 -66.5 34.5c-18 14 -32.833 30.333 -44.5 49s-25.167 46.667 -40.5 84l-8 21l-14 -24l-16 -32
c-30 -55.333 -61 -93 -93 -113s-79 -30 -141 -30c-14.667 0 -27 2.66699 -37 8c-12.667 8 -19 16.667 -19 26l1 85c0 6.66699 3.83301 12.334 11.5 17.001s16.834 7 27.501 7l15 1h28l32 1c28.667 0 55.667 4.83301 81 14.5s45 22.5 59 38.5
c12.667 14 21.167 30.833 25.5 50.5s6.5 50.834 6.5 93.501c0 117.333 -6.33301 241.666 -19 372.999s-29.667 249 -51 353zM70.998 1463c37.333 -30.667 69.334 -54.333 96.001 -71l17 -10c26 33.333 47 64.333 63 93l5 7c6 -4 9.66699 -6.66699 11 -8l19 -15
c18.667 -15.333 38.667 -29.333 60 -42l21 -12c2 -1.33301 7 -4.33301 15 -9c-29.333 -30.667 -56.333 -70.334 -81 -119.001c-34 32.667 -70.333 59.334 -109 80.001c-20 -24 -41.333 -59.667 -64 -107c-22.667 24 -55.334 50 -98.001 78l-22 15
c-1.33301 0.666992 -5 3 -11 7c32.667 40 58.667 77.667 78 113zM131.999 1670l9.99902 -9c38.667 -38 76.334 -67 113.001 -87c-17.333 -20 -31 -37.833 -41 -53.5s-23.333 -39.5 -40 -71.5c-37.333 32 -78 60.667 -122 86l-11 6l13 18c38 48.667 64 85.667 78 111z" />
    <glyph glyph-name="uni06B7.fina" unicode="&#x6b7;" horiz-adv-x="1075" 
d="M821 1110l0.99707 -28.001l1 -55c12 -232 20 -374.667 24 -428c7.33301 -86.667 17 -164.334 29 -233.001s24.667 -118.667 38 -150c12.667 -28 29.834 -47.5 51.501 -58.5s53.834 -16.5 96.501 -16.5c18.667 0 30.334 -5.66699 35.001 -17l1 -3v-4v-87
c0 -9.33301 -4.83301 -17 -14.5 -23s-22.5 -9 -38.5 -9c-19.333 0 -39 2.33301 -59 7s-36.667 10.667 -50 18c-17.333 10 -31 21.333 -41 34s-21.333 34 -34 64l-18 -3c2 -28.667 3.66699 -54.667 5 -78l4 -66c2 -41.333 3 -71.666 3 -90.999c0 -69.333 -3 -119.333 -9 -150
c-4.66699 -27.333 -13.334 -55.666 -26.001 -84.999s-27.334 -55.333 -44.001 -78c-38 -54 -93 -96.333 -165 -127s-150.667 -46 -236 -46c-87.333 0 -158.666 24.667 -213.999 74c-26.667 24 -47.667 54.5 -63 91.5s-23 75.5 -23 115.5c0 41.333 9 90.5 27 147.5
s40.667 108.833 68 155.5c38.667 64.667 64 97 76 97c2 0 4.16699 -1.16699 6.5 -3.5s3.5 -5.16602 3.5 -8.49902c0 -8 -11 -34 -33 -78c-30 -59.333 -51.833 -109.333 -65.5 -150s-20.5 -76.667 -20.5 -108c0 -57.333 24.5 -102 73.5 -134s117.167 -48 204.5 -48
c108 0 203.667 29 287 87c62.667 43.333 94 91.333 94 144c0 13.333 -1 32.666 -3 57.999c-1.33301 11.333 -2.66602 30.666 -3.99902 57.999l-4 107l-7 141c0 16 -2.66699 74.333 -8 175l-11 192l-6 138c-7.33301 156.667 -11 237.334 -11 242.001l-4 85zM632.997 1416
c37.333 -30.667 69.334 -54.333 96.001 -71l17 -10c26 33.333 47 64.333 63 93l5 7c6 -4 9.66699 -6.66699 11 -8l19 -15c18.667 -15.333 38.667 -29.333 60 -42l21 -12c2 -1.33301 7 -4.33301 15 -9c-29.333 -30.667 -56.333 -70.334 -81 -119.001
c-34 32.667 -70.333 59.334 -109 80.001c-20 -24 -41.333 -59.667 -64 -107c-22.667 24 -55.334 50 -98.001 78l-22 15c-1.33301 0.666992 -5 3 -11 7c32.667 40 58.667 77.667 78 113zM693.998 1623l9.99902 -9c38.667 -38 76.334 -67 113.001 -87
c-17.333 -20 -31 -37.833 -41 -53.5s-23.333 -39.5 -40 -71.5c-37.333 32 -78 60.667 -122 86l-11 6l13 18c38 48.667 64 85.667 78 111z" />
    <glyph glyph-name="uni06B8.init" unicode="&#x6b8;" horiz-adv-x="431" 
d="M346 1043c-20 -15.333 -37.6621 -32.3311 -52.9951 -50.998c-18 -22 -27 -51.667 -27 -89c0 -21.333 2.16699 -52.333 6.5 -93s9.16602 -77.667 14.499 -111l16 -94l11 -80l10 -71c6.66699 -50 10 -89 10 -117c0 -76.667 -17.333 -154.667 -52 -234
c-7.33301 -16 -13.833 -27.667 -19.5 -35s-13.5 -14 -23.5 -20c-28 -18 -61 -30 -99 -36c-18 -2.66699 -41.833 -5.33398 -71.5 -8.00098s-51.5 -4 -65.5 -4c-18.667 0 -32.834 2.83301 -42.501 8.5s-14.5 13.5 -14.5 23.5v87v3l1 4c4 11.333 15.667 17 35 17l21 1h29h49
l40 2c96.667 0 145 41.333 145 124c0 19.333 -4.66699 67 -14 143l-13 105c-11.333 93.333 -21.333 167.666 -30 222.999l-19 111l-12 75l-11 59c-4.66699 23.333 -9.66699 45.333 -15 66l-6 22l92 123c5.33301 -8 8.66602 -14 9.99902 -18
c15.333 -29.333 28.666 -51.833 39.999 -67.5s30.666 -38.5 57.999 -68.5zM248.005 -153.998c18.667 -18.667 38.8291 -36.1641 60.4961 -52.4971s44.834 -31.5 69.501 -45.5c-16 -19.333 -30.167 -38.5 -42.5 -57.5s-23.5 -38.833 -33.5 -59.5
c-18 16 -36.333 31.167 -55 45.5s-37.667 26.833 -57 37.5c-13.333 -16 -26.166 -32.5 -38.499 -49.5s-22.166 -34.833 -29.499 -53.5l-60.5 48c-20.333 16 -42.833 29.333 -67.5 40l43.5 58c14.333 20 26.833 40.667 37.5 62c14 -15.333 30.333 -29.833 49 -43.5
s38.334 -25.834 59.001 -36.501c14 15.333 26.5 32.166 37.5 50.499s20.167 37.166 27.5 56.499zM197 -353.995l64.4961 -50.498c21.667 -17 44.834 -31.5 69.501 -43.5l-50 -62.5c-17.333 -21.667 -31.333 -44.167 -42 -67.5c-19.333 19.333 -39.166 37.666 -59.499 54.999
s-42.166 31.666 -65.499 42.999c34.667 38 62.334 80 83.001 126z" />
    <glyph glyph-name="uni06B8.medi" unicode="&#x6b8;" horiz-adv-x="519" 
d="M163 1068l99.998 110.998l2 -26l3 -55c1.33301 -41.333 2.66602 -69.666 3.99902 -84.999l6 -81l5 -108c4.66699 -70 10.334 -140 17.001 -210l8 -79l9 -92c7.33301 -75.333 15.5 -131.833 24.5 -169.5s20.5 -65.5 34.5 -83.5c24.667 -30.667 66 -46 124 -46h19
c21.333 0 35.833 -2 43.5 -6s11.5 -10.333 11.5 -19v-87c0 -10 -4.66699 -17.833 -14 -23.5s-22.333 -8.5 -39 -8.5c-37.333 0 -69.166 3.5 -95.499 10.5s-48.5 18.5 -66.5 34.5c-18 14 -32.833 30.333 -44.5 49s-25.167 46.667 -40.5 84l-8 21l-14 -24l-16 -32
c-30 -55.333 -61 -93 -93 -113s-79 -30 -141 -30c-14.667 0 -27 2.66699 -37 8c-12.667 8 -19 16.667 -19 26l1 85c0 6.66699 3.83301 12.334 11.5 17.001s16.834 7 27.501 7l15 1h28l32 1c28.667 0 55.667 4.83301 81 14.5s45 22.5 59 38.5
c12.667 14 21.167 30.833 25.5 50.5s6.5 50.834 6.5 93.501c0 117.333 -6.33301 241.666 -19 372.999s-29.667 249 -51 353zM302.998 -116.002c18.667 -18.667 38.8291 -36.1641 60.4961 -52.4971s44.834 -31.5 69.501 -45.5c-16 -19.333 -30.167 -38.5 -42.5 -57.5
s-23.5 -38.833 -33.5 -59.5c-18 16 -36.333 31.167 -55 45.5s-37.667 26.833 -57 37.5c-13.333 -16 -26.166 -32.5 -38.499 -49.5s-22.166 -34.833 -29.499 -53.5l-60.5 48c-20.333 16 -42.833 29.333 -67.5 40l43.5 58c14.333 20 26.833 40.667 37.5 62
c14 -15.333 30.333 -29.833 49 -43.5s38.334 -25.834 59.001 -36.501c14 15.333 26.5 32.166 37.5 50.499s20.167 37.166 27.5 56.499zM251.993 -315.999l64.4961 -50.498c21.667 -17 44.834 -31.5 69.501 -43.5l-50 -62.5c-17.333 -21.667 -31.333 -44.167 -42 -67.5
c-19.333 19.333 -39.166 37.666 -59.499 54.999s-42.166 31.666 -65.499 42.999c34.667 38 62.334 80 83.001 126z" />
    </font>
</defs>
</svg>
