<?xml version="1.0" standalone="no"?>
<!DOCTYPE svg PUBLIC "-//W3C//DTD SVG 1.1//EN" "http://www.w3.org/Graphics/SVG/1.1/DTD/svg11.dtd" >
<svg>
<metadata>
Created by FontForge 20090914 at Wed Aug 26 07:58:27 2015
 By www-data
Typeface &#194;&#169; The scict.ir Corporation plc. Data &#194;&#169; The scict.ir Corporation plc/Type Solutions Inc. 2012-2013. All Rights Reserved - Modify by Hossein Zahedi.
</metadata>
<defs>
<font id="IRMitra-Italic" horiz-adv-x="0" >
  <font-face 
    font-family="IRMitra"
    font-weight="400"
    font-style="italic"
    font-stretch="normal"
    units-per-em="2048"
    panose-1="2 0 5 6 0 0 0 9 0 2"
    ascent="1638"
    descent="-410"
    x-height="774"
    cap-height="1146"
    bbox="-632 -1081 2188.95 1831"
    underline-thickness="60"
    underline-position="-670"
    unicode-range="U+0020-U+FFFC"
  />
<missing-glyph horiz-adv-x="496" 
 />
    <glyph glyph-name="afii64184" unicode="&#xfedf;&#xfee0;&#x651;&#x670;&#xfeea;" horiz-adv-x="1421" arabic-form="isolated" 
d="M1297 263c4.66699 -39.333 3.83105 -75.167 -2.50195 -107.5s-17 -60 -32 -83s-34 -40.833 -57 -53.5s-48.833 -19 -77.5 -19c-32.667 0 -66.334 12 -101.001 36c-18 13.333 -34.167 28 -48.5 44s-26.833 34.667 -37.5 56c-52.667 -108.667 -130.334 -163 -233.001 -163
c-124 0 -210.667 93.667 -260 281l-86 -110c-150.667 0 -262.334 32.333 -335.001 97c2 51.333 12.667 112.666 32 183.999c30.667 30 73.334 56.833 128.001 80.5s121.334 44.834 200.001 63.501l-21 102l73 95c2.66699 -33.333 8 -75.666 16 -126.999
s19.667 -112.333 35 -183c16 -73.333 31.833 -134 47.5 -182s31.834 -83.667 48.501 -107c25.333 -36.667 64 -55 116 -55c63.333 0 126.333 34.333 189 103c-13.333 38.667 -31.666 97.5 -54.999 176.5l-86 301.5l74 120c34 -146.667 63.667 -266.334 89 -359.001
s46.333 -159.334 63 -200.001c32.667 -76.667 77.667 -115 135 -115c48.667 0 89.334 20.333 122.001 61c-5.33301 12.667 -15.5 40.5 -30.5 83.5l-60.5 174.5l-60.5 191.5c-17 53 -29.167 95.5 -36.5 127.5l59 138c19.333 -87.333 44.833 -185.166 76.5 -293.499
s70.5 -227.833 116.5 -358.5zM443.997 269.999c-3.33301 10 -6.83398 22.832 -10.501 38.499s-7.83398 34.834 -12.501 57.501c-6 27.333 -10.667 50.5 -14 69.5s-5.66602 34.167 -6.99902 45.5c-52.667 -8 -104 -25.333 -154 -52c-30.667 -15.333 -55.667 -31 -75 -47
s-34 -32.667 -44 -50c26.667 -41.333 132.334 -62 317.001 -62zM863.996 1027c19.333 -85.333 -1.66797 -128 -63.001 -128c-30 0 -53 24.333 -69 73l-5 -2c4 -79.333 -20 -119 -72 -119c-14 0 -26.5 2.83301 -37.5 8.5s-21 15.334 -30 29.001s-17.167 32 -24.5 55
s-14.666 51.833 -21.999 86.5l49 21l15 -72c10 -32.667 24.667 -49 44 -49c36 0 46.667 34.333 32 103c-1.33301 7.33301 -2.66602 14 -3.99902 20s-3.33301 11 -6 15l49 21c15.333 -74.667 37.666 -112 66.999 -112c22 0 27.667 25 17 75
c0 1.33301 -1.33301 7.16602 -4 17.499l-12 44.5l54 19zM654.995 1114c-21.333 97.333 -59.999 177.667 -115.999 241l51 58c41.333 -44.667 75.666 -130 102.999 -256z" />
    <glyph glyph-name="afii62834" unicode="&#xfedf;&#xfe82;" horiz-adv-x="1075" arabic-form="isolated" 
d="M740 999c32 -290 17.333 -515.335 -44 -676.002c28.667 -35.333 51 -67 67 -95s26.333 -51.667 31 -71c8.66699 -42 11 -88.333 7 -139c-18 -3.33301 -42.333 -6.66602 -73 -9.99902s-67.334 -6.66602 -110.001 -9.99902c-48.667 -4.66699 -88.667 -7.5 -120 -8.5
s-54 -1.16699 -68 -0.5c8.66699 36.667 7.33398 84.334 -3.99902 143.001c68.667 32 128.334 93.667 179.001 185c-32 41.333 -71.833 85.666 -119.5 132.999s-103.834 98.666 -168.501 153.999c-112 93.333 -204.667 161.333 -278 204l-28 -34l-164 111
c-9.33301 42.667 -15 80.667 -17 114s-0.333008 62 5 86c99.333 -61.333 188.5 -119.833 267.5 -175.5s147.833 -109.5 206.5 -161.5c108.667 -96 217.667 -213 327 -351c36 110 30.667 362.333 -16 757l113 88c12 -59.333 43.333 -155.666 94 -288.999zM728 142.998
c-10 22 -20.668 42.332 -32.001 60.999s-23.666 35.334 -36.999 50.001c-18 -28 -36.5 -52.5 -55.5 -73.5s-37.833 -39.167 -56.5 -54.5l1 -5c72 0 132 7.33301 180 22zM28.999 1283c-44.667 -43.333 -111 -65.001 -199 -65.001c-40 0 -65.667 0.666992 -77 2
c-8 -23.333 -10.333 -50 -7 -80c-28.667 0 -46 1.33301 -52 4c-12.667 60.667 -13 115.334 -1 164.001c35.333 -8.66699 83 -13 143 -13c75.333 0 135.333 17.333 180 52z" />
    <glyph glyph-name="afii62835" unicode="&#xfee0;&#xfe82;" horiz-adv-x="1202" arabic-form="final" 
d="M1233 24c2.66699 -16 -4 -24.0029 -20 -24.0029h-20c-65.333 0 -119.666 21.667 -162.999 65c-48.667 48.667 -88 128.334 -118 239.001l-86 313c-22.667 84 -39 148.333 -49 193h-3c-14 -272.667 -37.333 -454.334 -70 -545.001c-16 -44 -41.333 -87.667 -76 -131
s-79.667 -86.666 -135 -129.999c-109.333 -22 -196 -33 -260 -33h-203l-3 9c60.667 12.667 149.667 46.334 267 101.001c68 32 125.167 63 171.5 93s83.166 59.667 110.499 89c-57.333 166.667 -217.666 353.667 -480.999 561l-23 -38l-156 119
c-20 94.667 -24.333 172 -13 232c126 -100.667 231.5 -188.5 316.5 -263.5s150.167 -138.5 195.5 -190.5c44 -50 83.333 -104.167 118 -162.5s64 -121.833 88 -190.5c16.667 31.333 30.667 73.333 42 126s20.666 116.334 27.999 191.001
c15.333 158.667 15.333 309.334 0 452.001l74 143c32 -140.667 68.333 -289.834 109 -447.501l136 -504.5c28.667 -100.667 79.667 -151 153 -151h20c16.667 0 27 -9.66699 31 -29l19 -86v0zM113 1336c-44.667 -43.333 -111 -65.001 -199 -65.001
c-40 0 -65.667 0.666992 -77 2c-8 -23.333 -10.333 -50 -7 -80c-28.667 0 -46 1.33301 -52 4c-12.667 60.667 -13 115.334 -1 164.001c35.333 -8.66699 83 -13 143 -13c75.333 0 135.333 17.333 180 52z" />
    <glyph glyph-name="afii62836" unicode="&#xfedf;&#xfe84;" horiz-adv-x="1075" arabic-form="isolated" 
d="M740 999c32 -290 17.333 -515.335 -44 -676.002c28.667 -35.333 51 -67 67 -95s26.333 -51.667 31 -71c8.66699 -42 11 -88.333 7 -139c-18 -3.33301 -42.333 -6.66602 -73 -9.99902s-67.334 -6.66602 -110.001 -9.99902c-48.667 -4.66699 -88.667 -7.5 -120 -8.5
s-54 -1.16699 -68 -0.5c8.66699 36.667 7.33398 84.334 -3.99902 143.001c68.667 32 128.334 93.667 179.001 185c-32 41.333 -71.833 85.666 -119.5 132.999s-103.834 98.666 -168.501 153.999c-112 93.333 -204.667 161.333 -278 204l-28 -34l-164 111
c-9.33301 42.667 -15 80.667 -17 114s-0.333008 62 5 86c99.333 -61.333 188.5 -119.833 267.5 -175.5s147.833 -109.5 206.5 -161.5c108.667 -96 217.667 -213 327 -351c36 110 30.667 362.333 -16 757l113 88c12 -59.333 43.333 -155.666 94 -288.999zM728 142.998
c-10 22 -20.668 42.332 -32.001 60.999s-23.666 35.334 -36.999 50.001c-18 -28 -36.5 -52.5 -55.5 -73.5s-37.833 -39.167 -56.5 -54.5l1 -5c72 0 132 7.33301 180 22zM-29.001 1247c-15.333 -2 -34.3291 -6.5 -56.9961 -13.5s-46 -15.333 -70 -25
s-47.333 -20.167 -70 -31.5s-41.334 -22.333 -56.001 -33l-13 63c10 6 22.167 12.667 36.5 20s30.166 13.333 47.499 18v3c-56.667 18 -90 51 -100 99c19.333 42 40.166 73.333 62.499 94s47.5 31 75.5 31c33.333 0 65.666 -18.667 96.999 -56l-43 -42
c-14.667 12 -28.334 20.667 -41.001 26s-23 8 -31 8c-12 0 -23.5 -4.33301 -34.5 -13s-21.167 -22.667 -30.5 -42c27.333 -41.333 65 -63 113 -65c16.667 4.66699 34.834 10.167 54.501 16.5s41.5 11.5 65.5 15.5l-6 -73v0z" />
    <glyph glyph-name="afii62837" unicode="&#xfee0;&#xfe84;" horiz-adv-x="1202" arabic-form="final" 
d="M1233 24c2.66699 -16 -4 -24.0029 -20 -24.0029h-20c-65.333 0 -119.666 21.667 -162.999 65c-48.667 48.667 -88 128.334 -118 239.001l-86 313c-22.667 84 -39 148.333 -49 193h-3c-14 -272.667 -37.333 -454.334 -70 -545.001c-16 -44 -41.333 -87.667 -76 -131
s-79.667 -86.666 -135 -129.999c-109.333 -22 -196 -33 -260 -33h-203l-3 9c60.667 12.667 149.667 46.334 267 101.001c68 32 125.167 63 171.5 93s83.166 59.667 110.499 89c-57.333 166.667 -217.666 353.667 -480.999 561l-23 -38l-156 119
c-20 94.667 -24.333 172 -13 232c126 -100.667 231.5 -188.5 316.5 -263.5s150.167 -138.5 195.5 -190.5c44 -50 83.333 -104.167 118 -162.5s64 -121.833 88 -190.5c16.667 31.333 30.667 73.333 42 126s20.666 116.334 27.999 191.001
c15.333 158.667 15.333 309.334 0 452.001l74 143c32 -140.667 68.333 -289.834 109 -447.501l136 -504.5c28.667 -100.667 79.667 -151 153 -151h20c16.667 0 27 -9.66699 31 -29l19 -86v0zM6 1299c-15.333 -2 -34.3291 -6.5 -56.9961 -13.5s-46 -15.333 -70 -25
s-47.333 -20.167 -70 -31.5s-41.334 -22.333 -56.001 -33l-13 63c10 6 22.167 12.667 36.5 20s30.166 13.333 47.499 18v3c-56.667 18 -90 51 -100 99c19.333 42 40.166 73.333 62.499 94s47.5 31 75.5 31c33.333 0 65.666 -18.667 96.999 -56l-43 -42
c-14.667 12 -28.334 20.667 -41.001 26s-23 8 -31 8c-12 0 -23.5 -4.33301 -34.5 -13s-21.167 -22.667 -30.5 -42c27.333 -41.333 65 -63 113 -65c16.667 4.66699 34.834 10.167 54.501 16.5s41.5 11.5 65.5 15.5l-6 -73v0z" />
    <glyph glyph-name="afii62838" unicode="&#xfedf;&#xfe88;" horiz-adv-x="1075" arabic-form="isolated" 
d="M740 999c32 -290 17.333 -515.335 -44 -676.002c28.667 -35.333 51 -67 67 -95s26.333 -51.667 31 -71c8.66699 -42 11 -88.333 7 -139c-18 -3.33301 -42.333 -6.66602 -73 -9.99902s-67.334 -6.66602 -110.001 -9.99902c-48.667 -4.66699 -88.667 -7.5 -120 -8.5
s-54 -1.16699 -68 -0.5c8.66699 36.667 7.33398 84.334 -3.99902 143.001c68.667 32 128.334 93.667 179.001 185c-32 41.333 -71.833 85.666 -119.5 132.999s-103.834 98.666 -168.501 153.999c-112 93.333 -204.667 161.333 -278 204l-28 -34l-164 111
c-9.33301 42.667 -15 80.667 -17 114s-0.333008 62 5 86c99.333 -61.333 188.5 -119.833 267.5 -175.5s147.833 -109.5 206.5 -161.5c108.667 -96 217.667 -213 327 -351c36 110 30.667 362.333 -16 757l113 88c12 -59.333 43.333 -155.666 94 -288.999zM728 142.998
c-10 22 -20.668 42.332 -32.001 60.999s-23.666 35.334 -36.999 50.001c-18 -28 -36.5 -52.5 -55.5 -73.5s-37.833 -39.167 -56.5 -54.5l1 -5c72 0 132 7.33301 180 22zM700.999 -343.003c-15.333 -2 -34.3291 -6.5 -56.9961 -13.5s-46 -15.333 -70 -25
s-47.333 -20.167 -70 -31.5s-41.334 -22.333 -56.001 -33l-13 63c10 6 22.167 12.667 36.5 20s30.166 13.333 47.499 18v3c-56.667 18 -90 51 -100 99c19.333 42 40.166 73.333 62.499 94s47.5 31 75.5 31c33.333 0 65.666 -18.667 96.999 -56l-43 -42
c-14.667 12 -28.334 20.667 -41.001 26s-23 8 -31 8c-12 0 -23.5 -4.33301 -34.5 -13s-21.167 -22.667 -30.5 -42c27.333 -41.333 65 -63 113 -65c16.667 4.66699 34.834 10.167 54.501 16.5s41.5 11.5 65.5 15.5l-6 -73v0z" />
    <glyph glyph-name="afii62839" unicode="&#xfee0;&#xfe88;" horiz-adv-x="1202" arabic-form="final" 
d="M1233 24c2.66699 -16 -4 -24.0029 -20 -24.0029h-20c-65.333 0 -119.666 21.667 -162.999 65c-48.667 48.667 -88 128.334 -118 239.001l-86 313c-22.667 84 -39 148.333 -49 193h-3c-14 -272.667 -37.333 -454.334 -70 -545.001c-16 -44 -41.333 -87.667 -76 -131
s-79.667 -86.666 -135 -129.999c-109.333 -22 -196 -33 -260 -33h-203l-3 9c60.667 12.667 149.667 46.334 267 101.001c68 32 125.167 63 171.5 93s83.166 59.667 110.499 89c-57.333 166.667 -217.666 353.667 -480.999 561l-23 -38l-156 119
c-20 94.667 -24.333 172 -13 232c126 -100.667 231.5 -188.5 316.5 -263.5s150.167 -138.5 195.5 -190.5c44 -50 83.333 -104.167 118 -162.5s64 -121.833 88 -190.5c16.667 31.333 30.667 73.333 42 126s20.666 116.334 27.999 191.001
c15.333 158.667 15.333 309.334 0 452.001l74 143c32 -140.667 68.333 -289.834 109 -447.501l136 -504.5c28.667 -100.667 79.667 -151 153 -151h20c16.667 0 27 -9.66699 31 -29l19 -86v0zM457 -384.003c-15.333 -2 -34.3291 -6.5 -56.9961 -13.5s-46 -15.333 -70 -25
s-47.333 -20.167 -70 -31.5s-41.334 -22.333 -56.001 -33l-13 63c10 6 22.167 12.667 36.5 20s30.166 13.333 47.499 18v3c-56.667 18 -90 51 -100 99c19.333 42 40.166 73.333 62.499 94s47.5 31 75.5 31c33.333 0 65.666 -18.667 96.999 -56l-43 -42
c-14.667 12 -28.334 20.667 -41.001 26s-23 8 -31 8c-12 0 -23.5 -4.33301 -34.5 -13s-21.167 -22.667 -30.5 -42c27.333 -41.333 65 -63 113 -65c16.667 4.66699 34.834 10.167 54.501 16.5s41.5 11.5 65.5 15.5l-6 -73v0z" />
    <glyph glyph-name="afii62840" unicode="&#xfedf;&#xfe8e;" horiz-adv-x="1075" arabic-form="isolated" 
d="M740 999c32 -290 17.333 -515.335 -44 -676.002c28.667 -35.333 51 -67 67 -95s26.333 -51.667 31 -71c8.66699 -42 11 -88.333 7 -139c-18 -3.33301 -42.333 -6.66602 -73 -9.99902s-67.334 -6.66602 -110.001 -9.99902c-48.667 -4.66699 -88.667 -7.5 -120 -8.5
s-54 -1.16699 -68 -0.5c8.66699 36.667 7.33398 84.334 -3.99902 143.001c68.667 32 128.334 93.667 179.001 185c-32 41.333 -71.833 85.666 -119.5 132.999s-103.834 98.666 -168.501 153.999c-112 93.333 -204.667 161.333 -278 204l-28 -34l-164 111
c-9.33301 42.667 -15 80.667 -17 114s-0.333008 62 5 86c99.333 -61.333 188.5 -119.833 267.5 -175.5s147.833 -109.5 206.5 -161.5c108.667 -96 217.667 -213 327 -351c36 110 30.667 362.333 -16 757l113 88c12 -59.333 43.333 -155.666 94 -288.999zM728 142.998
c-10 22 -20.668 42.332 -32.001 60.999s-23.666 35.334 -36.999 50.001c-18 -28 -36.5 -52.5 -55.5 -73.5s-37.833 -39.167 -56.5 -54.5l1 -5c72 0 132 7.33301 180 22z" />
    <glyph glyph-name="afii62841" unicode="&#xfee0;&#xfe8e;" horiz-adv-x="1202" arabic-form="final" 
d="M1233 24c2.66699 -16 -4 -24.0029 -20 -24.0029h-20c-65.333 0 -119.666 21.667 -162.999 65c-48.667 48.667 -88 128.334 -118 239.001l-86 313c-22.667 84 -39 148.333 -49 193h-3c-14 -272.667 -37.333 -454.334 -70 -545.001c-16 -44 -41.333 -87.667 -76 -131
s-79.667 -86.666 -135 -129.999c-109.333 -22 -196 -33 -260 -33h-203l-3 9c60.667 12.667 149.667 46.334 267 101.001c68 32 125.167 63 171.5 93s83.166 59.667 110.499 89c-57.333 166.667 -217.666 353.667 -480.999 561l-23 -38l-156 119
c-20 94.667 -24.333 172 -13 232c126 -100.667 231.5 -188.5 316.5 -263.5s150.167 -138.5 195.5 -190.5c44 -50 83.333 -104.167 118 -162.5s64 -121.833 88 -190.5c16.667 31.333 30.667 73.333 42 126s20.666 116.334 27.999 191.001
c15.333 158.667 15.333 309.334 0 452.001l74 143c32 -140.667 68.333 -289.834 109 -447.501l136 -504.5c28.667 -100.667 79.667 -151 153 -151h20c16.667 0 27 -9.66699 31 -29l19 -86v0z" />
    <glyph glyph-name="uni0672.fina" unicode="&#x672;" horiz-adv-x="400" 
d="M431 24c4 -16 -2.66895 -24 -20.002 -24h-20c-87.333 -0 -153 29.333 -197 88c-47.333 62 -90 183 -128 363c-13.333 60.667 -28.5 123 -45.5 187s-36.167 130.667 -57.5 200c-21.333 70 -40.666 127.833 -57.999 173.5s-32.666 81.167 -45.999 106.5l78 124
c63.333 -142 132 -386.333 206 -733c16 -77.333 31.5 -141 46.5 -191s29.833 -86.667 44.5 -110c26 -46 68.333 -69 127 -69h20c16 0 26.667 -9.66699 32 -29l18 -86v0zM-93.002 1467c2 1.33301 -3.33203 7.33008 -15.999 17.9971s-25.667 18 -39 22
c-9.33301 2 -21 -1.16699 -35 -9.5s-21.667 -20.833 -23 -37.5c8.66699 -18 20.5 -31 35.5 -39s32 -12.833 51 -14.5s38 -1 57 2s35.833 6.83301 50.5 11.5c6.66699 1.33301 9.16699 -2.5 7.5 -11.5s-4.83398 -20.833 -9.50098 -35.5
c-25.333 -22 -71.166 -35.5 -137.499 -40.5s-102.166 -21.167 -107.499 -48.5c-6 -2 -9.5 1.83301 -10.5 11.5s-0.833008 17.167 0.5 22.5c4.66699 23.333 23.167 36.833 55.5 40.5s54.5 8.83398 66.5 15.501c-14.667 0.666992 -32.834 6.16699 -54.501 16.5
s-33.834 29.833 -36.501 58.5c-4 22 -2 42 6 60s19.5 31.833 34.5 41.5s33.5 13.334 55.5 11.001s45 -12.833 69 -31.5c8 -9.33301 9.66699 -19.166 5 -29.499s-13 -21.5 -25 -33.5z" />
    <glyph glyph-name="uni0673.fina" unicode="&#x673;" horiz-adv-x="400" 
d="M431 24c4 -16 -2.66895 -24 -20.002 -24h-20c-87.333 -0 -153 29.333 -197 88c-47.333 62 -90 183 -128 363c-13.333 60.667 -28.5 123 -45.5 187s-36.167 130.667 -57.5 200c-21.333 70 -40.666 127.833 -57.999 173.5s-32.666 81.167 -45.999 106.5l78 124
c63.333 -142 132 -386.333 206 -733c16 -77.333 31.5 -141 46.5 -191s29.833 -86.667 44.5 -110c26 -46 68.333 -69 127 -69h20c16 0 26.667 -9.66699 32 -29l18 -86v0zM351.998 -214c2 1.33301 -3.33203 7.33008 -15.999 17.9971s-25.667 18 -39 22
c-9.33301 2 -21 -1.16699 -35 -9.5s-21.667 -20.833 -23 -37.5c8.66699 -18 20.5 -31 35.5 -39s32 -12.833 51 -14.5s38 -1 57 2s35.833 6.83301 50.5 11.5c6.66699 1.33301 9.16699 -2.5 7.5 -11.5s-4.83398 -20.833 -9.50098 -35.5
c-25.333 -22 -71.166 -35.5 -137.499 -40.5s-102.166 -21.167 -107.499 -48.5c-6 -2 -9.5 1.83301 -10.5 11.5s-0.833008 17.167 0.5 22.5c4.66699 23.333 23.167 36.833 55.5 40.5s54.5 8.83398 66.5 15.501c-14.667 0.666992 -32.834 6.16699 -54.501 16.5
s-33.834 29.833 -36.501 58.5c-4 22 -2 42 6 60s19.5 31.833 34.5 41.5s33.5 13.334 55.5 11.001s45 -12.833 69 -31.5c8 -9.33301 9.66699 -19.166 5 -29.499s-13 -21.5 -25 -33.5z" />
    <glyph glyph-name="uni0675.fina" unicode="&#x675;" horiz-adv-x="400" 
d="M431 24c4 -16 -2.66895 -24 -20.002 -24h-20c-87.333 -0 -153 29.333 -197 88c-47.333 62 -90 183 -128 363c-13.333 60.667 -28.5 123 -45.5 187s-36.167 130.667 -57.5 200c-21.333 70 -40.666 127.833 -57.999 173.5s-32.666 81.167 -45.999 106.5l78 124
c63.333 -142 132 -386.333 206 -733c16 -77.333 31.5 -141 46.5 -191s29.833 -86.667 44.5 -110c26 -46 68.333 -69 127 -69h20c16 0 26.667 -9.66699 32 -29l18 -86v0zM11.998 1361c-15.333 -2 -34.3291 -6.5 -56.9961 -13.5s-46 -15.333 -70 -25
s-47.333 -20.167 -70 -31.5s-41.334 -22.333 -56.001 -33l-13 63c10 6 22.167 12.667 36.5 20s30.166 13.333 47.499 18v3c-56.667 18 -90 51 -100 99c19.333 42 40.166 73.333 62.499 94s47.5 31 75.5 31c33.333 0 65.666 -18.667 96.999 -56l-43 -42
c-14.667 12 -28.334 20.667 -41.001 26s-23 8 -31 8c-12 0 -23.5 -4.33301 -34.5 -13s-21.167 -22.667 -30.5 -42c27.333 -41.333 65 -63 113 -65c16.667 4.66699 34.834 10.167 54.501 16.5s41.5 11.5 65.5 15.5l-6 -73v0z" />
    <glyph glyph-name="uni0676.fina" unicode="&#x676;" horiz-adv-x="645" 
d="M676 24c2.66699 -16 -3.99707 -24 -19.9971 -24h-73c3.33301 -99.333 -12.334 -192.5 -47.001 -279.5s-90 -168.5 -166 -244.5c-85.333 5.33301 -165 29.666 -239 72.999c138 80 239.667 165 305 255c51.333 72.667 74 140.334 68 203.001
c-13.333 -2.66699 -27.833 -4.5 -43.5 -5.5s-32.167 -1.5 -49.5 -1.5c-40.667 0 -90.334 6.66699 -149.001 20l-67 18c-19.333 5.33301 -35 11 -47 17c-12 30.667 -19 52.667 -21 66c-34 186 8 314.333 126 385c151.333 -40.667 253.666 -163 306.999 -367h66
c16.667 0 27 -9.66699 31 -29zM480.003 146c-6.66699 24 -17.498 47.667 -32.498 71s-33.833 46.666 -56.5 69.999c-22 22.667 -44.5 39.834 -67.5 51.501s-46.5 19.167 -70.5 22.5c-43.333 -45.333 -57 -106 -41 -182c25.333 -14 54 -24.167 86 -30.5s67 -9.5 105 -9.5
c9.33301 0 20.666 0.5 33.999 1.5s27.666 2.83301 42.999 5.5zM356.005 707c-15.333 -2 -34.3291 -6.5 -56.9961 -13.5s-46 -15.333 -70 -25s-47.333 -20.167 -70 -31.5s-41.334 -22.333 -56.001 -33l-13 63c10 6 22.167 12.667 36.5 20s30.166 13.333 47.499 18v3
c-56.667 18 -90 51 -100 99c19.333 42 40.166 73.333 62.499 94s47.5 31 75.5 31c33.333 0 65.666 -18.667 96.999 -56l-43 -42c-14.667 12 -28.334 20.667 -41.001 26s-23 8 -31 8c-12 0 -23.5 -4.33301 -34.5 -13s-21.167 -22.667 -30.5 -42
c27.333 -41.333 65 -63 113 -65c16.667 4.66699 34.834 10.167 54.501 16.5s41.5 11.5 65.5 15.5l-6 -73v0z" />
    <glyph glyph-name="uni0677.fina" unicode="&#x677;" horiz-adv-x="645" 
d="M676 24c2.66699 -16 -3.99707 -24 -19.9971 -24h-73c3.33301 -99.333 -12.334 -192.5 -47.001 -279.5s-90 -168.5 -166 -244.5c-85.333 5.33301 -165 29.666 -239 72.999c138 80 239.667 165 305 255c51.333 72.667 74 140.334 68 203.001
c-13.333 -2.66699 -27.833 -4.5 -43.5 -5.5s-32.167 -1.5 -49.5 -1.5c-40.667 0 -90.334 6.66699 -149.001 20l-67 18c-19.333 5.33301 -35 11 -47 17c-12 30.667 -19 52.667 -21 66c-34 186 8 314.333 126 385c151.333 -40.667 253.666 -163 306.999 -367h66
c16.667 0 27 -9.66699 31 -29zM480.003 146c-6.66699 24 -17.498 47.667 -32.498 71s-33.833 46.666 -56.5 69.999c-22 22.667 -44.5 39.834 -67.5 51.501s-46.5 19.167 -70.5 22.5c-43.333 -45.333 -57 -106 -41 -182c25.333 -14 54 -24.167 86 -30.5s67 -9.5 105 -9.5
c9.33301 0 20.666 0.5 33.999 1.5s27.666 2.83301 42.999 5.5zM434.797 691.386c-13.5186 -1.76367 -30.2734 -5.7334 -50.2568 -11.9082c-19.9844 -6.17383 -40.5566 -13.5234 -61.7158 -22.0498s-41.7314 -17.7881 -61.7158 -27.7842s-36.4414 -19.6982 -49.3721 -29.1064
l-11.4619 55.5674c8.81641 5.29199 19.543 11.1719 32.1807 17.6396c12.6367 6.46777 26.5957 11.7598 41.8779 15.876v2.64648c-49.96 15.876 -79.3486 44.9824 -88.165 87.3193c17.0459 37.0449 35.4141 64.6816 55.1045 82.9102s41.8789 27.3428 66.5654 27.3428
c29.3887 0 57.8955 -16.4648 85.5205 -49.3936l-37.9111 -37.0449c-12.9307 10.585 -24.9795 18.2295 -36.1465 22.9336c-11.168 4.7041 -20.2783 7.05664 -27.332 7.05664c-10.5791 0 -20.7178 -3.82227 -30.416 -11.4668
c-9.69824 -7.64355 -18.6611 -19.9922 -26.8896 -37.0449c24.0986 -36.4561 57.3076 -55.5664 99.627 -57.3311c14.6943 4.11621 30.7109 8.96777 48.0498 14.5547c17.3389 5.58594 36.5879 10.1426 57.7471 13.6709l-5.29004 -64.3877v0zM80.5947 720.468
c-28.2656 -60.0752 -84.5352 -105.643 -168.809 -136.698l-15.7031 71.0215c34.0234 5.60059 61.7656 15.2734 83.2266 29.0195s38.2109 30.292 50.25 49.6387c-21.9844 6.61816 -41.4824 14.1279 -58.4941 22.5283s-32.3223 18.4551 -45.9316 30.165
c-1.57031 20.3643 -0.261719 39.3291 3.92578 56.8936s10.7305 32.583 19.6289 45.0566s20.1523 22.2744 33.7617 29.4023s29.0508 10.6914 46.3242 10.6914c30.8828 -12.2188 51.0352 -40.2197 60.457 -84.0039c4.71094 -19.8555 4.97266 -45.5654 0.785156 -77.1309
c8.375 -3.56348 16.2266 -6.49121 23.5547 -8.78223s14.1328 -3.94531 20.4141 -4.96387l12.5625 -58.0391zM55.4697 818.979c-5.75781 26.9834 -18.582 43.5293 -38.4727 49.6387c-32.9766 0 -50.25 -19.6006 -51.8203 -58.8027
c9.42188 -7.12793 21.4609 -14.001 36.1172 -20.6191s31.4062 -12.9824 50.25 -19.0918c4.1875 7.12793 6.41211 14.7646 6.67383 22.9102s-0.654297 16.8008 -2.74805 25.9648z" />
    <glyph glyph-name="uni0678.fina" unicode="&#x678;" horiz-adv-x="1126" 
d="M1157 24c4 -16 -3.33008 -24.0039 -21.9971 -24.0039h-146c-97.333 0 -158.333 -23.333 -183 -70c13.333 -8 29.833 -15.333 49.5 -22s42.5 -12.667 68.5 -18c33.333 -7.33301 61.333 -14.166 84 -20.499s41 -13.333 55 -21s24.5 -16.167 31.5 -25.5
s12.167 -20.666 15.5 -33.999l3 -31.5c1.33301 -14.333 2 -32.5 2 -54.5c2 -47.333 1 -80 -3 -98c-34 -17.333 -72.5 -33.666 -115.5 -48.999s-91.5 -29 -145.5 -41c-58 -13.333 -114.167 -23.166 -168.5 -29.499s-107.833 -9.5 -160.5 -9.5
c-52 0 -100.167 5.83301 -144.5 17.5s-84.833 29.834 -121.5 54.501c-77.333 51.333 -125.333 122.333 -144 213c-11.333 52.667 -12.833 112.167 -4.5 178.5s27.166 139.166 56.499 218.499c10 0 20.667 -2.16699 32 -6.5s23 -11.833 35 -22.5
c-15.333 -40 -25 -89 -29 -147c-2.66699 -27.333 -3.33398 -52.166 -2.00098 -74.499s3.66602 -42.5 6.99902 -60.5c15.333 -68.667 50.5 -122.834 105.5 -162.501s126.167 -59.5 213.5 -59.5c98.667 0 204 9 316 27c50 7.33301 93.5 15 130.5 23s68.167 16.667 93.5 26
c-13.333 33.333 -62.666 58 -147.999 74c-66.667 12.667 -123 32 -169 58c-2 32 -3 65.167 -3 99.5s0.666992 69.5 2 105.5c49.333 67.333 126 101 230 101h127c17.333 0 28.666 -9.66699 33.999 -29l18 -86v0zM509.003 408.996c-15.333 -2 -34.3291 -6.5 -56.9961 -13.5
s-46 -15.333 -70 -25s-47.333 -20.167 -70 -31.5s-41.334 -22.333 -56.001 -33l-13 63c10 6 22.167 12.667 36.5 20s30.166 13.333 47.499 18v3c-56.667 18 -90 51 -100 99c19.333 42 40.166 73.333 62.499 94s47.5 31 75.5 31c33.333 0 65.666 -18.667 96.999 -56l-43 -42
c-14.667 12 -28.334 20.667 -41.001 26s-23 8 -31 8c-12 0 -23.5 -4.33301 -34.5 -13s-21.167 -22.667 -30.5 -42c27.333 -41.333 65 -63 113 -65c16.667 4.66699 34.834 10.167 54.501 16.5s41.5 11.5 65.5 15.5l-6 -73v0z" />
    <glyph glyph-name="uni067C.init" unicode="&#x67c;" horiz-adv-x="344" 
d="M260 275c2.66699 -80 -17.667 -145.33 -61 -195.997c-47.333 -52.667 -110.666 -79 -189.999 -79h-20c-16.667 0 -26.334 8 -29.001 24l-19 86c-4 19.333 2.33301 29 19 29h46c98.667 0 156.667 33 174 99c-10 25.333 -25 50.166 -45 74.499s-44.667 48.166 -74 71.499
l37 175c38 -46.667 70.5 -93.334 97.5 -140.001s48.5 -94.667 64.5 -144zM126.999 684.003l-144 101l87 110l140 -103zM-111.001 664.003l-140 99l86 110l139 -103zM312.999 -137.997c3.33301 -19.333 3.00391 -41.333 -0.996094 -66
c-32.667 -41.333 -70.334 -62 -113.001 -62c-34 0 -63.333 9.33301 -88 28s-40.334 42.667 -47.001 72c-4.66699 22.667 -2.83398 52.334 5.49902 89.001s24.166 80 47.499 130c114.667 -52.667 180 -116.334 196 -191.001zM269.003 -148.997
c-21.333 49.333 -65.667 87.333 -133 114c-24.667 -48.667 -34 -84 -28 -106c6 -28 33 -42 81 -42c37.333 0 64 11.333 80 34z" />
    <glyph glyph-name="uni067C.medi" unicode="&#x67c;" horiz-adv-x="501" 
d="M-59 110c-2 11.333 -1.83105 19 0.501953 23s8.5 6 18.5 6h20c18 0 38.667 1.83301 62 5.5s44.5 11.667 63.5 24s33.333 30.5 43 54.5s10.167 56.667 1.5 98l-7 30c2 3.33301 5.5 5.5 10.5 6.5s10.833 1.5 17.5 1.5c7.33301 0 13.166 -0.666992 17.499 -2
s10.166 -4 17.499 -8l7 -30c8 -37.333 17.833 -67.666 29.5 -90.999s27.167 -41.666 46.5 -54.999s43 -22.333 71 -27s62 -7 102 -7h20c10 0 17.167 -2 21.5 -6s7.5 -11.667 9.5 -23l19 -86c2.66699 -16 -4 -24 -20 -24h-20c-41.333 0 -77.666 3.83301 -108.999 11.5
s-58.166 17.667 -80.499 30s-40 26.166 -53 41.499s-21.833 30.666 -26.5 45.999h-8c0 -20 -5 -37.833 -15 -53.5s-22.833 -29.167 -38.5 -40.5s-33.334 -20 -53.001 -26s-39.167 -9 -58.5 -9h-61c-16.667 0 -26.334 8 -29.001 24l-19 86v0zM284.002 565l-144 101l87 110
l140 -103zM46.002 545l-140 99l86 110l139 -103zM300.002 -103c3.33301 -19.333 3.00391 -41.333 -0.996094 -66c-32.667 -41.333 -70.334 -62 -113.001 -62c-34 0 -63.333 9.33301 -88 28s-40.334 42.667 -47.001 72c-4.66699 22.667 -2.83398 52.334 5.49902 89.001
s24.166 80 47.499 130c114.667 -52.667 180 -116.334 196 -191.001zM256.006 -114c-21.333 49.333 -65.667 87.333 -133 114c-24.667 -48.667 -34 -84 -28 -106c6 -28 33 -42 81 -42c37.333 0 64 11.333 80 34z" />
    <glyph glyph-name="uni067C.fina" unicode="&#x67c;" horiz-adv-x="1348" 
d="M1379 24c2.66699 -16 -4.66895 -24.0049 -22.002 -24.0049h-18c-52 0 -96 12.667 -132 38c-15.333 12 -28.166 25.5 -38.499 40.5s-17.5 31.833 -21.5 50.5c-2 8.66699 -3.5 17 -4.5 25s-0.833008 16.667 0.5 26c-30.667 -27.333 -67.667 -52.166 -111 -74.499
s-92.666 -42.5 -147.999 -60.5c-59.333 -19.333 -119.666 -33.5 -180.999 -42.5s-124.333 -13.5 -189 -13.5c-70 0 -133.333 6.33301 -190 19s-107.334 32.334 -152.001 59.001c-80 48 -128 111 -144 189c-17.333 80 -3.33301 176.667 42 290c0 1.33301 3.66699 2 11 2
c16.667 0 32.667 -10.333 48 -31c-12.667 -33.333 -20.5 -65.166 -23.5 -95.499s-1.83301 -59.166 3.5 -86.499c6 -29.333 20.333 -56 43 -80s52 -44.667 88 -62s78.333 -30.666 127 -39.999s102.667 -14 162 -14c35.333 0 73.666 2.16699 114.999 6.5s87 10.833 137 19.5
c48 9.33301 90.833 19 128.5 29s69.167 21 94.5 33c22 10 40.5 19.667 55.5 29s26.167 19 33.5 29c16 20 24.333 57.333 25 112c6 2 13 3 21 3c15.333 0 32 -8.33301 50 -25c-6 -21.333 -9.16699 -42.5 -9.5 -63.5s1.83398 -41.833 6.50098 -62.5
c16 -73.333 57 -110 123 -110h18c18 0 29 -9.66699 33 -29l19 -86v0zM692.997 603.995l-144 101l87 110l140 -103zM454.997 583.995l-140 99l86 110l139 -103zM710.997 -139.005c3.33301 -19.333 3.00391 -41.333 -0.996094 -66c-32.667 -41.333 -70.334 -62 -113.001 -62
c-34 0 -63.333 9.33301 -88 28s-40.334 42.667 -47.001 72c-4.66699 22.667 -2.83398 52.334 5.49902 89.001s24.166 80 47.499 130c114.667 -52.667 180 -116.334 196 -191.001zM667.001 -150.005c-21.333 49.333 -65.667 87.333 -133 114
c-24.667 -48.667 -34 -84 -28 -106c6 -28 33 -42 81 -42c37.333 0 64 11.333 80 34z" />
    <glyph glyph-name="uni067D.init" unicode="&#x67d;" horiz-adv-x="344" 
d="M260 275c2.66699 -80 -17.667 -145.33 -61 -195.997c-47.333 -52.667 -110.666 -79 -189.999 -79h-20c-16.667 0 -26.334 8 -29.001 24l-19 86c-4 19.333 2.33301 29 19 29h46c98.667 0 156.667 33 174 99c-10 25.333 -25 50.166 -45 74.499s-44.667 48.166 -74 71.499
l37 175c38 -46.667 70.5 -93.334 97.5 -140.001s48.5 -94.667 64.5 -144zM21.999 637.003l-116 96l76 95l115 -95zM93.999 832.003l-116 96l76 95l115 -95zM-133.001 832.003l-116 96l76 95l115 -95z" />
    <glyph glyph-name="uni067D.medi" unicode="&#x67d;" horiz-adv-x="501" 
d="M-59 110c-2 11.333 -1.83105 19 0.501953 23s8.5 6 18.5 6h20c18 0 38.667 1.83301 62 5.5s44.5 11.667 63.5 24s33.333 30.5 43 54.5s10.167 56.667 1.5 98l-7 30c2 3.33301 5.5 5.5 10.5 6.5s10.833 1.5 17.5 1.5c7.33301 0 13.166 -0.666992 17.499 -2
s10.166 -4 17.499 -8l7 -30c8 -37.333 17.833 -67.666 29.5 -90.999s27.167 -41.666 46.5 -54.999s43 -22.333 71 -27s62 -7 102 -7h20c10 0 17.167 -2 21.5 -6s7.5 -11.667 9.5 -23l19 -86c2.66699 -16 -4 -24 -20 -24h-20c-41.333 0 -77.666 3.83301 -108.999 11.5
s-58.166 17.667 -80.499 30s-40 26.166 -53 41.499s-21.833 30.666 -26.5 45.999h-8c0 -20 -5 -37.833 -15 -53.5s-22.833 -29.167 -38.5 -40.5s-33.334 -20 -53.001 -26s-39.167 -9 -58.5 -9h-61c-16.667 0 -26.334 8 -29.001 24l-19 86v0zM161.002 505l-116 96l76 95
l115 -95zM233.002 700l-116 96l76 95l115 -95zM6.00195 700l-116 96l76 95l115 -95z" />
    <glyph glyph-name="uni067D.fina" unicode="&#x67d;" horiz-adv-x="1348" 
d="M1379 24c2.66699 -16 -4.66895 -24.0049 -22.002 -24.0049h-18c-52 0 -96 12.667 -132 38c-15.333 12 -28.166 25.5 -38.499 40.5s-17.5 31.833 -21.5 50.5c-2 8.66699 -3.5 17 -4.5 25s-0.833008 16.667 0.5 26c-30.667 -27.333 -67.667 -52.166 -111 -74.499
s-92.666 -42.5 -147.999 -60.5c-59.333 -19.333 -119.666 -33.5 -180.999 -42.5s-124.333 -13.5 -189 -13.5c-70 0 -133.333 6.33301 -190 19s-107.334 32.334 -152.001 59.001c-80 48 -128 111 -144 189c-17.333 80 -3.33301 176.667 42 290c0 1.33301 3.66699 2 11 2
c16.667 0 32.667 -10.333 48 -31c-12.667 -33.333 -20.5 -65.166 -23.5 -95.499s-1.83301 -59.166 3.5 -86.499c6 -29.333 20.333 -56 43 -80s52 -44.667 88 -62s78.333 -30.666 127 -39.999s102.667 -14 162 -14c35.333 0 73.666 2.16699 114.999 6.5s87 10.833 137 19.5
c48 9.33301 90.833 19 128.5 29s69.167 21 94.5 33c22 10 40.5 19.667 55.5 29s26.167 19 33.5 29c16 20 24.333 57.333 25 112c6 2 13 3 21 3c15.333 0 32 -8.33301 50 -25c-6 -21.333 -9.16699 -42.5 -9.5 -63.5s1.83398 -41.833 6.50098 -62.5
c16 -73.333 57 -110 123 -110h18c18 0 29 -9.66699 33 -29l19 -86v0zM542.997 512.995l-116 96l76 95l115 -95zM614.997 707.995l-116 96l76 95l115 -95zM387.997 707.995l-116 96l76 95l115 -95z" />
    <glyph glyph-name="uni0681.init" unicode="&#x681;" horiz-adv-x="898" 
d="M757 175c-34 9.33301 -67.332 14.002 -99.999 14.002c-45.333 0 -123.333 -27 -234 -81c-146 -72 -284 -108 -414 -108h-20c-16.667 0 -26.334 8 -29.001 24l-19 86c-4 19.333 2.33301 29 19 29h20c46.667 0 97.667 4.5 153 13.5s115 22.833 179 41.5l193 64l-1 3
c-44.667 13.333 -125.667 58.666 -243 135.999c-103.333 68 -168 102 -194 102c-20 0 -42.333 -34.667 -67 -104c-15.333 2 -33 11 -53 27l53 153c15.333 42 40.333 63 75 63c15.333 0 48.833 -14.833 100.5 -44.5s121.5 -73.834 209.5 -132.501s160.333 -100 217 -124
c62 -25.333 130.667 -38 206 -38zM481.001 786.002c-15.333 -2 -34.3291 -6.5 -56.9961 -13.5s-46 -15.333 -70 -25s-47.333 -20.167 -70 -31.5s-41.334 -22.333 -56.001 -33l-13 63c10 6 22.167 12.667 36.5 20s30.166 13.333 47.499 18v3c-56.667 18 -90 51 -100 99
c19.333 42 40.166 73.333 62.499 94s47.5 31 75.5 31c33.333 0 65.666 -18.667 96.999 -56l-43 -42c-14.667 12 -28.334 20.667 -41.001 26s-23 8 -31 8c-12 0 -23.5 -4.33301 -34.5 -13s-21.167 -22.667 -30.5 -42c27.333 -41.333 65 -63 113 -65
c16.667 4.66699 34.834 10.167 54.501 16.5s41.5 11.5 65.5 15.5l-6 -73v0z" />
    <glyph glyph-name="uni0681.medi" unicode="&#x681;" horiz-adv-x="1101" 
d="M1132 24c2.66699 -16 -3.99707 -24 -19.9971 -24c-228.667 0 -361 84.667 -397 254c-4 18 -7.5 34.5 -10.5 49.5s-4.5 29.167 -4.5 42.5c-11.333 -6.66699 -25.5 -16.834 -42.5 -30.501l-57 -47.5l-67.5 -58l-75 -62c-62 -50 -130.333 -87.167 -205 -111.5
s-159.667 -36.5 -255 -36.5h-9c-16.667 0 -26.334 8 -29.001 24l-19 86c-4 19.333 2.33301 29 19 29h9c76 0 147.5 8.66699 214.5 26s130.167 45.333 189.5 84l70.5 46.5l50 33.5c13.667 9.33301 25.334 16.833 35.001 22.5l25.5 14.5v4c-8 0 -17.833 0.833008 -29.5 2.5
s-26.167 4.66699 -43.5 9s-38.833 10.666 -64.5 18.999s-56.5 19.166 -92.5 32.499c-144 54 -221 81 -231 81c-22.667 0 -41.334 -40.667 -56.001 -122c-16.667 0 -35.667 7 -57 21l39 158c12 52.667 35.667 79 71 79c10 0 27.333 -3.83301 52 -11.5
s56.667 -19.167 96 -34.5l126.5 -51.5c33 -13 62.167 -22.833 87.5 -29.5c98 -32.667 184.667 -49 260 -49c30 0 64 2.83301 102 8.5s81.333 14.5 130 26.5l-32 -145c-37.333 -0.666992 -69 -2 -95 -4s-46.333 -5 -61 -9c6 -23.333 12.167 -43.166 18.5 -59.499
s13.166 -30.666 20.499 -42.999s15.166 -23.166 23.499 -32.499s17.833 -18.333 28.5 -27c43.333 -33.333 115 -50 215 -50h20c16.667 0 27 -9.66699 31 -29l19 -86v0zM570.003 797c-15.333 -2 -34.3291 -6.5 -56.9961 -13.5s-46 -15.333 -70 -25s-47.333 -20.167 -70 -31.5
s-41.334 -22.333 -56.001 -33l-13 63c10 6 22.167 12.667 36.5 20s30.166 13.333 47.499 18v3c-56.667 18 -90 51 -100 99c19.333 42 40.166 73.333 62.499 94s47.5 31 75.5 31c33.333 0 65.666 -18.667 96.999 -56l-43 -42c-14.667 12 -28.334 20.667 -41.001 26
s-23 8 -31 8c-12 0 -23.5 -4.33301 -34.5 -13s-21.167 -22.667 -30.5 -42c27.333 -41.333 65 -63 113 -65c16.667 4.66699 34.834 10.167 54.501 16.5s41.5 11.5 65.5 15.5l-6 -73v0z" />
    <glyph glyph-name="uni0681.fina" unicode="&#x681;" horiz-adv-x="1011" 
d="M1055 -483c-129.333 -27.333 -243.998 -41.0029 -343.998 -41.0029c-149.333 0 -280.333 31.667 -393 95c-122 70 -195 163 -219 279c-26.667 122.667 2 235 86 337c36.667 44 80.834 83.333 132.501 118s110.5 64.667 176.5 90l-1 4
c-51.333 7.33301 -100 16.333 -146 27s-89 22.334 -129 35.001c-37.333 12.667 -65.333 19 -84 19c-22.667 0 -42.334 -38 -59.001 -114c-10.667 0 -20.834 1.33301 -30.501 4s-18.5 7.33398 -26.5 14.001l42 158c12.667 50.667 36.334 76 71.001 76
c1.33301 0 20.333 -4.83301 57 -14.5l163 -42.5c72 -19.333 132.667 -34 182 -44s88 -15 116 -15c37.333 0 75.166 2.83301 113.499 8.5s78.5 13.834 120.5 24.501l-31 -143c-54.667 0 -106.334 -5 -155.001 -15c18 -84 46.667 -143.667 86 -179
c21.333 -20 47.666 -34.833 78.999 -44.5s67.666 -14.5 108.999 -14.5h19c18 0 29 -9.66699 33 -29l19 -86c2.66699 -16 -4.66602 -24 -21.999 -24h-19c-192.667 0 -308 91.667 -346 275c-2 9.33301 -4.16699 21.833 -6.5 37.5s-4.83301 34.167 -7.5 55.5
c-63.333 -13.333 -121.166 -33.666 -173.499 -60.999s-99.5 -62.333 -141.5 -105c-88.667 -88 -122.667 -182.333 -102 -283c22 -98.667 87.333 -177.334 196 -236.001c104 -58 230.333 -87 379 -87c40.667 0 88.5 2.83301 143.5 8.5s117.167 14.167 186.5 25.5z
M533.002 842.997c-15.333 -2 -34.3291 -6.5 -56.9961 -13.5s-46 -15.333 -70 -25s-47.333 -20.167 -70 -31.5s-41.334 -22.333 -56.001 -33l-13 63c10 6 22.167 12.667 36.5 20s30.166 13.333 47.499 18v3c-56.667 18 -90 51 -100 99c19.333 42 40.166 73.333 62.499 94
s47.5 31 75.5 31c33.333 0 65.666 -18.667 96.999 -56l-43 -42c-14.667 12 -28.334 20.667 -41.001 26s-23 8 -31 8c-12 0 -23.5 -4.33301 -34.5 -13s-21.167 -22.667 -30.5 -42c27.333 -41.333 65 -63 113 -65c16.667 4.66699 34.834 10.167 54.501 16.5
s41.5 11.5 65.5 15.5l-6 -73v0z" />
    <glyph glyph-name="uni0682.init" unicode="&#x682;" horiz-adv-x="898" 
d="M757 175c-34 9.33301 -67.332 14.002 -99.999 14.002c-45.333 0 -123.333 -27 -234 -81c-146 -72 -284 -108 -414 -108h-20c-16.667 0 -26.334 8 -29.001 24l-19 86c-4 19.333 2.33301 29 19 29h20c46.667 0 97.667 4.5 153 13.5s115 22.833 179 41.5l193 64l-1 3
c-44.667 13.333 -125.667 58.666 -243 135.999c-103.333 68 -168 102 -194 102c-20 0 -42.333 -34.667 -67 -104c-15.333 2 -33 11 -53 27l53 153c15.333 42 40.333 63 75 63c15.333 0 48.833 -14.833 100.5 -44.5s121.5 -73.834 209.5 -132.501s160.333 -100 217 -124
c62 -25.333 130.667 -38 206 -38zM405.001 1016l-74 -121l-133 110l76 119zM478.001 774.002l-75 -119l-133 110l78 117z" />
    <glyph glyph-name="uni0682.medi" unicode="&#x682;" horiz-adv-x="1101" 
d="M1132 24c2.66699 -16 -3.99707 -24 -19.9971 -24c-228.667 0 -361 84.667 -397 254c-4 18 -7.5 34.5 -10.5 49.5s-4.5 29.167 -4.5 42.5c-11.333 -6.66699 -25.5 -16.834 -42.5 -30.501l-57 -47.5l-67.5 -58l-75 -62c-62 -50 -130.333 -87.167 -205 -111.5
s-159.667 -36.5 -255 -36.5h-9c-16.667 0 -26.334 8 -29.001 24l-19 86c-4 19.333 2.33301 29 19 29h9c76 0 147.5 8.66699 214.5 26s130.167 45.333 189.5 84l70.5 46.5l50 33.5c13.667 9.33301 25.334 16.833 35.001 22.5l25.5 14.5v4c-8 0 -17.833 0.833008 -29.5 2.5
s-26.167 4.66699 -43.5 9s-38.833 10.666 -64.5 18.999s-56.5 19.166 -92.5 32.499c-144 54 -221 81 -231 81c-22.667 0 -41.334 -40.667 -56.001 -122c-16.667 0 -35.667 7 -57 21l39 158c12 52.667 35.667 79 71 79c10 0 27.333 -3.83301 52 -11.5
s56.667 -19.167 96 -34.5l126.5 -51.5c33 -13 62.167 -22.833 87.5 -29.5c98 -32.667 184.667 -49 260 -49c30 0 64 2.83301 102 8.5s81.333 14.5 130 26.5l-32 -145c-37.333 -0.666992 -69 -2 -95 -4s-46.333 -5 -61 -9c6 -23.333 12.167 -43.166 18.5 -59.499
s13.166 -30.666 20.499 -42.999s15.166 -23.166 23.499 -32.499s17.833 -18.333 28.5 -27c43.333 -33.333 115 -50 215 -50h20c16.667 0 27 -9.66699 31 -29l19 -86v0zM459.003 1024l-74 -121l-133 110l76 119zM532.003 782l-75 -119l-133 110l78 117z" />
    <glyph glyph-name="uni0682.fina" unicode="&#x682;" horiz-adv-x="1011" 
d="M1055 -483c-129.333 -27.333 -243.998 -41.0029 -343.998 -41.0029c-149.333 0 -280.333 31.667 -393 95c-122 70 -195 163 -219 279c-26.667 122.667 2 235 86 337c36.667 44 80.834 83.333 132.501 118s110.5 64.667 176.5 90l-1 4
c-51.333 7.33301 -100 16.333 -146 27s-89 22.334 -129 35.001c-37.333 12.667 -65.333 19 -84 19c-22.667 0 -42.334 -38 -59.001 -114c-10.667 0 -20.834 1.33301 -30.501 4s-18.5 7.33398 -26.5 14.001l42 158c12.667 50.667 36.334 76 71.001 76
c1.33301 0 20.333 -4.83301 57 -14.5l163 -42.5c72 -19.333 132.667 -34 182 -44s88 -15 116 -15c37.333 0 75.166 2.83301 113.499 8.5s78.5 13.834 120.5 24.501l-31 -143c-54.667 0 -106.334 -5 -155.001 -15c18 -84 46.667 -143.667 86 -179
c21.333 -20 47.666 -34.833 78.999 -44.5s67.666 -14.5 108.999 -14.5h19c18 0 29 -9.66699 33 -29l19 -86c2.66699 -16 -4.66602 -24 -21.999 -24h-19c-192.667 0 -308 91.667 -346 275c-2 9.33301 -4.16699 21.833 -6.5 37.5s-4.83301 34.167 -7.5 55.5
c-63.333 -13.333 -121.166 -33.666 -173.499 -60.999s-99.5 -62.333 -141.5 -105c-88.667 -88 -122.667 -182.333 -102 -283c22 -98.667 87.333 -177.334 196 -236.001c104 -58 230.333 -87 379 -87c40.667 0 88.5 2.83301 143.5 8.5s117.167 14.167 186.5 25.5z
M447.002 1062l-74 -121l-133 110l76 119zM520.002 819.997l-75 -119l-133 110l78 117z" />
    <glyph glyph-name="uni0685.init" unicode="&#x685;" horiz-adv-x="898" 
d="M757 175c-34 9.33301 -67.332 14.002 -99.999 14.002c-45.333 0 -123.333 -27 -234 -81c-146 -72 -284 -108 -414 -108h-20c-16.667 0 -26.334 8 -29.001 24l-19 86c-4 19.333 2.33301 29 19 29h20c46.667 0 97.667 4.5 153 13.5s115 22.833 179 41.5l193 64l-1 3
c-44.667 13.333 -125.667 58.666 -243 135.999c-103.333 68 -168 102 -194 102c-20 0 -42.333 -34.667 -67 -104c-15.333 2 -33 11 -53 27l53 153c15.333 42 40.333 63 75 63c15.333 0 48.833 -14.833 100.5 -44.5s121.5 -73.834 209.5 -132.501s160.333 -100 217 -124
c62 -25.333 130.667 -38 206 -38zM327.001 902.002l-114 93l74 98l117 -98zM483.001 705.002l-115 95l74 98l117 -98zM256.001 705.002l-117 95l76 98l117 -98z" />
    <glyph glyph-name="uni0685.medi" unicode="&#x685;" horiz-adv-x="1101" 
d="M1132 24c2.66699 -16 -3.99707 -24 -19.9971 -24c-228.667 0 -361 84.667 -397 254c-4 18 -7.5 34.5 -10.5 49.5s-4.5 29.167 -4.5 42.5c-11.333 -6.66699 -25.5 -16.834 -42.5 -30.501l-57 -47.5l-67.5 -58l-75 -62c-62 -50 -130.333 -87.167 -205 -111.5
s-159.667 -36.5 -255 -36.5h-9c-16.667 0 -26.334 8 -29.001 24l-19 86c-4 19.333 2.33301 29 19 29h9c76 0 147.5 8.66699 214.5 26s130.167 45.333 189.5 84l70.5 46.5l50 33.5c13.667 9.33301 25.334 16.833 35.001 22.5l25.5 14.5v4c-8 0 -17.833 0.833008 -29.5 2.5
s-26.167 4.66699 -43.5 9s-38.833 10.666 -64.5 18.999s-56.5 19.166 -92.5 32.499c-144 54 -221 81 -231 81c-22.667 0 -41.334 -40.667 -56.001 -122c-16.667 0 -35.667 7 -57 21l39 158c12 52.667 35.667 79 71 79c10 0 27.333 -3.83301 52 -11.5
s56.667 -19.167 96 -34.5l126.5 -51.5c33 -13 62.167 -22.833 87.5 -29.5c98 -32.667 184.667 -49 260 -49c30 0 64 2.83301 102 8.5s81.333 14.5 130 26.5l-32 -145c-37.333 -0.666992 -69 -2 -95 -4s-46.333 -5 -61 -9c6 -23.333 12.167 -43.166 18.5 -59.499
s13.166 -30.666 20.499 -42.999s15.166 -23.166 23.499 -32.499s17.833 -18.333 28.5 -27c43.333 -33.333 115 -50 215 -50h20c16.667 0 27 -9.66699 31 -29l19 -86v0zM413.003 905l-114 93l74 98l117 -98zM569.003 708l-115 95l74 98l117 -98zM342.003 708l-117 95l76 98
l117 -98z" />
    <glyph glyph-name="uni0685.fina" unicode="&#x685;" horiz-adv-x="1011" 
d="M1055 -483c-129.333 -27.333 -243.998 -41.0029 -343.998 -41.0029c-149.333 0 -280.333 31.667 -393 95c-122 70 -195 163 -219 279c-26.667 122.667 2 235 86 337c36.667 44 80.834 83.333 132.501 118s110.5 64.667 176.5 90l-1 4
c-51.333 7.33301 -100 16.333 -146 27s-89 22.334 -129 35.001c-37.333 12.667 -65.333 19 -84 19c-22.667 0 -42.334 -38 -59.001 -114c-10.667 0 -20.834 1.33301 -30.501 4s-18.5 7.33398 -26.5 14.001l42 158c12.667 50.667 36.334 76 71.001 76
c1.33301 0 20.333 -4.83301 57 -14.5l163 -42.5c72 -19.333 132.667 -34 182 -44s88 -15 116 -15c37.333 0 75.166 2.83301 113.499 8.5s78.5 13.834 120.5 24.501l-31 -143c-54.667 0 -106.334 -5 -155.001 -15c18 -84 46.667 -143.667 86 -179
c21.333 -20 47.666 -34.833 78.999 -44.5s67.666 -14.5 108.999 -14.5h19c18 0 29 -9.66699 33 -29l19 -86c2.66699 -16 -4.66602 -24 -21.999 -24h-19c-192.667 0 -308 91.667 -346 275c-2 9.33301 -4.16699 21.833 -6.5 37.5s-4.83301 34.167 -7.5 55.5
c-63.333 -13.333 -121.166 -33.666 -173.499 -60.999s-99.5 -62.333 -141.5 -105c-88.667 -88 -122.667 -182.333 -102 -283c22 -98.667 87.333 -177.334 196 -236.001c104 -58 230.333 -87 379 -87c40.667 0 88.5 2.83301 143.5 8.5s117.167 14.167 186.5 25.5z
M414.002 908.997l-114 93l74 98l117 -98zM570.002 711.997l-115 95l74 98l117 -98zM343.002 711.997l-117 95l76 98l117 -98z" />
    <glyph glyph-name="uni0689.fina" unicode="&#x689;" horiz-adv-x="743" 
d="M774 24c2.66699 -16 -4.32715 -23.998 -20.9941 -23.998h-19c-70.667 0 -142.334 67.333 -215.001 202h-3c2.66699 -49.333 -1.33301 -94.333 -12 -135c-28.667 -18 -75.334 -35.667 -140.001 -53c-34 -8 -64.5 -14.167 -91.5 -18.5s-51.167 -6.5 -72.5 -6.5
c-40.667 0 -80.334 6 -119.001 18c-5.33301 22.667 -10 41.667 -14 57l-9 34c-2.66699 12 -5 28.667 -7 50s-4 47 -6 77c5.33301 1.33301 9.66602 2.33301 12.999 3s6.66602 1 9.99902 1c4.66699 0 9 -0.833008 13 -2.5s8.66699 -3.83398 14 -6.50098l6 -27
c2.66699 -10.667 5.16699 -20 7.5 -28l5.5 -19c30 -12 62.667 -18 98 -18c25.333 0 51.833 2.66699 79.5 8s56.5 12.666 86.5 21.999c57.333 20.667 98.666 42.667 123.999 66l-120.5 218.5l-128.5 250.5l41 169l177.5 -395c48.333 -102.667 86.5 -178 114.5 -226
c42 -68 81.333 -102 118 -102h19c17.333 0 28 -9.66699 32 -29l19 -86v0zM437.006 -141.998c3.33301 -19.333 3.00391 -41.333 -0.996094 -66c-32.667 -41.333 -70.334 -62 -113.001 -62c-34 0 -63.333 9.33301 -88 28s-40.334 42.667 -47.001 72
c-4.66699 22.667 -2.83398 52.334 5.49902 89.001s24.166 80 47.499 130c114.667 -52.667 180 -116.334 196 -191.001zM393.01 -152.998c-21.333 49.333 -65.667 87.333 -133 114c-24.667 -48.667 -34 -84 -28 -106c6 -28 33 -42 81 -42c37.333 0 64 11.333 80 34z" />
    <glyph glyph-name="uni068A.fina" unicode="&#x68a;" horiz-adv-x="743" 
d="M774 24c2.66699 -16 -4.32715 -23.998 -20.9941 -23.998h-19c-70.667 0 -142.334 67.333 -215.001 202h-3c2.66699 -49.333 -1.33301 -94.333 -12 -135c-28.667 -18 -75.334 -35.667 -140.001 -53c-34 -8 -64.5 -14.167 -91.5 -18.5s-51.167 -6.5 -72.5 -6.5
c-40.667 0 -80.334 6 -119.001 18c-5.33301 22.667 -10 41.667 -14 57l-9 34c-2.66699 12 -5 28.667 -7 50s-4 47 -6 77c5.33301 1.33301 9.66602 2.33301 12.999 3s6.66602 1 9.99902 1c4.66699 0 9 -0.833008 13 -2.5s8.66699 -3.83398 14 -6.50098l6 -27
c2.66699 -10.667 5.16699 -20 7.5 -28l5.5 -19c30 -12 62.667 -18 98 -18c25.333 0 51.833 2.66699 79.5 8s56.5 12.666 86.5 21.999c57.333 20.667 98.666 42.667 123.999 66l-120.5 218.5l-128.5 250.5l41 169l177.5 -395c48.333 -102.667 86.5 -178 114.5 -226
c42 -68 81.333 -102 118 -102h19c17.333 0 28 -9.66699 32 -29l19 -86v0zM374.006 -339.998l-142 101l86 109l141 -102z" />
    <glyph glyph-name="uni068b.fina" unicode="&#x68b;" horiz-adv-x="743" 
d="M774 24c2.66699 -16 -4.32715 -23.998 -20.9941 -23.998h-19c-70.667 0 -142.334 67.333 -215.001 202h-3c2.66699 -49.333 -1.33301 -94.333 -12 -135c-28.667 -18 -75.334 -35.667 -140.001 -53c-34 -8 -64.5 -14.167 -91.5 -18.5s-51.167 -6.5 -72.5 -6.5
c-40.667 0 -80.334 6 -119.001 18c-5.33301 22.667 -10 41.667 -14 57l-9 34c-2.66699 12 -5 28.667 -7 50s-4 47 -6 77c5.33301 1.33301 9.66602 2.33301 12.999 3s6.66602 1 9.99902 1c4.66699 0 9 -0.833008 13 -2.5s8.66699 -3.83398 14 -6.50098l6 -27
c2.66699 -10.667 5.16699 -20 7.5 -28l5.5 -19c30 -12 62.667 -18 98 -18c25.333 0 51.833 2.66699 79.5 8s56.5 12.666 86.5 21.999c57.333 20.667 98.666 42.667 123.999 66l-120.5 218.5l-128.5 250.5l41 169l177.5 -395c48.333 -102.667 86.5 -178 114.5 -226
c42 -68 81.333 -102 118 -102h19c17.333 0 28 -9.66699 32 -29l19 -86v0zM431.006 1056c-8.66699 -18.667 -18.999 -34.502 -30.999 -47.502s-26.667 -23.167 -44 -30.5c-15.333 -6.66699 -34.166 -11.667 -56.499 -15s-48.5 -5 -78.5 -5h-38c-29.333 14.667 -56 33 -80 55
c11.333 -3.33301 23.5 -5.5 36.5 -6.5s26.5 -1.5 40.5 -1.5c-4 17.333 -7.16699 32.5 -9.5 45.5s-4.83301 25.333 -7.5 37l-8 36c-2.66699 12.333 -6.33398 26.5 -11.001 42.5c-9.33301 30 -17.333 54.333 -24 73s-12.667 32.334 -18 41.001l23 41l11.5 -20
c4.33301 -7.33301 9.83301 -16 16.5 -26c12.667 -20 21.334 -32.333 26.001 -37c-5.33301 1.33301 -9.83301 2.66602 -13.5 3.99902s-7.5 3.33301 -11.5 6c5.33301 -18 10 -34.667 14 -50s7.66699 -31 11 -47s6.66602 -33.167 9.99902 -51.5s7.66602 -39.5 12.999 -63.5
c26.667 38.667 51 65.334 73 80.001c16 11.333 35.333 17 58 17c22 0 43.333 -8.33301 64 -25c18.667 -15.333 30 -32.666 34 -51.999zM397.007 1038c-2 13.333 -10.667 26 -26 38c-16 12 -31.667 18 -47 18c-38 0 -77.333 -30 -118 -90h60c14 0 27.667 0.666992 41 2
s26.333 4 39 8c26 7.33301 43 15.333 51 24zM367.007 -342l-142 101l86 109l141 -102z" />
    <glyph glyph-name="uni068F.fina" unicode="&#x68f;" horiz-adv-x="743" 
d="M774 24c2.66699 -16 -4.32715 -23.998 -20.9941 -23.998h-19c-70.667 0 -142.334 67.333 -215.001 202h-3c2.66699 -49.333 -1.33301 -94.333 -12 -135c-28.667 -18 -75.334 -35.667 -140.001 -53c-34 -8 -64.5 -14.167 -91.5 -18.5s-51.167 -6.5 -72.5 -6.5
c-40.667 0 -80.334 6 -119.001 18c-5.33301 22.667 -10 41.667 -14 57l-9 34c-2.66699 12 -5 28.667 -7 50s-4 47 -6 77c5.33301 1.33301 9.66602 2.33301 12.999 3s6.66602 1 9.99902 1c4.66699 0 9 -0.833008 13 -2.5s8.66699 -3.83398 14 -6.50098l6 -27
c2.66699 -10.667 5.16699 -20 7.5 -28l5.5 -19c30 -12 62.667 -18 98 -18c25.333 0 51.833 2.66699 79.5 8s56.5 12.666 86.5 21.999c57.333 20.667 98.666 42.667 123.999 66l-120.5 218.5l-128.5 250.5l41 169l177.5 -395c48.333 -102.667 86.5 -178 114.5 -226
c42 -68 81.333 -102 118 -102h19c17.333 0 28 -9.66699 32 -29l19 -86v0zM218.006 923.002l-116 96l76 95l115 -95zM290.006 1118l-116 96l76 95l115 -95zM63.0059 1118l-116 96l76 95l115 -95z" />
    <glyph glyph-name="uni0690.fina" unicode="&#x690;" horiz-adv-x="743" 
d="M774 24c2.66699 -16 -4.32715 -23.998 -20.9941 -23.998h-19c-70.667 0 -142.334 67.333 -215.001 202h-3c2.66699 -49.333 -1.33301 -94.333 -12 -135c-28.667 -18 -75.334 -35.667 -140.001 -53c-34 -8 -64.5 -14.167 -91.5 -18.5s-51.167 -6.5 -72.5 -6.5
c-40.667 0 -80.334 6 -119.001 18c-5.33301 22.667 -10 41.667 -14 57l-9 34c-2.66699 12 -5 28.667 -7 50s-4 47 -6 77c5.33301 1.33301 9.66602 2.33301 12.999 3s6.66602 1 9.99902 1c4.66699 0 9 -0.833008 13 -2.5s8.66699 -3.83398 14 -6.50098l6 -27
c2.66699 -10.667 5.16699 -20 7.5 -28l5.5 -19c30 -12 62.667 -18 98 -18c25.333 0 51.833 2.66699 79.5 8s56.5 12.666 86.5 21.999c57.333 20.667 98.666 42.667 123.999 66l-120.5 218.5l-128.5 250.5l41 169l177.5 -395c48.333 -102.667 86.5 -178 114.5 -226
c42 -68 81.333 -102 118 -102h19c17.333 0 28 -9.66699 32 -29l19 -86v0zM143.006 1231l-114 93l74 98l117 -98zM283.006 1081l-115 95l74 98l117 -98zM75.0059 1081l-116 95l74 98l117 -98zM214.006 934.002l-115 93l74 97l117 -97z" />
    <glyph glyph-name="uni0692.fina" unicode="&#x692;" horiz-adv-x="664" 
d="M694 24c4 -16 -2.66602 -24 -19.999 -24h-20c-34 0 -73.667 16.667 -119 50c5.33301 -52.667 5.33301 -103.167 0 -151.5s-15 -93.833 -29 -136.5c-14 -40.667 -34 -84.167 -60 -130.5s-58.667 -95.5 -98 -147.5c-42.667 0 -89.334 7 -140.001 21
c-26 6 -48.167 12.667 -66.5 20s-33.5 15 -45.5 23c126 66.667 222.667 148 290 244c55.333 78 82 147.333 80 208c-27.333 80 -89.333 158.667 -186 236l22 180l120 -141c78.667 -90.667 146 -136 202 -136h20c16 0 26.667 -9.66699 32 -29l18 -86v0zM377.001 809
c-6 -7.33301 -12.834 -16.6641 -20.501 -27.9971s-15.5 -27.166 -23.5 -47.499s-15.333 -47 -22 -80s-11.667 -75.167 -15 -126.5l-24 -3c-12 28 -26.167 55.667 -42.5 83s-33.833 53.166 -52.5 77.499s-38 46.666 -58 66.999s-40 37.166 -60 50.499l92 -7
c6.66699 -6.66699 14 -14.5 22 -23.5s16.833 -20.5 26.5 -34.5s19.834 -31.167 30.501 -51.5s22.667 -45.5 36 -75.5v41c0 16 0.833008 32.667 2.5 50s4.16699 34.666 7.5 51.999s8.33301 33 15 47z" />
    <glyph glyph-name="uni0693.fina" unicode="&#x693;" horiz-adv-x="664" 
d="M694 24c4 -16 -2.66602 -24 -19.999 -24h-20c-34 0 -73.667 16.667 -119 50c5.33301 -52.667 5.33301 -103.167 0 -151.5s-15 -93.833 -29 -136.5c-14 -40.667 -34 -84.167 -60 -130.5s-58.667 -95.5 -98 -147.5c-42.667 0 -89.334 7 -140.001 21
c-26 6 -48.167 12.667 -66.5 20s-33.5 15 -45.5 23c126 66.667 222.667 148 290 244c55.333 78 82 147.333 80 208c-27.333 80 -89.333 158.667 -186 236l22 180l120 -141c78.667 -90.667 146 -136 202 -136h20c16 0 26.667 -9.66699 32 -29l18 -86v0zM507.001 -625
c3.33301 -19.333 3.00391 -41.333 -0.996094 -66c-32.667 -41.333 -70.334 -62 -113.001 -62c-34 0 -63.333 9.33301 -88 28s-40.334 42.667 -47.001 72c-4.66699 22.667 -2.83398 52.334 5.49902 89.001s24.166 80 47.499 130c114.667 -52.667 180 -116.334 196 -191.001z
M463.005 -636c-21.333 49.333 -65.667 87.333 -133 114c-24.667 -48.667 -34 -84 -28 -106c6 -28 33 -42 81 -42c37.333 0 64 11.333 80 34z" />
    <glyph glyph-name="uni0694.fina" unicode="&#x694;" horiz-adv-x="664" 
d="M694 24c4 -16 -2.66602 -24 -19.999 -24h-20c-34 0 -73.667 16.667 -119 50c5.33301 -52.667 5.33301 -103.167 0 -151.5s-15 -93.833 -29 -136.5c-14 -40.667 -34 -84.167 -60 -130.5s-58.667 -95.5 -98 -147.5c-42.667 0 -89.334 7 -140.001 21
c-26 6 -48.167 12.667 -66.5 20s-33.5 15 -45.5 23c126 66.667 222.667 148 290 244c55.333 78 82 147.333 80 208c-27.333 80 -89.333 158.667 -186 236l22 180l120 -141c78.667 -90.667 146 -136 202 -136h20c16 0 26.667 -9.66699 32 -29l18 -86v0zM404.001 -798
l-142 101l86 109l141 -102z" />
    <glyph glyph-name="uni0695.fina" unicode="&#x695;" horiz-adv-x="664" 
d="M694 24c4 -16 -2.66602 -24 -19.999 -24h-20c-34 0 -73.667 16.667 -119 50c5.33301 -52.667 5.33301 -103.167 0 -151.5s-15 -93.833 -29 -136.5c-14 -40.667 -34 -84.167 -60 -130.5s-58.667 -95.5 -98 -147.5c-42.667 0 -89.334 7 -140.001 21
c-26 6 -48.167 12.667 -66.5 20s-33.5 15 -45.5 23c126 66.667 222.667 148 290 244c55.333 78 82 147.333 80 208c-27.333 80 -89.333 158.667 -186 236l22 180l120 -141c78.667 -90.667 146 -136 202 -136h20c16 0 26.667 -9.66699 32 -29l18 -86v0zM496.001 -592
c-6 -7.33301 -12.834 -16.6641 -20.501 -27.9971s-15.5 -27.166 -23.5 -47.499s-15.333 -47 -22 -80s-11.667 -75.167 -15 -126.5l-24 -3c-12 28 -26.167 55.667 -42.5 83s-33.833 53.166 -52.5 77.499s-38 46.666 -58 66.999s-40 37.166 -60 50.499l92 -7
c6.66699 -6.66699 14 -14.5 22 -23.5s16.833 -20.5 26.5 -34.5s19.834 -31.167 30.501 -51.5s22.667 -45.5 36 -75.5v41c0 16 0.833008 32.667 2.5 50s4.16699 34.666 7.5 51.999s8.33301 33 15 47z" />
    <glyph glyph-name="uni0696.fina" unicode="&#x696;" horiz-adv-x="664" 
d="M694 24c4 -16 -2.66602 -24 -19.999 -24h-20c-34 0 -73.667 16.667 -119 50c5.33301 -52.667 5.33301 -103.167 0 -151.5s-15 -93.833 -29 -136.5c-14 -40.667 -34 -84.167 -60 -130.5s-58.667 -95.5 -98 -147.5c-42.667 0 -89.334 7 -140.001 21
c-26 6 -48.167 12.667 -66.5 20s-33.5 15 -45.5 23c126 66.667 222.667 148 290 244c55.333 78 82 147.333 80 208c-27.333 80 -89.333 158.667 -186 236l22 180l120 -141c78.667 -90.667 146 -136 202 -136h20c16 0 26.667 -9.66699 32 -29l18 -86v0zM425.001 -815
l-142 101l86 109l141 -102zM233.001 -257l-142 101l86 109l141 -102z" />
    <glyph glyph-name="uni0697.fina" unicode="&#x697;" horiz-adv-x="664" 
d="M694 24c4 -16 -2.66602 -24 -19.999 -24h-20c-34 0 -73.667 16.667 -119 50c5.33301 -52.667 5.33301 -103.167 0 -151.5s-15 -93.833 -29 -136.5c-14 -40.667 -34 -84.167 -60 -130.5s-58.667 -95.5 -98 -147.5c-42.667 0 -89.334 7 -140.001 21
c-26 6 -48.167 12.667 -66.5 20s-33.5 15 -45.5 23c126 66.667 222.667 148 290 244c55.333 78 82 147.333 80 208c-27.333 80 -89.333 158.667 -186 236l22 180l120 -141c78.667 -90.667 146 -136 202 -136h20c16 0 26.667 -9.66699 32 -29l18 -86v0zM392.001 593l-144 101
l87 110l140 -103zM154.001 573l-140 99l86 110l139 -103z" />
    <glyph glyph-name="uni0699.fina" unicode="&#x699;" horiz-adv-x="664" 
d="M694 24c4 -16 -2.66602 -24 -19.999 -24h-20c-34 0 -73.667 16.667 -119 50c5.33301 -52.667 5.33301 -103.167 0 -151.5s-15 -93.833 -29 -136.5c-14 -40.667 -34 -84.167 -60 -130.5s-58.667 -95.5 -98 -147.5c-42.667 0 -89.334 7 -140.001 21
c-26 6 -48.167 12.667 -66.5 20s-33.5 15 -45.5 23c126 66.667 222.667 148 290 244c55.333 78 82 147.333 80 208c-27.333 80 -89.333 158.667 -186 236l22 180l120 -141c78.667 -90.667 146 -136 202 -136h20c16 0 26.667 -9.66699 32 -29l18 -86v0zM204.001 837l-114 93
l74 98l117 -98zM344.001 687l-115 95l74 98l117 -98zM136.001 687l-116 95l74 98l117 -98zM275.001 540l-115 93l74 97l117 -97z" />
    <glyph glyph-name="uni069A.init" unicode="&#x69a;" horiz-adv-x="983" 
d="M894 275c0 -74.667 -16.3369 -138.329 -49.0039 -190.996c-38 -56 -84 -84 -138 -84c-91.333 0 -154.333 43 -189 129h-4c-8 -86 -55 -129 -141 -129c-38 0 -73.667 11.333 -107 34c-35.333 23.333 -60.666 55 -75.999 95h-3c-3.33301 -18.667 -9 -35.834 -17 -51.501
s-19.667 -29.5 -35 -41.5c-16.667 -12 -35.167 -21 -55.5 -27s-43.833 -9 -70.5 -9h-20c-16.667 0 -26.334 8 -29.001 24l-19 86c-4 19.333 2.33301 29 19 29h20c124.667 0 172 72 142 216c8.66699 4 17.334 6 26.001 6c13.333 0 28 -4 44 -12
c2 -18.667 4.5 -36.5 7.5 -53.5s6.16699 -33.167 9.5 -48.5c2.66699 -14.667 8 -28.5 16 -41.5s17.5 -24.5 28.5 -34.5s23.167 -17.833 36.5 -23.5s27 -8.5 41 -8.5c50.667 0 85.334 20.333 104.001 61c18.667 39.333 21.667 91 9 155c6.66699 4 15 6 25 6
c12 0 26.667 -4 44 -12c2 -18.667 4.5 -36.5 7.5 -53.5s6.16699 -33.167 9.5 -48.5c2.66699 -14.667 8.16699 -28.5 16.5 -41.5s18.166 -24.5 29.499 -34.5s23.833 -17.833 37.5 -23.5s27.834 -8.5 42.501 -8.5c88 0 140.667 33 158 99
c-9.33301 25.333 -24.166 50.166 -44.499 74.499s-45.166 48.166 -74.499 71.499l37 175c39.333 -46.667 72.333 -93.334 99 -140.001s47.667 -94.667 63 -144zM454.996 605.005l-142 101l86 109l141 -102zM652.996 -400.995l-142 101l86 109l141 -102z" />
    <glyph glyph-name="uni069A.medi" unicode="&#x69a;" horiz-adv-x="1058" 
d="M1089 24c2.66699 -16 -4.34082 -23.9961 -21.0078 -23.9961h-19c-17.333 0 -35.166 3.16699 -53.499 9.5s-35.666 15.166 -51.999 26.499s-31.166 24.833 -44.499 40.5s-23.666 33.167 -30.999 52.5h-4c-7.33301 -86 -52 -129 -134 -129c-91.333 0 -154.333 43 -189 129
h-3c-9.33301 -86 -56.333 -129 -141 -129c-104 0 -173 43 -207 129h-3c-3.33301 -18.667 -9 -35.834 -17 -51.501s-19.667 -29.5 -35 -41.5c-16.667 -12 -35.167 -21 -55.5 -27s-43.833 -9 -70.5 -9h-20c-16.667 0 -26.334 8 -29.001 24l-19 86c-4 19.333 2.33301 29 19 29
l20 -2c124.667 2 172 74 142 216c8.66699 4 17.667 6 27 6c12.667 0 27.334 -3.66699 44.001 -11c1.33301 -18 3.5 -35.5 6.5 -52.5s6.16699 -33.167 9.5 -48.5c2.66699 -15.333 8.33398 -29.5 17.001 -42.5s19.334 -24.333 32.001 -34s27.167 -17.334 43.5 -23.001
s33.833 -8.5 52.5 -8.5c52 0 86.667 20.333 104 61c19.333 38.667 22 89.667 8 153c8.66699 4 17.667 6 27 6c12.667 0 27.334 -3.66699 44.001 -11c1.33301 -18 3.5 -35.5 6.5 -52.5s6.16699 -33.167 9.5 -48.5c2.66699 -14.667 8 -28.5 16 -41.5s17.833 -24.5 29.5 -34.5
s24.334 -17.833 38.001 -23.5s28.167 -8.5 43.5 -8.5c25.333 0 46.666 4.83301 63.999 14.5s30.666 25.167 39.999 46.5c19.333 38 22.333 89 9 153c8 4 16.667 6 26 6c12.667 0 27.334 -3.66699 44.001 -11c2 -18 4.33301 -35.5 7 -52.5s5.66699 -33.167 9 -48.5
c2.66699 -15.333 8.33398 -29.5 17.001 -42.5s19.167 -24.333 31.5 -34s26.333 -17.334 42 -23.001s32.167 -8.5 49.5 -8.5h19c17.333 0 28 -9.66699 32 -29l19 -86v0zM463.992 536.004l-142 101l86 109l141 -102zM662.992 -423.996l-142 101l86 109l141 -102z" />
    <glyph glyph-name="uni069A.fina" unicode="&#x69a;" horiz-adv-x="1775" 
d="M1806 24c2.66699 -16 -4.00391 -23.9971 -20.0039 -23.9971h-20c-16.667 0 -34 3.16699 -52 9.5s-35.167 15.166 -51.5 26.499s-31.166 24.833 -44.499 40.5s-23.666 33.167 -30.999 52.5h-4c-7.33301 -86 -52.333 -129 -135 -129c-90.667 0 -154 43 -190 129h-3
c-9.33301 -86 -56.333 -129 -141 -129c-32.667 0 -67 10.333 -103 31c7.33301 -22.667 14 -44.167 20 -64.5s11 -40.166 15 -59.499c7.33301 -32 9.83301 -65.667 7.5 -101s-9.16602 -73.333 -20.499 -114c-21.333 -24.667 -48.666 -48.334 -81.999 -71.001
s-72.666 -45.334 -117.999 -68.001c-105.333 -51.333 -208.333 -77 -309 -77c-52 0 -99.667 6.16699 -143 18.5s-83.666 30.5 -120.999 54.5c-76.667 51.333 -124.334 122.333 -143.001 213c-23.333 106 -6.66602 238.667 50.001 398c20.667 0 43.334 -9.33301 68.001 -28
c-9.33301 -20 -16.166 -42.167 -20.499 -66.5s-7.83301 -51.5 -10.5 -81.5c-1.33301 -27.333 -1.33301 -52.166 0 -74.499s4 -42.5 8 -60.5c14.667 -69.333 49.5 -124 104.5 -164s126.167 -60 213.5 -60c38.667 0 78.5 4.5 119.5 13.5s83.5 23.167 127.5 42.5
s83.667 40.166 119 62.499s65.666 47.166 90.999 74.499c-24.667 130 -88 261.667 -190 395l23 182c31.333 -50.667 59 -93.167 83 -127.5s44.667 -60.5 62 -78.5c34 -33.333 69.333 -50 106 -50c51.333 0 86.666 20.333 105.999 61c18.667 37.333 21 89 7 155
c8 4 16.333 6 25 6c15.333 0 30 -4 44 -12l8 -53.5c2.66699 -17 5.66699 -33.167 9 -48.5c2.66699 -14.667 8.16699 -28.5 16.5 -41.5s18.166 -24.5 29.499 -34.5s24 -17.833 38 -23.5s28.333 -8.5 43 -8.5c51.333 0 86.666 20.333 105.999 61
c9.33301 19.333 14.5 41.833 15.5 67.5s-1.83301 54.834 -8.5 87.501c4 2 8.5 3.5 13.5 4.5s9.5 1.5 13.5 1.5c12.667 0 27 -4 43 -12c3.33301 -18.667 6.33301 -36.5 9 -53.5s5.66699 -33.167 9 -48.5c2.66699 -15.333 8.16699 -29.5 16.5 -42.5s18.5 -24.333 30.5 -34
s25.833 -17.334 41.5 -23.001s32.167 -8.5 49.5 -8.5h20c16.667 0 27 -9.66699 31 -29l19 -86v0zM1186 578.003l-142 101l86 109l141 -102zM1415 -394.997l-142 101l86 109l141 -102z" />
    <glyph glyph-name="uni069B.init" unicode="&#x69b;" horiz-adv-x="983" 
d="M894 275c0 -74.667 -16.3369 -138.329 -49.0039 -190.996c-38 -56 -84 -84 -138 -84c-91.333 0 -154.333 43 -189 129h-4c-8 -86 -55 -129 -141 -129c-38 0 -73.667 11.333 -107 34c-35.333 23.333 -60.666 55 -75.999 95h-3c-3.33301 -18.667 -9 -35.834 -17 -51.501
s-19.667 -29.5 -35 -41.5c-16.667 -12 -35.167 -21 -55.5 -27s-43.833 -9 -70.5 -9h-20c-16.667 0 -26.334 8 -29.001 24l-19 86c-4 19.333 2.33301 29 19 29h20c124.667 0 172 72 142 216c8.66699 4 17.334 6 26.001 6c13.333 0 28 -4 44 -12
c2 -18.667 4.5 -36.5 7.5 -53.5s6.16699 -33.167 9.5 -48.5c2.66699 -14.667 8 -28.5 16 -41.5s17.5 -24.5 28.5 -34.5s23.167 -17.833 36.5 -23.5s27 -8.5 41 -8.5c50.667 0 85.334 20.333 104.001 61c18.667 39.333 21.667 91 9 155c6.66699 4 15 6 25 6
c12 0 26.667 -4 44 -12c2 -18.667 4.5 -36.5 7.5 -53.5s6.16699 -33.167 9.5 -48.5c2.66699 -14.667 8.16699 -28.5 16.5 -41.5s18.166 -24.5 29.499 -34.5s23.833 -17.833 37.5 -23.5s27.834 -8.5 42.501 -8.5c88 0 140.667 33 158 99
c-9.33301 25.333 -24.166 50.166 -44.499 74.499s-45.166 48.166 -74.499 71.499l37 175c39.333 -46.667 72.333 -93.334 99 -140.001s47.667 -94.667 63 -144zM581.996 -584.995l-116 96l76 95l115 -95zM653.996 -389.995l-116 96l76 95l115 -95zM426.996 -389.995l-116 96
l76 95l115 -95z" />
    <glyph glyph-name="uni069B.medi" unicode="&#x69b;" horiz-adv-x="1058" 
d="M1089 24c2.66699 -16 -4.34082 -23.9961 -21.0078 -23.9961h-19c-17.333 0 -35.166 3.16699 -53.499 9.5s-35.666 15.166 -51.999 26.499s-31.166 24.833 -44.499 40.5s-23.666 33.167 -30.999 52.5h-4c-7.33301 -86 -52 -129 -134 -129c-91.333 0 -154.333 43 -189 129
h-3c-9.33301 -86 -56.333 -129 -141 -129c-104 0 -173 43 -207 129h-3c-3.33301 -18.667 -9 -35.834 -17 -51.501s-19.667 -29.5 -35 -41.5c-16.667 -12 -35.167 -21 -55.5 -27s-43.833 -9 -70.5 -9h-20c-16.667 0 -26.334 8 -29.001 24l-19 86c-4 19.333 2.33301 29 19 29
l20 -2c124.667 2 172 74 142 216c8.66699 4 17.667 6 27 6c12.667 0 27.334 -3.66699 44.001 -11c1.33301 -18 3.5 -35.5 6.5 -52.5s6.16699 -33.167 9.5 -48.5c2.66699 -15.333 8.33398 -29.5 17.001 -42.5s19.334 -24.333 32.001 -34s27.167 -17.334 43.5 -23.001
s33.833 -8.5 52.5 -8.5c52 0 86.667 20.333 104 61c19.333 38.667 22 89.667 8 153c8.66699 4 17.667 6 27 6c12.667 0 27.334 -3.66699 44.001 -11c1.33301 -18 3.5 -35.5 6.5 -52.5s6.16699 -33.167 9.5 -48.5c2.66699 -14.667 8 -28.5 16 -41.5s17.833 -24.5 29.5 -34.5
s24.334 -17.833 38.001 -23.5s28.167 -8.5 43.5 -8.5c25.333 0 46.666 4.83301 63.999 14.5s30.666 25.167 39.999 46.5c19.333 38 22.333 89 9 153c8 4 16.667 6 26 6c12.667 0 27.334 -3.66699 44.001 -11c2 -18 4.33301 -35.5 7 -52.5s5.66699 -33.167 9 -48.5
c2.66699 -15.333 8.33398 -29.5 17.001 -42.5s19.167 -24.333 31.5 -34s26.333 -17.334 42 -23.001s32.167 -8.5 49.5 -8.5h19c17.333 0 28 -9.66699 32 -29l19 -86v0zM676.992 -564.996l-116 96l76 95l115 -95zM748.992 -369.996l-116 96l76 95l115 -95zM521.992 -369.996
l-116 96l76 95l115 -95z" />
    <glyph glyph-name="uni069B.fina" unicode="&#x69b;" horiz-adv-x="1775" 
d="M1806 24c2.66699 -16 -4.00391 -23.9971 -20.0039 -23.9971h-20c-16.667 0 -34 3.16699 -52 9.5s-35.167 15.166 -51.5 26.499s-31.166 24.833 -44.499 40.5s-23.666 33.167 -30.999 52.5h-4c-7.33301 -86 -52.333 -129 -135 -129c-90.667 0 -154 43 -190 129h-3
c-9.33301 -86 -56.333 -129 -141 -129c-32.667 0 -67 10.333 -103 31c7.33301 -22.667 14 -44.167 20 -64.5s11 -40.166 15 -59.499c7.33301 -32 9.83301 -65.667 7.5 -101s-9.16602 -73.333 -20.499 -114c-21.333 -24.667 -48.666 -48.334 -81.999 -71.001
s-72.666 -45.334 -117.999 -68.001c-105.333 -51.333 -208.333 -77 -309 -77c-52 0 -99.667 6.16699 -143 18.5s-83.666 30.5 -120.999 54.5c-76.667 51.333 -124.334 122.333 -143.001 213c-23.333 106 -6.66602 238.667 50.001 398c20.667 0 43.334 -9.33301 68.001 -28
c-9.33301 -20 -16.166 -42.167 -20.499 -66.5s-7.83301 -51.5 -10.5 -81.5c-1.33301 -27.333 -1.33301 -52.166 0 -74.499s4 -42.5 8 -60.5c14.667 -69.333 49.5 -124 104.5 -164s126.167 -60 213.5 -60c38.667 0 78.5 4.5 119.5 13.5s83.5 23.167 127.5 42.5
s83.667 40.166 119 62.499s65.666 47.166 90.999 74.499c-24.667 130 -88 261.667 -190 395l23 182c31.333 -50.667 59 -93.167 83 -127.5s44.667 -60.5 62 -78.5c34 -33.333 69.333 -50 106 -50c51.333 0 86.666 20.333 105.999 61c18.667 37.333 21 89 7 155
c8 4 16.333 6 25 6c15.333 0 30 -4 44 -12l8 -53.5c2.66699 -17 5.66699 -33.167 9 -48.5c2.66699 -14.667 8.16699 -28.5 16.5 -41.5s18.166 -24.5 29.499 -34.5s24 -17.833 38 -23.5s28.333 -8.5 43 -8.5c51.333 0 86.666 20.333 105.999 61
c9.33301 19.333 14.5 41.833 15.5 67.5s-1.83301 54.834 -8.5 87.501c4 2 8.5 3.5 13.5 4.5s9.5 1.5 13.5 1.5c12.667 0 27 -4 43 -12c3.33301 -18.667 6.33301 -36.5 9 -53.5s5.66699 -33.167 9 -48.5c2.66699 -15.333 8.16699 -29.5 16.5 -42.5s18.5 -24.333 30.5 -34
s25.833 -17.334 41.5 -23.001s32.167 -8.5 49.5 -8.5h20c16.667 0 27 -9.66699 31 -29l19 -86v0zM1475 -560.997l-116 96l76 95l115 -95zM1547 -365.997l-116 96l76 95l115 -95zM1320 -365.997l-116 96l76 95l115 -95z" />
    <glyph glyph-name="uni069C.init" unicode="&#x69c;" horiz-adv-x="983" 
d="M894 275c0 -74.667 -16.3369 -138.329 -49.0039 -190.996c-38 -56 -84 -84 -138 -84c-91.333 0 -154.333 43 -189 129h-4c-8 -86 -55 -129 -141 -129c-38 0 -73.667 11.333 -107 34c-35.333 23.333 -60.666 55 -75.999 95h-3c-3.33301 -18.667 -9 -35.834 -17 -51.501
s-19.667 -29.5 -35 -41.5c-16.667 -12 -35.167 -21 -55.5 -27s-43.833 -9 -70.5 -9h-20c-16.667 0 -26.334 8 -29.001 24l-19 86c-4 19.333 2.33301 29 19 29h20c124.667 0 172 72 142 216c8.66699 4 17.334 6 26.001 6c13.333 0 28 -4 44 -12
c2 -18.667 4.5 -36.5 7.5 -53.5s6.16699 -33.167 9.5 -48.5c2.66699 -14.667 8 -28.5 16 -41.5s17.5 -24.5 28.5 -34.5s23.167 -17.833 36.5 -23.5s27 -8.5 41 -8.5c50.667 0 85.334 20.333 104.001 61c18.667 39.333 21.667 91 9 155c6.66699 4 15 6 25 6
c12 0 26.667 -4 44 -12c2 -18.667 4.5 -36.5 7.5 -53.5s6.16699 -33.167 9.5 -48.5c2.66699 -14.667 8.16699 -28.5 16.5 -41.5s18.166 -24.5 29.499 -34.5s23.833 -17.833 37.5 -23.5s27.834 -8.5 42.501 -8.5c88 0 140.667 33 158 99
c-9.33301 25.333 -24.166 50.166 -44.499 74.499s-45.166 48.166 -74.499 71.499l37 175c39.333 -46.667 72.333 -93.334 99 -140.001s47.667 -94.667 63 -144zM646.996 -576.995l-116 96l76 95l115 -95zM718.996 -381.995l-116 96l76 95l115 -95zM491.996 -381.995l-116 96
l76 95l115 -95zM401.996 803.005l-114 93l74 98l117 -98zM557.996 606.005l-115 95l74 98l117 -98zM330.996 606.005l-117 95l76 98l117 -98z" />
    <glyph glyph-name="uni069C.medi" unicode="&#x69c;" horiz-adv-x="1058" 
d="M1089 24c2.66699 -16 -4.34082 -23.9961 -21.0078 -23.9961h-19c-17.333 0 -35.166 3.16699 -53.499 9.5s-35.666 15.166 -51.999 26.499s-31.166 24.833 -44.499 40.5s-23.666 33.167 -30.999 52.5h-4c-7.33301 -86 -52 -129 -134 -129c-91.333 0 -154.333 43 -189 129
h-3c-9.33301 -86 -56.333 -129 -141 -129c-104 0 -173 43 -207 129h-3c-3.33301 -18.667 -9 -35.834 -17 -51.501s-19.667 -29.5 -35 -41.5c-16.667 -12 -35.167 -21 -55.5 -27s-43.833 -9 -70.5 -9h-20c-16.667 0 -26.334 8 -29.001 24l-19 86c-4 19.333 2.33301 29 19 29
l20 -2c124.667 2 172 74 142 216c8.66699 4 17.667 6 27 6c12.667 0 27.334 -3.66699 44.001 -11c1.33301 -18 3.5 -35.5 6.5 -52.5s6.16699 -33.167 9.5 -48.5c2.66699 -15.333 8.33398 -29.5 17.001 -42.5s19.334 -24.333 32.001 -34s27.167 -17.334 43.5 -23.001
s33.833 -8.5 52.5 -8.5c52 0 86.667 20.333 104 61c19.333 38.667 22 89.667 8 153c8.66699 4 17.667 6 27 6c12.667 0 27.334 -3.66699 44.001 -11c1.33301 -18 3.5 -35.5 6.5 -52.5s6.16699 -33.167 9.5 -48.5c2.66699 -14.667 8 -28.5 16 -41.5s17.833 -24.5 29.5 -34.5
s24.334 -17.833 38.001 -23.5s28.167 -8.5 43.5 -8.5c25.333 0 46.666 4.83301 63.999 14.5s30.666 25.167 39.999 46.5c19.333 38 22.333 89 9 153c8 4 16.667 6 26 6c12.667 0 27.334 -3.66699 44.001 -11c2 -18 4.33301 -35.5 7 -52.5s5.66699 -33.167 9 -48.5
c2.66699 -15.333 8.33398 -29.5 17.001 -42.5s19.167 -24.333 31.5 -34s26.333 -17.334 42 -23.001s32.167 -8.5 49.5 -8.5h19c17.333 0 28 -9.66699 32 -29l19 -86v0zM693.992 -572.996l-116 96l76 95l115 -95zM765.992 -377.996l-116 96l76 95l115 -95zM538.992 -377.996
l-116 96l76 95l115 -95zM431.992 747.004l-114 93l74 98l117 -98zM587.992 550.004l-115 95l74 98l117 -98zM360.992 550.004l-117 95l76 98l117 -98z" />
    <glyph glyph-name="uni069C.fina" unicode="&#x69c;" horiz-adv-x="1775" 
d="M1806 24c2.66699 -16 -4.00391 -23.9971 -20.0039 -23.9971h-20c-16.667 0 -34 3.16699 -52 9.5s-35.167 15.166 -51.5 26.499s-31.166 24.833 -44.499 40.5s-23.666 33.167 -30.999 52.5h-4c-7.33301 -86 -52.333 -129 -135 -129c-90.667 0 -154 43 -190 129h-3
c-9.33301 -86 -56.333 -129 -141 -129c-32.667 0 -67 10.333 -103 31c7.33301 -22.667 14 -44.167 20 -64.5s11 -40.166 15 -59.499c7.33301 -32 9.83301 -65.667 7.5 -101s-9.16602 -73.333 -20.499 -114c-21.333 -24.667 -48.666 -48.334 -81.999 -71.001
s-72.666 -45.334 -117.999 -68.001c-105.333 -51.333 -208.333 -77 -309 -77c-52 0 -99.667 6.16699 -143 18.5s-83.666 30.5 -120.999 54.5c-76.667 51.333 -124.334 122.333 -143.001 213c-23.333 106 -6.66602 238.667 50.001 398c20.667 0 43.334 -9.33301 68.001 -28
c-9.33301 -20 -16.166 -42.167 -20.499 -66.5s-7.83301 -51.5 -10.5 -81.5c-1.33301 -27.333 -1.33301 -52.166 0 -74.499s4 -42.5 8 -60.5c14.667 -69.333 49.5 -124 104.5 -164s126.167 -60 213.5 -60c38.667 0 78.5 4.5 119.5 13.5s83.5 23.167 127.5 42.5
s83.667 40.166 119 62.499s65.666 47.166 90.999 74.499c-24.667 130 -88 261.667 -190 395l23 182c31.333 -50.667 59 -93.167 83 -127.5s44.667 -60.5 62 -78.5c34 -33.333 69.333 -50 106 -50c51.333 0 86.666 20.333 105.999 61c18.667 37.333 21 89 7 155
c8 4 16.333 6 25 6c15.333 0 30 -4 44 -12l8 -53.5c2.66699 -17 5.66699 -33.167 9 -48.5c2.66699 -14.667 8.16699 -28.5 16.5 -41.5s18.166 -24.5 29.499 -34.5s24 -17.833 38 -23.5s28.333 -8.5 43 -8.5c51.333 0 86.666 20.333 105.999 61
c9.33301 19.333 14.5 41.833 15.5 67.5s-1.83301 54.834 -8.5 87.501c4 2 8.5 3.5 13.5 4.5s9.5 1.5 13.5 1.5c12.667 0 27 -4 43 -12c3.33301 -18.667 6.33301 -36.5 9 -53.5s5.66699 -33.167 9 -48.5c2.66699 -15.333 8.16699 -29.5 16.5 -42.5s18.5 -24.333 30.5 -34
s25.833 -17.334 41.5 -23.001s32.167 -8.5 49.5 -8.5h20c16.667 0 27 -9.66699 31 -29l19 -86v0zM1471 -543.997l-116 96l76 95l115 -95zM1543 -348.997l-116 96l76 95l115 -95zM1316 -348.997l-116 96l76 95l115 -95zM1164 740.003l-114 93l74 98l117 -98zM1320 543.003
l-115 95l74 98l117 -98zM1093 543.003l-117 95l76 98l117 -98z" />
    <glyph glyph-name="uni069D.init" unicode="&#x69d;" horiz-adv-x="1231" 
d="M1136 299c-24.667 -56.667 -56.335 -104.83 -95.002 -144.497s-85 -70.5 -139 -92.5c-48.667 -21.333 -109.334 -37 -182.001 -47s-157.667 -15 -255 -15c-149.333 0 -241 43 -275 129h-3c-3.33301 -18.667 -9 -35.834 -17 -51.501s-19.667 -29.5 -35 -41.5
c-16.667 -12 -35.167 -21 -55.5 -27s-43.833 -9 -70.5 -9h-20c-16.667 0 -26.334 8 -29.001 24l-19 86c-4 19.333 2.33301 29 19 29h20c124.667 0 172 72 142 216c8.66699 4 17.334 6 26.001 6c13.333 0 28 -4 44 -12c2 -18.667 4.5 -36.5 7.5 -53.5
s6.16699 -33.167 9.5 -48.5c2.66699 -15.333 8.33398 -29.5 17.001 -42.5s19.5 -24.333 32.5 -34s28 -17.334 45 -23.001s35.5 -8.5 55.5 -8.5c52.667 80.667 102.334 148.667 149.001 204s91.334 98.666 134.001 129.999c60.667 44 123.667 66 189 66
c73.333 0 140 -26 200 -78c58 -48 93 -102 105 -162zM1034 247.004c-4.66699 21.333 -14 41.667 -28 61s-32.333 38 -55 56c-45.333 36 -92.333 54 -141 54c-59.333 0 -119.5 -23.167 -180.5 -69.5s-122.833 -116.166 -185.5 -209.499h182c44.667 0 87.5 2.66699 128.5 8
s81.5 13.666 121.5 24.999c77.333 21.333 130 46.333 158 75zM714.999 -401.995l-144 101l87 110l140 -103zM476.999 -421.995l-140 99l86 110l139 -103z" />
    <glyph glyph-name="uni069D.medi" unicode="&#x69d;" horiz-adv-x="1207" 
d="M1300 24c2.66699 -16 -4.00293 -23.998 -20.0029 -23.998h-90c-44.667 0 -97 3.16699 -157 9.5s-129.333 16.5 -208 30.5c-57.333 -14 -116 -24.167 -176 -30.5s-121.333 -9.5 -184 -9.5c-149.333 0 -241 43 -275 129h-3c-3.33301 -18.667 -9 -35.834 -17 -51.501
s-19.667 -29.5 -35 -41.5c-16.667 -12 -35.167 -21 -55.5 -27s-43.833 -9 -70.5 -9h-20c-16.667 0 -26.334 8 -29.001 24l-19 86c-4 19.333 2.33301 29 19 29h20c124.667 0 172 72 142 216c8.66699 4 17.334 6 26.001 6c13.333 0 28 -4 44 -12
c2 -18.667 4.5 -36.5 7.5 -53.5s6.16699 -33.167 9.5 -48.5c2.66699 -15.333 8.33398 -29.5 17.001 -42.5s19.5 -24.333 32.5 -34s28 -17.334 45 -23.001s35.5 -8.5 55.5 -8.5c52.667 80.667 102.334 148.667 149.001 204s91.334 98.666 134.001 129.999
c60.667 44 123.667 66 189 66c73.333 0 140 -26 200 -78c58 -48 93 -102 105 -162c-2 -26 -13 -51.667 -33 -77s-48 -50.666 -84 -75.999l2 -7h229c16.667 0 27 -9.66699 31 -29zM1034 247.002c-4.66699 21.333 -14 41.667 -28 61s-32.333 38 -55 56
c-45.333 36 -92.333 54 -141 54c-59.333 0 -119.5 -23.167 -180.5 -69.5s-122.833 -116.166 -185.5 -209.499h182c44.667 0 87.5 2.66699 128.5 8s81.5 13.666 121.5 24.999c77.333 21.333 130 46.333 158 75zM780.997 -399.997l-144 101l87 110l140 -103zM542.997 -419.997
l-140 99l86 110l139 -103z" />
    <glyph glyph-name="uni069D.fina" unicode="&#x69d;" horiz-adv-x="1977" 
d="M2008 24c4 -16 -2.00098 -23.998 -18.001 -23.998h-92c-44.667 0 -96.834 3.16699 -156.501 9.5s-128.834 16.5 -207.501 30.5c-58 -14 -117 -24.167 -177 -30.5s-121.333 -9.5 -184 -9.5c-72 0 -126 10.333 -162 31c7.33301 -22.667 14 -44.167 20 -64.5
s11 -40.166 15 -59.499c7.33301 -32 9.83301 -65.667 7.5 -101s-9.16602 -73.333 -20.499 -114c-21.333 -24.667 -48.666 -48.334 -81.999 -71.001s-72.666 -45.334 -117.999 -68.001c-105.333 -51.333 -208.333 -77 -309 -77c-52 0 -99.667 6.16699 -143 18.5
s-83.666 30.5 -120.999 54.5c-76.667 51.333 -124.334 122.333 -143.001 213c-23.333 106 -6.66602 238.667 50.001 398c20.667 0 43.334 -9.33301 68.001 -28c-9.33301 -20 -16.166 -42.167 -20.499 -66.5s-7.83301 -51.5 -10.5 -81.5
c-1.33301 -27.333 -1.33301 -52.166 0 -74.499s4 -42.5 8 -60.5c14.667 -69.333 49.5 -124 104.5 -164s126.167 -60 213.5 -60c38.667 0 78.5 4.5 119.5 13.5s83.5 23.167 127.5 42.5s83.667 40.166 119 62.499s65.666 47.166 90.999 74.499
c-24.667 130 -88 261.667 -190 395l23 182c31.333 -50.667 58.666 -93 81.999 -127s43.666 -59.667 60.999 -77c34.667 -34.667 69.334 -52 104.001 -52c105.333 160 199.666 271.333 282.999 334c31.333 22 62.166 38.5 92.499 49.5s62.5 16.5 96.5 16.5
c74.667 0 142.334 -26 203.001 -78c57.333 -48.667 92 -102.667 104 -162c-7.33301 -52 -46.333 -103 -117 -153l2 -7h229c14.667 0 24.667 -9.66699 30 -29zM1744 247.002c-4.66699 21.333 -14 41.667 -28 61s-32.333 38 -55 56c-45.333 36 -92 54 -140 54
c-121.333 0 -244.333 -93 -369 -279h182c87.333 0 171 11 251 33c38 10.667 70.5 22.167 97.5 34.5s47.5 25.833 61.5 40.5zM1605 -413.997l-144 101l87 110l140 -103zM1367 -433.997l-140 99l86 110l139 -103z" />
    <glyph glyph-name="uni069E.init" unicode="&#x69e;" horiz-adv-x="1231" 
d="M1136 299c-24.667 -56.667 -56.335 -104.83 -95.002 -144.497s-85 -70.5 -139 -92.5c-48.667 -21.333 -109.334 -37 -182.001 -47s-157.667 -15 -255 -15c-149.333 0 -241 43 -275 129h-3c-3.33301 -18.667 -9 -35.834 -17 -51.501s-19.667 -29.5 -35 -41.5
c-16.667 -12 -35.167 -21 -55.5 -27s-43.833 -9 -70.5 -9h-20c-16.667 0 -26.334 8 -29.001 24l-19 86c-4 19.333 2.33301 29 19 29h20c124.667 0 172 72 142 216c8.66699 4 17.334 6 26.001 6c13.333 0 28 -4 44 -12c2 -18.667 4.5 -36.5 7.5 -53.5
s6.16699 -33.167 9.5 -48.5c2.66699 -15.333 8.33398 -29.5 17.001 -42.5s19.5 -24.333 32.5 -34s28 -17.334 45 -23.001s35.5 -8.5 55.5 -8.5c52.667 80.667 102.334 148.667 149.001 204s91.334 98.666 134.001 129.999c60.667 44 123.667 66 189 66
c73.333 0 140 -26 200 -78c58 -48 93 -102 105 -162zM1034 247.004c-4.66699 21.333 -14 41.667 -28 61s-32.333 38 -55 56c-45.333 36 -92.333 54 -141 54c-59.333 0 -119.5 -23.167 -180.5 -69.5s-122.833 -116.166 -185.5 -209.499h182c44.667 0 87.5 2.66699 128.5 8
s81.5 13.666 121.5 24.999c77.333 21.333 130 46.333 158 75zM262.999 855.005l-114 93l74 98l117 -98zM418.999 658.005l-115 95l74 98l117 -98zM191.999 658.005l-117 95l76 98l117 -98z" />
    <glyph glyph-name="uni069E.medi" unicode="&#x69e;" horiz-adv-x="1269" 
d="M1300 24c2.66699 -16 -4.00293 -23.998 -20.0029 -23.998h-90c-44.667 0 -97 3.16699 -157 9.5s-129.333 16.5 -208 30.5c-57.333 -14 -116 -24.167 -176 -30.5s-121.333 -9.5 -184 -9.5c-149.333 0 -241 43 -275 129h-3c-3.33301 -18.667 -9 -35.834 -17 -51.501
s-19.667 -29.5 -35 -41.5c-16.667 -12 -35.167 -21 -55.5 -27s-43.833 -9 -70.5 -9h-20c-16.667 0 -26.334 8 -29.001 24l-19 86c-4 19.333 2.33301 29 19 29h20c124.667 0 172 72 142 216c8.66699 4 17.334 6 26.001 6c13.333 0 28 -4 44 -12
c2 -18.667 4.5 -36.5 7.5 -53.5s6.16699 -33.167 9.5 -48.5c2.66699 -15.333 8.33398 -29.5 17.001 -42.5s19.5 -24.333 32.5 -34s28 -17.334 45 -23.001s35.5 -8.5 55.5 -8.5c52.667 80.667 102.334 148.667 149.001 204s91.334 98.666 134.001 129.999
c60.667 44 123.667 66 189 66c73.333 0 140 -26 200 -78c58 -48 93 -102 105 -162c-2 -26 -13 -51.667 -33 -77s-48 -50.666 -84 -75.999l2 -7h229c16.667 0 27 -9.66699 31 -29zM1034 247.002c-4.66699 21.333 -14 41.667 -28 61s-32.333 38 -55 56
c-45.333 36 -92.333 54 -141 54c-59.333 0 -119.5 -23.167 -180.5 -69.5s-122.833 -116.166 -185.5 -209.499h182c44.667 0 87.5 2.66699 128.5 8s81.5 13.666 121.5 24.999c77.333 21.333 130 46.333 158 75zM296.997 842.003l-114 93l74 98l117 -98zM452.997 645.003
l-115 95l74 98l117 -98zM225.997 645.003l-117 95l76 98l117 -98z" />
    <glyph glyph-name="uni069E.fina" unicode="&#x69e;" horiz-adv-x="1977" 
d="M2008 24c4 -16 -2.00098 -23.998 -18.001 -23.998h-92c-44.667 0 -96.834 3.16699 -156.501 9.5s-128.834 16.5 -207.501 30.5c-58 -14 -117 -24.167 -177 -30.5s-121.333 -9.5 -184 -9.5c-72 0 -126 10.333 -162 31c7.33301 -22.667 14 -44.167 20 -64.5
s11 -40.166 15 -59.499c7.33301 -32 9.83301 -65.667 7.5 -101s-9.16602 -73.333 -20.499 -114c-21.333 -24.667 -48.666 -48.334 -81.999 -71.001s-72.666 -45.334 -117.999 -68.001c-105.333 -51.333 -208.333 -77 -309 -77c-52 0 -99.667 6.16699 -143 18.5
s-83.666 30.5 -120.999 54.5c-76.667 51.333 -124.334 122.333 -143.001 213c-23.333 106 -6.66602 238.667 50.001 398c20.667 0 43.334 -9.33301 68.001 -28c-9.33301 -20 -16.166 -42.167 -20.499 -66.5s-7.83301 -51.5 -10.5 -81.5
c-1.33301 -27.333 -1.33301 -52.166 0 -74.499s4 -42.5 8 -60.5c14.667 -69.333 49.5 -124 104.5 -164s126.167 -60 213.5 -60c38.667 0 78.5 4.5 119.5 13.5s83.5 23.167 127.5 42.5s83.667 40.166 119 62.499s65.666 47.166 90.999 74.499
c-24.667 130 -88 261.667 -190 395l23 182c31.333 -50.667 58.666 -93 81.999 -127s43.666 -59.667 60.999 -77c34.667 -34.667 69.334 -52 104.001 -52c105.333 160 199.666 271.333 282.999 334c31.333 22 62.166 38.5 92.499 49.5s62.5 16.5 96.5 16.5
c74.667 0 142.334 -26 203.001 -78c57.333 -48.667 92 -102.667 104 -162c-7.33301 -52 -46.333 -103 -117 -153l2 -7h229c14.667 0 24.667 -9.66699 30 -29zM1744 247.002c-4.66699 21.333 -14 41.667 -28 61s-32.333 38 -55 56c-45.333 36 -92 54 -140 54
c-121.333 0 -244.333 -93 -369 -279h182c87.333 0 171 11 251 33c38 10.667 70.5 22.167 97.5 34.5s47.5 25.833 61.5 40.5zM1058 847.003l-114 93l74 98l117 -98zM1214 650.003l-115 95l74 98l117 -98zM986.999 650.003l-117 95l76 98l117 -98z" />
    <glyph glyph-name="uni069F.medi" unicode="&#x69f;" horiz-adv-x="1171" 
d="M1202 24c4 -16 -2.66797 -24.001 -20.001 -24.001h-90c-44 0 -96 3.16699 -156 9.5s-129 16.5 -207 30.5c-70.667 -14 -133.667 -24.167 -189 -30.5s-104.666 -9.5 -147.999 -9.5h-118c-82.667 40.667 -165.334 97.334 -248.001 170.001c36 -10 73.833 -17.333 113.5 -22
s81.5 -7 125.5 -7c-23.333 110.667 -48.166 217.5 -74.499 320.5s-54.166 203.833 -83.499 302.5c-26.667 93.333 -50.667 169.333 -72 228s-39.666 100.667 -54.999 126l71 124c8 -16.667 19 -36.5 33 -59.5s31 -49.5 51 -79.5c19.333 -30 35.833 -54.5 49.5 -73.5
l31.5 -43.5c-14.667 4 -28.834 8.83301 -42.501 14.5s-26.167 11.5 -37.5 17.5c67.333 -223.333 132.666 -482.333 195.999 -777c82 118 156.667 199.333 224 244c54 36 113.333 54 178 54c72 0 139 -26 201 -78c56.667 -47.333 91 -101.333 103 -162
c-4 -51.333 -43 -102.333 -117 -153l2 -7h229c16 0 26.667 -9.66699 32 -29zM935.999 246.999c-4 21.333 -13 41.668 -27 61.001s-32.333 38 -55 56c-45.333 36 -92.333 54 -141 54c-120 0 -242 -93 -366 -279h182c44 0 86.667 2.66699 128 8s82.333 13.666 123 24.999
c76 20.667 128 45.667 156 75zM581.999 934.001l-114 93l74 98l117 -98zM737.999 737.001l-115 95l74 98l117 -98zM510.999 737.001l-117 95l76 98l117 -98z" />
    <glyph glyph-name="uni06A0.init" unicode="&#x6a0;" horiz-adv-x="787" 
d="M653 164c-40 0 -151.327 -26.9971 -333.994 -80.9971c-91.333 -27.333 -162.833 -47.666 -214.5 -60.999s-83.5 -20.666 -95.5 -21.999h-20c-16.667 0 -26.334 8 -29.001 24l-19 86c-4 19.333 2.33301 29 19 29h20c84.667 0 158.667 8.66699 222 26l-1 5
c-23.333 5.33301 -45.833 14.666 -67.5 27.999s-41.5 29.666 -59.5 48.999s-33.333 40.666 -46 63.999s-21.667 47.666 -27 72.999c-2.66699 13.333 -4.33398 25.666 -5.00098 36.999s-0.666992 21.666 0 30.999c53.333 142 136 213 248 213c101.333 0 194.333 -52 279 -156
c-66 23.333 -133 35 -201 35c-46 0 -89 -4.83301 -129 -14.5s-78.333 -23.834 -115 -42.501c1.33301 -4.66699 2.16602 -10.167 2.49902 -16.5s1.16602 -13.5 2.49902 -21.5c10 -50 40 -97 90 -141c25.333 -23.333 53.166 -42.666 83.499 -57.999
s62.166 -26.666 95.499 -33.999l58.5 17c27.667 8 64.5 19.333 110.5 34c94 30 151.333 50.333 172 61zM157.006 957.003l-114 93l74 98l117 -98zM313.006 760.003l-115 95l74 98l117 -98zM86.0059 760.003l-117 95l76 98l117 -98z" />
    <glyph glyph-name="uni06A0.medi" unicode="&#x6a0;" horiz-adv-x="600" 
d="M631 24c2.66699 -16 -3.99707 -24 -19.9971 -24h-20c-110.667 0 -210.334 40.667 -299.001 122c-77.333 -81.333 -161.333 -122 -252 -122h-51c-16.667 0 -26.334 8 -29.001 24l-19 86c-4 19.333 2.33301 29 19 29h44c85.333 0 155.666 21 210.999 63
c-57.333 63.333 -113.333 95 -168 95c-7.33301 0 -24.333 -1 -51 -3l34 122c32 17.333 64 30 96 38s64.667 12 98 12c34 0 69.167 -6.5 105.5 -19.5s74.5 -33.5 114.5 -61.5l-17 -89l-79 -87c49.333 -46.667 120.333 -70 213 -70h20c16.667 0 27 -9.66699 31 -29l19 -86v0z
M133.003 799l-114 93l74 98l117 -98zM289.003 602l-115 95l74 98l117 -98zM62.0029 602l-117 95l76 98l117 -98z" />
    <glyph glyph-name="uni06A0.fina" unicode="&#x6a0;" horiz-adv-x="824" 
d="M872 -510c-44.667 -9.33301 -109.666 -13.9971 -194.999 -13.9971c-150 0 -273 24.333 -369 73c-112.667 59.333 -182 148.333 -208 267c-36 167.333 51.667 325.333 263 474c-62 63.333 -118.667 95 -170 95c-5.33301 0 -22.333 -1 -51 -3l36 122
c33.333 17.333 65.666 30.166 96.999 38.499s63 12.5 95 12.5c40.667 0 81 -7.5 121 -22.5s80 -37.5 120 -67.5l-17 -88l-110 -87c109.333 -100.667 209.666 -151 300.999 -151h19c17.333 0 28 -9.66699 32 -29l18 -86c4 -16 -2.66699 -24 -20 -24h-19
c-98 0 -230.333 78.667 -397 236c-157.333 -124 -224 -243 -200 -357c20 -94.667 83.667 -168.334 191 -221.001c50 -24.667 104.667 -42.834 164 -54.501s124.666 -17.5 195.999 -17.5c26.667 0 54.334 1.16699 83.001 3.5s59.334 5.83301 92.001 10.5zM275.001 871.003
l-114 93l74 98l117 -98zM431.001 674.003l-115 95l74 98l117 -98zM204.001 674.003l-117 95l76 98l117 -98z" />
    <glyph glyph-name="afii57459" unicode="&#x6a1;" horiz-adv-x="555" 
d="M436 392c11.333 -52.667 17.5 -103.333 18.5 -152s-2.5 -95 -10.5 -139c-14 -12 -35.167 -23.667 -63.5 -35s-64.5 -22.333 -108.5 -33c-46 -11.333 -90.333 -19.666 -133 -24.999s-85.334 -8 -128.001 -8h-22c-16.667 0 -26.334 8 -29.001 24l-19 86
c-4 19.333 2.33301 29 19 29h20c46 0 90 1.83301 132 5.5s82.333 9.5 121 17.5c36 7.33301 65 14.666 87 21.999s38 15.333 48 24c6.66699 20.667 10.334 43.667 11.001 69s-2 54 -8 86c-33.333 -34 -89.333 -51 -168 -51c-66.667 0 -125.334 17 -176.001 51
c-15.333 42 -26.666 78.667 -33.999 110c-28 134.667 2 244.667 90 330c184.667 -40.667 302.334 -177.667 353.001 -411zM329 488.001c-8 36.667 -35.668 73 -83.001 109c-49.333 36.667 -100.333 55 -153 55c-33.333 -33.333 -41.666 -88 -24.999 -164
c29.333 -24.667 72.666 -37 129.999 -37c58.667 0 102.334 12.333 131.001 37z" />
    <glyph glyph-name="afii57374" unicode="&#x6a1;" horiz-adv-x="600" 
d="M631 24c2.66699 -16 -4 -24.001 -20 -24.001h-20c-53.333 0 -105 7.5 -155 22.5s-99 37.5 -147 67.5c-30 -30 -68 -52.5 -114 -67.5s-101.333 -22.5 -166 -22.5h-20c-16.667 0 -26.334 8 -29.001 24l-19 86c-4 19.333 2.33301 29 19 29h20
c79.333 0 137.333 7.66699 174 23c-34.667 20.667 -62.167 45.834 -82.5 75.501s-34.833 64.5 -43.5 104.5c-15.333 72 -5.66602 135.5 29.001 190.5s92 97.5 172 127.5c120 -76.667 191 -168.334 213 -275.001c16.667 -80 -6 -151 -68 -213
c28 -11.333 57.833 -19.666 89.5 -24.999s64.167 -8 97.5 -8h20c16.667 0 27 -9.66699 31 -29zM359 362.999c-11.333 56 -52.6641 103 -123.997 141c-79.333 -16 -122.333 -71 -129 -165c5.33301 -12 14.166 -25 26.499 -39s28.166 -28.667 47.499 -44
c17.333 -14.667 33.166 -26.5 47.499 -35.5s26.833 -15.833 37.5 -20.5c39.333 13.333 67 36 83 68c14 29.333 17.667 61 11 95z" />
    <glyph glyph-name="afii52258" unicode="&#x6a1;" horiz-adv-x="1417" 
d="M1448 24c2.66699 -16 -4.33398 -24.0049 -21.001 -24.0049h-20c-52.667 0 -104.167 7.5 -154.5 22.5s-99.5 37.5 -147.5 67.5c-16 -17.333 -37 -32.166 -63 -44.499s-56.667 -22.833 -92 -31.5c-40.667 -8 -92 -14.167 -154 -18.5s-135.333 -6.5 -220 -6.5
c-84 0 -158.833 6.33301 -224.5 19s-122.5 32.334 -170.5 59.001c-85.333 46.667 -136.333 109.667 -153 189c-17.333 80 -3.33301 176.667 42 290c0 1.33301 3.66699 2 11 2c16.667 0 32.667 -10.333 48 -31c-12.667 -33.333 -20.5 -65.166 -23.5 -95.499
s-1.83301 -59.166 3.5 -86.499c26.667 -130.667 200.334 -196 521.001 -196c78.667 0 146.167 1.83301 202.5 5.5s102.5 9.5 138.5 17.5c-69.333 40.667 -112.333 100.667 -129 180c-15.333 72 -5.16602 135.5 30.501 190.5s93.167 97.5 172.5 127.5
c59.333 -38 106.833 -79.833 142.5 -125.5s59.167 -95.5 70.5 -149.5c18 -79.333 -4.33301 -150.333 -67 -213c28 -11.333 57.667 -19.666 89 -24.999s63.666 -8 96.999 -8h20c17.333 0 28 -9.66699 32 -29zM1173 362.995c-11.333 55.333 -51.668 102.333 -121.001 141
c-80.667 -16 -124 -71 -130 -165c11.333 -24 36 -51.667 74 -83c33.333 -28 62 -46.667 86 -56c18 6.66699 34 15.667 48 27s24.667 25 32 41c14.667 28 18.334 59.667 11.001 95z" />
    <glyph glyph-name="uni06A2.init" unicode="&#x6a2;" horiz-adv-x="555" 
d="M436 392c11.333 -52.667 17.5 -103.333 18.5 -152s-2.5 -95 -10.5 -139c-14 -12 -35.167 -23.667 -63.5 -35s-64.5 -22.333 -108.5 -33c-46 -11.333 -90.333 -19.666 -133 -24.999s-85.334 -8 -128.001 -8h-22c-16.667 0 -26.334 8 -29.001 24l-19 86
c-4 19.333 2.33301 29 19 29h20c46 0 90 1.83301 132 5.5s82.333 9.5 121 17.5c36 7.33301 65 14.666 87 21.999s38 15.333 48 24c6.66699 20.667 10.334 43.667 11.001 69s-2 54 -8 86c-33.333 -34 -89.333 -51 -168 -51c-66.667 0 -125.334 17 -176.001 51
c-15.333 42 -26.666 78.667 -33.999 110c-28 134.667 2 244.667 90 330c184.667 -40.667 302.334 -177.667 353.001 -411zM329 488.001c-8 36.667 -35.668 73 -83.001 109c-49.333 36.667 -100.333 55 -153 55c-33.333 -33.333 -41.666 -88 -24.999 -164
c29.333 -24.667 72.666 -37 129.999 -37c58.667 0 102.334 12.333 131.001 37zM357.999 -349.999l-142 101l86 109l141 -102z" />
    <glyph glyph-name="uni06A2.medi" unicode="&#x6a2;" horiz-adv-x="600" 
d="M631 24c2.66699 -16 -4 -24.001 -20 -24.001h-20c-53.333 0 -105 7.5 -155 22.5s-99 37.5 -147 67.5c-30 -30 -68 -52.5 -114 -67.5s-101.333 -22.5 -166 -22.5h-20c-16.667 0 -26.334 8 -29.001 24l-19 86c-4 19.333 2.33301 29 19 29h20
c79.333 0 137.333 7.66699 174 23c-34.667 20.667 -62.167 45.834 -82.5 75.501s-34.833 64.5 -43.5 104.5c-15.333 72 -5.66602 135.5 29.001 190.5s92 97.5 172 127.5c120 -76.667 191 -168.334 213 -275.001c16.667 -80 -6 -151 -68 -213
c28 -11.333 57.833 -19.666 89.5 -24.999s64.167 -8 97.5 -8h20c16.667 0 27 -9.66699 31 -29zM359 362.999c-11.333 56 -52.6641 103 -123.997 141c-79.333 -16 -122.333 -71 -129 -165c5.33301 -12 14.166 -25 26.499 -39s28.166 -28.667 47.499 -44
c17.333 -14.667 33.166 -26.5 47.499 -35.5s26.833 -15.833 37.5 -20.5c39.333 13.333 67 36 83 68c14 29.333 17.667 61 11 95zM404.002 -367.001l-142 101l86 109l141 -102z" />
    <glyph glyph-name="uni06A2.fina" unicode="&#x6a2;" horiz-adv-x="1417" 
d="M1448 24c2.66699 -16 -4.33398 -24.0049 -21.001 -24.0049h-20c-52.667 0 -104.167 7.5 -154.5 22.5s-99.5 37.5 -147.5 67.5c-16 -17.333 -37 -32.166 -63 -44.499s-56.667 -22.833 -92 -31.5c-40.667 -8 -92 -14.167 -154 -18.5s-135.333 -6.5 -220 -6.5
c-84 0 -158.833 6.33301 -224.5 19s-122.5 32.334 -170.5 59.001c-85.333 46.667 -136.333 109.667 -153 189c-17.333 80 -3.33301 176.667 42 290c0 1.33301 3.66699 2 11 2c16.667 0 32.667 -10.333 48 -31c-12.667 -33.333 -20.5 -65.166 -23.5 -95.499
s-1.83301 -59.166 3.5 -86.499c26.667 -130.667 200.334 -196 521.001 -196c78.667 0 146.167 1.83301 202.5 5.5s102.5 9.5 138.5 17.5c-69.333 40.667 -112.333 100.667 -129 180c-15.333 72 -5.16602 135.5 30.501 190.5s93.167 97.5 172.5 127.5
c59.333 -38 106.833 -79.833 142.5 -125.5s59.167 -95.5 70.5 -149.5c18 -79.333 -4.33301 -150.333 -67 -213c28 -11.333 57.667 -19.666 89 -24.999s63.666 -8 96.999 -8h20c17.333 0 28 -9.66699 32 -29zM1173 362.995c-11.333 55.333 -51.668 102.333 -121.001 141
c-80.667 -16 -124 -71 -130 -165c11.333 -24 36 -51.667 74 -83c33.333 -28 62 -46.667 86 -56c18 6.66699 34 15.667 48 27s24.667 25 32 41c14.667 28 18.334 59.667 11.001 95zM1210 -379.005l-142 101l86 109l141 -102z" />
    <glyph glyph-name="uni06A3.init" unicode="&#x6a3;" horiz-adv-x="555" 
d="M436 392c11.333 -52.667 17.5 -103.333 18.5 -152s-2.5 -95 -10.5 -139c-14 -12 -35.167 -23.667 -63.5 -35s-64.5 -22.333 -108.5 -33c-46 -11.333 -90.333 -19.666 -133 -24.999s-85.334 -8 -128.001 -8h-22c-16.667 0 -26.334 8 -29.001 24l-19 86
c-4 19.333 2.33301 29 19 29h20c46 0 90 1.83301 132 5.5s82.333 9.5 121 17.5c36 7.33301 65 14.666 87 21.999s38 15.333 48 24c6.66699 20.667 10.334 43.667 11.001 69s-2 54 -8 86c-33.333 -34 -89.333 -51 -168 -51c-66.667 0 -125.334 17 -176.001 51
c-15.333 42 -26.666 78.667 -33.999 110c-28 134.667 2 244.667 90 330c184.667 -40.667 302.334 -177.667 353.001 -411zM329 488.001c-8 36.667 -35.668 73 -83.001 109c-49.333 36.667 -100.333 55 -153 55c-33.333 -33.333 -41.666 -88 -24.999 -164
c29.333 -24.667 72.666 -37 129.999 -37c58.667 0 102.334 12.333 131.001 37zM98.999 930.001l-142 101l86 109l141 -102zM357.999 -342.999l-142 101l86 109l141 -102z" />
    <glyph glyph-name="uni06A3.medi" unicode="&#x6a3;" horiz-adv-x="600" 
d="M631 24c2.66699 -16 -4 -24.001 -20 -24.001h-20c-53.333 0 -105 7.5 -155 22.5s-99 37.5 -147 67.5c-30 -30 -68 -52.5 -114 -67.5s-101.333 -22.5 -166 -22.5h-20c-16.667 0 -26.334 8 -29.001 24l-19 86c-4 19.333 2.33301 29 19 29h20
c79.333 0 137.333 7.66699 174 23c-34.667 20.667 -62.167 45.834 -82.5 75.501s-34.833 64.5 -43.5 104.5c-15.333 72 -5.66602 135.5 29.001 190.5s92 97.5 172 127.5c120 -76.667 191 -168.334 213 -275.001c16.667 -80 -6 -151 -68 -213
c28 -11.333 57.833 -19.666 89.5 -24.999s64.167 -8 97.5 -8h20c16.667 0 27 -9.66699 31 -29zM359 362.999c-11.333 56 -52.6641 103 -123.997 141c-79.333 -16 -122.333 -71 -129 -165c5.33301 -12 14.166 -25 26.499 -39s28.166 -28.667 47.499 -44
c17.333 -14.667 33.166 -26.5 47.499 -35.5s26.833 -15.833 37.5 -20.5c39.333 13.333 67 36 83 68c14 29.333 17.667 61 11 95zM188.002 754.999l-142 101l86 109l141 -102zM412.002 -323.001l-142 101l86 109l141 -102z" />
    <glyph glyph-name="uni06A3.fina" unicode="&#x6a3;" horiz-adv-x="1417" 
d="M1448 24c2.66699 -16 -4.33398 -24.0049 -21.001 -24.0049h-20c-52.667 0 -104.167 7.5 -154.5 22.5s-99.5 37.5 -147.5 67.5c-16 -17.333 -37 -32.166 -63 -44.499s-56.667 -22.833 -92 -31.5c-40.667 -8 -92 -14.167 -154 -18.5s-135.333 -6.5 -220 -6.5
c-84 0 -158.833 6.33301 -224.5 19s-122.5 32.334 -170.5 59.001c-85.333 46.667 -136.333 109.667 -153 189c-17.333 80 -3.33301 176.667 42 290c0 1.33301 3.66699 2 11 2c16.667 0 32.667 -10.333 48 -31c-12.667 -33.333 -20.5 -65.166 -23.5 -95.499
s-1.83301 -59.166 3.5 -86.499c26.667 -130.667 200.334 -196 521.001 -196c78.667 0 146.167 1.83301 202.5 5.5s102.5 9.5 138.5 17.5c-69.333 40.667 -112.333 100.667 -129 180c-15.333 72 -5.16602 135.5 30.501 190.5s93.167 97.5 172.5 127.5
c59.333 -38 106.833 -79.833 142.5 -125.5s59.167 -95.5 70.5 -149.5c18 -79.333 -4.33301 -150.333 -67 -213c28 -11.333 57.667 -19.666 89 -24.999s63.666 -8 96.999 -8h20c17.333 0 28 -9.66699 32 -29zM1173 362.995c-11.333 55.333 -51.668 102.333 -121.001 141
c-80.667 -16 -124 -71 -130 -165c11.333 -24 36 -51.667 74 -83c33.333 -28 62 -46.667 86 -56c18 6.66699 34 15.667 48 27s24.667 25 32 41c14.667 28 18.334 59.667 11.001 95zM961.997 788.995l-142 101l86 109l141 -102zM1232 -337.005l-142 101l86 109l141 -102z" />
    <glyph glyph-name="uni06A5.init" unicode="&#x6a5;" horiz-adv-x="555" 
d="M436 392c11.333 -52.667 17.5 -103.333 18.5 -152s-2.5 -95 -10.5 -139c-14 -12 -35.167 -23.667 -63.5 -35s-64.5 -22.333 -108.5 -33c-46 -11.333 -90.333 -19.666 -133 -24.999s-85.334 -8 -128.001 -8h-22c-16.667 0 -26.334 8 -29.001 24l-19 86
c-4 19.333 2.33301 29 19 29h20c46 0 90 1.83301 132 5.5s82.333 9.5 121 17.5c36 7.33301 65 14.666 87 21.999s38 15.333 48 24c6.66699 20.667 10.334 43.667 11.001 69s-2 54 -8 86c-33.333 -34 -89.333 -51 -168 -51c-66.667 0 -125.334 17 -176.001 51
c-15.333 42 -26.666 78.667 -33.999 110c-28 134.667 2 244.667 90 330c184.667 -40.667 302.334 -177.667 353.001 -411zM329 488.001c-8 36.667 -35.668 73 -83.001 109c-49.333 36.667 -100.333 55 -153 55c-33.333 -33.333 -41.666 -88 -24.999 -164
c29.333 -24.667 72.666 -37 129.999 -37c58.667 0 102.334 12.333 131.001 37zM360.999 -514.999l-116 96l76 95l115 -95zM432.999 -319.999l-116 96l76 95l115 -95zM205.999 -319.999l-116 96l76 95l115 -95z" />
    <glyph glyph-name="uni06A5.medi" unicode="&#x6a5;" horiz-adv-x="600" 
d="M631 24c2.66699 -16 -4 -24.001 -20 -24.001h-20c-53.333 0 -105 7.5 -155 22.5s-99 37.5 -147 67.5c-30 -30 -68 -52.5 -114 -67.5s-101.333 -22.5 -166 -22.5h-20c-16.667 0 -26.334 8 -29.001 24l-19 86c-4 19.333 2.33301 29 19 29h20
c79.333 0 137.333 7.66699 174 23c-34.667 20.667 -62.167 45.834 -82.5 75.501s-34.833 64.5 -43.5 104.5c-15.333 72 -5.66602 135.5 29.001 190.5s92 97.5 172 127.5c120 -76.667 191 -168.334 213 -275.001c16.667 -80 -6 -151 -68 -213
c28 -11.333 57.833 -19.666 89.5 -24.999s64.167 -8 97.5 -8h20c16.667 0 27 -9.66699 31 -29zM359 362.999c-11.333 56 -52.6641 103 -123.997 141c-79.333 -16 -122.333 -71 -129 -165c5.33301 -12 14.166 -25 26.499 -39s28.166 -28.667 47.499 -44
c17.333 -14.667 33.166 -26.5 47.499 -35.5s26.833 -15.833 37.5 -20.5c39.333 13.333 67 36 83 68c14 29.333 17.667 61 11 95zM428.002 -523.001l-116 96l76 95l115 -95zM500.002 -328.001l-116 96l76 95l115 -95zM273.002 -328.001l-116 96l76 95l115 -95z" />
    <glyph glyph-name="uni06A5.fina" unicode="&#x6a5;" horiz-adv-x="1417" 
d="M1448 24c2.66699 -16 -4.33398 -24.0049 -21.001 -24.0049h-20c-52.667 0 -104.167 7.5 -154.5 22.5s-99.5 37.5 -147.5 67.5c-16 -17.333 -37 -32.166 -63 -44.499s-56.667 -22.833 -92 -31.5c-40.667 -8 -92 -14.167 -154 -18.5s-135.333 -6.5 -220 -6.5
c-84 0 -158.833 6.33301 -224.5 19s-122.5 32.334 -170.5 59.001c-85.333 46.667 -136.333 109.667 -153 189c-17.333 80 -3.33301 176.667 42 290c0 1.33301 3.66699 2 11 2c16.667 0 32.667 -10.333 48 -31c-12.667 -33.333 -20.5 -65.166 -23.5 -95.499
s-1.83301 -59.166 3.5 -86.499c26.667 -130.667 200.334 -196 521.001 -196c78.667 0 146.167 1.83301 202.5 5.5s102.5 9.5 138.5 17.5c-69.333 40.667 -112.333 100.667 -129 180c-15.333 72 -5.16602 135.5 30.501 190.5s93.167 97.5 172.5 127.5
c59.333 -38 106.833 -79.833 142.5 -125.5s59.167 -95.5 70.5 -149.5c18 -79.333 -4.33301 -150.333 -67 -213c28 -11.333 57.667 -19.666 89 -24.999s63.666 -8 96.999 -8h20c17.333 0 28 -9.66699 32 -29zM1173 362.995c-11.333 55.333 -51.668 102.333 -121.001 141
c-80.667 -16 -124 -71 -130 -165c11.333 -24 36 -51.667 74 -83c33.333 -28 62 -46.667 86 -56c18 6.66699 34 15.667 48 27s24.667 25 32 41c14.667 28 18.334 59.667 11.001 95zM740.997 -506.005l-116 96l76 95l115 -95zM812.997 -311.005l-116 96l76 95l115 -95z
M585.997 -311.005l-116 96l76 95l115 -95z" />
    <glyph glyph-name="uni06A7.fina" unicode="&#x6a7;" horiz-adv-x="1186" 
d="M1217 24c4 -16 -2.66797 -24 -20.001 -24h-105c4.66699 -26.667 8.66699 -67.334 12 -122.001c0.666992 -53.333 -1.33301 -91.333 -6 -114c-32.667 -70 -106.667 -134.667 -222 -194c-120 -64.667 -238.667 -96 -356 -94c-101.333 0 -189.666 24.333 -264.999 73
c-76.667 50.667 -124.334 121.667 -143.001 213c-23.333 107.333 -6 240 52 398c19.333 0 41.333 -9.33301 66 -28c-8 -20 -14.667 -42.167 -20 -66.5s-9 -51.5 -11 -81.5c-1.33301 -27.333 -1.33301 -52.166 0 -74.499s4 -42.5 8 -60.5
c14.667 -69.333 49.667 -124 105 -164s126 -60 212 -60c42 0 84.833 5.33301 128.5 16s88.5 26.334 134.5 47.001c97.333 44 179 101 245 171c2 49.333 -2 98 -12 146c-15.333 -1.33301 -33.166 -2.5 -53.499 -3.5s-44.5 -1.5 -72.5 -1.5c-48 0 -91 4.33301 -129 13
s-72 21.667 -102 39c-8 20.667 -15 40.167 -21 58.5s-10.667 36.166 -14 53.499c-28.667 134.667 1 244 89 328c171.333 -38 284 -155.667 338 -353h112c16 0 26.667 -9.66699 32 -29zM977.999 139c-10 46 -41.001 91 -93.001 135c-52.667 45.333 -103.667 68 -153 68
c-35.333 -36.667 -45.666 -89.334 -30.999 -158.001c28 -15.333 64.667 -26.666 110 -33.999s101 -11 167 -11zM712.998 601l-142 101l86 109l141 -102z" />
    <glyph glyph-name="uni06A8.fina" unicode="&#x6a8;" horiz-adv-x="1186" 
d="M1217 24c4 -16 -2.66797 -24 -20.001 -24h-105c4.66699 -26.667 8.66699 -67.334 12 -122.001c0.666992 -53.333 -1.33301 -91.333 -6 -114c-32.667 -70 -106.667 -134.667 -222 -194c-120 -64.667 -238.667 -96 -356 -94c-101.333 0 -189.666 24.333 -264.999 73
c-76.667 50.667 -124.334 121.667 -143.001 213c-23.333 107.333 -6 240 52 398c19.333 0 41.333 -9.33301 66 -28c-8 -20 -14.667 -42.167 -20 -66.5s-9 -51.5 -11 -81.5c-1.33301 -27.333 -1.33301 -52.166 0 -74.499s4 -42.5 8 -60.5
c14.667 -69.333 49.667 -124 105 -164s126 -60 212 -60c42 0 84.833 5.33301 128.5 16s88.5 26.334 134.5 47.001c97.333 44 179 101 245 171c2 49.333 -2 98 -12 146c-15.333 -1.33301 -33.166 -2.5 -53.499 -3.5s-44.5 -1.5 -72.5 -1.5c-48 0 -91 4.33301 -129 13
s-72 21.667 -102 39c-8 20.667 -15 40.167 -21 58.5s-10.667 36.166 -14 53.499c-28.667 134.667 1 244 89 328c171.333 -38 284 -155.667 338 -353h112c16 0 26.667 -9.66699 32 -29zM977.999 139c-10 46 -41.001 91 -93.001 135c-52.667 45.333 -103.667 68 -153 68
c-35.333 -36.667 -45.666 -89.334 -30.999 -158.001c28 -15.333 64.667 -26.666 110 -33.999s101 -11 167 -11zM639.998 790l-114 93l74 98l117 -98zM795.998 593l-115 95l74 98l117 -98zM568.998 593l-117 95l76 98l117 -98z" />
    <glyph glyph-name="uni06AA.init" unicode="&#x6aa;" horiz-adv-x="1491" 
d="M311 524c42.667 -1.33301 87.501 -2.66797 134.501 -4.00098s94.667 -2.33301 143 -3l144.5 -2l137.5 -2c43.667 -0.666992 84.334 -1.33398 122.001 -2.00098s70.834 -1.33398 99.501 -2.00098c53.333 -4 99 -15.167 137 -33.5s68.333 -41.5 91 -69.5
s37.167 -59.833 43.5 -95.5s4.5 -73.5 -5.5 -113.5l-34 -135c-342 -28 -785.667 -48.667 -1331 -62l-27 39.5c-7.33301 11 -12.5 21.333 -15.5 31s-3.5 19.667 -1.5 30s7 23.166 15 38.499h5c224 0 446.167 5.16699 666.5 15.5s436.5 22.833 648.5 37.5
c-15.333 62.667 -41 111 -77 145s-86 54.667 -150 62c-22 4 -51.333 6.83301 -88 8.5s-78.167 3 -124.5 4s-96 1.5 -149 1.5s-106.667 0.166992 -161 0.5s-108 1.16602 -161 2.49902s-102.833 3.33301 -149.5 6c-36.667 2.66699 -67.834 5.83398 -93.501 9.50098
s-46.834 8.5 -63.501 14.5s-29.334 13.333 -38.001 22s-14.667 19 -18 31c0 12 0.833008 25.333 2.5 40s3.5 28.834 5.5 42.501s4.16699 26.334 6.5 38.001s4.5 20.834 6.5 27.501c9.33301 16 26 32.5 50 49.5s52.167 34.167 84.5 51.5s68 34.5 107 51.5
s78.5 33.333 118.5 49l117.5 44l105 36.5l81 27c22.333 7.33301 37.166 12.333 44.499 15l-59 -165l-114 -33l-130.5 -40.5c-44.333 -14.333 -87.5 -29.166 -129.5 -44.499s-79.167 -30.5 -111.5 -45.5s-58.166 -29.167 -77.499 -42.5s-28 -25.333 -26 -36
c-0.666992 -9.33301 6 -16.5 20 -21.5s31.833 -8.5 53.5 -10.5s45.5 -3.5 71.5 -4.5s50.667 -2.16699 74 -3.5z" />
    <glyph glyph-name="uni06AA.medi" unicode="&#x6aa;" horiz-adv-x="1632" 
d="M311 524c42.667 -1.33301 87.501 -2.66699 134.501 -4s94.667 -2.33301 143 -3l144.5 -2l137.5 -2c43.667 -0.666992 84.334 -1.33398 122.001 -2.00098s70.834 -1.33398 99.501 -2.00098c48.667 -4 91 -13.833 127 -29.5s65.5 -36 88.5 -61s39.167 -54 48.5 -87
s11.666 -68.833 6.99902 -107.5l-3 -19c-3.33301 -30.667 7 -49 31 -55c32 -8.66699 85.667 -12.334 161 -11.001h59c10 -15.333 17.833 -28.333 23.5 -39s9.5 -20.834 11.5 -30.501s2.5 -19.834 1.5 -30.501s-3.16699 -23.667 -6.5 -39h-46
c-72.667 -1.33301 -127.167 0.833984 -163.5 6.50098s-64.833 14.834 -85.5 27.501c-9.33301 6 -16.666 15.333 -21.999 28c-342 -28 -785.667 -48.667 -1331 -62l-27 39.5c-7.33301 11 -12.5 21.333 -15.5 31s-3.5 19.667 -1.5 30s7 23.166 15 38.499h5
c224 0 446.167 5.16699 666.5 15.5s436.5 22.833 648.5 37.5c-15.333 62.667 -41 111 -77 145s-86 54.667 -150 62c-22 4 -51.333 6.83301 -88 8.5s-78.167 3 -124.5 4s-96 1.5 -149 1.5s-106.667 0.166992 -161 0.5s-108 1.16602 -161 2.49902s-102.833 3.33301 -149.5 6
c-36.667 2.66699 -67.834 5.83398 -93.501 9.50098s-46.834 8.5 -63.501 14.5s-29.334 13.333 -38.001 22s-14.667 19 -18 31c0 12 0.833008 25.333 2.5 40s3.5 28.834 5.5 42.501s4.16699 26.334 6.5 38.001s4.5 20.834 6.5 27.501c10.667 14.667 28 30.5 52 47.5
s52.333 34 85 51s68.5 34 107.5 51l118 49.5l116.5 45l104 37.5l80.5 27.5c22.333 7.33301 37.166 12.333 44.499 15l-59 -165l-114 -33l-130.5 -40.5c-44.333 -14.333 -87.5 -29.166 -129.5 -44.499s-79.167 -30.5 -111.5 -45.5s-58.166 -29.167 -77.499 -42.5
s-28 -25.333 -26 -36c-0.666992 -9.33301 6 -16.5 20 -21.5s31.833 -8.5 53.5 -10.5s45.5 -3.5 71.5 -4.5s50.667 -2.16699 74 -3.5z" />
    <glyph glyph-name="uni06AA.fina" unicode="&#x6aa;" horiz-adv-x="2171" 
d="M128 335c6 -28.667 19.8379 -55.0059 41.5049 -79.0059s50.167 -44.5 85.5 -61.5s76.833 -30.333 124.5 -40s100.5 -14.834 158.5 -15.501c219.333 0.666992 436.5 6 651.5 16s426.5 22.333 634.5 37c-15.333 62.667 -40.833 111 -76.5 145s-85.834 54.667 -150.501 62
c-22 4 -51.333 6.83301 -88 8.5s-78.167 3 -124.5 4s-95.833 1.5 -148.5 1.5s-106.167 0.166992 -160.5 0.5s-108 1.16602 -161 2.49902s-102.833 3.33301 -149.5 6c-36.667 2.66699 -67.834 5.83398 -93.501 9.50098s-46.834 8.5 -63.501 14.5s-29.5 13.333 -38.5 22
s-14.833 19 -17.5 31c0 12 0.833008 25.333 2.5 40s3.5 28.834 5.5 42.501s4 26.334 6 38.001s4 20.834 6 27.501c14 20 39.833 41.333 77.5 64s81 45.5 130 68.5s100.833 45.167 155.5 66.5l153.5 58l124 44l67.5 23l-59 -165l-114 -33l-130 -40.5
c-44 -14.333 -87 -29.166 -129 -44.499s-79.333 -30.5 -112 -45.5s-58.667 -29.167 -78 -42.5s-28 -25.333 -26 -36c-0.666992 -9.33301 6 -16.5 20 -21.5s32 -8.5 54 -10.5s45.833 -3.5 71.5 -4.5s50.167 -2.16699 73.5 -3.5c64 -2 132.667 -3.83301 206 -5.5
s145.5 -3 216.5 -4s137.833 -1.83301 200.5 -2.5s115.334 -1.66699 158.001 -3c48.667 -4 91 -13.833 127 -29.5s65.5 -36 88.5 -61s39.167 -54 48.5 -87s11.666 -68.833 6.99902 -107.5l-3 -19c-2.66699 -30.667 8 -49 32 -55c31.333 -8.66699 85 -12.334 161 -11.001h59
c10 -15.333 17.667 -28.333 23 -39s9.16602 -20.834 11.499 -30.501s3 -19.834 2 -30.501s-3.16699 -23.667 -6.5 -39h-46c-72.667 -1.33301 -127.167 0.833984 -163.5 6.50098s-64.833 14.834 -85.5 27.501c-9.33301 6 -17 15.333 -23 28
c-335.333 -27.333 -768.333 -47.666 -1299 -60.999c-5.33301 -0.666992 -10.833 -1 -16.5 -1h-16.5c-70.667 0 -133.834 4.5 -189.501 13.5s-105.834 26.833 -150.501 53.5c-80.667 48.667 -128.667 111.667 -144 189c-17.333 80.667 -3.66602 177.334 41.001 290.001
c0.666992 1.33301 4.33398 2 11.001 2c17.333 0 33.666 -10.333 48.999 -31c-13.333 -33.333 -21.5 -65.166 -24.5 -95.499s-1.83301 -59.166 3.5 -86.499z" />
    <glyph glyph-name="uni06AB.init" unicode="&#x6ab;" horiz-adv-x="707" 
d="M473 1071c-16 -6 -38.1689 -16.8311 -66.502 -32.498l-94 -54.5l-107.5 -66.5l-106 -69.5c-33.333 -22.667 -63.166 -43.834 -89.499 -63.501s-46.166 -35.5 -59.499 -47.5c68.667 -34.667 128 -67.834 178 -99.501s92.667 -62.167 128 -91.5
s64.166 -58.166 86.499 -86.499s39.5 -56.5 51.5 -84.5c1.33301 -15.333 2.83301 -31.666 4.5 -48.999s3.16699 -35 4.5 -53s2.33301 -35.5 3 -52.5s1 -32.833 1 -47.5c-24.667 -32.667 -50.334 -60 -77.001 -82s-56 -39.833 -88 -53.5s-67 -23.334 -105 -29.001
s-80.667 -8.5 -128 -8.5h-20c-16.667 0 -26.334 8 -29.001 24l-19 86c-2 11.333 -1.83301 19 0.5 23s8.5 6 18.5 6h50c91.333 0 164.5 11.333 219.5 34s93.833 55 116.5 97c-6.66699 26 -18.5 52.333 -35.5 79s-42.5 54.667 -76.5 84s-78.167 60.333 -132.5 93
s-122.166 68.667 -203.499 108l-21 200c22.667 19.333 50.834 41.666 84.501 66.999l109 79l121.5 82.5l122 77c39.333 23.667 75.833 44.5 109.5 62.5s61.834 31.333 84.501 40l-35 -171v0zM483.998 849.002c3.33301 -19.333 3.00391 -41.333 -0.996094 -66
c-32.667 -41.333 -70.334 -62 -113.001 -62c-34 0 -63.333 9.33301 -88 28s-40.334 42.667 -47.001 72c-4.66699 22.667 -2.83398 52.334 5.49902 89.001s24.166 80 47.499 130c114.667 -52.667 180 -116.334 196 -191.001zM440.002 838.002
c-21.333 49.333 -65.667 87.333 -133 114c-24.667 -48.667 -34 -84 -28 -106c6 -28 33 -42 81 -42c37.333 0 64 11.333 80 34z" />
    <glyph glyph-name="uni06AB.medi" unicode="&#x6ab;" horiz-adv-x="901" 
d="M932 24c2.66699 -16 -3.99805 -23.9971 -19.998 -23.9971h-20c-14 0 -28 1.16699 -42 3.5s-29.667 7.66602 -47 15.999s-37.5 20.5 -60.5 36.5s-50.833 37.5 -83.5 64.5l-114.5 99.5l-153.5 143l-3 -4c6 -14.667 11 -28.834 15 -42.501s7.33301 -26.167 10 -37.5
c3.33301 -16.667 5.66602 -34.667 6.99902 -54s2 -36.666 2 -51.999c-24 -32.667 -49.167 -60 -75.5 -82s-55.333 -39.833 -87 -53.5s-66.667 -23.334 -105 -29.001s-81.833 -8.5 -130.5 -8.5h-35c-16.667 0 -26.334 8 -29.001 24l-19 86c-2 11.333 -1.83301 19 0.5 23
s8.5 6 18.5 6h70c90 0 162.5 11.333 217.5 34s94.167 55 117.5 97c-8 26.667 -20.5 53.167 -37.5 79.5s-42.333 53.833 -76 82.5s-77.5 59.5 -131.5 92.5s-121.667 69.5 -203 109.5l-20 200c22 19.333 49.667 41.666 83 66.999l108.5 79.5l121.5 83l122 77
c39.333 23.667 75.833 44.5 109.5 62.5s62.167 31 85.5 39l-34 -171c-16 -6 -38.333 -16.833 -67 -32.5s-60.167 -33.834 -94.5 -54.501l-107 -66.5l-105.5 -69.5l-90 -63.5c-26.667 -19.667 -46.667 -35.5 -60 -47.5l115.5 -65.5c37 -21.667 74 -44.5 111 -68.5l113 -76.5
l122 -88.5l138.5 -106.5l161 -129.5c25.333 -21.333 49.333 -37.166 72 -47.499s42.667 -15.5 60 -15.5h20c10 0 17.167 -2 21.5 -6s7.5 -11.667 9.5 -23l19 -86v0zM512.002 879.003c3.33301 -19.333 3.00391 -41.333 -0.996094 -66
c-32.667 -41.333 -70.334 -62 -113.001 -62c-34 0 -63.333 9.33301 -88 28s-40.334 42.667 -47.001 72c-4.66699 22.667 -2.83398 52.334 5.49902 89.001s24.166 80 47.499 130c114.667 -52.667 180 -116.334 196 -191.001zM468.006 868.003
c-21.333 49.333 -65.667 87.333 -133 114c-24.667 -48.667 -34 -84 -28 -106c6 -28 33 -42 81 -42c37.333 0 64 11.333 80 34z" />
    <glyph glyph-name="uni06AB.fina" unicode="&#x6ab;" horiz-adv-x="1714" 
d="M1236 173c-21.333 -34 -46.166 -62.6699 -74.499 -86.0029s-66.833 -42.166 -115.5 -56.499s-111 -24.833 -187 -31.5s-172.667 -10 -290 -10c-86 0 -161.167 7 -225.5 21s-118.5 33.167 -162.5 57.5s-78.5 52.666 -103.5 84.999s-41.5 66.833 -49.5 103.5
c-9.33301 46 -9.5 93.167 -0.5 141.5s23.167 97.833 42.5 148.5c0 1.33301 3.66699 2 11 2c6.66699 0 14.834 -3.16699 24.501 -9.5s17.5 -13.5 23.5 -21.5c-11.333 -33.333 -18.666 -66.666 -21.999 -99.999s-2.66602 -60.666 2.00098 -81.999c6 -28.667 20.333 -55 43 -79
s53.5 -44.667 92.5 -62s86 -30.833 141 -40.5s117.833 -14.5 188.5 -14.5c99.333 0 184.166 2.66699 254.499 8s129.333 13.333 177 24s85.167 24.167 112.5 40.5s47.333 35.833 60 58.5c-7.33301 26.667 -19.5 53.167 -36.5 79.5s-42.333 53.833 -76 82.5
s-77.667 59.5 -132 92.5s-122.833 69.5 -205.5 109.5l-19 200c22 19.333 49.833 41.666 83.5 66.999l109 79.5l121.5 83l122 77c39.333 23.667 75.833 44.5 109.5 62.5s62.167 31 85.5 39l-34 -171c-16 -5.33301 -38.5 -15.666 -67.5 -30.999s-60.833 -33.333 -95.5 -54
l-108 -67l-106 -70c-33.333 -22.667 -63.166 -44 -89.499 -64s-45.833 -36 -58.5 -48l116 -64.5c37.333 -21.667 74.666 -44.5 111.999 -68.5l113.5 -76.5l122 -89l137.5 -107l159 -129.5c25.333 -21.333 49.666 -37.166 72.999 -47.499s43.666 -15.5 60.999 -15.5h20
c8 0 14.667 -2 20 -6s9.33301 -11.667 12 -23l18 -86c4 -16 -2.66699 -24 -20 -24h-20c-14.667 -0 -29.167 1.33301 -43.5 4s-30.166 8.16699 -47.499 16.5s-37.333 20.5 -60 36.5s-50 37.5 -82 64.5l-114 99.5l-156 142l-3 -4c7.33301 -14.667 13 -28.834 17 -42.501
s7 -26.167 9 -37.5c3.33301 -16.667 5.66602 -34.667 6.99902 -54s2.66602 -36.666 3.99902 -51.999zM1288 851.997c3.33301 -19.333 3.00391 -41.333 -0.996094 -66c-32.667 -41.333 -70.334 -62 -113.001 -62c-34 0 -63.333 9.33301 -88 28s-40.334 42.667 -47.001 72
c-4.66699 22.667 -2.83398 52.334 5.49902 89.001s24.166 80 47.499 130c114.667 -52.667 180 -116.334 196 -191.001zM1244 840.997c-21.333 49.333 -65.667 87.333 -133 114c-24.667 -48.667 -34 -84 -28 -106c6 -28 33 -42 81 -42c37.333 0 64 11.333 80 34z" />
    <glyph glyph-name="uni06AE.init" unicode="&#x6ae;" horiz-adv-x="707" 
d="M473 1071c-16 -6 -38.1689 -16.8311 -66.502 -32.498l-94 -54.5l-107.5 -66.5l-106 -69.5c-33.333 -22.667 -63.166 -43.834 -89.499 -63.501s-46.166 -35.5 -59.499 -47.5c68.667 -34.667 128 -67.834 178 -99.501s92.667 -62.167 128 -91.5
s64.166 -58.166 86.499 -86.499s39.5 -56.5 51.5 -84.5c1.33301 -15.333 2.83301 -31.666 4.5 -48.999s3.16699 -35 4.5 -53s2.33301 -35.5 3 -52.5s1 -32.833 1 -47.5c-24.667 -32.667 -50.334 -60 -77.001 -82s-56 -39.833 -88 -53.5s-67 -23.334 -105 -29.001
s-80.667 -8.5 -128 -8.5h-20c-16.667 0 -26.334 8 -29.001 24l-19 86c-2 11.333 -1.83301 19 0.5 23s8.5 6 18.5 6h50c91.333 0 164.5 11.333 219.5 34s93.833 55 116.5 97c-6.66699 26 -18.5 52.333 -35.5 79s-42.5 54.667 -76.5 84s-78.167 60.333 -132.5 93
s-122.166 68.667 -203.499 108l-21 200c22.667 19.333 50.834 41.666 84.501 66.999l109 79l121.5 82.5l122 77c39.333 23.667 75.833 44.5 109.5 62.5s61.834 31.333 84.501 40l-35 -171v0zM412.998 -517.998l-116 96l76 95l115 -95zM484.998 -322.998l-116 96l76 95
l115 -95zM257.998 -322.998l-116 96l76 95l115 -95z" />
    <glyph glyph-name="uni06AE.medi" unicode="&#x6ae;" horiz-adv-x="901" 
d="M932 24c2.66699 -16 -3.99805 -23.9971 -19.998 -23.9971h-20c-14 0 -28 1.16699 -42 3.5s-29.667 7.66602 -47 15.999s-37.5 20.5 -60.5 36.5s-50.833 37.5 -83.5 64.5l-114.5 99.5l-153.5 143l-3 -4c6 -14.667 11 -28.834 15 -42.501s7.33301 -26.167 10 -37.5
c3.33301 -16.667 5.66602 -34.667 6.99902 -54s2 -36.666 2 -51.999c-24 -32.667 -49.167 -60 -75.5 -82s-55.333 -39.833 -87 -53.5s-66.667 -23.334 -105 -29.001s-81.833 -8.5 -130.5 -8.5h-35c-16.667 0 -26.334 8 -29.001 24l-19 86c-2 11.333 -1.83301 19 0.5 23
s8.5 6 18.5 6h70c90 0 162.5 11.333 217.5 34s94.167 55 117.5 97c-8 26.667 -20.5 53.167 -37.5 79.5s-42.333 53.833 -76 82.5s-77.5 59.5 -131.5 92.5s-121.667 69.5 -203 109.5l-20 200c22 19.333 49.667 41.666 83 66.999l108.5 79.5l121.5 83l122 77
c39.333 23.667 75.833 44.5 109.5 62.5s62.167 31 85.5 39l-34 -171c-16 -6 -38.333 -16.833 -67 -32.5s-60.167 -33.834 -94.5 -54.501l-107 -66.5l-105.5 -69.5l-90 -63.5c-26.667 -19.667 -46.667 -35.5 -60 -47.5l115.5 -65.5c37 -21.667 74 -44.5 111 -68.5l113 -76.5
l122 -88.5l138.5 -106.5l161 -129.5c25.333 -21.333 49.333 -37.166 72 -47.499s42.667 -15.5 60 -15.5h20c10 0 17.167 -2 21.5 -6s7.5 -11.667 9.5 -23l19 -86v0zM567.002 -500.997l-116 96l76 95l115 -95zM639.002 -305.997l-116 96l76 95l115 -95zM412.002 -305.997
l-116 96l76 95l115 -95z" />
    <glyph glyph-name="uni06AE.fina" unicode="&#x6ae;" horiz-adv-x="1348" 
d="M1379 24c2.66699 -16 -4.66602 -24.002 -21.999 -24.002h-18c-98.667 0 -169.334 44 -212.001 132c-107.333 -53.333 -214.5 -93.5 -321.5 -120.5s-214.833 -40.5 -323.5 -40.5c-130.667 0 -234.667 23.333 -312 70c-74 45.333 -119.333 107.333 -136 186
c-9.33301 42.667 -11.5 86.834 -6.5 132.501s16.167 92.834 33.5 141.501c21.333 0 42 -11 62 -33c-18 -46.667 -20.667 -100.667 -8 -162c26.667 -123.333 147 -185 361 -185c46 0 96 2.83301 150 8.5s111.667 14.167 173 25.5c58.667 11.333 111.167 23.166 157.5 35.499
s86.5 25.833 120.5 40.5l-233 843l65 168c43.333 -193.333 85.5 -369.666 126.5 -528.999s80.167 -304 117.5 -434c30 -93.333 82 -140 156 -140h18c18 0 29 -9.66699 33 -29zM663 788.998c-44 -6 -84.166 -14.5 -120.499 -25.5s-68.5 -25.167 -96.5 -42.5
c40 -10 78.667 -24.333 116 -43s74 -42.334 110 -71.001l13 -131c-25.333 -26.667 -61.5 -48.834 -108.5 -66.501s-105.833 -30.5 -176.5 -38.5l11 110c92 0 166 17.333 222 52c-10.667 8.66699 -23.834 18.167 -39.501 28.5s-35.167 21.5 -58.5 33.5
c-24.667 12.667 -48 23.334 -70 32.001s-43 15.334 -63 20.001l-8 134c56.667 52 150.667 95.667 282 131zM779.001 -535.002l-116 96l76 95l115 -95zM851.001 -340.002l-116 96l76 95l115 -95zM624.001 -340.002l-116 96l76 95l115 -95z" />
    <glyph glyph-name="uni06B0.init" unicode="&#x6b0;" horiz-adv-x="673" 
d="M473 910c-18 -4.66699 -41.333 -11.498 -70 -20.498l-93 -30.5l-103 -36.5l-101.5 -38.5c-32.333 -12.667 -62 -24.834 -89 -36.501s-48.5 -21.834 -64.5 -30.501c70.667 -30 131.334 -59.333 182.001 -88s93.167 -57.167 127.5 -85.5s62 -56.5 83 -84.5
s37.5 -56 49.5 -84c1.33301 -15.333 2.83301 -31.666 4.5 -48.999s3.16699 -35 4.5 -53s2.33301 -35.5 3 -52.5s1 -32.833 1 -47.5c-24.667 -32.667 -50.334 -60 -77.001 -82s-56 -39.833 -88 -53.5s-67 -23.334 -105 -29.001s-80.667 -8.5 -128 -8.5h-20
c-16.667 0 -26.334 8 -29.001 24l-19 86c-2 11.333 -1.83301 19 0.5 23s8.5 6 18.5 6h50c91.333 0 164.5 11.333 219.5 34s93.833 55 116.5 97c-6.66699 24.667 -19.5 51 -38.5 79s-46.167 57 -81.5 87s-79.666 60.667 -132.999 92s-117.333 62 -192 92l-23 193l178 82
c63.333 28 125.5 54 186.5 78s117.833 45 170.5 63s96 30.667 130 38zM-118 1016c50.667 28.667 103.83 56.332 159.497 82.999s109 50.834 160 72.501s97.333 39.834 139 54.501s73.834 24.667 96.501 30l-38 -97c-9.33301 -2.66699 -25.5 -8.33398 -48.5 -17.001
l-81 -31.5l-100.5 -41.5l-107 -46.5c-35.333 -15.667 -68.666 -31.167 -99.999 -46.5s-57.666 -29 -78.999 -41zM487.996 750c3.33301 -19.333 3.00391 -41.333 -0.996094 -66c-32.667 -41.333 -70.334 -62 -113.001 -62c-34 0 -63.333 9.33301 -88 28
s-40.334 42.667 -47.001 72c-4.66699 22.667 -2.83398 52.334 5.49902 89.001s24.166 80 47.499 130c114.667 -52.667 180 -116.334 196 -191.001zM444 739c-21.333 49.333 -65.667 87.333 -133 114c-24.667 -48.667 -34 -84 -28 -106c6 -28 33 -42 81 -42
c37.333 0 64 11.333 80 34z" />
    <glyph glyph-name="uni06B0.medi" unicode="&#x6b0;" horiz-adv-x="901" 
d="M-104 813c37.333 18 78.501 36.501 123.501 55.501l138 56l141 52.5l133 45.5c41.667 13.667 79.667 25.5 114 35.5s62.5 17.333 84.5 22l-81 -165c-18.667 -4.66699 -43.667 -11.667 -75 -21l-103.5 -31.5l-117.5 -37.5l-116 -39.5
c-36.667 -13 -69.834 -25.5 -99.501 -37.5s-52.167 -22.333 -67.5 -31c58 -28 113.833 -57.167 167.5 -87.5s109.834 -65.333 168.501 -105s122.334 -85.5 191.001 -137.5l235 -185c25.333 -21.333 49 -37.166 71 -47.499s41.667 -15.5 59 -15.5h20c10 0 17.167 -2 21.5 -6
s7.5 -11.667 9.5 -23l19 -86c2.66699 -16 -4 -24 -20 -24h-20c-14 0 -28 1.16699 -42 3.5s-29.667 7.66602 -47 15.999s-37.5 20.5 -60.5 36.5s-50.833 37.5 -83.5 64.5l-114.5 99.5l-153.5 143l-3 -4c6 -14.667 11 -28.834 15 -42.501s7.33301 -26.167 10 -37.5
c3.33301 -16.667 5.66602 -34.667 6.99902 -54s2 -36.666 2 -51.999c-24 -32.667 -49.167 -60 -75.5 -82s-55.333 -39.833 -87 -53.5s-66.667 -23.334 -105 -29.001s-81.833 -8.5 -130.5 -8.5h-35c-16.667 0 -26.334 8 -29.001 24l-19 86c-2 11.333 -1.83301 19 0.5 23
s8.5 6 18.5 6h70c90 0 162.5 11.333 217.5 34s94.167 55 117.5 97c-7.33301 24.667 -20.5 51 -39.5 79s-46.167 57 -81.5 87s-79.5 60.667 -132.5 92s-117.167 62 -192.5 92zM-96.999 1008c32.667 19.333 68.666 38.335 107.999 57.002s79.333 36.667 120 54
s80.834 33.5 120.501 48.5l111 40.5c34.333 12 65 22.167 92 30.5s47.833 14.166 62.5 17.499l-56 -102c-9.33301 -2.66699 -26.5 -8.33398 -51.5 -17.001s-54.5 -19.5 -88.5 -32.5l-109.5 -43l-115.5 -47c-38 -15.667 -73.833 -31.167 -107.5 -46.5s-61.5 -29 -83.5 -41z
M559 738.003c3.33301 -19.333 3.00391 -41.333 -0.996094 -66c-32.667 -41.333 -70.334 -62 -113.001 -62c-34 0 -63.333 9.33301 -88 28s-40.334 42.667 -47.001 72c-4.66699 22.667 -2.83398 52.334 5.49902 89.001s24.166 80 47.499 130
c114.667 -52.667 180 -116.334 196 -191.001zM515.004 727.003c-21.333 49.333 -65.667 87.333 -133 114c-24.667 -48.667 -34 -84 -28 -106c6 -28 33 -42 81 -42c37.333 0 64 11.333 80 34z" />
    <glyph glyph-name="uni06B0.fina" unicode="&#x6b0;" horiz-adv-x="1714" 
d="M1745 24c4 -16 -2.6709 -24.0049 -20.0039 -24.0049h-22c-14.667 0 -28.834 1.33301 -42.501 4s-29.167 8.16699 -46.5 16.5s-37.333 20.5 -60 36.5s-50 37.5 -82 64.5l-114 99.5l-156 142l-3 -4c7.33301 -14.667 12.666 -28.834 15.999 -42.501s6 -26.167 8 -37.5
c3.33301 -16.667 6 -34.667 8 -54s3.66699 -36.666 5 -51.999c-21.333 -34 -46.166 -62.667 -74.499 -86s-66.833 -42.166 -115.5 -56.499s-111 -24.833 -187 -31.5s-172.667 -10 -290 -10c-86 0 -161.167 7 -225.5 21s-118.5 33.167 -162.5 57.5
s-78.5 52.666 -103.5 84.999s-41.5 66.833 -49.5 103.5c-9.33301 46 -9.5 93.167 -0.5 141.5s23.167 97.833 42.5 148.5c0 1.33301 3.66699 2 11 2c6.66699 0 14.834 -3.16699 24.501 -9.5s17.5 -13.5 23.5 -21.5c-11.333 -33.333 -18.666 -66.666 -21.999 -99.999
s-2.66602 -60.666 2.00098 -81.999c6 -28.667 20.333 -55 43 -79s53.5 -44.667 92.5 -62s86 -30.833 141 -40.5s117.833 -14.5 188.5 -14.5c99.333 0 184.166 2.66699 254.499 8s129.333 13.333 177 24s85.167 24.167 112.5 40.5s47.333 35.833 60 58.5
c-7.33301 24.667 -20.666 51 -39.999 79s-46.5 57 -81.5 87s-79.167 60.667 -132.5 92s-117.666 62 -192.999 92l-23 193c37.333 18 78.333 36.5 123 55.5s90.5 37.5 137.5 55.5l141 52l133.5 46c42 14 80.333 26 115 36s63 17.333 85 22l-82 -165
c-18 -4.66699 -42.667 -11.667 -74 -21l-103.5 -32l-118 -38l-116.5 -39.5c-36.667 -13 -69.834 -25.5 -99.501 -37.5s-52.167 -22 -67.5 -30l113 -57c36.667 -19.333 73.334 -40.166 110.001 -62.499s74.334 -46.666 113.001 -72.999l123.5 -87.5l139.5 -106l162 -129
c25.333 -21.333 49.5 -37.166 72.5 -47.499s42.167 -15.5 57.5 -15.5h22c8 0 14.667 -2 20 -6s9.33301 -11.667 12 -23zM714.996 1008c33.333 19.333 69.666 38.335 108.999 57.002s79.333 36.667 120 54s80.834 33.5 120.501 48.5l111 40.5
c34.333 12 64.833 22.167 91.5 30.5s47.667 14.166 63 17.499l-57 -102c-9.33301 -2.66699 -26.5 -8.33398 -51.5 -17.001l-88.5 -32l-110 -42.5l-116.5 -47.5l-108 -47c-33.667 -15.333 -61.5 -29 -83.5 -41v81zM1381 751.997
c3.33301 -19.333 3.00391 -41.333 -0.996094 -66c-32.667 -41.333 -70.334 -62 -113.001 -62c-34 0 -63.333 9.33301 -88 28s-40.334 42.667 -47.001 72c-4.66699 22.667 -2.83398 52.334 5.49902 89.001s24.166 80 47.499 130c114.667 -52.667 180 -116.334 196 -191.001z
M1337 740.997c-21.333 49.333 -65.667 87.333 -133 114c-24.667 -48.667 -34 -84 -28 -106c6 -28 33 -42 81 -42c37.333 0 64 11.333 80 34z" />
    <glyph glyph-name="uni06B2.init" unicode="&#x6b2;" horiz-adv-x="673" 
d="M473 910c-18 -4.66699 -41.333 -11.498 -70 -20.498l-93 -30.5l-103 -36.5l-101.5 -38.5c-32.333 -12.667 -62 -24.834 -89 -36.501s-48.5 -21.834 -64.5 -30.501c70.667 -30 131.334 -59.333 182.001 -88s93.167 -57.167 127.5 -85.5s62 -56.5 83 -84.5
s37.5 -56 49.5 -84c1.33301 -15.333 2.83301 -31.666 4.5 -48.999s3.16699 -35 4.5 -53s2.33301 -35.5 3 -52.5s1 -32.833 1 -47.5c-24.667 -32.667 -50.334 -60 -77.001 -82s-56 -39.833 -88 -53.5s-67 -23.334 -105 -29.001s-80.667 -8.5 -128 -8.5h-20
c-16.667 0 -26.334 8 -29.001 24l-19 86c-2 11.333 -1.83301 19 0.5 23s8.5 6 18.5 6h50c91.333 0 164.5 11.333 219.5 34s93.833 55 116.5 97c-6.66699 24.667 -19.5 51 -38.5 79s-46.167 57 -81.5 87s-79.666 60.667 -132.999 92s-117.333 62 -192 92l-23 193l178 82
c63.333 28 125.5 54 186.5 78s117.833 45 170.5 63s96 30.667 130 38zM-118 1016c50.667 28.667 103.83 56.332 159.497 82.999s109 50.834 160 72.501s97.333 39.834 139 54.501s73.834 24.667 96.501 30l-38 -97c-9.33301 -2.66699 -25.5 -8.33398 -48.5 -17.001
l-81 -31.5l-100.5 -41.5l-107 -46.5c-35.333 -15.667 -68.666 -31.167 -99.999 -46.5s-57.666 -29 -78.999 -41zM431.996 -416l-144 101l87 110l140 -103zM193.996 -436l-140 99l86 110l139 -103z" />
    <glyph glyph-name="uni06B2.medi" unicode="&#x6b2;" horiz-adv-x="901" 
d="M-104 813c37.333 18 78.501 36.501 123.501 55.501l138 56l141 52.5l133 45.5c41.667 13.667 79.667 25.5 114 35.5s62.5 17.333 84.5 22l-81 -165c-18.667 -4.66699 -43.667 -11.667 -75 -21l-103.5 -31.5l-117.5 -37.5l-116 -39.5
c-36.667 -13 -69.834 -25.5 -99.501 -37.5s-52.167 -22.333 -67.5 -31c58 -28 113.833 -57.167 167.5 -87.5s109.834 -65.333 168.501 -105s122.334 -85.5 191.001 -137.5l235 -185c25.333 -21.333 49 -37.166 71 -47.499s41.667 -15.5 59 -15.5h20c10 0 17.167 -2 21.5 -6
s7.5 -11.667 9.5 -23l19 -86c2.66699 -16 -4 -24 -20 -24h-20c-14 0 -28 1.16699 -42 3.5s-29.667 7.66602 -47 15.999s-37.5 20.5 -60.5 36.5s-50.833 37.5 -83.5 64.5l-114.5 99.5l-153.5 143l-3 -4c6 -14.667 11 -28.834 15 -42.501s7.33301 -26.167 10 -37.5
c3.33301 -16.667 5.66602 -34.667 6.99902 -54s2 -36.666 2 -51.999c-24 -32.667 -49.167 -60 -75.5 -82s-55.333 -39.833 -87 -53.5s-66.667 -23.334 -105 -29.001s-81.833 -8.5 -130.5 -8.5h-35c-16.667 0 -26.334 8 -29.001 24l-19 86c-2 11.333 -1.83301 19 0.5 23
s8.5 6 18.5 6h70c90 0 162.5 11.333 217.5 34s94.167 55 117.5 97c-7.33301 24.667 -20.5 51 -39.5 79s-46.167 57 -81.5 87s-79.5 60.667 -132.5 92s-117.167 62 -192.5 92zM-96.999 1008c32.667 19.333 68.666 38.335 107.999 57.002s79.333 36.667 120 54
s80.834 33.5 120.501 48.5l111 40.5c34.333 12 65 22.167 92 30.5s47.833 14.166 62.5 17.499l-56 -102c-9.33301 -2.66699 -26.5 -8.33398 -51.5 -17.001s-54.5 -19.5 -88.5 -32.5l-109.5 -43l-115.5 -47c-38 -15.667 -73.833 -31.167 -107.5 -46.5s-61.5 -29 -83.5 -41z
M455 -378.997l-144 101l87 110l140 -103zM217 -398.997l-140 99l86 110l139 -103z" />
    <glyph glyph-name="uni06B2.fina" unicode="&#x6b2;" horiz-adv-x="1714" 
d="M1745 24c4 -16 -2.6709 -24.0049 -20.0039 -24.0049h-22c-14.667 0 -28.834 1.33301 -42.501 4s-29.167 8.16699 -46.5 16.5s-37.333 20.5 -60 36.5s-50 37.5 -82 64.5l-114 99.5l-156 142l-3 -4c7.33301 -14.667 12.666 -28.834 15.999 -42.501s6 -26.167 8 -37.5
c3.33301 -16.667 6 -34.667 8 -54s3.66699 -36.666 5 -51.999c-21.333 -34 -46.166 -62.667 -74.499 -86s-66.833 -42.166 -115.5 -56.499s-111 -24.833 -187 -31.5s-172.667 -10 -290 -10c-86 0 -161.167 7 -225.5 21s-118.5 33.167 -162.5 57.5
s-78.5 52.666 -103.5 84.999s-41.5 66.833 -49.5 103.5c-9.33301 46 -9.5 93.167 -0.5 141.5s23.167 97.833 42.5 148.5c0 1.33301 3.66699 2 11 2c6.66699 0 14.834 -3.16699 24.501 -9.5s17.5 -13.5 23.5 -21.5c-11.333 -33.333 -18.666 -66.666 -21.999 -99.999
s-2.66602 -60.666 2.00098 -81.999c6 -28.667 20.333 -55 43 -79s53.5 -44.667 92.5 -62s86 -30.833 141 -40.5s117.833 -14.5 188.5 -14.5c99.333 0 184.166 2.66699 254.499 8s129.333 13.333 177 24s85.167 24.167 112.5 40.5s47.333 35.833 60 58.5
c-7.33301 24.667 -20.666 51 -39.999 79s-46.5 57 -81.5 87s-79.167 60.667 -132.5 92s-117.666 62 -192.999 92l-23 193c37.333 18 78.333 36.5 123 55.5s90.5 37.5 137.5 55.5l141 52l133.5 46c42 14 80.333 26 115 36s63 17.333 85 22l-82 -165
c-18 -4.66699 -42.667 -11.667 -74 -21l-103.5 -32l-118 -38l-116.5 -39.5c-36.667 -13 -69.834 -25.5 -99.501 -37.5s-52.167 -22 -67.5 -30l113 -57c36.667 -19.333 73.334 -40.166 110.001 -62.499s74.334 -46.666 113.001 -72.999l123.5 -87.5l139.5 -106l162 -129
c25.333 -21.333 49.5 -37.166 72.5 -47.499s42.167 -15.5 57.5 -15.5h22c8 0 14.667 -2 20 -6s9.33301 -11.667 12 -23zM714.996 1008c33.333 19.333 69.666 38.335 108.999 57.002s79.333 36.667 120 54s80.834 33.5 120.501 48.5l111 40.5
c34.333 12 64.833 22.167 91.5 30.5s47.667 14.166 63 17.499l-57 -102c-9.33301 -2.66699 -26.5 -8.33398 -51.5 -17.001l-88.5 -32l-110 -42.5l-116.5 -47.5l-108 -47c-33.667 -15.333 -61.5 -29 -83.5 -41v81zM878.996 -371.003l-144 101l87 110l140 -103z
M640.996 -391.003l-140 99l86 110l139 -103z" />
    <glyph glyph-name="uni06B4.init" unicode="&#x6b4;" horiz-adv-x="673" 
d="M473 910c-18 -4.66699 -41.333 -11.498 -70 -20.498l-93 -30.5l-103 -36.5l-101.5 -38.5c-32.333 -12.667 -62 -24.834 -89 -36.501s-48.5 -21.834 -64.5 -30.501c70.667 -30 131.334 -59.333 182.001 -88s93.167 -57.167 127.5 -85.5s62 -56.5 83 -84.5
s37.5 -56 49.5 -84c1.33301 -15.333 2.83301 -31.666 4.5 -48.999s3.16699 -35 4.5 -53s2.33301 -35.5 3 -52.5s1 -32.833 1 -47.5c-24.667 -32.667 -50.334 -60 -77.001 -82s-56 -39.833 -88 -53.5s-67 -23.334 -105 -29.001s-80.667 -8.5 -128 -8.5h-20
c-16.667 0 -26.334 8 -29.001 24l-19 86c-2 11.333 -1.83301 19 0.5 23s8.5 6 18.5 6h50c91.333 0 164.5 11.333 219.5 34s93.833 55 116.5 97c-6.66699 24.667 -19.5 51 -38.5 79s-46.167 57 -81.5 87s-79.666 60.667 -132.999 92s-117.333 62 -192 92l-23 193l178 82
c63.333 28 125.5 54 186.5 78s117.833 45 170.5 63s96 30.667 130 38zM-118 1016c50.667 28.667 103.83 56.332 159.497 82.999s109 50.834 160 72.501s97.333 39.834 139 54.501s73.834 24.667 96.501 30l-38 -97c-9.33301 -2.66699 -25.5 -8.33398 -48.5 -17.001
l-81 -31.5l-100.5 -41.5l-107 -46.5c-35.333 -15.667 -68.666 -31.167 -99.999 -46.5s-57.666 -29 -78.999 -41zM36.9961 1456l-114 93l74 98l117 -98zM192.996 1259l-115 95l74 98l117 -98zM-34.0039 1259l-117 95l76 98l117 -98z" />
    <glyph glyph-name="uni06B4.medi" unicode="&#x6b4;" horiz-adv-x="901" 
d="M-104 813c37.333 18 78.501 36.501 123.501 55.501l138 56l141 52.5l133 45.5c41.667 13.667 79.667 25.5 114 35.5s62.5 17.333 84.5 22l-81 -165c-18.667 -4.66699 -43.667 -11.667 -75 -21l-103.5 -31.5l-117.5 -37.5l-116 -39.5
c-36.667 -13 -69.834 -25.5 -99.501 -37.5s-52.167 -22.333 -67.5 -31c58 -28 113.833 -57.167 167.5 -87.5s109.834 -65.333 168.501 -105s122.334 -85.5 191.001 -137.5l235 -185c25.333 -21.333 49 -37.166 71 -47.499s41.667 -15.5 59 -15.5h20c10 0 17.167 -2 21.5 -6
s7.5 -11.667 9.5 -23l19 -86c2.66699 -16 -4 -24 -20 -24h-20c-14 0 -28 1.16699 -42 3.5s-29.667 7.66602 -47 15.999s-37.5 20.5 -60.5 36.5s-50.833 37.5 -83.5 64.5l-114.5 99.5l-153.5 143l-3 -4c6 -14.667 11 -28.834 15 -42.501s7.33301 -26.167 10 -37.5
c3.33301 -16.667 5.66602 -34.667 6.99902 -54s2 -36.666 2 -51.999c-24 -32.667 -49.167 -60 -75.5 -82s-55.333 -39.833 -87 -53.5s-66.667 -23.334 -105 -29.001s-81.833 -8.5 -130.5 -8.5h-35c-16.667 0 -26.334 8 -29.001 24l-19 86c-2 11.333 -1.83301 19 0.5 23
s8.5 6 18.5 6h70c90 0 162.5 11.333 217.5 34s94.167 55 117.5 97c-7.33301 24.667 -20.5 51 -39.5 79s-46.167 57 -81.5 87s-79.5 60.667 -132.5 92s-117.167 62 -192.5 92zM-96.999 1008c32.667 19.333 68.666 38.335 107.999 57.002s79.333 36.667 120 54
s80.834 33.5 120.501 48.5l111 40.5c34.333 12 65 22.167 92 30.5s47.833 14.166 62.5 17.499l-56 -102c-9.33301 -2.66699 -26.5 -8.33398 -51.5 -17.001s-54.5 -19.5 -88.5 -32.5l-109.5 -43l-115.5 -47c-38 -15.667 -73.833 -31.167 -107.5 -46.5s-61.5 -29 -83.5 -41z
M76 1466l-114 93l74 98l117 -98zM232 1269l-115 95l74 98l117 -98zM5 1269l-117 95l76 98l117 -98z" />
    <glyph glyph-name="uni06B4.fina" unicode="&#x6b4;" horiz-adv-x="1714" 
d="M1745 24c4 -16 -2.6709 -24.0049 -20.0039 -24.0049h-22c-14.667 0 -28.834 1.33301 -42.501 4s-29.167 8.16699 -46.5 16.5s-37.333 20.5 -60 36.5s-50 37.5 -82 64.5l-114 99.5l-156 142l-3 -4c7.33301 -14.667 12.666 -28.834 15.999 -42.501s6 -26.167 8 -37.5
c3.33301 -16.667 6 -34.667 8 -54s3.66699 -36.666 5 -51.999c-21.333 -34 -46.166 -62.667 -74.499 -86s-66.833 -42.166 -115.5 -56.499s-111 -24.833 -187 -31.5s-172.667 -10 -290 -10c-86 0 -161.167 7 -225.5 21s-118.5 33.167 -162.5 57.5
s-78.5 52.666 -103.5 84.999s-41.5 66.833 -49.5 103.5c-9.33301 46 -9.5 93.167 -0.5 141.5s23.167 97.833 42.5 148.5c0 1.33301 3.66699 2 11 2c6.66699 0 14.834 -3.16699 24.501 -9.5s17.5 -13.5 23.5 -21.5c-11.333 -33.333 -18.666 -66.666 -21.999 -99.999
s-2.66602 -60.666 2.00098 -81.999c6 -28.667 20.333 -55 43 -79s53.5 -44.667 92.5 -62s86 -30.833 141 -40.5s117.833 -14.5 188.5 -14.5c99.333 0 184.166 2.66699 254.499 8s129.333 13.333 177 24s85.167 24.167 112.5 40.5s47.333 35.833 60 58.5
c-7.33301 24.667 -20.666 51 -39.999 79s-46.5 57 -81.5 87s-79.167 60.667 -132.5 92s-117.666 62 -192.999 92l-23 193c37.333 18 78.333 36.5 123 55.5s90.5 37.5 137.5 55.5l141 52l133.5 46c42 14 80.333 26 115 36s63 17.333 85 22l-82 -165
c-18 -4.66699 -42.667 -11.667 -74 -21l-103.5 -32l-118 -38l-116.5 -39.5c-36.667 -13 -69.834 -25.5 -99.501 -37.5s-52.167 -22 -67.5 -30l113 -57c36.667 -19.333 73.334 -40.166 110.001 -62.499s74.334 -46.666 113.001 -72.999l123.5 -87.5l139.5 -106l162 -129
c25.333 -21.333 49.5 -37.166 72.5 -47.499s42.167 -15.5 57.5 -15.5h22c8 0 14.667 -2 20 -6s9.33301 -11.667 12 -23zM714.996 1008c33.333 19.333 69.666 38.335 108.999 57.002s79.333 36.667 120 54s80.834 33.5 120.501 48.5l111 40.5
c34.333 12 64.833 22.167 91.5 30.5s47.667 14.166 63 17.499l-57 -102c-9.33301 -2.66699 -26.5 -8.33398 -51.5 -17.001l-88.5 -32l-110 -42.5l-116.5 -47.5l-108 -47c-33.667 -15.333 -61.5 -29 -83.5 -41v81zM874.996 1457l-114 93l74 98l117 -98zM1031 1260l-115 95
l74 98l117 -98zM803.996 1260l-117 95l76 98l117 -98z" />
    <glyph glyph-name="uni06B5.init" unicode="&#x6b5;" horiz-adv-x="357" 
d="M92 987c-30.667 6 -57.666 16.334 -80.999 31.001c38 -134.667 73.333 -266 106 -394s61.667 -253 87 -375c10 -46.667 -2.33301 -96.667 -37 -150c-40 -66 -99.333 -99 -178 -99c-16.667 0 -26.334 8 -29.001 24l-19 86c-4 19.333 2.33301 29 19 29h41
c56 0 98 20.333 126 61c-46.667 221.333 -97.334 422.333 -152.001 603c-25.333 82 -47.666 149.167 -66.999 201.5s-36.333 90.166 -51 113.499h-4l73 124c9.33301 -17.333 20.833 -37.333 34.5 -60l47.5 -79c20 -30 37.167 -54.5 51.5 -73.5zM-48.999 1611
c-6 -7.33301 -12.834 -16.6641 -20.501 -27.9971s-15.5 -27.166 -23.5 -47.499s-15.333 -47 -22 -80s-11.667 -75.167 -15 -126.5l-24 -3c-12 28 -26.167 55.667 -42.5 83s-33.833 53.166 -52.5 77.499s-38 46.666 -58 66.999s-40 37.166 -60 50.499l92 -7
c6.66699 -6.66699 14 -14.5 22 -23.5s16.833 -20.5 26.5 -34.5s19.834 -31.167 30.501 -51.5s22.667 -45.5 36 -75.5v41c0 16 0.833008 32.667 2.5 50s4.16699 34.666 7.5 51.999s8.33301 33 15 47z" />
    <glyph glyph-name="uni06B5.medi" unicode="&#x6b5;" horiz-adv-x="400" 
d="M431 24c4 -16 -2.66504 -24.001 -19.998 -24.001h-20c-33.333 0 -67.333 11 -102 33c-20 11.333 -38 25 -54 41s-29 34 -39 54c-38 -85.333 -94.333 -128 -169 -128h-38c-16.667 0 -26.334 8 -29.001 24l-19 86c-4 19.333 2.33301 29 19 29h40
c68.667 0 115.667 23 141 69l-245 866l68 168c42.667 -193.333 84.5 -369.666 125.5 -528.999s80.167 -304 117.5 -434c27.333 -93.333 78.666 -140 153.999 -140h20c16 0 26.667 -9.66699 32 -29l18 -86v0zM-20.998 1593c-6 -7.33301 -12.834 -16.6641 -20.501 -27.9971
s-15.5 -27.166 -23.5 -47.499s-15.333 -47 -22 -80s-11.667 -75.167 -15 -126.5l-24 -3c-12 28 -26.167 55.667 -42.5 83s-33.833 53.166 -52.5 77.499s-38 46.666 -58 66.999s-40 37.166 -60 50.499l92 -7c6.66699 -6.66699 14 -14.5 22 -23.5s16.833 -20.5 26.5 -34.5
s19.834 -31.167 30.501 -51.5s22.667 -45.5 36 -75.5v41c0 16 0.833008 32.667 2.5 50s4.16699 34.666 7.5 51.999s8.33301 33 15 47z" />
    <glyph glyph-name="uni06B5.fina" unicode="&#x6b5;" horiz-adv-x="1104" 
d="M676 1601c-6 -7.33301 -12.834 -16.6641 -20.501 -27.9971s-15.5 -27.166 -23.5 -47.499s-15.333 -47 -22 -80s-11.667 -75.167 -15 -126.5l-24 -3c-12 28 -26.167 55.667 -42.5 83s-33.833 53.166 -52.5 77.499s-38 46.666 -58 66.999s-40 37.166 -60 50.499l92 -7
c6.66699 -6.66699 14 -14.5 22 -23.5s16.833 -20.5 26.5 -34.5s19.834 -31.167 30.501 -51.5s22.667 -45.5 36 -75.5v41c0 16 0.833008 32.667 2.5 50s4.16699 34.666 7.5 51.999s8.33301 33 15 47zM1134 26.002c4 -16 -2.33594 -23.998 -19.0029 -23.998h-20
c-56 0 -104.333 32 -145 96h-5l41 -196c-2.66699 -44 -6.33398 -84.833 -11.001 -122.5s-10.667 -73.5 -18 -107.5c-27.333 -26.667 -58 -50.667 -92 -72s-70.167 -39.333 -108.5 -54s-77.666 -25.834 -117.999 -33.501s-80.5 -11.5 -120.5 -11.5
c-54 0.666992 -103.833 6.83398 -149.5 18.501s-86 28.5 -121 50.5s-64 49 -87 81s-38.833 68 -47.5 108c-5.33301 22.667 -8.83301 48.167 -10.5 76.5s-1.16699 60.166 1.5 95.499c1.33301 32 3.83301 60.167 7.5 84.5s8.83398 46.166 15.501 65.499
c22 0 42.667 -11 62 -33c-8.66699 -26.667 -13 -56 -13 -88s3.66699 -66.667 11 -104c28.667 -136.667 143 -205 343 -205c144.667 0 279.334 53.333 404.001 160l-329 1263l68 168c43.333 -193.333 85.333 -369.333 126 -528s80 -303 118 -433
c26 -93.333 75.333 -140 148 -140h20c16.667 0 27.334 -9.66699 32.001 -29l17 -86v0z" />
    <glyph glyph-name="uni06B6.init" unicode="&#x6b6;" horiz-adv-x="357" 
d="M92 987c-30.667 6 -57.666 16.334 -80.999 31.001c38 -134.667 73.333 -266 106 -394s61.667 -253 87 -375c10 -46.667 -2.33301 -96.667 -37 -150c-40 -66 -99.333 -99 -178 -99c-16.667 0 -26.334 8 -29.001 24l-19 86c-4 19.333 2.33301 29 19 29h41
c56 0 98 20.333 126 61c-46.667 221.333 -97.334 422.333 -152.001 603c-25.333 82 -47.666 149.167 -66.999 201.5s-36.333 90.166 -51 113.499h-4l73 124c9.33301 -17.333 20.833 -37.333 34.5 -60l47.5 -79c20 -30 37.167 -54.5 51.5 -73.5zM-145.999 1301l-142 101
l86 109l141 -102z" />
    <glyph glyph-name="uni06B6.medi" unicode="&#x6b6;" horiz-adv-x="400" 
d="M431 24c4 -16 -2.66504 -24.001 -19.998 -24.001h-20c-33.333 0 -67.333 11 -102 33c-20 11.333 -38 25 -54 41s-29 34 -39 54c-38 -85.333 -94.333 -128 -169 -128h-38c-16.667 0 -26.334 8 -29.001 24l-19 86c-4 19.333 2.33301 29 19 29h40
c68.667 0 115.667 23 141 69l-245 866l68 168c42.667 -193.333 84.5 -369.666 125.5 -528.999s80.167 -304 117.5 -434c27.333 -93.333 78.666 -140 153.999 -140h20c16 0 26.667 -9.66699 32 -29l18 -86v0zM-126.998 1322l-142 101l86 109l141 -102z" />
    <glyph glyph-name="uni06B6.fina" unicode="&#x6b6;" horiz-adv-x="1104" 
d="M541 1279l-142 101l86 109l141 -102zM1134 26c4 -16 -2.33594 -23.998 -19.0029 -23.998h-20c-56 0 -104.333 32 -145 96h-5l41 -196c-2.66699 -44 -6.33398 -84.833 -11.001 -122.5s-10.667 -73.5 -18 -107.5c-27.333 -26.667 -58 -50.667 -92 -72
s-70.167 -39.333 -108.5 -54s-77.666 -25.834 -117.999 -33.501s-80.5 -11.5 -120.5 -11.5c-54 0.666992 -103.833 6.83398 -149.5 18.501s-86 28.5 -121 50.5s-64 49 -87 81s-38.833 68 -47.5 108c-5.33301 22.667 -8.83301 48.167 -10.5 76.5s-1.16699 60.166 1.5 95.499
c1.33301 32 3.83301 60.167 7.5 84.5s8.83398 46.166 15.501 65.499c22 0 42.667 -11 62 -33c-8.66699 -26.667 -13 -56 -13 -88s3.66699 -66.667 11 -104c28.667 -136.667 143 -205 343 -205c144.667 0 279.334 53.333 404.001 160l-329 1263l68 168
c43.333 -193.333 85.333 -369.333 126 -528s80 -303 118 -433c26 -93.333 75.333 -140 148 -140h20c16.667 0 27.334 -9.66699 32.001 -29l17 -86v0z" />
    <glyph glyph-name="uni06B7.init" unicode="&#x6b7;" horiz-adv-x="357" 
d="M92 987c-30.667 6 -57.666 16.334 -80.999 31.001c38 -134.667 73.333 -266 106 -394s61.667 -253 87 -375c10 -46.667 -2.33301 -96.667 -37 -150c-40 -66 -99.333 -99 -178 -99c-16.667 0 -26.334 8 -29.001 24l-19 86c-4 19.333 2.33301 29 19 29h41
c56 0 98 20.333 126 61c-46.667 221.333 -97.334 422.333 -152.001 603c-25.333 82 -47.666 149.167 -66.999 201.5s-36.333 90.166 -51 113.499h-4l73 124c9.33301 -17.333 20.833 -37.333 34.5 -60l47.5 -79c20 -30 37.167 -54.5 51.5 -73.5zM-145.999 1487l-114 93l74 98
l117 -98zM10.001 1290l-115 95l74 98l117 -98zM-216.999 1290l-117 95l76 98l117 -98z" />
    <glyph glyph-name="uni06B7.medi" unicode="&#x6b7;" horiz-adv-x="400" 
d="M431 24c4 -16 -2.66504 -24.001 -19.998 -24.001h-20c-33.333 0 -67.333 11 -102 33c-20 11.333 -38 25 -54 41s-29 34 -39 54c-38 -85.333 -94.333 -128 -169 -128h-38c-16.667 0 -26.334 8 -29.001 24l-19 86c-4 19.333 2.33301 29 19 29h40
c68.667 0 115.667 23 141 69l-245 866l68 168c42.667 -193.333 84.5 -369.666 125.5 -528.999s80.167 -304 117.5 -434c27.333 -93.333 78.666 -140 153.999 -140h20c16 0 26.667 -9.66699 32 -29l18 -86v0zM-143.998 1481l-114 93l74 98l117 -98zM12.002 1284l-115 95
l74 98l117 -98zM-214.998 1284l-117 95l76 98l117 -98z" />
    <glyph glyph-name="uni06B7.fina" unicode="&#x6b7;" horiz-adv-x="1104" 
d="M519 1499l-114 93l74 98l117 -98zM675 1302l-115 95l74 98l117 -98zM448 1302l-117 95l76 98l117 -98zM1134 26c4 -16 -2.33594 -23.998 -19.0029 -23.998h-20c-56 0 -104.333 32 -145 96h-5l41 -196c-2.66699 -44 -6.33398 -84.833 -11.001 -122.5
s-10.667 -73.5 -18 -107.5c-27.333 -26.667 -58 -50.667 -92 -72s-70.167 -39.333 -108.5 -54s-77.666 -25.834 -117.999 -33.501s-80.5 -11.5 -120.5 -11.5c-54 0.666992 -103.833 6.83398 -149.5 18.501s-86 28.5 -121 50.5s-64 49 -87 81s-38.833 68 -47.5 108
c-5.33301 22.667 -8.83301 48.167 -10.5 76.5s-1.16699 60.166 1.5 95.499c1.33301 32 3.83301 60.167 7.5 84.5s8.83398 46.166 15.501 65.499c22 0 42.667 -11 62 -33c-8.66699 -26.667 -13 -56 -13 -88s3.66699 -66.667 11 -104c28.667 -136.667 143 -205 343 -205
c144.667 0 279.334 53.333 404.001 160l-329 1263l68 168c43.333 -193.333 85.333 -369.333 126 -528s80 -303 118 -433c26 -93.333 75.333 -140 148 -140h20c16.667 0 27.334 -9.66699 32.001 -29l17 -86v0z" />
    <glyph glyph-name="uni06B8.init" unicode="&#x6b8;" horiz-adv-x="357" 
d="M92 987c-30.667 6 -57.666 16.334 -80.999 31.001c38 -134.667 73.333 -266 106 -394s61.667 -253 87 -375c10 -46.667 -2.33301 -96.667 -37 -150c-40 -66 -99.333 -99 -178 -99c-16.667 0 -26.334 8 -29.001 24l-19 86c-4 19.333 2.33301 29 19 29h41
c56 0 98 20.333 126 61c-46.667 221.333 -97.334 422.333 -152.001 603c-25.333 82 -47.666 149.167 -66.999 201.5s-36.333 90.166 -51 113.499h-4l73 124c9.33301 -17.333 20.833 -37.333 34.5 -60l47.5 -79c20 -30 37.167 -54.5 51.5 -73.5zM251.001 -556.999l-116 96
l76 95l115 -95zM323.001 -361.999l-116 96l76 95l115 -95zM96.001 -361.999l-116 96l76 95l115 -95z" />
    <glyph glyph-name="uni06B8.medi" unicode="&#x6b8;" horiz-adv-x="400" 
d="M431 24c4 -16 -2.66504 -24.001 -19.998 -24.001h-20c-33.333 0 -67.333 11 -102 33c-20 11.333 -38 25 -54 41s-29 34 -39 54c-38 -85.333 -94.333 -128 -169 -128h-38c-16.667 0 -26.334 8 -29.001 24l-19 86c-4 19.333 2.33301 29 19 29h40
c68.667 0 115.667 23 141 69l-245 866l68 168c42.667 -193.333 84.5 -369.666 125.5 -528.999s80.167 -304 117.5 -434c27.333 -93.333 78.666 -140 153.999 -140h20c16 0 26.667 -9.66699 32 -29l18 -86v0zM290.002 -559.001l-116 96l76 95l115 -95zM362.002 -364.001
l-116 96l76 95l115 -95zM135.002 -364.001l-116 96l76 95l115 -95z" />
    <glyph glyph-name="uni06B8.fina" unicode="&#x6b8;" horiz-adv-x="1104" 
d="M699 -994l-116 96l76 95l115 -95zM771 -799l-116 96l76 95l115 -95zM544 -799l-116 96l76 95l115 -95zM1134 26c4 -16 -2.33594 -23.998 -19.0029 -23.998h-20c-56 0 -104.333 32 -145 96h-5l41 -196c-2.66699 -44 -6.33398 -84.833 -11.001 -122.5
s-10.667 -73.5 -18 -107.5c-27.333 -26.667 -58 -50.667 -92 -72s-70.167 -39.333 -108.5 -54s-77.666 -25.834 -117.999 -33.501s-80.5 -11.5 -120.5 -11.5c-54 0.666992 -103.833 6.83398 -149.5 18.501s-86 28.5 -121 50.5s-64 49 -87 81s-38.833 68 -47.5 108
c-5.33301 22.667 -8.83301 48.167 -10.5 76.5s-1.16699 60.166 1.5 95.499c1.33301 32 3.83301 60.167 7.5 84.5s8.83398 46.166 15.501 65.499c22 0 42.667 -11 62 -33c-8.66699 -26.667 -13 -56 -13 -88s3.66699 -66.667 11 -104c28.667 -136.667 143 -205 343 -205
c144.667 0 279.334 53.333 404.001 160l-329 1263l68 168c43.333 -193.333 85.333 -369.333 126 -528s80 -303 118 -433c26 -93.333 75.333 -140 148 -140h20c16.667 0 27.334 -9.66699 32.001 -29l17 -86v0z" />
    <glyph glyph-name="uni06B9.init" unicode="&#x6b9;" horiz-adv-x="344" 
d="M260 275c2.66699 -80 -17.667 -145.33 -61 -195.997c-47.333 -52.667 -110.666 -79 -189.999 -79h-20c-16.667 0 -26.334 8 -29.001 24l-19 86c-4 19.333 2.33301 29 19 29h46c98.667 0 156.667 33 174 99c-10 25.333 -25 50.166 -45 74.499s-44.667 48.166 -74 71.499
l37 175c38 -46.667 70.5 -93.334 97.5 -140.001s48.5 -94.667 64.5 -144zM-36.001 611.003l-142 101l86 109l141 -102zM182.999 -388.997l-142 101l86 109l141 -102z" />
    <glyph glyph-name="uni06B9.medi" unicode="&#x6b9;" horiz-adv-x="501" 
d="M-59 110c-2 11.333 -1.83105 19 0.501953 23s8.5 6 18.5 6h20c18 0 38.667 1.83301 62 5.5s44.5 11.667 63.5 24s33.333 30.5 43 54.5s10.167 56.667 1.5 98l-7 30c2 3.33301 5.5 5.5 10.5 6.5s10.833 1.5 17.5 1.5c7.33301 0 13.166 -0.666992 17.499 -2
s10.166 -4 17.499 -8l7 -30c8 -37.333 17.833 -67.666 29.5 -90.999s27.167 -41.666 46.5 -54.999s43 -22.333 71 -27s62 -7 102 -7h20c10 0 17.167 -2 21.5 -6s7.5 -11.667 9.5 -23l19 -86c2.66699 -16 -4 -24 -20 -24h-20c-41.333 0 -77.666 3.83301 -108.999 11.5
s-58.166 17.667 -80.499 30s-40 26.166 -53 41.499s-21.833 30.666 -26.5 45.999h-8c0 -20 -5 -37.833 -15 -53.5s-22.833 -29.167 -38.5 -40.5s-33.334 -20 -53.001 -26s-39.167 -9 -58.5 -9h-61c-16.667 0 -26.334 8 -29.001 24l-19 86v0zM145.002 502l-142 101l86 109
l141 -102zM329.002 -360l-142 101l86 109l141 -102z" />
    <glyph glyph-name="uni06B9.fina" unicode="&#x6b9;" horiz-adv-x="1118" 
d="M449 312l-142 101l86 109l141 -102zM698 -848l-142 101l86 109l141 -102zM1148 24c4 -16 -2.66699 -24.001 -20 -24.001h-19c-35.333 0 -68.666 13.667 -99.999 41l-3 -3c12.667 -22.667 24 -46 34 -70s17.667 -50 23 -78c2 -30 1.33301 -61.5 -2 -94.5
s-8.66602 -68.167 -15.999 -105.5c-42.667 -55.333 -111 -103.333 -205 -144c-102 -46.667 -208.667 -70 -320 -70c-101.333 0 -189.666 24.333 -264.999 73c-76.667 50.667 -124.334 121.667 -143.001 213c-23.333 107.333 -6 240 52 398c19.333 0 41.333 -9.33301 66 -28
c-8 -20 -14.667 -42.167 -20 -66.5s-9 -51.5 -11 -81.5c-1.33301 -27.333 -1.33301 -52.166 0 -74.499s4 -42.5 8 -60.5c14.667 -69.333 49.667 -124 105 -164s126 -60 212 -60c204 2 364.667 69.667 482 203c-24.667 75.333 -55.834 146.833 -93.501 214.5
s-82.834 132.167 -135.501 193.5l23 180c122 -184.667 215 -277 279 -277h19c17.333 0 28 -9.66699 32 -29l18 -86v0z" />
    <glyph glyph-name="uni06BC.init" unicode="&#x6bc;" horiz-adv-x="344" 
d="M260 275c2.66699 -80 -17.667 -145.33 -61 -195.997c-47.333 -52.667 -110.666 -79 -189.999 -79h-20c-16.667 0 -26.334 8 -29.001 24l-19 86c-4 19.333 2.33301 29 19 29h46c98.667 0 156.667 33 174 99c-10 25.333 -25 50.166 -45 74.499s-44.667 48.166 -74 71.499
l37 175c38 -46.667 70.5 -93.334 97.5 -140.001s48.5 -94.667 64.5 -144zM-65.001 607.003l-142 101l86 109l141 -102zM263.999 -90.9971c3.33301 -19.333 3.00391 -41.333 -0.996094 -66c-32.667 -41.333 -70.334 -62 -113.001 -62c-34 0 -63.333 9.33301 -88 28
s-40.334 42.667 -47.001 72c-4.66699 22.667 -2.83398 52.334 5.49902 89.001s24.166 80 47.499 130c114.667 -52.667 180 -116.334 196 -191.001zM220.003 -101.997c-21.333 49.333 -65.667 87.333 -133 114c-24.667 -48.667 -34 -84 -28 -106c6 -28 33 -42 81 -42
c37.333 0 64 11.333 80 34z" />
    <glyph glyph-name="uni06BC.medi" unicode="&#x6bc;" horiz-adv-x="501" 
d="M-59 110c-2 11.333 -1.83105 19 0.501953 23s8.5 6 18.5 6h20c18 0 38.667 1.83301 62 5.5s44.5 11.667 63.5 24s33.333 30.5 43 54.5s10.167 56.667 1.5 98l-7 30c2 3.33301 5.5 5.5 10.5 6.5s10.833 1.5 17.5 1.5c7.33301 0 13.166 -0.666992 17.499 -2
s10.166 -4 17.499 -8l7 -30c8 -37.333 17.833 -67.666 29.5 -90.999s27.167 -41.666 46.5 -54.999s43 -22.333 71 -27s62 -7 102 -7h20c10 0 17.167 -2 21.5 -6s7.5 -11.667 9.5 -23l19 -86c2.66699 -16 -4 -24 -20 -24h-20c-41.333 0 -77.666 3.83301 -108.999 11.5
s-58.166 17.667 -80.499 30s-40 26.166 -53 41.499s-21.833 30.666 -26.5 45.999h-8c0 -20 -5 -37.833 -15 -53.5s-22.833 -29.167 -38.5 -40.5s-33.334 -20 -53.001 -26s-39.167 -9 -58.5 -9h-61c-16.667 0 -26.334 8 -29.001 24l-19 86v0zM91.002 518l-142 101l86 109
l141 -102zM260.002 -104c3.33301 -19.333 3.00391 -41.333 -0.996094 -66c-32.667 -41.333 -70.334 -62 -113.001 -62c-34 0 -63.333 9.33301 -88 28s-40.334 42.667 -47.001 72c-4.66699 22.667 -2.83398 52.334 5.49902 89.001s24.166 80 47.499 130
c114.667 -52.667 180 -116.334 196 -191.001zM216.006 -115c-21.333 49.333 -65.667 87.333 -133 114c-24.667 -48.667 -34 -84 -28 -106c6 -28 33 -42 81 -42c37.333 0 64 11.333 80 34z" />
    <glyph glyph-name="uni06BC.fina" unicode="&#x6bc;" horiz-adv-x="1118" 
d="M465 337l-142 101l86 109l141 -102zM1148 24c4 -16 -2.66699 -24.001 -20 -24.001h-19c-35.333 0 -68.666 13.667 -99.999 41l-3 -3c12.667 -22.667 24 -46 34 -70s17.667 -50 23 -78c2 -30 1.33301 -61.5 -2 -94.5s-8.66602 -68.167 -15.999 -105.5
c-42.667 -55.333 -111 -103.333 -205 -144c-102 -46.667 -208.667 -70 -320 -70c-101.333 0 -189.666 24.333 -264.999 73c-76.667 50.667 -124.334 121.667 -143.001 213c-23.333 107.333 -6 240 52 398c19.333 0 41.333 -9.33301 66 -28c-8 -20 -14.667 -42.167 -20 -66.5
s-9 -51.5 -11 -81.5c-1.33301 -27.333 -1.33301 -52.166 0 -74.499s4 -42.5 8 -60.5c14.667 -69.333 49.667 -124 105 -164s126 -60 212 -60c204 2 364.667 69.667 482 203c-24.667 75.333 -55.834 146.833 -93.501 214.5s-82.834 132.167 -135.501 193.5l23 180
c122 -184.667 215 -277 279 -277h19c17.333 0 28 -9.66699 32 -29l18 -86v0zM715 -626.001c3.33301 -19.333 3.00391 -41.333 -0.996094 -66c-32.667 -41.333 -70.334 -62 -113.001 -62c-34 0 -63.333 9.33301 -88 28s-40.334 42.667 -47.001 72
c-4.66699 22.667 -2.83398 52.334 5.49902 89.001s24.166 80 47.499 130c114.667 -52.667 180 -116.334 196 -191.001zM671.004 -637.001c-21.333 49.333 -65.667 87.333 -133 114c-24.667 -48.667 -34 -84 -28 -106c6 -28 33 -42 81 -42c37.333 0 64 11.333 80 34z" />
    <glyph glyph-name="uni06BD.fina" unicode="&#x6bd;" horiz-adv-x="1118" 
d="M1148 24c4 -16 -2.66699 -24.001 -20 -24.001h-19c-35.333 0 -68.666 13.667 -99.999 41l-3 -3c12.667 -22.667 24 -46 34 -70s17.667 -50 23 -78c2 -30 1.33301 -61.5 -2 -94.5s-8.66602 -68.167 -15.999 -105.5c-42.667 -55.333 -111 -103.333 -205 -144
c-102 -46.667 -208.667 -70 -320 -70c-101.333 0 -189.666 24.333 -264.999 73c-76.667 50.667 -124.334 121.667 -143.001 213c-23.333 107.333 -6 240 52 398c19.333 0 41.333 -9.33301 66 -28c-8 -20 -14.667 -42.167 -20 -66.5s-9 -51.5 -11 -81.5
c-1.33301 -27.333 -1.33301 -52.166 0 -74.499s4 -42.5 8 -60.5c14.667 -69.333 49.667 -124 105 -164s126 -60 212 -60c204 2 364.667 69.667 482 203c-24.667 75.333 -55.834 146.833 -93.501 214.5s-82.834 132.167 -135.501 193.5l23 180
c122 -184.667 215 -277 279 -277h19c17.333 0 28 -9.66699 32 -29l18 -86v0zM437 589.999l-114 93l74 98l117 -98zM593 392.999l-115 95l74 98l117 -98zM366 392.999l-117 95l76 98l117 -98z" />
    <glyph glyph-name="uni06BF.init" unicode="&#x6bf;" horiz-adv-x="898" 
d="M757 175c-34 9.33301 -67.332 14.002 -99.999 14.002c-45.333 0 -123.333 -27 -234 -81c-146 -72 -284 -108 -414 -108h-20c-16.667 0 -26.334 8 -29.001 24l-19 86c-4 19.333 2.33301 29 19 29h20c46.667 0 97.667 4.5 153 13.5s115 22.833 179 41.5l193 64l-1 3
c-44.667 13.333 -125.667 58.666 -243 135.999c-103.333 68 -168 102 -194 102c-20 0 -42.333 -34.667 -67 -104c-15.333 2 -33 11 -53 27l53 153c15.333 42 40.333 63 75 63c15.333 0 48.833 -14.833 100.5 -44.5s121.5 -73.834 209.5 -132.501s160.333 -100 217 -124
c62 -25.333 130.667 -38 206 -38zM546.001 -496.998l-116 96l76 95l115 -95zM618.001 -301.998l-116 96l76 95l115 -95zM391.001 -301.998l-116 96l76 95l115 -95zM262.001 694.002l-142 101l86 109l141 -102z" />
    <glyph glyph-name="uni06BF.medi" unicode="&#x6bf;" horiz-adv-x="1101" 
d="M1132 24c2.66699 -16 -3.99707 -24 -19.9971 -24c-228.667 0 -361 84.667 -397 254c-4 18 -7.5 34.5 -10.5 49.5s-4.5 29.167 -4.5 42.5c-11.333 -6.66699 -25.5 -16.834 -42.5 -30.501l-57 -47.5l-67.5 -58l-75 -62c-62 -50 -130.333 -87.167 -205 -111.5
s-159.667 -36.5 -255 -36.5h-9c-16.667 0 -26.334 8 -29.001 24l-19 86c-4 19.333 2.33301 29 19 29h9c76 0 147.5 8.66699 214.5 26s130.167 45.333 189.5 84l70.5 46.5l50 33.5c13.667 9.33301 25.334 16.833 35.001 22.5l25.5 14.5v4c-8 0 -17.833 0.833008 -29.5 2.5
s-26.167 4.66699 -43.5 9s-38.833 10.666 -64.5 18.999s-56.5 19.166 -92.5 32.499c-144 54 -221 81 -231 81c-22.667 0 -41.334 -40.667 -56.001 -122c-16.667 0 -35.667 7 -57 21l39 158c12 52.667 35.667 79 71 79c10 0 27.333 -3.83301 52 -11.5
s56.667 -19.167 96 -34.5l126.5 -51.5c33 -13 62.167 -22.833 87.5 -29.5c98 -32.667 184.667 -49 260 -49c30 0 64 2.83301 102 8.5s81.333 14.5 130 26.5l-32 -145c-37.333 -0.666992 -69 -2 -95 -4s-46.333 -5 -61 -9c6 -23.333 12.167 -43.166 18.5 -59.499
s13.166 -30.666 20.499 -42.999s15.166 -23.166 23.499 -32.499s17.833 -18.333 28.5 -27c43.333 -33.333 115 -50 215 -50h20c16.667 0 27 -9.66699 31 -29l19 -86v0zM610.003 -515l-116 96l76 95l115 -95zM682.003 -320l-116 96l76 95l115 -95zM455.003 -320l-116 96
l76 95l115 -95zM352.003 720l-142 101l86 109l141 -102z" />
    <glyph glyph-name="uni06BF.fina" unicode="&#x6bf;" horiz-adv-x="1011" 
d="M1055 -483c-129.333 -27.333 -243.998 -41.0029 -343.998 -41.0029c-149.333 0 -280.333 31.667 -393 95c-122 70 -195 163 -219 279c-26.667 122.667 2 235 86 337c36.667 44 80.834 83.333 132.501 118s110.5 64.667 176.5 90l-1 4
c-51.333 7.33301 -100 16.333 -146 27s-89 22.334 -129 35.001c-37.333 12.667 -65.333 19 -84 19c-22.667 0 -42.334 -38 -59.001 -114c-10.667 0 -20.834 1.33301 -30.501 4s-18.5 7.33398 -26.5 14.001l42 158c12.667 50.667 36.334 76 71.001 76
c1.33301 0 20.333 -4.83301 57 -14.5l163 -42.5c72 -19.333 132.667 -34 182 -44s88 -15 116 -15c37.333 0 75.166 2.83301 113.499 8.5s78.5 13.834 120.5 24.501l-31 -143c-54.667 0 -106.334 -5 -155.001 -15c18 -84 46.667 -143.667 86 -179
c21.333 -20 47.666 -34.833 78.999 -44.5s67.666 -14.5 108.999 -14.5h19c18 0 29 -9.66699 33 -29l19 -86c2.66699 -16 -4.66602 -24 -21.999 -24h-19c-192.667 0 -308 91.667 -346 275c-2 9.33301 -4.16699 21.833 -6.5 37.5s-4.83301 34.167 -7.5 55.5
c-63.333 -13.333 -121.166 -33.666 -173.499 -60.999s-99.5 -62.333 -141.5 -105c-88.667 -88 -122.667 -182.333 -102 -283c22 -98.667 87.333 -177.334 196 -236.001c104 -58 230.333 -87 379 -87c40.667 0 88.5 2.83301 143.5 8.5s117.167 14.167 186.5 25.5z
M570.002 -307.003l-116 96l76 95l115 -95zM642.002 -112.003l-116 96l76 95l115 -95zM415.002 -112.003l-116 96l76 95l115 -95zM410.002 712.997l-142 101l86 109l141 -102z" />
    <glyph glyph-name="uni06C4.fina" unicode="&#x6c4;" horiz-adv-x="645" 
d="M676 24c2.66699 -16 -3.99707 -24 -19.9971 -24h-73c3.33301 -99.333 -12.334 -192.5 -47.001 -279.5s-90 -168.5 -166 -244.5c-85.333 5.33301 -165 29.666 -239 72.999c138 80 239.667 165 305 255c51.333 72.667 74 140.334 68 203.001
c-13.333 -2.66699 -27.833 -4.5 -43.5 -5.5s-32.167 -1.5 -49.5 -1.5c-40.667 0 -90.334 6.66699 -149.001 20l-67 18c-19.333 5.33301 -35 11 -47 17c-12 30.667 -19 52.667 -21 66c-34 186 8 314.333 126 385c151.333 -40.667 253.666 -163 306.999 -367h66
c16.667 0 27 -9.66699 31 -29zM480.003 146c-6.66699 24 -17.498 47.667 -32.498 71s-33.833 46.666 -56.5 69.999c-22 22.667 -44.5 39.834 -67.5 51.501s-46.5 19.167 -70.5 22.5c-43.333 -45.333 -57 -106 -41 -182c25.333 -14 54 -24.167 86 -30.5s67 -9.5 105 -9.5
c9.33301 0 20.666 0.5 33.999 1.5s27.666 2.83301 42.999 5.5zM396.005 -594c3.33301 -19.333 3.00391 -41.333 -0.996094 -66c-32.667 -41.333 -70.334 -62 -113.001 -62c-34 0 -63.333 9.33301 -88 28s-40.334 42.667 -47.001 72
c-4.66699 22.667 -2.83398 52.334 5.49902 89.001s24.166 80 47.499 130c114.667 -52.667 180 -116.334 196 -191.001zM352.009 -605c-21.333 49.333 -65.667 87.333 -133 114c-24.667 -48.667 -34 -84 -28 -106c6 -28 33 -42 81 -42c37.333 0 64 11.333 80 34z" />
    <glyph glyph-name="uni06CA.fina" unicode="&#x6ca;" horiz-adv-x="645" 
d="M676 24c2.66699 -16 -3.99707 -24 -19.9971 -24h-73c3.33301 -99.333 -12.334 -192.5 -47.001 -279.5s-90 -168.5 -166 -244.5c-85.333 5.33301 -165 29.666 -239 72.999c138 80 239.667 165 305 255c51.333 72.667 74 140.334 68 203.001
c-13.333 -2.66699 -27.833 -4.5 -43.5 -5.5s-32.167 -1.5 -49.5 -1.5c-40.667 0 -90.334 6.66699 -149.001 20l-67 18c-19.333 5.33301 -35 11 -47 17c-12 30.667 -19 52.667 -21 66c-34 186 8 314.333 126 385c151.333 -40.667 253.666 -163 306.999 -367h66
c16.667 0 27 -9.66699 31 -29zM480.003 146c-6.66699 24 -17.498 47.667 -32.498 71s-33.833 46.666 -56.5 69.999c-22 22.667 -44.5 39.834 -67.5 51.501s-46.5 19.167 -70.5 22.5c-43.333 -45.333 -57 -106 -41 -182c25.333 -14 54 -24.167 86 -30.5s67 -9.5 105 -9.5
c9.33301 0 20.666 0.5 33.999 1.5s27.666 2.83301 42.999 5.5zM344.005 668l-144 101l87 110l140 -103zM106.005 648l-140 99l86 110l139 -103z" />
    <glyph glyph-name="uni06CD.fina" unicode="&#x6cd;" horiz-adv-x="1130" 
d="M1157 24c4 -16 -3.33105 -24.0049 -21.998 -24.0049h-146c-97.333 0 -158.333 -23.333 -183 -70c13.333 -8 29.833 -15.333 49.5 -22s42.5 -12.667 68.5 -18c33.333 -7.33301 61.333 -14.166 84 -20.499s41 -13.333 55 -21s24.5 -16.167 31.5 -25.5
s12.167 -20.666 15.5 -33.999l3 -31.5c1.33301 -14.333 2 -32.5 2 -54.5c2 -47.333 1 -80 -3 -98c-34 -17.333 -72.5 -33.666 -115.5 -48.999s-91.5 -29 -145.5 -41c-58 -13.333 -114.167 -23.166 -168.5 -29.499s-107.833 -9.5 -160.5 -9.5
c-52 0 -100.167 5.83301 -144.5 17.5s-84.833 29.834 -121.5 54.501c-77.333 51.333 -125.333 122.333 -144 213c-9.33301 42 -12.333 88.333 -9 139s13.666 105.667 30.999 165l1 6l-166 -124l-6 91l199 114c0 1.33301 0.833008 2.5 2.5 3.5s2.83398 1.83301 3.50098 2.5
c13.333 2 25 1 35 -3s19.333 -12.667 28 -26c-15.333 -40 -25 -89 -29 -147c-2.66699 -27.333 -3.33398 -52.166 -2.00098 -74.499s3.66602 -42.5 6.99902 -60.5c15.333 -68.667 50.5 -122.834 105.5 -162.501s126.167 -59.5 213.5 -59.5c98.667 0 204 9 316 27
c50 7.33301 93.5 15 130.5 23s68.167 16.667 93.5 26c-13.333 33.333 -62.666 58 -147.999 74c-66.667 12.667 -123 32 -169 58c-2 32 -3 65.167 -3 99.5s0.666992 69.5 2 105.5c49.333 67.333 126 101 230 101h127c17.333 0 28.666 -9.66699 33.999 -29l18 -86v0z" />
    <glyph glyph-name="uni06CE.init" unicode="&#x6ce;" horiz-adv-x="394" 
d="M260 275c2.66699 -80 -17.667 -145.33 -61 -195.997c-47.333 -52.667 -110.666 -79 -189.999 -79h-20c-16.667 0 -26.334 8 -29.001 24l-19 86c-4 19.333 2.33301 29 19 29h46c98.667 0 156.667 33 174 99c-10 25.333 -25 50.166 -45 74.499s-44.667 48.166 -74 71.499
l37 175c38 -46.667 70.5 -93.334 97.5 -140.001s48.5 -94.667 64.5 -144zM104.999 948.003c-6 -7.33301 -12.834 -16.6641 -20.501 -27.9971s-15.5 -27.166 -23.5 -47.499s-15.333 -47 -22 -80s-11.667 -75.167 -15 -126.5l-24 -3c-12 28 -26.167 55.667 -42.5 83
s-33.833 53.166 -52.5 77.499s-38 46.666 -58 66.999s-40 37.166 -60 50.499l92 -7c6.66699 -6.66699 14 -14.5 22 -23.5s16.833 -20.5 26.5 -34.5s19.834 -31.167 30.501 -51.5s22.667 -45.5 36 -75.5v41c0 16 0.833008 32.667 2.5 50s4.16699 34.666 7.5 51.999
s8.33301 33 15 47zM404.998 -378.995l-144 101l87 110l140 -103zM166.998 -398.995l-140 99l86 110l139 -103z" />
    <glyph glyph-name="uni06CE.medi" unicode="&#x6ce;" horiz-adv-x="501" 
d="M-59 110c-2 11.333 -1.83105 19 0.501953 23s8.5 6 18.5 6h20c18 0 38.667 1.83301 62 5.5s44.5 11.667 63.5 24s33.333 30.5 43 54.5s10.167 56.667 1.5 98l-7 30c2 3.33301 5.5 5.5 10.5 6.5s10.833 1.5 17.5 1.5c7.33301 0 13.166 -0.666992 17.499 -2
s10.166 -4 17.499 -8l7 -30c8 -37.333 17.833 -67.666 29.5 -90.999s27.167 -41.666 46.5 -54.999s43 -22.333 71 -27s62 -7 102 -7h20c10 0 17.167 -2 21.5 -6s7.5 -11.667 9.5 -23l19 -86c2.66699 -16 -4 -24 -20 -24h-20c-41.333 0 -77.666 3.83301 -108.999 11.5
s-58.166 17.667 -80.499 30s-40 26.166 -53 41.499s-21.833 30.666 -26.5 45.999h-8c0 -20 -5 -37.833 -15 -53.5s-22.833 -29.167 -38.5 -40.5s-33.334 -20 -53.001 -26s-39.167 -9 -58.5 -9h-61c-16.667 0 -26.334 8 -29.001 24l-19 86v0zM235.002 807
c-6 -7.33301 -12.834 -16.6641 -20.501 -27.9971s-15.5 -27.166 -23.5 -47.499s-15.333 -47 -22 -80s-11.667 -75.167 -15 -126.5l-24 -3c-12 28 -26.167 55.667 -42.5 83s-33.833 53.166 -52.5 77.499s-38 46.666 -58 66.999s-40 37.166 -60 50.499l92 -7
c6.66699 -6.66699 14 -14.5 22 -23.5s16.833 -20.5 26.5 -34.5s19.834 -31.167 30.501 -51.5s22.667 -45.5 36 -75.5v41c0 16 0.833008 32.667 2.5 50s4.16699 34.666 7.5 51.999s8.33301 33 15 47zM450.001 -394.998l-144 101l87 110l140 -103zM212.001 -414.998l-140 99
l86 110l139 -103z" />
    <glyph glyph-name="uni06CE.fina" unicode="&#x6ce;" horiz-adv-x="1126" 
d="M1157 24c4 -16 -3.33008 -24.0039 -21.9971 -24.0039h-146c-97.333 0 -158.333 -23.333 -183 -70c13.333 -8 29.833 -15.333 49.5 -22s42.5 -12.667 68.5 -18c33.333 -7.33301 61.333 -14.166 84 -20.499s41 -13.333 55 -21s24.5 -16.167 31.5 -25.5
s12.167 -20.666 15.5 -33.999l3 -31.5c1.33301 -14.333 2 -32.5 2 -54.5c2 -47.333 1 -80 -3 -98c-34 -17.333 -72.5 -33.666 -115.5 -48.999s-91.5 -29 -145.5 -41c-58 -13.333 -114.167 -23.166 -168.5 -29.499s-107.833 -9.5 -160.5 -9.5
c-52 0 -100.167 5.83301 -144.5 17.5s-84.833 29.834 -121.5 54.501c-77.333 51.333 -125.333 122.333 -144 213c-11.333 52.667 -12.833 112.167 -4.5 178.5s27.166 139.166 56.499 218.499c10 0 20.667 -2.16699 32 -6.5s23 -11.833 35 -22.5
c-15.333 -40 -25 -89 -29 -147c-2.66699 -27.333 -3.33398 -52.166 -2.00098 -74.499s3.66602 -42.5 6.99902 -60.5c15.333 -68.667 50.5 -122.834 105.5 -162.501s126.167 -59.5 213.5 -59.5c98.667 0 204 9 316 27c50 7.33301 93.5 15 130.5 23s68.167 16.667 93.5 26
c-13.333 33.333 -62.666 58 -147.999 74c-66.667 12.667 -123 32 -169 58c-2 32 -3 65.167 -3 99.5s0.666992 69.5 2 105.5c49.333 67.333 126 101 230 101h127c17.333 0 28.666 -9.66699 33.999 -29l18 -86v0zM489.003 610.996
c-6 -7.33301 -12.834 -16.6641 -20.501 -27.9971s-15.5 -27.166 -23.5 -47.499s-15.333 -47 -22 -80s-11.667 -75.167 -15 -126.5l-24 -3c-12 28 -26.167 55.667 -42.5 83s-33.833 53.166 -52.5 77.499s-38 46.666 -58 66.999s-40 37.166 -60 50.499l92 -7
c6.66699 -6.66699 14 -14.5 22 -23.5s16.833 -20.5 26.5 -34.5s19.834 -31.167 30.501 -51.5s22.667 -45.5 36 -75.5v41c0 16 0.833008 32.667 2.5 50s4.16699 34.666 7.5 51.999s8.33301 33 15 47z" />
    <glyph glyph-name="uni06CF.fina" unicode="&#x6cf;" horiz-adv-x="645" 
d="M676 24c2.66699 -16 -3.99707 -24 -19.9971 -24h-73c3.33301 -99.333 -12.334 -192.5 -47.001 -279.5s-90 -168.5 -166 -244.5c-85.333 5.33301 -165 29.666 -239 72.999c138 80 239.667 165 305 255c51.333 72.667 74 140.334 68 203.001
c-13.333 -2.66699 -27.833 -4.5 -43.5 -5.5s-32.167 -1.5 -49.5 -1.5c-40.667 0 -90.334 6.66699 -149.001 20l-67 18c-19.333 5.33301 -35 11 -47 17c-12 30.667 -19 52.667 -21 66c-34 186 8 314.333 126 385c151.333 -40.667 253.666 -163 306.999 -367h66
c16.667 0 27 -9.66699 31 -29zM480.003 146c-6.66699 24 -17.498 47.667 -32.498 71s-33.833 46.666 -56.5 69.999c-22 22.667 -44.5 39.834 -67.5 51.501s-46.5 19.167 -70.5 22.5c-43.333 -45.333 -57 -106 -41 -182c25.333 -14 54 -24.167 86 -30.5s67 -9.5 105 -9.5
c9.33301 0 20.666 0.5 33.999 1.5s27.666 2.83301 42.999 5.5zM218.005 643l-142 101l86 109l141 -102z" />
    <glyph glyph-name="uni06D1.fina" unicode="&#x6d1;" horiz-adv-x="1126" 
d="M712 -1005l-116 96l76 95l115 -95zM784 -810l-116 96l76 95l115 -95zM557 -810l-116 96l76 95l115 -95zM1157 24c4 -16 -3.33008 -24.0039 -21.9971 -24.0039h-146c-97.333 0 -158.333 -23.333 -183 -70c13.333 -8 29.833 -15.333 49.5 -22s42.5 -12.667 68.5 -18
c33.333 -7.33301 61.333 -14.166 84 -20.499s41 -13.333 55 -21s24.5 -16.167 31.5 -25.5s12.167 -20.666 15.5 -33.999l3 -31.5c1.33301 -14.333 2 -32.5 2 -54.5c2 -47.333 1 -80 -3 -98c-34 -17.333 -72.5 -33.666 -115.5 -48.999s-91.5 -29 -145.5 -41
c-58 -13.333 -114.167 -23.166 -168.5 -29.499s-107.833 -9.5 -160.5 -9.5c-52 0 -100.167 5.83301 -144.5 17.5s-84.833 29.834 -121.5 54.501c-77.333 51.333 -125.333 122.333 -144 213c-11.333 52.667 -12.833 112.167 -4.5 178.5s27.166 139.166 56.499 218.499
c10 0 20.667 -2.16699 32 -6.5s23 -11.833 35 -22.5c-15.333 -40 -25 -89 -29 -147c-2.66699 -27.333 -3.33398 -52.166 -2.00098 -74.499s3.66602 -42.5 6.99902 -60.5c15.333 -68.667 50.5 -122.834 105.5 -162.501s126.167 -59.5 213.5 -59.5c98.667 0 204 9 316 27
c50 7.33301 93.5 15 130.5 23s68.167 16.667 93.5 26c-13.333 33.333 -62.666 58 -147.999 74c-66.667 12.667 -123 32 -169 58c-2 32 -3 65.167 -3 99.5s0.666992 69.5 2 105.5c49.333 67.333 126 101 230 101h127c17.333 0 28.666 -9.66699 33.999 -29l18 -86v0z" />
    <glyph glyph-name="uni06FA.init" unicode="&#x6fa;" horiz-adv-x="983" 
d="M894 275c0 -74.667 -16.3369 -138.329 -49.0039 -190.996c-38 -56 -84 -84 -138 -84c-91.333 0 -154.333 43 -189 129h-4c-8 -86 -55 -129 -141 -129c-38 0 -73.667 11.333 -107 34c-35.333 23.333 -60.666 55 -75.999 95h-3c-3.33301 -18.667 -9 -35.834 -17 -51.501
s-19.667 -29.5 -35 -41.5c-16.667 -12 -35.167 -21 -55.5 -27s-43.833 -9 -70.5 -9h-20c-16.667 0 -26.334 8 -29.001 24l-19 86c-4 19.333 2.33301 29 19 29h20c124.667 0 172 72 142 216c8.66699 4 17.334 6 26.001 6c13.333 0 28 -4 44 -12
c2 -18.667 4.5 -36.5 7.5 -53.5s6.16699 -33.167 9.5 -48.5c2.66699 -14.667 8 -28.5 16 -41.5s17.5 -24.5 28.5 -34.5s23.167 -17.833 36.5 -23.5s27 -8.5 41 -8.5c50.667 0 85.334 20.333 104.001 61c18.667 39.333 21.667 91 9 155c6.66699 4 15 6 25 6
c12 0 26.667 -4 44 -12c2 -18.667 4.5 -36.5 7.5 -53.5s6.16699 -33.167 9.5 -48.5c2.66699 -14.667 8.16699 -28.5 16.5 -41.5s18.166 -24.5 29.499 -34.5s23.833 -17.833 37.5 -23.5s27.834 -8.5 42.501 -8.5c88 0 140.667 33 158 99
c-9.33301 25.333 -24.166 50.166 -44.499 74.499s-45.166 48.166 -74.499 71.499l37 175c39.333 -46.667 72.333 -93.334 99 -140.001s47.667 -94.667 63 -144zM381.996 741.005l-114 93l74 98l117 -98zM537.996 544.005l-115 95l74 98l117 -98zM310.996 544.005l-117 95
l76 98l117 -98zM630.996 -396.995l-142 101l86 109l141 -102z" />
    <glyph glyph-name="uni06FA.medi" unicode="&#x6fa;" horiz-adv-x="1058" 
d="M1089 24c2.66699 -16 -4.34082 -23.9961 -21.0078 -23.9961h-19c-17.333 0 -35.166 3.16699 -53.499 9.5s-35.666 15.166 -51.999 26.499s-31.166 24.833 -44.499 40.5s-23.666 33.167 -30.999 52.5h-4c-7.33301 -86 -52 -129 -134 -129c-91.333 0 -154.333 43 -189 129
h-3c-9.33301 -86 -56.333 -129 -141 -129c-104 0 -173 43 -207 129h-3c-3.33301 -18.667 -9 -35.834 -17 -51.501s-19.667 -29.5 -35 -41.5c-16.667 -12 -35.167 -21 -55.5 -27s-43.833 -9 -70.5 -9h-20c-16.667 0 -26.334 8 -29.001 24l-19 86c-4 19.333 2.33301 29 19 29
l20 -2c124.667 2 172 74 142 216c8.66699 4 17.667 6 27 6c12.667 0 27.334 -3.66699 44.001 -11c1.33301 -18 3.5 -35.5 6.5 -52.5s6.16699 -33.167 9.5 -48.5c2.66699 -15.333 8.33398 -29.5 17.001 -42.5s19.334 -24.333 32.001 -34s27.167 -17.334 43.5 -23.001
s33.833 -8.5 52.5 -8.5c52 0 86.667 20.333 104 61c19.333 38.667 22 89.667 8 153c8.66699 4 17.667 6 27 6c12.667 0 27.334 -3.66699 44.001 -11c1.33301 -18 3.5 -35.5 6.5 -52.5s6.16699 -33.167 9.5 -48.5c2.66699 -14.667 8 -28.5 16 -41.5s17.833 -24.5 29.5 -34.5
s24.334 -17.833 38.001 -23.5s28.167 -8.5 43.5 -8.5c25.333 0 46.666 4.83301 63.999 14.5s30.666 25.167 39.999 46.5c19.333 38 22.333 89 9 153c8 4 16.667 6 26 6c12.667 0 27.334 -3.66699 44.001 -11c2 -18 4.33301 -35.5 7 -52.5s5.66699 -33.167 9 -48.5
c2.66699 -15.333 8.33398 -29.5 17.001 -42.5s19.167 -24.333 31.5 -34s26.333 -17.334 42 -23.001s32.167 -8.5 49.5 -8.5h19c17.333 0 28 -9.66699 32 -29l19 -86v0zM400.992 716.004l-114 93l74 98l117 -98zM556.992 519.004l-115 95l74 98l117 -98zM329.992 519.004
l-117 95l76 98l117 -98zM656.992 -405.996l-142 101l86 109l141 -102z" />
    <glyph glyph-name="uni06FA.fina" unicode="&#x6fa;" horiz-adv-x="1775" 
d="M1806 24c2.66699 -16 -4.00391 -23.9971 -20.0039 -23.9971h-20c-16.667 0 -34 3.16699 -52 9.5s-35.167 15.166 -51.5 26.499s-31.166 24.833 -44.499 40.5s-23.666 33.167 -30.999 52.5h-4c-7.33301 -86 -52.333 -129 -135 -129c-90.667 0 -154 43 -190 129h-3
c-9.33301 -86 -56.333 -129 -141 -129c-32.667 0 -67 10.333 -103 31c7.33301 -22.667 14 -44.167 20 -64.5s11 -40.166 15 -59.499c7.33301 -32 9.83301 -65.667 7.5 -101s-9.16602 -73.333 -20.499 -114c-21.333 -24.667 -48.666 -48.334 -81.999 -71.001
s-72.666 -45.334 -117.999 -68.001c-105.333 -51.333 -208.333 -77 -309 -77c-52 0 -99.667 6.16699 -143 18.5s-83.666 30.5 -120.999 54.5c-76.667 51.333 -124.334 122.333 -143.001 213c-23.333 106 -6.66602 238.667 50.001 398c20.667 0 43.334 -9.33301 68.001 -28
c-9.33301 -20 -16.166 -42.167 -20.499 -66.5s-7.83301 -51.5 -10.5 -81.5c-1.33301 -27.333 -1.33301 -52.166 0 -74.499s4 -42.5 8 -60.5c14.667 -69.333 49.5 -124 104.5 -164s126.167 -60 213.5 -60c38.667 0 78.5 4.5 119.5 13.5s83.5 23.167 127.5 42.5
s83.667 40.166 119 62.499s65.666 47.166 90.999 74.499c-24.667 130 -88 261.667 -190 395l23 182c31.333 -50.667 59 -93.167 83 -127.5s44.667 -60.5 62 -78.5c34 -33.333 69.333 -50 106 -50c51.333 0 86.666 20.333 105.999 61c18.667 37.333 21 89 7 155
c8 4 16.333 6 25 6c15.333 0 30 -4 44 -12l8 -53.5c2.66699 -17 5.66699 -33.167 9 -48.5c2.66699 -14.667 8.16699 -28.5 16.5 -41.5s18.166 -24.5 29.499 -34.5s24 -17.833 38 -23.5s28.333 -8.5 43 -8.5c51.333 0 86.666 20.333 105.999 61
c9.33301 19.333 14.5 41.833 15.5 67.5s-1.83301 54.834 -8.5 87.501c4 2 8.5 3.5 13.5 4.5s9.5 1.5 13.5 1.5c12.667 0 27 -4 43 -12c3.33301 -18.667 6.33301 -36.5 9 -53.5s5.66699 -33.167 9 -48.5c2.66699 -15.333 8.16699 -29.5 16.5 -42.5s18.5 -24.333 30.5 -34
s25.833 -17.334 41.5 -23.001s32.167 -8.5 49.5 -8.5h20c16.667 0 27 -9.66699 31 -29l19 -86v0zM1113 725.003l-114 93l74 98l117 -98zM1269 528.003l-115 95l74 98l117 -98zM1042 528.003l-117 95l76 98l117 -98zM1373 -395.997l-142 101l86 109l141 -102z" />
    <glyph glyph-name="uni06FB.init" unicode="&#x6fb;" horiz-adv-x="1231" 
d="M1136 299c-24.667 -56.667 -56.335 -104.83 -95.002 -144.497s-85 -70.5 -139 -92.5c-48.667 -21.333 -109.334 -37 -182.001 -47s-157.667 -15 -255 -15c-149.333 0 -241 43 -275 129h-3c-3.33301 -18.667 -9 -35.834 -17 -51.501s-19.667 -29.5 -35 -41.5
c-16.667 -12 -35.167 -21 -55.5 -27s-43.833 -9 -70.5 -9h-20c-16.667 0 -26.334 8 -29.001 24l-19 86c-4 19.333 2.33301 29 19 29h20c124.667 0 172 72 142 216c8.66699 4 17.334 6 26.001 6c13.333 0 28 -4 44 -12c2 -18.667 4.5 -36.5 7.5 -53.5
s6.16699 -33.167 9.5 -48.5c2.66699 -15.333 8.33398 -29.5 17.001 -42.5s19.5 -24.333 32.5 -34s28 -17.334 45 -23.001s35.5 -8.5 55.5 -8.5c52.667 80.667 102.334 148.667 149.001 204s91.334 98.666 134.001 129.999c60.667 44 123.667 66 189 66
c73.333 0 140 -26 200 -78c58 -48 93 -102 105 -162zM1034 247.004c-4.66699 21.333 -14 41.667 -28 61s-32.333 38 -55 56c-45.333 36 -92.333 54 -141 54c-59.333 0 -119.5 -23.167 -180.5 -69.5s-122.833 -116.166 -185.5 -209.499h182c44.667 0 87.5 2.66699 128.5 8
s81.5 13.666 121.5 24.999c77.333 21.333 130 46.333 158 75zM316.999 585.005l-142 101l86 109l141 -102zM543.999 -390.995l-142 101l86 109l141 -102z" />
    <glyph glyph-name="uni06FB.medi" unicode="&#x6fb;" horiz-adv-x="1269" 
d="M1300 24c2.66699 -16 -4.00293 -23.998 -20.0029 -23.998h-90c-44.667 0 -97 3.16699 -157 9.5s-129.333 16.5 -208 30.5c-57.333 -14 -116 -24.167 -176 -30.5s-121.333 -9.5 -184 -9.5c-149.333 0 -241 43 -275 129h-3c-3.33301 -18.667 -9 -35.834 -17 -51.501
s-19.667 -29.5 -35 -41.5c-16.667 -12 -35.167 -21 -55.5 -27s-43.833 -9 -70.5 -9h-20c-16.667 0 -26.334 8 -29.001 24l-19 86c-4 19.333 2.33301 29 19 29h20c124.667 0 172 72 142 216c8.66699 4 17.334 6 26.001 6c13.333 0 28 -4 44 -12
c2 -18.667 4.5 -36.5 7.5 -53.5s6.16699 -33.167 9.5 -48.5c2.66699 -15.333 8.33398 -29.5 17.001 -42.5s19.5 -24.333 32.5 -34s28 -17.334 45 -23.001s35.5 -8.5 55.5 -8.5c52.667 80.667 102.334 148.667 149.001 204s91.334 98.666 134.001 129.999
c60.667 44 123.667 66 189 66c73.333 0 140 -26 200 -78c58 -48 93 -102 105 -162c-2 -26 -13 -51.667 -33 -77s-48 -50.666 -84 -75.999l2 -7h229c16.667 0 27 -9.66699 31 -29zM1034 247.002c-4.66699 21.333 -14 41.667 -28 61s-32.333 38 -55 56
c-45.333 36 -92.333 54 -141 54c-59.333 0 -119.5 -23.167 -180.5 -69.5s-122.833 -116.166 -185.5 -209.499h182c44.667 0 87.5 2.66699 128.5 8s81.5 13.666 121.5 24.999c77.333 21.333 130 46.333 158 75zM395.997 525.003l-142 101l86 109l141 -102zM603.997 -393.997
l-142 101l86 109l141 -102z" />
    <glyph glyph-name="uni06FB.fina" unicode="&#x6fb;" horiz-adv-x="1977" 
d="M2008 24c4 -16 -2.00098 -23.998 -18.001 -23.998h-92c-44.667 0 -96.834 3.16699 -156.501 9.5s-128.834 16.5 -207.501 30.5c-58 -14 -117 -24.167 -177 -30.5s-121.333 -9.5 -184 -9.5c-72 0 -126 10.333 -162 31c7.33301 -22.667 14 -44.167 20 -64.5
s11 -40.166 15 -59.499c7.33301 -32 9.83301 -65.667 7.5 -101s-9.16602 -73.333 -20.499 -114c-21.333 -24.667 -48.666 -48.334 -81.999 -71.001s-72.666 -45.334 -117.999 -68.001c-105.333 -51.333 -208.333 -77 -309 -77c-52 0 -99.667 6.16699 -143 18.5
s-83.666 30.5 -120.999 54.5c-76.667 51.333 -124.334 122.333 -143.001 213c-23.333 106 -6.66602 238.667 50.001 398c20.667 0 43.334 -9.33301 68.001 -28c-9.33301 -20 -16.166 -42.167 -20.499 -66.5s-7.83301 -51.5 -10.5 -81.5
c-1.33301 -27.333 -1.33301 -52.166 0 -74.499s4 -42.5 8 -60.5c14.667 -69.333 49.5 -124 104.5 -164s126.167 -60 213.5 -60c38.667 0 78.5 4.5 119.5 13.5s83.5 23.167 127.5 42.5s83.667 40.166 119 62.499s65.666 47.166 90.999 74.499
c-24.667 130 -88 261.667 -190 395l23 182c31.333 -50.667 58.666 -93 81.999 -127s43.666 -59.667 60.999 -77c34.667 -34.667 69.334 -52 104.001 -52c105.333 160 199.666 271.333 282.999 334c31.333 22 62.166 38.5 92.499 49.5s62.5 16.5 96.5 16.5
c74.667 0 142.334 -26 203.001 -78c57.333 -48.667 92 -102.667 104 -162c-7.33301 -52 -46.333 -103 -117 -153l2 -7h229c14.667 0 24.667 -9.66699 30 -29zM1744 247.002c-4.66699 21.333 -14 41.667 -28 61s-32.333 38 -55 56c-45.333 36 -92 54 -140 54
c-121.333 0 -244.333 -93 -369 -279h182c87.333 0 171 11 251 33c38 10.667 70.5 22.167 97.5 34.5s47.5 25.833 61.5 40.5zM1130 614.003l-142 101l86 109l141 -102zM1359 -393.997l-142 101l86 109l141 -102z" />
    <glyph glyph-name="uni06FC.init" unicode="&#x6fc;" horiz-adv-x="787" 
d="M653 164c-40 0 -151.327 -26.9971 -333.994 -80.9971c-91.333 -27.333 -162.833 -47.666 -214.5 -60.999s-83.5 -20.666 -95.5 -21.999h-20c-16.667 0 -26.334 8 -29.001 24l-19 86c-4 19.333 2.33301 29 19 29h20c84.667 0 158.667 8.66699 222 26l-1 5
c-23.333 5.33301 -45.833 14.666 -67.5 27.999s-41.5 29.666 -59.5 48.999s-33.333 40.666 -46 63.999s-21.667 47.666 -27 72.999c-2.66699 13.333 -4.33398 25.666 -5.00098 36.999s-0.666992 21.666 0 30.999c53.333 142 136 213 248 213c101.333 0 194.333 -52 279 -156
c-66 23.333 -133 35 -201 35c-46 0 -89 -4.83301 -129 -14.5s-78.333 -23.834 -115 -42.501c1.33301 -4.66699 2.16602 -10.167 2.49902 -16.5s1.16602 -13.5 2.49902 -21.5c10 -50 40 -97 90 -141c25.333 -23.333 53.166 -42.666 83.499 -57.999
s62.166 -26.666 95.499 -33.999l58.5 17c27.667 8 64.5 19.333 110.5 34c94 30 151.333 50.333 172 61zM186.006 768.003l-142 101l86 109l141 -102zM423.006 -345.997l-142 101l86 109l141 -102z" />
    <glyph glyph-name="uni06FC.medi" unicode="&#x6fc;" horiz-adv-x="600" 
d="M631 24c2.66699 -16 -3.99707 -24 -19.9971 -24h-20c-110.667 0 -210.334 40.667 -299.001 122c-77.333 -81.333 -161.333 -122 -252 -122h-51c-16.667 0 -26.334 8 -29.001 24l-19 86c-4 19.333 2.33301 29 19 29h44c85.333 0 155.666 21 210.999 63
c-57.333 63.333 -113.333 95 -168 95c-7.33301 0 -24.333 -1 -51 -3l34 122c32 17.333 64 30 96 38s64.667 12 98 12c34 0 69.167 -6.5 105.5 -19.5s74.5 -33.5 114.5 -61.5l-17 -89l-79 -87c49.333 -46.667 120.333 -70 213 -70h20c16.667 0 27 -9.66699 31 -29l19 -86v0z
M188.003 614l-142 101l86 109l141 -102zM391.003 -374l-142 101l86 109l141 -102z" />
    <glyph glyph-name="uni06FC.fina" unicode="&#x6fc;" horiz-adv-x="824" 
d="M872 -510c-44.667 -9.33301 -109.666 -13.9971 -194.999 -13.9971c-150 0 -273 24.333 -369 73c-112.667 59.333 -182 148.333 -208 267c-36 167.333 51.667 325.333 263 474c-62 63.333 -118.667 95 -170 95c-5.33301 0 -22.333 -1 -51 -3l36 122
c33.333 17.333 65.666 30.166 96.999 38.499s63 12.5 95 12.5c40.667 0 81 -7.5 121 -22.5s80 -37.5 120 -67.5l-17 -88l-110 -87c109.333 -100.667 209.666 -151 300.999 -151h19c17.333 0 28 -9.66699 32 -29l18 -86c4 -16 -2.66699 -24 -20 -24h-19
c-98 0 -230.333 78.667 -397 236c-157.333 -124 -224 -243 -200 -357c20 -94.667 83.667 -168.334 191 -221.001c50 -24.667 104.667 -42.834 164 -54.501s124.666 -17.5 195.999 -17.5c26.667 0 54.334 1.16699 83.001 3.5s59.334 5.83301 92.001 10.5zM331.001 694.003
l-142 101l86 109l141 -102zM528.001 -198.997l-142 101l86 109l141 -102z" />
    <glyph glyph-name="uniFB51" unicode="&#x671;" horiz-adv-x="400" arabic-form="final" 
d="M431 24c4 -16 -2.66895 -24 -20.002 -24h-20c-87.333 -0 -153 29.333 -197 88c-47.333 62 -90 183 -128 363c-13.333 60.667 -28.5 123 -45.5 187s-36.167 130.667 -57.5 200c-21.333 70 -40.666 127.833 -57.999 173.5s-32.666 81.167 -45.999 106.5l78 124
c63.333 -142 132 -386.333 206 -733c16 -77.333 31.5 -141 46.5 -191s29.833 -86.667 44.5 -110c26 -46 68.333 -69 127 -69h20c16 0 26.667 -9.66699 32 -29l18 -86v0zM-284.002 1358c16 22 37.166 34.002 63.499 36.002s50.166 -2.66699 71.499 -14
c18.667 29.333 37.5 52.5 56.5 69.5s34.833 27.5 47.5 31.5c16 6 30.667 6.16699 44 0.5s24.333 -14.167 33 -25.5s14.334 -24 17.001 -38s1.33398 -26.667 -3.99902 -38c-11.333 -20 -27.5 -34.833 -48.5 -44.5s-47 -14.334 -78 -14.001s-65.167 9.16602 -102.5 26.499
c-8 4 -16.833 7 -26.5 9s-19 3.33301 -28 4s-17.667 0.666992 -26 0s-14.833 -1.66699 -19.5 -3zM-39.0029 1445c-16.667 -6 -31.832 -15.3291 -45.499 -27.9961s-27.5 -27.334 -41.5 -44.001c4.66699 -2.66699 14.5 -4.33398 29.5 -5.00098s30.833 0 47.5 2
s32.167 5.33301 46.5 10s23.833 11.667 28.5 21c-0.666992 4.66699 -2.5 10 -5.5 16s-7.33301 11.667 -13 17s-12.334 9.16602 -20.001 11.499s-16.5 2.16602 -26.5 -0.500977z" />
    <glyph glyph-name="uniFB53" unicode="&#x67b;" horiz-adv-x="1348" arabic-form="final" 
d="M1379 24c2.66699 -16 -4.66895 -24.0049 -22.002 -24.0049h-18c-52 0 -96 12.667 -132 38c-15.333 12 -28.166 25.5 -38.499 40.5s-17.5 31.833 -21.5 50.5c-2 8.66699 -3.5 17 -4.5 25s-0.833008 16.667 0.5 26c-30.667 -27.333 -67.667 -52.166 -111 -74.499
s-92.666 -42.5 -147.999 -60.5c-59.333 -19.333 -119.666 -33.5 -180.999 -42.5s-124.333 -13.5 -189 -13.5c-70 0 -133.333 6.33301 -190 19s-107.334 32.334 -152.001 59.001c-80 48 -128 111 -144 189c-17.333 80 -3.33301 176.667 42 290c0 1.33301 3.66699 2 11 2
c16.667 0 32.667 -10.333 48 -31c-12.667 -33.333 -20.5 -65.166 -23.5 -95.499s-1.83301 -59.166 3.5 -86.499c6 -29.333 20.333 -56 43 -80s52 -44.667 88 -62s78.333 -30.666 127 -39.999s102.667 -14 162 -14c35.333 0 73.666 2.16699 114.999 6.5s87 10.833 137 19.5
c48 9.33301 90.833 19 128.5 29s69.167 21 94.5 33c22 10 40.5 19.667 55.5 29s26.167 19 33.5 29c16 20 24.333 57.333 25 112c6 2 13 3 21 3c15.333 0 32 -8.33301 50 -25c-6 -21.333 -9.16699 -42.5 -9.5 -63.5s1.83398 -41.833 6.50098 -62.5
c16 -73.333 57 -110 123 -110h18c18 0 29 -9.66699 33 -29l19 -86v0zM742.997 -290.005l-74 -121l-133 110l76 119zM815.997 -532.005l-75 -119l-133 110l78 117z" />
    <glyph glyph-name="uniFB54" unicode="&#x67b;" horiz-adv-x="344" arabic-form="initial" 
d="M260 275c2.66699 -80 -17.667 -145.33 -61 -195.997c-47.333 -52.667 -110.666 -79 -189.999 -79h-20c-16.667 0 -26.334 8 -29.001 24l-19 86c-4 19.333 2.33301 29 19 29h46c98.667 0 156.667 33 174 99c-10 25.333 -25 50.166 -45 74.499s-44.667 48.166 -74 71.499
l37 175c38 -46.667 70.5 -93.334 97.5 -140.001s48.5 -94.667 64.5 -144zM314.999 -227.997l-74 -121l-133 110l76 119zM387.999 -469.997l-75 -119l-133 110l78 117z" />
    <glyph glyph-name="uniFB55" unicode="&#x67b;" horiz-adv-x="501" arabic-form="medial" 
d="M-59 110c-2 11.333 -1.83105 19 0.501953 23s8.5 6 18.5 6h20c18 0 38.667 1.83301 62 5.5s44.5 11.667 63.5 24s33.333 30.5 43 54.5s10.167 56.667 1.5 98l-7 30c2 3.33301 5.5 5.5 10.5 6.5s10.833 1.5 17.5 1.5c7.33301 0 13.166 -0.666992 17.499 -2
s10.166 -4 17.499 -8l7 -30c8 -37.333 17.833 -67.666 29.5 -90.999s27.167 -41.666 46.5 -54.999s43 -22.333 71 -27s62 -7 102 -7h20c10 0 17.167 -2 21.5 -6s7.5 -11.667 9.5 -23l19 -86c2.66699 -16 -4 -24 -20 -24h-20c-41.333 0 -77.666 3.83301 -108.999 11.5
s-58.166 17.667 -80.499 30s-40 26.166 -53 41.499s-21.833 30.666 -26.5 45.999h-8c0 -20 -5 -37.833 -15 -53.5s-22.833 -29.167 -38.5 -40.5s-33.334 -20 -53.001 -26s-39.167 -9 -58.5 -9h-61c-16.667 0 -26.334 8 -29.001 24l-19 86v0zM374.002 -244l-74 -121l-133 110
l76 119zM447.002 -486l-75 -119l-133 110l78 117z" />
    <glyph glyph-name="afii62958" unicode="&#x67e;" horiz-adv-x="1348" arabic-form="final" 
d="M1379 24c2.66699 -16 -4.66895 -24.0049 -22.002 -24.0049h-18c-52 0 -96 12.667 -132 38c-15.333 12 -28.166 25.5 -38.499 40.5s-17.5 31.833 -21.5 50.5c-2 8.66699 -3.5 17 -4.5 25s-0.833008 16.667 0.5 26c-30.667 -27.333 -67.667 -52.166 -111 -74.499
s-92.666 -42.5 -147.999 -60.5c-59.333 -19.333 -119.666 -33.5 -180.999 -42.5s-124.333 -13.5 -189 -13.5c-70 0 -133.333 6.33301 -190 19s-107.334 32.334 -152.001 59.001c-80 48 -128 111 -144 189c-17.333 80 -3.33301 176.667 42 290c0 1.33301 3.66699 2 11 2
c16.667 0 32.667 -10.333 48 -31c-12.667 -33.333 -20.5 -65.166 -23.5 -95.499s-1.83301 -59.166 3.5 -86.499c6 -29.333 20.333 -56 43 -80s52 -44.667 88 -62s78.333 -30.666 127 -39.999s102.667 -14 162 -14c35.333 0 73.666 2.16699 114.999 6.5s87 10.833 137 19.5
c48 9.33301 90.833 19 128.5 29s69.167 21 94.5 33c22 10 40.5 19.667 55.5 29s26.167 19 33.5 29c16 20 24.333 57.333 25 112c6 2 13 3 21 3c15.333 0 32 -8.33301 50 -25c-6 -21.333 -9.16699 -42.5 -9.5 -63.5s1.83398 -41.833 6.50098 -62.5
c16 -73.333 57 -110 123 -110h18c18 0 29 -9.66699 33 -29l19 -86v0zM719.997 -557.005l-116 96l76 95l115 -95zM791.997 -362.005l-116 96l76 95l115 -95zM564.997 -362.005l-116 96l76 95l115 -95z" />
    <glyph glyph-name="afii62956" unicode="&#x67e;" horiz-adv-x="344" arabic-form="initial" 
d="M260 275c2.66699 -80 -17.667 -145.33 -61 -195.997c-47.333 -52.667 -110.666 -79 -189.999 -79h-20c-16.667 0 -26.334 8 -29.001 24l-19 86c-4 19.333 2.33301 29 19 29h46c98.667 0 156.667 33 174 99c-10 25.333 -25 50.166 -45 74.499s-44.667 48.166 -74 71.499
l37 175c38 -46.667 70.5 -93.334 97.5 -140.001s48.5 -94.667 64.5 -144zM280.999 -540.997l-116 96l76 95l115 -95zM352.999 -345.997l-116 96l76 95l115 -95zM125.999 -345.997l-116 96l76 95l115 -95z" />
    <glyph glyph-name="afii52957" unicode="&#x67e;" horiz-adv-x="501" arabic-form="medial" 
d="M-59 110c-2 11.333 -1.83105 19 0.501953 23s8.5 6 18.5 6h20c18 0 38.667 1.83301 62 5.5s44.5 11.667 63.5 24s33.333 30.5 43 54.5s10.167 56.667 1.5 98l-7 30c2 3.33301 5.5 5.5 10.5 6.5s10.833 1.5 17.5 1.5c7.33301 0 13.166 -0.666992 17.499 -2
s10.166 -4 17.499 -8l7 -30c8 -37.333 17.833 -67.666 29.5 -90.999s27.167 -41.666 46.5 -54.999s43 -22.333 71 -27s62 -7 102 -7h20c10 0 17.167 -2 21.5 -6s7.5 -11.667 9.5 -23l19 -86c2.66699 -16 -4 -24 -20 -24h-20c-41.333 0 -77.666 3.83301 -108.999 11.5
s-58.166 17.667 -80.499 30s-40 26.166 -53 41.499s-21.833 30.666 -26.5 45.999h-8c0 -20 -5 -37.833 -15 -53.5s-22.833 -29.167 -38.5 -40.5s-33.334 -20 -53.001 -26s-39.167 -9 -58.5 -9h-61c-16.667 0 -26.334 8 -29.001 24l-19 86v0zM344.002 -522l-116 96l76 95
l115 -95zM416.002 -327l-116 96l76 95l115 -95zM189.002 -327l-116 96l76 95l115 -95z" />
    <glyph glyph-name="uniFB5B" unicode="&#x680;" horiz-adv-x="1348" arabic-form="final" 
d="M1379 24c2.66699 -16 -4.66895 -24.0049 -22.002 -24.0049h-18c-52 0 -96 12.667 -132 38c-15.333 12 -28.166 25.5 -38.499 40.5s-17.5 31.833 -21.5 50.5c-2 8.66699 -3.5 17 -4.5 25s-0.833008 16.667 0.5 26c-30.667 -27.333 -67.667 -52.166 -111 -74.499
s-92.666 -42.5 -147.999 -60.5c-59.333 -19.333 -119.666 -33.5 -180.999 -42.5s-124.333 -13.5 -189 -13.5c-70 0 -133.333 6.33301 -190 19s-107.334 32.334 -152.001 59.001c-80 48 -128 111 -144 189c-17.333 80 -3.33301 176.667 42 290c0 1.33301 3.66699 2 11 2
c16.667 0 32.667 -10.333 48 -31c-12.667 -33.333 -20.5 -65.166 -23.5 -95.499s-1.83301 -59.166 3.5 -86.499c6 -29.333 20.333 -56 43 -80s52 -44.667 88 -62s78.333 -30.666 127 -39.999s102.667 -14 162 -14c35.333 0 73.666 2.16699 114.999 6.5s87 10.833 137 19.5
c48 9.33301 90.833 19 128.5 29s69.167 21 94.5 33c22 10 40.5 19.667 55.5 29s26.167 19 33.5 29c16 20 24.333 57.333 25 112c6 2 13 3 21 3c15.333 0 32 -8.33301 50 -25c-6 -21.333 -9.16699 -42.5 -9.5 -63.5s1.83398 -41.833 6.50098 -62.5
c16 -73.333 57 -110 123 -110h18c18 0 29 -9.66699 33 -29l19 -86v0zM624.997 -325.005l-114 93l74 98l117 -98zM764.997 -475.005l-115 95l74 98l117 -98zM556.997 -475.005l-116 95l74 98l117 -98zM695.997 -622.005l-115 93l74 97l117 -97z" />
    <glyph glyph-name="uniFB5C" unicode="&#x680;" horiz-adv-x="344" arabic-form="initial" 
d="M260 275c2.66699 -80 -17.667 -145.33 -61 -195.997c-47.333 -52.667 -110.666 -79 -189.999 -79h-20c-16.667 0 -26.334 8 -29.001 24l-19 86c-4 19.333 2.33301 29 19 29h46c98.667 0 156.667 33 174 99c-10 25.333 -25 50.166 -45 74.499s-44.667 48.166 -74 71.499
l37 175c38 -46.667 70.5 -93.334 97.5 -140.001s48.5 -94.667 64.5 -144zM218.172 -291.421l-106.909 87.1191l69.3975 91.8027l109.723 -91.8027zM349.465 -431.937l-107.848 88.9932l69.3975 91.8037l109.724 -91.8037zM154.401 -431.937l-108.785 88.9932
l69.3975 91.8037l109.724 -91.8037zM284.757 -569.642l-107.848 87.1201l69.3975 90.8662l109.723 -90.8662z" />
    <glyph glyph-name="uniFB5D" unicode="&#x680;" horiz-adv-x="501" arabic-form="medial" 
d="M-59 110c-2 11.333 -1.83105 19 0.501953 23s8.5 6 18.5 6h20c18 0 38.667 1.83301 62 5.5s44.5 11.667 63.5 24s33.333 30.5 43 54.5s10.167 56.667 1.5 98l-7 30c2 3.33301 5.5 5.5 10.5 6.5s10.833 1.5 17.5 1.5c7.33301 0 13.166 -0.666992 17.499 -2
s10.166 -4 17.499 -8l7 -30c8 -37.333 17.833 -67.666 29.5 -90.999s27.167 -41.666 46.5 -54.999s43 -22.333 71 -27s62 -7 102 -7h20c10 0 17.167 -2 21.5 -6s7.5 -11.667 9.5 -23l19 -86c2.66699 -16 -4 -24 -20 -24h-20c-41.333 0 -77.666 3.83301 -108.999 11.5
s-58.166 17.667 -80.499 30s-40 26.166 -53 41.499s-21.833 30.666 -26.5 45.999h-8c0 -20 -5 -37.833 -15 -53.5s-22.833 -29.167 -38.5 -40.5s-33.334 -20 -53.001 -26s-39.167 -9 -58.5 -9h-61c-16.667 0 -26.334 8 -29.001 24l-19 86v0zM305.689 -308.27
l-108.002 88.0273l70.1064 92.7598l110.844 -92.7598zM438.323 -450.25l-108.949 89.9209l70.1064 92.7607l110.845 -92.7607zM241.267 -450.25l-109.896 89.9209l70.1064 92.7607l110.845 -92.7607zM372.954 -589.391l-108.95 88.0283l70.1074 91.8135l110.844 -91.8135z
" />
    <glyph glyph-name="uniFB5F" unicode="&#x67a;" horiz-adv-x="1348" arabic-form="final" 
d="M1379 24c2.66699 -16 -4.66895 -24.0049 -22.002 -24.0049h-18c-52 0 -96 12.667 -132 38c-15.333 12 -28.166 25.5 -38.499 40.5s-17.5 31.833 -21.5 50.5c-2 8.66699 -3.5 17 -4.5 25s-0.833008 16.667 0.5 26c-30.667 -27.333 -67.667 -52.166 -111 -74.499
s-92.666 -42.5 -147.999 -60.5c-59.333 -19.333 -119.666 -33.5 -180.999 -42.5s-124.333 -13.5 -189 -13.5c-70 0 -133.333 6.33301 -190 19s-107.334 32.334 -152.001 59.001c-80 48 -128 111 -144 189c-17.333 80 -3.33301 176.667 42 290c0 1.33301 3.66699 2 11 2
c16.667 0 32.667 -10.333 48 -31c-12.667 -33.333 -20.5 -65.166 -23.5 -95.499s-1.83301 -59.166 3.5 -86.499c6 -29.333 20.333 -56 43 -80s52 -44.667 88 -62s78.333 -30.666 127 -39.999s102.667 -14 162 -14c35.333 0 73.666 2.16699 114.999 6.5s87 10.833 137 19.5
c48 9.33301 90.833 19 128.5 29s69.167 21 94.5 33c22 10 40.5 19.667 55.5 29s26.167 19 33.5 29c16 20 24.333 57.333 25 112c6 2 13 3 21 3c15.333 0 32 -8.33301 50 -25c-6 -21.333 -9.16699 -42.5 -9.5 -63.5s1.83398 -41.833 6.50098 -62.5
c16 -73.333 57 -110 123 -110h18c18 0 29 -9.66699 33 -29l19 -86v0zM631.997 941.995l-74 -121l-133 110l76 119zM704.997 699.995l-75 -119l-133 110l78 117z" />
    <glyph glyph-name="uniFB60" unicode="&#x67a;" horiz-adv-x="344" arabic-form="initial" 
d="M260 275c2.66699 -80 -17.667 -145.33 -61 -195.997c-47.333 -52.667 -110.666 -79 -189.999 -79h-20c-16.667 0 -26.334 8 -29.001 24l-19 86c-4 19.333 2.33301 29 19 29h46c98.667 0 156.667 33 174 99c-10 25.333 -25 50.166 -45 74.499s-44.667 48.166 -74 71.499
l37 175c38 -46.667 70.5 -93.334 97.5 -140.001s48.5 -94.667 64.5 -144zM-51.001 1007l-74 -121l-133 110l76 119zM21.999 765.003l-75 -119l-133 110l78 117z" />
    <glyph glyph-name="uniFB61" unicode="&#x67a;" horiz-adv-x="501" arabic-form="medial" 
d="M-59 110c-2 11.333 -1.83105 19 0.501953 23s8.5 6 18.5 6h20c18 0 38.667 1.83301 62 5.5s44.5 11.667 63.5 24s33.333 30.5 43 54.5s10.167 56.667 1.5 98l-7 30c2 3.33301 5.5 5.5 10.5 6.5s10.833 1.5 17.5 1.5c7.33301 0 13.166 -0.666992 17.499 -2
s10.166 -4 17.499 -8l7 -30c8 -37.333 17.833 -67.666 29.5 -90.999s27.167 -41.666 46.5 -54.999s43 -22.333 71 -27s62 -7 102 -7h20c10 0 17.167 -2 21.5 -6s7.5 -11.667 9.5 -23l19 -86c2.66699 -16 -4 -24 -20 -24h-20c-41.333 0 -77.666 3.83301 -108.999 11.5
s-58.166 17.667 -80.499 30s-40 26.166 -53 41.499s-21.833 30.666 -26.5 45.999h-8c0 -20 -5 -37.833 -15 -53.5s-22.833 -29.167 -38.5 -40.5s-33.334 -20 -53.001 -26s-39.167 -9 -58.5 -9h-61c-16.667 0 -26.334 8 -29.001 24l-19 86v0zM111.002 940l-74 -121l-133 110
l76 119zM184.002 698l-75 -119l-133 110l78 117z" />
    <glyph glyph-name="uniFB63" unicode="&#x67f;" horiz-adv-x="1348" arabic-form="final" 
d="M1379 24c2.66699 -16 -4.66895 -24.0049 -22.002 -24.0049h-18c-52 0 -96 12.667 -132 38c-15.333 12 -28.166 25.5 -38.499 40.5s-17.5 31.833 -21.5 50.5c-2 8.66699 -3.5 17 -4.5 25s-0.833008 16.667 0.5 26c-30.667 -27.333 -67.667 -52.166 -111 -74.499
s-92.666 -42.5 -147.999 -60.5c-59.333 -19.333 -119.666 -33.5 -180.999 -42.5s-124.333 -13.5 -189 -13.5c-70 0 -133.333 6.33301 -190 19s-107.334 32.334 -152.001 59.001c-80 48 -128 111 -144 189c-17.333 80 -3.33301 176.667 42 290c0 1.33301 3.66699 2 11 2
c16.667 0 32.667 -10.333 48 -31c-12.667 -33.333 -20.5 -65.166 -23.5 -95.499s-1.83301 -59.166 3.5 -86.499c6 -29.333 20.333 -56 43 -80s52 -44.667 88 -62s78.333 -30.666 127 -39.999s102.667 -14 162 -14c35.333 0 73.666 2.16699 114.999 6.5s87 10.833 137 19.5
c48 9.33301 90.833 19 128.5 29s69.167 21 94.5 33c22 10 40.5 19.667 55.5 29s26.167 19 33.5 29c16 20 24.333 57.333 25 112c6 2 13 3 21 3c15.333 0 32 -8.33301 50 -25c-6 -21.333 -9.16699 -42.5 -9.5 -63.5s1.83398 -41.833 6.50098 -62.5
c16 -73.333 57 -110 123 -110h18c18 0 29 -9.66699 33 -29l19 -86v0zM519.997 970.995l-114 93l74 98l117 -98zM659.997 820.995l-115 95l74 98l117 -98zM451.997 820.995l-116 95l74 98l117 -98zM590.997 673.995l-115 93l74 97l117 -97z" />
    <glyph glyph-name="uniFB64" unicode="&#x67f;" horiz-adv-x="344" arabic-form="initial" 
d="M260 275c2.66699 -80 -17.667 -145.33 -61 -195.997c-47.333 -52.667 -110.666 -79 -189.999 -79h-20c-16.667 0 -26.334 8 -29.001 24l-19 86c-4 19.333 2.33301 29 19 29h46c98.667 0 156.667 33 174 99c-10 25.333 -25 50.166 -45 74.499s-44.667 48.166 -74 71.499
l37 175c38 -46.667 70.5 -93.334 97.5 -140.001s48.5 -94.667 64.5 -144zM-124.001 955.003l-114 93l74 98l117 -98zM15.999 805.003l-115 95l74 98l117 -98zM-192.001 805.003l-116 95l74 98l117 -98zM-53.001 658.003l-115 93l74 97l117 -97z" />
    <glyph glyph-name="uniFB65" unicode="&#x67f;" horiz-adv-x="501" arabic-form="medial" 
d="M-59 110c-2 11.333 -1.83105 19 0.501953 23s8.5 6 18.5 6h20c18 0 38.667 1.83301 62 5.5s44.5 11.667 63.5 24s33.333 30.5 43 54.5s10.167 56.667 1.5 98l-7 30c2 3.33301 5.5 5.5 10.5 6.5s10.833 1.5 17.5 1.5c7.33301 0 13.166 -0.666992 17.499 -2
s10.166 -4 17.499 -8l7 -30c8 -37.333 17.833 -67.666 29.5 -90.999s27.167 -41.666 46.5 -54.999s43 -22.333 71 -27s62 -7 102 -7h20c10 0 17.167 -2 21.5 -6s7.5 -11.667 9.5 -23l19 -86c2.66699 -16 -4 -24 -20 -24h-20c-41.333 0 -77.666 3.83301 -108.999 11.5
s-58.166 17.667 -80.499 30s-40 26.166 -53 41.499s-21.833 30.666 -26.5 45.999h-8c0 -20 -5 -37.833 -15 -53.5s-22.833 -29.167 -38.5 -40.5s-33.334 -20 -53.001 -26s-39.167 -9 -58.5 -9h-61c-16.667 0 -26.334 8 -29.001 24l-19 86v0zM62.002 828l-114 93l74 98
l117 -98zM202.002 678l-115 95l74 98l117 -98zM-5.99805 678l-116 95l74 98l117 -98zM133.002 531l-115 93l74 97l117 -97z" />
    <glyph glyph-name="uniFB67" unicode="&#x679;" horiz-adv-x="1348" arabic-form="final" 
d="M1379 24c2.66699 -16 -4.66895 -24.0049 -22.002 -24.0049h-18c-52 0 -96 12.667 -132 38c-15.333 12 -28.166 25.5 -38.499 40.5s-17.5 31.833 -21.5 50.5c-2 8.66699 -3.5 17 -4.5 25s-0.833008 16.667 0.5 26c-30.667 -27.333 -67.667 -52.166 -111 -74.499
s-92.666 -42.5 -147.999 -60.5c-59.333 -19.333 -119.666 -33.5 -180.999 -42.5s-124.333 -13.5 -189 -13.5c-70 0 -133.333 6.33301 -190 19s-107.334 32.334 -152.001 59.001c-80 48 -128 111 -144 189c-17.333 80 -3.33301 176.667 42 290c0 1.33301 3.66699 2 11 2
c16.667 0 32.667 -10.333 48 -31c-12.667 -33.333 -20.5 -65.166 -23.5 -95.499s-1.83301 -59.166 3.5 -86.499c6 -29.333 20.333 -56 43 -80s52 -44.667 88 -62s78.333 -30.666 127 -39.999s102.667 -14 162 -14c35.333 0 73.666 2.16699 114.999 6.5s87 10.833 137 19.5
c48 9.33301 90.833 19 128.5 29s69.167 21 94.5 33c22 10 40.5 19.667 55.5 29s26.167 19 33.5 29c16 20 24.333 57.333 25 112c6 2 13 3 21 3c15.333 0 32 -8.33301 50 -25c-6 -21.333 -9.16699 -42.5 -9.5 -63.5s1.83398 -41.833 6.50098 -62.5
c16 -73.333 57 -110 123 -110h18c18 0 29 -9.66699 33 -29l19 -86v0zM811.997 749.995c-8.66699 -18.667 -18.999 -34.502 -30.999 -47.502s-26.667 -23.167 -44 -30.5c-15.333 -6.66699 -34.166 -11.667 -56.499 -15s-48.5 -5 -78.5 -5h-38c-29.333 14.667 -56 33 -80 55
c11.333 -3.33301 23.5 -5.5 36.5 -6.5s26.5 -1.5 40.5 -1.5c-4 17.333 -7.16699 32.5 -9.5 45.5s-4.83301 25.333 -7.5 37l-8 36c-2.66699 12.333 -6.33398 26.5 -11.001 42.5c-9.33301 30 -17.333 54.333 -24 73s-12.667 32.334 -18 41.001l23 41l11.5 -20
c4.33301 -7.33301 9.83301 -16 16.5 -26c12.667 -20 21.334 -32.333 26.001 -37c-5.33301 1.33301 -9.83301 2.66602 -13.5 3.99902s-7.5 3.33301 -11.5 6c5.33301 -18 10 -34.667 14 -50s7.66699 -31 11 -47s6.66602 -33.167 9.99902 -51.5s7.66602 -39.5 12.999 -63.5
c26.667 38.667 51 65.334 73 80.001c16 11.333 35.333 17 58 17c22 0 43.333 -8.33301 64 -25c18.667 -15.333 30 -32.666 34 -51.999zM777.998 731.993c-2 13.333 -10.667 26 -26 38c-16 12 -31.667 18 -47 18c-38 0 -77.333 -30 -118 -90h60c14 0 27.667 0.666992 41 2
s26.333 4 39 8c26 7.33301 43 15.333 51 24z" />
    <glyph glyph-name="uniFB68" unicode="&#x679;" horiz-adv-x="344" arabic-form="initial" 
d="M260 275c2.66699 -80 -17.667 -145.33 -61 -195.997c-47.333 -52.667 -110.666 -79 -189.999 -79h-20c-16.667 0 -26.334 8 -29.001 24l-19 86c-4 19.333 2.33301 29 19 29h46c98.667 0 156.667 33 174 99c-10 25.333 -25 50.166 -45 74.499s-44.667 48.166 -74 71.499
l37 175c38 -46.667 70.5 -93.334 97.5 -140.001s48.5 -94.667 64.5 -144zM144.999 784.003c-8.66699 -18.667 -18.999 -34.502 -30.999 -47.502s-26.667 -23.167 -44 -30.5c-15.333 -6.66699 -34.166 -11.667 -56.499 -15s-48.5 -5 -78.5 -5h-38
c-29.333 14.667 -56 33 -80 55c11.333 -3.33301 23.5 -5.5 36.5 -6.5s26.5 -1.5 40.5 -1.5c-4 17.333 -7.16699 32.5 -9.5 45.5s-4.83301 25.333 -7.5 37l-8 36c-2.66699 12.333 -6.33398 26.5 -11.001 42.5c-9.33301 30 -17.333 54.333 -24 73s-12.667 32.334 -18 41.001
l23 41l11.5 -20c4.33301 -7.33301 9.83301 -16 16.5 -26c12.667 -20 21.334 -32.333 26.001 -37c-5.33301 1.33301 -9.83301 2.66602 -13.5 3.99902s-7.5 3.33301 -11.5 6c5.33301 -18 10 -34.667 14 -50s7.66699 -31 11 -47s6.66602 -33.167 9.99902 -51.5
s7.66602 -39.5 12.999 -63.5c26.667 38.667 51 65.334 73 80.001c16 11.333 35.333 17 58 17c22 0 43.333 -8.33301 64 -25c18.667 -15.333 30 -32.666 34 -51.999zM111 766.001c-2 13.333 -10.667 26 -26 38c-16 12 -31.667 18 -47 18c-38 0 -77.333 -30 -118 -90h60
c14 0 27.667 0.666992 41 2s26.333 4 39 8c26 7.33301 43 15.333 51 24z" />
    <glyph glyph-name="uniFB69" unicode="&#x679;" horiz-adv-x="501" arabic-form="medial" 
d="M-59 110c-2 11.333 -1.83105 19 0.501953 23s8.5 6 18.5 6h20c18 0 38.667 1.83301 62 5.5s44.5 11.667 63.5 24s33.333 30.5 43 54.5s10.167 56.667 1.5 98l-7 30c2 3.33301 5.5 5.5 10.5 6.5s10.833 1.5 17.5 1.5c7.33301 0 13.166 -0.666992 17.499 -2
s10.166 -4 17.499 -8l7 -30c8 -37.333 17.833 -67.666 29.5 -90.999s27.167 -41.666 46.5 -54.999s43 -22.333 71 -27s62 -7 102 -7h20c10 0 17.167 -2 21.5 -6s7.5 -11.667 9.5 -23l19 -86c2.66699 -16 -4 -24 -20 -24h-20c-41.333 0 -77.666 3.83301 -108.999 11.5
s-58.166 17.667 -80.499 30s-40 26.166 -53 41.499s-21.833 30.666 -26.5 45.999h-8c0 -20 -5 -37.833 -15 -53.5s-22.833 -29.167 -38.5 -40.5s-33.334 -20 -53.001 -26s-39.167 -9 -58.5 -9h-61c-16.667 0 -26.334 8 -29.001 24l-19 86v0zM276.002 630
c-8.66699 -18.667 -18.999 -34.502 -30.999 -47.502s-26.667 -23.167 -44 -30.5c-15.333 -6.66699 -34.166 -11.667 -56.499 -15s-48.5 -5 -78.5 -5h-38c-29.333 14.667 -56 33 -80 55c11.333 -3.33301 23.5 -5.5 36.5 -6.5s26.5 -1.5 40.5 -1.5
c-4 17.333 -7.16699 32.5 -9.5 45.5s-4.83301 25.333 -7.5 37l-8 36c-2.66699 12.333 -6.33398 26.5 -11.001 42.5c-9.33301 30 -17.333 54.333 -24 73s-12.667 32.334 -18 41.001l23 41l11.5 -20c4.33301 -7.33301 9.83301 -16 16.5 -26
c12.667 -20 21.334 -32.333 26.001 -37c-5.33301 1.33301 -9.83301 2.66602 -13.5 3.99902s-7.5 3.33301 -11.5 6c5.33301 -18 10 -34.667 14 -50s7.66699 -31 11 -47s6.66602 -33.167 9.99902 -51.5s7.66602 -39.5 12.999 -63.5c26.667 38.667 51 65.334 73 80.001
c16 11.333 35.333 17 58 17c22 0 43.333 -8.33301 64 -25c18.667 -15.333 30 -32.666 34 -51.999zM242.003 611.998c-2 13.333 -10.667 26 -26 38c-16 12 -31.667 18 -47 18c-38 0 -77.333 -30 -118 -90h60c14 0 27.667 0.666992 41 2s26.333 4 39 8
c26 7.33301 43 15.333 51 24z" />
    <glyph glyph-name="afii57371" unicode="&#x6a4;" horiz-adv-x="1417" arabic-form="final" 
d="M1448 24c2.66699 -16 -4.33398 -24.0049 -21.001 -24.0049h-20c-52.667 0 -104.167 7.5 -154.5 22.5s-99.5 37.5 -147.5 67.5c-16 -17.333 -37 -32.166 -63 -44.499s-56.667 -22.833 -92 -31.5c-40.667 -8 -92 -14.167 -154 -18.5s-135.333 -6.5 -220 -6.5
c-84 0 -158.833 6.33301 -224.5 19s-122.5 32.334 -170.5 59.001c-85.333 46.667 -136.333 109.667 -153 189c-17.333 80 -3.33301 176.667 42 290c0 1.33301 3.66699 2 11 2c16.667 0 32.667 -10.333 48 -31c-12.667 -33.333 -20.5 -65.166 -23.5 -95.499
s-1.83301 -59.166 3.5 -86.499c26.667 -130.667 200.334 -196 521.001 -196c78.667 0 146.167 1.83301 202.5 5.5s102.5 9.5 138.5 17.5c-69.333 40.667 -112.333 100.667 -129 180c-15.333 72 -5.16602 135.5 30.501 190.5s93.167 97.5 172.5 127.5
c59.333 -38 106.833 -79.833 142.5 -125.5s59.167 -95.5 70.5 -149.5c18 -79.333 -4.33301 -150.333 -67 -213c28 -11.333 57.667 -19.666 89 -24.999s63.666 -8 96.999 -8h20c17.333 0 28 -9.66699 32 -29zM1173 362.995c-11.333 55.333 -51.668 102.333 -121.001 141
c-80.667 -16 -124 -71 -130 -165c11.333 -24 36 -51.667 74 -83c33.333 -28 62 -46.667 86 -56c18 6.66699 34 15.667 48 27s24.667 25 32 41c14.667 28 18.334 59.667 11.001 95zM942.997 1002l-114 93l74 98l117 -98zM1099 804.995l-115 95l74 98l117 -98z
M871.997 804.995l-117 95l76 98l117 -98z" />
    <glyph glyph-name="afii57372" unicode="&#x6a4;" horiz-adv-x="555" arabic-form="initial" 
d="M436 392c11.333 -52.667 17.5 -103.333 18.5 -152s-2.5 -95 -10.5 -139c-14 -12 -35.167 -23.667 -63.5 -35s-64.5 -22.333 -108.5 -33c-46 -11.333 -90.333 -19.666 -133 -24.999s-85.334 -8 -128.001 -8h-22c-16.667 0 -26.334 8 -29.001 24l-19 86
c-4 19.333 2.33301 29 19 29h20c46 0 90 1.83301 132 5.5s82.333 9.5 121 17.5c36 7.33301 65 14.666 87 21.999s38 15.333 48 24c6.66699 20.667 10.334 43.667 11.001 69s-2 54 -8 86c-33.333 -34 -89.333 -51 -168 -51c-66.667 0 -125.334 17 -176.001 51
c-15.333 42 -26.666 78.667 -33.999 110c-28 134.667 2 244.667 90 330c184.667 -40.667 302.334 -177.667 353.001 -411zM329 488.001c-8 36.667 -35.668 73 -83.001 109c-49.333 36.667 -100.333 55 -153 55c-33.333 -33.333 -41.666 -88 -24.999 -164
c29.333 -24.667 72.666 -37 129.999 -37c58.667 0 102.334 12.333 131.001 37zM40.999 1140l-114 93l74 98l117 -98zM196.999 943.001l-115 95l74 98l117 -98zM-30.001 943.001l-117 95l76 98l117 -98z" />
    <glyph glyph-name="afii57369" unicode="&#x6a4;" horiz-adv-x="600" arabic-form="medial" 
d="M631 24c2.66699 -16 -4 -24.001 -20 -24.001h-20c-53.333 0 -105 7.5 -155 22.5s-99 37.5 -147 67.5c-30 -30 -68 -52.5 -114 -67.5s-101.333 -22.5 -166 -22.5h-20c-16.667 0 -26.334 8 -29.001 24l-19 86c-4 19.333 2.33301 29 19 29h20
c79.333 0 137.333 7.66699 174 23c-34.667 20.667 -62.167 45.834 -82.5 75.501s-34.833 64.5 -43.5 104.5c-15.333 72 -5.66602 135.5 29.001 190.5s92 97.5 172 127.5c120 -76.667 191 -168.334 213 -275.001c16.667 -80 -6 -151 -68 -213
c28 -11.333 57.833 -19.666 89.5 -24.999s64.167 -8 97.5 -8h20c16.667 0 27 -9.66699 31 -29zM359 362.999c-11.333 56 -52.6641 103 -123.997 141c-79.333 -16 -122.333 -71 -129 -165c5.33301 -12 14.166 -25 26.499 -39s28.166 -28.667 47.499 -44
c17.333 -14.667 33.166 -26.5 47.499 -35.5s26.833 -15.833 37.5 -20.5c39.333 13.333 67 36 83 68c14 29.333 17.667 61 11 95zM125.002 1016l-114 93l74 98l117 -98zM281.002 818.999l-115 95l74 98l117 -98zM54.002 818.999l-117 95l76 98l117 -98z" />
    <glyph glyph-name="uniFB6f" unicode="&#x6a6;" horiz-adv-x="1417" arabic-form="final" 
d="M1448 24c2.66699 -16 -4.33398 -24.0049 -21.001 -24.0049h-20c-52.667 0 -104.167 7.5 -154.5 22.5s-99.5 37.5 -147.5 67.5c-16 -17.333 -37 -32.166 -63 -44.499s-56.667 -22.833 -92 -31.5c-40.667 -8 -92 -14.167 -154 -18.5s-135.333 -6.5 -220 -6.5
c-84 0 -158.833 6.33301 -224.5 19s-122.5 32.334 -170.5 59.001c-85.333 46.667 -136.333 109.667 -153 189c-17.333 80 -3.33301 176.667 42 290c0 1.33301 3.66699 2 11 2c16.667 0 32.667 -10.333 48 -31c-12.667 -33.333 -20.5 -65.166 -23.5 -95.499
s-1.83301 -59.166 3.5 -86.499c26.667 -130.667 200.334 -196 521.001 -196c78.667 0 146.167 1.83301 202.5 5.5s102.5 9.5 138.5 17.5c-69.333 40.667 -112.333 100.667 -129 180c-15.333 72 -5.16602 135.5 30.501 190.5s93.167 97.5 172.5 127.5
c59.333 -38 106.833 -79.833 142.5 -125.5s59.167 -95.5 70.5 -149.5c18 -79.333 -4.33301 -150.333 -67 -213c28 -11.333 57.667 -19.666 89 -24.999s63.666 -8 96.999 -8h20c17.333 0 28 -9.66699 32 -29zM1173 362.995c-11.333 55.333 -51.668 102.333 -121.001 141
c-80.667 -16 -124 -71 -130 -165c11.333 -24 36 -51.667 74 -83c33.333 -28 62 -46.667 86 -56c18 6.66699 34 15.667 48 27s24.667 25 32 41c14.667 28 18.334 59.667 11.001 95zM884.997 1068l-114 93l74 98l117 -98zM1025 917.995l-115 95l74 98l117 -98z
M816.997 917.995l-116 95l74 98l117 -98zM955.997 770.995l-115 93l74 97l117 -97z" />
    <glyph glyph-name="uniFB70" unicode="&#x6a6;" horiz-adv-x="555" arabic-form="initial" 
d="M436 392c11.333 -52.667 17.5 -103.333 18.5 -152s-2.5 -95 -10.5 -139c-14 -12 -35.167 -23.667 -63.5 -35s-64.5 -22.333 -108.5 -33c-46 -11.333 -90.333 -19.666 -133 -24.999s-85.334 -8 -128.001 -8h-22c-16.667 0 -26.334 8 -29.001 24l-19 86
c-4 19.333 2.33301 29 19 29h20c46 0 90 1.83301 132 5.5s82.333 9.5 121 17.5c36 7.33301 65 14.666 87 21.999s38 15.333 48 24c6.66699 20.667 10.334 43.667 11.001 69s-2 54 -8 86c-33.333 -34 -89.333 -51 -168 -51c-66.667 0 -125.334 17 -176.001 51
c-15.333 42 -26.666 78.667 -33.999 110c-28 134.667 2 244.667 90 330c184.667 -40.667 302.334 -177.667 353.001 -411zM329 488.001c-8 36.667 -35.668 73 -83.001 109c-49.333 36.667 -100.333 55 -153 55c-33.333 -33.333 -41.666 -88 -24.999 -164
c29.333 -24.667 72.666 -37 129.999 -37c58.667 0 102.334 12.333 131.001 37zM-34.001 1288l-114 93l74 98l117 -98zM105.999 1138l-115 95l74 98l117 -98zM-102.001 1138l-116 95l74 98l117 -98zM36.999 991.001l-115 93l74 97l117 -97z" />
    <glyph glyph-name="uniFB71" unicode="&#x6a6;" horiz-adv-x="600" arabic-form="medial" 
d="M631 24c2.66699 -16 -4 -24.001 -20 -24.001h-20c-53.333 0 -105 7.5 -155 22.5s-99 37.5 -147 67.5c-30 -30 -68 -52.5 -114 -67.5s-101.333 -22.5 -166 -22.5h-20c-16.667 0 -26.334 8 -29.001 24l-19 86c-4 19.333 2.33301 29 19 29h20
c79.333 0 137.333 7.66699 174 23c-34.667 20.667 -62.167 45.834 -82.5 75.501s-34.833 64.5 -43.5 104.5c-15.333 72 -5.66602 135.5 29.001 190.5s92 97.5 172 127.5c120 -76.667 191 -168.334 213 -275.001c16.667 -80 -6 -151 -68 -213
c28 -11.333 57.833 -19.666 89.5 -24.999s64.167 -8 97.5 -8h20c16.667 0 27 -9.66699 31 -29zM359 362.999c-11.333 56 -52.6641 103 -123.997 141c-79.333 -16 -122.333 -71 -129 -165c5.33301 -12 14.166 -25 26.499 -39s28.166 -28.667 47.499 -44
c17.333 -14.667 33.166 -26.5 47.499 -35.5s26.833 -15.833 37.5 -20.5c39.333 13.333 67 36 83 68c14 29.333 17.667 61 11 95zM105.002 1127l-114 93l74 98l117 -98zM245.002 976.999l-115 95l74 98l117 -98zM37.002 976.999l-116 95l74 98l117 -98zM176.002 829.999
l-115 93l74 97l117 -97z" />
    <glyph glyph-name="uniFB73" unicode="&#x684;" horiz-adv-x="1011" arabic-form="final" 
d="M1055 -483c-129.333 -27.333 -243.998 -41.0029 -343.998 -41.0029c-149.333 0 -280.333 31.667 -393 95c-122 70 -195 163 -219 279c-26.667 122.667 2 235 86 337c36.667 44 80.834 83.333 132.501 118s110.5 64.667 176.5 90l-1 4
c-51.333 7.33301 -100 16.333 -146 27s-89 22.334 -129 35.001c-37.333 12.667 -65.333 19 -84 19c-22.667 0 -42.334 -38 -59.001 -114c-10.667 0 -20.834 1.33301 -30.501 4s-18.5 7.33398 -26.5 14.001l42 158c12.667 50.667 36.334 76 71.001 76
c1.33301 0 20.333 -4.83301 57 -14.5l163 -42.5c72 -19.333 132.667 -34 182 -44s88 -15 116 -15c37.333 0 75.166 2.83301 113.499 8.5s78.5 13.834 120.5 24.501l-31 -143c-54.667 0 -106.334 -5 -155.001 -15c18 -84 46.667 -143.667 86 -179
c21.333 -20 47.666 -34.833 78.999 -44.5s67.666 -14.5 108.999 -14.5h19c18 0 29 -9.66699 33 -29l19 -86c2.66699 -16 -4.66602 -24 -21.999 -24h-19c-192.667 0 -308 91.667 -346 275c-2 9.33301 -4.16699 21.833 -6.5 37.5s-4.83301 34.167 -7.5 55.5
c-63.333 -13.333 -121.166 -33.666 -173.499 -60.999s-99.5 -62.333 -141.5 -105c-88.667 -88 -122.667 -182.333 -102 -283c22 -98.667 87.333 -177.334 196 -236.001c104 -58 230.333 -87 379 -87c40.667 0 88.5 2.83301 143.5 8.5s117.167 14.167 186.5 25.5z
M687.002 31.9971l-74 -121l-133 110l76 119zM760.002 -210.003l-75 -119l-133 110l78 117z" />
    <glyph glyph-name="uniFB74" unicode="&#x684;" horiz-adv-x="898" arabic-form="initial" 
d="M757 175c-34 9.33301 -67.332 14.002 -99.999 14.002c-45.333 0 -123.333 -27 -234 -81c-146 -72 -284 -108 -414 -108h-20c-16.667 0 -26.334 8 -29.001 24l-19 86c-4 19.333 2.33301 29 19 29h20c46.667 0 97.667 4.5 153 13.5s115 22.833 179 41.5l193 64l-1 3
c-44.667 13.333 -125.667 58.666 -243 135.999c-103.333 68 -168 102 -194 102c-20 0 -42.333 -34.667 -67 -104c-15.333 2 -33 11 -53 27l53 153c15.333 42 40.333 63 75 63c15.333 0 48.833 -14.833 100.5 -44.5s121.5 -73.834 209.5 -132.501s160.333 -100 217 -124
c62 -25.333 130.667 -38 206 -38zM534.001 -231.998l-74 -121l-133 110l76 119zM607.001 -473.998l-75 -119l-133 110l78 117z" />
    <glyph glyph-name="uniFB75" unicode="&#x684;" horiz-adv-x="1101" arabic-form="medial" 
d="M1132 24c2.66699 -16 -3.99707 -24 -19.9971 -24c-228.667 0 -361 84.667 -397 254c-4 18 -7.5 34.5 -10.5 49.5s-4.5 29.167 -4.5 42.5c-11.333 -6.66699 -25.5 -16.834 -42.5 -30.501l-57 -47.5l-67.5 -58l-75 -62c-62 -50 -130.333 -87.167 -205 -111.5
s-159.667 -36.5 -255 -36.5h-9c-16.667 0 -26.334 8 -29.001 24l-19 86c-4 19.333 2.33301 29 19 29h9c76 0 147.5 8.66699 214.5 26s130.167 45.333 189.5 84l70.5 46.5l50 33.5c13.667 9.33301 25.334 16.833 35.001 22.5l25.5 14.5v4c-8 0 -17.833 0.833008 -29.5 2.5
s-26.167 4.66699 -43.5 9s-38.833 10.666 -64.5 18.999s-56.5 19.166 -92.5 32.499c-144 54 -221 81 -231 81c-22.667 0 -41.334 -40.667 -56.001 -122c-16.667 0 -35.667 7 -57 21l39 158c12 52.667 35.667 79 71 79c10 0 27.333 -3.83301 52 -11.5
s56.667 -19.167 96 -34.5l126.5 -51.5c33 -13 62.167 -22.833 87.5 -29.5c98 -32.667 184.667 -49 260 -49c30 0 64 2.83301 102 8.5s81.333 14.5 130 26.5l-32 -145c-37.333 -0.666992 -69 -2 -95 -4s-46.333 -5 -61 -9c6 -23.333 12.167 -43.166 18.5 -59.499
s13.166 -30.666 20.499 -42.999s15.166 -23.166 23.499 -32.499s17.833 -18.333 28.5 -27c43.333 -33.333 115 -50 215 -50h20c16.667 0 27 -9.66699 31 -29l19 -86v0zM735.003 -190l-74 -121l-133 110l76 119zM808.003 -432l-75 -119l-133 110l78 117z" />
    <glyph glyph-name="uniFB77" unicode="&#x683;" horiz-adv-x="1011" arabic-form="final" 
d="M1055 -483c-129.333 -27.333 -243.998 -41.0029 -343.998 -41.0029c-149.333 0 -280.333 31.667 -393 95c-122 70 -195 163 -219 279c-26.667 122.667 2 235 86 337c36.667 44 80.834 83.333 132.501 118s110.5 64.667 176.5 90l-1 4
c-51.333 7.33301 -100 16.333 -146 27s-89 22.334 -129 35.001c-37.333 12.667 -65.333 19 -84 19c-22.667 0 -42.334 -38 -59.001 -114c-10.667 0 -20.834 1.33301 -30.501 4s-18.5 7.33398 -26.5 14.001l42 158c12.667 50.667 36.334 76 71.001 76
c1.33301 0 20.333 -4.83301 57 -14.5l163 -42.5c72 -19.333 132.667 -34 182 -44s88 -15 116 -15c37.333 0 75.166 2.83301 113.499 8.5s78.5 13.834 120.5 24.501l-31 -143c-54.667 0 -106.334 -5 -155.001 -15c18 -84 46.667 -143.667 86 -179
c21.333 -20 47.666 -34.833 78.999 -44.5s67.666 -14.5 108.999 -14.5h19c18 0 29 -9.66699 33 -29l19 -86c2.66699 -16 -4.66602 -24 -21.999 -24h-19c-192.667 0 -308 91.667 -346 275c-2 9.33301 -4.16699 21.833 -6.5 37.5s-4.83301 34.167 -7.5 55.5
c-63.333 -13.333 -121.166 -33.666 -173.499 -60.999s-99.5 -62.333 -141.5 -105c-88.667 -88 -122.667 -182.333 -102 -283c22 -98.667 87.333 -177.334 196 -236.001c104 -58 230.333 -87 379 -87c40.667 0 88.5 2.83301 143.5 8.5s117.167 14.167 186.5 25.5z
M716.002 -200.003l-144 101l87 110l140 -103zM478.002 -220.003l-140 99l86 110l139 -103z" />
    <glyph glyph-name="uniFB78" unicode="&#x683;" horiz-adv-x="898" arabic-form="initial" 
d="M757 175c-34 9.33301 -67.332 14.002 -99.999 14.002c-45.333 0 -123.333 -27 -234 -81c-146 -72 -284 -108 -414 -108h-20c-16.667 0 -26.334 8 -29.001 24l-19 86c-4 19.333 2.33301 29 19 29h20c46.667 0 97.667 4.5 153 13.5s115 22.833 179 41.5l193 64l-1 3
c-44.667 13.333 -125.667 58.666 -243 135.999c-103.333 68 -168 102 -194 102c-20 0 -42.333 -34.667 -67 -104c-15.333 2 -33 11 -53 27l53 153c15.333 42 40.333 63 75 63c15.333 0 48.833 -14.833 100.5 -44.5s121.5 -73.834 209.5 -132.501s160.333 -100 217 -124
c62 -25.333 130.667 -38 206 -38zM599.001 -353.998l-144 101l87 110l140 -103zM361.001 -373.998l-140 99l86 110l139 -103z" />
    <glyph glyph-name="uniFB79" unicode="&#x683;" horiz-adv-x="1101" arabic-form="medial" 
d="M1132 24c2.66699 -16 -3.99707 -24 -19.9971 -24c-228.667 0 -361 84.667 -397 254c-4 18 -7.5 34.5 -10.5 49.5s-4.5 29.167 -4.5 42.5c-11.333 -6.66699 -25.5 -16.834 -42.5 -30.501l-57 -47.5l-67.5 -58l-75 -62c-62 -50 -130.333 -87.167 -205 -111.5
s-159.667 -36.5 -255 -36.5h-9c-16.667 0 -26.334 8 -29.001 24l-19 86c-4 19.333 2.33301 29 19 29h9c76 0 147.5 8.66699 214.5 26s130.167 45.333 189.5 84l70.5 46.5l50 33.5c13.667 9.33301 25.334 16.833 35.001 22.5l25.5 14.5v4c-8 0 -17.833 0.833008 -29.5 2.5
s-26.167 4.66699 -43.5 9s-38.833 10.666 -64.5 18.999s-56.5 19.166 -92.5 32.499c-144 54 -221 81 -231 81c-22.667 0 -41.334 -40.667 -56.001 -122c-16.667 0 -35.667 7 -57 21l39 158c12 52.667 35.667 79 71 79c10 0 27.333 -3.83301 52 -11.5
s56.667 -19.167 96 -34.5l126.5 -51.5c33 -13 62.167 -22.833 87.5 -29.5c98 -32.667 184.667 -49 260 -49c30 0 64 2.83301 102 8.5s81.333 14.5 130 26.5l-32 -145c-37.333 -0.666992 -69 -2 -95 -4s-46.333 -5 -61 -9c6 -23.333 12.167 -43.166 18.5 -59.499
s13.166 -30.666 20.499 -42.999s15.166 -23.166 23.499 -32.499s17.833 -18.333 28.5 -27c43.333 -33.333 115 -50 215 -50h20c16.667 0 27 -9.66699 31 -29l19 -86v0zM736.003 -357l-144 101l87 110l140 -103zM498.003 -377l-140 99l86 110l139 -103z" />
    <glyph glyph-name="afii62961" unicode="&#x686;" horiz-adv-x="1011" arabic-form="final" 
d="M1055 -483c-129.333 -27.333 -243.998 -41.0029 -343.998 -41.0029c-149.333 0 -280.333 31.667 -393 95c-122 70 -195 163 -219 279c-26.667 122.667 2 235 86 337c36.667 44 80.834 83.333 132.501 118s110.5 64.667 176.5 90l-1 4
c-51.333 7.33301 -100 16.333 -146 27s-89 22.334 -129 35.001c-37.333 12.667 -65.333 19 -84 19c-22.667 0 -42.334 -38 -59.001 -114c-10.667 0 -20.834 1.33301 -30.501 4s-18.5 7.33398 -26.5 14.001l42 158c12.667 50.667 36.334 76 71.001 76
c1.33301 0 20.333 -4.83301 57 -14.5l163 -42.5c72 -19.333 132.667 -34 182 -44s88 -15 116 -15c37.333 0 75.166 2.83301 113.499 8.5s78.5 13.834 120.5 24.501l-31 -143c-54.667 0 -106.334 -5 -155.001 -15c18 -84 46.667 -143.667 86 -179
c21.333 -20 47.666 -34.833 78.999 -44.5s67.666 -14.5 108.999 -14.5h19c18 0 29 -9.66699 33 -29l19 -86c2.66699 -16 -4.66602 -24 -21.999 -24h-19c-192.667 0 -308 91.667 -346 275c-2 9.33301 -4.16699 21.833 -6.5 37.5s-4.83301 34.167 -7.5 55.5
c-63.333 -13.333 -121.166 -33.666 -173.499 -60.999s-99.5 -62.333 -141.5 -105c-88.667 -88 -122.667 -182.333 -102 -283c22 -98.667 87.333 -177.334 196 -236.001c104 -58 230.333 -87 379 -87c40.667 0 88.5 2.83301 143.5 8.5s117.167 14.167 186.5 25.5z
M583.002 -287.003l-116 96l76 95l115 -95zM655.002 -92.0029l-116 96l76 95l115 -95zM428.002 -92.0029l-116 96l76 95l115 -95z" />
    </font>
</defs>
</svg>
