<?xml version="1.0" standalone="no"?>
<!DOCTYPE svg PUBLIC "-//W3C//DTD SVG 1.1//EN" "http://www.w3.org/Graphics/SVG/1.1/DTD/svg11.dtd" >
<svg>
<metadata>
Created by FontForge 20090914 at Wed Aug 26 07:44:36 2015
 By www-data
Typeface &#194;&#169; The scict.ir Corporation plc. Data &#194;&#169; The scict.ir Corporation plc/Type Solutions Inc. 2012-2013. All Rights Reserved.Modify  by Hossein Zahedi.
</metadata>
<defs>
<font id="IRNazanin-Bold" horiz-adv-x="0" >
  <font-face 
    font-family="IRNazanin"
    font-weight="700"
    font-stretch="normal"
    units-per-em="2048"
    panose-1="2 0 8 6 0 0 0 2 0 2"
    ascent="1638"
    descent="-410"
    x-height="793.999"
    cap-height="1151"
    bbox="-431 -1166 2445 1872"
    underline-thickness="60"
    underline-position="-650"
    unicode-range="U+0020-U+FFFC"
  />
<missing-glyph horiz-adv-x="496" 
 />
    <glyph glyph-name="afii64184" unicode="&#xfedf;&#xfee0;&#x651;&#x670;&#xfeea;" horiz-adv-x="1628" arabic-form="isolated" 
d="M1567 297c0 -98 -25.335 -171.999 -76.002 -221.999c-50 -50 -119 -75 -207 -75c-125.333 0 -214.666 41.667 -267.999 125c-46.667 -83.333 -126.334 -125 -239.001 -125c-116.667 0 -194.334 75.333 -233.001 226h-3l-62 -84c-17.333 -26 -37.666 -39 -60.999 -39
c-30 0 -60.5 2.16699 -91.5 6.5s-64.5 10.5 -100.5 18.5c-87.333 20.667 -131 45 -131 73c0 115.333 42.333 204.333 127 267c24 17.333 54.667 37.166 92 59.499s82 47.166 134 74.499l-14 91l144 140l69 -479c10.667 -83.333 63.334 -125 158.001 -125
c115.333 0 173 36.667 173 110v11.5c0 3.66699 -0.666992 7.83398 -2 12.501l-74 466l126 137l94 -632c9.33301 -70 61.666 -105 156.999 -105c26.667 0 49.334 0.833008 68.001 2.5s32.667 3.83398 42 6.50098c35.333 13.333 53 41.333 53 84
c0 9.33301 -0.333008 21.666 -1 36.999s-2.66699 33.666 -6 54.999l-78 539l147 124c1.33301 -9.33301 4.83301 -47 10.5 -113s14.834 -161.333 27.501 -286c8 -89.333 14.167 -165.666 18.5 -228.999s6.5 -114 6.5 -152zM478.998 490.001
c-27.333 -9.33301 -53.5 -19.501 -78.5 -30.501s-49.833 -23.833 -74.5 -38.5c-59.333 -32 -89 -55.667 -89 -71c0 -9.33301 17.667 -20.333 53 -33c16 -4.66699 32 -8.66699 48 -12s32 -5.66602 48 -6.99902c26 -2.66699 50.5 -4.66699 73.5 -6s44.167 -2 63.5 -2z
M1097 1198c-1.33301 -31.333 -12.334 -60.3311 -33.001 -86.998c-22 -30 -48 -45 -78 -45c-8.66699 0 -16.5 0.833008 -23.5 2.5s-14.167 4.16699 -21.5 7.5c-31.333 -47.333 -66.666 -71 -105.999 -71c-49.333 0 -74 27.667 -74 83c0 19.333 2.16699 37.166 6.5 53.499
s10.5 31.833 18.5 46.5c14.667 20.667 33 29 55 25c-10.667 -25.333 -16 -47.333 -16 -66c0 -26.667 9 -40 27 -40c14 0 27.167 12 39.5 36s24.5 59.667 36.5 107l39 25c-7.33301 -64 5.66699 -96 39 -96c26.667 0 40 10 40 30c0 44 1 70.667 3 80
c3.33301 9.33301 9.33301 17.666 18 24.999s20.667 15.333 36 24zM963.997 1431c0 -86 -23.668 -129.998 -71.001 -131.998c1.33301 7.33301 2.5 15.666 3.5 24.999s1.5 19.666 1.5 30.999c0 62.667 -16 129.667 -48 201l69 91c14.667 -46 25.834 -87 33.501 -123
s11.5 -67 11.5 -93z" />
    <glyph glyph-name="afii62834" unicode="&#xfedf;&#xfe82;" horiz-adv-x="1134" arabic-form="isolated" 
d="M1085 989c0 -2 -0.666992 -3.00195 -2 -3.00195c-3.33301 -1.33301 -10.5 -1 -21.5 1s-26.167 6.66699 -45.5 14c-10 -272.667 -79 -482.667 -207 -630c23.333 -43.333 41 -81.166 53 -113.499s18 -59.5 18 -81.5c0 -56 -15.667 -104.667 -47 -146
c-37.333 -50 -92.666 -76 -165.999 -78l-350 -8l71 239l110 77.5l153 102.5l-383 405l-33 -78l-50 80c-74.667 118.667 -112 183.334 -112 194.001c0 49.333 20.333 121.666 61 216.999c133.333 -139.333 250.5 -267.333 351.5 -384s186.833 -222.667 257.5 -318
c58.667 70.667 88 168.334 88 293.001c0 53.333 -2.66699 109.166 -8 167.499s-13 119.833 -23 184.5c114.667 106.667 174 160 178 160c6.66699 0 22.667 -35 48 -105c13.333 -34 24.666 -64.5 33.999 -91.5s16.333 -50.833 21 -71.5c1.33301 -4 2.33301 -8.16699 3 -12.5
s1 -9.16602 1 -14.499zM775 178.998c0 18 -22.333 50.333 -67 97c-21.333 -19.333 -46 -39.5 -74 -60.5s-60.333 -43.167 -97 -66.5v-5l105 -2c88.667 -2 133 10.333 133 37zM423 1518c-10.667 -61.333 -45.3311 -108.333 -103.998 -141
c-18.667 -10.667 -43.834 -18.334 -75.501 -23.001s-69.834 -7 -114.501 -7c-66.667 0 -110 -26.333 -130 -79c-24.667 8.66699 -37 32.334 -37 71.001c0 28.667 9.66699 55 29 79c25.333 30 59.333 44 102 42l100 -3c30 -1.33301 56.167 -0.333008 78.5 3
s41.833 9.33301 58.5 18s31 19.667 43 33s22.667 29.333 32 48l18 -41v0z" />
    <glyph glyph-name="afii62835" unicode="&#xfee0;&#xfe82;" horiz-adv-x="1259" arabic-form="final" 
d="M1307 35c0 -23.333 -13.667 -34.998 -41 -34.998h-23c-183.333 0 -279.333 90 -288 270l-14 235h-6c-48.667 -132.667 -102.667 -251.334 -162 -356.001c-20 -34.667 -37.5 -63.334 -52.5 -86.001s-27.833 -39.334 -38.5 -50.001
c-8.66699 -7.33301 -17.667 -13.666 -27 -18.999s-19.666 -9.33301 -30.999 -12c-20 -6.66699 -90 -13.667 -210 -21c-53.333 -4.66699 -96.333 -8 -129 -10s-55 -3 -67 -3c-40.667 0 -61 5 -61 15c0 11.333 36.667 32 110 62c70 28.667 140 66.5 210 113.5
s140.333 103.833 211 170.5c-16 64.667 -56.833 136.167 -122.5 214.5s-155.834 164.166 -270.501 257.499l-21 -75c-86 80 -142 138 -168 174c-18.667 23.333 -28 46.666 -28 69.999c0 33.333 2.83301 68.333 8.5 105s14.167 75 25.5 115l277 -227
c110 -87.333 192 -171 246 -251c56 -81.333 98 -179.666 126 -294.999c52 64.667 91 136.834 117 216.501s38.333 167.167 37 262.5l-1 266c49.333 48 87.333 83.667 114 107s42 35 46 35c4.66699 0 7 -5 7 -15l22 -911c2 -72.667 53 -109 153 -109h10
c27.333 0 41 -11.333 41 -34v-180v0zM446 1541c-10.667 -61.333 -45.3311 -108.333 -103.998 -141c-18.667 -10.667 -43.834 -18.334 -75.501 -23.001s-69.834 -7 -114.501 -7c-66.667 0 -110 -26.333 -130 -79c-24.667 8.66699 -37 32.334 -37 71.001
c0 28.667 9.66699 55 29 79c25.333 30 59.333 44 102 42l100 -3c30 -1.33301 56.167 -0.333008 78.5 3s41.833 9.33301 58.5 18s31 19.667 43 33s22.667 29.333 32 48l18 -41v0z" />
    <glyph glyph-name="afii62836" unicode="&#xfedf;&#xfe84;" horiz-adv-x="1134" arabic-form="isolated" 
d="M1085 989c0 -2 -0.666992 -3.00195 -2 -3.00195c-3.33301 -1.33301 -10.5 -1 -21.5 1s-26.167 6.66699 -45.5 14c-10 -272.667 -79 -482.667 -207 -630c23.333 -43.333 41 -81.166 53 -113.499s18 -59.5 18 -81.5c0 -56 -15.667 -104.667 -47 -146
c-37.333 -50 -92.666 -76 -165.999 -78l-350 -8l71 239l110 77.5l153 102.5l-383 405l-33 -78l-50 80c-74.667 118.667 -112 183.334 -112 194.001c0 49.333 20.333 121.666 61 216.999c133.333 -139.333 250.5 -267.333 351.5 -384s186.833 -222.667 257.5 -318
c58.667 70.667 88 168.334 88 293.001c0 53.333 -2.66699 109.166 -8 167.499s-13 119.833 -23 184.5c114.667 106.667 174 160 178 160c6.66699 0 22.667 -35 48 -105c13.333 -34 24.666 -64.5 33.999 -91.5s16.333 -50.833 21 -71.5c1.33301 -4 2.33301 -8.16699 3 -12.5
s1 -9.16602 1 -14.499zM775 178.998c0 18 -22.333 50.333 -67 97c-21.333 -19.333 -46 -39.5 -74 -60.5s-60.333 -43.167 -97 -66.5v-5l105 -2c88.667 -2 133 10.333 133 37zM365 1388c-29.333 -2.66699 -66.3311 -10.3359 -110.998 -23.0029
c-94 -26.667 -156.667 -62.334 -188 -107.001c-2.66699 6.66699 -4.83398 13.334 -6.50098 20.001s-2.5 14.334 -2.5 23.001c0 38 23 69.667 69 95c-38.667 24 -58 55.667 -58 95c0 40 20.667 79.667 62 119c42 40 84 60 126 60c60.667 0 91 -24 91 -72
c0 -22 -6 -39 -18 -51c-19.333 20 -48.333 30 -87 30c-70 0 -105 -18 -105 -54c0 -8 3 -16.167 9 -24.5s13.667 -15.666 23 -21.999s19.666 -11.666 30.999 -15.999s22.333 -6.5 33 -6.5c28 0 55.333 3.16699 82 9.5s53.667 16.833 81 31.5z" />
    <glyph glyph-name="afii62837" unicode="&#xfee0;&#xfe84;" horiz-adv-x="1259" arabic-form="final" 
d="M1307 35c0 -23.333 -13.667 -34.998 -41 -34.998h-23c-183.333 0 -279.333 90 -288 270l-14 235h-6c-48.667 -132.667 -102.667 -251.334 -162 -356.001c-20 -34.667 -37.5 -63.334 -52.5 -86.001s-27.833 -39.334 -38.5 -50.001
c-8.66699 -7.33301 -17.667 -13.666 -27 -18.999s-19.666 -9.33301 -30.999 -12c-20 -6.66699 -90 -13.667 -210 -21c-53.333 -4.66699 -96.333 -8 -129 -10s-55 -3 -67 -3c-40.667 0 -61 5 -61 15c0 11.333 36.667 32 110 62c70 28.667 140 66.5 210 113.5
s140.333 103.833 211 170.5c-16 64.667 -56.833 136.167 -122.5 214.5s-155.834 164.166 -270.501 257.499l-21 -75c-86 80 -142 138 -168 174c-18.667 23.333 -28 46.666 -28 69.999c0 33.333 2.83301 68.333 8.5 105s14.167 75 25.5 115l277 -227
c110 -87.333 192 -171 246 -251c56 -81.333 98 -179.666 126 -294.999c52 64.667 91 136.834 117 216.501s38.333 167.167 37 262.5l-1 266c49.333 48 87.333 83.667 114 107s42 35 46 35c4.66699 0 7 -5 7 -15l22 -911c2 -72.667 53 -109 153 -109h10
c27.333 0 41 -11.333 41 -34v-180v0zM299 1343c-29.333 -2.66699 -66.3311 -10.3359 -110.998 -23.0029c-94 -26.667 -156.667 -62.334 -188 -107.001c-2.66699 6.66699 -4.83398 13.334 -6.50098 20.001s-2.5 14.334 -2.5 23.001c0 38 23 69.667 69 95
c-38.667 24 -58 55.667 -58 95c0 40 20.667 79.667 62 119c42 40 84 60 126 60c60.667 0 91 -24 91 -72c0 -22 -6 -39 -18 -51c-19.333 20 -48.333 30 -87 30c-70 0 -105 -18 -105 -54c0 -8 3 -16.167 9 -24.5s13.667 -15.666 23 -21.999s19.666 -11.666 30.999 -15.999
s22.333 -6.5 33 -6.5c28 0 55.333 3.16699 82 9.5s53.667 16.833 81 31.5z" />
    <glyph glyph-name="afii62838" unicode="&#xfedf;&#xfe88;" horiz-adv-x="1134" arabic-form="isolated" 
d="M1085 989c0 -2 -0.666992 -3.00195 -2 -3.00195c-3.33301 -1.33301 -10.5 -1 -21.5 1s-26.167 6.66699 -45.5 14c-10 -272.667 -79 -482.667 -207 -630c23.333 -43.333 41 -81.166 53 -113.499s18 -59.5 18 -81.5c0 -56 -15.667 -104.667 -47 -146
c-37.333 -50 -92.666 -76 -165.999 -78l-350 -8l71 239l110 77.5l153 102.5l-383 405l-33 -78l-50 80c-74.667 118.667 -112 183.334 -112 194.001c0 49.333 20.333 121.666 61 216.999c133.333 -139.333 250.5 -267.333 351.5 -384s186.833 -222.667 257.5 -318
c58.667 70.667 88 168.334 88 293.001c0 53.333 -2.66699 109.166 -8 167.499s-13 119.833 -23 184.5c114.667 106.667 174 160 178 160c6.66699 0 22.667 -35 48 -105c13.333 -34 24.666 -64.5 33.999 -91.5s16.333 -50.833 21 -71.5c1.33301 -4 2.33301 -8.16699 3 -12.5
s1 -9.16602 1 -14.499zM775 178.998c0 18 -22.333 50.333 -67 97c-21.333 -19.333 -46 -39.5 -74 -60.5s-60.333 -43.167 -97 -66.5v-5l105 -2c88.667 -2 133 10.333 133 37zM577 -443.002c-29.333 -2.66699 -66.3311 -10.3359 -110.998 -23.0029
c-94 -26.667 -156.667 -62.334 -188 -107.001c-2.66699 6.66699 -4.83398 13.334 -6.50098 20.001s-2.5 14.334 -2.5 23.001c0 38 23 69.667 69 95c-38.667 24 -58 55.667 -58 95c0 40 20.667 79.667 62 119c42 40 84 60 126 60c60.667 0 91 -24 91 -72
c0 -22 -6 -39 -18 -51c-19.333 20 -48.333 30 -87 30c-70 0 -105 -18 -105 -54c0 -8 3 -16.167 9 -24.5s13.667 -15.666 23 -21.999s19.666 -11.666 30.999 -15.999s22.333 -6.5 33 -6.5c28 0 55.333 3.16699 82 9.5s53.667 16.833 81 31.5z" />
    <glyph glyph-name="afii62839" unicode="&#xfee0;&#xfe88;" horiz-adv-x="1259" arabic-form="final" 
d="M1307 35c0 -23.333 -13.667 -34.998 -41 -34.998h-23c-183.333 0 -279.333 90 -288 270l-14 235h-6c-48.667 -132.667 -102.667 -251.334 -162 -356.001c-20 -34.667 -37.5 -63.334 -52.5 -86.001s-27.833 -39.334 -38.5 -50.001
c-8.66699 -7.33301 -17.667 -13.666 -27 -18.999s-19.666 -9.33301 -30.999 -12c-20 -6.66699 -90 -13.667 -210 -21c-53.333 -4.66699 -96.333 -8 -129 -10s-55 -3 -67 -3c-40.667 0 -61 5 -61 15c0 11.333 36.667 32 110 62c70 28.667 140 66.5 210 113.5
s140.333 103.833 211 170.5c-16 64.667 -56.833 136.167 -122.5 214.5s-155.834 164.166 -270.501 257.499l-21 -75c-86 80 -142 138 -168 174c-18.667 23.333 -28 46.666 -28 69.999c0 33.333 2.83301 68.333 8.5 105s14.167 75 25.5 115l277 -227
c110 -87.333 192 -171 246 -251c56 -81.333 98 -179.666 126 -294.999c52 64.667 91 136.834 117 216.501s38.333 167.167 37 262.5l-1 266c49.333 48 87.333 83.667 114 107s42 35 46 35c4.66699 0 7 -5 7 -15l22 -911c2 -72.667 53 -109 153 -109h10
c27.333 0 41 -11.333 41 -34v-180v0zM536 -435.998c-29.333 -2.66699 -66.3311 -10.3359 -110.998 -23.0029c-94 -26.667 -156.667 -62.334 -188 -107.001c-2.66699 6.66699 -4.83398 13.334 -6.50098 20.001s-2.5 14.334 -2.5 23.001c0 38 23 69.667 69 95
c-38.667 24 -58 55.667 -58 95c0 40 20.667 79.667 62 119c42 40 84 60 126 60c60.667 0 91 -24 91 -72c0 -22 -6 -39 -18 -51c-19.333 20 -48.333 30 -87 30c-70 0 -105 -18 -105 -54c0 -8 3 -16.167 9 -24.5s13.667 -15.666 23 -21.999s19.666 -11.666 30.999 -15.999
s22.333 -6.5 33 -6.5c28 0 55.333 3.16699 82 9.5s53.667 16.833 81 31.5z" />
    <glyph glyph-name="afii62840" unicode="&#xfedf;&#xfe8e;" horiz-adv-x="1134" arabic-form="isolated" 
d="M1085 989c0 -2 -0.666992 -3.00195 -2 -3.00195c-3.33301 -1.33301 -10.5 -1 -21.5 1s-26.167 6.66699 -45.5 14c-10 -272.667 -79 -482.667 -207 -630c23.333 -43.333 41 -81.166 53 -113.499s18 -59.5 18 -81.5c0 -56 -15.667 -104.667 -47 -146
c-37.333 -50 -92.666 -76 -165.999 -78l-350 -8l71 239l110 77.5l153 102.5l-383 405l-33 -78l-50 80c-74.667 118.667 -112 183.334 -112 194.001c0 49.333 20.333 121.666 61 216.999c133.333 -139.333 250.5 -267.333 351.5 -384s186.833 -222.667 257.5 -318
c58.667 70.667 88 168.334 88 293.001c0 53.333 -2.66699 109.166 -8 167.499s-13 119.833 -23 184.5c114.667 106.667 174 160 178 160c6.66699 0 22.667 -35 48 -105c13.333 -34 24.666 -64.5 33.999 -91.5s16.333 -50.833 21 -71.5c1.33301 -4 2.33301 -8.16699 3 -12.5
s1 -9.16602 1 -14.499zM775 178.998c0 18 -22.333 50.333 -67 97c-21.333 -19.333 -46 -39.5 -74 -60.5s-60.333 -43.167 -97 -66.5v-5l105 -2c88.667 -2 133 10.333 133 37z" />
    <glyph glyph-name="afii62841" unicode="&#xfee0;&#xfe8e;" horiz-adv-x="1259" arabic-form="final" 
d="M1307 35c0 -23.333 -13.667 -34.998 -41 -34.998h-23c-183.333 0 -279.333 90 -288 270l-14 235h-6c-48.667 -132.667 -102.667 -251.334 -162 -356.001c-20 -34.667 -37.5 -63.334 -52.5 -86.001s-27.833 -39.334 -38.5 -50.001
c-8.66699 -7.33301 -17.667 -13.666 -27 -18.999s-19.666 -9.33301 -30.999 -12c-20 -6.66699 -90 -13.667 -210 -21c-53.333 -4.66699 -96.333 -8 -129 -10s-55 -3 -67 -3c-40.667 0 -61 5 -61 15c0 11.333 36.667 32 110 62c70 28.667 140 66.5 210 113.5
s140.333 103.833 211 170.5c-16 64.667 -56.833 136.167 -122.5 214.5s-155.834 164.166 -270.501 257.499l-21 -75c-86 80 -142 138 -168 174c-18.667 23.333 -28 46.666 -28 69.999c0 33.333 2.83301 68.333 8.5 105s14.167 75 25.5 115l277 -227
c110 -87.333 192 -171 246 -251c56 -81.333 98 -179.666 126 -294.999c52 64.667 91 136.834 117 216.501s38.333 167.167 37 262.5l-1 266c49.333 48 87.333 83.667 114 107s42 35 46 35c4.66699 0 7 -5 7 -15l22 -911c2 -72.667 53 -109 153 -109h10
c27.333 0 41 -11.333 41 -34v-180v0z" />
    <glyph glyph-name="uni0672.fina" unicode="&#x672;" horiz-adv-x="470" 
d="M518 35c0 -23.333 -11.999 -34.999 -35.999 -34.999h-59c-44 0 -83.333 7 -118 21s-64.667 35.667 -90 65c-40 47.333 -60 97.666 -60 150.999c0 44 -1.5 100.5 -4.5 169.5s-7.16699 150.833 -12.5 245.5c-7.33301 107.333 -14.833 199.666 -22.5 276.999
s-15.834 141 -24.501 191l49 47c80 78 124 117 132 117c7.33301 0 13.333 -67.667 18 -203l21 -699c1.33301 -25.333 4.83301 -46.666 10.5 -63.999s14.834 -31.333 27.501 -42c21.333 -18 56.666 -27 105.999 -27c42 0 63 -11.333 63 -34v-180v0zM228.001 1487
c2 0.666992 -2.49902 6.49805 -13.499 17.498s-22.5 18.833 -34.5 23.5c-8.66699 2 -21.334 -1.33301 -38.001 -10s-27.334 -21.667 -32.001 -39c4.66699 -18.667 13.834 -32 27.501 -40s30.167 -13 49.5 -15s39.166 -1.33301 59.499 2s38.5 7 54.5 11
c7.33301 2 9.16602 -1.66699 5.49902 -11s-9.5 -21.666 -17.5 -36.999c-31.333 -22.667 -81.666 -36.5 -150.999 -41.5s-110 -21.833 -122 -50.5c-6.66699 -2 -9.5 2 -8.5 12s2.83301 18 5.5 24c10 23.333 32 37 66 41s58.333 9.33301 73 16
c-15.333 0.666992 -33.166 6.33398 -53.499 17.001s-28.5 30.667 -24.5 60c0.666992 23.333 7.16699 44.333 19.5 63s27.333 33 45 43s37.5 13.667 59.5 11s43.333 -13.667 64 -33c6 -9.33301 5.5 -19.333 -1.5 -30s-17.833 -22 -32.5 -34z" />
    <glyph glyph-name="uni0673.fina" unicode="&#x673;" horiz-adv-x="470" 
d="M518 35c0 -23.333 -11.999 -34.999 -35.999 -34.999h-59c-44 0 -83.333 7 -118 21s-64.667 35.667 -90 65c-40 47.333 -60 97.666 -60 150.999c0 44 -1.5 100.5 -4.5 169.5s-7.16699 150.833 -12.5 245.5c-7.33301 107.333 -14.833 199.666 -22.5 276.999
s-15.834 141 -24.501 191l49 47c80 78 124 117 132 117c7.33301 0 13.333 -67.667 18 -203l21 -699c1.33301 -25.333 4.83301 -46.666 10.5 -63.999s14.834 -31.333 27.501 -42c21.333 -18 56.666 -27 105.999 -27c42 0 63 -11.333 63 -34v-180v0zM327.001 -261.999
c2 0.666992 -2.49902 6.49805 -13.499 17.498s-22.5 18.833 -34.5 23.5c-8.66699 2 -21.334 -1.33301 -38.001 -10s-27.334 -21.667 -32.001 -39c4.66699 -18.667 13.834 -32 27.501 -40s30.167 -13 49.5 -15s39.166 -1.33301 59.499 2s38.5 7 54.5 11
c7.33301 2 9.16602 -1.66699 5.49902 -11s-9.5 -21.666 -17.5 -36.999c-31.333 -22.667 -81.666 -36.5 -150.999 -41.5s-110 -21.833 -122 -50.5c-6.66699 -2 -9.5 2 -8.5 12s2.83301 18 5.5 24c10 23.333 32 37 66 41s58.333 9.33301 73 16
c-15.333 0.666992 -33.166 6.33398 -53.499 17.001s-28.5 30.667 -24.5 60c0.666992 23.333 7.16699 44.333 19.5 63s27.333 33 45 43s37.5 13.667 59.5 11s43.333 -13.667 64 -33c6 -9.33301 5.5 -19.333 -1.5 -30s-17.833 -22 -32.5 -34z" />
    <glyph glyph-name="uni0675.fina" unicode="&#x675;" horiz-adv-x="470" 
d="M518 35c0 -23.333 -11.999 -34.999 -35.999 -34.999h-59c-44 0 -83.333 7 -118 21s-64.667 35.667 -90 65c-40 47.333 -60 97.666 -60 150.999c0 44 -1.5 100.5 -4.5 169.5s-7.16699 150.833 -12.5 245.5c-7.33301 107.333 -14.833 199.666 -22.5 276.999
s-15.834 141 -24.501 191l49 47c80 78 124 117 132 117c7.33301 0 13.333 -67.667 18 -203l21 -699c1.33301 -25.333 4.83301 -46.666 10.5 -63.999s14.834 -31.333 27.501 -42c21.333 -18 56.666 -27 105.999 -27c42 0 63 -11.333 63 -34v-180v0zM317.001 1436
c-29.333 -2.66699 -66.3311 -10.3359 -110.998 -23.0029c-94 -26.667 -156.667 -62.334 -188 -107.001c-2.66699 6.66699 -4.83398 13.334 -6.50098 20.001s-2.5 14.334 -2.5 23.001c0 38 23 69.667 69 95c-38.667 24 -58 55.667 -58 95c0 40 20.667 79.667 62 119
c42 40 84 60 126 60c60.667 0 91 -24 91 -72c0 -22 -6 -39 -18 -51c-19.333 20 -48.333 30 -87 30c-70 0 -105 -18 -105 -54c0 -8 3 -16.167 9 -24.5s13.667 -15.666 23 -21.999s19.666 -11.666 30.999 -15.999s22.333 -6.5 33 -6.5c28 0 55.333 3.16699 82 9.5
s53.667 16.833 81 31.5z" />
    <glyph glyph-name="uni0676.fina" unicode="&#x676;" horiz-adv-x="831" 
d="M878 35c0 -23.333 -13.6689 -35.0029 -41.002 -35.0029h-161c-5.33301 -117.333 -26.666 -216.666 -63.999 -297.999c-15.333 -32.667 -34.166 -64.5 -56.499 -95.5s-49.166 -62.167 -80.499 -93.5c-27.333 -27.333 -53.333 -41 -78 -41c-19.333 0 -49.833 2 -91.5 6
s-94.834 9.66699 -159.501 17c-97.333 10.667 -146 22.334 -146 35.001s22.333 27 67 43c66.667 25.333 129.5 55.5 188.5 90.5s114.833 74.833 167.5 119.5c94.667 82.667 142 146.334 142 191.001c0 5.33301 -0.833008 11 -2.5 17s-4.16699 12.667 -7.5 20
c-35.333 -7.33301 -88.666 -11 -159.999 -11c-168.667 -0 -253 53.333 -253 160c0 33.333 4.66699 70.333 14 111s23.666 85 42.999 133c52 133.333 118.667 200 200 200c78.667 0 142.667 -36 192 -108c21.333 -33.333 38.5 -70.333 51.5 -111s21.167 -86 24.5 -136h170
c27.333 0 41 -11.333 41 -34v-180zM525.998 239.997c-28 99.333 -84.667 149 -170 149c-26 0 -48 -9.33301 -66 -28c-14.667 -16.667 -22 -33.334 -22 -50.001c0 -53.333 47 -80 141 -80c20.667 0 40.667 0.833008 60 2.5s38.333 3.83398 57 6.50098zM536.998 846.997
c-29.333 -2.66699 -66.3311 -10.3359 -110.998 -23.0029c-94 -26.667 -156.667 -62.334 -188 -107.001c-2.66699 6.66699 -4.83398 13.334 -6.50098 20.001s-2.5 14.334 -2.5 23.001c0 38 23 69.667 69 95c-38.667 24 -58 55.667 -58 95c0 40 20.667 79.667 62 119
c42 40 84 60 126 60c60.667 0 91 -24 91 -72c0 -22 -6 -39 -18 -51c-19.333 20 -48.333 30 -87 30c-70 0 -105 -18 -105 -54c0 -8 3 -16.167 9 -24.5s13.667 -15.666 23 -21.999s19.666 -11.666 30.999 -15.999s22.333 -6.5 33 -6.5c28 0 55.333 3.16699 82 9.5
s53.667 16.833 81 31.5z" />
    <glyph glyph-name="uni0677.fina" unicode="&#x677;" horiz-adv-x="831" 
d="M878 35c0 -23.333 -13.6689 -35.0029 -41.002 -35.0029h-161c-5.33301 -117.333 -26.666 -216.666 -63.999 -297.999c-15.333 -32.667 -34.166 -64.5 -56.499 -95.5s-49.166 -62.167 -80.499 -93.5c-27.333 -27.333 -53.333 -41 -78 -41c-19.333 0 -49.833 2 -91.5 6
s-94.834 9.66699 -159.501 17c-97.333 10.667 -146 22.334 -146 35.001s22.333 27 67 43c66.667 25.333 129.5 55.5 188.5 90.5s114.833 74.833 167.5 119.5c94.667 82.667 142 146.334 142 191.001c0 5.33301 -0.833008 11 -2.5 17s-4.16699 12.667 -7.5 20
c-35.333 -7.33301 -88.666 -11 -159.999 -11c-168.667 -0 -253 53.333 -253 160c0 33.333 4.66699 70.333 14 111s23.666 85 42.999 133c52 133.333 118.667 200 200 200c78.667 0 142.667 -36 192 -108c21.333 -33.333 38.5 -70.333 51.5 -111s21.167 -86 24.5 -136h170
c27.333 0 41 -11.333 41 -34v-180zM525.998 239.997c-28 99.333 -84.667 149 -170 149c-26 0 -48 -9.33301 -66 -28c-14.667 -16.667 -22 -33.334 -22 -50.001c0 -53.333 47 -80 141 -80c20.667 0 40.667 0.833008 60 2.5s38.333 3.83398 57 6.50098zM765.998 882.997
c-29.333 -2.66699 -66.3311 -10.3359 -110.998 -23.0029c-94 -26.667 -156.667 -62.334 -188 -107.001c-2.66699 6.66699 -4.83398 13.334 -6.50098 20.001s-2.5 14.334 -2.5 23.001c0 38 23 69.667 69 95c-38.667 24 -58 55.667 -58 95c0 40 20.667 79.667 62 119
c42 40 84 60 126 60c60.667 0 91 -24 91 -72c0 -22 -6 -39 -18 -51c-19.333 20 -48.333 30 -87 30c-70 0 -105 -18 -105 -54c0 -8 3 -16.167 9 -24.5s13.667 -15.666 23 -21.999s19.666 -11.666 30.999 -15.999s22.333 -6.5 33 -6.5c28 0 55.333 3.16699 82 9.5
s53.667 16.833 81 31.5zM415 888.995c-6.66699 -10 -15.5 -21.4971 -26.5 -34.4971l-36.5 -43.5l-60 25c-53.333 -67.333 -131 -101 -233 -101c-36.667 0 -59.667 11 -69 33c36 7.33301 79.667 21 131 41c30 11.333 54.667 21.666 74 30.999s33.666 18.333 42.999 27
c-20 7.33301 -39.333 20 -58 38c-22.667 20.667 -34 42 -34 64c0 39.333 19 76.666 57 111.999c38.667 36 76.334 54 113.001 54c43.333 0 65 -34 65 -102c0 -46.667 -9 -86.334 -27 -119.001zM316 976.998c0 44.667 -11.001 67.001 -33.001 67.001c-40 0 -60 -12 -60 -36
c0 -12.667 11 -27.334 33 -44.001c18.667 -12.667 36.334 -22 53.001 -28c4.66699 10 7 23.667 7 41z" />
    <glyph glyph-name="uni0678.fina" unicode="&#x678;" horiz-adv-x="1390" 
d="M1437 35c0 -23.333 -13.668 -34.999 -41.001 -34.999c-42 0 -84.167 1.33301 -126.5 4s-85.5 7.33398 -129.5 14.001c-44 7.33301 -80.833 12.333 -110.5 15s-53.5 4 -71.5 4c-21.333 0 -40.5 -1.83301 -57.5 -5.5s-32.167 -9.83398 -45.5 -18.501
c-23.333 -14.667 -35 -30.334 -35 -47.001c0 -22 14.333 -35 43 -39l274 -43c28 -2.66699 51.667 -15 71 -37c24 -24 35 -53.667 33 -89c-4.66699 -132 -81 -222 -229 -270c-49.333 -17.333 -112 -30 -188 -38s-166.333 -12 -271 -12c-312 0 -469 115 -471 345
c0 42.667 7.83301 90.5 23.5 143.5s39.5 112.833 71.5 179.5c22 47.333 46 71 72 71s39 -13 39 -39c0 3.33301 -10 -24 -30 -82c-20.667 -57.333 -31 -106.333 -31 -147c0 -104 60.667 -177.333 182 -220c72 -25.333 158 -38 258 -38c298.667 0 448 23.333 448 70
c0 17.333 -19.333 28.333 -58 33l-241 43c-80.667 15.333 -121 47 -121 95c0 41.333 9.33301 81.333 28 120s46 76.667 82 114c87.333 90 197.333 135 330 135c7.33301 0 19.833 -0.5 37.5 -1.5s39.834 -2.16699 66.501 -3.5c28 -2.66699 55.167 -4.5 81.5 -5.5
s51.5 -1.5 75.5 -1.5c27.333 0 41 -11.333 41 -34v-180v0zM737.999 479.001c-29.333 -2.66699 -66.3311 -10.3359 -110.998 -23.0029c-94 -26.667 -156.667 -62.334 -188 -107.001c-2.66699 6.66699 -4.83398 13.334 -6.50098 20.001s-2.5 14.334 -2.5 23.001
c0 38 23 69.667 69 95c-38.667 24 -58 55.667 -58 95c0 40 20.667 79.667 62 119c42 40 84 60 126 60c60.667 0 91 -24 91 -72c0 -22 -6 -39 -18 -51c-19.333 20 -48.333 30 -87 30c-70 0 -105 -18 -105 -54c0 -8 3 -16.167 9 -24.5s13.667 -15.666 23 -21.999
s19.666 -11.666 30.999 -15.999s22.333 -6.5 33 -6.5c28 0 55.333 3.16699 82 9.5s53.667 16.833 81 31.5z" />
    <glyph glyph-name="uni067C.init" unicode="&#x67c;" horiz-adv-x="465" 
d="M430 386c0 -257.333 -116 -386.001 -348 -386.001h-87c-27.333 0 -41 11.667 -41 35v180c0 22.667 13.667 34 41 34c206 0 309 22 309 66c0 24.667 -39 85 -117 181l131 203c74.667 -83.333 112 -187.666 112 -312.999zM326 874.999l-119 119l119 121l119 -121z
M54 874.999l-119 119l119 121l119 -121zM382 -55.001c0 -23.333 -4.99902 -45.166 -14.999 -65.499s-23.667 -38.333 -41 -54s-37.5 -28 -60.5 -37s-47.5 -13.5 -73.5 -13.5c-30.667 0 -55.667 11.5 -75 34.5s-29 52.833 -29 89.5c0 47.333 13 93.666 39 138.999
c31.333 53.333 69.666 80 114.999 80c40.667 0 74.667 -18 102 -54c25.333 -33.333 38 -73 38 -119zM317.001 -80.001c-1.33301 11.333 -5.16699 22.667 -11.5 34s-14.5 21.5 -24.5 30.5s-21 16.333 -33 22s-24.333 8.5 -37 8.5c-18 0 -32.167 -7.5 -42.5 -22.5
s-15.5 -31.5 -15.5 -49.5c0 -8.66699 1.5 -16.334 4.5 -23.001s7.16699 -13.667 12.5 -21c6 -7.33301 13.667 -12.666 23 -15.999s19 -5 29 -5c39.333 0 71 14 95 42z" />
    <glyph glyph-name="uni067C.medi" unicode="&#x67c;" horiz-adv-x="725" 
d="M772 35c0 -23.333 -13.666 -35.002 -40.999 -35.002h-62c-84 0 -161.667 51.667 -233 155c-22.667 -44 -60.667 -80.667 -114 -110c-54 -30 -105.667 -45 -155 -45h-172c-27.333 0 -41 11.667 -41 35v180c0 22.667 13.667 34 41 34h111c50.667 0 94 4.16699 130 12.5
s65.5 21.333 88.5 39s39.833 40.334 50.5 68.001s16 60.834 16 99.501c0 30.667 15.667 46 47 46c11.333 0 21.166 -4.83301 29.499 -14.5s12.5 -20.167 12.5 -31.5c0 -146 75.333 -219 226 -219h25c27.333 0 41 -11.333 41 -34v-180v0zM511.001 771.998l-119 119l119 121
l119 -121zM239.001 771.998l-119 119l119 121l119 -121zM390.001 -83.002c0 -23.333 -4.99902 -45.166 -14.999 -65.499s-23.667 -38.333 -41 -54s-37.5 -28 -60.5 -37s-47.5 -13.5 -73.5 -13.5c-30.667 0 -55.667 11.5 -75 34.5s-29 52.833 -29 89.5
c0 47.333 13 93.666 39 138.999c31.333 53.333 69.666 80 114.999 80c40.667 0 74.667 -18 102 -54c25.333 -33.333 38 -73 38 -119zM325.002 -108.002c-1.33301 11.333 -5.16699 22.667 -11.5 34s-14.5 21.5 -24.5 30.5s-21 16.333 -33 22s-24.333 8.5 -37 8.5
c-18 0 -32.167 -7.5 -42.5 -22.5s-15.5 -31.5 -15.5 -49.5c0 -8.66699 1.5 -16.334 4.5 -23.001s7.16699 -13.667 12.5 -21c6 -7.33301 13.667 -12.666 23 -15.999s19 -5 29 -5c39.333 0 71 14 95 42z" />
    <glyph glyph-name="uni067C.fina" unicode="&#x67c;" horiz-adv-x="1499" 
d="M1700 35c0 -23.333 -13.667 -35.002 -41 -35.002c-83.333 0 -145.666 12.333 -186.999 37c-39.333 25.333 -76 73.333 -110 144c-165.333 -136 -401.333 -204 -708 -204c-92.667 0 -172.5 6.66699 -239.5 20s-122.5 33.333 -166.5 60
c-95.333 59.333 -143 154.666 -143 285.999c0 34.667 3.66699 68.334 11 101.001s19 65.334 35 98.001c28 58.667 52.333 88 73 88c27.333 0 41 -12.667 41 -38c0 -2 -1.83301 -7.16699 -5.5 -15.5s-7.5 -19 -11.5 -32s-7.83301 -27.5 -11.5 -43.5s-5.5 -32.667 -5.5 -50
c0 -37.333 10.333 -70.5 31 -99.5s52 -53.167 94 -72.5c37.333 -17.333 80.666 -30.333 129.999 -39s104.666 -13 165.999 -13c214.667 0 386.667 24.333 516 73c88.667 34 157.667 79.333 207 136c44.667 48.667 68.334 73 71.001 73c30 0 45 -15 45 -45
c0 -20.667 -3.16699 -42.167 -9.5 -64.5s-15.833 -46.166 -28.5 -71.499c27.333 -52.667 96 -79 206 -79c27.333 0 41 -11.333 41 -34v-180v0zM929 650.998l-119 119l119 121l119 -121zM657 650.998l-119 119l119 121l119 -121zM858 -100.002
c0 -23.333 -4.99902 -45.166 -14.999 -65.499s-23.667 -38.333 -41 -54s-37.5 -28 -60.5 -37s-47.5 -13.5 -73.5 -13.5c-30.667 0 -55.667 11.5 -75 34.5s-29 52.833 -29 89.5c0 47.333 13 93.666 39 138.999c31.333 53.333 69.666 80 114.999 80
c40.667 0 74.667 -18 102 -54c25.333 -33.333 38 -73 38 -119zM793.001 -125.002c-1.33301 11.333 -5.16699 22.667 -11.5 34s-14.5 21.5 -24.5 30.5s-21 16.333 -33 22s-24.333 8.5 -37 8.5c-18 0 -32.167 -7.5 -42.5 -22.5s-15.5 -31.5 -15.5 -49.5
c0 -8.66699 1.5 -16.334 4.5 -23.001s7.16699 -13.667 12.5 -21c6 -7.33301 13.667 -12.666 23 -15.999s19 -5 29 -5c39.333 0 71 14 95 42z" />
    <glyph glyph-name="uni067D.init" unicode="&#x67d;" horiz-adv-x="465" 
d="M430 386c0 -257.333 -116 -386.001 -348 -386.001h-87c-27.333 0 -41 11.667 -41 35v180c0 22.667 13.667 34 41 34c206 0 309 22 309 66c0 24.667 -39 85 -117 181l131 203c74.667 -83.333 112 -187.666 112 -312.999zM-5 998.999l-119 121l119 119l119 -119z
M131 762.999l-120 121l120 119l119 -119zM267 998.999l-119 121l119 119l119 -119z" />
    <glyph glyph-name="uni067D.medi" unicode="&#x67d;" horiz-adv-x="725" 
d="M772 35c0 -23.333 -13.666 -35.002 -40.999 -35.002h-62c-84 0 -161.667 51.667 -233 155c-22.667 -44 -60.667 -80.667 -114 -110c-54 -30 -105.667 -45 -155 -45h-172c-27.333 0 -41 11.667 -41 35v180c0 22.667 13.667 34 41 34h111c50.667 0 94 4.16699 130 12.5
s65.5 21.333 88.5 39s39.833 40.334 50.5 68.001s16 60.834 16 99.501c0 30.667 15.667 46 47 46c11.333 0 21.166 -4.83301 29.499 -14.5s12.5 -20.167 12.5 -31.5c0 -146 75.333 -219 226 -219h25c27.333 0 41 -11.333 41 -34v-180v0zM238.001 879.998l-119 121l119 119
l119 -119zM374.001 643.998l-120 121l120 119l119 -119zM510.001 879.998l-119 121l119 119l119 -119z" />
    <glyph glyph-name="uni067D.fina" unicode="&#x67d;" horiz-adv-x="1653" 
d="M1700 35c0 -23.333 -13.667 -35.002 -41 -35.002c-83.333 0 -145.666 12.333 -186.999 37c-39.333 25.333 -76 73.333 -110 144c-165.333 -136 -401.333 -204 -708 -204c-92.667 0 -172.5 6.66699 -239.5 20s-122.5 33.333 -166.5 60
c-95.333 59.333 -143 154.666 -143 285.999c0 34.667 3.66699 68.334 11 101.001s19 65.334 35 98.001c28 58.667 52.333 88 73 88c27.333 0 41 -12.667 41 -38c0 -2 -1.83301 -7.16699 -5.5 -15.5s-7.5 -19 -11.5 -32s-7.83301 -27.5 -11.5 -43.5s-5.5 -32.667 -5.5 -50
c0 -37.333 10.333 -70.5 31 -99.5s52 -53.167 94 -72.5c37.333 -17.333 80.666 -30.333 129.999 -39s104.666 -13 165.999 -13c214.667 0 386.667 24.333 516 73c88.667 34 157.667 79.333 207 136c44.667 48.667 68.334 73 71.001 73c30 0 45 -15 45 -45
c0 -20.667 -3.16699 -42.167 -9.5 -64.5s-15.833 -46.166 -28.5 -71.499c27.333 -52.667 96 -79 206 -79c27.333 0 41 -11.333 41 -34v-180v0zM647 825.998l-119 121l119 119l119 -119zM783 589.998l-120 121l120 119l119 -119zM919 825.998l-119 121l119 119l119 -119z" />
    <glyph glyph-name="uni0681.init" unicode="&#x681;" horiz-adv-x="1216" 
d="M1057 288c-6.66699 1.33301 -12.999 2.00391 -18.999 2.00391h-17c-44.667 0 -97.334 -10.667 -158.001 -32c-68 -24.667 -179.667 -76.334 -335 -155.001c-136.667 -68.667 -279.667 -103 -429 -103h-104c-27.333 0 -41 11.667 -41 35v180c0 22.667 13.667 34 41 34h94
c123.333 0 231 10 323 30c34 9.33301 77.167 22.166 129.5 38.499s114.833 37.166 187.5 62.499v8c-167.333 78 -284 117 -350 117c-42 0 -83 -20 -123 -60c-37.333 -38 -60.333 -57 -69 -57c-24 0 -36 12.333 -36 37c0 38.667 24.333 94 73 166
c60.667 89.333 130 134 208 134c22.667 0 60 -9.66699 112 -29s119.667 -48 203 -86c84 -38.667 157.833 -67.334 221.5 -86.001s118.5 -28 164.5 -28h50zM862.001 965.004c-29.333 -2.66699 -66.3311 -10.3359 -110.998 -23.0029
c-94 -26.667 -156.667 -62.334 -188 -107.001c-2.66699 6.66699 -4.83398 13.334 -6.50098 20.001s-2.5 14.334 -2.5 23.001c0 38 23 69.667 69 95c-38.667 24 -58 55.667 -58 95c0 40 20.667 79.667 62 119c42 40 84 60 126 60c60.667 0 91 -24 91 -72
c0 -22 -6 -39 -18 -51c-19.333 20 -48.333 30 -87 30c-70 0 -105 -18 -105 -54c0 -8 3 -16.167 9 -24.5s13.667 -15.666 23 -21.999s19.666 -11.666 30.999 -15.999s22.333 -6.5 33 -6.5c28 0 55.333 3.16699 82 9.5s53.667 16.833 81 31.5z" />
    <glyph glyph-name="uni0681.medi" unicode="&#x681;" horiz-adv-x="1243" 
d="M1289 35c0 -23.333 -13.335 -34.999 -40.002 -34.999h-109c-128 0 -221 34.333 -279 103c-45.333 54.667 -65.666 125.334 -60.999 212.001c-149.333 -125.333 -278.666 -209 -387.999 -251c-109.333 -42.667 -248.333 -64 -417 -64c-27.333 0 -41 11.667 -41 35v180
c0 22.667 13.667 34 41 34c156.667 0 288.667 13.667 396 41c62 15.333 122.167 36.166 180.5 62.499s115.166 58.833 170.499 97.5v7c-24.667 7.33301 -53.667 15.166 -87 23.499s-71.333 17.166 -114 26.499c-42 9.33301 -76.5 16.333 -103.5 21s-45.5 7 -55.5 7
c-42 0 -83 -20 -123 -60c-36 -38 -59 -57 -69 -57c-23.333 0 -35 12.333 -35 37c0 39.333 24 94.666 72 165.999c60.667 88.667 130.334 133 209.001 133c61.333 0 135.333 -17.667 222 -53c67.333 -29.333 134.333 -50.666 201 -63.999s134.334 -19.333 203.001 -18l119 2
l-102 -228c-35.333 4 -67 6 -95 6c-35.333 0 -65.666 -6.33301 -90.999 -19c-2 -59.333 34 -97 108 -113c21.333 -5.33301 52.666 -9.66602 93.999 -12.999s92.666 -5 153.999 -5c26.667 0 40 -11.333 40 -34v-180v0zM819.998 997.001
c-29.333 -2.66699 -66.3311 -10.3359 -110.998 -23.0029c-94 -26.667 -156.667 -62.334 -188 -107.001c-2.66699 6.66699 -4.83398 13.334 -6.50098 20.001s-2.5 14.334 -2.5 23.001c0 38 23 69.667 69 95c-38.667 24 -58 55.667 -58 95c0 40 20.667 79.667 62 119
c42 40 84 60 126 60c60.667 0 91 -24 91 -72c0 -22 -6 -39 -18 -51c-19.333 20 -48.333 30 -87 30c-70 0 -105 -18 -105 -54c0 -8 3 -16.167 9 -24.5s13.667 -15.666 23 -21.999s19.666 -11.666 30.999 -15.999s22.333 -6.5 33 -6.5c28 0 55.333 3.16699 82 9.5
s53.667 16.833 81 31.5z" />
    <glyph glyph-name="uni0681.fina" unicode="&#x681;" horiz-adv-x="1282" 
d="M1329 35c0 -23.333 -13.6719 -34.999 -41.0049 -34.999h-150c-80 0 -151 24.333 -213 73c-74 54 -111 128 -111 222v27.5c0 11 0.666992 23.833 2 38.5c1.33301 16 2.33301 28.833 3 38.5s1 16.5 1 20.5c-84.667 -23.333 -157.5 -50.5 -218.5 -81.5
s-111.5 -65.5 -151.5 -103.5c-84 -79.333 -126 -183.666 -126 -312.999c0 -93.333 34.333 -168 103 -224c86 -72 224.667 -108 416 -108c46 0 89.5 1.5 130.5 4.5s79.833 7.83301 116.5 14.5c64 8.66699 94.333 14.667 91 18c6.66699 -2 10 -5 10 -9c0 -12 -13 -30 -39 -54
c-18.667 -17.333 -40.167 -33.166 -64.5 -47.499s-51.5 -26.5 -81.5 -36.5c-80 -28 -176.333 -42 -289 -42c-89.333 0 -170.166 8.16699 -242.499 24.5s-136.166 41.5 -191.499 75.5c-128 76 -192 188 -192 336c0 265.333 187 459.666 561 582.999v9
c-61.333 13.333 -116.666 23.166 -165.999 29.499s-92 9.5 -128 9.5c-43.333 0 -79.666 -10.667 -108.999 -32c-6 -4.66699 -13.667 -12 -23 -22l-32 -35c-17.333 -21.333 -31.666 -32 -42.999 -32c-21.333 0 -32 12.333 -32 37c0 23.333 6 50 18 80s29.667 63 53 99
c57.333 90.667 122.666 136 195.999 136c21.333 0 54.333 -3.33301 99 -10s102.334 -17 173.001 -31c140 -26 232 -39 276 -39c50 0 96.667 1 140 3s84.333 5.33301 123 10l-114 -228c-36 0 -67.5 -0.833008 -94.5 -2.5s-50.167 -4.5 -69.5 -8.5v-33
c0 -56.667 26.667 -97 80 -121c21.333 -8.66699 48.333 -15.334 81 -20.001s71.667 -7 117 -7h91c27.333 0 41 -11.333 41 -34v-180v0zM794.995 996.001c-29.333 -2.66699 -66.3311 -10.3359 -110.998 -23.0029c-94 -26.667 -156.667 -62.334 -188 -107.001
c-2.66699 6.66699 -4.83398 13.334 -6.50098 20.001s-2.5 14.334 -2.5 23.001c0 38 23 69.667 69 95c-38.667 24 -58 55.667 -58 95c0 40 20.667 79.667 62 119c42 40 84 60 126 60c60.667 0 91 -24 91 -72c0 -22 -6 -39 -18 -51c-19.333 20 -48.333 30 -87 30
c-70 0 -105 -18 -105 -54c0 -8 3 -16.167 9 -24.5s13.667 -15.666 23 -21.999s19.666 -11.666 30.999 -15.999s22.333 -6.5 33 -6.5c28 0 55.333 3.16699 82 9.5s53.667 16.833 81 31.5z" />
    <glyph glyph-name="uni0682.init" unicode="&#x682;" horiz-adv-x="1216" 
d="M1057 288c-6.66699 1.33301 -12.999 2.00391 -18.999 2.00391h-17c-44.667 0 -97.334 -10.667 -158.001 -32c-68 -24.667 -179.667 -76.334 -335 -155.001c-136.667 -68.667 -279.667 -103 -429 -103h-104c-27.333 0 -41 11.667 -41 35v180c0 22.667 13.667 34 41 34h94
c123.333 0 231 10 323 30c34 9.33301 77.167 22.166 129.5 38.499s114.833 37.166 187.5 62.499v8c-167.333 78 -284 117 -350 117c-42 0 -83 -20 -123 -60c-37.333 -38 -60.333 -57 -69 -57c-24 0 -36 12.333 -36 37c0 38.667 24.333 94 73 166
c60.667 89.333 130 134 208 134c22.667 0 60 -9.66699 112 -29s119.667 -48 203 -86c84 -38.667 157.833 -67.334 221.5 -86.001s118.5 -28 164.5 -28h50zM635.001 809.004l-120 119l120 121l119 -121zM633.001 1069l-119 119l119 122l119 -122z" />
    <glyph glyph-name="uni0682.medi" unicode="&#x682;" horiz-adv-x="1243" 
d="M1289 35c0 -23.333 -13.335 -34.999 -40.002 -34.999h-109c-128 0 -221 34.333 -279 103c-45.333 54.667 -65.666 125.334 -60.999 212.001c-149.333 -125.333 -278.666 -209 -387.999 -251c-109.333 -42.667 -248.333 -64 -417 -64c-27.333 0 -41 11.667 -41 35v180
c0 22.667 13.667 34 41 34c156.667 0 288.667 13.667 396 41c62 15.333 122.167 36.166 180.5 62.499s115.166 58.833 170.499 97.5v7c-24.667 7.33301 -53.667 15.166 -87 23.499s-71.333 17.166 -114 26.499c-42 9.33301 -76.5 16.333 -103.5 21s-45.5 7 -55.5 7
c-42 0 -83 -20 -123 -60c-36 -38 -59 -57 -69 -57c-23.333 0 -35 12.333 -35 37c0 39.333 24 94.666 72 165.999c60.667 88.667 130.334 133 209.001 133c61.333 0 135.333 -17.667 222 -53c67.333 -29.333 134.333 -50.666 201 -63.999s134.334 -19.333 203.001 -18l119 2
l-102 -228c-35.333 4 -67 6 -95 6c-35.333 0 -65.666 -6.33301 -90.999 -19c-2 -59.333 34 -97 108 -113c21.333 -5.33301 52.666 -9.66602 93.999 -12.999s92.666 -5 153.999 -5c26.667 0 40 -11.333 40 -34v-180v0zM668.998 850.001l-120 119l120 121l119 -121z
M666.998 1110l-119 119l119 122l119 -122z" />
    <glyph glyph-name="uni0682.fina" unicode="&#x682;" horiz-adv-x="1282" 
d="M1329 35c0 -23.333 -13.6719 -34.999 -41.0049 -34.999h-150c-80 0 -151 24.333 -213 73c-74 54 -111 128 -111 222v27.5c0 11 0.666992 23.833 2 38.5c1.33301 16 2.33301 28.833 3 38.5s1 16.5 1 20.5c-84.667 -23.333 -157.5 -50.5 -218.5 -81.5
s-111.5 -65.5 -151.5 -103.5c-84 -79.333 -126 -183.666 -126 -312.999c0 -93.333 34.333 -168 103 -224c86 -72 224.667 -108 416 -108c46 0 89.5 1.5 130.5 4.5s79.833 7.83301 116.5 14.5c64 8.66699 94.333 14.667 91 18c6.66699 -2 10 -5 10 -9c0 -12 -13 -30 -39 -54
c-18.667 -17.333 -40.167 -33.166 -64.5 -47.499s-51.5 -26.5 -81.5 -36.5c-80 -28 -176.333 -42 -289 -42c-89.333 0 -170.166 8.16699 -242.499 24.5s-136.166 41.5 -191.499 75.5c-128 76 -192 188 -192 336c0 265.333 187 459.666 561 582.999v9
c-61.333 13.333 -116.666 23.166 -165.999 29.499s-92 9.5 -128 9.5c-43.333 0 -79.666 -10.667 -108.999 -32c-6 -4.66699 -13.667 -12 -23 -22l-32 -35c-17.333 -21.333 -31.666 -32 -42.999 -32c-21.333 0 -32 12.333 -32 37c0 23.333 6 50 18 80s29.667 63 53 99
c57.333 90.667 122.666 136 195.999 136c21.333 0 54.333 -3.33301 99 -10s102.334 -17 173.001 -31c140 -26 232 -39 276 -39c50 0 96.667 1 140 3s84.333 5.33301 123 10l-114 -228c-36 0 -67.5 -0.833008 -94.5 -2.5s-50.167 -4.5 -69.5 -8.5v-33
c0 -56.667 26.667 -97 80 -121c21.333 -8.66699 48.333 -15.334 81 -20.001s71.667 -7 117 -7h91c27.333 0 41 -11.333 41 -34v-180v0zM670.995 851.001l-120 119l120 121l119 -121zM668.995 1111l-119 119l119 122l119 -122z" />
    <glyph glyph-name="uni0685.init" unicode="&#x685;" horiz-adv-x="1216" 
d="M1057 288c-6.66699 1.33301 -12.999 2.00391 -18.999 2.00391h-17c-44.667 0 -97.334 -10.667 -158.001 -32c-68 -24.667 -179.667 -76.334 -335 -155.001c-136.667 -68.667 -279.667 -103 -429 -103h-104c-27.333 0 -41 11.667 -41 35v180c0 22.667 13.667 34 41 34h94
c123.333 0 231 10 323 30c34 9.33301 77.167 22.166 129.5 38.499s114.833 37.166 187.5 62.499v8c-167.333 78 -284 117 -350 117c-42 0 -83 -20 -123 -60c-37.333 -38 -60.333 -57 -69 -57c-24 0 -36 12.333 -36 37c0 38.667 24.333 94 73 166
c60.667 89.333 130 134 208 134c22.667 0 60 -9.66699 112 -29s119.667 -48 203 -86c84 -38.667 157.833 -67.334 221.5 -86.001s118.5 -28 164.5 -28h50zM659.001 1083l-119 120l119 121l119 -121zM795.001 846.004l-120 119l120 122l119 -122zM523.001 846.004l-120 119
l120 122l119 -122z" />
    <glyph glyph-name="uni0685.medi" unicode="&#x685;" horiz-adv-x="1243" 
d="M1289 35c0 -23.333 -13.335 -34.999 -40.002 -34.999h-109c-128 0 -221 34.333 -279 103c-45.333 54.667 -65.666 125.334 -60.999 212.001c-149.333 -125.333 -278.666 -209 -387.999 -251c-109.333 -42.667 -248.333 -64 -417 -64c-27.333 0 -41 11.667 -41 35v180
c0 22.667 13.667 34 41 34c156.667 0 288.667 13.667 396 41c62 15.333 122.167 36.166 180.5 62.499s115.166 58.833 170.499 97.5v7c-24.667 7.33301 -53.667 15.166 -87 23.499s-71.333 17.166 -114 26.499c-42 9.33301 -76.5 16.333 -103.5 21s-45.5 7 -55.5 7
c-42 0 -83 -20 -123 -60c-36 -38 -59 -57 -69 -57c-23.333 0 -35 12.333 -35 37c0 39.333 24 94.666 72 165.999c60.667 88.667 130.334 133 209.001 133c61.333 0 135.333 -17.667 222 -53c67.333 -29.333 134.333 -50.666 201 -63.999s134.334 -19.333 203.001 -18l119 2
l-102 -228c-35.333 4 -67 6 -95 6c-35.333 0 -65.666 -6.33301 -90.999 -19c-2 -59.333 34 -97 108 -113c21.333 -5.33301 52.666 -9.66602 93.999 -12.999s92.666 -5 153.999 -5c26.667 0 40 -11.333 40 -34v-180v0zM651.998 1144l-119 120l119 121l119 -121z
M787.998 907.001l-120 119l120 122l119 -122zM515.998 907.001l-120 119l120 122l119 -122z" />
    <glyph glyph-name="uni0685.fina" unicode="&#x685;" horiz-adv-x="1282" 
d="M1329 35c0 -23.333 -13.6719 -34.999 -41.0049 -34.999h-150c-80 0 -151 24.333 -213 73c-74 54 -111 128 -111 222v27.5c0 11 0.666992 23.833 2 38.5c1.33301 16 2.33301 28.833 3 38.5s1 16.5 1 20.5c-84.667 -23.333 -157.5 -50.5 -218.5 -81.5
s-111.5 -65.5 -151.5 -103.5c-84 -79.333 -126 -183.666 -126 -312.999c0 -93.333 34.333 -168 103 -224c86 -72 224.667 -108 416 -108c46 0 89.5 1.5 130.5 4.5s79.833 7.83301 116.5 14.5c64 8.66699 94.333 14.667 91 18c6.66699 -2 10 -5 10 -9c0 -12 -13 -30 -39 -54
c-18.667 -17.333 -40.167 -33.166 -64.5 -47.499s-51.5 -26.5 -81.5 -36.5c-80 -28 -176.333 -42 -289 -42c-89.333 0 -170.166 8.16699 -242.499 24.5s-136.166 41.5 -191.499 75.5c-128 76 -192 188 -192 336c0 265.333 187 459.666 561 582.999v9
c-61.333 13.333 -116.666 23.166 -165.999 29.499s-92 9.5 -128 9.5c-43.333 0 -79.666 -10.667 -108.999 -32c-6 -4.66699 -13.667 -12 -23 -22l-32 -35c-17.333 -21.333 -31.666 -32 -42.999 -32c-21.333 0 -32 12.333 -32 37c0 23.333 6 50 18 80s29.667 63 53 99
c57.333 90.667 122.666 136 195.999 136c21.333 0 54.333 -3.33301 99 -10s102.334 -17 173.001 -31c140 -26 232 -39 276 -39c50 0 96.667 1 140 3s84.333 5.33301 123 10l-114 -228c-36 0 -67.5 -0.833008 -94.5 -2.5s-50.167 -4.5 -69.5 -8.5v-33
c0 -56.667 26.667 -97 80 -121c21.333 -8.66699 48.333 -15.334 81 -20.001s71.667 -7 117 -7h91c27.333 0 41 -11.333 41 -34v-180v0zM638.995 1083l-119 120l119 121l119 -121zM774.995 846.001l-120 119l120 122l119 -122zM502.995 846.001l-120 119l120 122l119 -122z
" />
    <glyph glyph-name="uni0689.fina" unicode="&#x689;" horiz-adv-x="1047" 
d="M1094 35c0 -23.333 -13.668 -35 -41.001 -35c-82 0 -148.333 20.667 -199 62c-18 13.333 -35.167 31.5 -51.5 54.5s-32.5 49.833 -48.5 80.5c-83.333 -131.333 -208 -197 -374 -197c-186 -0 -279 75.333 -279 226c0 26.667 1.83301 51.834 5.5 75.501
s9.83398 46.167 18.501 67.5c16.667 40 34 60 52 60c23.333 0 35 -22 35 -66c0 -43.333 15.333 -73 46 -89c31.333 -16.667 87.666 -25 168.999 -25c34.667 0 66.834 2.5 96.501 7.5s58.5 12.167 86.5 21.5c52 20 78 40 78 60c0 24.667 -6.33301 52 -19 82l-130 313l128 172
l187 -512c9.33301 -27.333 19.5 -49.833 30.5 -67.5s23.167 -31.834 36.5 -42.501c28 -20.667 72 -32 132 -34c27.333 0 41 -11.333 41 -34v-180v0zM474.999 -83c0 -23.333 -4.99902 -45.166 -14.999 -65.499s-23.667 -38.333 -41 -54s-37.5 -28 -60.5 -37
s-47.5 -13.5 -73.5 -13.5c-30.667 0 -55.667 11.5 -75 34.5s-29 52.833 -29 89.5c0 47.333 13 93.666 39 138.999c31.333 53.333 69.666 80 114.999 80c40.667 0 74.667 -18 102 -54c25.333 -33.333 38 -73 38 -119zM410 -108c-1.33301 11.333 -5.16699 22.667 -11.5 34
s-14.5 21.5 -24.5 30.5s-21 16.333 -33 22s-24.333 8.5 -37 8.5c-18 0 -32.167 -7.5 -42.5 -22.5s-15.5 -31.5 -15.5 -49.5c0 -8.66699 1.5 -16.334 4.5 -23.001s7.16699 -13.667 12.5 -21c6 -7.33301 13.667 -12.666 23 -15.999s19 -5 29 -5c39.333 0 71 14 95 42z" />
    <glyph glyph-name="uni068A.fina" unicode="&#x68a;" horiz-adv-x="1047" 
d="M1094 35c0 -23.333 -13.668 -35 -41.001 -35c-82 0 -148.333 20.667 -199 62c-18 13.333 -35.167 31.5 -51.5 54.5s-32.5 49.833 -48.5 80.5c-83.333 -131.333 -208 -197 -374 -197c-186 -0 -279 75.333 -279 226c0 26.667 1.83301 51.834 5.5 75.501
s9.83398 46.167 18.501 67.5c16.667 40 34 60 52 60c23.333 0 35 -22 35 -66c0 -43.333 15.333 -73 46 -89c31.333 -16.667 87.666 -25 168.999 -25c34.667 0 66.834 2.5 96.501 7.5s58.5 12.167 86.5 21.5c52 20 78 40 78 60c0 24.667 -6.33301 52 -19 82l-130 313l128 172
l187 -512c9.33301 -27.333 19.5 -49.833 30.5 -67.5s23.167 -31.834 36.5 -42.501c28 -20.667 72 -32 132 -34c27.333 0 41 -11.333 41 -34v-180v0zM330.999 -456l-132 133l132 130l132 -130z" />
    <glyph glyph-name="uni068b.fina" unicode="&#x68b;" horiz-adv-x="1047" 
d="M1094 35c0 -23.333 -13.668 -35 -41.001 -35c-82 0 -148.333 20.667 -199 62c-18 13.333 -35.167 31.5 -51.5 54.5s-32.5 49.833 -48.5 80.5c-83.333 -131.333 -208 -197 -374 -197c-186 -0 -279 75.333 -279 226c0 26.667 1.83301 51.834 5.5 75.501
s9.83398 46.167 18.501 67.5c16.667 40 34 60 52 60c23.333 0 35 -22 35 -66c0 -43.333 15.333 -73 46 -89c31.333 -16.667 87.666 -25 168.999 -25c34.667 0 66.834 2.5 96.501 7.5s58.5 12.167 86.5 21.5c52 20 78 40 78 60c0 24.667 -6.33301 52 -19 82l-130 313l128 172
l187 -512c9.33301 -27.333 19.5 -49.833 30.5 -67.5s23.167 -31.834 36.5 -42.501c28 -20.667 72 -32 132 -34c27.333 0 41 -11.333 41 -34v-180v0zM735.999 1191c0 -38.667 -17.332 -72.3311 -51.999 -100.998c-42 -37.333 -106 -56 -192 -56h-61
c-35.333 0 -65.333 14 -90 42c-17.333 20.667 -26 36 -26 46c0 5.33301 2 7.66602 6 6.99902l36 -3l73 -3c4 6.66699 6 19.667 6 39c0 30 -2.66699 67.5 -8 112.5s-12.666 98.5 -21.999 160.5l43 43c10 10 16.333 15 19 15c2 0 4 -3 6 -9
c4.66699 -15.333 9.66699 -30.333 15 -45l16 -42c4 -9.33301 3.66699 -14 -1 -14s-12.334 3 -23.001 9c2 -19.333 3 -52.333 3 -99c0 -47.333 -5 -91.333 -15 -132v-1c77.333 79.333 139.333 119 186 119c25.333 0 44.666 -7.66699 57.999 -23
c15.333 -14.667 23 -36.334 23 -65.001zM683 1159c0 12.667 -7.33301 24.332 -22 34.999c-7.33301 4.66699 -14.833 8.33398 -22.5 11.001s-15.167 4 -22.5 4c-30.667 0 -76 -28 -136 -84l80 -2c82 -2 123 10 123 36zM389 -433.999l-132 133l132 130l132 -130z" />
    <glyph glyph-name="uni068F.fina" unicode="&#x68f;" horiz-adv-x="1047" 
d="M1094 35c0 -23.333 -13.668 -35 -41.001 -35c-82 0 -148.333 20.667 -199 62c-18 13.333 -35.167 31.5 -51.5 54.5s-32.5 49.833 -48.5 80.5c-83.333 -131.333 -208 -197 -374 -197c-186 -0 -279 75.333 -279 226c0 26.667 1.83301 51.834 5.5 75.501
s9.83398 46.167 18.501 67.5c16.667 40 34 60 52 60c23.333 0 35 -22 35 -66c0 -43.333 15.333 -73 46 -89c31.333 -16.667 87.666 -25 168.999 -25c34.667 0 66.834 2.5 96.501 7.5s58.5 12.167 86.5 21.5c52 20 78 40 78 60c0 24.667 -6.33301 52 -19 82l-130 313l128 172
l187 -512c9.33301 -27.333 19.5 -49.833 30.5 -67.5s23.167 -31.834 36.5 -42.501c28 -20.667 72 -32 132 -34c27.333 0 41 -11.333 41 -34v-180v0zM405.999 1178l-119 121l119 119l119 -119zM541.999 942l-120 121l120 119l119 -119zM677.999 1178l-119 121l119 119
l119 -119z" />
    <glyph glyph-name="uni0690.fina" unicode="&#x690;" horiz-adv-x="1047" 
d="M1094 35c0 -23.333 -13.668 -35 -41.001 -35c-82 0 -148.333 20.667 -199 62c-18 13.333 -35.167 31.5 -51.5 54.5s-32.5 49.833 -48.5 80.5c-83.333 -131.333 -208 -197 -374 -197c-186 -0 -279 75.333 -279 226c0 26.667 1.83301 51.834 5.5 75.501
s9.83398 46.167 18.501 67.5c16.667 40 34 60 52 60c23.333 0 35 -22 35 -66c0 -43.333 15.333 -73 46 -89c31.333 -16.667 87.666 -25 168.999 -25c34.667 0 66.834 2.5 96.501 7.5s58.5 12.167 86.5 21.5c52 20 78 40 78 60c0 24.667 -6.33301 52 -19 82l-130 313l128 172
l187 -512c9.33301 -27.333 19.5 -49.833 30.5 -67.5s23.167 -31.834 36.5 -42.501c28 -20.667 72 -32 132 -34c27.333 0 41 -11.333 41 -34v-180v0zM585.999 1385l-120 120l120 121l119 -121zM722.999 1192l-119 120l119 122l119 -122zM450.999 1192l-119 120l119 122
l119 -122zM584.999 1005l-120 120l120 121l119 -121z" />
    <glyph glyph-name="uni0692.fina" unicode="&#x692;" horiz-adv-x="827" 
d="M875 35c0 -23.333 -13.999 -35 -41.999 -35c-79.333 0 -135.333 8.66699 -168 26c3.33301 -8.66699 5.33301 -19.167 6 -31.5s1 -26.5 1 -42.5c0 -17.333 -1.83301 -37 -5.5 -59s-9.5 -48 -17.5 -78c-9.33301 -32 -20 -62.333 -32 -91s-25.667 -54.667 -41 -78
c-73.333 -116 -128.666 -174 -165.999 -174c-30 0 -65 1.66699 -105 5s-85.333 8 -136 14c-112.667 12.667 -169 25.334 -169 38.001c0 13.333 29.667 30 89 50c57.333 19.333 112.833 45.5 166.5 78.5s106.5 72.5 158.5 118.5c98 86.667 147 156 147 208
c0 50 -59 136 -177 258l103 233c30.667 -44 58.167 -80.5 82.5 -109.5s46.166 -50.167 65.499 -63.5c25.333 -18.667 54.666 -32.334 87.999 -41.001s70 -12.667 110 -12c28 2 42 -9.33301 42 -34v-180v0zM642.001 927l-31.001 -28.502
c-12.667 -11.667 -26.5 -28.167 -41.5 -49.5s-30.5 -49.166 -46.5 -83.499s-31.333 -77.833 -46 -130.5h-25c-6 28.667 -15.5 57 -28.5 85s-27.667 54.5 -44 79.5s-33.666 47.833 -51.999 68.5s-36.5 38 -54.5 52l113 -7l18.5 -23c6.33301 -8 12.833 -18.667 19.5 -32
s13.334 -30.166 20.001 -50.499s13.667 -45.833 21 -76.5c2 12 4.83301 25.667 8.5 41s8.16699 31.333 13.5 48s11.666 33.5 18.999 50.5s16 32.833 26 47.5z" />
    <glyph glyph-name="uni0693.fina" unicode="&#x693;" horiz-adv-x="827" 
d="M875 35c0 -23.333 -13.999 -35 -41.999 -35c-79.333 0 -135.333 8.66699 -168 26c3.33301 -8.66699 5.33301 -19.167 6 -31.5s1 -26.5 1 -42.5c0 -17.333 -1.83301 -37 -5.5 -59s-9.5 -48 -17.5 -78c-9.33301 -32 -20 -62.333 -32 -91s-25.667 -54.667 -41 -78
c-73.333 -116 -128.666 -174 -165.999 -174c-30 0 -65 1.66699 -105 5s-85.333 8 -136 14c-112.667 12.667 -169 25.334 -169 38.001c0 13.333 29.667 30 89 50c57.333 19.333 112.833 45.5 166.5 78.5s106.5 72.5 158.5 118.5c98 86.667 147 156 147 208
c0 50 -59 136 -177 258l103 233c30.667 -44 58.167 -80.5 82.5 -109.5s46.166 -50.167 65.499 -63.5c25.333 -18.667 54.666 -32.334 87.999 -41.001s70 -12.667 110 -12c28 2 42 -9.33301 42 -34v-180v0zM388.001 -591c0 -23.333 -4.99902 -45.166 -14.999 -65.499
s-23.667 -38.333 -41 -54s-37.5 -28 -60.5 -37s-47.5 -13.5 -73.5 -13.5c-30.667 0 -55.667 11.5 -75 34.5s-29 52.833 -29 89.5c0 47.333 13 93.666 39 138.999c31.333 53.333 69.666 80 114.999 80c40.667 0 74.667 -18 102 -54c25.333 -33.333 38 -73 38 -119z
M323.002 -616c-1.33301 11.333 -5.16699 22.667 -11.5 34s-14.5 21.5 -24.5 30.5s-21 16.333 -33 22s-24.333 8.5 -37 8.5c-18 0 -32.167 -7.5 -42.5 -22.5s-15.5 -31.5 -15.5 -49.5c0 -8.66699 1.5 -16.334 4.5 -23.001s7.16699 -13.667 12.5 -21
c6 -7.33301 13.667 -12.666 23 -15.999s19 -5 29 -5c39.333 0 71 14 95 42z" />
    <glyph glyph-name="uni0694.fina" unicode="&#x694;" horiz-adv-x="827" 
d="M875 35c0 -23.333 -13.999 -35 -41.999 -35c-79.333 0 -135.333 8.66699 -168 26c3.33301 -8.66699 5.33301 -19.167 6 -31.5s1 -26.5 1 -42.5c0 -17.333 -1.83301 -37 -5.5 -59s-9.5 -48 -17.5 -78c-9.33301 -32 -20 -62.333 -32 -91s-25.667 -54.667 -41 -78
c-73.333 -116 -128.666 -174 -165.999 -174c-30 0 -65 1.66699 -105 5s-85.333 8 -136 14c-112.667 12.667 -169 25.334 -169 38.001c0 13.333 29.667 30 89 50c57.333 19.333 112.833 45.5 166.5 78.5s106.5 72.5 158.5 118.5c98 86.667 147 156 147 208
c0 50 -59 136 -177 258l103 233c30.667 -44 58.167 -80.5 82.5 -109.5s46.166 -50.167 65.499 -63.5c25.333 -18.667 54.666 -32.334 87.999 -41.001s70 -12.667 110 -12c28 2 42 -9.33301 42 -34v-180v0zM250.001 -889l-132 133l132 130l132 -130z" />
    <glyph glyph-name="uni0695.fina" unicode="&#x695;" horiz-adv-x="827" 
d="M875 35c0 -23.333 -13.999 -35 -41.999 -35c-79.333 0 -135.333 8.66699 -168 26c3.33301 -8.66699 5.33301 -19.167 6 -31.5s1 -26.5 1 -42.5c0 -17.333 -1.83301 -37 -5.5 -59s-9.5 -48 -17.5 -78c-9.33301 -32 -20 -62.333 -32 -91s-25.667 -54.667 -41 -78
c-73.333 -116 -128.666 -174 -165.999 -174c-30 0 -65 1.66699 -105 5s-85.333 8 -136 14c-112.667 12.667 -169 25.334 -169 38.001c0 13.333 29.667 30 89 50c57.333 19.333 112.833 45.5 166.5 78.5s106.5 72.5 158.5 118.5c98 86.667 147 156 147 208
c0 50 -59 136 -177 258l103 233c30.667 -44 58.167 -80.5 82.5 -109.5s46.166 -50.167 65.499 -63.5c25.333 -18.667 54.666 -32.334 87.999 -41.001s70 -12.667 110 -12c28 2 42 -9.33301 42 -34v-180v0zM412.001 -674l-31.001 -28.502
c-12.667 -11.667 -26.5 -28.167 -41.5 -49.5s-30.5 -49.166 -46.5 -83.499s-31.333 -77.833 -46 -130.5h-25c-6 28.667 -15.5 57 -28.5 85s-27.667 54.5 -44 79.5s-33.666 47.833 -51.999 68.5s-36.5 38 -54.5 52l113 -7l18.5 -23c6.33301 -8 12.833 -18.667 19.5 -32
s13.334 -30.166 20.001 -50.499s13.667 -45.833 21 -76.5c2 12 4.83301 25.667 8.5 41s8.16699 31.333 13.5 48s11.666 33.5 18.999 50.5s16 32.833 26 47.5z" />
    <glyph glyph-name="uni0696.fina" unicode="&#x696;" horiz-adv-x="827" 
d="M875 35c0 -23.333 -13.999 -35 -41.999 -35c-79.333 0 -135.333 8.66699 -168 26c3.33301 -8.66699 5.33301 -19.167 6 -31.5s1 -26.5 1 -42.5c0 -17.333 -1.83301 -37 -5.5 -59s-9.5 -48 -17.5 -78c-9.33301 -32 -20 -62.333 -32 -91s-25.667 -54.667 -41 -78
c-73.333 -116 -128.666 -174 -165.999 -174c-30 0 -65 1.66699 -105 5s-85.333 8 -136 14c-112.667 12.667 -169 25.334 -169 38.001c0 13.333 29.667 30 89 50c57.333 19.333 112.833 45.5 166.5 78.5s106.5 72.5 158.5 118.5c98 86.667 147 156 147 208
c0 50 -59 136 -177 258l103 233c30.667 -44 58.167 -80.5 82.5 -109.5s46.166 -50.167 65.499 -63.5c25.333 -18.667 54.666 -32.334 87.999 -41.001s70 -12.667 110 -12c28 2 42 -9.33301 42 -34v-180v0zM228.001 -871l-132 133l132 130l132 -130zM482.001 642l-132 133
l132 130l132 -130z" />
    <glyph glyph-name="uni0697.fina" unicode="&#x697;" horiz-adv-x="827" 
d="M875 35c0 -23.333 -13.999 -35 -41.999 -35c-79.333 0 -135.333 8.66699 -168 26c3.33301 -8.66699 5.33301 -19.167 6 -31.5s1 -26.5 1 -42.5c0 -17.333 -1.83301 -37 -5.5 -59s-9.5 -48 -17.5 -78c-9.33301 -32 -20 -62.333 -32 -91s-25.667 -54.667 -41 -78
c-73.333 -116 -128.666 -174 -165.999 -174c-30 0 -65 1.66699 -105 5s-85.333 8 -136 14c-112.667 12.667 -169 25.334 -169 38.001c0 13.333 29.667 30 89 50c57.333 19.333 112.833 45.5 166.5 78.5s106.5 72.5 158.5 118.5c98 86.667 147 156 147 208
c0 50 -59 136 -177 258l103 233c30.667 -44 58.167 -80.5 82.5 -109.5s46.166 -50.167 65.499 -63.5c25.333 -18.667 54.666 -32.334 87.999 -41.001s70 -12.667 110 -12c28 2 42 -9.33301 42 -34v-180v0zM611.001 619l-119 119l119 121l119 -121zM339.001 619l-119 119
l119 121l119 -121z" />
    <glyph glyph-name="uni0699.fina" unicode="&#x699;" horiz-adv-x="827" 
d="M875 35c0 -23.333 -13.999 -35 -41.999 -35c-79.333 0 -135.333 8.66699 -168 26c3.33301 -8.66699 5.33301 -19.167 6 -31.5s1 -26.5 1 -42.5c0 -17.333 -1.83301 -37 -5.5 -59s-9.5 -48 -17.5 -78c-9.33301 -32 -20 -62.333 -32 -91s-25.667 -54.667 -41 -78
c-73.333 -116 -128.666 -174 -165.999 -174c-30 0 -65 1.66699 -105 5s-85.333 8 -136 14c-112.667 12.667 -169 25.334 -169 38.001c0 13.333 29.667 30 89 50c57.333 19.333 112.833 45.5 166.5 78.5s106.5 72.5 158.5 118.5c98 86.667 147 156 147 208
c0 50 -59 136 -177 258l103 233c30.667 -44 58.167 -80.5 82.5 -109.5s46.166 -50.167 65.499 -63.5c25.333 -18.667 54.666 -32.334 87.999 -41.001s70 -12.667 110 -12c28 2 42 -9.33301 42 -34v-180v0zM475.001 1012l-120 120l120 121l119 -121zM612.001 819l-119 120
l119 122l119 -122zM340.001 819l-119 120l119 122l119 -122zM474.001 632l-120 120l120 121l119 -121z" />
    <glyph glyph-name="uni069A.init" unicode="&#x69a;" horiz-adv-x="1301" 
d="M1261 363c0 -96 -20.333 -178.333 -61 -247c-23.333 -38.667 -50.666 -67.667 -81.999 -87s-66 -29 -104 -29c-58 0 -105.333 13 -142 39c-13.333 10.667 -26.833 24 -40.5 40s-27.5 35.667 -41.5 59c-52 -92 -116 -138 -192 -138c-58 0 -104.333 13 -139 39
c-14.667 10.667 -28.5 24 -41.5 40s-25.833 35.667 -38.5 59c-20.667 -24.667 -41.667 -45.334 -63 -62.001s-43 -30.334 -65 -41.001c-26 -12 -55.667 -20.833 -89 -26.5s-70 -8.5 -110 -8.5h-57c-27.333 0 -41 11.667 -41 35v180c0 22.667 13.667 34 41 34h96
c40 0 75.167 4.66699 105.5 14s56.166 23 77.499 41c36.667 32 55 73.667 55 125c0 44.667 15.333 67 46 67c30 0 45 -22.333 45 -67c0 -18 2.66699 -36.167 8 -54.5s14.333 -37.166 27 -56.499c32 -46 71.667 -69 119 -69c48.667 0 89 23 121 69
c24 36.667 36 73.667 36 111c0 44.667 14.667 67 44 67c30 0 45 -22.333 45 -67c0 -37.333 12.333 -74.333 37 -111c32 -46 75 -69 129 -69c109.333 0 164 30 164 90c0 24.667 -32.333 75.667 -97 153l110 184c65.333 -87.333 98 -191.666 98 -312.999zM779 741l-132 133
l132 130l132 -130zM769 -443l-132 133l132 130l132 -130z" />
    <glyph glyph-name="uni069A.medi" unicode="&#x69a;" horiz-adv-x="1450" 
d="M1497 35c0 -23.333 -13.999 -34.999 -41.999 -34.999h-24c-88 0 -163 46 -225 138c-54 -92 -118 -138 -192 -138c-58 0 -105.333 13 -142 39c-13.333 10.667 -26.833 24 -40.5 40s-27.5 35.667 -41.5 59c-52 -92 -116 -138 -192 -138c-58 0 -104.333 13 -139 39
c-14.667 10.667 -28.5 24 -41.5 40s-25.833 35.667 -38.5 59c-20.667 -24.667 -41.667 -45.334 -63 -62.001s-43 -30.334 -65 -41.001c-26 -12 -55.667 -20.833 -89 -26.5s-70 -8.5 -110 -8.5h-57c-27.333 0 -41 11.667 -41 35v180c0 22.667 13.667 34 41 34h96
c40 0 75.167 4.66699 105.5 14s56.166 23 77.499 41c36.667 32 55 73.667 55 125c0 44.667 15.333 67 46 67c30 0 45 -22.333 45 -67c0 -18 2.66699 -36.167 8 -54.5s14.333 -37.166 27 -56.499c32 -46 71.667 -69 119 -69c54.667 0 98 23 130 69
c25.333 36.667 38 73.667 38 111c0 44.667 14.667 67 44 67c30 0 45 -22.333 45 -67c0 -37.333 12.333 -74.333 37 -111c32 -46 73.333 -69 124 -69c57.333 0 102 23 134 69c26 36 39 73 39 111c0 44.667 14.667 67 44 67c30 0 45 -22.333 45 -67c0 -38 15 -75 45 -111
c38.667 -46 90.667 -69 156 -69c28 0 42 -11.333 42 -34v-180v0zM768.001 711.001l-132 133l132 130l132 -130zM774.001 -479.999l-132 133l132 130l132 -130z" />
    <glyph glyph-name="uni069A.fina" unicode="&#x69a;" horiz-adv-x="1931" 
d="M1977 35c0 -23.333 -13.665 -34.9971 -40.998 -34.9971h-24c-88.667 0 -164 46 -226 138c-53.333 -92 -115.666 -138 -186.999 -138c-72.667 0 -135 43.333 -187 130c-4 -16.667 -11.333 -32.834 -22 -48.501s-22.834 -29.5 -36.501 -41.5s-28.167 -21.667 -43.5 -29
s-29.333 -11 -42 -11c-35.333 0 -59.333 4.33301 -72 13v-99c0 -150.667 -53 -265 -159 -343c-100.667 -76.667 -241.667 -115 -423 -115c-132.667 0 -236.334 32 -311.001 96c-80.667 71.333 -121 176 -121 314c0 82 28 179 84 291c34.667 68 64 102 88 102
c22.667 0 34 -11 34 -33l-40 -109c-13.333 -36 -23.333 -68 -30 -96s-10 -52.333 -10 -73c0 -82.667 34.333 -144.334 103 -185.001c61.333 -38.667 144.666 -58 249.999 -58c55.333 0 106.833 4 154.5 12s92.5 19.667 134.5 35c53.333 20 93 43.5 119 70.5
s38.333 58.833 37 95.5c0 66.667 -72 174.667 -216 324l103 224c30 -41.333 56.333 -75.833 79 -103.5s43.167 -49.834 61.5 -66.501s35.333 -28.667 51 -36s31.167 -11 46.5 -11c46.667 0 84 23 112 69c24 36.667 36 73.667 36 111c0 44.667 14.667 67 44 67
c30 0 45 -22.333 45 -67c0 -35.333 11.667 -72.333 35 -111c28 -46 65.333 -69 112 -69c38 0 70.667 23 98 69c10.667 20 18.667 39 24 57s8 36 8 54c0 44.667 15.333 67 46 67c29.333 0 44 -22.333 44 -67c0 -38.667 15.667 -75.667 47 -111c38.667 -46 90 -69 154 -69
c27.333 0 41 -11.333 41 -34v-180v0zM1302 716.003l-132 133l132 130l132 -130zM1376 -496.997l-132 133l132 130l132 -130z" />
    <glyph glyph-name="uni069B.init" unicode="&#x69b;" horiz-adv-x="1301" 
d="M1261 363c0 -96 -20.333 -178.333 -61 -247c-23.333 -38.667 -50.666 -67.667 -81.999 -87s-66 -29 -104 -29c-58 0 -105.333 13 -142 39c-13.333 10.667 -26.833 24 -40.5 40s-27.5 35.667 -41.5 59c-52 -92 -116 -138 -192 -138c-58 0 -104.333 13 -139 39
c-14.667 10.667 -28.5 24 -41.5 40s-25.833 35.667 -38.5 59c-20.667 -24.667 -41.667 -45.334 -63 -62.001s-43 -30.334 -65 -41.001c-26 -12 -55.667 -20.833 -89 -26.5s-70 -8.5 -110 -8.5h-57c-27.333 0 -41 11.667 -41 35v180c0 22.667 13.667 34 41 34h96
c40 0 75.167 4.66699 105.5 14s56.166 23 77.499 41c36.667 32 55 73.667 55 125c0 44.667 15.333 67 46 67c30 0 45 -22.333 45 -67c0 -18 2.66699 -36.167 8 -54.5s14.333 -37.166 27 -56.499c32 -46 71.667 -69 119 -69c48.667 0 89 23 121 69
c24 36.667 36 73.667 36 111c0 44.667 14.667 67 44 67c30 0 45 -22.333 45 -67c0 -37.333 12.333 -74.333 37 -111c32 -46 75 -69 129 -69c109.333 0 164 30 164 90c0 24.667 -32.333 75.667 -97 153l110 184c65.333 -87.333 98 -191.666 98 -312.999zM587 -454l-119 121
l119 119l119 -119zM723 -690l-120 121l120 119l119 -119zM859 -454l-119 121l119 119l119 -119z" />
    <glyph glyph-name="uni069B.medi" unicode="&#x69b;" horiz-adv-x="1450" 
d="M1497 35c0 -23.333 -13.999 -34.999 -41.999 -34.999h-24c-88 0 -163 46 -225 138c-54 -92 -118 -138 -192 -138c-58 0 -105.333 13 -142 39c-13.333 10.667 -26.833 24 -40.5 40s-27.5 35.667 -41.5 59c-52 -92 -116 -138 -192 -138c-58 0 -104.333 13 -139 39
c-14.667 10.667 -28.5 24 -41.5 40s-25.833 35.667 -38.5 59c-20.667 -24.667 -41.667 -45.334 -63 -62.001s-43 -30.334 -65 -41.001c-26 -12 -55.667 -20.833 -89 -26.5s-70 -8.5 -110 -8.5h-57c-27.333 0 -41 11.667 -41 35v180c0 22.667 13.667 34 41 34h96
c40 0 75.167 4.66699 105.5 14s56.166 23 77.499 41c36.667 32 55 73.667 55 125c0 44.667 15.333 67 46 67c30 0 45 -22.333 45 -67c0 -18 2.66699 -36.167 8 -54.5s14.333 -37.166 27 -56.499c32 -46 71.667 -69 119 -69c54.667 0 98 23 130 69
c25.333 36.667 38 73.667 38 111c0 44.667 14.667 67 44 67c30 0 45 -22.333 45 -67c0 -37.333 12.333 -74.333 37 -111c32 -46 73.333 -69 124 -69c57.333 0 102 23 134 69c26 36 39 73 39 111c0 44.667 14.667 67 44 67c30 0 45 -22.333 45 -67c0 -38 15 -75 45 -111
c38.667 -46 90.667 -69 156 -69c28 0 42 -11.333 42 -34v-180v0zM591.001 -456.999l-119 121l119 119l119 -119zM727.001 -692.999l-120 121l120 119l119 -119zM863.001 -456.999l-119 121l119 119l119 -119z" />
    <glyph glyph-name="uni069B.fina" unicode="&#x69b;" horiz-adv-x="1931" 
d="M1977 35c0 -23.333 -13.665 -34.9971 -40.998 -34.9971h-24c-88.667 0 -164 46 -226 138c-53.333 -92 -115.666 -138 -186.999 -138c-72.667 0 -135 43.333 -187 130c-4 -16.667 -11.333 -32.834 -22 -48.501s-22.834 -29.5 -36.501 -41.5s-28.167 -21.667 -43.5 -29
s-29.333 -11 -42 -11c-35.333 0 -59.333 4.33301 -72 13v-99c0 -150.667 -53 -265 -159 -343c-100.667 -76.667 -241.667 -115 -423 -115c-132.667 0 -236.334 32 -311.001 96c-80.667 71.333 -121 176 -121 314c0 82 28 179 84 291c34.667 68 64 102 88 102
c22.667 0 34 -11 34 -33l-40 -109c-13.333 -36 -23.333 -68 -30 -96s-10 -52.333 -10 -73c0 -82.667 34.333 -144.334 103 -185.001c61.333 -38.667 144.666 -58 249.999 -58c55.333 0 106.833 4 154.5 12s92.5 19.667 134.5 35c53.333 20 93 43.5 119 70.5
s38.333 58.833 37 95.5c0 66.667 -72 174.667 -216 324l103 224c30 -41.333 56.333 -75.833 79 -103.5s43.167 -49.834 61.5 -66.501s35.333 -28.667 51 -36s31.167 -11 46.5 -11c46.667 0 84 23 112 69c24 36.667 36 73.667 36 111c0 44.667 14.667 67 44 67
c30 0 45 -22.333 45 -67c0 -35.333 11.667 -72.333 35 -111c28 -46 65.333 -69 112 -69c38 0 70.667 23 98 69c10.667 20 18.667 39 24 57s8 36 8 54c0 44.667 15.333 67 46 67c29.333 0 44 -22.333 44 -67c0 -38.667 15.667 -75.667 47 -111c38.667 -46 90 -69 154 -69
c27.333 0 41 -11.333 41 -34v-180v0zM1326 -457.997l-119 121l119 119l119 -119zM1462 -693.997l-120 121l120 119l119 -119zM1598 -457.997l-119 121l119 119l119 -119z" />
    <glyph glyph-name="uni069C.init" unicode="&#x69c;" horiz-adv-x="1301" 
d="M1261 363c0 -96 -20.333 -178.333 -61 -247c-23.333 -38.667 -50.666 -67.667 -81.999 -87s-66 -29 -104 -29c-58 0 -105.333 13 -142 39c-13.333 10.667 -26.833 24 -40.5 40s-27.5 35.667 -41.5 59c-52 -92 -116 -138 -192 -138c-58 0 -104.333 13 -139 39
c-14.667 10.667 -28.5 24 -41.5 40s-25.833 35.667 -38.5 59c-20.667 -24.667 -41.667 -45.334 -63 -62.001s-43 -30.334 -65 -41.001c-26 -12 -55.667 -20.833 -89 -26.5s-70 -8.5 -110 -8.5h-57c-27.333 0 -41 11.667 -41 35v180c0 22.667 13.667 34 41 34h96
c40 0 75.167 4.66699 105.5 14s56.166 23 77.499 41c36.667 32 55 73.667 55 125c0 44.667 15.333 67 46 67c30 0 45 -22.333 45 -67c0 -18 2.66699 -36.167 8 -54.5s14.333 -37.166 27 -56.499c32 -46 71.667 -69 119 -69c48.667 0 89 23 121 69
c24 36.667 36 73.667 36 111c0 44.667 14.667 67 44 67c30 0 45 -22.333 45 -67c0 -37.333 12.333 -74.333 37 -111c32 -46 75 -69 129 -69c109.333 0 164 30 164 90c0 24.667 -32.333 75.667 -97 153l110 184c65.333 -87.333 98 -191.666 98 -312.999zM591 -440l-119 121
l119 119l119 -119zM727 -676l-120 121l120 119l119 -119zM863 -440l-119 121l119 119l119 -119zM744 965l-119 120l119 121l119 -121zM880 728l-120 119l120 122l119 -122zM608 728l-120 119l120 122l119 -122z" />
    <glyph glyph-name="uni069C.medi" unicode="&#x69c;" horiz-adv-x="1450" 
d="M1497 35c0 -23.333 -13.999 -34.999 -41.999 -34.999h-24c-88 0 -163 46 -225 138c-54 -92 -118 -138 -192 -138c-58 0 -105.333 13 -142 39c-13.333 10.667 -26.833 24 -40.5 40s-27.5 35.667 -41.5 59c-52 -92 -116 -138 -192 -138c-58 0 -104.333 13 -139 39
c-14.667 10.667 -28.5 24 -41.5 40s-25.833 35.667 -38.5 59c-20.667 -24.667 -41.667 -45.334 -63 -62.001s-43 -30.334 -65 -41.001c-26 -12 -55.667 -20.833 -89 -26.5s-70 -8.5 -110 -8.5h-57c-27.333 0 -41 11.667 -41 35v180c0 22.667 13.667 34 41 34h96
c40 0 75.167 4.66699 105.5 14s56.166 23 77.499 41c36.667 32 55 73.667 55 125c0 44.667 15.333 67 46 67c30 0 45 -22.333 45 -67c0 -18 2.66699 -36.167 8 -54.5s14.333 -37.166 27 -56.499c32 -46 71.667 -69 119 -69c54.667 0 98 23 130 69
c25.333 36.667 38 73.667 38 111c0 44.667 14.667 67 44 67c30 0 45 -22.333 45 -67c0 -37.333 12.333 -74.333 37 -111c32 -46 73.333 -69 124 -69c57.333 0 102 23 134 69c26 36 39 73 39 111c0 44.667 14.667 67 44 67c30 0 45 -22.333 45 -67c0 -38 15 -75 45 -111
c38.667 -46 90.667 -69 156 -69c28 0 42 -11.333 42 -34v-180v0zM598.001 -435.999l-119 121l119 119l119 -119zM734.001 -671.999l-120 121l120 119l119 -119zM870.001 -435.999l-119 121l119 119l119 -119zM756.001 935.001l-119 120l119 121l119 -121zM892.001 698.001
l-120 119l120 122l119 -122zM620.001 698.001l-120 119l120 122l119 -122z" />
    <glyph glyph-name="uni069C.fina" unicode="&#x69c;" horiz-adv-x="1931" 
d="M1977 35c0 -23.333 -13.665 -34.9971 -40.998 -34.9971h-24c-88.667 0 -164 46 -226 138c-53.333 -92 -115.666 -138 -186.999 -138c-72.667 0 -135 43.333 -187 130c-4 -16.667 -11.333 -32.834 -22 -48.501s-22.834 -29.5 -36.501 -41.5s-28.167 -21.667 -43.5 -29
s-29.333 -11 -42 -11c-35.333 0 -59.333 4.33301 -72 13v-99c0 -150.667 -53 -265 -159 -343c-100.667 -76.667 -241.667 -115 -423 -115c-132.667 0 -236.334 32 -311.001 96c-80.667 71.333 -121 176 -121 314c0 82 28 179 84 291c34.667 68 64 102 88 102
c22.667 0 34 -11 34 -33l-40 -109c-13.333 -36 -23.333 -68 -30 -96s-10 -52.333 -10 -73c0 -82.667 34.333 -144.334 103 -185.001c61.333 -38.667 144.666 -58 249.999 -58c55.333 0 106.833 4 154.5 12s92.5 19.667 134.5 35c53.333 20 93 43.5 119 70.5
s38.333 58.833 37 95.5c0 66.667 -72 174.667 -216 324l103 224c30 -41.333 56.333 -75.833 79 -103.5s43.167 -49.834 61.5 -66.501s35.333 -28.667 51 -36s31.167 -11 46.5 -11c46.667 0 84 23 112 69c24 36.667 36 73.667 36 111c0 44.667 14.667 67 44 67
c30 0 45 -22.333 45 -67c0 -35.333 11.667 -72.333 35 -111c28 -46 65.333 -69 112 -69c38 0 70.667 23 98 69c10.667 20 18.667 39 24 57s8 36 8 54c0 44.667 15.333 67 46 67c29.333 0 44 -22.333 44 -67c0 -38.667 15.667 -75.667 47 -111c38.667 -46 90 -69 154 -69
c27.333 0 41 -11.333 41 -34v-180v0zM1274 -447.997l-119 121l119 119l119 -119zM1410 -683.997l-120 121l120 119l119 -119zM1546 -447.997l-119 121l119 119l119 -119zM1360 892.003l-119 120l119 121l119 -121zM1496 655.003l-120 119l120 122l119 -122zM1224 655.003
l-120 119l120 122l119 -122z" />
    <glyph glyph-name="uni069D.init" unicode="&#x69d;" horiz-adv-x="1408" 
d="M1368 441c0 -86 -33.332 -170.333 -99.999 -253c-104 -125.333 -261.667 -188 -473 -188c-120 0 -201.333 3.66699 -244 11c-92 19.333 -157.667 61.666 -197 126.999c-50 -58 -99 -95.333 -147 -112c-48 -17.333 -118.667 -26 -212 -26c-27.333 0 -41 11.667 -41 35v180
c0 22.667 13.667 34 41 34h46c94.667 0 165.667 23 213 69c32 33.333 48 70.333 48 111c0 44.667 15 67 45 67c29.333 0 44 -22.333 44 -67c0 -40.667 11.333 -75.667 34 -105c31.333 -42 80.333 -63 147 -63c218 283.333 407.333 425 568 425
c69.333 0 124.333 -21.333 165 -64c21.333 -21.333 37.166 -47.166 47.499 -77.499s15.5 -64.833 15.5 -103.5zM1218 350c0 38 -20.668 71.332 -62.001 99.999c-19.333 12.667 -39.333 22.334 -60 29.001s-41.667 10 -63 10c-103.333 0 -219.666 -78.333 -348.999 -235
c14 -1.33301 36.833 -2.5 68.5 -3.5s73.5 -1.5 125.5 -1.5c226.667 0 340 33.667 340 101zM621 -417.001l-119 119l119 121l119 -121zM349 -417.001l-119 119l119 121l119 -121z" />
    <glyph glyph-name="uni069D.medi" unicode="&#x69d;" horiz-adv-x="1419" 
d="M1465 35c0 -23.333 -13.665 -35.001 -40.998 -35.001c-114.667 0 -192.334 37.333 -233.001 112c-79.333 -50 -153.333 -82 -222 -96c-52.667 -10.667 -147.667 -16 -285 -16c-164 0 -274 46 -330 138c-50 -58 -99 -95.333 -147 -112c-48 -17.333 -118.667 -26 -212 -26
c-27.333 0 -41 11.667 -41 35v180c0 22.667 13.667 34 41 34h46c94.667 0 165.667 23 213 69c32 33.333 48 70.333 48 111c0 44.667 15 67 45 67c29.333 0 44 -22.333 44 -67c0 -38.667 13 -75 39 -109c36 -44 83.333 -63.667 142 -59c222 283.333 411.333 425 568 425
c69.333 0 124.333 -21.333 165 -64c21.333 -21.333 37.166 -47.166 47.499 -77.499s15.5 -64.833 15.5 -103.5c0 -42 -13.667 -93.333 -41 -154l-15 -31l112 -7c27.333 0 41 -11.333 41 -34v-180zM1218 349.999c0 38 -20.668 71.332 -62.001 99.999
c-19.333 12.667 -39.333 22.334 -60 29.001s-41.667 10 -63 10c-103.333 0 -219.666 -78.333 -348.999 -235c14 -1.33301 36.833 -2.5 68.5 -3.5s73.5 -1.5 125.5 -1.5c226.667 0 340 33.667 340 101zM761.001 -468.002l-119 119l119 121l119 -121zM489.001 -468.002
l-119 119l119 121l119 -121z" />
    <glyph glyph-name="uni069D.fina" unicode="&#x69d;" horiz-adv-x="1903" 
d="M1949 35c0 -23.333 -13.6631 -35.001 -40.9961 -35.001c-112.667 0 -190.334 37.333 -233.001 112c-109.333 -74.667 -241 -112 -395 -112c-68 0 -133.667 11.667 -197 35c5.33301 -25.333 9.33301 -48.166 12 -68.499s4 -37.833 4 -52.5
c1.33301 -76 -11.334 -142.167 -38.001 -198.5s-66.667 -104.5 -120 -144.5c-102.667 -76.667 -245 -115 -427 -115c-132.667 0 -236.334 32 -311.001 96c-80.667 71.333 -121 176 -121 314c0 82 28 179 84 291c34.667 68 64 102 88 102c22.667 0 34 -11 34 -33l-40 -109
c-13.333 -36 -23.333 -68 -30 -96s-10 -52.333 -10 -73c0 -82.667 34.333 -144.334 103 -185.001c61.333 -38.667 144.666 -58 249.999 -58c55.333 0 106.833 4 154.5 12s92.5 19.667 134.5 35c53.333 20 93 43.5 119 70.5s38.333 58.833 37 95.5
c0 66.667 -72 174.667 -216 324l103 224c62.667 -86.667 121.667 -150 177 -190c105.333 138 204.333 240.833 297 308.5s178.667 101.5 258 101.5c69.333 0 123.333 -21.333 162 -64c44 -42.667 66 -103 66 -181c0 -40 -13.667 -91.333 -41 -154
c-3.33301 -4.66699 -6 -9.66699 -8 -15s-4.66699 -10.666 -8 -15.999c18 -2.66699 36.167 -4.5 54.5 -5.5s36.833 -1.5 55.5 -1.5c28.667 0 43 -11.333 43 -34v-180zM1704 349.999c0 38 -21.334 71.332 -64.001 99.999c-19.333 12.667 -39.333 22.334 -60 29.001
s-41.667 10 -63 10c-103.333 0 -219.666 -78.333 -348.999 -235c14.667 -1.33301 37.667 -2.5 69 -3.5s73 -1.5 125 -1.5c228 0 342 33.667 342 101zM1628 -437.002l-119 119l119 121l119 -121zM1356 -437.002l-119 119l119 121l119 -121z" />
    <glyph glyph-name="uni069E.init" unicode="&#x69e;" horiz-adv-x="1408" 
d="M1368 441c0 -86 -33.332 -170.333 -99.999 -253c-104 -125.333 -261.667 -188 -473 -188c-120 0 -201.333 3.66699 -244 11c-92 19.333 -157.667 61.666 -197 126.999c-50 -58 -99 -95.333 -147 -112c-48 -17.333 -118.667 -26 -212 -26c-27.333 0 -41 11.667 -41 35v180
c0 22.667 13.667 34 41 34h46c94.667 0 165.667 23 213 69c32 33.333 48 70.333 48 111c0 44.667 15 67 45 67c29.333 0 44 -22.333 44 -67c0 -40.667 11.333 -75.667 34 -105c31.333 -42 80.333 -63 147 -63c218 283.333 407.333 425 568 425
c69.333 0 124.333 -21.333 165 -64c21.333 -21.333 37.166 -47.166 47.499 -77.499s15.5 -64.833 15.5 -103.5zM1218 350c0 38 -20.668 71.332 -62.001 99.999c-19.333 12.667 -39.333 22.334 -60 29.001s-41.667 10 -63 10c-103.333 0 -219.666 -78.333 -348.999 -235
c14 -1.33301 36.833 -2.5 68.5 -3.5s73.5 -1.5 125.5 -1.5c226.667 0 340 33.667 340 101zM575 1034l-119 120l119 121l119 -121zM711 796.999l-120 119l120 122l119 -122zM439 796.999l-120 119l120 122l119 -122z" />
    <glyph glyph-name="uni069E.medi" unicode="&#x69e;" horiz-adv-x="1419" 
d="M1465 35c0 -23.333 -13.665 -35.001 -40.998 -35.001c-114.667 0 -192.334 37.333 -233.001 112c-79.333 -50 -153.333 -82 -222 -96c-52.667 -10.667 -147.667 -16 -285 -16c-164 0 -274 46 -330 138c-50 -58 -99 -95.333 -147 -112c-48 -17.333 -118.667 -26 -212 -26
c-27.333 0 -41 11.667 -41 35v180c0 22.667 13.667 34 41 34h46c94.667 0 165.667 23 213 69c32 33.333 48 70.333 48 111c0 44.667 15 67 45 67c29.333 0 44 -22.333 44 -67c0 -38.667 13 -75 39 -109c36 -44 83.333 -63.667 142 -59c222 283.333 411.333 425 568 425
c69.333 0 124.333 -21.333 165 -64c21.333 -21.333 37.166 -47.166 47.499 -77.499s15.5 -64.833 15.5 -103.5c0 -42 -13.667 -93.333 -41 -154l-15 -31l112 -7c27.333 0 41 -11.333 41 -34v-180zM1218 349.999c0 38 -20.668 71.332 -62.001 99.999
c-19.333 12.667 -39.333 22.334 -60 29.001s-41.667 10 -63 10c-103.333 0 -219.666 -78.333 -348.999 -235c14 -1.33301 36.833 -2.5 68.5 -3.5s73.5 -1.5 125.5 -1.5c226.667 0 340 33.667 340 101zM565.001 998.998l-119 120l119 121l119 -121zM701.001 761.998l-120 119
l120 122l119 -122zM429.001 761.998l-120 119l120 122l119 -122z" />
    <glyph glyph-name="uni069E.fina" unicode="&#x69e;" horiz-adv-x="1903" 
d="M1949 35c0 -23.333 -13.6631 -35.001 -40.9961 -35.001c-112.667 0 -190.334 37.333 -233.001 112c-109.333 -74.667 -241 -112 -395 -112c-68 0 -133.667 11.667 -197 35c5.33301 -25.333 9.33301 -48.166 12 -68.499s4 -37.833 4 -52.5
c1.33301 -76 -11.334 -142.167 -38.001 -198.5s-66.667 -104.5 -120 -144.5c-102.667 -76.667 -245 -115 -427 -115c-132.667 0 -236.334 32 -311.001 96c-80.667 71.333 -121 176 -121 314c0 82 28 179 84 291c34.667 68 64 102 88 102c22.667 0 34 -11 34 -33l-40 -109
c-13.333 -36 -23.333 -68 -30 -96s-10 -52.333 -10 -73c0 -82.667 34.333 -144.334 103 -185.001c61.333 -38.667 144.666 -58 249.999 -58c55.333 0 106.833 4 154.5 12s92.5 19.667 134.5 35c53.333 20 93 43.5 119 70.5s38.333 58.833 37 95.5
c0 66.667 -72 174.667 -216 324l103 224c62.667 -86.667 121.667 -150 177 -190c105.333 138 204.333 240.833 297 308.5s178.667 101.5 258 101.5c69.333 0 123.333 -21.333 162 -64c44 -42.667 66 -103 66 -181c0 -40 -13.667 -91.333 -41 -154
c-3.33301 -4.66699 -6 -9.66699 -8 -15s-4.66699 -10.666 -8 -15.999c18 -2.66699 36.167 -4.5 54.5 -5.5s36.833 -1.5 55.5 -1.5c28.667 0 43 -11.333 43 -34v-180zM1704 349.999c0 38 -21.334 71.332 -64.001 99.999c-19.333 12.667 -39.333 22.334 -60 29.001
s-41.667 10 -63 10c-103.333 0 -219.666 -78.333 -348.999 -235c14.667 -1.33301 37.667 -2.5 69 -3.5s73 -1.5 125 -1.5c228 0 342 33.667 342 101zM1141 1035l-119 120l119 121l119 -121zM1277 797.998l-120 119l120 122l119 -122zM1005 797.998l-120 119l120 122
l119 -122z" />
    <glyph glyph-name="uni069F.medi" unicode="&#x69f;" horiz-adv-x="1346" 
d="M1392 35c0 -23.333 -13.6699 -35.0039 -41.0029 -35.0039c-83.333 0 -144.666 10.667 -183.999 32c-34 16 -62 45.667 -84 89c-38.667 -40 -113.667 -70.167 -225 -90.5s-261 -30.5 -449 -30.5c-99.333 0 -183.333 39 -252 117c-50 54.667 -75 98.334 -75 131.001
c0 13.333 5.66699 19 17 17l100 -7l207 -9c5.33301 10.667 9 25.334 11 44.001s3 40.667 3 66c0 84 -7 189.333 -21 316s-34.333 276.334 -61 449.001l121 119c27.333 27.333 44 41 50 41s12.333 -7.66699 19 -23c12.667 -44 26.334 -86.333 41.001 -127s30 -80 46 -118
c9.33301 -25.333 8.33301 -38 -3 -38c-10 0 -31.333 7.66699 -64 23c2.66699 -26.667 4.5 -62.667 5.5 -108s1.5 -100.666 1.5 -165.999c0 -134 -14.333 -257 -43 -369l4 -4c214.667 221.333 387.667 332 519 332c66 0 120.333 -20.667 163 -62c42 -42 63 -98.333 63 -169
c0 -50 -19.667 -116.333 -59 -199c18.667 -4.66699 48.334 -7 89.001 -7h60c27.333 0 41 -11.333 41 -34v-180zM1113 348.996c0 38 -21.332 71 -63.999 99c-39.333 27.333 -80.333 41 -123 41c-86.667 0 -213.334 -78.333 -380.001 -235l222 -5c230 -3.33301 345 30 345 100
zM979.998 1088l-119 120l119 121l119 -121zM1116 850.996l-120 119l120 122l119 -122zM843.998 850.996l-120 119l120 122l119 -122z" />
    <glyph glyph-name="uni06A0.init" unicode="&#x6a0;" horiz-adv-x="994" 
d="M833 89l-88 -7.00098c-41.333 -3.33301 -102.5 -9.66602 -183.5 -18.999l-305.5 -37c-55.333 -8.66699 -104.5 -15.167 -147.5 -19.5s-80.833 -6.5 -113.5 -6.5c-27.333 0 -41 11.667 -41 35v180c0 22.667 13.667 34 41 34h50l213 7l-21 27
c-37.333 34.667 -56 78.334 -56 131.001c0 92.667 43.333 182.667 130 270c88 88 179.333 132 274 132c64.667 0 128.667 -30.333 192 -91c58 -56 87 -102 87 -138c0 -10.667 -7.66699 -16 -23 -16c1.33301 0 -3 1.16699 -13 3.5l-47 10.5c-44 11.333 -95.667 17 -155 17
c-198 0 -297 -34.667 -297 -104c0 -38.667 21.333 -77.334 64 -116.001c58.667 -54.667 137 -82 235 -82c137.333 0 244 8 320 24zM529 1256l-119 120l119 121l119 -121zM665 1019l-120 119l120 122l119 -122zM393 1019l-120 119l120 122l119 -122z" />
    <glyph glyph-name="uni06A0.medi" unicode="&#x6a0;" horiz-adv-x="827" 
d="M875 35c0 -23.333 -14 -35.002 -42 -35.002h-65c-115.333 0 -220.333 57.667 -315 173c-54 -65.333 -115 -111.333 -183 -138c-58.667 -23.333 -134.334 -35 -227.001 -35h-48c-27.333 0 -41 11.667 -41 35v180c0 22.667 13.667 34 41 34h117
c36.667 0 75.167 4.33301 115.5 13s82.5 20.667 126.5 36v17l-80 84c-23.333 24.667 -42.666 43.334 -57.999 56.001s-26.333 20 -33 22c-18.667 4.66699 -28 13.334 -28 26.001c0 48.667 20.667 91 62 127c50 46 123 69 219 69c85.333 0 152.333 -13.667 201 -41
c61.333 -31.333 92 -78.666 92 -141.999c0 -31.333 -22.333 -70.333 -67 -117c-20 -20 -39.167 -36.833 -57.5 -50.5s-36.166 -24.834 -53.499 -33.501v-11c35.333 -18 74.166 -31.667 116.499 -41s89.5 -14 141.5 -14h24c28 0 42 -11.333 42 -34v-180v0zM445 1119l-119 120
l119 121l119 -121zM581 881.998l-120 119l120 122l119 -122zM309 881.998l-120 119l120 122l119 -122z" />
    <glyph glyph-name="uni06A0.fina" unicode="&#x6a0;" horiz-adv-x="1165" 
d="M1211 35c0 -23.333 -13.668 -35.0049 -41.001 -35.0049h-117c-34 0 -70.333 7 -109 21s-80 35.667 -124 65c-84 54 -154 118.333 -210 193c-204 -89.333 -306 -216 -306 -380c0 -114 49 -196.667 147 -248c38 -20 80.833 -35.167 128.5 -45.5
s101.834 -15.5 162.501 -15.5c46 0 89.667 1.5 131 4.5s80 7.83301 116 14.5c64 9.33301 94.667 15.333 92 18c6 -2 9 -5 9 -9c0 -12 -13 -30 -39 -54c-18.667 -17.333 -40 -33.166 -64 -47.499s-51.333 -26.5 -82 -36.5c-80 -28 -176 -42 -288 -42
c-93.333 0 -175 10.167 -245 30.5s-128.667 51.5 -176 93.5c-82 70.667 -123 162.667 -123 276c0 209.333 154.667 380 464 512l-80 79c-48 47.333 -78.667 71.333 -92 72c-18 4 -27 13 -27 27c0 48.667 20.333 91.334 61 128.001c50 46 123.333 69 220 69
c80.667 0 147.667 -14.333 201 -43c31.333 -15.333 54.333 -35 69 -59s22 -51.333 22 -82c0 -31.333 -22.333 -68.333 -67 -111c-16.667 -15.333 -34.334 -29.666 -53.001 -42.999s-37.667 -25.666 -57 -36.999v-9c28 -19.333 58.333 -35.166 91 -47.499
s68.334 -21.833 107.001 -28.5c28 -4.66699 61.833 -8.5 101.5 -11.5s85.167 -4.5 136.5 -4.5c27.333 0 41 -11.333 41 -34v-180v0zM595.999 1141l-119 120l119 121l119 -121zM731.999 903.995l-120 119l120 122l119 -122zM459.999 903.995l-120 119l120 122l119 -122z" />
    <glyph glyph-name="afii57459" unicode="&#x6a1;" horiz-adv-x="692" 
d="M639 384c0 -144.667 -41.666 -246.667 -124.999 -306c-71.333 -52 -181.666 -78 -330.999 -78h-188c-27.333 0 -41 11.667 -41 35v180c0 22.667 13.667 34 41 34h236c33.333 0 66 2 98 6s64.667 9.66699 98 17c79.333 18 119 43 119 75c0 17.333 -5 32.666 -15 45.999
c-39.333 -6.66699 -74.833 -11.334 -106.5 -14.001s-60.167 -4 -85.5 -4c-34 0 -63 1.33301 -87 4s-44 7.33398 -60 14.001c-50 20.667 -75 58.667 -75 114c0 42.667 5.16699 85.334 15.5 128.001s25.166 85.667 44.499 129c49.333 103.333 110.666 155 183.999 155
c185.333 0 278 -178.333 278 -535zM480.001 581c-4.66699 25.333 -19.999 52.667 -45.999 82c-16 18 -31.833 31.167 -47.5 39.5s-31.834 12.5 -48.501 12.5c-30 0 -55.667 -7.33301 -77 -22s-32 -34.667 -32 -60c0 -44 46 -66 138 -66c49.333 0 87 4.66699 113 14z" />
    <glyph glyph-name="afii57374" unicode="&#x6a1;" horiz-adv-x="827" 
d="M875 35c0 -23.333 -13.999 -34.999 -41.999 -34.999h-39c-51.333 0 -106.5 9.16699 -165.5 27.5s-121.833 46.5 -188.5 84.5c-32 -21.333 -63.167 -39.166 -93.5 -53.499s-59.833 -25.5 -88.5 -33.5c-31.333 -9.33301 -66.5 -15.833 -105.5 -19.5
s-82.167 -5.5 -129.5 -5.5h-28c-27.333 0 -41 11.667 -41 35v180c0 22.667 13.667 34 41 34h87c34.667 0 66.834 1.5 96.501 4.5s57.167 6.83301 82.5 11.5c-46 48 -69 106.333 -69 175c0 66.667 25 138 75 214c59.333 93.333 130.333 140 213 140
c30 0 56.667 -7.33301 80 -22s44.666 -36.667 63.999 -66c19.333 -28.667 33.833 -61.334 43.5 -98.001s14.5 -77 14.5 -121c0 -22 -2.33301 -43.833 -7 -65.5s-11.667 -44.167 -21 -67.5c-8.66699 -19.333 -17.167 -36.333 -25.5 -51s-17.833 -26.334 -28.5 -35.001
c28 -6 53.667 -10.667 77 -14s43.666 -5 60.999 -5h95c28 0 42 -11.333 42 -34v-180zM589.001 438.001c0 30.667 -15.002 61.668 -45.002 93.001c-15.333 15.333 -30.5 27.333 -45.5 36s-30.167 13 -45.5 13s-31.666 -2.83301 -48.999 -8.5s-35.666 -14.834 -54.999 -27.501
c-42.667 -24 -64 -48.667 -64 -74c0 -29.333 20 -63 60 -101c40 -36 70.333 -54 91 -54c10.667 0 23.5 3.66699 38.5 11s32.833 19 53.5 35c40.667 32 61 57.667 61 77z" />
    <glyph glyph-name="afii52258" unicode="&#x6a1;" horiz-adv-x="1613" 
d="M1659 35c0 -23.333 -13.6621 -34.999 -40.9951 -34.999h-23c-72.667 0 -140 9.66699 -202 29s-120.333 48.333 -175 87c-40 -30 -111.667 -59.333 -215 -88c-60.667 -16.667 -120.167 -29.334 -178.5 -38.001s-115.166 -13 -170.499 -13
c-92.667 0 -172.5 6.66699 -239.5 20s-122.5 33.333 -166.5 60c-95.333 59.333 -143 154.666 -143 285.999c0 34.667 3.66699 68.334 11 101.001s19 65.334 35 98.001c28 58.667 52.333 88 73 88c27.333 0 41 -12.667 41 -38c0 -2 -1.83301 -7.16699 -5.5 -15.5
s-7.5 -19 -11.5 -32s-7.83301 -27.5 -11.5 -43.5s-5.5 -32.667 -5.5 -50c0 -37.333 10.333 -70.5 31 -99.5s52 -53.167 94 -72.5c37.333 -17.333 80.666 -30.333 129.999 -39s104.666 -13 165.999 -13c175.333 0 307 12.667 395 38c-46 44 -69 102.333 -69 175
c0 66.667 25 138 75 214c60 93.333 131.667 140 215 140c55.333 0 102.666 -29.333 141.999 -88c20 -28.667 34.833 -61.334 44.5 -98.001s14.5 -77 14.5 -121c0 -43.333 -9.33301 -87.666 -28 -132.999c-8.66699 -19.333 -17.334 -36.333 -26.001 -51
s-18 -26.334 -28 -35.001c25.333 -6 49.166 -10.667 71.499 -14s44.166 -5 65.499 -5h94c27.333 0 41 -11.333 41 -34v-180zM1375 438.001c0 30.667 -15.0029 61.668 -45.0029 93.001c-14.667 15.333 -29.5 27.333 -44.5 36s-30.5 13 -46.5 13
c-15.333 0 -31.666 -2.83301 -48.999 -8.5s-35.666 -14.834 -54.999 -27.501c-21.333 -12 -37.166 -24.333 -47.499 -37s-15.5 -25 -15.5 -37c0 -30 19.667 -63.667 59 -101c40 -36 70.333 -54 91 -54c10.667 0 23.5 3.66699 38.5 11s32.833 19 53.5 35
c40.667 32 61 57.667 61 77z" />
    <glyph glyph-name="uni06A2.init" unicode="&#x6a2;" horiz-adv-x="692" 
d="M639 384c0 -144.667 -41.666 -246.667 -124.999 -306c-71.333 -52 -181.666 -78 -330.999 -78h-188c-27.333 0 -41 11.667 -41 35v180c0 22.667 13.667 34 41 34h236c33.333 0 66 2 98 6s64.667 9.66699 98 17c79.333 18 119 43 119 75c0 17.333 -5 32.666 -15 45.999
c-39.333 -6.66699 -74.833 -11.334 -106.5 -14.001s-60.167 -4 -85.5 -4c-34 0 -63 1.33301 -87 4s-44 7.33398 -60 14.001c-50 20.667 -75 58.667 -75 114c0 42.667 5.16699 85.334 15.5 128.001s25.166 85.667 44.499 129c49.333 103.333 110.666 155 183.999 155
c185.333 0 278 -178.333 278 -535zM480.001 581c-4.66699 25.333 -19.999 52.667 -45.999 82c-16 18 -31.833 31.167 -47.5 39.5s-31.834 12.5 -48.501 12.5c-30 0 -55.667 -7.33301 -77 -22s-32 -34.667 -32 -60c0 -44 46 -66 138 -66c49.333 0 87 4.66699 113 14z
M395.002 -451.999l-132 133l132 130l132 -130z" />
    <glyph glyph-name="uni06A2.medi" unicode="&#x6a2;" horiz-adv-x="827" 
d="M875 35c0 -23.333 -13.999 -34.999 -41.999 -34.999h-39c-51.333 0 -106.5 9.16699 -165.5 27.5s-121.833 46.5 -188.5 84.5c-32 -21.333 -63.167 -39.166 -93.5 -53.499s-59.833 -25.5 -88.5 -33.5c-31.333 -9.33301 -66.5 -15.833 -105.5 -19.5
s-82.167 -5.5 -129.5 -5.5h-28c-27.333 0 -41 11.667 -41 35v180c0 22.667 13.667 34 41 34h87c34.667 0 66.834 1.5 96.501 4.5s57.167 6.83301 82.5 11.5c-46 48 -69 106.333 -69 175c0 66.667 25 138 75 214c59.333 93.333 130.333 140 213 140
c30 0 56.667 -7.33301 80 -22s44.666 -36.667 63.999 -66c19.333 -28.667 33.833 -61.334 43.5 -98.001s14.5 -77 14.5 -121c0 -22 -2.33301 -43.833 -7 -65.5s-11.667 -44.167 -21 -67.5c-8.66699 -19.333 -17.167 -36.333 -25.5 -51s-17.833 -26.334 -28.5 -35.001
c28 -6 53.667 -10.667 77 -14s43.666 -5 60.999 -5h95c28 0 42 -11.333 42 -34v-180zM589.001 438.001c0 30.667 -15.002 61.668 -45.002 93.001c-15.333 15.333 -30.5 27.333 -45.5 36s-30.167 13 -45.5 13s-31.666 -2.83301 -48.999 -8.5s-35.666 -14.834 -54.999 -27.501
c-42.667 -24 -64 -48.667 -64 -74c0 -29.333 20 -63 60 -101c40 -36 70.333 -54 91 -54c10.667 0 23.5 3.66699 38.5 11s32.833 19 53.5 35c40.667 32 61 57.667 61 77zM424.999 -466.998l-132 133l132 130l132 -130z" />
    <glyph glyph-name="uni06A2.fina" unicode="&#x6a2;" horiz-adv-x="1613" 
d="M1659 35c0 -23.333 -13.6621 -34.999 -40.9951 -34.999h-23c-72.667 0 -140 9.66699 -202 29s-120.333 48.333 -175 87c-40 -30 -111.667 -59.333 -215 -88c-60.667 -16.667 -120.167 -29.334 -178.5 -38.001s-115.166 -13 -170.499 -13
c-92.667 0 -172.5 6.66699 -239.5 20s-122.5 33.333 -166.5 60c-95.333 59.333 -143 154.666 -143 285.999c0 34.667 3.66699 68.334 11 101.001s19 65.334 35 98.001c28 58.667 52.333 88 73 88c27.333 0 41 -12.667 41 -38c0 -2 -1.83301 -7.16699 -5.5 -15.5
s-7.5 -19 -11.5 -32s-7.83301 -27.5 -11.5 -43.5s-5.5 -32.667 -5.5 -50c0 -37.333 10.333 -70.5 31 -99.5s52 -53.167 94 -72.5c37.333 -17.333 80.666 -30.333 129.999 -39s104.666 -13 165.999 -13c175.333 0 307 12.667 395 38c-46 44 -69 102.333 -69 175
c0 66.667 25 138 75 214c60 93.333 131.667 140 215 140c55.333 0 102.666 -29.333 141.999 -88c20 -28.667 34.833 -61.334 44.5 -98.001s14.5 -77 14.5 -121c0 -43.333 -9.33301 -87.666 -28 -132.999c-8.66699 -19.333 -17.334 -36.333 -26.001 -51
s-18 -26.334 -28 -35.001c25.333 -6 49.166 -10.667 71.499 -14s44.166 -5 65.499 -5h94c27.333 0 41 -11.333 41 -34v-180zM1375 438.001c0 30.667 -15.0029 61.668 -45.0029 93.001c-14.667 15.333 -29.5 27.333 -44.5 36s-30.5 13 -46.5 13
c-15.333 0 -31.666 -2.83301 -48.999 -8.5s-35.666 -14.834 -54.999 -27.501c-21.333 -12 -37.166 -24.333 -47.499 -37s-15.5 -25 -15.5 -37c0 -30 19.667 -63.667 59 -101c40 -36 70.333 -54 91 -54c10.667 0 23.5 3.66699 38.5 11s32.833 19 53.5 35
c40.667 32 61 57.667 61 77zM1186 -442.998l-132 133l132 130l132 -130z" />
    <glyph glyph-name="uni06A3.init" unicode="&#x6a3;" horiz-adv-x="692" 
d="M639 384c0 -144.667 -41.666 -246.667 -124.999 -306c-71.333 -52 -181.666 -78 -330.999 -78h-188c-27.333 0 -41 11.667 -41 35v180c0 22.667 13.667 34 41 34h236c33.333 0 66 2 98 6s64.667 9.66699 98 17c79.333 18 119 43 119 75c0 17.333 -5 32.666 -15 45.999
c-39.333 -6.66699 -74.833 -11.334 -106.5 -14.001s-60.167 -4 -85.5 -4c-34 0 -63 1.33301 -87 4s-44 7.33398 -60 14.001c-50 20.667 -75 58.667 -75 114c0 42.667 5.16699 85.334 15.5 128.001s25.166 85.667 44.499 129c49.333 103.333 110.666 155 183.999 155
c185.333 0 278 -178.333 278 -535zM480.001 581c-4.66699 25.333 -19.999 52.667 -45.999 82c-16 18 -31.833 31.167 -47.5 39.5s-31.834 12.5 -48.501 12.5c-30 0 -55.667 -7.33301 -77 -22s-32 -34.667 -32 -60c0 -44 46 -66 138 -66c49.333 0 87 4.66699 113 14z
M326.002 1078l-132 133l132 130l132 -130zM332.002 -466.999l-132 133l132 130l132 -130z" />
    <glyph glyph-name="uni06A3.medi" unicode="&#x6a3;" horiz-adv-x="827" 
d="M875 35c0 -23.333 -13.999 -34.999 -41.999 -34.999h-39c-51.333 0 -106.5 9.16699 -165.5 27.5s-121.833 46.5 -188.5 84.5c-32 -21.333 -63.167 -39.166 -93.5 -53.499s-59.833 -25.5 -88.5 -33.5c-31.333 -9.33301 -66.5 -15.833 -105.5 -19.5
s-82.167 -5.5 -129.5 -5.5h-28c-27.333 0 -41 11.667 -41 35v180c0 22.667 13.667 34 41 34h87c34.667 0 66.834 1.5 96.501 4.5s57.167 6.83301 82.5 11.5c-46 48 -69 106.333 -69 175c0 66.667 25 138 75 214c59.333 93.333 130.333 140 213 140
c30 0 56.667 -7.33301 80 -22s44.666 -36.667 63.999 -66c19.333 -28.667 33.833 -61.334 43.5 -98.001s14.5 -77 14.5 -121c0 -22 -2.33301 -43.833 -7 -65.5s-11.667 -44.167 -21 -67.5c-8.66699 -19.333 -17.167 -36.333 -25.5 -51s-17.833 -26.334 -28.5 -35.001
c28 -6 53.667 -10.667 77 -14s43.666 -5 60.999 -5h95c28 0 42 -11.333 42 -34v-180zM589.001 438.001c0 30.667 -15.002 61.668 -45.002 93.001c-15.333 15.333 -30.5 27.333 -45.5 36s-30.167 13 -45.5 13s-31.666 -2.83301 -48.999 -8.5s-35.666 -14.834 -54.999 -27.501
c-42.667 -24 -64 -48.667 -64 -74c0 -29.333 20 -63 60 -101c40 -36 70.333 -54 91 -54c10.667 0 23.5 3.66699 38.5 11s32.833 19 53.5 35c40.667 32 61 57.667 61 77zM444.999 953.002l-132 133l132 130l132 -130zM435.999 -456.998l-132 133l132 130l132 -130z" />
    <glyph glyph-name="uni06A3.fina" unicode="&#x6a3;" horiz-adv-x="1613" 
d="M1659 35c0 -23.333 -13.6621 -34.999 -40.9951 -34.999h-23c-72.667 0 -140 9.66699 -202 29s-120.333 48.333 -175 87c-40 -30 -111.667 -59.333 -215 -88c-60.667 -16.667 -120.167 -29.334 -178.5 -38.001s-115.166 -13 -170.499 -13
c-92.667 0 -172.5 6.66699 -239.5 20s-122.5 33.333 -166.5 60c-95.333 59.333 -143 154.666 -143 285.999c0 34.667 3.66699 68.334 11 101.001s19 65.334 35 98.001c28 58.667 52.333 88 73 88c27.333 0 41 -12.667 41 -38c0 -2 -1.83301 -7.16699 -5.5 -15.5
s-7.5 -19 -11.5 -32s-7.83301 -27.5 -11.5 -43.5s-5.5 -32.667 -5.5 -50c0 -37.333 10.333 -70.5 31 -99.5s52 -53.167 94 -72.5c37.333 -17.333 80.666 -30.333 129.999 -39s104.666 -13 165.999 -13c175.333 0 307 12.667 395 38c-46 44 -69 102.333 -69 175
c0 66.667 25 138 75 214c60 93.333 131.667 140 215 140c55.333 0 102.666 -29.333 141.999 -88c20 -28.667 34.833 -61.334 44.5 -98.001s14.5 -77 14.5 -121c0 -43.333 -9.33301 -87.666 -28 -132.999c-8.66699 -19.333 -17.334 -36.333 -26.001 -51
s-18 -26.334 -28 -35.001c25.333 -6 49.166 -10.667 71.499 -14s44.166 -5 65.499 -5h94c27.333 0 41 -11.333 41 -34v-180zM1375 438.001c0 30.667 -15.0029 61.668 -45.0029 93.001c-14.667 15.333 -29.5 27.333 -44.5 36s-30.5 13 -46.5 13
c-15.333 0 -31.666 -2.83301 -48.999 -8.5s-35.666 -14.834 -54.999 -27.501c-21.333 -12 -37.166 -24.333 -47.499 -37s-15.5 -25 -15.5 -37c0 -30 19.667 -63.667 59 -101c40 -36 70.333 -54 91 -54c10.667 0 23.5 3.66699 38.5 11s32.833 19 53.5 35
c40.667 32 61 57.667 61 77zM1230 951.002l-132 133l132 130l132 -130zM1222 -384.998l-132 133l132 130l132 -130z" />
    <glyph glyph-name="uni06A5.init" unicode="&#x6a5;" horiz-adv-x="692" 
d="M639 384c0 -144.667 -41.666 -246.667 -124.999 -306c-71.333 -52 -181.666 -78 -330.999 -78h-188c-27.333 0 -41 11.667 -41 35v180c0 22.667 13.667 34 41 34h236c33.333 0 66 2 98 6s64.667 9.66699 98 17c79.333 18 119 43 119 75c0 17.333 -5 32.666 -15 45.999
c-39.333 -6.66699 -74.833 -11.334 -106.5 -14.001s-60.167 -4 -85.5 -4c-34 0 -63 1.33301 -87 4s-44 7.33398 -60 14.001c-50 20.667 -75 58.667 -75 114c0 42.667 5.16699 85.334 15.5 128.001s25.166 85.667 44.499 129c49.333 103.333 110.666 155 183.999 155
c185.333 0 278 -178.333 278 -535zM480.001 581c-4.66699 25.333 -19.999 52.667 -45.999 82c-16 18 -31.833 31.167 -47.5 39.5s-31.834 12.5 -48.501 12.5c-30 0 -55.667 -7.33301 -77 -22s-32 -34.667 -32 -60c0 -44 46 -66 138 -66c49.333 0 87 4.66699 113 14z
M162.002 -438.999l-119 121l119 119l119 -119zM298.002 -674.999l-120 121l120 119l119 -119zM434.002 -438.999l-119 121l119 119l119 -119z" />
    <glyph glyph-name="uni06A5.medi" unicode="&#x6a5;" horiz-adv-x="827" 
d="M875 35c0 -23.333 -13.999 -34.999 -41.999 -34.999h-39c-51.333 0 -106.5 9.16699 -165.5 27.5s-121.833 46.5 -188.5 84.5c-32 -21.333 -63.167 -39.166 -93.5 -53.499s-59.833 -25.5 -88.5 -33.5c-31.333 -9.33301 -66.5 -15.833 -105.5 -19.5
s-82.167 -5.5 -129.5 -5.5h-28c-27.333 0 -41 11.667 -41 35v180c0 22.667 13.667 34 41 34h87c34.667 0 66.834 1.5 96.501 4.5s57.167 6.83301 82.5 11.5c-46 48 -69 106.333 -69 175c0 66.667 25 138 75 214c59.333 93.333 130.333 140 213 140
c30 0 56.667 -7.33301 80 -22s44.666 -36.667 63.999 -66c19.333 -28.667 33.833 -61.334 43.5 -98.001s14.5 -77 14.5 -121c0 -22 -2.33301 -43.833 -7 -65.5s-11.667 -44.167 -21 -67.5c-8.66699 -19.333 -17.167 -36.333 -25.5 -51s-17.833 -26.334 -28.5 -35.001
c28 -6 53.667 -10.667 77 -14s43.666 -5 60.999 -5h95c28 0 42 -11.333 42 -34v-180zM589.001 438.001c0 30.667 -15.002 61.668 -45.002 93.001c-15.333 15.333 -30.5 27.333 -45.5 36s-30.167 13 -45.5 13s-31.666 -2.83301 -48.999 -8.5s-35.666 -14.834 -54.999 -27.501
c-42.667 -24 -64 -48.667 -64 -74c0 -29.333 20 -63 60 -101c40 -36 70.333 -54 91 -54c10.667 0 23.5 3.66699 38.5 11s32.833 19 53.5 35c40.667 32 61 57.667 61 77zM289.999 -457.998l-119 121l119 119l119 -119zM425.999 -693.998l-120 121l120 119l119 -119z
M561.999 -457.998l-119 121l119 119l119 -119z" />
    <glyph glyph-name="uni06A5.fina" unicode="&#x6a5;" horiz-adv-x="1613" 
d="M1659 35c0 -23.333 -13.6621 -34.999 -40.9951 -34.999h-23c-72.667 0 -140 9.66699 -202 29s-120.333 48.333 -175 87c-40 -30 -111.667 -59.333 -215 -88c-60.667 -16.667 -120.167 -29.334 -178.5 -38.001s-115.166 -13 -170.499 -13
c-92.667 0 -172.5 6.66699 -239.5 20s-122.5 33.333 -166.5 60c-95.333 59.333 -143 154.666 -143 285.999c0 34.667 3.66699 68.334 11 101.001s19 65.334 35 98.001c28 58.667 52.333 88 73 88c27.333 0 41 -12.667 41 -38c0 -2 -1.83301 -7.16699 -5.5 -15.5
s-7.5 -19 -11.5 -32s-7.83301 -27.5 -11.5 -43.5s-5.5 -32.667 -5.5 -50c0 -37.333 10.333 -70.5 31 -99.5s52 -53.167 94 -72.5c37.333 -17.333 80.666 -30.333 129.999 -39s104.666 -13 165.999 -13c175.333 0 307 12.667 395 38c-46 44 -69 102.333 -69 175
c0 66.667 25 138 75 214c60 93.333 131.667 140 215 140c55.333 0 102.666 -29.333 141.999 -88c20 -28.667 34.833 -61.334 44.5 -98.001s14.5 -77 14.5 -121c0 -43.333 -9.33301 -87.666 -28 -132.999c-8.66699 -19.333 -17.334 -36.333 -26.001 -51
s-18 -26.334 -28 -35.001c25.333 -6 49.166 -10.667 71.499 -14s44.166 -5 65.499 -5h94c27.333 0 41 -11.333 41 -34v-180zM1375 438.001c0 30.667 -15.0029 61.668 -45.0029 93.001c-14.667 15.333 -29.5 27.333 -44.5 36s-30.5 13 -46.5 13
c-15.333 0 -31.666 -2.83301 -48.999 -8.5s-35.666 -14.834 -54.999 -27.501c-21.333 -12 -37.166 -24.333 -47.499 -37s-15.5 -25 -15.5 -37c0 -30 19.667 -63.667 59 -101c40 -36 70.333 -54 91 -54c10.667 0 23.5 3.66699 38.5 11s32.833 19 53.5 35
c40.667 32 61 57.667 61 77zM1037 -369.998l-119 121l119 119l119 -119zM1173 -605.998l-120 121l120 119l119 -119zM1309 -369.998l-119 121l119 119l119 -119z" />
    <glyph glyph-name="uni06A7.fina" unicode="&#x6a7;" horiz-adv-x="1327" 
d="M1373 35c0 -23.333 -13.6689 -34.998 -41.002 -34.998h-151v-56c0 -300.667 -222.333 -451 -667 -451c-132 0 -235.667 31.667 -311 95c-80.667 69.333 -121 173 -121 311c0 82 28 179 84 291c34.667 68.667 64 103 88 103c22.667 0 34 -11.333 34 -34l-40 -108
c-13.333 -36.667 -23.333 -68.834 -30 -96.501s-10 -51.834 -10 -72.501c0 -160 117.667 -240 353 -240c121.333 0 232 13.667 332 41c130 36 195 90.333 195 163c0 6.66699 -0.833008 14.667 -2.5 24s-4.5 21 -8.5 35c-32 -1.33301 -64.667 -2.5 -98 -3.5
s-67.666 -1.5 -102.999 -1.5c-165.333 -0 -248 53.333 -248 160c0 42 5.5 85.333 16.5 130s27.167 91 48.5 139c50.667 114 112.334 171 185.001 171c84 0 153 -38.667 207 -116c40.667 -60.667 69 -139 85 -235h162c27.333 0 41 -11.333 41 -34v-180zM1017 242.002
c-12 44.667 -35 82 -69 112c-32 28.667 -63.333 43 -94 43c-12.667 0 -25 -2.33301 -37 -7s-22.667 -11 -32 -19s-16.833 -17 -22.5 -27s-8.5 -20.333 -8.5 -31c0 -54.667 33.667 -82 101 -82c33.333 0 63.333 1 90 3s50.667 4.66699 72 8zM864.998 757.002l-132 133
l132 130l132 -130z" />
    <glyph glyph-name="uni06A8.fina" unicode="&#x6a8;" horiz-adv-x="1327" 
d="M1373 35c0 -23.333 -13.6689 -34.998 -41.002 -34.998h-151v-56c0 -300.667 -222.333 -451 -667 -451c-132 0 -235.667 31.667 -311 95c-80.667 69.333 -121 173 -121 311c0 82 28 179 84 291c34.667 68.667 64 103 88 103c22.667 0 34 -11.333 34 -34l-40 -108
c-13.333 -36.667 -23.333 -68.834 -30 -96.501s-10 -51.834 -10 -72.501c0 -160 117.667 -240 353 -240c121.333 0 232 13.667 332 41c130 36 195 90.333 195 163c0 6.66699 -0.833008 14.667 -2.5 24s-4.5 21 -8.5 35c-32 -1.33301 -64.667 -2.5 -98 -3.5
s-67.666 -1.5 -102.999 -1.5c-165.333 -0 -248 53.333 -248 160c0 42 5.5 85.333 16.5 130s27.167 91 48.5 139c50.667 114 112.334 171 185.001 171c84 0 153 -38.667 207 -116c40.667 -60.667 69 -139 85 -235h162c27.333 0 41 -11.333 41 -34v-180zM1017 242.002
c-12 44.667 -35 82 -69 112c-32 28.667 -63.333 43 -94 43c-12.667 0 -25 -2.33301 -37 -7s-22.667 -11 -32 -19s-16.833 -17 -22.5 -27s-8.5 -20.333 -8.5 -31c0 -54.667 33.667 -82 101 -82c33.333 0 63.333 1 90 3s50.667 4.66699 72 8zM844.998 965.002l-119 120
l119 121l119 -121zM980.998 728.002l-120 119l120 122l119 -122zM708.998 728.002l-120 119l120 122l119 -122z" />
    <glyph glyph-name="uni06AA.init" unicode="&#x6aa;" horiz-adv-x="1714" 
d="M-3 249c726.667 13.333 1232.66 41.333 1517.99 84c-1.33301 32 -8.66602 59.333 -21.999 82s-30.166 41 -50.499 55s-43.166 24.333 -68.499 31s-50.333 10 -75 10c-26 0 -59.833 -1 -101.5 -3l-140 -7c-51.667 -2.66699 -106.667 -5.33398 -165 -8.00098
s-116.833 -4.83398 -175.5 -6.50098s-116.167 -2.5 -172.5 -2.5s-108.166 1.66699 -155.499 5c-75.333 5.33301 -135.333 16 -180 32s-67.667 36.667 -69 62c0.666992 33.333 13 67.666 37 102.999s55.5 70.666 94.5 105.999s83.667 69.833 134 103.5
s102.333 65.834 156 96.501s106.834 59.167 159.501 85.5s101 49.5 145 69.5s81.833 36.333 113.5 49s52.834 20.667 63.501 24s17.667 0.833008 21 -7.5s4 -21.666 2 -39.999s-6 -41.166 -12 -68.499l-21 -94l-140.5 -50.5l-157.5 -56.5l-155.5 -58
c-50.333 -19.333 -95.166 -38 -134.499 -56s-71.166 -34.667 -95.499 -50s-36.833 -28.333 -37.5 -39c4 -16 19.333 -28.5 46 -37.5s61.167 -15.333 103.5 -19s91 -5.33398 146 -5.00098s112.5 1.83301 172.5 4.5s120.833 6.16699 182.5 10.5l176.5 12
c56 3.66699 107.833 6.5 155.5 8.5s87.167 2.66699 118.5 2c54 -4 98.833 -18 134.5 -42s62.167 -53.667 79.5 -89s25.333 -74.166 24 -116.499s-11.666 -84.166 -30.999 -125.499l-66 -195c-358.667 -46.667 -879.334 -82.667 -1562 -108c-8 16 -14.5 35.167 -19.5 57.5
s-8 45 -9 68s0.666992 45.5 5 67.5s12.166 40.667 23.499 56h5v0z" />
    <glyph glyph-name="uni06AA.medi" unicode="&#x6aa;" horiz-adv-x="1735" 
d="M-3 249c726.667 13.333 1232.66 41.333 1517.99 84c-1.33301 32 -8.66602 59.333 -21.999 82s-30.166 41 -50.499 55s-43.166 24.333 -68.499 31s-50.333 10 -75 10c-26 0 -59.833 -1 -101.5 -3l-140 -7c-51.667 -2.66699 -106.667 -5.33398 -165 -8.00098
s-116.833 -4.83398 -175.5 -6.50098s-116.167 -2.5 -172.5 -2.5s-108.166 1.66699 -155.499 5c-75.333 5.33301 -135.333 16 -180 32s-67.667 36.667 -69 62c0.666992 33.333 13 67.666 37 102.999s55.5 70.666 94.5 105.999s83.667 69.833 134 103.5
s102.333 65.834 156 96.501s106.834 59.167 159.501 85.5s101 49.5 145 69.5s81.833 36.333 113.5 49s52.834 20.667 63.501 24s17.667 0.833008 21 -7.5s4 -21.666 2 -39.999s-6 -41.166 -12 -68.499l-21 -94l-140.5 -50.5l-157.5 -56.5l-155.5 -58
c-50.333 -19.333 -95.166 -38 -134.499 -56s-71.166 -34.667 -95.499 -50s-36.833 -28.333 -37.5 -39c4 -16 19.333 -28.5 46 -37.5s61.167 -15.333 103.5 -19s91 -5.33398 146 -5.00098s112.5 1.83301 172.5 4.5s120.833 6.16699 182.5 10.5l176.5 12
c56 3.66699 107.833 6.5 155.5 8.5s87.167 2.66699 118.5 2c54 -4 98.833 -18 134.5 -42s62.167 -53.667 79.5 -89s25.333 -74.166 24 -116.499s-11.666 -84.166 -30.999 -125.499l-18 -54c10 -0.666992 21.333 -0.666992 34 0h116c6.66699 -15.333 11.667 -34 15 -56
s5 -44.667 5 -68s-1.66699 -46 -5 -68s-8.33301 -41 -15 -57h-102c-75.333 -1.33301 -131.166 0.833984 -167.499 6.50098s-63.833 15.167 -82.5 28.5c-12.667 9.33301 -20 26.666 -22 51.999c-346 -36.667 -808 -65.667 -1386 -87c-8 16 -14.5 35.167 -19.5 57.5
s-8 45 -9 68s0.666992 45.5 5 67.5s12.166 40.667 23.499 56h5v0z" />
    <glyph glyph-name="uni06AA.fina" unicode="&#x6aa;" horiz-adv-x="2407" 
d="M623 248c758 14 1280 42.3311 1566 84.998c-1.33301 32 -8.66602 59.333 -22 82c-13.333 22.667 -30.333 41 -51 55s-43.667 24.333 -69 31s-50.333 10 -75 10c-26 0 -59.833 -1 -101.5 -3l-140 -7c-51.667 -2.66699 -106.667 -5.33398 -165 -8.00098
s-116.833 -4.83398 -175.5 -6.50098s-116.167 -2.5 -172.5 -2.5s-108.166 1.66699 -155.499 5c-74.667 5.33301 -134.5 16 -179.5 32s-67.833 36.667 -68.5 62c0.666992 33.333 13 67.666 37 102.999s55.5 70.666 94.5 105.999s83.667 69.833 134 103.5
s102.166 65.834 155.499 96.501s106.5 59.167 159.5 85.5l145.5 69.5c44 20 81.667 36.333 113 49s52.333 20.667 63 24s17.667 0.833008 21 -7.5s4 -21.666 2 -39.999s-6 -41.166 -12 -68.499l-21 -94l-140.5 -50.5l-157.5 -56.5l-155.5 -58
c-50.333 -19.333 -95.166 -38 -134.499 -56s-71 -34.667 -95 -50s-36.333 -28.333 -37 -39c4 -16 19.333 -28.5 46 -37.5s61.167 -15.333 103.5 -19s90.833 -5.33398 145.5 -5.00098s112 1.83301 172 4.5s120.833 6.16699 182.5 10.5l177 12
c56.333 3.66699 108.333 6.5 156 8.5s87.167 2.66699 118.501 2c54 -4 98.833 -18 134.5 -42s62 -53.667 79 -89s24.833 -74.166 23.5 -116.499s-11.666 -84.166 -31 -125.499l-18 -54c10 -0.666992 21.667 -0.666992 35 0h115c6.66699 -15.333 11.667 -34 15 -56
s5 -44.667 5 -68s-1.66699 -46 -5 -68s-8.33301 -41 -15 -57h-102c-75.333 -1.33301 -131.166 0.833984 -167.5 6.50098c-36.333 5.66699 -63.5 15.167 -81.5 28.5c-12.667 9.33301 -20.334 26.666 -23.001 51.999c-338 -36 -786.667 -65 -1346 -87
c-13.333 -0.666992 -26.666 -1.16699 -39.999 -1.5s-26.666 -0.5 -39.999 -0.5c-93.333 0 -173.333 6.66699 -240 20s-122.334 33.333 -167.001 60c-94.667 58.667 -142 154 -142 286c0 34.667 3.66699 68.334 11 101.001s19 65.334 35 98.001c28 58.667 52.333 88 73 88
c27.333 0 41 -12.667 41 -38c0 -2 -1.83301 -7.16699 -5.5 -15.5s-7.5 -19 -11.5 -32s-7.83301 -27.5 -11.5 -43.5s-5.5 -32.667 -5.5 -50c0 -37.333 10.333 -70.5 31 -99.5s52 -53.167 94 -72.5c73.333 -34.667 172 -52 296 -52z" />
    <glyph glyph-name="uni06AB.init" unicode="&#x6ab;" horiz-adv-x="767" 
d="M347 1099l262.502 103.501c82.333 31 158.833 58.167 229.5 81.5l-71 -237l-252.5 -86.5c-89 -31 -180.167 -64.833 -273.5 -101.5v-11c46 -46 85.667 -88.167 119 -126.5s60.666 -76.166 81.999 -113.499s37 -76.666 47 -117.999s15 -88 15 -140
c0 -63.333 -11.833 -117.166 -35.5 -161.499s-54.5 -80.5 -92.5 -108.5s-80.833 -48.333 -128.5 -61s-95.5 -19 -143.5 -19h-110c-27.333 0 -41 11.667 -41 35v180c0 22.667 13.667 34 41 34h87c14.667 0 32.667 0.666992 54 2s43.666 3.5 66.999 6.5s46.666 7 69.999 12
s44.333 11.167 63 18.5s33.834 16.166 45.501 26.499s17.5 22.166 17.5 35.499c0 33.333 -29.833 83.166 -89.5 149.499s-145.5 147.166 -257.5 242.499l47 255zM728.002 897.001c0 -23.333 -4.99902 -45.166 -14.999 -65.499s-23.667 -38.333 -41 -54s-37.5 -28 -60.5 -37
s-47.5 -13.5 -73.5 -13.5c-30.667 0 -55.667 11.5 -75 34.5s-29 52.833 -29 89.5c0 47.333 13 93.666 39 138.999c31.333 53.333 69.666 80 114.999 80c40.667 0 74.667 -18 102 -54c25.333 -33.333 38 -73 38 -119zM663.003 872.001
c-1.33301 11.333 -5.16699 22.667 -11.5 34s-14.5 21.5 -24.5 30.5s-21 16.333 -33 22s-24.333 8.5 -37 8.5c-18 0 -32.167 -7.5 -42.5 -22.5s-15.5 -31.5 -15.5 -49.5c0 -8.66699 1.5 -16.334 4.5 -23.001s7.16699 -13.667 12.5 -21c6 -7.33301 13.667 -12.666 23 -15.999
s19 -5 29 -5c39.333 0 71 14 95 42z" />
    <glyph glyph-name="uni06AB.medi" unicode="&#x6ab;" horiz-adv-x="1036" 
d="M105 997l82.501 35.002l118.5 49l142 56.5l152.5 57c51 18.333 100.667 35.333 149 51s92.5 28.5 132.5 38.5l-66 -235l-140.5 -41.5c-49 -15 -98 -30.833 -147 -47.5l-145 -50.5l-135.5 -50.5v-9l305 -315c58 -61.333 110.5 -110.666 157.5 -147.999
s88.5 -66.333 124.5 -87s67.167 -34.334 93.5 -41.001s48.166 -10 65.499 -10h48c27.333 0 41 -11.333 41 -34v-180c0 -23.333 -13.667 -35 -41 -35h-75c-56.667 0 -116.667 20.667 -180 62s-133 103.666 -209 186.999l-75 79c-2 -63.333 -15.833 -116 -41.5 -158
s-57.834 -75.5 -96.501 -100.5s-81.167 -42.833 -127.5 -53.5s-90.5 -16 -132.5 -16h-110c-27.333 0 -41 11.667 -41 35v180c0 22.667 13.667 34 41 34h101c10.667 0 25.334 0.666992 44.001 2s38.834 3.5 60.501 6.5s44 7 67 12s43.833 11 62.5 18s34.167 15 46.5 24
s19.166 19.5 20.499 31.5c0 17.333 -5.83301 38.166 -17.5 62.499s-31 52.833 -58 85.5s-62.167 69.667 -105.5 111s-96.333 88 -159 140l48 255v0zM754.001 901.002c0 -23.333 -4.99902 -45.166 -14.999 -65.499s-23.667 -38.333 -41 -54s-37.5 -28 -60.5 -37
s-47.5 -13.5 -73.5 -13.5c-30.667 0 -55.667 11.5 -75 34.5s-29 52.833 -29 89.5c0 47.333 13 93.666 39 138.999c31.333 53.333 69.666 80 114.999 80c40.667 0 74.667 -18 102 -54c25.333 -33.333 38 -73 38 -119zM689.002 876.002
c-1.33301 11.333 -5.16699 22.667 -11.5 34s-14.5 21.5 -24.5 30.5s-21 16.333 -33 22s-24.333 8.5 -37 8.5c-18 0 -32.167 -7.5 -42.5 -22.5s-15.5 -31.5 -15.5 -49.5c0 -8.66699 1.5 -16.334 4.5 -23.001s7.16699 -13.667 12.5 -21c6 -7.33301 13.667 -12.666 23 -15.999
s19 -5 29 -5c39.333 0 71 14 95 42z" />
    <glyph glyph-name="uni06AB.fina" unicode="&#x6ab;" horiz-adv-x="1967" 
d="M2013 35c0 -23.333 -13.666 -35.001 -40.999 -35.001h-75c-111.333 0 -243 83 -395 249l-71 79c-31.333 -234 -238.666 -351 -621.999 -351h-155c-92.667 0 -172.5 6.66699 -239.5 20s-122.5 33.333 -166.5 60c-95.333 59.333 -143 154.666 -143 285.999
c0 34.667 3.66699 68.334 11 101.001s19 65.334 35 98.001c28 58.667 52.333 88 73 88c27.333 0 41 -12.667 41 -38c0 -2 -1.83301 -7.16699 -5.5 -15.5s-7.5 -19 -11.5 -32s-7.83301 -27.5 -11.5 -43.5s-5.5 -32.667 -5.5 -50c0 -37.333 10.333 -70.5 31 -99.5
s52 -53.167 94 -72.5c37.333 -17.333 80.666 -30.333 129.999 -39s104.666 -13 165.999 -13h202c152 0 271 12.667 357 38c73.333 20 110 46 110 78c0 76.667 -113 209.667 -339 399l46 255c40.667 19.333 89.667 40.5 147 63.5l196 76.5c93.333 36 175.833 66 247.5 90
s134.167 43 187.5 57l-65 -235c-99.333 -28 -196.166 -57.667 -290.499 -89s-187.166 -65 -278.499 -101v-9l306 -315c93.333 -95.333 176.666 -166.833 249.999 -214.5s138.666 -71.5 195.999 -71.5h48c27.333 0 41 -11.333 41 -34v-180v0zM1694 908.999
c0 -23.333 -4.99902 -45.166 -14.999 -65.499s-23.667 -38.333 -41 -54s-37.5 -28 -60.5 -37s-47.5 -13.5 -73.5 -13.5c-30.667 0 -55.667 11.5 -75 34.5s-29 52.833 -29 89.5c0 47.333 13 93.666 39 138.999c31.333 53.333 69.666 80 114.999 80
c40.667 0 74.667 -18 102 -54c25.333 -33.333 38 -73 38 -119zM1629 883.999c-1.33301 11.333 -5.16699 22.667 -11.5 34s-14.5 21.5 -24.5 30.5s-21 16.333 -33 22s-24.333 8.5 -37 8.5c-18 0 -32.167 -7.5 -42.5 -22.5s-15.5 -31.5 -15.5 -49.5
c0 -8.66699 1.5 -16.334 4.5 -23.001s7.16699 -13.667 12.5 -21c6 -7.33301 13.667 -12.666 23 -15.999s19 -5 29 -5c39.333 0 71 14 95 42z" />
    <glyph glyph-name="uni06AE.init" unicode="&#x6ae;" horiz-adv-x="885" 
d="M347 1099l262.502 103.501c82.333 31 158.833 58.167 229.5 81.5l-71 -237l-252.5 -86.5c-89 -31 -180.167 -64.833 -273.5 -101.5v-11c46 -46 85.667 -88.167 119 -126.5s60.666 -76.166 81.999 -113.499s37 -76.666 47 -117.999s15 -88 15 -140
c0 -63.333 -11.833 -117.166 -35.5 -161.499s-54.5 -80.5 -92.5 -108.5s-80.833 -48.333 -128.5 -61s-95.5 -19 -143.5 -19h-110c-27.333 0 -41 11.667 -41 35v180c0 22.667 13.667 34 41 34h87c14.667 0 32.667 0.666992 54 2s43.666 3.5 66.999 6.5s46.666 7 69.999 12
s44.333 11.167 63 18.5s33.834 16.166 45.501 26.499s17.5 22.166 17.5 35.499c0 33.333 -29.833 83.166 -89.5 149.499s-145.5 147.166 -257.5 242.499l47 255zM214.002 -413.999l-119 121l119 119l119 -119zM350.002 -649.999l-120 121l120 119l119 -119z
M486.002 -413.999l-119 121l119 119l119 -119z" />
    <glyph glyph-name="uni06AE.medi" unicode="&#x6ae;" horiz-adv-x="1036" 
d="M105 997l82.501 35.002l118.5 49l142 56.5l152.5 57c51 18.333 100.667 35.333 149 51s92.5 28.5 132.5 38.5l-66 -235l-140.5 -41.5c-49 -15 -98 -30.833 -147 -47.5l-145 -50.5l-135.5 -50.5v-9l305 -315c58 -61.333 110.5 -110.666 157.5 -147.999
s88.5 -66.333 124.5 -87s67.167 -34.334 93.5 -41.001s48.166 -10 65.499 -10h48c27.333 0 41 -11.333 41 -34v-180c0 -23.333 -13.667 -35 -41 -35h-75c-56.667 0 -116.667 20.667 -180 62s-133 103.666 -209 186.999l-75 79c-2 -63.333 -15.833 -116 -41.5 -158
s-57.834 -75.5 -96.501 -100.5s-81.167 -42.833 -127.5 -53.5s-90.5 -16 -132.5 -16h-110c-27.333 0 -41 11.667 -41 35v180c0 22.667 13.667 34 41 34h101c10.667 0 25.334 0.666992 44.001 2s38.834 3.5 60.501 6.5s44 7 67 12s43.833 11 62.5 18s34.167 15 46.5 24
s19.166 19.5 20.499 31.5c0 17.333 -5.83301 38.166 -17.5 62.499s-31 52.833 -58 85.5s-62.167 69.667 -105.5 111s-96.333 88 -159 140l48 255v0zM347.001 -410.998l-119 121l119 119l119 -119zM483.001 -646.998l-120 121l120 119l119 -119zM619.001 -410.998l-119 121
l119 119l119 -119z" />
    <glyph glyph-name="uni06AE.fina" unicode="&#x6ae;" horiz-adv-x="1528" 
d="M1575 35c0 -23.333 -13.665 -34.9971 -40.998 -34.9971h-32c-29.333 0 -55.833 2.33301 -79.5 7s-44.5 12.334 -62.5 23.001c-17.333 9.33301 -34.833 23.333 -52.5 42s-34.167 42.667 -49.5 72c-21.333 -34.667 -48.666 -62 -81.999 -82s-73 -35.667 -119 -47
c-54 -12 -112.5 -21.333 -175.5 -28s-126.167 -10 -189.5 -10h-38c-182 0 -317.333 26.667 -406 80c-95.333 59.333 -143 154.666 -143 285.999c0 34 3.66699 67.5 11 100.5s19 65.833 35 98.5c28 58.667 52.333 88 73 88c27.333 0 41 -12.667 41 -38
c0 -3.33301 -5.66699 -19.333 -17 -48c-5.33301 -14 -9.5 -28.5 -12.5 -43.5s-4.5 -31.5 -4.5 -49.5c0 -37.333 10.333 -70.5 31 -99.5s52 -53.167 94 -72.5c72 -34.667 170.667 -52 296 -52h65c34.667 0 69.5 1 104.5 3s68.5 4.66699 100.5 8s62.167 7.16602 90.5 11.499
s53.166 8.83301 74.499 13.5c24 6 43.667 12.667 59 20s27.166 15.666 35.499 24.999s14.166 20.333 17.499 33s5 27.667 5 45c0 127.333 -3.16699 252.666 -9.5 375.999s-15.5 247 -27.5 371l104 105c37.333 36.667 59 55 65 55c14.667 0 22.667 -103.667 24 -311l8 -598
c2 -90 57.333 -135 166 -135c27.333 0 41 -11.333 41 -34v-180zM876.002 712.003c0 -29.333 -5.33203 -54.665 -15.999 -75.998s-24.167 -39 -40.5 -53s-34.833 -24.333 -55.5 -31s-41 -10 -61 -10c-22.667 0 -46 4.33301 -70 13s-51.333 23.667 -82 45
c-3.33301 4 -4.33301 7.16699 -3 9.5s4.33301 3.5 9 3.5c34 1.33301 66.833 4.16602 98.5 8.49902s59.667 9.66602 84 15.999s43.833 13.5 58.5 21.5s22 16.333 22 25c0 12.667 -14.333 19 -43 19h-85c-39.333 0 -65.5 7 -78.5 21s-19.5 32.333 -19.5 55
c0 46.667 13.667 88.667 41 126c33.333 46.667 67.666 70 102.999 70c12.667 0 23.667 -3.5 33 -10.5s17.166 -15.333 23.499 -25s11 -19.5 14 -29.5s4.5 -18.333 4.5 -25c0 -7.33301 -4.33301 -9.66602 -13 -6.99902c-8 4.66699 -15.833 7.66699 -23.5 9
s-16.834 2 -27.501 2c-14 0 -27.167 -2.66699 -39.5 -8s-23 -11.5 -32 -18.5s-16 -14.333 -21 -22s-7.5 -13.834 -7.5 -18.501c0 -8.66699 4.83301 -14.5 14.5 -17.5s23.834 -4.5 42.501 -4.5h77c32.667 0 56.334 -7.83301 71.001 -23.5s22 -37.167 22 -64.5z
M586.003 -440.996l-119 121l119 119l119 -119zM722.003 -676.996l-120 121l120 119l119 -119zM858.003 -440.996l-119 121l119 119l119 -119z" />
    <glyph glyph-name="uni06B0.init" unicode="&#x6b0;" horiz-adv-x="831" 
d="M-46 215c0 22.667 13.6699 33.9971 41.0029 33.9971h87c14.667 0 32.667 0.666992 54 2s43.666 3.5 66.999 6.5s46.666 7 69.999 12s44.333 11.167 63 18.5s33.834 15.833 45.501 25.5s17.5 20.834 17.5 33.501c0 18.667 -9.83301 42.5 -29.5 71.5
s-44.667 59.833 -75 92.5s-64 65.5 -101 98.5s-72.5 62.833 -106.5 89.5l43 236l70 19.5l114.5 32l143 39.5l156 41l152.5 37.5c49.333 11.667 94 21.167 134 28.5l-56 -214c-26.667 -4 -58.334 -9.5 -95.001 -16.5s-74.667 -14.667 -114 -23l-118.5 -26l-110 -25.5
l-87.5 -21c-24.667 -6 -41.667 -10.333 -51 -13l92.5 -88.5c29 -28.333 54.167 -58.666 75.5 -90.999s38.166 -68.5 50.499 -108.5s18.5 -87 18.5 -141c0 -67.333 -11.833 -124.166 -35.5 -170.499s-54.5 -84 -92.5 -113s-80.833 -49.833 -128.5 -62.5s-95.5 -19 -143.5 -19
h-110c-27.333 0 -41 11.667 -41 35v180zM841.003 1232c-34.667 -7.33301 -73 -15.999 -115 -25.999l-128.5 -31.5l-129.5 -33.5l-119 -32.5c-36.667 -10.333 -69 -19.833 -97 -28.5s-48.667 -15.334 -62 -20.001l27 110c12.667 4.66699 32.667 11.167 60 19.5l95.5 28
c36.333 10.333 76 21 119 32l130 33l128.5 31.5c42 10 80.667 18.667 116 26zM793.003 805.998c0 -23.333 -4.99902 -45.166 -14.999 -65.499s-23.667 -38.333 -41 -54s-37.5 -28 -60.5 -37s-47.5 -13.5 -73.5 -13.5c-30.667 0 -55.667 11.5 -75 34.5s-29 52.833 -29 89.5
c0 47.333 13 93.666 39 138.999c31.333 53.333 69.666 80 114.999 80c40.667 0 74.667 -18 102 -54c25.333 -33.333 38 -73 38 -119zM728.004 780.998c-1.33301 11.333 -5.16699 22.667 -11.5 34s-14.5 21.5 -24.5 30.5s-21 16.333 -33 22s-24.333 8.5 -37 8.5
c-18 0 -32.167 -7.5 -42.5 -22.5s-15.5 -31.5 -15.5 -49.5c0 -8.66699 1.5 -16.334 4.5 -23.001s7.16699 -13.667 12.5 -21c6 -7.33301 13.667 -12.666 23 -15.999s19 -5 29 -5c39.333 0 71 14 95 42z" />
    <glyph glyph-name="uni06B0.medi" unicode="&#x6b0;" horiz-adv-x="1036" 
d="M-46 215c0 22.667 13.666 34 40.999 34h101c10 0 24.5 0.666992 43.5 2s39.667 3.5 62 6.5s45 7 68 12s44 11 63 18s34.5 15 46.5 24s18 19.5 18 31.5c0 13.333 -5.5 29.333 -16.5 48s-25.333 39 -43 61s-37.834 44.667 -60.501 68l-69 68.5
c-23.333 22.333 -46.166 43 -68.499 62s-42.166 35.167 -59.499 48.5l43 236l69.5 19.5l114 32l143 39.5l156 41l153 37.5c49.667 11.667 94.5 21.167 134.5 28.5l-56 -214c-26.667 -4 -58 -9.5 -94 -16.5l-113 -23l-118 -26l-109.5 -25.5l-87 -21
c-24.333 -6 -41.166 -10.333 -50.499 -13c44.667 -35.333 88.667 -72.333 132 -111l124.5 -113.5l110.5 -105l90 -84.5c44.667 -41.333 91.167 -73.5 139.5 -96.5s92.5 -34.5 132.5 -34.5h48c27.333 0 41 -11.333 41 -34v-180c0 -23.333 -13.667 -35 -41 -35h-75
c-58.667 -0 -122 21.333 -190 64s-141.333 110.667 -220 204l-54 60c-2 -63.333 -15.833 -116 -41.5 -158s-57.834 -75.5 -96.501 -100.5s-81.167 -42.833 -127.5 -53.5s-90.5 -16 -132.5 -16h-110c-27.333 0 -41 11.667 -41 35v180zM832.999 1232
c-34.667 -7.33301 -72.834 -15.999 -114.501 -25.999l-128 -31.5l-129.5 -33.5l-119 -32.5c-36.667 -10.333 -69 -19.833 -97 -28.5s-48.667 -15.334 -62 -20.001l25 110c12.667 4.66699 32.834 11.167 60.501 19.5l96 28c36.333 10.333 76 21 119 32l130.5 33l129 31.5
c42 10 80.667 18.667 116 26zM802.999 818.001c0 -23.333 -4.99902 -45.166 -14.999 -65.499s-23.667 -38.333 -41 -54s-37.5 -28 -60.5 -37s-47.5 -13.5 -73.5 -13.5c-30.667 0 -55.667 11.5 -75 34.5s-29 52.833 -29 89.5c0 47.333 13 93.666 39 138.999
c31.333 53.333 69.666 80 114.999 80c40.667 0 74.667 -18 102 -54c25.333 -33.333 38 -73 38 -119zM738 793.001c-1.33301 11.333 -5.16699 22.667 -11.5 34s-14.5 21.5 -24.5 30.5s-21 16.333 -33 22s-24.333 8.5 -37 8.5c-18 0 -32.167 -7.5 -42.5 -22.5
s-15.5 -31.5 -15.5 -49.5c0 -8.66699 1.5 -16.334 4.5 -23.001s7.16699 -13.667 12.5 -21c6 -7.33301 13.667 -12.666 23 -15.999s19 -5 29 -5c39.333 0 71 14 95 42z" />
    <glyph glyph-name="uni06B0.fina" unicode="&#x6b0;" horiz-adv-x="1967" 
d="M1763 1232c-34.667 -7.33301 -72.833 -15.999 -114.5 -25.999l-128 -31.5l-129.5 -33.5l-119 -32.5c-36.667 -10.333 -69 -19.833 -97 -28.5s-48.667 -15.334 -62 -20.001l25 110c13.333 4.66699 33.833 11.167 61.5 19.5l96.5 28l119 32l129.5 33l128.5 31.5
c42 10 80.667 18.667 116 26zM2013 35.001c0 -23.333 -13.666 -35.0029 -40.999 -35.0029h-75c-58.667 0 -120.167 20.667 -184.5 62s-134.5 103.666 -210.5 186.999l-71 79c-6 -49.333 -19 -92.333 -39 -129s-45.167 -68 -75.5 -94s-64.833 -47.167 -103.5 -63.5
s-80 -29.333 -124 -39s-89.833 -16.334 -137.5 -20.001s-95.167 -5.5 -142.5 -5.5h-155c-88 0 -166.167 6.16699 -234.5 18.5s-125.666 32.833 -171.999 61.5s-81.666 66.334 -105.999 113.001s-36.5 104.334 -36.5 173.001c0 36.667 4.5 72.334 13.5 107.001
s19.667 65.334 32 92.001s25.333 48 39 64s25.167 24 34.5 24c13.333 0 23.5 -3.66699 30.5 -11s10.5 -16.333 10.5 -27c0 -6 -1.83301 -12.667 -5.5 -20s-7.5 -16.333 -11.5 -27s-7.83301 -23.5 -11.5 -38.5s-5.5 -33.5 -5.5 -55.5c0 -39.333 11.167 -73 33.5 -101
s52.666 -51.167 90.999 -69.5s83 -31.833 134 -40.5s105.167 -13 162.5 -13h202c82 0 153.167 3.5 213.5 10.5s110.333 16 150 27s69 23.667 88 38s28.5 29.166 28.5 44.499c0 16.667 -6.16699 35.834 -18.5 57.501s-28.333 44 -48 67s-41.834 46 -66.501 69l-73 65.5
c-24 20.667 -46.5 39 -67.5 55l-50.5 38l43 236l69.5 19.5l114 32l143 39.5l156 41l153 37.5c49.667 11.667 94.5 21.167 134.5 28.5l-56 -214c-26.667 -4 -57.834 -9.5 -93.501 -16.5l-112.5 -23l-118 -26l-109.5 -25.5l-87.5 -21c-24.667 -6 -41.667 -10.333 -51 -13
c45.333 -35.333 89.833 -72.166 133.5 -110.499l124 -113l109.5 -105l90 -85.5c44.667 -41.333 91 -73.5 139 -96.5s92.333 -34.5 133 -34.5h48c27.333 0 41 -11.333 41 -34v-180zM1712 805.998c0 -23.333 -4.99902 -45.166 -14.999 -65.499s-23.667 -38.333 -41 -54
s-37.5 -28 -60.5 -37s-47.5 -13.5 -73.5 -13.5c-30.667 0 -55.667 11.5 -75 34.5s-29 52.833 -29 89.5c0 47.333 13 93.666 39 138.999c31.333 53.333 69.666 80 114.999 80c40.667 0 74.667 -18 102 -54c25.333 -33.333 38 -73 38 -119zM1647 780.998
c-1.33301 11.333 -5.16699 22.667 -11.5 34s-14.5 21.5 -24.5 30.5s-21 16.333 -33 22s-24.333 8.5 -37 8.5c-18 0 -32.167 -7.5 -42.5 -22.5s-15.5 -31.5 -15.5 -49.5c0 -8.66699 1.5 -16.334 4.5 -23.001s7.16699 -13.667 12.5 -21c6 -7.33301 13.667 -12.666 23 -15.999
s19 -5 29 -5c39.333 0 71 14 95 42z" />
    <glyph glyph-name="uni06B2.init" unicode="&#x6b2;" horiz-adv-x="831" 
d="M-46 215c0 22.667 13.6699 33.9971 41.0029 33.9971h87c14.667 0 32.667 0.666992 54 2s43.666 3.5 66.999 6.5s46.666 7 69.999 12s44.333 11.167 63 18.5s33.834 15.833 45.501 25.5s17.5 20.834 17.5 33.501c0 18.667 -9.83301 42.5 -29.5 71.5
s-44.667 59.833 -75 92.5s-64 65.5 -101 98.5s-72.5 62.833 -106.5 89.5l43 236l70 19.5l114.5 32l143 39.5l156 41l152.5 37.5c49.333 11.667 94 21.167 134 28.5l-56 -214c-26.667 -4 -58.334 -9.5 -95.001 -16.5s-74.667 -14.667 -114 -23l-118.5 -26l-110 -25.5
l-87.5 -21c-24.667 -6 -41.667 -10.333 -51 -13l92.5 -88.5c29 -28.333 54.167 -58.666 75.5 -90.999s38.166 -68.5 50.499 -108.5s18.5 -87 18.5 -141c0 -67.333 -11.833 -124.166 -35.5 -170.499s-54.5 -84 -92.5 -113s-80.833 -49.833 -128.5 -62.5s-95.5 -19 -143.5 -19
h-110c-27.333 0 -41 11.667 -41 35v180zM841.003 1232c-34.667 -7.33301 -73 -15.999 -115 -25.999l-128.5 -31.5l-129.5 -33.5l-119 -32.5c-36.667 -10.333 -69 -19.833 -97 -28.5s-48.667 -15.334 -62 -20.001l27 110c12.667 4.66699 32.667 11.167 60 19.5l95.5 28
c36.333 10.333 76 21 119 32l130 33l128.5 31.5c42 10 80.667 18.667 116 26zM562.003 -421.002l-119 119l119 121l119 -121zM290.003 -421.002l-119 119l119 121l119 -121z" />
    <glyph glyph-name="uni06B2.medi" unicode="&#x6b2;" horiz-adv-x="1036" 
d="M-46 215c0 22.667 13.666 34 40.999 34h101c10 0 24.5 0.666992 43.5 2s39.667 3.5 62 6.5s45 7 68 12s44 11 63 18s34.5 15 46.5 24s18 19.5 18 31.5c0 13.333 -5.5 29.333 -16.5 48s-25.333 39 -43 61s-37.834 44.667 -60.501 68l-69 68.5
c-23.333 22.333 -46.166 43 -68.499 62s-42.166 35.167 -59.499 48.5l43 236l69.5 19.5l114 32l143 39.5l156 41l153 37.5c49.667 11.667 94.5 21.167 134.5 28.5l-56 -214c-26.667 -4 -58 -9.5 -94 -16.5l-113 -23l-118 -26l-109.5 -25.5l-87 -21
c-24.333 -6 -41.166 -10.333 -50.499 -13c44.667 -35.333 88.667 -72.333 132 -111l124.5 -113.5l110.5 -105l90 -84.5c44.667 -41.333 91.167 -73.5 139.5 -96.5s92.5 -34.5 132.5 -34.5h48c27.333 0 41 -11.333 41 -34v-180c0 -23.333 -13.667 -35 -41 -35h-75
c-58.667 -0 -122 21.333 -190 64s-141.333 110.667 -220 204l-54 60c-2 -63.333 -15.833 -116 -41.5 -158s-57.834 -75.5 -96.501 -100.5s-81.167 -42.833 -127.5 -53.5s-90.5 -16 -132.5 -16h-110c-27.333 0 -41 11.667 -41 35v180zM832.999 1232
c-34.667 -7.33301 -72.834 -15.999 -114.501 -25.999l-128 -31.5l-129.5 -33.5l-119 -32.5c-36.667 -10.333 -69 -19.833 -97 -28.5s-48.667 -15.334 -62 -20.001l25 110c12.667 4.66699 32.834 11.167 60.501 19.5l96 28c36.333 10.333 76 21 119 32l130.5 33l129 31.5
c42 10 80.667 18.667 116 26zM645.999 -413.999l-119 119l119 121l119 -121zM373.999 -413.999l-119 119l119 121l119 -121z" />
    <glyph glyph-name="uni06B2.fina" unicode="&#x6b2;" horiz-adv-x="1967" 
d="M1763 1232c-34.667 -7.33301 -72.833 -15.999 -114.5 -25.999l-128 -31.5l-129.5 -33.5l-119 -32.5c-36.667 -10.333 -69 -19.833 -97 -28.5s-48.667 -15.334 -62 -20.001l25 110c13.333 4.66699 33.833 11.167 61.5 19.5l96.5 28l119 32l129.5 33l128.5 31.5
c42 10 80.667 18.667 116 26zM2013 35.001c0 -23.333 -13.666 -35.0029 -40.999 -35.0029h-75c-58.667 0 -120.167 20.667 -184.5 62s-134.5 103.666 -210.5 186.999l-71 79c-6 -49.333 -19 -92.333 -39 -129s-45.167 -68 -75.5 -94s-64.833 -47.167 -103.5 -63.5
s-80 -29.333 -124 -39s-89.833 -16.334 -137.5 -20.001s-95.167 -5.5 -142.5 -5.5h-155c-88 0 -166.167 6.16699 -234.5 18.5s-125.666 32.833 -171.999 61.5s-81.666 66.334 -105.999 113.001s-36.5 104.334 -36.5 173.001c0 36.667 4.5 72.334 13.5 107.001
s19.667 65.334 32 92.001s25.333 48 39 64s25.167 24 34.5 24c13.333 0 23.5 -3.66699 30.5 -11s10.5 -16.333 10.5 -27c0 -6 -1.83301 -12.667 -5.5 -20s-7.5 -16.333 -11.5 -27s-7.83301 -23.5 -11.5 -38.5s-5.5 -33.5 -5.5 -55.5c0 -39.333 11.167 -73 33.5 -101
s52.666 -51.167 90.999 -69.5s83 -31.833 134 -40.5s105.167 -13 162.5 -13h202c82 0 153.167 3.5 213.5 10.5s110.333 16 150 27s69 23.667 88 38s28.5 29.166 28.5 44.499c0 16.667 -6.16699 35.834 -18.5 57.501s-28.333 44 -48 67s-41.834 46 -66.501 69l-73 65.5
c-24 20.667 -46.5 39 -67.5 55l-50.5 38l43 236l69.5 19.5l114 32l143 39.5l156 41l153 37.5c49.667 11.667 94.5 21.167 134.5 28.5l-56 -214c-26.667 -4 -57.834 -9.5 -93.501 -16.5l-112.5 -23l-118 -26l-109.5 -25.5l-87.5 -21c-24.667 -6 -41.667 -10.333 -51 -13
c45.333 -35.333 89.833 -72.166 133.5 -110.499l124 -113l109.5 -105l90 -85.5c44.667 -41.333 91 -73.5 139 -96.5s92.333 -34.5 133 -34.5h48c27.333 0 41 -11.333 41 -34v-180zM887.002 -442.002l-119 119l119 121l119 -121zM615.002 -442.002l-119 119l119 121l119 -121
z" />
    <glyph glyph-name="uni06B4.init" unicode="&#x6b4;" horiz-adv-x="831" 
d="M-46 215c0 22.667 13.6699 33.9971 41.0029 33.9971h87c14.667 0 32.667 0.666992 54 2s43.666 3.5 66.999 6.5s46.666 7 69.999 12s44.333 11.167 63 18.5s33.834 15.833 45.501 25.5s17.5 20.834 17.5 33.501c0 18.667 -9.83301 42.5 -29.5 71.5
s-44.667 59.833 -75 92.5s-64 65.5 -101 98.5s-72.5 62.833 -106.5 89.5l43 236l70 19.5l114.5 32l143 39.5l156 41l152.5 37.5c49.333 11.667 94 21.167 134 28.5l-56 -214c-26.667 -4 -58.334 -9.5 -95.001 -16.5s-74.667 -14.667 -114 -23l-118.5 -26l-110 -25.5
l-87.5 -21c-24.667 -6 -41.667 -10.333 -51 -13l92.5 -88.5c29 -28.333 54.167 -58.666 75.5 -90.999s38.166 -68.5 50.499 -108.5s18.5 -87 18.5 -141c0 -67.333 -11.833 -124.166 -35.5 -170.499s-54.5 -84 -92.5 -113s-80.833 -49.833 -128.5 -62.5s-95.5 -19 -143.5 -19
h-110c-27.333 0 -41 11.667 -41 35v180zM841.003 1232c-34.667 -7.33301 -73 -15.999 -115 -25.999l-128.5 -31.5l-129.5 -33.5l-119 -32.5c-36.667 -10.333 -69 -19.833 -97 -28.5s-48.667 -15.334 -62 -20.001l27 110c12.667 4.66699 32.667 11.167 60 19.5l95.5 28
c36.333 10.333 76 21 119 32l130 33l128.5 31.5c42 10 80.667 18.667 116 26zM449.003 1604l-119 120l119 121l119 -121zM585.003 1367l-120 119l120 122l119 -122zM313.003 1367l-120 119l120 122l119 -122z" />
    <glyph glyph-name="uni06B4.medi" unicode="&#x6b4;" horiz-adv-x="1036" 
d="M-46 215c0 22.667 13.666 34 40.999 34h101c10 0 24.5 0.666992 43.5 2s39.667 3.5 62 6.5s45 7 68 12s44 11 63 18s34.5 15 46.5 24s18 19.5 18 31.5c0 13.333 -5.5 29.333 -16.5 48s-25.333 39 -43 61s-37.834 44.667 -60.501 68l-69 68.5
c-23.333 22.333 -46.166 43 -68.499 62s-42.166 35.167 -59.499 48.5l43 236l69.5 19.5l114 32l143 39.5l156 41l153 37.5c49.667 11.667 94.5 21.167 134.5 28.5l-56 -214c-26.667 -4 -58 -9.5 -94 -16.5l-113 -23l-118 -26l-109.5 -25.5l-87 -21
c-24.333 -6 -41.166 -10.333 -50.499 -13c44.667 -35.333 88.667 -72.333 132 -111l124.5 -113.5l110.5 -105l90 -84.5c44.667 -41.333 91.167 -73.5 139.5 -96.5s92.5 -34.5 132.5 -34.5h48c27.333 0 41 -11.333 41 -34v-180c0 -23.333 -13.667 -35 -41 -35h-75
c-58.667 -0 -122 21.333 -190 64s-141.333 110.667 -220 204l-54 60c-2 -63.333 -15.833 -116 -41.5 -158s-57.834 -75.5 -96.501 -100.5s-81.167 -42.833 -127.5 -53.5s-90.5 -16 -132.5 -16h-110c-27.333 0 -41 11.667 -41 35v180zM832.999 1232
c-34.667 -7.33301 -72.834 -15.999 -114.501 -25.999l-128 -31.5l-129.5 -33.5l-119 -32.5c-36.667 -10.333 -69 -19.833 -97 -28.5s-48.667 -15.334 -62 -20.001l25 110c12.667 4.66699 32.834 11.167 60.501 19.5l96 28c36.333 10.333 76 21 119 32l130.5 33l129 31.5
c42 10 80.667 18.667 116 26zM450.999 1598l-119 120l119 121l119 -121zM586.999 1361l-120 119l120 122l119 -122zM314.999 1361l-120 119l120 122l119 -122z" />
    <glyph glyph-name="uni06B4.fina" unicode="&#x6b4;" horiz-adv-x="1967" 
d="M1763 1232c-34.667 -7.33301 -72.833 -15.999 -114.5 -25.999l-128 -31.5l-129.5 -33.5l-119 -32.5c-36.667 -10.333 -69 -19.833 -97 -28.5s-48.667 -15.334 -62 -20.001l25 110c13.333 4.66699 33.833 11.167 61.5 19.5l96.5 28l119 32l129.5 33l128.5 31.5
c42 10 80.667 18.667 116 26zM2013 35.001c0 -23.333 -13.666 -35.0029 -40.999 -35.0029h-75c-58.667 0 -120.167 20.667 -184.5 62s-134.5 103.666 -210.5 186.999l-71 79c-6 -49.333 -19 -92.333 -39 -129s-45.167 -68 -75.5 -94s-64.833 -47.167 -103.5 -63.5
s-80 -29.333 -124 -39s-89.833 -16.334 -137.5 -20.001s-95.167 -5.5 -142.5 -5.5h-155c-88 0 -166.167 6.16699 -234.5 18.5s-125.666 32.833 -171.999 61.5s-81.666 66.334 -105.999 113.001s-36.5 104.334 -36.5 173.001c0 36.667 4.5 72.334 13.5 107.001
s19.667 65.334 32 92.001s25.333 48 39 64s25.167 24 34.5 24c13.333 0 23.5 -3.66699 30.5 -11s10.5 -16.333 10.5 -27c0 -6 -1.83301 -12.667 -5.5 -20s-7.5 -16.333 -11.5 -27s-7.83301 -23.5 -11.5 -38.5s-5.5 -33.5 -5.5 -55.5c0 -39.333 11.167 -73 33.5 -101
s52.666 -51.167 90.999 -69.5s83 -31.833 134 -40.5s105.167 -13 162.5 -13h202c82 0 153.167 3.5 213.5 10.5s110.333 16 150 27s69 23.667 88 38s28.5 29.166 28.5 44.499c0 16.667 -6.16699 35.834 -18.5 57.501s-28.333 44 -48 67s-41.834 46 -66.501 69l-73 65.5
c-24 20.667 -46.5 39 -67.5 55l-50.5 38l43 236l69.5 19.5l114 32l143 39.5l156 41l153 37.5c49.667 11.667 94.5 21.167 134.5 28.5l-56 -214c-26.667 -4 -57.834 -9.5 -93.501 -16.5l-112.5 -23l-118 -26l-109.5 -25.5l-87.5 -21c-24.667 -6 -41.667 -10.333 -51 -13
c45.333 -35.333 89.833 -72.166 133.5 -110.499l124 -113l109.5 -105l90 -85.5c44.667 -41.333 91 -73.5 139 -96.5s92.333 -34.5 133 -34.5h48c27.333 0 41 -11.333 41 -34v-180zM1329 1567l-119 120l119 121l119 -121zM1465 1330l-120 119l120 122l119 -122zM1193 1330
l-120 119l120 122l119 -122z" />
    <glyph glyph-name="uni06B5.init" unicode="&#x6b5;" horiz-adv-x="509" 
d="M412 1016c9.33301 -25.333 8.33105 -38 -3.00195 -38c-10 0 -31.333 7.66699 -64 23l16 -455v-226c0 -213.333 -108 -320 -324 -320h-42c-27.333 0 -41 11.667 -41 35v180c0 22.667 13.667 34 41 34h59c32.667 0 59.834 1.66699 81.501 5s38.167 7.66602 49.5 12.999
c27.333 12 41 39.667 41 83c0 14.667 -0.5 30.334 -1.5 47.001s-3.16699 34.667 -6.5 54l-84 673l122 119c26.667 27.333 43.334 41 50.001 41c6 0 12 -7.66699 18 -23c13.333 -44 27.333 -86.333 42 -127s30 -80 46 -118zM375.998 1644l-31.001 -28.502
c-12.667 -11.667 -26.5 -28.167 -41.5 -49.5s-30.5 -49.166 -46.5 -83.499s-31.333 -77.833 -46 -130.5h-25c-6 28.667 -15.5 57 -28.5 85s-27.667 54.5 -44 79.5s-33.666 47.833 -51.999 68.5s-36.5 38 -54.5 52l113 -7l18.5 -23c6.33301 -8 12.833 -18.667 19.5 -32
s13.334 -30.166 20.001 -50.499s13.667 -45.833 21 -76.5c2 12 4.83301 25.667 8.5 41s8.16699 31.333 13.5 48s11.666 33.5 18.999 50.5s16 32.833 26 47.5z" />
    <glyph glyph-name="uni06B5.medi" unicode="&#x6b5;" horiz-adv-x="583" 
d="M630 35c0 -23.333 -13.668 -34.9961 -41.001 -34.9961h-32c-30 0 -56.333 2.16699 -79 6.5s-43.5 11.666 -62.5 21.999s-36.667 24.166 -53 41.499s-32.833 38.666 -49.5 63.999c-37.333 -58 -80 -96.667 -128 -116c-17.333 -6.66699 -40 -11.334 -68 -14.001
s-62 -4 -102 -4h-20c-27.333 0 -41 11.667 -41 35v180c0 22.667 13.667 34 41 34h46c146.667 0 220 43.667 220 131c0 129.333 -3.16699 256.5 -9.5 381.5s-15.5 248.833 -27.5 371.5l102 105c38.667 36.667 60.334 55 65.001 55c14 0 23 -103.667 27 -311l7 -598
c2 -90 56.667 -135 164 -135c27.333 0 41 -11.333 41 -34v-180v0zM461.999 1695l-31.001 -28.502c-12.667 -11.667 -26.5 -28.167 -41.5 -49.5s-30.5 -49.166 -46.5 -83.499s-31.333 -77.833 -46 -130.5h-25c-6 28.667 -15.5 57 -28.5 85s-27.667 54.5 -44 79.5
s-33.666 47.833 -51.999 68.5s-36.5 38 -54.5 52l113 -7l18.5 -23c6.33301 -8 12.833 -18.667 19.5 -32s13.334 -30.166 20.001 -50.499s13.667 -45.833 21 -76.5c2 12 4.83301 25.667 8.5 41s8.16699 31.333 13.5 48s11.666 33.5 18.999 50.5s16 32.833 26 47.5z" />
    <glyph glyph-name="uni06B5.fina" unicode="&#x6b5;" horiz-adv-x="1236" 
d="M1063 1622l-31.001 -28.502c-12.667 -11.667 -26.5 -28.167 -41.5 -49.5s-30.5 -49.166 -46.5 -83.499s-31.333 -77.833 -46 -130.5h-25c-6 28.667 -15.5 57 -28.5 85s-27.667 54.5 -44 79.5s-33.666 47.833 -51.999 68.5s-36.5 38 -54.5 52l113 -7l18.5 -23
c6.33301 -8 12.833 -18.667 19.5 -32s13.334 -30.166 20.001 -50.499s13.667 -45.833 21 -76.5c2 12 4.83301 25.667 8.5 41s8.16699 31.333 13.5 48s11.666 33.5 18.999 50.5s16 32.833 26 47.5zM1282 34.998c0 -23.333 -13.666 -35 -40.999 -35h-60
c-36 0 -81 14.333 -135 43l3 -66c8.66699 -156 -46.333 -277 -165 -363c-103.333 -73.333 -232 -110 -386 -110c-277.333 0 -416 116.333 -416 349c0 50 4.66699 96.167 14 138.5s22.666 81.833 39.999 118.5c32.667 68 62 102 88 102c23.333 0 35 -11 35 -33
c0 -6 -2.33301 -15.5 -7 -28.5l-19 -51.5c-8 -21.333 -14.167 -42.333 -18.5 -63s-6.5 -41.334 -6.5 -62.001c0 -146.667 104.333 -220 313 -220c84 0 168.667 13 254 39c108 36 162 80 162 132c0 135.333 -5.5 293.333 -16.5 474s-27.833 386.334 -50.5 617.001l-11 108
l105 104c36.667 37.333 58 56 64 56c13.333 0 23 -103.667 29 -311l19 -598c0.666992 -84 55.667 -126 165 -126c27.333 0 41 -11.333 41 -34v-180v0z" />
    <glyph glyph-name="uni06B6.init" unicode="&#x6b6;" horiz-adv-x="509" 
d="M412 1016c9.33301 -25.333 8.33105 -38 -3.00195 -38c-10 0 -31.333 7.66699 -64 23l16 -455v-226c0 -213.333 -108 -320 -324 -320h-42c-27.333 0 -41 11.667 -41 35v180c0 22.667 13.667 34 41 34h59c32.667 0 59.834 1.66699 81.501 5s38.167 7.66602 49.5 12.999
c27.333 12 41 39.667 41 83c0 14.667 -0.5 30.334 -1.5 47.001s-3.16699 34.667 -6.5 54l-84 673l122 119c26.667 27.333 43.334 41 50.001 41c6 0 12 -7.66699 18 -23c13.333 -44 27.333 -86.333 42 -127s30 -80 46 -118zM195.998 1356l-132 133l132 130l132 -130z" />
    <glyph glyph-name="uni06B6.medi" unicode="&#x6b6;" horiz-adv-x="583" 
d="M630 35c0 -23.333 -13.668 -34.9961 -41.001 -34.9961h-32c-30 0 -56.333 2.16699 -79 6.5s-43.5 11.666 -62.5 21.999s-36.667 24.166 -53 41.499s-32.833 38.666 -49.5 63.999c-37.333 -58 -80 -96.667 -128 -116c-17.333 -6.66699 -40 -11.334 -68 -14.001
s-62 -4 -102 -4h-20c-27.333 0 -41 11.667 -41 35v180c0 22.667 13.667 34 41 34h46c146.667 0 220 43.667 220 131c0 129.333 -3.16699 256.5 -9.5 381.5s-15.5 248.833 -27.5 371.5l102 105c38.667 36.667 60.334 55 65.001 55c14 0 23 -103.667 27 -311l7 -598
c2 -90 56.667 -135 164 -135c27.333 0 41 -11.333 41 -34v-180v0zM270.999 1391l-132 133l132 130l132 -130z" />
    <glyph glyph-name="uni06B6.fina" unicode="&#x6b6;" horiz-adv-x="1236" 
d="M916 1372l-132 133l132 130l132 -130zM1282 35c0 -23.333 -13.666 -35 -40.999 -35h-60c-36 -0 -81 14.333 -135 43l3 -66c8.66699 -156 -46.333 -277 -165 -363c-103.333 -73.333 -232 -110 -386 -110c-277.333 0 -416 116.333 -416 349c0 50 4.66699 96.167 14 138.5
s22.666 81.833 39.999 118.5c32.667 68 62 102 88 102c23.333 0 35 -11 35 -33c0 -6 -2.33301 -15.5 -7 -28.5l-19 -51.5c-8 -21.333 -14.167 -42.333 -18.5 -63s-6.5 -41.334 -6.5 -62.001c0 -146.667 104.333 -220 313 -220c84 0 168.667 13 254 39c108 36 162 80 162 132
c0 135.333 -5.5 293.333 -16.5 474s-27.833 386.334 -50.5 617.001l-11 108l105 104c36.667 37.333 58 56 64 56c13.333 0 23 -103.667 29 -311l19 -598c0.666992 -84 55.667 -126 165 -126c27.333 0 41 -11.333 41 -34v-180v0z" />
    <glyph glyph-name="uni06B7.init" unicode="&#x6b7;" horiz-adv-x="509" 
d="M412 1016c9.33301 -25.333 8.33105 -38 -3.00195 -38c-10 0 -31.333 7.66699 -64 23l16 -455v-226c0 -213.333 -108 -320 -324 -320h-42c-27.333 0 -41 11.667 -41 35v180c0 22.667 13.667 34 41 34h59c32.667 0 59.834 1.66699 81.501 5s38.167 7.66602 49.5 12.999
c27.333 12 41 39.667 41 83c0 14.667 -0.5 30.334 -1.5 47.001s-3.16699 34.667 -6.5 54l-84 673l122 119c26.667 27.333 43.334 41 50.001 41c6 0 12 -7.66699 18 -23c13.333 -44 27.333 -86.333 42 -127s30 -80 46 -118zM186.998 1611l-119 120l119 121l119 -121z
M322.998 1374l-120 119l120 122l119 -122zM50.998 1374l-120 119l120 122l119 -122z" />
    <glyph glyph-name="uni06B7.medi" unicode="&#x6b7;" horiz-adv-x="512" 
d="M630 35c0 -23.333 -13.668 -34.9961 -41.001 -34.9961h-32c-30 0 -56.333 2.16699 -79 6.5s-43.5 11.666 -62.5 21.999s-36.667 24.166 -53 41.499s-32.833 38.666 -49.5 63.999c-37.333 -58 -80 -96.667 -128 -116c-17.333 -6.66699 -40 -11.334 -68 -14.001
s-62 -4 -102 -4h-20c-27.333 0 -41 11.667 -41 35v180c0 22.667 13.667 34 41 34h46c146.667 0 220 43.667 220 131c0 129.333 -3.16699 256.5 -9.5 381.5s-15.5 248.833 -27.5 371.5l102 105c38.667 36.667 60.334 55 65.001 55c14 0 23 -103.667 27 -311l7 -598
c2 -90 56.667 -135 164 -135c27.333 0 41 -11.333 41 -34v-180v0zM258.999 1604l-119 120l119 121l119 -121zM394.999 1367l-120 119l120 122l119 -122zM122.999 1367l-120 119l120 122l119 -122z" />
    <glyph glyph-name="uni06B7.fina" unicode="&#x6b7;" horiz-adv-x="1236" 
d="M903 1618l-119 120l119 121l119 -121zM1039 1381l-120 119l120 122l119 -122zM767 1381l-120 119l120 122l119 -122zM1282 35c0 -23.333 -13.666 -35 -40.999 -35h-60c-36 -0 -81 14.333 -135 43l3 -66c8.66699 -156 -46.333 -277 -165 -363
c-103.333 -73.333 -232 -110 -386 -110c-277.333 0 -416 116.333 -416 349c0 50 4.66699 96.167 14 138.5s22.666 81.833 39.999 118.5c32.667 68 62 102 88 102c23.333 0 35 -11 35 -33c0 -6 -2.33301 -15.5 -7 -28.5l-19 -51.5c-8 -21.333 -14.167 -42.333 -18.5 -63
s-6.5 -41.334 -6.5 -62.001c0 -146.667 104.333 -220 313 -220c84 0 168.667 13 254 39c108 36 162 80 162 132c0 135.333 -5.5 293.333 -16.5 474s-27.833 386.334 -50.5 617.001l-11 108l105 104c36.667 37.333 58 56 64 56c13.333 0 23 -103.667 29 -311l19 -598
c0.666992 -84 55.667 -126 165 -126c27.333 0 41 -11.333 41 -34v-180v0z" />
    <glyph glyph-name="uni06B8.init" unicode="&#x6b8;" horiz-adv-x="509" 
d="M412 1016c9.33301 -25.333 8.33105 -38 -3.00195 -38c-10 0 -31.333 7.66699 -64 23l16 -455v-226c0 -213.333 -108 -320 -324 -320h-42c-27.333 0 -41 11.667 -41 35v180c0 22.667 13.667 34 41 34h59c32.667 0 59.834 1.66699 81.501 5s38.167 7.66602 49.5 12.999
c27.333 12 41 39.667 41 83c0 14.667 -0.5 30.334 -1.5 47.001s-3.16699 34.667 -6.5 54l-84 673l122 119c26.667 27.333 43.334 41 50.001 41c6 0 12 -7.66699 18 -23c13.333 -44 27.333 -86.333 42 -127s30 -80 46 -118zM77.998 -449l-119 121l119 119l119 -119z
M213.998 -685l-120 121l120 119l119 -119zM349.998 -449l-119 121l119 119l119 -119z" />
    <glyph glyph-name="uni06B8.medi" unicode="&#x6b8;" horiz-adv-x="583" 
d="M630 35c0 -23.333 -13.668 -34.9961 -41.001 -34.9961h-32c-30 0 -56.333 2.16699 -79 6.5s-43.5 11.666 -62.5 21.999s-36.667 24.166 -53 41.499s-32.833 38.666 -49.5 63.999c-37.333 -58 -80 -96.667 -128 -116c-17.333 -6.66699 -40 -11.334 -68 -14.001
s-62 -4 -102 -4h-20c-27.333 0 -41 11.667 -41 35v180c0 22.667 13.667 34 41 34h46c146.667 0 220 43.667 220 131c0 129.333 -3.16699 256.5 -9.5 381.5s-15.5 248.833 -27.5 371.5l102 105c38.667 36.667 60.334 55 65.001 55c14 0 23 -103.667 27 -311l7 -598
c2 -90 56.667 -135 164 -135c27.333 0 41 -11.333 41 -34v-180v0zM151.999 -457.996l-119 121l119 119l119 -119zM287.999 -693.996l-120 121l120 119l119 -119zM423.999 -457.996l-119 121l119 119l119 -119z" />
    <glyph glyph-name="uni06B8.fina" unicode="&#x6b8;" horiz-adv-x="1236" 
d="M448 -867l-119 121l119 119l119 -119zM584 -1103l-120 121l120 119l119 -119zM720 -867l-119 121l119 119l119 -119zM1282 35c0 -23.333 -13.666 -35 -40.999 -35h-60c-36 -0 -81 14.333 -135 43l3 -66c8.66699 -156 -46.333 -277 -165 -363
c-103.333 -73.333 -232 -110 -386 -110c-277.333 0 -416 116.333 -416 349c0 50 4.66699 96.167 14 138.5s22.666 81.833 39.999 118.5c32.667 68 62 102 88 102c23.333 0 35 -11 35 -33c0 -6 -2.33301 -15.5 -7 -28.5l-19 -51.5c-8 -21.333 -14.167 -42.333 -18.5 -63
s-6.5 -41.334 -6.5 -62.001c0 -146.667 104.333 -220 313 -220c84 0 168.667 13 254 39c108 36 162 80 162 132c0 135.333 -5.5 293.333 -16.5 474s-27.833 386.334 -50.5 617.001l-11 108l105 104c36.667 37.333 58 56 64 56c13.333 0 23 -103.667 29 -311l19 -598
c0.666992 -84 55.667 -126 165 -126c27.333 0 41 -11.333 41 -34v-180v0z" />
    <glyph glyph-name="uni06B9.init" unicode="&#x6b9;" horiz-adv-x="465" 
d="M430 386c0 -257.333 -116 -386.001 -348 -386.001h-87c-27.333 0 -41 11.667 -41 35v180c0 22.667 13.667 34 41 34c206 0 309 22 309 66c0 24.667 -39 85 -117 181l131 203c74.667 -83.333 112 -187.666 112 -312.999zM194 808.999l-132 133l132 130l132 -130z
M223 -448.001l-132 133l132 130l132 -130z" />
    <glyph glyph-name="uni06B9.medi" unicode="&#x6b9;" horiz-adv-x="725" 
d="M772 35c0 -23.333 -13.666 -35.002 -40.999 -35.002h-62c-84 0 -161.667 51.667 -233 155c-22.667 -44 -60.667 -80.667 -114 -110c-54 -30 -105.667 -45 -155 -45h-172c-27.333 0 -41 11.667 -41 35v180c0 22.667 13.667 34 41 34h111c50.667 0 94 4.16699 130 12.5
s65.5 21.333 88.5 39s39.833 40.334 50.5 68.001s16 60.834 16 99.501c0 30.667 15.667 46 47 46c11.333 0 21.166 -4.83301 29.499 -14.5s12.5 -20.167 12.5 -31.5c0 -146 75.333 -219 226 -219h25c27.333 0 41 -11.333 41 -34v-180v0zM310.001 647.998l-132 133l132 130
l132 -130zM340.001 -458.002l-132 133l132 130l132 -130z" />
    <glyph glyph-name="uni06B9.fina" unicode="&#x6b9;" horiz-adv-x="1301" 
d="M609 468l-132 133l132 130l132 -130zM581 -925l-132 133l132 130l132 -130zM1348 35c0 -23.333 -13.665 -34.999 -40.998 -34.999h-41c-19.333 0 -40.5 2.33301 -63.5 7s-48.167 12.334 -75.5 23.001c10 -46 15 -90.333 15 -133c0 -294 -209.333 -441 -628 -441
c-132.667 0 -236.334 32 -311.001 96c-80.667 71.333 -121 176 -121 314c0 82 28 179 84 291c34.667 68 64 102 88 102c22.667 0 34 -11 34 -33l-40 -109c-13.333 -36 -23.333 -68 -30 -96s-10 -52.333 -10 -73c0 -82.667 34.333 -144.334 103 -185.001
c61.333 -38.667 144.666 -58 249.999 -58c55.333 0 107.5 3.33301 156.5 10s95.5 15.667 139.5 27c128 36 192 92.333 192 169c0 21.333 -3.66699 43.166 -11 65.499s-19 45.5 -35 69.5c-26 41.333 -79 108 -159 200l109 229c100 -150.667 211.667 -226 335 -226h19
c27.333 0 41 -11.333 41 -34v-180v0z" />
    <glyph glyph-name="uni06BC.init" unicode="&#x6bc;" horiz-adv-x="465" 
d="M430 386c0 -257.333 -116 -386.001 -348 -386.001h-87c-27.333 0 -41 11.667 -41 35v180c0 22.667 13.667 34 41 34c206 0 309 22 309 66c0 24.667 -39 85 -117 181l131 203c74.667 -83.333 112 -187.666 112 -312.999zM128 788.999l-132 133l132 130l132 -130z
M285 -78.001c0 -23.333 -4.99902 -45.166 -14.999 -65.499s-23.667 -38.333 -41 -54s-37.5 -28 -60.5 -37s-47.5 -13.5 -73.5 -13.5c-30.667 0 -55.667 11.5 -75 34.5s-29 52.833 -29 89.5c0 47.333 13 93.666 39 138.999c31.333 53.333 69.666 80 114.999 80
c40.667 0 74.667 -18 102 -54c25.333 -33.333 38 -73 38 -119zM220.001 -103.001c-1.33301 11.333 -5.16699 22.667 -11.5 34s-14.5 21.5 -24.5 30.5s-21 16.333 -33 22s-24.333 8.5 -37 8.5c-18 0 -32.167 -7.5 -42.5 -22.5s-15.5 -31.5 -15.5 -49.5
c0 -8.66699 1.5 -16.334 4.5 -23.001s7.16699 -13.667 12.5 -21c6 -7.33301 13.667 -12.666 23 -15.999s19 -5 29 -5c39.333 0 71 14 95 42z" />
    <glyph glyph-name="uni06BC.medi" unicode="&#x6bc;" horiz-adv-x="725" 
d="M772 35c0 -23.333 -13.666 -35.002 -40.999 -35.002h-62c-84 0 -161.667 51.667 -233 155c-22.667 -44 -60.667 -80.667 -114 -110c-54 -30 -105.667 -45 -155 -45h-172c-27.333 0 -41 11.667 -41 35v180c0 22.667 13.667 34 41 34h111c50.667 0 94 4.16699 130 12.5
s65.5 21.333 88.5 39s39.833 40.334 50.5 68.001s16 60.834 16 99.501c0 30.667 15.667 46 47 46c11.333 0 21.166 -4.83301 29.499 -14.5s12.5 -20.167 12.5 -31.5c0 -146 75.333 -219 226 -219h25c27.333 0 41 -11.333 41 -34v-180v0zM343.001 672.998l-132 133l132 130
l132 -130zM291.001 -93.002c0 -23.333 -4.99902 -45.166 -14.999 -65.499s-23.667 -38.333 -41 -54s-37.5 -28 -60.5 -37s-47.5 -13.5 -73.5 -13.5c-30.667 0 -55.667 11.5 -75 34.5s-29 52.833 -29 89.5c0 47.333 13 93.666 39 138.999c31.333 53.333 69.666 80 114.999 80
c40.667 0 74.667 -18 102 -54c25.333 -33.333 38 -73 38 -119zM226.002 -118.002c-1.33301 11.333 -5.16699 22.667 -11.5 34s-14.5 21.5 -24.5 30.5s-21 16.333 -33 22s-24.333 8.5 -37 8.5c-18 0 -32.167 -7.5 -42.5 -22.5s-15.5 -31.5 -15.5 -49.5
c0 -8.66699 1.5 -16.334 4.5 -23.001s7.16699 -13.667 12.5 -21c6 -7.33301 13.667 -12.666 23 -15.999s19 -5 29 -5c39.333 0 71 14 95 42z" />
    <glyph glyph-name="uni06BC.fina" unicode="&#x6bc;" horiz-adv-x="1301" 
d="M595 433l-132 133l132 130l132 -130zM1348 35c0 -23.333 -13.665 -34.999 -40.998 -34.999h-41c-19.333 0 -40.5 2.33301 -63.5 7s-48.167 12.334 -75.5 23.001c10 -46 15 -90.333 15 -133c0 -294 -209.333 -441 -628 -441c-132.667 0 -236.334 32 -311.001 96
c-80.667 71.333 -121 176 -121 314c0 82 28 179 84 291c34.667 68 64 102 88 102c22.667 0 34 -11 34 -33l-40 -109c-13.333 -36 -23.333 -68 -30 -96s-10 -52.333 -10 -73c0 -82.667 34.333 -144.334 103 -185.001c61.333 -38.667 144.666 -58 249.999 -58
c55.333 0 107.5 3.33301 156.5 10s95.5 15.667 139.5 27c128 36 192 92.333 192 169c0 21.333 -3.66699 43.166 -11 65.499s-19 45.5 -35 69.5c-26 41.333 -79 108 -159 200l109 229c100 -150.667 211.667 -226 335 -226h19c27.333 0 41 -11.333 41 -34v-180v0z
M771.002 -621.999c0 -23.333 -4.99902 -45.166 -14.999 -65.499s-23.667 -38.333 -41 -54s-37.5 -28 -60.5 -37s-47.5 -13.5 -73.5 -13.5c-30.667 0 -55.667 11.5 -75 34.5s-29 52.833 -29 89.5c0 47.333 13 93.666 39 138.999c31.333 53.333 69.666 80 114.999 80
c40.667 0 74.667 -18 102 -54c25.333 -33.333 38 -73 38 -119zM706.003 -646.999c-1.33301 11.333 -5.16699 22.667 -11.5 34s-14.5 21.5 -24.5 30.5s-21 16.333 -33 22s-24.333 8.5 -37 8.5c-18 0 -32.167 -7.5 -42.5 -22.5s-15.5 -31.5 -15.5 -49.5
c0 -8.66699 1.5 -16.334 4.5 -23.001s7.16699 -13.667 12.5 -21c6 -7.33301 13.667 -12.666 23 -15.999s19 -5 29 -5c39.333 0 71 14 95 42z" />
    <glyph glyph-name="uni06BD.fina" unicode="&#x6bd;" horiz-adv-x="1301" 
d="M1348 35c0 -23.333 -13.665 -34.999 -40.998 -34.999h-41c-19.333 0 -40.5 2.33301 -63.5 7s-48.167 12.334 -75.5 23.001c10 -46 15 -90.333 15 -133c0 -294 -209.333 -441 -628 -441c-132.667 0 -236.334 32 -311.001 96c-80.667 71.333 -121 176 -121 314
c0 82 28 179 84 291c34.667 68 64 102 88 102c22.667 0 34 -11 34 -33l-40 -109c-13.333 -36 -23.333 -68 -30 -96s-10 -52.333 -10 -73c0 -82.667 34.333 -144.334 103 -185.001c61.333 -38.667 144.666 -58 249.999 -58c55.333 0 107.5 3.33301 156.5 10
s95.5 15.667 139.5 27c128 36 192 92.333 192 169c0 21.333 -3.66699 43.166 -11 65.499s-19 45.5 -35 69.5c-26 41.333 -79 108 -159 200l109 229c100 -150.667 211.667 -226 335 -226h19c27.333 0 41 -11.333 41 -34v-180v0zM580.002 720.001l-119 120l119 121l119 -121z
M716.002 483.001l-120 119l120 122l119 -122zM444.002 483.001l-120 119l120 122l119 -122z" />
    <glyph glyph-name="uni06BF.init" unicode="&#x6bf;" horiz-adv-x="1216" 
d="M1057 288c-6.66699 1.33301 -12.999 2.00391 -18.999 2.00391h-17c-44.667 0 -97.334 -10.667 -158.001 -32c-68 -24.667 -179.667 -76.334 -335 -155.001c-136.667 -68.667 -279.667 -103 -429 -103h-104c-27.333 0 -41 11.667 -41 35v180c0 22.667 13.667 34 41 34h94
c123.333 0 231 10 323 30c34 9.33301 77.167 22.166 129.5 38.499s114.833 37.166 187.5 62.499v8c-167.333 78 -284 117 -350 117c-42 0 -83 -20 -123 -60c-37.333 -38 -60.333 -57 -69 -57c-24 0 -36 12.333 -36 37c0 38.667 24.333 94 73 166
c60.667 89.333 130 134 208 134c22.667 0 60 -9.66699 112 -29s119.667 -48 203 -86c84 -38.667 157.833 -67.334 221.5 -86.001s118.5 -28 164.5 -28h50zM480.001 -419.996l-119 121l119 119l119 -119zM616.001 -655.996l-120 121l120 119l119 -119zM752.001 -419.996
l-119 121l119 119l119 -119zM633.001 873.004l-132 133l132 130l132 -130z" />
    <glyph glyph-name="uni06BF.medi" unicode="&#x6bf;" horiz-adv-x="1243" 
d="M1289 35c0 -23.333 -13.335 -34.999 -40.002 -34.999h-109c-128 0 -221 34.333 -279 103c-45.333 54.667 -65.666 125.334 -60.999 212.001c-149.333 -125.333 -278.666 -209 -387.999 -251c-109.333 -42.667 -248.333 -64 -417 -64c-27.333 0 -41 11.667 -41 35v180
c0 22.667 13.667 34 41 34c156.667 0 288.667 13.667 396 41c62 15.333 122.167 36.166 180.5 62.499s115.166 58.833 170.499 97.5v7c-24.667 7.33301 -53.667 15.166 -87 23.499s-71.333 17.166 -114 26.499c-42 9.33301 -76.5 16.333 -103.5 21s-45.5 7 -55.5 7
c-42 0 -83 -20 -123 -60c-36 -38 -59 -57 -69 -57c-23.333 0 -35 12.333 -35 37c0 39.333 24 94.666 72 165.999c60.667 88.667 130.334 133 209.001 133c61.333 0 135.333 -17.667 222 -53c67.333 -29.333 134.333 -50.666 201 -63.999s134.334 -19.333 203.001 -18l119 2
l-102 -228c-35.333 4 -67 6 -95 6c-35.333 0 -65.666 -6.33301 -90.999 -19c-2 -59.333 34 -97 108 -113c21.333 -5.33301 52.666 -9.66602 93.999 -12.999s92.666 -5 153.999 -5c26.667 0 40 -11.333 40 -34v-180v0zM517.998 -430.999l-119 121l119 119l119 -119z
M653.998 -666.999l-120 121l120 119l119 -119zM789.998 -430.999l-119 121l119 119l119 -119zM654.998 921.001l-132 133l132 130l132 -130z" />
    <glyph glyph-name="uni06BF.fina" unicode="&#x6bf;" horiz-adv-x="1282" 
d="M1329 35c0 -23.333 -13.6719 -34.999 -41.0049 -34.999h-150c-80 0 -151 24.333 -213 73c-74 54 -111 128 -111 222v27.5c0 11 0.666992 23.833 2 38.5c1.33301 16 2.33301 28.833 3 38.5s1 16.5 1 20.5c-84.667 -23.333 -157.5 -50.5 -218.5 -81.5
s-111.5 -65.5 -151.5 -103.5c-84 -79.333 -126 -183.666 -126 -312.999c0 -93.333 34.333 -168 103 -224c86 -72 224.667 -108 416 -108c46 0 89.5 1.5 130.5 4.5s79.833 7.83301 116.5 14.5c64 8.66699 94.333 14.667 91 18c6.66699 -2 10 -5 10 -9c0 -12 -13 -30 -39 -54
c-18.667 -17.333 -40.167 -33.166 -64.5 -47.499s-51.5 -26.5 -81.5 -36.5c-80 -28 -176.333 -42 -289 -42c-89.333 0 -170.166 8.16699 -242.499 24.5s-136.166 41.5 -191.499 75.5c-128 76 -192 188 -192 336c0 265.333 187 459.666 561 582.999v9
c-61.333 13.333 -116.666 23.166 -165.999 29.499s-92 9.5 -128 9.5c-43.333 0 -79.666 -10.667 -108.999 -32c-6 -4.66699 -13.667 -12 -23 -22l-32 -35c-17.333 -21.333 -31.666 -32 -42.999 -32c-21.333 0 -32 12.333 -32 37c0 23.333 6 50 18 80s29.667 63 53 99
c57.333 90.667 122.666 136 195.999 136c21.333 0 54.333 -3.33301 99 -10s102.334 -17 173.001 -31c140 -26 232 -39 276 -39c50 0 96.667 1 140 3s84.333 5.33301 123 10l-114 -228c-36 0 -67.5 -0.833008 -94.5 -2.5s-50.167 -4.5 -69.5 -8.5v-33
c0 -56.667 26.667 -97 80 -121c21.333 -8.66699 48.333 -15.334 81 -20.001s71.667 -7 117 -7h91c27.333 0 41 -11.333 41 -34v-180v0zM507.995 -111.999l-119 121l119 119l119 -119zM643.995 -347.999l-120 121l120 119l119 -119zM779.995 -111.999l-119 121l119 119
l119 -119zM671.995 860.001l-132 133l132 130l132 -130z" />
    <glyph glyph-name="uni06C4.fina" unicode="&#x6c4;" horiz-adv-x="831" 
d="M878 35c0 -23.333 -13.6689 -35.0029 -41.002 -35.0029h-161c-5.33301 -117.333 -26.666 -216.666 -63.999 -297.999c-15.333 -32.667 -34.166 -64.5 -56.499 -95.5s-49.166 -62.167 -80.499 -93.5c-27.333 -27.333 -53.333 -41 -78 -41c-19.333 0 -49.833 2 -91.5 6
s-94.834 9.66699 -159.501 17c-97.333 10.667 -146 22.334 -146 35.001s22.333 27 67 43c66.667 25.333 129.5 55.5 188.5 90.5s114.833 74.833 167.5 119.5c94.667 82.667 142 146.334 142 191.001c0 5.33301 -0.833008 11 -2.5 17s-4.16699 12.667 -7.5 20
c-35.333 -7.33301 -88.666 -11 -159.999 -11c-168.667 -0 -253 53.333 -253 160c0 33.333 4.66699 70.333 14 111s23.666 85 42.999 133c52 133.333 118.667 200 200 200c78.667 0 142.667 -36 192 -108c21.333 -33.333 38.5 -70.333 51.5 -111s21.167 -86 24.5 -136h170
c27.333 0 41 -11.333 41 -34v-180zM525.998 239.997c-28 99.333 -84.667 149 -170 149c-26 0 -48 -9.33301 -66 -28c-14.667 -16.667 -22 -33.334 -22 -50.001c0 -53.333 47 -80 141 -80c20.667 0 40.667 0.833008 60 2.5s38.333 3.83398 57 6.50098zM385.998 -589.003
c0 -23.333 -4.99902 -45.166 -14.999 -65.499s-23.667 -38.333 -41 -54s-37.5 -28 -60.5 -37s-47.5 -13.5 -73.5 -13.5c-30.667 0 -55.667 11.5 -75 34.5s-29 52.833 -29 89.5c0 47.333 13 93.666 39 138.999c31.333 53.333 69.666 80 114.999 80
c40.667 0 74.667 -18 102 -54c25.333 -33.333 38 -73 38 -119zM320.999 -614.003c-1.33301 11.333 -5.16699 22.667 -11.5 34s-14.5 21.5 -24.5 30.5s-21 16.333 -33 22s-24.333 8.5 -37 8.5c-18 0 -32.167 -7.5 -42.5 -22.5s-15.5 -31.5 -15.5 -49.5
c0 -8.66699 1.5 -16.334 4.5 -23.001s7.16699 -13.667 12.5 -21c6 -7.33301 13.667 -12.666 23 -15.999s19 -5 29 -5c39.333 0 71 14 95 42z" />
    <glyph glyph-name="uni06CA.fina" unicode="&#x6ca;" horiz-adv-x="831" 
d="M878 3c0 -23.333 -13.6689 -35.0029 -41.002 -35.0029h-161c-5.33301 -117.333 -26.666 -216.666 -63.999 -297.999c-15.333 -32.667 -34.166 -64.5 -56.499 -95.5s-49.166 -62.167 -80.499 -93.5c-27.333 -27.333 -53.333 -41 -78 -41c-19.333 0 -49.833 2 -91.5 6
s-94.834 9.66699 -159.501 17c-97.333 10.667 -146 22.334 -146 35.001s22.333 27 67 43c66.667 25.333 129.5 55.5 188.5 90.5s114.833 74.833 167.5 119.5c94.667 82.667 142 146.334 142 191.001c0 5.33301 -0.833008 11 -2.5 17s-4.16699 12.667 -7.5 20
c-35.333 -7.33301 -88.666 -11 -159.999 -11c-168.667 0 -253 53.333 -253 160c0 33.333 4.66699 70.333 14 111s23.666 85 42.999 133c52 133.333 118.667 200 200 200c78.667 0 142.667 -36 192 -108c21.333 -33.333 38.5 -70.333 51.5 -111s21.167 -86 24.5 -136h170
c27.333 0 41 -11.333 41 -34v-180zM525.998 207.997c-28 99.333 -84.667 149 -170 149c-26 0 -48 -9.33301 -66 -28c-14.667 -16.667 -22 -33.334 -22 -50.001c0 -53.333 47 -80 141 -80c20.667 0 40.667 0.833008 60 2.5s38.333 3.83398 57 6.50098zM533.998 756.997
l-119 119l119 121l119 -121zM261.998 756.997l-119 119l119 121l119 -121z" />
    <glyph glyph-name="uni06CD.fina" unicode="&#x6cd;" horiz-adv-x="1412" 
d="M1459 35c0 -23.333 -13.668 -34.998 -41.001 -34.998c-42 0 -84.167 1.33301 -126.5 4s-85.5 7.33398 -129.5 14.001c-44 7.33301 -80.833 12.333 -110.5 15s-53.5 4 -71.5 4c-21.333 0 -40.5 -1.83301 -57.5 -5.5s-32.167 -9.83398 -45.5 -18.501
c-23.333 -14.667 -35 -30.334 -35 -47.001c0 -22 14.333 -35 43 -39l273 -43c28.667 -2.66699 52.334 -15 71.001 -37c24.667 -24 36 -53.667 34 -89c-4.66699 -132 -81 -222 -229 -270c-97.333 -33.333 -250.333 -50 -459 -50c-312 0 -469 115 -471 345
c0 75.333 24.667 168.333 74 279l-223 -106l20 116l270 96c2.66699 2.66699 7.5 5 14.5 7s14.167 2.16699 21.5 0.5s14 -5.33398 20 -11.001s9 -14.5 9 -26.5c0 -1.33301 -2.66699 -8 -8 -20s-13 -32.667 -23 -62c-10.667 -29.333 -18.334 -56.333 -23.001 -81
s-7 -46.667 -7 -66c0 -104 60.333 -177.333 181 -220c72.667 -25.333 159 -38 259 -38c298.667 0 448 23.333 448 70c0 16.667 -19.667 27.667 -59 33l-240 43c-80.667 15.333 -121 47 -121 95c0 81.333 36.667 159.333 110 234c87.333 90 197.333 135 330 135
c7.33301 0 19.833 -0.5 37.5 -1.5s39.834 -2.16699 66.501 -3.5c28 -2.66699 55.167 -4.5 81.5 -5.5s51.5 -1.5 75.5 -1.5c27.333 0 41 -11.333 41 -34v-180v0z" />
    <glyph glyph-name="uni06CE.init" unicode="&#x6ce;" horiz-adv-x="465" 
d="M430 386c0 -257.333 -116 -386.001 -348 -386.001h-87c-27.333 0 -41 11.667 -41 35v180c0 22.667 13.667 34 41 34c206 0 309 22 309 66c0 24.667 -39 85 -117 181l131 203c74.667 -83.333 112 -187.666 112 -312.999zM392 1062l-31.001 -28.502
c-12.667 -11.667 -26.5 -28.167 -41.5 -49.5s-30.5 -49.166 -46.5 -83.499s-31.333 -77.833 -46 -130.5h-25c-6 28.667 -15.5 57 -28.5 85s-27.667 54.5 -44 79.5s-33.666 47.833 -51.999 68.5s-36.5 38 -54.5 52l113 -7l18.5 -23c6.33301 -8 12.833 -18.667 19.5 -32
s13.334 -30.166 20.001 -50.499s13.667 -45.833 21 -76.5c2 12 4.83301 25.667 8.5 41s8.16699 31.333 13.5 48s11.666 33.5 18.999 50.5s16 32.833 26 47.5zM353.999 -431.003l-119 119l119 121l119 -121zM81.999 -431.003l-119 119l119 121l119 -121z" />
    <glyph glyph-name="uni06CE.medi" unicode="&#x6ce;" horiz-adv-x="725" 
d="M772 35c0 -23.333 -13.666 -35.002 -40.999 -35.002h-62c-84 0 -161.667 51.667 -233 155c-22.667 -44 -60.667 -80.667 -114 -110c-54 -30 -105.667 -45 -155 -45h-172c-27.333 0 -41 11.667 -41 35v180c0 22.667 13.667 34 41 34h111c50.667 0 94 4.16699 130 12.5
s65.5 21.333 88.5 39s39.833 40.334 50.5 68.001s16 60.834 16 99.501c0 30.667 15.667 46 47 46c11.333 0 21.166 -4.83301 29.499 -14.5s12.5 -20.167 12.5 -31.5c0 -146 75.333 -219 226 -219h25c27.333 0 41 -11.333 41 -34v-180v0zM604.001 985.998l-31.001 -28.502
c-12.667 -11.667 -26.5 -28.167 -41.5 -49.5s-30.5 -49.166 -46.5 -83.499s-31.333 -77.833 -46 -130.5h-25c-6 28.667 -15.5 57 -28.5 85s-27.667 54.5 -44 79.5s-33.666 47.833 -51.999 68.5s-36.5 38 -54.5 52l113 -7l18.5 -23c6.33301 -8 12.833 -18.667 19.5 -32
s13.334 -30.166 20.001 -50.499s13.667 -45.833 21 -76.5c2 12 4.83301 25.667 8.5 41s8.16699 31.333 13.5 48s11.666 33.5 18.999 50.5s16 32.833 26 47.5zM530 -464.004l-119 119l119 121l119 -121zM258 -464.004l-119 119l119 121l119 -121z" />
    <glyph glyph-name="uni06CE.fina" unicode="&#x6ce;" horiz-adv-x="1390" 
d="M1437 35c0 -23.333 -13.668 -34.999 -41.001 -34.999c-42 0 -84.167 1.33301 -126.5 4s-85.5 7.33398 -129.5 14.001c-44 7.33301 -80.833 12.333 -110.5 15s-53.5 4 -71.5 4c-21.333 0 -40.5 -1.83301 -57.5 -5.5s-32.167 -9.83398 -45.5 -18.501
c-23.333 -14.667 -35 -30.334 -35 -47.001c0 -22 14.333 -35 43 -39l274 -43c28 -2.66699 51.667 -15 71 -37c24 -24 35 -53.667 33 -89c-4.66699 -132 -81 -222 -229 -270c-49.333 -17.333 -112 -30 -188 -38s-166.333 -12 -271 -12c-312 0 -469 115 -471 345
c0 42.667 7.83301 90.5 23.5 143.5s39.5 112.833 71.5 179.5c22 47.333 46 71 72 71s39 -13 39 -39c0 3.33301 -10 -24 -30 -82c-20.667 -57.333 -31 -106.333 -31 -147c0 -104 60.667 -177.333 182 -220c72 -25.333 158 -38 258 -38c298.667 0 448 23.333 448 70
c0 17.333 -19.333 28.333 -58 33l-241 43c-80.667 15.333 -121 47 -121 95c0 41.333 9.33301 81.333 28 120s46 76.667 82 114c87.333 90 197.333 135 330 135c7.33301 0 19.833 -0.5 37.5 -1.5s39.834 -2.16699 66.501 -3.5c28 -2.66699 55.167 -4.5 81.5 -5.5
s51.5 -1.5 75.5 -1.5c27.333 0 41 -11.333 41 -34v-180v0zM635.999 671.001l-31.001 -28.502c-12.667 -11.667 -26.5 -28.167 -41.5 -49.5s-30.5 -49.166 -46.5 -83.499s-31.333 -77.833 -46 -130.5h-25c-6 28.667 -15.5 57 -28.5 85s-27.667 54.5 -44 79.5
s-33.666 47.833 -51.999 68.5s-36.5 38 -54.5 52l113 -7l18.5 -23c6.33301 -8 12.833 -18.667 19.5 -32s13.334 -30.166 20.001 -50.499s13.667 -45.833 21 -76.5c2 12 4.83301 25.667 8.5 41s8.16699 31.333 13.5 48s11.666 33.5 18.999 50.5s16 32.833 26 47.5z" />
    <glyph glyph-name="uni06CF.fina" unicode="&#x6cf;" horiz-adv-x="831" 
d="M878 35c0 -23.333 -13.6689 -35.0029 -41.002 -35.0029h-161c-5.33301 -117.333 -26.666 -216.666 -63.999 -297.999c-15.333 -32.667 -34.166 -64.5 -56.499 -95.5s-49.166 -62.167 -80.499 -93.5c-27.333 -27.333 -53.333 -41 -78 -41c-19.333 0 -49.833 2 -91.5 6
s-94.834 9.66699 -159.501 17c-97.333 10.667 -146 22.334 -146 35.001s22.333 27 67 43c66.667 25.333 129.5 55.5 188.5 90.5s114.833 74.833 167.5 119.5c94.667 82.667 142 146.334 142 191.001c0 5.33301 -0.833008 11 -2.5 17s-4.16699 12.667 -7.5 20
c-35.333 -7.33301 -88.666 -11 -159.999 -11c-168.667 -0 -253 53.333 -253 160c0 33.333 4.66699 70.333 14 111s23.666 85 42.999 133c52 133.333 118.667 200 200 200c78.667 0 142.667 -36 192 -108c21.333 -33.333 38.5 -70.333 51.5 -111s21.167 -86 24.5 -136h170
c27.333 0 41 -11.333 41 -34v-180zM525.998 239.997c-28 99.333 -84.667 149 -170 149c-26 0 -48 -9.33301 -66 -28c-14.667 -16.667 -22 -33.334 -22 -50.001c0 -53.333 47 -80 141 -80c20.667 0 40.667 0.833008 60 2.5s38.333 3.83398 57 6.50098zM397.998 768.997
l-132 133l132 130l132 -130z" />
    <glyph glyph-name="uni06D1.fina" unicode="&#x6d1;" horiz-adv-x="1390" 
d="M439 -930l-119 121l119 119l119 -119zM575 -1166l-120 121l120 119l119 -119zM711 -930l-119 121l119 119l119 -119zM1437 35c0 -23.333 -13.668 -34.999 -41.001 -34.999c-42 0 -84.167 1.33301 -126.5 4s-85.5 7.33398 -129.5 14.001
c-44 7.33301 -80.833 12.333 -110.5 15s-53.5 4 -71.5 4c-21.333 0 -40.5 -1.83301 -57.5 -5.5s-32.167 -9.83398 -45.5 -18.501c-23.333 -14.667 -35 -30.334 -35 -47.001c0 -22 14.333 -35 43 -39l274 -43c28 -2.66699 51.667 -15 71 -37c24 -24 35 -53.667 33 -89
c-4.66699 -132 -81 -222 -229 -270c-49.333 -17.333 -112 -30 -188 -38s-166.333 -12 -271 -12c-312 0 -469 115 -471 345c0 42.667 7.83301 90.5 23.5 143.5s39.5 112.833 71.5 179.5c22 47.333 46 71 72 71s39 -13 39 -39c0 3.33301 -10 -24 -30 -82
c-20.667 -57.333 -31 -106.333 -31 -147c0 -104 60.667 -177.333 182 -220c72 -25.333 158 -38 258 -38c298.667 0 448 23.333 448 70c0 17.333 -19.333 28.333 -58 33l-241 43c-80.667 15.333 -121 47 -121 95c0 41.333 9.33301 81.333 28 120s46 76.667 82 114
c87.333 90 197.333 135 330 135c7.33301 0 19.833 -0.5 37.5 -1.5s39.834 -2.16699 66.501 -3.5c28 -2.66699 55.167 -4.5 81.5 -5.5s51.5 -1.5 75.5 -1.5c27.333 0 41 -11.333 41 -34v-180v0z" />
    <glyph glyph-name="uni06FA.init" unicode="&#x6fa;" horiz-adv-x="1301" 
d="M1261 363c0 -96 -20.333 -178.333 -61 -247c-23.333 -38.667 -50.666 -67.667 -81.999 -87s-66 -29 -104 -29c-58 0 -105.333 13 -142 39c-13.333 10.667 -26.833 24 -40.5 40s-27.5 35.667 -41.5 59c-52 -92 -116 -138 -192 -138c-58 0 -104.333 13 -139 39
c-14.667 10.667 -28.5 24 -41.5 40s-25.833 35.667 -38.5 59c-20.667 -24.667 -41.667 -45.334 -63 -62.001s-43 -30.334 -65 -41.001c-26 -12 -55.667 -20.833 -89 -26.5s-70 -8.5 -110 -8.5h-57c-27.333 0 -41 11.667 -41 35v180c0 22.667 13.667 34 41 34h96
c40 0 75.167 4.66699 105.5 14s56.166 23 77.499 41c36.667 32 55 73.667 55 125c0 44.667 15.333 67 46 67c30 0 45 -22.333 45 -67c0 -18 2.66699 -36.167 8 -54.5s14.333 -37.166 27 -56.499c32 -46 71.667 -69 119 -69c48.667 0 89 23 121 69
c24 36.667 36 73.667 36 111c0 44.667 14.667 67 44 67c30 0 45 -22.333 45 -67c0 -37.333 12.333 -74.333 37 -111c32 -46 75 -69 129 -69c109.333 0 164 30 164 90c0 24.667 -32.333 75.667 -97 153l110 184c65.333 -87.333 98 -191.666 98 -312.999zM764 957l-119 120
l119 121l119 -121zM900 720l-120 119l120 122l119 -122zM628 720l-120 119l120 122l119 -122zM762 -473l-132 133l132 130l132 -130z" />
    <glyph glyph-name="uni06FA.medi" unicode="&#x6fa;" horiz-adv-x="1450" 
d="M1497 35c0 -23.333 -13.999 -34.999 -41.999 -34.999h-24c-88 0 -163 46 -225 138c-54 -92 -118 -138 -192 -138c-58 0 -105.333 13 -142 39c-13.333 10.667 -26.833 24 -40.5 40s-27.5 35.667 -41.5 59c-52 -92 -116 -138 -192 -138c-58 0 -104.333 13 -139 39
c-14.667 10.667 -28.5 24 -41.5 40s-25.833 35.667 -38.5 59c-20.667 -24.667 -41.667 -45.334 -63 -62.001s-43 -30.334 -65 -41.001c-26 -12 -55.667 -20.833 -89 -26.5s-70 -8.5 -110 -8.5h-57c-27.333 0 -41 11.667 -41 35v180c0 22.667 13.667 34 41 34h96
c40 0 75.167 4.66699 105.5 14s56.166 23 77.499 41c36.667 32 55 73.667 55 125c0 44.667 15.333 67 46 67c30 0 45 -22.333 45 -67c0 -18 2.66699 -36.167 8 -54.5s14.333 -37.166 27 -56.499c32 -46 71.667 -69 119 -69c54.667 0 98 23 130 69
c25.333 36.667 38 73.667 38 111c0 44.667 14.667 67 44 67c30 0 45 -22.333 45 -67c0 -37.333 12.333 -74.333 37 -111c32 -46 73.333 -69 124 -69c57.333 0 102 23 134 69c26 36 39 73 39 111c0 44.667 14.667 67 44 67c30 0 45 -22.333 45 -67c0 -38 15 -75 45 -111
c38.667 -46 90.667 -69 156 -69c28 0 42 -11.333 42 -34v-180v0zM783.001 951.001l-119 120l119 121l119 -121zM919.001 714.001l-120 119l120 122l119 -122zM647.001 714.001l-120 119l120 122l119 -122zM785.001 -469.999l-132 133l132 130l132 -130z" />
    <glyph glyph-name="uni06FA.fina" unicode="&#x6fa;" horiz-adv-x="1931" 
d="M1977 35c0 -23.333 -13.665 -34.9971 -40.998 -34.9971h-24c-88.667 0 -164 46 -226 138c-53.333 -92 -115.666 -138 -186.999 -138c-72.667 0 -135 43.333 -187 130c-4 -16.667 -11.333 -32.834 -22 -48.501s-22.834 -29.5 -36.501 -41.5s-28.167 -21.667 -43.5 -29
s-29.333 -11 -42 -11c-35.333 0 -59.333 4.33301 -72 13v-99c0 -150.667 -53 -265 -159 -343c-100.667 -76.667 -241.667 -115 -423 -115c-132.667 0 -236.334 32 -311.001 96c-80.667 71.333 -121 176 -121 314c0 82 28 179 84 291c34.667 68 64 102 88 102
c22.667 0 34 -11 34 -33l-40 -109c-13.333 -36 -23.333 -68 -30 -96s-10 -52.333 -10 -73c0 -82.667 34.333 -144.334 103 -185.001c61.333 -38.667 144.666 -58 249.999 -58c55.333 0 106.833 4 154.5 12s92.5 19.667 134.5 35c53.333 20 93 43.5 119 70.5
s38.333 58.833 37 95.5c0 66.667 -72 174.667 -216 324l103 224c30 -41.333 56.333 -75.833 79 -103.5s43.167 -49.834 61.5 -66.501s35.333 -28.667 51 -36s31.167 -11 46.5 -11c46.667 0 84 23 112 69c24 36.667 36 73.667 36 111c0 44.667 14.667 67 44 67
c30 0 45 -22.333 45 -67c0 -35.333 11.667 -72.333 35 -111c28 -46 65.333 -69 112 -69c38 0 70.667 23 98 69c10.667 20 18.667 39 24 57s8 36 8 54c0 44.667 15.333 67 46 67c29.333 0 44 -22.333 44 -67c0 -38.667 15.667 -75.667 47 -111c38.667 -46 90 -69 154 -69
c27.333 0 41 -11.333 41 -34v-180v0zM1349 931.003l-119 120l119 121l119 -121zM1485 694.003l-120 119l120 122l119 -122zM1213 694.003l-120 119l120 122l119 -122zM1378 -493.997l-132 133l132 130l132 -130z" />
    <glyph glyph-name="uni06FB.init" unicode="&#x6fb;" horiz-adv-x="1408" 
d="M1368 441c0 -86 -33.332 -170.333 -99.999 -253c-104 -125.333 -261.667 -188 -473 -188c-120 0 -201.333 3.66699 -244 11c-92 19.333 -157.667 61.666 -197 126.999c-50 -58 -99 -95.333 -147 -112c-48 -17.333 -118.667 -26 -212 -26c-27.333 0 -41 11.667 -41 35v180
c0 22.667 13.667 34 41 34h46c94.667 0 165.667 23 213 69c32 33.333 48 70.333 48 111c0 44.667 15 67 45 67c29.333 0 44 -22.333 44 -67c0 -40.667 11.333 -75.667 34 -105c31.333 -42 80.333 -63 147 -63c218 283.333 407.333 425 568 425
c69.333 0 124.333 -21.333 165 -64c21.333 -21.333 37.166 -47.166 47.499 -77.499s15.5 -64.833 15.5 -103.5zM1218 350c0 38 -20.668 71.332 -62.001 99.999c-19.333 12.667 -39.333 22.334 -60 29.001s-41.667 10 -63 10c-103.333 0 -219.666 -78.333 -348.999 -235
c14 -1.33301 36.833 -2.5 68.5 -3.5s73.5 -1.5 125.5 -1.5c226.667 0 340 33.667 340 101zM562 677.999l-132 133l132 130l132 -130zM551 -468.001l-132 133l132 130l132 -130z" />
    <glyph glyph-name="uni06FB.medi" unicode="&#x6fb;" horiz-adv-x="1419" 
d="M1465 35c0 -23.333 -13.665 -35.001 -40.998 -35.001c-114.667 0 -192.334 37.333 -233.001 112c-79.333 -50 -153.333 -82 -222 -96c-52.667 -10.667 -147.667 -16 -285 -16c-164 0 -274 46 -330 138c-50 -58 -99 -95.333 -147 -112c-48 -17.333 -118.667 -26 -212 -26
c-27.333 0 -41 11.667 -41 35v180c0 22.667 13.667 34 41 34h46c94.667 0 165.667 23 213 69c32 33.333 48 70.333 48 111c0 44.667 15 67 45 67c29.333 0 44 -22.333 44 -67c0 -38.667 13 -75 39 -109c36 -44 83.333 -63.667 142 -59c222 283.333 411.333 425 568 425
c69.333 0 124.333 -21.333 165 -64c21.333 -21.333 37.166 -47.166 47.499 -77.499s15.5 -64.833 15.5 -103.5c0 -42 -13.667 -93.333 -41 -154l-15 -31l112 -7c27.333 0 41 -11.333 41 -34v-180zM1218 349.999c0 38 -20.668 71.332 -62.001 99.999
c-19.333 12.667 -39.333 22.334 -60 29.001s-41.667 10 -63 10c-103.333 0 -219.666 -78.333 -348.999 -235c14 -1.33301 36.833 -2.5 68.5 -3.5s73.5 -1.5 125.5 -1.5c226.667 0 340 33.667 340 101zM599.001 709.998l-132 133l132 130l132 -130zM619.001 -483.002
l-132 133l132 130l132 -130z" />
    <glyph glyph-name="uni06FB.fina" unicode="&#x6fb;" horiz-adv-x="1903" 
d="M1949 35c0 -23.333 -13.6631 -35.001 -40.9961 -35.001c-112.667 0 -190.334 37.333 -233.001 112c-109.333 -74.667 -241 -112 -395 -112c-68 0 -133.667 11.667 -197 35c5.33301 -25.333 9.33301 -48.166 12 -68.499s4 -37.833 4 -52.5
c1.33301 -76 -11.334 -142.167 -38.001 -198.5s-66.667 -104.5 -120 -144.5c-102.667 -76.667 -245 -115 -427 -115c-132.667 0 -236.334 32 -311.001 96c-80.667 71.333 -121 176 -121 314c0 82 28 179 84 291c34.667 68 64 102 88 102c22.667 0 34 -11 34 -33l-40 -109
c-13.333 -36 -23.333 -68 -30 -96s-10 -52.333 -10 -73c0 -82.667 34.333 -144.334 103 -185.001c61.333 -38.667 144.666 -58 249.999 -58c55.333 0 106.833 4 154.5 12s92.5 19.667 134.5 35c53.333 20 93 43.5 119 70.5s38.333 58.833 37 95.5
c0 66.667 -72 174.667 -216 324l103 224c62.667 -86.667 121.667 -150 177 -190c105.333 138 204.333 240.833 297 308.5s178.667 101.5 258 101.5c69.333 0 123.333 -21.333 162 -64c44 -42.667 66 -103 66 -181c0 -40 -13.667 -91.333 -41 -154
c-3.33301 -4.66699 -6 -9.66699 -8 -15s-4.66699 -10.666 -8 -15.999c18 -2.66699 36.167 -4.5 54.5 -5.5s36.833 -1.5 55.5 -1.5c28.667 0 43 -11.333 43 -34v-180zM1704 349.999c0 38 -21.334 71.332 -64.001 99.999c-19.333 12.667 -39.333 22.334 -60 29.001
s-41.667 10 -63 10c-103.333 0 -219.666 -78.333 -348.999 -235c14.667 -1.33301 37.667 -2.5 69 -3.5s73 -1.5 125 -1.5c228 0 342 33.667 342 101zM1208 698.998l-132 133l132 130l132 -130zM1313 -528.002l-132 133l132 130l132 -130z" />
    <glyph glyph-name="uni06FC.init" unicode="&#x6fc;" horiz-adv-x="994" 
d="M833 89l-88 -7.00098c-41.333 -3.33301 -102.5 -9.66602 -183.5 -18.999l-305.5 -37c-55.333 -8.66699 -104.5 -15.167 -147.5 -19.5s-80.833 -6.5 -113.5 -6.5c-27.333 0 -41 11.667 -41 35v180c0 22.667 13.667 34 41 34h50l213 7l-21 27
c-37.333 34.667 -56 78.334 -56 131.001c0 92.667 43.333 182.667 130 270c88 88 179.333 132 274 132c64.667 0 128.667 -30.333 192 -91c58 -56 87 -102 87 -138c0 -10.667 -7.66699 -16 -23 -16c1.33301 0 -3 1.16699 -13 3.5l-47 10.5c-44 11.333 -95.667 17 -155 17
c-198 0 -297 -34.667 -297 -104c0 -38.667 21.333 -77.334 64 -116.001c58.667 -54.667 137 -82 235 -82c137.333 0 244 8 320 24zM504 1040l-132 133l132 130l132 -130zM518 -474.001l-132 133l132 130l132 -130z" />
    <glyph glyph-name="uni06FC.medi" unicode="&#x6fc;" horiz-adv-x="827" 
d="M875 35c0 -23.333 -14 -35.002 -42 -35.002h-65c-115.333 0 -220.333 57.667 -315 173c-54 -65.333 -115 -111.333 -183 -138c-58.667 -23.333 -134.334 -35 -227.001 -35h-48c-27.333 0 -41 11.667 -41 35v180c0 22.667 13.667 34 41 34h117
c36.667 0 75.167 4.33301 115.5 13s82.5 20.667 126.5 36v17l-80 84c-23.333 24.667 -42.666 43.334 -57.999 56.001s-26.333 20 -33 22c-18.667 4.66699 -28 13.334 -28 26.001c0 48.667 20.667 91 62 127c50 46 123 69 219 69c85.333 0 152.333 -13.667 201 -41
c61.333 -31.333 92 -78.666 92 -141.999c0 -31.333 -22.333 -70.333 -67 -117c-20 -20 -39.167 -36.833 -57.5 -50.5s-36.166 -24.834 -53.499 -33.501v-11c35.333 -18 74.166 -31.667 116.499 -41s89.5 -14 141.5 -14h24c28 0 42 -11.333 42 -34v-180v0zM398 844.998
l-132 133l132 130l132 -130zM411 -457.002l-132 133l132 130l132 -130z" />
    <glyph glyph-name="uni06FC.fina" unicode="&#x6fc;" horiz-adv-x="1165" 
d="M1211 35c0 -23.333 -13.668 -35.0049 -41.001 -35.0049h-117c-34 0 -70.333 7 -109 21s-80 35.667 -124 65c-84 54 -154 118.333 -210 193c-204 -89.333 -306 -216 -306 -380c0 -114 49 -196.667 147 -248c38 -20 80.833 -35.167 128.5 -45.5
s101.834 -15.5 162.501 -15.5c46 0 89.667 1.5 131 4.5s80 7.83301 116 14.5c64 9.33301 94.667 15.333 92 18c6 -2 9 -5 9 -9c0 -12 -13 -30 -39 -54c-18.667 -17.333 -40 -33.166 -64 -47.499s-51.333 -26.5 -82 -36.5c-80 -28 -176 -42 -288 -42
c-93.333 0 -175 10.167 -245 30.5s-128.667 51.5 -176 93.5c-82 70.667 -123 162.667 -123 276c0 209.333 154.667 380 464 512l-80 79c-48 47.333 -78.667 71.333 -92 72c-18 4 -27 13 -27 27c0 48.667 20.333 91.334 61 128.001c50 46 123.333 69 220 69
c80.667 0 147.667 -14.333 201 -43c31.333 -15.333 54.333 -35 69 -59s22 -51.333 22 -82c0 -31.333 -22.333 -68.333 -67 -111c-16.667 -15.333 -34.334 -29.666 -53.001 -42.999s-37.667 -25.666 -57 -36.999v-9c28 -19.333 58.333 -35.166 91 -47.499
s68.334 -21.833 107.001 -28.5c28 -4.66699 61.833 -8.5 101.5 -11.5s85.167 -4.5 136.5 -4.5c27.333 0 41 -11.333 41 -34v-180v0zM637.999 899.995l-132 133l132 130l132 -130zM645.999 -281.005l-132 133l132 130l132 -130z" />
    <glyph glyph-name="uniFB51" unicode="&#x671;" horiz-adv-x="470" arabic-form="final" 
d="M518 35c0 -23.333 -11.999 -34.999 -35.999 -34.999h-59c-44 0 -83.333 7 -118 21s-64.667 35.667 -90 65c-40 47.333 -60 97.666 -60 150.999c0 44 -1.5 100.5 -4.5 169.5s-7.16699 150.833 -12.5 245.5c-7.33301 107.333 -14.833 199.666 -22.5 276.999
s-15.834 141 -24.501 191l49 47c80 78 124 117 132 117c7.33301 0 13.333 -67.667 18 -203l21 -699c1.33301 -25.333 4.83301 -46.666 10.5 -63.999s14.834 -31.333 27.501 -42c21.333 -18 56.666 -27 105.999 -27c42 0 63 -11.333 63 -34v-180v0zM375.001 1566
c0 -54.667 -17.999 -97.998 -53.999 -129.998c-15.333 -15.333 -32.833 -26.833 -52.5 -34.5s-42.167 -11.5 -67.5 -11.5c-8 0 -17 0.5 -27 1.5s-19.833 2.16699 -29.5 3.5s-19 2.5 -28 3.5s-16.5 1.5 -22.5 1.5c-36.667 0 -62 -21.667 -76 -65
c-9.33301 8 -15.833 17.333 -19.5 28s-5.5 23 -5.5 37c0 27.333 10 50.666 30 69.999c10 10.667 19.667 17.834 29 21.501s18.333 5.5 27 5.5h10c6 0 10 -0.666992 12 -2c32.667 53.333 64 94.166 94 122.499s59.333 42.5 88 42.5c12.667 0 24.667 -2.5 36 -7.5
s21.166 -11.667 29.499 -20s14.833 -18.333 19.5 -30s7 -23.834 7 -36.501zM325.002 1532c0 12.667 -5.33301 23.001 -16 31.001s-26.667 12 -48 12s-41.333 -7.5 -60 -22.5s-37.667 -36.167 -57 -63.5c8 -0.666992 19.833 -1.33398 35.5 -2.00098s32.5 -1 50.5 -1
c6 0 14.333 0.833008 25 2.5s21.167 4.5 31.5 8.5s19.333 8.83301 27 14.5s11.5 12.5 11.5 20.5z" />
    <glyph glyph-name="uniFB53" unicode="&#x67b;" horiz-adv-x="1653" arabic-form="final" 
d="M1700 35c0 -23.333 -13.667 -35.002 -41 -35.002c-83.333 0 -145.666 12.333 -186.999 37c-39.333 25.333 -76 73.333 -110 144c-165.333 -136 -401.333 -204 -708 -204c-92.667 0 -172.5 6.66699 -239.5 20s-122.5 33.333 -166.5 60
c-95.333 59.333 -143 154.666 -143 285.999c0 34.667 3.66699 68.334 11 101.001s19 65.334 35 98.001c28 58.667 52.333 88 73 88c27.333 0 41 -12.667 41 -38c0 -2 -1.83301 -7.16699 -5.5 -15.5s-7.5 -19 -11.5 -32s-7.83301 -27.5 -11.5 -43.5s-5.5 -32.667 -5.5 -50
c0 -37.333 10.333 -70.5 31 -99.5s52 -53.167 94 -72.5c37.333 -17.333 80.666 -30.333 129.999 -39s104.666 -13 165.999 -13c214.667 0 386.667 24.333 516 73c88.667 34 157.667 79.333 207 136c44.667 48.667 68.334 73 71.001 73c30 0 45 -15 45 -45
c0 -20.667 -3.16699 -42.167 -9.5 -64.5s-15.833 -46.166 -28.5 -71.499c27.333 -52.667 96 -79 206 -79c27.333 0 41 -11.333 41 -34v-180v0zM704 -707.002l-120 119l120 121l119 -121zM702 -447.002l-119 119l119 122l119 -122z" />
    <glyph glyph-name="uniFB54" unicode="&#x67b;" horiz-adv-x="465" arabic-form="initial" 
d="M430 386c0 -257.333 -116 -386.001 -348 -386.001h-87c-27.333 0 -41 11.667 -41 35v180c0 22.667 13.667 34 41 34c206 0 309 22 309 66c0 24.667 -39 85 -117 181l131 203c74.667 -83.333 112 -187.666 112 -312.999zM155 -692.001l-120 119l120 121l119 -121z
M153 -432.001l-119 119l119 122l119 -122z" />
    <glyph glyph-name="uniFB55" unicode="&#x67b;" horiz-adv-x="725" arabic-form="medial" 
d="M772 35c0 -23.333 -13.666 -35.002 -40.999 -35.002h-62c-84 0 -161.667 51.667 -233 155c-22.667 -44 -60.667 -80.667 -114 -110c-54 -30 -105.667 -45 -155 -45h-172c-27.333 0 -41 11.667 -41 35v180c0 22.667 13.667 34 41 34h111c50.667 0 94 4.16699 130 12.5
s65.5 21.333 88.5 39s39.833 40.334 50.5 68.001s16 60.834 16 99.501c0 30.667 15.667 46 47 46c11.333 0 21.166 -4.83301 29.499 -14.5s12.5 -20.167 12.5 -31.5c0 -146 75.333 -219 226 -219h25c27.333 0 41 -11.333 41 -34v-180v0zM393.001 -672.002l-120 119l120 121
l119 -121zM391.001 -412.002l-119 119l119 122l119 -122z" />
    <glyph glyph-name="afii62958" unicode="&#x67e;" horiz-adv-x="1653" arabic-form="final" 
d="M1700 35c0 -23.333 -13.667 -35.002 -41 -35.002c-83.333 0 -145.666 12.333 -186.999 37c-39.333 25.333 -76 73.333 -110 144c-165.333 -136 -401.333 -204 -708 -204c-92.667 0 -172.5 6.66699 -239.5 20s-122.5 33.333 -166.5 60
c-95.333 59.333 -143 154.666 -143 285.999c0 34.667 3.66699 68.334 11 101.001s19 65.334 35 98.001c28 58.667 52.333 88 73 88c27.333 0 41 -12.667 41 -38c0 -2 -1.83301 -7.16699 -5.5 -15.5s-7.5 -19 -11.5 -32s-7.83301 -27.5 -11.5 -43.5s-5.5 -32.667 -5.5 -50
c0 -37.333 10.333 -70.5 31 -99.5s52 -53.167 94 -72.5c37.333 -17.333 80.666 -30.333 129.999 -39s104.666 -13 165.999 -13c214.667 0 386.667 24.333 516 73c88.667 34 157.667 79.333 207 136c44.667 48.667 68.334 73 71.001 73c30 0 45 -15 45 -45
c0 -20.667 -3.16699 -42.167 -9.5 -64.5s-15.833 -46.166 -28.5 -71.499c27.333 -52.667 96 -79 206 -79c27.333 0 41 -11.333 41 -34v-180v0zM612 -459.002l-119 121l119 119l119 -119zM748 -695.002l-120 121l120 119l119 -119zM884 -459.002l-119 121l119 119l119 -119z
" />
    <glyph glyph-name="afii62956" unicode="&#x67e;" horiz-adv-x="465" arabic-form="initial" 
d="M430 386c0 -257.333 -116 -386.001 -348 -386.001h-87c-27.333 0 -41 11.667 -41 35v180c0 22.667 13.667 34 41 34c206 0 309 22 309 66c0 24.667 -39 85 -117 181l131 203c74.667 -83.333 112 -187.666 112 -312.999zM70 -425.001l-119 121l119 119l119 -119z
M206 -661.001l-120 121l120 119l119 -119zM342 -425.001l-119 121l119 119l119 -119z" />
    <glyph glyph-name="afii52957" unicode="&#x67e;" horiz-adv-x="725" arabic-form="medial" 
d="M772 35c0 -23.333 -13.666 -35.002 -40.999 -35.002h-62c-84 0 -161.667 51.667 -233 155c-22.667 -44 -60.667 -80.667 -114 -110c-54 -30 -105.667 -45 -155 -45h-172c-27.333 0 -41 11.667 -41 35v180c0 22.667 13.667 34 41 34h111c50.667 0 94 4.16699 130 12.5
s65.5 21.333 88.5 39s39.833 40.334 50.5 68.001s16 60.834 16 99.501c0 30.667 15.667 46 47 46c11.333 0 21.166 -4.83301 29.499 -14.5s12.5 -20.167 12.5 -31.5c0 -146 75.333 -219 226 -219h25c27.333 0 41 -11.333 41 -34v-180v0zM230.001 -419.002l-119 121l119 119
l119 -119zM366.001 -655.002l-120 121l120 119l119 -119zM502.001 -419.002l-119 121l119 119l119 -119z" />
    <glyph glyph-name="uniFB5B" unicode="&#x680;" horiz-adv-x="1653" arabic-form="final" 
d="M1700 35c0 -23.333 -13.667 -35.002 -41 -35.002c-83.333 0 -145.666 12.333 -186.999 37c-39.333 25.333 -76 73.333 -110 144c-165.333 -136 -401.333 -204 -708 -204c-92.667 0 -172.5 6.66699 -239.5 20s-122.5 33.333 -166.5 60
c-95.333 59.333 -143 154.666 -143 285.999c0 34.667 3.66699 68.334 11 101.001s19 65.334 35 98.001c28 58.667 52.333 88 73 88c27.333 0 41 -12.667 41 -38c0 -2 -1.83301 -7.16699 -5.5 -15.5s-7.5 -19 -11.5 -32s-7.83301 -27.5 -11.5 -43.5s-5.5 -32.667 -5.5 -50
c0 -37.333 10.333 -70.5 31 -99.5s52 -53.167 94 -72.5c37.333 -17.333 80.666 -30.333 129.999 -39s104.666 -13 165.999 -13c214.667 0 386.667 24.333 516 73c88.667 34 157.667 79.333 207 136c44.667 48.667 68.334 73 71.001 73c30 0 45 -15 45 -45
c0 -20.667 -3.16699 -42.167 -9.5 -64.5s-15.833 -46.166 -28.5 -71.499c27.333 -52.667 96 -79 206 -79c27.333 0 41 -11.333 41 -34v-180v0zM699 -436.002l-120 120l120 121l119 -121zM836 -629.002l-119 120l119 122l119 -122zM564 -629.002l-119 120l119 122l119 -122z
M698 -816.002l-120 120l120 121l119 -121z" />
    <glyph glyph-name="uniFB5C" unicode="&#x680;" horiz-adv-x="465" arabic-form="initial" 
d="M430 386c0 -257.333 -116 -386.001 -348 -386.001h-87c-27.333 0 -41 11.667 -41 35v180c0 22.667 13.667 34 41 34c206 0 309 22 309 66c0 24.667 -39 85 -117 181l131 203c74.667 -83.333 112 -187.666 112 -312.999zM235.332 -376.725l-112.537 112.412
l112.537 113.349l111.599 -113.349zM363.812 -557.521l-111.6 112.412l111.6 114.285l111.599 -114.285zM108.729 -557.521l-111.6 112.412l111.6 114.285l111.599 -114.285zM234.394 -732.696l-112.536 112.412l112.536 113.349l111.6 -113.349z" />
    <glyph glyph-name="uniFB5D" unicode="&#x680;" horiz-adv-x="725" arabic-form="medial" 
d="M772 35c0 -23.333 -13.666 -35.002 -40.999 -35.002h-62c-84 0 -161.667 51.667 -233 155c-22.667 -44 -60.667 -80.667 -114 -110c-54 -30 -105.667 -45 -155 -45h-172c-27.333 0 -41 11.667 -41 35v180c0 22.667 13.667 34 41 34h111c50.667 0 94 4.16699 130 12.5
s65.5 21.333 88.5 39s39.833 40.334 50.5 68.001s16 60.834 16 99.501c0 30.667 15.667 46 47 46c11.333 0 21.166 -4.83301 29.499 -14.5s12.5 -20.167 12.5 -31.5c0 -146 75.333 -219 226 -219h25c27.333 0 41 -11.333 41 -34v-180v0zM392.901 -370.907l-113.688 113.584
l113.688 114.53l112.738 -114.53zM522.693 -553.588l-112.739 113.584l112.739 115.477l112.739 -115.477zM265.004 -553.588l-112.739 113.584l112.739 115.477l112.739 -115.477zM391.953 -730.59l-113.687 113.584l113.687 114.53l112.739 -114.53z" />
    <glyph glyph-name="uniFB5F" unicode="&#x67a;" horiz-adv-x="1653" arabic-form="final" 
d="M1700 35c0 -23.333 -13.667 -35.002 -41 -35.002c-83.333 0 -145.666 12.333 -186.999 37c-39.333 25.333 -76 73.333 -110 144c-165.333 -136 -401.333 -204 -708 -204c-92.667 0 -172.5 6.66699 -239.5 20s-122.5 33.333 -166.5 60
c-95.333 59.333 -143 154.666 -143 285.999c0 34.667 3.66699 68.334 11 101.001s19 65.334 35 98.001c28 58.667 52.333 88 73 88c27.333 0 41 -12.667 41 -38c0 -2 -1.83301 -7.16699 -5.5 -15.5s-7.5 -19 -11.5 -32s-7.83301 -27.5 -11.5 -43.5s-5.5 -32.667 -5.5 -50
c0 -37.333 10.333 -70.5 31 -99.5s52 -53.167 94 -72.5c37.333 -17.333 80.666 -30.333 129.999 -39s104.666 -13 165.999 -13c214.667 0 386.667 24.333 516 73c88.667 34 157.667 79.333 207 136c44.667 48.667 68.334 73 71.001 73c30 0 45 -15 45 -45
c0 -20.667 -3.16699 -42.167 -9.5 -64.5s-15.833 -46.166 -28.5 -71.499c27.333 -52.667 96 -79 206 -79c27.333 0 41 -11.333 41 -34v-180v0zM780 570.998l-120 119l120 121l119 -121zM778 830.998l-119 119l119 122l119 -122z" />
    <glyph glyph-name="uniFB60" unicode="&#x67a;" horiz-adv-x="465" arabic-form="initial" 
d="M430 386c0 -257.333 -116 -386.001 -348 -386.001h-87c-27.333 0 -41 11.667 -41 35v180c0 22.667 13.667 34 41 34c206 0 309 22 309 66c0 24.667 -39 85 -117 181l131 203c74.667 -83.333 112 -187.666 112 -312.999zM152 688.999l-120 119l120 121l119 -121z
M150 948.999l-119 119l119 122l119 -122z" />
    <glyph glyph-name="uniFB61" unicode="&#x67a;" horiz-adv-x="725" arabic-form="medial" 
d="M772 35c0 -23.333 -13.666 -35.002 -40.999 -35.002h-62c-84 0 -161.667 51.667 -233 155c-22.667 -44 -60.667 -80.667 -114 -110c-54 -30 -105.667 -45 -155 -45h-172c-27.333 0 -41 11.667 -41 35v180c0 22.667 13.667 34 41 34h111c50.667 0 94 4.16699 130 12.5
s65.5 21.333 88.5 39s39.833 40.334 50.5 68.001s16 60.834 16 99.501c0 30.667 15.667 46 47 46c11.333 0 21.166 -4.83301 29.499 -14.5s12.5 -20.167 12.5 -31.5c0 -146 75.333 -219 226 -219h25c27.333 0 41 -11.333 41 -34v-180v0zM359.001 711.998l-120 119l120 121
l119 -121zM357.001 971.998l-119 119l119 122l119 -122z" />
    <glyph glyph-name="uniFB63" unicode="&#x67f;" horiz-adv-x="1653" arabic-form="final" 
d="M1700 35c0 -23.333 -13.667 -35.002 -41 -35.002c-83.333 0 -145.666 12.333 -186.999 37c-39.333 25.333 -76 73.333 -110 144c-165.333 -136 -401.333 -204 -708 -204c-92.667 0 -172.5 6.66699 -239.5 20s-122.5 33.333 -166.5 60
c-95.333 59.333 -143 154.666 -143 285.999c0 34.667 3.66699 68.334 11 101.001s19 65.334 35 98.001c28 58.667 52.333 88 73 88c27.333 0 41 -12.667 41 -38c0 -2 -1.83301 -7.16699 -5.5 -15.5s-7.5 -19 -11.5 -32s-7.83301 -27.5 -11.5 -43.5s-5.5 -32.667 -5.5 -50
c0 -37.333 10.333 -70.5 31 -99.5s52 -53.167 94 -72.5c37.333 -17.333 80.666 -30.333 129.999 -39s104.666 -13 165.999 -13c214.667 0 386.667 24.333 516 73c88.667 34 157.667 79.333 207 136c44.667 48.667 68.334 73 71.001 73c30 0 45 -15 45 -45
c0 -20.667 -3.16699 -42.167 -9.5 -64.5s-15.833 -46.166 -28.5 -71.499c27.333 -52.667 96 -79 206 -79c27.333 0 41 -11.333 41 -34v-180v0zM748 957.998l-120 120l120 121l119 -121zM885 764.998l-119 120l119 122l119 -122zM613 764.998l-119 120l119 122l119 -122z
M747 577.998l-120 120l120 121l119 -121z" />
    <glyph glyph-name="uniFB64" unicode="&#x67f;" horiz-adv-x="465" arabic-form="initial" 
d="M430 386c0 -257.333 -116 -386.001 -348 -386.001h-87c-27.333 0 -41 11.667 -41 35v180c0 22.667 13.667 34 41 34c206 0 309 22 309 66c0 24.667 -39 85 -117 181l131 203c74.667 -83.333 112 -187.666 112 -312.999zM140 1090l-120 120l120 121l119 -121zM277 896.999
l-119 120l119 122l119 -122zM5 896.999l-119 120l119 122l119 -122zM139 709.999l-120 120l120 121l119 -121z" />
    <glyph glyph-name="uniFB65" unicode="&#x67f;" horiz-adv-x="725" arabic-form="medial" 
d="M772 35c0 -23.333 -13.666 -35.002 -40.999 -35.002h-62c-84 0 -161.667 51.667 -233 155c-22.667 -44 -60.667 -80.667 -114 -110c-54 -30 -105.667 -45 -155 -45h-172c-27.333 0 -41 11.667 -41 35v180c0 22.667 13.667 34 41 34h111c50.667 0 94 4.16699 130 12.5
s65.5 21.333 88.5 39s39.833 40.334 50.5 68.001s16 60.834 16 99.501c0 30.667 15.667 46 47 46c11.333 0 21.166 -4.83301 29.499 -14.5s12.5 -20.167 12.5 -31.5c0 -146 75.333 -219 226 -219h25c27.333 0 41 -11.333 41 -34v-180v0zM362.001 1026l-120 120l120 121
l119 -121zM499.001 832.998l-119 120l119 122l119 -122zM227.001 832.998l-119 120l119 122l119 -122zM361.001 645.998l-120 120l120 121l119 -121z" />
    <glyph glyph-name="uniFB67" unicode="&#x679;" horiz-adv-x="1653" arabic-form="final" 
d="M1700 35c0 -23.333 -13.667 -35.002 -41 -35.002c-83.333 0 -145.666 12.333 -186.999 37c-39.333 25.333 -76 73.333 -110 144c-165.333 -136 -401.333 -204 -708 -204c-92.667 0 -172.5 6.66699 -239.5 20s-122.5 33.333 -166.5 60
c-95.333 59.333 -143 154.666 -143 285.999c0 34.667 3.66699 68.334 11 101.001s19 65.334 35 98.001c28 58.667 52.333 88 73 88c27.333 0 41 -12.667 41 -38c0 -2 -1.83301 -7.16699 -5.5 -15.5s-7.5 -19 -11.5 -32s-7.83301 -27.5 -11.5 -43.5s-5.5 -32.667 -5.5 -50
c0 -37.333 10.333 -70.5 31 -99.5s52 -53.167 94 -72.5c37.333 -17.333 80.666 -30.333 129.999 -39s104.666 -13 165.999 -13c214.667 0 386.667 24.333 516 73c88.667 34 157.667 79.333 207 136c44.667 48.667 68.334 73 71.001 73c30 0 45 -15 45 -45
c0 -20.667 -3.16699 -42.167 -9.5 -64.5s-15.833 -46.166 -28.5 -71.499c27.333 -52.667 96 -79 206 -79c27.333 0 41 -11.333 41 -34v-180v0zM1015 790.998c0 -38.667 -17.332 -72.3311 -51.999 -100.998c-42 -37.333 -106 -56 -192 -56h-61c-35.333 0 -65.333 14 -90 42
c-17.333 20.667 -26 36 -26 46c0 5.33301 2 7.66602 6 6.99902l36 -3l73 -3c4 6.66699 6 19.667 6 39c0 30 -2.66699 67.5 -8 112.5s-12.666 98.5 -21.999 160.5l43 43c10 10 16.333 15 19 15c2 0 4 -3 6 -9c4.66699 -15.333 9.66699 -30.333 15 -45l16 -42
c4 -9.33301 3.66699 -14 -1 -14s-12.334 3 -23.001 9c2 -19.333 3 -52.333 3 -99c0 -47.333 -5 -91.333 -15 -132v-1c77.333 79.333 139.333 119 186 119c25.333 0 44.666 -7.66699 57.999 -23c15.333 -14.667 23 -36.334 23 -65.001zM962.001 759.001
c0 12.667 -7.33301 24.332 -22 34.999c-7.33301 4.66699 -14.833 8.33398 -22.5 11.001s-15.167 4 -22.5 4c-30.667 0 -76 -28 -136 -84l80 -2c82 -2 123 10 123 36z" />
    <glyph glyph-name="uniFB68" unicode="&#x679;" horiz-adv-x="465" arabic-form="initial" 
d="M430 386c0 -257.333 -116 -386.001 -348 -386.001h-87c-27.333 0 -41 11.667 -41 35v180c0 22.667 13.667 34 41 34c206 0 309 22 309 66c0 24.667 -39 85 -117 181l131 203c74.667 -83.333 112 -187.666 112 -312.999zM408 1006
c0 -38.667 -17.332 -72.3311 -51.999 -100.998c-42 -37.333 -106 -56 -192 -56h-61c-35.333 0 -65.333 14 -90 42c-17.333 20.667 -26 36 -26 46c0 5.33301 2 7.66602 6 6.99902l36 -3l73 -3c4 6.66699 6 19.667 6 39c0 30 -2.66699 67.5 -8 112.5
s-12.666 98.5 -21.999 160.5l43 43c10 10 16.333 15 19 15c2 0 4 -3 6 -9c4.66699 -15.333 9.66699 -30.333 15 -45l16 -42c4 -9.33301 3.66699 -14 -1 -14s-12.334 3 -23.001 9c2 -19.333 3 -52.333 3 -99c0 -47.333 -5 -91.333 -15 -132v-1
c77.333 79.333 139.333 119 186 119c25.333 0 44.666 -7.66699 57.999 -23c15.333 -14.667 23 -36.334 23 -65.001zM355.001 974.002c0 12.667 -7.33301 24.332 -22 34.999c-7.33301 4.66699 -14.833 8.33398 -22.5 11.001s-15.167 4 -22.5 4c-30.667 0 -76 -28 -136 -84
l80 -2c82 -2 123 10 123 36z" />
    <glyph glyph-name="uniFB69" unicode="&#x679;" horiz-adv-x="725" arabic-form="medial" 
d="M772 35c0 -23.333 -13.666 -35.002 -40.999 -35.002h-62c-84 0 -161.667 51.667 -233 155c-22.667 -44 -60.667 -80.667 -114 -110c-54 -30 -105.667 -45 -155 -45h-172c-27.333 0 -41 11.667 -41 35v180c0 22.667 13.667 34 41 34h111c50.667 0 94 4.16699 130 12.5
s65.5 21.333 88.5 39s39.833 40.334 50.5 68.001s16 60.834 16 99.501c0 30.667 15.667 46 47 46c11.333 0 21.166 -4.83301 29.499 -14.5s12.5 -20.167 12.5 -31.5c0 -146 75.333 -219 226 -219h25c27.333 0 41 -11.333 41 -34v-180v0zM620.001 909.998
c0 -38.667 -17.332 -72.3311 -51.999 -100.998c-42 -37.333 -106 -56 -192 -56h-61c-35.333 0 -65.333 14 -90 42c-17.333 20.667 -26 36 -26 46c0 5.33301 2 7.66602 6 6.99902l36 -3l73 -3c4 6.66699 6 19.667 6 39c0 30 -2.66699 67.5 -8 112.5
s-12.666 98.5 -21.999 160.5l43 43c10 10 16.333 15 19 15c2 0 4 -3 6 -9c4.66699 -15.333 9.66699 -30.333 15 -45l16 -42c4 -9.33301 3.66699 -14 -1 -14s-12.334 3 -23.001 9c2 -19.333 3 -52.333 3 -99c0 -47.333 -5 -91.333 -15 -132v-1
c77.333 79.333 139.333 119 186 119c25.333 0 44.666 -7.66699 57.999 -23c15.333 -14.667 23 -36.334 23 -65.001zM567.002 878.001c0 12.667 -7.33301 24.332 -22 34.999c-7.33301 4.66699 -14.833 8.33398 -22.5 11.001s-15.167 4 -22.5 4c-30.667 0 -76 -28 -136 -84
l80 -2c82 -2 123 10 123 36z" />
    <glyph glyph-name="afii57371" unicode="&#x6a4;" horiz-adv-x="1613" arabic-form="final" 
d="M1659 35c0 -23.333 -13.6621 -34.999 -40.9951 -34.999h-23c-72.667 0 -140 9.66699 -202 29s-120.333 48.333 -175 87c-40 -30 -111.667 -59.333 -215 -88c-60.667 -16.667 -120.167 -29.334 -178.5 -38.001s-115.166 -13 -170.499 -13
c-92.667 0 -172.5 6.66699 -239.5 20s-122.5 33.333 -166.5 60c-95.333 59.333 -143 154.666 -143 285.999c0 34.667 3.66699 68.334 11 101.001s19 65.334 35 98.001c28 58.667 52.333 88 73 88c27.333 0 41 -12.667 41 -38c0 -2 -1.83301 -7.16699 -5.5 -15.5
s-7.5 -19 -11.5 -32s-7.83301 -27.5 -11.5 -43.5s-5.5 -32.667 -5.5 -50c0 -37.333 10.333 -70.5 31 -99.5s52 -53.167 94 -72.5c37.333 -17.333 80.666 -30.333 129.999 -39s104.666 -13 165.999 -13c175.333 0 307 12.667 395 38c-46 44 -69 102.333 -69 175
c0 66.667 25 138 75 214c60 93.333 131.667 140 215 140c55.333 0 102.666 -29.333 141.999 -88c20 -28.667 34.833 -61.334 44.5 -98.001s14.5 -77 14.5 -121c0 -43.333 -9.33301 -87.666 -28 -132.999c-8.66699 -19.333 -17.334 -36.333 -26.001 -51
s-18 -26.334 -28 -35.001c25.333 -6 49.166 -10.667 71.499 -14s44.166 -5 65.499 -5h94c27.333 0 41 -11.333 41 -34v-180zM1375 438.001c0 30.667 -15.0029 61.668 -45.0029 93.001c-14.667 15.333 -29.5 27.333 -44.5 36s-30.5 13 -46.5 13
c-15.333 0 -31.666 -2.83301 -48.999 -8.5s-35.666 -14.834 -54.999 -27.501c-21.333 -12 -37.166 -24.333 -47.499 -37s-15.5 -25 -15.5 -37c0 -30 19.667 -63.667 59 -101c40 -36 70.333 -54 91 -54c10.667 0 23.5 3.66699 38.5 11s32.833 19 53.5 35
c40.667 32 61 57.667 61 77zM1221 1159l-119 120l119 121l119 -121zM1357 922.002l-120 119l120 122l119 -122zM1085 922.002l-120 119l120 122l119 -122z" />
    <glyph glyph-name="afii57372" unicode="&#x6a4;" horiz-adv-x="692" arabic-form="initial" 
d="M639 384c0 -144.667 -41.666 -246.667 -124.999 -306c-71.333 -52 -181.666 -78 -330.999 -78h-188c-27.333 0 -41 11.667 -41 35v180c0 22.667 13.667 34 41 34h236c33.333 0 66 2 98 6s64.667 9.66699 98 17c79.333 18 119 43 119 75c0 17.333 -5 32.666 -15 45.999
c-39.333 -6.66699 -74.833 -11.334 -106.5 -14.001s-60.167 -4 -85.5 -4c-34 0 -63 1.33301 -87 4s-44 7.33398 -60 14.001c-50 20.667 -75 58.667 -75 114c0 42.667 5.16699 85.334 15.5 128.001s25.166 85.667 44.499 129c49.333 103.333 110.666 155 183.999 155
c185.333 0 278 -178.333 278 -535zM480.001 581c-4.66699 25.333 -19.999 52.667 -45.999 82c-16 18 -31.833 31.167 -47.5 39.5s-31.834 12.5 -48.501 12.5c-30 0 -55.667 -7.33301 -77 -22s-32 -34.667 -32 -60c0 -44 46 -66 138 -66c49.333 0 87 4.66699 113 14z
M330.002 1280l-119 120l119 121l119 -121zM466.002 1043l-120 119l120 122l119 -122zM194.002 1043l-120 119l120 122l119 -122z" />
    <glyph glyph-name="afii57369" unicode="&#x6a4;" horiz-adv-x="827" arabic-form="medial" 
d="M875 35c0 -23.333 -13.999 -34.999 -41.999 -34.999h-39c-51.333 0 -106.5 9.16699 -165.5 27.5s-121.833 46.5 -188.5 84.5c-32 -21.333 -63.167 -39.166 -93.5 -53.499s-59.833 -25.5 -88.5 -33.5c-31.333 -9.33301 -66.5 -15.833 -105.5 -19.5
s-82.167 -5.5 -129.5 -5.5h-28c-27.333 0 -41 11.667 -41 35v180c0 22.667 13.667 34 41 34h87c34.667 0 66.834 1.5 96.501 4.5s57.167 6.83301 82.5 11.5c-46 48 -69 106.333 -69 175c0 66.667 25 138 75 214c59.333 93.333 130.333 140 213 140
c30 0 56.667 -7.33301 80 -22s44.666 -36.667 63.999 -66c19.333 -28.667 33.833 -61.334 43.5 -98.001s14.5 -77 14.5 -121c0 -22 -2.33301 -43.833 -7 -65.5s-11.667 -44.167 -21 -67.5c-8.66699 -19.333 -17.167 -36.333 -25.5 -51s-17.833 -26.334 -28.5 -35.001
c28 -6 53.667 -10.667 77 -14s43.666 -5 60.999 -5h95c28 0 42 -11.333 42 -34v-180zM589.001 438.001c0 30.667 -15.002 61.668 -45.002 93.001c-15.333 15.333 -30.5 27.333 -45.5 36s-30.167 13 -45.5 13s-31.666 -2.83301 -48.999 -8.5s-35.666 -14.834 -54.999 -27.501
c-42.667 -24 -64 -48.667 -64 -74c0 -29.333 20 -63 60 -101c40 -36 70.333 -54 91 -54c10.667 0 23.5 3.66699 38.5 11s32.833 19 53.5 35c40.667 32 61 57.667 61 77zM444.999 1171l-119 120l119 121l119 -121zM580.999 934.002l-120 119l120 122l119 -122z
M308.999 934.002l-120 119l120 122l119 -122z" />
    <glyph glyph-name="uniFB6f" unicode="&#x6a6;" horiz-adv-x="1613" arabic-form="final" 
d="M1659 35c0 -23.333 -13.6621 -34.999 -40.9951 -34.999h-23c-72.667 0 -140 9.66699 -202 29s-120.333 48.333 -175 87c-40 -30 -111.667 -59.333 -215 -88c-60.667 -16.667 -120.167 -29.334 -178.5 -38.001s-115.166 -13 -170.499 -13
c-92.667 0 -172.5 6.66699 -239.5 20s-122.5 33.333 -166.5 60c-95.333 59.333 -143 154.666 -143 285.999c0 34.667 3.66699 68.334 11 101.001s19 65.334 35 98.001c28 58.667 52.333 88 73 88c27.333 0 41 -12.667 41 -38c0 -2 -1.83301 -7.16699 -5.5 -15.5
s-7.5 -19 -11.5 -32s-7.83301 -27.5 -11.5 -43.5s-5.5 -32.667 -5.5 -50c0 -37.333 10.333 -70.5 31 -99.5s52 -53.167 94 -72.5c37.333 -17.333 80.666 -30.333 129.999 -39s104.666 -13 165.999 -13c175.333 0 307 12.667 395 38c-46 44 -69 102.333 -69 175
c0 66.667 25 138 75 214c60 93.333 131.667 140 215 140c55.333 0 102.666 -29.333 141.999 -88c20 -28.667 34.833 -61.334 44.5 -98.001s14.5 -77 14.5 -121c0 -43.333 -9.33301 -87.666 -28 -132.999c-8.66699 -19.333 -17.334 -36.333 -26.001 -51
s-18 -26.334 -28 -35.001c25.333 -6 49.166 -10.667 71.499 -14s44.166 -5 65.499 -5h94c27.333 0 41 -11.333 41 -34v-180zM1375 438.001c0 30.667 -15.0029 61.668 -45.0029 93.001c-14.667 15.333 -29.5 27.333 -44.5 36s-30.5 13 -46.5 13
c-15.333 0 -31.666 -2.83301 -48.999 -8.5s-35.666 -14.834 -54.999 -27.501c-21.333 -12 -37.166 -24.333 -47.499 -37s-15.5 -25 -15.5 -37c0 -30 19.667 -63.667 59 -101c40 -36 70.333 -54 91 -54c10.667 0 23.5 3.66699 38.5 11s32.833 19 53.5 35
c40.667 32 61 57.667 61 77zM1204 1306l-120 120l120 121l119 -121zM1341 1113l-119 120l119 122l119 -122zM1069 1113l-119 120l119 122l119 -122zM1203 926.002l-120 120l120 121l119 -121z" />
    <glyph glyph-name="uniFB70" unicode="&#x6a6;" horiz-adv-x="692" arabic-form="initial" 
d="M639 384c0 -144.667 -41.666 -246.667 -124.999 -306c-71.333 -52 -181.666 -78 -330.999 -78h-188c-27.333 0 -41 11.667 -41 35v180c0 22.667 13.667 34 41 34h236c33.333 0 66 2 98 6s64.667 9.66699 98 17c79.333 18 119 43 119 75c0 17.333 -5 32.666 -15 45.999
c-39.333 -6.66699 -74.833 -11.334 -106.5 -14.001s-60.167 -4 -85.5 -4c-34 0 -63 1.33301 -87 4s-44 7.33398 -60 14.001c-50 20.667 -75 58.667 -75 114c0 42.667 5.16699 85.334 15.5 128.001s25.166 85.667 44.499 129c49.333 103.333 110.666 155 183.999 155
c185.333 0 278 -178.333 278 -535zM480.001 581c-4.66699 25.333 -19.999 52.667 -45.999 82c-16 18 -31.833 31.167 -47.5 39.5s-31.834 12.5 -48.501 12.5c-30 0 -55.667 -7.33301 -77 -22s-32 -34.667 -32 -60c0 -44 46 -66 138 -66c49.333 0 87 4.66699 113 14z
M336.002 1415l-120 120l120 121l119 -121zM473.002 1222l-119 120l119 122l119 -122zM201.002 1222l-119 120l119 122l119 -122zM335.002 1035l-120 120l120 121l119 -121z" />
    <glyph glyph-name="uniFB71" unicode="&#x6a6;" horiz-adv-x="827" arabic-form="medial" 
d="M875 35c0 -23.333 -13.999 -34.999 -41.999 -34.999h-39c-51.333 0 -106.5 9.16699 -165.5 27.5s-121.833 46.5 -188.5 84.5c-32 -21.333 -63.167 -39.166 -93.5 -53.499s-59.833 -25.5 -88.5 -33.5c-31.333 -9.33301 -66.5 -15.833 -105.5 -19.5
s-82.167 -5.5 -129.5 -5.5h-28c-27.333 0 -41 11.667 -41 35v180c0 22.667 13.667 34 41 34h87c34.667 0 66.834 1.5 96.501 4.5s57.167 6.83301 82.5 11.5c-46 48 -69 106.333 -69 175c0 66.667 25 138 75 214c59.333 93.333 130.333 140 213 140
c30 0 56.667 -7.33301 80 -22s44.666 -36.667 63.999 -66c19.333 -28.667 33.833 -61.334 43.5 -98.001s14.5 -77 14.5 -121c0 -22 -2.33301 -43.833 -7 -65.5s-11.667 -44.167 -21 -67.5c-8.66699 -19.333 -17.167 -36.333 -25.5 -51s-17.833 -26.334 -28.5 -35.001
c28 -6 53.667 -10.667 77 -14s43.666 -5 60.999 -5h95c28 0 42 -11.333 42 -34v-180zM589.001 438.001c0 30.667 -15.002 61.668 -45.002 93.001c-15.333 15.333 -30.5 27.333 -45.5 36s-30.167 13 -45.5 13s-31.666 -2.83301 -48.999 -8.5s-35.666 -14.834 -54.999 -27.501
c-42.667 -24 -64 -48.667 -64 -74c0 -29.333 20 -63 60 -101c40 -36 70.333 -54 91 -54c10.667 0 23.5 3.66699 38.5 11s32.833 19 53.5 35c40.667 32 61 57.667 61 77zM446.999 1296l-120 120l120 121l119 -121zM583.999 1103l-119 120l119 122l119 -122zM311.999 1103
l-119 120l119 122l119 -122zM445.999 916.002l-120 120l120 121l119 -121z" />
    <glyph glyph-name="uniFB73" unicode="&#x684;" horiz-adv-x="1282" arabic-form="final" 
d="M1329 35c0 -23.333 -13.6719 -34.999 -41.0049 -34.999h-150c-80 0 -151 24.333 -213 73c-74 54 -111 128 -111 222v27.5c0 11 0.666992 23.833 2 38.5c1.33301 16 2.33301 28.833 3 38.5s1 16.5 1 20.5c-84.667 -23.333 -157.5 -50.5 -218.5 -81.5
s-111.5 -65.5 -151.5 -103.5c-84 -79.333 -126 -183.666 -126 -312.999c0 -93.333 34.333 -168 103 -224c86 -72 224.667 -108 416 -108c46 0 89.5 1.5 130.5 4.5s79.833 7.83301 116.5 14.5c64 8.66699 94.333 14.667 91 18c6.66699 -2 10 -5 10 -9c0 -12 -13 -30 -39 -54
c-18.667 -17.333 -40.167 -33.166 -64.5 -47.499s-51.5 -26.5 -81.5 -36.5c-80 -28 -176.333 -42 -289 -42c-89.333 0 -170.166 8.16699 -242.499 24.5s-136.166 41.5 -191.499 75.5c-128 76 -192 188 -192 336c0 265.333 187 459.666 561 582.999v9
c-61.333 13.333 -116.666 23.166 -165.999 29.499s-92 9.5 -128 9.5c-43.333 0 -79.666 -10.667 -108.999 -32c-6 -4.66699 -13.667 -12 -23 -22l-32 -35c-17.333 -21.333 -31.666 -32 -42.999 -32c-21.333 0 -32 12.333 -32 37c0 23.333 6 50 18 80s29.667 63 53 99
c57.333 90.667 122.666 136 195.999 136c21.333 0 54.333 -3.33301 99 -10s102.334 -17 173.001 -31c140 -26 232 -39 276 -39c50 0 96.667 1 140 3s84.333 5.33301 123 10l-114 -228c-36 0 -67.5 -0.833008 -94.5 -2.5s-50.167 -4.5 -69.5 -8.5v-33
c0 -56.667 26.667 -97 80 -121c21.333 -8.66699 48.333 -15.334 81 -20.001s71.667 -7 117 -7h91c27.333 0 41 -11.333 41 -34v-180v0zM691.995 -300.999l-120 119l120 121l119 -121zM689.995 -40.999l-119 119l119 122l119 -122z" />
    <glyph glyph-name="uniFB74" unicode="&#x684;" horiz-adv-x="1216" arabic-form="initial" 
d="M1057 288c-6.66699 1.33301 -12.999 2.00391 -18.999 2.00391h-17c-44.667 0 -97.334 -10.667 -158.001 -32c-68 -24.667 -179.667 -76.334 -335 -155.001c-136.667 -68.667 -279.667 -103 -429 -103h-104c-27.333 0 -41 11.667 -41 35v180c0 22.667 13.667 34 41 34h94
c123.333 0 231 10 323 30c34 9.33301 77.167 22.166 129.5 38.499s114.833 37.166 187.5 62.499v8c-167.333 78 -284 117 -350 117c-42 0 -83 -20 -123 -60c-37.333 -38 -60.333 -57 -69 -57c-24 0 -36 12.333 -36 37c0 38.667 24.333 94 73 166
c60.667 89.333 130 134 208 134c22.667 0 60 -9.66699 112 -29s119.667 -48 203 -86c84 -38.667 157.833 -67.334 221.5 -86.001s118.5 -28 164.5 -28h50zM558.001 -586.996l-120 119l120 121l119 -121zM556.001 -326.996l-119 119l119 122l119 -122z" />
    <glyph glyph-name="uniFB75" unicode="&#x684;" horiz-adv-x="1243" arabic-form="medial" 
d="M1289 35c0 -23.333 -13.335 -34.999 -40.002 -34.999h-109c-128 0 -221 34.333 -279 103c-45.333 54.667 -65.666 125.334 -60.999 212.001c-149.333 -125.333 -278.666 -209 -387.999 -251c-109.333 -42.667 -248.333 -64 -417 -64c-27.333 0 -41 11.667 -41 35v180
c0 22.667 13.667 34 41 34c156.667 0 288.667 13.667 396 41c62 15.333 122.167 36.166 180.5 62.499s115.166 58.833 170.499 97.5v7c-24.667 7.33301 -53.667 15.166 -87 23.499s-71.333 17.166 -114 26.499c-42 9.33301 -76.5 16.333 -103.5 21s-45.5 7 -55.5 7
c-42 0 -83 -20 -123 -60c-36 -38 -59 -57 -69 -57c-23.333 0 -35 12.333 -35 37c0 39.333 24 94.666 72 165.999c60.667 88.667 130.334 133 209.001 133c61.333 0 135.333 -17.667 222 -53c67.333 -29.333 134.333 -50.666 201 -63.999s134.334 -19.333 203.001 -18l119 2
l-102 -228c-35.333 4 -67 6 -95 6c-35.333 0 -65.666 -6.33301 -90.999 -19c-2 -59.333 34 -97 108 -113c21.333 -5.33301 52.666 -9.66602 93.999 -12.999s92.666 -5 153.999 -5c26.667 0 40 -11.333 40 -34v-180v0zM572.998 -605.999l-120 119l120 121l119 -121z
M570.998 -345.999l-119 119l119 122l119 -122z" />
    <glyph glyph-name="uniFB77" unicode="&#x683;" horiz-adv-x="1282" arabic-form="final" 
d="M1329 35c0 -23.333 -13.6719 -34.999 -41.0049 -34.999h-150c-80 0 -151 24.333 -213 73c-74 54 -111 128 -111 222v27.5c0 11 0.666992 23.833 2 38.5c1.33301 16 2.33301 28.833 3 38.5s1 16.5 1 20.5c-84.667 -23.333 -157.5 -50.5 -218.5 -81.5
s-111.5 -65.5 -151.5 -103.5c-84 -79.333 -126 -183.666 -126 -312.999c0 -93.333 34.333 -168 103 -224c86 -72 224.667 -108 416 -108c46 0 89.5 1.5 130.5 4.5s79.833 7.83301 116.5 14.5c64 8.66699 94.333 14.667 91 18c6.66699 -2 10 -5 10 -9c0 -12 -13 -30 -39 -54
c-18.667 -17.333 -40.167 -33.166 -64.5 -47.499s-51.5 -26.5 -81.5 -36.5c-80 -28 -176.333 -42 -289 -42c-89.333 0 -170.166 8.16699 -242.499 24.5s-136.166 41.5 -191.499 75.5c-128 76 -192 188 -192 336c0 265.333 187 459.666 561 582.999v9
c-61.333 13.333 -116.666 23.166 -165.999 29.499s-92 9.5 -128 9.5c-43.333 0 -79.666 -10.667 -108.999 -32c-6 -4.66699 -13.667 -12 -23 -22l-32 -35c-17.333 -21.333 -31.666 -32 -42.999 -32c-21.333 0 -32 12.333 -32 37c0 23.333 6 50 18 80s29.667 63 53 99
c57.333 90.667 122.666 136 195.999 136c21.333 0 54.333 -3.33301 99 -10s102.334 -17 173.001 -31c140 -26 232 -39 276 -39c50 0 96.667 1 140 3s84.333 5.33301 123 10l-114 -228c-36 0 -67.5 -0.833008 -94.5 -2.5s-50.167 -4.5 -69.5 -8.5v-33
c0 -56.667 26.667 -97 80 -121c21.333 -8.66699 48.333 -15.334 81 -20.001s71.667 -7 117 -7h91c27.333 0 41 -11.333 41 -34v-180v0zM830.995 -205.999l-119 119l119 121l119 -121zM558.995 -205.999l-119 119l119 121l119 -121z" />
    <glyph glyph-name="uniFB78" unicode="&#x683;" horiz-adv-x="1216" arabic-form="initial" 
d="M1057 288c-6.66699 1.33301 -12.999 2.00391 -18.999 2.00391h-17c-44.667 0 -97.334 -10.667 -158.001 -32c-68 -24.667 -179.667 -76.334 -335 -155.001c-136.667 -68.667 -279.667 -103 -429 -103h-104c-27.333 0 -41 11.667 -41 35v180c0 22.667 13.667 34 41 34h94
c123.333 0 231 10 323 30c34 9.33301 77.167 22.166 129.5 38.499s114.833 37.166 187.5 62.499v8c-167.333 78 -284 117 -350 117c-42 0 -83 -20 -123 -60c-37.333 -38 -60.333 -57 -69 -57c-24 0 -36 12.333 -36 37c0 38.667 24.333 94 73 166
c60.667 89.333 130 134 208 134c22.667 0 60 -9.66699 112 -29s119.667 -48 203 -86c84 -38.667 157.833 -67.334 221.5 -86.001s118.5 -28 164.5 -28h50zM673.001 -384.996l-119 119l119 121l119 -121zM401.001 -384.996l-119 119l119 121l119 -121z" />
    <glyph glyph-name="uniFB79" unicode="&#x683;" horiz-adv-x="1243" arabic-form="medial" 
d="M1289 35c0 -23.333 -13.335 -34.999 -40.002 -34.999h-109c-128 0 -221 34.333 -279 103c-45.333 54.667 -65.666 125.334 -60.999 212.001c-149.333 -125.333 -278.666 -209 -387.999 -251c-109.333 -42.667 -248.333 -64 -417 -64c-27.333 0 -41 11.667 -41 35v180
c0 22.667 13.667 34 41 34c156.667 0 288.667 13.667 396 41c62 15.333 122.167 36.166 180.5 62.499s115.166 58.833 170.499 97.5v7c-24.667 7.33301 -53.667 15.166 -87 23.499s-71.333 17.166 -114 26.499c-42 9.33301 -76.5 16.333 -103.5 21s-45.5 7 -55.5 7
c-42 0 -83 -20 -123 -60c-36 -38 -59 -57 -69 -57c-23.333 0 -35 12.333 -35 37c0 39.333 24 94.666 72 165.999c60.667 88.667 130.334 133 209.001 133c61.333 0 135.333 -17.667 222 -53c67.333 -29.333 134.333 -50.666 201 -63.999s134.334 -19.333 203.001 -18l119 2
l-102 -228c-35.333 4 -67 6 -95 6c-35.333 0 -65.666 -6.33301 -90.999 -19c-2 -59.333 34 -97 108 -113c21.333 -5.33301 52.666 -9.66602 93.999 -12.999s92.666 -5 153.999 -5c26.667 0 40 -11.333 40 -34v-180v0zM689.998 -405.999l-119 119l119 121l119 -121z
M417.998 -405.999l-119 119l119 121l119 -121z" />
    <glyph glyph-name="afii62961" unicode="&#x686;" horiz-adv-x="1282" arabic-form="final" 
d="M1329 35c0 -23.333 -13.6719 -34.999 -41.0049 -34.999h-150c-80 0 -151 24.333 -213 73c-74 54 -111 128 -111 222v27.5c0 11 0.666992 23.833 2 38.5c1.33301 16 2.33301 28.833 3 38.5s1 16.5 1 20.5c-84.667 -23.333 -157.5 -50.5 -218.5 -81.5
s-111.5 -65.5 -151.5 -103.5c-84 -79.333 -126 -183.666 -126 -312.999c0 -93.333 34.333 -168 103 -224c86 -72 224.667 -108 416 -108c46 0 89.5 1.5 130.5 4.5s79.833 7.83301 116.5 14.5c64 8.66699 94.333 14.667 91 18c6.66699 -2 10 -5 10 -9c0 -12 -13 -30 -39 -54
c-18.667 -17.333 -40.167 -33.166 -64.5 -47.499s-51.5 -26.5 -81.5 -36.5c-80 -28 -176.333 -42 -289 -42c-89.333 0 -170.166 8.16699 -242.499 24.5s-136.166 41.5 -191.499 75.5c-128 76 -192 188 -192 336c0 265.333 187 459.666 561 582.999v9
c-61.333 13.333 -116.666 23.166 -165.999 29.499s-92 9.5 -128 9.5c-43.333 0 -79.666 -10.667 -108.999 -32c-6 -4.66699 -13.667 -12 -23 -22l-32 -35c-17.333 -21.333 -31.666 -32 -42.999 -32c-21.333 0 -32 12.333 -32 37c0 23.333 6 50 18 80s29.667 63 53 99
c57.333 90.667 122.666 136 195.999 136c21.333 0 54.333 -3.33301 99 -10s102.334 -17 173.001 -31c140 -26 232 -39 276 -39c50 0 96.667 1 140 3s84.333 5.33301 123 10l-114 -228c-36 0 -67.5 -0.833008 -94.5 -2.5s-50.167 -4.5 -69.5 -8.5v-33
c0 -56.667 26.667 -97 80 -121c21.333 -8.66699 48.333 -15.334 81 -20.001s71.667 -7 117 -7h91c27.333 0 41 -11.333 41 -34v-180v0zM506.995 -107.999l-119 121l119 119l119 -119zM642.995 -343.999l-120 121l120 119l119 -119zM778.995 -107.999l-119 121l119 119
l119 -119z" />
    <glyph glyph-name="afii62959" unicode="&#x686;" horiz-adv-x="1216" arabic-form="initial" 
d="M1057 288c-6.66699 1.33301 -12.999 2.00391 -18.999 2.00391h-17c-44.667 0 -97.334 -10.667 -158.001 -32c-68 -24.667 -179.667 -76.334 -335 -155.001c-136.667 -68.667 -279.667 -103 -429 -103h-104c-27.333 0 -41 11.667 -41 35v180c0 22.667 13.667 34 41 34h94
c123.333 0 231 10 323 30c34 9.33301 77.167 22.166 129.5 38.499s114.833 37.166 187.5 62.499v8c-167.333 78 -284 117 -350 117c-42 0 -83 -20 -123 -60c-37.333 -38 -60.333 -57 -69 -57c-24 0 -36 12.333 -36 37c0 38.667 24.333 94 73 166
c60.667 89.333 130 134 208 134c22.667 0 60 -9.66699 112 -29s119.667 -48 203 -86c84 -38.667 157.833 -67.334 221.5 -86.001s118.5 -28 164.5 -28h50zM419.001 -350.996l-119 121l119 119l119 -119zM555.001 -586.996l-120 121l120 119l119 -119zM691.001 -350.996
l-119 121l119 119l119 -119z" />
    <glyph glyph-name="afii62960" unicode="&#x686;" horiz-adv-x="1243" arabic-form="medial" 
d="M1289 35c0 -23.333 -13.335 -34.999 -40.002 -34.999h-109c-128 0 -221 34.333 -279 103c-45.333 54.667 -65.666 125.334 -60.999 212.001c-149.333 -125.333 -278.666 -209 -387.999 -251c-109.333 -42.667 -248.333 -64 -417 -64c-27.333 0 -41 11.667 -41 35v180
c0 22.667 13.667 34 41 34c156.667 0 288.667 13.667 396 41c62 15.333 122.167 36.166 180.5 62.499s115.166 58.833 170.499 97.5v7c-24.667 7.33301 -53.667 15.166 -87 23.499s-71.333 17.166 -114 26.499c-42 9.33301 -76.5 16.333 -103.5 21s-45.5 7 -55.5 7
c-42 0 -83 -20 -123 -60c-36 -38 -59 -57 -69 -57c-23.333 0 -35 12.333 -35 37c0 39.333 24 94.666 72 165.999c60.667 88.667 130.334 133 209.001 133c61.333 0 135.333 -17.667 222 -53c67.333 -29.333 134.333 -50.666 201 -63.999s134.334 -19.333 203.001 -18l119 2
l-102 -228c-35.333 4 -67 6 -95 6c-35.333 0 -65.666 -6.33301 -90.999 -19c-2 -59.333 34 -97 108 -113c21.333 -5.33301 52.666 -9.66602 93.999 -12.999s92.666 -5 153.999 -5c26.667 0 40 -11.333 40 -34v-180v0zM433.998 -381.999l-119 121l119 119l119 -119z
M569.998 -617.999l-120 121l120 119l119 -119zM705.998 -381.999l-119 121l119 119l119 -119z" />
    <glyph glyph-name="uniFB7F" unicode="&#x687;" horiz-adv-x="1282" arabic-form="final" 
d="M1329 35c0 -23.333 -13.6719 -34.999 -41.0049 -34.999h-150c-80 0 -151 24.333 -213 73c-74 54 -111 128 -111 222v27.5c0 11 0.666992 23.833 2 38.5c1.33301 16 2.33301 28.833 3 38.5s1 16.5 1 20.5c-84.667 -23.333 -157.5 -50.5 -218.5 -81.5
s-111.5 -65.5 -151.5 -103.5c-84 -79.333 -126 -183.666 -126 -312.999c0 -93.333 34.333 -168 103 -224c86 -72 224.667 -108 416 -108c46 0 89.5 1.5 130.5 4.5s79.833 7.83301 116.5 14.5c64 8.66699 94.333 14.667 91 18c6.66699 -2 10 -5 10 -9c0 -12 -13 -30 -39 -54
c-18.667 -17.333 -40.167 -33.166 -64.5 -47.499s-51.5 -26.5 -81.5 -36.5c-80 -28 -176.333 -42 -289 -42c-89.333 0 -170.166 8.16699 -242.499 24.5s-136.166 41.5 -191.499 75.5c-128 76 -192 188 -192 336c0 265.333 187 459.666 561 582.999v9
c-61.333 13.333 -116.666 23.166 -165.999 29.499s-92 9.5 -128 9.5c-43.333 0 -79.666 -10.667 -108.999 -32c-6 -4.66699 -13.667 -12 -23 -22l-32 -35c-17.333 -21.333 -31.666 -32 -42.999 -32c-21.333 0 -32 12.333 -32 37c0 23.333 6 50 18 80s29.667 63 53 99
c57.333 90.667 122.666 136 195.999 136c21.333 0 54.333 -3.33301 99 -10s102.334 -17 173.001 -31c140 -26 232 -39 276 -39c50 0 96.667 1 140 3s84.333 5.33301 123 10l-114 -228c-36 0 -67.5 -0.833008 -94.5 -2.5s-50.167 -4.5 -69.5 -8.5v-33
c0 -56.667 26.667 -97 80 -121c21.333 -8.66699 48.333 -15.334 81 -20.001s71.667 -7 117 -7h91c27.333 0 41 -11.333 41 -34v-180v0zM634.337 21.2139l-107.168 107.175l107.168 108.069l106.275 -108.069zM756.687 -151.16l-106.274 107.176l106.274 108.962
l106.275 -108.962zM513.772 -151.16l-106.274 107.176l106.274 108.962l106.275 -108.962zM633.444 -318.175l-107.168 107.176l107.168 108.068l106.274 -108.068z" />
    <glyph glyph-name="uniFB80" unicode="&#x687;" horiz-adv-x="1216" arabic-form="initial" 
d="M1057 288c-6.66699 1.33301 -12.999 2.00391 -18.999 2.00391h-17c-44.667 0 -97.334 -10.667 -158.001 -32c-68 -24.667 -179.667 -76.334 -335 -155.001c-136.667 -68.667 -279.667 -103 -429 -103h-104c-27.333 0 -41 11.667 -41 35v180c0 22.667 13.667 34 41 34h94
c123.333 0 231 10 323 30c34 9.33301 77.167 22.166 129.5 38.499s114.833 37.166 187.5 62.499v8c-167.333 78 -284 117 -350 117c-42 0 -83 -20 -123 -60c-37.333 -38 -60.333 -57 -69 -57c-24 0 -36 12.333 -36 37c0 38.667 24.333 94 73 166
c60.667 89.333 130 134 208 134c22.667 0 60 -9.66699 112 -29s119.667 -48 203 -86c84 -38.667 157.833 -67.334 221.5 -86.001s118.5 -28 164.5 -28h50zM641.001 -300.996l-120 120l120 121l119 -121zM778.001 -493.996l-119 120l119 122l119 -122zM506.001 -493.996
l-119 120l119 122l119 -122zM640.001 -680.996l-120 120l120 121l119 -121z" />
    </font>
</defs>
</svg>
