<?xml version="1.0" standalone="no"?>
<!DOCTYPE svg PUBLIC "-//W3C//DTD SVG 1.1//EN" "http://www.w3.org/Graphics/SVG/1.1/DTD/svg11.dtd" >
<svg>
<metadata>
Created by FontForge 20090914 at Wed Aug 26 07:44:30 2015
 By www-data
Typeface &#194;&#169; The scict.ir Corporation plc. Data &#194;&#169; The scict.ir Corporation plc/Type Solutions Inc. 2012-2013. All Rights Reserved.Modify  by Hossein Zahedi.
</metadata>
<defs>
<font id="IRNazanin" horiz-adv-x="0" >
  <font-face 
    font-family="IRNazanin"
    font-weight="400"
    font-stretch="normal"
    units-per-em="2048"
    panose-1="2 0 5 6 0 0 0 2 0 2"
    ascent="1638"
    descent="-410"
    x-height="777"
    cap-height="1150"
    bbox="-431 -1152 2581 1831"
    underline-thickness="60"
    underline-position="-650"
    unicode-range="U+0020-U+FFFC"
  />
<missing-glyph horiz-adv-x="496" 
 />
    <glyph glyph-name="afii64184" unicode="&#xfedf;&#xfee0;&#x651;&#x670;&#xfeea;" horiz-adv-x="1420" arabic-form="isolated" 
d="M1334 227c0 -73.333 -19.667 -133.669 -59 -181.002c-42.667 -49.333 -105.334 -74 -188.001 -74c-110.667 0 -185.334 39 -224.001 117c-45.333 -78 -113.666 -117 -204.999 -117c-100.667 0 -160 65 -178 195l-85 -76h-82c-140 0 -210 39 -210 117
c0 37.333 9 76.666 27 117.999c10.667 22.667 21.667 41.834 33 57.501s24 28.167 38 37.5c66 42.667 135.667 79 209 109l-11 55l93 101l15.5 -146l27.5 -255c4 -33.333 9.16699 -60.5 15.5 -81.5s15.5 -37.667 27.5 -50s27 -20.833 45 -25.5s40.333 -7 67 -7
c31.333 0 61.666 11.333 90.999 34c37.333 28 54 61 50 99c-5.33301 82.667 -11.666 163.834 -18.999 243.501s-15.333 159.167 -24 238.5l114 118c3.33301 -25.333 7.83301 -89.666 13.5 -192.999s11.834 -247.333 18.501 -432c0 -16 4 -30.667 12 -44
s18.833 -24.833 32.5 -34.5s29.5 -17 47.5 -22s37.667 -7.5 59 -7.5c23.333 0 45 1.83301 65 5.5s37 8.66699 51 15s25 14 33 23s11.667 18.833 11 29.5c0 2.66699 -1 18 -3 46s-4.66699 68.333 -8 121l-34 496l121 127c4.66699 -110 8 -210.5 10 -301.5s3 -174.5 3 -250.5
v-205zM429 439.997c-41.333 -15.333 -78.833 -31.168 -112.5 -47.501s-63.5 -34.166 -89.5 -53.499c-40.667 -28.667 -61 -48.667 -61 -60c0 -38 64.333 -57 193 -57c18 0 35.667 1 53 3s34 5.33301 50 10zM994 1150c-2 -26 -7.99902 -64.999 -17.999 -116.999
c-16 -51.333 -46.667 -77 -92 -77c-16.667 0 -35 4.33301 -55 13c-27.333 -54.667 -59.333 -82 -96 -82c-46.667 0 -70 30.333 -70 91c0 47.333 10 80 30 98c14.667 15.333 26.667 20 36 14c-11.333 -15.333 -17 -37 -17 -65c0 -26 10 -39 30 -39c24.667 0 44 18.667 58 56
l22 87l37 21c0 -63.333 16 -95 48 -95c25.333 0 38 10 38 30c0 53.333 1.66699 83.666 5 90.999c7.33301 12 14.666 21.667 21.999 29s16.333 12.333 27 15zM854.001 1305c0 -46 -5.66797 -78.5 -17.001 -97.5s-27.666 -28.5 -48.999 -28.5c9.33301 13.333 14 34 14 62
c0 16 -2 33.833 -6 53.5s-9.66699 41.5 -17 65.5c-9.33301 36.667 -20 63.667 -32 81l64 87c14 -43.333 24.667 -83.333 32 -120s11 -71 11 -103z" />
    <glyph glyph-name="afii62834" unicode="&#xfedf;&#xfe82;" horiz-adv-x="1036" arabic-form="isolated" 
d="M987 1021c0 -4.66699 -2.3291 -7.00293 -6.99609 -7.00293c-6.66699 0 -14.5 0.833008 -23.5 2.5s-19.167 4.83398 -30.5 9.50098c-8.66699 -160 -27.667 -296.5 -57 -409.5s-70 -203.5 -122 -271.5c19.333 -41.333 34.166 -75.833 44.499 -103.5
s15.5 -49.167 15.5 -64.5c0 -20.667 -7.66699 -48.667 -23 -84c-18 -47.333 -40.333 -76.666 -67 -87.999c-11.333 -4.66699 -34 -8.83398 -68 -12.501s-80 -7.16699 -138 -10.5c-44 -3.33301 -81 -5.83301 -111 -7.5s-52.667 -2.5 -68 -2.5
c14.667 42.667 27.167 76.667 37.5 102s18.166 42.333 23.499 51c66 26 153.667 93.667 263 203c-44.667 58.667 -104.5 130.834 -179.5 216.501l-273.5 301.5c-2 -30.667 -7.33301 -46 -16 -46c-6.66699 0 -31.667 23.333 -75 70c-44.667 50.667 -67 86 -67 106
s3.16699 43.5 9.5 70.5s16.833 57.5 31.5 91.5c163.333 -164 306.666 -320.333 429.999 -469c52 -60.667 93.667 -112.667 125 -156s53.666 -77.666 66.999 -102.999c34.667 60.667 60.834 134.5 78.501 221.5s26.5 188.167 26.5 303.5c0 33.333 -0.833008 68 -2.5 104
s-3.83398 73 -6.50098 111l101 95c5.33301 -18.667 14.5 -46.5 27.5 -83.5s31.167 -83.833 54.5 -140.5zM743.004 166.997c0 23.333 -16 56.667 -48 100c-70.667 -65.333 -127 -112.333 -169 -141v-3l55 -2c11.333 -1.33301 24.333 -1 39 1s31.667 4.66699 51 8
c48 10 72 22.333 72 37zM318.004 1337c-55.333 -45.333 -124 -68.001 -206 -68.001c-12 0 -30 1.5 -54 4.5s-42 4.5 -54 4.5c-8 0 -19.5 -9.33301 -34.5 -28s-25.5 -28 -31.5 -28c-11.333 0 -17 8 -17 24c0 10.667 7.33301 32.334 22 65.001c16 36 30 54 42 54
c16.667 0 41.5 -2.83301 74.5 -8.5s57.833 -8.5 74.5 -8.5c73.333 0 128 5 164 15c19.333 5.33301 32 8 38 8c5.33301 0 8 -1.66699 8 -5c0 -5.33301 -8.66699 -15 -26 -29z" />
    <glyph glyph-name="afii62835" unicode="&#xfee0;&#xfe82;" horiz-adv-x="1202" arabic-form="final" 
d="M1225 35c0 -23.333 -5.66504 -35.001 -16.998 -35.001h-49c-169.333 0 -254 93 -254 279c0 92.667 -1 161 -3 205h-4c-123.333 -269.333 -238.333 -445 -345 -527c-26.667 -22.667 -52 -35 -76 -37c-85.333 -11.333 -154 -19.833 -206 -25.5s-87.667 -8.5 -107 -8.5
c-24 0 -36 2.66699 -36 8c0 2.66699 59.333 34.334 178 95.001c83.333 42 154.833 82.5 214.5 121.5s107.834 76.833 144.501 113.5c-16 197.333 -159.333 396.666 -430 597.999c0 -31.333 -3 -47 -9 -47c-4.66699 0 -13.834 4.83301 -27.501 14.5
s-31.167 24.167 -52.5 43.5c-50 44 -75 82.333 -75 115c0 54.667 5.33301 106.334 16 155.001l84 -63c164 -124 286 -237.667 366 -341c97.333 -126.667 155.666 -266.667 174.999 -420c125.333 144.667 183.666 310 174.999 496l-19 367l105 103l23 -902
c1.33301 -77.333 19 -130 53 -158c26 -24 70.667 -36 134 -36h25c11.333 0 17 -11.667 17 -35v-79v0zM331.002 1305c-55.333 -45.333 -124 -68.001 -206 -68.001c-12 0 -30 1.5 -54 4.5s-42 4.5 -54 4.5c-8 0 -19.5 -9.33301 -34.5 -28s-25.5 -28 -31.5 -28
c-11.333 0 -17 8 -17 24c0 10.667 7.33301 32.334 22 65.001c16 36 30 54 42 54c16.667 0 41.5 -2.83301 74.5 -8.5s57.833 -8.5 74.5 -8.5c73.333 0 128 5 164 15c19.333 5.33301 32 8 38 8c5.33301 0 8 -1.66699 8 -5c0 -5.33301 -8.66699 -15 -26 -29z" />
    <glyph glyph-name="afii62836" unicode="&#xfedf;&#xfe84;" horiz-adv-x="1036" arabic-form="isolated" 
d="M987 1021c0 -4.66699 -2.3291 -7.00293 -6.99609 -7.00293c-6.66699 0 -14.5 0.833008 -23.5 2.5s-19.167 4.83398 -30.5 9.50098c-8.66699 -160 -27.667 -296.5 -57 -409.5s-70 -203.5 -122 -271.5c19.333 -41.333 34.166 -75.833 44.499 -103.5
s15.5 -49.167 15.5 -64.5c0 -20.667 -7.66699 -48.667 -23 -84c-18 -47.333 -40.333 -76.666 -67 -87.999c-11.333 -4.66699 -34 -8.83398 -68 -12.501s-80 -7.16699 -138 -10.5c-44 -3.33301 -81 -5.83301 -111 -7.5s-52.667 -2.5 -68 -2.5
c14.667 42.667 27.167 76.667 37.5 102s18.166 42.333 23.499 51c66 26 153.667 93.667 263 203c-44.667 58.667 -104.5 130.834 -179.5 216.501l-273.5 301.5c-2 -30.667 -7.33301 -46 -16 -46c-6.66699 0 -31.667 23.333 -75 70c-44.667 50.667 -67 86 -67 106
s3.16699 43.5 9.5 70.5s16.833 57.5 31.5 91.5c163.333 -164 306.666 -320.333 429.999 -469c52 -60.667 93.667 -112.667 125 -156s53.666 -77.666 66.999 -102.999c34.667 60.667 60.834 134.5 78.501 221.5s26.5 188.167 26.5 303.5c0 33.333 -0.833008 68 -2.5 104
s-3.83398 73 -6.50098 111l101 95c5.33301 -18.667 14.5 -46.5 27.5 -83.5s31.167 -83.833 54.5 -140.5zM743.004 166.997c0 23.333 -16 56.667 -48 100c-70.667 -65.333 -127 -112.333 -169 -141v-3l55 -2c11.333 -1.33301 24.333 -1 39 1s31.667 4.66699 51 8
c48 10 72 22.333 72 37zM213.004 1296c-10.667 -1.33301 -24.168 -3.83496 -40.501 -7.50195s-35.166 -8.16699 -56.499 -13.5c-43.333 -11.333 -78.833 -24.666 -106.5 -39.999s-48.167 -32 -61.5 -50c-5.33301 12 -8 23.667 -8 35c0 31.333 20 58.666 60 81.999
c-28 18 -42 45 -42 81c0 32.667 16.667 66.334 50 101.001c33.333 33.333 70 50 110 50c54 0 81 -23.333 81 -70c0 -5.33301 -1 -10 -3 -14s-4.66699 -8 -8 -12c-22 18 -49.667 27 -83 27c-62 0 -93 -15.333 -93 -46c0 -9.33301 2.66699 -18.666 8 -27.999
s12 -17.5 20 -24.5s17 -12.667 27 -17s19.667 -6.5 29 -6.5c50 0 98.667 11.333 146 34z" />
    <glyph glyph-name="afii62837" unicode="&#xfee0;&#xfe84;" horiz-adv-x="1202" arabic-form="final" 
d="M1225 35c0 -23.333 -5.66504 -35.001 -16.998 -35.001h-49c-169.333 0 -254 93 -254 279c0 92.667 -1 161 -3 205h-4c-123.333 -269.333 -238.333 -445 -345 -527c-26.667 -22.667 -52 -35 -76 -37c-85.333 -11.333 -154 -19.833 -206 -25.5s-87.667 -8.5 -107 -8.5
c-24 0 -36 2.66699 -36 8c0 2.66699 59.333 34.334 178 95.001c83.333 42 154.833 82.5 214.5 121.5s107.834 76.833 144.501 113.5c-16 197.333 -159.333 396.666 -430 597.999c0 -31.333 -3 -47 -9 -47c-4.66699 0 -13.834 4.83301 -27.501 14.5
s-31.167 24.167 -52.5 43.5c-50 44 -75 82.333 -75 115c0 54.667 5.33301 106.334 16 155.001l84 -63c164 -124 286 -237.667 366 -341c97.333 -126.667 155.666 -266.667 174.999 -420c125.333 144.667 183.666 310 174.999 496l-19 367l105 103l23 -902
c1.33301 -77.333 19 -130 53 -158c26 -24 70.667 -36 134 -36h25c11.333 0 17 -11.667 17 -35v-79v0zM248.002 1267c-10.667 -1.33301 -24.168 -3.83496 -40.501 -7.50195s-35.166 -8.16699 -56.499 -13.5c-43.333 -11.333 -78.833 -24.666 -106.5 -39.999
s-48.167 -32 -61.5 -50c-5.33301 12 -8 23.667 -8 35c0 31.333 20 58.666 60 81.999c-28 18 -42 45 -42 81c0 32.667 16.667 66.334 50 101.001c33.333 33.333 70 50 110 50c54 0 81 -23.333 81 -70c0 -5.33301 -1 -10 -3 -14s-4.66699 -8 -8 -12c-22 18 -49.667 27 -83 27
c-62 0 -93 -15.333 -93 -46c0 -9.33301 2.66699 -18.666 8 -27.999s12 -17.5 20 -24.5s17 -12.667 27 -17s19.667 -6.5 29 -6.5c50 0 98.667 11.333 146 34z" />
    <glyph glyph-name="afii62838" unicode="&#xfedf;&#xfe88;" horiz-adv-x="1036" arabic-form="isolated" 
d="M987 1021c0 -4.66699 -2.3291 -7.00293 -6.99609 -7.00293c-6.66699 0 -14.5 0.833008 -23.5 2.5s-19.167 4.83398 -30.5 9.50098c-8.66699 -160 -27.667 -296.5 -57 -409.5s-70 -203.5 -122 -271.5c19.333 -41.333 34.166 -75.833 44.499 -103.5
s15.5 -49.167 15.5 -64.5c0 -20.667 -7.66699 -48.667 -23 -84c-18 -47.333 -40.333 -76.666 -67 -87.999c-11.333 -4.66699 -34 -8.83398 -68 -12.501s-80 -7.16699 -138 -10.5c-44 -3.33301 -81 -5.83301 -111 -7.5s-52.667 -2.5 -68 -2.5
c14.667 42.667 27.167 76.667 37.5 102s18.166 42.333 23.499 51c66 26 153.667 93.667 263 203c-44.667 58.667 -104.5 130.834 -179.5 216.501l-273.5 301.5c-2 -30.667 -7.33301 -46 -16 -46c-6.66699 0 -31.667 23.333 -75 70c-44.667 50.667 -67 86 -67 106
s3.16699 43.5 9.5 70.5s16.833 57.5 31.5 91.5c163.333 -164 306.666 -320.333 429.999 -469c52 -60.667 93.667 -112.667 125 -156s53.666 -77.666 66.999 -102.999c34.667 60.667 60.834 134.5 78.501 221.5s26.5 188.167 26.5 303.5c0 33.333 -0.833008 68 -2.5 104
s-3.83398 73 -6.50098 111l101 95c5.33301 -18.667 14.5 -46.5 27.5 -83.5s31.167 -83.833 54.5 -140.5zM743.004 166.997c0 23.333 -16 56.667 -48 100c-70.667 -65.333 -127 -112.333 -169 -141v-3l55 -2c11.333 -1.33301 24.333 -1 39 1s31.667 4.66699 51 8
c48 10 72 22.333 72 37zM488.004 -363.002c-10.667 -1.33301 -24.168 -3.83496 -40.501 -7.50195s-35.166 -8.16699 -56.499 -13.5c-43.333 -11.333 -78.833 -24.666 -106.5 -39.999s-48.167 -32 -61.5 -50c-5.33301 12 -8 23.667 -8 35c0 31.333 20 58.666 60 81.999
c-28 18 -42 45 -42 81c0 32.667 16.667 66.334 50 101.001c33.333 33.333 70 50 110 50c54 0 81 -23.333 81 -70c0 -5.33301 -1 -10 -3 -14s-4.66699 -8 -8 -12c-22 18 -49.667 27 -83 27c-62 0 -93 -15.333 -93 -46c0 -9.33301 2.66699 -18.666 8 -27.999
s12 -17.5 20 -24.5s17 -12.667 27 -17s19.667 -6.5 29 -6.5c50 0 98.667 11.333 146 34z" />
    <glyph glyph-name="afii62839" unicode="&#xfee0;&#xfe88;" horiz-adv-x="1202" arabic-form="final" 
d="M1225 35c0 -23.333 -5.66504 -35.001 -16.998 -35.001h-49c-169.333 0 -254 93 -254 279c0 92.667 -1 161 -3 205h-4c-123.333 -269.333 -238.333 -445 -345 -527c-26.667 -22.667 -52 -35 -76 -37c-85.333 -11.333 -154 -19.833 -206 -25.5s-87.667 -8.5 -107 -8.5
c-24 0 -36 2.66699 -36 8c0 2.66699 59.333 34.334 178 95.001c83.333 42 154.833 82.5 214.5 121.5s107.834 76.833 144.501 113.5c-16 197.333 -159.333 396.666 -430 597.999c0 -31.333 -3 -47 -9 -47c-4.66699 0 -13.834 4.83301 -27.501 14.5
s-31.167 24.167 -52.5 43.5c-50 44 -75 82.333 -75 115c0 54.667 5.33301 106.334 16 155.001l84 -63c164 -124 286 -237.667 366 -341c97.333 -126.667 155.666 -266.667 174.999 -420c125.333 144.667 183.666 310 174.999 496l-19 367l105 103l23 -902
c1.33301 -77.333 19 -130 53 -158c26 -24 70.667 -36 134 -36h25c11.333 0 17 -11.667 17 -35v-79v0zM440.002 -435.001c-10.667 -1.33301 -24.168 -3.83496 -40.501 -7.50195s-35.166 -8.16699 -56.499 -13.5c-43.333 -11.333 -78.833 -24.666 -106.5 -39.999
s-48.167 -32 -61.5 -50c-5.33301 12 -8 23.667 -8 35c0 31.333 20 58.666 60 81.999c-28 18 -42 45 -42 81c0 32.667 16.667 66.334 50 101.001c33.333 33.333 70 50 110 50c54 0 81 -23.333 81 -70c0 -5.33301 -1 -10 -3 -14s-4.66699 -8 -8 -12c-22 18 -49.667 27 -83 27
c-62 0 -93 -15.333 -93 -46c0 -9.33301 2.66699 -18.666 8 -27.999s12 -17.5 20 -24.5s17 -12.667 27 -17s19.667 -6.5 29 -6.5c50 0 98.667 11.333 146 34z" />
    <glyph glyph-name="afii62840" unicode="&#xfedf;&#xfe8e;" horiz-adv-x="1036" arabic-form="isolated" 
d="M987 1021c0 -4.66699 -2.3291 -7.00293 -6.99609 -7.00293c-6.66699 0 -14.5 0.833008 -23.5 2.5s-19.167 4.83398 -30.5 9.50098c-8.66699 -160 -27.667 -296.5 -57 -409.5s-70 -203.5 -122 -271.5c19.333 -41.333 34.166 -75.833 44.499 -103.5
s15.5 -49.167 15.5 -64.5c0 -20.667 -7.66699 -48.667 -23 -84c-18 -47.333 -40.333 -76.666 -67 -87.999c-11.333 -4.66699 -34 -8.83398 -68 -12.501s-80 -7.16699 -138 -10.5c-44 -3.33301 -81 -5.83301 -111 -7.5s-52.667 -2.5 -68 -2.5
c14.667 42.667 27.167 76.667 37.5 102s18.166 42.333 23.499 51c66 26 153.667 93.667 263 203c-44.667 58.667 -104.5 130.834 -179.5 216.501l-273.5 301.5c-2 -30.667 -7.33301 -46 -16 -46c-6.66699 0 -31.667 23.333 -75 70c-44.667 50.667 -67 86 -67 106
s3.16699 43.5 9.5 70.5s16.833 57.5 31.5 91.5c163.333 -164 306.666 -320.333 429.999 -469c52 -60.667 93.667 -112.667 125 -156s53.666 -77.666 66.999 -102.999c34.667 60.667 60.834 134.5 78.501 221.5s26.5 188.167 26.5 303.5c0 33.333 -0.833008 68 -2.5 104
s-3.83398 73 -6.50098 111l101 95c5.33301 -18.667 14.5 -46.5 27.5 -83.5s31.167 -83.833 54.5 -140.5zM743.004 166.997c0 23.333 -16 56.667 -48 100c-70.667 -65.333 -127 -112.333 -169 -141v-3l55 -2c11.333 -1.33301 24.333 -1 39 1s31.667 4.66699 51 8
c48 10 72 22.333 72 37z" />
    <glyph glyph-name="afii62841" unicode="&#xfee0;&#xfe8e;" horiz-adv-x="1202" arabic-form="final" 
d="M1225 35c0 -23.333 -5.66504 -35.001 -16.998 -35.001h-49c-169.333 0 -254 93 -254 279c0 92.667 -1 161 -3 205h-4c-123.333 -269.333 -238.333 -445 -345 -527c-26.667 -22.667 -52 -35 -76 -37c-85.333 -11.333 -154 -19.833 -206 -25.5s-87.667 -8.5 -107 -8.5
c-24 0 -36 2.66699 -36 8c0 2.66699 59.333 34.334 178 95.001c83.333 42 154.833 82.5 214.5 121.5s107.834 76.833 144.501 113.5c-16 197.333 -159.333 396.666 -430 597.999c0 -31.333 -3 -47 -9 -47c-4.66699 0 -13.834 4.83301 -27.501 14.5
s-31.167 24.167 -52.5 43.5c-50 44 -75 82.333 -75 115c0 54.667 5.33301 106.334 16 155.001l84 -63c164 -124 286 -237.667 366 -341c97.333 -126.667 155.666 -266.667 174.999 -420c125.333 144.667 183.666 310 174.999 496l-19 367l105 103l23 -902
c1.33301 -77.333 19 -130 53 -158c26 -24 70.667 -36 134 -36h25c11.333 0 17 -11.667 17 -35v-79v0z" />
    <glyph glyph-name="uni0672.fina" unicode="&#x672;" horiz-adv-x="487" 
d="M509 35c0 -23.333 -4.99902 -35 -14.999 -35h-34c-80.667 0 -146.334 20.667 -197.001 62c-26.667 21.333 -46.334 47 -59.001 77s-19.667 65 -21 105c-2 165.333 -6.66699 322.333 -14 471s-17 291 -29 427l108 103c8.66699 -91.333 14.834 -217.5 18.501 -378.5
s6.16699 -356.833 7.5 -587.5c0 -43.333 21.667 -77.333 65 -102c31.333 -18.667 63 -28 95 -28h60c10 0 15 -11.667 15 -35v-79v0zM248.001 1465c2 0.666992 -2.49902 6.49805 -13.499 17.498s-22.5 18.833 -34.5 23.5c-8.66699 2 -21.334 -1.33301 -38.001 -10
s-27.334 -21.667 -32.001 -39c4.66699 -18.667 13.834 -32 27.501 -40s30.167 -13 49.5 -15s39.166 -1.33301 59.499 2s38.5 7 54.5 11c7.33301 2 9.16602 -1.66699 5.49902 -11s-9.5 -21.666 -17.5 -36.999c-31.333 -22.667 -81.666 -36.5 -150.999 -41.5
s-110 -21.833 -122 -50.5c-6.66699 -2 -9.5 2 -8.5 12s2.83301 18 5.5 24c10 23.333 32 37 66 41s58.333 9.33301 73 16c-15.333 0.666992 -33.166 6.33398 -53.499 17.001s-28.5 30.667 -24.5 60c0.666992 23.333 7.16699 44.333 19.5 63s27.333 33 45 43
s37.5 13.667 59.5 11s43.333 -13.667 64 -33c6 -9.33301 5.5 -19.333 -1.5 -30s-17.833 -22 -32.5 -34z" />
    <glyph glyph-name="uni0673.fina" unicode="&#x673;" horiz-adv-x="487" 
d="M509 35c0 -23.333 -4.99902 -35 -14.999 -35h-34c-80.667 0 -146.334 20.667 -197.001 62c-26.667 21.333 -46.334 47 -59.001 77s-19.667 65 -21 105c-2 165.333 -6.66699 322.333 -14 471s-17 291 -29 427l108 103c8.66699 -91.333 14.834 -217.5 18.501 -378.5
s6.16699 -356.833 7.5 -587.5c0 -43.333 21.667 -77.333 65 -102c31.333 -18.667 63 -28 95 -28h60c10 0 15 -11.667 15 -35v-79v0zM387.001 -265c2 0.666992 -2.49902 6.49805 -13.499 17.498s-22.5 18.833 -34.5 23.5c-8.66699 2 -21.334 -1.33301 -38.001 -10
s-27.334 -21.667 -32.001 -39c4.66699 -18.667 13.834 -32 27.501 -40s30.167 -13 49.5 -15s39.166 -1.33301 59.499 2s38.5 7 54.5 11c7.33301 2 9.16602 -1.66699 5.49902 -11s-9.5 -21.666 -17.5 -36.999c-31.333 -22.667 -81.666 -36.5 -150.999 -41.5
s-110 -21.833 -122 -50.5c-6.66699 -2 -9.5 2 -8.5 12s2.83301 18 5.5 24c10 23.333 32 37 66 41s58.333 9.33301 73 16c-15.333 0.666992 -33.166 6.33398 -53.499 17.001s-28.5 30.667 -24.5 60c0.666992 23.333 7.16699 44.333 19.5 63s27.333 33 45 43
s37.5 13.667 59.5 11s43.333 -13.667 64 -33c6 -9.33301 5.5 -19.333 -1.5 -30s-17.833 -22 -32.5 -34z" />
    <glyph glyph-name="uni0675.fina" unicode="&#x675;" horiz-adv-x="487" 
d="M509 35c0 -23.333 -4.99902 -35 -14.999 -35h-34c-80.667 0 -146.334 20.667 -197.001 62c-26.667 21.333 -46.334 47 -59.001 77s-19.667 65 -21 105c-2 165.333 -6.66699 322.333 -14 471s-17 291 -29 427l108 103c8.66699 -91.333 14.834 -217.5 18.501 -378.5
s6.16699 -356.833 7.5 -587.5c0 -43.333 21.667 -77.333 65 -102c31.333 -18.667 63 -28 95 -28h60c10 0 15 -11.667 15 -35v-79v0zM310.001 1378c-10.667 -1.33301 -24.168 -3.83496 -40.501 -7.50195s-35.166 -8.16699 -56.499 -13.5
c-43.333 -11.333 -78.833 -24.666 -106.5 -39.999s-48.167 -32 -61.5 -50c-5.33301 12 -8 23.667 -8 35c0 31.333 20 58.666 60 81.999c-28 18 -42 45 -42 81c0 32.667 16.667 66.334 50 101.001c33.333 33.333 70 50 110 50c54 0 81 -23.333 81 -70
c0 -5.33301 -1 -10 -3 -14s-4.66699 -8 -8 -12c-22 18 -49.667 27 -83 27c-62 0 -93 -15.333 -93 -46c0 -9.33301 2.66699 -18.666 8 -27.999s12 -17.5 20 -24.5s17 -12.667 27 -17s19.667 -6.5 29 -6.5c50 0 98.667 11.333 146 34z" />
    <glyph glyph-name="uni0676.fina" unicode="&#x676;" horiz-adv-x="727" 
d="M749 35c0 -23.333 -5.33008 -34.999 -15.9971 -34.999h-144c0 -94.667 -37.333 -204 -112 -328c-23.333 -38 -44.833 -69.667 -64.5 -95s-37.5 -44 -53.5 -56c-23.333 -17.333 -56.666 -26 -99.999 -26c-24.667 0 -50.334 0.833008 -77.001 2.5
s-55.334 3.83398 -86.001 6.50098c-64 6 -96 13 -96 21c0 7.33301 9.33301 13.333 28 18c130.667 36 242.334 99 335.001 189c53.333 50 94.666 102.667 123.999 158c22 42.667 33 75.667 33 99v16c-14 -1.33301 -31.5 -2.5 -52.5 -3.5s-45.833 -1.5 -74.5 -1.5
c-42.667 0 -79 3 -109 9s-54.333 15.667 -73 29s-32.167 30.666 -40.5 51.999s-12.5 47 -12.5 77c0 38 4.66699 75 14 111s22.666 72 39.999 108c22 40 45.667 70.167 71 90.5s53.333 30.5 84 30.5c63.333 0 114.666 -36.667 153.999 -110
c36.667 -64.667 60 -147.334 70 -248.001h142c10.667 0 16 -11.667 16 -35v-79zM501.003 149.001c-0.666992 23.333 -5.16699 46.5 -13.5 69.5s-19.833 45.167 -34.5 66.5c-32 48.667 -66.667 73 -104 73c-15.333 0 -29.833 -2.83301 -43.5 -8.5s-25.5 -13.667 -35.5 -24
s-18 -22.5 -24 -36.5s-9 -29 -9 -45c0 -63.333 52.667 -95 158 -95h106zM477.003 747.001c-10.667 -1.33301 -24.168 -3.83496 -40.501 -7.50195s-35.166 -8.16699 -56.499 -13.5c-43.333 -11.333 -78.833 -24.666 -106.5 -39.999s-48.167 -32 -61.5 -50
c-5.33301 12 -8 23.667 -8 35c0 31.333 20 58.666 60 81.999c-28 18 -42 45 -42 81c0 32.667 16.667 66.334 50 101.001c33.333 33.333 70 50 110 50c54 0 81 -23.333 81 -70c0 -5.33301 -1 -10 -3 -14s-4.66699 -8 -8 -12c-22 18 -49.667 27 -83 27
c-62 0 -93 -15.333 -93 -46c0 -9.33301 2.66699 -18.666 8 -27.999s12 -17.5 20 -24.5s17 -12.667 27 -17s19.667 -6.5 29 -6.5c50 0 98.667 11.333 146 34z" />
    <glyph glyph-name="uni0677.fina" unicode="&#x677;" horiz-adv-x="818" 
d="M840 35c0 -23.333 -5.33008 -34.999 -15.9971 -34.999h-144c0 -94.667 -37.333 -204 -112 -328c-23.333 -38 -44.833 -69.667 -64.5 -95s-37.5 -44 -53.5 -56c-23.333 -17.333 -56.666 -26 -99.999 -26c-24.667 0 -50.334 0.833008 -77.001 2.5
s-55.334 3.83398 -86.001 6.50098c-64 6 -96 13 -96 21c0 7.33301 9.33301 13.333 28 18c130.667 36 242.334 99 335.001 189c53.333 50 94.666 102.667 123.999 158c22 42.667 33 75.667 33 99v16c-14 -1.33301 -31.5 -2.5 -52.5 -3.5s-45.833 -1.5 -74.5 -1.5
c-42.667 0 -79 3 -109 9s-54.333 15.667 -73 29s-32.167 30.666 -40.5 51.999s-12.5 47 -12.5 77c0 38 4.66699 75 14 111s22.666 72 39.999 108c22 40 45.667 70.167 71 90.5s53.333 30.5 84 30.5c63.333 0 114.666 -36.667 153.999 -110
c36.667 -64.667 60 -147.334 70 -248.001h142c10.667 0 16 -11.667 16 -35v-79zM592.003 149.001c-0.666992 23.333 -5.16699 46.5 -13.5 69.5s-19.833 45.167 -34.5 66.5c-32 48.667 -66.667 73 -104 73c-15.333 0 -29.833 -2.83301 -43.5 -8.5s-25.5 -13.667 -35.5 -24
s-18 -22.5 -24 -36.5s-9 -29 -9 -45c0 -63.333 52.667 -95 158 -95h106zM790.003 737.001c-10.667 -1.33301 -24.168 -3.83496 -40.501 -7.50195s-35.166 -8.16699 -56.499 -13.5c-43.333 -11.333 -78.833 -24.666 -106.5 -39.999s-48.167 -32 -61.5 -50
c-5.33301 12 -8 23.667 -8 35c0 31.333 20 58.666 60 81.999c-28 18 -42 45 -42 81c0 32.667 16.667 66.334 50 101.001c33.333 33.333 70 50 110 50c54 0 81 -23.333 81 -70c0 -5.33301 -1 -10 -3 -14s-4.66699 -8 -8 -12c-22 18 -49.667 27 -83 27
c-62 0 -93 -15.333 -93 -46c0 -9.33301 2.66699 -18.666 8 -27.999s12 -17.5 20 -24.5s17 -12.667 27 -17s19.667 -6.5 29 -6.5c50 0 98.667 11.333 146 34zM458.569 736.573c-16.7666 -31.7168 -32.9141 -52.2383 -48.4385 -61.5674l-57.75 19.5898
c-53.4033 -69.6533 -130.714 -104.48 -231.932 -104.48c-30.4277 0 -49.6777 9.63965 -57.751 28.9189c14.2822 0.62207 31.8252 3.57617 52.6279 8.8623s45.1758 13.8369 73.1191 25.6523c57.751 23.0107 97.4932 43.8447 119.227 62.502
c-67.0654 31.0957 -100.598 66.5449 -100.598 106.347c0 30.4736 18.6289 62.8125 55.8877 97.0176c19.25 16.1689 37.5684 28.6074 54.9561 37.3145c17.3877 8.70605 34.4648 13.0596 51.2314 13.0596c44.0889 0 66.1328 -30.7842 66.1328 -92.3535
c0 -25.498 -3.10449 -48.042 -9.31445 -67.6318c-6.20996 -19.5908 -14.9033 -36.8486 -26.0801 -51.7744c22.9756 -14.3037 42.5361 -21.4561 58.6816 -21.4561zM379.394 839.189c0 39.8018 -12.7295 59.7012 -38.1895 59.7012
c-14.9033 0 -28.875 -4.35352 -41.915 -13.0605c-8.69434 -4.35254 -15.2148 -9.32812 -19.5615 -14.9258c-4.34668 -5.59668 -6.52051 -11.1934 -6.52051 -16.79c0 -26.7422 30.7383 -53.1729 92.2148 -79.293c9.31445 14.3037 13.9717 35.7598 13.9717 64.3682z" />
    <glyph glyph-name="uni0678.fina" unicode="&#x678;" horiz-adv-x="1348" 
d="M1370 35c0 -23.333 -5.66699 -34.9951 -17 -34.9951h-125c-286.667 0 -430 -27.333 -430 -82c0 -20.667 62 -39.334 186 -56.001c46 -5.33301 83.667 -11.333 113 -18s50 -14.334 62 -23.001c10 -6.66699 17.833 -16.834 23.5 -30.501s7.83398 -30.834 6.50098 -51.501
c-6 -223.333 -227 -335 -663 -335c-120.667 0 -218.334 25.333 -293.001 76c-86.667 58 -130 144.333 -130 259c0 42.667 4.16699 84.5 12.5 125.5s21.5 80.833 39.5 119.5c32 68.667 59.667 103 83 103c15.333 0 23 -6.66699 23 -20c0 2 -11.667 -23.333 -35 -76
c-22.667 -52 -34 -106 -34 -162c0 -103.333 39 -176 117 -218c66.667 -39.333 173 -59 319 -59c68 0 130.667 3.83301 188 11.5s110.666 19.167 159.999 34.5c92 27.333 137 57 135 89c0 14 -35 25.667 -105 35c-48.667 7.33301 -89.167 14.5 -121.5 21.5
s-56.166 13.167 -71.499 18.5c-70 20.667 -105 52.667 -105 96c0 55.333 27.333 111.333 82 168c53.333 56 111.333 90 174 102c32 7.33301 78.5 12.666 139.5 15.999s136.167 5 225.5 5h24c11.333 0 17 -11.667 17 -35v-79v0zM688 291.005
c-10.667 -1.33301 -24.168 -3.83496 -40.501 -7.50195s-35.166 -8.16699 -56.499 -13.5c-43.333 -11.333 -78.833 -24.666 -106.5 -39.999s-48.167 -32 -61.5 -50c-5.33301 12 -8 23.667 -8 35c0 31.333 20 58.666 60 81.999c-28 18 -42 45 -42 81
c0 32.667 16.667 66.334 50 101.001c33.333 33.333 70 50 110 50c54 0 81 -23.333 81 -70c0 -5.33301 -1 -10 -3 -14s-4.66699 -8 -8 -12c-22 18 -49.667 27 -83 27c-62 0 -93 -15.333 -93 -46c0 -9.33301 2.66699 -18.666 8 -27.999s12 -17.5 20 -24.5s17 -12.667 27 -17
s19.667 -6.5 29 -6.5c50 0 98.667 11.333 146 34z" />
    <glyph glyph-name="uni067C.init" unicode="&#x67c;" horiz-adv-x="449" 
d="M380 272c0 -104 -28.333 -176.001 -85 -216.001c-52 -37.333 -138.667 -56 -260 -56h-40c-24 0 -36 11.667 -36 35v79c0 23.333 12 35 36 35h23c189.333 0 284 23 284 69c0 48.667 -28.333 108.334 -85 179.001l68 151c63.333 -90 95 -182 95 -276zM223 647.999l-103 104
l101 100l103 -100zM-19 647.999l-103 104l101 100l102 -100zM275 -68.001c0 -22.667 -4.5 -43.999 -13.5 -63.999s-21 -37.333 -36 -52s-32.333 -26.334 -52 -35.001s-40.5 -13 -62.5 -13c-72 0 -108 36.667 -108 110c0 57.333 16 106 48 146c26.667 42 58 63 94 63
c17.333 0 33.833 -4 49.5 -12s29.5 -18.833 41.5 -32.5s21.5 -30 28.5 -49s10.5 -39.5 10.5 -61.5zM229 -101c0 28.667 -12.001 52.667 -36.001 72c-20.667 18.667 -43 28 -67 28c-10 0 -19.667 -2.33301 -29 -7s-17.666 -12.334 -24.999 -23.001
c-12.667 -15.333 -19 -32.666 -19 -51.999c0 -40.667 26 -61 78 -61c44 0 76.667 14.333 98 43z" />
    <glyph glyph-name="uni067C.medi" unicode="&#x67c;" horiz-adv-x="621" 
d="M643 35c0 -23.333 -5.66699 -34.999 -17 -34.999h-24c-34.667 0 -65.167 1.83301 -91.5 5.5s-48.166 10.167 -65.499 19.5c-40 17.333 -71.667 51.666 -95 102.999c-23.333 -48.667 -64.333 -83 -123 -103c-24 -9.33301 -53.333 -15.833 -88 -19.5s-75 -5.5 -121 -5.5
h-23c-24 0 -36 11.667 -36 35v79c0 23.333 12 35 36 35h139c111.333 0 174.666 67.667 189.999 203c0 18 8.33301 27 25 27c16 0 24 -9 24 -27c15.333 -135.333 78.333 -203 189 -203h64c11.333 0 17 -11.667 17 -35v-79v0zM443 597.001l-103 104l101 100l103 -100z
M201 597.001l-103 104l101 100l102 -100zM250 -65.999c0 -22.667 -4.5 -43.999 -13.5 -63.999s-21 -37.333 -36 -52s-32.333 -26.334 -52 -35.001s-40.5 -13 -62.5 -13c-72 0 -108 36.667 -108 110c0 57.333 16 106 48 146c26.667 42 58 63 94 63
c17.333 0 33.833 -4 49.5 -12s29.5 -18.833 41.5 -32.5s21.5 -30 28.5 -49s10.5 -39.5 10.5 -61.5zM204 -98.998c0 28.667 -12.001 52.667 -36.001 72c-20.667 18.667 -43 28 -67 28c-10 0 -19.667 -2.33301 -29 -7s-17.666 -12.334 -24.999 -23.001
c-12.667 -15.333 -19 -32.666 -19 -51.999c0 -40.667 26 -61 78 -61c44 0 76.667 14.333 98 43z" />
    <glyph glyph-name="uni067C.fina" unicode="&#x67c;" horiz-adv-x="1499" 
d="M1521 35c0 -23.333 -5.66699 -35.001 -17 -35.001h-32c-121.333 0 -192.333 60.333 -213 181c-135.333 -129.333 -366 -194 -692 -194c-303.333 0 -455 93.667 -455 281c0 27.333 2.83301 54.333 8.5 81s14.5 52.667 26.5 78c20.667 47.333 38.667 71 54 71
c17.333 0 26 -8.33301 26 -25c0 -1.33301 -1.33301 -5.5 -4 -12.5s-7.66699 -18.167 -15 -33.5c-12 -28 -18 -56.667 -18 -86c0 -136.667 138.667 -205 416 -205c89.333 0 171.5 5.16699 246.5 15.5s143.167 25.5 204.5 45.5c90.667 32 153.334 70 188.001 114
c45.333 59.333 75.666 89 90.999 89c16 0 24 -8.33301 24 -25c0 -3.33301 -0.833008 -9.5 -2.5 -18.5s-4.16699 -20.5 -7.5 -34.5c-8 -27.333 -12 -48.666 -12 -63.999c0 -72.667 47.333 -109 142 -109h24c11.333 0 17 -11.667 17 -35v-79v0zM824 528.999l-103 104l101 100
l103 -100zM582 528.999l-103 104l101 100l102 -100zM771 -81.001c0 -22.667 -4.5 -43.999 -13.5 -63.999s-21 -37.333 -36 -52s-32.333 -26.334 -52 -35.001s-40.5 -13 -62.5 -13c-72 0 -108 36.667 -108 110c0 57.333 16 106 48 146c26.667 42 58 63 94 63
c17.333 0 33.833 -4 49.5 -12s29.5 -18.833 41.5 -32.5s21.5 -30 28.5 -49s10.5 -39.5 10.5 -61.5zM725 -114c0 28.667 -12.001 52.667 -36.001 72c-20.667 18.667 -43 28 -67 28c-10 0 -19.667 -2.33301 -29 -7s-17.666 -12.334 -24.999 -23.001
c-12.667 -15.333 -19 -32.666 -19 -51.999c0 -40.667 26 -61 78 -61c44 0 76.667 14.333 98 43z" />
    <glyph glyph-name="uni067D.init" unicode="&#x67d;" horiz-adv-x="449" 
d="M380 272c0 -104 -28.333 -176.001 -85 -216.001c-52 -37.333 -138.667 -56 -260 -56h-40c-24 0 -36 11.667 -36 35v79c0 23.333 12 35 36 35h23c189.333 0 284 23 284 69c0 48.667 -28.333 108.334 -85 179.001l68 151c63.333 -90 95 -182 95 -276zM108 770.999l103 -106
l-103 -107l-104 107zM233 986.999l103 -107l-103 -105l-105 105zM-9 986.999l103 -107l-103 -105l-105 105z" />
    <glyph glyph-name="uni067D.medi" unicode="&#x67d;" horiz-adv-x="621" 
d="M643 35c0 -23.333 -5.66699 -34.999 -17 -34.999h-24c-34.667 0 -65.167 1.83301 -91.5 5.5s-48.166 10.167 -65.499 19.5c-40 17.333 -71.667 51.666 -95 102.999c-23.333 -48.667 -64.333 -83 -123 -103c-24 -9.33301 -53.333 -15.833 -88 -19.5s-75 -5.5 -121 -5.5
h-23c-24 0 -36 11.667 -36 35v79c0 23.333 12 35 36 35h139c111.333 0 174.666 67.667 189.999 203c0 18 8.33301 27 25 27c16 0 24 -9 24 -27c15.333 -135.333 78.333 -203 189 -203h64c11.333 0 17 -11.667 17 -35v-79v0zM335 751.001l103 -106l-103 -107l-104 107z
M460 967.001l103 -107l-103 -105l-105 105zM218 967.001l103 -107l-103 -105l-105 105z" />
    <glyph glyph-name="uni067D.fina" unicode="&#x67d;" horiz-adv-x="1499" 
d="M1521 35c0 -23.333 -5.66699 -35.001 -17 -35.001h-32c-121.333 0 -192.333 60.333 -213 181c-135.333 -129.333 -366 -194 -692 -194c-303.333 0 -455 93.667 -455 281c0 27.333 2.83301 54.333 8.5 81s14.5 52.667 26.5 78c20.667 47.333 38.667 71 54 71
c17.333 0 26 -8.33301 26 -25c0 -1.33301 -1.33301 -5.5 -4 -12.5s-7.66699 -18.167 -15 -33.5c-12 -28 -18 -56.667 -18 -86c0 -136.667 138.667 -205 416 -205c89.333 0 171.5 5.16699 246.5 15.5s143.167 25.5 204.5 45.5c90.667 32 153.334 70 188.001 114
c45.333 59.333 75.666 89 90.999 89c16 0 24 -8.33301 24 -25c0 -3.33301 -0.833008 -9.5 -2.5 -18.5s-4.16699 -20.5 -7.5 -34.5c-8 -27.333 -12 -48.666 -12 -63.999c0 -72.667 47.333 -109 142 -109h24c11.333 0 17 -11.667 17 -35v-79v0zM702 711.999l103 -106
l-103 -107l-104 107zM827 927.999l103 -107l-103 -105l-105 105zM585 927.999l103 -107l-103 -105l-105 105z" />
    <glyph glyph-name="uni0681.init" unicode="&#x681;" horiz-adv-x="1131" 
d="M1010 287l-67.002 -0.000976562c-29.333 0 -56.166 -1.83301 -80.499 -5.5s-47.166 -8.5 -68.499 -14.5c-25.333 -9.33301 -60.166 -24.333 -104.499 -45l-163.5 -80c-93.333 -48 -180.333 -83.667 -261 -107s-157.334 -35 -230.001 -35h-40c-24 0 -36 11.667 -36 35v79
c0 23.333 12 35 36 35h23c52 0 128 9 228 27c43.333 7.33301 102 24.833 176 52.5s165 65.834 273 114.501v9c-204.667 85.333 -337.334 128 -398.001 128c-43.333 0 -80 -14.667 -110 -44l-37 -31.5c-8.66699 -7.66699 -14.667 -11.5 -18 -11.5c-10 0 -15 6.33301 -15 19
c0 40 19.667 84.667 59 134c42 56 90 84 144 84c28.667 0 74.834 -11 138.501 -33s146.167 -55 247.5 -99c54 -23.333 111.833 -41.333 173.5 -54s128.167 -19.667 199.5 -21zM744.998 795.999c-10.667 -1.33301 -24.168 -3.83496 -40.501 -7.50195
s-35.166 -8.16699 -56.499 -13.5c-43.333 -11.333 -78.833 -24.666 -106.5 -39.999s-48.167 -32 -61.5 -50c-5.33301 12 -8 23.667 -8 35c0 31.333 20 58.666 60 81.999c-28 18 -42 45 -42 81c0 32.667 16.667 66.334 50 101.001c33.333 33.333 70 50 110 50
c54 0 81 -23.333 81 -70c0 -5.33301 -1 -10 -3 -14s-4.66699 -8 -8 -12c-22 18 -49.667 27 -83 27c-62 0 -93 -15.333 -93 -46c0 -9.33301 2.66699 -18.666 8 -27.999s12 -17.5 20 -24.5s17 -12.667 27 -17s19.667 -6.5 29 -6.5c50 0 98.667 11.333 146 34z" />
    <glyph glyph-name="uni0681.medi" unicode="&#x681;" horiz-adv-x="1137" 
d="M1159 35c0 -23.333 -5.66602 -34.998 -16.999 -34.998h-24c-204.667 0 -307 71.667 -307 215c0 48 3 85 9 111c-59.333 -24 -171.333 -86 -336 -186c-75.333 -47.333 -151.833 -82.5 -229.5 -105.5s-156.5 -34.5 -236.5 -34.5h-23c-24 0 -36 11.667 -36 35v79
c0 23.333 12 35 36 35h23c110.667 0 227 23.667 349 71c36.667 14 81.5 34.333 134.5 61l188.5 98v9c-116 31.333 -207.667 54.5 -275 69.5s-110.666 22.5 -129.999 22.5c-42.667 0 -79 -14.667 -109 -44l-38 -31.5c-9.33301 -7.66699 -15 -11.5 -17 -11.5
c-10 0 -15 6.33301 -15 19c0 40 19.333 84.667 58 134c42.667 56 91 84 145 84c25.333 0 53 -2.83301 83 -8.5s62.333 -14.834 97 -27.501l132.5 -44.5c33.667 -11 57.167 -18.167 70.5 -21.5c47.333 -12.667 96.166 -21.834 146.499 -27.501s103.166 -8.5 158.499 -8.5h90
l-61 -143c-39.333 6.66699 -89.333 4.66699 -150 -6l-1 -55c-5.33301 -92.667 62.667 -139 204 -139h63c11.333 0 17 -11.667 17 -35v-79v0zM769.001 825.002c-10.667 -1.33301 -24.168 -3.83496 -40.501 -7.50195s-35.166 -8.16699 -56.499 -13.5
c-43.333 -11.333 -78.833 -24.666 -106.5 -39.999s-48.167 -32 -61.5 -50c-5.33301 12 -8 23.667 -8 35c0 31.333 20 58.666 60 81.999c-28 18 -42 45 -42 81c0 32.667 16.667 66.334 50 101.001c33.333 33.333 70 50 110 50c54 0 81 -23.333 81 -70
c0 -5.33301 -1 -10 -3 -14s-4.66699 -8 -8 -12c-22 18 -49.667 27 -83 27c-62 0 -93 -15.333 -93 -46c0 -9.33301 2.66699 -18.666 8 -27.999s12 -17.5 20 -24.5s17 -12.667 27 -17s19.667 -6.5 29 -6.5c50 0 98.667 11.333 146 34z" />
    <glyph glyph-name="uni0681.fina" unicode="&#x681;" horiz-adv-x="1154" 
d="M1176 35c0 -23.333 -5.66895 -35.002 -17.002 -35.002h-80c-56.667 0 -104.334 5.16699 -143.001 15.5s-69.667 25.166 -93 44.499c-42.667 34.667 -64 94 -64 178c0 16 0.833008 33.333 2.5 52s3.83398 38.667 6.50098 60c-76 -18.667 -145.167 -41 -207.5 -67
s-118.5 -56.333 -168.5 -91c-134.667 -91.333 -202 -198.666 -202 -321.999c0 -207.333 177.333 -311 532 -311c36 0 74.333 2.16699 115 6.5s84 10.5 130 18.5l95 17.5c20.667 3.66699 30.334 6.16699 29.001 7.5c4 0 6 -3 6 -9c0 -25.333 -38 -59 -114 -101
c-96 -56 -205.667 -84 -329 -84c-370.667 0 -555 135.333 -553 406c2 256.667 169.667 447.334 503 572.001v9c-68 10.667 -128.333 18.334 -181 23.001s-97.334 7 -134.001 7c-42 0 -78.667 -14.667 -110 -44c-32 -30 -49.667 -45 -53 -45c-10.667 0 -16 6 -16 18
c0 42 19.333 87.667 58 137c43.333 55.333 92 83 146 83c28 0 64.167 -2.66699 108.5 -8s97.5 -13.666 159.5 -24.999c127.333 -22 217.333 -34 270 -36l194 -3l-61 -142l-161 -8l-2 -29c-0.666992 -9.33301 -1 -18 -1 -26c0 -61.333 19.667 -103 59 -125
c18.667 -10.667 44.334 -18.334 77.001 -23.001s72.334 -7 119.001 -7h63c11.333 0 17 -11.667 17 -35v-79v0zM709.998 783.998c-10.667 -1.33301 -24.168 -3.83496 -40.501 -7.50195s-35.166 -8.16699 -56.499 -13.5c-43.333 -11.333 -78.833 -24.666 -106.5 -39.999
s-48.167 -32 -61.5 -50c-5.33301 12 -8 23.667 -8 35c0 31.333 20 58.666 60 81.999c-28 18 -42 45 -42 81c0 32.667 16.667 66.334 50 101.001c33.333 33.333 70 50 110 50c54 0 81 -23.333 81 -70c0 -5.33301 -1 -10 -3 -14s-4.66699 -8 -8 -12c-22 18 -49.667 27 -83 27
c-62 0 -93 -15.333 -93 -46c0 -9.33301 2.66699 -18.666 8 -27.999s12 -17.5 20 -24.5s17 -12.667 27 -17s19.667 -6.5 29 -6.5c50 0 98.667 11.333 146 34z" />
    <glyph glyph-name="uni0682.init" unicode="&#x682;" horiz-adv-x="1131" 
d="M1010 287l-67.002 -0.000976562c-29.333 0 -56.166 -1.83301 -80.499 -5.5s-47.166 -8.5 -68.499 -14.5c-25.333 -9.33301 -60.166 -24.333 -104.499 -45l-163.5 -80c-93.333 -48 -180.333 -83.667 -261 -107s-157.334 -35 -230.001 -35h-40c-24 0 -36 11.667 -36 35v79
c0 23.333 12 35 36 35h23c52 0 128 9 228 27c43.333 7.33301 102 24.833 176 52.5s165 65.834 273 114.501v9c-204.667 85.333 -337.334 128 -398.001 128c-43.333 0 -80 -14.667 -110 -44l-37 -31.5c-8.66699 -7.66699 -14.667 -11.5 -18 -11.5c-10 0 -15 6.33301 -15 19
c0 40 19.667 84.667 59 134c42 56 90 84 144 84c28.667 0 74.834 -11 138.501 -33s146.167 -55 247.5 -99c54 -23.333 111.833 -41.333 173.5 -54s128.167 -19.667 199.5 -21zM551.998 707.999l-103 104l101 100l103 -100zM550.998 932.999l-103 105l101 100l102 -100z" />
    <glyph glyph-name="uni0682.medi" unicode="&#x682;" horiz-adv-x="1137" 
d="M1159 35c0 -23.333 -5.66602 -34.998 -16.999 -34.998h-24c-204.667 0 -307 71.667 -307 215c0 48 3 85 9 111c-59.333 -24 -171.333 -86 -336 -186c-75.333 -47.333 -151.833 -82.5 -229.5 -105.5s-156.5 -34.5 -236.5 -34.5h-23c-24 0 -36 11.667 -36 35v79
c0 23.333 12 35 36 35h23c110.667 0 227 23.667 349 71c36.667 14 81.5 34.333 134.5 61l188.5 98v9c-116 31.333 -207.667 54.5 -275 69.5s-110.666 22.5 -129.999 22.5c-42.667 0 -79 -14.667 -109 -44l-38 -31.5c-9.33301 -7.66699 -15 -11.5 -17 -11.5
c-10 0 -15 6.33301 -15 19c0 40 19.333 84.667 58 134c42.667 56 91 84 145 84c25.333 0 53 -2.83301 83 -8.5s62.333 -14.834 97 -27.501l132.5 -44.5c33.667 -11 57.167 -18.167 70.5 -21.5c47.333 -12.667 96.166 -21.834 146.499 -27.501s103.166 -8.5 158.499 -8.5h90
l-61 -143c-39.333 6.66699 -89.333 4.66699 -150 -6l-1 -55c-5.33301 -92.667 62.667 -139 204 -139h63c11.333 0 17 -11.667 17 -35v-79v0zM585.001 714.002l-103 104l101 100l103 -100zM584.001 939.002l-103 105l101 100l102 -100z" />
    <glyph glyph-name="uni0682.fina" unicode="&#x682;" horiz-adv-x="1154" 
d="M1176 35c0 -23.333 -5.66895 -35.002 -17.002 -35.002h-80c-56.667 0 -104.334 5.16699 -143.001 15.5s-69.667 25.166 -93 44.499c-42.667 34.667 -64 94 -64 178c0 16 0.833008 33.333 2.5 52s3.83398 38.667 6.50098 60c-76 -18.667 -145.167 -41 -207.5 -67
s-118.5 -56.333 -168.5 -91c-134.667 -91.333 -202 -198.666 -202 -321.999c0 -207.333 177.333 -311 532 -311c36 0 74.333 2.16699 115 6.5s84 10.5 130 18.5l95 17.5c20.667 3.66699 30.334 6.16699 29.001 7.5c4 0 6 -3 6 -9c0 -25.333 -38 -59 -114 -101
c-96 -56 -205.667 -84 -329 -84c-370.667 0 -555 135.333 -553 406c2 256.667 169.667 447.334 503 572.001v9c-68 10.667 -128.333 18.334 -181 23.001s-97.334 7 -134.001 7c-42 0 -78.667 -14.667 -110 -44c-32 -30 -49.667 -45 -53 -45c-10.667 0 -16 6 -16 18
c0 42 19.333 87.667 58 137c43.333 55.333 92 83 146 83c28 0 64.167 -2.66699 108.5 -8s97.5 -13.666 159.5 -24.999c127.333 -22 217.333 -34 270 -36l194 -3l-61 -142l-161 -8l-2 -29c-0.666992 -9.33301 -1 -18 -1 -26c0 -61.333 19.667 -103 59 -125
c18.667 -10.667 44.334 -18.334 77.001 -23.001s72.334 -7 119.001 -7h63c11.333 0 17 -11.667 17 -35v-79v0zM592.998 672.998l-103 104l101 100l103 -100zM591.998 897.998l-103 105l101 100l102 -100z" />
    <glyph glyph-name="uni0685.init" unicode="&#x685;" horiz-adv-x="1131" 
d="M1010 287l-67.002 -0.000976562c-29.333 0 -56.166 -1.83301 -80.499 -5.5s-47.166 -8.5 -68.499 -14.5c-25.333 -9.33301 -60.166 -24.333 -104.499 -45l-163.5 -80c-93.333 -48 -180.333 -83.667 -261 -107s-157.334 -35 -230.001 -35h-40c-24 0 -36 11.667 -36 35v79
c0 23.333 12 35 36 35h23c52 0 128 9 228 27c43.333 7.33301 102 24.833 176 52.5s165 65.834 273 114.501v9c-204.667 85.333 -337.334 128 -398.001 128c-43.333 0 -80 -14.667 -110 -44l-37 -31.5c-8.66699 -7.66699 -14.667 -11.5 -18 -11.5c-10 0 -15 6.33301 -15 19
c0 40 19.667 84.667 59 134c42 56 90 84 144 84c28.667 0 74.834 -11 138.501 -33s146.167 -55 247.5 -99c54 -23.333 111.833 -41.333 173.5 -54s128.167 -19.667 199.5 -21zM615.998 953.999l-103 106l105 107l103 -107zM738.998 737.999l-105 106l105 106l103 -106z
M496.998 737.999l-105 106l105 106l103 -106z" />
    <glyph glyph-name="uni0685.medi" unicode="&#x685;" horiz-adv-x="1137" 
d="M1159 35c0 -23.333 -5.66602 -34.998 -16.999 -34.998h-24c-204.667 0 -307 71.667 -307 215c0 48 3 85 9 111c-59.333 -24 -171.333 -86 -336 -186c-75.333 -47.333 -151.833 -82.5 -229.5 -105.5s-156.5 -34.5 -236.5 -34.5h-23c-24 0 -36 11.667 -36 35v79
c0 23.333 12 35 36 35h23c110.667 0 227 23.667 349 71c36.667 14 81.5 34.333 134.5 61l188.5 98v9c-116 31.333 -207.667 54.5 -275 69.5s-110.666 22.5 -129.999 22.5c-42.667 0 -79 -14.667 -109 -44l-38 -31.5c-9.33301 -7.66699 -15 -11.5 -17 -11.5
c-10 0 -15 6.33301 -15 19c0 40 19.333 84.667 58 134c42.667 56 91 84 145 84c25.333 0 53 -2.83301 83 -8.5s62.333 -14.834 97 -27.501l132.5 -44.5c33.667 -11 57.167 -18.167 70.5 -21.5c47.333 -12.667 96.166 -21.834 146.499 -27.501s103.166 -8.5 158.499 -8.5h90
l-61 -143c-39.333 6.66699 -89.333 4.66699 -150 -6l-1 -55c-5.33301 -92.667 62.667 -139 204 -139h63c11.333 0 17 -11.667 17 -35v-79v0zM619.001 986.002l-103 106l105 107l103 -107zM742.001 770.002l-105 106l105 106l103 -106zM500.001 770.002l-105 106l105 106
l103 -106z" />
    <glyph glyph-name="uni0685.fina" unicode="&#x685;" horiz-adv-x="1154" 
d="M1176 35c0 -23.333 -5.66895 -35.002 -17.002 -35.002h-80c-56.667 0 -104.334 5.16699 -143.001 15.5s-69.667 25.166 -93 44.499c-42.667 34.667 -64 94 -64 178c0 16 0.833008 33.333 2.5 52s3.83398 38.667 6.50098 60c-76 -18.667 -145.167 -41 -207.5 -67
s-118.5 -56.333 -168.5 -91c-134.667 -91.333 -202 -198.666 -202 -321.999c0 -207.333 177.333 -311 532 -311c36 0 74.333 2.16699 115 6.5s84 10.5 130 18.5l95 17.5c20.667 3.66699 30.334 6.16699 29.001 7.5c4 0 6 -3 6 -9c0 -25.333 -38 -59 -114 -101
c-96 -56 -205.667 -84 -329 -84c-370.667 0 -555 135.333 -553 406c2 256.667 169.667 447.334 503 572.001v9c-68 10.667 -128.333 18.334 -181 23.001s-97.334 7 -134.001 7c-42 0 -78.667 -14.667 -110 -44c-32 -30 -49.667 -45 -53 -45c-10.667 0 -16 6 -16 18
c0 42 19.333 87.667 58 137c43.333 55.333 92 83 146 83c28 0 64.167 -2.66699 108.5 -8s97.5 -13.666 159.5 -24.999c127.333 -22 217.333 -34 270 -36l194 -3l-61 -142l-161 -8l-2 -29c-0.666992 -9.33301 -1 -18 -1 -26c0 -61.333 19.667 -103 59 -125
c18.667 -10.667 44.334 -18.334 77.001 -23.001s72.334 -7 119.001 -7h63c11.333 0 17 -11.667 17 -35v-79v0zM619.998 943.998l-103 106l105 107l103 -107zM742.998 727.998l-105 106l105 106l103 -106zM500.998 727.998l-105 106l105 106l103 -106z" />
    <glyph glyph-name="uni0689.fina" unicode="&#x689;" horiz-adv-x="956" 
d="M978 35c0 -23.333 -5.33398 -35 -16.001 -35h-25c-49.333 0 -89.666 11.667 -120.999 35c-29.333 20.667 -64.666 63.667 -105.999 129c-11.333 -30.667 -27.5 -57.167 -48.5 -79.5s-47.167 -39.166 -78.5 -50.499c-49.333 -22.667 -124 -34 -224 -34
c-164.667 0 -247 65.333 -247 196c0 45.333 6.66699 84.333 20 117c12 26 23.667 39 35 39c13.333 0 20 -8 20 -24c0 -2.66699 -0.5 -6.83398 -1.5 -12.501s-2 -12 -3 -19s-1.83301 -14 -2.5 -21s-1 -12.5 -1 -16.5c0 -73.333 66.667 -110 200 -110
c196.667 0 295 38 295 114c0 10 -6.33301 33.667 -19 71s-33 88.333 -61 153c-53.333 128.667 -80 198.667 -80 210l75 132c19.333 -58.667 45.333 -133.5 78 -224.5l119 -325.5c16 -38 34.167 -68 54.5 -90s43.166 -35.333 68.499 -40h53c10.667 0 16 -11.667 16 -35v-79v0
zM445.999 -64c0 -22.667 -4.5 -43.999 -13.5 -63.999s-21 -37.333 -36 -52s-32.333 -26.334 -52 -35.001s-40.5 -13 -62.5 -13c-72 0 -108 36.667 -108 110c0 57.333 16 106 48 146c26.667 42 58 63 94 63c17.333 0 33.833 -4 49.5 -12s29.5 -18.833 41.5 -32.5
s21.5 -30 28.5 -49s10.5 -39.5 10.5 -61.5zM399.999 -96.999c0 28.667 -12.001 52.667 -36.001 72c-20.667 18.667 -43 28 -67 28c-10 0 -19.667 -2.33301 -29 -7s-17.666 -12.334 -24.999 -23.001c-12.667 -15.333 -19 -32.666 -19 -51.999c0 -40.667 26 -61 78 -61
c44 0 76.667 14.333 98 43z" />
    <glyph glyph-name="uni068A.fina" unicode="&#x68a;" horiz-adv-x="956" 
d="M978 35c0 -23.333 -5.33398 -35 -16.001 -35h-25c-49.333 0 -89.666 11.667 -120.999 35c-29.333 20.667 -64.666 63.667 -105.999 129c-11.333 -30.667 -27.5 -57.167 -48.5 -79.5s-47.167 -39.166 -78.5 -50.499c-49.333 -22.667 -124 -34 -224 -34
c-164.667 0 -247 65.333 -247 196c0 45.333 6.66699 84.333 20 117c12 26 23.667 39 35 39c13.333 0 20 -8 20 -24c0 -2.66699 -0.5 -6.83398 -1.5 -12.501s-2 -12 -3 -19s-1.83301 -14 -2.5 -21s-1 -12.5 -1 -16.5c0 -73.333 66.667 -110 200 -110
c196.667 0 295 38 295 114c0 10 -6.33301 33.667 -19 71s-33 88.333 -61 153c-53.333 128.667 -80 198.667 -80 210l75 132c19.333 -58.667 45.333 -133.5 78 -224.5l119 -325.5c16 -38 34.167 -68 54.5 -90s43.166 -35.333 68.499 -40h53c10.667 0 16 -11.667 16 -35v-79v0
zM339.999 -370l-105 106l105 107l102 -107z" />
    <glyph glyph-name="uni068b.fina" unicode="&#x68b;" horiz-adv-x="956" 
d="M978 35c0 -23.333 -5.33398 -35 -16.001 -35h-25c-49.333 0 -89.666 11.667 -120.999 35c-29.333 20.667 -64.666 63.667 -105.999 129c-11.333 -30.667 -27.5 -57.167 -48.5 -79.5s-47.167 -39.166 -78.5 -50.499c-49.333 -22.667 -124 -34 -224 -34
c-164.667 0 -247 65.333 -247 196c0 45.333 6.66699 84.333 20 117c12 26 23.667 39 35 39c13.333 0 20 -8 20 -24c0 -2.66699 -0.5 -6.83398 -1.5 -12.501s-2 -12 -3 -19s-1.83301 -14 -2.5 -21s-1 -12.5 -1 -16.5c0 -73.333 66.667 -110 200 -110
c196.667 0 295 38 295 114c0 10 -6.33301 33.667 -19 71s-33 88.333 -61 153c-53.333 128.667 -80 198.667 -80 210l75 132c19.333 -58.667 45.333 -133.5 78 -224.5l119 -325.5c16 -38 34.167 -68 54.5 -90s43.166 -35.333 68.499 -40h53c10.667 0 16 -11.667 16 -35v-79v0
zM727.999 1051c0 -45.333 -31.002 -78.999 -93.002 -100.999c-51.333 -19.333 -123.333 -29 -216 -29c-43.333 0 -77.333 9.33301 -102 28c-20 14.667 -29.333 30.667 -28 48c0 3.33301 1.33301 5 4 5c2 0 6.66699 -2.66699 14 -8c14 -10 38 -15 72 -15
c20 0 35.333 3.33301 46 10c0 8 0.166992 18.167 0.5 30.5s0.5 27.5 0.5 45.5c0 35.333 -3 89.666 -9 162.999c-5.33301 69.333 -8.33301 104 -9 104c1.33301 4 4 8 8 12l33 32l22 -63c4 -12 6 -19 6 -21c0 -4 -7.66699 -3 -23 3c0 -2 0.166992 -9.16699 0.5 -21.5
l1.5 -53.5c1.33301 -19.333 2 -35.5 2 -48.5v-28.5c0 -28.667 -0.833008 -54.167 -2.5 -76.5s-4.5 -41.5 -8.5 -57.5l1 -2c44.667 44 82.334 74.333 113.001 91c28.667 17.333 59.334 26 92.001 26c22 0 40 -6.66699 54 -20s21 -31 21 -53zM694.997 1028
c0 12 -6.66602 22.6631 -19.999 31.9961c-14.667 10.667 -31 16 -49 16c-11.333 0 -23.333 -2.16699 -36 -6.5s-26.334 -10.166 -41.001 -17.499c-11.333 -5.33301 -22.5 -11.666 -33.5 -18.999s-22.167 -15.666 -33.5 -24.999c-19.333 -13.333 -29 -21.666 -29 -24.999
c0 -5.33301 7.33301 -8 22 -8c146.667 0 220 17.667 220 53zM371.998 -351.003l-105 106l105 107l102 -107z" />
    <glyph glyph-name="uni068F.fina" unicode="&#x68f;" horiz-adv-x="956" 
d="M978 35c0 -23.333 -5.33398 -35 -16.001 -35h-25c-49.333 0 -89.666 11.667 -120.999 35c-29.333 20.667 -64.666 63.667 -105.999 129c-11.333 -30.667 -27.5 -57.167 -48.5 -79.5s-47.167 -39.166 -78.5 -50.499c-49.333 -22.667 -124 -34 -224 -34
c-164.667 0 -247 65.333 -247 196c0 45.333 6.66699 84.333 20 117c12 26 23.667 39 35 39c13.333 0 20 -8 20 -24c0 -2.66699 -0.5 -6.83398 -1.5 -12.501s-2 -12 -3 -19s-1.83301 -14 -2.5 -21s-1 -12.5 -1 -16.5c0 -73.333 66.667 -110 200 -110
c196.667 0 295 38 295 114c0 10 -6.33301 33.667 -19 71s-33 88.333 -61 153c-53.333 128.667 -80 198.667 -80 210l75 132c19.333 -58.667 45.333 -133.5 78 -224.5l119 -325.5c16 -38 34.167 -68 54.5 -90s43.166 -35.333 68.499 -40h53c10.667 0 16 -11.667 16 -35v-79v0
zM540.999 1179l103 -106l-103 -107l-104 107zM665.999 1395l103 -107l-103 -105l-105 105zM423.999 1395l103 -107l-103 -105l-105 105z" />
    <glyph glyph-name="uni0690.fina" unicode="&#x690;" horiz-adv-x="956" 
d="M978 35c0 -23.333 -5.33398 -35 -16.001 -35h-25c-49.333 0 -89.666 11.667 -120.999 35c-29.333 20.667 -64.666 63.667 -105.999 129c-11.333 -30.667 -27.5 -57.167 -48.5 -79.5s-47.167 -39.166 -78.5 -50.499c-49.333 -22.667 -124 -34 -224 -34
c-164.667 0 -247 65.333 -247 196c0 45.333 6.66699 84.333 20 117c12 26 23.667 39 35 39c13.333 0 20 -8 20 -24c0 -2.66699 -0.5 -6.83398 -1.5 -12.501s-2 -12 -3 -19s-1.83301 -14 -2.5 -21s-1 -12.5 -1 -16.5c0 -73.333 66.667 -110 200 -110
c196.667 0 295 38 295 114c0 10 -6.33301 33.667 -19 71s-33 88.333 -61 153c-53.333 128.667 -80 198.667 -80 210l75 132c19.333 -58.667 45.333 -133.5 78 -224.5l119 -325.5c16 -38 34.167 -68 54.5 -90s43.166 -35.333 68.499 -40h53c10.667 0 16 -11.667 16 -35v-79v0
zM563.999 957l-103 106l105 107l103 -107zM682.999 1133l-104 106l104 106l103 -106zM440.999 1133l-104 106l104 106l103 -106zM559.999 1307l-103 107l105 106l102 -106z" />
    <glyph glyph-name="uni0692.fina" unicode="&#x692;" horiz-adv-x="731" 
d="M753 35c0 -23.333 -5.66699 -35.001 -17 -35.001h-24c-20 0 -41 2.33301 -63 7s-44.667 12.334 -68 23.001c6 -24.667 8 -53.334 6 -86.001c-2 -98 -40 -201.667 -114 -311c-68.667 -102.667 -127 -154 -175 -154c-198.667 0 -298 8.33301 -298 25
c0 8 20.667 16.667 62 26c44.667 11.333 90.5 30.5 137.5 57.5s95.5 61.833 145.5 104.5c114 100 171 190.333 171 271c0 64.667 -42.667 135.667 -128 213l69 141c13.333 -19.333 27.333 -37.166 42 -53.499s29.667 -31.5 45 -45.5c10.667 -10.667 22.667 -20 36 -28
s28 -15.667 44 -23c30 -12 53.667 -18 71 -18h41c11.333 0 17 -11.667 17 -35v-79v0zM616 720.999l-27.999 -29.0029c-10.667 -11.333 -22.334 -27.666 -35.001 -48.999s-26.167 -49.166 -40.5 -83.499s-28.833 -77.833 -43.5 -130.5l-25 -3
c-6 28.667 -14.5 57.167 -25.5 85.5s-23.5 55.166 -37.5 80.499s-29.167 48.5 -45.5 69.5s-33.5 38.5 -51.5 52.5l94 -7c6 -7.33301 12.167 -15.666 18.5 -24.999s12.833 -21.166 19.5 -35.499s13.334 -32 20.001 -53s13.667 -46.833 21 -77.5c2 12 4.83301 26.167 8.5 42.5
s8.16699 33.333 13.5 51s11.666 35.5 18.999 53.5s16 34.333 26 49z" />
    <glyph glyph-name="uni0693.fina" unicode="&#x693;" horiz-adv-x="731" 
d="M753 35c0 -23.333 -5.66699 -35.001 -17 -35.001h-24c-20 0 -41 2.33301 -63 7s-44.667 12.334 -68 23.001c6 -24.667 8 -53.334 6 -86.001c-2 -98 -40 -201.667 -114 -311c-68.667 -102.667 -127 -154 -175 -154c-198.667 0 -298 8.33301 -298 25
c0 8 20.667 16.667 62 26c44.667 11.333 90.5 30.5 137.5 57.5s95.5 61.833 145.5 104.5c114 100 171 190.333 171 271c0 64.667 -42.667 135.667 -128 213l69 141c13.333 -19.333 27.333 -37.166 42 -53.499s29.667 -31.5 45 -45.5c10.667 -10.667 22.667 -20 36 -28
s28 -15.667 44 -23c30 -12 53.667 -18 71 -18h41c11.333 0 17 -11.667 17 -35v-79v0zM322 -587.001c0 -22.667 -4.5 -43.999 -13.5 -63.999s-21 -37.333 -36 -52s-32.333 -26.334 -52 -35.001s-40.5 -13 -62.5 -13c-72 0 -108 36.667 -108 110c0 57.333 16 106 48 146
c26.667 42 58 63 94 63c17.333 0 33.833 -4 49.5 -12s29.5 -18.833 41.5 -32.5s21.5 -30 28.5 -49s10.5 -39.5 10.5 -61.5zM276 -620c0 28.667 -12.001 52.667 -36.001 72c-20.667 18.667 -43 28 -67 28c-10 0 -19.667 -2.33301 -29 -7s-17.666 -12.334 -24.999 -23.001
c-12.667 -15.333 -19 -32.666 -19 -51.999c0 -40.667 26 -61 78 -61c44 0 76.667 14.333 98 43z" />
    <glyph glyph-name="uni0694.fina" unicode="&#x694;" horiz-adv-x="731" 
d="M753 35c0 -23.333 -5.66699 -35.001 -17 -35.001h-24c-20 0 -41 2.33301 -63 7s-44.667 12.334 -68 23.001c6 -24.667 8 -53.334 6 -86.001c-2 -98 -40 -201.667 -114 -311c-68.667 -102.667 -127 -154 -175 -154c-198.667 0 -298 8.33301 -298 25
c0 8 20.667 16.667 62 26c44.667 11.333 90.5 30.5 137.5 57.5s95.5 61.833 145.5 104.5c114 100 171 190.333 171 271c0 64.667 -42.667 135.667 -128 213l69 141c13.333 -19.333 27.333 -37.166 42 -53.499s29.667 -31.5 45 -45.5c10.667 -10.667 22.667 -20 36 -28
s28 -15.667 44 -23c30 -12 53.667 -18 71 -18h41c11.333 0 17 -11.667 17 -35v-79v0zM186 -814.001l-105 106l105 107l102 -107z" />
    <glyph glyph-name="uni0695.fina" unicode="&#x695;" horiz-adv-x="731" 
d="M753 35c0 -23.333 -5.66699 -35.001 -17 -35.001h-24c-20 0 -41 2.33301 -63 7s-44.667 12.334 -68 23.001c6 -24.667 8 -53.334 6 -86.001c-2 -98 -40 -201.667 -114 -311c-68.667 -102.667 -127 -154 -175 -154c-198.667 0 -298 8.33301 -298 25
c0 8 20.667 16.667 62 26c44.667 11.333 90.5 30.5 137.5 57.5s95.5 61.833 145.5 104.5c114 100 171 190.333 171 271c0 64.667 -42.667 135.667 -128 213l69 141c13.333 -19.333 27.333 -37.166 42 -53.499s29.667 -31.5 45 -45.5c10.667 -10.667 22.667 -20 36 -28
s28 -15.667 44 -23c30 -12 53.667 -18 71 -18h41c11.333 0 17 -11.667 17 -35v-79v0zM414 -646.001l-27.999 -29.0029c-10.667 -11.333 -22.334 -27.666 -35.001 -48.999s-26.167 -49.166 -40.5 -83.499s-28.833 -77.833 -43.5 -130.5l-25 -3
c-6 28.667 -14.5 57.167 -25.5 85.5s-23.5 55.166 -37.5 80.499s-29.167 48.5 -45.5 69.5s-33.5 38.5 -51.5 52.5l94 -7c6 -7.33301 12.167 -15.666 18.5 -24.999s12.833 -21.166 19.5 -35.499s13.334 -32 20.001 -53s13.667 -46.833 21 -77.5c2 12 4.83301 26.167 8.5 42.5
s8.16699 33.333 13.5 51s11.666 35.5 18.999 53.5s16 34.333 26 49z" />
    <glyph glyph-name="uni0696.fina" unicode="&#x696;" horiz-adv-x="731" 
d="M753 35c0 -23.333 -5.66699 -35.001 -17 -35.001h-24c-20 0 -41 2.33301 -63 7s-44.667 12.334 -68 23.001c6 -24.667 8 -53.334 6 -86.001c-2 -98 -40 -201.667 -114 -311c-68.667 -102.667 -127 -154 -175 -154c-198.667 0 -298 8.33301 -298 25
c0 8 20.667 16.667 62 26c44.667 11.333 90.5 30.5 137.5 57.5s95.5 61.833 145.5 104.5c114 100 171 190.333 171 271c0 64.667 -42.667 135.667 -128 213l69 141c13.333 -19.333 27.333 -37.166 42 -53.499s29.667 -31.5 45 -45.5c10.667 -10.667 22.667 -20 36 -28
s28 -15.667 44 -23c30 -12 53.667 -18 71 -18h41c11.333 0 17 -11.667 17 -35v-79v0zM264 -817.001l-105 106l105 107l102 -107zM186 -322.001l-105 106l105 107l102 -107z" />
    <glyph glyph-name="uni0697.fina" unicode="&#x697;" horiz-adv-x="731" 
d="M753 35c0 -23.333 -5.66699 -35.001 -17 -35.001h-24c-20 0 -41 2.33301 -63 7s-44.667 12.334 -68 23.001c6 -24.667 8 -53.334 6 -86.001c-2 -98 -40 -201.667 -114 -311c-68.667 -102.667 -127 -154 -175 -154c-198.667 0 -298 8.33301 -298 25
c0 8 20.667 16.667 62 26c44.667 11.333 90.5 30.5 137.5 57.5s95.5 61.833 145.5 104.5c114 100 171 190.333 171 271c0 64.667 -42.667 135.667 -128 213l69 141c13.333 -19.333 27.333 -37.166 42 -53.499s29.667 -31.5 45 -45.5c10.667 -10.667 22.667 -20 36 -28
s28 -15.667 44 -23c30 -12 53.667 -18 71 -18h41c11.333 0 17 -11.667 17 -35v-79v0zM524 485.999l-103 104l101 100l103 -100zM282 485.999l-103 104l101 100l102 -100z" />
    <glyph glyph-name="uni0699.fina" unicode="&#x699;" horiz-adv-x="731" 
d="M753 35c0 -23.333 -5.66699 -35.001 -17 -35.001h-24c-20 0 -41 2.33301 -63 7s-44.667 12.334 -68 23.001c6 -24.667 8 -53.334 6 -86.001c-2 -98 -40 -201.667 -114 -311c-68.667 -102.667 -127 -154 -175 -154c-198.667 0 -298 8.33301 -298 25
c0 8 20.667 16.667 62 26c44.667 11.333 90.5 30.5 137.5 57.5s95.5 61.833 145.5 104.5c114 100 171 190.333 171 271c0 64.667 -42.667 135.667 -128 213l69 141c13.333 -19.333 27.333 -37.166 42 -53.499s29.667 -31.5 45 -45.5c10.667 -10.667 22.667 -20 36 -28
s28 -15.667 44 -23c30 -12 53.667 -18 71 -18h41c11.333 0 17 -11.667 17 -35v-79v0zM365 436.999l-103 106l105 107l103 -107zM484 612.999l-104 106l104 106l103 -106zM242 612.999l-104 106l104 106l103 -106zM361 786.999l-103 107l105 106l102 -106z" />
    <glyph glyph-name="uni069A.init" unicode="&#x69a;" horiz-adv-x="1174" 
d="M1090 272c0 -82 -19.666 -146.667 -58.999 -194c-44 -52 -107.333 -78 -190 -78c-76 0 -133.333 39.667 -172 119c-46.667 -79.333 -115 -119 -205 -119c-31.333 -0 -60.5 9.83301 -87.5 29.5s-53.167 49.5 -78.5 89.5c-59.333 -79.333 -152.666 -119 -279.999 -119h-23
c-24 0 -36 11.667 -36 35v79c0 23.333 12 35 36 35h50c151.333 0 227 59.667 227 179c0 17.333 8.33301 26 25 26c15.333 0 23 -8.66699 23 -26c0 -119.333 54.667 -179 164 -179c108.667 0 163 59.667 163 179c0 17.333 8 26 24 26s24 -8.66699 24 -26
c0 -46 9.33301 -84.667 28 -116c23.333 -42 60.666 -63 111.999 -63c25.333 0 48.666 1.83301 69.999 5.5s41 9.16699 59 16.5c32 16 48 31.667 48 47c0 55.333 -28.667 115 -86 179l70 151c62.667 -92 94 -184 94 -276zM650.001 551l-105 106l105 107l102 -107z
M649.001 -415l-105 106l105 107l102 -107z" />
    <glyph glyph-name="uni069A.medi" unicode="&#x69a;" horiz-adv-x="1238" 
d="M1259 35c0 -23.333 -5.33203 -34.999 -15.999 -34.999h-25c-90.667 0 -158.667 38 -204 114c-25.333 -38.667 -52.5 -67.334 -81.5 -86.001s-59.5 -28 -91.5 -28c-76 0 -133.333 39.667 -172 119c-46.667 -79.333 -115 -119 -205 -119
c-31.333 -0 -60.5 9.83301 -87.5 29.5s-53.167 49.5 -78.5 89.5c-59.333 -79.333 -153.333 -119 -282 -119h-21c-24 0 -36 11.667 -36 35v79c0 23.333 12 35 36 35h50c151.333 0 227 59.667 227 179c0 17.333 8.33301 26 25 26c15.333 0 23 -8.66699 23 -26
c0 -119.333 54.667 -179 164 -179c108.667 0 163 59.667 163 179c0 17.333 8 26 24 26s24 -8.66699 24 -26c0 -46 9.33301 -84.667 28 -116c23.333 -42 60.666 -63 111.999 -63c106 0 159 59.667 159 179c0 17.333 7.66699 26 23 26c16.667 0 25 -8.66699 25 -26
c0 -119.333 59.333 -179 178 -179h23c10.667 0 16 -11.667 16 -35v-79v0zM661.001 535.001l-105 106l105 107l102 -107zM659.001 -418.999l-105 106l105 107l102 -107z" />
    <glyph glyph-name="uni069A.fina" unicode="&#x69a;" horiz-adv-x="1924" 
d="M1946 35c0 -23.333 -5.66992 -35.002 -17.0029 -35.002h-24c-91.333 0 -159.666 38 -204.999 114c-47.333 -76 -105.333 -114 -174 -114c-75.333 0 -132.333 39.667 -171 119c-45.333 -79.333 -113.666 -119 -204.999 -119c-31.333 0 -56.666 4.33301 -75.999 13
c2 -22 3 -56 3 -102c0 -168 -76.333 -290 -229 -366c-103.333 -52 -227 -78 -371 -78c-48 0 -92.667 6 -134 18s-79.333 30.667 -114 56c-42 31.333 -73.5 68.5 -94.5 111.5s-31.5 93.167 -31.5 150.5c0 42.667 4.16699 84.334 12.5 125.001s21.5 80 39.5 118
c32 70 59.667 105 83 105c15.333 0 23 -7 23 -21c0 2 -11.667 -23.333 -35 -76c-22.667 -51.333 -34 -105.333 -34 -162c0 -176.667 116.667 -265 350 -265c48.667 0 97 4.66699 145 14s96 22.666 144 39.999c122 46.667 183 109 183 187c0 46 -9.33301 90 -28 132
c-20.667 46 -60.667 108.667 -120 188l77 144c18.667 -34 36.5 -62.667 53.5 -86s34.333 -42.166 52 -56.499s36.334 -24.666 56.001 -30.999s41.5 -9.5 65.5 -9.5c108 0 162 59.667 162 179c0 17.333 8.33301 26 25 26c16 0 24 -8.66699 24 -26
c0 -46 9.33301 -84.667 28 -116c23.333 -42 60.666 -63 111.999 -63c105.333 0 158 59.667 158 179c0 17.333 8.33301 26 25 26c15.333 0 23 -8.66699 23 -26c0 -119.333 59.333 -179 178 -179h24c11.333 0 17 -11.667 17 -35v-79v0zM1339 545.998l-105 106l105 107
l102 -107zM1363 -437.002l-105 106l105 107l102 -107z" />
    <glyph glyph-name="uni069B.init" unicode="&#x69b;" horiz-adv-x="1174" 
d="M1090 272c0 -82 -19.666 -146.667 -58.999 -194c-44 -52 -107.333 -78 -190 -78c-76 0 -133.333 39.667 -172 119c-46.667 -79.333 -115 -119 -205 -119c-31.333 -0 -60.5 9.83301 -87.5 29.5s-53.167 49.5 -78.5 89.5c-59.333 -79.333 -152.666 -119 -279.999 -119h-23
c-24 0 -36 11.667 -36 35v79c0 23.333 12 35 36 35h50c151.333 0 227 59.667 227 179c0 17.333 8.33301 26 25 26c15.333 0 23 -8.66699 23 -26c0 -119.333 54.667 -179 164 -179c108.667 0 163 59.667 163 179c0 17.333 8 26 24 26s24 -8.66699 24 -26
c0 -46 9.33301 -84.667 28 -116c23.333 -42 60.666 -63 111.999 -63c25.333 0 48.666 1.83301 69.999 5.5s41 9.16699 59 16.5c32 16 48 31.667 48 47c0 55.333 -28.667 115 -86 179l70 151c62.667 -92 94 -184 94 -276zM650.001 -435l103 -106l-103 -107l-104 107z
M775.001 -219l103 -107l-103 -105l-105 105zM533.001 -219l103 -107l-103 -105l-105 105z" />
    <glyph glyph-name="uni069B.medi" unicode="&#x69b;" horiz-adv-x="1238" 
d="M1259 35c0 -23.333 -5.33203 -34.999 -15.999 -34.999h-25c-90.667 0 -158.667 38 -204 114c-25.333 -38.667 -52.5 -67.334 -81.5 -86.001s-59.5 -28 -91.5 -28c-76 0 -133.333 39.667 -172 119c-46.667 -79.333 -115 -119 -205 -119
c-31.333 -0 -60.5 9.83301 -87.5 29.5s-53.167 49.5 -78.5 89.5c-59.333 -79.333 -153.333 -119 -282 -119h-21c-24 0 -36 11.667 -36 35v79c0 23.333 12 35 36 35h50c151.333 0 227 59.667 227 179c0 17.333 8.33301 26 25 26c15.333 0 23 -8.66699 23 -26
c0 -119.333 54.667 -179 164 -179c108.667 0 163 59.667 163 179c0 17.333 8 26 24 26s24 -8.66699 24 -26c0 -46 9.33301 -84.667 28 -116c23.333 -42 60.666 -63 111.999 -63c106 0 159 59.667 159 179c0 17.333 7.66699 26 23 26c16.667 0 25 -8.66699 25 -26
c0 -119.333 59.333 -179 178 -179h23c10.667 0 16 -11.667 16 -35v-79v0zM613.001 -420.999l103 -106l-103 -107l-104 107zM738.001 -204.999l103 -107l-103 -105l-105 105zM496.001 -204.999l103 -107l-103 -105l-105 105z" />
    <glyph glyph-name="uni069B.fina" unicode="&#x69b;" horiz-adv-x="1924" 
d="M1946 35c0 -23.333 -5.66992 -35.002 -17.0029 -35.002h-24c-91.333 0 -159.666 38 -204.999 114c-47.333 -76 -105.333 -114 -174 -114c-75.333 0 -132.333 39.667 -171 119c-45.333 -79.333 -113.666 -119 -204.999 -119c-31.333 0 -56.666 4.33301 -75.999 13
c2 -22 3 -56 3 -102c0 -168 -76.333 -290 -229 -366c-103.333 -52 -227 -78 -371 -78c-48 0 -92.667 6 -134 18s-79.333 30.667 -114 56c-42 31.333 -73.5 68.5 -94.5 111.5s-31.5 93.167 -31.5 150.5c0 42.667 4.16699 84.334 12.5 125.001s21.5 80 39.5 118
c32 70 59.667 105 83 105c15.333 0 23 -7 23 -21c0 2 -11.667 -23.333 -35 -76c-22.667 -51.333 -34 -105.333 -34 -162c0 -176.667 116.667 -265 350 -265c48.667 0 97 4.66699 145 14s96 22.666 144 39.999c122 46.667 183 109 183 187c0 46 -9.33301 90 -28 132
c-20.667 46 -60.667 108.667 -120 188l77 144c18.667 -34 36.5 -62.667 53.5 -86s34.333 -42.166 52 -56.499s36.334 -24.666 56.001 -30.999s41.5 -9.5 65.5 -9.5c108 0 162 59.667 162 179c0 17.333 8.33301 26 25 26c16 0 24 -8.66699 24 -26
c0 -46 9.33301 -84.667 28 -116c23.333 -42 60.666 -63 111.999 -63c105.333 0 158 59.667 158 179c0 17.333 8.33301 26 25 26c15.333 0 23 -8.66699 23 -26c0 -119.333 59.333 -179 178 -179h24c11.333 0 17 -11.667 17 -35v-79v0zM1396 -435.002l103 -106l-103 -107
l-104 107zM1521 -219.002l103 -107l-103 -105l-105 105zM1279 -219.002l103 -107l-103 -105l-105 105z" />
    <glyph glyph-name="uni069C.init" unicode="&#x69c;" horiz-adv-x="1174" 
d="M1090 272c0 -82 -19.666 -146.667 -58.999 -194c-44 -52 -107.333 -78 -190 -78c-76 0 -133.333 39.667 -172 119c-46.667 -79.333 -115 -119 -205 -119c-31.333 -0 -60.5 9.83301 -87.5 29.5s-53.167 49.5 -78.5 89.5c-59.333 -79.333 -152.666 -119 -279.999 -119h-23
c-24 0 -36 11.667 -36 35v79c0 23.333 12 35 36 35h50c151.333 0 227 59.667 227 179c0 17.333 8.33301 26 25 26c15.333 0 23 -8.66699 23 -26c0 -119.333 54.667 -179 164 -179c108.667 0 163 59.667 163 179c0 17.333 8 26 24 26s24 -8.66699 24 -26
c0 -46 9.33301 -84.667 28 -116c23.333 -42 60.666 -63 111.999 -63c25.333 0 48.666 1.83301 69.999 5.5s41 9.16699 59 16.5c32 16 48 31.667 48 47c0 55.333 -28.667 115 -86 179l70 151c62.667 -92 94 -184 94 -276zM650.001 -411l103 -106l-103 -107l-104 107z
M775.001 -195l103 -107l-103 -105l-105 105zM533.001 -195l103 -107l-103 -105l-105 105zM644.001 768l-103 106l105 107l103 -107zM767.001 552l-105 106l105 106l103 -106zM525.001 552l-105 106l105 106l103 -106z" />
    <glyph glyph-name="uni069C.medi" unicode="&#x69c;" horiz-adv-x="1238" 
d="M1259 35c0 -23.333 -5.33203 -34.999 -15.999 -34.999h-25c-90.667 0 -158.667 38 -204 114c-25.333 -38.667 -52.5 -67.334 -81.5 -86.001s-59.5 -28 -91.5 -28c-76 0 -133.333 39.667 -172 119c-46.667 -79.333 -115 -119 -205 -119
c-31.333 -0 -60.5 9.83301 -87.5 29.5s-53.167 49.5 -78.5 89.5c-59.333 -79.333 -153.333 -119 -282 -119h-21c-24 0 -36 11.667 -36 35v79c0 23.333 12 35 36 35h50c151.333 0 227 59.667 227 179c0 17.333 8.33301 26 25 26c15.333 0 23 -8.66699 23 -26
c0 -119.333 54.667 -179 164 -179c108.667 0 163 59.667 163 179c0 17.333 8 26 24 26s24 -8.66699 24 -26c0 -46 9.33301 -84.667 28 -116c23.333 -42 60.666 -63 111.999 -63c106 0 159 59.667 159 179c0 17.333 7.66699 26 23 26c16.667 0 25 -8.66699 25 -26
c0 -119.333 59.333 -179 178 -179h23c10.667 0 16 -11.667 16 -35v-79v0zM661.001 -410.999l103 -106l-103 -107l-104 107zM786.001 -194.999l103 -107l-103 -105l-105 105zM544.001 -194.999l103 -107l-103 -105l-105 105zM661.001 758.001l-103 106l105 107l103 -107z
M784.001 542.001l-105 106l105 106l103 -106zM542.001 542.001l-105 106l105 106l103 -106z" />
    <glyph glyph-name="uni069C.fina" unicode="&#x69c;" horiz-adv-x="1924" 
d="M1946 35c0 -23.333 -5.66992 -35.002 -17.0029 -35.002h-24c-91.333 0 -159.666 38 -204.999 114c-47.333 -76 -105.333 -114 -174 -114c-75.333 0 -132.333 39.667 -171 119c-45.333 -79.333 -113.666 -119 -204.999 -119c-31.333 0 -56.666 4.33301 -75.999 13
c2 -22 3 -56 3 -102c0 -168 -76.333 -290 -229 -366c-103.333 -52 -227 -78 -371 -78c-48 0 -92.667 6 -134 18s-79.333 30.667 -114 56c-42 31.333 -73.5 68.5 -94.5 111.5s-31.5 93.167 -31.5 150.5c0 42.667 4.16699 84.334 12.5 125.001s21.5 80 39.5 118
c32 70 59.667 105 83 105c15.333 0 23 -7 23 -21c0 2 -11.667 -23.333 -35 -76c-22.667 -51.333 -34 -105.333 -34 -162c0 -176.667 116.667 -265 350 -265c48.667 0 97 4.66699 145 14s96 22.666 144 39.999c122 46.667 183 109 183 187c0 46 -9.33301 90 -28 132
c-20.667 46 -60.667 108.667 -120 188l77 144c18.667 -34 36.5 -62.667 53.5 -86s34.333 -42.166 52 -56.499s36.334 -24.666 56.001 -30.999s41.5 -9.5 65.5 -9.5c108 0 162 59.667 162 179c0 17.333 8.33301 26 25 26c16 0 24 -8.66699 24 -26
c0 -46 9.33301 -84.667 28 -116c23.333 -42 60.666 -63 111.999 -63c105.333 0 158 59.667 158 179c0 17.333 8.33301 26 25 26c15.333 0 23 -8.66699 23 -26c0 -119.333 59.333 -179 178 -179h24c11.333 0 17 -11.667 17 -35v-79v0zM1373 -418.002l103 -106l-103 -107
l-104 107zM1498 -202.002l103 -107l-103 -105l-105 105zM1256 -202.002l103 -107l-103 -105l-105 105zM1376 779.998l-103 106l105 107l103 -107zM1499 563.998l-105 106l105 106l103 -106zM1257 563.998l-105 106l105 106l103 -106z" />
    <glyph glyph-name="uni069D.init" unicode="&#x69d;" horiz-adv-x="1336" 
d="M1252 347c0 -120.667 -66.335 -211.332 -199.002 -271.999c-110 -50 -249.333 -75 -418 -75c-57.333 0 -105.666 1.83301 -144.999 5.5s-69.666 9.5 -90.999 17.5c-43.333 16 -77 48 -101 96c-59.333 -79.333 -152.666 -119 -279.999 -119h-23c-24 0 -36 11.667 -36 35
v79c0 23.333 12 35 36 35h50c151.333 0 227 59.667 227 179c0 17.333 8.33301 26 25 26c17.333 0 25 -8.66699 23 -26c-2 -48.667 9.33301 -88.667 34 -120c11.333 -14.667 24 -26.167 38 -34.5s30 -13.833 48 -16.5c78.667 77.333 146.667 141.166 204 191.499
s104 87.5 140 111.5c88 60 175.333 90 262 90c30 0 57.667 -4.83301 83 -14.5s47.166 -23.5 65.499 -41.5s32.5 -39.5 42.5 -64.5s15 -52.5 15 -82.5zM1163 285.002c0 32.667 -19.332 62 -57.999 88c-39.333 27.333 -84 41 -134 41c-76.667 0 -177.334 -49 -302.001 -147
c-82 -66 -123 -101.667 -123 -107c0 -7.33301 22.333 -11 67 -11c366.667 0 550 45.333 550 136zM630.999 -415.998l-103 104l101 100l103 -100zM388.999 -415.998l-103 104l101 100l102 -100z" />
    <glyph glyph-name="uni069D.medi" unicode="&#x69d;" horiz-adv-x="1346" 
d="M1368 35c0 -23.333 -5.66699 -34.999 -17 -34.999h-24c-82 0 -159 7 -231 21c-29.333 5.33301 -55 9.33301 -77 12s-41 4 -57 4c-3.33301 0 -14.333 -1.33301 -33 -4s-46.334 -7.66699 -83.001 -15c-36 -6.66699 -71.5 -11.334 -106.5 -14.001s-69.833 -4 -104.5 -4
c-57.333 -0 -105.666 1.83301 -144.999 5.5s-69.666 9.5 -90.999 17.5c-43.333 16 -77 48 -101 96c-59.333 -79.333 -152.666 -119 -279.999 -119h-23c-24 0 -36 11.667 -36 35v79c0 23.333 12 35 36 35h50c151.333 0 227 59.667 227 179c0 17.333 8.33301 26 25 26
c17.333 0 25 -8.66699 23 -26c-2 -48.667 9.33301 -88.667 34 -120c11.333 -14.667 24 -26.167 38 -34.5s30 -13.833 48 -16.5c78.667 77.333 146.667 141.166 204 191.499s104 87.5 140 111.5c88 60 175.333 90 262 90c30 0 57.667 -4.83301 83 -14.5
s47.166 -23.5 65.499 -41.5s32.5 -39.5 42.5 -64.5s15 -52.5 15 -82.5c0 -57.333 -30.333 -125.666 -91 -204.999c23.333 4.66699 50.666 7 81.999 7h108c11.333 0 17 -11.667 17 -35v-79zM1163 285.001c0 32.667 -19.332 62 -57.999 88c-39.333 27.333 -84 41 -134 41
c-76.667 0 -177.334 -49 -302.001 -147c-82 -66 -123 -101.667 -123 -107c0 -7.33301 22.333 -11 67 -11c366.667 0 550 45.333 550 136zM663.001 -430.999l-103 104l101 100l103 -100zM421.001 -430.999l-103 104l101 100l102 -100z" />
    <glyph glyph-name="uni069D.fina" unicode="&#x69d;" horiz-adv-x="1977" 
d="M2000 35c0 -23.333 -5.66309 -35.001 -16.9961 -35.001h-25c-81.333 0 -158.333 7 -231 21c-28.667 5.33301 -54.167 9.33301 -76.5 12s-41.5 4 -57.5 4c-2.66699 0 -13.334 -1.33301 -32.001 -4s-46.334 -7.66699 -83.001 -15
c-36 -6.66699 -71.5 -11.334 -106.5 -14.001s-69.5 -4 -103.5 -4c-38 0 -73.167 2.83301 -105.5 8.5s-61.833 14.167 -88.5 25.5c2 -29.333 3 -70.333 3 -123c0 -168 -76.333 -290 -229 -366c-103.333 -52 -227 -78 -371 -78c-48 0 -92.667 6 -134 18
s-79.333 30.667 -114 56c-42 31.333 -73.5 68.5 -94.5 111.5s-31.5 93.167 -31.5 150.5c0 42.667 4.16699 84.334 12.5 125.001s21.5 80 39.5 118c32 70 59.667 105 83 105c15.333 0 23 -7 23 -21c0 2 -11.667 -23.333 -35 -76c-22.667 -51.333 -34 -105.333 -34 -162
c0 -176.667 116.667 -265 350 -265c48.667 0 97 4.66699 145 14s96 22.666 144 39.999c122 46.667 183 109 183 187c0 39.333 -12.167 85.333 -36.5 138s-61.5 113.334 -111.5 182.001l77 144c35.333 -56.667 84.333 -104 147 -142c133.333 131.333 244 224 332 278
c45.333 26.667 89.166 47 131.499 61s83.5 21 123.5 21c30 0 57.833 -4.83301 83.5 -14.5s47.667 -23.5 66 -41.5s32.666 -39.5 42.999 -64.5s15.5 -52.5 15.5 -82.5c0 -57.333 -30.667 -125.666 -92 -204.999c12 2.66699 24.833 4.5 38.5 5.5s28.167 1.5 43.5 1.5h108
c11.333 0 17 -11.667 17 -35v-79zM1795 284.999c0 32.667 -18.667 62 -56 88c-39.333 27.333 -84.666 41 -135.999 41c-76.667 0 -177.334 -49 -302.001 -147c-82 -65.333 -123 -101 -123 -107c0 -7.33301 22.333 -11 67 -11c366.667 0 550 45.333 550 136zM1544 -414.001
l-103 104l101 100l103 -100zM1302 -414.001l-103 104l101 100l102 -100z" />
    <glyph glyph-name="uni069E.init" unicode="&#x69e;" horiz-adv-x="1336" 
d="M1252 347c0 -120.667 -66.335 -211.332 -199.002 -271.999c-110 -50 -249.333 -75 -418 -75c-57.333 0 -105.666 1.83301 -144.999 5.5s-69.666 9.5 -90.999 17.5c-43.333 16 -77 48 -101 96c-59.333 -79.333 -152.666 -119 -279.999 -119h-23c-24 0 -36 11.667 -36 35
v79c0 23.333 12 35 36 35h50c151.333 0 227 59.667 227 179c0 17.333 8.33301 26 25 26c17.333 0 25 -8.66699 23 -26c-2 -48.667 9.33301 -88.667 34 -120c11.333 -14.667 24 -26.167 38 -34.5s30 -13.833 48 -16.5c78.667 77.333 146.667 141.166 204 191.499
s104 87.5 140 111.5c88 60 175.333 90 262 90c30 0 57.667 -4.83301 83 -14.5s47.166 -23.5 65.499 -41.5s32.5 -39.5 42.5 -64.5s15 -52.5 15 -82.5zM1163 285.002c0 32.667 -19.332 62 -57.999 88c-39.333 27.333 -84 41 -134 41c-76.667 0 -177.334 -49 -302.001 -147
c-82 -66 -123 -101.667 -123 -107c0 -7.33301 22.333 -11 67 -11c366.667 0 550 45.333 550 136zM506.999 864.002l-103 106l105 107l103 -107zM629.999 648.002l-105 106l105 106l103 -106zM387.999 648.002l-105 106l105 106l103 -106z" />
    <glyph glyph-name="uni069E.medi" unicode="&#x69e;" horiz-adv-x="1346" 
d="M1368 35c0 -23.333 -5.66699 -34.999 -17 -34.999h-24c-82 0 -159 7 -231 21c-29.333 5.33301 -55 9.33301 -77 12s-41 4 -57 4c-3.33301 0 -14.333 -1.33301 -33 -4s-46.334 -7.66699 -83.001 -15c-36 -6.66699 -71.5 -11.334 -106.5 -14.001s-69.833 -4 -104.5 -4
c-57.333 -0 -105.666 1.83301 -144.999 5.5s-69.666 9.5 -90.999 17.5c-43.333 16 -77 48 -101 96c-59.333 -79.333 -152.666 -119 -279.999 -119h-23c-24 0 -36 11.667 -36 35v79c0 23.333 12 35 36 35h50c151.333 0 227 59.667 227 179c0 17.333 8.33301 26 25 26
c17.333 0 25 -8.66699 23 -26c-2 -48.667 9.33301 -88.667 34 -120c11.333 -14.667 24 -26.167 38 -34.5s30 -13.833 48 -16.5c78.667 77.333 146.667 141.166 204 191.499s104 87.5 140 111.5c88 60 175.333 90 262 90c30 0 57.667 -4.83301 83 -14.5
s47.166 -23.5 65.499 -41.5s32.5 -39.5 42.5 -64.5s15 -52.5 15 -82.5c0 -57.333 -30.333 -125.666 -91 -204.999c23.333 4.66699 50.666 7 81.999 7h108c11.333 0 17 -11.667 17 -35v-79zM1163 285.001c0 32.667 -19.332 62 -57.999 88c-39.333 27.333 -84 41 -134 41
c-76.667 0 -177.334 -49 -302.001 -147c-82 -66 -123 -101.667 -123 -107c0 -7.33301 22.333 -11 67 -11c366.667 0 550 45.333 550 136zM509.001 873.001l-103 106l105 107l103 -107zM632.001 657.001l-105 106l105 106l103 -106zM390.001 657.001l-105 106l105 106
l103 -106z" />
    <glyph glyph-name="uni069E.fina" unicode="&#x69e;" horiz-adv-x="1977" 
d="M2000 35c0 -23.333 -5.66309 -35.001 -16.9961 -35.001h-25c-81.333 0 -158.333 7 -231 21c-28.667 5.33301 -54.167 9.33301 -76.5 12s-41.5 4 -57.5 4c-2.66699 0 -13.334 -1.33301 -32.001 -4s-46.334 -7.66699 -83.001 -15
c-36 -6.66699 -71.5 -11.334 -106.5 -14.001s-69.5 -4 -103.5 -4c-38 0 -73.167 2.83301 -105.5 8.5s-61.833 14.167 -88.5 25.5c2 -29.333 3 -70.333 3 -123c0 -168 -76.333 -290 -229 -366c-103.333 -52 -227 -78 -371 -78c-48 0 -92.667 6 -134 18
s-79.333 30.667 -114 56c-42 31.333 -73.5 68.5 -94.5 111.5s-31.5 93.167 -31.5 150.5c0 42.667 4.16699 84.334 12.5 125.001s21.5 80 39.5 118c32 70 59.667 105 83 105c15.333 0 23 -7 23 -21c0 2 -11.667 -23.333 -35 -76c-22.667 -51.333 -34 -105.333 -34 -162
c0 -176.667 116.667 -265 350 -265c48.667 0 97 4.66699 145 14s96 22.666 144 39.999c122 46.667 183 109 183 187c0 39.333 -12.167 85.333 -36.5 138s-61.5 113.334 -111.5 182.001l77 144c35.333 -56.667 84.333 -104 147 -142c133.333 131.333 244 224 332 278
c45.333 26.667 89.166 47 131.499 61s83.5 21 123.5 21c30 0 57.833 -4.83301 83.5 -14.5s47.667 -23.5 66 -41.5s32.666 -39.5 42.999 -64.5s15.5 -52.5 15.5 -82.5c0 -57.333 -30.667 -125.666 -92 -204.999c12 2.66699 24.833 4.5 38.5 5.5s28.167 1.5 43.5 1.5h108
c11.333 0 17 -11.667 17 -35v-79zM1795 284.999c0 32.667 -18.667 62 -56 88c-39.333 27.333 -84.666 41 -135.999 41c-76.667 0 -177.334 -49 -302.001 -147c-82 -65.333 -123 -101 -123 -107c0 -7.33301 22.333 -11 67 -11c366.667 0 550 45.333 550 136zM1191 849.999
l-103 106l105 107l103 -107zM1314 633.999l-105 106l105 106l103 -106zM1072 633.999l-105 106l105 106l103 -106z" />
    <glyph glyph-name="uni069F.medi" unicode="&#x69f;" horiz-adv-x="1400" 
d="M1422 35c0 -23.333 -5.66797 -34.999 -17.001 -34.999h-24c-82 0 -159 7 -231 21c-60.667 12.667 -105.334 18 -134.001 16l-216 -26c-144 -16 -259.667 -24 -347 -24c-119.333 0 -213.333 26.333 -282 79c-54 40 -80 83.667 -78 131c0 8.66699 3.33301 13 10 13
s20.334 -7.33301 41.001 -22c36 -25.333 102.333 -39 199 -41c52.667 0 94.334 9.66699 125.001 29c1.33301 21.333 2.5 49.166 3.5 83.499s1.5 76.5 1.5 126.5c0 49.333 -2.16699 111.5 -6.5 186.5s-10.5 163.833 -18.5 266.5c-8 94 -13.833 165 -17.5 213
s-6.16699 72.667 -7.5 74c2 8 9.33301 18.667 22 32l92 87l59 -173c6 -16 10.333 -29 13 -39s4 -16.333 4 -19c0 -10.667 -21 -8.33398 -63 6.99902c0 -4.66699 0.333008 -24.167 1 -58.5s2.66699 -83.833 6 -148.5c2 -54 3.33301 -98.667 4 -134s1 -61.333 1 -78
c0 -80 -2.66699 -150.667 -8 -212s-13 -114.333 -23 -159l4 -4c62.667 61.333 119.834 112.833 171.501 154.5s98.167 74.167 139.5 97.5c82.667 47.333 167 71 253 71c30 0 57.833 -4.83301 83.5 -14.5s47.667 -23.5 66 -41.5s32.666 -39.5 42.999 -64.5
s15.5 -52.5 15.5 -82.5c0 -57.333 -30.667 -125.666 -92 -204.999c12 2.66699 25 4.5 39 5.5s28.333 1.5 43 1.5h108c11.333 0 17 -11.667 17 -35v-79zM1217 285.001c0 32.667 -18.668 62.001 -56.001 88.001c-39.333 27.333 -84.666 41 -135.999 41
c-60 0 -130.667 -21.333 -212 -64c-31.333 -16 -62.5 -34 -93.5 -54s-62.167 -42.333 -93.5 -67c-53.333 -40.667 -80 -64.334 -80 -71.001c0 -14.667 20 -22 60 -22c407.333 0 611 49.667 611 149zM937.998 999.002l-103 106l105 107l103 -107zM1061 783.002l-105 106
l105 106l103 -106zM818.998 783.002l-105 106l105 106l103 -106z" />
    <glyph glyph-name="uni06A0.init" unicode="&#x6a0;" horiz-adv-x="827" 
d="M723 158c-309.333 -105.333 -544.334 -158.001 -705.001 -158.001h-23c-24 0 -36 11.667 -36 35v79c0 23.333 12 35 36 35h23c19.333 0 46.333 1.5 81 4.5s77.334 7.16699 128.001 12.5v10c-72 42 -108 102 -108 180c0 70.667 33 142.667 99 216
c70 80 149.667 120 239 120c48 0 95.667 -20.667 143 -62c48 -38 72 -78.333 72 -121c0 -2.66699 -1.66699 -4 -5 -4l-75 21c-48.667 14.667 -95.667 22 -141 22c-50 0 -97.667 -11.333 -143 -34c-56 -24.667 -84 -56.667 -84 -96c0 -41.333 29.667 -85.666 89 -132.999
c55.333 -44.667 103.333 -67 144 -67c58.667 0 164.667 26.333 318 79zM392.999 1037l-103 106l105 107l103 -107zM515.999 820.999l-105 106l105 106l103 -106zM273.999 820.999l-105 106l105 106l103 -106z" />
    <glyph glyph-name="uni06A0.medi" unicode="&#x6a0;" horiz-adv-x="720" 
d="M742 35c0 -23.333 -5.66797 -35.002 -17.001 -35.002h-24c-124 0 -228.333 41 -313 123c-91.333 -82 -214.666 -123 -369.999 -123h-23c-24 0 -36 11.667 -36 35v79c0 23.333 12 35 36 35h23c60 0 124 8 192 24c68.667 16.667 103 33 103 49
c0 26.667 -39 67.667 -117 123c-4 2.66699 -9 5.33398 -15 8.00098s-13.667 5.33398 -23 8.00098c0 47.333 16.667 86 50 116c40.667 35.333 97.667 53 171 53c142 -2 213 -46.333 213 -133c0 -24 -19.667 -58.667 -59 -104c-40 -45.333 -60 -70.333 -60 -75
c0 -14 27.333 -29.667 82 -47c25.333 -7.33301 47 -12.833 65 -16.5s32 -5.5 42 -5.5h63c11.333 0 17 -11.667 17 -35v-79v0zM352.999 898.998l-103 106l105 107l103 -107zM475.999 682.998l-105 106l105 106l103 -106zM233.999 682.998l-105 106l105 106l103 -106z" />
    <glyph glyph-name="uni06A0.fina" unicode="&#x6a0;" horiz-adv-x="1085" 
d="M1107 35c0 -23.333 -5.66895 -35.002 -17.002 -35.002h-24c-137.333 0 -249 21.333 -335 64c-32 15.333 -65.333 37 -100 65s-71.334 62 -110.001 102c-219.333 -103.333 -329 -223.666 -329 -360.999c0 -110 50.333 -192.333 151 -247
c81.333 -42.667 189.333 -64 324 -64c46 0 90.333 1.83301 133 5.5s84.334 9.5 125.001 17.5c73.333 16 110 24.333 110 25c4.66699 0 7 -2 7 -6c0 -26 -38 -61.333 -114 -106c-94 -53.333 -203.333 -80 -328 -80c-151.333 0 -268.666 30.333 -351.999 91
c-96.667 68.667 -145 173.667 -145 315c0 90.667 29.667 175.667 89 255c21.333 27.333 45.833 54 73.5 80s58.834 51.667 93.501 77c60.667 40.667 91 60.667 91 60c0 19.333 -39.333 56.333 -118 111c-5.33301 3.33301 -10.833 6.33301 -16.5 9
s-12.5 5.33398 -20.5 8.00098c-2 41.333 12.333 76.333 43 105c38 36.667 96.667 55 176 55c163.333 0 245 -43.333 245 -130c0 -46 -46 -103.333 -138 -172c101.333 -86.667 242.333 -130 423 -130h46c11.333 0 17 -11.667 17 -35v-79v0zM510.998 949.998l-103 106l105 107
l103 -107zM633.998 733.998l-105 106l105 106l103 -106zM391.998 733.998l-105 106l105 106l103 -106z" />
    <glyph glyph-name="afii57459" unicode="&#x6a1;" horiz-adv-x="589" 
d="M553 334c0 -122 -40.999 -208.001 -122.999 -258.001c-82 -50.667 -219.333 -76 -412 -76h-23c-24 0 -36 11.667 -36 35v79c0 23.333 12 35 36 35h111c256 0 384 47 384 141c0 22.667 -3.66699 40.334 -11 53.001c-28.667 -17.333 -89 -26 -181 -26
c-124 0 -186 47.667 -186 143c0 35.333 3.66699 70 11 104s18.666 68.333 33.999 103c38.667 92 90 138 154 138c80.667 0 142.334 -47.333 185.001 -142c19.333 -42 33.666 -90.167 42.999 -144.5s14 -115.833 14 -184.5zM453.001 486.999
c-4.66699 37.333 -22.333 74.332 -53 110.999c-30.667 38.667 -66.334 58 -107.001 58c-14 0 -27.167 -2.66699 -39.5 -8s-23.166 -12.666 -32.499 -21.999s-16.833 -20 -22.5 -32s-8.5 -25 -8.5 -39c0 -59.333 44.667 -89 134 -89c58 0 101 7 129 21z" />
    <glyph glyph-name="afii57374" unicode="&#x6a1;" horiz-adv-x="723" 
d="M745 35c0 -23.333 -5.33398 -35 -16.001 -35h-25c-60 -0 -116.167 7.33301 -168.5 22s-101.5 36.334 -147.5 65.001c-36.667 -17.333 -69.5 -31.666 -98.5 -42.999s-55.5 -20 -79.5 -26c-25.333 -6.66699 -54 -11.334 -86 -14.001s-67.333 -4 -106 -4h-23
c-24 0 -36 11.667 -36 35v79c0 23.333 12 35 36 35h23c121.333 0 199 8 233 24c-50 50.667 -75 99 -75 145c0 42 5.83301 82.167 17.5 120.5s30.167 74.833 55.5 109.5c50.667 68.667 105.667 103 165 103c54.667 0 99.334 -33.333 134.001 -100c28.667 -54 43 -114 43 -180
c0 -66.667 -25.667 -130.667 -77 -192c15.333 -10.667 38.833 -18.334 70.5 -23.001s71.5 -7 119.5 -7h25c10.667 0 16 -11.667 16 -35v-79zM527.999 336c0 36 -15.333 72.333 -46 109c-27.333 37.333 -57 56 -89 56c-33.333 0 -68.333 -16.667 -105 -50
c-16 -16.667 -28.333 -33.5 -37 -50.5s-13 -34.167 -13 -51.5c0 -30.667 21.333 -61 64 -91c38.667 -30.667 71 -46 97 -46c7.33301 0 17 3.33301 29 10s26 15.667 42 27c38.667 28.667 58 57.667 58 87z" />
    <glyph glyph-name="afii52258" unicode="&#x6a1;" horiz-adv-x="1512" 
d="M1534 35c0 -23.333 -5.66602 -34.998 -16.999 -34.998h-25c-60.667 0 -117 7.33301 -169 22s-101 37 -147 67c-148 -68 -351 -102 -609 -102c-303.333 0 -455 93.667 -455 281c0 27.333 2.83301 54.333 8.5 81s14.5 52.667 26.5 78c20.667 47.333 38.667 71 54 71
c17.333 0 26 -8.33301 26 -25c0 -1.33301 -1.33301 -5.5 -4 -12.5s-7.66699 -18.167 -15 -33.5c-12 -28 -18 -56.667 -18 -86c0 -136.667 138.667 -205 416 -205c189.333 0 334 13.333 434 40c-50.667 48 -76 95.333 -76 142c0 42 6 82.167 18 120.5s30.667 74.833 56 109.5
c50 68.667 104.667 103 164 103c56 0 100.667 -33.333 134 -100c14 -26.667 24.833 -55.167 32.5 -85.5s11.5 -61.833 11.5 -94.5c0 -34 -6.5 -66.833 -19.5 -98.5s-32.167 -62.834 -57.5 -93.501c13.333 -10.667 32.666 -18.334 57.999 -23.001s56 -7 92 -7h64
c11.333 0 17 -11.667 17 -35v-79zM1316 336.002c0 36.667 -15 73 -45 109c-28 37.333 -58 56 -90 56c-32.667 0 -67.334 -16.667 -104.001 -50c-34 -34 -51 -68 -51 -102c0 -30.667 21.333 -61 64 -91c38.667 -30.667 71.334 -46 98.001 -46c6 0 15 3.33301 27 10
s26.333 15.667 43 27c38.667 28.667 58 57.667 58 87z" />
    <glyph glyph-name="uni06A2.init" unicode="&#x6a2;" horiz-adv-x="589" 
d="M553 334c0 -122 -40.999 -208.001 -122.999 -258.001c-82 -50.667 -219.333 -76 -412 -76h-23c-24 0 -36 11.667 -36 35v79c0 23.333 12 35 36 35h111c256 0 384 47 384 141c0 22.667 -3.66699 40.334 -11 53.001c-28.667 -17.333 -89 -26 -181 -26
c-124 0 -186 47.667 -186 143c0 35.333 3.66699 70 11 104s18.666 68.333 33.999 103c38.667 92 90 138 154 138c80.667 0 142.334 -47.333 185.001 -142c19.333 -42 33.666 -90.167 42.999 -144.5s14 -115.833 14 -184.5zM453.001 486.999
c-4.66699 37.333 -22.333 74.332 -53 110.999c-30.667 38.667 -66.334 58 -107.001 58c-14 0 -27.167 -2.66699 -39.5 -8s-23.166 -12.666 -32.499 -21.999s-16.833 -20 -22.5 -32s-8.5 -25 -8.5 -39c0 -59.333 44.667 -89 134 -89c58 0 101 7 129 21zM333.002 -383.002
l-105 106l105 107l102 -107z" />
    <glyph glyph-name="uni06A2.medi" unicode="&#x6a2;" horiz-adv-x="723" 
d="M745 35c0 -23.333 -5.33398 -35 -16.001 -35h-25c-60 -0 -116.167 7.33301 -168.5 22s-101.5 36.334 -147.5 65.001c-36.667 -17.333 -69.5 -31.666 -98.5 -42.999s-55.5 -20 -79.5 -26c-25.333 -6.66699 -54 -11.334 -86 -14.001s-67.333 -4 -106 -4h-23
c-24 0 -36 11.667 -36 35v79c0 23.333 12 35 36 35h23c121.333 0 199 8 233 24c-50 50.667 -75 99 -75 145c0 42 5.83301 82.167 17.5 120.5s30.167 74.833 55.5 109.5c50.667 68.667 105.667 103 165 103c54.667 0 99.334 -33.333 134.001 -100c28.667 -54 43 -114 43 -180
c0 -66.667 -25.667 -130.667 -77 -192c15.333 -10.667 38.833 -18.334 70.5 -23.001s71.5 -7 119.5 -7h25c10.667 0 16 -11.667 16 -35v-79zM527.999 336c0 36 -15.333 72.333 -46 109c-27.333 37.333 -57 56 -89 56c-33.333 0 -68.333 -16.667 -105 -50
c-16 -16.667 -28.333 -33.5 -37 -50.5s-13 -34.167 -13 -51.5c0 -30.667 21.333 -61 64 -91c38.667 -30.667 71 -46 97 -46c7.33301 0 17 3.33301 29 10s26 15.667 42 27c38.667 28.667 58 57.667 58 87zM380.999 -385l-105 106l105 107l102 -107z" />
    <glyph glyph-name="uni06A2.fina" unicode="&#x6a2;" horiz-adv-x="1512" 
d="M1534 35c0 -23.333 -5.66602 -34.998 -16.999 -34.998h-25c-60.667 0 -117 7.33301 -169 22s-101 37 -147 67c-148 -68 -351 -102 -609 -102c-303.333 0 -455 93.667 -455 281c0 27.333 2.83301 54.333 8.5 81s14.5 52.667 26.5 78c20.667 47.333 38.667 71 54 71
c17.333 0 26 -8.33301 26 -25c0 -1.33301 -1.33301 -5.5 -4 -12.5s-7.66699 -18.167 -15 -33.5c-12 -28 -18 -56.667 -18 -86c0 -136.667 138.667 -205 416 -205c189.333 0 334 13.333 434 40c-50.667 48 -76 95.333 -76 142c0 42 6 82.167 18 120.5s30.667 74.833 56 109.5
c50 68.667 104.667 103 164 103c56 0 100.667 -33.333 134 -100c14 -26.667 24.833 -55.167 32.5 -85.5s11.5 -61.833 11.5 -94.5c0 -34 -6.5 -66.833 -19.5 -98.5s-32.167 -62.834 -57.5 -93.501c13.333 -10.667 32.666 -18.334 57.999 -23.001s56 -7 92 -7h64
c11.333 0 17 -11.667 17 -35v-79zM1316 336.002c0 36.667 -15 73 -45 109c-28 37.333 -58 56 -90 56c-32.667 0 -67.334 -16.667 -104.001 -50c-34 -34 -51 -68 -51 -102c0 -30.667 21.333 -61 64 -91c38.667 -30.667 71.334 -46 98.001 -46c6 0 15 3.33301 27 10
s26.333 15.667 43 27c38.667 28.667 58 57.667 58 87zM1115 -345.998l-105 106l105 107l102 -107z" />
    <glyph glyph-name="uni06A3.init" unicode="&#x6a3;" horiz-adv-x="589" 
d="M553 334c0 -122 -40.999 -208.001 -122.999 -258.001c-82 -50.667 -219.333 -76 -412 -76h-23c-24 0 -36 11.667 -36 35v79c0 23.333 12 35 36 35h111c256 0 384 47 384 141c0 22.667 -3.66699 40.334 -11 53.001c-28.667 -17.333 -89 -26 -181 -26
c-124 0 -186 47.667 -186 143c0 35.333 3.66699 70 11 104s18.666 68.333 33.999 103c38.667 92 90 138 154 138c80.667 0 142.334 -47.333 185.001 -142c19.333 -42 33.666 -90.167 42.999 -144.5s14 -115.833 14 -184.5zM453.001 486.999
c-4.66699 37.333 -22.333 74.332 -53 110.999c-30.667 38.667 -66.334 58 -107.001 58c-14 0 -27.167 -2.66699 -39.5 -8s-23.166 -12.666 -32.499 -21.999s-16.833 -20 -22.5 -32s-8.5 -25 -8.5 -39c0 -59.333 44.667 -89 134 -89c58 0 101 7 129 21zM291.002 944.998
l-105 106l105 107l102 -107zM254.002 -392.002l-105 106l105 107l102 -107z" />
    <glyph glyph-name="uni06A3.medi" unicode="&#x6a3;" horiz-adv-x="723" 
d="M745 35c0 -23.333 -5.33398 -35 -16.001 -35h-25c-60 -0 -116.167 7.33301 -168.5 22s-101.5 36.334 -147.5 65.001c-36.667 -17.333 -69.5 -31.666 -98.5 -42.999s-55.5 -20 -79.5 -26c-25.333 -6.66699 -54 -11.334 -86 -14.001s-67.333 -4 -106 -4h-23
c-24 0 -36 11.667 -36 35v79c0 23.333 12 35 36 35h23c121.333 0 199 8 233 24c-50 50.667 -75 99 -75 145c0 42 5.83301 82.167 17.5 120.5s30.167 74.833 55.5 109.5c50.667 68.667 105.667 103 165 103c54.667 0 99.334 -33.333 134.001 -100c28.667 -54 43 -114 43 -180
c0 -66.667 -25.667 -130.667 -77 -192c15.333 -10.667 38.833 -18.334 70.5 -23.001s71.5 -7 119.5 -7h25c10.667 0 16 -11.667 16 -35v-79zM527.999 336c0 36 -15.333 72.333 -46 109c-27.333 37.333 -57 56 -89 56c-33.333 0 -68.333 -16.667 -105 -50
c-16 -16.667 -28.333 -33.5 -37 -50.5s-13 -34.167 -13 -51.5c0 -30.667 21.333 -61 64 -91c38.667 -30.667 71 -46 97 -46c7.33301 0 17 3.33301 29 10s26 15.667 42 27c38.667 28.667 58 57.667 58 87zM394.999 798l-105 106l105 107l102 -107zM348.999 -371l-105 106
l105 107l102 -107z" />
    <glyph glyph-name="uni06A3.fina" unicode="&#x6a3;" horiz-adv-x="1512" 
d="M1534 35c0 -23.333 -5.66602 -34.998 -16.999 -34.998h-25c-60.667 0 -117 7.33301 -169 22s-101 37 -147 67c-148 -68 -351 -102 -609 -102c-303.333 0 -455 93.667 -455 281c0 27.333 2.83301 54.333 8.5 81s14.5 52.667 26.5 78c20.667 47.333 38.667 71 54 71
c17.333 0 26 -8.33301 26 -25c0 -1.33301 -1.33301 -5.5 -4 -12.5s-7.66699 -18.167 -15 -33.5c-12 -28 -18 -56.667 -18 -86c0 -136.667 138.667 -205 416 -205c189.333 0 334 13.333 434 40c-50.667 48 -76 95.333 -76 142c0 42 6 82.167 18 120.5s30.667 74.833 56 109.5
c50 68.667 104.667 103 164 103c56 0 100.667 -33.333 134 -100c14 -26.667 24.833 -55.167 32.5 -85.5s11.5 -61.833 11.5 -94.5c0 -34 -6.5 -66.833 -19.5 -98.5s-32.167 -62.834 -57.5 -93.501c13.333 -10.667 32.666 -18.334 57.999 -23.001s56 -7 92 -7h64
c11.333 0 17 -11.667 17 -35v-79zM1316 336.002c0 36.667 -15 73 -45 109c-28 37.333 -58 56 -90 56c-32.667 0 -67.334 -16.667 -104.001 -50c-34 -34 -51 -68 -51 -102c0 -30.667 21.333 -61 64 -91c38.667 -30.667 71.334 -46 98.001 -46c6 0 15 3.33301 27 10
s26.333 15.667 43 27c38.667 28.667 58 57.667 58 87zM1167 782.002l-105 106l105 107l102 -107zM1181 -395.998l-105 106l105 107l102 -107z" />
    <glyph glyph-name="uni06A5.init" unicode="&#x6a5;" horiz-adv-x="589" 
d="M553 334c0 -122 -40.999 -208.001 -122.999 -258.001c-82 -50.667 -219.333 -76 -412 -76h-23c-24 0 -36 11.667 -36 35v79c0 23.333 12 35 36 35h111c256 0 384 47 384 141c0 22.667 -3.66699 40.334 -11 53.001c-28.667 -17.333 -89 -26 -181 -26
c-124 0 -186 47.667 -186 143c0 35.333 3.66699 70 11 104s18.666 68.333 33.999 103c38.667 92 90 138 154 138c80.667 0 142.334 -47.333 185.001 -142c19.333 -42 33.666 -90.167 42.999 -144.5s14 -115.833 14 -184.5zM453.001 486.999
c-4.66699 37.333 -22.333 74.332 -53 110.999c-30.667 38.667 -66.334 58 -107.001 58c-14 0 -27.167 -2.66699 -39.5 -8s-23.166 -12.666 -32.499 -21.999s-16.833 -20 -22.5 -32s-8.5 -25 -8.5 -39c0 -59.333 44.667 -89 134 -89c58 0 101 7 129 21zM226.002 -423.002
l103 -106l-103 -107l-104 107zM351.002 -207.002l103 -107l-103 -105l-105 105zM109.002 -207.002l103 -107l-103 -105l-105 105z" />
    <glyph glyph-name="uni06A5.medi" unicode="&#x6a5;" horiz-adv-x="723" 
d="M745 35c0 -23.333 -5.33398 -35 -16.001 -35h-25c-60 -0 -116.167 7.33301 -168.5 22s-101.5 36.334 -147.5 65.001c-36.667 -17.333 -69.5 -31.666 -98.5 -42.999s-55.5 -20 -79.5 -26c-25.333 -6.66699 -54 -11.334 -86 -14.001s-67.333 -4 -106 -4h-23
c-24 0 -36 11.667 -36 35v79c0 23.333 12 35 36 35h23c121.333 0 199 8 233 24c-50 50.667 -75 99 -75 145c0 42 5.83301 82.167 17.5 120.5s30.167 74.833 55.5 109.5c50.667 68.667 105.667 103 165 103c54.667 0 99.334 -33.333 134.001 -100c28.667 -54 43 -114 43 -180
c0 -66.667 -25.667 -130.667 -77 -192c15.333 -10.667 38.833 -18.334 70.5 -23.001s71.5 -7 119.5 -7h25c10.667 0 16 -11.667 16 -35v-79zM527.999 336c0 36 -15.333 72.333 -46 109c-27.333 37.333 -57 56 -89 56c-33.333 0 -68.333 -16.667 -105 -50
c-16 -16.667 -28.333 -33.5 -37 -50.5s-13 -34.167 -13 -51.5c0 -30.667 21.333 -61 64 -91c38.667 -30.667 71 -46 97 -46c7.33301 0 17 3.33301 29 10s26 15.667 42 27c38.667 28.667 58 57.667 58 87zM345.999 -421l103 -106l-103 -107l-104 107zM470.999 -205l103 -107
l-103 -105l-105 105zM228.999 -205l103 -107l-103 -105l-105 105z" />
    <glyph glyph-name="uni06A5.fina" unicode="&#x6a5;" horiz-adv-x="1512" 
d="M1534 35c0 -23.333 -5.66602 -34.998 -16.999 -34.998h-25c-60.667 0 -117 7.33301 -169 22s-101 37 -147 67c-148 -68 -351 -102 -609 -102c-303.333 0 -455 93.667 -455 281c0 27.333 2.83301 54.333 8.5 81s14.5 52.667 26.5 78c20.667 47.333 38.667 71 54 71
c17.333 0 26 -8.33301 26 -25c0 -1.33301 -1.33301 -5.5 -4 -12.5s-7.66699 -18.167 -15 -33.5c-12 -28 -18 -56.667 -18 -86c0 -136.667 138.667 -205 416 -205c189.333 0 334 13.333 434 40c-50.667 48 -76 95.333 -76 142c0 42 6 82.167 18 120.5s30.667 74.833 56 109.5
c50 68.667 104.667 103 164 103c56 0 100.667 -33.333 134 -100c14 -26.667 24.833 -55.167 32.5 -85.5s11.5 -61.833 11.5 -94.5c0 -34 -6.5 -66.833 -19.5 -98.5s-32.167 -62.834 -57.5 -93.501c13.333 -10.667 32.666 -18.334 57.999 -23.001s56 -7 92 -7h64
c11.333 0 17 -11.667 17 -35v-79zM1316 336.002c0 36.667 -15 73 -45 109c-28 37.333 -58 56 -90 56c-32.667 0 -67.334 -16.667 -104.001 -50c-34 -34 -51 -68 -51 -102c0 -30.667 21.333 -61 64 -91c38.667 -30.667 71.334 -46 98.001 -46c6 0 15 3.33301 27 10
s26.333 15.667 43 27c38.667 28.667 58 57.667 58 87zM1111 -384.998l103 -106l-103 -107l-104 107zM1236 -168.998l103 -107l-103 -105l-105 105zM994.001 -168.998l103 -107l-103 -105l-105 105z" />
    <glyph glyph-name="uni06A7.fina" unicode="&#x6a7;" horiz-adv-x="1289" 
d="M1312 35c0 -23.333 -5.66895 -35 -17.002 -35h-24l-144 2c1.33301 -12.667 2.33301 -27.667 3 -45s1 -38 1 -62c0 -121.333 -48 -219.333 -144 -294c-56.667 -45.333 -127.334 -79 -212.001 -101s-184 -33 -298 -33c-48 0 -92.667 6 -134 18s-79.333 30.667 -114 56
c-42 31.333 -73.5 68.5 -94.5 111.5s-31.5 93.167 -31.5 150.5c0 42.667 4.16699 84.334 12.5 125.001s21.5 80 39.5 118c32 70 59.667 105 83 105c15.333 0 23 -7 23 -21c0 2 -11.667 -23.333 -35 -76c-22.667 -51.333 -34 -105.333 -34 -162
c0 -176.667 116.667 -265 350 -265c68.667 0 133.334 6.16699 194.001 18.5s118.334 31.166 173.001 56.499c106 48.667 159 100.667 159 156c0 62 -6.33301 113 -19 153c-17.333 -3.33301 -40.666 -6 -69.999 -8s-65 -3 -107 -3c-126.667 -0 -190 47.333 -190 142
c0 42.667 4.83301 84 14.5 124s24.167 78 43.5 114c21.333 38.667 43.666 67.667 66.999 87s49 29 77 29c69.333 0 126.333 -41.667 171 -125c16 -30 29.833 -63.5 41.5 -100.5s20.834 -77.5 27.501 -121.5h171c11.333 0 17 -11.667 17 -35v-79zM1033 160
c-7.33301 36.667 -25 74.667 -53 114c-35.333 48.667 -72 73 -110 73c-14 0 -27.667 -3.16699 -41 -9.5s-25 -14.5 -35 -24.5s-18 -21.333 -24 -34s-9 -25.667 -9 -39c0 -32 11.5 -55.167 34.5 -69.5s62.833 -21.5 119.5 -21.5s96 3.66699 118 11zM857.998 650l-105 106
l105 107l102 -107z" />
    <glyph glyph-name="uni06A8.fina" unicode="&#x6a8;" horiz-adv-x="1289" 
d="M1312 35c0 -23.333 -5.66895 -35 -17.002 -35h-24l-144 2c1.33301 -12.667 2.33301 -27.667 3 -45s1 -38 1 -62c0 -121.333 -48 -219.333 -144 -294c-56.667 -45.333 -127.334 -79 -212.001 -101s-184 -33 -298 -33c-48 0 -92.667 6 -134 18s-79.333 30.667 -114 56
c-42 31.333 -73.5 68.5 -94.5 111.5s-31.5 93.167 -31.5 150.5c0 42.667 4.16699 84.334 12.5 125.001s21.5 80 39.5 118c32 70 59.667 105 83 105c15.333 0 23 -7 23 -21c0 2 -11.667 -23.333 -35 -76c-22.667 -51.333 -34 -105.333 -34 -162
c0 -176.667 116.667 -265 350 -265c68.667 0 133.334 6.16699 194.001 18.5s118.334 31.166 173.001 56.499c106 48.667 159 100.667 159 156c0 62 -6.33301 113 -19 153c-17.333 -3.33301 -40.666 -6 -69.999 -8s-65 -3 -107 -3c-126.667 -0 -190 47.333 -190 142
c0 42.667 4.83301 84 14.5 124s24.167 78 43.5 114c21.333 38.667 43.666 67.667 66.999 87s49 29 77 29c69.333 0 126.333 -41.667 171 -125c16 -30 29.833 -63.5 41.5 -100.5s20.834 -77.5 27.501 -121.5h171c11.333 0 17 -11.667 17 -35v-79zM1033 160
c-7.33301 36.667 -25 74.667 -53 114c-35.333 48.667 -72 73 -110 73c-14 0 -27.667 -3.16699 -41 -9.5s-25 -14.5 -35 -24.5s-18 -21.333 -24 -34s-9 -25.667 -9 -39c0 -32 11.5 -55.167 34.5 -69.5s62.833 -21.5 119.5 -21.5s96 3.66699 118 11zM870.998 842l-103 106
l105 107l103 -107zM993.998 626l-105 106l105 106l103 -106zM751.998 626l-105 106l105 106l103 -106z" />
    <glyph glyph-name="uni06AA.init" unicode="&#x6aa;" horiz-adv-x="1785" 
d="M-5 149c673.333 10.667 1221 38.3369 1643 83.0039c-1.33301 32 -7.16602 60.167 -17.499 84.5s-24 44.5 -41 60.5s-36.667 28.167 -59 36.5s-45.833 12.833 -70.5 13.5c-26 0 -63.833 -1.5 -113.5 -4.5l-170 -10l-204 -11.5c-72.333 -4 -144 -7.5 -215 -10.5
s-138.667 -4.83301 -203 -5.5s-120.166 0.666016 -167.499 3.99902c-37.333 2.66699 -68.833 6.5 -94.5 11.5s-46.5 11.333 -62.5 19s-27.5 16.5 -34.5 26.5s-10.833 21.333 -11.5 34c0.666992 33.333 11.167 66.5 31.5 99.5s47 65.167 80 96.5s70.833 61.5 113.5 90.5
s86.834 56.333 132.501 82s91 49.334 136 71.001s86.667 40.667 125 57s71.333 29.666 99 39.999s46.834 17.166 57.501 20.499s17.5 4 20.5 2s3.16699 -8.33301 0.5 -19s-7.16699 -26.667 -13.5 -48s-13.5 -49.666 -21.5 -84.999l-134.5 -51
c-47.667 -18.667 -95 -38.167 -142 -58.5s-92.167 -40.833 -135.5 -61.5s-81.666 -40.334 -114.999 -59.001s-60 -36 -80 -52s-30.333 -29.333 -31 -40c4 -16 20.833 -28.333 50.5 -37s68.167 -14.667 115.5 -18s101.5 -4.66602 162.5 -3.99902s124.667 2.66699 191 6
s133.333 7.16602 201 11.499l193.5 12.5c61.333 4 117.166 7.16699 167.499 9.5s91.166 3.16602 122.499 2.49902c54 -4 98.833 -15.833 134.5 -35.5s62.167 -44.5 79.5 -74.5s25.333 -64 24 -102s-11.666 -77.667 -30.999 -119l-69 -132
c-455.333 -40 -1005.33 -68.333 -1650 -85c-8 16 -14.5 30 -19.5 42s-8 23.333 -9 34s0.666992 21.667 5 33s12.166 24.666 23.499 39.999h6v0z" />
    <glyph glyph-name="uni06AA.medi" unicode="&#x6aa;" horiz-adv-x="1996" 
d="M-5 149c673.333 10.667 1221 38.3369 1643 83.0039c-1.33301 32 -7.16602 60.167 -17.499 84.5s-24 44.5 -41 60.5s-36.667 28.167 -59 36.5s-45.833 12.833 -70.5 13.5c-26 0 -63.833 -1.5 -113.5 -4.5l-170 -10l-204 -11.5c-72.333 -4 -144 -7.5 -215 -10.5
s-138.667 -4.83301 -203 -5.5s-120.166 0.666016 -167.499 3.99902c-37.333 2.66699 -68.833 6.5 -94.5 11.5s-46.5 11.333 -62.5 19s-27.5 16.5 -34.5 26.5s-10.833 21.333 -11.5 34c0.666992 33.333 11.167 66.5 31.5 99.5s47 65.167 80 96.5s70.833 61.5 113.5 90.5
s86.834 56.333 132.501 82s91 49.334 136 71.001s86.667 40.667 125 57s71.333 29.666 99 39.999s46.834 17.166 57.501 20.499s17.5 4 20.5 2s3.16699 -8.33301 0.5 -19s-7.16699 -26.667 -13.5 -48s-13.5 -49.666 -21.5 -84.999l-134.5 -51
c-47.667 -18.667 -95 -38.167 -142 -58.5s-92.167 -40.833 -135.5 -61.5s-81.666 -40.334 -114.999 -59.001s-60 -36 -80 -52s-30.333 -29.333 -31 -40c4 -16 20.833 -28.333 50.5 -37s68.167 -14.667 115.5 -18s101.5 -4.66602 162.5 -3.99902s124.667 2.66699 191 6
s133.333 7.16602 201 11.499l193.5 12.5c61.333 4 117.166 7.16699 167.499 9.5s91.166 3.16602 122.499 2.49902c54 -4 98.833 -15.833 134.5 -35.5s62.167 -44.5 79.5 -74.5s25.333 -64 24 -102s-11.666 -77.667 -30.999 -119c-4 -22.667 6.83301 -40.667 32.5 -54
s77.5 -18 155.5 -14h116c6.66699 -16 11.667 -29.667 15 -41s5 -22.5 5 -33.5s-1.66699 -22.167 -5 -33.5s-8.33301 -25 -15 -41h-102c-75.333 -1.33301 -130 -0.833008 -164 1.5s-60 10.833 -78 25.5s-27.667 34 -29 58c-455.333 -40 -1005.33 -68.333 -1650 -85
c-8 16 -14.5 30 -19.5 42s-8 23.333 -9 34s0.666992 21.667 5 33s12.166 24.666 23.499 39.999h6v0z" />
    <glyph glyph-name="uni06AA.fina" unicode="&#x6aa;" horiz-adv-x="2546" 
d="M173 353c0 -24 5.6709 -47.8291 17.0039 -71.4961s30.833 -44.834 58.5 -63.501s65 -34.334 112 -47.001s106.167 -20 177.5 -22h5c673.333 10.667 1221.33 38.334 1644 83.001c-1.33301 32 -7.16602 60.167 -17.5 84.5c-10.333 24.333 -24 44.5 -41 60.5
s-36.833 28.167 -59.5 36.5s-46.334 12.833 -71.001 13.5c-26 0 -63.833 -1.5 -113.5 -4.5l-170 -10l-204 -11.5c-72.333 -4 -144 -7.5 -215 -10.5s-138.667 -4.83301 -203 -5.5s-120.166 0.666016 -167.499 3.99902c-37.333 2.66699 -68.833 6.5 -94.5 11.5
s-46.334 11.333 -62.001 19s-27.167 16.5 -34.5 26.5s-11 21.333 -11 34c0.666992 33.333 11.167 66.5 31.5 99.5s47 65.167 80 96.5s70.833 61.5 113.5 90.5s86.667 56.333 132 82s90.666 49.334 135.999 71.001s87 40.667 125 57s71 29.666 99 39.999
s47.333 17.166 58 20.499s17.5 4 20.5 2s3.16699 -8.33301 0.5 -19s-7.16699 -26.667 -13.5 -48s-13.5 -49.666 -21.5 -84.999l-134.5 -51c-47.667 -18.667 -95 -38.167 -142 -58.5l-136 -61.5c-43.667 -20.667 -82.167 -40.334 -115.5 -59.001s-60 -36 -80 -52
s-30.333 -29.333 -31 -40c4 -16 20.833 -28.333 50.5 -37s68.167 -14.667 115.5 -18s101.5 -4.66602 162.5 -3.99902s124.667 2.66699 191 6s133.5 7.16602 201.5 11.499l194 12.5c61.333 4 117.166 7.16699 167.499 9.5s91.166 3.16602 122.499 2.49902
c54 -4 98.833 -15.833 134.5 -35.5s62.167 -44.5 79.5 -74.5s25.333 -64 24 -102s-11.666 -77.667 -31 -119c-4.66699 -22.667 6 -40.667 32 -54s78 -18 156 -14h116c6.66699 -16 11.667 -29.667 15 -41s5 -22.5 5 -33.5s-1.66699 -22.167 -5 -33.5s-8.33301 -25 -15 -41
h-102c-75.333 -1.33301 -130 -0.833008 -164 1.5s-60.167 10.833 -78.5 25.5s-27.833 34 -28.5 58c-446 -39.333 -983 -67.333 -1611 -84v-2h-27c-151.333 0 -265 22.333 -341 67s-114 116 -114 214c0 30 3.5 58.833 10.5 86.5s15.333 52.167 25 73.5s19.5 38.333 29.5 51
s18 19 24 19c7.33301 0 13.5 -2 18.5 -6s7.5 -10.333 7.5 -19c0 -4.66699 -2 -10.667 -6 -18s-8.16699 -16.5 -12.5 -27.5s-8.5 -23.667 -12.5 -38s-6 -30.5 -6 -48.5z" />
    <glyph glyph-name="uni06AB.init" unicode="&#x6ab;" horiz-adv-x="787" 
d="M142 861c3.33301 -8 14.1689 -20.502 32.502 -37.502l65.5 -63c25.333 -25 52.166 -53.667 80.499 -86s54.666 -68 78.999 -107s44.5 -81 60.5 -126s24 -92.167 24 -141.5c0 -46 -5.16699 -84.5 -15.5 -115.5s-26.166 -57.5 -47.499 -79.5
c-20.667 -22 -44.667 -40 -72 -54s-57.5 -24.667 -90.5 -32s-68.833 -12.333 -107.5 -15s-79.667 -4 -123 -4h-33c-12 0 -18 11.667 -18 35v79c0 23.333 6 35 18 35h23c134 0 234.667 11.833 302 35.5s101 62.167 101 115.5c0 24 -7.66699 51.5 -23 82.5
s-34.666 62.333 -57.999 94s-48.5 61.334 -75.5 89.001s-52.5 50.167 -76.5 67.5l-9 -29l-38.5 39c-14.333 14.667 -28 29.834 -41 45.501s-23.833 31.167 -32.5 46.5s-13 29.333 -13 42c0 32 2.16699 60 6.5 84s10.166 44.5 17.499 61.5s15.666 30.5 24.999 40.5
s19 17 29 21l701 261l-47 -149zM720.003 945.998c0 -22.667 -4.5 -43.999 -13.5 -63.999s-21 -37.333 -36 -52s-32.333 -26.334 -52 -35.001s-40.5 -13 -62.5 -13c-72 0 -108 36.667 -108 110c0 57.333 16 106 48 146c26.667 42 58 63 94 63c17.333 0 33.833 -4 49.5 -12
s29.5 -18.833 41.5 -32.5s21.5 -30 28.5 -49s10.5 -39.5 10.5 -61.5zM674.003 912.999c0 28.667 -12.001 52.667 -36.001 72c-20.667 18.667 -43 28 -67 28c-10 0 -19.667 -2.33301 -29 -7s-17.666 -12.334 -24.999 -23.001c-12.667 -15.333 -19 -32.666 -19 -51.999
c0 -40.667 26 -61 78 -61c44 0 76.667 14.333 98 43z" />
    <glyph glyph-name="uni06AB.medi" unicode="&#x6ab;" horiz-adv-x="928" 
d="M-23 114c0 23.333 5.99414 34.9971 17.9941 34.9971h23c47.333 0 95.166 1.5 143.499 4.5s92 9.83301 131 20.5s70.833 26 95.5 46s37 46.667 37 80c0 27.333 -9.16699 57 -27.5 89s-41.166 64.5 -68.499 97.5s-56.833 65.5 -88.5 97.5l-88.5 88
c-27.333 26.667 -50.166 49.834 -68.499 69.501s-27.5 33.834 -27.5 42.501c0 10.667 0.666992 25.834 2 45.501s4.16602 39.667 8.49902 60s10.833 39 19.5 56s20.334 28.5 35.001 34.5l716 265l-47 -149l-644 -235c2.66699 -2.66699 6.16699 -6.66699 10.5 -12l24 -29
l51.5 -59.5l92 -104l145 -162.5l212 -235c14 -15.333 28.5 -29.666 43.5 -42.999s31.833 -25 50.5 -35s39.834 -17.833 63.501 -23.5s50.5 -8.5 80.5 -8.5h15c10.667 0 16 -11.667 16 -35v-79c0 -23.333 -5.33301 -35 -16 -35h-25c-41.333 0 -77.666 4.83301 -108.999 14.5
s-62.166 26.167 -92.499 49.5s-62.666 54.166 -96.999 92.499s-74.833 86.166 -121.5 143.499c-2 -59.333 -13 -108.166 -33 -146.499s-49.5 -69 -88.5 -92s-87.667 -39 -146 -48s-126.166 -13.5 -203.499 -13.5h-23c-12 0 -18 11.667 -18 35v79v0zM773.994 948.997
c0 -22.667 -4.5 -43.999 -13.5 -63.999s-21 -37.333 -36 -52s-32.333 -26.334 -52 -35.001s-40.5 -13 -62.5 -13c-72 0 -108 36.667 -108 110c0 57.333 16 106 48 146c26.667 42 58 63 94 63c17.333 0 33.833 -4 49.5 -12s29.5 -18.833 41.5 -32.5s21.5 -30 28.5 -49
s10.5 -39.5 10.5 -61.5zM727.994 915.998c0 28.667 -12.001 52.667 -36.001 72c-20.667 18.667 -43 28 -67 28c-10 0 -19.667 -2.33301 -29 -7s-17.666 -12.334 -24.999 -23.001c-12.667 -15.333 -19 -32.666 -19 -51.999c0 -40.667 26 -61 78 -61c44 0 76.667 14.333 98 43
z" />
    <glyph glyph-name="uni06AB.fina" unicode="&#x6ab;" horiz-adv-x="1748" 
d="M1771 35c0 -23.333 -5.66699 -34.998 -17 -34.998h-24c-79.333 0 -146.666 21.333 -201.999 64c-22.667 17.333 -52.167 45.666 -88.5 84.999s-79.833 90.333 -130.5 153c-4 -88 -25.333 -153.333 -64 -196c-40 -44.667 -107 -75.667 -201 -93
c-48 -8.66699 -111.667 -15.167 -191 -19.5s-174.666 -6.5 -285.999 -6.5c-303.333 0 -455 93.667 -455 281c0 27.333 2.83301 54.333 8.5 81s14.5 52.667 26.5 78c20.667 47.333 38.667 71 54 71c17.333 0 26 -8.33301 26 -25c0 -1.33301 -1.33301 -5.5 -4 -12.5
s-7.66699 -18.167 -15 -33.5c-12 -28 -18 -56.667 -18 -86c0 -136.667 138.667 -205 416 -205c124 0 228.5 3.66699 313.5 11s151.833 18 200.5 32c83.333 24 125 65 125 123c0 46 -31.667 107.667 -95 185c-16.667 19.333 -39.834 44.5 -69.501 75.5l-109.5 109.5
c-63.333 63.333 -95 100.666 -95 111.999c0 114.667 21.667 180 65 196l716 265l-47 -149l-644 -235c5.33301 -8.66699 52.5 -62.667 141.5 -162l393.5 -440c65.333 -73.333 144.666 -110 237.999 -110h15c11.333 0 17 -11.667 17 -35v-79v0zM1563 950.002
c0 -22.667 -4.5 -43.999 -13.5 -63.999s-21 -37.333 -36 -52s-32.333 -26.334 -52 -35.001s-40.5 -13 -62.5 -13c-72 0 -108 36.667 -108 110c0 57.333 16 106 48 146c26.667 42 58 63 94 63c17.333 0 33.833 -4 49.5 -12s29.5 -18.833 41.5 -32.5s21.5 -30 28.5 -49
s10.5 -39.5 10.5 -61.5zM1517 917.003c0 28.667 -12.001 52.667 -36.001 72c-20.667 18.667 -43 28 -67 28c-10 0 -19.667 -2.33301 -29 -7s-17.666 -12.334 -24.999 -23.001c-12.667 -15.333 -19 -32.666 -19 -51.999c0 -40.667 26 -61 78 -61c44 0 76.667 14.333 98 43z
" />
    <glyph glyph-name="uni06AE.init" unicode="&#x6ae;" horiz-adv-x="787" 
d="M142 861c3.33301 -8 14.1689 -20.502 32.502 -37.502l65.5 -63c25.333 -25 52.166 -53.667 80.499 -86s54.666 -68 78.999 -107s44.5 -81 60.5 -126s24 -92.167 24 -141.5c0 -46 -5.16699 -84.5 -15.5 -115.5s-26.166 -57.5 -47.499 -79.5
c-20.667 -22 -44.667 -40 -72 -54s-57.5 -24.667 -90.5 -32s-68.833 -12.333 -107.5 -15s-79.667 -4 -123 -4h-33c-12 0 -18 11.667 -18 35v79c0 23.333 6 35 18 35h23c134 0 234.667 11.833 302 35.5s101 62.167 101 115.5c0 24 -7.66699 51.5 -23 82.5
s-34.666 62.333 -57.999 94s-48.5 61.334 -75.5 89.001s-52.5 50.167 -76.5 67.5l-9 -29l-38.5 39c-14.333 14.667 -28 29.834 -41 45.501s-23.833 31.167 -32.5 46.5s-13 29.333 -13 42c0 32 2.16699 60 6.5 84s10.166 44.5 17.499 61.5s15.666 30.5 24.999 40.5
s19 17 29 21l701 261l-47 -149zM308.003 -405.002l103 -106l-103 -107l-104 107zM433.003 -189.002l103 -107l-103 -105l-105 105zM191.003 -189.002l103 -107l-103 -105l-105 105z" />
    <glyph glyph-name="uni06AE.medi" unicode="&#x6ae;" horiz-adv-x="928" 
d="M-23 114c0 23.333 5.99414 34.9971 17.9941 34.9971h23c47.333 0 95.166 1.5 143.499 4.5s92 9.83301 131 20.5s70.833 26 95.5 46s37 46.667 37 80c0 27.333 -9.16699 57 -27.5 89s-41.166 64.5 -68.499 97.5s-56.833 65.5 -88.5 97.5l-88.5 88
c-27.333 26.667 -50.166 49.834 -68.499 69.501s-27.5 33.834 -27.5 42.501c0 10.667 0.666992 25.834 2 45.501s4.16602 39.667 8.49902 60s10.833 39 19.5 56s20.334 28.5 35.001 34.5l716 265l-47 -149l-644 -235c2.66699 -2.66699 6.16699 -6.66699 10.5 -12l24 -29
l51.5 -59.5l92 -104l145 -162.5l212 -235c14 -15.333 28.5 -29.666 43.5 -42.999s31.833 -25 50.5 -35s39.834 -17.833 63.501 -23.5s50.5 -8.5 80.5 -8.5h15c10.667 0 16 -11.667 16 -35v-79c0 -23.333 -5.33301 -35 -16 -35h-25c-41.333 0 -77.666 4.83301 -108.999 14.5
s-62.166 26.167 -92.499 49.5s-62.666 54.166 -96.999 92.499s-74.833 86.166 -121.5 143.499c-2 -59.333 -13 -108.166 -33 -146.499s-49.5 -69 -88.5 -92s-87.667 -39 -146 -48s-126.166 -13.5 -203.499 -13.5h-23c-12 0 -18 11.667 -18 35v79v0zM465.994 -358.003
l103 -106l-103 -107l-104 107zM590.994 -142.003l103 -107l-103 -105l-105 105zM348.994 -142.003l103 -107l-103 -105l-105 105z" />
    <glyph glyph-name="uni06AE.fina" unicode="&#x6ae;" horiz-adv-x="1469" 
d="M1491 35c0 -23.333 -5.66797 -35.002 -17.001 -35.002h-24c-60.667 0 -111.334 10.833 -152.001 32.5s-72.667 55.5 -96 101.5c-50 -53.333 -127.833 -91.166 -233.5 -113.499s-239.5 -33.5 -401.5 -33.5c-303.333 0 -455 93.667 -455 281
c0 27.333 2.83301 54.333 8.5 81s14.5 52.667 26.5 78c20.667 47.333 38.667 71 54 71c17.333 0 26 -8.33301 26 -25c0 -1.33301 -1.33301 -5.5 -4 -12.5s-7.66699 -18.167 -15 -33.5c-12 -30 -18 -58.667 -18 -86c0 -136.667 138.667 -205 416 -205
c78.667 0 154.167 3.66699 226.5 11s140.833 20.666 205.5 39.999l53 20.5c16 6.33301 29.833 13.833 41.5 22.5s20.834 19.334 27.501 32.001s10 29 10 49v9l-22 822l97 103l21 -957c0 -43.333 17.667 -77.666 53 -102.999c32.667 -24 76.334 -36 131.001 -36h24
c11.333 0 17 -11.667 17 -35v-79zM824.999 646.998c0 -27.333 -5.33789 -51.332 -16.0049 -71.999s-24 -37.834 -40 -51.501s-33.667 -24 -53 -31s-38 -10.5 -56 -10.5c-23.333 0 -46.666 4 -69.999 12s-49.666 21.667 -78.999 41c-6 6 -4.33301 9 5 9
c32.667 1.33301 64.5 4.33301 95.5 9s58.667 10.334 83 17.001s43.833 14 58.5 22s22 16.333 22 25c0 13.333 -14.667 20 -44 20h-79c-19.333 0 -35.5 1.83301 -48.5 5.5s-23.167 8.83398 -30.5 15.501s-12.5 14.667 -15.5 24s-4.5 19.333 -4.5 30
c0 19.333 3.83301 40.166 11.5 62.499s18.167 43.166 31.5 62.499c32 43.333 64.333 65 97 65c12 0 22.333 -3.33301 31 -10s16 -14.834 22 -24.501s10.5 -19.5 13.5 -29.5s4.5 -18 4.5 -24c0 -7.33301 -3.66699 -9.66602 -11 -6.99902c-16 7.33301 -32.667 11 -50 11
c-13.333 0 -26.166 -2.33301 -38.499 -7s-23.166 -10.167 -32.499 -16.5s-16.666 -13.333 -21.999 -21s-8 -14.5 -8 -20.5c0 -14.667 19.333 -22 58 -22h76c30 0 52.333 -7.5 67 -22.5s22 -35.5 22 -61.5zM637.994 -396.001l103 -106l-103 -107l-104 107zM762.994 -180.001
l103 -107l-103 -105l-105 105zM520.994 -180.001l103 -107l-103 -105l-105 105z" />
    <glyph glyph-name="uni06B0.init" unicode="&#x6b0;" horiz-adv-x="807" 
d="M795 939l-97.9971 -29.002l-108.5 -33.5l-111.5 -36l-106.5 -35.5l-93 -32l-72.5 -26l99.5 -89.5c32.333 -29.667 61.166 -61.834 86.499 -96.501c33.333 -42 58.166 -83 74.499 -123s24.5 -86 24.5 -138c0 -59.333 -10 -108.166 -30 -146.499s-49.833 -69 -89.5 -92
s-89 -39 -148 -48s-127.167 -13.5 -204.5 -13.5h-23c-12 0 -18 11.667 -18 35v79c0 23.333 6 35 18 35h23c47.333 0 95.166 1.5 143.499 4.5s92.166 9.83301 131.499 20.5s71.5 26 96.5 46s37.5 46.667 37.5 80c0 14.667 -4.16699 31 -12.5 49s-19.333 36.333 -33 55
s-29 37.334 -46 56.001s-34 36.334 -51 53.001s-33.333 31.5 -49 44.5l-38.5 31.5l-7 -30l-42 42.5c-14 14.333 -26 27.833 -36 40.5c-19.333 22 -32.166 37.333 -38.499 46s-9.5 16.667 -9.5 24c0 5.33301 2.16699 15 6.5 29s9.33301 28.5 15 43.5s11.5 28.333 17.5 40
s10.667 18.167 14 19.5c0.666992 0.666992 2.66699 1.66699 6 3s8.83301 3.33301 16.5 6l32.5 11l55 18l125 41l199 62l292 92zM783.003 1178l-146 -45l-169.5 -55l-174 -59.5l-159.5 -58.5l37 108l645 214zM733.003 781.998c0 -22.667 -4.5 -43.999 -13.5 -63.999
s-21 -37.333 -36 -52s-32.333 -26.334 -52 -35.001s-40.5 -13 -62.5 -13c-72 0 -108 36.667 -108 110c0 57.333 16 106 48 146c26.667 42 58 63 94 63c17.333 0 33.833 -4 49.5 -12s29.5 -18.833 41.5 -32.5s21.5 -30 28.5 -49s10.5 -39.5 10.5 -61.5zM687.003 748.999
c0 28.667 -12.001 52.667 -36.001 72c-20.667 18.667 -43 28 -67 28c-10 0 -19.667 -2.33301 -29 -7s-17.666 -12.334 -24.999 -23.001c-12.667 -15.333 -19 -32.666 -19 -51.999c0 -40.667 26 -61 78 -61c44 0 76.667 14.333 98 43z" />
    <glyph glyph-name="uni06B0.medi" unicode="&#x6b0;" horiz-adv-x="928" 
d="M-23 114c0 23.333 6.00098 35.002 18.001 35.002h23c47.333 0 95.166 1.5 143.499 4.5s92.166 9.83301 131.499 20.5s71.5 26 96.5 46s37.5 46.667 37.5 80c0 14.667 -4 30.834 -12 48.501s-18.833 36.167 -32.5 55.5s-29.334 39.166 -47.001 59.499
s-36.5 40.166 -56.5 59.499c-23.333 25.333 -47.166 49 -71.499 71l-66.5 60c-20 18 -36.333 34 -49 48s-19 25.333 -19 34c0 4.66699 1.66699 12.5 5 23.5s7.5 22.5 12.5 34.5s9.83301 22.833 14.5 32.5s8.66699 15.5 12 17.5c0.666992 0.666992 2.66699 1.66699 6 3
s8.83301 3.33301 16.5 6l32.5 11l55 18l125 41l199 62l292 92l-48 -138l-98 -29l-108.5 -33.5l-111.5 -36l-106.5 -35.5l-93 -32l-72.5 -26l61 -56.5l65.5 -65l74 -77l86.5 -91.5l189 -203c32 -34.667 67 -60.834 105 -78.501s83.667 -26.5 137 -26.5h11
c10.667 0 16 -11.667 16 -35v-79c0 -23.333 -5.33301 -35 -16 -35h-25c-36 0 -68.667 3.66699 -98 11s-59.333 21.833 -90 43.5s-64.167 52.167 -100.5 91.5s-79.833 90.666 -130.5 153.999c-1.33301 -59.333 -12.333 -108.166 -33 -146.499s-50.667 -69 -90 -92
s-88.166 -39 -146.499 -48s-125.833 -13.5 -202.5 -13.5h-23c-12 0 -18 11.667 -18 35v79zM783.001 1178l-146 -45l-169.5 -55l-174 -59.5l-159.5 -58.5l37 108l645 214zM744.001 815.002c0 -22.667 -4.5 -43.999 -13.5 -63.999s-21 -37.333 -36 -52
s-32.333 -26.334 -52 -35.001s-40.5 -13 -62.5 -13c-72 0 -108 36.667 -108 110c0 57.333 16 106 48 146c26.667 42 58 63 94 63c17.333 0 33.833 -4 49.5 -12s29.5 -18.833 41.5 -32.5s21.5 -30 28.5 -49s10.5 -39.5 10.5 -61.5zM698.001 782.003
c0 28.667 -12.001 52.667 -36.001 72c-20.667 18.667 -43 28 -67 28c-10 0 -19.667 -2.33301 -29 -7s-17.666 -12.334 -24.999 -23.001c-12.667 -15.333 -19 -32.666 -19 -51.999c0 -40.667 26 -61 78 -61c44 0 76.667 14.333 98 43z" />
    <glyph glyph-name="uni06B0.fina" unicode="&#x6b0;" horiz-adv-x="1748" 
d="M1606 939c-45.333 -12.667 -96.0039 -27.668 -152.004 -45.001l-166.5 -53l-154.5 -52c-48 -16.667 -87 -30.667 -117 -42c22 -17.333 44 -36.166 66 -56.499s44.667 -42.5 68 -66.5l74 -77.5l86 -89.5l189 -203c16 -17.333 32.5 -32.5 49.5 -45.5s35.333 -24 55 -33
s41 -15.667 64 -20s48.167 -6.5 75.5 -6.5h11c11.333 0 17 -11.667 17 -35v-79c0 -23.333 -5.66699 -35 -17 -35h-24c-37.333 0 -70.666 3.66699 -99.999 11s-59.333 21.833 -90 43.5s-64.167 52.167 -100.5 91.5s-79.833 90.666 -130.5 153.999
c-1.33301 -46 -7 -84.5 -17 -115.5s-25.667 -57.5 -47 -79.5c-21.333 -23.333 -47.666 -42.5 -78.999 -57.5s-72.666 -27 -123.999 -36s-115.333 -15.333 -192 -19s-171 -5.5 -283 -5.5c-150.667 0 -264.167 22.333 -340.5 67s-114.5 116 -114.5 214
c0 30 3.5 58.833 10.5 86.5s15.333 52.167 25 73.5s19.5 38.333 29.5 51s18 19 24 19c17.333 0 26 -8.33301 26 -25c0 -4.66699 -2 -10.667 -6 -18s-8.16699 -16.5 -12.5 -27.5s-8.5 -23.667 -12.5 -38s-6 -30.5 -6 -48.5c0 -26 6.33301 -51.167 19 -75.5
s34.834 -46.166 66.501 -65.499s74.167 -34.833 127.5 -46.5s121 -17.5 203 -17.5c128.667 0 234.5 3.33301 317.5 10s148.167 16.834 195.5 30.501s80.166 30.834 98.499 51.501s27.5 44.667 27.5 72c0 14.667 -4 30.834 -12 48.501s-18.833 36.167 -32.5 55.5
s-29.334 39.166 -47.001 59.499s-36.5 40.166 -56.5 59.499c-23.333 25.333 -47.166 49 -71.499 71l-66.5 60c-20 18 -36.333 34 -49 48s-19 25.333 -19 34c0 4.66699 1.66699 12.667 5 24s7.16602 23 11.499 35s8.5 22.833 12.5 32.5s6.66699 15.167 8 16.5
c2 0.666992 4.33301 1.66699 7 3s7.83398 3.16602 15.501 5.49902s18.334 5.83301 32.001 10.5l55.5 19l125 41l198.5 62l291.5 92zM1593 1178l-145 -45l-169.5 -55l-174 -59.5l-159.5 -58.5l37 108l645 214zM1552 804.999c0 -22.667 -4.5 -43.999 -13.5 -63.999
s-21 -37.333 -36 -52s-32.333 -26.334 -52 -35.001s-40.5 -13 -62.5 -13c-72 0 -108 36.667 -108 110c0 57.333 16 106 48 146c26.667 42 58 63 94 63c17.333 0 33.833 -4 49.5 -12s29.5 -18.833 41.5 -32.5s21.5 -30 28.5 -49s10.5 -39.5 10.5 -61.5zM1506 772
c0 28.667 -12.001 52.667 -36.001 72c-20.667 18.667 -43 28 -67 28c-10 0 -19.667 -2.33301 -29 -7s-17.666 -12.334 -24.999 -23.001c-12.667 -15.333 -19 -32.666 -19 -51.999c0 -40.667 26 -61 78 -61c44 0 76.667 14.333 98 43z" />
    <glyph glyph-name="uni06B2.init" unicode="&#x6b2;" horiz-adv-x="807" 
d="M795 939l-97.9971 -29.002l-108.5 -33.5l-111.5 -36l-106.5 -35.5l-93 -32l-72.5 -26l99.5 -89.5c32.333 -29.667 61.166 -61.834 86.499 -96.501c33.333 -42 58.166 -83 74.499 -123s24.5 -86 24.5 -138c0 -59.333 -10 -108.166 -30 -146.499s-49.833 -69 -89.5 -92
s-89 -39 -148 -48s-127.167 -13.5 -204.5 -13.5h-23c-12 0 -18 11.667 -18 35v79c0 23.333 6 35 18 35h23c47.333 0 95.166 1.5 143.499 4.5s92.166 9.83301 131.499 20.5s71.5 26 96.5 46s37.5 46.667 37.5 80c0 14.667 -4.16699 31 -12.5 49s-19.333 36.333 -33 55
s-29 37.334 -46 56.001s-34 36.334 -51 53.001s-33.333 31.5 -49 44.5l-38.5 31.5l-7 -30l-42 42.5c-14 14.333 -26 27.833 -36 40.5c-19.333 22 -32.166 37.333 -38.499 46s-9.5 16.667 -9.5 24c0 5.33301 2.16699 15 6.5 29s9.33301 28.5 15 43.5s11.5 28.333 17.5 40
s10.667 18.167 14 19.5c0.666992 0.666992 2.66699 1.66699 6 3s8.83301 3.33301 16.5 6l32.5 11l55 18l125 41l199 62l292 92zM783.003 1178l-146 -45l-169.5 -55l-174 -59.5l-159.5 -58.5l37 108l645 214zM528.003 -363.002l-103 104l101 100l103 -100zM286.003 -363.002
l-103 104l101 100l102 -100z" />
    <glyph glyph-name="uni06B2.medi" unicode="&#x6b2;" horiz-adv-x="928" 
d="M-23 114c0 23.333 6.00098 35.002 18.001 35.002h23c47.333 0 95.166 1.5 143.499 4.5s92.166 9.83301 131.499 20.5s71.5 26 96.5 46s37.5 46.667 37.5 80c0 14.667 -4 30.834 -12 48.501s-18.833 36.167 -32.5 55.5s-29.334 39.166 -47.001 59.499
s-36.5 40.166 -56.5 59.499c-23.333 25.333 -47.166 49 -71.499 71l-66.5 60c-20 18 -36.333 34 -49 48s-19 25.333 -19 34c0 4.66699 1.66699 12.5 5 23.5s7.5 22.5 12.5 34.5s9.83301 22.833 14.5 32.5s8.66699 15.5 12 17.5c0.666992 0.666992 2.66699 1.66699 6 3
s8.83301 3.33301 16.5 6l32.5 11l55 18l125 41l199 62l292 92l-48 -138l-98 -29l-108.5 -33.5l-111.5 -36l-106.5 -35.5l-93 -32l-72.5 -26l61 -56.5l65.5 -65l74 -77l86.5 -91.5l189 -203c32 -34.667 67 -60.834 105 -78.501s83.667 -26.5 137 -26.5h11
c10.667 0 16 -11.667 16 -35v-79c0 -23.333 -5.33301 -35 -16 -35h-25c-36 0 -68.667 3.66699 -98 11s-59.333 21.833 -90 43.5s-64.167 52.167 -100.5 91.5s-79.833 90.666 -130.5 153.999c-1.33301 -59.333 -12.333 -108.166 -33 -146.499s-50.667 -69 -90 -92
s-88.166 -39 -146.499 -48s-125.833 -13.5 -202.5 -13.5h-23c-12 0 -18 11.667 -18 35v79zM783.001 1178l-146 -45l-169.5 -55l-174 -59.5l-159.5 -58.5l37 108l645 214zM579.001 -362.998l-103 104l101 100l103 -100zM337.001 -362.998l-103 104l101 100l102 -100z" />
    <glyph glyph-name="uni06B2.fina" unicode="&#x6b2;" horiz-adv-x="1748" 
d="M1606 939c-45.333 -12.667 -96.0039 -27.668 -152.004 -45.001l-166.5 -53l-154.5 -52c-48 -16.667 -87 -30.667 -117 -42c22 -17.333 44 -36.166 66 -56.499s44.667 -42.5 68 -66.5l74 -77.5l86 -89.5l189 -203c16 -17.333 32.5 -32.5 49.5 -45.5s35.333 -24 55 -33
s41 -15.667 64 -20s48.167 -6.5 75.5 -6.5h11c11.333 0 17 -11.667 17 -35v-79c0 -23.333 -5.66699 -35 -17 -35h-24c-37.333 0 -70.666 3.66699 -99.999 11s-59.333 21.833 -90 43.5s-64.167 52.167 -100.5 91.5s-79.833 90.666 -130.5 153.999
c-1.33301 -46 -7 -84.5 -17 -115.5s-25.667 -57.5 -47 -79.5c-21.333 -23.333 -47.666 -42.5 -78.999 -57.5s-72.666 -27 -123.999 -36s-115.333 -15.333 -192 -19s-171 -5.5 -283 -5.5c-150.667 0 -264.167 22.333 -340.5 67s-114.5 116 -114.5 214
c0 30 3.5 58.833 10.5 86.5s15.333 52.167 25 73.5s19.5 38.333 29.5 51s18 19 24 19c17.333 0 26 -8.33301 26 -25c0 -4.66699 -2 -10.667 -6 -18s-8.16699 -16.5 -12.5 -27.5s-8.5 -23.667 -12.5 -38s-6 -30.5 -6 -48.5c0 -26 6.33301 -51.167 19 -75.5
s34.834 -46.166 66.501 -65.499s74.167 -34.833 127.5 -46.5s121 -17.5 203 -17.5c128.667 0 234.5 3.33301 317.5 10s148.167 16.834 195.5 30.501s80.166 30.834 98.499 51.501s27.5 44.667 27.5 72c0 14.667 -4 30.834 -12 48.501s-18.833 36.167 -32.5 55.5
s-29.334 39.166 -47.001 59.499s-36.5 40.166 -56.5 59.499c-23.333 25.333 -47.166 49 -71.499 71l-66.5 60c-20 18 -36.333 34 -49 48s-19 25.333 -19 34c0 4.66699 1.66699 12.667 5 24s7.16602 23 11.499 35s8.5 22.833 12.5 32.5s6.66699 15.167 8 16.5
c2 0.666992 4.33301 1.66699 7 3s7.83398 3.16602 15.501 5.49902s18.334 5.83301 32.001 10.5l55.5 19l125 41l198.5 62l291.5 92zM1593 1178l-145 -45l-169.5 -55l-174 -59.5l-159.5 -58.5l37 108l645 214zM755.996 -413.001l-103 104l101 100l103 -100zM513.996 -413.001
l-103 104l101 100l102 -100z" />
    <glyph glyph-name="uni06B4.init" unicode="&#x6b4;" horiz-adv-x="807" 
d="M795 939l-97.9971 -29.002l-108.5 -33.5l-111.5 -36l-106.5 -35.5l-93 -32l-72.5 -26l99.5 -89.5c32.333 -29.667 61.166 -61.834 86.499 -96.501c33.333 -42 58.166 -83 74.499 -123s24.5 -86 24.5 -138c0 -59.333 -10 -108.166 -30 -146.499s-49.833 -69 -89.5 -92
s-89 -39 -148 -48s-127.167 -13.5 -204.5 -13.5h-23c-12 0 -18 11.667 -18 35v79c0 23.333 6 35 18 35h23c47.333 0 95.166 1.5 143.499 4.5s92.166 9.83301 131.499 20.5s71.5 26 96.5 46s37.5 46.667 37.5 80c0 14.667 -4.16699 31 -12.5 49s-19.333 36.333 -33 55
s-29 37.334 -46 56.001s-34 36.334 -51 53.001s-33.333 31.5 -49 44.5l-38.5 31.5l-7 -30l-42 42.5c-14 14.333 -26 27.833 -36 40.5c-19.333 22 -32.166 37.333 -38.499 46s-9.5 16.667 -9.5 24c0 5.33301 2.16699 15 6.5 29s9.33301 28.5 15 43.5s11.5 28.333 17.5 40
s10.667 18.167 14 19.5c0.666992 0.666992 2.66699 1.66699 6 3s8.83301 3.33301 16.5 6l32.5 11l55 18l125 41l199 62l292 92zM783.003 1178l-146 -45l-169.5 -55l-174 -59.5l-159.5 -58.5l37 108l645 214zM392.003 1470l-103 106l105 107l103 -107zM515.003 1254l-105 106
l105 106l103 -106zM273.003 1254l-105 106l105 106l103 -106z" />
    <glyph glyph-name="uni06B4.medi" unicode="&#x6b4;" horiz-adv-x="928" 
d="M-23 114c0 23.333 6.00098 35.002 18.001 35.002h23c47.333 0 95.166 1.5 143.499 4.5s92.166 9.83301 131.499 20.5s71.5 26 96.5 46s37.5 46.667 37.5 80c0 14.667 -4 30.834 -12 48.501s-18.833 36.167 -32.5 55.5s-29.334 39.166 -47.001 59.499
s-36.5 40.166 -56.5 59.499c-23.333 25.333 -47.166 49 -71.499 71l-66.5 60c-20 18 -36.333 34 -49 48s-19 25.333 -19 34c0 4.66699 1.66699 12.5 5 23.5s7.5 22.5 12.5 34.5s9.83301 22.833 14.5 32.5s8.66699 15.5 12 17.5c0.666992 0.666992 2.66699 1.66699 6 3
s8.83301 3.33301 16.5 6l32.5 11l55 18l125 41l199 62l292 92l-48 -138l-98 -29l-108.5 -33.5l-111.5 -36l-106.5 -35.5l-93 -32l-72.5 -26l61 -56.5l65.5 -65l74 -77l86.5 -91.5l189 -203c32 -34.667 67 -60.834 105 -78.501s83.667 -26.5 137 -26.5h11
c10.667 0 16 -11.667 16 -35v-79c0 -23.333 -5.33301 -35 -16 -35h-25c-36 0 -68.667 3.66699 -98 11s-59.333 21.833 -90 43.5s-64.167 52.167 -100.5 91.5s-79.833 90.666 -130.5 153.999c-1.33301 -59.333 -12.333 -108.166 -33 -146.499s-50.667 -69 -90 -92
s-88.166 -39 -146.499 -48s-125.833 -13.5 -202.5 -13.5h-23c-12 0 -18 11.667 -18 35v79zM783.001 1178l-146 -45l-169.5 -55l-174 -59.5l-159.5 -58.5l37 108l645 214zM395.001 1487l-103 106l105 107l103 -107zM518.001 1271l-105 106l105 106l103 -106zM276.001 1271
l-105 106l105 106l103 -106z" />
    <glyph glyph-name="uni06B4.fina" unicode="&#x6b4;" horiz-adv-x="1748" 
d="M1606 939c-45.333 -12.667 -96.0039 -27.668 -152.004 -45.001l-166.5 -53l-154.5 -52c-48 -16.667 -87 -30.667 -117 -42c22 -17.333 44 -36.166 66 -56.499s44.667 -42.5 68 -66.5l74 -77.5l86 -89.5l189 -203c16 -17.333 32.5 -32.5 49.5 -45.5s35.333 -24 55 -33
s41 -15.667 64 -20s48.167 -6.5 75.5 -6.5h11c11.333 0 17 -11.667 17 -35v-79c0 -23.333 -5.66699 -35 -17 -35h-24c-37.333 0 -70.666 3.66699 -99.999 11s-59.333 21.833 -90 43.5s-64.167 52.167 -100.5 91.5s-79.833 90.666 -130.5 153.999
c-1.33301 -46 -7 -84.5 -17 -115.5s-25.667 -57.5 -47 -79.5c-21.333 -23.333 -47.666 -42.5 -78.999 -57.5s-72.666 -27 -123.999 -36s-115.333 -15.333 -192 -19s-171 -5.5 -283 -5.5c-150.667 0 -264.167 22.333 -340.5 67s-114.5 116 -114.5 214
c0 30 3.5 58.833 10.5 86.5s15.333 52.167 25 73.5s19.5 38.333 29.5 51s18 19 24 19c17.333 0 26 -8.33301 26 -25c0 -4.66699 -2 -10.667 -6 -18s-8.16699 -16.5 -12.5 -27.5s-8.5 -23.667 -12.5 -38s-6 -30.5 -6 -48.5c0 -26 6.33301 -51.167 19 -75.5
s34.834 -46.166 66.501 -65.499s74.167 -34.833 127.5 -46.5s121 -17.5 203 -17.5c128.667 0 234.5 3.33301 317.5 10s148.167 16.834 195.5 30.501s80.166 30.834 98.499 51.501s27.5 44.667 27.5 72c0 14.667 -4 30.834 -12 48.501s-18.833 36.167 -32.5 55.5
s-29.334 39.166 -47.001 59.499s-36.5 40.166 -56.5 59.499c-23.333 25.333 -47.166 49 -71.499 71l-66.5 60c-20 18 -36.333 34 -49 48s-19 25.333 -19 34c0 4.66699 1.66699 12.667 5 24s7.16602 23 11.499 35s8.5 22.833 12.5 32.5s6.66699 15.167 8 16.5
c2 0.666992 4.33301 1.66699 7 3s7.83398 3.16602 15.501 5.49902s18.334 5.83301 32.001 10.5l55.5 19l125 41l198.5 62l291.5 92zM1593 1178l-145 -45l-169.5 -55l-174 -59.5l-159.5 -58.5l37 108l645 214zM1215 1484l-103 106l105 107l103 -107zM1338 1268l-105 106
l105 106l103 -106zM1096 1268l-105 106l105 106l103 -106z" />
    <glyph glyph-name="uni06B5.init" unicode="&#x6b5;" horiz-adv-x="421" 
d="M365 1012c0 -8.66699 -21.001 -5.66699 -63.001 9l11 -349v-325c0 -132.667 -26 -226 -78 -280c-43.333 -44.667 -115.666 -67 -216.999 -67h-23c-24 0 -36 11.667 -36 35v79c0 23.333 12 35 36 35h23c82 0 138.667 8 170 24c28.667 14.667 43 40.667 43 78
c0 19.333 -1 47.666 -3 84.999s-4.66699 83 -8 137l-44 651c0 6.66699 7 18 21 34l91 87l61 -173c5.33301 -16 9.33301 -29.167 12 -39.5s4 -17.166 4 -20.499zM377.999 1632l-27.999 -29.0029c-10.667 -11.333 -22.334 -27.666 -35.001 -48.999
s-26.167 -49.166 -40.5 -83.499s-28.833 -77.833 -43.5 -130.5l-25 -3c-6 28.667 -14.5 57.167 -25.5 85.5s-23.5 55.166 -37.5 80.499s-29.167 48.5 -45.5 69.5s-33.5 38.5 -51.5 52.5l94 -7c6 -7.33301 12.167 -15.666 18.5 -24.999s12.833 -21.166 19.5 -35.499
s13.334 -32 20.001 -53s13.667 -46.833 21 -77.5c2 12 4.83301 26.167 8.5 42.5s8.16699 33.333 13.5 51s11.666 35.5 18.999 53.5s16 34.333 26 49z" />
    <glyph glyph-name="uni06B5.medi" unicode="&#x6b5;" horiz-adv-x="512" 
d="M535 35c0 -23.333 -5.66602 -35.001 -16.999 -35.001h-24c-118.667 0 -201.334 39 -248.001 117c-47.333 -78 -123.333 -117 -228 -117h-23c-24 0 -36 11.667 -36 35v79c0 23.333 12 35 36 35h23c14 0 29.167 1 45.5 3s34.166 4.66699 53.499 8
c67.333 12.667 100 66 98 160l-23 822l98 103l19 -957c1.33301 -21.333 6.33301 -40.666 15 -57.999s21.667 -32.333 39 -45c32.667 -24 76.334 -36 131.001 -36h24c11.333 0 17 -11.667 17 -35v-79v0zM403.001 1608l-27.999 -29.0029
c-10.667 -11.333 -22.334 -27.666 -35.001 -48.999s-26.167 -49.166 -40.5 -83.499s-28.833 -77.833 -43.5 -130.5l-25 -3c-6 28.667 -14.5 57.167 -25.5 85.5s-23.5 55.166 -37.5 80.499s-29.167 48.5 -45.5 69.5s-33.5 38.5 -51.5 52.5l94 -7
c6 -7.33301 12.167 -15.666 18.5 -24.999s12.833 -21.166 19.5 -35.499s13.334 -32 20.001 -53s13.667 -46.833 21 -77.5c2 12 4.83301 26.167 8.5 42.5s8.16699 33.333 13.5 51s11.666 35.5 18.999 53.5s16 34.333 26 49z" />
    <glyph glyph-name="uni06B5.fina" unicode="&#x6b5;" horiz-adv-x="1228" 
d="M1069 1632l-27.999 -29.0029c-10.667 -11.333 -22.334 -27.666 -35.001 -48.999s-26.167 -49.166 -40.5 -83.499s-28.833 -77.833 -43.5 -130.5l-25 -3c-6 28.667 -14.5 57.167 -25.5 85.5s-23.5 55.166 -37.5 80.499s-29.167 48.5 -45.5 69.5s-33.5 38.5 -51.5 52.5
l94 -7c6 -7.33301 12.167 -15.666 18.5 -24.999s12.833 -21.166 19.5 -35.499s13.334 -32 20.001 -53s13.667 -46.833 21 -77.5c2 12 4.83301 26.167 8.5 42.5s8.16699 33.333 13.5 51s11.666 35.5 18.999 53.5s16 34.333 26 49zM1250 34.9971
c0 -23.333 -5.33594 -34.9971 -16.0029 -34.9971h-25c-75.333 0 -138 18.667 -188 56v-127c0 -144.667 -52.667 -257.334 -158 -338.001c-98.667 -74.667 -229.334 -112 -392.001 -112c-109.333 0 -195.666 23.333 -258.999 70c-72.667 54.667 -109 138.667 -109 252
c0 36.667 2.83301 72 8.5 106s14.5 66.667 26.5 98c24 65.333 49.667 98 77 98c11.333 0 18 -7.66699 20 -23c-1.33301 1.33301 -9 -17 -23 -55c-13.333 -44 -20 -93.333 -20 -148c0 -158.667 103 -238 309 -238c56 0 109 5.33301 159 16s98.333 26.667 145 48
c95.333 48 143 99.667 143 155c0 124 -5 293.167 -15 507.5s-25.333 473.166 -46 776.499l109 103l35 -973c0.666992 -18.667 5.33398 -35.667 14.001 -51s20.834 -28.333 36.501 -39s34.334 -18.834 56.001 -24.501s45.5 -8.5 71.5 -8.5h25c10.667 0 16 -11.667 16 -35v-79
v0z" />
    <glyph glyph-name="uni06B6.init" unicode="&#x6b6;" horiz-adv-x="421" 
d="M365 1012c0 -8.66699 -21.001 -5.66699 -63.001 9l11 -349v-325c0 -132.667 -26 -226 -78 -280c-43.333 -44.667 -115.666 -67 -216.999 -67h-23c-24 0 -36 11.667 -36 35v79c0 23.333 12 35 36 35h23c82 0 138.667 8 170 24c28.667 14.667 43 40.667 43 78
c0 19.333 -1 47.666 -3 84.999s-4.66699 83 -8 137l-44 651c0 6.66699 7 18 21 34l91 87l61 -173c5.33301 -16 9.33301 -29.167 12 -39.5s4 -17.166 4 -20.499zM203.999 1352l-105 106l105 107l102 -107z" />
    <glyph glyph-name="uni06B6.medi" unicode="&#x6b6;" horiz-adv-x="512" 
d="M535 35c0 -23.333 -5.66602 -35.001 -16.999 -35.001h-24c-118.667 0 -201.334 39 -248.001 117c-47.333 -78 -123.333 -117 -228 -117h-23c-24 0 -36 11.667 -36 35v79c0 23.333 12 35 36 35h23c14 0 29.167 1 45.5 3s34.166 4.66699 53.499 8
c67.333 12.667 100 66 98 160l-23 822l98 103l19 -957c1.33301 -21.333 6.33301 -40.666 15 -57.999s21.667 -32.333 39 -45c32.667 -24 76.334 -36 131.001 -36h24c11.333 0 17 -11.667 17 -35v-79v0zM216.001 1352l-105 106l105 107l102 -107z" />
    <glyph glyph-name="uni06B6.fina" unicode="&#x6b6;" horiz-adv-x="1228" 
d="M930 1334l-105 106l105 107l102 -107zM1250 35c0 -23.333 -5.33594 -34.9971 -16.0029 -34.9971h-25c-75.333 0 -138 18.667 -188 56v-127c0 -144.667 -52.667 -257.334 -158 -338.001c-98.667 -74.667 -229.334 -112 -392.001 -112
c-109.333 0 -195.666 23.333 -258.999 70c-72.667 54.667 -109 138.667 -109 252c0 36.667 2.83301 72 8.5 106s14.5 66.667 26.5 98c24 65.333 49.667 98 77 98c11.333 0 18 -7.66699 20 -23c-1.33301 1.33301 -9 -17 -23 -55c-13.333 -44 -20 -93.333 -20 -148
c0 -158.667 103 -238 309 -238c56 0 109 5.33301 159 16s98.333 26.667 145 48c95.333 48 143 99.667 143 155c0 124 -5 293.167 -15 507.5s-25.333 473.166 -46 776.499l109 103l35 -973c0.666992 -18.667 5.33398 -35.667 14.001 -51s20.834 -28.333 36.501 -39
s34.334 -18.834 56.001 -24.501s45.5 -8.5 71.5 -8.5h25c10.667 0 16 -11.667 16 -35v-79v0z" />
    <glyph glyph-name="uni06B7.init" unicode="&#x6b7;" horiz-adv-x="421" 
d="M365 1012c0 -8.66699 -21.001 -5.66699 -63.001 9l11 -349v-325c0 -132.667 -26 -226 -78 -280c-43.333 -44.667 -115.666 -67 -216.999 -67h-23c-24 0 -36 11.667 -36 35v79c0 23.333 12 35 36 35h23c82 0 138.667 8 170 24c28.667 14.667 43 40.667 43 78
c0 19.333 -1 47.666 -3 84.999s-4.66699 83 -8 137l-44 651c0 6.66699 7 18 21 34l91 87l61 -173c5.33301 -16 9.33301 -29.167 12 -39.5s4 -17.166 4 -20.499zM216.999 1543l-103 106l105 107l103 -107zM339.999 1327l-105 106l105 106l103 -106zM97.999 1327l-105 106
l105 106l103 -106z" />
    <glyph glyph-name="uni06B7.medi" unicode="&#x6b7;" horiz-adv-x="512" 
d="M535 35c0 -23.333 -5.66602 -35.001 -16.999 -35.001h-24c-118.667 0 -201.334 39 -248.001 117c-47.333 -78 -123.333 -117 -228 -117h-23c-24 0 -36 11.667 -36 35v79c0 23.333 12 35 36 35h23c14 0 29.167 1 45.5 3s34.166 4.66699 53.499 8
c67.333 12.667 100 66 98 160l-23 822l98 103l19 -957c1.33301 -21.333 6.33301 -40.666 15 -57.999s21.667 -32.333 39 -45c32.667 -24 76.334 -36 131.001 -36h24c11.333 0 17 -11.667 17 -35v-79v0zM218.001 1551l-103 106l105 107l103 -107zM341.001 1335l-105 106
l105 106l103 -106zM99.001 1335l-105 106l105 106l103 -106z" />
    <glyph glyph-name="uni06B7.fina" unicode="&#x6b7;" horiz-adv-x="1228" 
d="M905 1550l-103 106l105 107l103 -107zM1028 1334l-105 106l105 106l103 -106zM786 1334l-105 106l105 106l103 -106zM1250 35c0 -23.333 -5.33594 -34.9971 -16.0029 -34.9971h-25c-75.333 0 -138 18.667 -188 56v-127c0 -144.667 -52.667 -257.334 -158 -338.001
c-98.667 -74.667 -229.334 -112 -392.001 -112c-109.333 0 -195.666 23.333 -258.999 70c-72.667 54.667 -109 138.667 -109 252c0 36.667 2.83301 72 8.5 106s14.5 66.667 26.5 98c24 65.333 49.667 98 77 98c11.333 0 18 -7.66699 20 -23c-1.33301 1.33301 -9 -17 -23 -55
c-13.333 -44 -20 -93.333 -20 -148c0 -158.667 103 -238 309 -238c56 0 109 5.33301 159 16s98.333 26.667 145 48c95.333 48 143 99.667 143 155c0 124 -5 293.167 -15 507.5s-25.333 473.166 -46 776.499l109 103l35 -973c0.666992 -18.667 5.33398 -35.667 14.001 -51
s20.834 -28.333 36.501 -39s34.334 -18.834 56.001 -24.501s45.5 -8.5 71.5 -8.5h25c10.667 0 16 -11.667 16 -35v-79v0z" />
    <glyph glyph-name="uni06B8.init" unicode="&#x6b8;" horiz-adv-x="421" 
d="M365 1012c0 -8.66699 -21.001 -5.66699 -63.001 9l11 -349v-325c0 -132.667 -26 -226 -78 -280c-43.333 -44.667 -115.666 -67 -216.999 -67h-23c-24 0 -36 11.667 -36 35v79c0 23.333 12 35 36 35h23c82 0 138.667 8 170 24c28.667 14.667 43 40.667 43 78
c0 19.333 -1 47.666 -3 84.999s-4.66699 83 -8 137l-44 651c0 6.66699 7 18 21 34l91 87l61 -173c5.33301 -16 9.33301 -29.167 12 -39.5s4 -17.166 4 -20.499zM179.999 -391l103 -106l-103 -107l-104 107zM304.999 -175l103 -107l-103 -105l-105 105zM62.999 -175l103 -107
l-103 -105l-105 105z" />
    <glyph glyph-name="uni06B8.medi" unicode="&#x6b8;" horiz-adv-x="512" 
d="M535 35c0 -23.333 -5.66602 -35.001 -16.999 -35.001h-24c-118.667 0 -201.334 39 -248.001 117c-47.333 -78 -123.333 -117 -228 -117h-23c-24 0 -36 11.667 -36 35v79c0 23.333 12 35 36 35h23c14 0 29.167 1 45.5 3s34.166 4.66699 53.499 8
c67.333 12.667 100 66 98 160l-23 822l98 103l19 -957c1.33301 -21.333 6.33301 -40.666 15 -57.999s21.667 -32.333 39 -45c32.667 -24 76.334 -36 131.001 -36h24c11.333 0 17 -11.667 17 -35v-79v0zM235.001 -383.001l103 -106l-103 -107l-104 107zM360.001 -167.001
l103 -107l-103 -105l-105 105zM118.001 -167.001l103 -107l-103 -105l-105 105z" />
    <glyph glyph-name="uni06B8.fina" unicode="&#x6b8;" horiz-adv-x="1228" 
d="M484 -874l103 -106l-103 -107l-104 107zM609 -658l103 -107l-103 -105l-105 105zM367 -658l103 -107l-103 -105l-105 105zM1250 35c0 -23.333 -5.33594 -34.9971 -16.0029 -34.9971h-25c-75.333 0 -138 18.667 -188 56v-127c0 -144.667 -52.667 -257.334 -158 -338.001
c-98.667 -74.667 -229.334 -112 -392.001 -112c-109.333 0 -195.666 23.333 -258.999 70c-72.667 54.667 -109 138.667 -109 252c0 36.667 2.83301 72 8.5 106s14.5 66.667 26.5 98c24 65.333 49.667 98 77 98c11.333 0 18 -7.66699 20 -23c-1.33301 1.33301 -9 -17 -23 -55
c-13.333 -44 -20 -93.333 -20 -148c0 -158.667 103 -238 309 -238c56 0 109 5.33301 159 16s98.333 26.667 145 48c95.333 48 143 99.667 143 155c0 124 -5 293.167 -15 507.5s-25.333 473.166 -46 776.499l109 103l35 -973c0.666992 -18.667 5.33398 -35.667 14.001 -51
s20.834 -28.333 36.501 -39s34.334 -18.834 56.001 -24.501s45.5 -8.5 71.5 -8.5h25c10.667 0 16 -11.667 16 -35v-79v0z" />
    <glyph glyph-name="uni06B9.init" unicode="&#x6b9;" horiz-adv-x="413" 
d="M380 272c0 -104 -28.333 -176.001 -85 -216.001c-52 -37.333 -138.667 -56 -260 -56h-40c-24 0 -36 11.667 -36 35v79c0 23.333 12 35 36 35h23c189.333 0 284 23 284 69c0 48.667 -28.333 108.334 -85 179.001l68 151c63.333 -90 95 -182 95 -276zM194 663.999l-105 106
l105 107l102 -107zM178 -392.001l-105 106l105 107l102 -107z" />
    <glyph glyph-name="uni06B9.medi" unicode="&#x6b9;" horiz-adv-x="621" 
d="M643 35c0 -23.333 -5.66699 -34.999 -17 -34.999h-24c-34.667 0 -65.167 1.83301 -91.5 5.5s-48.166 10.167 -65.499 19.5c-40 17.333 -71.667 51.666 -95 102.999c-23.333 -48.667 -64.333 -83 -123 -103c-24 -9.33301 -53.333 -15.833 -88 -19.5s-75 -5.5 -121 -5.5
h-23c-24 0 -36 11.667 -36 35v79c0 23.333 12 35 36 35h139c111.333 0 174.666 67.667 189.999 203c0 18 8.33301 27 25 27c16 0 24 -9 24 -27c15.333 -135.333 78.333 -203 189 -203h64c11.333 0 17 -11.667 17 -35v-79v0zM345 572.001l-105 106l105 107l102 -107z
M334 -384.999l-105 106l105 107l102 -107z" />
    <glyph glyph-name="uni06B9.fina" unicode="&#x6b9;" horiz-adv-x="1256" 
d="M564 342l-105 106l105 107l102 -107zM575 -892l-105 106l105 107l102 -107zM1279 35c0 -23.333 -5.99902 -35.0029 -17.999 -35.0029h-23c-60.667 0 -114.334 7 -161.001 21c10 -36 15 -81.667 15 -137c0 -146 -67 -255 -201 -327c-108 -60 -246 -90 -414 -90
c-48 0 -92.667 6 -134 18s-79.333 30.667 -114 56c-42 31.333 -73.5 68.5 -94.5 111.5s-31.5 93.167 -31.5 150.5c0 42.667 4.16699 84.334 12.5 125.001s21.5 80 39.5 118c32 70 59.667 105 83 105c15.333 0 23 -7 23 -21c0 2 -11.667 -23.333 -35 -76
c-22.667 -51.333 -34 -105.333 -34 -162c0 -176.667 116.667 -265 350 -265c54 0 105.5 4.16699 154.5 12.5s97.167 20.5 144.5 36.5c124.667 44.667 187 108.667 187 192c0 38 -12 83.667 -36 137s-60.667 114.333 -110 183l76 144c18.667 -34 36.5 -62.667 53.5 -86
s34.5 -42.166 52.5 -56.499s36.833 -24.666 56.5 -30.999s41.5 -9.5 65.5 -9.5h75c12 0 18 -11.667 18 -35v-79v0z" />
    <glyph glyph-name="uni06BC.init" unicode="&#x6bc;" horiz-adv-x="413" 
d="M380 272c0 -104 -28.333 -176.001 -85 -216.001c-52 -37.333 -138.667 -56 -260 -56h-40c-24 0 -36 11.667 -36 35v79c0 23.333 12 35 36 35h23c189.333 0 284 23 284 69c0 48.667 -28.333 108.334 -85 179.001l68 151c63.333 -90 95 -182 95 -276zM168 670.999l-105 106
l105 107l102 -107zM298 -74.001c0 -22.667 -4.5 -43.999 -13.5 -63.999s-21 -37.333 -36 -52s-32.333 -26.334 -52 -35.001s-40.5 -13 -62.5 -13c-72 0 -108 36.667 -108 110c0 57.333 16 106 48 146c26.667 42 58 63 94 63c17.333 0 33.833 -4 49.5 -12
s29.5 -18.833 41.5 -32.5s21.5 -30 28.5 -49s10.5 -39.5 10.5 -61.5zM252 -107c0 28.667 -12.001 52.667 -36.001 72c-20.667 18.667 -43 28 -67 28c-10 0 -19.667 -2.33301 -29 -7s-17.666 -12.334 -24.999 -23.001c-12.667 -15.333 -19 -32.666 -19 -51.999
c0 -40.667 26 -61 78 -61c44 0 76.667 14.333 98 43z" />
    <glyph glyph-name="uni06BC.medi" unicode="&#x6bc;" horiz-adv-x="621" 
d="M643 35c0 -23.333 -5.66699 -34.999 -17 -34.999h-24c-34.667 0 -65.167 1.83301 -91.5 5.5s-48.166 10.167 -65.499 19.5c-40 17.333 -71.667 51.666 -95 102.999c-23.333 -48.667 -64.333 -83 -123 -103c-24 -9.33301 -53.333 -15.833 -88 -19.5s-75 -5.5 -121 -5.5
h-23c-24 0 -36 11.667 -36 35v79c0 23.333 12 35 36 35h139c111.333 0 174.666 67.667 189.999 203c0 18 8.33301 27 25 27c16 0 24 -9 24 -27c15.333 -135.333 78.333 -203 189 -203h64c11.333 0 17 -11.667 17 -35v-79v0zM329 583.001l-105 106l105 107l102 -107z
M289 -65.999c0 -22.667 -4.5 -43.999 -13.5 -63.999s-21 -37.333 -36 -52s-32.333 -26.334 -52 -35.001s-40.5 -13 -62.5 -13c-72 0 -108 36.667 -108 110c0 57.333 16 106 48 146c26.667 42 58 63 94 63c17.333 0 33.833 -4 49.5 -12s29.5 -18.833 41.5 -32.5
s21.5 -30 28.5 -49s10.5 -39.5 10.5 -61.5zM243 -98.998c0 28.667 -12.001 52.667 -36.001 72c-20.667 18.667 -43 28 -67 28c-10 0 -19.667 -2.33301 -29 -7s-17.666 -12.334 -24.999 -23.001c-12.667 -15.333 -19 -32.666 -19 -51.999c0 -40.667 26 -61 78 -61
c44 0 76.667 14.333 98 43z" />
    <glyph glyph-name="uni06BC.fina" unicode="&#x6bc;" horiz-adv-x="1256" 
d="M583 326l-105 106l105 107l102 -107zM1279 35c0 -23.333 -5.99902 -35.0029 -17.999 -35.0029h-23c-60.667 0 -114.334 7 -161.001 21c10 -36 15 -81.667 15 -137c0 -146 -67 -255 -201 -327c-108 -60 -246 -90 -414 -90c-48 0 -92.667 6 -134 18s-79.333 30.667 -114 56
c-42 31.333 -73.5 68.5 -94.5 111.5s-31.5 93.167 -31.5 150.5c0 42.667 4.16699 84.334 12.5 125.001s21.5 80 39.5 118c32 70 59.667 105 83 105c15.333 0 23 -7 23 -21c0 2 -11.667 -23.333 -35 -76c-22.667 -51.333 -34 -105.333 -34 -162
c0 -176.667 116.667 -265 350 -265c54 0 105.5 4.16699 154.5 12.5s97.167 20.5 144.5 36.5c124.667 44.667 187 108.667 187 192c0 38 -12 83.667 -36 137s-60.667 114.333 -110 183l76 144c18.667 -34 36.5 -62.667 53.5 -86s34.5 -42.166 52.5 -56.499
s36.833 -24.666 56.5 -30.999s41.5 -9.5 65.5 -9.5h75c12 0 18 -11.667 18 -35v-79v0zM699.001 -602.003c0 -22.667 -4.5 -43.999 -13.5 -63.999s-21 -37.333 -36 -52s-32.333 -26.334 -52 -35.001s-40.5 -13 -62.5 -13c-72 0 -108 36.667 -108 110c0 57.333 16 106 48 146
c26.667 42 58 63 94 63c17.333 0 33.833 -4 49.5 -12s29.5 -18.833 41.5 -32.5s21.5 -30 28.5 -49s10.5 -39.5 10.5 -61.5zM653.001 -635.002c0 28.667 -12.001 52.667 -36.001 72c-20.667 18.667 -43 28 -67 28c-10 0 -19.667 -2.33301 -29 -7
s-17.666 -12.334 -24.999 -23.001c-12.667 -15.333 -19 -32.666 -19 -51.999c0 -40.667 26 -61 78 -61c44 0 76.667 14.333 98 43z" />
    <glyph glyph-name="uni06BD.fina" unicode="&#x6bd;" horiz-adv-x="1256" 
d="M1279 35c0 -23.333 -5.99902 -35.0029 -17.999 -35.0029h-23c-60.667 0 -114.334 7 -161.001 21c10 -36 15 -81.667 15 -137c0 -146 -67 -255 -201 -327c-108 -60 -246 -90 -414 -90c-48 0 -92.667 6 -134 18s-79.333 30.667 -114 56c-42 31.333 -73.5 68.5 -94.5 111.5
s-31.5 93.167 -31.5 150.5c0 42.667 4.16699 84.334 12.5 125.001s21.5 80 39.5 118c32 70 59.667 105 83 105c15.333 0 23 -7 23 -21c0 2 -11.667 -23.333 -35 -76c-22.667 -51.333 -34 -105.333 -34 -162c0 -176.667 116.667 -265 350 -265c54 0 105.5 4.16699 154.5 12.5
s97.167 20.5 144.5 36.5c124.667 44.667 187 108.667 187 192c0 38 -12 83.667 -36 137s-60.667 114.333 -110 183l76 144c18.667 -34 36.5 -62.667 53.5 -86s34.5 -42.166 52.5 -56.499s36.833 -24.666 56.5 -30.999s41.5 -9.5 65.5 -9.5h75c12 0 18 -11.667 18 -35v-79v0z
M599.001 640.997l-103 106l105 107l103 -107zM722.001 424.997l-105 106l105 106l103 -106zM480.001 424.997l-105 106l105 106l103 -106z" />
    <glyph glyph-name="uni06BF.init" unicode="&#x6bf;" horiz-adv-x="1131" 
d="M1010 287l-67.002 -0.000976562c-29.333 0 -56.166 -1.83301 -80.499 -5.5s-47.166 -8.5 -68.499 -14.5c-25.333 -9.33301 -60.166 -24.333 -104.499 -45l-163.5 -80c-93.333 -48 -180.333 -83.667 -261 -107s-157.334 -35 -230.001 -35h-40c-24 0 -36 11.667 -36 35v79
c0 23.333 12 35 36 35h23c52 0 128 9 228 27c43.333 7.33301 102 24.833 176 52.5s165 65.834 273 114.501v9c-204.667 85.333 -337.334 128 -398.001 128c-43.333 0 -80 -14.667 -110 -44l-37 -31.5c-8.66699 -7.66699 -14.667 -11.5 -18 -11.5c-10 0 -15 6.33301 -15 19
c0 40 19.667 84.667 59 134c42 56 90 84 144 84c28.667 0 74.834 -11 138.501 -33s146.167 -55 247.5 -99c54 -23.333 111.833 -41.333 173.5 -54s128.167 -19.667 199.5 -21zM540.998 -338.001l103 -106l-103 -107l-104 107zM665.998 -122.001l103 -107l-103 -105l-105 105
zM423.998 -122.001l103 -107l-103 -105l-105 105zM546.998 767.999l-105 106l105 107l102 -107z" />
    <glyph glyph-name="uni06BF.medi" unicode="&#x6bf;" horiz-adv-x="1137" 
d="M1159 35c0 -23.333 -5.66602 -34.998 -16.999 -34.998h-24c-204.667 0 -307 71.667 -307 215c0 48 3 85 9 111c-59.333 -24 -171.333 -86 -336 -186c-75.333 -47.333 -151.833 -82.5 -229.5 -105.5s-156.5 -34.5 -236.5 -34.5h-23c-24 0 -36 11.667 -36 35v79
c0 23.333 12 35 36 35h23c110.667 0 227 23.667 349 71c36.667 14 81.5 34.333 134.5 61l188.5 98v9c-116 31.333 -207.667 54.5 -275 69.5s-110.666 22.5 -129.999 22.5c-42.667 0 -79 -14.667 -109 -44l-38 -31.5c-9.33301 -7.66699 -15 -11.5 -17 -11.5
c-10 0 -15 6.33301 -15 19c0 40 19.333 84.667 58 134c42.667 56 91 84 145 84c25.333 0 53 -2.83301 83 -8.5s62.333 -14.834 97 -27.501l132.5 -44.5c33.667 -11 57.167 -18.167 70.5 -21.5c47.333 -12.667 96.166 -21.834 146.499 -27.501s103.166 -8.5 158.499 -8.5h90
l-61 -143c-39.333 6.66699 -89.333 4.66699 -150 -6l-1 -55c-5.33301 -92.667 62.667 -139 204 -139h63c11.333 0 17 -11.667 17 -35v-79v0zM550.001 -347.998l103 -106l-103 -107l-104 107zM675.001 -131.998l103 -107l-103 -105l-105 105zM433.001 -131.998l103 -107
l-103 -105l-105 105zM615.001 759.002l-105 106l105 107l102 -107z" />
    <glyph glyph-name="uni06BF.fina" unicode="&#x6bf;" horiz-adv-x="1154" 
d="M1176 35c0 -23.333 -5.66895 -35.002 -17.002 -35.002h-80c-56.667 0 -104.334 5.16699 -143.001 15.5s-69.667 25.166 -93 44.499c-42.667 34.667 -64 94 -64 178c0 16 0.833008 33.333 2.5 52s3.83398 38.667 6.50098 60c-76 -18.667 -145.167 -41 -207.5 -67
s-118.5 -56.333 -168.5 -91c-134.667 -91.333 -202 -198.666 -202 -321.999c0 -207.333 177.333 -311 532 -311c36 0 74.333 2.16699 115 6.5s84 10.5 130 18.5l95 17.5c20.667 3.66699 30.334 6.16699 29.001 7.5c4 0 6 -3 6 -9c0 -25.333 -38 -59 -114 -101
c-96 -56 -205.667 -84 -329 -84c-370.667 0 -555 135.333 -553 406c2 256.667 169.667 447.334 503 572.001v9c-68 10.667 -128.333 18.334 -181 23.001s-97.334 7 -134.001 7c-42 0 -78.667 -14.667 -110 -44c-32 -30 -49.667 -45 -53 -45c-10.667 0 -16 6 -16 18
c0 42 19.333 87.667 58 137c43.333 55.333 92 83 146 83c28 0 64.167 -2.66699 108.5 -8s97.5 -13.666 159.5 -24.999c127.333 -22 217.333 -34 270 -36l194 -3l-61 -142l-161 -8l-2 -29c-0.666992 -9.33301 -1 -18 -1 -26c0 -61.333 19.667 -103 59 -125
c18.667 -10.667 44.334 -18.334 77.001 -23.001s72.334 -7 119.001 -7h63c11.333 0 17 -11.667 17 -35v-79v0zM563.998 -154.002l103 -106l-103 -107l-104 107zM688.998 61.998l103 -107l-103 -105l-105 105zM446.998 61.998l103 -107l-103 -105l-105 105zM585.998 739.998
l-105 106l105 107l102 -107z" />
    <glyph glyph-name="uni06C4.fina" unicode="&#x6c4;" horiz-adv-x="727" 
d="M749 35c0 -23.333 -5.33008 -34.999 -15.9971 -34.999h-144c0 -94.667 -37.333 -204 -112 -328c-23.333 -38 -44.833 -69.667 -64.5 -95s-37.5 -44 -53.5 -56c-23.333 -17.333 -56.666 -26 -99.999 -26c-24.667 0 -50.334 0.833008 -77.001 2.5
s-55.334 3.83398 -86.001 6.50098c-64 6 -96 13 -96 21c0 7.33301 9.33301 13.333 28 18c130.667 36 242.334 99 335.001 189c53.333 50 94.666 102.667 123.999 158c22 42.667 33 75.667 33 99v16c-14 -1.33301 -31.5 -2.5 -52.5 -3.5s-45.833 -1.5 -74.5 -1.5
c-42.667 0 -79 3 -109 9s-54.333 15.667 -73 29s-32.167 30.666 -40.5 51.999s-12.5 47 -12.5 77c0 38 4.66699 75 14 111s22.666 72 39.999 108c22 40 45.667 70.167 71 90.5s53.333 30.5 84 30.5c63.333 0 114.666 -36.667 153.999 -110
c36.667 -64.667 60 -147.334 70 -248.001h142c10.667 0 16 -11.667 16 -35v-79zM501.003 149.001c-0.666992 23.333 -5.16699 46.5 -13.5 69.5s-19.833 45.167 -34.5 66.5c-32 48.667 -66.667 73 -104 73c-15.333 0 -29.833 -2.83301 -43.5 -8.5s-25.5 -13.667 -35.5 -24
s-18 -22.5 -24 -36.5s-9 -29 -9 -45c0 -63.333 52.667 -95 158 -95h106zM385.003 -577.999c0 -22.667 -4.5 -43.999 -13.5 -63.999s-21 -37.333 -36 -52s-32.333 -26.334 -52 -35.001s-40.5 -13 -62.5 -13c-72 0 -108 36.667 -108 110c0 57.333 16 106 48 146
c26.667 42 58 63 94 63c17.333 0 33.833 -4 49.5 -12s29.5 -18.833 41.5 -32.5s21.5 -30 28.5 -49s10.5 -39.5 10.5 -61.5zM339.003 -610.998c0 28.667 -12.001 52.667 -36.001 72c-20.667 18.667 -43 28 -67 28c-10 0 -19.667 -2.33301 -29 -7
s-17.666 -12.334 -24.999 -23.001c-12.667 -15.333 -19 -32.666 -19 -51.999c0 -40.667 26 -61 78 -61c44 0 76.667 14.333 98 43z" />
    <glyph glyph-name="uni06CA.fina" unicode="&#x6ca;" horiz-adv-x="727" 
d="M749 3c0 -23.333 -5.33008 -34.999 -15.9971 -34.999h-144c0 -94.667 -37.333 -204 -112 -328c-23.333 -38 -44.833 -69.667 -64.5 -95s-37.5 -44 -53.5 -56c-23.333 -17.333 -56.666 -26 -99.999 -26c-24.667 0 -50.334 0.833008 -77.001 2.5
s-55.334 3.83398 -86.001 6.50098c-64 6 -96 13 -96 21c0 7.33301 9.33301 13.333 28 18c130.667 36 242.334 99 335.001 189c53.333 50 94.666 102.667 123.999 158c22 42.667 33 75.667 33 99v16c-14 -1.33301 -31.5 -2.5 -52.5 -3.5s-45.833 -1.5 -74.5 -1.5
c-42.667 0 -79 3 -109 9s-54.333 15.667 -73 29s-32.167 30.666 -40.5 51.999s-12.5 47 -12.5 77c0 38 4.66699 75 14 111s22.666 72 39.999 108c22 40 45.667 70.167 71 90.5s53.333 30.5 84 30.5c63.333 0 114.666 -36.667 153.999 -110
c36.667 -64.667 60 -147.334 70 -248.001h142c10.667 0 16 -11.667 16 -35v-79zM501.003 117.001c-0.666992 23.333 -5.16699 46.5 -13.5 69.5s-19.833 45.167 -34.5 66.5c-32 48.667 -66.667 73 -104 73c-15.333 0 -29.833 -2.83301 -43.5 -8.5s-25.5 -13.667 -35.5 -24
s-18 -22.5 -24 -36.5s-9 -29 -9 -45c0 -63.333 52.667 -95 158 -95h106zM485.003 635.001l-103 104l101 100l103 -100zM243.003 635.001l-103 104l101 100l102 -100z" />
    <glyph glyph-name="uni06CD.fina" unicode="&#x6cd;" horiz-adv-x="1323" 
d="M1370 35c0 -23.333 -5.66699 -34.9951 -17 -34.9951h-125c-286.667 0 -430 -27.333 -430 -82c0 -20.667 62 -39.334 186 -56.001c46 -5.33301 83.667 -11.333 113 -18s50 -14.334 62 -23.001c10 -6.66699 17.833 -16.834 23.5 -30.501s7.83398 -30.834 6.50098 -51.501
c-6 -223.333 -227 -335 -663 -335c-120.667 0 -218.334 25.333 -293.001 76c-86.667 58 -130 144.333 -130 259c0 42.667 4.16699 84.5 12.5 125.5s21.5 80.833 39.5 119.5l18 37l-2 -1l-212 -70l14 58l247 73c6.66699 4 12.667 6 18 6c15.333 0 23 -6.66699 23 -20
c0 2 -11.667 -23.333 -35 -76c-22.667 -52 -34 -106 -34 -162c0 -103.333 39 -176 117 -218c66.667 -39.333 173 -59 319 -59c68 0 130.667 3.83301 188 11.5s110.666 19.167 159.999 34.5c92 27.333 137 57 135 89c0 14 -35 25.667 -105 35
c-48.667 7.33301 -89.167 14.5 -121.5 21.5s-56.166 13.167 -71.499 18.5c-70 20.667 -105 52.667 -105 96c0 55.333 27.333 111.333 82 168c53.333 56 111.333 90 174 102c32 7.33301 78.5 12.666 139.5 15.999s136.167 5 225.5 5h24c11.333 0 17 -11.667 17 -35v-79v0z
" />
    <glyph glyph-name="uni06CE.init" unicode="&#x6ce;" horiz-adv-x="449" 
d="M380 272c0 -104 -28.333 -176.001 -85 -216.001c-52 -37.333 -138.667 -56 -260 -56h-40c-24 0 -36 11.667 -36 35v79c0 23.333 12 35 36 35h23c189.333 0 284 23 284 69c0 48.667 -28.333 108.334 -85 179.001l68 151c63.333 -90 95 -182 95 -276zM354 938.999
l-27.999 -29.0029c-10.667 -11.333 -22.334 -27.666 -35.001 -48.999s-26.167 -49.166 -40.5 -83.499s-28.833 -77.833 -43.5 -130.5l-25 -3c-6 28.667 -14.5 57.167 -25.5 85.5s-23.5 55.166 -37.5 80.499s-29.167 48.5 -45.5 69.5s-33.5 38.5 -51.5 52.5l94 -7
c6 -7.33301 12.167 -15.666 18.5 -24.999s12.833 -21.166 19.5 -35.499s13.334 -32 20.001 -53s13.667 -46.833 21 -77.5c2 12 4.83301 26.167 8.5 42.5s8.16699 33.333 13.5 51s11.666 35.5 18.999 53.5s16 34.333 26 49zM331.001 -396.004l-103 104l101 100l103 -100z
M89.001 -396.004l-103 104l101 100l102 -100z" />
    <glyph glyph-name="uni06CE.medi" unicode="&#x6ce;" horiz-adv-x="621" 
d="M643 35c0 -23.333 -5.66699 -34.999 -17 -34.999h-24c-34.667 0 -65.167 1.83301 -91.5 5.5s-48.166 10.167 -65.499 19.5c-40 17.333 -71.667 51.666 -95 102.999c-23.333 -48.667 -64.333 -83 -123 -103c-24 -9.33301 -53.333 -15.833 -88 -19.5s-75 -5.5 -121 -5.5
h-23c-24 0 -36 11.667 -36 35v79c0 23.333 12 35 36 35h139c111.333 0 174.666 67.667 189.999 203c0 18 8.33301 27 25 27c16 0 24 -9 24 -27c15.333 -135.333 78.333 -203 189 -203h64c11.333 0 17 -11.667 17 -35v-79v0zM514 856.001l-27.999 -29.0029
c-10.667 -11.333 -22.334 -27.666 -35.001 -48.999s-26.167 -49.166 -40.5 -83.499s-28.833 -77.833 -43.5 -130.5l-25 -3c-6 28.667 -14.5 57.167 -25.5 85.5s-23.5 55.166 -37.5 80.499s-29.167 48.5 -45.5 69.5s-33.5 38.5 -51.5 52.5l94 -7
c6 -7.33301 12.167 -15.666 18.5 -24.999s12.833 -21.166 19.5 -35.499s13.334 -32 20.001 -53s13.667 -46.833 21 -77.5c2 12 4.83301 26.167 8.5 42.5s8.16699 33.333 13.5 51s11.666 35.5 18.999 53.5s16 34.333 26 49zM443.001 -381.002l-103 104l101 100l103 -100z
M201.001 -381.002l-103 104l101 100l102 -100z" />
    <glyph glyph-name="uni06CE.fina" unicode="&#x6ce;" horiz-adv-x="1348" 
d="M1370 35c0 -23.333 -5.66699 -34.9951 -17 -34.9951h-125c-286.667 0 -430 -27.333 -430 -82c0 -20.667 62 -39.334 186 -56.001c46 -5.33301 83.667 -11.333 113 -18s50 -14.334 62 -23.001c10 -6.66699 17.833 -16.834 23.5 -30.501s7.83398 -30.834 6.50098 -51.501
c-6 -223.333 -227 -335 -663 -335c-120.667 0 -218.334 25.333 -293.001 76c-86.667 58 -130 144.333 -130 259c0 42.667 4.16699 84.5 12.5 125.5s21.5 80.833 39.5 119.5c32 68.667 59.667 103 83 103c15.333 0 23 -6.66699 23 -20c0 2 -11.667 -23.333 -35 -76
c-22.667 -52 -34 -106 -34 -162c0 -103.333 39 -176 117 -218c66.667 -39.333 173 -59 319 -59c68 0 130.667 3.83301 188 11.5s110.666 19.167 159.999 34.5c92 27.333 137 57 135 89c0 14 -35 25.667 -105 35c-48.667 7.33301 -89.167 14.5 -121.5 21.5
s-56.166 13.167 -71.499 18.5c-70 20.667 -105 52.667 -105 96c0 55.333 27.333 111.333 82 168c53.333 56 111.333 90 174 102c32 7.33301 78.5 12.666 139.5 15.999s136.167 5 225.5 5h24c11.333 0 17 -11.667 17 -35v-79v0zM678 580.005l-27.999 -29.0029
c-10.667 -11.333 -22.334 -27.666 -35.001 -48.999s-26.167 -49.166 -40.5 -83.499s-28.833 -77.833 -43.5 -130.5l-25 -3c-6 28.667 -14.5 57.167 -25.5 85.5s-23.5 55.166 -37.5 80.499s-29.167 48.5 -45.5 69.5s-33.5 38.5 -51.5 52.5l94 -7
c6 -7.33301 12.167 -15.666 18.5 -24.999s12.833 -21.166 19.5 -35.499s13.334 -32 20.001 -53s13.667 -46.833 21 -77.5c2 12 4.83301 26.167 8.5 42.5s8.16699 33.333 13.5 51s11.666 35.5 18.999 53.5s16 34.333 26 49z" />
    <glyph glyph-name="uni06CF.fina" unicode="&#x6cf;" horiz-adv-x="727" 
d="M749 35c0 -23.333 -5.33008 -34.999 -15.9971 -34.999h-144c0 -94.667 -37.333 -204 -112 -328c-23.333 -38 -44.833 -69.667 -64.5 -95s-37.5 -44 -53.5 -56c-23.333 -17.333 -56.666 -26 -99.999 -26c-24.667 0 -50.334 0.833008 -77.001 2.5
s-55.334 3.83398 -86.001 6.50098c-64 6 -96 13 -96 21c0 7.33301 9.33301 13.333 28 18c130.667 36 242.334 99 335.001 189c53.333 50 94.666 102.667 123.999 158c22 42.667 33 75.667 33 99v16c-14 -1.33301 -31.5 -2.5 -52.5 -3.5s-45.833 -1.5 -74.5 -1.5
c-42.667 0 -79 3 -109 9s-54.333 15.667 -73 29s-32.167 30.666 -40.5 51.999s-12.5 47 -12.5 77c0 38 4.66699 75 14 111s22.666 72 39.999 108c22 40 45.667 70.167 71 90.5s53.333 30.5 84 30.5c63.333 0 114.666 -36.667 153.999 -110
c36.667 -64.667 60 -147.334 70 -248.001h142c10.667 0 16 -11.667 16 -35v-79zM501.003 149.001c-0.666992 23.333 -5.16699 46.5 -13.5 69.5s-19.833 45.167 -34.5 66.5c-32 48.667 -66.667 73 -104 73c-15.333 0 -29.833 -2.83301 -43.5 -8.5s-25.5 -13.667 -35.5 -24
s-18 -22.5 -24 -36.5s-9 -29 -9 -45c0 -63.333 52.667 -95 158 -95h106zM357.003 662.001l-105 106l105 107l102 -107z" />
    <glyph glyph-name="uni06D1.fina" unicode="&#x6d1;" horiz-adv-x="1348" 
d="M563 -916l103 -106l-103 -107l-104 107zM688 -700l103 -107l-103 -105l-105 105zM446 -700l103 -107l-103 -105l-105 105zM1370 35c0 -23.333 -5.66699 -34.9951 -17 -34.9951h-125c-286.667 0 -430 -27.333 -430 -82c0 -20.667 62 -39.334 186 -56.001
c46 -5.33301 83.667 -11.333 113 -18s50 -14.334 62 -23.001c10 -6.66699 17.833 -16.834 23.5 -30.501s7.83398 -30.834 6.50098 -51.501c-6 -223.333 -227 -335 -663 -335c-120.667 0 -218.334 25.333 -293.001 76c-86.667 58 -130 144.333 -130 259
c0 42.667 4.16699 84.5 12.5 125.5s21.5 80.833 39.5 119.5c32 68.667 59.667 103 83 103c15.333 0 23 -6.66699 23 -20c0 2 -11.667 -23.333 -35 -76c-22.667 -52 -34 -106 -34 -162c0 -103.333 39 -176 117 -218c66.667 -39.333 173 -59 319 -59
c68 0 130.667 3.83301 188 11.5s110.666 19.167 159.999 34.5c92 27.333 137 57 135 89c0 14 -35 25.667 -105 35c-48.667 7.33301 -89.167 14.5 -121.5 21.5s-56.166 13.167 -71.499 18.5c-70 20.667 -105 52.667 -105 96c0 55.333 27.333 111.333 82 168
c53.333 56 111.333 90 174 102c32 7.33301 78.5 12.666 139.5 15.999s136.167 5 225.5 5h24c11.333 0 17 -11.667 17 -35v-79v0z" />
    <glyph glyph-name="uni06FA.init" unicode="&#x6fa;" horiz-adv-x="1174" 
d="M1090 272c0 -82 -19.666 -146.667 -58.999 -194c-44 -52 -107.333 -78 -190 -78c-76 0 -133.333 39.667 -172 119c-46.667 -79.333 -115 -119 -205 -119c-31.333 -0 -60.5 9.83301 -87.5 29.5s-53.167 49.5 -78.5 89.5c-59.333 -79.333 -152.666 -119 -279.999 -119h-23
c-24 0 -36 11.667 -36 35v79c0 23.333 12 35 36 35h50c151.333 0 227 59.667 227 179c0 17.333 8.33301 26 25 26c15.333 0 23 -8.66699 23 -26c0 -119.333 54.667 -179 164 -179c108.667 0 163 59.667 163 179c0 17.333 8 26 24 26s24 -8.66699 24 -26
c0 -46 9.33301 -84.667 28 -116c23.333 -42 60.666 -63 111.999 -63c25.333 0 48.666 1.83301 69.999 5.5s41 9.16699 59 16.5c32 16 48 31.667 48 47c0 55.333 -28.667 115 -86 179l70 151c62.667 -92 94 -184 94 -276zM620.001 804l-103 106l105 107l103 -107z
M743.001 588l-105 106l105 106l103 -106zM501.001 588l-105 106l105 106l103 -106zM630.001 -428l-105 106l105 107l102 -107z" />
    <glyph glyph-name="uni06FA.medi" unicode="&#x6fa;" horiz-adv-x="1238" 
d="M1259 35c0 -23.333 -5.33203 -34.999 -15.999 -34.999h-25c-90.667 0 -158.667 38 -204 114c-25.333 -38.667 -52.5 -67.334 -81.5 -86.001s-59.5 -28 -91.5 -28c-76 0 -133.333 39.667 -172 119c-46.667 -79.333 -115 -119 -205 -119
c-31.333 -0 -60.5 9.83301 -87.5 29.5s-53.167 49.5 -78.5 89.5c-59.333 -79.333 -153.333 -119 -282 -119h-21c-24 0 -36 11.667 -36 35v79c0 23.333 12 35 36 35h50c151.333 0 227 59.667 227 179c0 17.333 8.33301 26 25 26c15.333 0 23 -8.66699 23 -26
c0 -119.333 54.667 -179 164 -179c108.667 0 163 59.667 163 179c0 17.333 8 26 24 26s24 -8.66699 24 -26c0 -46 9.33301 -84.667 28 -116c23.333 -42 60.666 -63 111.999 -63c106 0 159 59.667 159 179c0 17.333 7.66699 26 23 26c16.667 0 25 -8.66699 25 -26
c0 -119.333 59.333 -179 178 -179h23c10.667 0 16 -11.667 16 -35v-79v0zM644.001 771.001l-103 106l105 107l103 -107zM767.001 555.001l-105 106l105 106l103 -106zM525.001 555.001l-105 106l105 106l103 -106zM653.001 -419.999l-105 106l105 107l102 -107z" />
    <glyph glyph-name="uni06FA.fina" unicode="&#x6fa;" horiz-adv-x="1924" 
d="M1946 35c0 -23.333 -5.66992 -35.002 -17.0029 -35.002h-24c-91.333 0 -159.666 38 -204.999 114c-47.333 -76 -105.333 -114 -174 -114c-75.333 0 -132.333 39.667 -171 119c-45.333 -79.333 -113.666 -119 -204.999 -119c-31.333 0 -56.666 4.33301 -75.999 13
c2 -22 3 -56 3 -102c0 -168 -76.333 -290 -229 -366c-103.333 -52 -227 -78 -371 -78c-48 0 -92.667 6 -134 18s-79.333 30.667 -114 56c-42 31.333 -73.5 68.5 -94.5 111.5s-31.5 93.167 -31.5 150.5c0 42.667 4.16699 84.334 12.5 125.001s21.5 80 39.5 118
c32 70 59.667 105 83 105c15.333 0 23 -7 23 -21c0 2 -11.667 -23.333 -35 -76c-22.667 -51.333 -34 -105.333 -34 -162c0 -176.667 116.667 -265 350 -265c48.667 0 97 4.66699 145 14s96 22.666 144 39.999c122 46.667 183 109 183 187c0 46 -9.33301 90 -28 132
c-20.667 46 -60.667 108.667 -120 188l77 144c18.667 -34 36.5 -62.667 53.5 -86s34.333 -42.166 52 -56.499s36.334 -24.666 56.001 -30.999s41.5 -9.5 65.5 -9.5c108 0 162 59.667 162 179c0 17.333 8.33301 26 25 26c16 0 24 -8.66699 24 -26
c0 -46 9.33301 -84.667 28 -116c23.333 -42 60.666 -63 111.999 -63c105.333 0 158 59.667 158 179c0 17.333 8.33301 26 25 26c15.333 0 23 -8.66699 23 -26c0 -119.333 59.333 -179 178 -179h24c11.333 0 17 -11.667 17 -35v-79v0zM1322 740.998l-103 106l105 107
l103 -107zM1445 524.998l-105 106l105 106l103 -106zM1203 524.998l-105 106l105 106l103 -106zM1327 -427.002l-105 106l105 107l102 -107z" />
    <glyph glyph-name="uni06FB.init" unicode="&#x6fb;" horiz-adv-x="1336" 
d="M1252 347c0 -120.667 -66.335 -211.332 -199.002 -271.999c-110 -50 -249.333 -75 -418 -75c-57.333 0 -105.666 1.83301 -144.999 5.5s-69.666 9.5 -90.999 17.5c-43.333 16 -77 48 -101 96c-59.333 -79.333 -152.666 -119 -279.999 -119h-23c-24 0 -36 11.667 -36 35
v79c0 23.333 12 35 36 35h50c151.333 0 227 59.667 227 179c0 17.333 8.33301 26 25 26c17.333 0 25 -8.66699 23 -26c-2 -48.667 9.33301 -88.667 34 -120c11.333 -14.667 24 -26.167 38 -34.5s30 -13.833 48 -16.5c78.667 77.333 146.667 141.166 204 191.499
s104 87.5 140 111.5c88 60 175.333 90 262 90c30 0 57.667 -4.83301 83 -14.5s47.166 -23.5 65.499 -41.5s32.5 -39.5 42.5 -64.5s15 -52.5 15 -82.5zM1163 285.002c0 32.667 -19.332 62 -57.999 88c-39.333 27.333 -84 41 -134 41c-76.667 0 -177.334 -49 -302.001 -147
c-82 -66 -123 -101.667 -123 -107c0 -7.33301 22.333 -11 67 -11c366.667 0 550 45.333 550 136zM553.999 649.002l-105 106l105 107l102 -107zM553.999 -423.998l-105 106l105 107l102 -107z" />
    <glyph glyph-name="uni06FB.medi" unicode="&#x6fb;" horiz-adv-x="1346" 
d="M1368 35c0 -23.333 -5.66699 -34.999 -17 -34.999h-24c-82 0 -159 7 -231 21c-29.333 5.33301 -55 9.33301 -77 12s-41 4 -57 4c-3.33301 0 -14.333 -1.33301 -33 -4s-46.334 -7.66699 -83.001 -15c-36 -6.66699 -71.5 -11.334 -106.5 -14.001s-69.833 -4 -104.5 -4
c-57.333 -0 -105.666 1.83301 -144.999 5.5s-69.666 9.5 -90.999 17.5c-43.333 16 -77 48 -101 96c-59.333 -79.333 -152.666 -119 -279.999 -119h-23c-24 0 -36 11.667 -36 35v79c0 23.333 12 35 36 35h50c151.333 0 227 59.667 227 179c0 17.333 8.33301 26 25 26
c17.333 0 25 -8.66699 23 -26c-2 -48.667 9.33301 -88.667 34 -120c11.333 -14.667 24 -26.167 38 -34.5s30 -13.833 48 -16.5c78.667 77.333 146.667 141.166 204 191.499s104 87.5 140 111.5c88 60 175.333 90 262 90c30 0 57.667 -4.83301 83 -14.5
s47.166 -23.5 65.499 -41.5s32.5 -39.5 42.5 -64.5s15 -52.5 15 -82.5c0 -57.333 -30.333 -125.666 -91 -204.999c23.333 4.66699 50.666 7 81.999 7h108c11.333 0 17 -11.667 17 -35v-79zM1163 285.001c0 32.667 -19.332 62 -57.999 88c-39.333 27.333 -84 41 -134 41
c-76.667 0 -177.334 -49 -302.001 -147c-82 -66 -123 -101.667 -123 -107c0 -7.33301 22.333 -11 67 -11c366.667 0 550 45.333 550 136zM572.001 617.001l-105 106l105 107l102 -107zM552.001 -399.999l-105 106l105 107l102 -107z" />
    <glyph glyph-name="uni06FB.fina" unicode="&#x6fb;" horiz-adv-x="1977" 
d="M2000 35c0 -23.333 -5.66309 -35.001 -16.9961 -35.001h-25c-81.333 0 -158.333 7 -231 21c-28.667 5.33301 -54.167 9.33301 -76.5 12s-41.5 4 -57.5 4c-2.66699 0 -13.334 -1.33301 -32.001 -4s-46.334 -7.66699 -83.001 -15
c-36 -6.66699 -71.5 -11.334 -106.5 -14.001s-69.5 -4 -103.5 -4c-38 0 -73.167 2.83301 -105.5 8.5s-61.833 14.167 -88.5 25.5c2 -29.333 3 -70.333 3 -123c0 -168 -76.333 -290 -229 -366c-103.333 -52 -227 -78 -371 -78c-48 0 -92.667 6 -134 18
s-79.333 30.667 -114 56c-42 31.333 -73.5 68.5 -94.5 111.5s-31.5 93.167 -31.5 150.5c0 42.667 4.16699 84.334 12.5 125.001s21.5 80 39.5 118c32 70 59.667 105 83 105c15.333 0 23 -7 23 -21c0 2 -11.667 -23.333 -35 -76c-22.667 -51.333 -34 -105.333 -34 -162
c0 -176.667 116.667 -265 350 -265c48.667 0 97 4.66699 145 14s96 22.666 144 39.999c122 46.667 183 109 183 187c0 39.333 -12.167 85.333 -36.5 138s-61.5 113.334 -111.5 182.001l77 144c35.333 -56.667 84.333 -104 147 -142c133.333 131.333 244 224 332 278
c45.333 26.667 89.166 47 131.499 61s83.5 21 123.5 21c30 0 57.833 -4.83301 83.5 -14.5s47.667 -23.5 66 -41.5s32.666 -39.5 42.999 -64.5s15.5 -52.5 15.5 -82.5c0 -57.333 -30.667 -125.666 -92 -204.999c12 2.66699 24.833 4.5 38.5 5.5s28.167 1.5 43.5 1.5h108
c11.333 0 17 -11.667 17 -35v-79zM1795 284.999c0 32.667 -18.667 62 -56 88c-39.333 27.333 -84.666 41 -135.999 41c-76.667 0 -177.334 -49 -302.001 -147c-82 -65.333 -123 -101 -123 -107c0 -7.33301 22.333 -11 67 -11c366.667 0 550 45.333 550 136zM1310 644.999
l-105 106l105 107l102 -107zM1323 -450.001l-105 106l105 107l102 -107z" />
    <glyph glyph-name="uni06FC.init" unicode="&#x6fc;" horiz-adv-x="827" 
d="M723 158c-309.333 -105.333 -544.334 -158.001 -705.001 -158.001h-23c-24 0 -36 11.667 -36 35v79c0 23.333 12 35 36 35h23c19.333 0 46.333 1.5 81 4.5s77.334 7.16699 128.001 12.5v10c-72 42 -108 102 -108 180c0 70.667 33 142.667 99 216
c70 80 149.667 120 239 120c48 0 95.667 -20.667 143 -62c48 -38 72 -78.333 72 -121c0 -2.66699 -1.66699 -4 -5 -4l-75 21c-48.667 14.667 -95.667 22 -141 22c-50 0 -97.667 -11.333 -143 -34c-56 -24.667 -84 -56.667 -84 -96c0 -41.333 29.667 -85.666 89 -132.999
c55.333 -44.667 103.333 -67 144 -67c58.667 0 164.667 26.333 318 79zM392.999 845.999l-105 106l105 107l102 -107zM396.999 -386.001l-105 106l105 107l102 -107z" />
    <glyph glyph-name="uni06FC.medi" unicode="&#x6fc;" horiz-adv-x="720" 
d="M742 35c0 -23.333 -5.66797 -35.002 -17.001 -35.002h-24c-124 0 -228.333 41 -313 123c-91.333 -82 -214.666 -123 -369.999 -123h-23c-24 0 -36 11.667 -36 35v79c0 23.333 12 35 36 35h23c60 0 124 8 192 24c68.667 16.667 103 33 103 49
c0 26.667 -39 67.667 -117 123c-4 2.66699 -9 5.33398 -15 8.00098s-13.667 5.33398 -23 8.00098c0 47.333 16.667 86 50 116c40.667 35.333 97.667 53 171 53c142 -2 213 -46.333 213 -133c0 -24 -19.667 -58.667 -59 -104c-40 -45.333 -60 -70.333 -60 -75
c0 -14 27.333 -29.667 82 -47c25.333 -7.33301 47 -12.833 65 -16.5s32 -5.5 42 -5.5h63c11.333 0 17 -11.667 17 -35v-79v0zM371.999 680.998l-105 106l105 107l102 -107zM370.999 -380.002l-105 106l105 107l102 -107z" />
    <glyph glyph-name="uni06FC.fina" unicode="&#x6fc;" horiz-adv-x="1085" 
d="M1107 35c0 -23.333 -5.66895 -35.002 -17.002 -35.002h-24c-137.333 0 -249 21.333 -335 64c-32 15.333 -65.333 37 -100 65s-71.334 62 -110.001 102c-219.333 -103.333 -329 -223.666 -329 -360.999c0 -110 50.333 -192.333 151 -247
c81.333 -42.667 189.333 -64 324 -64c46 0 90.333 1.83301 133 5.5s84.334 9.5 125.001 17.5c73.333 16 110 24.333 110 25c4.66699 0 7 -2 7 -6c0 -26 -38 -61.333 -114 -106c-94 -53.333 -203.333 -80 -328 -80c-151.333 0 -268.666 30.333 -351.999 91
c-96.667 68.667 -145 173.667 -145 315c0 90.667 29.667 175.667 89 255c21.333 27.333 45.833 54 73.5 80s58.834 51.667 93.501 77c60.667 40.667 91 60.667 91 60c0 19.333 -39.333 56.333 -118 111c-5.33301 3.33301 -10.833 6.33301 -16.5 9
s-12.5 5.33398 -20.5 8.00098c-2 41.333 12.333 76.333 43 105c38 36.667 96.667 55 176 55c163.333 0 245 -43.333 245 -130c0 -46 -46 -103.333 -138 -172c101.333 -86.667 242.333 -130 423 -130h46c11.333 0 17 -11.667 17 -35v-79v0zM533.998 744.998l-105 106l105 107
l102 -107zM539.998 -249.002l-105 106l105 107l102 -107z" />
    <glyph glyph-name="uniFB51" unicode="&#x671;" horiz-adv-x="487" arabic-form="final" 
d="M509 35c0 -23.333 -4.99902 -35 -14.999 -35h-34c-80.667 0 -146.334 20.667 -197.001 62c-26.667 21.333 -46.334 47 -59.001 77s-19.667 65 -21 105c-2 165.333 -6.66699 322.333 -14 471s-17 291 -29 427l108 103c8.66699 -91.333 14.834 -217.5 18.501 -378.5
s6.16699 -356.833 7.5 -587.5c0 -43.333 21.667 -77.333 65 -102c31.333 -18.667 63 -28 95 -28h60c10 0 15 -11.667 15 -35v-79v0zM378.001 1508c0 -37.333 -13.0039 -71.334 -39.0039 -102.001c-15.333 -17.333 -32.166 -30.666 -50.499 -39.999s-38.833 -14 -61.5 -14
c-7.33301 0 -16 0.833008 -26 2.5s-21.667 3.5 -35 5.5c-25.333 6 -43.333 9 -54 9c-13.333 0 -26.666 -5 -39.999 -15s-21.666 -21.333 -24.999 -34c-9.33301 4.66699 -14 12.667 -14 24c0 12 2.33301 24.167 7 36.5s10.667 23.5 18 33.5s15.5 18 24.5 24
s18.167 8.66699 27.5 8l29 -2c70.667 88.667 127.334 133 170.001 133c46 0 69 -23 69 -69zM335.997 1471c0 4 -1.66992 8.50098 -5.00293 13.501s-7.66602 9.66699 -12.999 14s-11.166 7.83301 -17.499 10.5s-12.5 4 -18.5 4c-8.66699 0 -18 -2.16699 -28 -6.5
s-20 -10 -30 -17s-19.5 -15 -28.5 -24s-16.5 -17.833 -22.5 -26.5c20.667 -8.66699 44.334 -13 71.001 -13s48.667 4.66699 66 14s26 19.666 26 30.999z" />
    <glyph glyph-name="uniFB53" unicode="&#x67b;" horiz-adv-x="1499" arabic-form="final" 
d="M1521 35c0 -23.333 -5.66699 -35.001 -17 -35.001h-32c-121.333 0 -192.333 60.333 -213 181c-135.333 -129.333 -366 -194 -692 -194c-303.333 0 -455 93.667 -455 281c0 27.333 2.83301 54.333 8.5 81s14.5 52.667 26.5 78c20.667 47.333 38.667 71 54 71
c17.333 0 26 -8.33301 26 -25c0 -1.33301 -1.33301 -5.5 -4 -12.5s-7.66699 -18.167 -15 -33.5c-12 -28 -18 -56.667 -18 -86c0 -136.667 138.667 -205 416 -205c89.333 0 171.5 5.16699 246.5 15.5s143.167 25.5 204.5 45.5c90.667 32 153.334 70 188.001 114
c45.333 59.333 75.666 89 90.999 89c16 0 24 -8.33301 24 -25c0 -3.33301 -0.833008 -9.5 -2.5 -18.5s-4.16699 -20.5 -7.5 -34.5c-8 -27.333 -12 -48.666 -12 -63.999c0 -72.667 47.333 -109 142 -109h24c11.333 0 17 -11.667 17 -35v-79v0zM620 -619.001l-103 104l101 100
l103 -100zM619 -394.001l-103 105l101 100l102 -100z" />
    <glyph glyph-name="uniFB54" unicode="&#x67b;" horiz-adv-x="376" arabic-form="initial" 
d="M380 272c0 -104 -28.333 -176.001 -85 -216.001c-52 -37.333 -138.667 -56 -260 -56h-40c-24 0 -36 11.667 -36 35v79c0 23.333 12 35 36 35h23c189.333 0 284 23 284 69c0 48.667 -28.333 108.334 -85 179.001l68 151c63.333 -90 95 -182 95 -276zM219 -530.001
l-103 104l101 100l103 -100zM218 -305.001l-103 105l101 100l102 -100z" />
    <glyph glyph-name="uniFB55" unicode="&#x67b;" horiz-adv-x="565" arabic-form="medial" 
d="M643 35c0 -23.333 -5.66699 -34.999 -17 -34.999h-24c-34.667 0 -65.167 1.83301 -91.5 5.5s-48.166 10.167 -65.499 19.5c-40 17.333 -71.667 51.666 -95 102.999c-23.333 -48.667 -64.333 -83 -123 -103c-24 -9.33301 -53.333 -15.833 -88 -19.5s-75 -5.5 -121 -5.5
h-23c-24 0 -36 11.667 -36 35v79c0 23.333 12 35 36 35h139c111.333 0 174.666 67.667 189.999 203c0 18 8.33301 27 25 27c16 0 24 -9 24 -27c15.333 -135.333 78.333 -203 189 -203h64c11.333 0 17 -11.667 17 -35v-79v0zM293 -538.999l-103 104l101 100l103 -100z
M292 -313.999l-103 105l101 100l102 -100z" />
    <glyph glyph-name="afii62958" unicode="&#x67e;" horiz-adv-x="1499" arabic-form="final" 
d="M1521 35c0 -23.333 -5.66699 -35.001 -17 -35.001h-32c-121.333 0 -192.333 60.333 -213 181c-135.333 -129.333 -366 -194 -692 -194c-303.333 0 -455 93.667 -455 281c0 27.333 2.83301 54.333 8.5 81s14.5 52.667 26.5 78c20.667 47.333 38.667 71 54 71
c17.333 0 26 -8.33301 26 -25c0 -1.33301 -1.33301 -5.5 -4 -12.5s-7.66699 -18.167 -15 -33.5c-12 -28 -18 -56.667 -18 -86c0 -136.667 138.667 -205 416 -205c89.333 0 171.5 5.16699 246.5 15.5s143.167 25.5 204.5 45.5c90.667 32 153.334 70 188.001 114
c45.333 59.333 75.666 89 90.999 89c16 0 24 -8.33301 24 -25c0 -3.33301 -0.833008 -9.5 -2.5 -18.5s-4.16699 -20.5 -7.5 -34.5c-8 -27.333 -12 -48.666 -12 -63.999c0 -72.667 47.333 -109 142 -109h24c11.333 0 17 -11.667 17 -35v-79v0zM698 -416.001l103 -106
l-103 -107l-104 107zM823 -200.001l103 -107l-103 -105l-105 105zM581 -200.001l103 -107l-103 -105l-105 105z" />
    <glyph glyph-name="afii62956" unicode="&#x67e;" horiz-adv-x="449" arabic-form="initial" 
d="M380 272c0 -104 -28.333 -176.001 -85 -216.001c-52 -37.333 -138.667 -56 -260 -56h-40c-24 0 -36 11.667 -36 35v79c0 23.333 12 35 36 35h23c189.333 0 284 23 284 69c0 48.667 -28.333 108.334 -85 179.001l68 151c63.333 -90 95 -182 95 -276zM209 -375.001
l103 -106l-103 -107l-104 107zM334 -159.001l103 -107l-103 -105l-105 105zM92 -159.001l103 -107l-103 -105l-105 105z" />
    <glyph glyph-name="afii52957" unicode="&#x67e;" horiz-adv-x="621" arabic-form="medial" 
d="M643 35c0 -23.333 -5.66699 -34.999 -17 -34.999h-24c-34.667 0 -65.167 1.83301 -91.5 5.5s-48.166 10.167 -65.499 19.5c-40 17.333 -71.667 51.666 -95 102.999c-23.333 -48.667 -64.333 -83 -123 -103c-24 -9.33301 -53.333 -15.833 -88 -19.5s-75 -5.5 -121 -5.5
h-23c-24 0 -36 11.667 -36 35v79c0 23.333 12 35 36 35h139c111.333 0 174.666 67.667 189.999 203c0 18 8.33301 27 25 27c16 0 24 -9 24 -27c15.333 -135.333 78.333 -203 189 -203h64c11.333 0 17 -11.667 17 -35v-79v0zM303 -388.999l103 -106l-103 -107l-104 107z
M428 -172.999l103 -107l-103 -105l-105 105zM186 -172.999l103 -107l-103 -105l-105 105z" />
    <glyph glyph-name="uniFB5B" unicode="&#x680;" horiz-adv-x="1499" arabic-form="final" 
d="M1521 35c0 -23.333 -5.66699 -35.001 -17 -35.001h-32c-121.333 0 -192.333 60.333 -213 181c-135.333 -129.333 -366 -194 -692 -194c-303.333 0 -455 93.667 -455 281c0 27.333 2.83301 54.333 8.5 81s14.5 52.667 26.5 78c20.667 47.333 38.667 71 54 71
c17.333 0 26 -8.33301 26 -25c0 -1.33301 -1.33301 -5.5 -4 -12.5s-7.66699 -18.167 -15 -33.5c-12 -28 -18 -56.667 -18 -86c0 -136.667 138.667 -205 416 -205c89.333 0 171.5 5.16699 246.5 15.5s143.167 25.5 204.5 45.5c90.667 32 153.334 70 188.001 114
c45.333 59.333 75.666 89 90.999 89c16 0 24 -8.33301 24 -25c0 -3.33301 -0.833008 -9.5 -2.5 -18.5s-4.16699 -20.5 -7.5 -34.5c-8 -27.333 -12 -48.666 -12 -63.999c0 -72.667 47.333 -109 142 -109h24c11.333 0 17 -11.667 17 -35v-79v0zM656 -719.001l-103 106l105 107
l103 -107zM775 -543.001l-104 106l104 106l103 -106zM533 -543.001l-104 106l104 106l103 -106zM652 -369.001l-103 107l105 106l102 -106z" />
    <glyph glyph-name="uniFB5C" unicode="&#x680;" horiz-adv-x="449" arabic-form="initial" 
d="M380 272c0 -104 -28.333 -176.001 -85 -216.001c-52 -37.333 -138.667 -56 -260 -56h-40c-24 0 -36 11.667 -36 35v79c0 23.333 12 35 36 35h23c189.333 0 284 23 284 69c0 48.667 -28.333 108.334 -85 179.001l68 151c63.333 -90 95 -182 95 -276zM210.073 -684.001
l-96.5938 99.2969l98.4697 100.234l96.5938 -100.234zM321.672 -519.13l-97.5312 99.2969l97.5312 99.2979l96.5938 -99.2979zM94.7236 -519.13l-97.5322 99.2969l97.5322 99.2979l96.5938 -99.2979zM206.322 -356.132l-96.5938 100.233l98.4688 99.2979l95.6562 -99.2979z
" />
    <glyph glyph-name="uniFB5D" unicode="&#x680;" horiz-adv-x="621" arabic-form="medial" 
d="M643 35c0 -23.333 -5.66699 -34.999 -17 -34.999h-24c-34.667 0 -65.167 1.83301 -91.5 5.5s-48.166 10.167 -65.499 19.5c-40 17.333 -71.667 51.666 -95 102.999c-23.333 -48.667 -64.333 -83 -123 -103c-24 -9.33301 -53.333 -15.833 -88 -19.5s-75 -5.5 -121 -5.5
h-23c-24 0 -36 11.667 -36 35v79c0 23.333 12 35 36 35h139c111.333 0 174.666 67.667 189.999 203c0 18 8.33301 27 25 27c16 0 24 -9 24 -27c15.333 -135.333 78.333 -203 189 -203h64c11.333 0 17 -11.667 17 -35v-79v0zM310.373 -667.999l-97.5811 100.332
l99.4756 101.279l97.5811 -101.279zM423.112 -501.409l-98.5283 100.332l98.5283 100.333l97.5811 -100.333zM193.845 -501.409l-98.5283 100.332l98.5283 100.333l97.5811 -100.333zM306.584 -336.712l-97.5811 101.278l99.4756 100.333l96.6328 -100.333z" />
    <glyph glyph-name="uniFB5F" unicode="&#x67a;" horiz-adv-x="1499" arabic-form="final" 
d="M1521 35c0 -23.333 -5.66699 -35.001 -17 -35.001h-32c-121.333 0 -192.333 60.333 -213 181c-135.333 -129.333 -366 -194 -692 -194c-303.333 0 -455 93.667 -455 281c0 27.333 2.83301 54.333 8.5 81s14.5 52.667 26.5 78c20.667 47.333 38.667 71 54 71
c17.333 0 26 -8.33301 26 -25c0 -1.33301 -1.33301 -5.5 -4 -12.5s-7.66699 -18.167 -15 -33.5c-12 -28 -18 -56.667 -18 -86c0 -136.667 138.667 -205 416 -205c89.333 0 171.5 5.16699 246.5 15.5s143.167 25.5 204.5 45.5c90.667 32 153.334 70 188.001 114
c45.333 59.333 75.666 89 90.999 89c16 0 24 -8.33301 24 -25c0 -3.33301 -0.833008 -9.5 -2.5 -18.5s-4.16699 -20.5 -7.5 -34.5c-8 -27.333 -12 -48.666 -12 -63.999c0 -72.667 47.333 -109 142 -109h24c11.333 0 17 -11.667 17 -35v-79v0zM736 579.999l-103 104l101 100
l103 -100zM735 804.999l-103 105l101 100l102 -100z" />
    <glyph glyph-name="uniFB60" unicode="&#x67a;" horiz-adv-x="413" arabic-form="initial" 
d="M380 272c0 -104 -28.333 -176.001 -85 -216.001c-52 -37.333 -138.667 -56 -260 -56h-40c-24 0 -36 11.667 -36 35v79c0 23.333 12 35 36 35h23c189.333 0 284 23 284 69c0 48.667 -28.333 108.334 -85 179.001l68 151c63.333 -90 95 -182 95 -276zM156 583.999l-103 104
l101 100l103 -100zM155 808.999l-103 105l101 100l102 -100z" />
    <glyph glyph-name="uniFB61" unicode="&#x67a;" horiz-adv-x="621" arabic-form="medial" 
d="M643 35c0 -23.333 -5.66699 -34.999 -17 -34.999h-24c-34.667 0 -65.167 1.83301 -91.5 5.5s-48.166 10.167 -65.499 19.5c-40 17.333 -71.667 51.666 -95 102.999c-23.333 -48.667 -64.333 -83 -123 -103c-24 -9.33301 -53.333 -15.833 -88 -19.5s-75 -5.5 -121 -5.5
h-23c-24 0 -36 11.667 -36 35v79c0 23.333 12 35 36 35h139c111.333 0 174.666 67.667 189.999 203c0 18 8.33301 27 25 27c16 0 24 -9 24 -27c15.333 -135.333 78.333 -203 189 -203h64c11.333 0 17 -11.667 17 -35v-79v0zM327 570.001l-103 104l101 100l103 -100z
M326 795.001l-103 105l101 100l102 -100z" />
    <glyph glyph-name="uniFB63" unicode="&#x67f;" horiz-adv-x="1499" arabic-form="final" 
d="M1521 35c0 -23.333 -5.66699 -35.001 -17 -35.001h-32c-121.333 0 -192.333 60.333 -213 181c-135.333 -129.333 -366 -194 -692 -194c-303.333 0 -455 93.667 -455 281c0 27.333 2.83301 54.333 8.5 81s14.5 52.667 26.5 78c20.667 47.333 38.667 71 54 71
c17.333 0 26 -8.33301 26 -25c0 -1.33301 -1.33301 -5.5 -4 -12.5s-7.66699 -18.167 -15 -33.5c-12 -28 -18 -56.667 -18 -86c0 -136.667 138.667 -205 416 -205c89.333 0 171.5 5.16699 246.5 15.5s143.167 25.5 204.5 45.5c90.667 32 153.334 70 188.001 114
c45.333 59.333 75.666 89 90.999 89c16 0 24 -8.33301 24 -25c0 -3.33301 -0.833008 -9.5 -2.5 -18.5s-4.16699 -20.5 -7.5 -34.5c-8 -27.333 -12 -48.666 -12 -63.999c0 -72.667 47.333 -109 142 -109h24c11.333 0 17 -11.667 17 -35v-79v0zM729 570.999l-103 106l105 107
l103 -107zM848 746.999l-104 106l104 106l103 -106zM606 746.999l-104 106l104 106l103 -106zM725 920.999l-103 107l105 106l102 -106z" />
    <glyph glyph-name="uniFB64" unicode="&#x67f;" horiz-adv-x="449" arabic-form="initial" 
d="M380 272c0 -104 -28.333 -176.001 -85 -216.001c-52 -37.333 -138.667 -56 -260 -56h-40c-24 0 -36 11.667 -36 35v79c0 23.333 12 35 36 35h23c189.333 0 284 23 284 69c0 48.667 -28.333 108.334 -85 179.001l68 151c63.333 -90 95 -182 95 -276zM179 591.999l-103 106
l105 107l103 -107zM298 767.999l-104 106l104 106l103 -106zM56 767.999l-104 106l104 106l103 -106zM175 941.999l-103 107l105 106l102 -106z" />
    <glyph glyph-name="uniFB65" unicode="&#x67f;" horiz-adv-x="621" arabic-form="medial" 
d="M643 35c0 -23.333 -5.66699 -34.999 -17 -34.999h-24c-34.667 0 -65.167 1.83301 -91.5 5.5s-48.166 10.167 -65.499 19.5c-40 17.333 -71.667 51.666 -95 102.999c-23.333 -48.667 -64.333 -83 -123 -103c-24 -9.33301 -53.333 -15.833 -88 -19.5s-75 -5.5 -121 -5.5
h-23c-24 0 -36 11.667 -36 35v79c0 23.333 12 35 36 35h139c111.333 0 174.666 67.667 189.999 203c0 18 8.33301 27 25 27c16 0 24 -9 24 -27c15.333 -135.333 78.333 -203 189 -203h64c11.333 0 17 -11.667 17 -35v-79v0zM346 514.001l-103 106l105 107l103 -107z
M465 690.001l-104 106l104 106l103 -106zM223 690.001l-104 106l104 106l103 -106zM342 864.001l-103 107l105 106l102 -106z" />
    <glyph glyph-name="uniFB67" unicode="&#x679;" horiz-adv-x="1499" arabic-form="final" 
d="M1521 35c0 -23.333 -5.66699 -35.001 -17 -35.001h-32c-121.333 0 -192.333 60.333 -213 181c-135.333 -129.333 -366 -194 -692 -194c-303.333 0 -455 93.667 -455 281c0 27.333 2.83301 54.333 8.5 81s14.5 52.667 26.5 78c20.667 47.333 38.667 71 54 71
c17.333 0 26 -8.33301 26 -25c0 -1.33301 -1.33301 -5.5 -4 -12.5s-7.66699 -18.167 -15 -33.5c-12 -28 -18 -56.667 -18 -86c0 -136.667 138.667 -205 416 -205c89.333 0 171.5 5.16699 246.5 15.5s143.167 25.5 204.5 45.5c90.667 32 153.334 70 188.001 114
c45.333 59.333 75.666 89 90.999 89c16 0 24 -8.33301 24 -25c0 -3.33301 -0.833008 -9.5 -2.5 -18.5s-4.16699 -20.5 -7.5 -34.5c-8 -27.333 -12 -48.666 -12 -63.999c0 -72.667 47.333 -109 142 -109h24c11.333 0 17 -11.667 17 -35v-79v0zM956 760.999
c0 -45.333 -31.002 -78.999 -93.002 -100.999c-51.333 -19.333 -123.333 -29 -216 -29c-43.333 0 -77.333 9.33301 -102 28c-20 14.667 -29.333 30.667 -28 48c0 3.33301 1.33301 5 4 5c2 0 6.66699 -2.66699 14 -8c14 -10 38 -15 72 -15c20 0 35.333 3.33301 46 10
c0 8 0.166992 18.167 0.5 30.5s0.5 27.5 0.5 45.5c0 35.333 -3 89.666 -9 162.999c-5.33301 69.333 -8.33301 104 -9 104c1.33301 4 4 8 8 12l33 32l22 -63c4 -12 6 -19 6 -21c0 -4 -7.66699 -3 -23 3c0 -2 0.166992 -9.16699 0.5 -21.5l1.5 -53.5
c1.33301 -19.333 2 -35.5 2 -48.5v-28.5c0 -28.667 -0.833008 -54.167 -2.5 -76.5s-4.5 -41.5 -8.5 -57.5l1 -2c44.667 44 82.334 74.333 113.001 91c28.667 17.333 59.334 26 92.001 26c22 0 40 -6.66699 54 -20s21 -31 21 -53zM922.998 738
c0 12 -6.66602 22.6631 -19.999 31.9961c-14.667 10.667 -31 16 -49 16c-11.333 0 -23.333 -2.16699 -36 -6.5s-26.334 -10.166 -41.001 -17.499c-11.333 -5.33301 -22.5 -11.666 -33.5 -18.999s-22.167 -15.666 -33.5 -24.999c-19.333 -13.333 -29 -21.666 -29 -24.999
c0 -5.33301 7.33301 -8 22 -8c146.667 0 220 17.667 220 53z" />
    <glyph glyph-name="uniFB68" unicode="&#x679;" horiz-adv-x="409" arabic-form="initial" 
d="M380 272c0 -104 -28.333 -176.001 -85 -216.001c-52 -37.333 -138.667 -56 -260 -56h-40c-24 0 -36 11.667 -36 35v79c0 23.333 12 35 36 35h23c189.333 0 284 23 284 69c0 48.667 -28.333 108.334 -85 179.001l68 151c63.333 -90 95 -182 95 -276zM419 759.999
c0 -45.333 -31.002 -78.999 -93.002 -100.999c-51.333 -19.333 -123.333 -29 -216 -29c-43.333 0 -77.333 9.33301 -102 28c-20 14.667 -29.333 30.667 -28 48c0 3.33301 1.33301 5 4 5c2 0 6.66699 -2.66699 14 -8c14 -10 38 -15 72 -15c20 0 35.333 3.33301 46 10
c0 8 0.166992 18.167 0.5 30.5s0.5 27.5 0.5 45.5c0 35.333 -3 89.666 -9 162.999c-5.33301 69.333 -8.33301 104 -9 104c1.33301 4 4 8 8 12l33 32l22 -63c4 -12 6 -19 6 -21c0 -4 -7.66699 -3 -23 3c0 -2 0.166992 -9.16699 0.5 -21.5l1.5 -53.5
c1.33301 -19.333 2 -35.5 2 -48.5v-28.5c0 -28.667 -0.833008 -54.167 -2.5 -76.5s-4.5 -41.5 -8.5 -57.5l1 -2c44.667 44 82.334 74.333 113.001 91c28.667 17.333 59.334 26 92.001 26c22 0 40 -6.66699 54 -20s21 -31 21 -53zM385.998 737
c0 12 -6.66602 22.6631 -19.999 31.9961c-14.667 10.667 -31 16 -49 16c-11.333 0 -23.333 -2.16699 -36 -6.5s-26.334 -10.166 -41.001 -17.499c-11.333 -5.33301 -22.5 -11.666 -33.5 -18.999s-22.167 -15.666 -33.5 -24.999c-19.333 -13.333 -29 -21.666 -29 -24.999
c0 -5.33301 7.33301 -8 22 -8c146.667 0 220 17.667 220 53z" />
    <glyph glyph-name="uniFB69" unicode="&#x679;" horiz-adv-x="565" arabic-form="medial" 
d="M643 35c0 -23.333 -5.66699 -34.999 -17 -34.999h-24c-34.667 0 -65.167 1.83301 -91.5 5.5s-48.166 10.167 -65.499 19.5c-40 17.333 -71.667 51.666 -95 102.999c-23.333 -48.667 -64.333 -83 -123 -103c-24 -9.33301 -53.333 -15.833 -88 -19.5s-75 -5.5 -121 -5.5
h-23c-24 0 -36 11.667 -36 35v79c0 23.333 12 35 36 35h139c111.333 0 174.666 67.667 189.999 203c0 18 8.33301 27 25 27c16 0 24 -9 24 -27c15.333 -135.333 78.333 -203 189 -203h64c11.333 0 17 -11.667 17 -35v-79v0zM532 674.001
c0 -45.333 -31.002 -78.999 -93.002 -100.999c-51.333 -19.333 -123.333 -29 -216 -29c-43.333 0 -77.333 9.33301 -102 28c-20 14.667 -29.333 30.667 -28 48c0 3.33301 1.33301 5 4 5c2 0 6.66699 -2.66699 14 -8c14 -10 38 -15 72 -15c20 0 35.333 3.33301 46 10
c0 8 0.166992 18.167 0.5 30.5s0.5 27.5 0.5 45.5c0 35.333 -3 89.666 -9 162.999c-5.33301 69.333 -8.33301 104 -9 104c1.33301 4 4 8 8 12l33 32l22 -63c4 -12 6 -19 6 -21c0 -4 -7.66699 -3 -23 3c0 -2 0.166992 -9.16699 0.5 -21.5l1.5 -53.5
c1.33301 -19.333 2 -35.5 2 -48.5v-28.5c0 -28.667 -0.833008 -54.167 -2.5 -76.5s-4.5 -41.5 -8.5 -57.5l1 -2c44.667 44 82.334 74.333 113.001 91c28.667 17.333 59.334 26 92.001 26c22 0 40 -6.66699 54 -20s21 -31 21 -53zM498.998 651.002
c0 12 -6.66602 22.6631 -19.999 31.9961c-14.667 10.667 -31 16 -49 16c-11.333 0 -23.333 -2.16699 -36 -6.5s-26.334 -10.166 -41.001 -17.499c-11.333 -5.33301 -22.5 -11.666 -33.5 -18.999s-22.167 -15.666 -33.5 -24.999c-19.333 -13.333 -29 -21.666 -29 -24.999
c0 -5.33301 7.33301 -8 22 -8c146.667 0 220 17.667 220 53z" />
    <glyph glyph-name="afii57371" unicode="&#x6a4;" horiz-adv-x="1512" arabic-form="final" 
d="M1534 35c0 -23.333 -5.66602 -34.998 -16.999 -34.998h-25c-60.667 0 -117 7.33301 -169 22s-101 37 -147 67c-148 -68 -351 -102 -609 -102c-303.333 0 -455 93.667 -455 281c0 27.333 2.83301 54.333 8.5 81s14.5 52.667 26.5 78c20.667 47.333 38.667 71 54 71
c17.333 0 26 -8.33301 26 -25c0 -1.33301 -1.33301 -5.5 -4 -12.5s-7.66699 -18.167 -15 -33.5c-12 -28 -18 -56.667 -18 -86c0 -136.667 138.667 -205 416 -205c189.333 0 334 13.333 434 40c-50.667 48 -76 95.333 -76 142c0 42 6 82.167 18 120.5s30.667 74.833 56 109.5
c50 68.667 104.667 103 164 103c56 0 100.667 -33.333 134 -100c14 -26.667 24.833 -55.167 32.5 -85.5s11.5 -61.833 11.5 -94.5c0 -34 -6.5 -66.833 -19.5 -98.5s-32.167 -62.834 -57.5 -93.501c13.333 -10.667 32.666 -18.334 57.999 -23.001s56 -7 92 -7h64
c11.333 0 17 -11.667 17 -35v-79zM1316 336.002c0 36.667 -15 73 -45 109c-28 37.333 -58 56 -90 56c-32.667 0 -67.334 -16.667 -104.001 -50c-34 -34 -51 -68 -51 -102c0 -30.667 21.333 -61 64 -91c38.667 -30.667 71.334 -46 98.001 -46c6 0 15 3.33301 27 10
s26.333 15.667 43 27c38.667 28.667 58 57.667 58 87zM1172 1018l-103 106l105 107l103 -107zM1295 802.002l-105 106l105 106l103 -106zM1053 802.002l-105 106l105 106l103 -106z" />
    <glyph glyph-name="afii57372" unicode="&#x6a4;" horiz-adv-x="589" arabic-form="initial" 
d="M553 334c0 -122 -40.999 -208.001 -122.999 -258.001c-82 -50.667 -219.333 -76 -412 -76h-23c-24 0 -36 11.667 -36 35v79c0 23.333 12 35 36 35h111c256 0 384 47 384 141c0 22.667 -3.66699 40.334 -11 53.001c-28.667 -17.333 -89 -26 -181 -26
c-124 0 -186 47.667 -186 143c0 35.333 3.66699 70 11 104s18.666 68.333 33.999 103c38.667 92 90 138 154 138c80.667 0 142.334 -47.333 185.001 -142c19.333 -42 33.666 -90.167 42.999 -144.5s14 -115.833 14 -184.5zM453.001 486.999
c-4.66699 37.333 -22.333 74.332 -53 110.999c-30.667 38.667 -66.334 58 -107.001 58c-14 0 -27.167 -2.66699 -39.5 -8s-23.166 -12.666 -32.499 -21.999s-16.833 -20 -22.5 -32s-8.5 -25 -8.5 -39c0 -59.333 44.667 -89 134 -89c58 0 101 7 129 21zM288.002 1121
l-103 106l105 107l103 -107zM411.002 904.998l-105 106l105 106l103 -106zM169.002 904.998l-105 106l105 106l103 -106z" />
    <glyph glyph-name="afii57369" unicode="&#x6a4;" horiz-adv-x="723" arabic-form="medial" 
d="M745 35c0 -23.333 -5.33398 -35 -16.001 -35h-25c-60 -0 -116.167 7.33301 -168.5 22s-101.5 36.334 -147.5 65.001c-36.667 -17.333 -69.5 -31.666 -98.5 -42.999s-55.5 -20 -79.5 -26c-25.333 -6.66699 -54 -11.334 -86 -14.001s-67.333 -4 -106 -4h-23
c-24 0 -36 11.667 -36 35v79c0 23.333 12 35 36 35h23c121.333 0 199 8 233 24c-50 50.667 -75 99 -75 145c0 42 5.83301 82.167 17.5 120.5s30.167 74.833 55.5 109.5c50.667 68.667 105.667 103 165 103c54.667 0 99.334 -33.333 134.001 -100c28.667 -54 43 -114 43 -180
c0 -66.667 -25.667 -130.667 -77 -192c15.333 -10.667 38.833 -18.334 70.5 -23.001s71.5 -7 119.5 -7h25c10.667 0 16 -11.667 16 -35v-79zM527.999 336c0 36 -15.333 72.333 -46 109c-27.333 37.333 -57 56 -89 56c-33.333 0 -68.333 -16.667 -105 -50
c-16 -16.667 -28.333 -33.5 -37 -50.5s-13 -34.167 -13 -51.5c0 -30.667 21.333 -61 64 -91c38.667 -30.667 71 -46 97 -46c7.33301 0 17 3.33301 29 10s26 15.667 42 27c38.667 28.667 58 57.667 58 87zM395.999 1023l-103 106l105 107l103 -107zM518.999 807l-105 106
l105 106l103 -106zM276.999 807l-105 106l105 106l103 -106z" />
    <glyph glyph-name="uniFB6f" unicode="&#x6a6;" horiz-adv-x="1512" arabic-form="final" 
d="M1534 35c0 -23.333 -5.66602 -34.998 -16.999 -34.998h-25c-60.667 0 -117 7.33301 -169 22s-101 37 -147 67c-148 -68 -351 -102 -609 -102c-303.333 0 -455 93.667 -455 281c0 27.333 2.83301 54.333 8.5 81s14.5 52.667 26.5 78c20.667 47.333 38.667 71 54 71
c17.333 0 26 -8.33301 26 -25c0 -1.33301 -1.33301 -5.5 -4 -12.5s-7.66699 -18.167 -15 -33.5c-12 -28 -18 -56.667 -18 -86c0 -136.667 138.667 -205 416 -205c189.333 0 334 13.333 434 40c-50.667 48 -76 95.333 -76 142c0 42 6 82.167 18 120.5s30.667 74.833 56 109.5
c50 68.667 104.667 103 164 103c56 0 100.667 -33.333 134 -100c14 -26.667 24.833 -55.167 32.5 -85.5s11.5 -61.833 11.5 -94.5c0 -34 -6.5 -66.833 -19.5 -98.5s-32.167 -62.834 -57.5 -93.501c13.333 -10.667 32.666 -18.334 57.999 -23.001s56 -7 92 -7h64
c11.333 0 17 -11.667 17 -35v-79zM1316 336.002c0 36.667 -15 73 -45 109c-28 37.333 -58 56 -90 56c-32.667 0 -67.334 -16.667 -104.001 -50c-34 -34 -51 -68 -51 -102c0 -30.667 21.333 -61 64 -91c38.667 -30.667 71.334 -46 98.001 -46c6 0 15 3.33301 27 10
s26.333 15.667 43 27c38.667 28.667 58 57.667 58 87zM1175 773.002l-103 106l105 107l103 -107zM1294 949.002l-104 106l104 106l103 -106zM1052 949.002l-104 106l104 106l103 -106zM1171 1123l-103 107l105 106l102 -106z" />
    <glyph glyph-name="uniFB70" unicode="&#x6a6;" horiz-adv-x="589" arabic-form="initial" 
d="M553 334c0 -122 -40.999 -208.001 -122.999 -258.001c-82 -50.667 -219.333 -76 -412 -76h-23c-24 0 -36 11.667 -36 35v79c0 23.333 12 35 36 35h111c256 0 384 47 384 141c0 22.667 -3.66699 40.334 -11 53.001c-28.667 -17.333 -89 -26 -181 -26
c-124 0 -186 47.667 -186 143c0 35.333 3.66699 70 11 104s18.666 68.333 33.999 103c38.667 92 90 138 154 138c80.667 0 142.334 -47.333 185.001 -142c19.333 -42 33.666 -90.167 42.999 -144.5s14 -115.833 14 -184.5zM453.001 486.999
c-4.66699 37.333 -22.333 74.332 -53 110.999c-30.667 38.667 -66.334 58 -107.001 58c-14 0 -27.167 -2.66699 -39.5 -8s-23.166 -12.666 -32.499 -21.999s-16.833 -20 -22.5 -32s-8.5 -25 -8.5 -39c0 -59.333 44.667 -89 134 -89c58 0 101 7 129 21zM296.002 873.998
l-103 106l105 107l103 -107zM415.002 1050l-104 106l104 106l103 -106zM173.002 1050l-104 106l104 106l103 -106zM292.002 1224l-103 107l105 106l102 -106z" />
    <glyph glyph-name="uniFB71" unicode="&#x6a6;" horiz-adv-x="723" arabic-form="medial" 
d="M745 35c0 -23.333 -5.33398 -35 -16.001 -35h-25c-60 -0 -116.167 7.33301 -168.5 22s-101.5 36.334 -147.5 65.001c-36.667 -17.333 -69.5 -31.666 -98.5 -42.999s-55.5 -20 -79.5 -26c-25.333 -6.66699 -54 -11.334 -86 -14.001s-67.333 -4 -106 -4h-23
c-24 0 -36 11.667 -36 35v79c0 23.333 12 35 36 35h23c121.333 0 199 8 233 24c-50 50.667 -75 99 -75 145c0 42 5.83301 82.167 17.5 120.5s30.167 74.833 55.5 109.5c50.667 68.667 105.667 103 165 103c54.667 0 99.334 -33.333 134.001 -100c28.667 -54 43 -114 43 -180
c0 -66.667 -25.667 -130.667 -77 -192c15.333 -10.667 38.833 -18.334 70.5 -23.001s71.5 -7 119.5 -7h25c10.667 0 16 -11.667 16 -35v-79zM527.999 336c0 36 -15.333 72.333 -46 109c-27.333 37.333 -57 56 -89 56c-33.333 0 -68.333 -16.667 -105 -50
c-16 -16.667 -28.333 -33.5 -37 -50.5s-13 -34.167 -13 -51.5c0 -30.667 21.333 -61 64 -91c38.667 -30.667 71 -46 97 -46c7.33301 0 17 3.33301 29 10s26 15.667 42 27c38.667 28.667 58 57.667 58 87zM382.999 739l-103 106l105 107l103 -107zM501.999 915l-104 106
l104 106l103 -106zM259.999 915l-104 106l104 106l103 -106zM378.999 1089l-103 107l105 106l102 -106z" />
    <glyph glyph-name="uniFB73" unicode="&#x684;" horiz-adv-x="1154" arabic-form="final" 
d="M1176 35c0 -23.333 -5.66895 -35.002 -17.002 -35.002h-80c-56.667 0 -104.334 5.16699 -143.001 15.5s-69.667 25.166 -93 44.499c-42.667 34.667 -64 94 -64 178c0 16 0.833008 33.333 2.5 52s3.83398 38.667 6.50098 60c-76 -18.667 -145.167 -41 -207.5 -67
s-118.5 -56.333 -168.5 -91c-134.667 -91.333 -202 -198.666 -202 -321.999c0 -207.333 177.333 -311 532 -311c36 0 74.333 2.16699 115 6.5s84 10.5 130 18.5l95 17.5c20.667 3.66699 30.334 6.16699 29.001 7.5c4 0 6 -3 6 -9c0 -25.333 -38 -59 -114 -101
c-96 -56 -205.667 -84 -329 -84c-370.667 0 -555 135.333 -553 406c2 256.667 169.667 447.334 503 572.001v9c-68 10.667 -128.333 18.334 -181 23.001s-97.334 7 -134.001 7c-42 0 -78.667 -14.667 -110 -44c-32 -30 -49.667 -45 -53 -45c-10.667 0 -16 6 -16 18
c0 42 19.333 87.667 58 137c43.333 55.333 92 83 146 83c28 0 64.167 -2.66699 108.5 -8s97.5 -13.666 159.5 -24.999c127.333 -22 217.333 -34 270 -36l194 -3l-61 -142l-161 -8l-2 -29c-0.666992 -9.33301 -1 -18 -1 -26c0 -61.333 19.667 -103 59 -125
c18.667 -10.667 44.334 -18.334 77.001 -23.001s72.334 -7 119.001 -7h63c11.333 0 17 -11.667 17 -35v-79v0zM604.998 -355.002l-103 104l101 100l103 -100zM603.998 -130.002l-103 105l101 100l102 -100z" />
    <glyph glyph-name="uniFB74" unicode="&#x684;" horiz-adv-x="1131" arabic-form="initial" 
d="M1010 287l-67.002 -0.000976562c-29.333 0 -56.166 -1.83301 -80.499 -5.5s-47.166 -8.5 -68.499 -14.5c-25.333 -9.33301 -60.166 -24.333 -104.499 -45l-163.5 -80c-93.333 -48 -180.333 -83.667 -261 -107s-157.334 -35 -230.001 -35h-40c-24 0 -36 11.667 -36 35v79
c0 23.333 12 35 36 35h23c52 0 128 9 228 27c43.333 7.33301 102 24.833 176 52.5s165 65.834 273 114.501v9c-204.667 85.333 -337.334 128 -398.001 128c-43.333 0 -80 -14.667 -110 -44l-37 -31.5c-8.66699 -7.66699 -14.667 -11.5 -18 -11.5c-10 0 -15 6.33301 -15 19
c0 40 19.667 84.667 59 134c42 56 90 84 144 84c28.667 0 74.834 -11 138.501 -33s146.167 -55 247.5 -99c54 -23.333 111.833 -41.333 173.5 -54s128.167 -19.667 199.5 -21zM617.998 -502.001l-103 104l101 100l103 -100zM616.998 -277.001l-103 105l101 100l102 -100z
" />
    <glyph glyph-name="uniFB75" unicode="&#x684;" horiz-adv-x="1137" arabic-form="medial" 
d="M1159 35c0 -23.333 -5.66602 -34.998 -16.999 -34.998h-24c-204.667 0 -307 71.667 -307 215c0 48 3 85 9 111c-59.333 -24 -171.333 -86 -336 -186c-75.333 -47.333 -151.833 -82.5 -229.5 -105.5s-156.5 -34.5 -236.5 -34.5h-23c-24 0 -36 11.667 -36 35v79
c0 23.333 12 35 36 35h23c110.667 0 227 23.667 349 71c36.667 14 81.5 34.333 134.5 61l188.5 98v9c-116 31.333 -207.667 54.5 -275 69.5s-110.666 22.5 -129.999 22.5c-42.667 0 -79 -14.667 -109 -44l-38 -31.5c-9.33301 -7.66699 -15 -11.5 -17 -11.5
c-10 0 -15 6.33301 -15 19c0 40 19.333 84.667 58 134c42.667 56 91 84 145 84c25.333 0 53 -2.83301 83 -8.5s62.333 -14.834 97 -27.501l132.5 -44.5c33.667 -11 57.167 -18.167 70.5 -21.5c47.333 -12.667 96.166 -21.834 146.499 -27.501s103.166 -8.5 158.499 -8.5h90
l-61 -143c-39.333 6.66699 -89.333 4.66699 -150 -6l-1 -55c-5.33301 -92.667 62.667 -139 204 -139h63c11.333 0 17 -11.667 17 -35v-79v0zM575.001 -542.998l-103 104l101 100l103 -100zM574.001 -317.998l-103 105l101 100l102 -100z" />
    <glyph glyph-name="uniFB77" unicode="&#x683;" horiz-adv-x="1154" arabic-form="final" 
d="M1176 35c0 -23.333 -5.66895 -35.002 -17.002 -35.002h-80c-56.667 0 -104.334 5.16699 -143.001 15.5s-69.667 25.166 -93 44.499c-42.667 34.667 -64 94 -64 178c0 16 0.833008 33.333 2.5 52s3.83398 38.667 6.50098 60c-76 -18.667 -145.167 -41 -207.5 -67
s-118.5 -56.333 -168.5 -91c-134.667 -91.333 -202 -198.666 -202 -321.999c0 -207.333 177.333 -311 532 -311c36 0 74.333 2.16699 115 6.5s84 10.5 130 18.5l95 17.5c20.667 3.66699 30.334 6.16699 29.001 7.5c4 0 6 -3 6 -9c0 -25.333 -38 -59 -114 -101
c-96 -56 -205.667 -84 -329 -84c-370.667 0 -555 135.333 -553 406c2 256.667 169.667 447.334 503 572.001v9c-68 10.667 -128.333 18.334 -181 23.001s-97.334 7 -134.001 7c-42 0 -78.667 -14.667 -110 -44c-32 -30 -49.667 -45 -53 -45c-10.667 0 -16 6 -16 18
c0 42 19.333 87.667 58 137c43.333 55.333 92 83 146 83c28 0 64.167 -2.66699 108.5 -8s97.5 -13.666 159.5 -24.999c127.333 -22 217.333 -34 270 -36l194 -3l-61 -142l-161 -8l-2 -29c-0.666992 -9.33301 -1 -18 -1 -26c0 -61.333 19.667 -103 59 -125
c18.667 -10.667 44.334 -18.334 77.001 -23.001s72.334 -7 119.001 -7h63c11.333 0 17 -11.667 17 -35v-79v0zM748.998 -237.002l-103 104l101 100l103 -100zM506.998 -237.002l-103 104l101 100l102 -100z" />
    <glyph glyph-name="uniFB78" unicode="&#x683;" horiz-adv-x="1131" arabic-form="initial" 
d="M1010 287l-67.002 -0.000976562c-29.333 0 -56.166 -1.83301 -80.499 -5.5s-47.166 -8.5 -68.499 -14.5c-25.333 -9.33301 -60.166 -24.333 -104.499 -45l-163.5 -80c-93.333 -48 -180.333 -83.667 -261 -107s-157.334 -35 -230.001 -35h-40c-24 0 -36 11.667 -36 35v79
c0 23.333 12 35 36 35h23c52 0 128 9 228 27c43.333 7.33301 102 24.833 176 52.5s165 65.834 273 114.501v9c-204.667 85.333 -337.334 128 -398.001 128c-43.333 0 -80 -14.667 -110 -44l-37 -31.5c-8.66699 -7.66699 -14.667 -11.5 -18 -11.5c-10 0 -15 6.33301 -15 19
c0 40 19.667 84.667 59 134c42 56 90 84 144 84c28.667 0 74.834 -11 138.501 -33s146.167 -55 247.5 -99c54 -23.333 111.833 -41.333 173.5 -54s128.167 -19.667 199.5 -21zM578.998 -384.001l-103 104l101 100l103 -100zM336.998 -384.001l-103 104l101 100l102 -100z
" />
    <glyph glyph-name="uniFB79" unicode="&#x683;" horiz-adv-x="1137" arabic-form="medial" 
d="M1159 35c0 -23.333 -5.66602 -34.998 -16.999 -34.998h-24c-204.667 0 -307 71.667 -307 215c0 48 3 85 9 111c-59.333 -24 -171.333 -86 -336 -186c-75.333 -47.333 -151.833 -82.5 -229.5 -105.5s-156.5 -34.5 -236.5 -34.5h-23c-24 0 -36 11.667 -36 35v79
c0 23.333 12 35 36 35h23c110.667 0 227 23.667 349 71c36.667 14 81.5 34.333 134.5 61l188.5 98v9c-116 31.333 -207.667 54.5 -275 69.5s-110.666 22.5 -129.999 22.5c-42.667 0 -79 -14.667 -109 -44l-38 -31.5c-9.33301 -7.66699 -15 -11.5 -17 -11.5
c-10 0 -15 6.33301 -15 19c0 40 19.333 84.667 58 134c42.667 56 91 84 145 84c25.333 0 53 -2.83301 83 -8.5s62.333 -14.834 97 -27.501l132.5 -44.5c33.667 -11 57.167 -18.167 70.5 -21.5c47.333 -12.667 96.166 -21.834 146.499 -27.501s103.166 -8.5 158.499 -8.5h90
l-61 -143c-39.333 6.66699 -89.333 4.66699 -150 -6l-1 -55c-5.33301 -92.667 62.667 -139 204 -139h63c11.333 0 17 -11.667 17 -35v-79v0zM649.001 -367.998l-103 104l101 100l103 -100zM407.001 -367.998l-103 104l101 100l102 -100z" />
    <glyph glyph-name="afii62961" unicode="&#x686;" horiz-adv-x="1154" arabic-form="final" 
d="M1176 35c0 -23.333 -5.66895 -35.002 -17.002 -35.002h-80c-56.667 0 -104.334 5.16699 -143.001 15.5s-69.667 25.166 -93 44.499c-42.667 34.667 -64 94 -64 178c0 16 0.833008 33.333 2.5 52s3.83398 38.667 6.50098 60c-76 -18.667 -145.167 -41 -207.5 -67
s-118.5 -56.333 -168.5 -91c-134.667 -91.333 -202 -198.666 -202 -321.999c0 -207.333 177.333 -311 532 -311c36 0 74.333 2.16699 115 6.5s84 10.5 130 18.5l95 17.5c20.667 3.66699 30.334 6.16699 29.001 7.5c4 0 6 -3 6 -9c0 -25.333 -38 -59 -114 -101
c-96 -56 -205.667 -84 -329 -84c-370.667 0 -555 135.333 -553 406c2 256.667 169.667 447.334 503 572.001v9c-68 10.667 -128.333 18.334 -181 23.001s-97.334 7 -134.001 7c-42 0 -78.667 -14.667 -110 -44c-32 -30 -49.667 -45 -53 -45c-10.667 0 -16 6 -16 18
c0 42 19.333 87.667 58 137c43.333 55.333 92 83 146 83c28 0 64.167 -2.66699 108.5 -8s97.5 -13.666 159.5 -24.999c127.333 -22 217.333 -34 270 -36l194 -3l-61 -142l-161 -8l-2 -29c-0.666992 -9.33301 -1 -18 -1 -26c0 -61.333 19.667 -103 59 -125
c18.667 -10.667 44.334 -18.334 77.001 -23.001s72.334 -7 119.001 -7h63c11.333 0 17 -11.667 17 -35v-79v0zM586.998 -155.002l103 -106l-103 -107l-104 107zM711.998 60.998l103 -107l-103 -105l-105 105zM469.998 60.998l103 -107l-103 -105l-105 105z" />
    <glyph glyph-name="afii62959" unicode="&#x686;" horiz-adv-x="1131" arabic-form="initial" 
d="M1010 287l-67.002 -0.000976562c-29.333 0 -56.166 -1.83301 -80.499 -5.5s-47.166 -8.5 -68.499 -14.5c-25.333 -9.33301 -60.166 -24.333 -104.499 -45l-163.5 -80c-93.333 -48 -180.333 -83.667 -261 -107s-157.334 -35 -230.001 -35h-40c-24 0 -36 11.667 -36 35v79
c0 23.333 12 35 36 35h23c52 0 128 9 228 27c43.333 7.33301 102 24.833 176 52.5s165 65.834 273 114.501v9c-204.667 85.333 -337.334 128 -398.001 128c-43.333 0 -80 -14.667 -110 -44l-37 -31.5c-8.66699 -7.66699 -14.667 -11.5 -18 -11.5c-10 0 -15 6.33301 -15 19
c0 40 19.667 84.667 59 134c42 56 90 84 144 84c28.667 0 74.834 -11 138.501 -33s146.167 -55 247.5 -99c54 -23.333 111.833 -41.333 173.5 -54s128.167 -19.667 199.5 -21zM574.998 -319.001l103 -106l-103 -107l-104 107zM699.998 -103.001l103 -107l-103 -105l-105 105
zM457.998 -103.001l103 -107l-103 -105l-105 105z" />
    <glyph glyph-name="afii62960" unicode="&#x686;" horiz-adv-x="1137" arabic-form="medial" 
d="M1159 35c0 -23.333 -5.66602 -34.998 -16.999 -34.998h-24c-204.667 0 -307 71.667 -307 215c0 48 3 85 9 111c-59.333 -24 -171.333 -86 -336 -186c-75.333 -47.333 -151.833 -82.5 -229.5 -105.5s-156.5 -34.5 -236.5 -34.5h-23c-24 0 -36 11.667 -36 35v79
c0 23.333 12 35 36 35h23c110.667 0 227 23.667 349 71c36.667 14 81.5 34.333 134.5 61l188.5 98v9c-116 31.333 -207.667 54.5 -275 69.5s-110.666 22.5 -129.999 22.5c-42.667 0 -79 -14.667 -109 -44l-38 -31.5c-9.33301 -7.66699 -15 -11.5 -17 -11.5
c-10 0 -15 6.33301 -15 19c0 40 19.333 84.667 58 134c42.667 56 91 84 145 84c25.333 0 53 -2.83301 83 -8.5s62.333 -14.834 97 -27.501l132.5 -44.5c33.667 -11 57.167 -18.167 70.5 -21.5c47.333 -12.667 96.166 -21.834 146.499 -27.501s103.166 -8.5 158.499 -8.5h90
l-61 -143c-39.333 6.66699 -89.333 4.66699 -150 -6l-1 -55c-5.33301 -92.667 62.667 -139 204 -139h63c11.333 0 17 -11.667 17 -35v-79v0zM529.001 -332.998l103 -106l-103 -107l-104 107zM654.001 -116.998l103 -107l-103 -105l-105 105zM412.001 -116.998l103 -107
l-103 -105l-105 105z" />
    <glyph glyph-name="uniFB7F" unicode="&#x687;" horiz-adv-x="1154" arabic-form="final" 
d="M1176 35c0 -23.333 -5.66895 -35.002 -17.002 -35.002h-80c-56.667 0 -104.334 5.16699 -143.001 15.5s-69.667 25.166 -93 44.499c-42.667 34.667 -64 94 -64 178c0 16 0.833008 33.333 2.5 52s3.83398 38.667 6.50098 60c-76 -18.667 -145.167 -41 -207.5 -67
s-118.5 -56.333 -168.5 -91c-134.667 -91.333 -202 -198.666 -202 -321.999c0 -207.333 177.333 -311 532 -311c36 0 74.333 2.16699 115 6.5s84 10.5 130 18.5l95 17.5c20.667 3.66699 30.334 6.16699 29.001 7.5c4 0 6 -3 6 -9c0 -25.333 -38 -59 -114 -101
c-96 -56 -205.667 -84 -329 -84c-370.667 0 -555 135.333 -553 406c2 256.667 169.667 447.334 503 572.001v9c-68 10.667 -128.333 18.334 -181 23.001s-97.334 7 -134.001 7c-42 0 -78.667 -14.667 -110 -44c-32 -30 -49.667 -45 -53 -45c-10.667 0 -16 6 -16 18
c0 42 19.333 87.667 58 137c43.333 55.333 92 83 146 83c28 0 64.167 -2.66699 108.5 -8s97.5 -13.666 159.5 -24.999c127.333 -22 217.333 -34 270 -36l194 -3l-61 -142l-161 -8l-2 -29c-0.666992 -9.33301 -1 -18 -1 -26c0 -61.333 19.667 -103 59 -125
c18.667 -10.667 44.334 -18.334 77.001 -23.001s72.334 -7 119.001 -7h63c11.333 0 17 -11.667 17 -35v-79v0zM611.998 -396.002l-103 106l105 107l103 -107zM730.998 -220.002l-104 106l104 106l103 -106zM488.998 -220.002l-104 106l104 106l103 -106zM607.998 -46.002
l-103 107l105 106l102 -106z" />
    <glyph glyph-name="uniFB80" unicode="&#x687;" horiz-adv-x="1131" arabic-form="initial" 
d="M1010 287l-67.002 -0.000976562c-29.333 0 -56.166 -1.83301 -80.499 -5.5s-47.166 -8.5 -68.499 -14.5c-25.333 -9.33301 -60.166 -24.333 -104.499 -45l-163.5 -80c-93.333 -48 -180.333 -83.667 -261 -107s-157.334 -35 -230.001 -35h-40c-24 0 -36 11.667 -36 35v79
c0 23.333 12 35 36 35h23c52 0 128 9 228 27c43.333 7.33301 102 24.833 176 52.5s165 65.834 273 114.501v9c-204.667 85.333 -337.334 128 -398.001 128c-43.333 0 -80 -14.667 -110 -44l-37 -31.5c-8.66699 -7.66699 -14.667 -11.5 -18 -11.5c-10 0 -15 6.33301 -15 19
c0 40 19.667 84.667 59 134c42 56 90 84 144 84c28.667 0 74.834 -11 138.501 -33s146.167 -55 247.5 -99c54 -23.333 111.833 -41.333 173.5 -54s128.167 -19.667 199.5 -21zM620.998 -573.001l-103 106l105 107l103 -107zM739.998 -397.001l-104 106l104 106l103 -106z
M497.998 -397.001l-104 106l104 106l103 -106zM616.998 -223.001l-103 107l105 106l102 -106z" />
    <glyph glyph-name="uniFB81" unicode="&#x687;" horiz-adv-x="1137" arabic-form="medial" 
d="M1159 35c0 -23.333 -5.66602 -34.998 -16.999 -34.998h-24c-204.667 0 -307 71.667 -307 215c0 48 3 85 9 111c-59.333 -24 -171.333 -86 -336 -186c-75.333 -47.333 -151.833 -82.5 -229.5 -105.5s-156.5 -34.5 -236.5 -34.5h-23c-24 0 -36 11.667 -36 35v79
c0 23.333 12 35 36 35h23c110.667 0 227 23.667 349 71c36.667 14 81.5 34.333 134.5 61l188.5 98v9c-116 31.333 -207.667 54.5 -275 69.5s-110.666 22.5 -129.999 22.5c-42.667 0 -79 -14.667 -109 -44l-38 -31.5c-9.33301 -7.66699 -15 -11.5 -17 -11.5
c-10 0 -15 6.33301 -15 19c0 40 19.333 84.667 58 134c42.667 56 91 84 145 84c25.333 0 53 -2.83301 83 -8.5s62.333 -14.834 97 -27.501l132.5 -44.5c33.667 -11 57.167 -18.167 70.5 -21.5c47.333 -12.667 96.166 -21.834 146.499 -27.501s103.166 -8.5 158.499 -8.5h90
l-61 -143c-39.333 6.66699 -89.333 4.66699 -150 -6l-1 -55c-5.33301 -92.667 62.667 -139 204 -139h63c11.333 0 17 -11.667 17 -35v-79v0zM566.001 -648.998l-103 106l105 107l103 -107zM685.001 -472.998l-104 106l104 106l103 -106zM443.001 -472.998l-104 106l104 106
l103 -106zM562.001 -298.998l-103 107l105 106l102 -106z" />
    <glyph glyph-name="uniFB83" unicode="&#x68d;" horiz-adv-x="956" arabic-form="final" 
d="M978 35c0 -23.333 -5.33398 -35 -16.001 -35h-25c-49.333 0 -89.666 11.667 -120.999 35c-29.333 20.667 -64.666 63.667 -105.999 129c-11.333 -30.667 -27.5 -57.167 -48.5 -79.5s-47.167 -39.166 -78.5 -50.499c-49.333 -22.667 -124 -34 -224 -34
c-164.667 0 -247 65.333 -247 196c0 45.333 6.66699 84.333 20 117c12 26 23.667 39 35 39c13.333 0 20 -8 20 -24c0 -2.66699 -0.5 -6.83398 -1.5 -12.501s-2 -12 -3 -19s-1.83301 -14 -2.5 -21s-1 -12.5 -1 -16.5c0 -73.333 66.667 -110 200 -110
c196.667 0 295 38 295 114c0 10 -6.33301 33.667 -19 71s-33 88.333 -61 153c-53.333 128.667 -80 198.667 -80 210l75 132c19.333 -58.667 45.333 -133.5 78 -224.5l119 -325.5c16 -38 34.167 -68 54.5 -90s43.166 -35.333 68.499 -40h53c10.667 0 16 -11.667 16 -35v-79v0
zM519.999 -366l-103 104l101 100l103 -100zM277.999 -366l-103 104l101 100l102 -100z" />
    <glyph glyph-name="uniFB85" unicode="&#x68c;" horiz-adv-x="956" arabic-form="final" 
d="M978 35c0 -23.333 -5.33398 -35 -16.001 -35h-25c-49.333 0 -89.666 11.667 -120.999 35c-29.333 20.667 -64.666 63.667 -105.999 129c-11.333 -30.667 -27.5 -57.167 -48.5 -79.5s-47.167 -39.166 -78.5 -50.499c-49.333 -22.667 -124 -34 -224 -34
c-164.667 0 -247 65.333 -247 196c0 45.333 6.66699 84.333 20 117c12 26 23.667 39 35 39c13.333 0 20 -8 20 -24c0 -2.66699 -0.5 -6.83398 -1.5 -12.501s-2 -12 -3 -19s-1.83301 -14 -2.5 -21s-1 -12.5 -1 -16.5c0 -73.333 66.667 -110 200 -110
c196.667 0 295 38 295 114c0 10 -6.33301 33.667 -19 71s-33 88.333 -61 153c-53.333 128.667 -80 198.667 -80 210l75 132c19.333 -58.667 45.333 -133.5 78 -224.5l119 -325.5c16 -38 34.167 -68 54.5 -90s43.166 -35.333 68.499 -40h53c10.667 0 16 -11.667 16 -35v-79v0
zM670.999 995l-103 104l101 100l103 -100zM428.999 995l-103 104l101 100l102 -100z" />
    <glyph glyph-name="uniFB87" unicode="&#x68e;" horiz-adv-x="956" arabic-form="final" 
d="M978 35c0 -23.333 -5.33398 -35 -16.001 -35h-25c-49.333 0 -89.666 11.667 -120.999 35c-29.333 20.667 -64.666 63.667 -105.999 129c-11.333 -30.667 -27.5 -57.167 -48.5 -79.5s-47.167 -39.166 -78.5 -50.499c-49.333 -22.667 -124 -34 -224 -34
c-164.667 0 -247 65.333 -247 196c0 45.333 6.66699 84.333 20 117c12 26 23.667 39 35 39c13.333 0 20 -8 20 -24c0 -2.66699 -0.5 -6.83398 -1.5 -12.501s-2 -12 -3 -19s-1.83301 -14 -2.5 -21s-1 -12.5 -1 -16.5c0 -73.333 66.667 -110 200 -110
c196.667 0 295 38 295 114c0 10 -6.33301 33.667 -19 71s-33 88.333 -61 153c-53.333 128.667 -80 198.667 -80 210l75 132c19.333 -58.667 45.333 -133.5 78 -224.5l119 -325.5c16 -38 34.167 -68 54.5 -90s43.166 -35.333 68.499 -40h53c10.667 0 16 -11.667 16 -35v-79v0
zM550.999 1164l-103 106l105 107l103 -107zM673.999 948l-105 106l105 106l103 -106zM431.999 948l-105 106l105 106l103 -106z" />
    <glyph glyph-name="uniFB89" unicode="&#x688;" horiz-adv-x="956" arabic-form="final" 
d="M978 35c0 -23.333 -5.33398 -35 -16.001 -35h-25c-49.333 0 -89.666 11.667 -120.999 35c-29.333 20.667 -64.666 63.667 -105.999 129c-11.333 -30.667 -27.5 -57.167 -48.5 -79.5s-47.167 -39.166 -78.5 -50.499c-49.333 -22.667 -124 -34 -224 -34
c-164.667 0 -247 65.333 -247 196c0 45.333 6.66699 84.333 20 117c12 26 23.667 39 35 39c13.333 0 20 -8 20 -24c0 -2.66699 -0.5 -6.83398 -1.5 -12.501s-2 -12 -3 -19s-1.83301 -14 -2.5 -21s-1 -12.5 -1 -16.5c0 -73.333 66.667 -110 200 -110
c196.667 0 295 38 295 114c0 10 -6.33301 33.667 -19 71s-33 88.333 -61 153c-53.333 128.667 -80 198.667 -80 210l75 132c19.333 -58.667 45.333 -133.5 78 -224.5l119 -325.5c16 -38 34.167 -68 54.5 -90s43.166 -35.333 68.499 -40h53c10.667 0 16 -11.667 16 -35v-79v0
zM786.999 1076c0 -45.333 -31.002 -78.999 -93.002 -100.999c-51.333 -19.333 -123.333 -29 -216 -29c-43.333 0 -77.333 9.33301 -102 28c-20 14.667 -29.333 30.667 -28 48c0 3.33301 1.33301 5 4 5c2 0 6.66699 -2.66699 14 -8c14 -10 38 -15 72 -15
c20 0 35.333 3.33301 46 10c0 8 0.166992 18.167 0.5 30.5s0.5 27.5 0.5 45.5c0 35.333 -3 89.666 -9 162.999c-5.33301 69.333 -8.33301 104 -9 104c1.33301 4 4 8 8 12l33 32l22 -63c4 -12 6 -19 6 -21c0 -4 -7.66699 -3 -23 3c0 -2 0.166992 -9.16699 0.5 -21.5
l1.5 -53.5c1.33301 -19.333 2 -35.5 2 -48.5v-28.5c0 -28.667 -0.833008 -54.167 -2.5 -76.5s-4.5 -41.5 -8.5 -57.5l1 -2c44.667 44 82.334 74.333 113.001 91c28.667 17.333 59.334 26 92.001 26c22 0 40 -6.66699 54 -20s21 -31 21 -53zM753.997 1053
c0 12 -6.66602 22.6631 -19.999 31.9961c-14.667 10.667 -31 16 -49 16c-11.333 0 -23.333 -2.16699 -36 -6.5s-26.334 -10.166 -41.001 -17.499c-11.333 -5.33301 -22.5 -11.666 -33.5 -18.999s-22.167 -15.666 -33.5 -24.999c-19.333 -13.333 -29 -21.666 -29 -24.999
c0 -5.33301 7.33301 -8 22 -8c146.667 0 220 17.667 220 53z" />
    <glyph glyph-name="afii62962" unicode="&#x698;" horiz-adv-x="731" arabic-form="final" 
d="M753 35c0 -23.333 -5.66699 -35.001 -17 -35.001h-24c-20 0 -41 2.33301 -63 7s-44.667 12.334 -68 23.001c6 -24.667 8 -53.334 6 -86.001c-2 -98 -40 -201.667 -114 -311c-68.667 -102.667 -127 -154 -175 -154c-198.667 0 -298 8.33301 -298 25
c0 8 20.667 16.667 62 26c44.667 11.333 90.5 30.5 137.5 57.5s95.5 61.833 145.5 104.5c114 100 171 190.333 171 271c0 64.667 -42.667 135.667 -128 213l69 141c13.333 -19.333 27.333 -37.166 42 -53.499s29.667 -31.5 45 -45.5c10.667 -10.667 22.667 -20 36 -28
s28 -15.667 44 -23c30 -12 53.667 -18 71 -18h41c11.333 0 17 -11.667 17 -35v-79v0zM392 713.999l-103 106l105 107l103 -107zM515 497.999l-105 106l105 106l103 -106zM273 497.999l-105 106l105 106l103 -106z" />
    <glyph glyph-name="uniFB8D" unicode="&#x691;" horiz-adv-x="803" arabic-form="final" 
d="M753 35c0 -23.333 -5.66699 -35.001 -17 -35.001h-24c-20 0 -41 2.33301 -63 7s-44.667 12.334 -68 23.001c6 -24.667 8 -53.334 6 -86.001c-2 -98 -40 -201.667 -114 -311c-68.667 -102.667 -127 -154 -175 -154c-198.667 0 -298 8.33301 -298 25
c0 8 20.667 16.667 62 26c44.667 11.333 90.5 30.5 137.5 57.5s95.5 61.833 145.5 104.5c114 100 171 190.333 171 271c0 64.667 -42.667 135.667 -128 213l69 141c13.333 -19.333 27.333 -37.166 42 -53.499s29.667 -31.5 45 -45.5c10.667 -10.667 22.667 -20 36 -28
s28 -15.667 44 -23c30 -12 53.667 -18 71 -18h41c11.333 0 17 -11.667 17 -35v-79v0zM675 657.999c0 -45.333 -31.002 -78.999 -93.002 -100.999c-51.333 -19.333 -123.333 -29 -216 -29c-43.333 0 -77.333 9.33301 -102 28c-20 14.667 -29.333 30.667 -28 48
c0 3.33301 1.33301 5 4 5c2 0 6.66699 -2.66699 14 -8c14 -10 38 -15 72 -15c20 0 35.333 3.33301 46 10c0 8 0.166992 18.167 0.5 30.5s0.5 27.5 0.5 45.5c0 35.333 -3 89.666 -9 162.999c-5.33301 69.333 -8.33301 104 -9 104c1.33301 4 4 8 8 12l33 32l22 -63
c4 -12 6 -19 6 -21c0 -4 -7.66699 -3 -23 3c0 -2 0.166992 -9.16699 0.5 -21.5l1.5 -53.5c1.33301 -19.333 2 -35.5 2 -48.5v-28.5c0 -28.667 -0.833008 -54.167 -2.5 -76.5s-4.5 -41.5 -8.5 -57.5l1 -2c44.667 44 82.334 74.333 113.001 91
c28.667 17.333 59.334 26 92.001 26c22 0 40 -6.66699 54 -20s21 -31 21 -53zM641.998 635c0 12 -6.66602 22.6631 -19.999 31.9961c-14.667 10.667 -31 16 -49 16c-11.333 0 -23.333 -2.16699 -36 -6.5s-26.334 -10.166 -41.001 -17.499
c-11.333 -5.33301 -22.5 -11.666 -33.5 -18.999s-22.167 -15.666 -33.5 -24.999c-19.333 -13.333 -29 -21.666 -29 -24.999c0 -5.33301 7.33301 -8 22 -8c146.667 0 220 17.667 220 53z" />
    <glyph glyph-name="afii62964" unicode="&#x6a9;" horiz-adv-x="1748" arabic-form="final" 
d="M1771 35c0 -23.333 -5.66699 -34.998 -17 -34.998h-24c-79.333 0 -146.666 21.333 -201.999 64c-22.667 17.333 -52.167 45.666 -88.5 84.999s-79.833 90.333 -130.5 153c-4 -88 -25.333 -153.333 -64 -196c-40 -44.667 -107 -75.667 -201 -93
c-48 -8.66699 -111.667 -15.167 -191 -19.5s-174.666 -6.5 -285.999 -6.5c-303.333 0 -455 93.667 -455 281c0 27.333 2.83301 54.333 8.5 81s14.5 52.667 26.5 78c20.667 47.333 38.667 71 54 71c17.333 0 26 -8.33301 26 -25c0 -1.33301 -1.33301 -5.5 -4 -12.5
s-7.66699 -18.167 -15 -33.5c-12 -28 -18 -56.667 -18 -86c0 -136.667 138.667 -205 416 -205c124 0 228.5 3.66699 313.5 11s151.833 18 200.5 32c83.333 24 125 65 125 123c0 46 -31.667 107.667 -95 185c-16.667 19.333 -39.834 44.5 -69.501 75.5l-109.5 109.5
c-63.333 63.333 -95 100.666 -95 111.999c0 114.667 21.667 180 65 196l716 265l-47 -149l-644 -235c5.33301 -8.66699 52.5 -62.667 141.5 -162l393.5 -440c65.333 -73.333 144.666 -110 237.999 -110h15c11.333 0 17 -11.667 17 -35v-79v0z" />
    </font>
</defs>
</svg>
