<?xml version="1.0" standalone="no"?>
<!DOCTYPE svg PUBLIC "-//W3C//DTD SVG 1.1//EN" "http://www.w3.org/Graphics/SVG/1.1/DTD/svg11.dtd" >
<svg>
<metadata>
Created by FontForge 20090914 at Wed Aug 26 07:46:08 2015
 By www-data
Typeface &#194;&#169; The scict.ir Corporation plc. Data &#194;&#169; The scict.ir Corporation plc/Type Solutions Inc. 2012-2013. All Rights Reserved.Modify  by Hossein Zahedi.
</metadata>
<defs>
<font id="IRRoya-Bold" horiz-adv-x="0" >
  <font-face 
    font-family="IRRoya"
    font-weight="700"
    font-stretch="normal"
    units-per-em="2048"
    panose-1="2 0 8 6 0 0 0 2 0 2"
    ascent="1638"
    descent="-410"
    x-height="793"
    cap-height="1150"
    bbox="-431 -1120 2880 1937"
    underline-thickness="60"
    underline-position="-40"
    unicode-range="U+0020-U+FFFC"
  />
<missing-glyph horiz-adv-x="1063" 
 />
    <glyph glyph-name="afii64184" unicode="&#xfedf;&#xfee0;&#x651;&#x670;&#xfeea;" horiz-adv-x="1497" arabic-form="isolated" 
d="M1081 1523l-15 -237l-67 -29l-14 229zM1256 1272c4 -34.667 6.00195 -66.999 6.00195 -96.999c0 -145.333 -48.667 -218 -146 -218c-42.667 0 -73.667 20.667 -93 62c-36.667 -62.667 -84.334 -94 -143.001 -94c-62 0 -93 38 -93 114c0 47.333 14.333 94.666 43 141.999
h80c-20.667 -46.667 -31 -78 -31 -94c0 -19.333 12 -29 36 -29c43.333 0 68.666 48.333 75.999 145l86 31c0 -46.667 0.666992 -74.667 2 -84c5.33301 -38.667 20.333 -58 45 -58c34.667 0 52 20.667 52 62c0 20 -3.33301 49 -10 87zM1495 280.001
c0 -80.667 -20.6689 -148.333 -62.002 -203c-45.333 -60.667 -107 -91 -185 -91c-106.667 0 -186.334 38 -239.001 114c-47.333 -91.333 -120.666 -137 -219.999 -137c-66.667 0 -122.667 17.333 -168 52c-47.333 35.333 -77.666 85.333 -90.999 150
c-38 -26.667 -104 -40 -198 -40c-46 0 -85.333 16.667 -118 50s-49 73 -49 119c0 78.667 52.667 156.667 158 234c55.333 40.667 116.333 75.667 183 105v111l161 130c3.33301 -117.333 6.33301 -262.333 9 -435c1.33301 -83.333 9 -140.333 23 -171
c16.667 -36.667 47.667 -55 93 -55c71.333 0 107 56.333 107 169v434l192 85v-387c0 -88.667 5 -149.667 15 -183c20 -67.333 62.667 -101 128 -101c22.667 0 41.334 11.333 56.001 34c12.667 19.333 19 41 19 65c0 148.667 -15 329 -45 541l199 115
c21.333 -283.333 32 -518.333 32 -705zM514 337.002l-4.00098 139c-29.333 -6 -62.666 -20.667 -99.999 -44c-42.667 -26.667 -64 -51.667 -64 -75c0 -22.667 34 -34 102 -34c32 0 54 4.66699 66 14z" />
    <glyph glyph-name="afii62834" unicode="&#xfedf;&#xfe82;" horiz-adv-x="1036" arabic-form="isolated" 
d="M976 1236c8 -71.333 12.0029 -147.335 12.0029 -228.002c0 -259.333 -40.667 -444.666 -122 -555.999c50.667 -97.333 76 -185.333 76 -264c0 -142 -106.333 -213 -319 -213c-63.333 0 -128 7 -194 21c-58.667 12.667 -96.334 25.334 -113.001 38.001l39 204
c15.333 -8 32.333 -12 51 -12c49.333 0 102.666 23.667 159.999 71c54 44 91 90.333 111 139c-42.667 71.333 -114.334 150 -215.001 236c-110.667 94.667 -221.667 167 -333 217l44 267c114.667 -50 233 -139 355 -267c90.667 -94.667 164.667 -189 222 -283
c18.667 36 28 117.333 28 244c0 91.333 -4.33301 192.333 -13 303zM801.003 239.998c0 28 -12 58.334 -36 91.001c-21.333 -24 -63 -60.667 -125 -110c22.667 -8.66699 51 -13.334 85 -14.001c50.667 -0.666992 76 10.333 76 33zM655.003 1415
c-26 -47.333 -63.332 -84.333 -111.999 -111c-43.333 -24 -87 -36 -131 -36c-26.667 0 -66 4.66699 -118 14s-91 14 -117 14c-54.667 0 -100.334 -18.333 -137.001 -55l-71 97c52.667 66.667 114.667 100 186 100c25.333 0 63.5 -4.16699 114.5 -12.5
s89.5 -12.5 115.5 -12.5c95.333 0 169 32.333 221 97z" />
    <glyph glyph-name="afii62835" unicode="&#xfee0;&#xfe82;" horiz-adv-x="1227" arabic-form="final" 
d="M1227 0l-63 -0.000976562c-154.667 0.666992 -247.334 135.334 -278.001 404.001c-22.667 -119.333 -82 -222 -178 -308c-98.667 -88.667 -208 -133 -328 -133l-153 163c78 0 164.333 19.333 259 58c112 44.667 177 98.334 195 161.001c1.33301 4.66699 2 9.66699 2 15
c0 70 -75.667 166 -227 288c-125.333 100.667 -234.666 172 -327.999 214l44 258c136.667 -69.333 268 -172 394 -308c118 -127.333 189.333 -236.333 214 -327c10.667 51.333 16 125.666 16 222.999c0 128 -8 275.667 -24 443l223 82v-242
c0 -254.667 14.333 -441.667 43 -561c31.333 -130 85 -195 161 -195h28v-235zM655 1393c-26 -47.333 -63.332 -84.333 -111.999 -111c-43.333 -24 -87 -36 -131 -36c-26.667 0 -66 4.66699 -118 14s-91 14 -117 14c-54.667 0 -100.334 -18.333 -137.001 -55l-71 97
c52.667 66.667 114.667 100 186 100c25.333 0 63.5 -4.16699 114.5 -12.5s89.5 -12.5 115.5 -12.5c95.333 0 169 32.333 221 97z" />
    <glyph glyph-name="afii62836" unicode="&#xfedf;&#xfe84;" horiz-adv-x="995" arabic-form="isolated" 
d="M935 1236c8 -71.333 12.0029 -147.335 12.0029 -228.002c0 -259.333 -40.667 -444.666 -122 -555.999c50.667 -97.333 76 -185.333 76 -264c0 -142 -106.333 -213 -319 -213c-63.333 0 -128 7 -194 21c-58.667 12.667 -96.334 25.334 -113.001 38.001l39 204
c15.333 -8 32.333 -12 51 -12c49.333 0 102.666 23.667 159.999 71c54 44 91 90.333 111 139c-42.667 71.333 -114.334 150 -215.001 236c-110.667 94.667 -221.667 167 -333 217l44 267c114.667 -50 233 -139 355 -267c90.667 -94.667 164.667 -189 222 -283
c18.667 36 28 117.333 28 244c0 91.333 -4.33301 192.333 -13 303zM760.003 239.998c0 28 -12 58.334 -36 91.001c-21.333 -24 -63 -60.667 -125 -110c22.667 -8.66699 51 -13.334 85 -14.001c50.667 -0.666992 76 10.333 76 33zM415.003 1362l-417.001 -122.001l5 66l99 53
c-34.667 34 -52 68.333 -52 103c0 40.667 16.667 77.667 50 111s70.333 50 111 50c53.333 0 95 -14.333 125 -43l-25 -64c-26 10.667 -60.333 16 -103 16c-17.333 0 -35.333 -4.66699 -54 -14c-22 -11.333 -33 -24.666 -33 -39.999c0 -46.667 41 -70 123 -70
c10.667 0 66.334 15.333 167.001 46z" />
    <glyph glyph-name="afii62837" unicode="&#xfee0;&#xfe84;" horiz-adv-x="1187" arabic-form="final" 
d="M1187 0l-63 -0.000976562c-154.667 0.666992 -247.334 135.334 -278.001 404.001c-22.667 -119.333 -82 -222 -178 -308c-98.667 -88.667 -208 -133 -328 -133l-153 163c78 0 164.333 19.333 259 58c112 44.667 177 98.334 195 161.001c1.33301 4.66699 2 9.66699 2 15
c0 70 -75.667 166 -227 288c-125.333 100.667 -234.666 172 -327.999 214l44 258c136.667 -69.333 268 -172 394 -308c118 -127.333 189.333 -236.333 214 -327c10.667 51.333 16 125.666 16 222.999c0 128 -8 275.667 -24 443l223 82v-242
c0 -254.667 14.333 -441.667 43 -561c31.333 -130 85 -195 161 -195h28v-235zM429 1311l-417.001 -122.001l5 66l99 53c-34.667 34 -52 68.333 -52 103c0 40.667 16.667 77.667 50 111s70.333 50 111 50c53.333 0 95 -14.333 125 -43l-25 -64c-26 10.667 -60.333 16 -103 16
c-17.333 0 -35.333 -4.66699 -54 -14c-22 -11.333 -33 -24.666 -33 -39.999c0 -46.667 41 -70 123 -70c10.667 0 66.334 15.333 167.001 46z" />
    <glyph glyph-name="afii62838" unicode="&#xfedf;&#xfe88;" horiz-adv-x="1008" arabic-form="isolated" 
d="M948 1236c8 -71.333 12.0029 -147.335 12.0029 -228.002c0 -259.333 -40.667 -444.666 -122 -555.999c50.667 -97.333 76 -185.333 76 -264c0 -142 -106.333 -213 -319 -213c-63.333 0 -128 7 -194 21c-58.667 12.667 -96.334 25.334 -113.001 38.001l39 204
c15.333 -8 32.333 -12 51 -12c49.333 0 102.666 23.667 159.999 71c54 44 91 90.333 111 139c-42.667 71.333 -114.334 150 -215.001 236c-110.667 94.667 -221.667 167 -333 217l44 267c114.667 -50 233 -139 355 -267c90.667 -94.667 164.667 -189 222 -283
c18.667 36 28 117.333 28 244c0 91.333 -4.33301 192.333 -13 303zM773.003 239.998c0 28 -12 58.334 -36 91.001c-21.333 -24 -63 -60.667 -125 -110c22.667 -8.66699 51 -13.334 85 -14.001c50.667 -0.666992 76 10.333 76 33zM617.003 -393.001l-417.001 -122.001l5 66
l99 53c-34.667 34 -52 68.333 -52 103c0 40.667 16.667 77.667 50 111s70.333 50 111 50c53.333 0 95 -14.333 125 -43l-25 -64c-26 10.667 -60.333 16 -103 16c-17.333 0 -35.333 -4.66699 -54 -14c-22 -11.333 -33 -24.666 -33 -39.999c0 -46.667 41 -70 123 -70
c10.667 0 66.334 15.333 167.001 46z" />
    <glyph glyph-name="afii62839" unicode="&#xfee0;&#xfe88;" horiz-adv-x="1187" arabic-form="final" 
d="M1187 0l-63 -0.000976562c-154.667 0.666992 -247.334 135.334 -278.001 404.001c-22.667 -119.333 -82 -222 -178 -308c-98.667 -88.667 -208 -133 -328 -133l-153 163c78 0 164.333 19.333 259 58c112 44.667 177 98.334 195 161.001c1.33301 4.66699 2 9.66699 2 15
c0 70 -75.667 166 -227 288c-125.333 100.667 -234.666 172 -327.999 214l44 258c136.667 -69.333 268 -172 394 -308c118 -127.333 189.333 -236.333 214 -327c10.667 51.333 16 125.666 16 222.999c0 128 -8 275.667 -24 443l223 82v-242
c0 -254.667 14.333 -441.667 43 -561c31.333 -130 85 -195 161 -195h28v-235zM621 -397.001l-417.001 -122.001l5 66l99 53c-34.667 34 -52 68.333 -52 103c0 40.667 16.667 77.667 50 111s70.333 50 111 50c53.333 0 95 -14.333 125 -43l-25 -64
c-26 10.667 -60.333 16 -103 16c-17.333 0 -35.333 -4.66699 -54 -14c-22 -11.333 -33 -24.666 -33 -39.999c0 -46.667 41 -70 123 -70c10.667 0 66.334 15.333 167.001 46z" />
    <glyph glyph-name="afii62840" unicode="&#xfedf;&#xfe8e;" horiz-adv-x="995" arabic-form="isolated" 
d="M935 1236c8 -71.333 12.0029 -147.335 12.0029 -228.002c0 -259.333 -40.667 -444.666 -122 -555.999c50.667 -97.333 76 -185.333 76 -264c0 -142 -106.333 -213 -319 -213c-63.333 0 -128 7 -194 21c-58.667 12.667 -96.334 25.334 -113.001 38.001l39 204
c15.333 -8 32.333 -12 51 -12c49.333 0 102.666 23.667 159.999 71c54 44 91 90.333 111 139c-42.667 71.333 -114.334 150 -215.001 236c-110.667 94.667 -221.667 167 -333 217l44 267c114.667 -50 233 -139 355 -267c90.667 -94.667 164.667 -189 222 -283
c18.667 36 28 117.333 28 244c0 91.333 -4.33301 192.333 -13 303zM760.003 239.998c0 28 -12 58.334 -36 91.001c-21.333 -24 -63 -60.667 -125 -110c22.667 -8.66699 51 -13.334 85 -14.001c50.667 -0.666992 76 10.333 76 33z" />
    <glyph glyph-name="afii62841" unicode="&#xfee0;&#xfe8e;" horiz-adv-x="1187" arabic-form="final" 
d="M1187 0l-63 -0.000976562c-154.667 0.666992 -247.334 135.334 -278.001 404.001c-22.667 -119.333 -82 -222 -178 -308c-98.667 -88.667 -208 -133 -328 -133l-153 163c78 0 164.333 19.333 259 58c112 44.667 177 98.334 195 161.001c1.33301 4.66699 2 9.66699 2 15
c0 70 -75.667 166 -227 288c-125.333 100.667 -234.666 172 -327.999 214l44 258c136.667 -69.333 268 -172 394 -308c118 -127.333 189.333 -236.333 214 -327c10.667 51.333 16 125.666 16 222.999c0 128 -8 275.667 -24 443l223 82v-242
c0 -254.667 14.333 -441.667 43 -561c31.333 -130 85 -195 161 -195h28v-235z" />
    <glyph glyph-name="uni0672.fina" unicode="&#x672;" horiz-adv-x="561" 
d="M561 0h-38c-139.333 0.666992 -233.333 46.667 -282 138c-31.333 58.667 -49.333 161.667 -54 309l-22 704l204 82v-814c0 -122.667 49 -184 147 -184h45v-235zM292 1464c2.66699 1.33301 -1.99902 7.99902 -13.999 19.999s-24.667 20.333 -38 25
c-10 2.66699 -24 -0.833008 -42 -10.5s-29.667 -23.834 -35 -42.501c4.66699 -20.667 14.667 -35.5 30 -44.5s33.5 -14.5 54.5 -16.5s42.667 -1.16699 65 2.5s42.5 7.83398 60.5 12.501c8 2 10 -2.16699 6 -12.5s-10.333 -23.833 -19 -40.5
c-34.667 -25.333 -90.167 -40.666 -166.5 -45.999s-121.166 -23.666 -134.499 -54.999c-7.33301 -2.66699 -10.333 1.5 -9 12.5s3.33301 19.833 6 26.5c11.333 26 35.666 41.167 72.999 45.5s64 10.166 80 17.499c-16.667 0.666992 -36.167 6.83398 -58.5 18.501
s-31.5 33.834 -27.5 66.501c0.666992 25.333 7.83398 48.166 21.501 68.499s30.167 36 49.5 47s41.166 15.167 65.499 12.5s47.833 -14.667 70.5 -36c6.66699 -10.667 6.16699 -21.834 -1.5 -33.501s-19.834 -24.167 -36.501 -37.5z" />
    <glyph glyph-name="uni0673.fina" unicode="&#x673;" horiz-adv-x="561" 
d="M561 0h-38c-139.333 0.666992 -233.333 46.667 -282 138c-31.333 58.667 -49.333 161.667 -54 309l-22 704l204 82v-814c0 -122.667 49 -184 147 -184h45v-235zM366 -222c2.66699 1.33301 -1.99902 7.99902 -13.999 19.999s-24.667 20.333 -38 25
c-10 2.66699 -24 -0.833008 -42 -10.5s-29.667 -23.834 -35 -42.501c4.66699 -20.667 14.667 -35.5 30 -44.5s33.5 -14.5 54.5 -16.5s42.667 -1.16699 65 2.5s42.5 7.83398 60.5 12.501c8 2 10 -2.16699 6 -12.5s-10.333 -23.833 -19 -40.5
c-34.667 -25.333 -90.167 -40.666 -166.5 -45.999s-121.166 -23.666 -134.499 -54.999c-7.33301 -2.66699 -10.333 1.5 -9 12.5s3.33301 19.833 6 26.5c11.333 26 35.666 41.167 72.999 45.5s64 10.166 80 17.499c-16.667 0.666992 -36.167 6.83398 -58.5 18.501
s-31.5 33.834 -27.5 66.501c0.666992 25.333 7.83398 48.166 21.501 68.499s30.167 36 49.5 47s41.166 15.167 65.499 12.5s47.833 -14.667 70.5 -36c6.66699 -10.667 6.16699 -21.834 -1.5 -33.501s-19.834 -24.167 -36.501 -37.5z" />
    <glyph glyph-name="uni0675.fina" unicode="&#x675;" horiz-adv-x="561" 
d="M561 0h-38c-139.333 0.666992 -233.333 46.667 -282 138c-31.333 58.667 -49.333 161.667 -54 309l-22 704l204 82v-814c0 -122.667 49 -184 147 -184h45v-235zM455 1415l-417.001 -122.001l5 66l99 53c-34.667 34 -52 68.333 -52 103c0 40.667 16.667 77.667 50 111
s70.333 50 111 50c53.333 0 95 -14.333 125 -43l-25 -64c-26 10.667 -60.333 16 -103 16c-17.333 0 -35.333 -4.66699 -54 -14c-22 -11.333 -33 -24.666 -33 -39.999c0 -46.667 41 -70 123 -70c10.667 0 66.334 15.333 167.001 46z" />
    <glyph glyph-name="uni0676.fina" unicode="&#x676;" horiz-adv-x="745" 
d="M745 0l-77.002 0.000976562c-24.667 -106.667 -87 -208 -187 -304c-90.667 -86.667 -192.334 -152 -305.001 -196l-147 139c94.667 35.333 190.334 87.666 287.001 156.999c104.667 75.333 168.334 142.333 191.001 201c-109.333 0 -187.666 11.667 -234.999 35
c-70 34 -105 99 -105 195c0 62.667 18 128.667 54 198c44.667 86.667 101.667 130 171 130c82 0 148.667 -36.333 200 -109c41.333 -58 67.333 -128.333 78 -211h75v-235zM510.998 234.001c-3.33301 30 -15.999 58.332 -37.999 84.999c-24.667 28.667 -51.334 43 -80.001 43
c-19.333 0 -37.833 -8.66699 -55.5 -26s-26.5 -35.666 -26.5 -54.999c0 -40 33 -60 99 -60c31.333 0 65 4.33301 101 13zM566.999 779l-417.001 -122.001l5 66l99 53c-34.667 34 -52 68.333 -52 103c0 40.667 16.667 77.667 50 111s70.333 50 111 50
c53.333 0 95 -14.333 125 -43l-25 -64c-26 10.667 -60.333 16 -103 16c-17.333 0 -35.333 -4.66699 -54 -14c-22 -11.333 -33 -24.666 -33 -39.999c0 -46.667 41 -70 123 -70c10.667 0 66.334 15.333 167.001 46z" />
    <glyph glyph-name="uni0677.fina" unicode="&#x677;" horiz-adv-x="840" 
d="M840 0l-77.002 0.000976562c-24.667 -106.667 -87 -208 -187 -304c-90.667 -86.667 -192.334 -152 -305.001 -196l-147 139c94.667 35.333 190.334 87.666 287.001 156.999c104.667 75.333 168.334 142.333 191.001 201c-109.333 0 -187.666 11.667 -234.999 35
c-70 34 -105 99 -105 195c0 62.667 18 128.667 54 198c44.667 86.667 101.667 130 171 130c82 0 148.667 -36.333 200 -109c41.333 -58 67.333 -128.333 78 -211h75v-235zM605.998 234.001c-3.33301 30 -15.999 58.332 -37.999 84.999c-24.667 28.667 -51.334 43 -80.001 43
c-19.333 0 -37.833 -8.66699 -55.5 -26s-26.5 -35.666 -26.5 -54.999c0 -40 33 -60 99 -60c31.333 0 65 4.33301 101 13zM829.537 826.312l-379.001 -110.972l4.54492 60.0342l89.9785 48.209c-31.5078 30.9268 -47.2617 62.1562 -47.2617 93.6885
c0 36.9912 15.1475 70.6465 45.4434 100.967s63.9248 45.4805 100.886 45.4805c48.4736 0 86.3428 -13.0381 113.608 -39.1133l-22.7217 -58.2148c-23.6309 9.70215 -54.8359 14.5537 -93.6143 14.5537c-15.7529 0 -32.1123 -4.24512 -49.0781 -12.7344
c-19.9951 -10.3086 -29.9922 -22.4365 -29.9922 -36.3848c0 -42.4482 37.2637 -63.6719 111.791 -63.6719c9.69434 0 60.2881 13.9473 151.781 41.8418zM427.342 960.999c0 -56.3271 -26.5811 -106.195 -79.7402 -149.604l51.0947 -35.6572l-37.9346 -41.083
c-16.5156 9.81934 -34.5791 25.8389 -54.1914 48.0596c-70.708 -49.6094 -150.447 -83.7158 -239.219 -102.319l-23.999 51.1602c97.5449 31.5225 166.446 64.0781 206.703 97.668c-21.6768 31.0059 -32.5146 55.0352 -32.5146 72.0889
c0 30.4893 12.6445 61.624 37.9336 93.4053c25.29 31.7803 52.6445 47.6709 82.0635 47.6709c23.7412 0 44.6436 -7.75098 62.707 -23.2539c18.0645 -15.5029 27.0967 -34.8818 27.0967 -58.1357zM369.277 936.969c0 28.9385 -16.7734 43.4082 -50.3203 43.4082
c-13.4189 0 -26.5801 -7.75098 -39.4824 -23.2539c-12.9033 -15.5029 -19.3545 -30.2305 -19.3545 -44.1826c0 -24.2881 15.7412 -43.9248 47.2236 -58.9111c41.2891 28.9385 61.9336 56.585 61.9336 82.9395z" />
    <glyph glyph-name="uni0678.fina" unicode="&#x678;" horiz-adv-x="1240" 
d="M1240 0l-29.002 -0.000976562c-43.333 3.33301 -114.666 8.33301 -213.999 15c-19.333 1.33301 -32.666 2 -39.999 2c-66.667 0 -100 -10 -100 -30c0 -12.667 13.333 -21 40 -25l213 -32c74 -20.667 111 -59.667 111 -117c0 -70.667 -49.667 -141 -149 -211
c-118 -82.667 -263 -124 -435 -124c-186 0 -322.333 46.667 -409 140c-69.333 74.667 -104 174.667 -104 300c0 105.333 31.333 212 94 320l156 -55c-14 -23.333 -27.667 -58 -41 -104c-14.667 -48 -22 -84.333 -22 -109c0 -170.667 112.667 -256 338 -256
c157.333 0 274 15.667 350 47c23.333 9.33301 35 18 35 26c0 7.33301 -10 12.333 -30 15c-14.667 2 -77.667 9.33301 -189 22c-97.333 23.333 -146 67.333 -146 132c0 92.667 61 165.334 183 218.001c95.333 40.667 196.333 61 303 61h85v-235zM767.998 557.999
l-417.001 -122.001l5 66l99 53c-34.667 34 -52 68.333 -52 103c0 40.667 16.667 77.667 50 111s70.333 50 111 50c53.333 0 95 -14.333 125 -43l-25 -64c-26 10.667 -60.333 16 -103 16c-17.333 0 -35.333 -4.66699 -54 -14c-22 -11.333 -33 -24.666 -33 -39.999
c0 -46.667 41 -70 123 -70c10.667 0 66.334 15.333 167.001 46z" />
    <glyph glyph-name="uni067C.init" unicode="&#x67c;" horiz-adv-x="436" 
d="M388 328c0 -106.667 -33 -188.666 -99 -245.999c-62.667 -54 -148.667 -81.333 -258 -82h-101v235h201c70 0 105 17.333 105 52c0 21.333 -15.333 51.666 -46 90.999l-69 88l132 190c90 -90 135 -199.333 135 -328zM422 913.001l-110 -149l-136 96l-80 -112l-172 117
l110 149l144 -99l79 112zM366 -77.999c0 -45.333 -14 -84.333 -42 -117c-30 -34 -67.333 -51 -112 -51c-38.667 0 -70.667 12.333 -96 37s-38 56 -38 94c0 64.667 15.667 116 47 154c24.667 31.333 52 47 82 47c33.333 0 67 -14 101 -42c38.667 -33.333 58 -74 58 -122z
M302 -85.999c0 27.333 -11 49.667 -33 67c-20 16 -44.333 24 -73 24c-14 0 -27.667 -10.5 -41 -31.5s-20 -39.167 -20 -54.5c0 -48.667 26.333 -73 79 -73c22 0 41.667 5.66699 59 17c19.333 12.667 29 29.667 29 51z" />
    <glyph glyph-name="uni067C.medi" unicode="&#x67c;" horiz-adv-x="509" 
d="M509 0h-19c-96 0.666992 -159.333 36 -190 106c-50 -70 -129.667 -105.333 -239 -106h-131v235h123c102.667 0 154 35.667 154 107v80l167 55v-50c0 -128 41.333 -192 124 -192h11v-235zM478 783l-110 -149l-136 96l-80 -112l-172 117l110 149l144 -99l79 112zM304 -96
c0 -45.333 -14 -84.333 -42 -117c-30 -34 -67.333 -51 -112 -51c-38.667 0 -70.667 12.333 -96 37s-38 56 -38 94c0 64.667 15.667 116 47 154c24.667 31.333 52 47 82 47c33.333 0 67 -14 101 -42c38.667 -33.333 58 -74 58 -122zM240 -104c0 27.333 -11 49.667 -33 67
c-20 16 -44.333 24 -73 24c-14 0 -27.667 -10.5 -41 -31.5s-20 -39.167 -20 -54.5c0 -48.667 26.333 -73 79 -73c22 0 41.667 5.66699 59 17c19.333 12.667 29 29.667 29 51z" />
    <glyph glyph-name="uni067C.fina" unicode="&#x67c;" horiz-adv-x="1733" 
d="M1733 0h-39c-101.333 0.666992 -171 40.334 -209 119.001c-51.333 -68 -165.333 -117 -342 -147c-116.667 -20 -244.667 -30 -384 -30c-396 0 -594 116.333 -594 349c0 69.333 25.667 155 77 257l151 -47c-29.333 -64 -44 -109.667 -44 -137
c0 -56.667 21.667 -98.667 65 -126c64 -40 182.667 -60 356 -60h88c142.667 0 247.667 5 315 15c158.667 23.333 238 73 238 149v52l167 55v-48c0 -62.667 9.66699 -105.334 29 -128.001c21.333 -25.333 62.333 -38 123 -38h3v-235zM1145 838l-110 -149l-136 96l-80 -112
l-172 117l110 149l144 -99l79 112zM1014 -138c0 -45.333 -14 -84.333 -42 -117c-30 -34 -67.333 -51 -112 -51c-38.667 0 -70.667 12.333 -96 37s-38 56 -38 94c0 64.667 15.667 116 47 154c24.667 31.333 52 47 82 47c33.333 0 67 -14 101 -42
c38.667 -33.333 58 -74 58 -122zM950 -146c0 27.333 -11 49.667 -33 67c-20 16 -44.333 24 -73 24c-14 0 -27.667 -10.5 -41 -31.5s-20 -39.167 -20 -54.5c0 -48.667 26.333 -73 79 -73c22 0 41.667 5.66699 59 17c19.333 12.667 29 29.667 29 51z" />
    <glyph glyph-name="uni067D.init" unicode="&#x67d;" horiz-adv-x="436" 
d="M388 328c0 -106.667 -33 -188.666 -99 -245.999c-62.667 -54 -148.667 -81.333 -258 -82h-101v235h201c70 0 105 17.333 105 52c0 21.333 -15.333 51.666 -46 90.999l-69 88l132 190c90 -90 135 -199.333 135 -328zM399 1114l-102 -140l-133 89l-77 -104l-157 104
l107 139l133 -88l72 105zM325 869.001l-103 -137l-144 98l101 136z" />
    <glyph glyph-name="uni067D.medi" unicode="&#x67d;" horiz-adv-x="509" 
d="M509 0h-19c-96 0.666992 -159.333 36 -190 106c-50 -70 -129.667 -105.333 -239 -106h-131v235h123c102.667 0 154 35.667 154 107v80l167 55v-50c0 -128 41.333 -192 124 -192h11v-235zM479 934l-102 -140l-133 89l-77 -104l-157 104l107 139l133 -88l72 105zM405 689
l-103 -137l-144 98l101 136z" />
    <glyph glyph-name="uni067D.fina" unicode="&#x67d;" horiz-adv-x="1733" 
d="M1733 0h-39c-101.333 0.666992 -171 40.334 -209 119.001c-51.333 -68 -165.333 -117 -342 -147c-116.667 -20 -244.667 -30 -384 -30c-396 0 -594 116.333 -594 349c0 69.333 25.667 155 77 257l151 -47c-29.333 -64 -44 -109.667 -44 -137
c0 -56.667 21.667 -98.667 65 -126c64 -40 182.667 -60 356 -60h88c142.667 0 247.667 5 315 15c158.667 23.333 238 73 238 149v52l167 55v-48c0 -62.667 9.66699 -105.334 29 -128.001c21.333 -25.333 62.333 -38 123 -38h3v-235zM1102 945l-102 -140l-133 89l-77 -104
l-157 104l107 139l133 -88l72 105zM1028 700l-103 -137l-144 98l101 136z" />
    <glyph glyph-name="uni0681.init" unicode="&#x681;" horiz-adv-x="1081" 
d="M1078 516l-27.001 -210c-84 0 -173 -26.333 -267 -79c-56.667 -34 -143 -83 -259 -147c-104 -52.667 -223 -79 -357 -79h-238v234h235c100 0 195.333 15.333 286 46c10 3.33301 83.667 30 221 80c-23.333 2.66699 -81.333 17.667 -174 45
c-85.333 25.333 -137.666 38 -156.999 38c-25.333 0 -46.666 -9 -63.999 -27l-37 -47c-60.667 24 -111.334 47.667 -152.001 71c60.667 146 134 219 220 219c56.667 0 163.5 -24.667 320.5 -74s279.167 -74 366.5 -74c28 0 55.667 1.33301 83 4zM803.999 883
l-417.001 -122.001l5 66l99 53c-34.667 34 -52 68.333 -52 103c0 40.667 16.667 77.667 50 111s70.333 50 111 50c53.333 0 95 -14.333 125 -43l-25 -64c-26 10.667 -60.333 16 -103 16c-17.333 0 -35.333 -4.66699 -54 -14c-22 -11.333 -33 -24.666 -33 -39.999
c0 -46.667 41 -70 123 -70c10.667 0 66.334 15.333 167.001 46z" />
    <glyph glyph-name="uni0681.medi" unicode="&#x681;" horiz-adv-x="1208" 
d="M1208 1h-198.002c-156.667 0 -236.667 97.333 -240 292c-40 -22 -100.333 -64.333 -181 -127c-70.667 -54.667 -130 -93 -178 -115c-72 -33.333 -151 -50 -237 -50h-244v234h213c100 0 191.333 21 274 63l205 110c-26 2.66699 -78.333 11 -157 25
c-71.333 12.667 -112.666 19 -123.999 19c-28.667 0 -60.667 -27.333 -96 -82c-63.333 26 -113.666 49.667 -150.999 71c64 159.333 137.333 239 220 239c71.333 0 182.666 -17.667 333.999 -53s266 -53 344 -53c39.333 0 76.333 2 111 6l-27 -227
c-65.333 0 -127.333 -9 -186 -27c6.66699 -28 16.334 -47.667 29.001 -59c24 -21.333 65.333 -32 124 -32h165v-234zM828.998 911l-417.001 -122.001l5 66l99 53c-34.667 34 -52 68.333 -52 103c0 40.667 16.667 77.667 50 111s70.333 50 111 50
c53.333 0 95 -14.333 125 -43l-25 -64c-26 10.667 -60.333 16 -103 16c-17.333 0 -35.333 -4.66699 -54 -14c-22 -11.333 -33 -24.666 -33 -39.999c0 -46.667 41 -70 123 -70c10.667 0 66.334 15.333 167.001 46z" />
    <glyph glyph-name="uni0681.fina" unicode="&#x681;" horiz-adv-x="1318" 
d="M1318 1l-212.004 -0.000976562c-156.667 0 -233.667 107.333 -231 322c-131.333 -42 -245 -107.333 -341 -196c-102.667 -95.333 -154 -191.666 -154 -288.999c0 -229.333 171.333 -344 514 -344c125.333 0 233.333 15 324 45l64 -201
c-135.333 -51.333 -275.666 -77 -420.999 -77c-207.333 0 -369.666 39 -486.999 117c-139.333 92.667 -209 237 -209 433c0 124.667 54.333 243.667 163 357c86 90 194 165.333 324 226c-118 14.667 -191.333 22 -220 22c-31.333 0 -63.333 -26.333 -96 -79
c-66 27.333 -117.333 52 -154 74c63.333 157.333 137.333 236 222 236c64.667 0 163 -7.5 295 -22.5s231.333 -22.5 298 -22.5c72.667 0 138.334 3.33301 197.001 10l-28 -240c-54 0 -110.667 -5.33301 -170 -16c4.66699 -34 12.334 -58.667 23.001 -74
c22 -31.333 62 -47 120 -47h179v-234zM902.996 870.999l-417.001 -122.001l5 66l99 53c-34.667 34 -52 68.333 -52 103c0 40.667 16.667 77.667 50 111s70.333 50 111 50c53.333 0 95 -14.333 125 -43l-25 -64c-26 10.667 -60.333 16 -103 16
c-17.333 0 -35.333 -4.66699 -54 -14c-22 -11.333 -33 -24.666 -33 -39.999c0 -46.667 41 -70 123 -70c10.667 0 66.334 15.333 167.001 46z" />
    <glyph glyph-name="uni0682.init" unicode="&#x682;" horiz-adv-x="1081" 
d="M1078 516l-27.001 -210c-84 0 -173 -26.333 -267 -79c-56.667 -34 -143 -83 -259 -147c-104 -52.667 -223 -79 -357 -79h-238v234h235c100 0 195.333 15.333 286 46c10 3.33301 83.667 30 221 80c-23.333 2.66699 -81.333 17.667 -174 45
c-85.333 25.333 -137.666 38 -156.999 38c-25.333 0 -46.666 -9 -63.999 -27l-37 -47c-60.667 24 -111.334 47.667 -152.001 71c60.667 146 134 219 220 219c56.667 0 163.5 -24.667 320.5 -74s279.167 -74 366.5 -74c28 0 55.667 1.33301 83 4zM578.999 936l-113 114
l113 112l112 -112zM578.999 712l-113 114l113 112l112 -112z" />
    <glyph glyph-name="uni0682.medi" unicode="&#x682;" horiz-adv-x="1208" 
d="M1208 1h-198.002c-156.667 0 -236.667 97.333 -240 292c-40 -22 -100.333 -64.333 -181 -127c-70.667 -54.667 -130 -93 -178 -115c-72 -33.333 -151 -50 -237 -50h-244v234h213c100 0 191.333 21 274 63l205 110c-26 2.66699 -78.333 11 -157 25
c-71.333 12.667 -112.666 19 -123.999 19c-28.667 0 -60.667 -27.333 -96 -82c-63.333 26 -113.666 49.667 -150.999 71c64 159.333 137.333 239 220 239c71.333 0 182.666 -17.667 333.999 -53s266 -53 344 -53c39.333 0 76.333 2 111 6l-27 -227
c-65.333 0 -127.333 -9 -186 -27c6.66699 -28 16.334 -47.667 29.001 -59c24 -21.333 65.333 -32 124 -32h165v-234zM594.998 979l-113 114l113 112l112 -112zM594.998 755l-113 114l113 112l112 -112z" />
    <glyph glyph-name="uni0682.fina" unicode="&#x682;" horiz-adv-x="1318" 
d="M1318 1l-212.004 -0.000976562c-156.667 0 -233.667 107.333 -231 322c-131.333 -42 -245 -107.333 -341 -196c-102.667 -95.333 -154 -191.666 -154 -288.999c0 -229.333 171.333 -344 514 -344c125.333 0 233.333 15 324 45l64 -201
c-135.333 -51.333 -275.666 -77 -420.999 -77c-207.333 0 -369.666 39 -486.999 117c-139.333 92.667 -209 237 -209 433c0 124.667 54.333 243.667 163 357c86 90 194 165.333 324 226c-118 14.667 -191.333 22 -220 22c-31.333 0 -63.333 -26.333 -96 -79
c-66 27.333 -117.333 52 -154 74c63.333 157.333 137.333 236 222 236c64.667 0 163 -7.5 295 -22.5s231.333 -22.5 298 -22.5c72.667 0 138.334 3.33301 197.001 10l-28 -240c-54 0 -110.667 -5.33301 -170 -16c4.66699 -34 12.334 -58.667 23.001 -74
c22 -31.333 62 -47 120 -47h179v-234zM671.996 959.999l-113 114l113 112l112 -112zM671.996 735.999l-113 114l113 112l112 -112z" />
    <glyph glyph-name="uni0685.init" unicode="&#x685;" horiz-adv-x="1081" 
d="M1078 516l-27.001 -210c-84 0 -173 -26.333 -267 -79c-56.667 -34 -143 -83 -259 -147c-104 -52.667 -223 -79 -357 -79h-238v234h235c100 0 195.333 15.333 286 46c10 3.33301 83.667 30 221 80c-23.333 2.66699 -81.333 17.667 -174 45
c-85.333 25.333 -137.666 38 -156.999 38c-25.333 0 -46.666 -9 -63.999 -27l-37 -47c-60.667 24 -111.334 47.667 -152.001 71c60.667 146 134 219 220 219c56.667 0 163.5 -24.667 320.5 -74s279.167 -74 366.5 -74c28 0 55.667 1.33301 83 4zM336.999 847l102 140
l133 -89l77 104l156 -104l-106 -139l-133 88l-72 -104zM415.999 1093l103 136l144 -97l-101 -137z" />
    <glyph glyph-name="uni0685.medi" unicode="&#x685;" horiz-adv-x="1208" 
d="M1208 1h-198.002c-156.667 0 -236.667 97.333 -240 292c-40 -22 -100.333 -64.333 -181 -127c-70.667 -54.667 -130 -93 -178 -115c-72 -33.333 -151 -50 -237 -50h-244v234h213c100 0 191.333 21 274 63l205 110c-26 2.66699 -78.333 11 -157 25
c-71.333 12.667 -112.666 19 -123.999 19c-28.667 0 -60.667 -27.333 -96 -82c-63.333 26 -113.666 49.667 -150.999 71c64 159.333 137.333 239 220 239c71.333 0 182.666 -17.667 333.999 -53s266 -53 344 -53c39.333 0 76.333 2 111 6l-27 -227
c-65.333 0 -127.333 -9 -186 -27c6.66699 -28 16.334 -47.667 29.001 -59c24 -21.333 65.333 -32 124 -32h165v-234zM365.998 867l102 140l133 -89l77 104l156 -104l-106 -139l-133 88l-72 -104zM444.998 1113l103 136l144 -97l-101 -137z" />
    <glyph glyph-name="uni0685.fina" unicode="&#x685;" horiz-adv-x="1318" 
d="M1318 1l-212.004 -0.000976562c-156.667 0 -233.667 107.333 -231 322c-131.333 -42 -245 -107.333 -341 -196c-102.667 -95.333 -154 -191.666 -154 -288.999c0 -229.333 171.333 -344 514 -344c125.333 0 233.333 15 324 45l64 -201
c-135.333 -51.333 -275.666 -77 -420.999 -77c-207.333 0 -369.666 39 -486.999 117c-139.333 92.667 -209 237 -209 433c0 124.667 54.333 243.667 163 357c86 90 194 165.333 324 226c-118 14.667 -191.333 22 -220 22c-31.333 0 -63.333 -26.333 -96 -79
c-66 27.333 -117.333 52 -154 74c63.333 157.333 137.333 236 222 236c64.667 0 163 -7.5 295 -22.5s231.333 -22.5 298 -22.5c72.667 0 138.334 3.33301 197.001 10l-28 -240c-54 0 -110.667 -5.33301 -170 -16c4.66699 -34 12.334 -58.667 23.001 -74
c22 -31.333 62 -47 120 -47h179v-234zM482.996 856.999l102 140l133 -89l77 104l156 -104l-106 -139l-133 88l-72 -104zM561.996 1103l103 136l144 -97l-101 -137z" />
    <glyph glyph-name="uni0689.fina" unicode="&#x689;" horiz-adv-x="1108" 
d="M1108 1h-41c-134.667 0 -229.667 54.333 -285 163c-54.667 -127.333 -164.334 -191 -329.001 -191c-131.333 0 -227.666 36.333 -288.999 109l71 188c55.333 -42 135.333 -63 240 -63c158 0 237 35.333 237 106c0 12 -2.33301 24.667 -7 38l-137 390l163 148l135 -434
c22.667 -72.667 43.667 -122.667 63 -150c32 -46.667 77 -70 135 -70h44v-234zM628 -120c0 -45.333 -14 -84.333 -42 -117c-30 -34 -67.333 -51 -112 -51c-38.667 0 -70.667 12.333 -96 37s-38 56 -38 94c0 64.667 15.667 116 47 154c24.667 31.333 52 47 82 47
c33.333 0 67 -14 101 -42c38.667 -33.333 58 -74 58 -122zM564 -128c0 27.333 -11 49.667 -33 67c-20 16 -44.333 24 -73 24c-14 0 -27.667 -10.5 -41 -31.5s-20 -39.167 -20 -54.5c0 -48.667 26.333 -73 79 -73c22 0 41.667 5.66699 59 17c19.333 12.667 29 29.667 29 51z
" />
    <glyph glyph-name="uni068A.fina" unicode="&#x68a;" horiz-adv-x="1108" 
d="M1108 1h-41c-134.667 0 -229.667 54.333 -285 163c-54.667 -127.333 -164.334 -191 -329.001 -191c-131.333 0 -227.666 36.333 -288.999 109l71 188c55.333 -42 135.333 -63 240 -63c158 0 237 35.333 237 106c0 12 -2.33301 24.667 -7 38l-137 390l163 148l135 -434
c22.667 -72.667 43.667 -122.667 63 -150c32 -46.667 77 -70 135 -70h44v-234zM626 -305l-124 -164l-169 112l124 166z" />
    <glyph glyph-name="uni068b.fina" unicode="&#x68b;" horiz-adv-x="1108" 
d="M1108 1h-41c-134.667 0 -229.667 54.333 -285 163c-54.667 -127.333 -164.334 -191 -329.001 -191c-131.333 0 -227.666 36.333 -288.999 109l71 188c55.333 -42 135.333 -63 240 -63c158 0 237 35.333 237 106c0 12 -2.33301 24.667 -7 38l-137 390l163 148l135 -434
c22.667 -72.667 43.667 -122.667 63 -150c32 -46.667 77 -70 135 -70h44v-234zM763 1097c0 -49.333 -22.667 -88.001 -68 -116.001c-39.333 -23.333 -87.666 -35 -144.999 -35h-56c-58.667 0 -98.334 15 -119.001 45l27 51c16 -8.66699 33.333 -13 52 -13
c26 0 42.333 12.333 49 37c2 8.66699 3 32.334 3 71.001c0 56 -4.33301 125.333 -13 208l74 29v-241c36.667 33.333 71.667 50 105 50c26 0 47.667 -7.66699 65 -23c17.333 -16 26 -37 26 -63zM705 1076c0 19.333 -16.333 28.999 -49 28.999c-21.333 0 -45 -10.667 -71 -32
c-4 -3.33301 -20 -18.666 -48 -45.999h35c24.667 0 50 3.33301 76 10c38 8.66699 57 21.667 57 39zM566 -250.002l-124 -164l-169 112l124 166z" />
    <glyph glyph-name="uni068F.fina" unicode="&#x68f;" horiz-adv-x="1108" 
d="M1108 1h-41c-134.667 0 -229.667 54.333 -285 163c-54.667 -127.333 -164.334 -191 -329.001 -191c-131.333 0 -227.666 36.333 -288.999 109l71 188c55.333 -42 135.333 -63 240 -63c158 0 237 35.333 237 106c0 12 -2.33301 24.667 -7 38l-137 390l163 148l135 -434
c22.667 -72.667 43.667 -122.667 63 -150c32 -46.667 77 -70 135 -70h44v-234zM804 1301l-102 -140l-133 89l-77 -104l-157 104l107 139l133 -88l72 105zM730 1056l-103 -137l-144 98l101 136z" />
    <glyph glyph-name="uni0690.fina" unicode="&#x690;" horiz-adv-x="1108" 
d="M1108 1h-41c-134.667 0 -229.667 54.333 -285 163c-54.667 -127.333 -164.334 -191 -329.001 -191c-131.333 0 -227.666 36.333 -288.999 109l71 188c55.333 -42 135.333 -63 240 -63c158 0 237 35.333 237 106c0 12 -2.33301 24.667 -7 38l-137 390l163 148l135 -434
c22.667 -72.667 43.667 -122.667 63 -150c32 -46.667 77 -70 135 -70h44v-234zM720 1059l-116 117l116 116l117 -116zM479 1059l-117 117l117 116l116 -116zM599 1233l-116 116l116 117l117 -117zM604 891l-117 117l117 116l116 -116z" />
    <glyph glyph-name="uni0692.fina" unicode="&#x692;" horiz-adv-x="834" 
d="M834 0h-35.999c-52.667 0.666992 -91 14 -115 40c-10 -118 -70 -228.667 -180 -332c-92 -86 -202 -154 -330 -204l-170 117c100 42.667 202.667 101.667 308 177c142 101.333 213 187.333 213 258c0 39.333 -36 108 -108 206l159 171c48 -79.333 85.333 -131 112 -155
c31.333 -28.667 71.666 -43 120.999 -43h26v-235zM643.001 741c-10 -8 -22.5 -21.8301 -37.5 -41.4971s-30.167 -42.667 -45.5 -69s-29.833 -54.833 -43.5 -85.5s-24.167 -61 -31.5 -91h-28l-1 3c-8 29.333 -18.833 59.166 -32.5 89.499s-28.167 58.666 -43.5 84.999
s-30.333 49.166 -45 68.499s-26.667 33 -36 41l108 2c14 -21.333 26.167 -47.333 36.5 -78s19.166 -62.667 26.499 -96c7.33301 33.333 16.333 65.333 27 96s23.334 56.667 38.001 78z" />
    <glyph glyph-name="uni0693.fina" unicode="&#x693;" horiz-adv-x="834" 
d="M834 0h-35.999c-52.667 0.666992 -91 14 -115 40c-10 -118 -70 -228.667 -180 -332c-92 -86 -202 -154 -330 -204l-170 117c100 42.667 202.667 101.667 308 177c142 101.333 213 187.333 213 258c0 39.333 -36 108 -108 206l159 171c48 -79.333 85.333 -131 112 -155
c31.333 -28.667 71.666 -43 120.999 -43h26v-235zM484.001 -521c0 -45.333 -14 -84.333 -42 -117c-30 -34 -67.333 -51 -112 -51c-38.667 0 -70.667 12.333 -96 37s-38 56 -38 94c0 64.667 15.667 116 47 154c24.667 31.333 52 47 82 47c33.333 0 67 -14 101 -42
c38.667 -33.333 58 -74 58 -122zM420.001 -529c0 27.333 -11 49.667 -33 67c-20 16 -44.333 24 -73 24c-14 0 -27.667 -10.5 -41 -31.5s-20 -39.167 -20 -54.5c0 -48.667 26.333 -73 79 -73c22 0 41.667 5.66699 59 17c19.333 12.667 29 29.667 29 51z" />
    <glyph glyph-name="uni0694.fina" unicode="&#x694;" horiz-adv-x="834" 
d="M834 0h-35.999c-52.667 0.666992 -91 14 -115 40c-10 -118 -70 -228.667 -180 -332c-92 -86 -202 -154 -330 -204l-170 117c100 42.667 202.667 101.667 308 177c142 101.333 213 187.333 213 258c0 39.333 -36 108 -108 206l159 171c48 -79.333 85.333 -131 112 -155
c31.333 -28.667 71.666 -43 120.999 -43h26v-235zM477.001 -646l-124 -164l-169 112l124 166z" />
    <glyph glyph-name="uni0695.fina" unicode="&#x695;" horiz-adv-x="834" 
d="M834 0h-35.999c-52.667 0.666992 -91 14 -115 40c-10 -118 -70 -228.667 -180 -332c-92 -86 -202 -154 -330 -204l-170 117c100 42.667 202.667 101.667 308 177c142 101.333 213 187.333 213 258c0 39.333 -36 108 -108 206l159 171c48 -79.333 85.333 -131 112 -155
c31.333 -28.667 71.666 -43 120.999 -43h26v-235zM395.001 -605c-10 -8 -22.5 -21.8301 -37.5 -41.4971s-30.167 -42.667 -45.5 -69s-29.833 -54.833 -43.5 -85.5s-24.167 -61 -31.5 -91h-28l-1 3c-8 29.333 -18.833 59.166 -32.5 89.499s-28.167 58.666 -43.5 84.999
s-30.333 49.166 -45 68.499s-26.667 33 -36 41l108 2c14 -21.333 26.167 -47.333 36.5 -78s19.166 -62.667 26.499 -96c7.33301 33.333 16.333 65.333 27 96s23.334 56.667 38.001 78z" />
    <glyph glyph-name="uni0696.fina" unicode="&#x696;" horiz-adv-x="834" 
d="M834 0h-35.999c-52.667 0.666992 -91 14 -115 40c-10 -118 -70 -228.667 -180 -332c-92 -86 -202 -154 -330 -204l-170 117c100 42.667 202.667 101.667 308 177c142 101.333 213 187.333 213 258c0 39.333 -36 108 -108 206l159 171c48 -79.333 85.333 -131 112 -155
c31.333 -28.667 71.666 -43 120.999 -43h26v-235zM415.001 -662l-124 -164l-169 112l124 166zM291.001 -23l-124 -164l-169 112l124 166z" />
    <glyph glyph-name="uni0697.fina" unicode="&#x697;" horiz-adv-x="834" 
d="M834 0h-35.999c-52.667 0.666992 -91 14 -115 40c-10 -118 -70 -228.667 -180 -332c-92 -86 -202 -154 -330 -204l-170 117c100 42.667 202.667 101.667 308 177c142 101.333 213 187.333 213 258c0 39.333 -36 108 -108 206l159 171c48 -79.333 85.333 -131 112 -155
c31.333 -28.667 71.666 -43 120.999 -43h26v-235zM696.001 691l-110 -149l-136 96l-80 -112l-172 117l110 149l144 -99l79 112z" />
    <glyph glyph-name="uni0699.fina" unicode="&#x699;" horiz-adv-x="834" 
d="M834 0h-35.999c-52.667 0.666992 -91 14 -115 40c-10 -118 -70 -228.667 -180 -332c-92 -86 -202 -154 -330 -204l-170 117c100 42.667 202.667 101.667 308 177c142 101.333 213 187.333 213 258c0 39.333 -36 108 -108 206l159 171c48 -79.333 85.333 -131 112 -155
c31.333 -28.667 71.666 -43 120.999 -43h26v-235zM483.001 615l-116 117l116 116l117 -116zM242.001 615l-117 117l117 116l116 -116zM362.001 789l-116 116l116 117l117 -117zM367.001 447l-117 117l117 116l116 -116z" />
    <glyph glyph-name="uni069A.init" unicode="&#x69a;" horiz-adv-x="1158" 
d="M1120 331c0 -80.667 -21.3311 -153.999 -63.998 -219.999c-49.333 -75.333 -112.333 -113 -189 -113c-106 0 -183 36 -231 108c-40.667 -70 -99.334 -105 -176.001 -105c-96 0 -164 35 -204 105c-20 -32.667 -52.667 -58.667 -98 -78c-41.333 -18.667 -83 -28 -125 -28
h-103v235h123c37.333 0 68.166 11 92.499 33s36.5 51.333 36.5 88v60l143 47v-63c0 -40 7.66699 -75.333 23 -106c20 -39.333 48 -59 84 -59c95.333 0 143 43 143 129v80l146 44v-102c0 -44 12.667 -80.667 38 -110c26.667 -31.333 61.667 -47 105 -47
c58.667 0 88 27.667 88 83c0 51.333 -23 98 -69 140l143 160c62.667 -68.667 94 -162.334 94 -281.001zM781.002 856.001l-124 -164l-169 112l124 166zM750.002 -285.999l-124 -164l-169 112l124 166z" />
    <glyph glyph-name="uni069A.medi" unicode="&#x69a;" horiz-adv-x="1213" 
d="M1213 0h-33.001c-86 0.666992 -151 36 -195 106c-43.333 -70 -104.666 -105 -183.999 -105c-76 0 -132 35 -168 105c-54 -70 -119 -105 -195 -105c-80.667 0 -137.667 35 -171 105c-44 -70 -108 -105.333 -192 -106h-145v235h150c56.667 0 85 34 85 102v74l146 49v-66
c0 -106 44 -159 132 -159c71.333 0 107 34 107 102v74l143 49v-66c0 -106 37.667 -159 113 -159c84.667 0 127 34 127 102v74l145 49v-66c0 -64 3 -103 9 -117c12 -28 45.667 -42 101 -42h25v-235zM741.999 748l-124 -164l-169 112l124 166zM715.999 -241l-124 -164
l-169 112l124 166z" />
    <glyph glyph-name="uni069A.fina" unicode="&#x69a;" horiz-adv-x="2026" 
d="M2026 0h-39.0029c-53.333 -0 -95.666 10.333 -126.999 31c-23.333 14.667 -46 39.667 -68 75c-42.667 -70 -104 -105 -184 -105c-75.333 0 -131.333 35 -168 105c-52.667 -70 -116 -105 -190 -105c-61.333 0 -101.666 13.667 -120.999 41
c0 -161.333 -49.667 -295 -149 -401c-101.333 -108.667 -232.333 -163 -393 -163c-161.333 0 -282 50.667 -362 152c-64.667 81.333 -97 185.666 -97 312.999c0 102 27.667 208.333 83 319l156 -55c-36.667 -94.667 -55 -168 -55 -220c0 -89.333 27 -158 81 -206
c52 -46 123.333 -69 214 -69c96.667 0 176.667 27 240 81c67.333 56.667 101 132.334 101 227.001c0 91.333 -33 181.333 -99 270l176 165c24.667 -50.667 56.334 -97 95.001 -139c49.333 -54 92.666 -81 129.999 -81c71.333 0 107 34 107 102v74l143 49v-66
c0 -106 37.667 -159 113 -159c84.667 0 127 34 127 102v74l145 49v-66c0 -64.667 3 -103.667 9 -117c12.667 -28 46.334 -42 101.001 -42h31v-235zM1550 837l-124 -164l-169 112l124 166zM1561 -324l-124 -164l-169 112l124 166z" />
    <glyph glyph-name="uni069B.init" unicode="&#x69b;" horiz-adv-x="1158" 
d="M1120 331c0 -80.667 -21.3311 -153.999 -63.998 -219.999c-49.333 -75.333 -112.333 -113 -189 -113c-106 0 -183 36 -231 108c-40.667 -70 -99.334 -105 -176.001 -105c-96 0 -164 35 -204 105c-20 -32.667 -52.667 -58.667 -98 -78c-41.333 -18.667 -83 -28 -125 -28
h-103v235h123c37.333 0 68.166 11 92.499 33s36.5 51.333 36.5 88v60l143 47v-63c0 -40 7.66699 -75.333 23 -106c20 -39.333 48 -59 84 -59c95.333 0 143 43 143 129v80l146 44v-102c0 -44 12.667 -80.667 38 -110c26.667 -31.333 61.667 -47 105 -47
c58.667 0 88 27.667 88 83c0 51.333 -23 98 -69 140l143 160c62.667 -68.667 94 -162.334 94 -281.001zM791.002 -282.999l-102 -140l-133 89l-77 -104l-157 104l107 139l133 -88l72 105zM717.002 -527.999l-103 -137l-144 98l101 136z" />
    <glyph glyph-name="uni069B.medi" unicode="&#x69b;" horiz-adv-x="1213" 
d="M1213 0h-33.001c-86 0.666992 -151 36 -195 106c-43.333 -70 -104.666 -105 -183.999 -105c-76 0 -132 35 -168 105c-54 -70 -119 -105 -195 -105c-80.667 0 -137.667 35 -171 105c-44 -70 -108 -105.333 -192 -106h-145v235h150c56.667 0 85 34 85 102v74l146 49v-66
c0 -106 44 -159 132 -159c71.333 0 107 34 107 102v74l143 49v-66c0 -106 37.667 -159 113 -159c84.667 0 127 34 127 102v74l145 49v-66c0 -64 3 -103 9 -117c12 -28 45.667 -42 101 -42h25v-235zM849.999 -288l-102 -140l-133 89l-77 -104l-157 104l107 139l133 -88
l72 105zM775.999 -533l-103 -137l-144 98l101 136z" />
    <glyph glyph-name="uni069B.fina" unicode="&#x69b;" horiz-adv-x="2026" 
d="M2026 0h-39.0029c-53.333 -0 -95.666 10.333 -126.999 31c-23.333 14.667 -46 39.667 -68 75c-42.667 -70 -104 -105 -184 -105c-75.333 0 -131.333 35 -168 105c-52.667 -70 -116 -105 -190 -105c-61.333 0 -101.666 13.667 -120.999 41
c0 -161.333 -49.667 -295 -149 -401c-101.333 -108.667 -232.333 -163 -393 -163c-161.333 0 -282 50.667 -362 152c-64.667 81.333 -97 185.666 -97 312.999c0 102 27.667 208.333 83 319l156 -55c-36.667 -94.667 -55 -168 -55 -220c0 -89.333 27 -158 81 -206
c52 -46 123.333 -69 214 -69c96.667 0 176.667 27 240 81c67.333 56.667 101 132.334 101 227.001c0 91.333 -33 181.333 -99 270l176 165c24.667 -50.667 56.334 -97 95.001 -139c49.333 -54 92.666 -81 129.999 -81c71.333 0 107 34 107 102v74l143 49v-66
c0 -106 37.667 -159 113 -159c84.667 0 127 34 127 102v74l145 49v-66c0 -64.667 3 -103.667 9 -117c12.667 -28 46.334 -42 101.001 -42h31v-235zM1685 -330l-102 -140l-133 89l-77 -104l-157 104l107 139l133 -88l72 105zM1611 -575l-103 -137l-144 98l101 136z" />
    <glyph glyph-name="uni069C.init" unicode="&#x69c;" horiz-adv-x="1158" 
d="M1120 331c0 -80.667 -21.3311 -153.999 -63.998 -219.999c-49.333 -75.333 -112.333 -113 -189 -113c-106 0 -183 36 -231 108c-40.667 -70 -99.334 -105 -176.001 -105c-96 0 -164 35 -204 105c-20 -32.667 -52.667 -58.667 -98 -78c-41.333 -18.667 -83 -28 -125 -28
h-103v235h123c37.333 0 68.166 11 92.499 33s36.5 51.333 36.5 88v60l143 47v-63c0 -40 7.66699 -75.333 23 -106c20 -39.333 48 -59 84 -59c95.333 0 143 43 143 129v80l146 44v-102c0 -44 12.667 -80.667 38 -110c26.667 -31.333 61.667 -47 105 -47
c58.667 0 88 27.667 88 83c0 51.333 -23 98 -69 140l143 160c62.667 -68.667 94 -162.334 94 -281.001zM872.002 -283.999l-102 -140l-133 89l-77 -104l-157 104l107 139l133 -88l72 105zM798.002 -528.999l-103 -137l-144 98l101 136zM384.002 714.001l102 140l133 -89
l77 104l156 -104l-106 -139l-133 88l-72 -104zM463.002 960.001l103 136l144 -97l-101 -137z" />
    <glyph glyph-name="uni069C.medi" unicode="&#x69c;" horiz-adv-x="1213" 
d="M1213 0h-33.001c-86 0.666992 -151 36 -195 106c-43.333 -70 -104.666 -105 -183.999 -105c-76 0 -132 35 -168 105c-54 -70 -119 -105 -195 -105c-80.667 0 -137.667 35 -171 105c-44 -70 -108 -105.333 -192 -106h-145v235h150c56.667 0 85 34 85 102v74l146 49v-66
c0 -106 44 -159 132 -159c71.333 0 107 34 107 102v74l143 49v-66c0 -106 37.667 -159 113 -159c84.667 0 127 34 127 102v74l145 49v-66c0 -64 3 -103 9 -117c12 -28 45.667 -42 101 -42h25v-235zM848.999 -276l-102 -140l-133 89l-77 -104l-157 104l107 139l133 -88
l72 105zM774.999 -521l-103 -137l-144 98l101 136zM385.999 688l102 140l133 -89l77 104l156 -104l-106 -139l-133 88l-72 -104zM464.999 934l103 136l144 -97l-101 -137z" />
    <glyph glyph-name="uni069C.fina" unicode="&#x69c;" horiz-adv-x="2026" 
d="M2026 0h-39.0029c-53.333 -0 -95.666 10.333 -126.999 31c-23.333 14.667 -46 39.667 -68 75c-42.667 -70 -104 -105 -184 -105c-75.333 0 -131.333 35 -168 105c-52.667 -70 -116 -105 -190 -105c-61.333 0 -101.666 13.667 -120.999 41
c0 -161.333 -49.667 -295 -149 -401c-101.333 -108.667 -232.333 -163 -393 -163c-161.333 0 -282 50.667 -362 152c-64.667 81.333 -97 185.666 -97 312.999c0 102 27.667 208.333 83 319l156 -55c-36.667 -94.667 -55 -168 -55 -220c0 -89.333 27 -158 81 -206
c52 -46 123.333 -69 214 -69c96.667 0 176.667 27 240 81c67.333 56.667 101 132.334 101 227.001c0 91.333 -33 181.333 -99 270l176 165c24.667 -50.667 56.334 -97 95.001 -139c49.333 -54 92.666 -81 129.999 -81c71.333 0 107 34 107 102v74l143 49v-66
c0 -106 37.667 -159 113 -159c84.667 0 127 34 127 102v74l145 49v-66c0 -64.667 3 -103.667 9 -117c12.667 -28 46.334 -42 101.001 -42h31v-235zM1618 -327l-102 -140l-133 89l-77 -104l-157 104l107 139l133 -88l72 105zM1544 -572l-103 -137l-144 98l101 136zM1178 668
l102 140l133 -89l77 104l156 -104l-106 -139l-133 88l-72 -104zM1257 914l103 136l144 -97l-101 -137z" />
    <glyph glyph-name="uni069D.init" unicode="&#x69d;" horiz-adv-x="1337" 
d="M1285 438c0 -140.667 -65.001 -251.667 -195.001 -333c-111.333 -69.333 -241.666 -104 -390.999 -104h-204c-112 0 -189 30.333 -231 91c-40.667 -60.667 -104.667 -91 -192 -91h-142v234h117c86 0 129 39.333 129 118v69l157 44v-83c0 -48.667 3.66699 -82 11 -100
c12 -30 37.667 -45 77 -45c26.667 0 58 22 94 66c208 254.667 377.333 382 508 382c75.333 0 137.833 -22.667 187.5 -68s74.5 -105.333 74.5 -180zM1120 378c0 56.667 -47.667 85 -143 85c-61.333 0 -129 -30.333 -203 -91c-14.667 -12 -60 -56 -136 -132h99
c71.333 0 144.333 8.66699 219 26c109.333 26 164 63.333 164 112zM820.999 -278l-110 -149l-136 96l-80 -112l-172 117l110 149l144 -99l79 112z" />
    <glyph glyph-name="uni069D.medi" unicode="&#x69d;" horiz-adv-x="1367" 
d="M1367 1h-30.001c-100.667 0 -178.667 36.667 -234 110c-88 -73.333 -214.333 -110 -379 -110h-231c-113.333 0 -189.666 30.333 -228.999 91c-40.667 -60.667 -104.667 -91 -192 -91h-142v234h117c86 0 129 39.333 129 118v69l157 44v-83c0 -48.667 3.66699 -82 11 -100
c12 -30 37.667 -45 77 -45c25.333 0 55.666 22 90.999 66c205.333 254.667 375 382 509 382c76 0 138.5 -22.5 187.5 -67.5s73.5 -105.167 73.5 -180.5c0 -68.667 -15.667 -130 -47 -184c6.66699 -12.667 45.334 -19 116.001 -19h16v-234zM1117 378
c0 56.667 -47.667 85 -143 85c-61.333 0 -129 -30.333 -203 -91c-18.667 -15.333 -63.667 -59.333 -135 -132h99c71.333 0 144.333 8.66699 219 26c108.667 26 163 63.333 163 112zM779.999 -303l-110 -149l-136 96l-80 -112l-172 117l110 149l144 -99l79 112z" />
    <glyph glyph-name="uni069D.fina" unicode="&#x69d;" horiz-adv-x="2178" 
d="M2178 1l-28 -0.000976562c-101.333 0 -180 36.667 -236 110c-86.667 -73.333 -213 -110 -379 -110h-143c-124 0 -198.333 13.667 -223 41c0 -161.333 -49.667 -295 -149 -401c-101.333 -108.667 -232.333 -163 -393 -163c-161.333 0 -282 50.667 -362 152
c-64.667 81.333 -97 185.666 -97 312.999c0 102 27.667 208.333 83 319l156 -55c-36.667 -94.667 -55 -168 -55 -220c0 -89.333 27 -158 81 -206c52 -46 123.333 -69 214 -69c96.667 0 176.667 27 240 81c67.333 56.667 101 132.334 101 227.001
c0 91.333 -33 181.333 -99 270l176 165c59.333 -143.333 115 -215 167 -215c23.333 0 41 5.66699 53 17c226.667 286 409 429 547 429c76 0 138.5 -22.5 187.5 -67.5s73.5 -105.167 73.5 -180.5c0 -69.333 -15.667 -130.666 -47 -183.999
c6.66699 -12.667 45.334 -19 116 -19h16v-234zM1928 371.999c0 57.333 -47.666 86 -142.999 86c-60.667 0 -128.334 -30.667 -203.001 -92c-14.667 -12 -59.667 -55.667 -135 -131h99c71.333 0 144.333 8.66699 219 26c108.667 25.333 163 62.333 163 111zM1767 -386.001
l-110 -149l-136 96l-80 -112l-172 117l110 149l144 -99l79 112z" />
    <glyph glyph-name="uni069E.init" unicode="&#x69e;" horiz-adv-x="1337" 
d="M1285 438c0 -140.667 -65.001 -251.667 -195.001 -333c-111.333 -69.333 -241.666 -104 -390.999 -104h-204c-112 0 -189 30.333 -231 91c-40.667 -60.667 -104.667 -91 -192 -91h-142v234h117c86 0 129 39.333 129 118v69l157 44v-83c0 -48.667 3.66699 -82 11 -100
c12 -30 37.667 -45 77 -45c26.667 0 58 22 94 66c208 254.667 377.333 382 508 382c75.333 0 137.833 -22.667 187.5 -68s74.5 -105.333 74.5 -180zM1120 378c0 56.667 -47.667 85 -143 85c-61.333 0 -129 -30.333 -203 -91c-14.667 -12 -60 -56 -136 -132h99
c71.333 0 144.333 8.66699 219 26c109.333 26 164 63.333 164 112zM352.999 820l102 140l133 -89l77 104l156 -104l-106 -139l-133 88l-72 -104zM431.999 1066l103 136l144 -97l-101 -137z" />
    <glyph glyph-name="uni069E.medi" unicode="&#x69e;" horiz-adv-x="1367" 
d="M1367 1h-30.001c-100.667 0 -178.667 36.667 -234 110c-88 -73.333 -214.333 -110 -379 -110h-231c-113.333 0 -189.666 30.333 -228.999 91c-40.667 -60.667 -104.667 -91 -192 -91h-142v234h117c86 0 129 39.333 129 118v69l157 44v-83c0 -48.667 3.66699 -82 11 -100
c12 -30 37.667 -45 77 -45c25.333 0 55.666 22 90.999 66c205.333 254.667 375 382 509 382c76 0 138.5 -22.5 187.5 -67.5s73.5 -105.167 73.5 -180.5c0 -68.667 -15.667 -130 -47 -184c6.66699 -12.667 45.334 -19 116.001 -19h16v-234zM1117 378
c0 56.667 -47.667 85 -143 85c-61.333 0 -129 -30.333 -203 -91c-18.667 -15.333 -63.667 -59.333 -135 -132h99c71.333 0 144.333 8.66699 219 26c108.667 26 163 63.333 163 112zM331.999 849l102 140l133 -89l77 104l156 -104l-106 -139l-133 88l-72 -104zM410.999 1095
l103 136l144 -97l-101 -137z" />
    <glyph glyph-name="uni069E.fina" unicode="&#x69e;" horiz-adv-x="2178" 
d="M2178 1l-28 -0.000976562c-101.333 0 -180 36.667 -236 110c-86.667 -73.333 -213 -110 -379 -110h-143c-124 0 -198.333 13.667 -223 41c0 -161.333 -49.667 -295 -149 -401c-101.333 -108.667 -232.333 -163 -393 -163c-161.333 0 -282 50.667 -362 152
c-64.667 81.333 -97 185.666 -97 312.999c0 102 27.667 208.333 83 319l156 -55c-36.667 -94.667 -55 -168 -55 -220c0 -89.333 27 -158 81 -206c52 -46 123.333 -69 214 -69c96.667 0 176.667 27 240 81c67.333 56.667 101 132.334 101 227.001
c0 91.333 -33 181.333 -99 270l176 165c59.333 -143.333 115 -215 167 -215c23.333 0 41 5.66699 53 17c226.667 286 409 429 547 429c76 0 138.5 -22.5 187.5 -67.5s73.5 -105.167 73.5 -180.5c0 -69.333 -15.667 -130.666 -47 -183.999
c6.66699 -12.667 45.334 -19 116 -19h16v-234zM1928 371.999c0 57.333 -47.666 86 -142.999 86c-60.667 0 -128.334 -30.667 -203.001 -92c-14.667 -12 -59.667 -55.667 -135 -131h99c71.333 0 144.333 8.66699 219 26c108.667 25.333 163 62.333 163 111zM1119 819.999
l102 140l133 -89l77 104l156 -104l-106 -139l-133 88l-72 -104zM1198 1066l103 136l144 -97l-101 -137z" />
    <glyph glyph-name="uni069F.medi" unicode="&#x69f;" horiz-adv-x="1270" 
d="M1270 0l-29 -0.000976562c-88 0.666992 -162.667 41.334 -224 122.001c-98 -80.667 -246.333 -121 -445 -121h-160c-170 0 -284.667 43 -344 129l77 146c42 -27.333 90 -41 144 -41c80 0 126.667 29.333 140 88c11.333 50 17 126 17 228c0 162 -12.333 362 -37 600
l213 82v-694c106 96 206.667 144 302 144c75.333 0 137.333 -22 186 -66c50 -46 75 -106.333 75 -181c0 -64 -17.333 -122.667 -52 -176c13.333 -16.667 54.333 -25 123 -25h14v-235zM1020 374.999c0 56.667 -47.6699 84.999 -143.003 84.999
c-61.333 0 -129.666 -31 -204.999 -93c-11.333 -9.33301 -56.666 -53.333 -135.999 -132h99c70.667 0 144.334 9 221.001 27c109.333 26.667 164 64.334 164 113.001zM727.997 920.998l102 140l133 -89l77 104l156 -104l-106 -139l-133 88l-72 -104zM806.997 1167l103 136
l144 -97l-101 -137z" />
    <glyph glyph-name="uni06A0.init" unicode="&#x6a0;" horiz-adv-x="854" 
d="M803 309c-17.333 -130.667 -25.334 -199.33 -24.001 -205.997c-295.333 -68 -530 -102.333 -704 -103h-145v235h249l-32 68c-10 29.333 -15 68 -15 116c0 64 25.333 125.667 76 185c58.667 69.333 131.667 104 219 104c47.333 0 96 -11.333 146 -34
c52.667 -24 92.667 -54 120 -90l-63 -126c-59.333 32.667 -122.666 49 -189.999 49c-35.333 0 -69 -7.33301 -101 -22c-40.667 -18.667 -61 -43.334 -61 -74.001c0 -36.667 24.833 -70.834 74.5 -102.501s99.167 -46.834 148.5 -45.501c68 2 168.667 17.333 302 46z
M168.999 905.004l102 140l133 -89l77 104l156 -104l-106 -139l-133 88l-72 -104zM247.999 1151l103 136l144 -97l-101 -137z" />
    <glyph glyph-name="uni06A0.medi" unicode="&#x6a0;" horiz-adv-x="781" 
d="M781 0h-133c-112 0.666992 -197.667 47 -257 139c-121.333 -92 -246 -138.333 -374 -139h-87v235h95c146 0 235 26.667 267 80c0 22.667 -22.333 40.334 -67 53.001c-32 8.66699 -63 13 -93 13v27c0 64 23.333 118.667 70 164c58 56 142 84 252 84
c56 0 103.667 -11 143 -33c48 -27.333 72 -67 72 -119c0 -68.667 -19 -124.334 -57 -167.001l-89 -75c12 -18 60.667 -27 146 -27h112v-235zM145 881l102 140l133 -89l77 104l156 -104l-106 -139l-133 88l-72 -104zM224 1127l103 136l144 -97l-101 -137z" />
    <glyph glyph-name="uni06A0.fina" unicode="&#x6a0;" horiz-adv-x="1078" 
d="M1183 -671c-103.333 -44 -228 -65.999 -374 -65.999c-187.333 0 -336.333 36.667 -447 110c-131.333 86.667 -197 218.667 -197 396c0 141.333 52.333 272.333 157 393c33.333 38.667 104.666 101.334 213.999 188.001c0 35.333 -54 53 -162 53v30
c0 68 25 125.667 75 173c62 58.667 151.667 88 269 88c50.667 0 98.334 -11.667 143.001 -35c53.333 -28.667 80 -66.334 80 -113.001c0 -70.667 -16.667 -128.334 -50 -173.001c-19.333 -26 -53.333 -55.667 -102 -89c14 -32.667 65.333 -49 154 -49h135v-235h-187
c-122.667 0.666992 -209.667 58.667 -261 174c-72 -38 -134 -92.333 -186 -163c-57.333 -77.333 -86 -153.333 -86 -228c0 -107.333 58 -185.333 174 -234c83.333 -34.667 187 -52 311 -52c106 0 196.333 12 271 36zM402 891.001l102 140l133 -89l77 104l156 -104l-106 -139
l-133 88l-72 -104zM481 1137l103 136l144 -97l-101 -137z" />
    <glyph glyph-name="afii57459" unicode="&#x6a1;" horiz-adv-x="622" 
d="M571 359c0 -238.667 -146.667 -358.334 -440 -359.001h-201v235h319c114 0 171 39.333 171 118c-25.333 -29.333 -76 -44 -152 -44c-130 0 -195 61.333 -195 184c0 58.667 19.667 123.667 59 195c48 86.667 105.333 130 172 130c82 0 149.667 -58.667 203 -176
c42.667 -95.333 64 -189.666 64 -282.999zM373 526c-6.66699 22 -18 43.667 -34 65c-20 24.667 -40 37 -60 37c-14 0 -29.333 -8.66699 -46 -26s-25 -33.333 -25 -48c0 -48 25.667 -72 77 -72c46 0 75.333 14.667 88 44z" />
    <glyph glyph-name="afii57374" unicode="&#x6a1;" horiz-adv-x="677" 
d="M677 0l-69.002 0.000976562c-117.333 0.666992 -212.666 27.667 -285.999 81c-28.667 -20.667 -68.167 -39.334 -118.5 -56.001s-93.166 -25 -128.499 -25h-145v235h222c-26 30 -39 73 -39 129c0 76 33.667 149.333 101 220c63.333 66 123.333 99 180 99
c58 0 104.333 -31.667 139 -95c28 -52.667 42 -110.667 42 -174c0 -76 -26.667 -135.667 -80 -179h182v-235zM439.998 389.001c0 22 -8.66699 40.332 -26 54.999s-37 22 -59 22c-22.667 0 -45.667 -9.66699 -69 -29s-35 -40 -35 -62c0 -17.333 9.66699 -33.166 29 -47.499
s38 -21.5 56 -21.5c20 0 42.333 9 67 27s37 36.667 37 56z" />
    <glyph glyph-name="afii52258" unicode="&#x6a1;" horiz-adv-x="1766" 
d="M1766 0h-88.001c-44 0 -90.333 9.66699 -139 29c-57.333 18.667 -99.333 40 -126 64c-41.333 -32 -108.333 -61.667 -201 -89c-133.333 -39.333 -282.333 -59 -447 -59c-396 0 -594 116 -594 348c0 70 25.667 156 77 258l151 -47c-29.333 -64 -44 -109.667 -44 -137
c0 -56.667 21.667 -98.667 65 -126c64.667 -40.667 183.334 -61 356.001 -61h88c85.333 0 168 6.66699 248 20c67.333 11.333 110.333 23 129 35c-28 31.333 -42 79 -42 143c0 74.667 34.333 147.667 103 219c64.667 66.667 125 100 181 100c58 0 105 -31.667 141 -95
c30.667 -54 46 -112.333 46 -175c0 -82.667 -28.667 -146.667 -86 -192h182v-235zM1535 403c0 22 -9.66699 40.333 -29 55s-40 22 -62 22c-23.333 0 -47 -9.5 -71 -28.5s-36 -39.833 -36 -62.5c0 -17.333 10.667 -33.333 32 -48c19.333 -14 38 -21 56 -21
c20 0 43.333 9.16699 70 27.5s40 36.833 40 55.5z" />
    <glyph glyph-name="uni06A2.init" unicode="&#x6a2;" horiz-adv-x="622" 
d="M571 359c0 -238.667 -146.667 -358.334 -440 -359.001h-201v235h319c114 0 171 39.333 171 118c-25.333 -29.333 -76 -44 -152 -44c-130 0 -195 61.333 -195 184c0 58.667 19.667 123.667 59 195c48 86.667 105.333 130 172 130c82 0 149.667 -58.667 203 -176
c42.667 -95.333 64 -189.666 64 -282.999zM373 526c-6.66699 22 -18 43.667 -34 65c-20 24.667 -40 37 -60 37c-14 0 -29.333 -8.66699 -46 -26s-25 -33.333 -25 -48c0 -48 25.667 -72 77 -72c46 0 75.333 14.667 88 44zM487 -251l-124 -164l-169 112l124 166z" />
    <glyph glyph-name="uni06A2.medi" unicode="&#x6a2;" horiz-adv-x="677" 
d="M677 0l-69.002 0.000976562c-117.333 0.666992 -212.666 27.667 -285.999 81c-28.667 -20.667 -68.167 -39.334 -118.5 -56.001s-93.166 -25 -128.499 -25h-145v235h222c-26 30 -39 73 -39 129c0 76 33.667 149.333 101 220c63.333 66 123.333 99 180 99
c58 0 104.333 -31.667 139 -95c28 -52.667 42 -110.667 42 -174c0 -76 -26.667 -135.667 -80 -179h182v-235zM439.998 389.001c0 22 -8.66699 40.332 -26 54.999s-37 22 -59 22c-22.667 0 -45.667 -9.66699 -69 -29s-35 -40 -35 -62c0 -17.333 9.66699 -33.166 29 -47.499
s38 -21.5 56 -21.5c20 0 42.333 9 67 27s37 36.667 37 56zM484.998 -239l-124 -164l-169 112l124 166z" />
    <glyph glyph-name="uni06A2.fina" unicode="&#x6a2;" horiz-adv-x="1766" 
d="M1766 0h-88.001c-44 0 -90.333 9.66699 -139 29c-57.333 18.667 -99.333 40 -126 64c-41.333 -32 -108.333 -61.667 -201 -89c-133.333 -39.333 -282.333 -59 -447 -59c-396 0 -594 116 -594 348c0 70 25.667 156 77 258l151 -47c-29.333 -64 -44 -109.667 -44 -137
c0 -56.667 21.667 -98.667 65 -126c64.667 -40.667 183.334 -61 356.001 -61h88c85.333 0 168 6.66699 248 20c67.333 11.333 110.333 23 129 35c-28 31.333 -42 79 -42 143c0 74.667 34.333 147.667 103 219c64.667 66.667 125 100 181 100c58 0 105 -31.667 141 -95
c30.667 -54 46 -112.333 46 -175c0 -82.667 -28.667 -146.667 -86 -192h182v-235zM1535 403c0 22 -9.66699 40.333 -29 55s-40 22 -62 22c-23.333 0 -47 -9.5 -71 -28.5s-36 -39.833 -36 -62.5c0 -17.333 10.667 -33.333 32 -48c19.333 -14 38 -21 56 -21
c20 0 43.333 9.16699 70 27.5s40 36.833 40 55.5zM1561 -246l-124 -164l-169 112l124 166z" />
    <glyph glyph-name="uni06A3.init" unicode="&#x6a3;" horiz-adv-x="622" 
d="M571 359c0 -238.667 -146.667 -358.334 -440 -359.001h-201v235h319c114 0 171 39.333 171 118c-25.333 -29.333 -76 -44 -152 -44c-130 0 -195 61.333 -195 184c0 58.667 19.667 123.667 59 195c48 86.667 105.333 130 172 130c82 0 149.667 -58.667 203 -176
c42.667 -95.333 64 -189.666 64 -282.999zM373 526c-6.66699 22 -18 43.667 -34 65c-20 24.667 -40 37 -60 37c-14 0 -29.333 -8.66699 -46 -26s-25 -33.333 -25 -48c0 -48 25.667 -72 77 -72c46 0 75.333 14.667 88 44zM411 1107l-124 -164l-169 112l124 166zM447 -258
l-124 -164l-169 112l124 166z" />
    <glyph glyph-name="uni06A3.medi" unicode="&#x6a3;" horiz-adv-x="677" 
d="M677 0l-69.002 0.000976562c-117.333 0.666992 -212.666 27.667 -285.999 81c-28.667 -20.667 -68.167 -39.334 -118.5 -56.001s-93.166 -25 -128.499 -25h-145v235h222c-26 30 -39 73 -39 129c0 76 33.667 149.333 101 220c63.333 66 123.333 99 180 99
c58 0 104.333 -31.667 139 -95c28 -52.667 42 -110.667 42 -174c0 -76 -26.667 -135.667 -80 -179h182v-235zM439.998 389.001c0 22 -8.66699 40.332 -26 54.999s-37 22 -59 22c-22.667 0 -45.667 -9.66699 -69 -29s-35 -40 -35 -62c0 -17.333 9.66699 -33.166 29 -47.499
s38 -21.5 56 -21.5c20 0 42.333 9 67 27s37 36.667 37 56zM449.998 971l-124 -164l-169 112l124 166zM484.998 -252l-124 -164l-169 112l124 166z" />
    <glyph glyph-name="uni06A3.fina" unicode="&#x6a3;" horiz-adv-x="1766" 
d="M1766 0h-88.001c-44 0 -90.333 9.66699 -139 29c-57.333 18.667 -99.333 40 -126 64c-41.333 -32 -108.333 -61.667 -201 -89c-133.333 -39.333 -282.333 -59 -447 -59c-396 0 -594 116 -594 348c0 70 25.667 156 77 258l151 -47c-29.333 -64 -44 -109.667 -44 -137
c0 -56.667 21.667 -98.667 65 -126c64.667 -40.667 183.334 -61 356.001 -61h88c85.333 0 168 6.66699 248 20c67.333 11.333 110.333 23 129 35c-28 31.333 -42 79 -42 143c0 74.667 34.333 147.667 103 219c64.667 66.667 125 100 181 100c58 0 105 -31.667 141 -95
c30.667 -54 46 -112.333 46 -175c0 -82.667 -28.667 -146.667 -86 -192h182v-235zM1535 403c0 22 -9.66699 40.333 -29 55s-40 22 -62 22c-23.333 0 -47 -9.5 -71 -28.5s-36 -39.833 -36 -62.5c0 -17.333 10.667 -33.333 32 -48c19.333 -14 38 -21 56 -21
c20 0 43.333 9.16699 70 27.5s40 36.833 40 55.5zM1553 996l-124 -164l-169 112l124 166zM1584 -233l-124 -164l-169 112l124 166z" />
    <glyph glyph-name="uni06A5.init" unicode="&#x6a5;" horiz-adv-x="622" 
d="M571 359c0 -238.667 -146.667 -358.334 -440 -359.001h-201v235h319c114 0 171 39.333 171 118c-25.333 -29.333 -76 -44 -152 -44c-130 0 -195 61.333 -195 184c0 58.667 19.667 123.667 59 195c48 86.667 105.333 130 172 130c82 0 149.667 -58.667 203 -176
c42.667 -95.333 64 -189.666 64 -282.999zM373 526c-6.66699 22 -18 43.667 -34 65c-20 24.667 -40 37 -60 37c-14 0 -29.333 -8.66699 -46 -26s-25 -33.333 -25 -48c0 -48 25.667 -72 77 -72c46 0 75.333 14.667 88 44zM536 -242l-102 -140l-133 89l-77 -104l-157 104
l107 139l133 -88l72 105zM462 -487l-103 -137l-144 98l101 136z" />
    <glyph glyph-name="uni06A5.medi" unicode="&#x6a5;" horiz-adv-x="677" 
d="M677 0l-69.002 0.000976562c-117.333 0.666992 -212.666 27.667 -285.999 81c-28.667 -20.667 -68.167 -39.334 -118.5 -56.001s-93.166 -25 -128.499 -25h-145v235h222c-26 30 -39 73 -39 129c0 76 33.667 149.333 101 220c63.333 66 123.333 99 180 99
c58 0 104.333 -31.667 139 -95c28 -52.667 42 -110.667 42 -174c0 -76 -26.667 -135.667 -80 -179h182v-235zM439.998 389.001c0 22 -8.66699 40.332 -26 54.999s-37 22 -59 22c-22.667 0 -45.667 -9.66699 -69 -29s-35 -40 -35 -62c0 -17.333 9.66699 -33.166 29 -47.499
s38 -21.5 56 -21.5c20 0 42.333 9 67 27s37 36.667 37 56zM551.998 -272l-102 -140l-133 89l-77 -104l-157 104l107 139l133 -88l72 105zM477.998 -517l-103 -137l-144 98l101 136z" />
    <glyph glyph-name="uni06A5.fina" unicode="&#x6a5;" horiz-adv-x="1766" 
d="M1766 0h-88.001c-44 0 -90.333 9.66699 -139 29c-57.333 18.667 -99.333 40 -126 64c-41.333 -32 -108.333 -61.667 -201 -89c-133.333 -39.333 -282.333 -59 -447 -59c-396 0 -594 116 -594 348c0 70 25.667 156 77 258l151 -47c-29.333 -64 -44 -109.667 -44 -137
c0 -56.667 21.667 -98.667 65 -126c64.667 -40.667 183.334 -61 356.001 -61h88c85.333 0 168 6.66699 248 20c67.333 11.333 110.333 23 129 35c-28 31.333 -42 79 -42 143c0 74.667 34.333 147.667 103 219c64.667 66.667 125 100 181 100c58 0 105 -31.667 141 -95
c30.667 -54 46 -112.333 46 -175c0 -82.667 -28.667 -146.667 -86 -192h182v-235zM1535 403c0 22 -9.66699 40.333 -29 55s-40 22 -62 22c-23.333 0 -47 -9.5 -71 -28.5s-36 -39.833 -36 -62.5c0 -17.333 10.667 -33.333 32 -48c19.333 -14 38 -21 56 -21
c20 0 43.333 9.16699 70 27.5s40 36.833 40 55.5zM1661 -238l-102 -140l-133 89l-77 -104l-157 104l107 139l133 -88l72 105zM1587 -483l-103 -137l-144 98l101 136z" />
    <glyph glyph-name="uni06A7.fina" unicode="&#x6a7;" horiz-adv-x="1302" 
d="M1302 0l-132.998 -0.000976562c-14 -115.333 -60.667 -218 -140 -308c-102 -115.333 -236 -173 -402 -173s-291 50.667 -375 152c-68.667 82.667 -103 187 -103 313c0 112.667 24.667 220 74 322l163 -60c-31.333 -78 -47 -150.333 -47 -217
c0 -89.333 29.333 -158.666 88 -207.999c55.333 -45.333 128.666 -68 219.999 -68c130.667 0 232.667 37 306 111c50.667 50.667 76 96.334 76 137.001h-58c-96.667 0 -167.334 12 -212.001 36c-60 33.333 -90 93.666 -90 180.999c0 64.667 17.667 131 53 199
c44.667 86 102 129 172 129c76.667 0 141 -35.333 193 -106c43.333 -58.667 70 -127 80 -205h135v-235zM1004 206.999c-2.66699 30.667 -14 60.999 -34 90.999c-23.333 33.333 -49.333 50 -78 50c-15.333 0 -32 -7.66699 -50 -23s-27 -30.666 -27 -45.999
c0 -34 15.333 -55.667 46 -65c14.667 -4.66699 45 -7 91 -7h52zM993.002 820.998l-124 -164l-169 112l124 166z" />
    <glyph glyph-name="uni06A8.fina" unicode="&#x6a8;" horiz-adv-x="1302" 
d="M1302 0l-132.998 -0.000976562c-14 -115.333 -60.667 -218 -140 -308c-102 -115.333 -236 -173 -402 -173s-291 50.667 -375 152c-68.667 82.667 -103 187 -103 313c0 112.667 24.667 220 74 322l163 -60c-31.333 -78 -47 -150.333 -47 -217
c0 -89.333 29.333 -158.666 88 -207.999c55.333 -45.333 128.666 -68 219.999 -68c130.667 0 232.667 37 306 111c50.667 50.667 76 96.334 76 137.001h-58c-96.667 0 -167.334 12 -212.001 36c-60 33.333 -90 93.666 -90 180.999c0 64.667 17.667 131 53 199
c44.667 86 102 129 172 129c76.667 0 141 -35.333 193 -106c43.333 -58.667 70 -127 80 -205h135v-235zM1004 206.999c-2.66699 30.667 -14 60.999 -34 90.999c-23.333 33.333 -49.333 50 -78 50c-15.333 0 -32 -7.66699 -50 -23s-27 -30.666 -27 -45.999
c0 -34 15.333 -55.667 46 -65c14.667 -4.66699 45 -7 91 -7h52zM612.002 743.998l102 140l133 -89l77 104l156 -104l-106 -139l-133 88l-72 -104zM691.002 989.998l103 136l144 -97l-101 -137z" />
    <glyph glyph-name="uni06AA.init" unicode="&#x6aa;" horiz-adv-x="1847" 
d="M-49 2l-0.00390625 233.005c24.667 0 50.667 0.333008 78 1c76.667 0 170.834 2.16699 282.501 6.5s304.834 15.166 579.501 32.499s493 35.333 655 54c0 41.333 -5.33301 75 -16 101s-26.667 46.167 -48 60.5s-47.833 23.666 -79.5 27.999
s-68.167 6.16602 -109.5 5.49902c-28.667 0 -65.667 -0.833008 -111 -2.5l-152 -5.5c-56 -2 -115.5 -4 -178.5 -6s-126.5 -3.5 -190.5 -4.5s-126.667 -1.16699 -188 -0.5s-118 2.66699 -170 6c-41.333 3.33301 -75.333 7.33301 -102 12s-48.167 10.834 -64.5 18.501
s-28.833 16.667 -37.5 27s-15.334 22.5 -20.001 36.5c-16 40.667 -18.167 79.667 -6.5 117s34.834 73 69.501 107s79.667 66.5 135 97.5s119.333 60.5 192 88.5s152.5 54.5 239.5 79.5s179.167 49.167 276.5 72.5l-47 -235c-10.667 -1.33301 -29 -4.5 -55 -9.5l-92 -18.5
l-115.5 -25c-41.667 -9.33301 -83.5 -19.333 -125.5 -30s-82.667 -21.667 -122 -33s-74.166 -22.666 -104.499 -33.999s-54.666 -22.333 -72.999 -33s-27.833 -20.334 -28.5 -29.001c2.66699 -12 19.667 -21.333 51 -28s72.666 -11.334 123.999 -14.001s110.5 -4 177.5 -4
s137 1 210 3s147 4.33301 222 7s146.167 5.33398 213.5 8.00098s128.833 4.66699 184.5 6s100.834 1.33301 135.501 0c59.333 -4.66699 105.5 -18.834 138.5 -42.501s55.333 -53.334 67 -89.001s13.667 -75.5 6 -119.5s-22.167 -88.667 -43.5 -134
c-12.667 -28.667 -55 -96.667 -127 -204c-490 -50.667 -856.667 -81.334 -1100 -92.001c-278.667 -10.667 -451.667 -16 -519 -16v-1z" />
    <glyph glyph-name="uni06AA.medi" unicode="&#x6aa;" horiz-adv-x="2167" 
d="M594 7c-350 -3.33301 -567.003 -5.66504 -651.003 -6.99805v235c244.667 -0.666992 414 -0.333984 508 0.999023s278.333 3.66602 553 6.99902s493 14.333 655 33c0 41.333 -5.33301 75 -16 101s-26.667 46.167 -48 60.5s-47.833 23.666 -79.5 27.999
s-68.167 6.16602 -109.5 5.49902c-28.667 0 -65.667 -0.833008 -111 -2.5l-152 -5.5c-56 -2 -115.5 -4 -178.5 -6s-126.5 -3.5 -190.5 -4.5s-126.667 -1.16699 -188 -0.5s-118 2.66699 -170 6c-41.333 3.33301 -75.333 7.33301 -102 12s-48.167 10.834 -64.5 18.501
s-28.833 16.667 -37.5 27s-15.334 22.5 -20.001 36.5c-16 41.333 -18.167 80.5 -6.5 117.5s34.834 72.5 69.501 106.5s79.667 66.5 135 97.5s119.333 60.5 192 88.5s152.5 54.5 239.5 79.5s179.167 49.167 276.5 72.5l-47 -235c-10.667 -1.33301 -29 -4.5 -55 -9.5
l-92 -18.5l-115.5 -25c-41.667 -9.33301 -83.5 -19.333 -125.5 -30s-82.667 -21.667 -122 -33s-74.166 -22.666 -104.499 -33.999s-54.666 -22.333 -72.999 -33s-27.833 -20.334 -28.5 -29.001c2.66699 -12 19.667 -21.333 51 -28s72.666 -11.334 123.999 -14.001
s110.5 -4 177.5 -4s137 1 210 3s147 4.33301 222 7s146.167 5.33398 213.5 8.00098s128.833 4.66699 184.5 6s100.834 1.33301 135.501 0c56 -4.66699 100.167 -17.667 132.5 -39s55 -48.333 68 -81s17.333 -69.167 13 -109.5s-15.166 -81.833 -32.499 -124.5
c4.66699 -16.667 16.667 -29.334 36 -38.001c28.667 -12 86 -18 172 -18h127c7.33301 -17.333 12.833 -36 16.5 -56s5.5 -40.5 5.5 -61.5s-1.83301 -41.5 -5.5 -61.5s-9.16699 -38.667 -16.5 -56h-112c-82.667 -1.33301 -152.667 3.33398 -210 14.001
c-51.333 10 -92.666 38.333 -123.999 85l-29 -40c-482.667 -33.333 -849.334 -50.666 -1100 -51.999z" />
    <glyph glyph-name="uni06AA.fina" unicode="&#x6aa;" horiz-adv-x="2848" 
d="M747 -53c-396 0 -594.001 116.003 -594.001 348.003c0 70 25.667 156 77 258l151 -47c-29.333 -64 -44 -109.667 -44 -137c0 -56.667 21.667 -98.667 65 -126c64 -40.667 181 -61 351 -61h5c156 0 282.167 2.33301 378.5 7s281.833 15.667 556.5 33s493 35.333 655 54
c0 41.333 -5.33301 75 -16 101s-26.667 46.167 -48 60.5s-47.833 23.666 -79.5 27.999s-68.167 6.16602 -109.5 5.49902c-28.667 0 -65.667 -0.833008 -111 -2.5l-152 -5.5c-56 -2 -115.5 -4 -178.5 -6s-126.5 -3.5 -190.5 -4.5s-126.667 -1.16699 -188 -0.5
s-118 2.66699 -170 6c-41.333 3.33301 -75.333 7.33301 -102 12s-48.167 10.834 -64.5 18.501s-28.833 16.667 -37.5 27s-15.334 22.5 -20.001 36.5c-16 41.333 -18.167 80.5 -6.5 117.5s34.834 72.5 69.501 106.5s79.667 66.5 135 97.5s119.333 60.5 192 88.5
s152.5 54.5 239.5 79.5s179.167 49.167 276.5 72.5l-47 -235c-10.667 -1.33301 -29 -4.5 -55 -9.5l-92 -18.5l-115.5 -25c-41.667 -9.33301 -83.5 -19.333 -125.5 -30s-82.667 -21.667 -122 -33s-74.166 -22.666 -104.499 -33.999s-54.666 -22.333 -72.999 -33
s-27.833 -20.334 -28.5 -29.001c2.66699 -12 19.667 -21.333 51 -28s72.666 -11.334 123.999 -14.001s110.5 -4 177.5 -4s137 1 210 3s147 4.33301 222 7s146.167 5.33398 213.5 8.00098s128.833 4.66699 184.5 6s100.834 1.33301 135.5 0
c56 -4.66699 100.167 -17.667 132.5 -39s55 -48.333 68 -81s17.333 -69.167 13 -109.5s-15.166 -81.833 -32.5 -124.5c4.66699 -16.667 16.667 -29.334 36 -38.001c28.667 -12 86 -18 172 -18h127c7.33301 -17.333 12.833 -36 16.5 -56s5.5 -40.5 5.5 -61.5
s-1.83301 -41.5 -5.5 -61.5s-9.16699 -38.667 -16.5 -56h-112c-82.667 -1.33301 -152.667 3.33398 -210 14.001c-51.333 10 -92.666 38.333 -124 85l-29 -43c-490 -50.667 -856.667 -81.334 -1100 -92.001c-268.667 -10.667 -441.667 -16.334 -519 -17.001h-17z" />
    <glyph glyph-name="uni06AB.init" unicode="&#x6ab;" horiz-adv-x="966" 
d="M982 1280l-30.001 -239c-87.333 -20 -181.333 -43.333 -282 -70c-202 -53.333 -338 -95.666 -408 -126.999c-23.333 -10.667 -27.333 -21.334 -12 -32.001l126 -89c68.667 -50 125 -102.333 169 -157c56.667 -70 85 -137.333 85 -202c0 -146.667 -52 -247.667 -156 -303
c-75.333 -40.667 -195.666 -61 -360.999 -61h-183v235h189c227.333 0 341 28.333 341 85c0 52.667 -60.667 126.667 -182 222c-134 105.333 -208.333 174.333 -223 207c1.33301 32.667 9.66602 74.667 24.999 126c16.667 54.667 32.334 86 47.001 94
c174 91.333 459 195 855 311zM888.999 896c0 -45.333 -14 -84.333 -42 -117c-30 -34 -67.333 -51 -112 -51c-38.667 0 -70.667 12.333 -96 37s-38 56 -38 94c0 64.667 15.667 116 47 154c24.667 31.333 52 47 82 47c33.333 0 67 -14 101 -42c38.667 -33.333 58 -74 58 -122z
M824.999 888c0 27.333 -11 49.667 -33 67c-20 16 -44.333 24 -73 24c-14 0 -27.667 -10.5 -41 -31.5s-20 -39.167 -20 -54.5c0 -48.667 26.333 -73 79 -73c22 0 41.667 5.66699 59 17c19.333 12.667 29 29.667 29 51z" />
    <glyph glyph-name="uni06AB.medi" unicode="&#x6ab;" horiz-adv-x="1065" 
d="M1065 0l-83.999 -0.00195312c-80 0.666992 -161.667 28 -245 82c-72.667 47.333 -135.334 107.333 -188.001 180c-23.333 -174 -180 -261.333 -470 -262h-148v235h142c101.333 0 169.333 2.33301 204 7c96.667 12.667 145 42.334 145 89.001c0 43.333 -48 107 -144 191
c-105.333 92 -164.666 155 -177.999 189c2 36 8.66699 76 20 120c13.333 52.667 28 83 44 91c172 90 472.667 202 902 336l-28 -234c-106 -26 -197.333 -49.667 -274 -71c-202.667 -56 -359 -106.667 -469 -152c-24 -10 -27.333 -21.667 -10 -35
c110 -83.333 221.667 -181.666 335 -294.999c91.333 -91.333 153.666 -148.333 186.999 -171c63.333 -43.333 133 -65 209 -65h50v-235zM988.001 877.998c0 -45.333 -14 -84.333 -42 -117c-30 -34 -67.333 -51 -112 -51c-38.667 0 -70.667 12.333 -96 37s-38 56 -38 94
c0 64.667 15.667 116 47 154c24.667 31.333 52 47 82 47c33.333 0 67 -14 101 -42c38.667 -33.333 58 -74 58 -122zM924.001 869.998c0 27.333 -11 49.667 -33 67c-20 16 -44.333 24 -73 24c-14 0 -27.667 -10.5 -41 -31.5s-20 -39.167 -20 -54.5
c0 -48.667 26.333 -73 79 -73c22 0 41.667 5.66699 59 17c19.333 12.667 29 29.667 29 51z" />
    <glyph glyph-name="uni06AB.fina" unicode="&#x6ab;" horiz-adv-x="1969" 
d="M1969 0h-95.999c-82.667 0.666992 -166.667 30 -252 88c-73.333 50 -137 113.667 -191 191c0 -222.667 -238 -334 -714 -334c-396.667 0 -595 116 -595 348c0 70 25.667 156 77 258l151 -47c-29.333 -64 -44 -109.667 -44 -137c0 -56.667 21.667 -98.667 65 -126
c64.667 -40.667 183.334 -61 356.001 -61h41c107.333 0 207.666 8.66699 300.999 26c155.333 28 233 74.333 233 139c0 42.667 -44 103.667 -132 183c-98.667 89.333 -154.667 150.333 -168 183c2 36 8.66699 76 20 120c13.333 52.667 27.666 83 42.999 91
c171.333 90 472 202 902 336l-27 -228l-273 -74c-203.333 -58 -360 -109.667 -470 -155c-24 -10 -27.333 -21.667 -10 -35c108 -84.667 219.667 -183 335 -295c92 -88.667 153.333 -144 184 -166c66 -46.667 136.667 -70 212 -70h52v-235zM1849 864
c0 -45.333 -14 -84.333 -42 -117c-30 -34 -67.333 -51 -112 -51c-38.667 0 -70.667 12.333 -96 37s-38 56 -38 94c0 64.667 15.667 116 47 154c24.667 31.333 52 47 82 47c33.333 0 67 -14 101 -42c38.667 -33.333 58 -74 58 -122zM1785 856c0 27.333 -11 49.667 -33 67
c-20 16 -44.333 24 -73 24c-14 0 -27.667 -10.5 -41 -31.5s-20 -39.167 -20 -54.5c0 -48.667 26.333 -73 79 -73c22 0 41.667 5.66699 59 17c19.333 12.667 29 29.667 29 51z" />
    <glyph glyph-name="uni06AE.init" unicode="&#x6ae;" horiz-adv-x="966" 
d="M982 1280l-30.001 -239c-87.333 -20 -181.333 -43.333 -282 -70c-202 -53.333 -338 -95.666 -408 -126.999c-23.333 -10.667 -27.333 -21.334 -12 -32.001l126 -89c68.667 -50 125 -102.333 169 -157c56.667 -70 85 -137.333 85 -202c0 -146.667 -52 -247.667 -156 -303
c-75.333 -40.667 -195.666 -61 -360.999 -61h-183v235h189c227.333 0 341 28.333 341 85c0 52.667 -60.667 126.667 -182 222c-134 105.333 -208.333 174.333 -223 207c1.33301 32.667 9.66602 74.667 24.999 126c16.667 54.667 32.334 86 47.001 94
c174 91.333 459 195 855 311zM695.999 -250l-102 -140l-133 89l-77 -104l-157 104l107 139l133 -88l72 105zM621.999 -495l-103 -137l-144 98l101 136z" />
    <glyph glyph-name="uni06AE.medi" unicode="&#x6ae;" horiz-adv-x="1065" 
d="M1065 0l-83.999 -0.00195312c-80 0.666992 -161.667 28 -245 82c-72.667 47.333 -135.334 107.333 -188.001 180c-23.333 -174 -180 -261.333 -470 -262h-148v235h142c101.333 0 169.333 2.33301 204 7c96.667 12.667 145 42.334 145 89.001c0 43.333 -48 107 -144 191
c-105.333 92 -164.666 155 -177.999 189c2 36 8.66699 76 20 120c13.333 52.667 28 83 44 91c172 90 472.667 202 902 336l-28 -234c-106 -26 -197.333 -49.667 -274 -71c-202.667 -56 -359 -106.667 -469 -152c-24 -10 -27.333 -21.667 -10 -35
c110 -83.333 221.667 -181.666 335 -294.999c91.333 -91.333 153.666 -148.333 186.999 -171c63.333 -43.333 133 -65 209 -65h50v-235zM720.001 -261.002l-102 -140l-133 89l-77 -104l-157 104l107 139l133 -88l72 105zM646.001 -506.002l-103 -137l-144 98l101 136z" />
    <glyph glyph-name="uni06AE.fina" unicode="&#x6ae;" horiz-adv-x="1622" 
d="M1622 0l-22.999 -0.000976562c-36.667 0.666992 -75.334 13.334 -116.001 38.001c-34 21.333 -58.333 45 -73 71c-100 -109.333 -316.667 -164 -650 -164c-396.667 0 -595 116 -595 348c0 70 25.667 156 77 258l151 -47c-29.333 -64 -44 -109.667 -44 -137
c0 -56.667 21.667 -98.667 65 -126c64.667 -40.667 183.334 -61 356.001 -61h41c107.333 0 207.666 8.66699 300.999 26c80 14 139.333 33 178 57c6 4 12 11 18 21s7.66699 49.667 5 119l-25 748l204 82v-808c0 -53.333 11.667 -97 35 -131
c26.667 -39.333 55.667 -59 87 -59h8v-235zM1061 789.999l-413.001 -105.001v78l104 42c-34.667 33.333 -52 67.333 -52 102c0 40.667 16.667 77.667 50 111s70.333 50 111 50c52.667 0 94 -14 124 -42l-25 -65c-25.333 10.667 -59.333 16 -102 16
c-17.333 0 -35.333 -4.66699 -54 -14c-22 -11.333 -33 -24.666 -33 -39.999c0 -46.667 41 -70 123 -70c10.667 0 66.334 15.333 167.001 46v-109zM1076 -289.002l-102 -140l-133 89l-77 -104l-157 104l107 139l133 -88l72 105zM1002 -534.002l-103 -137l-144 98l101 136z
" />
    <glyph glyph-name="uni06B0.init" unicode="&#x6b0;" horiz-adv-x="987" 
d="M996 1483l-13.999 -116l-338 -108c-240.667 -80 -408.334 -141.667 -503.001 -185l27 110c122.667 57.333 398.667 157 828 299zM982.001 1266l-29.999 -225.001l-351 -86c-136 -36 -249 -74.333 -339 -115c-24.667 -11.333 -28.667 -22.333 -12 -33
c253.333 -164 380 -311.667 380 -443c0 -142 -47 -241 -141 -297c-74 -44 -188.333 -66.333 -343 -67h-216v235h224c97.333 0 166.666 4 207.999 12c65.333 12.667 98 37 98 73c0 48.667 -60.667 121.334 -182 218.001c-134.667 107.333 -209 177.666 -223 210.999
c1.33301 28 8.66602 65 21.999 111c16.667 54.667 33.334 86.334 50.001 95.001c174 91.333 459 195 855 311zM834.002 878.999c0 -45.333 -14 -84.333 -42 -117c-30 -34 -67.333 -51 -112 -51c-38.667 0 -70.667 12.333 -96 37s-38 56 -38 94c0 64.667 15.667 116 47 154
c24.667 31.333 52 47 82 47c33.333 0 67 -14 101 -42c38.667 -33.333 58 -74 58 -122zM770.002 870.999c0 27.333 -11 49.667 -33 67c-20 16 -44.333 24 -73 24c-14 0 -27.667 -10.5 -41 -31.5s-20 -39.167 -20 -54.5c0 -48.667 26.333 -73 79 -73
c22 0 41.667 5.66699 59 17c19.333 12.667 29 29.667 29 51z" />
    <glyph glyph-name="uni06B0.medi" unicode="&#x6b0;" horiz-adv-x="1065" 
d="M1078 1442l-13 -114.001l-363 -112c-261.333 -83.333 -436.666 -145.666 -525.999 -186.999l28 113c107.333 54 398.666 154 873.999 300zM1065 -0.000976562h-94c-77.333 0.666992 -158.333 31.334 -243 92.001c-74.667 53.333 -135.667 116.333 -183 189
c0 -110 -46.333 -187 -139 -231c-68.667 -32.667 -171.667 -49.334 -309 -50.001h-167v235h170c100.667 0 162.667 1.66699 186 5c86.667 13.333 130 46.333 130 99c0 41.333 -47 103 -141 185c-103.333 90 -162 152.333 -176 187c2 33.333 8.66699 71 20 113
c13.333 48 28 76.333 44 85c173.333 90.667 474 202.334 902 335.001l-28 -214l-274 -74c-200 -57.333 -356.333 -109 -469 -155c-24.667 -10 -28 -21.667 -10 -35c83.333 -62 195 -160.333 335 -295c106.667 -102.667 167.334 -159.334 182.001 -170.001
c61.333 -44 132.666 -66 213.999 -66h50v-235zM952 865.999c0 -45.333 -14 -84.333 -42 -117c-30 -34 -67.333 -51 -112 -51c-38.667 0 -70.667 12.333 -96 37s-38 56 -38 94c0 64.667 15.667 116 47 154c24.667 31.333 52 47 82 47c33.333 0 67 -14 101 -42
c38.667 -33.333 58 -74 58 -122zM888 857.999c0 27.333 -11 49.667 -33 67c-20 16 -44.333 24 -73 24c-14 0 -27.667 -10.5 -41 -31.5s-20 -39.167 -20 -54.5c0 -48.667 26.333 -73 79 -73c22 0 41.667 5.66699 59 17c19.333 12.667 29 29.667 29 51z" />
    <glyph glyph-name="uni06B0.fina" unicode="&#x6b0;" horiz-adv-x="2013" 
d="M2024 1442l-13.999 -114l-363 -112c-259.333 -82.667 -434.333 -145 -525 -187l28 113c107.333 54 398.666 154 873.999 300zM2013 0l-96.0029 -0.00292969c-79.333 0.666992 -162.333 31 -249 91c-72 50 -136.667 112.667 -194 188
c0 -117.333 -73.667 -204.666 -221 -261.999c-122.667 -48 -287 -72 -493 -72c-396.667 0 -595 116 -595 348c0 70 25.667 156 77 258l151 -47c-29.333 -64 -44 -109.667 -44 -137c0 -56.667 21.667 -98.667 65 -126c64.667 -40.667 183.334 -61 356.001 -61h41
c107.333 0 207.666 8.66699 300.999 26c155.333 28 233 74.333 233 139c0 44.667 -44 106.334 -132 185.001c-98.667 88 -154.667 148.333 -168 181c2 36.667 8.33301 74.667 19 114c12.667 47.333 27.334 75.333 44.001 84c174.667 91.333 475.334 203 902.001 335
l-27 -214l-273 -74c-200 -57.333 -356.667 -109 -470 -155c-15.333 -6 -23 -12.333 -23 -19c0 -4.66699 4.33301 -10 13 -16c94.667 -67.333 206.334 -165.666 335.001 -294.999c91.333 -92 154.666 -150 189.999 -174c60.667 -41.333 129.334 -62 206.001 -62h52v-235z
M1858 865.997c0 -45.333 -14 -84.333 -42 -117c-30 -34 -67.333 -51 -112 -51c-38.667 0 -70.667 12.333 -96 37s-38 56 -38 94c0 64.667 15.667 116 47 154c24.667 31.333 52 47 82 47c33.333 0 67 -14 101 -42c38.667 -33.333 58 -74 58 -122zM1794 857.997
c0 27.333 -11 49.667 -33 67c-20 16 -44.333 24 -73 24c-14 0 -27.667 -10.5 -41 -31.5s-20 -39.167 -20 -54.5c0 -48.667 26.333 -73 79 -73c22 0 41.667 5.66699 59 17c19.333 12.667 29 29.667 29 51z" />
    <glyph glyph-name="uni06B2.init" unicode="&#x6b2;" horiz-adv-x="987" 
d="M996 1483l-13.999 -116l-338 -108c-240.667 -80 -408.334 -141.667 -503.001 -185l27 110c122.667 57.333 398.667 157 828 299zM982.001 1266l-29.999 -225.001l-351 -86c-136 -36 -249 -74.333 -339 -115c-24.667 -11.333 -28.667 -22.333 -12 -33
c253.333 -164 380 -311.667 380 -443c0 -142 -47 -241 -141 -297c-74 -44 -188.333 -66.333 -343 -67h-216v235h224c97.333 0 166.666 4 207.999 12c65.333 12.667 98 37 98 73c0 48.667 -60.667 121.334 -182 218.001c-134.667 107.333 -209 177.666 -223 210.999
c1.33301 28 8.66602 65 21.999 111c16.667 54.667 33.334 86.334 50.001 95.001c174 91.333 459 195 855 311zM723.002 -241.001l-110 -149l-136 96l-80 -112l-172 117l110 149l144 -99l79 112z" />
    <glyph glyph-name="uni06B2.medi" unicode="&#x6b2;" horiz-adv-x="1065" 
d="M1078 1442l-13 -114.001l-363 -112c-261.333 -83.333 -436.666 -145.666 -525.999 -186.999l28 113c107.333 54 398.666 154 873.999 300zM1065 -0.000976562h-94c-77.333 0.666992 -158.333 31.334 -243 92.001c-74.667 53.333 -135.667 116.333 -183 189
c0 -110 -46.333 -187 -139 -231c-68.667 -32.667 -171.667 -49.334 -309 -50.001h-167v235h170c100.667 0 162.667 1.66699 186 5c86.667 13.333 130 46.333 130 99c0 41.333 -47 103 -141 185c-103.333 90 -162 152.333 -176 187c2 33.333 8.66699 71 20 113
c13.333 48 28 76.333 44 85c173.333 90.667 474 202.334 902 335.001l-28 -214l-274 -74c-200 -57.333 -356.333 -109 -469 -155c-24.667 -10 -28 -21.667 -10 -35c83.333 -62 195 -160.333 335 -295c106.667 -102.667 167.334 -159.334 182.001 -170.001
c61.333 -44 132.666 -66 213.999 -66h50v-235zM756 -246.001l-110 -149l-136 96l-80 -112l-172 117l110 149l144 -99l79 112z" />
    <glyph glyph-name="uni06B2.fina" unicode="&#x6b2;" horiz-adv-x="2013" 
d="M2024 1442l-13.999 -114l-363 -112c-259.333 -82.667 -434.333 -145 -525 -187l28 113c107.333 54 398.666 154 873.999 300zM2013 0l-96.0029 -0.00292969c-79.333 0.666992 -162.333 31 -249 91c-72 50 -136.667 112.667 -194 188
c0 -117.333 -73.667 -204.666 -221 -261.999c-122.667 -48 -287 -72 -493 -72c-396.667 0 -595 116 -595 348c0 70 25.667 156 77 258l151 -47c-29.333 -64 -44 -109.667 -44 -137c0 -56.667 21.667 -98.667 65 -126c64.667 -40.667 183.334 -61 356.001 -61h41
c107.333 0 207.666 8.66699 300.999 26c155.333 28 233 74.333 233 139c0 44.667 -44 106.334 -132 185.001c-98.667 88 -154.667 148.333 -168 181c2 36.667 8.33301 74.667 19 114c12.667 47.333 27.334 75.333 44.001 84c174.667 91.333 475.334 203 902.001 335
l-27 -214l-273 -74c-200 -57.333 -356.667 -109 -470 -155c-15.333 -6 -23 -12.333 -23 -19c0 -4.66699 4.33301 -10 13 -16c94.667 -67.333 206.334 -165.666 335.001 -294.999c91.333 -92 154.666 -150 189.999 -174c60.667 -41.333 129.334 -62 206.001 -62h52v-235z
M1069 -295.003l-110 -149l-136 96l-80 -112l-172 117l110 149l144 -99l79 112z" />
    <glyph glyph-name="uni06B4.init" unicode="&#x6b4;" horiz-adv-x="987" 
d="M996 1483l-13.999 -116l-338 -108c-240.667 -80 -408.334 -141.667 -503.001 -185l27 110c122.667 57.333 398.667 157 828 299zM982.001 1266l-29.999 -225.001l-351 -86c-136 -36 -249 -74.333 -339 -115c-24.667 -11.333 -28.667 -22.333 -12 -33
c253.333 -164 380 -311.667 380 -443c0 -142 -47 -241 -141 -297c-74 -44 -188.333 -66.333 -343 -67h-216v235h224c97.333 0 166.666 4 207.999 12c65.333 12.667 98 37 98 73c0 48.667 -60.667 121.334 -182 218.001c-134.667 107.333 -209 177.666 -223 210.999
c1.33301 28 8.66602 65 21.999 111c16.667 54.667 33.334 86.334 50.001 95.001c174 91.333 459 195 855 311zM184.002 1502l102 140l133 -89l77 104l156 -104l-106 -139l-133 88l-72 -104zM263.002 1748l103 136l144 -97l-101 -137z" />
    <glyph glyph-name="uni06B4.medi" unicode="&#x6b4;" horiz-adv-x="1065" 
d="M1078 1442l-13 -114.001l-363 -112c-261.333 -83.333 -436.666 -145.666 -525.999 -186.999l28 113c107.333 54 398.666 154 873.999 300zM1065 -0.000976562h-94c-77.333 0.666992 -158.333 31.334 -243 92.001c-74.667 53.333 -135.667 116.333 -183 189
c0 -110 -46.333 -187 -139 -231c-68.667 -32.667 -171.667 -49.334 -309 -50.001h-167v235h170c100.667 0 162.667 1.66699 186 5c86.667 13.333 130 46.333 130 99c0 41.333 -47 103 -141 185c-103.333 90 -162 152.333 -176 187c2 33.333 8.66699 71 20 113
c13.333 48 28 76.333 44 85c173.333 90.667 474 202.334 902 335.001l-28 -214l-274 -74c-200 -57.333 -356.333 -109 -469 -155c-24.667 -10 -28 -21.667 -10 -35c83.333 -62 195 -160.333 335 -295c106.667 -102.667 167.334 -159.334 182.001 -170.001
c61.333 -44 132.666 -66 213.999 -66h50v-235zM261 1473l102 140l133 -89l77 104l156 -104l-106 -139l-133 88l-72 -104zM340 1719l103 136l144 -97l-101 -137z" />
    <glyph glyph-name="uni06B4.fina" unicode="&#x6b4;" horiz-adv-x="2013" 
d="M2024 1442l-13.999 -114l-363 -112c-259.333 -82.667 -434.333 -145 -525 -187l28 113c107.333 54 398.666 154 873.999 300zM2013 0l-96.0029 -0.00292969c-79.333 0.666992 -162.333 31 -249 91c-72 50 -136.667 112.667 -194 188
c0 -117.333 -73.667 -204.666 -221 -261.999c-122.667 -48 -287 -72 -493 -72c-396.667 0 -595 116 -595 348c0 70 25.667 156 77 258l151 -47c-29.333 -64 -44 -109.667 -44 -137c0 -56.667 21.667 -98.667 65 -126c64.667 -40.667 183.334 -61 356.001 -61h41
c107.333 0 207.666 8.66699 300.999 26c155.333 28 233 74.333 233 139c0 44.667 -44 106.334 -132 185.001c-98.667 88 -154.667 148.333 -168 181c2 36.667 8.33301 74.667 19 114c12.667 47.333 27.334 75.333 44.001 84c174.667 91.333 475.334 203 902.001 335
l-27 -214l-273 -74c-200 -57.333 -356.667 -109 -470 -155c-15.333 -6 -23 -12.333 -23 -19c0 -4.66699 4.33301 -10 13 -16c94.667 -67.333 206.334 -165.666 335.001 -294.999c91.333 -92 154.666 -150 189.999 -174c60.667 -41.333 129.334 -62 206.001 -62h52v-235z
M1177 1466l102 140l133 -89l77 104l156 -104l-106 -139l-133 88l-72 -104zM1256 1712l103 136l144 -97l-101 -137z" />
    <glyph glyph-name="uni06B5.init" unicode="&#x6b5;" horiz-adv-x="421" 
d="M372 425c0 -130.667 -13.666 -225.666 -40.999 -284.999c-42.667 -92.667 -124.334 -139.334 -245.001 -140.001h-156v235h106c70.667 0 115.667 11.667 135 35c16.667 20.667 24 65 22 133l-25 748l204 82v-808zM394.001 1571c-10 -8 -22.5 -21.8301 -37.5 -41.4971
s-30.167 -42.667 -45.5 -69s-29.833 -54.833 -43.5 -85.5s-24.167 -61 -31.5 -91h-28l-1 3c-8 29.333 -18.833 59.166 -32.5 89.499s-28.167 58.666 -43.5 84.999s-30.333 49.166 -45 68.499s-26.667 33 -36 41l108 2c14 -21.333 26.167 -47.333 36.5 -78
s19.166 -62.667 26.499 -96c7.33301 33.333 16.333 65.333 27 96s23.334 56.667 38.001 78z" />
    <glyph glyph-name="uni06B5.medi" unicode="&#x6b5;" horiz-adv-x="542" 
d="M542 0l-62.9971 0.000976562c-36.667 0.666992 -75.334 13.5 -116.001 38.5s-67.334 53.833 -80.001 86.5c-40.667 -82.667 -106.334 -124.334 -197.001 -125.001h-156v235h106c73.333 0 119.333 11.667 138 35c15.333 18.667 21.666 63 18.999 133l-25 748l204 82v-808
c0 -53.333 11.667 -97 35 -131c26.667 -39.333 65.334 -59 116.001 -59h19v-235zM416.003 1583c-10 -8 -22.5 -21.8301 -37.5 -41.4971s-30.167 -42.667 -45.5 -69s-29.833 -54.833 -43.5 -85.5s-24.167 -61 -31.5 -91h-28l-1 3c-8 29.333 -18.833 59.166 -32.5 89.499
s-28.167 58.666 -43.5 84.999s-30.333 49.166 -45 68.499s-26.667 33 -36 41l108 2c14 -21.333 26.167 -47.333 36.5 -78s19.166 -62.667 26.499 -96c7.33301 33.333 16.333 65.333 27 96s23.334 56.667 38.001 78z" />
    <glyph glyph-name="uni06B5.fina" unicode="&#x6b5;" horiz-adv-x="1257" 
d="M1110 1570c-10 -8 -22.5 -21.8301 -37.5 -41.4971s-30.167 -42.667 -45.5 -69s-29.833 -54.833 -43.5 -85.5s-24.167 -61 -31.5 -91h-28l-1 3c-8 29.333 -18.833 59.166 -32.5 89.499s-28.167 58.666 -43.5 84.999s-30.333 49.166 -45 68.499s-26.667 33 -36 41l108 2
c14 -21.333 26.167 -47.333 36.5 -78s19.166 -62.667 26.499 -96c7.33301 33.333 16.333 65.333 27 96s23.334 56.667 38.001 78zM1257 0.00292969l-29 0.000976562c-24.667 0 -52 8.66699 -82 26s-50.667 36.666 -62 57.999c-6 -156.667 -41 -284 -105 -382
c-84.667 -129.333 -215 -194 -391 -194c-161.333 0 -282 50.667 -362 152c-64.667 81.333 -97 185.666 -97 312.999c0 100.667 27.667 207.334 83 320.001l156 -55c-39.333 -90 -59 -163.333 -59 -220c0 -90 26.667 -159 80 -207c51.333 -46 122.333 -69 213 -69
c220 0 325.667 119.333 317 358l-39 1051l204 82v-808c0 -126.667 53 -190 159 -190h14v-235z" />
    <glyph glyph-name="uni06B6.init" unicode="&#x6b6;" horiz-adv-x="421" 
d="M372 425c0 -130.667 -13.666 -225.666 -40.999 -284.999c-42.667 -92.667 -124.334 -139.334 -245.001 -140.001h-156v235h106c70.667 0 115.667 11.667 135 35c16.667 20.667 24 65 22 133l-25 748l204 82v-808zM361.001 1494l-124 -164l-169 112l124 166z" />
    <glyph glyph-name="uni06B6.medi" unicode="&#x6b6;" horiz-adv-x="542" 
d="M542 0l-62.9971 0.000976562c-36.667 0.666992 -75.334 13.5 -116.001 38.5s-67.334 53.833 -80.001 86.5c-40.667 -82.667 -106.334 -124.334 -197.001 -125.001h-156v235h106c73.333 0 119.333 11.667 138 35c15.333 18.667 21.666 63 18.999 133l-25 748l204 82v-808
c0 -53.333 11.667 -97 35 -131c26.667 -39.333 65.334 -59 116.001 -59h19v-235zM371.003 1479l-124 -164l-169 112l124 166z" />
    <glyph glyph-name="uni06B6.fina" unicode="&#x6b6;" horiz-adv-x="1257" 
d="M1078 1481l-124 -164l-169 112l124 166zM1257 0l-29 0.000976562c-24.667 0 -52 8.66699 -82 26s-50.667 36.666 -62 57.999c-6 -156.667 -41 -284 -105 -382c-84.667 -129.333 -215 -194 -391 -194c-161.333 0 -282 50.667 -362 152
c-64.667 81.333 -97 185.666 -97 312.999c0 100.667 27.667 207.334 83 320.001l156 -55c-39.333 -90 -59 -163.333 -59 -220c0 -90 26.667 -159 80 -207c51.333 -46 122.333 -69 213 -69c220 0 325.667 119.333 317 358l-39 1051l204 82v-808c0 -126.667 53 -190 159 -190
h14v-235z" />
    <glyph glyph-name="uni06B7.init" unicode="&#x6b7;" horiz-adv-x="421" 
d="M372 425c0 -130.667 -13.666 -225.666 -40.999 -284.999c-42.667 -92.667 -124.334 -139.334 -245.001 -140.001h-156v235h106c70.667 0 115.667 11.667 135 35c16.667 20.667 24 65 22 133l-25 748l204 82v-808zM-34.999 1405l102 140l133 -89l77 104l156 -104
l-106 -139l-133 88l-72 -104zM44.001 1651l103 136l144 -97l-101 -137z" />
    <glyph glyph-name="uni06B7.medi" unicode="&#x6b7;" horiz-adv-x="542" 
d="M542 0l-62.9971 0.000976562c-36.667 0.666992 -75.334 13.5 -116.001 38.5s-67.334 53.833 -80.001 86.5c-40.667 -82.667 -106.334 -124.334 -197.001 -125.001h-156v235h106c73.333 0 119.333 11.667 138 35c15.333 18.667 21.666 63 18.999 133l-25 748l204 82v-808
c0 -53.333 11.667 -97 35 -131c26.667 -39.333 65.334 -59 116.001 -59h19v-235zM-13.9971 1398l102 140l133 -89l77 104l156 -104l-106 -139l-133 88l-72 -104zM65.0029 1644l103 136l144 -97l-101 -137z" />
    <glyph glyph-name="uni06B7.fina" unicode="&#x6b7;" horiz-adv-x="1257" 
d="M674 1416l102 140l133 -89l77 104l156 -104l-106 -139l-133 88l-72 -104zM753 1662l103 136l144 -97l-101 -137zM1257 0l-29 0.000976562c-24.667 0 -52 8.66699 -82 26s-50.667 36.666 -62 57.999c-6 -156.667 -41 -284 -105 -382c-84.667 -129.333 -215 -194 -391 -194
c-161.333 0 -282 50.667 -362 152c-64.667 81.333 -97 185.666 -97 312.999c0 100.667 27.667 207.334 83 320.001l156 -55c-39.333 -90 -59 -163.333 -59 -220c0 -90 26.667 -159 80 -207c51.333 -46 122.333 -69 213 -69c220 0 325.667 119.333 317 358l-39 1051l204 82
v-808c0 -126.667 53 -190 159 -190h14v-235z" />
    <glyph glyph-name="uni06B8.init" unicode="&#x6b8;" horiz-adv-x="421" 
d="M372 425c0 -130.667 -13.666 -225.666 -40.999 -284.999c-42.667 -92.667 -124.334 -139.334 -245.001 -140.001h-156v235h106c70.667 0 115.667 11.667 135 35c16.667 20.667 24 65 22 133l-25 748l204 82v-808zM403.001 -303.999l-102 -140l-133 89l-77 -104l-157 104
l107 139l133 -88l72 105zM329.001 -548.999l-103 -137l-144 98l101 136z" />
    <glyph glyph-name="uni06B8.medi" unicode="&#x6b8;" horiz-adv-x="542" 
d="M542 0l-62.9971 0.000976562c-36.667 0.666992 -75.334 13.5 -116.001 38.5s-67.334 53.833 -80.001 86.5c-40.667 -82.667 -106.334 -124.334 -197.001 -125.001h-156v235h106c73.333 0 119.333 11.667 138 35c15.333 18.667 21.666 63 18.999 133l-25 748l204 82v-808
c0 -53.333 11.667 -97 35 -131c26.667 -39.333 65.334 -59 116.001 -59h19v-235zM479.003 -297.999l-102 -140l-133 89l-77 -104l-157 104l107 139l133 -88l72 105zM405.003 -542.999l-103 -137l-144 98l101 136z" />
    <glyph glyph-name="uni06B8.fina" unicode="&#x6b8;" horiz-adv-x="1257" 
d="M828 -709l-102 -140l-133 89l-77 -104l-157 104l107 139l133 -88l72 105zM754 -954l-103 -137l-144 98l101 136zM1257 0l-29 0.000976562c-24.667 0 -52 8.66699 -82 26s-50.667 36.666 -62 57.999c-6 -156.667 -41 -284 -105 -382c-84.667 -129.333 -215 -194 -391 -194
c-161.333 0 -282 50.667 -362 152c-64.667 81.333 -97 185.666 -97 312.999c0 100.667 27.667 207.334 83 320.001l156 -55c-39.333 -90 -59 -163.333 -59 -220c0 -90 26.667 -159 80 -207c51.333 -46 122.333 -69 213 -69c220 0 325.667 119.333 317 358l-39 1051l204 82
v-808c0 -126.667 53 -190 159 -190h14v-235z" />
    <glyph glyph-name="uni06B9.init" unicode="&#x6b9;" horiz-adv-x="436" 
d="M388 328c0 -106.667 -33 -188.666 -99 -245.999c-62.667 -54 -148.667 -81.333 -258 -82h-101v235h201c70 0 105 17.333 105 52c0 21.333 -15.333 51.666 -46 90.999l-69 88l132 190c90 -90 135 -199.333 135 -328zM311 949.001l-124 -164l-169 112l124 166z
M343 -319.999l-124 -164l-169 112l124 166z" />
    <glyph glyph-name="uni06B9.medi" unicode="&#x6b9;" horiz-adv-x="509" 
d="M509 0h-19c-96 0.666992 -159.333 36 -190 106c-50 -70 -129.667 -105.333 -239 -106h-131v235h123c102.667 0 154 35.667 154 107v80l167 55v-50c0 -128 41.333 -192 124 -192h11v-235zM388 819l-124 -164l-169 112l124 166zM409 -281l-124 -164l-169 112l124 166z" />
    <glyph glyph-name="uni06B9.fina" unicode="&#x6b9;" horiz-adv-x="1293" 
d="M757 680l-124 -164l-169 112l124 166zM779 -762l-124 -164l-169 112l124 166zM1293 1h-25.001c-70 0 -115 13.667 -135 41c0 -161.333 -49.667 -295 -149 -401c-101.333 -108.667 -232.333 -163 -393 -163c-161.333 0 -282 50.667 -362 152
c-64.667 81.333 -97 185.666 -97 312.999c0 102 27.667 208.333 83 319l156 -55c-36.667 -94.667 -55 -168 -55 -220c0 -89.333 27 -158 81 -206c52 -46 123.333 -69 214 -69c96.667 0 176.667 27 240 81c67.333 56.667 101 132.334 101 227.001
c0 91.333 -33 181.333 -99 270l176 165c38 -76 63 -122.333 75 -139c38.667 -54 83.334 -81 134.001 -81h55v-234z" />
    <glyph glyph-name="uni06BC.init" unicode="&#x6bc;" horiz-adv-x="436" 
d="M388 328c0 -106.667 -33 -188.666 -99 -245.999c-62.667 -54 -148.667 -81.333 -258 -82h-101v235h201c70 0 105 17.333 105 52c0 21.333 -15.333 51.666 -46 90.999l-69 88l132 190c90 -90 135 -199.333 135 -328zM292 962.001l-124 -164l-169 112l124 166zM379 -74.999
c0 -45.333 -14 -84.333 -42 -117c-30 -34 -67.333 -51 -112 -51c-38.667 0 -70.667 12.333 -96 37s-38 56 -38 94c0 64.667 15.667 116 47 154c24.667 31.333 52 47 82 47c33.333 0 67 -14 101 -42c38.667 -33.333 58 -74 58 -122zM315 -82.999c0 27.333 -11 49.667 -33 67
c-20 16 -44.333 24 -73 24c-14 0 -27.667 -10.5 -41 -31.5s-20 -39.167 -20 -54.5c0 -48.667 26.333 -73 79 -73c22 0 41.667 5.66699 59 17c19.333 12.667 29 29.667 29 51z" />
    <glyph glyph-name="uni06BC.medi" unicode="&#x6bc;" horiz-adv-x="509" 
d="M509 0h-19c-96 0.666992 -159.333 36 -190 106c-50 -70 -129.667 -105.333 -239 -106h-131v235h123c102.667 0 154 35.667 154 107v80l167 55v-50c0 -128 41.333 -192 124 -192h11v-235zM406 790l-124 -164l-169 112l124 166zM310 -105c0 -45.333 -14 -84.333 -42 -117
c-30 -34 -67.333 -51 -112 -51c-38.667 0 -70.667 12.333 -96 37s-38 56 -38 94c0 64.667 15.667 116 47 154c24.667 31.333 52 47 82 47c33.333 0 67 -14 101 -42c38.667 -33.333 58 -74 58 -122zM246 -113c0 27.333 -11 49.667 -33 67c-20 16 -44.333 24 -73 24
c-14 0 -27.667 -10.5 -41 -31.5s-20 -39.167 -20 -54.5c0 -48.667 26.333 -73 79 -73c22 0 41.667 5.66699 59 17c19.333 12.667 29 29.667 29 51z" />
    <glyph glyph-name="uni06BC.fina" unicode="&#x6bc;" horiz-adv-x="1293" 
d="M765 648l-124 -164l-169 112l124 166zM1293 1h-25.001c-70 0 -115 13.667 -135 41c0 -161.333 -49.667 -295 -149 -401c-101.333 -108.667 -232.333 -163 -393 -163c-161.333 0 -282 50.667 -362 152c-64.667 81.333 -97 185.666 -97 312.999
c0 102 27.667 208.333 83 319l156 -55c-36.667 -94.667 -55 -168 -55 -220c0 -89.333 27 -158 81 -206c52 -46 123.333 -69 214 -69c96.667 0 176.667 27 240 81c67.333 56.667 101 132.334 101 227.001c0 91.333 -33 181.333 -99 270l176 165c38 -76 63 -122.333 75 -139
c38.667 -54 83.334 -81 134.001 -81h55v-234zM755.999 -599c0 -45.333 -14 -84.333 -42 -117c-30 -34 -67.333 -51 -112 -51c-38.667 0 -70.667 12.333 -96 37s-38 56 -38 94c0 64.667 15.667 116 47 154c24.667 31.333 52 47 82 47c33.333 0 67 -14 101 -42
c38.667 -33.333 58 -74 58 -122zM691.999 -607c0 27.333 -11 49.667 -33 67c-20 16 -44.333 24 -73 24c-14 0 -27.667 -10.5 -41 -31.5s-20 -39.167 -20 -54.5c0 -48.667 26.333 -73 79 -73c22 0 41.667 5.66699 59 17c19.333 12.667 29 29.667 29 51z" />
    <glyph glyph-name="uni06BD.fina" unicode="&#x6bd;" horiz-adv-x="1293" 
d="M1293 1h-25.001c-70 0 -115 13.667 -135 41c0 -161.333 -49.667 -295 -149 -401c-101.333 -108.667 -232.333 -163 -393 -163c-161.333 0 -282 50.667 -362 152c-64.667 81.333 -97 185.666 -97 312.999c0 102 27.667 208.333 83 319l156 -55
c-36.667 -94.667 -55 -168 -55 -220c0 -89.333 27 -158 81 -206c52 -46 123.333 -69 214 -69c96.667 0 176.667 27 240 81c67.333 56.667 101 132.334 101 227.001c0 91.333 -33 181.333 -99 270l176 165c38 -76 63 -122.333 75 -139c38.667 -54 83.334 -81 134.001 -81h55
v-234zM390.999 561l102 140l133 -89l77 104l156 -104l-106 -139l-133 88l-72 -104zM469.999 807l103 136l144 -97l-101 -137z" />
    <glyph glyph-name="uni06BF.init" unicode="&#x6bf;" horiz-adv-x="1081" 
d="M1078 516l-27.001 -210c-84 0 -173 -26.333 -267 -79c-56.667 -34 -143 -83 -259 -147c-104 -52.667 -223 -79 -357 -79h-238v234h235c100 0 195.333 15.333 286 46c10 3.33301 83.667 30 221 80c-23.333 2.66699 -81.333 17.667 -174 45
c-85.333 25.333 -137.666 38 -156.999 38c-25.333 0 -46.666 -9 -63.999 -27l-37 -47c-60.667 24 -111.334 47.667 -152.001 71c60.667 146 134 219 220 219c56.667 0 163.5 -24.667 320.5 -74s279.167 -74 366.5 -74c28 0 55.667 1.33301 83 4zM835.999 -221l-102 -140
l-133 89l-77 -104l-157 104l107 139l133 -88l72 105zM761.999 -466l-103 -137l-144 98l101 136zM779.999 905l-124 -164l-169 112l124 166z" />
    <glyph glyph-name="uni06BF.medi" unicode="&#x6bf;" horiz-adv-x="1208" 
d="M1208 1h-198.002c-156.667 0 -236.667 97.333 -240 292c-40 -22 -100.333 -64.333 -181 -127c-70.667 -54.667 -130 -93 -178 -115c-72 -33.333 -151 -50 -237 -50h-244v234h213c100 0 191.333 21 274 63l205 110c-26 2.66699 -78.333 11 -157 25
c-71.333 12.667 -112.666 19 -123.999 19c-28.667 0 -60.667 -27.333 -96 -82c-63.333 26 -113.666 49.667 -150.999 71c64 159.333 137.333 239 220 239c71.333 0 182.666 -17.667 333.999 -53s266 -53 344 -53c39.333 0 76.333 2 111 6l-27 -227
c-65.333 0 -127.333 -9 -186 -27c6.66699 -28 16.334 -47.667 29.001 -59c24 -21.333 65.333 -32 124 -32h165v-234zM777.998 -258l-102 -140l-133 89l-77 -104l-157 104l107 139l133 -88l72 105zM703.998 -503l-103 -137l-144 98l101 136zM779.998 945l-124 -164l-169 112
l124 166z" />
    <glyph glyph-name="uni06BF.fina" unicode="&#x6bf;" horiz-adv-x="1318" 
d="M1318 1l-212.004 -0.000976562c-156.667 0 -233.667 107.333 -231 322c-131.333 -42 -245 -107.333 -341 -196c-102.667 -95.333 -154 -191.666 -154 -288.999c0 -229.333 171.333 -344 514 -344c125.333 0 233.333 15 324 45l64 -201
c-135.333 -51.333 -275.666 -77 -420.999 -77c-207.333 0 -369.666 39 -486.999 117c-139.333 92.667 -209 237 -209 433c0 124.667 54.333 243.667 163 357c86 90 194 165.333 324 226c-118 14.667 -191.333 22 -220 22c-31.333 0 -63.333 -26.333 -96 -79
c-66 27.333 -117.333 52 -154 74c63.333 157.333 137.333 236 222 236c64.667 0 163 -7.5 295 -22.5s231.333 -22.5 298 -22.5c72.667 0 138.334 3.33301 197.001 10l-28 -240c-54 0 -110.667 -5.33301 -170 -16c4.66699 -34 12.334 -58.667 23.001 -74
c22 -31.333 62 -47 120 -47h179v-234zM944.996 -67.001l-102 -140l-133 89l-77 -104l-157 104l107 139l133 -88l72 105zM870.996 -312.001l-103 -137l-144 98l101 136zM861.996 947.999l-124 -164l-169 112l124 166z" />
    <glyph glyph-name="uni06C4.fina" unicode="&#x6c4;" horiz-adv-x="745" 
d="M745 0l-77.002 0.000976562c-24.667 -106.667 -87 -208 -187 -304c-90.667 -86.667 -192.334 -152 -305.001 -196l-147 139c94.667 35.333 190.334 87.666 287.001 156.999c104.667 75.333 168.334 142.333 191.001 201c-109.333 0 -187.666 11.667 -234.999 35
c-70 34 -105 99 -105 195c0 62.667 18 128.667 54 198c44.667 86.667 101.667 130 171 130c82 0 148.667 -36.333 200 -109c41.333 -58 67.333 -128.333 78 -211h75v-235zM510.998 234.001c-3.33301 30 -15.999 58.332 -37.999 84.999c-24.667 28.667 -51.334 43 -80.001 43
c-19.333 0 -37.833 -8.66699 -55.5 -26s-26.5 -35.666 -26.5 -54.999c0 -40 33 -60 99 -60c31.333 0 65 4.33301 101 13zM499.999 -537c0 -45.333 -14 -84.333 -42 -117c-30 -34 -67.333 -51 -112 -51c-38.667 0 -70.667 12.333 -96 37s-38 56 -38 94
c0 64.667 15.667 116 47 154c24.667 31.333 52 47 82 47c33.333 0 67 -14 101 -42c38.667 -33.333 58 -74 58 -122zM435.999 -545c0 27.333 -11 49.667 -33 67c-20 16 -44.333 24 -73 24c-14 0 -27.667 -10.5 -41 -31.5s-20 -39.167 -20 -54.5c0 -48.667 26.333 -73 79 -73
c22 0 41.667 5.66699 59 17c19.333 12.667 29 29.667 29 51z" />
    <glyph glyph-name="uni06CA.fina" unicode="&#x6ca;" horiz-adv-x="745" 
d="M745 0l-77.002 0.000976562c-24.667 -106.667 -87 -208 -187 -304c-90.667 -86.667 -192.334 -152 -305.001 -196l-147 139c94.667 35.333 190.334 87.666 287.001 156.999c104.667 75.333 168.334 142.333 191.001 201c-109.333 0 -187.666 11.667 -234.999 35
c-70 34 -105 99 -105 195c0 62.667 18 128.667 54 198c44.667 86.667 101.667 130 171 130c82 0 148.667 -36.333 200 -109c41.333 -58 67.333 -128.333 78 -211h75v-235zM510.998 234.001c-3.33301 30 -15.999 58.332 -37.999 84.999c-24.667 28.667 -51.334 43 -80.001 43
c-19.333 0 -37.833 -8.66699 -55.5 -26s-26.5 -35.666 -26.5 -54.999c0 -40 33 -60 99 -60c31.333 0 65 4.33301 101 13zM614.999 822l-110 -149l-136 96l-80 -112l-172 117l110 149l144 -99l79 112z" />
    <glyph glyph-name="uni06CD.fina" unicode="&#x6cd;" horiz-adv-x="1240" 
d="M1240 0h-29.002c-43.333 3.33301 -114.666 8.33301 -213.999 15c-19.333 1.33301 -32.666 2 -39.999 2c-66.667 0 -100 -10 -100 -30c0 -12.667 13.333 -21 40 -25l213 -32c74 -20.667 111 -59.667 111 -117c0 -70.667 -49.667 -141 -149 -211
c-118 -82.667 -263 -124 -435 -124c-186 0 -322.333 46.667 -409 140c-69.333 74.667 -104 174.667 -104 300c0 85.333 20.667 171.666 62 258.999l-195 -71l14 76l213 56l156 -55c-14 -23.333 -27.667 -58 -41 -104c-14.667 -48 -22 -84.333 -22 -109
c0 -170.667 112.667 -256 338 -256c157.333 0 274 15.667 350 47c23.333 9.33301 35 18 35 26c0 7.33301 -10 12.333 -30 15c-14.667 2 -77.667 9.33301 -189 22c-97.333 23.333 -146 67.333 -146 132c0 92.667 61 165.334 183 218.001c95.333 40.667 196.333 61 303 61h85
v-235z" />
    <glyph glyph-name="uni06CE.init" unicode="&#x6ce;" horiz-adv-x="436" 
d="M388 328c0 -106.667 -33 -188.666 -99 -245.999c-62.667 -54 -148.667 -81.333 -258 -82h-101v235h201c70 0 105 17.333 105 52c0 21.333 -15.333 51.666 -46 90.999l-69 88l132 190c90 -90 135 -199.333 135 -328zM323 979.001c-10 -8 -22.5 -21.8301 -37.5 -41.4971
s-30.167 -42.667 -45.5 -69s-29.833 -54.833 -43.5 -85.5s-24.167 -61 -31.5 -91h-28l-1 3c-8 29.333 -18.833 59.166 -32.5 89.499s-28.167 58.666 -43.5 84.999s-30.333 49.166 -45 68.499s-26.667 33 -36 41l108 2c14 -21.333 26.167 -47.333 36.5 -78
s19.166 -62.667 26.499 -96c7.33301 33.333 16.333 65.333 27 96s23.334 56.667 38.001 78zM435 -323.996l-110 -149l-136 96l-80 -112l-172 117l110 149l144 -99l79 112z" />
    <glyph glyph-name="uni06CE.medi" unicode="&#x6ce;" horiz-adv-x="509" 
d="M509 0h-19c-96 0.666992 -159.333 36 -190 106c-50 -70 -129.667 -105.333 -239 -106h-131v235h123c102.667 0 154 35.667 154 107v80l167 55v-50c0 -128 41.333 -192 124 -192h11v-235zM453 863c-10 -8 -22.5 -21.8301 -37.5 -41.4971s-30.167 -42.667 -45.5 -69
s-29.833 -54.833 -43.5 -85.5s-24.167 -61 -31.5 -91h-28l-1 3c-8 29.333 -18.833 59.166 -32.5 89.499s-28.167 58.666 -43.5 84.999s-30.333 49.166 -45 68.499s-26.667 33 -36 41l108 2c14 -21.333 26.167 -47.333 36.5 -78s19.166 -62.667 26.499 -96
c7.33301 33.333 16.333 65.333 27 96s23.334 56.667 38.001 78zM490 -285.997l-110 -149l-136 96l-80 -112l-172 117l110 149l144 -99l79 112z" />
    <glyph glyph-name="uni06CE.fina" unicode="&#x6ce;" horiz-adv-x="1240" 
d="M1240 0l-29.002 -0.000976562c-43.333 3.33301 -114.666 8.33301 -213.999 15c-19.333 1.33301 -32.666 2 -39.999 2c-66.667 0 -100 -10 -100 -30c0 -12.667 13.333 -21 40 -25l213 -32c74 -20.667 111 -59.667 111 -117c0 -70.667 -49.667 -141 -149 -211
c-118 -82.667 -263 -124 -435 -124c-186 0 -322.333 46.667 -409 140c-69.333 74.667 -104 174.667 -104 300c0 105.333 31.333 212 94 320l156 -55c-14 -23.333 -27.667 -58 -41 -104c-14.667 -48 -22 -84.333 -22 -109c0 -170.667 112.667 -256 338 -256
c157.333 0 274 15.667 350 47c23.333 9.33301 35 18 35 26c0 7.33301 -10 12.333 -30 15c-14.667 2 -77.667 9.33301 -189 22c-97.333 23.333 -146 67.333 -146 132c0 92.667 61 165.334 183 218.001c95.333 40.667 196.333 61 303 61h85v-235zM666.998 642.999
c-10 -8 -22.5 -21.8301 -37.5 -41.4971s-30.167 -42.667 -45.5 -69s-29.833 -54.833 -43.5 -85.5s-24.167 -61 -31.5 -91h-28l-1 3c-8 29.333 -18.833 59.166 -32.5 89.499s-28.167 58.666 -43.5 84.999s-30.333 49.166 -45 68.499s-26.667 33 -36 41l108 2
c14 -21.333 26.167 -47.333 36.5 -78s19.166 -62.667 26.499 -96c7.33301 33.333 16.333 65.333 27 96s23.334 56.667 38.001 78z" />
    <glyph glyph-name="uni06CF.fina" unicode="&#x6cf;" horiz-adv-x="745" 
d="M745 0l-77.002 0.000976562c-24.667 -106.667 -87 -208 -187 -304c-90.667 -86.667 -192.334 -152 -305.001 -196l-147 139c94.667 35.333 190.334 87.666 287.001 156.999c104.667 75.333 168.334 142.333 191.001 201c-109.333 0 -187.666 11.667 -234.999 35
c-70 34 -105 99 -105 195c0 62.667 18 128.667 54 198c44.667 86.667 101.667 130 171 130c82 0 148.667 -36.333 200 -109c41.333 -58 67.333 -128.333 78 -211h75v-235zM510.998 234.001c-3.33301 30 -15.999 58.332 -37.999 84.999c-24.667 28.667 -51.334 43 -80.001 43
c-19.333 0 -37.833 -8.66699 -55.5 -26s-26.5 -35.666 -26.5 -54.999c0 -40 33 -60 99 -60c31.333 0 65 4.33301 101 13zM528.999 865l-124 -164l-169 112l124 166z" />
    <glyph glyph-name="uni06D1.fina" unicode="&#x6d1;" horiz-adv-x="1240" 
d="M867 -738l-102 -140l-133 89l-77 -104l-157 104l107 139l133 -88l72 105zM793 -983l-103 -137l-144 98l101 136zM1240 0l-29.002 -0.000976562c-43.333 3.33301 -114.666 8.33301 -213.999 15c-19.333 1.33301 -32.666 2 -39.999 2c-66.667 0 -100 -10 -100 -30
c0 -12.667 13.333 -21 40 -25l213 -32c74 -20.667 111 -59.667 111 -117c0 -70.667 -49.667 -141 -149 -211c-118 -82.667 -263 -124 -435 -124c-186 0 -322.333 46.667 -409 140c-69.333 74.667 -104 174.667 -104 300c0 105.333 31.333 212 94 320l156 -55
c-14 -23.333 -27.667 -58 -41 -104c-14.667 -48 -22 -84.333 -22 -109c0 -170.667 112.667 -256 338 -256c157.333 0 274 15.667 350 47c23.333 9.33301 35 18 35 26c0 7.33301 -10 12.333 -30 15c-14.667 2 -77.667 9.33301 -189 22c-97.333 23.333 -146 67.333 -146 132
c0 92.667 61 165.334 183 218.001c95.333 40.667 196.333 61 303 61h85v-235z" />
    <glyph glyph-name="uni06FA.init" unicode="&#x6fa;" horiz-adv-x="1158" 
d="M1120 331c0 -80.667 -21.3311 -153.999 -63.998 -219.999c-49.333 -75.333 -112.333 -113 -189 -113c-106 0 -183 36 -231 108c-40.667 -70 -99.334 -105 -176.001 -105c-96 0 -164 35 -204 105c-20 -32.667 -52.667 -58.667 -98 -78c-41.333 -18.667 -83 -28 -125 -28
h-103v235h123c37.333 0 68.166 11 92.499 33s36.5 51.333 36.5 88v60l143 47v-63c0 -40 7.66699 -75.333 23 -106c20 -39.333 48 -59 84 -59c95.333 0 143 43 143 129v80l146 44v-102c0 -44 12.667 -80.667 38 -110c26.667 -31.333 61.667 -47 105 -47
c58.667 0 88 27.667 88 83c0 51.333 -23 98 -69 140l143 160c62.667 -68.667 94 -162.334 94 -281.001zM424.002 780.001l102 140l133 -89l77 104l156 -104l-106 -139l-133 88l-72 -104zM503.002 1026l103 136l144 -97l-101 -137zM768.002 -273.999l-124 -164l-169 112
l124 166z" />
    <glyph glyph-name="uni06FA.medi" unicode="&#x6fa;" horiz-adv-x="1213" 
d="M1213 0h-33.001c-86 0.666992 -151 36 -195 106c-43.333 -70 -104.666 -105 -183.999 -105c-76 0 -132 35 -168 105c-54 -70 -119 -105 -195 -105c-80.667 0 -137.667 35 -171 105c-44 -70 -108 -105.333 -192 -106h-145v235h150c56.667 0 85 34 85 102v74l146 49v-66
c0 -106 44 -159 132 -159c71.333 0 107 34 107 102v74l143 49v-66c0 -106 37.667 -159 113 -159c84.667 0 127 34 127 102v74l145 49v-66c0 -64 3 -103 9 -117c12 -28 45.667 -42 101 -42h25v-235zM362.999 727l102 140l133 -89l77 104l156 -104l-106 -139l-133 88l-72 -104
zM441.999 973l103 136l144 -97l-101 -137zM739.999 -251l-124 -164l-169 112l124 166z" />
    <glyph glyph-name="uni06FA.fina" unicode="&#x6fa;" horiz-adv-x="2026" 
d="M2026 0h-39.0029c-53.333 -0 -95.666 10.333 -126.999 31c-23.333 14.667 -46 39.667 -68 75c-42.667 -70 -104 -105 -184 -105c-75.333 0 -131.333 35 -168 105c-52.667 -70 -116 -105 -190 -105c-61.333 0 -101.666 13.667 -120.999 41
c0 -161.333 -49.667 -295 -149 -401c-101.333 -108.667 -232.333 -163 -393 -163c-161.333 0 -282 50.667 -362 152c-64.667 81.333 -97 185.666 -97 312.999c0 102 27.667 208.333 83 319l156 -55c-36.667 -94.667 -55 -168 -55 -220c0 -89.333 27 -158 81 -206
c52 -46 123.333 -69 214 -69c96.667 0 176.667 27 240 81c67.333 56.667 101 132.334 101 227.001c0 91.333 -33 181.333 -99 270l176 165c24.667 -50.667 56.334 -97 95.001 -139c49.333 -54 92.666 -81 129.999 -81c71.333 0 107 34 107 102v74l143 49v-66
c0 -106 37.667 -159 113 -159c84.667 0 127 34 127 102v74l145 49v-66c0 -64.667 3 -103.667 9 -117c12.667 -28 46.334 -42 101.001 -42h31v-235zM1178 726l102 140l133 -89l77 104l156 -104l-106 -139l-133 88l-72 -104zM1257 972l103 136l144 -97l-101 -137zM1563 -325
l-124 -164l-169 112l124 166z" />
    <glyph glyph-name="uni06FB.init" unicode="&#x6fb;" horiz-adv-x="1337" 
d="M1285 438c0 -140.667 -65.001 -251.667 -195.001 -333c-111.333 -69.333 -241.666 -104 -390.999 -104h-204c-112 0 -189 30.333 -231 91c-40.667 -60.667 -104.667 -91 -192 -91h-142v234h117c86 0 129 39.333 129 118v69l157 44v-83c0 -48.667 3.66699 -82 11 -100
c12 -30 37.667 -45 77 -45c26.667 0 58 22 94 66c208 254.667 377.333 382 508 382c75.333 0 137.833 -22.667 187.5 -68s74.5 -105.333 74.5 -180zM1120 378c0 56.667 -47.667 85 -143 85c-61.333 0 -129 -30.333 -203 -91c-14.667 -12 -60 -56 -136 -132h99
c71.333 0 144.333 8.66699 219 26c109.333 26 164 63.333 164 112zM673.999 874l-124 -164l-169 112l124 166zM663.999 -309l-124 -164l-169 112l124 166z" />
    <glyph glyph-name="uni06FB.medi" unicode="&#x6fb;" horiz-adv-x="1367" 
d="M1367 1h-30.001c-100.667 0 -178.667 36.667 -234 110c-88 -73.333 -214.333 -110 -379 -110h-231c-113.333 0 -189.666 30.333 -228.999 91c-40.667 -60.667 -104.667 -91 -192 -91h-142v234h117c86 0 129 39.333 129 118v69l157 44v-83c0 -48.667 3.66699 -82 11 -100
c12 -30 37.667 -45 77 -45c25.333 0 55.666 22 90.999 66c205.333 254.667 375 382 509 382c76 0 138.5 -22.5 187.5 -67.5s73.5 -105.167 73.5 -180.5c0 -68.667 -15.667 -130 -47 -184c6.66699 -12.667 45.334 -19 116.001 -19h16v-234zM1117 378
c0 56.667 -47.667 85 -143 85c-61.333 0 -129 -30.333 -203 -91c-18.667 -15.333 -63.667 -59.333 -135 -132h99c71.333 0 144.333 8.66699 219 26c108.667 26 163 63.333 163 112zM699.999 878l-124 -164l-169 112l124 166zM683.999 -272l-124 -164l-169 112l124 166z" />
    <glyph glyph-name="uni06FB.fina" unicode="&#x6fb;" horiz-adv-x="2178" 
d="M2178 1l-28 -0.000976562c-101.333 0 -180 36.667 -236 110c-86.667 -73.333 -213 -110 -379 -110h-143c-124 0 -198.333 13.667 -223 41c0 -161.333 -49.667 -295 -149 -401c-101.333 -108.667 -232.333 -163 -393 -163c-161.333 0 -282 50.667 -362 152
c-64.667 81.333 -97 185.666 -97 312.999c0 102 27.667 208.333 83 319l156 -55c-36.667 -94.667 -55 -168 -55 -220c0 -89.333 27 -158 81 -206c52 -46 123.333 -69 214 -69c96.667 0 176.667 27 240 81c67.333 56.667 101 132.334 101 227.001
c0 91.333 -33 181.333 -99 270l176 165c59.333 -143.333 115 -215 167 -215c23.333 0 41 5.66699 53 17c226.667 286 409 429 547 429c76 0 138.5 -22.5 187.5 -67.5s73.5 -105.167 73.5 -180.5c0 -69.333 -15.667 -130.666 -47 -183.999
c6.66699 -12.667 45.334 -19 116 -19h16v-234zM1928 371.999c0 57.333 -47.666 86 -142.999 86c-60.667 0 -128.334 -30.667 -203.001 -92c-14.667 -12 -59.667 -55.667 -135 -131h99c71.333 0 144.333 8.66699 219 26c108.667 25.333 163 62.333 163 111zM1525 842.999
l-124 -164l-169 112l124 166zM1531 -335.001l-124 -164l-169 112l124 166z" />
    <glyph glyph-name="uni06FC.init" unicode="&#x6fc;" horiz-adv-x="854" 
d="M803 309c-17.333 -130.667 -25.334 -199.33 -24.001 -205.997c-295.333 -68 -530 -102.333 -704 -103h-145v235h249l-32 68c-10 29.333 -15 68 -15 116c0 64 25.333 125.667 76 185c58.667 69.333 131.667 104 219 104c47.333 0 96 -11.333 146 -34
c52.667 -24 92.667 -54 120 -90l-63 -126c-59.333 32.667 -122.666 49 -189.999 49c-35.333 0 -69 -7.33301 -101 -22c-40.667 -18.667 -61 -43.334 -61 -74.001c0 -36.667 24.833 -70.834 74.5 -102.501s99.167 -46.834 148.5 -45.501c68 2 168.667 17.333 302 46z
M537.999 1034l-124 -164l-169 112l124 166zM597.999 -298.996l-124 -164l-169 112l124 166z" />
    <glyph glyph-name="uni06FC.medi" unicode="&#x6fc;" horiz-adv-x="781" 
d="M781 0h-133c-112 0.666992 -197.667 47 -257 139c-121.333 -92 -246 -138.333 -374 -139h-87v235h95c146 0 235 26.667 267 80c0 22.667 -22.333 40.334 -67 53.001c-32 8.66699 -63 13 -93 13v27c0 64 23.333 118.667 70 164c58 56 142 84 252 84
c56 0 103.667 -11 143 -33c48 -27.333 72 -67 72 -119c0 -68.667 -19 -124.334 -57 -167.001l-89 -75c12 -18 60.667 -27 146 -27h112v-235zM523 988l-124 -164l-169 112l124 166zM528 -271l-124 -164l-169 112l124 166z" />
    <glyph glyph-name="uni06FC.fina" unicode="&#x6fc;" horiz-adv-x="1078" 
d="M1183 -671c-103.333 -44 -228 -65.999 -374 -65.999c-187.333 0 -336.333 36.667 -447 110c-131.333 86.667 -197 218.667 -197 396c0 141.333 52.333 272.333 157 393c33.333 38.667 104.666 101.334 213.999 188.001c0 35.333 -54 53 -162 53v30
c0 68 25 125.667 75 173c62 58.667 151.667 88 269 88c50.667 0 98.334 -11.667 143.001 -35c53.333 -28.667 80 -66.334 80 -113.001c0 -70.667 -16.667 -128.334 -50 -173.001c-19.333 -26 -53.333 -55.667 -102 -89c14 -32.667 65.333 -49 154 -49h135v-235h-187
c-122.667 0.666992 -209.667 58.667 -261 174c-72 -38 -134 -92.333 -186 -163c-57.333 -77.333 -86 -153.333 -86 -228c0 -107.333 58 -185.333 174 -234c83.333 -34.667 187 -52 311 -52c106 0 196.333 12 271 36zM797 1031l-124 -164l-169 112l124 166zM811 -193.999
l-124 -164l-169 112l124 166z" />
    <glyph glyph-name="uniFB51" unicode="&#x671;" horiz-adv-x="561" arabic-form="final" 
d="M561 0h-38c-139.333 0.666992 -233.333 46.667 -282 138c-31.333 58.667 -49.333 161.667 -54 309l-22 704l204 82v-814c0 -122.667 49 -184 147 -184h45v-235zM110 1339c-10 6 -21.665 9.83203 -34.998 11.499s-26.333 2.16699 -39 1.5v26
c13.333 7.33301 27.666 11.666 42.999 12.999c30.667 2.66699 57 -2.66602 79 -15.999c28.667 34 55.667 60.5 81 79.5s45.666 30.833 60.999 35.5c19.333 6.66699 36 6.83398 50 0.500977s24.667 -15.833 32 -28.5s10.833 -27 10.5 -43s-4.83301 -30.667 -13.5 -44
c-17.333 -22.667 -39.333 -39.5 -66 -50.5s-57.667 -16.167 -93 -15.5s-72 10.667 -110 30zM298.002 1449c-20.667 -6.66699 -40.167 -17.168 -58.5 -31.501s-37.5 -30.833 -57.5 -49.5c4.66699 -3.33301 15.5 -5.33301 32.5 -6s35.167 0 54.5 2s38 5.83301 56 11.5
s30.333 13.5 37 23.5c0.666992 5.33301 0 11.5 -2 18.5s-5.5 13.5 -10.5 19.5s-11.667 10.333 -20 13s-18.833 2.33398 -31.5 -0.999023z" />
    <glyph glyph-name="uniFB53" unicode="&#x67b;" horiz-adv-x="1733" arabic-form="final" 
d="M1733 0h-39c-101.333 0.666992 -171 40.334 -209 119.001c-51.333 -68 -165.333 -117 -342 -147c-116.667 -20 -244.667 -30 -384 -30c-396 0 -594 116.333 -594 349c0 69.333 25.667 155 77 257l151 -47c-29.333 -64 -44 -109.667 -44 -137
c0 -56.667 21.667 -98.667 65 -126c64 -40 182.667 -60 356 -60h88c142.667 0 247.667 5 315 15c158.667 23.333 238 73 238 149v52l167 55v-48c0 -62.667 9.66699 -105.334 29 -128.001c21.333 -25.333 62.333 -38 123 -38h3v-235zM811 -412l-113 114l113 112l112 -112z
M811 -636l-113 114l113 112l112 -112z" />
    <glyph glyph-name="uniFB54" unicode="&#x67b;" horiz-adv-x="436" arabic-form="initial" 
d="M388 328c0 -106.667 -33 -188.666 -99 -245.999c-62.667 -54 -148.667 -81.333 -258 -82h-101v235h201c70 0 105 17.333 105 52c0 21.333 -15.333 51.666 -46 90.999l-69 88l132 190c90 -90 135 -199.333 135 -328zM216 -341.999l-113 114l113 112l112 -112z
M216 -565.999l-113 114l113 112l112 -112z" />
    <glyph glyph-name="uniFB55" unicode="&#x67b;" horiz-adv-x="509" arabic-form="medial" 
d="M509 0h-19c-96 0.666992 -159.333 36 -190 106c-50 -70 -129.667 -105.333 -239 -106h-131v235h123c102.667 0 154 35.667 154 107v80l167 55v-50c0 -128 41.333 -192 124 -192h11v-235zM258 -347l-113 114l113 112l112 -112zM258 -571l-113 114l113 112l112 -112z" />
    <glyph glyph-name="afii62958" unicode="&#x67e;" horiz-adv-x="1733" arabic-form="final" 
d="M1733 0h-39c-101.333 0.666992 -171 40.334 -209 119.001c-51.333 -68 -165.333 -117 -342 -147c-116.667 -20 -244.667 -30 -384 -30c-396 0 -594 116.333 -594 349c0 69.333 25.667 155 77 257l151 -47c-29.333 -64 -44 -109.667 -44 -137
c0 -56.667 21.667 -98.667 65 -126c64 -40 182.667 -60 356 -60h88c142.667 0 247.667 5 315 15c158.667 23.333 238 73 238 149v52l167 55v-48c0 -62.667 9.66699 -105.334 29 -128.001c21.333 -25.333 62.333 -38 123 -38h3v-235zM1053 -315l-102 -140l-133 89l-77 -104
l-157 104l107 139l133 -88l72 105zM979 -560l-103 -137l-144 98l101 136z" />
    <glyph glyph-name="afii62956" unicode="&#x67e;" horiz-adv-x="436" arabic-form="initial" 
d="M388 328c0 -106.667 -33 -188.666 -99 -245.999c-62.667 -54 -148.667 -81.333 -258 -82h-101v235h201c70 0 105 17.333 105 52c0 21.333 -15.333 51.666 -46 90.999l-69 88l132 190c90 -90 135 -199.333 135 -328zM429 -308.999l-102 -140l-133 89l-77 -104l-157 104
l107 139l133 -88l72 105zM355 -553.999l-103 -137l-144 98l101 136z" />
    <glyph glyph-name="afii52957" unicode="&#x67e;" horiz-adv-x="509" arabic-form="medial" 
d="M509 0h-19c-96 0.666992 -159.333 36 -190 106c-50 -70 -129.667 -105.333 -239 -106h-131v235h123c102.667 0 154 35.667 154 107v80l167 55v-50c0 -128 41.333 -192 124 -192h11v-235zM474 -303l-102 -140l-133 89l-77 -104l-157 104l107 139l133 -88l72 105zM400 -548
l-103 -137l-144 98l101 136z" />
    <glyph glyph-name="uniFB5B" unicode="&#x680;" horiz-adv-x="1733" arabic-form="final" 
d="M1733 0h-39c-101.333 0.666992 -171 40.334 -209 119.001c-51.333 -68 -165.333 -117 -342 -147c-116.667 -20 -244.667 -30 -384 -30c-396 0 -594 116.333 -594 349c0 69.333 25.667 155 77 257l151 -47c-29.333 -64 -44 -109.667 -44 -137
c0 -56.667 21.667 -98.667 65 -126c64 -40 182.667 -60 356 -60h88c142.667 0 247.667 5 315 15c158.667 23.333 238 73 238 149v52l167 55v-48c0 -62.667 9.66699 -105.334 29 -128.001c21.333 -25.333 62.333 -38 123 -38h3v-235zM983 -600l-116 117l116 116l117 -116z
M742 -600l-117 117l117 116l116 -116zM862 -426l-116 116l116 117l117 -117zM867 -768l-117 117l117 116l116 -116z" />
    <glyph glyph-name="uniFB5C" unicode="&#x680;" horiz-adv-x="436" arabic-form="initial" 
d="M388 328c0 -106.667 -33 -188.666 -99 -245.999c-62.667 -54 -148.667 -81.333 -258 -82h-101v235h201c70 0 105 17.333 105 52c0 21.333 -15.333 51.666 -46 90.999l-69 88l132 190c90 -90 135 -199.333 135 -328zM323.505 -507.95l-108.785 109.602l108.785 108.666
l109.724 -108.666zM97.4941 -507.95l-109.724 109.602l109.724 108.666l108.785 -108.666zM210.03 -344.952l-108.785 108.665l108.785 109.602l109.724 -109.602zM214.72 -665.327l-109.724 109.602l109.724 108.666l108.785 -108.666z" />
    <glyph glyph-name="uniFB5D" unicode="&#x680;" horiz-adv-x="509" arabic-form="medial" 
d="M509 0h-19c-96 0.666992 -159.333 36 -190 106c-50 -70 -129.667 -105.333 -239 -106h-131v235h123c102.667 0 154 35.667 154 107v80l167 55v-50c0 -128 41.333 -192 124 -192h11v-235zM379.587 -516.105l-109.896 110.744l109.896 109.799l110.845 -109.799z
M151.267 -516.105l-110.845 110.744l110.845 109.799l109.897 -109.799zM264.953 -351.408l-109.896 109.798l109.896 110.744l110.845 -110.744zM269.69 -675.123l-110.845 110.744l110.845 109.799l109.896 -109.799z" />
    <glyph glyph-name="uniFB5F" unicode="&#x67a;" horiz-adv-x="1733" arabic-form="final" 
d="M1733 0h-39c-101.333 0.666992 -171 40.334 -209 119.001c-51.333 -68 -165.333 -117 -342 -147c-116.667 -20 -244.667 -30 -384 -30c-396 0 -594 116.333 -594 349c0 69.333 25.667 155 77 257l151 -47c-29.333 -64 -44 -109.667 -44 -137
c0 -56.667 21.667 -98.667 65 -126c64 -40 182.667 -60 356 -60h88c142.667 0 247.667 5 315 15c158.667 23.333 238 73 238 149v52l167 55v-48c0 -62.667 9.66699 -105.334 29 -128.001c21.333 -25.333 62.333 -38 123 -38h3v-235zM915 838l-113 114l113 112l112 -112z
M915 614l-113 114l113 112l112 -112z" />
    <glyph glyph-name="uniFB60" unicode="&#x67a;" horiz-adv-x="436" arabic-form="initial" 
d="M388 328c0 -106.667 -33 -188.666 -99 -245.999c-62.667 -54 -148.667 -81.333 -258 -82h-101v235h201c70 0 105 17.333 105 52c0 21.333 -15.333 51.666 -46 90.999l-69 88l132 190c90 -90 135 -199.333 135 -328zM127 904.001l-113 114l113 112l112 -112zM127 680.001
l-113 114l113 112l112 -112z" />
    <glyph glyph-name="uniFB61" unicode="&#x67a;" horiz-adv-x="509" arabic-form="medial" 
d="M509 0h-19c-96 0.666992 -159.333 36 -190 106c-50 -70 -129.667 -105.333 -239 -106h-131v235h123c102.667 0 154 35.667 154 107v80l167 55v-50c0 -128 41.333 -192 124 -192h11v-235zM225 789l-113 114l113 112l112 -112zM225 565l-113 114l113 112l112 -112z" />
    <glyph glyph-name="uniFB63" unicode="&#x67f;" horiz-adv-x="1733" arabic-form="final" 
d="M1733 0h-39c-101.333 0.666992 -171 40.334 -209 119.001c-51.333 -68 -165.333 -117 -342 -147c-116.667 -20 -244.667 -30 -384 -30c-396 0 -594 116.333 -594 349c0 69.333 25.667 155 77 257l151 -47c-29.333 -64 -44 -109.667 -44 -137
c0 -56.667 21.667 -98.667 65 -126c64 -40 182.667 -60 356 -60h88c142.667 0 247.667 5 315 15c158.667 23.333 238 73 238 149v52l167 55v-48c0 -62.667 9.66699 -105.334 29 -128.001c21.333 -25.333 62.333 -38 123 -38h3v-235zM1002 765l-116 117l116 116l117 -116z
M761 765l-117 117l117 116l116 -116zM881 939l-116 116l116 117l117 -117zM886 597l-117 117l117 116l116 -116z" />
    <glyph glyph-name="uniFB64" unicode="&#x67f;" horiz-adv-x="436" arabic-form="initial" 
d="M388 328c0 -106.667 -33 -188.666 -99 -245.999c-62.667 -54 -148.667 -81.333 -258 -82h-101v235h201c70 0 105 17.333 105 52c0 21.333 -15.333 51.666 -46 90.999l-69 88l132 190c90 -90 135 -199.333 135 -328zM301 834.001l-116 117l116 116l117 -116zM60 834.001
l-117 117l117 116l116 -116zM180 1008l-116 116l116 117l117 -117zM185 666.001l-117 117l117 116l116 -116z" />
    <glyph glyph-name="uniFB65" unicode="&#x67f;" horiz-adv-x="509" arabic-form="medial" 
d="M509 0h-19c-96 0.666992 -159.333 36 -190 106c-50 -70 -129.667 -105.333 -239 -106h-131v235h123c102.667 0 154 35.667 154 107v80l167 55v-50c0 -128 41.333 -192 124 -192h11v-235zM409 722l-116 117l116 116l117 -116zM168 722l-117 117l117 116l116 -116zM288 896
l-116 116l116 117l117 -117zM293 554l-117 117l117 116l116 -116z" />
    <glyph glyph-name="uniFB67" unicode="&#x679;" horiz-adv-x="1733" arabic-form="final" 
d="M1733 0h-39c-101.333 0.666992 -171 40.334 -209 119.001c-51.333 -68 -165.333 -117 -342 -147c-116.667 -20 -244.667 -30 -384 -30c-396 0 -594 116.333 -594 349c0 69.333 25.667 155 77 257l151 -47c-29.333 -64 -44 -109.667 -44 -137
c0 -56.667 21.667 -98.667 65 -126c64 -40 182.667 -60 356 -60h88c142.667 0 247.667 5 315 15c158.667 23.333 238 73 238 149v52l167 55v-48c0 -62.667 9.66699 -105.334 29 -128.001c21.333 -25.333 62.333 -38 123 -38h3v-235zM1078 836
c0 -49.333 -22.667 -88.001 -68 -116.001c-39.333 -23.333 -87.666 -35 -144.999 -35h-56c-58.667 0 -98.334 15 -119.001 45l27 51c16 -8.66699 33.333 -13 52 -13c26 0 42.333 12.333 49 37c2 8.66699 3 32.334 3 71.001c0 56 -4.33301 125.333 -13 208l74 29v-241
c36.667 33.333 71.667 50 105 50c26 0 47.667 -7.66699 65 -23c17.333 -16 26 -37 26 -63zM1020 814.999c0 19.333 -16.333 28.999 -49 28.999c-21.333 0 -45 -10.667 -71 -32c-4 -3.33301 -20 -18.666 -48 -45.999h35c24.667 0 50 3.33301 76 10
c38 8.66699 57 21.667 57 39z" />
    <glyph glyph-name="uniFB68" unicode="&#x679;" horiz-adv-x="436" arabic-form="initial" 
d="M388 328c0 -106.667 -33 -188.666 -99 -245.999c-62.667 -54 -148.667 -81.333 -258 -82h-101v235h201c70 0 105 17.333 105 52c0 21.333 -15.333 51.666 -46 90.999l-69 88l132 190c90 -90 135 -199.333 135 -328zM394 944.001c0 -49.333 -22.667 -88.001 -68 -116.001
c-39.333 -23.333 -87.666 -35 -144.999 -35h-56c-58.667 0 -98.334 15 -119.001 45l27 51c16 -8.66699 33.333 -13 52 -13c26 0 42.333 12.333 49 37c2 8.66699 3 32.334 3 71.001c0 56 -4.33301 125.333 -13 208l74 29v-241c36.667 33.333 71.667 50 105 50
c26 0 47.667 -7.66699 65 -23c17.333 -16 26 -37 26 -63zM336 923c0 19.333 -16.333 28.999 -49 28.999c-21.333 0 -45 -10.667 -71 -32c-4 -3.33301 -20 -18.666 -48 -45.999h35c24.667 0 50 3.33301 76 10c38 8.66699 57 21.667 57 39z" />
    <glyph glyph-name="uniFB69" unicode="&#x679;" horiz-adv-x="509" arabic-form="medial" 
d="M509 0h-19c-96 0.666992 -159.333 36 -190 106c-50 -70 -129.667 -105.333 -239 -106h-131v235h123c102.667 0 154 35.667 154 107v80l167 55v-50c0 -128 41.333 -192 124 -192h11v-235zM478 796c0 -49.333 -22.667 -88.001 -68 -116.001
c-39.333 -23.333 -87.666 -35 -144.999 -35h-56c-58.667 0 -98.334 15 -119.001 45l27 51c16 -8.66699 33.333 -13 52 -13c26 0 42.333 12.333 49 37c2 8.66699 3 32.334 3 71.001c0 56 -4.33301 125.333 -13 208l74 29v-241c36.667 33.333 71.667 50 105 50
c26 0 47.667 -7.66699 65 -23c17.333 -16 26 -37 26 -63zM420 774.999c0 19.333 -16.333 28.999 -49 28.999c-21.333 0 -45 -10.667 -71 -32c-4 -3.33301 -20 -18.666 -48 -45.999h35c24.667 0 50 3.33301 76 10c38 8.66699 57 21.667 57 39z" />
    <glyph glyph-name="afii57371" unicode="&#x6a4;" horiz-adv-x="1766" arabic-form="final" 
d="M1766 0h-88.001c-44 0 -90.333 9.66699 -139 29c-57.333 18.667 -99.333 40 -126 64c-41.333 -32 -108.333 -61.667 -201 -89c-133.333 -39.333 -282.333 -59 -447 -59c-396 0 -594 116 -594 348c0 70 25.667 156 77 258l151 -47c-29.333 -64 -44 -109.667 -44 -137
c0 -56.667 21.667 -98.667 65 -126c64.667 -40.667 183.334 -61 356.001 -61h88c85.333 0 168 6.66699 248 20c67.333 11.333 110.333 23 129 35c-28 31.333 -42 79 -42 143c0 74.667 34.333 147.667 103 219c64.667 66.667 125 100 181 100c58 0 105 -31.667 141 -95
c30.667 -54 46 -112.333 46 -175c0 -82.667 -28.667 -146.667 -86 -192h182v-235zM1535 403c0 22 -9.66699 40.333 -29 55s-40 22 -62 22c-23.333 0 -47 -9.5 -71 -28.5s-36 -39.833 -36 -62.5c0 -17.333 10.667 -33.333 32 -48c19.333 -14 38 -21 56 -21
c20 0 43.333 9.16699 70 27.5s40 36.833 40 55.5zM1188 894l102 140l133 -89l77 104l156 -104l-106 -139l-133 88l-72 -104zM1267 1140l103 136l144 -97l-101 -137z" />
    <glyph glyph-name="afii57372" unicode="&#x6a4;" horiz-adv-x="622" arabic-form="initial" 
d="M571 359c0 -238.667 -146.667 -358.334 -440 -359.001h-201v235h319c114 0 171 39.333 171 118c-25.333 -29.333 -76 -44 -152 -44c-130 0 -195 61.333 -195 184c0 58.667 19.667 123.667 59 195c48 86.667 105.333 130 172 130c82 0 149.667 -58.667 203 -176
c42.667 -95.333 64 -189.666 64 -282.999zM373 526c-6.66699 22 -18 43.667 -34 65c-20 24.667 -40 37 -60 37c-14 0 -29.333 -8.66699 -46 -26s-25 -33.333 -25 -48c0 -48 25.667 -72 77 -72c46 0 75.333 14.667 88 44zM27 1009l102 140l133 -89l77 104l156 -104l-106 -139
l-133 88l-72 -104zM106 1255l103 136l144 -97l-101 -137z" />
    <glyph glyph-name="afii57369" unicode="&#x6a4;" horiz-adv-x="677" arabic-form="medial" 
d="M677 0l-69.002 0.000976562c-117.333 0.666992 -212.666 27.667 -285.999 81c-28.667 -20.667 -68.167 -39.334 -118.5 -56.001s-93.166 -25 -128.499 -25h-145v235h222c-26 30 -39 73 -39 129c0 76 33.667 149.333 101 220c63.333 66 123.333 99 180 99
c58 0 104.333 -31.667 139 -95c28 -52.667 42 -110.667 42 -174c0 -76 -26.667 -135.667 -80 -179h182v-235zM439.998 389.001c0 22 -8.66699 40.332 -26 54.999s-37 22 -59 22c-22.667 0 -45.667 -9.66699 -69 -29s-35 -40 -35 -62c0 -17.333 9.66699 -33.166 29 -47.499
s38 -21.5 56 -21.5c20 0 42.333 9 67 27s37 36.667 37 56zM98.998 872l102 140l133 -89l77 104l156 -104l-106 -139l-133 88l-72 -104zM177.998 1118l103 136l144 -97l-101 -137z" />
    <glyph glyph-name="uniFB6f" unicode="&#x6a6;" horiz-adv-x="1766" arabic-form="final" 
d="M1766 0h-88.001c-44 0 -90.333 9.66699 -139 29c-57.333 18.667 -99.333 40 -126 64c-41.333 -32 -108.333 -61.667 -201 -89c-133.333 -39.333 -282.333 -59 -447 -59c-396 0 -594 116 -594 348c0 70 25.667 156 77 258l151 -47c-29.333 -64 -44 -109.667 -44 -137
c0 -56.667 21.667 -98.667 65 -126c64.667 -40.667 183.334 -61 356.001 -61h88c85.333 0 168 6.66699 248 20c67.333 11.333 110.333 23 129 35c-28 31.333 -42 79 -42 143c0 74.667 34.333 147.667 103 219c64.667 66.667 125 100 181 100c58 0 105 -31.667 141 -95
c30.667 -54 46 -112.333 46 -175c0 -82.667 -28.667 -146.667 -86 -192h182v-235zM1535 403c0 22 -9.66699 40.333 -29 55s-40 22 -62 22c-23.333 0 -47 -9.5 -71 -28.5s-36 -39.833 -36 -62.5c0 -17.333 10.667 -33.333 32 -48c19.333 -14 38 -21 56 -21
c20 0 43.333 9.16699 70 27.5s40 36.833 40 55.5zM1531 968l-116 117l116 116l117 -116zM1290 968l-117 117l117 116l116 -116zM1410 1142l-116 116l116 117l117 -117zM1415 800l-117 117l117 116l116 -116z" />
    <glyph glyph-name="uniFB70" unicode="&#x6a6;" horiz-adv-x="622" arabic-form="initial" 
d="M571 359c0 -238.667 -146.667 -358.334 -440 -359.001h-201v235h319c114 0 171 39.333 171 118c-25.333 -29.333 -76 -44 -152 -44c-130 0 -195 61.333 -195 184c0 58.667 19.667 123.667 59 195c48 86.667 105.333 130 172 130c82 0 149.667 -58.667 203 -176
c42.667 -95.333 64 -189.666 64 -282.999zM373 526c-6.66699 22 -18 43.667 -34 65c-20 24.667 -40 37 -60 37c-14 0 -29.333 -8.66699 -46 -26s-25 -33.333 -25 -48c0 -48 25.667 -72 77 -72c46 0 75.333 14.667 88 44zM372 1087l-116 117l116 116l117 -116zM131 1087
l-117 117l117 116l116 -116zM251 1261l-116 116l116 117l117 -117zM256 919l-117 117l117 116l116 -116z" />
    <glyph glyph-name="uniFB71" unicode="&#x6a6;" horiz-adv-x="677" arabic-form="medial" 
d="M677 0l-69.002 0.000976562c-117.333 0.666992 -212.666 27.667 -285.999 81c-28.667 -20.667 -68.167 -39.334 -118.5 -56.001s-93.166 -25 -128.499 -25h-145v235h222c-26 30 -39 73 -39 129c0 76 33.667 149.333 101 220c63.333 66 123.333 99 180 99
c58 0 104.333 -31.667 139 -95c28 -52.667 42 -110.667 42 -174c0 -76 -26.667 -135.667 -80 -179h182v-235zM439.998 389.001c0 22 -8.66699 40.332 -26 54.999s-37 22 -59 22c-22.667 0 -45.667 -9.66699 -69 -29s-35 -40 -35 -62c0 -17.333 9.66699 -33.166 29 -47.499
s38 -21.5 56 -21.5c20 0 42.333 9 67 27s37 36.667 37 56zM484.998 950l-116 117l116 116l117 -116zM243.998 950l-117 117l117 116l116 -116zM363.998 1124l-116 116l116 117l117 -117zM368.998 782l-117 117l117 116l116 -116z" />
    <glyph glyph-name="uniFB73" unicode="&#x684;" horiz-adv-x="1318" arabic-form="final" 
d="M1318 1l-212.004 -0.000976562c-156.667 0 -233.667 107.333 -231 322c-131.333 -42 -245 -107.333 -341 -196c-102.667 -95.333 -154 -191.666 -154 -288.999c0 -229.333 171.333 -344 514 -344c125.333 0 233.333 15 324 45l64 -201
c-135.333 -51.333 -275.666 -77 -420.999 -77c-207.333 0 -369.666 39 -486.999 117c-139.333 92.667 -209 237 -209 433c0 124.667 54.333 243.667 163 357c86 90 194 165.333 324 226c-118 14.667 -191.333 22 -220 22c-31.333 0 -63.333 -26.333 -96 -79
c-66 27.333 -117.333 52 -154 74c63.333 157.333 137.333 236 222 236c64.667 0 163 -7.5 295 -22.5s231.333 -22.5 298 -22.5c72.667 0 138.334 3.33301 197.001 10l-28 -240c-54 0 -110.667 -5.33301 -170 -16c4.66699 -34 12.334 -58.667 23.001 -74
c22 -31.333 62 -47 120 -47h179v-234zM696.996 -161.001l-113 114l113 112l112 -112zM696.996 -385.001l-113 114l113 112l112 -112z" />
    <glyph glyph-name="uniFB74" unicode="&#x684;" horiz-adv-x="1081" arabic-form="initial" 
d="M1078 516l-27.001 -210c-84 0 -173 -26.333 -267 -79c-56.667 -34 -143 -83 -259 -147c-104 -52.667 -223 -79 -357 -79h-238v234h235c100 0 195.333 15.333 286 46c10 3.33301 83.667 30 221 80c-23.333 2.66699 -81.333 17.667 -174 45
c-85.333 25.333 -137.666 38 -156.999 38c-25.333 0 -46.666 -9 -63.999 -27l-37 -47c-60.667 24 -111.334 47.667 -152.001 71c60.667 146 134 219 220 219c56.667 0 163.5 -24.667 320.5 -74s279.167 -74 366.5 -74c28 0 55.667 1.33301 83 4zM640.999 -293l-113 114
l113 112l112 -112zM640.999 -517l-113 114l113 112l112 -112z" />
    <glyph glyph-name="uniFB75" unicode="&#x684;" horiz-adv-x="1208" arabic-form="medial" 
d="M1208 1h-198.002c-156.667 0 -236.667 97.333 -240 292c-40 -22 -100.333 -64.333 -181 -127c-70.667 -54.667 -130 -93 -178 -115c-72 -33.333 -151 -50 -237 -50h-244v234h213c100 0 191.333 21 274 63l205 110c-26 2.66699 -78.333 11 -157 25
c-71.333 12.667 -112.666 19 -123.999 19c-28.667 0 -60.667 -27.333 -96 -82c-63.333 26 -113.666 49.667 -150.999 71c64 159.333 137.333 239 220 239c71.333 0 182.666 -17.667 333.999 -53s266 -53 344 -53c39.333 0 76.333 2 111 6l-27 -227
c-65.333 0 -127.333 -9 -186 -27c6.66699 -28 16.334 -47.667 29.001 -59c24 -21.333 65.333 -32 124 -32h165v-234zM628.998 -316l-113 114l113 112l112 -112zM628.998 -540l-113 114l113 112l112 -112z" />
    <glyph glyph-name="uniFB77" unicode="&#x683;" horiz-adv-x="1318" arabic-form="final" 
d="M1318 1l-212.004 -0.000976562c-156.667 0 -233.667 107.333 -231 322c-131.333 -42 -245 -107.333 -341 -196c-102.667 -95.333 -154 -191.666 -154 -288.999c0 -229.333 171.333 -344 514 -344c125.333 0 233.333 15 324 45l64 -201
c-135.333 -51.333 -275.666 -77 -420.999 -77c-207.333 0 -369.666 39 -486.999 117c-139.333 92.667 -209 237 -209 433c0 124.667 54.333 243.667 163 357c86 90 194 165.333 324 226c-118 14.667 -191.333 22 -220 22c-31.333 0 -63.333 -26.333 -96 -79
c-66 27.333 -117.333 52 -154 74c63.333 157.333 137.333 236 222 236c64.667 0 163 -7.5 295 -22.5s231.333 -22.5 298 -22.5c72.667 0 138.334 3.33301 197.001 10l-28 -240c-54 0 -110.667 -5.33301 -170 -16c4.66699 -34 12.334 -58.667 23.001 -74
c22 -31.333 62 -47 120 -47h179v-234zM985.996 -191.001l-110 -149l-136 96l-80 -112l-172 117l110 149l144 -99l79 112z" />
    <glyph glyph-name="uniFB78" unicode="&#x683;" horiz-adv-x="1081" arabic-form="initial" 
d="M1078 516l-27.001 -210c-84 0 -173 -26.333 -267 -79c-56.667 -34 -143 -83 -259 -147c-104 -52.667 -223 -79 -357 -79h-238v234h235c100 0 195.333 15.333 286 46c10 3.33301 83.667 30 221 80c-23.333 2.66699 -81.333 17.667 -174 45
c-85.333 25.333 -137.666 38 -156.999 38c-25.333 0 -46.666 -9 -63.999 -27l-37 -47c-60.667 24 -111.334 47.667 -152.001 71c60.667 146 134 219 220 219c56.667 0 163.5 -24.667 320.5 -74s279.167 -74 366.5 -74c28 0 55.667 1.33301 83 4zM903.999 -220l-110 -149
l-136 96l-80 -112l-172 117l110 149l144 -99l79 112z" />
    <glyph glyph-name="uniFB79" unicode="&#x683;" horiz-adv-x="1208" arabic-form="medial" 
d="M1208 1h-198.002c-156.667 0 -236.667 97.333 -240 292c-40 -22 -100.333 -64.333 -181 -127c-70.667 -54.667 -130 -93 -178 -115c-72 -33.333 -151 -50 -237 -50h-244v234h213c100 0 191.333 21 274 63l205 110c-26 2.66699 -78.333 11 -157 25
c-71.333 12.667 -112.666 19 -123.999 19c-28.667 0 -60.667 -27.333 -96 -82c-63.333 26 -113.666 49.667 -150.999 71c64 159.333 137.333 239 220 239c71.333 0 182.666 -17.667 333.999 -53s266 -53 344 -53c39.333 0 76.333 2 111 6l-27 -227
c-65.333 0 -127.333 -9 -186 -27c6.66699 -28 16.334 -47.667 29.001 -59c24 -21.333 65.333 -32 124 -32h165v-234zM828.998 -229l-110 -149l-136 96l-80 -112l-172 117l110 149l144 -99l79 112z" />
    <glyph glyph-name="afii62961" unicode="&#x686;" horiz-adv-x="1318" arabic-form="final" 
d="M1318 1l-212.004 -0.000976562c-156.667 0 -233.667 107.333 -231 322c-131.333 -42 -245 -107.333 -341 -196c-102.667 -95.333 -154 -191.666 -154 -288.999c0 -229.333 171.333 -344 514 -344c125.333 0 233.333 15 324 45l64 -201
c-135.333 -51.333 -275.666 -77 -420.999 -77c-207.333 0 -369.666 39 -486.999 117c-139.333 92.667 -209 237 -209 433c0 124.667 54.333 243.667 163 357c86 90 194 165.333 324 226c-118 14.667 -191.333 22 -220 22c-31.333 0 -63.333 -26.333 -96 -79
c-66 27.333 -117.333 52 -154 74c63.333 157.333 137.333 236 222 236c64.667 0 163 -7.5 295 -22.5s231.333 -22.5 298 -22.5c72.667 0 138.334 3.33301 197.001 10l-28 -240c-54 0 -110.667 -5.33301 -170 -16c4.66699 -34 12.334 -58.667 23.001 -74
c22 -31.333 62 -47 120 -47h179v-234zM931.996 -58.001l-102 -140l-133 89l-77 -104l-157 104l107 139l133 -88l72 105zM857.996 -303.001l-103 -137l-144 98l101 136z" />
    <glyph glyph-name="afii62959" unicode="&#x686;" horiz-adv-x="1081" arabic-form="initial" 
d="M1078 516l-27.001 -210c-84 0 -173 -26.333 -267 -79c-56.667 -34 -143 -83 -259 -147c-104 -52.667 -223 -79 -357 -79h-238v234h235c100 0 195.333 15.333 286 46c10 3.33301 83.667 30 221 80c-23.333 2.66699 -81.333 17.667 -174 45
c-85.333 25.333 -137.666 38 -156.999 38c-25.333 0 -46.666 -9 -63.999 -27l-37 -47c-60.667 24 -111.334 47.667 -152.001 71c60.667 146 134 219 220 219c56.667 0 163.5 -24.667 320.5 -74s279.167 -74 366.5 -74c28 0 55.667 1.33301 83 4zM856.999 -211l-102 -140
l-133 89l-77 -104l-157 104l107 139l133 -88l72 105zM782.999 -456l-103 -137l-144 98l101 136z" />
    <glyph glyph-name="afii62960" unicode="&#x686;" horiz-adv-x="1208" arabic-form="medial" 
d="M1208 1h-198.002c-156.667 0 -236.667 97.333 -240 292c-40 -22 -100.333 -64.333 -181 -127c-70.667 -54.667 -130 -93 -178 -115c-72 -33.333 -151 -50 -237 -50h-244v234h213c100 0 191.333 21 274 63l205 110c-26 2.66699 -78.333 11 -157 25
c-71.333 12.667 -112.666 19 -123.999 19c-28.667 0 -60.667 -27.333 -96 -82c-63.333 26 -113.666 49.667 -150.999 71c64 159.333 137.333 239 220 239c71.333 0 182.666 -17.667 333.999 -53s266 -53 344 -53c39.333 0 76.333 2 111 6l-27 -227
c-65.333 0 -127.333 -9 -186 -27c6.66699 -28 16.334 -47.667 29.001 -59c24 -21.333 65.333 -32 124 -32h165v-234zM823.998 -234l-102 -140l-133 89l-77 -104l-157 104l107 139l133 -88l72 105zM749.998 -479l-103 -137l-144 98l101 136z" />
    <glyph glyph-name="uniFB7F" unicode="&#x687;" horiz-adv-x="1318" arabic-form="final" 
d="M1318 1l-212.004 -0.000976562c-156.667 0 -233.667 107.333 -231 322c-131.333 -42 -245 -107.333 -341 -196c-102.667 -95.333 -154 -191.666 -154 -288.999c0 -229.333 171.333 -344 514 -344c125.333 0 233.333 15 324 45l64 -201
c-135.333 -51.333 -275.666 -77 -420.999 -77c-207.333 0 -369.666 39 -486.999 117c-139.333 92.667 -209 237 -209 433c0 124.667 54.333 243.667 163 357c86 90 194 165.333 324 226c-118 14.667 -191.333 22 -220 22c-31.333 0 -63.333 -26.333 -96 -79
c-66 27.333 -117.333 52 -154 74c63.333 157.333 137.333 236 222 236c64.667 0 163 -7.5 295 -22.5s231.333 -22.5 298 -22.5c72.667 0 138.334 3.33301 197.001 10l-28 -240c-54 0 -110.667 -5.33301 -170 -16c4.66699 -34 12.334 -58.667 23.001 -74
c22 -31.333 62 -47 120 -47h179v-234zM832.996 -247.001l-116 117l116 116l117 -116zM591.996 -247.001l-117 117l117 116l116 -116zM711.996 -73.001l-116 116l116 117l117 -117zM716.996 -415.001l-117 117l117 116l116 -116z" />
    <glyph glyph-name="uniFB80" unicode="&#x687;" horiz-adv-x="1081" arabic-form="initial" 
d="M1078 516l-27.001 -210c-84 0 -173 -26.333 -267 -79c-56.667 -34 -143 -83 -259 -147c-104 -52.667 -223 -79 -357 -79h-238v234h235c100 0 195.333 15.333 286 46c10 3.33301 83.667 30 221 80c-23.333 2.66699 -81.333 17.667 -174 45
c-85.333 25.333 -137.666 38 -156.999 38c-25.333 0 -46.666 -9 -63.999 -27l-37 -47c-60.667 24 -111.334 47.667 -152.001 71c60.667 146 134 219 220 219c56.667 0 163.5 -24.667 320.5 -74s279.167 -74 366.5 -74c28 0 55.667 1.33301 83 4zM791.999 -430l-116 117
l116 116l117 -116zM550.999 -430l-117 117l117 116l116 -116zM670.999 -256l-116 116l116 117l117 -117zM675.999 -598l-117 117l117 116l116 -116z" />
    <glyph glyph-name="uniFB81" unicode="&#x687;" horiz-adv-x="1208" arabic-form="medial" 
d="M1208 1h-198.002c-156.667 0 -236.667 97.333 -240 292c-40 -22 -100.333 -64.333 -181 -127c-70.667 -54.667 -130 -93 -178 -115c-72 -33.333 -151 -50 -237 -50h-244v234h213c100 0 191.333 21 274 63l205 110c-26 2.66699 -78.333 11 -157 25
c-71.333 12.667 -112.666 19 -123.999 19c-28.667 0 -60.667 -27.333 -96 -82c-63.333 26 -113.666 49.667 -150.999 71c64 159.333 137.333 239 220 239c71.333 0 182.666 -17.667 333.999 -53s266 -53 344 -53c39.333 0 76.333 2 111 6l-27 -227
c-65.333 0 -127.333 -9 -186 -27c6.66699 -28 16.334 -47.667 29.001 -59c24 -21.333 65.333 -32 124 -32h165v-234zM755.998 -483l-116 117l116 116l117 -116zM514.998 -483l-117 117l117 116l116 -116zM634.998 -309l-116 116l116 117l117 -117zM639.998 -651l-117 117
l117 116l116 -116z" />
    <glyph glyph-name="uniFB83" unicode="&#x68d;" horiz-adv-x="1108" arabic-form="final" 
d="M1108 1h-41c-134.667 0 -229.667 54.333 -285 163c-54.667 -127.333 -164.334 -191 -329.001 -191c-131.333 0 -227.666 36.333 -288.999 109l71 188c55.333 -42 135.333 -63 240 -63c158 0 237 35.333 237 106c0 12 -2.33301 24.667 -7 38l-137 390l163 148l135 -434
c22.667 -72.667 43.667 -122.667 63 -150c32 -46.667 77 -70 135 -70h44v-234zM742 -268l-110 -149l-136 96l-80 -112l-172 117l110 149l144 -99l79 112z" />
    <glyph glyph-name="uniFB85" unicode="&#x68c;" horiz-adv-x="1108" arabic-form="final" 
d="M1108 1h-41c-134.667 0 -229.667 54.333 -285 163c-54.667 -127.333 -164.334 -191 -329.001 -191c-131.333 0 -227.666 36.333 -288.999 109l71 188c55.333 -42 135.333 -63 240 -63c158 0 237 35.333 237 106c0 12 -2.33301 24.667 -7 38l-137 390l163 148l135 -434
c22.667 -72.667 43.667 -122.667 63 -150c32 -46.667 77 -70 135 -70h44v-234zM791 1131l-110 -149l-136 96l-80 -112l-172 117l110 149l144 -99l79 112z" />
    <glyph glyph-name="uniFB87" unicode="&#x68e;" horiz-adv-x="1108" arabic-form="final" 
d="M1108 1h-41c-134.667 0 -229.667 54.333 -285 163c-54.667 -127.333 -164.334 -191 -329.001 -191c-131.333 0 -227.666 36.333 -288.999 109l71 188c55.333 -42 135.333 -63 240 -63c158 0 237 35.333 237 106c0 12 -2.33301 24.667 -7 38l-137 390l163 148l135 -434
c22.667 -72.667 43.667 -122.667 63 -150c32 -46.667 77 -70 135 -70h44v-234zM323 1068l102 140l133 -89l77 104l156 -104l-106 -139l-133 88l-72 -104zM402 1314l103 136l144 -97l-101 -137z" />
    <glyph glyph-name="uniFB89" unicode="&#x688;" horiz-adv-x="1108" arabic-form="final" 
d="M1108 1h-41c-134.667 0 -229.667 54.333 -285 163c-54.667 -127.333 -164.334 -191 -329.001 -191c-131.333 0 -227.666 36.333 -288.999 109l71 188c55.333 -42 135.333 -63 240 -63c158 0 237 35.333 237 106c0 12 -2.33301 24.667 -7 38l-137 390l163 148l135 -434
c22.667 -72.667 43.667 -122.667 63 -150c32 -46.667 77 -70 135 -70h44v-234zM757 1127c0 -49.333 -22.667 -88.001 -68 -116.001c-39.333 -23.333 -87.666 -35 -144.999 -35h-56c-58.667 0 -98.334 15 -119.001 45l27 51c16 -8.66699 33.333 -13 52 -13
c26 0 42.333 12.333 49 37c2 8.66699 3 32.334 3 71.001c0 56 -4.33301 125.333 -13 208l74 29v-241c36.667 33.333 71.667 50 105 50c26 0 47.667 -7.66699 65 -23c17.333 -16 26 -37 26 -63zM699 1106c0 19.333 -16.333 28.999 -49 28.999c-21.333 0 -45 -10.667 -71 -32
c-4 -3.33301 -20 -18.666 -48 -45.999h35c24.667 0 50 3.33301 76 10c38 8.66699 57 21.667 57 39z" />
    <glyph glyph-name="afii62962" unicode="&#x698;" horiz-adv-x="834" arabic-form="final" 
d="M834 0h-35.999c-52.667 0.666992 -91 14 -115 40c-10 -118 -70 -228.667 -180 -332c-92 -86 -202 -154 -330 -204l-170 117c100 42.667 202.667 101.667 308 177c142 101.333 213 187.333 213 258c0 39.333 -36 108 -108 206l159 171c48 -79.333 85.333 -131 112 -155
c31.333 -28.667 71.666 -43 120.999 -43h26v-235zM184.001 628l102 140l133 -89l77 104l156 -104l-106 -139l-133 88l-72 -104zM263.001 874l103 136l144 -97l-101 -137z" />
    <glyph glyph-name="uniFB8D" unicode="&#x691;" horiz-adv-x="834" arabic-form="final" 
d="M834 0h-35.999c-52.667 0.666992 -91 14 -115 40c-10 -118 -70 -228.667 -180 -332c-92 -86 -202 -154 -330 -204l-170 117c100 42.667 202.667 101.667 308 177c142 101.333 213 187.333 213 258c0 39.333 -36 108 -108 206l159 171c48 -79.333 85.333 -131 112 -155
c31.333 -28.667 71.666 -43 120.999 -43h26v-235zM622.001 690c0 -49.333 -22.667 -88.001 -68 -116.001c-39.333 -23.333 -87.666 -35 -144.999 -35h-56c-58.667 0 -98.334 15 -119.001 45l27 51c16 -8.66699 33.333 -13 52 -13c26 0 42.333 12.333 49 37
c2 8.66699 3 32.334 3 71.001c0 56 -4.33301 125.333 -13 208l74 29v-241c36.667 33.333 71.667 50 105 50c26 0 47.667 -7.66699 65 -23c17.333 -16 26 -37 26 -63zM564.001 668.999c0 19.333 -16.333 28.999 -49 28.999c-21.333 0 -45 -10.667 -71 -32
c-4 -3.33301 -20 -18.666 -48 -45.999h35c24.667 0 50 3.33301 76 10c38 8.66699 57 21.667 57 39z" />
    <glyph glyph-name="afii62964" unicode="&#x6a9;" horiz-adv-x="1969" arabic-form="final" 
d="M1969 0h-95.999c-82.667 0.666992 -166.667 30 -252 88c-73.333 50 -137 113.667 -191 191c0 -222.667 -238 -334 -714 -334c-396.667 0 -595 116 -595 348c0 70 25.667 156 77 258l151 -47c-29.333 -64 -44 -109.667 -44 -137c0 -56.667 21.667 -98.667 65 -126
c64.667 -40.667 183.334 -61 356.001 -61h41c107.333 0 207.666 8.66699 300.999 26c155.333 28 233 74.333 233 139c0 42.667 -44 103.667 -132 183c-98.667 89.333 -154.667 150.333 -168 183c2 36 8.66699 76 20 120c13.333 52.667 27.666 83 42.999 91
c171.333 90 472 202 902 336l-27 -228l-273 -74c-203.333 -58 -360 -109.667 -470 -155c-24 -10 -27.333 -21.667 -10 -35c108 -84.667 219.667 -183 335 -295c92 -88.667 153.333 -144 184 -166c66 -46.667 136.667 -70 212 -70h52v-235z" />
    <glyph glyph-name="afii52305" unicode="&#x6a9;" horiz-adv-x="966" arabic-form="initial" 
d="M982 1280l-30.001 -239c-87.333 -20 -181.333 -43.333 -282 -70c-202 -53.333 -338 -95.666 -408 -126.999c-23.333 -10.667 -27.333 -21.334 -12 -32.001l126 -89c68.667 -50 125 -102.333 169 -157c56.667 -70 85 -137.333 85 -202c0 -146.667 -52 -247.667 -156 -303
c-75.333 -40.667 -195.666 -61 -360.999 -61h-183v235h189c227.333 0 341 28.333 341 85c0 52.667 -60.667 126.667 -182 222c-134 105.333 -208.333 174.333 -223 207c1.33301 32.667 9.66602 74.667 24.999 126c16.667 54.667 32.334 86 47.001 94
c174 91.333 459 195 855 311z" />
    <glyph glyph-name="afii52306" unicode="&#x6a9;" horiz-adv-x="1065" arabic-form="medial" 
d="M1065 0l-83.999 -0.00195312c-80 0.666992 -161.667 28 -245 82c-72.667 47.333 -135.334 107.333 -188.001 180c-23.333 -174 -180 -261.333 -470 -262h-148v235h142c101.333 0 169.333 2.33301 204 7c96.667 12.667 145 42.334 145 89.001c0 43.333 -48 107 -144 191
c-105.333 92 -164.666 155 -177.999 189c2 36 8.66699 76 20 120c13.333 52.667 28 83 44 91c172 90 472.667 202 902 336l-28 -234c-106 -26 -197.333 -49.667 -274 -71c-202.667 -56 -359 -106.667 -469 -152c-24 -10 -27.333 -21.667 -10 -35
c110 -83.333 221.667 -181.666 335 -294.999c91.333 -91.333 153.666 -148.333 186.999 -171c63.333 -43.333 133 -65 209 -65h50v-235z" />
    <glyph glyph-name="afii62967" unicode="&#x6af;" horiz-adv-x="2013" arabic-form="final" 
d="M2024 1442l-13.999 -114l-363 -112c-259.333 -82.667 -434.333 -145 -525 -187l28 113c107.333 54 398.666 154 873.999 300zM2013 0l-96.0029 -0.00292969c-79.333 0.666992 -162.333 31 -249 91c-72 50 -136.667 112.667 -194 188
c0 -117.333 -73.667 -204.666 -221 -261.999c-122.667 -48 -287 -72 -493 -72c-396.667 0 -595 116 -595 348c0 70 25.667 156 77 258l151 -47c-29.333 -64 -44 -109.667 -44 -137c0 -56.667 21.667 -98.667 65 -126c64.667 -40.667 183.334 -61 356.001 -61h41
c107.333 0 207.666 8.66699 300.999 26c155.333 28 233 74.333 233 139c0 44.667 -44 106.334 -132 185.001c-98.667 88 -154.667 148.333 -168 181c2 36.667 8.33301 74.667 19 114c12.667 47.333 27.334 75.333 44.001 84c174.667 91.333 475.334 203 902.001 335
l-27 -214l-273 -74c-200 -57.333 -356.667 -109 -470 -155c-15.333 -6 -23 -12.333 -23 -19c0 -4.66699 4.33301 -10 13 -16c94.667 -67.333 206.334 -165.666 335.001 -294.999c91.333 -92 154.666 -150 189.999 -174c60.667 -41.333 129.334 -62 206.001 -62h52v-235z" />
    <glyph glyph-name="afii62965" unicode="&#x6af;" horiz-adv-x="987" arabic-form="initial" 
d="M996 1483l-13.999 -116l-338 -108c-240.667 -80 -408.334 -141.667 -503.001 -185l27 110c122.667 57.333 398.667 157 828 299zM982.001 1266l-29.999 -225.001l-351 -86c-136 -36 -249 -74.333 -339 -115c-24.667 -11.333 -28.667 -22.333 -12 -33
c253.333 -164 380 -311.667 380 -443c0 -142 -47 -241 -141 -297c-74 -44 -188.333 -66.333 -343 -67h-216v235h224c97.333 0 166.666 4 207.999 12c65.333 12.667 98 37 98 73c0 48.667 -60.667 121.334 -182 218.001c-134.667 107.333 -209 177.666 -223 210.999
c1.33301 28 8.66602 65 21.999 111c16.667 54.667 33.334 86.334 50.001 95.001c174 91.333 459 195 855 311z" />
    <glyph glyph-name="afii62966" unicode="&#x6af;" horiz-adv-x="1065" arabic-form="medial" 
d="M1078 1442l-13 -114.001l-363 -112c-261.333 -83.333 -436.666 -145.666 -525.999 -186.999l28 113c107.333 54 398.666 154 873.999 300zM1065 -0.000976562h-94c-77.333 0.666992 -158.333 31.334 -243 92.001c-74.667 53.333 -135.667 116.333 -183 189
c0 -110 -46.333 -187 -139 -231c-68.667 -32.667 -171.667 -49.334 -309 -50.001h-167v235h170c100.667 0 162.667 1.66699 186 5c86.667 13.333 130 46.333 130 99c0 41.333 -47 103 -141 185c-103.333 90 -162 152.333 -176 187c2 33.333 8.66699 71 20 113
c13.333 48 28 76.333 44 85c173.333 90.667 474 202.334 902 335.001l-28 -214l-274 -74c-200 -57.333 -356.333 -109 -469 -155c-24.667 -10 -28 -21.667 -10 -35c83.333 -62 195 -160.333 335 -295c106.667 -102.667 167.334 -159.334 182.001 -170.001
c61.333 -44 132.666 -66 213.999 -66h50v-235z" />
    <glyph glyph-name="uniFB97" unicode="&#x6b3;" horiz-adv-x="2013" arabic-form="final" 
d="M2024 1442l-13.999 -114l-363 -112c-259.333 -82.667 -434.333 -145 -525 -187l28 113c107.333 54 398.666 154 873.999 300zM2013 0l-96.0029 -0.00292969c-79.333 0.666992 -162.333 31 -249 91c-72 50 -136.667 112.667 -194 188
c0 -117.333 -73.667 -204.666 -221 -261.999c-122.667 -48 -287 -72 -493 -72c-396.667 0 -595 116 -595 348c0 70 25.667 156 77 258l151 -47c-29.333 -64 -44 -109.667 -44 -137c0 -56.667 21.667 -98.667 65 -126c64.667 -40.667 183.334 -61 356.001 -61h41
c107.333 0 207.666 8.66699 300.999 26c155.333 28 233 74.333 233 139c0 44.667 -44 106.334 -132 185.001c-98.667 88 -154.667 148.333 -168 181c2 36.667 8.33301 74.667 19 114c12.667 47.333 27.334 75.333 44.001 84c174.667 91.333 475.334 203 902.001 335
l-27 -214l-273 -74c-200 -57.333 -356.667 -109 -470 -155c-15.333 -6 -23 -12.333 -23 -19c0 -4.66699 4.33301 -10 13 -16c94.667 -67.333 206.334 -165.666 335.001 -294.999c91.333 -92 154.666 -150 189.999 -174c60.667 -41.333 129.334 -62 206.001 -62h52v-235z
M831.998 -388.003l-113 114l113 112l112 -112zM831.998 -612.003l-113 114l113 112l112 -112z" />
    <glyph glyph-name="uniFB98" unicode="&#x6b3;" horiz-adv-x="987" arabic-form="initial" 
d="M996 1483l-13.999 -116l-338 -108c-240.667 -80 -408.334 -141.667 -503.001 -185l27 110c122.667 57.333 398.667 157 828 299zM982.001 1266l-29.999 -225.001l-351 -86c-136 -36 -249 -74.333 -339 -115c-24.667 -11.333 -28.667 -22.333 -12 -33
c253.333 -164 380 -311.667 380 -443c0 -142 -47 -241 -141 -297c-74 -44 -188.333 -66.333 -343 -67h-216v235h224c97.333 0 166.666 4 207.999 12c65.333 12.667 98 37 98 73c0 48.667 -60.667 121.334 -182 218.001c-134.667 107.333 -209 177.666 -223 210.999
c1.33301 28 8.66602 65 21.999 111c16.667 54.667 33.334 86.334 50.001 95.001c174 91.333 459 195 855 311zM552.002 -327.001l-113 114l113 112l112 -112zM552.002 -551.001l-113 114l113 112l112 -112z" />
    <glyph glyph-name="uniFB99" unicode="&#x6b3;" horiz-adv-x="1065" arabic-form="medial" 
d="M1078 1442l-13 -114.001l-363 -112c-261.333 -83.333 -436.666 -145.666 -525.999 -186.999l28 113c107.333 54 398.666 154 873.999 300zM1065 -0.000976562h-94c-77.333 0.666992 -158.333 31.334 -243 92.001c-74.667 53.333 -135.667 116.333 -183 189
c0 -110 -46.333 -187 -139 -231c-68.667 -32.667 -171.667 -49.334 -309 -50.001h-167v235h170c100.667 0 162.667 1.66699 186 5c86.667 13.333 130 46.333 130 99c0 41.333 -47 103 -141 185c-103.333 90 -162 152.333 -176 187c2 33.333 8.66699 71 20 113
c13.333 48 28 76.333 44 85c173.333 90.667 474 202.334 902 335.001l-28 -214l-274 -74c-200 -57.333 -356.333 -109 -469 -155c-24.667 -10 -28 -21.667 -10 -35c83.333 -62 195 -160.333 335 -295c106.667 -102.667 167.334 -159.334 182.001 -170.001
c61.333 -44 132.666 -66 213.999 -66h50v-235zM539 -330.001l-113 114l113 112l112 -112zM539 -554.001l-113 114l113 112l112 -112z" />
    <glyph glyph-name="uniFB9B" unicode="&#x6b1;" horiz-adv-x="2013" arabic-form="final" 
d="M2024 1442l-13.999 -114l-363 -112c-259.333 -82.667 -434.333 -145 -525 -187l28 113c107.333 54 398.666 154 873.999 300zM2013 0l-96.0029 -0.00292969c-79.333 0.666992 -162.333 31 -249 91c-72 50 -136.667 112.667 -194 188
c0 -117.333 -73.667 -204.666 -221 -261.999c-122.667 -48 -287 -72 -493 -72c-396.667 0 -595 116 -595 348c0 70 25.667 156 77 258l151 -47c-29.333 -64 -44 -109.667 -44 -137c0 -56.667 21.667 -98.667 65 -126c64.667 -40.667 183.334 -61 356.001 -61h41
c107.333 0 207.666 8.66699 300.999 26c155.333 28 233 74.333 233 139c0 44.667 -44 106.334 -132 185.001c-98.667 88 -154.667 148.333 -168 181c2 36.667 8.33301 74.667 19 114c12.667 47.333 27.334 75.333 44.001 84c174.667 91.333 475.334 203 902.001 335
l-27 -214l-273 -74c-200 -57.333 -356.667 -109 -470 -155c-15.333 -6 -23 -12.333 -23 -19c0 -4.66699 4.33301 -10 13 -16c94.667 -67.333 206.334 -165.666 335.001 -294.999c91.333 -92 154.666 -150 189.999 -174c60.667 -41.333 129.334 -62 206.001 -62h52v-235z
M1705 1536l-110 -149l-136 96l-80 -112l-172 117l110 149l144 -99l79 112z" />
    <glyph glyph-name="uniFB9C" unicode="&#x6b1;" horiz-adv-x="987" arabic-form="initial" 
d="M996 1483l-13.999 -116l-338 -108c-240.667 -80 -408.334 -141.667 -503.001 -185l27 110c122.667 57.333 398.667 157 828 299zM982.001 1266l-29.999 -225.001l-351 -86c-136 -36 -249 -74.333 -339 -115c-24.667 -11.333 -28.667 -22.333 -12 -33
c253.333 -164 380 -311.667 380 -443c0 -142 -47 -241 -141 -297c-74 -44 -188.333 -66.333 -343 -67h-216v235h224c97.333 0 166.666 4 207.999 12c65.333 12.667 98 37 98 73c0 48.667 -60.667 121.334 -182 218.001c-134.667 107.333 -209 177.666 -223 210.999
c1.33301 28 8.66602 65 21.999 111c16.667 54.667 33.334 86.334 50.001 95.001c174 91.333 459 195 855 311zM681.002 1570l-110 -149l-136 96l-80 -112l-172 117l110 149l144 -99l79 112z" />
    <glyph glyph-name="uniFB9D" unicode="&#x6b1;" horiz-adv-x="1065" arabic-form="medial" 
d="M1078 1442l-13 -114.001l-363 -112c-261.333 -83.333 -436.666 -145.666 -525.999 -186.999l28 113c107.333 54 398.666 154 873.999 300zM1065 -0.000976562h-94c-77.333 0.666992 -158.333 31.334 -243 92.001c-74.667 53.333 -135.667 116.333 -183 189
c0 -110 -46.333 -187 -139 -231c-68.667 -32.667 -171.667 -49.334 -309 -50.001h-167v235h170c100.667 0 162.667 1.66699 186 5c86.667 13.333 130 46.333 130 99c0 41.333 -47 103 -141 185c-103.333 90 -162 152.333 -176 187c2 33.333 8.66699 71 20 113
c13.333 48 28 76.333 44 85c173.333 90.667 474 202.334 902 335.001l-28 -214l-274 -74c-200 -57.333 -356.333 -109 -469 -155c-24.667 -10 -28 -21.667 -10 -35c83.333 -62 195 -160.333 335 -295c106.667 -102.667 167.334 -159.334 182.001 -170.001
c61.333 -44 132.666 -66 213.999 -66h50v-235zM718 1534l-110 -149l-136 96l-80 -112l-172 117l110 149l144 -99l79 112z" />
    <glyph glyph-name="uniFB9F" unicode="&#x6ba;" horiz-adv-x="1293" arabic-form="final" 
d="M1293 1h-25.001c-70 0 -115 13.667 -135 41c0 -161.333 -49.667 -295 -149 -401c-101.333 -108.667 -232.333 -163 -393 -163c-161.333 0 -282 50.667 -362 152c-64.667 81.333 -97 185.666 -97 312.999c0 102 27.667 208.333 83 319l156 -55
c-36.667 -94.667 -55 -168 -55 -220c0 -89.333 27 -158 81 -206c52 -46 123.333 -69 214 -69c96.667 0 176.667 27 240 81c67.333 56.667 101 132.334 101 227.001c0 91.333 -33 181.333 -99 270l176 165c38 -76 63 -122.333 75 -139c38.667 -54 83.334 -81 134.001 -81h55
v-234z" />
    <glyph glyph-name="uniFBA1" unicode="&#x6bb;" horiz-adv-x="1293" arabic-form="final" 
d="M1293 1h-25.001c-70 0 -115 13.667 -135 41c0 -161.333 -49.667 -295 -149 -401c-101.333 -108.667 -232.333 -163 -393 -163c-161.333 0 -282 50.667 -362 152c-64.667 81.333 -97 185.666 -97 312.999c0 102 27.667 208.333 83 319l156 -55
c-36.667 -94.667 -55 -168 -55 -220c0 -89.333 27 -158 81 -206c52 -46 123.333 -69 214 -69c96.667 0 176.667 27 240 81c67.333 56.667 101 132.334 101 227.001c0 91.333 -33 181.333 -99 270l176 165c38 -76 63 -122.333 75 -139c38.667 -54 83.334 -81 134.001 -81h55
v-234zM782.999 649c0 -49.333 -22.667 -88.001 -68 -116.001c-39.333 -23.333 -87.666 -35 -144.999 -35h-56c-58.667 0 -98.334 15 -119.001 45l27 51c16 -8.66699 33.333 -13 52 -13c26 0 42.333 12.333 49 37c2 8.66699 3 32.334 3 71.001c0 56 -4.33301 125.333 -13 208
l74 29v-241c36.667 33.333 71.667 50 105 50c26 0 47.667 -7.66699 65 -23c17.333 -16 26 -37 26 -63zM724.999 627.999c0 19.333 -16.333 28.999 -49 28.999c-21.333 0 -45 -10.667 -71 -32c-4 -3.33301 -20 -18.666 -48 -45.999h35c24.667 0 50 3.33301 76 10
c38 8.66699 57 21.667 57 39z" />
    <glyph glyph-name="uniFBA4" unicode="&#x6c0;" horiz-adv-x="771" arabic-form="isolated" 
d="M710 284c0 -88 -27.333 -160.001 -82 -216.001s-125.667 -84 -213 -84c-74.667 0 -133.667 17 -177 51c-48.667 37.333 -73 92 -73 164c0 81.333 38.667 183 116 305l-44 20l110 189c100 -35.333 183.333 -88.666 250 -159.999c75.333 -81.333 113 -171 113 -269z
M553 270.999c0 62 -51 117.667 -153 167c-50 -66 -75 -117.333 -75 -154c0 -54.667 32 -82 96 -82c27.333 0 54.333 5 81 15c34 13.333 51 31.333 51 54zM607 919.999l-417.001 -122.001l5 66l99 53c-34.667 34 -52 68.333 -52 103c0 40.667 16.667 77.667 50 111
s70.333 50 111 50c53.333 0 95 -14.333 125 -43l-25 -64c-26 10.667 -60.333 16 -103 16c-17.333 0 -35.333 -4.66699 -54 -14c-22 -11.333 -33 -24.666 -33 -39.999c0 -46.667 41 -70 123 -70c10.667 0 66.334 15.333 167.001 46z" />
    <glyph glyph-name="uniFBA5" unicode="&#x6c0;" horiz-adv-x="892" arabic-form="final" 
d="M892 0c-13.333 0 -46.665 0.332031 -99.998 0.999023c-75.333 0.666992 -131.333 20.667 -168 60c-24.667 26.667 -45.334 71.667 -62.001 135c-48.667 -47.333 -128.667 -71 -240 -71c-54.667 0 -99.667 12.667 -135 38c-40 28 -60 68.333 -60 121
c0 136 110.667 270 332 402l-19 88l149 154l110 -545c13.333 -65.333 32 -107.666 56 -126.999c17.333 -14 50.666 -21 99.999 -21h37v-235zM526.001 366.999l-34 154c-34 -10 -69.667 -28.333 -107 -55c-47.333 -34 -71 -66 -71 -96c0 -19.333 29.333 -29 88 -29
c64 0 105.333 8.66699 124 26zM533.001 1032l-417.001 -122.001l5 66l99 53c-34.667 34 -52 68.333 -52 103c0 40.667 16.667 77.667 50 111s70.333 50 111 50c53.333 0 95 -14.333 125 -43l-25 -64c-26 10.667 -60.333 16 -103 16c-17.333 0 -35.333 -4.66699 -54 -14
c-22 -11.333 -33 -24.666 -33 -39.999c0 -46.667 41 -70 123 -70c10.667 0 66.334 15.333 167.001 46z" />
    <glyph glyph-name="uniFBA6" unicode="&#x6c1;" horiz-adv-x="771" arabic-form="isolated" 
d="M710 284c0 -88 -27.333 -160.001 -82 -216.001s-125.667 -84 -213 -84c-74.667 0 -133.667 17 -177 51c-48.667 37.333 -73 92 -73 164c0 81.333 38.667 183 116 305l-44 20l110 189c100 -35.333 183.333 -88.666 250 -159.999c75.333 -81.333 113 -171 113 -269z
M553 270.999c0 62 -51 117.667 -153 167c-50 -66 -75 -117.333 -75 -154c0 -54.667 32 -82 96 -82c27.333 0 54.333 5 81 15c34 13.333 51 31.333 51 54z" />
    <glyph glyph-name="uniFBA8" unicode="&#x6c1;" horiz-adv-x="436" arabic-form="initial" 
d="M334 -392c0 -12 -3.16992 -24.167 -9.50293 -36.5s-15 -23.5 -26 -33.5s-24.667 -18.333 -41 -25s-34.166 -10 -53.499 -10c-11.333 0 -24 2.5 -38 7.5s-27.333 13.167 -40 24.5s-23.5 26.166 -32.5 44.499s-13.5 40.5 -13.5 66.5c0 12.667 1.16699 26.334 3.5 41.001
s7.33301 31.5 15 50.5s18.334 40.333 32.001 64s31.834 50.834 54.501 81.501c13.333 16.667 24 28.834 32 36.501s15 11.5 21 11.5c12.667 0 19 -7 19 -21c0 -4.66699 -5 -15 -15 -31l-33 -55c-12 -20.667 -23.167 -41.834 -33.5 -63.501s-15.5 -39.834 -15.5 -54.501
c0 -32.667 14.667 -49 44 -49c10.667 0 19 2.33301 25 7s10.333 13 13 25c59.333 1.33301 90 -25.667 92 -81zM387.997 328c0 -106.667 -33 -188.666 -99 -245.999c-62.667 -54 -148.667 -81.333 -258 -82h-101v235h201c70 0 105 17.333 105 52
c0 21.333 -15.333 51.666 -46 90.999l-69 88l132 190c90 -90 135 -199.333 135 -328z" />
    <glyph glyph-name="uniFBA9" unicode="&#x6c1;" horiz-adv-x="734" arabic-form="medial" 
d="M-25 0v234.999h75c46.667 0 84.667 1.5 114 4.5s54.666 9.66699 75.999 20s46 35.166 74 74.499s49 103.666 63 192.999l78 -12c-9.33301 -100.667 -23.333 -183.667 -42 -249s-48 -125.666 -88 -180.999c-40 -136 -10 -242.667 90 -320l3 3
c-7.33301 16.667 -13.666 42.667 -18.999 78s-3.16602 81.333 6.50098 138s36.667 111 81 163s120.166 81.333 227.499 88h26v-235h-44c-34 0 -71.333 -3 -112 -9s-66.667 -14.333 -78 -25s-19.5 -23.334 -24.5 -38.001s-5.5 -28.334 -1.5 -41.001
c2 -25.333 40 -75 114 -149l-173 -188c-38 24.667 -73.667 54.834 -107 90.501s-59.166 82.834 -77.499 141.501s-20.5 143.334 -6.5 254.001c-32.667 -13.333 -64.834 -22.666 -96.501 -27.999s-84.5 -8 -158.5 -8z" />
    <glyph glyph-name="uniFBAB" unicode="&#x6be;" horiz-adv-x="957" arabic-form="final" 
d="M968 0l-103.001 -0.00488281c-33.333 0.666992 -62 -6.66602 -86 -21.999c-28.667 -18.667 -43 -43.667 -43 -75c0 -47.333 30.333 -82.666 91 -105.999c-8.66699 -44.667 -20.667 -120.667 -36 -228c-148 25.333 -265 90.333 -351 195c-60.667 74 -98 152.667 -112 236
h-104c-21.333 0.666992 -42.166 4 -62.499 10s-38.5 16.333 -54.5 31s-28.667 34.167 -38 58.5s-13.666 54.833 -12.999 91.5l254 30c0 122.667 27.667 236.334 83 341.001c51.333 97.333 99.666 146 144.999 146c32 0 69.667 -38.667 113 -116
c47.333 -84.667 71 -170.667 71 -258c0 -67.333 -20.333 -135.666 -61 -204.999c-46 -78 -100 -120.333 -162 -127c8 -25.333 23 -49.333 45 -72c23.333 -26 47 -41 71 -45c-3.33301 6.66699 -5 18.334 -5 35.001c0 66.667 19.333 130.667 58 192c52 82 125 123 219 123h81
v-235zM592.999 325.995c0 39.333 -10.332 77.333 -30.999 114c-18 32 -32.333 48 -43 48c-11.333 0 -26.333 -23.333 -45 -70c-21.333 -54 -32 -112.333 -32 -175c25.333 4 55.666 11.667 90.999 23c40 16 60 36 60 60z" />
    <glyph glyph-name="uniFBAC" unicode="&#x6be;" horiz-adv-x="856" arabic-form="initial" 
d="M823 207c0 -185.333 -61.666 -277.998 -184.999 -277.998c-28.667 0 -72.334 13.667 -131.001 41c-24.667 11.333 -70.667 33.666 -138 66.999c-36 -24 -126 -36.333 -270 -37h-169v235h179c-24 15.333 -36 50 -36 104c0 87.333 49 172.666 147 255.999l-44 28l99 211
c132 -87.333 248.333 -182.333 349 -285c132.667 -135.333 199 -249.333 199 -342zM680.001 180.002c-1.33301 22 -15.665 51.332 -42.998 87.999c-24 32 -47.333 56.667 -70 74c0.666992 -6 1 -12 1 -18c0 -23.333 -6.33301 -48.666 -19 -75.999
c-13.333 -30 -29.333 -50 -48 -60c7.33301 -10 29.666 -25.833 66.999 -47.5s61.666 -32.5 72.999 -32.5c28.667 0 41.667 24 39 72zM424.002 386.001c0 23.333 -10.1689 45 -30.502 65s-42.166 30 -65.499 30c-21.333 0 -44.666 -12.833 -69.999 -38.5
s-38 -49.167 -38 -70.5c0 -25.333 10 -47.5 30 -66.5s42.667 -28.5 68 -28.5c30.667 0 56 10.5 76 31.5s30 46.833 30 77.5z" />
    <glyph glyph-name="uniFBAD" unicode="&#x6be;" horiz-adv-x="755" arabic-form="medial" 
d="M790 0l-102.999 -0.00390625c-33.333 0.666992 -62 -6.66602 -86 -21.999c-28.667 -18.667 -43 -43.667 -43 -75c0 -47.333 30.333 -82.666 91 -105.999c-8.66699 -44.667 -20.667 -120.667 -36 -228c-148 25.333 -265 90.333 -351 195c-60.667 74 -98 152.667 -112 236
h-220v235h202c0 113.333 27.667 222.333 83 327c51.333 97.333 99.666 146 144.999 146c32 0 69.667 -38.667 113 -116c47.333 -84.667 71 -170.667 71 -258c0 -67.333 -20.333 -135.666 -61 -204.999c-46 -78 -100 -120.333 -162 -127c8 -25.333 23 -49.333 45 -72
c23.333 -26 47 -41 71 -45c-3.33301 6.66699 -5 18.334 -5 35.001c0 66.667 19.333 130.667 58 192c52 82 125 123 219 123h81v-235zM415.001 325.996c0 39.333 -10.332 77.332 -30.999 113.999c-18 32 -32.333 48 -43 48c-11.333 0 -26.333 -23.333 -45 -70
c-21.333 -54 -32 -110.333 -32 -169c25.333 -3.33301 55.666 2.33398 90.999 17.001c40 16 60 36 60 60z" />
    <glyph glyph-name="uniFBAF" unicode="&#x6d2;" horiz-adv-x="1041" arabic-form="final" 
d="M1053 235l1.00195 -234.999h-674h-41c-15.333 0 -30.333 -1.33301 -45 -4s-28 -7.5 -40 -14.5s-20.333 -17.5 -25 -31.5c-1.33301 -16 5.83398 -30.333 21.501 -43s37.5 -21.334 65.5 -26.001c70.667 -12.667 158.834 -20.167 264.501 -22.5s194.167 -2.33301 265.5 0
s134.666 4.83301 189.999 7.5l-70 -170c-8.66699 -3.33301 -67.334 -9.66602 -176.001 -18.999s-241.334 -12.333 -398.001 -9c-48.667 1.33301 -95.334 4 -140.001 8c-58 6 -103 19.333 -135 40c-32 26.667 -48 72 -48 136c0 15.333 2.66699 33 8 53
c5.33301 19.333 14.666 42.666 27.999 69.999c21.333 44 48 92.667 80 146c46.667 72.667 110.334 110.667 191.001 114h677z" />
    <glyph glyph-name="unifbb1" unicode="&#x6d3;" horiz-adv-x="1041" arabic-form="final" 
d="M1053 235l1.00195 -234.999h-674h-41c-15.333 0 -30.333 -1.33301 -45 -4s-28 -7.5 -40 -14.5s-20.333 -17.5 -25 -31.5c-1.33301 -16 5.83398 -30.333 21.501 -43s37.5 -21.334 65.5 -26.001c70.667 -12.667 158.834 -20.167 264.501 -22.5s194.167 -2.33301 265.5 0
s134.666 4.83301 189.999 7.5l-70 -170c-8.66699 -3.33301 -67.334 -9.66602 -176.001 -18.999s-241.334 -12.333 -398.001 -9c-48.667 1.33301 -95.334 4 -140.001 8c-58 6 -103 19.333 -135 40c-32 26.667 -48 72 -48 136c0 15.333 2.66699 33 8 53
c5.33301 19.333 14.666 42.666 27.999 69.999c21.333 44 48 92.667 80 146c46.667 72.667 110.334 110.667 191.001 114h677zM605.002 511.001l-417.001 -122.001l5 66l99 53c-34.667 34 -52 68.333 -52 103c0 40.667 16.667 77.667 50 111s70.333 50 111 50
c53.333 0 95 -14.333 125 -43l-25 -64c-26 10.667 -60.333 16 -103 16c-17.333 0 -35.333 -4.66699 -54 -14c-22 -11.333 -33 -24.666 -33 -39.999c0 -46.667 41 -70 123 -70c10.667 0 66.334 15.333 167.001 46z" />
    <glyph glyph-name="uniFBD4" unicode="&#x6ad;" horiz-adv-x="1622" arabic-form="final" 
d="M1622 0l-22.999 -0.000976562c-36.667 0.666992 -75.334 13.334 -116.001 38.001c-34 21.333 -58.333 45 -73 71c-100 -109.333 -316.667 -164 -650 -164c-396.667 0 -595 116 -595 348c0 70 25.667 156 77 258l151 -47c-29.333 -64 -44 -109.667 -44 -137
c0 -56.667 21.667 -98.667 65 -126c64.667 -40.667 183.334 -61 356.001 -61h41c107.333 0 207.666 8.66699 300.999 26c80 14 139.333 33 178 57c6 4 12 11 18 21s7.66699 49.667 5 119l-25 748l204 82v-808c0 -53.333 11.667 -97 35 -131
c26.667 -39.333 55.667 -59 87 -59h8v-235zM1061 789.999l-413.001 -105.001v78l104 42c-34.667 33.333 -52 67.333 -52 102c0 40.667 16.667 77.667 50 111s70.333 50 111 50c52.667 0 94 -14 124 -42l-25 -65c-25.333 10.667 -59.333 16 -102 16
c-17.333 0 -35.333 -4.66699 -54 -14c-22 -11.333 -33 -24.666 -33 -39.999c0 -46.667 41 -70 123 -70c10.667 0 66.334 15.333 167.001 46v-109zM600 1240l102 140l133 -89l77 104l156 -104l-106 -139l-133 88l-72 -104zM679 1486l103 136l144 -97l-101 -137z" />
    <glyph glyph-name="uniFBD5" unicode="&#x6ad;" horiz-adv-x="966" arabic-form="initial" 
d="M197 1319l102 140l133 -89l77 104l156 -104l-106 -139l-133 88l-72 -104zM276 1565l103 136l144 -97l-101 -137zM982 1280l-30.001 -239c-87.333 -20 -181.333 -43.333 -282 -70c-202 -53.333 -338 -95.666 -408 -126.999c-23.333 -10.667 -27.333 -21.334 -12 -32.001
l126 -89c68.667 -50 125 -102.333 169 -157c56.667 -70 85 -137.333 85 -202c0 -146.667 -52 -247.667 -156 -303c-75.333 -40.667 -195.666 -61 -360.999 -61h-183v235h189c227.333 0 341 28.333 341 85c0 52.667 -60.667 126.667 -182 222
c-134 105.333 -208.333 174.333 -223 207c1.33301 32.667 9.66602 74.667 24.999 126c16.667 54.667 32.334 86 47.001 94c174 91.333 459 195 855 311z" />
    <glyph glyph-name="uniFBD6" unicode="&#x6ad;" horiz-adv-x="1065" arabic-form="medial" 
d="M223 1288l102 140l133 -89l77 104l156 -104l-106 -139l-133 88l-72 -104zM302 1534l103 136l144 -97l-101 -137zM1065 0l-83.999 -0.00195312c-80 0.666992 -161.667 28 -245 82c-72.667 47.333 -135.334 107.333 -188.001 180c-23.333 -174 -180 -261.333 -470 -262
h-148v235h142c101.333 0 169.333 2.33301 204 7c96.667 12.667 145 42.334 145 89.001c0 43.333 -48 107 -144 191c-105.333 92 -164.666 155 -177.999 189c2 36 8.66699 76 20 120c13.333 52.667 28 83 44 91c172 90 472.667 202 902 336l-28 -234
c-106 -26 -197.333 -49.667 -274 -71c-202.667 -56 -359 -106.667 -469 -152c-24 -10 -27.333 -21.667 -10 -35c110 -83.333 221.667 -181.666 335 -294.999c91.333 -91.333 153.666 -148.333 186.999 -171c63.333 -43.333 133 -65 209 -65h50v-235z" />
    <glyph glyph-name="uniFBD8" unicode="&#x6c7;" horiz-adv-x="745" arabic-form="final" 
d="M745 0l-77.002 0.000976562c-24.667 -106.667 -87 -208 -187 -304c-90.667 -86.667 -192.334 -152 -305.001 -196l-147 139c94.667 35.333 190.334 87.666 287.001 156.999c104.667 75.333 168.334 142.333 191.001 201c-109.333 0 -187.666 11.667 -234.999 35
c-70 34 -105 99 -105 195c0 62.667 18 128.667 54 198c44.667 86.667 101.667 130 171 130c82 0 148.667 -36.333 200 -109c41.333 -58 67.333 -128.333 78 -211h75v-235zM510.998 234.001c-3.33301 30 -15.999 58.332 -37.999 84.999c-24.667 28.667 -51.334 43 -80.001 43
c-19.333 0 -37.833 -8.66699 -55.5 -26s-26.5 -35.666 -26.5 -54.999c0 -40 33 -60 99 -60c31.333 0 65 4.33301 101 13zM645.999 1032c0 -72.667 -34.334 -137.001 -103.001 -193.001l66 -46l-49 -53c-21.333 12.667 -44.666 33.334 -69.999 62.001
c-91.333 -64 -194.333 -108 -309 -132l-31 66c126 40.667 215 82.667 267 126c-28 40 -42 71 -42 93c0 39.333 16.333 79.5 49 120.5s68 61.5 106 61.5c30.667 0 57.667 -10 81 -30s35 -45 35 -75zM570.998 1001c0 37.333 -21.667 55.999 -65 55.999
c-17.333 0 -34.333 -10 -51 -30s-25 -39 -25 -57c0 -31.333 20.333 -56.666 61 -75.999c53.333 37.333 80 73 80 107z" />
    <glyph glyph-name="uniFBDA" unicode="&#x6c6;" horiz-adv-x="745" arabic-form="final" 
d="M745 0l-77.002 0.000976562c-24.667 -106.667 -87 -208 -187 -304c-90.667 -86.667 -192.334 -152 -305.001 -196l-147 139c94.667 35.333 190.334 87.666 287.001 156.999c104.667 75.333 168.334 142.333 191.001 201c-109.333 0 -187.666 11.667 -234.999 35
c-70 34 -105 99 -105 195c0 62.667 18 128.667 54 198c44.667 86.667 101.667 130 171 130c82 0 148.667 -36.333 200 -109c41.333 -58 67.333 -128.333 78 -211h75v-235zM510.998 234.001c-3.33301 30 -15.999 58.332 -37.999 84.999c-24.667 28.667 -51.334 43 -80.001 43
c-19.333 0 -37.833 -8.66699 -55.5 -26s-26.5 -35.666 -26.5 -54.999c0 -40 33 -60 99 -60c31.333 0 65 4.33301 101 13zM570.999 941c-10 -8 -22.5 -21.8301 -37.5 -41.4971s-30.167 -42.667 -45.5 -69s-29.833 -54.833 -43.5 -85.5s-24.167 -61 -31.5 -91h-28l-1 3
c-8 29.333 -18.833 59.166 -32.5 89.499s-28.167 58.666 -43.5 84.999s-30.333 49.166 -45 68.499s-26.667 33 -36 41l108 2c14 -21.333 26.167 -47.333 36.5 -78s19.166 -62.667 26.499 -96c7.33301 33.333 16.333 65.333 27 96s23.334 56.667 38.001 78z" />
    <glyph glyph-name="uniFBDC" unicode="&#x6c8;" horiz-adv-x="745" arabic-form="final" 
d="M745 0l-77.002 0.000976562c-24.667 -106.667 -87 -208 -187 -304c-90.667 -86.667 -192.334 -152 -305.001 -196l-147 139c94.667 35.333 190.334 87.666 287.001 156.999c104.667 75.333 168.334 142.333 191.001 201c-109.333 0 -187.666 11.667 -234.999 35
c-70 34 -105 99 -105 195c0 62.667 18 128.667 54 198c44.667 86.667 101.667 130 171 130c82 0 148.667 -36.333 200 -109c41.333 -58 67.333 -128.333 78 -211h75v-235zM510.998 234.001c-3.33301 30 -15.999 58.332 -37.999 84.999c-24.667 28.667 -51.334 43 -80.001 43
c-19.333 0 -37.833 -8.66699 -55.5 -26s-26.5 -35.666 -26.5 -54.999c0 -40 33 -60 99 -60c31.333 0 65 4.33301 101 13zM435.999 685l-60 -24l-31 324l106 45z" />
    <glyph glyph-name="uniFBDF" unicode="&#x6cb;" horiz-adv-x="745" arabic-form="final" 
d="M745 0l-77.002 0.000976562c-24.667 -106.667 -87 -208 -187 -304c-90.667 -86.667 -192.334 -152 -305.001 -196l-147 139c94.667 35.333 190.334 87.666 287.001 156.999c104.667 75.333 168.334 142.333 191.001 201c-109.333 0 -187.666 11.667 -234.999 35
c-70 34 -105 99 -105 195c0 62.667 18 128.667 54 198c44.667 86.667 101.667 130 171 130c82 0 148.667 -36.333 200 -109c41.333 -58 67.333 -128.333 78 -211h75v-235zM510.998 234.001c-3.33301 30 -15.999 58.332 -37.999 84.999c-24.667 28.667 -51.334 43 -80.001 43
c-19.333 0 -37.833 -8.66699 -55.5 -26s-26.5 -35.666 -26.5 -54.999c0 -40 33 -60 99 -60c31.333 0 65 4.33301 101 13zM125.999 741l102 140l133 -89l77 104l156 -104l-106 -139l-133 88l-72 -104zM204.999 987l103 136l144 -97l-101 -137z" />
    <glyph glyph-name="uniFBE1" unicode="&#x6c5;" horiz-adv-x="737" arabic-form="final" 
d="M668 0c-24.667 -106.667 -87 -208.001 -187 -304.001c-90.667 -86.667 -192.334 -152 -305.001 -196l-147 139c91.333 34 183.333 84 276 150l-196 -2l39 65l252 11c55.333 48.667 91 93.334 107 134.001c-109.333 0 -187.666 11.667 -234.999 35
c-70 34 -105 99 -105 195c0 62.667 18 128.667 54 198c44.667 86.667 101.667 130 171 130c82 0 148.667 -36.333 200 -109c41.333 -58 67.333 -128.333 78 -211h75v-235h-77zM511 233.999c-3.33301 30 -15.999 58.332 -37.999 84.999c-24.667 28.667 -51.334 43 -80.001 43
c-19.333 0 -38 -8.66699 -56 -26c-17.333 -17.333 -26 -35.666 -26 -54.999c0 -40 33 -60 99 -60c31.333 0 65 4.33301 101 13z" />
    <glyph glyph-name="uniFBE3" unicode="&#x6c9;" horiz-adv-x="745" arabic-form="final" 
d="M745 0l-77.002 0.000976562c-24.667 -106.667 -87 -208 -187 -304c-90.667 -86.667 -192.334 -152 -305.001 -196l-147 139c94.667 35.333 190.334 87.666 287.001 156.999c104.667 75.333 168.334 142.333 191.001 201c-109.333 0 -187.666 11.667 -234.999 35
c-70 34 -105 99 -105 195c0 62.667 18 128.667 54 198c44.667 86.667 101.667 130 171 130c82 0 148.667 -36.333 200 -109c41.333 -58 67.333 -128.333 78 -211h75v-235zM510.998 234.001c-3.33301 30 -15.999 58.332 -37.999 84.999c-24.667 28.667 -51.334 43 -80.001 43
c-19.333 0 -37.833 -8.66699 -55.5 -26s-26.5 -35.666 -26.5 -54.999c0 -40 33 -60 99 -60c31.333 0 65 4.33301 101 13zM458.999 638c-14.667 21.333 -27.334 47.3359 -38.001 78.0029s-19.667 62.667 -27 96c-7.33301 -33.333 -16.166 -65.333 -26.499 -96
s-22.5 -56.667 -36.5 -78l-108 2c9.33301 8 21.333 21.667 36 41s29.667 42.166 45 68.499s29.833 54.666 43.5 84.999s24.5 60.166 32.5 89.499l1 3h28c7.33301 -30 17.833 -60.333 31.5 -91s28.167 -59.167 43.5 -85.5s30.5 -49.333 45.5 -69s27.5 -33.5 37.5 -41.5z" />
    <glyph glyph-name="uniFBE5" unicode="&#x6d0;" horiz-adv-x="1240" arabic-form="final" 
d="M560 -868l-113 114l113 112l112 -112zM560 -1092l-113 114l113 112l112 -112zM1240 0l-29.002 -0.000976562c-43.333 3.33301 -114.666 8.33301 -213.999 15c-19.333 1.33301 -32.666 2 -39.999 2c-66.667 0 -100 -10 -100 -30c0 -12.667 13.333 -21 40 -25l213 -32
c74 -20.667 111 -59.667 111 -117c0 -70.667 -49.667 -141 -149 -211c-118 -82.667 -263 -124 -435 -124c-186 0 -322.333 46.667 -409 140c-69.333 74.667 -104 174.667 -104 300c0 105.333 31.333 212 94 320l156 -55c-14 -23.333 -27.667 -58 -41 -104
c-14.667 -48 -22 -84.333 -22 -109c0 -170.667 112.667 -256 338 -256c157.333 0 274 15.667 350 47c23.333 9.33301 35 18 35 26c0 7.33301 -10 12.333 -30 15c-14.667 2 -77.667 9.33301 -189 22c-97.333 23.333 -146 67.333 -146 132c0 92.667 61 165.334 183 218.001
c95.333 40.667 196.333 61 303 61h85v-235z" />
    <glyph glyph-name="afii52364" unicode="&#x6cc;" horiz-adv-x="1240" arabic-form="final" 
d="M1240 0l-29.002 -0.000976562c-43.333 3.33301 -114.666 8.33301 -213.999 15c-19.333 1.33301 -32.666 2 -39.999 2c-66.667 0 -100 -10 -100 -30c0 -12.667 13.333 -21 40 -25l213 -32c74 -20.667 111 -59.667 111 -117c0 -70.667 -49.667 -141 -149 -211
c-118 -82.667 -263 -124 -435 -124c-186 0 -322.333 46.667 -409 140c-69.333 74.667 -104 174.667 -104 300c0 105.333 31.333 212 94 320l156 -55c-14 -23.333 -27.667 -58 -41 -104c-14.667 -48 -22 -84.333 -22 -109c0 -170.667 112.667 -256 338 -256
c157.333 0 274 15.667 350 47c23.333 9.33301 35 18 35 26c0 7.33301 -10 12.333 -30 15c-14.667 2 -77.667 9.33301 -189 22c-97.333 23.333 -146 67.333 -146 132c0 92.667 61 165.334 183 218.001c95.333 40.667 196.333 61 303 61h85v-235z" />
    <glyph glyph-name="uniFBFE" unicode="&#x6cc;" horiz-adv-x="436" arabic-form="initial" 
d="M388 328c0 -106.667 -33 -188.666 -99 -245.999c-62.667 -54 -148.667 -81.333 -258 -82h-101v235h201c70 0 105 17.333 105 52c0 21.333 -15.333 51.666 -46 90.999l-69 88l132 190c90 -90 135 -199.333 135 -328zM436 -292.999l-110 -149l-136 96l-80 -112l-172 117
l110 149l144 -99l79 112z" />
    <glyph glyph-name="afii62832" unicode="&#x6cc;" horiz-adv-x="509" arabic-form="medial" 
d="M509 0h-19c-96 0.666992 -159.333 36 -190 106c-50 -70 -129.667 -105.333 -239 -106h-131v235h123c102.667 0 154 35.667 154 107v80l167 55v-50c0 -128 41.333 -192 124 -192h11v-235zM483 -297l-110 -149l-136 96l-80 -112l-172 117l110 149l144 -99l79 112z" />
    <glyph glyph-name="uniFC5D" unicode="&#xfc5d;" horiz-adv-x="1382" arabic-form="isolated" 
d="M508 615l-65 -23l-32 352l111 44zM1331 645l-53.0039 -201.004c-38.667 16.667 -95.334 25 -170.001 25c-61.333 0 -116 -18.333 -164 -55c-42.667 -32.667 -64 -64.667 -64 -96c0 -17.333 9 -28.666 27 -33.999c12.667 -4 72.334 -10.333 179.001 -19
c139.333 -11.333 209 -67.333 209 -168c0 -144.667 -67.333 -264.667 -202 -360c-125.333 -88.667 -272.666 -133 -441.999 -133c-342.667 0 -514 144.333 -514 433c0 106.667 32.333 215.667 97 327l162 -55c-44 -69.333 -66 -141.666 -66 -216.999
c0 -169.333 116.333 -254 349 -254c60.667 0 129.334 10 206.001 30c106.667 28 186.334 68.333 239.001 121c12 12 18 23.667 18 35c0 18.667 -12.333 29.334 -37 32.001c-28.667 3.33301 -116.667 11 -264 23c-93.333 18.667 -140 71.667 -140 159
c0 112.667 47.667 217.334 143 314.001s199 145 311 145c41.333 0 72.333 -3 93 -9s48.334 -20.333 83.001 -43z" />
    <glyph glyph-name="afii62882" unicode="&#xfc5e;" arabic-form="isolated" 
d="M262 709c0 -70.667 -33.332 -134.334 -99.999 -191.001l66 -45l-51 -57c-32.667 19.333 -58 38.333 -76 57c-92 -60 -193 -102.667 -303 -128l-33 67c7.33301 2.66699 16.666 6.66699 27.999 12c44 38 66 74 66 108c0 19.333 -12 29 -36 29
c-16 0 -36.333 -8.33301 -61 -25l-20 45c24 28 58 42 102 42c54 0 81 -21.667 81 -65c0 -38.667 -16.333 -74 -49 -106c-0.666992 -2.66699 1 -4.66699 5 -6c74 23.333 127 49.333 159 78c-31.333 38 -47 73 -47 105c0 38.667 15.667 78 47 118c33.333 42.667 69 64 107 64
c30 0 56.667 -9.66699 80 -29s35 -43.666 35 -72.999zM190.001 678c0 37.333 -21.667 56 -65 56c-15.333 0 -30.833 -9.33301 -46.5 -28s-23.5 -35.667 -23.5 -51c0 -36.667 17 -64 51 -82c56 27.333 84 62.333 84 105zM216.001 313
c12.667 -42 18.9971 -81.668 18.9971 -119.001c0 -105.333 -41.667 -158 -125 -158c-37.333 0 -68.666 29 -93.999 87c-44.667 -84 -94 -126 -148 -126s-81 32.333 -81 97c0 42.667 13 87.334 39 134.001h44c-10 -35.333 -15 -62.333 -15 -81c0 -31.333 16.333 -47 49 -47
c48.667 0 80.334 51.667 95.001 155l55 21c2.66699 -45.333 5.33398 -75 8.00098 -89c9.33301 -34 29 -51 59 -51c35.333 0 53 23.333 53 70c0 24 -5 53.333 -15 88z" />
    <glyph glyph-name="afii62883" unicode="&#xfc5f;" arabic-form="isolated" 
d="M258 129l-460 -123l-18 75l460 127zM258 297l-460 -123l-18 75l460 127zM218 727c12.667 -42 18.9971 -81.668 18.9971 -119.001c0 -105.333 -41.667 -158 -125 -158c-37.333 0 -68.666 29 -93.999 87c-44.667 -84 -94 -126 -148 -126s-81 32.333 -81 97
c0 42.667 13 87.334 39 134.001h44c-10 -35.333 -15 -62.333 -15 -81c0 -31.333 16.333 -47 49 -47c48.667 0 80.334 51.667 95.001 155l55 21c2.66699 -45.333 5.33398 -75 8.00098 -89c9.33301 -34 29 -51 59 -51c35.333 0 53 23.333 53 70c0 24 -5 53.333 -15 88z" />
    <glyph glyph-name="afii62884" unicode="&#xfc60;" arabic-form="isolated" 
d="M252 461l-460 -122l-18 74l460 127zM216 313c12.667 -42 18.9971 -81.668 18.9971 -119.001c0 -105.333 -41.667 -158 -125 -158c-37.333 0 -68.666 29 -93.999 87c-44.667 -84 -94 -126 -148 -126s-81 32.333 -81 97c0 42.667 13 87.334 39 134.001h44
c-10 -35.333 -15 -62.333 -15 -81c0 -31.333 16.333 -47 49 -47c48.667 0 80.334 51.667 95.001 155l55 21c2.66699 -45.333 5.33398 -75 8.00098 -89c9.33301 -34 29 -51 59 -51c35.333 0 53 23.333 53 70c0 24 -5 53.333 -15 88z" />
    <glyph glyph-name="afii62885" unicode="&#xfc61;" arabic-form="isolated" 
d="M215 702c0 -72.667 -34.334 -137.001 -103.001 -193.001l66 -46l-49 -53c-21.333 12.667 -44.666 33.334 -69.999 62.001c-91.333 -64 -194.333 -108 -309 -132l-31 66c114.667 32 210 71.333 286 118c-40.667 45.333 -61 79 -61 101c0 39.333 16.333 79.5 49 120.5
s68 61.5 106 61.5c30.667 0 57.667 -10 81 -30s35 -45 35 -75zM139.999 670.999c0 38 -21.667 56.999 -65 56.999c-17.333 0 -34.333 -10.167 -51 -30.5s-25 -39.5 -25 -57.5c0 -31.333 20.333 -56.666 61 -75.999c53.333 37.333 80 73 80 107zM215.999 312.998
c12.667 -42 18.9971 -81.668 18.9971 -119.001c0 -105.333 -41.667 -158 -125 -158c-37.333 0 -68.666 29 -93.999 87c-44.667 -84 -94 -126 -148 -126s-81 32.333 -81 97c0 42.667 13 87.334 39 134.001h44c-10 -35.333 -15 -62.333 -15 -81c0 -31.333 16.333 -47 49 -47
c48.667 0 80.334 51.667 95.001 155l55 21c2.66699 -45.333 5.33398 -75 8.00098 -89c9.33301 -34 29 -51 59 -51c35.333 0 53 23.333 53 70c0 24 -5 53.333 -15 88z" />
    <glyph glyph-name="afii62886" unicode="&#xfc62;" arabic-form="isolated" 
d="M251 126l-460 -123l-18 75l460 127zM216 543c12.667 -42 18.9971 -81.668 18.9971 -119.001c0 -105.333 -41.667 -158 -125 -158c-37.333 0 -68.666 29 -93.999 87c-44.667 -84 -94 -126 -148 -126s-81 32.333 -81 97c0 42.667 13 87.334 39 134.001h44
c-10 -35.333 -15 -62.333 -15 -81c0 -31.333 16.333 -47 49 -47c48.667 0 80.334 51.667 95.001 155l55 21c2.66699 -45.333 5.33398 -75 8.00098 -89c9.33301 -34 29 -51 59 -51c35.333 0 53 23.333 53 70c0 24 -5 53.333 -15 88z" />
    <glyph glyph-name="uniFC63" unicode="&#xfc63;" arabic-form="isolated" 
d="M20 384l-39 -19l-26 285l76 36zM192 305c12.667 -42 18.9971 -81.668 18.9971 -119.001c0 -105.333 -41.667 -158 -125 -158c-37.333 0 -68.666 29 -93.999 87c-44.667 -84 -94 -126 -148 -126s-81 32.333 -81 97c0 42.667 13 87.334 39 134.001h44
c-10 -35.333 -15 -62.333 -15 -81c0 -31.333 16.333 -47 49 -47c48.667 0 80.334 51.667 95.001 155l55 21c2.66699 -45.333 5.33398 -75 8.00098 -89c9.33301 -34 29 -51 59 -51c35.333 0 53 23.333 53 70c0 24 -5 53.333 -15 88z" />
    <glyph glyph-name="uniFCF2" unicode="&#xfcf2;" horiz-adv-x="701" arabic-form="medial" 
d="M588 811l-460 -122l-18 74l460 127zM564 706c12.667 -42 18.9971 -81.668 18.9971 -119.001c0 -105.333 -41.667 -158 -125 -158c-37.333 0 -68.666 29 -93.999 87c-44.667 -84 -94 -126 -148 -126s-81 32.333 -81 97c0 42.667 13 87.334 39 134.001h44
c-10 -35.333 -15 -62.333 -15 -81c0 -31.333 16.333 -47 49 -47c48.667 0 80.334 51.667 95.001 155l55 21c2.66699 -45.333 5.33398 -75 8.00098 -89c9.33301 -34 29 -51 59 -51c35.333 0 53 23.333 53 70c0 24 -5 53.333 -15 88zM723.997 -0.000976562h-753v235h753v-235z
" />
    <glyph glyph-name="uniFCF3" unicode="&#xfcf3;" horiz-adv-x="701" arabic-form="medial" 
d="M607 1069c0 -72.667 -34.334 -137 -103.001 -193l66 -46l-49 -53c-21.333 12.667 -44.666 33.334 -69.999 62.001c-91.333 -64 -194.333 -108 -309 -132l-31 58c127.333 41.333 217 83.666 269 126.999c-29.333 30.667 -44 64 -44 100c0 39.333 16.333 79.5 49 120.5
s68 61.5 106 61.5c30.667 0 57.667 -10 81 -30s35 -45 35 -75zM531.999 1038c0 38 -21.667 56.999 -65 56.999c-17.333 0 -34.333 -10.167 -51 -30.5s-25 -39.5 -25 -57.5c0 -31.333 20.333 -56.666 61 -75.999c53.333 37.333 80 73 80 107zM563.999 705.999
c12.667 -42 18.9971 -81.668 18.9971 -119.001c0 -105.333 -41.667 -158 -125 -158c-37.333 0 -68.666 29 -93.999 87c-44.667 -84 -94 -126 -148 -126s-81 32.333 -81 97c0 42.667 13 87.334 39 134.001h44c-10 -35.333 -15 -62.333 -15 -81c0 -31.333 16.333 -47 49 -47
c48.667 0 80.334 51.667 95.001 155l55 21c2.66699 -45.333 5.33398 -75 8.00098 -89c9.33301 -34 29 -51 59 -51c35.333 0 53 23.333 53 70c0 24 -5 53.333 -15 88zM723.996 -0.00195312h-753v235h753v-235z" />
    <glyph glyph-name="uniFCF4" unicode="&#xfcf4;" horiz-adv-x="701" arabic-form="medial" 
d="M618 499l-460 -123l-18 75l460 127zM584 916c12.667 -42 18.9971 -81.668 18.9971 -119.001c0 -105.333 -41.667 -158 -125 -158c-37.333 0 -68.666 29 -93.999 87c-44.667 -84 -94 -126 -148 -126s-81 32.333 -81 97c0 42.667 13 87.334 39 134.001h44
c-10 -35.333 -15 -62.333 -15 -81c0 -31.333 16.333 -47 49 -47c48.667 0 80.334 51.667 95.001 155l55 21c2.66699 -45.333 5.33398 -75 8.00098 -89c9.33301 -34 29 -51 59 -51c35.333 0 53 23.333 53 70c0 24 -5 53.333 -15 88zM723.997 -0.000976562h-753v235h753v-235z
" />
    <glyph glyph-name="uniFE71" unicode="&#xfe71;" horiz-adv-x="701" arabic-form="medial" 
d="M599 492l-460 -123l-18 75l460 127zM599 660l-460 -123l-18 75l460 127zM724 0h-753v235h753v-235z" />
    <glyph glyph-name="uniFE77" unicode="&#xfe77;" horiz-adv-x="701" arabic-form="medial" 
d="M599 492l-460 -123l-18 75l460 127zM724 0h-753v235h753v-235z" />
    <glyph glyph-name="uniFE79" unicode="&#xfe79;" horiz-adv-x="701" arabic-form="medial" 
d="M617 774c0 -72.667 -34.334 -137.002 -103.001 -193.002l66 -46l-49 -53c-21.333 12.667 -44.666 33.334 -69.999 62.001c-91.333 -62 -194.333 -106 -309 -132l-31 56c126 42.667 218.667 84.334 278 125.001c-34 23.333 -51.667 58 -53 104
c0 39.333 16.333 79.5 49 120.5s68 61.5 106 61.5c30.667 0 57.667 -10 81 -30s35 -45 35 -75zM541.999 742.998c0 38 -21.667 56.999 -65 56.999c-17.333 0 -34.333 -10.167 -51 -30.5s-25 -39.5 -25 -57.5c0 -31.333 20.333 -56.666 61 -75.999
c53.333 37.333 80 73 80 107zM723.999 -0.00292969h-753v235h753v-235z" />
    <glyph glyph-name="uniFE7B" unicode="&#xfe7b;" horiz-adv-x="701" arabic-form="medial" 
d="M586 -253l-460 -123l-18 75l460 127zM724 0h-753v235h753v-235z" />
    <glyph glyph-name="uniFE7D" unicode="&#xfe7d;" horiz-adv-x="701" arabic-form="medial" 
d="M568 658c12.667 -42 18.9971 -81.668 18.9971 -119.001c0 -105.333 -41.667 -158 -125 -158c-37.333 0 -68.666 29 -93.999 87c-44.667 -84 -94 -126 -148 -126s-81 32.333 -81 97c0 42.667 13 87.334 39 134.001h44c-10 -35.333 -15 -62.333 -15 -81
c0 -31.333 16.333 -47 49 -47c48.667 0 80.334 51.667 95.001 155l55 21c2.66699 -45.333 5.33398 -75 8.00098 -89c9.33301 -34 29 -51 59 -51c35.333 0 53 23.333 53 70c0 24 -5 53.333 -15 88zM723.997 -0.000976562h-753v235h753v-235z" />
    <glyph glyph-name="uniFE7F" unicode="&#xfe7f;" horiz-adv-x="695" arabic-form="medial" 
d="M536 536c0 -50.667 -15.666 -94 -46.999 -130c-33.333 -38 -75 -57 -125 -57c-42.667 0 -78.167 13.667 -106.5 41s-42.5 62.333 -42.5 105c0 72 17.333 129.333 52 172c28 34.667 58.667 52 92 52c37.333 0 74.666 -15.667 111.999 -47c43.333 -36.667 65 -82 65 -136z
M465.001 527c0 30.667 -12.333 55.668 -37 75.001c-22 18 -49 27 -81 27c-16 0 -31.333 -11.833 -46 -35.5s-22 -43.834 -22 -60.501c0 -54.667 29.333 -82 88 -82c24 0 45.667 6.33301 65 19c22 14.667 33 33.667 33 57zM724.001 0.000976562h-753v235h753v-235z" />
    <glyph glyph-name="afii52399" unicode="&#x621;" horiz-adv-x="828" arabic-form="isolated" 
d="M753 120l-587 -150v127l125 53l-35 48c-12.667 24.667 -19 55.667 -19 93c0 58 24.167 110.333 72.5 157s101.833 70 160.5 70c77.333 0 137.666 -20.667 180.999 -62l-37 -113c-33.333 20 -84 30 -152 30c-19.333 0 -40.666 -6 -63.999 -18
c-27.333 -14 -41 -29.667 -41 -47c0 -29.333 20 -51.333 60 -66c29.333 -10.667 61.666 -16 96.999 -16c18.667 0 98.334 23 239.001 69v-175z" />
    <glyph glyph-name="afii62753" unicode="&#x622;" horiz-adv-x="561" arabic-form="final" 
d="M561 0h-38c-139.333 0.666992 -233.333 46.667 -282 138c-31.333 58.667 -49.333 161.667 -54 309l-22 704l204 82v-814c0 -122.667 49 -184 147 -184h45v-235zM625 1490c-26 -47.333 -63.332 -84.333 -111.999 -111c-43.333 -24 -87 -36 -131 -36
c-26.667 0 -66 4.66699 -118 14s-91 14 -117 14c-54.667 0 -100.334 -18.333 -137.001 -55l-71 97c52.667 66.667 114.667 100 186 100c25.333 0 63.5 -4.16699 114.5 -12.5s89.5 -12.5 115.5 -12.5c95.333 0 169 32.333 221 97z" />
    <glyph glyph-name="afii62754" unicode="&#x623;" horiz-adv-x="561" arabic-form="final" 
d="M561 0h-38c-139.333 0.666992 -233.333 46.667 -282 138c-31.333 58.667 -49.333 161.667 -54 309l-22 704l204 82v-814c0 -122.667 49 -184 147 -184h45v-235zM466 1395l-417.001 -122.001l5 66l99 53c-34.667 34 -52 68.333 -52 103c0 40.667 16.667 77.667 50 111
s70.333 50 111 50c53.333 0 95 -14.333 125 -43l-25 -64c-26 10.667 -60.333 16 -103 16c-17.333 0 -35.333 -4.66699 -54 -14c-22 -11.333 -33 -24.666 -33 -39.999c0 -46.667 41 -70 123 -70c10.667 0 66.334 15.333 167.001 46z" />
    <glyph glyph-name="afii62755" unicode="&#x624;" horiz-adv-x="745" arabic-form="final" 
d="M745 0l-77.002 0.000976562c-24.667 -106.667 -87 -208 -187 -304c-90.667 -86.667 -192.334 -152 -305.001 -196l-147 139c94.667 35.333 190.334 87.666 287.001 156.999c104.667 75.333 168.334 142.333 191.001 201c-109.333 0 -187.666 11.667 -234.999 35
c-70 34 -105 99 -105 195c0 62.667 18 128.667 54 198c44.667 86.667 101.667 130 171 130c82 0 148.667 -36.333 200 -109c41.333 -58 67.333 -128.333 78 -211h75v-235zM510.998 234.001c-3.33301 30 -15.999 58.332 -37.999 84.999c-24.667 28.667 -51.334 43 -80.001 43
c-19.333 0 -37.833 -8.66699 -55.5 -26s-26.5 -35.666 -26.5 -54.999c0 -40 33 -60 99 -60c31.333 0 65 4.33301 101 13zM617.999 781l-417.001 -122.001l5 66l99 53c-34.667 34 -52 68.333 -52 103c0 40.667 16.667 77.667 50 111s70.333 50 111 50
c53.333 0 95 -14.333 125 -43l-25 -64c-26 10.667 -60.333 16 -103 16c-17.333 0 -35.333 -4.66699 -54 -14c-22 -11.333 -33 -24.666 -33 -39.999c0 -46.667 41 -70 123 -70c10.667 0 66.334 15.333 167.001 46z" />
    <glyph glyph-name="afii62756" unicode="&#x625;" horiz-adv-x="561" arabic-form="final" 
d="M561 0h-38c-139.333 0.666992 -233.333 46.667 -282 138c-31.333 58.667 -49.333 161.667 -54 309l-22 704l204 82v-814c0 -122.667 49 -184 147 -184h45v-235zM544 -387l-417.001 -122.001l5 66l99 53c-34.667 34 -52 68.333 -52 103c0 40.667 16.667 77.667 50 111
s70.333 50 111 50c53.333 0 95 -14.333 125 -43l-25 -64c-26 10.667 -60.333 16 -103 16c-17.333 0 -35.333 -4.66699 -54 -14c-22 -11.333 -33 -24.666 -33 -39.999c0 -46.667 41 -70 123 -70c10.667 0 66.334 15.333 167.001 46z" />
    <glyph glyph-name="afii62759" unicode="&#x626;" horiz-adv-x="1240" arabic-form="final" 
d="M1240 0l-29.002 -0.000976562c-43.333 3.33301 -114.666 8.33301 -213.999 15c-19.333 1.33301 -32.666 2 -39.999 2c-66.667 0 -100 -10 -100 -30c0 -12.667 13.333 -21 40 -25l213 -32c74 -20.667 111 -59.667 111 -117c0 -70.667 -49.667 -141 -149 -211
c-118 -82.667 -263 -124 -435 -124c-186 0 -322.333 46.667 -409 140c-69.333 74.667 -104 174.667 -104 300c0 105.333 31.333 212 94 320l156 -55c-14 -23.333 -27.667 -58 -41 -104c-14.667 -48 -22 -84.333 -22 -109c0 -170.667 112.667 -256 338 -256
c157.333 0 274 15.667 350 47c23.333 9.33301 35 18 35 26c0 7.33301 -10 12.333 -30 15c-14.667 2 -77.667 9.33301 -189 22c-97.333 23.333 -146 67.333 -146 132c0 92.667 61 165.334 183 218.001c95.333 40.667 196.333 61 303 61h85v-235zM762.998 539.999
l-417.001 -122.001l5 66l99 53c-34.667 34 -52 68.333 -52 103c0 40.667 16.667 77.667 50 111s70.333 50 111 50c53.333 0 95 -14.333 125 -43l-25 -64c-26 10.667 -60.333 16 -103 16c-17.333 0 -35.333 -4.66699 -54 -14c-22 -11.333 -33 -24.666 -33 -39.999
c0 -46.667 41 -70 123 -70c10.667 0 66.334 15.333 167.001 46z" />
    <glyph glyph-name="afii62757" unicode="&#x626;" horiz-adv-x="436" arabic-form="initial" 
d="M388 328c0 -106.667 -33 -188.666 -99 -245.999c-62.667 -54 -148.667 -81.333 -258 -82h-101v235h201c70 0 105 17.333 105 52c0 21.333 -15.333 51.666 -46 90.999l-69 88l132 190c90 -90 135 -199.333 135 -328zM392 873.001l-417.001 -122.001l5 66l99 53
c-34.667 34 -52 68.333 -52 103c0 40.667 16.667 77.667 50 111s70.333 50 111 50c53.333 0 95 -14.333 125 -43l-25 -64c-26 10.667 -60.333 16 -103 16c-17.333 0 -35.333 -4.66699 -54 -14c-22 -11.333 -33 -24.666 -33 -39.999c0 -46.667 41 -70 123 -70
c10.667 0 66.334 15.333 167.001 46z" />
    <glyph glyph-name="afii62758" unicode="&#x626;" horiz-adv-x="509" arabic-form="medial" 
d="M509 0h-19c-96 0.666992 -159.333 36 -190 106c-50 -70 -129.667 -105.333 -239 -106h-131v235h123c102.667 0 154 35.667 154 107v80l167 55v-50c0 -128 41.333 -192 124 -192h11v-235zM475 815l-417.001 -122.001l5 66l99 53c-34.667 34 -52 68.333 -52 103
c0 40.667 16.667 77.667 50 111s70.333 50 111 50c53.333 0 95 -14.333 125 -43l-25 -64c-26 10.667 -60.333 16 -103 16c-17.333 0 -35.333 -4.66699 -54 -14c-22 -11.333 -33 -24.666 -33 -39.999c0 -46.667 41 -70 123 -70c10.667 0 66.334 15.333 167.001 46z" />
    <glyph glyph-name="afii57415" unicode="&#x627;" horiz-adv-x="376" arabic-form="isolated" 
d="M375 27l-152 -55l-58 1179l210 82v-1206z" />
    <glyph glyph-name="afii62760" unicode="&#x627;" horiz-adv-x="561" arabic-form="final" 
d="M561 0h-38c-139.333 0.666992 -233.333 46.667 -282 138c-31.333 58.667 -49.333 161.667 -54 309l-22 704l204 82v-814c0 -122.667 49 -184 147 -184h45v-235z" />
    <glyph glyph-name="afii62763" unicode="&#x628;" horiz-adv-x="1733" arabic-form="final" 
d="M1733 0h-39c-101.333 0.666992 -171 40.334 -209 119.001c-51.333 -68 -165.333 -117 -342 -147c-116.667 -20 -244.667 -30 -384 -30c-396 0 -594 116.333 -594 349c0 69.333 25.667 155 77 257l151 -47c-29.333 -64 -44 -109.667 -44 -137
c0 -56.667 21.667 -98.667 65 -126c64 -40 182.667 -60 356 -60h88c142.667 0 247.667 5 315 15c158.667 23.333 238 73 238 149v52l167 55v-48c0 -62.667 9.66699 -105.334 29 -128.001c21.333 -25.333 62.333 -38 123 -38h3v-235zM948 -334l-124 -164l-169 112l124 166z
" />
    <glyph glyph-name="afii62761" unicode="&#x628;" horiz-adv-x="436" arabic-form="initial" 
d="M388 328c0 -106.667 -33 -188.666 -99 -245.999c-62.667 -54 -148.667 -81.333 -258 -82h-101v235h201c70 0 105 17.333 105 52c0 21.333 -15.333 51.666 -46 90.999l-69 88l132 190c90 -90 135 -199.333 135 -328zM329 -297.999l-124 -164l-169 112l124 166z" />
    <glyph glyph-name="afii62762" unicode="&#x628;" horiz-adv-x="509" arabic-form="medial" 
d="M509 0h-19c-96 0.666992 -159.333 36 -190 106c-50 -70 -129.667 -105.333 -239 -106h-131v235h123c102.667 0 154 35.667 154 107v80l167 55v-50c0 -128 41.333 -192 124 -192h11v-235zM380 -305l-124 -164l-169 112l124 166z" />
    <glyph glyph-name="afii62764" unicode="&#x629;" horiz-adv-x="892" arabic-form="final" 
d="M892 0c-13.333 0 -46.665 0.332031 -99.998 0.999023c-75.333 0.666992 -131.333 20.667 -168 60c-24.667 26.667 -45.334 71.667 -62.001 135c-48.667 -47.333 -128.667 -71 -240 -71c-54.667 0 -99.667 12.667 -135 38c-40 28 -60 68.333 -60 121
c0 136 110.667 270 332 402l-19 88l149 154l110 -545c13.333 -65.333 32 -107.666 56 -126.999c17.333 -14 50.666 -21 99.999 -21h37v-235zM526.001 366.999l-34 154c-34 -10 -69.667 -28.333 -107 -55c-47.333 -34 -71 -66 -71 -96c0 -19.333 29.333 -29 88 -29
c64 0 105.333 8.66699 124 26zM533.001 1077l-110 -149l-136 96l-80 -112l-172 117l110 149l144 -99l79 112z" />
    <glyph glyph-name="afii62767" unicode="&#x62a;" horiz-adv-x="1733" arabic-form="final" 
d="M1733 0h-39c-101.333 0.666992 -171 40.334 -209 119.001c-51.333 -68 -165.333 -117 -342 -147c-116.667 -20 -244.667 -30 -384 -30c-396 0 -594 116.333 -594 349c0 69.333 25.667 155 77 257l151 -47c-29.333 -64 -44 -109.667 -44 -137
c0 -56.667 21.667 -98.667 65 -126c64 -40 182.667 -60 356 -60h88c142.667 0 247.667 5 315 15c158.667 23.333 238 73 238 149v52l167 55v-48c0 -62.667 9.66699 -105.334 29 -128.001c21.333 -25.333 62.333 -38 123 -38h3v-235zM1120 839l-110 -149l-136 96l-80 -112
l-172 117l110 149l144 -99l79 112z" />
    <glyph glyph-name="afii62765" unicode="&#x62a;" horiz-adv-x="436" arabic-form="initial" 
d="M388 328c0 -106.667 -33 -188.666 -99 -245.999c-62.667 -54 -148.667 -81.333 -258 -82h-101v235h201c70 0 105 17.333 105 52c0 21.333 -15.333 51.666 -46 90.999l-69 88l132 190c90 -90 135 -199.333 135 -328zM427 926.001l-110 -149l-136 96l-80 -112l-172 117
l110 149l144 -99l79 112z" />
    <glyph glyph-name="afii62766" unicode="&#x62a;" horiz-adv-x="509" arabic-form="medial" 
d="M509 0h-19c-96 0.666992 -159.333 36 -190 106c-50 -70 -129.667 -105.333 -239 -106h-131v235h123c102.667 0 154 35.667 154 107v80l167 55v-50c0 -128 41.333 -192 124 -192h11v-235zM497 789l-110 -149l-136 96l-80 -112l-172 117l110 149l144 -99l79 112z" />
    <glyph glyph-name="afii62770" unicode="&#x62b;" horiz-adv-x="1733" arabic-form="final" 
d="M1733 0h-39c-101.333 0.666992 -171 40.334 -209 119.001c-51.333 -68 -165.333 -117 -342 -147c-116.667 -20 -244.667 -30 -384 -30c-396 0 -594 116.333 -594 349c0 69.333 25.667 155 77 257l151 -47c-29.333 -64 -44 -109.667 -44 -137
c0 -56.667 21.667 -98.667 65 -126c64 -40 182.667 -60 356 -60h88c142.667 0 247.667 5 315 15c158.667 23.333 238 73 238 149v52l167 55v-48c0 -62.667 9.66699 -105.334 29 -128.001c21.333 -25.333 62.333 -38 123 -38h3v-235zM624 732l102 140l133 -89l77 104
l156 -104l-106 -139l-133 88l-72 -104zM703 978l103 136l144 -97l-101 -137z" />
    <glyph glyph-name="afii62768" unicode="&#x62b;" horiz-adv-x="436" arabic-form="initial" 
d="M388 328c0 -106.667 -33 -188.666 -99 -245.999c-62.667 -54 -148.667 -81.333 -258 -82h-101v235h201c70 0 105 17.333 105 52c0 21.333 -15.333 51.666 -46 90.999l-69 88l132 190c90 -90 135 -199.333 135 -328zM-6 847.001l102 140l133 -89l77 104l156 -104
l-106 -139l-133 88l-72 -104zM73 1093l103 136l144 -97l-101 -137z" />
    <glyph glyph-name="afii62769" unicode="&#x62b;" horiz-adv-x="509" arabic-form="medial" 
d="M509 0h-19c-96 0.666992 -159.333 36 -190 106c-50 -70 -129.667 -105.333 -239 -106h-131v235h123c102.667 0 154 35.667 154 107v80l167 55v-50c0 -128 41.333 -192 124 -192h11v-235zM35 715l102 140l133 -89l77 104l156 -104l-106 -139l-133 88l-72 -104zM114 961
l103 136l144 -97l-101 -137z" />
    <glyph glyph-name="afii62773" unicode="&#x62c;" horiz-adv-x="1318" arabic-form="final" 
d="M1318 1l-212.004 -0.000976562c-156.667 0 -233.667 107.333 -231 322c-131.333 -42 -245 -107.333 -341 -196c-102.667 -95.333 -154 -191.666 -154 -288.999c0 -229.333 171.333 -344 514 -344c125.333 0 233.333 15 324 45l64 -201
c-135.333 -51.333 -275.666 -77 -420.999 -77c-207.333 0 -369.666 39 -486.999 117c-139.333 92.667 -209 237 -209 433c0 124.667 54.333 243.667 163 357c86 90 194 165.333 324 226c-118 14.667 -191.333 22 -220 22c-31.333 0 -63.333 -26.333 -96 -79
c-66 27.333 -117.333 52 -154 74c63.333 157.333 137.333 236 222 236c64.667 0 163 -7.5 295 -22.5s231.333 -22.5 298 -22.5c72.667 0 138.334 3.33301 197.001 10l-28 -240c-54 0 -110.667 -5.33301 -170 -16c4.66699 -34 12.334 -58.667 23.001 -74
c22 -31.333 62 -47 120 -47h179v-234zM875.996 -170.001l-124 -164l-169 112l124 166z" />
    <glyph glyph-name="afii62771" unicode="&#x62c;" horiz-adv-x="1081" arabic-form="initial" 
d="M1078 516l-27.001 -210c-84 0 -173 -26.333 -267 -79c-56.667 -34 -143 -83 -259 -147c-104 -52.667 -223 -79 -357 -79h-238v234h235c100 0 195.333 15.333 286 46c10 3.33301 83.667 30 221 80c-23.333 2.66699 -81.333 17.667 -174 45
c-85.333 25.333 -137.666 38 -156.999 38c-25.333 0 -46.666 -9 -63.999 -27l-37 -47c-60.667 24 -111.334 47.667 -152.001 71c60.667 146 134 219 220 219c56.667 0 163.5 -24.667 320.5 -74s279.167 -74 366.5 -74c28 0 55.667 1.33301 83 4zM752.999 -262l-124 -164
l-169 112l124 166z" />
    <glyph glyph-name="afii62772" unicode="&#x62c;" horiz-adv-x="1208" arabic-form="medial" 
d="M1208 1h-198.002c-156.667 0 -236.667 97.333 -240 292c-40 -22 -100.333 -64.333 -181 -127c-70.667 -54.667 -130 -93 -178 -115c-72 -33.333 -151 -50 -237 -50h-244v234h213c100 0 191.333 21 274 63l205 110c-26 2.66699 -78.333 11 -157 25
c-71.333 12.667 -112.666 19 -123.999 19c-28.667 0 -60.667 -27.333 -96 -82c-63.333 26 -113.666 49.667 -150.999 71c64 159.333 137.333 239 220 239c71.333 0 182.666 -17.667 333.999 -53s266 -53 344 -53c39.333 0 76.333 2 111 6l-27 -227
c-65.333 0 -127.333 -9 -186 -27c6.66699 -28 16.334 -47.667 29.001 -59c24 -21.333 65.333 -32 124 -32h165v-234zM736.998 -281l-124 -164l-169 112l124 166z" />
    <glyph glyph-name="afii62776" unicode="&#x62d;" horiz-adv-x="1318" arabic-form="final" 
d="M1318 1l-212.004 -0.000976562c-156.667 0 -233.667 107.333 -231 322c-131.333 -42 -245 -107.333 -341 -196c-102.667 -95.333 -154 -191.666 -154 -288.999c0 -229.333 171.333 -344 514 -344c125.333 0 233.333 15 324 45l64 -201
c-135.333 -51.333 -275.666 -77 -420.999 -77c-207.333 0 -369.666 39 -486.999 117c-139.333 92.667 -209 237 -209 433c0 124.667 54.333 243.667 163 357c86 90 194 165.333 324 226c-118 14.667 -191.333 22 -220 22c-31.333 0 -63.333 -26.333 -96 -79
c-66 27.333 -117.333 52 -154 74c63.333 157.333 137.333 236 222 236c64.667 0 163 -7.5 295 -22.5s231.333 -22.5 298 -22.5c72.667 0 138.334 3.33301 197.001 10l-28 -240c-54 0 -110.667 -5.33301 -170 -16c4.66699 -34 12.334 -58.667 23.001 -74
c22 -31.333 62 -47 120 -47h179v-234z" />
    <glyph glyph-name="afii62774" unicode="&#x62d;" horiz-adv-x="1081" arabic-form="initial" 
d="M1078 516l-27.001 -210c-84 0 -173 -26.333 -267 -79c-56.667 -34 -143 -83 -259 -147c-104 -52.667 -223 -79 -357 -79h-238v234h235c100 0 195.333 15.333 286 46c10 3.33301 83.667 30 221 80c-23.333 2.66699 -81.333 17.667 -174 45
c-85.333 25.333 -137.666 38 -156.999 38c-25.333 0 -46.666 -9 -63.999 -27l-37 -47c-60.667 24 -111.334 47.667 -152.001 71c60.667 146 134 219 220 219c56.667 0 163.5 -24.667 320.5 -74s279.167 -74 366.5 -74c28 0 55.667 1.33301 83 4z" />
    <glyph glyph-name="afii62775" unicode="&#x62d;" horiz-adv-x="1208" arabic-form="medial" 
d="M1208 1h-198.002c-156.667 0 -236.667 97.333 -240 292c-40 -22 -100.333 -64.333 -181 -127c-70.667 -54.667 -130 -93 -178 -115c-72 -33.333 -151 -50 -237 -50h-244v234h213c100 0 191.333 21 274 63l205 110c-26 2.66699 -78.333 11 -157 25
c-71.333 12.667 -112.666 19 -123.999 19c-28.667 0 -60.667 -27.333 -96 -82c-63.333 26 -113.666 49.667 -150.999 71c64 159.333 137.333 239 220 239c71.333 0 182.666 -17.667 333.999 -53s266 -53 344 -53c39.333 0 76.333 2 111 6l-27 -227
c-65.333 0 -127.333 -9 -186 -27c6.66699 -28 16.334 -47.667 29.001 -59c24 -21.333 65.333 -32 124 -32h165v-234z" />
    <glyph glyph-name="afii62779" unicode="&#x62e;" horiz-adv-x="1318" arabic-form="final" 
d="M1318 1l-212.004 -0.000976562c-156.667 0 -233.667 107.333 -231 322c-131.333 -42 -245 -107.333 -341 -196c-102.667 -95.333 -154 -191.666 -154 -288.999c0 -229.333 171.333 -344 514 -344c125.333 0 233.333 15 324 45l64 -201
c-135.333 -51.333 -275.666 -77 -420.999 -77c-207.333 0 -369.666 39 -486.999 117c-139.333 92.667 -209 237 -209 433c0 124.667 54.333 243.667 163 357c86 90 194 165.333 324 226c-118 14.667 -191.333 22 -220 22c-31.333 0 -63.333 -26.333 -96 -79
c-66 27.333 -117.333 52 -154 74c63.333 157.333 137.333 236 222 236c64.667 0 163 -7.5 295 -22.5s231.333 -22.5 298 -22.5c72.667 0 138.334 3.33301 197.001 10l-28 -240c-54 0 -110.667 -5.33301 -170 -16c4.66699 -34 12.334 -58.667 23.001 -74
c22 -31.333 62 -47 120 -47h179v-234zM843.996 971.999l-124 -164l-169 112l124 166z" />
    <glyph glyph-name="afii62777" unicode="&#x62e;" horiz-adv-x="1081" arabic-form="initial" 
d="M1078 516l-27.001 -210c-84 0 -173 -26.333 -267 -79c-56.667 -34 -143 -83 -259 -147c-104 -52.667 -223 -79 -357 -79h-238v234h235c100 0 195.333 15.333 286 46c10 3.33301 83.667 30 221 80c-23.333 2.66699 -81.333 17.667 -174 45
c-85.333 25.333 -137.666 38 -156.999 38c-25.333 0 -46.666 -9 -63.999 -27l-37 -47c-60.667 24 -111.334 47.667 -152.001 71c60.667 146 134 219 220 219c56.667 0 163.5 -24.667 320.5 -74s279.167 -74 366.5 -74c28 0 55.667 1.33301 83 4zM743.999 938l-124 -164
l-169 112l124 166z" />
    <glyph glyph-name="afii62778" unicode="&#x62e;" horiz-adv-x="1208" arabic-form="medial" 
d="M1208 1h-198.002c-156.667 0 -236.667 97.333 -240 292c-40 -22 -100.333 -64.333 -181 -127c-70.667 -54.667 -130 -93 -178 -115c-72 -33.333 -151 -50 -237 -50h-244v234h213c100 0 191.333 21 274 63l205 110c-26 2.66699 -78.333 11 -157 25
c-71.333 12.667 -112.666 19 -123.999 19c-28.667 0 -60.667 -27.333 -96 -82c-63.333 26 -113.666 49.667 -150.999 71c64 159.333 137.333 239 220 239c71.333 0 182.666 -17.667 333.999 -53s266 -53 344 -53c39.333 0 76.333 2 111 6l-27 -227
c-65.333 0 -127.333 -9 -186 -27c6.66699 -28 16.334 -47.667 29.001 -59c24 -21.333 65.333 -32 124 -32h165v-234zM789.998 990l-124 -164l-169 112l124 166z" />
    <glyph glyph-name="afii62780" unicode="&#x62f;" horiz-adv-x="1108" arabic-form="final" 
d="M1108 1h-41c-134.667 0 -229.667 54.333 -285 163c-54.667 -127.333 -164.334 -191 -329.001 -191c-131.333 0 -227.666 36.333 -288.999 109l71 188c55.333 -42 135.333 -63 240 -63c158 0 237 35.333 237 106c0 12 -2.33301 24.667 -7 38l-137 390l163 148l135 -434
c22.667 -72.667 43.667 -122.667 63 -150c32 -46.667 77 -70 135 -70h44v-234z" />
    <glyph glyph-name="afii62781" unicode="&#x630;" horiz-adv-x="1108" arabic-form="final" 
d="M1108 1h-41c-134.667 0 -229.667 54.333 -285 163c-54.667 -127.333 -164.334 -191 -329.001 -191c-131.333 0 -227.666 36.333 -288.999 109l71 188c55.333 -42 135.333 -63 240 -63c158 0 237 35.333 237 106c0 12 -2.33301 24.667 -7 38l-137 390l163 148l135 -434
c22.667 -72.667 43.667 -122.667 63 -150c32 -46.667 77 -70 135 -70h44v-234zM727 1149l-124 -164l-169 112l124 166z" />
    <glyph glyph-name="afii62782" unicode="&#x631;" horiz-adv-x="834" arabic-form="final" 
d="M834 0h-35.999c-52.667 0.666992 -91 14 -115 40c-10 -118 -70 -228.667 -180 -332c-92 -86 -202 -154 -330 -204l-170 117c100 42.667 202.667 101.667 308 177c142 101.333 213 187.333 213 258c0 39.333 -36 108 -108 206l159 171c48 -79.333 85.333 -131 112 -155
c31.333 -28.667 71.666 -43 120.999 -43h26v-235z" />
    <glyph glyph-name="afii62783" unicode="&#x632;" horiz-adv-x="834" arabic-form="final" 
d="M834 0h-35.999c-52.667 0.666992 -91 14 -115 40c-10 -118 -70 -228.667 -180 -332c-92 -86 -202 -154 -330 -204l-170 117c100 42.667 202.667 101.667 308 177c142 101.333 213 187.333 213 258c0 39.333 -36 108 -108 206l159 171c48 -79.333 85.333 -131 112 -155
c31.333 -28.667 71.666 -43 120.999 -43h26v-235zM586.001 712l-124 -164l-169 112l124 166z" />
    <glyph glyph-name="afii62786" unicode="&#x633;" horiz-adv-x="2026" arabic-form="final" 
d="M2026 0h-39.0029c-53.333 -0 -95.666 10.333 -126.999 31c-23.333 14.667 -46 39.667 -68 75c-42.667 -70 -104 -105 -184 -105c-75.333 0 -131.333 35 -168 105c-52.667 -70 -116 -105 -190 -105c-61.333 0 -101.666 13.667 -120.999 41
c0 -161.333 -49.667 -295 -149 -401c-101.333 -108.667 -232.333 -163 -393 -163c-161.333 0 -282 50.667 -362 152c-64.667 81.333 -97 185.666 -97 312.999c0 102 27.667 208.333 83 319l156 -55c-36.667 -94.667 -55 -168 -55 -220c0 -89.333 27 -158 81 -206
c52 -46 123.333 -69 214 -69c96.667 0 176.667 27 240 81c67.333 56.667 101 132.334 101 227.001c0 91.333 -33 181.333 -99 270l176 165c24.667 -50.667 56.334 -97 95.001 -139c49.333 -54 92.666 -81 129.999 -81c71.333 0 107 34 107 102v74l143 49v-66
c0 -106 37.667 -159 113 -159c84.667 0 127 34 127 102v74l145 49v-66c0 -64.667 3 -103.667 9 -117c12.667 -28 46.334 -42 101.001 -42h31v-235z" />
    </font>
</defs>
</svg>
