<?xml version="1.0" standalone="no"?>
<!DOCTYPE svg PUBLIC "-//W3C//DTD SVG 1.1//EN" "http://www.w3.org/Graphics/SVG/1.1/DTD/svg11.dtd" >
<svg>
<metadata>
Created by FontForge 20090914 at Wed Aug 26 07:46:36 2015
 By www-data
Typeface &#194;&#169; The scict.ir Corporation plc. Data &#194;&#169; The scict.ir Corporation plc/Type Solutions Inc. 2012-2013. All Rights Reserved.Modify  by Hossein Zahedi.
</metadata>
<defs>
<font id="IRRoya-Italic" horiz-adv-x="0" >
  <font-face 
    font-family="IRRoya"
    font-weight="400"
    font-style="italic"
    font-stretch="normal"
    units-per-em="2048"
    panose-1="2 0 5 6 0 0 0 9 0 2"
    ascent="1638"
    descent="-410"
    x-height="783.999"
    cap-height="1153"
    bbox="-688.262 -1074 2524 1937"
    underline-thickness="60"
    underline-position="-40"
    unicode-range="U+0020-U+FFFC"
  />
<missing-glyph horiz-adv-x="1063" 
 />
    <glyph glyph-name="afii64184" unicode="&#xfedf;&#xfee0;&#x651;&#x670;&#xfeea;" horiz-adv-x="1443" arabic-form="isolated" 
d="M1291 318c20.667 -98 12.666 -175.998 -24.001 -233.998c-31.333 -48.667 -72.333 -73 -123 -73c-100.667 0 -180.667 48.333 -240 145c-23.333 -114 -86.333 -171 -189 -171c-146 0 -240.667 94 -284 282c-46 -46 -111 -69 -195 -69c-12.667 0 -26 0.666992 -40 2
c-98 8 -155 49.667 -171 125c-25.333 123.333 80 232.666 316 327.999l-29 142l85 46l78 -369c24.667 -116.667 42.334 -187.334 53.001 -212.001c34.667 -80 88.334 -120 161.001 -120c62 0 97 31.333 105 94c4 36 -2.33301 93.333 -19 172l-98 462l98 40l74 -348
c25.333 -118 49.666 -201.333 72.999 -250c46.667 -100 111.667 -150 195 -150c63.333 0 82.333 61 57 183c-36 169.333 -93 368 -171 596l111 58c82 -284.667 141 -511 177 -679zM398.999 374.002l-43 172.999c-41.333 -6.66699 -87 -26.667 -137 -60
c-58.667 -39.333 -84.334 -76.666 -77.001 -111.999c4.66699 -23.333 42.667 -35 114 -35c66.667 0 114.334 11.333 143.001 34zM687.999 1241l-35 -19l-77 187l68 36zM835.999 1208c17.333 -34 29.002 -65.999 35.002 -95.999c18 -84.667 -6.66699 -127 -74 -127
c-31.333 0 -62 23.667 -92 71c-22 -68 -55 -102 -99 -102c-44.667 0 -72.667 26 -84 78c-7.33301 34 -4 70 10 108h37c-3.33301 -28 -3.33301 -49.667 0 -65c5.33301 -25.333 21.666 -38 48.999 -38c39.333 0 56.666 41.667 51.999 125l40 16
c19.333 -74.667 45.333 -112 78 -112c29.333 0 40 18.667 32 56c-4 19.333 -13.333 42.666 -28 69.999z" />
    <glyph glyph-name="afii62834" unicode="&#xfedf;&#xfe82;" horiz-adv-x="1069" arabic-form="isolated" 
d="M726 1273c36.667 -128.667 62 -226.001 76 -292.001c54 -255.333 51 -441.333 -9 -558c41.333 -59.333 67.333 -99.333 78 -120c18 -34.667 33 -80 45 -136c28 -132.667 -53.667 -199 -245 -199c-111.333 0 -219.666 17.667 -324.999 53l-4 130
c69.333 -0.666992 137.333 26.333 204 81c64.667 54 104 113.333 118 178c-80 98 -184.333 199.333 -313 304c-150.667 122 -294.334 213.667 -431.001 275l-8 184c136.667 -68.667 282 -169 436 -301c132 -113.333 251.333 -232.666 358 -357.999
c26.667 89.333 20 228.333 -20 417c-16 74 -41.667 171.667 -77 293zM809 146.999c8 7.33301 10.002 20.667 6.00195 40c-8.66699 39.333 -34.334 87 -77.001 143c-20 -39.333 -38.333 -71 -55 -95c-30.667 -42 -62.334 -71 -95.001 -87c39.333 -14 83 -21 131 -21
c50.667 0 80.667 6.66699 90 20zM252.002 1391c-15.333 -37.333 -40.001 -68.333 -74.001 -93c-36.667 -26.667 -76 -40 -118 -40c-25.333 0 -63.666 4.33301 -114.999 13s-89.333 13 -114 13c-42 0 -80.333 -15.667 -115 -47l-76 72c40 56 89.667 84 149 84
c24 0 60.667 -3.83301 110 -11.5s86.333 -11.5 111 -11.5c74.667 0 137.667 29.333 189 88z" />
    <glyph glyph-name="afii62835" unicode="&#xfee0;&#xfe82;" horiz-adv-x="1264" arabic-form="final" 
d="M1278 0h-33.998c-90.667 -0 -173.667 48.333 -249 145c-56.667 72 -102.334 160.333 -137.001 265c-10.667 -260.667 -173.667 -415.334 -489 -464.001l-81 103c100 22.667 191 59.334 273 110.001c88 55.333 134.333 110 139 164c0.666992 6.66699 0 14 -2 22
c-18.667 88 -129.667 205 -333 351c-164 116.667 -309.667 204 -437 262l-6 170c181.333 -96 349.333 -206.333 504 -331c174.667 -140.667 285.667 -265 333 -373c7.33301 112.667 -9.66699 266.334 -51 461.001c-24 114 -52.667 225.333 -86 334l121 50l114 -530
c42 -184.667 89 -324.334 141 -419.001c63.333 -113.333 140.666 -170 231.999 -170h16zM281.002 1348c-15.333 -37.333 -40.001 -68.333 -74.001 -93c-36.667 -26.667 -76 -40 -118 -40c-25.333 0 -63.666 4.33301 -114.999 13s-89.333 13 -114 13
c-42 0 -80.333 -15.667 -115 -47l-76 72c40 56 89.667 84 149 84c24 0 60.667 -3.83301 110 -11.5s86.333 -11.5 111 -11.5c74.667 0 137.667 29.333 189 88z" />
    <glyph glyph-name="afii62836" unicode="&#xfedf;&#xfe84;" horiz-adv-x="1059" arabic-form="isolated" 
d="M726 1273c36.667 -128.667 62 -226.001 76 -292.001c54 -255.333 51 -441.333 -9 -558c41.333 -59.333 67.333 -99.333 78 -120c18 -34.667 33 -80 45 -136c28 -132.667 -53.667 -199 -245 -199c-111.333 0 -219.666 17.667 -324.999 53l-4 130
c69.333 -0.666992 137.333 26.333 204 81c64.667 54 104 113.333 118 178c-80 98 -184.333 199.333 -313 304c-150.667 122 -294.334 213.667 -431.001 275l-8 184c136.667 -68.667 282 -169 436 -301c132 -113.333 251.333 -232.666 358 -357.999
c26.667 89.333 20 228.333 -20 417c-16 74 -41.667 171.667 -77 293zM809 146.999c8 7.33301 10.002 20.667 6.00195 40c-8.66699 39.333 -34.334 87 -77.001 143c-20 -39.333 -38.333 -71 -55 -95c-30.667 -42 -62.334 -71 -95.001 -87c39.333 -14 83 -21 131 -21
c50.667 0 80.667 6.66699 90 20zM105.002 1322l-362 -98.001l-14 67l89 41c-39.333 32.667 -62.333 65 -69 97c-8 37.333 0 71.5 24 102.5s54.667 46.5 92 46.5c44.667 0 86 -12.667 124 -38l-12 -57c-31.333 10 -64 15 -98 15c-16.667 0 -33 -4.66699 -49 -14
c-18.667 -11.333 -26.667 -24.666 -24 -39.999c10 -46 54.667 -69 134 -69c10.667 0 59 14 145 42z" />
    <glyph glyph-name="afii62837" unicode="&#xfee0;&#xfe84;" horiz-adv-x="1264" arabic-form="final" 
d="M1278 0h-33.998c-90.667 -0 -173.667 48.333 -249 145c-56.667 72 -102.334 160.333 -137.001 265c-10.667 -260.667 -173.667 -415.334 -489 -464.001l-81 103c100 22.667 191 59.334 273 110.001c88 55.333 134.333 110 139 164c0.666992 6.66699 0 14 -2 22
c-18.667 88 -129.667 205 -333 351c-164 116.667 -309.667 204 -437 262l-6 170c181.333 -96 349.333 -206.333 504 -331c174.667 -140.667 285.667 -265 333 -373c7.33301 112.667 -9.66699 266.334 -51 461.001c-24 114 -52.667 225.333 -86 334l121 50l114 -530
c42 -184.667 89 -324.334 141 -419.001c63.333 -113.333 140.666 -170 231.999 -170h16zM133.002 1272l-362 -98.001l-14 67l89 41c-39.333 32.667 -62.333 65 -69 97c-8 37.333 0 71.5 24 102.5s54.667 46.5 92 46.5c44.667 0 86 -12.667 124 -38l-12 -57
c-31.333 10 -64 15 -98 15c-16.667 0 -33 -4.66699 -49 -14c-18.667 -11.333 -26.667 -24.666 -24 -39.999c10 -46 54.667 -69 134 -69c10.667 0 59 14 145 42z" />
    <glyph glyph-name="afii62838" unicode="&#xfedf;&#xfe88;" horiz-adv-x="1059" arabic-form="isolated" 
d="M726 1273c36.667 -128.667 62 -226.001 76 -292.001c54 -255.333 51 -441.333 -9 -558c41.333 -59.333 67.333 -99.333 78 -120c18 -34.667 33 -80 45 -136c28 -132.667 -53.667 -199 -245 -199c-111.333 0 -219.666 17.667 -324.999 53l-4 130
c69.333 -0.666992 137.333 26.333 204 81c64.667 54 104 113.333 118 178c-80 98 -184.333 199.333 -313 304c-150.667 122 -294.334 213.667 -431.001 275l-8 184c136.667 -68.667 282 -169 436 -301c132 -113.333 251.333 -232.666 358 -357.999
c26.667 89.333 20 228.333 -20 417c-16 74 -41.667 171.667 -77 293zM809 146.999c8 7.33301 10.002 20.667 6.00195 40c-8.66699 39.333 -34.334 87 -77.001 143c-20 -39.333 -38.333 -71 -55 -95c-30.667 -42 -62.334 -71 -95.001 -87c39.333 -14 83 -21 131 -21
c50.667 0 80.667 6.66699 90 20zM725.002 -359l-362 -98.001l-14 67l89 41c-39.333 32.667 -62.333 65 -69 97c-8 37.333 0 71.5 24 102.5s54.667 46.5 92 46.5c44.667 0 86 -12.667 124 -38l-12 -57c-31.333 10 -64 15 -98 15c-16.667 0 -33 -4.66699 -49 -14
c-18.667 -11.333 -26.667 -24.666 -24 -39.999c10 -46 54.667 -69 134 -69c10.667 0 59 14 145 42z" />
    <glyph glyph-name="afii62839" unicode="&#xfee0;&#xfe88;" horiz-adv-x="1264" arabic-form="final" 
d="M1278 0h-33.998c-90.667 -0 -173.667 48.333 -249 145c-56.667 72 -102.334 160.333 -137.001 265c-10.667 -260.667 -173.667 -415.334 -489 -464.001l-81 103c100 22.667 191 59.334 273 110.001c88 55.333 134.333 110 139 164c0.666992 6.66699 0 14 -2 22
c-18.667 88 -129.667 205 -333 351c-164 116.667 -309.667 204 -437 262l-6 170c181.333 -96 349.333 -206.333 504 -331c174.667 -140.667 285.667 -265 333 -373c7.33301 112.667 -9.66699 266.334 -51 461.001c-24 114 -52.667 225.333 -86 334l121 50l114 -530
c42 -184.667 89 -324.334 141 -419.001c63.333 -113.333 140.666 -170 231.999 -170h16zM705.002 -371l-362 -98.001l-14 67l89 41c-39.333 32.667 -62.333 65 -69 97c-8 37.333 0 71.5 24 102.5s54.667 46.5 92 46.5c44.667 0 86 -12.667 124 -38l-12 -57
c-31.333 10 -64 15 -98 15c-16.667 0 -33 -4.66699 -49 -14c-18.667 -11.333 -26.667 -24.666 -24 -39.999c10 -46 54.667 -69 134 -69c10.667 0 59 14 145 42z" />
    <glyph glyph-name="afii62840" unicode="&#xfedf;&#xfe8e;" horiz-adv-x="1059" arabic-form="isolated" 
d="M726 1273c36.667 -128.667 62 -226.001 76 -292.001c54 -255.333 51 -441.333 -9 -558c41.333 -59.333 67.333 -99.333 78 -120c18 -34.667 33 -80 45 -136c28 -132.667 -53.667 -199 -245 -199c-111.333 0 -219.666 17.667 -324.999 53l-4 130
c69.333 -0.666992 137.333 26.333 204 81c64.667 54 104 113.333 118 178c-80 98 -184.333 199.333 -313 304c-150.667 122 -294.334 213.667 -431.001 275l-8 184c136.667 -68.667 282 -169 436 -301c132 -113.333 251.333 -232.666 358 -357.999
c26.667 89.333 20 228.333 -20 417c-16 74 -41.667 171.667 -77 293zM809 146.999c8 7.33301 10.002 20.667 6.00195 40c-8.66699 39.333 -34.334 87 -77.001 143c-20 -39.333 -38.333 -71 -55 -95c-30.667 -42 -62.334 -71 -95.001 -87c39.333 -14 83 -21 131 -21
c50.667 0 80.667 6.66699 90 20z" />
    <glyph glyph-name="afii62841" unicode="&#xfee0;&#xfe8e;" horiz-adv-x="1264" arabic-form="final" 
d="M1278 0h-33.998c-90.667 -0 -173.667 48.333 -249 145c-56.667 72 -102.334 160.333 -137.001 265c-10.667 -260.667 -173.667 -415.334 -489 -464.001l-81 103c100 22.667 191 59.334 273 110.001c88 55.333 134.333 110 139 164c0.666992 6.66699 0 14 -2 22
c-18.667 88 -129.667 205 -333 351c-164 116.667 -309.667 204 -437 262l-6 170c181.333 -96 349.333 -206.333 504 -331c174.667 -140.667 285.667 -265 333 -373c7.33301 112.667 -9.66699 266.334 -51 461.001c-24 114 -52.667 225.333 -86 334l121 50l114 -530
c42 -184.667 89 -324.334 141 -419.001c63.333 -113.333 140.666 -170 231.999 -170h16z" />
    <glyph glyph-name="uni0672.fina" unicode="&#x672;" horiz-adv-x="473" 
d="M473 0l-30 0.000976562c-104.667 0.666992 -188 45.667 -250 135c-42.667 61.333 -79.667 153.333 -111 276c-11.333 45.333 -39 166.666 -83 363.999c-31.333 138.667 -69 280.667 -113 426l118 68l193 -831c20.667 -86 43.667 -149.333 69 -190
c40.667 -65.333 96 -98 166 -98h9zM-85 1522c2 1.33301 -4.16504 7.99902 -18.498 19.999s-28.833 20.333 -43.5 25c-10.667 2.66699 -24 -0.833008 -40 -10.5s-24.667 -23.834 -26 -42.501c9.33301 -20.667 22.666 -35.5 39.999 -44.5s36.666 -14.5 57.999 -16.5
s42.833 -1.16699 64.5 2.5s40.834 7.83398 57.501 12.501c7.33301 2 10.166 -2.16699 8.49902 -12.5s-5.16699 -23.833 -10.5 -40.5c-28.667 -25.333 -80.667 -40.666 -156 -45.999s-116.333 -23.666 -123 -54.999c-6.66699 -2.66699 -10.5 1.5 -11.5 12.5
s-0.833008 19.833 0.5 26.5c5.33301 26 26.333 41.167 63 45.5s62 10.166 76 17.499c-16.667 0.666992 -37.334 6.83398 -62.001 18.501s-38.667 33.834 -42 66.501c-4.66699 25.333 -2.33398 48.166 6.99902 68.499s22.5 36 39.5 47s38 15.167 63 12.5
s51.167 -14.667 78.5 -36c8.66699 -10.667 10.334 -21.834 5.00098 -33.501s-14.666 -24.167 -27.999 -37.5z" />
    <glyph glyph-name="uni0673.fina" unicode="&#x673;" horiz-adv-x="473" 
d="M473 0l-30 0.000976562c-104.667 0.666992 -188 45.667 -250 135c-42.667 61.333 -79.667 153.333 -111 276c-11.333 45.333 -39 166.666 -83 363.999c-31.333 138.667 -69 280.667 -113 426l118 68l193 -831c20.667 -86 43.667 -149.333 69 -190
c40.667 -65.333 96 -98 166 -98h9zM327 -213.999c2 1.33301 -4.16504 7.99902 -18.498 19.999s-28.833 20.333 -43.5 25c-10.667 2.66699 -24 -0.833008 -40 -10.5s-24.667 -23.834 -26 -42.501c9.33301 -20.667 22.666 -35.5 39.999 -44.5s36.666 -14.5 57.999 -16.5
s42.833 -1.16699 64.5 2.5s40.834 7.83398 57.501 12.501c7.33301 2 10.166 -2.16699 8.49902 -12.5s-5.16699 -23.833 -10.5 -40.5c-28.667 -25.333 -80.667 -40.666 -156 -45.999s-116.333 -23.666 -123 -54.999c-6.66699 -2.66699 -10.5 1.5 -11.5 12.5
s-0.833008 19.833 0.5 26.5c5.33301 26 26.333 41.167 63 45.5s62 10.166 76 17.499c-16.667 0.666992 -37.334 6.83398 -62.001 18.501s-38.667 33.834 -42 66.501c-4.66699 25.333 -2.33398 48.166 6.99902 68.499s22.5 36 39.5 47s38 15.167 63 12.5
s51.167 -14.667 78.5 -36c8.66699 -10.667 10.334 -21.834 5.00098 -33.501s-14.666 -24.167 -27.999 -37.5z" />
    <glyph glyph-name="uni0675.fina" unicode="&#x675;" horiz-adv-x="473" 
d="M473 0l-30 0.000976562c-104.667 0.666992 -188 45.667 -250 135c-42.667 61.333 -79.667 153.333 -111 276c-11.333 45.333 -39 166.666 -83 363.999c-31.333 138.667 -69 280.667 -113 426l118 68l193 -831c20.667 -86 43.667 -149.333 69 -190
c40.667 -65.333 96 -98 166 -98h9zM57 1408l-362 -98.001l-14 67l89 41c-39.333 32.667 -62.333 65 -69 97c-8 37.333 0 71.5 24 102.5s54.667 46.5 92 46.5c44.667 0 86 -12.667 124 -38l-12 -57c-31.333 10 -64 15 -98 15c-16.667 0 -33 -4.66699 -49 -14
c-18.667 -11.333 -26.667 -24.666 -24 -39.999c10 -46 54.667 -69 134 -69c10.667 0 59 14 145 42z" />
    <glyph glyph-name="uni0676.fina" unicode="&#x676;" horiz-adv-x="739" 
d="M739 0h-129c8 -242 -111 -421 -357 -537l-117 105c117.333 72.667 200.333 133.667 249 183c74 75.333 109.667 158.333 107 249c-32.667 -4.66699 -66.667 -7 -102 -7c-148.667 -4 -234.334 47.333 -257.001 154c-13.333 64.667 -8.66602 132.667 14.001 204
c26 82 68.667 123 128 123c75.333 0 142 -37 200 -111c44.667 -56 80.667 -127 108 -213h124zM445 151c-10.667 40 -28.001 75.999 -52.001 107.999c-29.333 40.667 -61.333 61 -96 61c-24 0 -42 -13.167 -54 -39.5s-15.333 -51.833 -10 -76.5
c6.66699 -32 43.334 -50.333 110.001 -55c45.333 -1.33301 79.333 -0.666016 102 2.00098zM411.999 680.999l-362 -98.001l-14 67l89 41c-39.333 32.667 -62.333 65 -69 97c-8 37.333 0 71.5 24 102.5s54.667 46.5 92 46.5c44.667 0 86 -12.667 124 -38l-12 -57
c-31.333 10 -64 15 -98 15c-16.667 0 -33 -4.66699 -49 -14c-18.667 -11.333 -26.667 -24.666 -24 -39.999c10 -46 54.667 -69 134 -69c10.667 0 59 14 145 42z" />
    <glyph glyph-name="uni0677.fina" unicode="&#x677;" horiz-adv-x="739" 
d="M739 0h-129c8 -242 -111 -421 -357 -537l-117 105c117.333 72.667 200.333 133.667 249 183c74 75.333 109.667 158.333 107 249c-32.667 -4.66699 -66.667 -7 -102 -7c-148.667 -4 -234.334 47.333 -257.001 154c-13.333 64.667 -8.66602 132.667 14.001 204
c26 82 68.667 123 128 123c75.333 0 142 -37 200 -111c44.667 -56 80.667 -127 108 -213h124zM445 151c-10.667 40 -28.001 75.999 -52.001 107.999c-29.333 40.667 -61.333 61 -96 61c-24 0 -42 -13.167 -54 -39.5s-15.333 -51.833 -10 -76.5
c6.66699 -32 43.334 -50.333 110.001 -55c45.333 -1.33301 79.333 -0.666016 102 2.00098zM606.745 686.673l-329.016 -89.1416l-12.7236 60.9434l80.8896 37.2939c-35.749 29.7139 -56.6533 59.124 -62.7119 88.2314c-7.27148 33.959 -0.000976562 65.0371 21.8125 93.2354
s49.6855 42.2969 83.6162 42.2969c40.5967 0 78.1631 -11.5215 112.7 -34.5654l-10.9062 -51.8477c-28.4775 9.0957 -58.167 13.6436 -89.0684 13.6436c-15.1475 0 -29.9922 -4.24512 -44.5342 -12.7344c-16.9658 -10.3086 -24.2363 -22.4365 -21.8125 -36.3838
c9.08887 -41.8418 49.6855 -62.7627 121.79 -62.7627c9.69434 0 53.623 12.7344 131.786 38.2031zM195.638 830.997c11.8701 -56.3271 -4.13086 -106.195 -48.001 -149.604l58.8369 -35.6572l-29.418 -41.083c-18.5801 9.81934 -39.999 25.8389 -64.2568 48.0596
c-59.3525 -49.6094 -131.608 -83.7158 -216.768 -102.319l-34.8369 51.1602c90.8359 31.5225 152.77 64.0781 185.801 97.668c-27.8701 31.0059 -43.6113 55.0352 -47.2236 72.0889c-6.70996 30.4893 -0.774414 61.624 17.8057 93.4053
c18.5801 31.7803 42.3213 47.6709 71.2236 47.6709c23.7412 0 46.3213 -7.75098 67.7402 -23.2539s34.4512 -34.8818 39.0967 -58.1357zM142.993 806.967c-6.19336 28.9385 -26.0625 43.4082 -59.6104 43.4082c-12.9033 0 -24.1289 -7.75098 -33.6768 -23.2539
s-13.0312 -30.2305 -10.4512 -44.1826c5.16113 -24.2881 25.0312 -43.9248 59.6104 -58.9111c35.0957 28.9385 49.8047 56.585 44.1279 82.9395z" />
    <glyph glyph-name="uni0678.fina" unicode="&#x678;" horiz-adv-x="1129" 
d="M1129 0l-199.002 0.00195312c-99.333 0.666992 -146.666 -10 -141.999 -32c4 -16.667 45.333 -31.334 124 -44.001c81.333 -12.667 135 -25 161 -37c53.333 -24 86.333 -65.333 99 -124c19.333 -91.333 -37 -168.666 -169 -231.999
c-107.333 -52.667 -213.333 -79 -318 -79c-139.333 0 -255 32.667 -347 98c-98.667 70.667 -162.667 174.667 -192 312c-21.333 99.333 -14.666 203.333 20.001 312l116 -37c-24 -88 -28 -168.667 -12 -242c20.667 -98.667 68.667 -173.334 144 -224.001
c68.667 -45.333 153.667 -68 255 -68c174 0 305 39.667 393 119c8 7.33301 11.333 14.666 10 21.999c-2 10 -10.667 16 -26 18c-135.333 20 -228.333 40.333 -279 61c-16.667 7.33301 -32.667 22 -48 44s-25 42.333 -29 61c-31.333 148 83 222 343 222h64zM623.998 456.002
l-362 -98.001l-14 67l89 41c-39.333 32.667 -62.333 65 -69 97c-8 37.333 0 71.5 24 102.5s54.667 46.5 92 46.5c44.667 0 86 -12.667 124 -38l-12 -57c-31.333 10 -64 15 -98 15c-16.667 0 -33 -4.66699 -49 -14c-18.667 -11.333 -26.667 -24.666 -24 -39.999
c10 -46 54.667 -69 134 -69c10.667 0 59 14 145 42z" />
    <glyph glyph-name="uni067C.init" unicode="&#x67c;" horiz-adv-x="417" 
d="M315 258c36 -171.333 -45.335 -257.333 -244.002 -258h-123l-31 150h130c115.333 0 166.333 31 153 93c-7.33301 33.333 -32.666 72 -75.999 116l-43 44l79 113c82.667 -74.667 134.334 -160.667 155.001 -258zM197.998 783l-63 -111l-131 84l-60 -100l-139 86l68 113
l126 -82l59 96zM400.998 -81c9.33301 -45.333 3.66797 -84.333 -16.999 -117c-22.667 -34 -56.334 -51 -101.001 -51c-38.667 0 -73.167 12.333 -103.5 37s-49.5 56 -57.5 94c-14 64.667 -9.33301 116 14 154c18 31.333 41.667 47 71 47c33.333 0 70 -14 110 -42
c45.333 -33.333 73.333 -74 84 -122zM339 -89c-6 27.333 -22.001 49.667 -48.001 67c-23.333 16 -49.333 24 -78 24c-14 0 -25.167 -10.5 -33.5 -31.5s-11.5 -39.167 -9.5 -54.5c10.667 -48.667 42.334 -73 95.001 -73c22 0 40.333 5.66699 55 17
c16.667 12.667 23 29.667 19 51z" />
    <glyph glyph-name="uni067C.medi" unicode="&#x67c;" horiz-adv-x="548" 
d="M547 1h-54c-116.667 0 -202 40.667 -256 122c-10 -36.667 -32.5 -66.167 -67.5 -88.5s-73.833 -33.5 -116.5 -33.5h-123l-31 149h114c49.333 0 88.333 11.333 117 34c33.333 26 45 62.667 35 110l-13 63l96 27c21.333 -96.667 52.333 -161.667 93 -195
c32 -26 80.333 -39 145 -39h30zM291 704l-63 -111l-131 84l-60 -100l-139 86l68 113l126 -82l59 96zM306 -82c9.33301 -45.333 3.66797 -84.333 -16.999 -117c-22.667 -34 -56.334 -51 -101.001 -51c-38.667 0 -73.167 12.333 -103.5 37s-49.5 56 -57.5 94
c-14 64.667 -9.33301 116 14 154c18 31.333 41.667 47 71 47c33.333 0 70 -14 110 -42c45.333 -33.333 73.333 -74 84 -122zM244.002 -90c-6 27.333 -22.001 49.667 -48.001 67c-23.333 16 -49.333 24 -78 24c-14 0 -25.167 -10.5 -33.5 -31.5s-11.5 -39.167 -9.5 -54.5
c10.667 -48.667 42.334 -73 95.001 -73c22 0 40.333 5.66699 55 17c16.667 12.667 23 29.667 19 51z" />
    <glyph glyph-name="uni067C.fina" unicode="&#x67c;" horiz-adv-x="1673" 
d="M1673 0h-31.001c-118 0.666992 -197.667 51 -239 151c-81.333 -128 -325.666 -192 -732.999 -192c-184.667 0 -321.667 20.333 -411 61c-100 46 -162 124.667 -186 236c-14.667 70 -7.33398 133 21.999 189l100 -29c-15.333 -46 -18.666 -89.333 -9.99902 -130
c16.667 -80 78.334 -132.667 185.001 -158c51.333 -12 134.666 -18 249.999 -18h49c141.333 0 272 10 392 30c196.667 32.667 293.667 86.667 291 162l-2 56l77 27c16 -75.333 35.333 -129.333 58 -162c33.333 -48.667 83 -73 149 -73h7zM862.999 711l-63 -111l-131 84
l-60 -100l-139 86l68 113l126 -82l59 96zM1004 -138c9.33301 -45.333 3.66797 -84.333 -16.999 -117c-22.667 -34 -56.334 -51 -101.001 -51c-38.667 0 -73.167 12.333 -103.5 37s-49.5 56 -57.5 94c-14 64.667 -9.33301 116 14 154c18 31.333 41.667 47 71 47
c33.333 0 70 -14 110 -42c45.333 -33.333 73.333 -74 84 -122zM942.001 -146c-6 27.333 -22.001 49.667 -48.001 67c-23.333 16 -49.333 24 -78 24c-14 0 -25.167 -10.5 -33.5 -31.5s-11.5 -39.167 -9.5 -54.5c10.667 -48.667 42.334 -73 95.001 -73
c22 0 40.333 5.66699 55 17c16.667 12.667 23 29.667 19 51z" />
    <glyph glyph-name="uni067D.init" unicode="&#x67d;" horiz-adv-x="417" 
d="M315 258c36 -171.333 -45.335 -257.333 -244.002 -258h-123l-31 150h130c115.333 0 166.333 31 153 93c-7.33301 33.333 -32.666 72 -75.999 116l-43 44l79 113c82.667 -74.667 134.334 -160.667 155.001 -258zM-14.002 673l53 102l132 -84l-57 -99zM-189.002 860l58 105
l134 -84l57 98l132 -81l-62 -105l-128 82l-58 -96z" />
    <glyph glyph-name="uni067D.medi" unicode="&#x67d;" horiz-adv-x="548" 
d="M547 1h-54c-116.667 0 -202 40.667 -256 122c-10 -36.667 -32.5 -66.167 -67.5 -88.5s-73.833 -33.5 -116.5 -33.5h-123l-31 149h114c49.333 0 88.333 11.333 117 34c33.333 26 45 62.667 35 110l-13 63l96 27c21.333 -96.667 52.333 -161.667 93 -195
c32 -26 80.333 -39 145 -39h30zM57 611l53 102l132 -84l-57 -99zM-118 798l58 105l134 -84l57 98l132 -81l-62 -105l-128 82l-58 -96z" />
    <glyph glyph-name="uni067D.fina" unicode="&#x67d;" horiz-adv-x="1673" 
d="M1673 0h-31.001c-118 0.666992 -197.667 51 -239 151c-81.333 -128 -325.666 -192 -732.999 -192c-184.667 0 -321.667 20.333 -411 61c-100 46 -162 124.667 -186 236c-14.667 70 -7.33398 133 21.999 189l100 -29c-15.333 -46 -18.666 -89.333 -9.99902 -130
c16.667 -80 78.334 -132.667 185.001 -158c51.333 -12 134.666 -18 249.999 -18h49c141.333 0 272 10 392 30c196.667 32.667 293.667 86.667 291 162l-2 56l77 27c16 -75.333 35.333 -129.333 58 -162c33.333 -48.667 83 -73 149 -73h7zM593.999 585l53 102l132 -84
l-57 -99zM418.999 772l58 105l134 -84l57 98l132 -81l-62 -105l-128 82l-58 -96z" />
    <glyph glyph-name="uni0681.init" unicode="&#x681;" horiz-adv-x="954" 
d="M864 419l-3.00293 -143c-114.667 -0.666992 -209.667 -25 -285 -73c-41.333 -30 -104.666 -73.667 -189.999 -131c-76 -47.333 -177.667 -71.333 -305 -72h-151l-31 150h156c90 0 163.333 10 220 30c36.667 12.667 85 38 145 76c62.667 40 110.667 66.667 144 80
c-39.333 9.33301 -103 32.333 -191 69c-78.667 33.333 -129 50 -151 50c-34 0 -73 -27.667 -117 -83l-95 49c14.667 40 37.334 78 68.001 114c36 42.667 70 64 102 64c46.667 0 108.667 -16.333 186 -49c122.667 -52 195 -81.667 217 -89
c92.667 -30.667 186.334 -44.667 281.001 -42zM638.997 783l-362 -98.001l-14 67l89 41c-39.333 32.667 -62.333 65 -69 97c-8 37.333 0 71.5 24 102.5s54.667 46.5 92 46.5c44.667 0 86 -12.667 124 -38l-12 -57c-31.333 10 -64 15 -98 15c-16.667 0 -33 -4.66699 -49 -14
c-18.667 -11.333 -26.667 -24.666 -24 -39.999c10 -46 54.667 -69 134 -69c10.667 0 59 14 145 42z" />
    <glyph glyph-name="uni0681.medi" unicode="&#x681;" horiz-adv-x="1100" 
d="M1100 0h-129c-90 0.666992 -161 31 -213 91c-14.667 17.333 -42.667 66.333 -84 147l-271 -157c-94.667 -53.333 -198.667 -80.333 -312 -81h-161l-31 150h156c114.667 0 212 19.667 292 59l246 128c-58.667 12 -134.667 37 -228 75c-84 34.667 -135.667 52 -155 52
c-39.333 0 -73 -26.667 -101 -80l-101 48c39.333 124 91.666 186 156.999 186c44 0 104.667 -16 182 -48c118.667 -48.667 193.334 -78 224.001 -88c98 -31.333 195.667 -47 293 -47c20 0 40 0.666992 60 2l-5 -140c-78.667 -0.666992 -138.667 -11.667 -180 -33
c36.667 -76.667 116 -114.667 238 -114h91zM677 792l-362 -98.001l-14 67l89 41c-39.333 32.667 -62.333 65 -69 97c-8 37.333 0 71.5 24 102.5s54.667 46.5 92 46.5c44.667 0 86 -12.667 124 -38l-12 -57c-31.333 10 -64 15 -98 15c-16.667 0 -33 -4.66699 -49 -14
c-18.667 -11.333 -26.667 -24.666 -24 -39.999c10 -46 54.667 -69 134 -69c10.667 0 59 14 145 42z" />
    <glyph glyph-name="uni0681.fina" unicode="&#x681;" horiz-adv-x="1134" 
d="M1322 -702c-125.333 -46 -258.332 -68.999 -398.999 -68.999c-184.667 0 -338 34 -460 102c-148.667 82.667 -241.334 211 -278.001 385c-30.667 144.667 1 277 95 397c76 96 179 171.333 309 226c-172 48 -270.333 72 -295 72c-44 0 -78.333 -31.667 -103 -95l-105 42
c28.667 135.333 82.334 203 161.001 203c47.333 0 143.333 -20 288 -60s258.667 -60 342 -60c35.333 0 70.666 1.66699 105.999 5l-6 -150c-91.333 -1.33301 -156.666 -10.333 -195.999 -27c18 -50.667 49 -84.334 93 -101.001c32 -12 84.667 -18 158 -18h70l32 -150h-109
c-72.667 0.666992 -138 24.667 -196 72s-97.667 107 -119 179c-140.667 -51.333 -247.334 -123 -320.001 -215c-74.667 -95.333 -100 -198.333 -76 -309c49.333 -233.333 255.333 -350 618 -350c134.667 0 242.667 15.667 324 47zM737.001 778.001l-362 -98.001l-14 67
l89 41c-39.333 32.667 -62.333 65 -69 97c-8 37.333 0 71.5 24 102.5s54.667 46.5 92 46.5c44.667 0 86 -12.667 124 -38l-12 -57c-31.333 10 -64 15 -98 15c-16.667 0 -33 -4.66699 -49 -14c-18.667 -11.333 -26.667 -24.666 -24 -39.999c10 -46 54.667 -69 134 -69
c10.667 0 59 14 145 42z" />
    <glyph glyph-name="uni0682.init" unicode="&#x682;" horiz-adv-x="954" 
d="M864 419l-3.00293 -143c-114.667 -0.666992 -209.667 -25 -285 -73c-41.333 -30 -104.666 -73.667 -189.999 -131c-76 -47.333 -177.667 -71.333 -305 -72h-151l-31 150h156c90 0 163.333 10 220 30c36.667 12.667 85 38 145 76c62.667 40 110.667 66.667 144 80
c-39.333 9.33301 -103 32.333 -191 69c-78.667 33.333 -129 50 -151 50c-34 0 -73 -27.667 -117 -83l-95 49c14.667 40 37.334 78 68.001 114c36 42.667 70 64 102 64c46.667 0 108.667 -16.333 186 -49c122.667 -52 195 -81.667 217 -89
c92.667 -30.667 186.334 -44.667 281.001 -42zM396.997 872l-110 90l71 90l109 -90zM442.997 668l-109 90l71 90l109 -90z" />
    <glyph glyph-name="uni0682.medi" unicode="&#x682;" horiz-adv-x="1100" 
d="M1100 0h-129c-90 0.666992 -161 31 -213 91c-14.667 17.333 -42.667 66.333 -84 147l-271 -157c-94.667 -53.333 -198.667 -80.333 -312 -81h-161l-31 150h156c114.667 0 212 19.667 292 59l246 128c-58.667 12 -134.667 37 -228 75c-84 34.667 -135.667 52 -155 52
c-39.333 0 -73 -26.667 -101 -80l-101 48c39.333 124 91.666 186 156.999 186c44 0 104.667 -16 182 -48c118.667 -48.667 193.334 -78 224.001 -88c98 -31.333 195.667 -47 293 -47c20 0 40 0.666992 60 2l-5 -140c-78.667 -0.666992 -138.667 -11.667 -180 -33
c36.667 -76.667 116 -114.667 238 -114h91zM405 908l-110 90l71 90l109 -90zM451 704l-109 90l71 90l109 -90z" />
    <glyph glyph-name="uni0682.fina" unicode="&#x682;" horiz-adv-x="1134" 
d="M1322 -702c-125.333 -46 -258.332 -68.999 -398.999 -68.999c-184.667 0 -338 34 -460 102c-148.667 82.667 -241.334 211 -278.001 385c-30.667 144.667 1 277 95 397c76 96 179 171.333 309 226c-172 48 -270.333 72 -295 72c-44 0 -78.333 -31.667 -103 -95l-105 42
c28.667 135.333 82.334 203 161.001 203c47.333 0 143.333 -20 288 -60s258.667 -60 342 -60c35.333 0 70.666 1.66699 105.999 5l-6 -150c-91.333 -1.33301 -156.666 -10.333 -195.999 -27c18 -50.667 49 -84.334 93 -101.001c32 -12 84.667 -18 158 -18h70l32 -150h-109
c-72.667 0.666992 -138 24.667 -196 72s-97.667 107 -119 179c-140.667 -51.333 -247.334 -123 -320.001 -215c-74.667 -95.333 -100 -198.333 -76 -309c49.333 -233.333 255.333 -350 618 -350c134.667 0 242.667 15.667 324 47zM468.001 845.001l-110 90l71 90l109 -90z
M514.001 641.001l-109 90l71 90l109 -90z" />
    <glyph glyph-name="uni0685.init" unicode="&#x685;" horiz-adv-x="954" 
d="M864 419l-3.00293 -143c-114.667 -0.666992 -209.667 -25 -285 -73c-41.333 -30 -104.666 -73.667 -189.999 -131c-76 -47.333 -177.667 -71.333 -305 -72h-151l-31 150h156c90 0 163.333 10 220 30c36.667 12.667 85 38 145 76c62.667 40 110.667 66.667 144 80
c-39.333 9.33301 -103 32.333 -191 69c-78.667 33.333 -129 50 -151 50c-34 0 -73 -27.667 -117 -83l-95 49c14.667 40 37.334 78 68.001 114c36 42.667 70 64 102 64c46.667 0 108.667 -16.333 186 -49c122.667 -52 195 -81.667 217 -89
c92.667 -30.667 186.334 -44.667 281.001 -42zM449.997 1023l-61 -112l-143 88l65 109zM618.997 848l-62 -113l-144 90l-61 -106l-140 87l65 113l139 -88l60 104z" />
    <glyph glyph-name="uni0685.medi" unicode="&#x685;" horiz-adv-x="1100" 
d="M1100 0h-129c-90 0.666992 -161 31 -213 91c-14.667 17.333 -42.667 66.333 -84 147l-271 -157c-94.667 -53.333 -198.667 -80.333 -312 -81h-161l-31 150h156c114.667 0 212 19.667 292 59l246 128c-58.667 12 -134.667 37 -228 75c-84 34.667 -135.667 52 -155 52
c-39.333 0 -73 -26.667 -101 -80l-101 48c39.333 124 91.666 186 156.999 186c44 0 104.667 -16 182 -48c118.667 -48.667 193.334 -78 224.001 -88c98 -31.333 195.667 -47 293 -47c20 0 40 0.666992 60 2l-5 -140c-78.667 -0.666992 -138.667 -11.667 -180 -33
c36.667 -76.667 116 -114.667 238 -114h91zM518 1014l-61 -112l-143 88l65 109zM687 839l-62 -113l-144 90l-61 -106l-140 87l65 113l139 -88l60 104z" />
    <glyph glyph-name="uni0685.fina" unicode="&#x685;" horiz-adv-x="1134" 
d="M1322 -702c-125.333 -46 -258.332 -68.999 -398.999 -68.999c-184.667 0 -338 34 -460 102c-148.667 82.667 -241.334 211 -278.001 385c-30.667 144.667 1 277 95 397c76 96 179 171.333 309 226c-172 48 -270.333 72 -295 72c-44 0 -78.333 -31.667 -103 -95l-105 42
c28.667 135.333 82.334 203 161.001 203c47.333 0 143.333 -20 288 -60s258.667 -60 342 -60c35.333 0 70.666 1.66699 105.999 5l-6 -150c-91.333 -1.33301 -156.666 -10.333 -195.999 -27c18 -50.667 49 -84.334 93 -101.001c32 -12 84.667 -18 158 -18h70l32 -150h-109
c-72.667 0.666992 -138 24.667 -196 72s-97.667 107 -119 179c-140.667 -51.333 -247.334 -123 -320.001 -215c-74.667 -95.333 -100 -198.333 -76 -309c49.333 -233.333 255.333 -350 618 -350c134.667 0 242.667 15.667 324 47zM495.001 997.001l-61 -112l-143 88l65 109z
M664.001 822.001l-62 -113l-144 90l-61 -106l-140 87l65 113l139 -88l60 104z" />
    <glyph glyph-name="uni0689.fina" unicode="&#x689;" horiz-adv-x="1018" 
d="M1018 0l-34 0.00195312c-50 0 -89.667 7 -119 21c-46.667 23.333 -95.667 70.666 -147 141.999c-16.667 -74.667 -53 -126.334 -109 -155.001c-44 -22.667 -110.667 -34 -200 -34c-118 0 -207.667 24.667 -269 74l43 126c48 -29.333 107 -44 177 -44
c208.667 0 303 46.333 283 139c-2.66699 14.667 -8.66699 30.667 -18 48l-207 396l72 106l226 -448c74 -147.333 152.667 -221 236 -221h34zM596 -111.998c9.33301 -45.333 3.66797 -84.333 -16.999 -117c-22.667 -34 -56.334 -51 -101.001 -51
c-38.667 0 -73.167 12.333 -103.5 37s-49.5 56 -57.5 94c-14 64.667 -9.33301 116 14 154c18 31.333 41.667 47 71 47c33.333 0 70 -14 110 -42c45.333 -33.333 73.333 -74 84 -122zM534.002 -119.998c-6 27.333 -22.001 49.667 -48.001 67c-23.333 16 -49.333 24 -78 24
c-14 0 -25.167 -10.5 -33.5 -31.5s-11.5 -39.167 -9.5 -54.5c10.667 -48.667 42.334 -73 95.001 -73c22 0 40.333 5.66699 55 17c16.667 12.667 23 29.667 19 51z" />
    <glyph glyph-name="uni068A.fina" unicode="&#x68a;" horiz-adv-x="1018" 
d="M1018 0l-34 0.00195312c-50 0 -89.667 7 -119 21c-46.667 23.333 -95.667 70.666 -147 141.999c-16.667 -74.667 -53 -126.334 -109 -155.001c-44 -22.667 -110.667 -34 -200 -34c-118 0 -207.667 24.667 -269 74l43 126c48 -29.333 107 -44 177 -44
c208.667 0 303 46.333 283 139c-2.66699 14.667 -8.66699 30.667 -18 48l-207 396l72 106l226 -448c74 -147.333 152.667 -221 236 -221h34zM491 -241.998l-70 -128l-150 87l69 131z" />
    <glyph glyph-name="uni068b.fina" unicode="&#x68b;" horiz-adv-x="1018" 
d="M1018 0l-34 0.00195312c-50 0 -89.667 7 -119 21c-46.667 23.333 -95.667 70.666 -147 141.999c-16.667 -74.667 -53 -126.334 -109 -155.001c-44 -22.667 -110.667 -34 -200 -34c-118 0 -207.667 24.667 -269 74l43 126c48 -29.333 107 -44 177 -44
c208.667 0 303 46.333 283 139c-2.66699 14.667 -8.66699 30.667 -18 48l-207 396l72 106l226 -448c74 -147.333 152.667 -221 236 -221h34zM464 1013c10 -45.333 -3 -78.999 -39 -100.999c-28.667 -18 -68 -27 -118 -27h-92c-45.333 0 -82.666 10 -111.999 30l6 40
c24.667 -10 44 -15 58 -15c24.667 0 42.667 14.667 54 44c0 1.33301 -1.66699 9.66602 -5 24.999c-16.667 78.667 -39 175 -67 289l41 17l65 -303c12 17.333 28.333 33 49 47c23.333 16.667 45.666 25 66.999 25c20.667 0 40 -6.33301 58 -19c19.333 -14 31 -31.333 35 -52z
M425 996.003c-2.66699 12.667 -10.667 22.666 -24 29.999c-11.333 6 -23.666 9 -36.999 9c-16.667 0 -38.334 -11.667 -65.001 -35c-11.333 -10.667 -32 -32 -62 -64h63c47.333 0 82 7.33301 104 22c17.333 10.667 24.333 23.334 21 38.001zM557 -231.998l-70 -128l-150 87
l69 131z" />
    <glyph glyph-name="uni068F.fina" unicode="&#x68f;" horiz-adv-x="1018" 
d="M1018 0l-34 0.00195312c-50 0 -89.667 7 -119 21c-46.667 23.333 -95.667 70.666 -147 141.999c-16.667 -74.667 -53 -126.334 -109 -155.001c-44 -22.667 -110.667 -34 -200 -34c-118 0 -207.667 24.667 -269 74l43 126c48 -29.333 107 -44 177 -44
c208.667 0 303 46.333 283 139c-2.66699 14.667 -8.66699 30.667 -18 48l-207 396l72 106l226 -448c74 -147.333 152.667 -221 236 -221h34zM248 909.002l53 102l132 -84l-57 -99zM73 1096l58 105l134 -84l57 98l132 -81l-62 -105l-128 82l-58 -96z" />
    <glyph glyph-name="uni0690.fina" unicode="&#x690;" horiz-adv-x="1018" 
d="M1018 0l-34 0.00195312c-50 0 -89.667 7 -119 21c-46.667 23.333 -95.667 70.666 -147 141.999c-16.667 -74.667 -53 -126.334 -109 -155.001c-44 -22.667 -110.667 -34 -200 -34c-118 0 -207.667 24.667 -269 74l43 126c48 -29.333 107 -44 177 -44
c208.667 0 303 46.333 283 139c-2.66699 14.667 -8.66699 30.667 -18 48l-207 396l72 106l226 -448c74 -147.333 152.667 -221 236 -221h34zM452 1039l-109 90l71 90l109 -90zM244 1033l-109 90l71 90l109 -90zM311 1199l-109 90l71 90l109 -90zM386 867.002l-109 90l70 90
l110 -90z" />
    <glyph glyph-name="uni0692.fina" unicode="&#x692;" horiz-adv-x="821" 
d="M821 0l-30.001 -0.000976562c-50.667 0 -95.667 9 -135 27c10.667 -124 -40.666 -245.333 -153.999 -364c-76 -80 -168 -148.333 -276 -205l-111 78c117.333 76.667 215.333 155.334 294 236.001c98.667 101.333 141 184 127 248c-10 48 -54 114 -132 198l76 115
c64.667 -70.667 103 -111 115 -121c50.667 -41.333 104.667 -62 162 -62h32zM482.999 698.999c-8.66699 -8 -17.5 -20.832 -26.5 -38.499s-17.5 -38.5 -25.5 -62.5s-14.667 -50.167 -20 -78.5s-8.33301 -57.5 -9 -87.5h-28l-2 3c-14 29.333 -29.833 58.166 -47.5 86.499
s-35.5 54.333 -53.5 78s-35.167 44.167 -51.5 61.5s-29.833 30 -40.5 38l87 2c19.333 -21.333 37.333 -47.333 54 -78s32 -62.667 46 -96c0 33.333 2.33301 65.333 7 96s11.667 56.667 21 78z" />
    <glyph glyph-name="uni0693.fina" unicode="&#x693;" horiz-adv-x="821" 
d="M821 0l-30.001 -0.000976562c-50.667 0 -95.667 9 -135 27c10.667 -124 -40.666 -245.333 -153.999 -364c-76 -80 -168 -148.333 -276 -205l-111 78c117.333 76.667 215.333 155.334 294 236.001c98.667 101.333 141 184 127 248c-10 48 -54 114 -132 198l76 115
c64.667 -70.667 103 -111 115 -121c50.667 -41.333 104.667 -62 162 -62h32zM609.999 -577.001c9.33301 -45.333 3.66797 -84.333 -16.999 -117c-22.667 -34 -56.334 -51 -101.001 -51c-38.667 0 -73.167 12.333 -103.5 37s-49.5 56 -57.5 94
c-14 64.667 -9.33301 116 14 154c18 31.333 41.667 47 71 47c33.333 0 70 -14 110 -42c45.333 -33.333 73.333 -74 84 -122zM548.001 -585.001c-6 27.333 -22.001 49.667 -48.001 67c-23.333 16 -49.333 24 -78 24c-14 0 -25.167 -10.5 -33.5 -31.5
s-11.5 -39.167 -9.5 -54.5c10.667 -48.667 42.334 -73 95.001 -73c22 0 40.333 5.66699 55 17c16.667 12.667 23 29.667 19 51z" />
    <glyph glyph-name="uni0694.fina" unicode="&#x694;" horiz-adv-x="821" 
d="M821 0l-30.001 -0.000976562c-50.667 0 -95.667 9 -135 27c10.667 -124 -40.666 -245.333 -153.999 -364c-76 -80 -168 -148.333 -276 -205l-111 78c117.333 76.667 215.333 155.334 294 236.001c98.667 101.333 141 184 127 248c-10 48 -54 114 -132 198l76 115
c64.667 -70.667 103 -111 115 -121c50.667 -41.333 104.667 -62 162 -62h32zM600.999 -671.001l-70 -128l-150 87l69 131z" />
    <glyph glyph-name="uni0695.fina" unicode="&#x695;" horiz-adv-x="821" 
d="M821 0l-30.001 -0.000976562c-50.667 0 -95.667 9 -135 27c10.667 -124 -40.666 -245.333 -153.999 -364c-76 -80 -168 -148.333 -276 -205l-111 78c117.333 76.667 215.333 155.334 294 236.001c98.667 101.333 141 184 127 248c-10 48 -54 114 -132 198l76 115
c64.667 -70.667 103 -111 115 -121c50.667 -41.333 104.667 -62 162 -62h32zM491.999 -624.001c-8.66699 -8 -17.5 -20.832 -26.5 -38.499s-17.5 -38.5 -25.5 -62.5s-14.667 -50.167 -20 -78.5s-8.33301 -57.5 -9 -87.5h-28l-2 3c-14 29.333 -29.833 58.166 -47.5 86.499
s-35.5 54.333 -53.5 78s-35.167 44.167 -51.5 61.5s-29.833 30 -40.5 38l87 2c19.333 -21.333 37.333 -47.333 54 -78s32 -62.667 46 -96c0 33.333 2.33301 65.333 7 96s11.667 56.667 21 78z" />
    <glyph glyph-name="uni0696.fina" unicode="&#x696;" horiz-adv-x="821" 
d="M821 0l-30.001 -0.000976562c-50.667 0 -95.667 9 -135 27c10.667 -124 -40.666 -245.333 -153.999 -364c-76 -80 -168 -148.333 -276 -205l-111 78c117.333 76.667 215.333 155.334 294 236.001c98.667 101.333 141 184 127 248c-10 48 -54 114 -132 198l76 115
c64.667 -70.667 103 -111 115 -121c50.667 -41.333 104.667 -62 162 -62h32zM528.999 -678.001l-70 -128l-150 87l69 131zM262.999 -142.001l-70 -128l-150 87l69 131z" />
    <glyph glyph-name="uni0697.fina" unicode="&#x697;" horiz-adv-x="821" 
d="M821 0l-30.001 -0.000976562c-50.667 0 -95.667 9 -135 27c10.667 -124 -40.666 -245.333 -153.999 -364c-76 -80 -168 -148.333 -276 -205l-111 78c117.333 76.667 215.333 155.334 294 236.001c98.667 101.333 141 184 127 248c-10 48 -54 114 -132 198l76 115
c64.667 -70.667 103 -111 115 -121c50.667 -41.333 104.667 -62 162 -62h32zM516.999 595.999l-63 -111l-131 84l-60 -100l-139 86l68 113l126 -82l59 96z" />
    <glyph glyph-name="uni0699.fina" unicode="&#x699;" horiz-adv-x="821" 
d="M821 0l-30.001 -0.000976562c-50.667 0 -95.667 9 -135 27c10.667 -124 -40.666 -245.333 -153.999 -364c-76 -80 -168 -148.333 -276 -205l-111 78c117.333 76.667 215.333 155.334 294 236.001c98.667 101.333 141 184 127 248c-10 48 -54 114 -132 198l76 115
c64.667 -70.667 103 -111 115 -121c50.667 -41.333 104.667 -62 162 -62h32zM409.999 549.999l-109 90l71 90l109 -90zM201.999 543.999l-109 90l71 90l109 -90zM268.999 709.999l-109 90l71 90l109 -90zM343.999 377.999l-109 90l70 90l110 -90z" />
    <glyph glyph-name="uni069A.init" unicode="&#x69a;" horiz-adv-x="1013" 
d="M955 265c15.333 -71.333 9.33301 -131.999 -18 -181.999c-30.667 -54 -80.667 -81 -150 -81c-92 0 -163.667 34 -215 102c-34.667 -68.667 -94 -103 -178 -103c-91.333 0 -156.666 34.667 -195.999 104c-24 -69.333 -79.333 -104.333 -166 -105h-102l-31 150h74
c58 0 97.5 12.333 118.5 37s25.167 66.667 12.5 126l-5 24l90 35l6 -26c28 -130.667 85 -196 171 -196c99.333 0 137.333 54.667 114 164l-5 24l90 35l6 -26c27.333 -130.667 90.666 -196 189.999 -196c71.333 0 100.333 32 87 96c-9.33301 45.333 -39 89.666 -89 132.999
l73 109c63.333 -61.333 104.333 -136 123 -224zM542 727.001l-70 -128l-150 87l69 131zM726 -308.999l-70 -128l-150 87l69 131z" />
    <glyph glyph-name="uni069A.medi" unicode="&#x69a;" horiz-adv-x="1211" 
d="M1210 1h-32.002c-98.667 0 -170 34 -214 102c-32.667 -68 -94.667 -102 -186 -102c-80.667 0 -144.667 34 -192 102c-36 -68 -99.667 -102 -191 -102c-85.333 0 -150.666 34 -195.999 102c-25.333 -68 -81 -102.333 -167 -103h-102l-31 150h75c58 0 97.5 12.333 118.5 37
s25.167 66.667 12.5 126l-5 24l90 35l6 -26c28 -130.667 85 -196 171 -196c58.667 0 97.5 12.5 116.5 37.5s22.167 66.833 9.5 125.5l-5 24l89 35l6 -26c28 -130.667 85.333 -196 172 -196c100.667 0 139.334 54.333 116.001 163l-5 24l90 39l6 -30
c13.333 -64 31.333 -110.333 54 -139c30 -38 74.667 -57 134 -57h29zM563.998 706l-70 -128l-150 87l69 131zM748.998 -283l-70 -128l-150 87l69 131z" />
    <glyph glyph-name="uni069A.fina" unicode="&#x69a;" horiz-adv-x="1992" 
d="M1992 0l-44.001 -0.000976562c-82.667 0.666992 -147 35 -193 103c-34.667 -68 -93 -102 -175 -102c-86 0 -153.667 34 -203 102c-28 -68 -83 -102 -165 -102c-56 0 -105.667 16.667 -149 50c4.66699 -15.333 8.33398 -30.666 11.001 -45.999
c33.333 -156.667 11 -281 -67 -373s-195.667 -138 -353 -138c-131.333 0 -245 38.667 -341 116s-158 181.333 -186 312c-22 104.667 -13.667 207.667 25 309l107 -37c-11.333 -27.333 -18.833 -66.333 -22.5 -117s-2.16699 -92 4.5 -124c44.667 -207.333 180 -311 406 -311
c104.667 0 188.334 26.333 251.001 79c70 58.667 94.333 138.334 73 239.001c-21.333 101.333 -75 202.666 -161 303.999l96 100c48.667 -68.667 87.667 -117 117 -145c48.667 -46 98.667 -69 150 -69c56 0 92 13.333 108 40c14 24.667 15 65.667 3 123l-5 24l89 35l6 -26
c28 -130.667 85 -196 171 -196c56 0 92.5 13 109.5 39s19.5 67.333 7.5 124l-5 24l89 35l6 -26c13.333 -64 31.666 -110.333 54.999 -139c30 -38 74.333 -57 133 -57h20zM1337 748.999l-70 -128l-150 87l69 131zM1563 -319.001l-70 -128l-150 87l69 131z" />
    <glyph glyph-name="uni069B.init" unicode="&#x69b;" horiz-adv-x="1013" 
d="M955 265c15.333 -71.333 9.33301 -131.999 -18 -181.999c-30.667 -54 -80.667 -81 -150 -81c-92 0 -163.667 34 -215 102c-34.667 -68.667 -94 -103 -178 -103c-91.333 0 -156.666 34.667 -195.999 104c-24 -69.333 -79.333 -104.333 -166 -105h-102l-31 150h74
c58 0 97.5 12.333 118.5 37s25.167 66.667 12.5 126l-5 24l90 35l6 -26c28 -130.667 85 -196 171 -196c99.333 0 137.333 54.667 114 164l-5 24l90 35l6 -26c27.333 -130.667 90.666 -196 189.999 -196c71.333 0 100.333 32 87 96c-9.33301 45.333 -39 89.666 -89 132.999
l73 109c63.333 -61.333 104.333 -136 123 -224zM568 -483.999l53 102l132 -84l-57 -99zM393 -296.999l58 105l134 -84l57 98l132 -81l-62 -105l-128 82l-58 -96z" />
    <glyph glyph-name="uni069B.medi" unicode="&#x69b;" horiz-adv-x="1211" 
d="M1210 1h-32.002c-98.667 0 -170 34 -214 102c-32.667 -68 -94.667 -102 -186 -102c-80.667 0 -144.667 34 -192 102c-36 -68 -99.667 -102 -191 -102c-85.333 0 -150.666 34 -195.999 102c-25.333 -68 -81 -102.333 -167 -103h-102l-31 150h75c58 0 97.5 12.333 118.5 37
s25.167 66.667 12.5 126l-5 24l90 35l6 -26c28 -130.667 85 -196 171 -196c58.667 0 97.5 12.5 116.5 37.5s22.167 66.833 9.5 125.5l-5 24l89 35l6 -26c28 -130.667 85.333 -196 172 -196c100.667 0 139.334 54.333 116.001 163l-5 24l90 39l6 -30
c13.333 -64 31.333 -110.333 54 -139c30 -38 74.667 -57 134 -57h29zM627.998 -489l53 102l132 -84l-57 -99zM452.998 -302l58 105l134 -84l57 98l132 -81l-62 -105l-128 82l-58 -96z" />
    <glyph glyph-name="uni069B.fina" unicode="&#x69b;" horiz-adv-x="1992" 
d="M1992 0l-44.001 -0.000976562c-82.667 0.666992 -147 35 -193 103c-34.667 -68 -93 -102 -175 -102c-86 0 -153.667 34 -203 102c-28 -68 -83 -102 -165 -102c-56 0 -105.667 16.667 -149 50c4.66699 -15.333 8.33398 -30.666 11.001 -45.999
c33.333 -156.667 11 -281 -67 -373s-195.667 -138 -353 -138c-131.333 0 -245 38.667 -341 116s-158 181.333 -186 312c-22 104.667 -13.667 207.667 25 309l107 -37c-11.333 -27.333 -18.833 -66.333 -22.5 -117s-2.16699 -92 4.5 -124c44.667 -207.333 180 -311 406 -311
c104.667 0 188.334 26.333 251.001 79c70 58.667 94.333 138.334 73 239.001c-21.333 101.333 -75 202.666 -161 303.999l96 100c48.667 -68.667 87.667 -117 117 -145c48.667 -46 98.667 -69 150 -69c56 0 92 13.333 108 40c14 24.667 15 65.667 3 123l-5 24l89 35l6 -26
c28 -130.667 85 -196 171 -196c56 0 92.5 13 109.5 39s19.5 67.333 7.5 124l-5 24l89 35l6 -26c13.333 -64 31.666 -110.333 54.999 -139c30 -38 74.333 -57 133 -57h20zM1460 -523.001l53 102l132 -84l-57 -99zM1285 -336.001l58 105l134 -84l57 98l132 -81l-62 -105
l-128 82l-58 -96z" />
    <glyph glyph-name="uni069C.init" unicode="&#x69c;" horiz-adv-x="1013" 
d="M955 265c15.333 -71.333 9.33301 -131.999 -18 -181.999c-30.667 -54 -80.667 -81 -150 -81c-92 0 -163.667 34 -215 102c-34.667 -68.667 -94 -103 -178 -103c-91.333 0 -156.666 34.667 -195.999 104c-24 -69.333 -79.333 -104.333 -166 -105h-102l-31 150h74
c58 0 97.5 12.333 118.5 37s25.167 66.667 12.5 126l-5 24l90 35l6 -26c28 -130.667 85 -196 171 -196c99.333 0 137.333 54.667 114 164l-5 24l90 35l6 -26c27.333 -130.667 90.666 -196 189.999 -196c71.333 0 100.333 32 87 96c-9.33301 45.333 -39 89.666 -89 132.999
l73 109c63.333 -61.333 104.333 -136 123 -224zM633 -496.999l53 102l132 -84l-57 -99zM458 -309.999l58 105l134 -84l57 98l132 -81l-62 -105l-128 82l-58 -96zM475 882.001l-61 -112l-143 88l65 109zM644 707.001l-62 -113l-144 90l-61 -106l-140 87l65 113l139 -88
l60 104z" />
    <glyph glyph-name="uni069C.medi" unicode="&#x69c;" horiz-adv-x="1211" 
d="M1210 1h-32.002c-98.667 0 -170 34 -214 102c-32.667 -68 -94.667 -102 -186 -102c-80.667 0 -144.667 34 -192 102c-36 -68 -99.667 -102 -191 -102c-85.333 0 -150.666 34 -195.999 102c-25.333 -68 -81 -102.333 -167 -103h-102l-31 150h75c58 0 97.5 12.333 118.5 37
s25.167 66.667 12.5 126l-5 24l90 35l6 -26c28 -130.667 85 -196 171 -196c58.667 0 97.5 12.5 116.5 37.5s22.167 66.833 9.5 125.5l-5 24l89 35l6 -26c28 -130.667 85.333 -196 172 -196c100.667 0 139.334 54.333 116.001 163l-5 24l90 39l6 -30
c13.333 -64 31.333 -110.333 54 -139c30 -38 74.667 -57 134 -57h29zM658.998 -493l53 102l132 -84l-57 -99zM483.998 -306l58 105l134 -84l57 98l132 -81l-62 -105l-128 82l-58 -96zM488.998 856l-61 -112l-143 88l65 109zM657.998 681l-62 -113l-144 90l-61 -106l-140 87
l65 113l139 -88l60 104z" />
    <glyph glyph-name="uni069C.fina" unicode="&#x69c;" horiz-adv-x="1992" 
d="M1992 0l-44.001 -0.000976562c-82.667 0.666992 -147 35 -193 103c-34.667 -68 -93 -102 -175 -102c-86 0 -153.667 34 -203 102c-28 -68 -83 -102 -165 -102c-56 0 -105.667 16.667 -149 50c4.66699 -15.333 8.33398 -30.666 11.001 -45.999
c33.333 -156.667 11 -281 -67 -373s-195.667 -138 -353 -138c-131.333 0 -245 38.667 -341 116s-158 181.333 -186 312c-22 104.667 -13.667 207.667 25 309l107 -37c-11.333 -27.333 -18.833 -66.333 -22.5 -117s-2.16699 -92 4.5 -124c44.667 -207.333 180 -311 406 -311
c104.667 0 188.334 26.333 251.001 79c70 58.667 94.333 138.334 73 239.001c-21.333 101.333 -75 202.666 -161 303.999l96 100c48.667 -68.667 87.667 -117 117 -145c48.667 -46 98.667 -69 150 -69c56 0 92 13.333 108 40c14 24.667 15 65.667 3 123l-5 24l89 35l6 -26
c28 -130.667 85 -196 171 -196c56 0 92.5 13 109.5 39s19.5 67.333 7.5 124l-5 24l89 35l6 -26c13.333 -64 31.666 -110.333 54.999 -139c30 -38 74.333 -57 133 -57h20zM1445 -528.001l53 102l132 -84l-57 -99zM1270 -341.001l58 105l134 -84l57 98l132 -81l-62 -105
l-128 82l-58 -96zM1281 866.999l-61 -112l-143 88l65 109zM1450 691.999l-62 -113l-144 90l-61 -106l-140 87l65 113l139 -88l60 104z" />
    <glyph glyph-name="uni069D.init" unicode="&#x69d;" horiz-adv-x="1313" 
d="M1181 376c28 -132 -10.999 -230.666 -116.999 -295.999c-84 -52.667 -198 -79 -342 -79h-270c-63.333 0 -111 4.66699 -143 14c-47.333 14 -88.666 42.333 -123.999 85c-29.333 -66 -80 -99.333 -152 -100h-103l-31 150h83c96.667 0 134 51.333 112 154l-8 39l104 40
l5 -24c30 -139.333 85.333 -209 166 -209c42 0 73.333 16.333 94 49l65 111c37.333 60.667 86.666 117 147.999 169c83.333 71.333 165.666 107 246.999 107c58.667 0 114.5 -20.333 167.5 -61s85.833 -90.334 98.5 -149.001zM1064 326.001
c-7.33301 36.667 -30.333 65.666 -69 86.999c-32.667 17.333 -68.667 26 -108 26c-92 0 -207 -96.333 -345 -289h161c138 0 238.333 21 301 63c49.333 32.667 69.333 70.334 60 113.001zM783.001 -298l-63 -111l-131 84l-60 -100l-139 86l68 113l126 -82l59 96z" />
    <glyph glyph-name="uni069D.medi" unicode="&#x69d;" horiz-adv-x="1331" 
d="M1331 0l-32.001 -0.000976562c-88.667 0.666992 -160 30.334 -214 89.001c-85.333 -58.667 -206.333 -88 -363 -88h-270c-63.333 0 -111 4.66699 -143 14c-47.333 14 -88.666 42.333 -123.999 85c-20 -66 -67.333 -99.333 -142 -100h-113l-31 150h83
c96.667 0 134 51.333 112 154l-8 39l104 40l5 -24c30 -139.333 85.333 -209 166 -209c40.667 0 71 15.667 91 47l67 113c122 184 254 276 396 276c58.667 0 114.5 -20.333 167.5 -61s85.833 -90.334 98.5 -149.001c16 -77.333 11 -141.666 -15 -192.999
c25.333 -22 63 -33 113 -33h20zM1064 325.999c-7.33301 36.667 -30.333 65.666 -69 86.999c-32.667 17.333 -68.667 26 -108 26c-87.333 0 -202.333 -96.333 -345 -289h161c138 0 238.333 21 301 63c49.333 32.667 69.333 70.334 60 113.001zM758.999 -313.002l-63 -111
l-131 84l-60 -100l-139 86l68 113l126 -82l59 96z" />
    <glyph glyph-name="uni069D.fina" unicode="&#x69d;" horiz-adv-x="2146" 
d="M2146 0l-31.002 -0.00195312c-92.667 0.666992 -164.334 30.334 -215.001 89.001c-84.667 -58.667 -204.667 -88 -360 -88h-270c-69.333 0 -129 16.667 -179 50c4.66699 -15.333 8.33398 -30.666 11.001 -45.999c33.333 -156 10.333 -280.667 -69 -374
c-77.333 -91.333 -194.333 -137 -351 -137c-130.667 0 -244.167 38.833 -340.5 116.5s-158.5 181.5 -186.5 311.5c-22 104.667 -13.667 207.667 25 309l107 -37c-11.333 -27.333 -18.833 -66.333 -22.5 -117s-2.16699 -92 4.5 -124c44.667 -207.333 180 -311 406 -311
c104.667 0 188.334 26.333 251.001 79c70 58.667 94.333 138.334 73 239.001c-21.333 101.333 -75 202.666 -161 303.999l96 100c58.667 -84 97.334 -135.667 116.001 -155c38.667 -39.333 80 -59 124 -59c40 0 71 17.333 93 52c14.667 26.667 38 66 70 118
c123.333 177.333 255.666 266 396.999 266c59.333 0 114.833 -20.333 166.5 -61s83.834 -90.334 96.501 -149.001c16 -77.333 10.667 -141.666 -16 -192.999c25.333 -22 63 -33 113 -33h20zM1880 325.998c-7.33301 36.667 -29.668 65.332 -67.001 85.999
c-32 18 -67.667 27 -107 27c-100 0 -214.667 -96.333 -344 -289h160c137.333 0 237 21 299 63c48.667 32.667 68.334 70.334 59.001 113.001zM1778 -363.004l-63 -111l-131 84l-60 -100l-139 86l68 113l126 -82l59 96z" />
    <glyph glyph-name="uni069E.init" unicode="&#x69e;" horiz-adv-x="1313" 
d="M1181 376c28 -132 -10.999 -230.666 -116.999 -295.999c-84 -52.667 -198 -79 -342 -79h-270c-63.333 0 -111 4.66699 -143 14c-47.333 14 -88.666 42.333 -123.999 85c-29.333 -66 -80 -99.333 -152 -100h-103l-31 150h83c96.667 0 134 51.333 112 154l-8 39l104 40
l5 -24c30 -139.333 85.333 -209 166 -209c42 0 73.333 16.333 94 49l65 111c37.333 60.667 86.666 117 147.999 169c83.333 71.333 165.666 107 246.999 107c58.667 0 114.5 -20.333 167.5 -61s85.833 -90.334 98.5 -149.001zM1064 326.001
c-7.33301 36.667 -30.333 65.666 -69 86.999c-32.667 17.333 -68.667 26 -108 26c-92 0 -207 -96.333 -345 -289h161c138 0 238.333 21 301 63c49.333 32.667 69.333 70.334 60 113.001zM410.001 954l-61 -112l-143 88l65 109zM579.001 779l-62 -113l-144 90l-61 -106
l-140 87l65 113l139 -88l60 104z" />
    <glyph glyph-name="uni069E.medi" unicode="&#x69e;" horiz-adv-x="1331" 
d="M1331 0l-32.001 -0.000976562c-88.667 0.666992 -160 30.334 -214 89.001c-85.333 -58.667 -206.333 -88 -363 -88h-270c-63.333 0 -111 4.66699 -143 14c-47.333 14 -88.666 42.333 -123.999 85c-20 -66 -67.333 -99.333 -142 -100h-113l-31 150h83
c96.667 0 134 51.333 112 154l-8 39l104 40l5 -24c30 -139.333 85.333 -209 166 -209c40.667 0 71 15.667 91 47l67 113c122 184 254 276 396 276c58.667 0 114.5 -20.333 167.5 -61s85.833 -90.334 98.5 -149.001c16 -77.333 11 -141.666 -15 -192.999
c25.333 -22 63 -33 113 -33h20zM1064 325.999c-7.33301 36.667 -30.333 65.666 -69 86.999c-32.667 17.333 -68.667 26 -108 26c-87.333 0 -202.333 -96.333 -345 -289h161c138 0 238.333 21 301 63c49.333 32.667 69.333 70.334 60 113.001zM406.999 977.998l-61 -112
l-143 88l65 109zM575.999 802.998l-62 -113l-144 90l-61 -106l-140 87l65 113l139 -88l60 104z" />
    <glyph glyph-name="uni069E.fina" unicode="&#x69e;" horiz-adv-x="2146" 
d="M2146 0l-31.002 -0.00195312c-92.667 0.666992 -164.334 30.334 -215.001 89.001c-84.667 -58.667 -204.667 -88 -360 -88h-270c-69.333 0 -129 16.667 -179 50c4.66699 -15.333 8.33398 -30.666 11.001 -45.999c33.333 -156 10.333 -280.667 -69 -374
c-77.333 -91.333 -194.333 -137 -351 -137c-130.667 0 -244.167 38.833 -340.5 116.5s-158.5 181.5 -186.5 311.5c-22 104.667 -13.667 207.667 25 309l107 -37c-11.333 -27.333 -18.833 -66.333 -22.5 -117s-2.16699 -92 4.5 -124c44.667 -207.333 180 -311 406 -311
c104.667 0 188.334 26.333 251.001 79c70 58.667 94.333 138.334 73 239.001c-21.333 101.333 -75 202.666 -161 303.999l96 100c58.667 -84 97.334 -135.667 116.001 -155c38.667 -39.333 80 -59 124 -59c40 0 71 17.333 93 52c14.667 26.667 38 66 70 118
c123.333 177.333 255.666 266 396.999 266c59.333 0 114.833 -20.333 166.5 -61s83.834 -90.334 96.501 -149.001c16 -77.333 10.667 -141.666 -16 -192.999c25.333 -22 63 -33 113 -33h20zM1880 325.998c-7.33301 36.667 -29.668 65.332 -67.001 85.999
c-32 18 -67.667 27 -107 27c-100 0 -214.667 -96.333 -344 -289h160c137.333 0 237 21 299 63c48.667 32.667 68.334 70.334 59.001 113.001zM1155 973.996l-61 -112l-143 88l65 109zM1324 798.996l-62 -113l-144 90l-61 -106l-140 87l65 113l139 -88l60 104z" />
    <glyph glyph-name="uni069F.medi" unicode="&#x69f;" horiz-adv-x="1329" 
d="M1329 0h-30.998c-89.333 0.666992 -163 31.334 -221 92.001c-87.333 -60.667 -209.666 -91 -366.999 -91h-270c-132 0 -240.667 29.667 -326 89l18 115c71.333 -28 127.666 -42 168.999 -42c72.667 0 125.334 42.333 158.001 127c0.666992 4 -4 28.333 -14 73
c-48.667 230 -115 512.333 -199 847l124 49l189 -888c35.333 52 82.666 98.667 141.999 140c69.333 48.667 134.666 73 195.999 73c62 0 119.667 -19 173 -57c57.333 -40 92.666 -90.333 105.999 -151c18 -86.667 7 -153.334 -33 -200.001
c16.667 -12.667 41.667 -20.667 75 -24c14 -1.33301 34 -2 60 -2h19zM1056 326c-7.33301 36.667 -31 65.666 -71 86.999c-34 17.333 -70.667 26 -110 26c-48 0 -110.667 -34.333 -188 -103c-34.667 -30.667 -95.334 -92.667 -182.001 -186h186c138 0 239 21 303 63
c50.667 32.667 71.334 70.334 62.001 113.001zM834.002 1120l-61 -112l-143 88l65 109zM1003 944.999l-62 -113l-144 90l-61 -106l-140 87l65 113l139 -88l60 104z" />
    <glyph glyph-name="uni06A0.init" unicode="&#x6a0;" horiz-adv-x="837" 
d="M735 263l13.998 -138c-236 -82.667 -474.333 -124.334 -715 -125.001h-104l-31 150h271c-73.333 53.333 -120.666 129 -141.999 227c-14.667 68.667 -0.666992 131.334 42 188.001c48 64 118.667 96 212 96c92 0 181.667 -32 269 -96l-27 -98c-68 35.333 -140 53 -216 53
c-47.333 0 -88 -11.667 -122 -35c-40 -27.333 -55.333 -63 -46 -107c12.667 -60 54 -105.667 124 -137c54.667 -24 115.334 -36 182.001 -36c56.667 0 153 19.333 289 58zM212.998 1081l-61 -112l-143 88l65 109zM381.998 906l-62 -113l-144 90l-61 -106l-140 87l65 113
l139 -88l60 104z" />
    <glyph glyph-name="uni06A0.medi" unicode="&#x6a0;" horiz-adv-x="776" 
d="M776 0l-73 0.000976562c-167.333 0.666992 -285.666 53.334 -354.999 158.001c-76 -104.667 -179.333 -157.334 -310 -158.001h-108l-31 150h87c138 0 228.333 36 271 108c-38.667 72 -101.334 109.667 -188.001 113c-12.667 73.333 9.33301 129.666 66 168.999
c48 33.333 111.333 50 190 50c45.333 0 88.666 -10.333 129.999 -31c49.333 -25.333 78.333 -59 87 -101c12 -56 5.66699 -102 -19 -138c-14.667 -21.333 -49.667 -54.333 -105 -99c60.667 -47.333 158.334 -71 293.001 -71h33zM239 1057l-61 -112l-143 88l65 109z
M408 882.001l-62 -113l-144 90l-61 -106l-140 87l65 113l139 -88l60 104z" />
    <glyph glyph-name="uni06A0.fina" unicode="&#x6a0;" horiz-adv-x="1039" 
d="M1340 -702c-136.667 -46 -269.664 -69 -398.997 -69c-184.667 0 -338 34 -460 102c-148.667 82.667 -241.334 211 -278.001 385c-45.333 213.333 58 400 310 560c-38 67.333 -102 102.333 -192 105c-9.33301 56.667 7 105.667 49 147c48.667 48 121 72 217 72
c48 0 93.667 -11 137 -33c51.333 -26.667 82 -62.334 92 -107.001c12 -56.667 2 -104 -30 -142c-7.33301 -8 -46 -40.333 -116 -97c50.667 -47.333 151 -71 301 -71h36l32 -150h-107c-152 0.666992 -264.667 54.334 -338 161.001
c-107.333 -68.667 -180.333 -132.667 -219 -192c-44.667 -68.667 -57.334 -149 -38.001 -241c27.333 -128 108.666 -222 243.999 -282c103.333 -46 226.333 -69 369 -69c86 0 194 15.667 324 47zM459.003 1016l-61 -112l-143 88l65 109zM628.003 841l-62 -113l-144 90
l-61 -106l-140 87l65 113l139 -88l60 104z" />
    <glyph glyph-name="afii57459" unicode="&#x6a1;" horiz-adv-x="538" 
d="M425 350c49.333 -232.667 -45.334 -349.333 -284.001 -350h-211l-31 150h193c67.333 0 126 12.333 176 37c46 22.667 66.667 43.667 62 63l-13 65c-38 -26 -84.667 -39 -140 -39c-58.667 0 -105.667 19.333 -141 58c-24.667 27.333 -41 60 -49 98
c-12 56 -8.33301 120.333 11 193c23.333 91.333 65.333 137 126 137c66 0 131.667 -54.667 197 -164c52.667 -87.333 87.334 -170 104.001 -248zM264 443.001c-44 112.667 -88.333 169 -133 169c-19.333 0 -35.333 -16.333 -48 -49c-12 -30 -15.667 -55.667 -11 -77
c11.333 -51.333 43.666 -77 96.999 -77c42.667 0 74.334 11.333 95.001 34z" />
    <glyph glyph-name="afii57374" unicode="&#x6a1;" horiz-adv-x="574" 
d="M573 1h-19c-116.667 0 -217.667 30 -303 90c-80.667 -60.667 -160.667 -91 -240 -91h-81l-31 150h97c51.333 0 92.666 12.333 123.999 37c-49.333 41.333 -82.333 100 -99 176c-13.333 62.667 3.33398 124 50.001 184c44 56.667 91 85 141 85s98.333 -27.333 145 -82
c40 -48 65.667 -98.333 77 -151c20 -94.667 -4.33301 -169 -73 -223c44 -17.333 99.333 -26 166 -26h15zM333 359c-5.33301 24.667 -18.999 50.666 -40.999 77.999c-24.667 30.667 -48.667 46 -72 46c-24 0 -47.333 -12.833 -70 -38.5s-31.334 -50.5 -26.001 -74.5
c4.66699 -22 19.667 -47.333 45 -76c27.333 -30.667 51.333 -46 72 -46c18.667 0 39.667 13.833 63 41.5s33 50.834 29 69.501z" />
    <glyph glyph-name="afii52258" unicode="&#x6a1;" horiz-adv-x="1742" 
d="M1742 0l-71.998 -0.000976562c-124.667 0.666992 -229 33 -313 97c-74.667 -45.333 -179.334 -80.666 -314.001 -105.999c-114.667 -21.333 -230.334 -32 -347.001 -32c-184.667 0 -321.667 20.333 -411 61c-100 46 -162 124.667 -186 236
c-14.667 70 -7.33398 133 21.999 189l100 -29c-15.333 -46 -18.666 -89.333 -9.99902 -130c16 -76.667 68.333 -128 157 -154c50.667 -14.667 125.667 -22 225 -22h102c260 0 436.333 25.667 529 77c-48 35.333 -80.667 94 -98 176c-12.667 62 4 123.333 50 184
c44 56.667 90.667 85 140 85c51.333 0 100.333 -28.667 147 -86c40 -50 66 -102.333 78 -157c8 -37.333 4.16699 -79 -11.5 -125s-37.834 -77.333 -66.501 -94c30.667 -13.333 90.334 -20 179.001 -20h68zM1435 369.999c-5.33301 26 -18.333 50.667 -39 74
c-22.667 26 -46.334 39 -71.001 39c-26 0 -50 -12.5 -72 -37.5s-30.333 -50.167 -25 -75.5c4.66699 -22 20 -47 46 -75c26.667 -30 50.334 -45 71.001 -45c23.333 0 45.5 14 66.5 42s28.833 54 23.5 78z" />
    <glyph glyph-name="uni06A2.init" unicode="&#x6a2;" horiz-adv-x="538" 
d="M425 350c49.333 -232.667 -45.334 -349.333 -284.001 -350h-211l-31 150h193c67.333 0 126 12.333 176 37c46 22.667 66.667 43.667 62 63l-13 65c-38 -26 -84.667 -39 -140 -39c-58.667 0 -105.667 19.333 -141 58c-24.667 27.333 -41 60 -49 98
c-12 56 -8.33301 120.333 11 193c23.333 91.333 65.333 137 126 137c66 0 131.667 -54.667 197 -164c52.667 -87.333 87.334 -170 104.001 -248zM264 443.001c-44 112.667 -88.333 169 -133 169c-19.333 0 -35.333 -16.333 -48 -49c-12 -30 -15.667 -55.667 -11 -77
c11.333 -51.333 43.666 -77 96.999 -77c42.667 0 74.334 11.333 95.001 34zM449 -237.999l-70 -128l-150 87l69 131z" />
    <glyph glyph-name="uni06A2.medi" unicode="&#x6a2;" horiz-adv-x="574" 
d="M573 1h-19c-116.667 0 -217.667 30 -303 90c-80.667 -60.667 -160.667 -91 -240 -91h-81l-31 150h97c51.333 0 92.666 12.333 123.999 37c-49.333 41.333 -82.333 100 -99 176c-13.333 62.667 3.33398 124 50.001 184c44 56.667 91 85 141 85s98.333 -27.333 145 -82
c40 -48 65.667 -98.333 77 -151c20 -94.667 -4.33301 -169 -73 -223c44 -17.333 99.333 -26 166 -26h15zM333 359c-5.33301 24.667 -18.999 50.666 -40.999 77.999c-24.667 30.667 -48.667 46 -72 46c-24 0 -47.333 -12.833 -70 -38.5s-31.334 -50.5 -26.001 -74.5
c4.66699 -22 19.667 -47.333 45 -76c27.333 -30.667 51.333 -46 72 -46c18.667 0 39.667 13.833 63 41.5s33 50.834 29 69.501zM423.001 -246.001l-70 -128l-150 87l69 131z" />
    <glyph glyph-name="uni06A2.fina" unicode="&#x6a2;" horiz-adv-x="1742" 
d="M1742 0l-71.998 -0.000976562c-124.667 0.666992 -229 33 -313 97c-74.667 -45.333 -179.334 -80.666 -314.001 -105.999c-114.667 -21.333 -230.334 -32 -347.001 -32c-184.667 0 -321.667 20.333 -411 61c-100 46 -162 124.667 -186 236
c-14.667 70 -7.33398 133 21.999 189l100 -29c-15.333 -46 -18.666 -89.333 -9.99902 -130c16 -76.667 68.333 -128 157 -154c50.667 -14.667 125.667 -22 225 -22h102c260 0 436.333 25.667 529 77c-48 35.333 -80.667 94 -98 176c-12.667 62 4 123.333 50 184
c44 56.667 90.667 85 140 85c51.333 0 100.333 -28.667 147 -86c40 -50 66 -102.333 78 -157c8 -37.333 4.16699 -79 -11.5 -125s-37.834 -77.333 -66.501 -94c30.667 -13.333 90.334 -20 179.001 -20h68zM1435 369.999c-5.33301 26 -18.333 50.667 -39 74
c-22.667 26 -46.334 39 -71.001 39c-26 0 -50 -12.5 -72 -37.5s-30.333 -50.167 -25 -75.5c4.66699 -22 20 -47 46 -75c26.667 -30 50.334 -45 71.001 -45c23.333 0 45.5 14 66.5 42s28.833 54 23.5 78zM1522 -235.001l-70 -128l-150 87l69 131z" />
    <glyph glyph-name="uni06A3.init" unicode="&#x6a3;" horiz-adv-x="538" 
d="M425 350c49.333 -232.667 -45.334 -349.333 -284.001 -350h-211l-31 150h193c67.333 0 126 12.333 176 37c46 22.667 66.667 43.667 62 63l-13 65c-38 -26 -84.667 -39 -140 -39c-58.667 0 -105.667 19.333 -141 58c-24.667 27.333 -41 60 -49 98
c-12 56 -8.33301 120.333 11 193c23.333 91.333 65.333 137 126 137c66 0 131.667 -54.667 197 -164c52.667 -87.333 87.334 -170 104.001 -248zM264 443.001c-44 112.667 -88.333 169 -133 169c-19.333 0 -35.333 -16.333 -48 -49c-12 -30 -15.667 -55.667 -11 -77
c11.333 -51.333 43.666 -77 96.999 -77c42.667 0 74.334 11.333 95.001 34zM118 1026l-70 -128l-150 87l69 131zM425 -253.999l-70 -128l-150 87l69 131z" />
    <glyph glyph-name="uni06A3.medi" unicode="&#x6a3;" horiz-adv-x="574" 
d="M573 1h-19c-116.667 0 -217.667 30 -303 90c-80.667 -60.667 -160.667 -91 -240 -91h-81l-31 150h97c51.333 0 92.666 12.333 123.999 37c-49.333 41.333 -82.333 100 -99 176c-13.333 62.667 3.33398 124 50.001 184c44 56.667 91 85 141 85s98.333 -27.333 145 -82
c40 -48 65.667 -98.333 77 -151c20 -94.667 -4.33301 -169 -73 -223c44 -17.333 99.333 -26 166 -26h15zM333 359c-5.33301 24.667 -18.999 50.666 -40.999 77.999c-24.667 30.667 -48.667 46 -72 46c-24 0 -47.333 -12.833 -70 -38.5s-31.334 -50.5 -26.001 -74.5
c4.66699 -22 19.667 -47.333 45 -76c27.333 -30.667 51.333 -46 72 -46c18.667 0 39.667 13.833 63 41.5s33 50.834 29 69.501zM206.001 918.999l-70 -128l-150 87l69 131zM439.001 -246.001l-70 -128l-150 87l69 131z" />
    <glyph glyph-name="uni06A3.fina" unicode="&#x6a3;" horiz-adv-x="1742" 
d="M1742 0l-71.998 -0.000976562c-124.667 0.666992 -229 33 -313 97c-74.667 -45.333 -179.334 -80.666 -314.001 -105.999c-114.667 -21.333 -230.334 -32 -347.001 -32c-184.667 0 -321.667 20.333 -411 61c-100 46 -162 124.667 -186 236
c-14.667 70 -7.33398 133 21.999 189l100 -29c-15.333 -46 -18.666 -89.333 -9.99902 -130c16 -76.667 68.333 -128 157 -154c50.667 -14.667 125.667 -22 225 -22h102c260 0 436.333 25.667 529 77c-48 35.333 -80.667 94 -98 176c-12.667 62 4 123.333 50 184
c44 56.667 90.667 85 140 85c51.333 0 100.333 -28.667 147 -86c40 -50 66 -102.333 78 -157c8 -37.333 4.16699 -79 -11.5 -125s-37.834 -77.333 -66.501 -94c30.667 -13.333 90.334 -20 179.001 -20h68zM1435 369.999c-5.33301 26 -18.333 50.667 -39 74
c-22.667 26 -46.334 39 -71.001 39c-26 0 -50 -12.5 -72 -37.5s-30.333 -50.167 -25 -75.5c4.66699 -22 20 -47 46 -75c26.667 -30 50.334 -45 71.001 -45c23.333 0 45.5 14 66.5 42s28.833 54 23.5 78zM1304 900.999l-70 -128l-150 87l69 131zM1519 -216.001l-70 -128
l-150 87l69 131z" />
    <glyph glyph-name="uni06A5.init" unicode="&#x6a5;" horiz-adv-x="538" 
d="M425 350c49.333 -232.667 -45.334 -349.333 -284.001 -350h-211l-31 150h193c67.333 0 126 12.333 176 37c46 22.667 66.667 43.667 62 63l-13 65c-38 -26 -84.667 -39 -140 -39c-58.667 0 -105.667 19.333 -141 58c-24.667 27.333 -41 60 -49 98
c-12 56 -8.33301 120.333 11 193c23.333 91.333 65.333 137 126 137c66 0 131.667 -54.667 197 -164c52.667 -87.333 87.334 -170 104.001 -248zM264 443.001c-44 112.667 -88.333 169 -133 169c-19.333 0 -35.333 -16.333 -48 -49c-12 -30 -15.667 -55.667 -11 -77
c11.333 -51.333 43.666 -77 96.999 -77c42.667 0 74.334 11.333 95.001 34zM305 -442.999l53 102l132 -84l-57 -99zM130 -255.999l58 105l134 -84l57 98l132 -81l-62 -105l-128 82l-58 -96z" />
    <glyph glyph-name="uni06A5.medi" unicode="&#x6a5;" horiz-adv-x="574" 
d="M573 1h-19c-116.667 0 -217.667 30 -303 90c-80.667 -60.667 -160.667 -91 -240 -91h-81l-31 150h97c51.333 0 92.666 12.333 123.999 37c-49.333 41.333 -82.333 100 -99 176c-13.333 62.667 3.33398 124 50.001 184c44 56.667 91 85 141 85s98.333 -27.333 145 -82
c40 -48 65.667 -98.333 77 -151c20 -94.667 -4.33301 -169 -73 -223c44 -17.333 99.333 -26 166 -26h15zM333 359c-5.33301 24.667 -18.999 50.666 -40.999 77.999c-24.667 30.667 -48.667 46 -72 46c-24 0 -47.333 -12.833 -70 -38.5s-31.334 -50.5 -26.001 -74.5
c4.66699 -22 19.667 -47.333 45 -76c27.333 -30.667 51.333 -46 72 -46c18.667 0 39.667 13.833 63 41.5s33 50.834 29 69.501zM302.001 -467.001l53 102l132 -84l-57 -99zM127.001 -280.001l58 105l134 -84l57 98l132 -81l-62 -105l-128 82l-58 -96z" />
    <glyph glyph-name="uni06A5.fina" unicode="&#x6a5;" horiz-adv-x="1742" 
d="M1742 0l-71.998 -0.000976562c-124.667 0.666992 -229 33 -313 97c-74.667 -45.333 -179.334 -80.666 -314.001 -105.999c-114.667 -21.333 -230.334 -32 -347.001 -32c-184.667 0 -321.667 20.333 -411 61c-100 46 -162 124.667 -186 236
c-14.667 70 -7.33398 133 21.999 189l100 -29c-15.333 -46 -18.666 -89.333 -9.99902 -130c16 -76.667 68.333 -128 157 -154c50.667 -14.667 125.667 -22 225 -22h102c260 0 436.333 25.667 529 77c-48 35.333 -80.667 94 -98 176c-12.667 62 4 123.333 50 184
c44 56.667 90.667 85 140 85c51.333 0 100.333 -28.667 147 -86c40 -50 66 -102.333 78 -157c8 -37.333 4.16699 -79 -11.5 -125s-37.834 -77.333 -66.501 -94c30.667 -13.333 90.334 -20 179.001 -20h68zM1435 369.999c-5.33301 26 -18.333 50.667 -39 74
c-22.667 26 -46.334 39 -71.001 39c-26 0 -50 -12.5 -72 -37.5s-30.333 -50.167 -25 -75.5c4.66699 -22 20 -47 46 -75c26.667 -30 50.334 -45 71.001 -45c23.333 0 45.5 14 66.5 42s28.833 54 23.5 78zM1429 -439.001l53 102l132 -84l-57 -99zM1254 -252.001l58 105
l134 -84l57 98l132 -81l-62 -105l-128 82l-58 -96z" />
    <glyph glyph-name="uni06A7.fina" unicode="&#x6a7;" horiz-adv-x="1199" 
d="M1199 0h-43.999c14 -147.333 -16.667 -268 -92 -362c-78 -98 -190.333 -147 -337 -147c-167.333 0 -302.333 50.333 -405 151c-79.333 78 -131.333 174.667 -156 290c-22 102 -14.333 195.667 23 281l108 -41c-23.333 -77.333 -25.333 -161.666 -6 -252.999
c19.333 -92.667 74 -164.334 164 -215.001c77.333 -43.333 165 -65 263 -65c111.333 0 196 35 254 105c55.333 67.333 79.333 152.666 72 255.999h-85c-156 4 -246.667 66 -272 186c-14 66 -11.333 129 8 189c22 70 61.667 105 119 105
c65.333 0 129.666 -41.667 192.999 -125c50 -65.333 86.667 -133.666 110 -204.999h51zM992.001 150c-10 33.333 -28.334 70 -55.001 110c-33.333 51.333 -65.333 77 -96 77c-22 0 -39.333 -12.333 -52 -37c-11.333 -22 -14.666 -44.667 -9.99902 -68
c12.667 -58.667 60 -86 142 -82h71zM820 718l-70 -128l-150 87l69 131z" />
    <glyph glyph-name="uni06A8.fina" unicode="&#x6a8;" horiz-adv-x="1199" 
d="M1199 0h-43.999c14 -147.333 -16.667 -268 -92 -362c-78 -98 -190.333 -147 -337 -147c-167.333 0 -302.333 50.333 -405 151c-79.333 78 -131.333 174.667 -156 290c-22 102 -14.333 195.667 23 281l108 -41c-23.333 -77.333 -25.333 -161.666 -6 -252.999
c19.333 -92.667 74 -164.334 164 -215.001c77.333 -43.333 165 -65 263 -65c111.333 0 196 35 254 105c55.333 67.333 79.333 152.666 72 255.999h-85c-156 4 -246.667 66 -272 186c-14 66 -11.333 129 8 189c22 70 61.667 105 119 105
c65.333 0 129.666 -41.667 192.999 -125c50 -65.333 86.667 -133.666 110 -204.999h51zM992.001 150c-10 33.333 -28.334 70 -55.001 110c-33.333 51.333 -65.333 77 -96 77c-22 0 -39.333 -12.333 -52 -37c-11.333 -22 -14.666 -44.667 -9.99902 -68
c12.667 -58.667 60 -86 142 -82h71zM745 877l-61 -112l-143 88l65 109zM914 702l-62 -113l-144 90l-61 -106l-140 87l65 113l139 -88l60 104z" />
    <glyph glyph-name="uni06AA.init" unicode="&#x6aa;" horiz-adv-x="1694" 
d="M-29 1l-32.001 149.992l121 -1c40 0 123 1 249 3s299.833 14 521.5 36s441.834 48.667 660.501 80c-1.33301 6.66699 -2.83301 14.667 -4.5 24s-3.83398 17 -6.50098 23c-10 28.667 -21.833 53.5 -35.5 74.5s-30.667 38 -51 51s-45.166 22.333 -74.499 28
s-64.666 7.5 -105.999 5.5c-28 0 -63.667 -1.33301 -107 -4l-144 -9l-168 -10.5c-59.333 -3.66699 -119.333 -6.66699 -180 -9s-120.834 -3.66602 -180.501 -3.99902s-115.834 1.16699 -168.501 4.5c-41.333 3.33301 -75.833 7.33301 -103.5 12s-50.667 10.834 -69 18.501
s-32.833 16.667 -43.5 27s-20 22.5 -28 36.5c-18 30.667 -24.5 61.167 -19.5 91.5s18.667 60 41 89s51.666 57.167 87.999 84.5s76.166 53.333 119.499 78s88.833 48 136.5 70s94.334 42.167 140.001 60.5s88.334 34.333 128.001 48l101.5 34.5l-6 -156
c-12.667 -5.33301 -31.834 -12.666 -57.501 -21.999l-89 -33.5l-109 -42l-116 -46.5l-111 -48c-35.667 -16 -66.834 -31.5 -93.501 -46.5s-47.667 -28.833 -63 -41.5s-22.333 -23.334 -21 -32.001c8 -17.333 27 -31 57 -41s67.833 -17.167 113.5 -21.5
s97.167 -6.16602 154.5 -5.49902s117.333 2.33398 180 5.00098s126.167 6.33398 190.5 11.001s126 8.83398 185 12.501s113.667 6.83398 164 9.50098s92.833 3.33398 127.5 2.00098c60.667 -4.66699 112.834 -17.667 156.501 -39s78.334 -48.5 104.001 -81.5
s42.334 -70.333 50.001 -112s5.5 -85.167 -6.5 -130.5c-6.66699 -28.667 -24.667 -64 -54 -106c-422 -64 -753.667 -101.333 -995 -112c-239.333 -10.667 -393 -15.667 -461 -15l1 -1z" />
    <glyph glyph-name="uni06AA.medi" unicode="&#x6aa;" horiz-adv-x="1907" 
d="M-29 1l-32.002 149.99l121 -1c40 0 123 1 249 3s299.833 14 521.5 36s441.834 48.667 660.501 80c-1.33301 6.66699 -2.83301 14.667 -4.5 24s-3.83398 17 -6.50098 23c-10 28.667 -21.833 53.5 -35.5 74.5s-30.667 38 -51 51s-45.166 22.333 -74.499 28
s-64.666 7.5 -105.999 5.5c-28 0 -63.667 -1.33301 -107 -4l-144 -9l-168 -10.5c-59.333 -3.66699 -119.333 -6.66699 -180 -9s-120.834 -3.66602 -180.501 -3.99902s-115.834 1.16699 -168.501 4.5c-41.333 3.33301 -75.833 7.33301 -103.5 12s-50.667 10.834 -69 18.501
s-32.833 16.667 -43.5 27s-20 22.5 -28 36.5c-18 30.667 -24.5 61.167 -19.5 91.5s18.667 60 41 89s51.666 57.167 87.999 84.5s76.166 53.333 119.499 78s88.833 48 136.5 70s94.334 42.167 140.001 60.5s88.334 34.333 128.001 48l101.5 34.5l-6 -156
c-12.667 -5.33301 -31.834 -12.666 -57.501 -21.999l-89 -33.5l-109 -42l-116 -46.5l-111 -48c-35.667 -16 -66.834 -31.5 -93.501 -46.5s-47.667 -28.833 -63 -41.5s-22.333 -23.334 -21 -32.001c8 -17.333 27 -31 57 -41s67.833 -17.167 113.5 -21.5
s97.167 -6.16602 154.5 -5.49902s117.333 2.33398 180 5.00098s126.167 6.33398 190.5 11.001s126 8.83398 185 12.501s113.667 6.83398 164 9.50098s92.833 3.33398 127.5 2.00098c60.667 -4.66699 112.834 -17.667 156.501 -39s78.334 -48.5 104.001 -81.5
s42.334 -70.333 50.001 -112s5.5 -85.167 -6.5 -130.5c-2.66699 -12 -7.33398 -25 -14.001 -39c8.66699 -11.333 21.334 -20.333 38.001 -27c31.333 -12 90 -18 176 -18h127c10.667 -17.333 19.167 -31.666 25.5 -42.999s10.5 -22 12.5 -32s2.5 -20.667 1.5 -32
s-3.5 -25.666 -7.5 -42.999h-112c-82.667 -1.33301 -144.667 1.16699 -186 7.5s-73.666 17.833 -96.999 34.5c-22.667 16 -37 43.333 -43 82c-410.667 -62 -734 -98 -970 -108c-239.333 -10.667 -393 -15.667 -461 -15l1 -1z" />
    <glyph glyph-name="uni06AA.fina" unicode="&#x6aa;" horiz-adv-x="2506" 
d="M626 -1c-169.333 2 -296.004 22.3232 -380.004 60.9902c-100.667 46 -162.667 124.667 -186 236c-14 70 -7 133 21 189l101 -29c-16 -46 -19.667 -89.333 -11 -130c16.667 -76.667 69.334 -128 158.001 -154c83.333 -16.667 183.333 -24.334 300 -23.001
c40 0 123 1.16699 249 3.5s299.833 14.5 521.5 36.5s441.834 48.667 660.501 80c-1.33301 6.66699 -2.83301 14.667 -4.5 24s-3.83398 17 -6.50098 23c-10 28.667 -21.833 53.5 -35.5 74.5s-30.667 38 -51 51s-45.166 22.333 -74.499 28s-64.666 7.5 -105.999 5.5
c-28.667 0 -64.5 -1.33301 -107.5 -4l-143.5 -9l-168 -10.5c-59.333 -3.66699 -119.333 -6.66699 -180 -9s-120.834 -3.66602 -180.501 -3.99902s-115.834 1.16699 -168.501 4.5c-41.333 3.33301 -75.833 7.33301 -103.5 12s-50.667 10.834 -69 18.501
s-32.833 16.667 -43.5 27s-20 22.5 -28 36.5c-18.667 30.667 -25.334 61.167 -20.001 91.5s19.166 60 41.499 89s51.5 57.167 87.5 84.5s75.833 53.333 119.5 78s89.334 48 137.001 70s94.334 42.167 140.001 60.5s88.334 34.333 128.001 48l101.5 34.5l-6 -156
c-12.667 -5.33301 -31.834 -12.666 -57.501 -21.999l-89 -33.5l-109 -42l-116 -46.5l-111 -48c-35.667 -16 -66.834 -31.5 -93.501 -46.5s-47.667 -28.833 -63 -41.5s-22.333 -23.334 -21 -32.001c8 -17.333 27 -31 57 -41s67.833 -17.167 113.5 -21.5
s97.167 -6.16602 154.5 -5.49902s117.333 2.33398 180 5.00098s126.167 6.33398 190.5 11.001s126 8.83398 185 12.501s113.667 6.83398 164 9.50098s92.833 3.33398 127.5 2.00098c60.667 -4.66699 112.834 -17.667 156.501 -39s78.334 -48.5 104.001 -81.5
s42.334 -70.333 50 -112c7.66699 -41.667 5.5 -85.167 -6.5 -130.5c-0.666992 -3.33301 -1.66699 -6.66602 -3 -9.99902c4.66699 -26 21 -44.667 49 -56c31.333 -12 90 -18 176 -18h127c10.667 -17.333 19.167 -31.666 25.5 -42.999s10.5 -22 12.5 -32s2.5 -20.667 1.5 -32
s-3.5 -25.666 -7.5 -42.999h-112c-82.667 -1.33301 -144.667 1.16699 -186 7.5s-73.666 17.833 -96.999 34.5c-21.333 15.333 -35 39 -41 71l-1 14c-422 -63.333 -753 -100.333 -993 -111c-239.333 -10.667 -392.666 -16 -459.999 -16v-1v0z" />
    <glyph glyph-name="uni06AB.init" unicode="&#x6ab;" horiz-adv-x="756" 
d="M512 1230l13 -155.001c-252.667 -114 -444.334 -224.333 -575.001 -331c226.667 -157.333 353.667 -300.666 381 -429.999c12.667 -61.333 4.33398 -120.333 -24.999 -177c-47.333 -90.667 -150.333 -136.334 -309 -137.001h-67l-31 150h133c144 0 205.333 49 184 147
c-11.333 54.667 -54.333 115 -129 181c-15.333 13.333 -98.666 78 -249.999 194c-14.667 90 -14 141.333 2 154c167.333 136.667 391.666 271.334 672.999 404.001zM522 885.999c9.33301 -45.333 3.66797 -84.333 -16.999 -117c-22.667 -34 -56.334 -51 -101.001 -51
c-38.667 0 -73.167 12.333 -103.5 37s-49.5 56 -57.5 94c-14 64.667 -9.33301 116 14 154c18 31.333 41.667 47 71 47c33.333 0 70 -14 110 -42c45.333 -33.333 73.333 -74 84 -122zM460.002 877.999c-6 27.333 -22.001 49.667 -48.001 67c-23.333 16 -49.333 24 -78 24
c-14 0 -25.167 -10.5 -33.5 -31.5s-11.5 -39.167 -9.5 -54.5c10.667 -48.667 42.334 -73 95.001 -73c22 0 40.333 5.66699 55 17c16.667 12.667 23 29.667 19 51z" />
    <glyph glyph-name="uni06AB.medi" unicode="&#x6ab;" horiz-adv-x="851" 
d="M851 0h-31c-165.333 0.666992 -341 112.667 -527 336c7.33301 -20 13 -39.333 17 -58c20.667 -96.667 0 -169 -62 -217c-53.333 -40 -130.666 -60.333 -231.999 -61h-86l-31 150h77c182 0 261.333 54.333 238 163c-11.333 52.667 -47 103.667 -107 153l-234 185
c-18.667 96.667 -23.334 148.667 -14.001 156c70.667 58.667 185.667 136 345 232c152.667 91.333 274.667 157.333 366 198l12 -154c-96.667 -44 -211 -103.667 -343 -179c-142.667 -81.333 -232.334 -140 -269.001 -176l178 -127c56.667 -40.667 109.334 -84 158.001 -130
c112 -104 195.333 -176.333 250 -217c93.333 -69.333 170 -104 230 -104h33zM586 883c9.33301 -45.333 3.66797 -84.333 -16.999 -117c-22.667 -34 -56.334 -51 -101.001 -51c-38.667 0 -73.167 12.333 -103.5 37s-49.5 56 -57.5 94c-14 64.667 -9.33301 116 14 154
c18 31.333 41.667 47 71 47c33.333 0 70 -14 110 -42c45.333 -33.333 73.333 -74 84 -122zM524.002 875c-6 27.333 -22.001 49.667 -48.001 67c-23.333 16 -49.333 24 -78 24c-14 0 -25.167 -10.5 -33.5 -31.5s-11.5 -39.167 -9.5 -54.5
c10.667 -48.667 42.334 -73 95.001 -73c22 0 40.333 5.66699 55 17c16.667 12.667 23 29.667 19 51z" />
    <glyph glyph-name="uni06AB.fina" unicode="&#x6ab;" horiz-adv-x="1807" 
d="M1807 0l-30.999 0.00292969c-172.667 0.666992 -351.334 114.667 -536.001 342c6 -15.333 10.333 -30.333 13 -45c27.333 -128.667 -45.334 -222.334 -218.001 -281.001c-112 -38 -239.333 -57 -382 -57c-184.667 0 -321.667 20.333 -411 61
c-100 46 -162 124.667 -186 236c-14.667 70 -7.33398 133 21.999 189l100 -29c-15.333 -46 -18.666 -89.333 -9.99902 -130c24.667 -117.333 152 -176 382 -176h29c120 0 235.667 11.667 347 35c172.667 36 251 92 235 168c-12.667 60 -49 114 -109 162l-237 179
c-18 96 -22.333 148 -13 156c72.667 60 187.667 137.333 345 232c152.667 91.333 274.667 157.333 366 198l13 -154c-98 -44.667 -212.333 -104.334 -343 -179.001c-142 -80.667 -232.333 -139.334 -271 -176.001l180 -127c62.667 -46.667 116.334 -91 161.001 -133
c228.667 -214 390 -321 484 -321h38zM1498 894.003c9.33301 -45.333 3.66797 -84.333 -16.999 -117c-22.667 -34 -56.334 -51 -101.001 -51c-38.667 0 -73.167 12.333 -103.5 37s-49.5 56 -57.5 94c-14 64.667 -9.33301 116 14 154c18 31.333 41.667 47 71 47
c33.333 0 70 -14 110 -42c45.333 -33.333 73.333 -74 84 -122zM1436 886.003c-6 27.333 -22.001 49.667 -48.001 67c-23.333 16 -49.333 24 -78 24c-14 0 -25.167 -10.5 -33.5 -31.5s-11.5 -39.167 -9.5 -54.5c10.667 -48.667 42.334 -73 95.001 -73
c22 0 40.333 5.66699 55 17c16.667 12.667 23 29.667 19 51z" />
    <glyph glyph-name="uni06AE.init" unicode="&#x6ae;" horiz-adv-x="756" 
d="M512 1230l13 -155.001c-252.667 -114 -444.334 -224.333 -575.001 -331c226.667 -157.333 353.667 -300.666 381 -429.999c12.667 -61.333 4.33398 -120.333 -24.999 -177c-47.333 -90.667 -150.333 -136.334 -309 -137.001h-67l-31 150h133c144 0 205.333 49 184 147
c-11.333 54.667 -54.333 115 -129 181c-15.333 13.333 -98.666 78 -249.999 194c-14.667 90 -14 141.333 2 154c167.333 136.667 391.666 271.334 672.999 404.001zM415 -424.001l53 102l132 -84l-57 -99zM240 -237.001l58 105l134 -84l57 98l132 -81l-62 -105l-128 82
l-58 -96z" />
    <glyph glyph-name="uni06AE.medi" unicode="&#x6ae;" horiz-adv-x="851" 
d="M851 0h-31c-165.333 0.666992 -341 112.667 -527 336c7.33301 -20 13 -39.333 17 -58c20.667 -96.667 0 -169 -62 -217c-53.333 -40 -130.666 -60.333 -231.999 -61h-86l-31 150h77c182 0 261.333 54.333 238 163c-11.333 52.667 -47 103.667 -107 153l-234 185
c-18.667 96.667 -23.334 148.667 -14.001 156c70.667 58.667 185.667 136 345 232c152.667 91.333 274.667 157.333 366 198l12 -154c-96.667 -44 -211 -103.667 -343 -179c-142.667 -81.333 -232.334 -140 -269.001 -176l178 -127c56.667 -40.667 109.334 -84 158.001 -130
c112 -104 195.333 -176.333 250 -217c93.333 -69.333 170 -104 230 -104h33zM404 -462l53 102l132 -84l-57 -99zM229 -275l58 105l134 -84l57 98l132 -81l-62 -105l-128 82l-58 -96z" />
    <glyph glyph-name="uni06AE.fina" unicode="&#x6ae;" horiz-adv-x="1532" 
d="M1532 0h-62.998c-88.667 0.666992 -162.334 47.334 -221.001 140.001l-3 2c-34.667 -52.667 -98.667 -94.667 -192 -126c-112 -38 -239.333 -57 -382 -57c-184.667 0 -321.667 20.333 -411 61c-100 46 -162 124.667 -186 236c-14.667 70 -7.33398 133 21.999 189l100 -29
c-15.333 -46 -18.666 -89.333 -9.99902 -130c24.667 -117.333 152 -176 382 -176h29c120 0 235.667 11.667 347 35c99.333 20.667 167.666 46.667 204.999 78v1c12 37.333 7.33301 99.666 -14 186.999l-191 790l118 68l172 -809c44 -206.667 119 -310 225 -310h41z
M743.002 560l-363 -98l-14 67l90 41c-40 32.667 -63.333 65 -70 97c-8 38 0 72.333 24 103s55 46 93 46c44.667 0 86 -12.667 124 -38l-11 -56c-32 9.33301 -65 14 -99 14c-16.667 0 -33 -4.66699 -49 -14c-18.667 -11.333 -26.667 -24.333 -24 -39
c10 -46.667 54.667 -70 134 -70c10.667 0 59 14 145 42zM745.002 -510l53 102l132 -84l-57 -99zM570.002 -323l58 105l134 -84l57 98l132 -81l-62 -105l-128 82l-58 -96z" />
    <glyph glyph-name="uni06B0.init" unicode="&#x6b0;" horiz-adv-x="639" 
d="M446 1384l14 -102.999c-78.667 -34.667 -183.667 -91.334 -315 -170.001l-314 -190l-8 88c247.333 160 455 285 623 375zM499 1176l13.001 -157c-105.333 -43.333 -216 -96.666 -332 -159.999c-106.667 -58.667 -178 -103.334 -214 -134.001
c88 -61.333 153.333 -112.333 196 -153c92 -87.333 147 -174.333 165 -261c44 -206.667 -59.667 -310.334 -311 -311.001h-86l-31 150h133c144.667 0 207 46.333 187 139c-16.667 78.667 -137.334 198.334 -362.001 359.001c-13.333 82 -12.333 129.667 3 143
c172.667 144 385.667 272.333 639 385zM464.001 952.001c9.33301 -45.333 3.66797 -84.333 -16.999 -117c-22.667 -34 -56.334 -51 -101.001 -51c-38.667 0 -73.167 12.333 -103.5 37s-49.5 56 -57.5 94c-14 64.667 -9.33301 116 14 154c18 31.333 41.667 47 71 47
c33.333 0 70 -14 110 -42c45.333 -33.333 73.333 -74 84 -122zM402.003 944.001c-6 27.333 -22.001 49.667 -48.001 67c-23.333 16 -49.333 24 -78 24c-14 0 -25.167 -10.5 -33.5 -31.5s-11.5 -39.167 -9.5 -54.5c10.667 -48.667 42.334 -73 95.001 -73
c22 0 40.333 5.66699 55 17c16.667 12.667 23 29.667 19 51z" />
    <glyph glyph-name="uni06B0.medi" unicode="&#x6b0;" horiz-adv-x="851" 
d="M521 1384l3 -105.998c-68 -28.667 -179 -86.334 -333 -173.001l-345 -194l-8 85c315.333 193.333 543 322.666 683 387.999zM851 0.00195312l-31.001 0.000976562c-165.333 0.666992 -341 112.667 -527 336c7.33301 -20 13 -39.333 17 -58
c20.667 -96.667 0 -169 -62 -217c-53.333 -40 -130.666 -60.333 -231.999 -61h-86l-31 150h77c182 0 261.333 54.333 238 163c-8 38.667 -46.333 86 -115 142c-4 3.33301 -78.667 58.666 -224 165.999c-19.333 100.667 -23.333 155.667 -12 165
c70.667 58.667 183.667 131.667 339 219c140.667 78.667 260 138.667 358 180l13 -155c-86.667 -30 -192 -77.333 -316 -142c-138 -72 -232.333 -132.333 -283 -181c14 -10 72.667 -49 176 -117c63.333 -42 115.333 -81.667 156 -119c112 -104 195.333 -176.333 250 -217
c93.333 -69.333 170 -104 230 -104h33zM608.999 827.003c9.33301 -45.333 3.66797 -84.333 -16.999 -117c-22.667 -34 -56.334 -51 -101.001 -51c-38.667 0 -73.167 12.333 -103.5 37s-49.5 56 -57.5 94c-14 64.667 -9.33301 116 14 154c18 31.333 41.667 47 71 47
c33.333 0 70 -14 110 -42c45.333 -33.333 73.333 -74 84 -122zM547.001 819.003c-6 27.333 -22.001 49.667 -48.001 67c-23.333 16 -49.333 24 -78 24c-14 0 -25.167 -10.5 -33.5 -31.5s-11.5 -39.167 -9.5 -54.5c10.667 -48.667 42.334 -73 95.001 -73
c22 0 40.333 5.66699 55 17c16.667 12.667 23 29.667 19 51z" />
    <glyph glyph-name="uni06B0.fina" unicode="&#x6b0;" horiz-adv-x="1820" 
d="M1481 1387l2 -106c-73.333 -31.333 -184.333 -88.666 -333 -171.999l-346 -195l-7 85c316 193.333 544 322.666 684 387.999zM1820 0h-30.9971c-172.667 0.666992 -351.334 114.667 -536.001 342c6 -15.333 10.333 -30.333 13 -45
c27.333 -128.667 -45.334 -222.334 -218.001 -281.001c-112 -38 -239.333 -57 -382 -57c-184.667 0 -321.667 20.333 -411 61c-100 46 -162 124.667 -186 236c-14.667 70 -7.33398 133 21.999 189l100 -29c-15.333 -46 -18.666 -89.333 -9.99902 -130
c24.667 -117.333 152 -176 382 -176h29c120 0 235.667 11.667 347 35c172.667 36 251 92 235 168c-12.667 60 -52.334 113.667 -119.001 161l-221 150c-19.333 100 -23 155 -11 165c70 58.667 183 131.667 339 219c142.667 80 261.667 140 357 180l13 -155
c-86.667 -30 -192 -77.333 -316 -142c-138 -72 -232.333 -132.333 -283 -181l171 -112c67.333 -45.333 121.333 -87.666 162 -126.999c226 -214 387.333 -321 484 -321h38zM1592 845c9.33301 -45.333 3.66797 -84.333 -16.999 -117c-22.667 -34 -56.334 -51 -101.001 -51
c-38.667 0 -73.167 12.333 -103.5 37s-49.5 56 -57.5 94c-14 64.667 -9.33301 116 14 154c18 31.333 41.667 47 71 47c33.333 0 70 -14 110 -42c45.333 -33.333 73.333 -74 84 -122zM1530 837c-6 27.333 -22.001 49.667 -48.001 67c-23.333 16 -49.333 24 -78 24
c-14 0 -25.167 -10.5 -33.5 -31.5s-11.5 -39.167 -9.5 -54.5c10.667 -48.667 42.334 -73 95.001 -73c22 0 40.333 5.66699 55 17c16.667 12.667 23 29.667 19 51z" />
    <glyph glyph-name="uni06B2.init" unicode="&#x6b2;" horiz-adv-x="731" 
d="M446 1384l14 -102.999c-78.667 -34.667 -183.667 -91.334 -315 -170.001l-314 -190l-8 88c247.333 160 455 285 623 375zM499 1176l13.001 -157c-105.333 -43.333 -216 -96.666 -332 -159.999c-106.667 -58.667 -178 -103.334 -214 -134.001
c88 -61.333 153.333 -112.333 196 -153c92 -87.333 147 -174.333 165 -261c44 -206.667 -59.667 -310.334 -311 -311.001h-86l-31 150h133c144.667 0 207 46.333 187 139c-16.667 78.667 -137.334 198.334 -362.001 359.001c-13.333 82 -12.333 129.667 3 143
c172.667 144 385.667 272.333 639 385zM578.001 -260.999l-63 -111l-131 84l-60 -100l-139 86l68 113l126 -82l59 96z" />
    <glyph glyph-name="uni06B2.medi" unicode="&#x6b2;" horiz-adv-x="851" 
d="M521 1384l3 -105.998c-68 -28.667 -179 -86.334 -333 -173.001l-345 -194l-8 85c315.333 193.333 543 322.666 683 387.999zM851 0.00195312l-31.001 0.000976562c-165.333 0.666992 -341 112.667 -527 336c7.33301 -20 13 -39.333 17 -58
c20.667 -96.667 0 -169 -62 -217c-53.333 -40 -130.666 -60.333 -231.999 -61h-86l-31 150h77c182 0 261.333 54.333 238 163c-8 38.667 -46.333 86 -115 142c-4 3.33301 -78.667 58.666 -224 165.999c-19.333 100.667 -23.333 155.667 -12 165
c70.667 58.667 183.667 131.667 339 219c140.667 78.667 260 138.667 358 180l13 -155c-86.667 -30 -192 -77.333 -316 -142c-138 -72 -232.333 -132.333 -283 -181c14 -10 72.667 -49 176 -117c63.333 -42 115.333 -81.667 156 -119c112 -104 195.333 -176.333 250 -217
c93.333 -69.333 170 -104 230 -104h33zM627.999 -243.997l-63 -111l-131 84l-60 -100l-139 86l68 113l126 -82l59 96z" />
    <glyph glyph-name="uni06B2.fina" unicode="&#x6b2;" horiz-adv-x="1820" 
d="M1481 1387l2 -106c-73.333 -31.333 -184.333 -88.666 -333 -171.999l-346 -195l-7 85c316 193.333 544 322.666 684 387.999zM1820 0h-30.9971c-172.667 0.666992 -351.334 114.667 -536.001 342c6 -15.333 10.333 -30.333 13 -45
c27.333 -128.667 -45.334 -222.334 -218.001 -281.001c-112 -38 -239.333 -57 -382 -57c-184.667 0 -321.667 20.333 -411 61c-100 46 -162 124.667 -186 236c-14.667 70 -7.33398 133 21.999 189l100 -29c-15.333 -46 -18.666 -89.333 -9.99902 -130
c24.667 -117.333 152 -176 382 -176h29c120 0 235.667 11.667 347 35c172.667 36 251 92 235 168c-12.667 60 -52.334 113.667 -119.001 161l-221 150c-19.333 100 -23 155 -11 165c70 58.667 183 131.667 339 219c142.667 80 261.667 140 357 180l13 -155
c-86.667 -30 -192 -77.333 -316 -142c-138 -72 -232.333 -132.333 -283 -181l171 -112c67.333 -45.333 121.333 -87.666 162 -126.999c226 -214 387.333 -321 484 -321h38zM951.003 -277l-63 -111l-131 84l-60 -100l-139 86l68 113l126 -82l59 96z" />
    <glyph glyph-name="uni06B4.init" unicode="&#x6b4;" horiz-adv-x="731" 
d="M446 1384l14 -102.999c-78.667 -34.667 -183.667 -91.334 -315 -170.001l-314 -190l-8 88c247.333 160 455 285 623 375zM499 1176l13.001 -157c-105.333 -43.333 -216 -96.666 -332 -159.999c-106.667 -58.667 -178 -103.334 -214 -134.001
c88 -61.333 153.333 -112.333 196 -153c92 -87.333 147 -174.333 165 -261c44 -206.667 -59.667 -310.334 -311 -311.001h-86l-31 150h133c144.667 0 207 46.333 187 139c-16.667 78.667 -137.334 198.334 -362.001 359.001c-13.333 82 -12.333 129.667 3 143
c172.667 144 385.667 272.333 639 385zM11.001 1619l-61 -112l-143 88l65 109zM180.001 1444l-62 -113l-144 90l-61 -106l-140 87l65 113l139 -88l60 104z" />
    <glyph glyph-name="uni06B4.medi" unicode="&#x6b4;" horiz-adv-x="851" 
d="M521 1384l3 -105.998c-68 -28.667 -179 -86.334 -333 -173.001l-345 -194l-8 85c315.333 193.333 543 322.666 683 387.999zM851 0.00195312l-31.001 0.000976562c-165.333 0.666992 -341 112.667 -527 336c7.33301 -20 13 -39.333 17 -58
c20.667 -96.667 0 -169 -62 -217c-53.333 -40 -130.666 -60.333 -231.999 -61h-86l-31 150h77c182 0 261.333 54.333 238 163c-8 38.667 -46.333 86 -115 142c-4 3.33301 -78.667 58.666 -224 165.999c-19.333 100.667 -23.333 155.667 -12 165
c70.667 58.667 183.667 131.667 339 219c140.667 78.667 260 138.667 358 180l13 -155c-86.667 -30 -192 -77.333 -316 -142c-138 -72 -232.333 -132.333 -283 -181c14 -10 72.667 -49 176 -117c63.333 -42 115.333 -81.667 156 -119c112 -104 195.333 -176.333 250 -217
c93.333 -69.333 170 -104 230 -104h33zM51.999 1589l-61 -112l-143 88l65 109zM220.999 1414l-62 -113l-144 90l-61 -106l-140 87l65 113l139 -88l60 104z" />
    <glyph glyph-name="uni06B4.fina" unicode="&#x6b4;" horiz-adv-x="1820" 
d="M1481 1387l2 -106c-73.333 -31.333 -184.333 -88.666 -333 -171.999l-346 -195l-7 85c316 193.333 544 322.666 684 387.999zM1820 0h-30.9971c-172.667 0.666992 -351.334 114.667 -536.001 342c6 -15.333 10.333 -30.333 13 -45
c27.333 -128.667 -45.334 -222.334 -218.001 -281.001c-112 -38 -239.333 -57 -382 -57c-184.667 0 -321.667 20.333 -411 61c-100 46 -162 124.667 -186 236c-14.667 70 -7.33398 133 21.999 189l100 -29c-15.333 -46 -18.666 -89.333 -9.99902 -130
c24.667 -117.333 152 -176 382 -176h29c120 0 235.667 11.667 347 35c172.667 36 251 92 235 168c-12.667 60 -52.334 113.667 -119.001 161l-221 150c-19.333 100 -23 155 -11 165c70 58.667 183 131.667 339 219c142.667 80 261.667 140 357 180l13 -155
c-86.667 -30 -192 -77.333 -316 -142c-138 -72 -232.333 -132.333 -283 -181l171 -112c67.333 -45.333 121.333 -87.666 162 -126.999c226 -214 387.333 -321 484 -321h38zM1011 1579l-61 -112l-143 88l65 109zM1180 1404l-62 -113l-144 90l-61 -106l-140 87l65 113l139 -88
l60 104z" />
    <glyph glyph-name="uni06B5.init" unicode="&#x6b5;" horiz-adv-x="346" 
d="M199 434c28.667 -135.333 36.666 -233.666 23.999 -294.999c-20 -92 -83.667 -138.333 -191 -139h-102l-31 150h103c66 0 104 25.667 114 77c6 30.667 0.666992 86 -16 166c-5.33301 25.333 -10.666 48.666 -15.999 69.999l-179 738l117 68zM-0.000976562 1584
c-8.66699 -8 -17.5 -20.832 -26.5 -38.499s-17.5 -38.5 -25.5 -62.5s-14.667 -50.167 -20 -78.5s-8.33301 -57.5 -9 -87.5h-28l-2 3c-14 29.333 -29.833 58.166 -47.5 86.499s-35.5 54.333 -53.5 78s-35.167 44.167 -51.5 61.5s-29.833 30 -40.5 38l87 2
c19.333 -21.333 37.333 -47.333 54 -78s32 -62.667 46 -96c0 33.333 2.33301 65.333 7 96s11.667 56.667 21 78z" />
    <glyph glyph-name="uni06B5.medi" unicode="&#x6b5;" horiz-adv-x="465" 
d="M465 0l-30.999 0.000976562c-88.667 0.666992 -161 45.667 -217 135c-34.667 -89.333 -96.334 -134.333 -185.001 -135h-102l-31 150h72c79.333 0 127 24.667 143 74c12 37.333 7.33301 99.666 -14 186.999l-190 790l117 68l172 -809c44 -206.667 119 -310 225 -310h9z
M26.001 1602c-8.66699 -8 -17.5 -20.832 -26.5 -38.499s-17.5 -38.5 -25.5 -62.5s-14.667 -50.167 -20 -78.5s-8.33301 -57.5 -9 -87.5h-28l-2 3c-14 29.333 -29.833 58.166 -47.5 86.499s-35.5 54.333 -53.5 78s-35.167 44.167 -51.5 61.5s-29.833 30 -40.5 38l87 2
c19.333 -21.333 37.333 -47.333 54 -78s32 -62.667 46 -96c0 33.333 2.33301 65.333 7 96s11.667 56.667 21 78z" />
    <glyph glyph-name="uni06B5.fina" unicode="&#x6b5;" horiz-adv-x="1236" 
d="M762 1623c-8.66699 -8 -17.5 -20.832 -26.5 -38.499s-17.5 -38.5 -25.5 -62.5s-14.667 -50.167 -20 -78.5s-8.33301 -57.5 -9 -87.5h-28l-2 3c-14 29.333 -29.833 58.166 -47.5 86.499s-35.5 54.333 -53.5 78s-35.167 44.167 -51.5 61.5s-29.833 30 -40.5 38l87 2
c19.333 -21.333 37.333 -47.333 54 -78s32 -62.667 46 -96c0 33.333 2.33301 65.333 7 96s11.667 56.667 21 78zM1236 0.000976562l-33.002 -0.000976562c-69.333 0.666992 -128.666 30.334 -177.999 89.001c81.333 -383.333 -47 -575 -385 -575
c-128 0 -235.667 38.333 -323 115c-84 74 -139.667 175.333 -167 304c-26 120.667 -19.667 227 19 319l108 -37c-26.667 -82 -31 -166 -13 -252c42.667 -200.667 169 -301 379 -301c252.667 0 344.667 141.333 276 424l-270 1110l128 73l180 -850
c38.667 -179.333 119.334 -269 242.001 -269h5z" />
    <glyph glyph-name="uni06B6.init" unicode="&#x6b6;" horiz-adv-x="346" 
d="M199 434c28.667 -135.333 36.666 -233.666 23.999 -294.999c-20 -92 -83.667 -138.333 -191 -139h-102l-31 150h103c66 0 104 25.667 114 77c6 30.667 0.666992 86 -16 166c-5.33301 25.333 -10.666 48.666 -15.999 69.999l-179 738l117 68zM-10.001 1483l-70 -128
l-150 87l69 131z" />
    <glyph glyph-name="uni06B6.medi" unicode="&#x6b6;" horiz-adv-x="465" 
d="M465 0l-30.999 0.000976562c-88.667 0.666992 -161 45.667 -217 135c-34.667 -89.333 -96.334 -134.333 -185.001 -135h-102l-31 150h72c79.333 0 127 24.667 143 74c12 37.333 7.33301 99.666 -14 186.999l-190 790l117 68l172 -809c44 -206.667 119 -310 225 -310h9z
M19.001 1479l-70 -128l-150 87l69 131z" />
    <glyph glyph-name="uni06B6.fina" unicode="&#x6b6;" horiz-adv-x="1236" 
d="M742 1478l-70 -128l-150 87l69 131zM1236 0l-33.002 -0.000976562c-69.333 0.666992 -128.666 30.334 -177.999 89.001c81.333 -383.333 -47 -575 -385 -575c-128 0 -235.667 38.333 -323 115c-84 74 -139.667 175.333 -167 304c-26 120.667 -19.667 227 19 319l108 -37
c-26.667 -82 -31 -166 -13 -252c42.667 -200.667 169 -301 379 -301c252.667 0 344.667 141.333 276 424l-270 1110l128 73l180 -850c38.667 -179.333 119.334 -269 242.001 -269h5z" />
    <glyph glyph-name="uni06B7.init" unicode="&#x6b7;" horiz-adv-x="346" 
d="M199 434c28.667 -135.333 36.666 -233.666 23.999 -294.999c-20 -92 -83.667 -138.333 -191 -139h-102l-31 150h103c66 0 104 25.667 114 77c6 30.667 0.666992 86 -16 166c-5.33301 25.333 -10.666 48.666 -15.999 69.999l-179 738l117 68zM-94.001 1656l-61 -112
l-143 88l65 109zM74.999 1481l-62 -113l-144 90l-61 -106l-140 87l65 113l139 -88l60 104z" />
    <glyph glyph-name="uni06B7.medi" unicode="&#x6b7;" horiz-adv-x="465" 
d="M465 0l-30.999 0.000976562c-88.667 0.666992 -161 45.667 -217 135c-34.667 -89.333 -96.334 -134.333 -185.001 -135h-102l-31 150h72c79.333 0 127 24.667 143 74c12 37.333 7.33301 99.666 -14 186.999l-190 790l117 68l172 -809c44 -206.667 119 -310 225 -310h9z
M-74.999 1646l-61 -112l-143 88l65 109zM94.001 1471l-62 -113l-144 90l-61 -106l-140 87l65 113l139 -88l60 104z" />
    <glyph glyph-name="uni06B7.fina" unicode="&#x6b7;" horiz-adv-x="1236" 
d="M680 1667l-61 -112l-143 88l65 109zM849 1492l-62 -113l-144 90l-61 -106l-140 87l65 113l139 -88l60 104zM1236 0l-33.002 -0.000976562c-69.333 0.666992 -128.666 30.334 -177.999 89.001c81.333 -383.333 -47 -575 -385 -575c-128 0 -235.667 38.333 -323 115
c-84 74 -139.667 175.333 -167 304c-26 120.667 -19.667 227 19 319l108 -37c-26.667 -82 -31 -166 -13 -252c42.667 -200.667 169 -301 379 -301c252.667 0 344.667 141.333 276 424l-270 1110l128 73l180 -850c38.667 -179.333 119.334 -269 242.001 -269h5z" />
    <glyph glyph-name="uni06B8.init" unicode="&#x6b8;" horiz-adv-x="346" 
d="M199 434c28.667 -135.333 36.666 -233.666 23.999 -294.999c-20 -92 -83.667 -138.333 -191 -139h-102l-31 150h103c66 0 104 25.667 114 77c6 30.667 0.666992 86 -16 166c-5.33301 25.333 -10.666 48.666 -15.999 69.999l-179 738l117 68zM168.999 -481l53 102l132 -84
l-57 -99zM-6.00098 -294l58 105l134 -84l57 98l132 -81l-62 -105l-128 82l-58 -96z" />
    <glyph glyph-name="uni06B8.medi" unicode="&#x6b8;" horiz-adv-x="465" 
d="M465 0l-30.999 0.000976562c-88.667 0.666992 -161 45.667 -217 135c-34.667 -89.333 -96.334 -134.333 -185.001 -135h-102l-31 150h72c79.333 0 127 24.667 143 74c12 37.333 7.33301 99.666 -14 186.999l-190 790l117 68l172 -809c44 -206.667 119 -310 225 -310h9z
M262.001 -471.999l53 102l132 -84l-57 -99zM87.001 -284.999l58 105l134 -84l57 98l132 -81l-62 -105l-128 82l-58 -96z" />
    <glyph glyph-name="uni06B8.fina" unicode="&#x6b8;" horiz-adv-x="1236" 
d="M730 -938l53 102l132 -84l-57 -99zM555 -751l58 105l134 -84l57 98l132 -81l-62 -105l-128 82l-58 -96zM1236 0l-33.002 -0.000976562c-69.333 0.666992 -128.666 30.334 -177.999 89.001c81.333 -383.333 -47 -575 -385 -575c-128 0 -235.667 38.333 -323 115
c-84 74 -139.667 175.333 -167 304c-26 120.667 -19.667 227 19 319l108 -37c-26.667 -82 -31 -166 -13 -252c42.667 -200.667 169 -301 379 -301c252.667 0 344.667 141.333 276 424l-270 1110l128 73l180 -850c38.667 -179.333 119.334 -269 242.001 -269h5z" />
    <glyph glyph-name="uni06B9.init" unicode="&#x6b9;" horiz-adv-x="417" 
d="M315 258c36 -171.333 -45.335 -257.333 -244.002 -258h-123l-31 150h130c115.333 0 166.333 31 153 93c-7.33301 33.333 -32.666 72 -75.999 116l-43 44l79 113c82.667 -74.667 134.334 -160.667 155.001 -258zM115.998 783l-70 -128l-150 87l69 131zM345.998 -275
l-70 -128l-150 87l69 131z" />
    <glyph glyph-name="uni06B9.medi" unicode="&#x6b9;" horiz-adv-x="548" 
d="M547 1h-54c-116.667 0 -202 40.667 -256 122c-10 -36.667 -32.5 -66.167 -67.5 -88.5s-73.833 -33.5 -116.5 -33.5h-123l-31 149h114c49.333 0 88.333 11.333 117 34c33.333 26 45 62.667 35 110l-13 63l96 27c21.333 -96.667 52.333 -161.667 93 -195
c32 -26 80.333 -39 145 -39h30zM221 705l-70 -128l-150 87l69 131zM421 -272l-70 -128l-150 87l69 131z" />
    <glyph glyph-name="uni06B9.fina" unicode="&#x6b9;" horiz-adv-x="1185" 
d="M568 536l-70 -128l-150 87l69 131zM843 -737l-70 -128l-150 87l69 131zM1185 0l-28.999 -0.000976562c-48 0.666992 -91 17 -129 49c4 -14.667 7.33301 -29.334 10 -44.001c32 -148 10 -266.667 -66 -356c-73.333 -87.333 -184.333 -131 -333 -131
c-124.667 0 -232.834 37 -324.501 111s-150.834 173 -177.501 297c-20.667 99.333 -12.667 197.333 24 294l101 -35c-28 -71.333 -33.333 -148 -16 -230c42 -197.333 170.667 -296 386 -296c98.667 0 178 25.333 238 76c67.333 56.667 91 132.334 71 227.001
c-20.667 96 -71.667 192.333 -153 289l91 96c48.667 -69.333 85 -115.666 109 -138.999c44.667 -38.667 92.334 -58 143.001 -58h23z" />
    <glyph glyph-name="uni06BC.init" unicode="&#x6bc;" horiz-adv-x="417" 
d="M315 258c36 -171.333 -45.335 -257.333 -244.002 -258h-123l-31 150h130c115.333 0 166.333 31 153 93c-7.33301 33.333 -32.666 72 -75.999 116l-43 44l79 113c82.667 -74.667 134.334 -160.667 155.001 -258zM107.998 746l-70 -128l-150 87l69 131zM414.998 -114
c9.33301 -45.333 3.66797 -84.333 -16.999 -117c-22.667 -34 -56.334 -51 -101.001 -51c-38.667 0 -73.167 12.333 -103.5 37s-49.5 56 -57.5 94c-14 64.667 -9.33301 116 14 154c18 31.333 41.667 47 71 47c33.333 0 70 -14 110 -42c45.333 -33.333 73.333 -74 84 -122z
M353 -122c-6 27.333 -22.001 49.667 -48.001 67c-23.333 16 -49.333 24 -78 24c-14 0 -25.167 -10.5 -33.5 -31.5s-11.5 -39.167 -9.5 -54.5c10.667 -48.667 42.334 -73 95.001 -73c22 0 40.333 5.66699 55 17c16.667 12.667 23 29.667 19 51z" />
    <glyph glyph-name="uni06BC.medi" unicode="&#x6bc;" horiz-adv-x="548" 
d="M547 1h-54c-116.667 0 -202 40.667 -256 122c-10 -36.667 -32.5 -66.167 -67.5 -88.5s-73.833 -33.5 -116.5 -33.5h-123l-31 149h114c49.333 0 88.333 11.333 117 34c33.333 26 45 62.667 35 110l-13 63l96 27c21.333 -96.667 52.333 -161.667 93 -195
c32 -26 80.333 -39 145 -39h30zM246 645l-70 -128l-150 87l69 131zM323 -113c9.33301 -45.333 3.66797 -84.333 -16.999 -117c-22.667 -34 -56.334 -51 -101.001 -51c-38.667 0 -73.167 12.333 -103.5 37s-49.5 56 -57.5 94c-14 64.667 -9.33301 116 14 154
c18 31.333 41.667 47 71 47c33.333 0 70 -14 110 -42c45.333 -33.333 73.333 -74 84 -122zM261.002 -121c-6 27.333 -22.001 49.667 -48.001 67c-23.333 16 -49.333 24 -78 24c-14 0 -25.167 -10.5 -33.5 -31.5s-11.5 -39.167 -9.5 -54.5
c10.667 -48.667 42.334 -73 95.001 -73c22 0 40.333 5.66699 55 17c16.667 12.667 23 29.667 19 51z" />
    <glyph glyph-name="uni06BC.fina" unicode="&#x6bc;" horiz-adv-x="1185" 
d="M574 566l-70 -128l-150 87l69 131zM1185 0l-28.999 -0.000976562c-48 0.666992 -91 17 -129 49c4 -14.667 7.33301 -29.334 10 -44.001c32 -148 10 -266.667 -66 -356c-73.333 -87.333 -184.333 -131 -333 -131c-124.667 0 -232.834 37 -324.501 111
s-150.834 173 -177.501 297c-20.667 99.333 -12.667 197.333 24 294l101 -35c-28 -71.333 -33.333 -148 -16 -230c42 -197.333 170.667 -296 386 -296c98.667 0 178 25.333 238 76c67.333 56.667 91 132.334 71 227.001c-20.667 96 -71.667 192.333 -153 289l91 96
c48.667 -69.333 85 -115.666 109 -138.999c44.667 -38.667 92.334 -58 143.001 -58h23zM876.001 -599.001c9.33301 -45.333 3.66797 -84.333 -16.999 -117c-22.667 -34 -56.334 -51 -101.001 -51c-38.667 0 -73.167 12.333 -103.5 37s-49.5 56 -57.5 94
c-14 64.667 -9.33301 116 14 154c18 31.333 41.667 47 71 47c33.333 0 70 -14 110 -42c45.333 -33.333 73.333 -74 84 -122zM814.003 -607.001c-6 27.333 -22.001 49.667 -48.001 67c-23.333 16 -49.333 24 -78 24c-14 0 -25.167 -10.5 -33.5 -31.5
s-11.5 -39.167 -9.5 -54.5c10.667 -48.667 42.334 -73 95.001 -73c22 0 40.333 5.66699 55 17c16.667 12.667 23 29.667 19 51z" />
    <glyph glyph-name="uni06BD.fina" unicode="&#x6bd;" horiz-adv-x="1185" 
d="M1185 0l-28.999 -0.000976562c-48 0.666992 -91 17 -129 49c4 -14.667 7.33301 -29.334 10 -44.001c32 -148 10 -266.667 -66 -356c-73.333 -87.333 -184.333 -131 -333 -131c-124.667 0 -232.834 37 -324.501 111s-150.834 173 -177.501 297
c-20.667 99.333 -12.667 197.333 24 294l101 -35c-28 -71.333 -33.333 -148 -16 -230c42 -197.333 170.667 -296 386 -296c98.667 0 178 25.333 238 76c67.333 56.667 91 132.334 71 227.001c-20.667 96 -71.667 192.333 -153 289l91 96
c48.667 -69.333 85 -115.666 109 -138.999c44.667 -38.667 92.334 -58 143.001 -58h23zM481.001 704.999l-61 -112l-143 88l65 109zM650.001 529.999l-62 -113l-144 90l-61 -106l-140 87l65 113l139 -88l60 104z" />
    <glyph glyph-name="uni06BF.init" unicode="&#x6bf;" horiz-adv-x="954" 
d="M864 419l-3.00293 -143c-114.667 -0.666992 -209.667 -25 -285 -73c-41.333 -30 -104.666 -73.667 -189.999 -131c-76 -47.333 -177.667 -71.333 -305 -72h-151l-31 150h156c90 0 163.333 10 220 30c36.667 12.667 85 38 145 76c62.667 40 110.667 66.667 144 80
c-39.333 9.33301 -103 32.333 -191 69c-78.667 33.333 -129 50 -151 50c-34 0 -73 -27.667 -117 -83l-95 49c14.667 40 37.334 78 68.001 114c36 42.667 70 64 102 64c46.667 0 108.667 -16.333 186 -49c122.667 -52 195 -81.667 217 -89
c92.667 -30.667 186.334 -44.667 281.001 -42zM557.997 -416l53 102l132 -84l-57 -99zM382.997 -229l58 105l134 -84l57 98l132 -81l-62 -105l-128 82l-58 -96zM530.997 802l-70 -128l-150 87l69 131z" />
    <glyph glyph-name="uni06BF.medi" unicode="&#x6bf;" horiz-adv-x="1100" 
d="M1100 0h-129c-90 0.666992 -161 31 -213 91c-14.667 17.333 -42.667 66.333 -84 147l-271 -157c-94.667 -53.333 -198.667 -80.333 -312 -81h-161l-31 150h156c114.667 0 212 19.667 292 59l246 128c-58.667 12 -134.667 37 -228 75c-84 34.667 -135.667 52 -155 52
c-39.333 0 -73 -26.667 -101 -80l-101 48c39.333 124 91.666 186 156.999 186c44 0 104.667 -16 182 -48c118.667 -48.667 193.334 -78 224.001 -88c98 -31.333 195.667 -47 293 -47c20 0 40 0.666992 60 2l-5 -140c-78.667 -0.666992 -138.667 -11.667 -180 -33
c36.667 -76.667 116 -114.667 238 -114h91zM550 -459l53 102l132 -84l-57 -99zM375 -272l58 105l134 -84l57 98l132 -81l-62 -105l-128 82l-58 -96zM539 849l-70 -128l-150 87l69 131z" />
    <glyph glyph-name="uni06BF.fina" unicode="&#x6bf;" horiz-adv-x="1134" 
d="M1322 -702c-125.333 -46 -258.332 -68.999 -398.999 -68.999c-184.667 0 -338 34 -460 102c-148.667 82.667 -241.334 211 -278.001 385c-30.667 144.667 1 277 95 397c76 96 179 171.333 309 226c-172 48 -270.333 72 -295 72c-44 0 -78.333 -31.667 -103 -95l-105 42
c28.667 135.333 82.334 203 161.001 203c47.333 0 143.333 -20 288 -60s258.667 -60 342 -60c35.333 0 70.666 1.66699 105.999 5l-6 -150c-91.333 -1.33301 -156.666 -10.333 -195.999 -27c18 -50.667 49 -84.334 93 -101.001c32 -12 84.667 -18 158 -18h70l32 -150h-109
c-72.667 0.666992 -138 24.667 -196 72s-97.667 107 -119 179c-140.667 -51.333 -247.334 -123 -320.001 -215c-74.667 -95.333 -100 -198.333 -76 -309c49.333 -233.333 255.333 -350 618 -350c134.667 0 242.667 15.667 324 47zM671.001 -422.999l53 102l132 -84l-57 -99z
M496.001 -235.999l58 105l134 -84l57 98l132 -81l-62 -105l-128 82l-58 -96zM609.001 795.001l-70 -128l-150 87l69 131z" />
    <glyph glyph-name="uni06C4.fina" unicode="&#x6c4;" horiz-adv-x="739" 
d="M739 0h-129c8 -242 -111 -421 -357 -537l-117 105c117.333 72.667 200.333 133.667 249 183c74 75.333 109.667 158.333 107 249c-32.667 -4.66699 -66.667 -7 -102 -7c-148.667 -4 -234.334 47.333 -257.001 154c-13.333 64.667 -8.66602 132.667 14.001 204
c26 82 68.667 123 128 123c75.333 0 142 -37 200 -111c44.667 -56 80.667 -127 108 -213h124zM445 151c-10.667 40 -28.001 75.999 -52.001 107.999c-29.333 40.667 -61.333 61 -96 61c-24 0 -42 -13.167 -54 -39.5s-15.333 -51.833 -10 -76.5
c6.66699 -32 43.334 -50.333 110.001 -55c45.333 -1.33301 79.333 -0.666016 102 2.00098zM658.999 -547.001c9.33301 -45.333 3.66797 -84.333 -16.999 -117c-22.667 -34 -56.334 -51 -101.001 -51c-38.667 0 -73.167 12.333 -103.5 37s-49.5 56 -57.5 94
c-14 64.667 -9.33301 116 14 154c18 31.333 41.667 47 71 47c33.333 0 70 -14 110 -42c45.333 -33.333 73.333 -74 84 -122zM597.001 -555.001c-6 27.333 -22.001 49.667 -48.001 67c-23.333 16 -49.333 24 -78 24c-14 0 -25.167 -10.5 -33.5 -31.5
s-11.5 -39.167 -9.5 -54.5c10.667 -48.667 42.334 -73 95.001 -73c22 0 40.333 5.66699 55 17c16.667 12.667 23 29.667 19 51z" />
    <glyph glyph-name="uni06CA.fina" unicode="&#x6ca;" horiz-adv-x="739" 
d="M739 0h-129c8 -242 -111 -421 -357 -537l-117 105c117.333 72.667 200.333 133.667 249 183c74 75.333 109.667 158.333 107 249c-32.667 -4.66699 -66.667 -7 -102 -7c-148.667 -4 -234.334 47.333 -257.001 154c-13.333 64.667 -8.66602 132.667 14.001 204
c26 82 68.667 123 128 123c75.333 0 142 -37 200 -111c44.667 -56 80.667 -127 108 -213h124zM445 151c-10.667 40 -28.001 75.999 -52.001 107.999c-29.333 40.667 -61.333 61 -96 61c-24 0 -42 -13.167 -54 -39.5s-15.333 -51.833 -10 -76.5
c6.66699 -32 43.334 -50.333 110.001 -55c45.333 -1.33301 79.333 -0.666016 102 2.00098zM381.999 701.999l-63 -111l-131 84l-60 -100l-139 86l68 113l126 -82l59 96z" />
    <glyph glyph-name="uni06CD.fina" unicode="&#x6cd;" horiz-adv-x="1129" 
d="M1129 0l-199.001 0.00195312c-99.333 0.666992 -146.666 -10 -141.999 -32c4 -16.667 45.333 -31.334 124 -44.001c81.333 -12.667 135 -25 161 -37c53.333 -24 86.333 -65.333 99 -124c19.333 -91.333 -37 -168.666 -169 -231.999
c-107.333 -52.667 -213.333 -79 -318 -79c-139.333 0 -255 32.667 -347 98c-98.667 70.667 -162.667 174.667 -192 312c-18 82.667 -16.667 168 4 256l-189 -62l1 64l203 53h1h2l114 -36c-24 -88 -28 -168.667 -12 -242c20.667 -98.667 68.667 -173.334 144 -224.001
c68.667 -45.333 153.667 -68 255 -68c174 0 305 39.667 393 119c8 7.33301 11.333 14.666 10 21.999c-2 10 -10.667 16 -26 18c-135.333 20 -228.333 40.333 -279 61c-16.667 7.33301 -32.667 22 -48 44s-25 42.333 -29 61c-31.333 148 83 222 343 222h64z" />
    <glyph glyph-name="uni06CE.init" unicode="&#x6ce;" horiz-adv-x="417" 
d="M315 258c36 -171.333 -45.335 -257.333 -244.002 -258h-123l-31 150h130c115.333 0 166.333 31 153 93c-7.33301 33.333 -32.666 72 -75.999 116l-43 44l79 113c82.667 -74.667 134.334 -160.667 155.001 -258zM144.998 900c-8.66699 -8 -17.5 -20.832 -26.5 -38.499
s-17.5 -38.5 -25.5 -62.5s-14.667 -50.167 -20 -78.5s-8.33301 -57.5 -9 -87.5h-28l-2 3c-14 29.333 -29.833 58.166 -47.5 86.499s-35.5 54.333 -53.5 78s-35.167 44.167 -51.5 61.5s-29.833 30 -40.5 38l87 2c19.333 -21.333 37.333 -47.333 54 -78s32 -62.667 46 -96
c0 33.333 2.33301 65.333 7 96s11.667 56.667 21 78zM442.998 -286.999l-63 -111l-131 84l-60 -100l-139 86l68 113l126 -82l59 96z" />
    <glyph glyph-name="uni06CE.medi" unicode="&#x6ce;" horiz-adv-x="548" 
d="M547 1h-54c-116.667 0 -202 40.667 -256 122c-10 -36.667 -32.5 -66.167 -67.5 -88.5s-73.833 -33.5 -116.5 -33.5h-123l-31 149h114c49.333 0 88.333 11.333 117 34c33.333 26 45 62.667 35 110l-13 63l96 27c21.333 -96.667 52.333 -161.667 93 -195
c32 -26 80.333 -39 145 -39h30zM243 787c-8.66699 -8 -17.5 -20.832 -26.5 -38.499s-17.5 -38.5 -25.5 -62.5s-14.667 -50.167 -20 -78.5s-8.33301 -57.5 -9 -87.5h-28l-2 3c-14 29.333 -29.833 58.166 -47.5 86.499s-35.5 54.333 -53.5 78s-35.167 44.167 -51.5 61.5
s-29.833 30 -40.5 38l87 2c19.333 -21.333 37.333 -47.333 54 -78s32 -62.667 46 -96c0 33.333 2.33301 65.333 7 96s11.667 56.667 21 78zM520 -281.999l-63 -111l-131 84l-60 -100l-139 86l68 113l126 -82l59 96z" />
    <glyph glyph-name="uni06CE.fina" unicode="&#x6ce;" horiz-adv-x="1129" 
d="M1129 0l-199.002 0.00195312c-99.333 0.666992 -146.666 -10 -141.999 -32c4 -16.667 45.333 -31.334 124 -44.001c81.333 -12.667 135 -25 161 -37c53.333 -24 86.333 -65.333 99 -124c19.333 -91.333 -37 -168.666 -169 -231.999
c-107.333 -52.667 -213.333 -79 -318 -79c-139.333 0 -255 32.667 -347 98c-98.667 70.667 -162.667 174.667 -192 312c-21.333 99.333 -14.666 203.333 20.001 312l116 -37c-24 -88 -28 -168.667 -12 -242c20.667 -98.667 68.667 -173.334 144 -224.001
c68.667 -45.333 153.667 -68 255 -68c174 0 305 39.667 393 119c8 7.33301 11.333 14.666 10 21.999c-2 10 -10.667 16 -26 18c-135.333 20 -228.333 40.333 -279 61c-16.667 7.33301 -32.667 22 -48 44s-25 42.333 -29 61c-31.333 148 83 222 343 222h64zM492.998 559.002
c-8.66699 -8 -17.5 -20.832 -26.5 -38.499s-17.5 -38.5 -25.5 -62.5s-14.667 -50.167 -20 -78.5s-8.33301 -57.5 -9 -87.5h-28l-2 3c-14 29.333 -29.833 58.166 -47.5 86.499s-35.5 54.333 -53.5 78s-35.167 44.167 -51.5 61.5s-29.833 30 -40.5 38l87 2
c19.333 -21.333 37.333 -47.333 54 -78s32 -62.667 46 -96c0 33.333 2.33301 65.333 7 96s11.667 56.667 21 78z" />
    <glyph glyph-name="uni06CF.fina" unicode="&#x6cf;" horiz-adv-x="739" 
d="M739 0h-129c8 -242 -111 -421 -357 -537l-117 105c117.333 72.667 200.333 133.667 249 183c74 75.333 109.667 158.333 107 249c-32.667 -4.66699 -66.667 -7 -102 -7c-148.667 -4 -234.334 47.333 -257.001 154c-13.333 64.667 -8.66602 132.667 14.001 204
c26 82 68.667 123 128 123c75.333 0 142 -37 200 -111c44.667 -56 80.667 -127 108 -213h124zM445 151c-10.667 40 -28.001 75.999 -52.001 107.999c-29.333 40.667 -61.333 61 -96 61c-24 0 -42 -13.167 -54 -39.5s-15.333 -51.833 -10 -76.5
c6.66699 -32 43.334 -50.333 110.001 -55c45.333 -1.33301 79.333 -0.666016 102 2.00098zM315.999 767.999l-70 -128l-150 87l69 131z" />
    <glyph glyph-name="uni06D1.fina" unicode="&#x6d1;" horiz-adv-x="1129" 
d="M699 -993l53 102l132 -84l-57 -99zM524 -806l58 105l134 -84l57 98l132 -81l-62 -105l-128 82l-58 -96zM1129 0l-199.002 0.00195312c-99.333 0.666992 -146.666 -10 -141.999 -32c4 -16.667 45.333 -31.334 124 -44.001c81.333 -12.667 135 -25 161 -37
c53.333 -24 86.333 -65.333 99 -124c19.333 -91.333 -37 -168.666 -169 -231.999c-107.333 -52.667 -213.333 -79 -318 -79c-139.333 0 -255 32.667 -347 98c-98.667 70.667 -162.667 174.667 -192 312c-21.333 99.333 -14.666 203.333 20.001 312l116 -37
c-24 -88 -28 -168.667 -12 -242c20.667 -98.667 68.667 -173.334 144 -224.001c68.667 -45.333 153.667 -68 255 -68c174 0 305 39.667 393 119c8 7.33301 11.333 14.666 10 21.999c-2 10 -10.667 16 -26 18c-135.333 20 -228.333 40.333 -279 61
c-16.667 7.33301 -32.667 22 -48 44s-25 42.333 -29 61c-31.333 148 83 222 343 222h64z" />
    <glyph glyph-name="uni06FA.init" unicode="&#x6fa;" horiz-adv-x="1013" 
d="M955 265c15.333 -71.333 9.33301 -131.999 -18 -181.999c-30.667 -54 -80.667 -81 -150 -81c-92 0 -163.667 34 -215 102c-34.667 -68.667 -94 -103 -178 -103c-91.333 0 -156.666 34.667 -195.999 104c-24 -69.333 -79.333 -104.333 -166 -105h-102l-31 150h74
c58 0 97.5 12.333 118.5 37s25.167 66.667 12.5 126l-5 24l90 35l6 -26c28 -130.667 85 -196 171 -196c99.333 0 137.333 54.667 114 164l-5 24l90 35l6 -26c27.333 -130.667 90.666 -196 189.999 -196c71.333 0 100.333 32 87 96c-9.33301 45.333 -39 89.666 -89 132.999
l73 109c63.333 -61.333 104.333 -136 123 -224zM490 917.001l-61 -112l-143 88l65 109zM659 742.001l-62 -113l-144 90l-61 -106l-140 87l65 113l139 -88l60 104zM751 -290.999l-70 -128l-150 87l69 131z" />
    <glyph glyph-name="uni06FA.medi" unicode="&#x6fa;" horiz-adv-x="1211" 
d="M1210 1h-32.002c-98.667 0 -170 34 -214 102c-32.667 -68 -94.667 -102 -186 -102c-80.667 0 -144.667 34 -192 102c-36 -68 -99.667 -102 -191 -102c-85.333 0 -150.666 34 -195.999 102c-25.333 -68 -81 -102.333 -167 -103h-102l-31 150h75c58 0 97.5 12.333 118.5 37
s25.167 66.667 12.5 126l-5 24l90 35l6 -26c28 -130.667 85 -196 171 -196c58.667 0 97.5 12.5 116.5 37.5s22.167 66.833 9.5 125.5l-5 24l89 35l6 -26c28 -130.667 85.333 -196 172 -196c100.667 0 139.334 54.333 116.001 163l-5 24l90 39l6 -30
c13.333 -64 31.333 -110.333 54 -139c30 -38 74.667 -57 134 -57h29zM504.998 894l-61 -112l-143 88l65 109zM673.998 719l-62 -113l-144 90l-61 -106l-140 87l65 113l139 -88l60 104zM774.998 -293l-70 -128l-150 87l69 131z" />
    <glyph glyph-name="uni06FA.fina" unicode="&#x6fa;" horiz-adv-x="1992" 
d="M1992 0l-44.001 -0.000976562c-82.667 0.666992 -147 35 -193 103c-34.667 -68 -93 -102 -175 -102c-86 0 -153.667 34 -203 102c-28 -68 -83 -102 -165 -102c-56 0 -105.667 16.667 -149 50c4.66699 -15.333 8.33398 -30.666 11.001 -45.999
c33.333 -156.667 11 -281 -67 -373s-195.667 -138 -353 -138c-131.333 0 -245 38.667 -341 116s-158 181.333 -186 312c-22 104.667 -13.667 207.667 25 309l107 -37c-11.333 -27.333 -18.833 -66.333 -22.5 -117s-2.16699 -92 4.5 -124c44.667 -207.333 180 -311 406 -311
c104.667 0 188.334 26.333 251.001 79c70 58.667 94.333 138.334 73 239.001c-21.333 101.333 -75 202.666 -161 303.999l96 100c48.667 -68.667 87.667 -117 117 -145c48.667 -46 98.667 -69 150 -69c56 0 92 13.333 108 40c14 24.667 15 65.667 3 123l-5 24l89 35l6 -26
c28 -130.667 85 -196 171 -196c56 0 92.5 13 109.5 39s19.5 67.333 7.5 124l-5 24l89 35l6 -26c13.333 -64 31.666 -110.333 54.999 -139c30 -38 74.333 -57 133 -57h20zM1290 877.999l-61 -112l-143 88l65 109zM1459 702.999l-62 -113l-144 90l-61 -106l-140 87l65 113
l139 -88l60 104zM1520 -340.001l-70 -128l-150 87l69 131z" />
    <glyph glyph-name="uni06FB.init" unicode="&#x6fb;" horiz-adv-x="1313" 
d="M1181 376c28 -132 -10.999 -230.666 -116.999 -295.999c-84 -52.667 -198 -79 -342 -79h-270c-63.333 0 -111 4.66699 -143 14c-47.333 14 -88.666 42.333 -123.999 85c-29.333 -66 -80 -99.333 -152 -100h-103l-31 150h83c96.667 0 134 51.333 112 154l-8 39l104 40
l5 -24c30 -139.333 85.333 -209 166 -209c42 0 73.333 16.333 94 49l65 111c37.333 60.667 86.666 117 147.999 169c83.333 71.333 165.666 107 246.999 107c58.667 0 114.5 -20.333 167.5 -61s85.833 -90.334 98.5 -149.001zM1064 326.001
c-7.33301 36.667 -30.333 65.666 -69 86.999c-32.667 17.333 -68.667 26 -108 26c-92 0 -207 -96.333 -345 -289h161c138 0 238.333 21 301 63c49.333 32.667 69.333 70.334 60 113.001zM514.001 773l-70 -128l-150 87l69 131zM710.001 -321l-70 -128l-150 87l69 131z" />
    <glyph glyph-name="uni06FB.medi" unicode="&#x6fb;" horiz-adv-x="1331" 
d="M1331 0l-32.001 -0.000976562c-88.667 0.666992 -160 30.334 -214 89.001c-85.333 -58.667 -206.333 -88 -363 -88h-270c-63.333 0 -111 4.66699 -143 14c-47.333 14 -88.666 42.333 -123.999 85c-20 -66 -67.333 -99.333 -142 -100h-113l-31 150h83
c96.667 0 134 51.333 112 154l-8 39l104 40l5 -24c30 -139.333 85.333 -209 166 -209c40.667 0 71 15.667 91 47l67 113c122 184 254 276 396 276c58.667 0 114.5 -20.333 167.5 -61s85.833 -90.334 98.5 -149.001c16 -77.333 11 -141.666 -15 -192.999
c25.333 -22 63 -33 113 -33h20zM1064 325.999c-7.33301 36.667 -30.333 65.666 -69 86.999c-32.667 17.333 -68.667 26 -108 26c-87.333 0 -202.333 -96.333 -345 -289h161c138 0 238.333 21 301 63c49.333 32.667 69.333 70.334 60 113.001zM505.999 781.998l-70 -128
l-150 87l69 131zM721.999 -287.002l-70 -128l-150 87l69 131z" />
    <glyph glyph-name="uni06FB.fina" unicode="&#x6fb;" horiz-adv-x="2146" 
d="M2146 0l-31.002 -0.00195312c-92.667 0.666992 -164.334 30.334 -215.001 89.001c-84.667 -58.667 -204.667 -88 -360 -88h-270c-69.333 0 -129 16.667 -179 50c4.66699 -15.333 8.33398 -30.666 11.001 -45.999c33.333 -156 10.333 -280.667 -69 -374
c-77.333 -91.333 -194.333 -137 -351 -137c-130.667 0 -244.167 38.833 -340.5 116.5s-158.5 181.5 -186.5 311.5c-22 104.667 -13.667 207.667 25 309l107 -37c-11.333 -27.333 -18.833 -66.333 -22.5 -117s-2.16699 -92 4.5 -124c44.667 -207.333 180 -311 406 -311
c104.667 0 188.334 26.333 251.001 79c70 58.667 94.333 138.334 73 239.001c-21.333 101.333 -75 202.666 -161 303.999l96 100c58.667 -84 97.334 -135.667 116.001 -155c38.667 -39.333 80 -59 124 -59c40 0 71 17.333 93 52c14.667 26.667 38 66 70 118
c123.333 177.333 255.666 266 396.999 266c59.333 0 114.833 -20.333 166.5 -61s83.834 -90.334 96.501 -149.001c16 -77.333 10.667 -141.666 -16 -192.999c25.333 -22 63 -33 113 -33h20zM1880 325.998c-7.33301 36.667 -29.668 65.332 -67.001 85.999
c-32 18 -67.667 27 -107 27c-100 0 -214.667 -96.333 -344 -289h160c137.333 0 237 21 299 63c48.667 32.667 68.334 70.334 59.001 113.001zM1313 735.996l-70 -128l-150 87l69 131zM1584 -377.004l-70 -128l-150 87l69 131z" />
    <glyph glyph-name="uni06FC.init" unicode="&#x6fc;" horiz-adv-x="837" 
d="M735 263l13.998 -138c-236 -82.667 -474.333 -124.334 -715 -125.001h-104l-31 150h271c-73.333 53.333 -120.666 129 -141.999 227c-14.667 68.667 -0.666992 131.334 42 188.001c48 64 118.667 96 212 96c92 0 181.667 -32 269 -96l-27 -98c-68 35.333 -140 53 -216 53
c-47.333 0 -88 -11.667 -122 -35c-40 -27.333 -55.333 -63 -46 -107c12.667 -60 54 -105.667 124 -137c54.667 -24 115.334 -36 182.001 -36c56.667 0 153 19.333 289 58zM298.998 937l-70 -128l-150 87l69 131zM540.998 -267l-70 -128l-150 87l69 131z" />
    <glyph glyph-name="uni06FC.medi" unicode="&#x6fc;" horiz-adv-x="776" 
d="M776 0l-73 0.000976562c-167.333 0.666992 -285.666 53.334 -354.999 158.001c-76 -104.667 -179.333 -157.334 -310 -158.001h-108l-31 150h87c138 0 228.333 36 271 108c-38.667 72 -101.334 109.667 -188.001 113c-12.667 73.333 9.33301 129.666 66 168.999
c48 33.333 111.333 50 190 50c45.333 0 88.666 -10.333 129.999 -31c49.333 -25.333 78.333 -59 87 -101c12 -56 5.66699 -102 -19 -138c-14.667 -21.333 -49.667 -54.333 -105 -99c60.667 -47.333 158.334 -71 293.001 -71h33zM308 867.001l-70 -128l-150 87l69 131z
M518 -213.999l-70 -128l-150 87l69 131z" />
    <glyph glyph-name="uni06FC.fina" unicode="&#x6fc;" horiz-adv-x="1039" 
d="M1340 -702c-136.667 -46 -269.664 -69 -398.997 -69c-184.667 0 -338 34 -460 102c-148.667 82.667 -241.334 211 -278.001 385c-45.333 213.333 58 400 310 560c-38 67.333 -102 102.333 -192 105c-9.33301 56.667 7 105.667 49 147c48.667 48 121 72 217 72
c48 0 93.667 -11 137 -33c51.333 -26.667 82 -62.334 92 -107.001c12 -56.667 2 -104 -30 -142c-7.33301 -8 -46 -40.333 -116 -97c50.667 -47.333 151 -71 301 -71h36l32 -150h-107c-152 0.666992 -264.667 54.334 -338 161.001
c-107.333 -68.667 -180.333 -132.667 -219 -192c-44.667 -68.667 -57.334 -149 -38.001 -241c27.333 -128 108.666 -222 243.999 -282c103.333 -46 226.333 -69 369 -69c86 0 194 15.667 324 47zM584.003 872l-70 -128l-150 87l69 131zM800.003 -265l-70 -128l-150 87
l69 131z" />
    <glyph glyph-name="uniFB51" unicode="&#x671;" horiz-adv-x="473" arabic-form="final" 
d="M473 0l-30 0.000976562c-104.667 0.666992 -188 45.667 -250 135c-42.667 61.333 -79.667 153.333 -111 276c-11.333 45.333 -39 166.666 -83 363.999c-31.333 138.667 -69 280.667 -113 426l118 68l193 -831c20.667 -86 43.667 -149.333 69 -190
c40.667 -65.333 96 -98 166 -98h9zM-225 1367c-11.333 6 -23.8301 9.83203 -37.4971 11.499s-26.834 2.16699 -39.501 1.5l-5 26c11.333 7.33301 24.666 11.666 39.999 12.999c30 2.66699 57.333 -2.66602 82 -15.999c21.333 34 42.666 60.5 63.999 79.5
s39.333 30.833 54 35.5c18 6.66699 34.5 6.83398 49.5 0.500977s27.5 -15.833 37.5 -28.5s16.5 -27 19.5 -43s1.5 -30.667 -4.5 -44c-12.667 -22.667 -31 -39.5 -55 -50.5s-53.667 -16.167 -89 -15.5s-74 10.667 -116 30zM-59.9971 1477
c-19.333 -6.66699 -36.668 -17.168 -52.001 -31.501s-31 -30.833 -47 -49.5c5.33301 -3.33301 16.5 -5.33301 33.5 -6s35 0 54 2s36.667 5.83301 53 11.5s26.833 13.5 31.5 23.5c-0.666992 5.33301 -2.66699 11.5 -6 18.5s-8.16602 13.5 -14.499 19.5
s-13.833 10.333 -22.5 13s-18.667 2.33398 -30 -0.999023z" />
    <glyph glyph-name="uniFB53" unicode="&#x67b;" horiz-adv-x="1673" arabic-form="final" 
d="M1673 0h-31.001c-118 0.666992 -197.667 51 -239 151c-81.333 -128 -325.666 -192 -732.999 -192c-184.667 0 -321.667 20.333 -411 61c-100 46 -162 124.667 -186 236c-14.667 70 -7.33398 133 21.999 189l100 -29c-15.333 -46 -18.666 -89.333 -9.99902 -130
c16.667 -80 78.334 -132.667 185.001 -158c51.333 -12 134.666 -18 249.999 -18h49c141.333 0 272 10 392 30c196.667 32.667 293.667 86.667 291 162l-2 56l77 27c16 -75.333 35.333 -129.333 58 -162c33.333 -48.667 83 -73 149 -73h7zM792.999 -361l-110 90l71 90
l109 -90zM838.999 -565l-109 90l71 90l109 -90z" />
    <glyph glyph-name="uniFB54" unicode="&#x67b;" horiz-adv-x="417" arabic-form="initial" 
d="M315 258c36 -171.333 -45.335 -257.333 -244.002 -258h-123l-31 150h130c115.333 0 166.333 31 153 93c-7.33301 33.333 -32.666 72 -75.999 116l-43 44l79 113c82.667 -74.667 134.334 -160.667 155.001 -258zM270.998 -332l-110 90l71 90l109 -90zM316.998 -536
l-109 90l71 90l109 -90z" />
    <glyph glyph-name="uniFB55" unicode="&#x67b;" horiz-adv-x="548" arabic-form="medial" 
d="M547 1h-54c-116.667 0 -202 40.667 -256 122c-10 -36.667 -32.5 -66.167 -67.5 -88.5s-73.833 -33.5 -116.5 -33.5h-123l-31 149h114c49.333 0 88.333 11.333 117 34c33.333 26 45 62.667 35 110l-13 63l96 27c21.333 -96.667 52.333 -161.667 93 -195
c32 -26 80.333 -39 145 -39h30zM333 -307l-110 90l71 90l109 -90zM379 -511l-109 90l71 90l109 -90z" />
    <glyph glyph-name="afii62958" unicode="&#x67e;" horiz-adv-x="1673" arabic-form="final" 
d="M1673 0h-31.001c-118 0.666992 -197.667 51 -239 151c-81.333 -128 -325.666 -192 -732.999 -192c-184.667 0 -321.667 20.333 -411 61c-100 46 -162 124.667 -186 236c-14.667 70 -7.33398 133 21.999 189l100 -29c-15.333 -46 -18.666 -89.333 -9.99902 -130
c16.667 -80 78.334 -132.667 185.001 -158c51.333 -12 134.666 -18 249.999 -18h49c141.333 0 272 10 392 30c196.667 32.667 293.667 86.667 291 162l-2 56l77 27c16 -75.333 35.333 -129.333 58 -162c33.333 -48.667 83 -73 149 -73h7zM836.999 -531l53 102l132 -84
l-57 -99zM661.999 -344l58 105l134 -84l57 98l132 -81l-62 -105l-128 82l-58 -96z" />
    <glyph glyph-name="afii62956" unicode="&#x67e;" horiz-adv-x="417" arabic-form="initial" 
d="M315 258c36 -171.333 -45.335 -257.333 -244.002 -258h-123l-31 150h130c115.333 0 166.333 31 153 93c-7.33301 33.333 -32.666 72 -75.999 116l-43 44l79 113c82.667 -74.667 134.334 -160.667 155.001 -258zM234.998 -485l53 102l132 -84l-57 -99zM59.998 -298l58 105
l134 -84l57 98l132 -81l-62 -105l-128 82l-58 -96z" />
    <glyph glyph-name="afii52957" unicode="&#x67e;" horiz-adv-x="548" arabic-form="medial" 
d="M547 1h-54c-116.667 0 -202 40.667 -256 122c-10 -36.667 -32.5 -66.167 -67.5 -88.5s-73.833 -33.5 -116.5 -33.5h-123l-31 149h114c49.333 0 88.333 11.333 117 34c33.333 26 45 62.667 35 110l-13 63l96 27c21.333 -96.667 52.333 -161.667 93 -195
c32 -26 80.333 -39 145 -39h30zM303 -484l53 102l132 -84l-57 -99zM128 -297l58 105l134 -84l57 98l132 -81l-62 -105l-128 82l-58 -96z" />
    <glyph glyph-name="uniFB5B" unicode="&#x680;" horiz-adv-x="1673" arabic-form="final" 
d="M1673 0h-31.001c-118 0.666992 -197.667 51 -239 151c-81.333 -128 -325.666 -192 -732.999 -192c-184.667 0 -321.667 20.333 -411 61c-100 46 -162 124.667 -186 236c-14.667 70 -7.33398 133 21.999 189l100 -29c-15.333 -46 -18.666 -89.333 -9.99902 -130
c16.667 -80 78.334 -132.667 185.001 -158c51.333 -12 134.666 -18 249.999 -18h49c141.333 0 272 10 392 30c196.667 32.667 293.667 86.667 291 162l-2 56l77 27c16 -75.333 35.333 -129.333 58 -162c33.333 -48.667 83 -73 149 -73h7zM945.999 -550l-109 90l71 90
l109 -90zM737.999 -556l-109 90l71 90l109 -90zM804.999 -390l-109 90l71 90l109 -90zM879.999 -722l-109 90l70 90l110 -90z" />
    <glyph glyph-name="uniFB5C" unicode="&#x680;" horiz-adv-x="417" arabic-form="initial" 
d="M315 258c36 -171.333 -45.335 -257.333 -244.002 -258h-123l-31 150h130c115.333 0 166.333 31 153 93c-7.33301 33.333 -32.666 72 -75.999 116l-43 44l79 113c82.667 -74.667 134.334 -160.667 155.001 -258zM398.043 -456.014l-102.221 84.3086l66.584 84.3086
l102.221 -84.3086zM202.979 -461.635l-102.221 84.3086l66.584 84.3096l102.222 -84.3096zM265.812 -306.131l-102.221 84.3086l66.584 84.3086l102.221 -84.3086zM336.148 -617.139l-102.221 84.3096l65.6465 84.3096l103.158 -84.3096z" />
    <glyph glyph-name="uniFB5D" unicode="&#x680;" horiz-adv-x="548" arabic-form="medial" 
d="M547 1h-54c-116.667 0 -202 40.667 -256 122c-10 -36.667 -32.5 -66.167 -67.5 -88.5s-73.833 -33.5 -116.5 -33.5h-123l-31 149h114c49.333 0 88.333 11.333 117 34c33.333 26 45 62.667 35 110l-13 63l96 27c21.333 -96.667 52.333 -161.667 93 -195
c32 -26 80.333 -39 145 -39h30zM457.428 -473.158l-103.266 85.1875l67.2646 85.1875l103.266 -85.1875zM260.371 -478.838l-103.266 85.1875l67.2646 85.1885l103.266 -85.1885zM323.846 -321.713l-103.265 85.1875l67.2646 85.1875l103.265 -85.1875zM394.9 -635.963
l-103.266 85.1885l66.3174 85.1885l104.213 -85.1885z" />
    <glyph glyph-name="uniFB5F" unicode="&#x67a;" horiz-adv-x="1673" arabic-form="final" 
d="M1673 0h-31.001c-118 0.666992 -197.667 51 -239 151c-81.333 -128 -325.666 -192 -732.999 -192c-184.667 0 -321.667 20.333 -411 61c-100 46 -162 124.667 -186 236c-14.667 70 -7.33398 133 21.999 189l100 -29c-15.333 -46 -18.666 -89.333 -9.99902 -130
c16.667 -80 78.334 -132.667 185.001 -158c51.333 -12 134.666 -18 249.999 -18h49c141.333 0 272 10 392 30c196.667 32.667 293.667 86.667 291 162l-2 56l77 27c16 -75.333 35.333 -129.333 58 -162c33.333 -48.667 83 -73 149 -73h7zM670.999 713l-110 90l71 90l109 -90
zM716.999 509l-109 90l71 90l109 -90z" />
    <glyph glyph-name="uniFB60" unicode="&#x67a;" horiz-adv-x="417" arabic-form="initial" 
d="M315 258c36 -171.333 -45.335 -257.333 -244.002 -258h-123l-31 150h130c115.333 0 166.333 31 153 93c-7.33301 33.333 -32.666 72 -75.999 116l-43 44l79 113c82.667 -74.667 134.334 -160.667 155.001 -258zM2.99805 794l-110 90l71 90l109 -90zM48.998 590l-109 90
l71 90l109 -90z" />
    <glyph glyph-name="uniFB61" unicode="&#x67a;" horiz-adv-x="548" arabic-form="medial" 
d="M547 1h-54c-116.667 0 -202 40.667 -256 122c-10 -36.667 -32.5 -66.167 -67.5 -88.5s-73.833 -33.5 -116.5 -33.5h-123l-31 149h114c49.333 0 88.333 11.333 117 34c33.333 26 45 62.667 35 110l-13 63l96 27c21.333 -96.667 52.333 -161.667 93 -195
c32 -26 80.333 -39 145 -39h30zM126 668l-110 90l71 90l109 -90zM172 464l-109 90l71 90l109 -90z" />
    <glyph glyph-name="uniFB63" unicode="&#x67f;" horiz-adv-x="1673" arabic-form="final" 
d="M1673 0h-31.001c-118 0.666992 -197.667 51 -239 151c-81.333 -128 -325.666 -192 -732.999 -192c-184.667 0 -321.667 20.333 -411 61c-100 46 -162 124.667 -186 236c-14.667 70 -7.33398 133 21.999 189l100 -29c-15.333 -46 -18.666 -89.333 -9.99902 -130
c16.667 -80 78.334 -132.667 185.001 -158c51.333 -12 134.666 -18 249.999 -18h49c141.333 0 272 10 392 30c196.667 32.667 293.667 86.667 291 162l-2 56l77 27c16 -75.333 35.333 -129.333 58 -162c33.333 -48.667 83 -73 149 -73h7zM776.999 650l-109 90l71 90l109 -90
zM568.999 644l-109 90l71 90l109 -90zM635.999 810l-109 90l71 90l109 -90zM710.999 478l-109 90l70 90l110 -90z" />
    <glyph glyph-name="uniFB64" unicode="&#x67f;" horiz-adv-x="417" arabic-form="initial" 
d="M315 258c36 -171.333 -45.335 -257.333 -244.002 -258h-123l-31 150h130c115.333 0 166.333 31 153 93c-7.33301 33.333 -32.666 72 -75.999 116l-43 44l79 113c82.667 -74.667 134.334 -160.667 155.001 -258zM135.998 768l-109 90l71 90l109 -90zM-72.002 762l-109 90
l71 90l109 -90zM-5.00195 928l-109 90l71 90l109 -90zM69.998 596l-109 90l70 90l110 -90z" />
    <glyph glyph-name="uniFB65" unicode="&#x67f;" horiz-adv-x="548" arabic-form="medial" 
d="M547 1h-54c-116.667 0 -202 40.667 -256 122c-10 -36.667 -32.5 -66.167 -67.5 -88.5s-73.833 -33.5 -116.5 -33.5h-123l-31 149h114c49.333 0 88.333 11.333 117 34c33.333 26 45 62.667 35 110l-13 63l96 27c21.333 -96.667 52.333 -161.667 93 -195
c32 -26 80.333 -39 145 -39h30zM238 687l-109 90l71 90l109 -90zM30 681l-109 90l71 90l109 -90zM97 847l-109 90l71 90l109 -90zM172 515l-109 90l70 90l110 -90z" />
    <glyph glyph-name="uniFB67" unicode="&#x679;" horiz-adv-x="1673" arabic-form="final" 
d="M1673 0h-31.001c-118 0.666992 -197.667 51 -239 151c-81.333 -128 -325.666 -192 -732.999 -192c-184.667 0 -321.667 20.333 -411 61c-100 46 -162 124.667 -186 236c-14.667 70 -7.33398 133 21.999 189l100 -29c-15.333 -46 -18.666 -89.333 -9.99902 -130
c16.667 -80 78.334 -132.667 185.001 -158c51.333 -12 134.666 -18 249.999 -18h49c141.333 0 272 10 392 30c196.667 32.667 293.667 86.667 291 162l-2 56l77 27c16 -75.333 35.333 -129.333 58 -162c33.333 -48.667 83 -73 149 -73h7zM886.999 748
c10 -45.333 -3 -78.999 -39 -100.999c-28.667 -18 -68 -27 -118 -27h-92c-45.333 0 -82.666 10 -111.999 30l6 40c24.667 -10 44 -15 58 -15c24.667 0 42.667 14.667 54 44c0 1.33301 -1.66699 9.66602 -5 24.999c-16.667 78.667 -39 175 -67 289l41 17l65 -303
c12 17.333 28.333 33 49 47c23.333 16.667 45.666 25 66.999 25c20.667 0 40 -6.33301 58 -19c19.333 -14 31 -31.333 35 -52zM847.999 731.001c-2.66699 12.667 -10.667 22.666 -24 29.999c-11.333 6 -23.666 9 -36.999 9c-16.667 0 -38.334 -11.667 -65.001 -35
c-11.333 -10.667 -32 -32 -62 -64h63c47.333 0 82 7.33301 104 22c17.333 10.667 24.333 23.334 21 38.001z" />
    <glyph glyph-name="uniFB68" unicode="&#x679;" horiz-adv-x="417" arabic-form="initial" 
d="M315 258c36 -171.333 -45.335 -257.333 -244.002 -258h-123l-31 150h130c115.333 0 166.333 31 153 93c-7.33301 33.333 -32.666 72 -75.999 116l-43 44l79 113c82.667 -74.667 134.334 -160.667 155.001 -258zM217.998 804c10 -45.333 -3 -78.999 -39 -100.999
c-28.667 -18 -68 -27 -118 -27h-92c-45.333 0 -82.666 10 -111.999 30l6 40c24.667 -10 44 -15 58 -15c24.667 0 42.667 14.667 54 44c0 1.33301 -1.66699 9.66602 -5 24.999c-16.667 78.667 -39 175 -67 289l41 17l65 -303c12 17.333 28.333 33 49 47
c23.333 16.667 45.666 25 66.999 25c20.667 0 40 -6.33301 58 -19c19.333 -14 31 -31.333 35 -52zM178.998 787.001c-2.66699 12.667 -10.667 22.666 -24 29.999c-11.333 6 -23.666 9 -36.999 9c-16.667 0 -38.334 -11.667 -65.001 -35c-11.333 -10.667 -32 -32 -62 -64h63
c47.333 0 82 7.33301 104 22c17.333 10.667 24.333 23.334 21 38.001z" />
    <glyph glyph-name="uniFB69" unicode="&#x679;" horiz-adv-x="548" arabic-form="medial" 
d="M547 1h-54c-116.667 0 -202 40.667 -256 122c-10 -36.667 -32.5 -66.167 -67.5 -88.5s-73.833 -33.5 -116.5 -33.5h-123l-31 149h114c49.333 0 88.333 11.333 117 34c33.333 26 45 62.667 35 110l-13 63l96 27c21.333 -96.667 52.333 -161.667 93 -195
c32 -26 80.333 -39 145 -39h30zM296 694c10 -45.333 -3 -78.999 -39 -100.999c-28.667 -18 -68 -27 -118 -27h-92c-45.333 0 -82.666 10 -111.999 30l6 40c24.667 -10 44 -15 58 -15c24.667 0 42.667 14.667 54 44c0 1.33301 -1.66699 9.66602 -5 24.999
c-16.667 78.667 -39 175 -67 289l41 17l65 -303c12 17.333 28.333 33 49 47c23.333 16.667 45.666 25 66.999 25c20.667 0 40 -6.33301 58 -19c19.333 -14 31 -31.333 35 -52zM257 677.001c-2.66699 12.667 -10.667 22.666 -24 29.999c-11.333 6 -23.666 9 -36.999 9
c-16.667 0 -38.334 -11.667 -65.001 -35c-11.333 -10.667 -32 -32 -62 -64h63c47.333 0 82 7.33301 104 22c17.333 10.667 24.333 23.334 21 38.001z" />
    <glyph glyph-name="afii57371" unicode="&#x6a4;" horiz-adv-x="1742" arabic-form="final" 
d="M1742 0l-71.998 -0.000976562c-124.667 0.666992 -229 33 -313 97c-74.667 -45.333 -179.334 -80.666 -314.001 -105.999c-114.667 -21.333 -230.334 -32 -347.001 -32c-184.667 0 -321.667 20.333 -411 61c-100 46 -162 124.667 -186 236
c-14.667 70 -7.33398 133 21.999 189l100 -29c-15.333 -46 -18.666 -89.333 -9.99902 -130c16 -76.667 68.333 -128 157 -154c50.667 -14.667 125.667 -22 225 -22h102c260 0 436.333 25.667 529 77c-48 35.333 -80.667 94 -98 176c-12.667 62 4 123.333 50 184
c44 56.667 90.667 85 140 85c51.333 0 100.333 -28.667 147 -86c40 -50 66 -102.333 78 -157c8 -37.333 4.16699 -79 -11.5 -125s-37.834 -77.333 -66.501 -94c30.667 -13.333 90.334 -20 179.001 -20h68zM1435 369.999c-5.33301 26 -18.333 50.667 -39 74
c-22.667 26 -46.334 39 -71.001 39c-26 0 -50 -12.5 -72 -37.5s-30.333 -50.167 -25 -75.5c4.66699 -22 20 -47 46 -75c26.667 -30 50.334 -45 71.001 -45c23.333 0 45.5 14 66.5 42s28.833 54 23.5 78zM1285 1017l-61 -112l-143 88l65 109zM1454 841.999l-62 -113l-144 90
l-61 -106l-140 87l65 113l139 -88l60 104z" />
    <glyph glyph-name="afii57372" unicode="&#x6a4;" horiz-adv-x="538" arabic-form="initial" 
d="M425 350c49.333 -232.667 -45.334 -349.333 -284.001 -350h-211l-31 150h193c67.333 0 126 12.333 176 37c46 22.667 66.667 43.667 62 63l-13 65c-38 -26 -84.667 -39 -140 -39c-58.667 0 -105.667 19.333 -141 58c-24.667 27.333 -41 60 -49 98
c-12 56 -8.33301 120.333 11 193c23.333 91.333 65.333 137 126 137c66 0 131.667 -54.667 197 -164c52.667 -87.333 87.334 -170 104.001 -248zM264 443.001c-44 112.667 -88.333 169 -133 169c-19.333 0 -35.333 -16.333 -48 -49c-12 -30 -15.667 -55.667 -11 -77
c11.333 -51.333 43.666 -77 96.999 -77c42.667 0 74.334 11.333 95.001 34zM82 1142l-61 -112l-143 88l65 109zM251 967.001l-62 -113l-144 90l-61 -106l-140 87l65 113l139 -88l60 104z" />
    <glyph glyph-name="afii57369" unicode="&#x6a4;" horiz-adv-x="574" arabic-form="medial" 
d="M573 1h-19c-116.667 0 -217.667 30 -303 90c-80.667 -60.667 -160.667 -91 -240 -91h-81l-31 150h97c51.333 0 92.666 12.333 123.999 37c-49.333 41.333 -82.333 100 -99 176c-13.333 62.667 3.33398 124 50.001 184c44 56.667 91 85 141 85s98.333 -27.333 145 -82
c40 -48 65.667 -98.333 77 -151c20 -94.667 -4.33301 -169 -73 -223c44 -17.333 99.333 -26 166 -26h15zM333 359c-5.33301 24.667 -18.999 50.666 -40.999 77.999c-24.667 30.667 -48.667 46 -72 46c-24 0 -47.333 -12.833 -70 -38.5s-31.334 -50.5 -26.001 -74.5
c4.66699 -22 19.667 -47.333 45 -76c27.333 -30.667 51.333 -46 72 -46c18.667 0 39.667 13.833 63 41.5s33 50.834 29 69.501zM169.001 1009l-61 -112l-143 88l65 109zM338.001 833.999l-62 -113l-144 90l-61 -106l-140 87l65 113l139 -88l60 104z" />
    <glyph glyph-name="uniFB6f" unicode="&#x6a6;" horiz-adv-x="1742" arabic-form="final" 
d="M1742 0l-71.998 -0.000976562c-124.667 0.666992 -229 33 -313 97c-74.667 -45.333 -179.334 -80.666 -314.001 -105.999c-114.667 -21.333 -230.334 -32 -347.001 -32c-184.667 0 -321.667 20.333 -411 61c-100 46 -162 124.667 -186 236
c-14.667 70 -7.33398 133 21.999 189l100 -29c-15.333 -46 -18.666 -89.333 -9.99902 -130c16 -76.667 68.333 -128 157 -154c50.667 -14.667 125.667 -22 225 -22h102c260 0 436.333 25.667 529 77c-48 35.333 -80.667 94 -98 176c-12.667 62 4 123.333 50 184
c44 56.667 90.667 85 140 85c51.333 0 100.333 -28.667 147 -86c40 -50 66 -102.333 78 -157c8 -37.333 4.16699 -79 -11.5 -125s-37.834 -77.333 -66.501 -94c30.667 -13.333 90.334 -20 179.001 -20h68zM1435 369.999c-5.33301 26 -18.333 50.667 -39 74
c-22.667 26 -46.334 39 -71.001 39c-26 0 -50 -12.5 -72 -37.5s-30.333 -50.167 -25 -75.5c4.66699 -22 20 -47 46 -75c26.667 -30 50.334 -45 71.001 -45c23.333 0 45.5 14 66.5 42s28.833 54 23.5 78zM1312 869.999l-109 90l71 90l109 -90zM1104 863.999l-109 90l71 90
l109 -90zM1171 1030l-109 90l71 90l109 -90zM1246 697.999l-109 90l70 90l110 -90z" />
    <glyph glyph-name="uniFB70" unicode="&#x6a6;" horiz-adv-x="538" arabic-form="initial" 
d="M425 350c49.333 -232.667 -45.334 -349.333 -284.001 -350h-211l-31 150h193c67.333 0 126 12.333 176 37c46 22.667 66.667 43.667 62 63l-13 65c-38 -26 -84.667 -39 -140 -39c-58.667 0 -105.667 19.333 -141 58c-24.667 27.333 -41 60 -49 98
c-12 56 -8.33301 120.333 11 193c23.333 91.333 65.333 137 126 137c66 0 131.667 -54.667 197 -164c52.667 -87.333 87.334 -170 104.001 -248zM264 443.001c-44 112.667 -88.333 169 -133 169c-19.333 0 -35.333 -16.333 -48 -49c-12 -30 -15.667 -55.667 -11 -77
c11.333 -51.333 43.666 -77 96.999 -77c42.667 0 74.334 11.333 95.001 34zM131 1012l-109 90l71 90l109 -90zM-77 1006l-109 90l71 90l109 -90zM-10 1172l-109 90l71 90l109 -90zM65 840.001l-109 90l70 90l110 -90z" />
    <glyph glyph-name="uniFB71" unicode="&#x6a6;" horiz-adv-x="574" arabic-form="medial" 
d="M573 1h-19c-116.667 0 -217.667 30 -303 90c-80.667 -60.667 -160.667 -91 -240 -91h-81l-31 150h97c51.333 0 92.666 12.333 123.999 37c-49.333 41.333 -82.333 100 -99 176c-13.333 62.667 3.33398 124 50.001 184c44 56.667 91 85 141 85s98.333 -27.333 145 -82
c40 -48 65.667 -98.333 77 -151c20 -94.667 -4.33301 -169 -73 -223c44 -17.333 99.333 -26 166 -26h15zM333 359c-5.33301 24.667 -18.999 50.666 -40.999 77.999c-24.667 30.667 -48.667 46 -72 46c-24 0 -47.333 -12.833 -70 -38.5s-31.334 -50.5 -26.001 -74.5
c4.66699 -22 19.667 -47.333 45 -76c27.333 -30.667 51.333 -46 72 -46c18.667 0 39.667 13.833 63 41.5s33 50.834 29 69.501zM241.001 876.999l-109 90l71 90l109 -90zM33.001 870.999l-109 90l71 90l109 -90zM100.001 1037l-109 90l71 90l109 -90zM175.001 704.999
l-109 90l70 90l110 -90z" />
    <glyph glyph-name="uniFB73" unicode="&#x684;" horiz-adv-x="1134" arabic-form="final" 
d="M1322 -702c-125.333 -46 -258.332 -68.999 -398.999 -68.999c-184.667 0 -338 34 -460 102c-148.667 82.667 -241.334 211 -278.001 385c-30.667 144.667 1 277 95 397c76 96 179 171.333 309 226c-172 48 -270.333 72 -295 72c-44 0 -78.333 -31.667 -103 -95l-105 42
c28.667 135.333 82.334 203 161.001 203c47.333 0 143.333 -20 288 -60s258.667 -60 342 -60c35.333 0 70.666 1.66699 105.999 5l-6 -150c-91.333 -1.33301 -156.666 -10.333 -195.999 -27c18 -50.667 49 -84.334 93 -101.001c32 -12 84.667 -18 158 -18h70l32 -150h-109
c-72.667 0.666992 -138 24.667 -196 72s-97.667 107 -119 179c-140.667 -51.333 -247.334 -123 -320.001 -215c-74.667 -95.333 -100 -198.333 -76 -309c49.333 -233.333 255.333 -350 618 -350c134.667 0 242.667 15.667 324 47zM685.001 -237.999l-110 90l71 90l109 -90z
M731.001 -441.999l-109 90l71 90l109 -90z" />
    <glyph glyph-name="uniFB74" unicode="&#x684;" horiz-adv-x="954" arabic-form="initial" 
d="M864 419l-3.00293 -143c-114.667 -0.666992 -209.667 -25 -285 -73c-41.333 -30 -104.666 -73.667 -189.999 -131c-76 -47.333 -177.667 -71.333 -305 -72h-151l-31 150h156c90 0 163.333 10 220 30c36.667 12.667 85 38 145 76c62.667 40 110.667 66.667 144 80
c-39.333 9.33301 -103 32.333 -191 69c-78.667 33.333 -129 50 -151 50c-34 0 -73 -27.667 -117 -83l-95 49c14.667 40 37.334 78 68.001 114c36 42.667 70 64 102 64c46.667 0 108.667 -16.333 186 -49c122.667 -52 195 -81.667 217 -89
c92.667 -30.667 186.334 -44.667 281.001 -42zM577.997 -276l-110 90l71 90l109 -90zM623.997 -480l-109 90l71 90l109 -90z" />
    <glyph glyph-name="uniFB75" unicode="&#x684;" horiz-adv-x="1100" arabic-form="medial" 
d="M1100 0h-129c-90 0.666992 -161 31 -213 91c-14.667 17.333 -42.667 66.333 -84 147l-271 -157c-94.667 -53.333 -198.667 -80.333 -312 -81h-161l-31 150h156c114.667 0 212 19.667 292 59l246 128c-58.667 12 -134.667 37 -228 75c-84 34.667 -135.667 52 -155 52
c-39.333 0 -73 -26.667 -101 -80l-101 48c39.333 124 91.666 186 156.999 186c44 0 104.667 -16 182 -48c118.667 -48.667 193.334 -78 224.001 -88c98 -31.333 195.667 -47 293 -47c20 0 40 0.666992 60 2l-5 -140c-78.667 -0.666992 -138.667 -11.667 -180 -33
c36.667 -76.667 116 -114.667 238 -114h91zM596 -332l-110 90l71 90l109 -90zM642 -536l-109 90l71 90l109 -90z" />
    <glyph glyph-name="uniFB77" unicode="&#x683;" horiz-adv-x="1134" arabic-form="final" 
d="M1322 -702c-125.333 -46 -258.332 -68.999 -398.999 -68.999c-184.667 0 -338 34 -460 102c-148.667 82.667 -241.334 211 -278.001 385c-30.667 144.667 1 277 95 397c76 96 179 171.333 309 226c-172 48 -270.333 72 -295 72c-44 0 -78.333 -31.667 -103 -95l-105 42
c28.667 135.333 82.334 203 161.001 203c47.333 0 143.333 -20 288 -60s258.667 -60 342 -60c35.333 0 70.666 1.66699 105.999 5l-6 -150c-91.333 -1.33301 -156.666 -10.333 -195.999 -27c18 -50.667 49 -84.334 93 -101.001c32 -12 84.667 -18 158 -18h70l32 -150h-109
c-72.667 0.666992 -138 24.667 -196 72s-97.667 107 -119 179c-140.667 -51.333 -247.334 -123 -320.001 -215c-74.667 -95.333 -100 -198.333 -76 -309c49.333 -233.333 255.333 -350 618 -350c134.667 0 242.667 15.667 324 47zM875.001 -215.999l-63 -111l-131 84
l-60 -100l-139 86l68 113l126 -82l59 96z" />
    <glyph glyph-name="uniFB78" unicode="&#x683;" horiz-adv-x="954" arabic-form="initial" 
d="M864 419l-3.00293 -143c-114.667 -0.666992 -209.667 -25 -285 -73c-41.333 -30 -104.666 -73.667 -189.999 -131c-76 -47.333 -177.667 -71.333 -305 -72h-151l-31 150h156c90 0 163.333 10 220 30c36.667 12.667 85 38 145 76c62.667 40 110.667 66.667 144 80
c-39.333 9.33301 -103 32.333 -191 69c-78.667 33.333 -129 50 -151 50c-34 0 -73 -27.667 -117 -83l-95 49c14.667 40 37.334 78 68.001 114c36 42.667 70 64 102 64c46.667 0 108.667 -16.333 186 -49c122.667 -52 195 -81.667 217 -89
c92.667 -30.667 186.334 -44.667 281.001 -42zM739.997 -211l-63 -111l-131 84l-60 -100l-139 86l68 113l126 -82l59 96z" />
    <glyph glyph-name="uniFB79" unicode="&#x683;" horiz-adv-x="1100" arabic-form="medial" 
d="M1100 0h-129c-90 0.666992 -161 31 -213 91c-14.667 17.333 -42.667 66.333 -84 147l-271 -157c-94.667 -53.333 -198.667 -80.333 -312 -81h-161l-31 150h156c114.667 0 212 19.667 292 59l246 128c-58.667 12 -134.667 37 -228 75c-84 34.667 -135.667 52 -155 52
c-39.333 0 -73 -26.667 -101 -80l-101 48c39.333 124 91.666 186 156.999 186c44 0 104.667 -16 182 -48c118.667 -48.667 193.334 -78 224.001 -88c98 -31.333 195.667 -47 293 -47c20 0 40 0.666992 60 2l-5 -140c-78.667 -0.666992 -138.667 -11.667 -180 -33
c36.667 -76.667 116 -114.667 238 -114h91zM758 -268l-63 -111l-131 84l-60 -100l-139 86l68 113l126 -82l59 96z" />
    <glyph glyph-name="afii62961" unicode="&#x686;" horiz-adv-x="1134" arabic-form="final" 
d="M1322 -702c-125.333 -46 -258.332 -68.999 -398.999 -68.999c-184.667 0 -338 34 -460 102c-148.667 82.667 -241.334 211 -278.001 385c-30.667 144.667 1 277 95 397c76 96 179 171.333 309 226c-172 48 -270.333 72 -295 72c-44 0 -78.333 -31.667 -103 -95l-105 42
c28.667 135.333 82.334 203 161.001 203c47.333 0 143.333 -20 288 -60s258.667 -60 342 -60c35.333 0 70.666 1.66699 105.999 5l-6 -150c-91.333 -1.33301 -156.666 -10.333 -195.999 -27c18 -50.667 49 -84.334 93 -101.001c32 -12 84.667 -18 158 -18h70l32 -150h-109
c-72.667 0.666992 -138 24.667 -196 72s-97.667 107 -119 179c-140.667 -51.333 -247.334 -123 -320.001 -215c-74.667 -95.333 -100 -198.333 -76 -309c49.333 -233.333 255.333 -350 618 -350c134.667 0 242.667 15.667 324 47zM641.001 -382.999l53 102l132 -84l-57 -99z
M466.001 -195.999l58 105l134 -84l57 98l132 -81l-62 -105l-128 82l-58 -96z" />
    <glyph glyph-name="afii62959" unicode="&#x686;" horiz-adv-x="954" arabic-form="initial" 
d="M864 419l-3.00293 -143c-114.667 -0.666992 -209.667 -25 -285 -73c-41.333 -30 -104.666 -73.667 -189.999 -131c-76 -47.333 -177.667 -71.333 -305 -72h-151l-31 150h156c90 0 163.333 10 220 30c36.667 12.667 85 38 145 76c62.667 40 110.667 66.667 144 80
c-39.333 9.33301 -103 32.333 -191 69c-78.667 33.333 -129 50 -151 50c-34 0 -73 -27.667 -117 -83l-95 49c14.667 40 37.334 78 68.001 114c36 42.667 70 64 102 64c46.667 0 108.667 -16.333 186 -49c122.667 -52 195 -81.667 217 -89
c92.667 -30.667 186.334 -44.667 281.001 -42zM542.997 -425l53 102l132 -84l-57 -99zM367.997 -238l58 105l134 -84l57 98l132 -81l-62 -105l-128 82l-58 -96z" />
    <glyph glyph-name="afii62960" unicode="&#x686;" horiz-adv-x="1100" arabic-form="medial" 
d="M1100 0h-129c-90 0.666992 -161 31 -213 91c-14.667 17.333 -42.667 66.333 -84 147l-271 -157c-94.667 -53.333 -198.667 -80.333 -312 -81h-161l-31 150h156c114.667 0 212 19.667 292 59l246 128c-58.667 12 -134.667 37 -228 75c-84 34.667 -135.667 52 -155 52
c-39.333 0 -73 -26.667 -101 -80l-101 48c39.333 124 91.666 186 156.999 186c44 0 104.667 -16 182 -48c118.667 -48.667 193.334 -78 224.001 -88c98 -31.333 195.667 -47 293 -47c20 0 40 0.666992 60 2l-5 -140c-78.667 -0.666992 -138.667 -11.667 -180 -33
c36.667 -76.667 116 -114.667 238 -114h91zM558 -435l53 102l132 -84l-57 -99zM383 -248l58 105l134 -84l57 98l132 -81l-62 -105l-128 82l-58 -96z" />
    <glyph glyph-name="uniFB7F" unicode="&#x687;" horiz-adv-x="1134" arabic-form="final" 
d="M1322 -702c-125.333 -46 -258.332 -68.999 -398.999 -68.999c-184.667 0 -338 34 -460 102c-148.667 82.667 -241.334 211 -278.001 385c-30.667 144.667 1 277 95 397c76 96 179 171.333 309 226c-172 48 -270.333 72 -295 72c-44 0 -78.333 -31.667 -103 -95l-105 42
c28.667 135.333 82.334 203 161.001 203c47.333 0 143.333 -20 288 -60s258.667 -60 342 -60c35.333 0 70.666 1.66699 105.999 5l-6 -150c-91.333 -1.33301 -156.666 -10.333 -195.999 -27c18 -50.667 49 -84.334 93 -101.001c32 -12 84.667 -18 158 -18h70l32 -150h-109
c-72.667 0.666992 -138 24.667 -196 72s-97.667 107 -119 179c-140.667 -51.333 -247.334 -123 -320.001 -215c-74.667 -95.333 -100 -198.333 -76 -309c49.333 -233.333 255.333 -350 618 -350c134.667 0 242.667 15.667 324 47zM816.001 -329.999l-109 90l71 90l109 -90z
M608.001 -335.999l-109 90l71 90l109 -90zM675.001 -169.999l-109 90l71 90l109 -90zM750.001 -501.999l-109 90l70 90l110 -90z" />
    <glyph glyph-name="uniFB80" unicode="&#x687;" horiz-adv-x="954" arabic-form="initial" 
d="M864 419l-3.00293 -143c-114.667 -0.666992 -209.667 -25 -285 -73c-41.333 -30 -104.666 -73.667 -189.999 -131c-76 -47.333 -177.667 -71.333 -305 -72h-151l-31 150h156c90 0 163.333 10 220 30c36.667 12.667 85 38 145 76c62.667 40 110.667 66.667 144 80
c-39.333 9.33301 -103 32.333 -191 69c-78.667 33.333 -129 50 -151 50c-34 0 -73 -27.667 -117 -83l-95 49c14.667 40 37.334 78 68.001 114c36 42.667 70 64 102 64c46.667 0 108.667 -16.333 186 -49c122.667 -52 195 -81.667 217 -89
c92.667 -30.667 186.334 -44.667 281.001 -42zM731.997 -411l-109 90l71 90l109 -90zM523.997 -417l-109 90l71 90l109 -90zM590.997 -251l-109 90l71 90l109 -90zM665.997 -583l-109 90l70 90l110 -90z" />
    <glyph glyph-name="uniFB81" unicode="&#x687;" horiz-adv-x="1100" arabic-form="medial" 
d="M1100 0h-129c-90 0.666992 -161 31 -213 91c-14.667 17.333 -42.667 66.333 -84 147l-271 -157c-94.667 -53.333 -198.667 -80.333 -312 -81h-161l-31 150h156c114.667 0 212 19.667 292 59l246 128c-58.667 12 -134.667 37 -228 75c-84 34.667 -135.667 52 -155 52
c-39.333 0 -73 -26.667 -101 -80l-101 48c39.333 124 91.666 186 156.999 186c44 0 104.667 -16 182 -48c118.667 -48.667 193.334 -78 224.001 -88c98 -31.333 195.667 -47 293 -47c20 0 40 0.666992 60 2l-5 -140c-78.667 -0.666992 -138.667 -11.667 -180 -33
c36.667 -76.667 116 -114.667 238 -114h91zM697 -455l-109 90l71 90l109 -90zM489 -461l-109 90l71 90l109 -90zM556 -295l-109 90l71 90l109 -90zM631 -627l-109 90l70 90l110 -90z" />
    <glyph glyph-name="uniFB83" unicode="&#x68d;" horiz-adv-x="1018" arabic-form="final" 
d="M1018 0l-34 0.00195312c-50 0 -89.667 7 -119 21c-46.667 23.333 -95.667 70.666 -147 141.999c-16.667 -74.667 -53 -126.334 -109 -155.001c-44 -22.667 -110.667 -34 -200 -34c-118 0 -207.667 24.667 -269 74l43 126c48 -29.333 107 -44 177 -44
c208.667 0 303 46.333 283 139c-2.66699 14.667 -8.66699 30.667 -18 48l-207 396l72 106l226 -448c74 -147.333 152.667 -221 236 -221h34zM654 -250.998l-63 -111l-131 84l-60 -100l-139 86l68 113l126 -82l59 96z" />
    <glyph glyph-name="uniFB85" unicode="&#x68c;" horiz-adv-x="1018" arabic-form="final" 
d="M1018 0l-34 0.00195312c-50 0 -89.667 7 -119 21c-46.667 23.333 -95.667 70.666 -147 141.999c-16.667 -74.667 -53 -126.334 -109 -155.001c-44 -22.667 -110.667 -34 -200 -34c-118 0 -207.667 24.667 -269 74l43 126c48 -29.333 107 -44 177 -44
c208.667 0 303 46.333 283 139c-2.66699 14.667 -8.66699 30.667 -18 48l-207 396l72 106l226 -448c74 -147.333 152.667 -221 236 -221h34zM530 1051l-63 -111l-131 84l-60 -100l-139 86l68 113l126 -82l59 96z" />
    <glyph glyph-name="uniFB87" unicode="&#x68e;" horiz-adv-x="1018" arabic-form="final" 
d="M1018 0l-34 0.00195312c-50 0 -89.667 7 -119 21c-46.667 23.333 -95.667 70.666 -147 141.999c-16.667 -74.667 -53 -126.334 -109 -155.001c-44 -22.667 -110.667 -34 -200 -34c-118 0 -207.667 24.667 -269 74l43 126c48 -29.333 107 -44 177 -44
c208.667 0 303 46.333 283 139c-2.66699 14.667 -8.66699 30.667 -18 48l-207 396l72 106l226 -448c74 -147.333 152.667 -221 236 -221h34zM364 1223l-61 -112l-143 88l65 109zM533 1048l-62 -113l-144 90l-61 -106l-140 87l65 113l139 -88l60 104z" />
    <glyph glyph-name="uniFB89" unicode="&#x688;" horiz-adv-x="1018" arabic-form="final" 
d="M1018 0l-34 0.00195312c-50 0 -89.667 7 -119 21c-46.667 23.333 -95.667 70.666 -147 141.999c-16.667 -74.667 -53 -126.334 -109 -155.001c-44 -22.667 -110.667 -34 -200 -34c-118 0 -207.667 24.667 -269 74l43 126c48 -29.333 107 -44 177 -44
c208.667 0 303 46.333 283 139c-2.66699 14.667 -8.66699 30.667 -18 48l-207 396l72 106l226 -448c74 -147.333 152.667 -221 236 -221h34zM484 1067c10 -45.333 -3 -78.999 -39 -100.999c-28.667 -18 -68 -27 -118 -27h-92c-45.333 0 -82.666 10 -111.999 30l6 40
c24.667 -10 44 -15 58 -15c24.667 0 42.667 14.667 54 44c0 1.33301 -1.66699 9.66602 -5 24.999c-16.667 78.667 -39 175 -67 289l41 17l65 -303c12 17.333 28.333 33 49 47c23.333 16.667 45.666 25 66.999 25c20.667 0 40 -6.33301 58 -19c19.333 -14 31 -31.333 35 -52z
M445 1050c-2.66699 12.667 -10.667 22.666 -24 29.999c-11.333 6 -23.666 9 -36.999 9c-16.667 0 -38.334 -11.667 -65.001 -35c-11.333 -10.667 -32 -32 -62 -64h63c47.333 0 82 7.33301 104 22c17.333 10.667 24.333 23.334 21 38.001z" />
    <glyph glyph-name="afii62962" unicode="&#x698;" horiz-adv-x="821" arabic-form="final" 
d="M821 0l-30.001 -0.000976562c-50.667 0 -95.667 9 -135 27c10.667 -124 -40.666 -245.333 -153.999 -364c-76 -80 -168 -148.333 -276 -205l-111 78c117.333 76.667 215.333 155.334 294 236.001c98.667 101.333 141 184 127 248c-10 48 -54 114 -132 198l76 115
c64.667 -70.667 103 -111 115 -121c50.667 -41.333 104.667 -62 162 -62h32zM362.999 760.999l-61 -112l-143 88l65 109zM531.999 585.999l-62 -113l-144 90l-61 -106l-140 87l65 113l139 -88l60 104z" />
    <glyph glyph-name="uniFB8D" unicode="&#x691;" horiz-adv-x="821" arabic-form="final" 
d="M821 0l-30.001 -0.000976562c-50.667 0 -95.667 9 -135 27c10.667 -124 -40.666 -245.333 -153.999 -364c-76 -80 -168 -148.333 -276 -205l-111 78c117.333 76.667 215.333 155.334 294 236.001c98.667 101.333 141 184 127 248c-10 48 -54 114 -132 198l76 115
c64.667 -70.667 103 -111 115 -121c50.667 -41.333 104.667 -62 162 -62h32zM524.999 622.999c10 -45.333 -3 -78.999 -39 -100.999c-28.667 -18 -68 -27 -118 -27h-92c-45.333 0 -82.666 10 -111.999 30l6 40c24.667 -10 44 -15 58 -15c24.667 0 42.667 14.667 54 44
c0 1.33301 -1.66699 9.66602 -5 24.999c-16.667 78.667 -39 175 -67 289l41 17l65 -303c12 17.333 28.333 33 49 47c23.333 16.667 45.666 25 66.999 25c20.667 0 40 -6.33301 58 -19c19.333 -14 31 -31.333 35 -52zM485.999 606c-2.66699 12.667 -10.667 22.666 -24 29.999
c-11.333 6 -23.666 9 -36.999 9c-16.667 0 -38.334 -11.667 -65.001 -35c-11.333 -10.667 -32 -32 -62 -64h63c47.333 0 82 7.33301 104 22c17.333 10.667 24.333 23.334 21 38.001z" />
    <glyph glyph-name="afii62964" unicode="&#x6a9;" horiz-adv-x="1807" arabic-form="final" 
d="M1807 0l-30.999 0.00292969c-172.667 0.666992 -351.334 114.667 -536.001 342c6 -15.333 10.333 -30.333 13 -45c27.333 -128.667 -45.334 -222.334 -218.001 -281.001c-112 -38 -239.333 -57 -382 -57c-184.667 0 -321.667 20.333 -411 61
c-100 46 -162 124.667 -186 236c-14.667 70 -7.33398 133 21.999 189l100 -29c-15.333 -46 -18.666 -89.333 -9.99902 -130c24.667 -117.333 152 -176 382 -176h29c120 0 235.667 11.667 347 35c172.667 36 251 92 235 168c-12.667 60 -49 114 -109 162l-237 179
c-18 96 -22.333 148 -13 156c72.667 60 187.667 137.333 345 232c152.667 91.333 274.667 157.333 366 198l13 -154c-98 -44.667 -212.333 -104.334 -343 -179.001c-142 -80.667 -232.333 -139.334 -271 -176.001l180 -127c62.667 -46.667 116.334 -91 161.001 -133
c228.667 -214 390 -321 484 -321h38z" />
    <glyph glyph-name="afii52305" unicode="&#x6a9;" horiz-adv-x="756" arabic-form="initial" 
d="M512 1230l13 -155.001c-252.667 -114 -444.334 -224.333 -575.001 -331c226.667 -157.333 353.667 -300.666 381 -429.999c12.667 -61.333 4.33398 -120.333 -24.999 -177c-47.333 -90.667 -150.333 -136.334 -309 -137.001h-67l-31 150h133c144 0 205.333 49 184 147
c-11.333 54.667 -54.333 115 -129 181c-15.333 13.333 -98.666 78 -249.999 194c-14.667 90 -14 141.333 2 154c167.333 136.667 391.666 271.334 672.999 404.001z" />
    <glyph glyph-name="afii52306" unicode="&#x6a9;" horiz-adv-x="851" arabic-form="medial" 
d="M851 0h-31c-165.333 0.666992 -341 112.667 -527 336c7.33301 -20 13 -39.333 17 -58c20.667 -96.667 0 -169 -62 -217c-53.333 -40 -130.666 -60.333 -231.999 -61h-86l-31 150h77c182 0 261.333 54.333 238 163c-11.333 52.667 -47 103.667 -107 153l-234 185
c-18.667 96.667 -23.334 148.667 -14.001 156c70.667 58.667 185.667 136 345 232c152.667 91.333 274.667 157.333 366 198l12 -154c-96.667 -44 -211 -103.667 -343 -179c-142.667 -81.333 -232.334 -140 -269.001 -176l178 -127c56.667 -40.667 109.334 -84 158.001 -130
c112 -104 195.333 -176.333 250 -217c93.333 -69.333 170 -104 230 -104h33z" />
    <glyph glyph-name="afii62967" unicode="&#x6af;" horiz-adv-x="1820" arabic-form="final" 
d="M1481 1387l2 -106c-73.333 -31.333 -184.333 -88.666 -333 -171.999l-346 -195l-7 85c316 193.333 544 322.666 684 387.999zM1820 0h-30.9971c-172.667 0.666992 -351.334 114.667 -536.001 342c6 -15.333 10.333 -30.333 13 -45
c27.333 -128.667 -45.334 -222.334 -218.001 -281.001c-112 -38 -239.333 -57 -382 -57c-184.667 0 -321.667 20.333 -411 61c-100 46 -162 124.667 -186 236c-14.667 70 -7.33398 133 21.999 189l100 -29c-15.333 -46 -18.666 -89.333 -9.99902 -130
c24.667 -117.333 152 -176 382 -176h29c120 0 235.667 11.667 347 35c172.667 36 251 92 235 168c-12.667 60 -52.334 113.667 -119.001 161l-221 150c-19.333 100 -23 155 -11 165c70 58.667 183 131.667 339 219c142.667 80 261.667 140 357 180l13 -155
c-86.667 -30 -192 -77.333 -316 -142c-138 -72 -232.333 -132.333 -283 -181l171 -112c67.333 -45.333 121.333 -87.666 162 -126.999c226 -214 387.333 -321 484 -321h38z" />
    <glyph glyph-name="afii62965" unicode="&#x6af;" horiz-adv-x="731" arabic-form="initial" 
d="M446 1384l14 -102.999c-78.667 -34.667 -183.667 -91.334 -315 -170.001l-314 -190l-8 88c247.333 160 455 285 623 375zM499 1176l13.001 -157c-105.333 -43.333 -216 -96.666 -332 -159.999c-106.667 -58.667 -178 -103.334 -214 -134.001
c88 -61.333 153.333 -112.333 196 -153c92 -87.333 147 -174.333 165 -261c44 -206.667 -59.667 -310.334 -311 -311.001h-86l-31 150h133c144.667 0 207 46.333 187 139c-16.667 78.667 -137.334 198.334 -362.001 359.001c-13.333 82 -12.333 129.667 3 143
c172.667 144 385.667 272.333 639 385z" />
    <glyph glyph-name="afii62966" unicode="&#x6af;" horiz-adv-x="851" arabic-form="medial" 
d="M521 1384l3 -105.998c-68 -28.667 -179 -86.334 -333 -173.001l-345 -194l-8 85c315.333 193.333 543 322.666 683 387.999zM851 0.00195312l-31.001 0.000976562c-165.333 0.666992 -341 112.667 -527 336c7.33301 -20 13 -39.333 17 -58
c20.667 -96.667 0 -169 -62 -217c-53.333 -40 -130.666 -60.333 -231.999 -61h-86l-31 150h77c182 0 261.333 54.333 238 163c-8 38.667 -46.333 86 -115 142c-4 3.33301 -78.667 58.666 -224 165.999c-19.333 100.667 -23.333 155.667 -12 165
c70.667 58.667 183.667 131.667 339 219c140.667 78.667 260 138.667 358 180l13 -155c-86.667 -30 -192 -77.333 -316 -142c-138 -72 -232.333 -132.333 -283 -181c14 -10 72.667 -49 176 -117c63.333 -42 115.333 -81.667 156 -119c112 -104 195.333 -176.333 250 -217
c93.333 -69.333 170 -104 230 -104h33z" />
    <glyph glyph-name="uniFB97" unicode="&#x6b3;" horiz-adv-x="1820" arabic-form="final" 
d="M1481 1387l2 -106c-73.333 -31.333 -184.333 -88.666 -333 -171.999l-346 -195l-7 85c316 193.333 544 322.666 684 387.999zM1820 0h-30.9971c-172.667 0.666992 -351.334 114.667 -536.001 342c6 -15.333 10.333 -30.333 13 -45
c27.333 -128.667 -45.334 -222.334 -218.001 -281.001c-112 -38 -239.333 -57 -382 -57c-184.667 0 -321.667 20.333 -411 61c-100 46 -162 124.667 -186 236c-14.667 70 -7.33398 133 21.999 189l100 -29c-15.333 -46 -18.666 -89.333 -9.99902 -130
c24.667 -117.333 152 -176 382 -176h29c120 0 235.667 11.667 347 35c172.667 36 251 92 235 168c-12.667 60 -52.334 113.667 -119.001 161l-221 150c-19.333 100 -23 155 -11 165c70 58.667 183 131.667 339 219c142.667 80 261.667 140 357 180l13 -155
c-86.667 -30 -192 -77.333 -316 -142c-138 -72 -232.333 -132.333 -283 -181l171 -112c67.333 -45.333 121.333 -87.666 162 -126.999c226 -214 387.333 -321 484 -321h38zM714.003 -353l-110 90l71 90l109 -90zM760.003 -557l-109 90l71 90l109 -90z" />
    <glyph glyph-name="uniFB98" unicode="&#x6b3;" horiz-adv-x="731" arabic-form="initial" 
d="M446 1384l14 -102.999c-78.667 -34.667 -183.667 -91.334 -315 -170.001l-314 -190l-8 88c247.333 160 455 285 623 375zM499 1176l13.001 -157c-105.333 -43.333 -216 -96.666 -332 -159.999c-106.667 -58.667 -178 -103.334 -214 -134.001
c88 -61.333 153.333 -112.333 196 -153c92 -87.333 147 -174.333 165 -261c44 -206.667 -59.667 -310.334 -311 -311.001h-86l-31 150h133c144.667 0 207 46.333 187 139c-16.667 78.667 -137.334 198.334 -362.001 359.001c-13.333 82 -12.333 129.667 3 143
c172.667 144 385.667 272.333 639 385zM346.001 -332.999l-110 90l71 90l109 -90zM392.001 -536.999l-109 90l71 90l109 -90z" />
    <glyph glyph-name="uniFB99" unicode="&#x6b3;" horiz-adv-x="851" arabic-form="medial" 
d="M521 1384l3 -105.998c-68 -28.667 -179 -86.334 -333 -173.001l-345 -194l-8 85c315.333 193.333 543 322.666 683 387.999zM851 0.00195312l-31.001 0.000976562c-165.333 0.666992 -341 112.667 -527 336c7.33301 -20 13 -39.333 17 -58
c20.667 -96.667 0 -169 -62 -217c-53.333 -40 -130.666 -60.333 -231.999 -61h-86l-31 150h77c182 0 261.333 54.333 238 163c-8 38.667 -46.333 86 -115 142c-4 3.33301 -78.667 58.666 -224 165.999c-19.333 100.667 -23.333 155.667 -12 165
c70.667 58.667 183.667 131.667 339 219c140.667 78.667 260 138.667 358 180l13 -155c-86.667 -30 -192 -77.333 -316 -142c-138 -72 -232.333 -132.333 -283 -181c14 -10 72.667 -49 176 -117c63.333 -42 115.333 -81.667 156 -119c112 -104 195.333 -176.333 250 -217
c93.333 -69.333 170 -104 230 -104h33zM455.999 -311.997l-110 90l71 90l109 -90zM501.999 -515.997l-109 90l71 90l109 -90z" />
    <glyph glyph-name="uniFB9B" unicode="&#x6b1;" horiz-adv-x="1820" arabic-form="final" 
d="M1481 1387l2 -106c-73.333 -31.333 -184.333 -88.666 -333 -171.999l-346 -195l-7 85c316 193.333 544 322.666 684 387.999zM1820 0h-30.9971c-172.667 0.666992 -351.334 114.667 -536.001 342c6 -15.333 10.333 -30.333 13 -45
c27.333 -128.667 -45.334 -222.334 -218.001 -281.001c-112 -38 -239.333 -57 -382 -57c-184.667 0 -321.667 20.333 -411 61c-100 46 -162 124.667 -186 236c-14.667 70 -7.33398 133 21.999 189l100 -29c-15.333 -46 -18.666 -89.333 -9.99902 -130
c24.667 -117.333 152 -176 382 -176h29c120 0 235.667 11.667 347 35c172.667 36 251 92 235 168c-12.667 60 -52.334 113.667 -119.001 161l-221 150c-19.333 100 -23 155 -11 165c70 58.667 183 131.667 339 219c142.667 80 261.667 140 357 180l13 -155
c-86.667 -30 -192 -77.333 -316 -142c-138 -72 -232.333 -132.333 -283 -181l171 -112c67.333 -45.333 121.333 -87.666 162 -126.999c226 -214 387.333 -321 484 -321h38zM1152 1413l-63 -111l-131 84l-60 -100l-139 86l68 113l126 -82l59 96z" />
    <glyph glyph-name="uniFB9C" unicode="&#x6b1;" horiz-adv-x="731" arabic-form="initial" 
d="M446 1384l14 -102.999c-78.667 -34.667 -183.667 -91.334 -315 -170.001l-314 -190l-8 88c247.333 160 455 285 623 375zM499 1176l13.001 -157c-105.333 -43.333 -216 -96.666 -332 -159.999c-106.667 -58.667 -178 -103.334 -214 -134.001
c88 -61.333 153.333 -112.333 196 -153c92 -87.333 147 -174.333 165 -261c44 -206.667 -59.667 -310.334 -311 -311.001h-86l-31 150h133c144.667 0 207 46.333 187 139c-16.667 78.667 -137.334 198.334 -362.001 359.001c-13.333 82 -12.333 129.667 3 143
c172.667 144 385.667 272.333 639 385zM183.001 1426l-63 -111l-131 84l-60 -100l-139 86l68 113l126 -82l59 96z" />
    <glyph glyph-name="uniFB9D" unicode="&#x6b1;" horiz-adv-x="851" arabic-form="medial" 
d="M521 1384l3 -105.998c-68 -28.667 -179 -86.334 -333 -173.001l-345 -194l-8 85c315.333 193.333 543 322.666 683 387.999zM851 0.00195312l-31.001 0.000976562c-165.333 0.666992 -341 112.667 -527 336c7.33301 -20 13 -39.333 17 -58
c20.667 -96.667 0 -169 -62 -217c-53.333 -40 -130.666 -60.333 -231.999 -61h-86l-31 150h77c182 0 261.333 54.333 238 163c-8 38.667 -46.333 86 -115 142c-4 3.33301 -78.667 58.666 -224 165.999c-19.333 100.667 -23.333 155.667 -12 165
c70.667 58.667 183.667 131.667 339 219c140.667 78.667 260 138.667 358 180l13 -155c-86.667 -30 -192 -77.333 -316 -142c-138 -72 -232.333 -132.333 -283 -181c14 -10 72.667 -49 176 -117c63.333 -42 115.333 -81.667 156 -119c112 -104 195.333 -176.333 250 -217
c93.333 -69.333 170 -104 230 -104h33zM225.999 1442l-63 -111l-131 84l-60 -100l-139 86l68 113l126 -82l59 96z" />
    <glyph glyph-name="uniFB9F" unicode="&#x6ba;" horiz-adv-x="1185" arabic-form="final" 
d="M1185 0l-28.999 -0.000976562c-48 0.666992 -91 17 -129 49c4 -14.667 7.33301 -29.334 10 -44.001c32 -148 10 -266.667 -66 -356c-73.333 -87.333 -184.333 -131 -333 -131c-124.667 0 -232.834 37 -324.501 111s-150.834 173 -177.501 297
c-20.667 99.333 -12.667 197.333 24 294l101 -35c-28 -71.333 -33.333 -148 -16 -230c42 -197.333 170.667 -296 386 -296c98.667 0 178 25.333 238 76c67.333 56.667 91 132.334 71 227.001c-20.667 96 -71.667 192.333 -153 289l91 96
c48.667 -69.333 85 -115.666 109 -138.999c44.667 -38.667 92.334 -58 143.001 -58h23z" />
    <glyph glyph-name="uniFBA1" unicode="&#x6bb;" horiz-adv-x="1185" arabic-form="final" 
d="M1185 0l-28.999 -0.000976562c-48 0.666992 -91 17 -129 49c4 -14.667 7.33301 -29.334 10 -44.001c32 -148 10 -266.667 -66 -356c-73.333 -87.333 -184.333 -131 -333 -131c-124.667 0 -232.834 37 -324.501 111s-150.834 173 -177.501 297
c-20.667 99.333 -12.667 197.333 24 294l101 -35c-28 -71.333 -33.333 -148 -16 -230c42 -197.333 170.667 -296 386 -296c98.667 0 178 25.333 238 76c67.333 56.667 91 132.334 71 227.001c-20.667 96 -71.667 192.333 -153 289l91 96
c48.667 -69.333 85 -115.666 109 -138.999c44.667 -38.667 92.334 -58 143.001 -58h23zM626.001 582.999c10 -45.333 -3 -78.999 -39 -100.999c-28.667 -18 -68 -27 -118 -27h-92c-45.333 0 -82.666 10 -111.999 30l6 40c24.667 -10 44 -15 58 -15
c24.667 0 42.667 14.667 54 44c0 1.33301 -1.66699 9.66602 -5 24.999c-16.667 78.667 -39 175 -67 289l41 17l65 -303c12 17.333 28.333 33 49 47c23.333 16.667 45.666 25 66.999 25c20.667 0 40 -6.33301 58 -19c19.333 -14 31 -31.333 35 -52zM587.001 566
c-2.66699 12.667 -10.667 22.666 -24 29.999c-11.333 6 -23.666 9 -36.999 9c-16.667 0 -38.334 -11.667 -65.001 -35c-11.333 -10.667 -32 -32 -62 -64h63c47.333 0 82 7.33301 104 22c17.333 10.667 24.333 23.334 21 38.001z" />
    <glyph glyph-name="uniFBA4" unicode="&#x6c0;" horiz-adv-x="639" arabic-form="isolated" 
d="M169 975c-40.667 -2.66699 -69.334 -19.999 -86.001 -51.999c1.33301 -8.66699 17.333 -16.834 48 -24.501s55.334 -15.167 74.001 -22.5s32.667 -19.833 42 -37.5s12.666 -35.167 9.99902 -52.5s-10 -31.333 -22 -42s-26.667 -18.167 -44 -22.5s-40.5 -6.33301 -69.5 -6
s-56.833 4.5 -83.5 12.5c-10.667 8 -18.5 14.333 -23.5 19s-8 8.16699 -9 10.5s-0.5 4 1.5 5s5 1.5 9 1.5c38 0 79.5 2 124.5 6s72.5 12.333 82.5 25c-6.66699 15.333 -30.5 28.666 -71.5 39.999s-68.667 21.166 -83 29.499s-23.166 19.833 -26.499 34.5
c-2 14.667 0.166992 30.5 6.5 47.5s15 32.667 26 47s23.833 26.5 38.5 36.5s28.667 15.667 42 17c25.333 0 41.5 -9.83301 48.5 -29.5s8.16699 -39.167 3.5 -58.5c-8 -5.33301 -15 -4.16602 -21 3.50098s-11.667 11.834 -17 12.501zM536 231.001
c15.333 -72 7.66699 -131.334 -23 -178.001c-32 -49.333 -83.333 -74 -154 -74c-57.333 0 -107.333 19.167 -150 57.5s-70.334 86.5 -83.001 144.5c-11.333 52 -12.666 99 -3.99902 141c3.33301 18.667 19 68.334 47 149.001l-27 19l43 135c208 -140 325 -271.333 351 -394z
M430.001 230c-7.33301 34.667 -33.667 73.333 -79 116c-34 32.667 -69.333 59.667 -106 81c-30.667 -96 -43 -157.667 -37 -185c16.667 -77.333 60 -116 130 -116c30.667 0 55.167 9.83301 73.5 29.5s24.5 44.5 18.5 74.5z" />
    <glyph glyph-name="uniFBA5" unicode="&#x6c0;" horiz-adv-x="872" arabic-form="final" 
d="M119 1091c-41.333 -2.66699 -69.998 -19.999 -85.998 -51.999c0.666992 -8.66699 16.334 -16.834 47.001 -24.501s55.334 -15.167 74.001 -22.5s32.667 -19.833 42 -37.5s12.666 -35.167 9.99902 -52.5s-10 -31.333 -22 -42s-26.667 -18.167 -44 -22.5
s-40.333 -6.33301 -69 -6s-56.334 4.5 -83.001 12.5c-10.667 8 -18.5 14.333 -23.5 19s-8.16699 8.16699 -9.5 10.5s-0.833008 4 1.5 5s5.5 1.5 9.5 1.5c37.333 0 78.5 2 123.5 6s72.5 12.333 82.5 25c-6.66699 15.333 -30.334 28.666 -71.001 39.999
s-68.167 21.166 -82.5 29.499s-22.833 19.833 -25.5 34.5s-1 30.5 5 47.5s14.5 32.667 25.5 47s24 26.5 39 36.5s28.833 15.667 41.5 17c25.333 0 41.666 -9.83301 48.999 -29.5s8.33301 -39.167 3 -58.5c-7.33301 -5.33301 -14 -4.16602 -20 3.50098
s-11.667 11.834 -17 12.501zM872.002 0.000976562l-60.001 -0.00195312c-83.333 0.666992 -150.666 20.334 -201.999 59.001c-49.333 36.667 -92.333 96.334 -129 179.001c-56 -50 -137.333 -75 -244 -75c-41.333 0 -79 13.5 -113 40.5s-55.333 60.833 -64 101.5
c-30.667 142 49.666 267 240.999 375l-43 110l87 84l199 -495c35.333 -88.667 67 -146.667 95 -174c38.667 -36.667 98.334 -55 179.001 -55h22zM418.001 377.999l-68.998 171.999c-42.667 -19.333 -81.334 -44 -116.001 -74
c-46.667 -41.333 -66.334 -79.666 -59.001 -114.999c5.33301 -24.667 33.333 -37 84 -37c80 0 133.333 18 160 54z" />
    <glyph glyph-name="uniFBA6" unicode="&#x6c1;" horiz-adv-x="639" arabic-form="isolated" 
d="M536 231c15.333 -72 7.66699 -131.334 -23 -178.001c-32 -49.333 -83.333 -74 -154 -74c-57.333 0 -107.333 19.167 -150 57.5s-70.334 86.5 -83.001 144.5c-11.333 52 -12.666 99 -3.99902 141c3.33301 18.667 19 68.334 47 149.001l-27 19l43 135
c208 -140 325 -271.333 351 -394zM430.001 229.999c-7.33301 34.667 -33.667 73.333 -79 116c-34 32.667 -69.333 59.667 -106 81c-30.667 -96 -43 -157.667 -37 -185c16.667 -77.333 60 -116 130 -116c30.667 0 55.167 9.83301 73.5 29.5s24.5 44.5 18.5 74.5z" />
    <glyph glyph-name="uniFBA8" unicode="&#x6c1;" horiz-adv-x="417" arabic-form="initial" 
d="M384 -407c2 -10 1.50098 -20.3311 -1.49902 -30.998s-8.33301 -20.334 -16 -29.001s-18 -15.834 -31 -21.501s-27.833 -8.5 -44.5 -8.5c-9.33301 0 -20.5 2.16699 -33.5 6.5s-26 11.333 -39 21s-25 22.334 -36 38.001s-18.833 34.834 -23.5 57.501
c-2 10.667 -3.33301 22.334 -4 35.001s0.5 27.167 3.5 43.5s8.16699 34.666 15.5 54.999s18 43.5 32 69.5c8 14.667 14.833 25.167 20.5 31.5s11.167 9.5 16.5 9.5c10.667 0 17.334 -6 20.001 -18c0.666992 -4 -1.83301 -12.833 -7.5 -26.5s-11.834 -29.334 -18.501 -47.001
s-12.334 -35.834 -17.001 -54.501s-5.66699 -34.334 -3 -47.001c6 -28 21.333 -42 46 -42c9.33301 0 16.333 2 21 6s6.66699 11.333 6 22c50.667 0.666992 82 -22.666 94 -69.999zM315.001 258.002c36 -171.333 -45.335 -257.333 -244.002 -258h-123l-31 150h130
c115.333 0 166.333 31 153 93c-7.33301 33.333 -32.666 72 -75.999 116l-43 44l79 113c82.667 -74.667 134.334 -160.667 155.001 -258z" />
    <glyph glyph-name="uniFBA9" unicode="&#x6c1;" horiz-adv-x="636" arabic-form="medial" 
d="M-40 0l-30.998 149.996h74c46.667 0 86.667 1.5 120 4.5s60.333 9.66699 81 20s37.667 31.5 51 63.5s18.333 90.667 15 176l52 -12c2 -9.33301 5.66699 -32 11 -68s6.33301 -71.667 3 -107s-8.83301 -63.666 -16.5 -84.999s-16.834 -41.666 -27.501 -60.999
c-4 -18 -5.66699 -35.667 -5 -53s3 -34.666 7 -51.999c16.667 -78.667 56.667 -148.334 120 -209.001l2 3c-10.667 16.667 -19.5 38.667 -26.5 66s-10.5 53.333 -10.5 78s2.66699 48.834 8 72.501s14.333 46.334 27 68.001s28 40.5 46 56.5c8.66699 7.33301 17 13.5 25 18.5
s16.833 9 26.5 12s20.834 5.16699 33.501 6.5s27 2 43 2h16l32 -150h-44c-34 0 -61.833 -3 -83.5 -9s-38.167 -14.333 -49.5 -25s-18.166 -22.834 -20.499 -36.501s-1.83301 -27.834 1.5 -42.501c5.33301 -25.333 15.666 -49.833 30.999 -73.5s36.666 -50.5 63.999 -80.5
l-49 -153c-41.333 24.667 -75.833 49.834 -103.5 75.501s-50.167 49.667 -67.5 72s-34 51 -50 86s-27.667 69.5 -35 103.5c-8.66699 44 -12.334 83.667 -11.001 119c-22 -13.333 -52.167 -22.666 -90.5 -27.999s-94.5 -8 -168.5 -8z" />
    <glyph glyph-name="uniFBAB" unicode="&#x6be;" horiz-adv-x="935" arabic-form="final" 
d="M965 0l-36.0039 0.000976562c-62.667 0.666992 -114.667 -10.666 -156 -33.999c-53.333 -29.333 -74 -72 -62 -128c12 -56.667 53 -101.334 123 -134.001l-15 -136c-233.333 68.667 -400.666 213.334 -501.999 434.001l-94 -2c-16.667 0 -34 2.5 -52 7.5
s-35 13.167 -51 24.5s-30.5 25.666 -43.5 42.999s-22.5 38 -28.5 62l222 10c-25.333 120 -20.666 235.333 14.001 346c30 98 64 147 102 147c30.667 0 74.334 -33 131.001 -99c60 -70.667 97.667 -141.334 113 -212.001c16.667 -80.667 10.334 -153 -18.999 -217
c-34 -72.667 -89.333 -109 -166 -109c36 -76.667 97.333 -141.667 184 -195c-7.33301 15.333 -12.666 31.333 -15.999 48c-17.333 80.667 -0.333008 150 51 208c49.333 57.333 114.666 86 195.999 86h73zM531.996 293.001c-9.33301 46 -28.666 86.332 -57.999 120.999
c-24.667 28.667 -44 43 -58 43s-26.667 -26.667 -38 -80c-14 -65.333 -12 -140 6 -224c60 2 103 17 129 45c21.333 24.667 27.666 56.334 18.999 95.001z" />
    <glyph glyph-name="uniFBAC" unicode="&#x6be;" horiz-adv-x="788" arabic-form="initial" 
d="M726 162c31.333 -146 2 -218.999 -88 -218.999c-22.667 0 -120.334 37.667 -293.001 113c-59.333 -36.667 -137.666 -55.334 -234.999 -56.001h-180l-31 150h266c-86 33.333 -137 87.333 -153 162c-20 98.667 31.333 188 154 268l-61 38l30 141
c357.333 -226.667 554.333 -425.667 591 -597zM616 167.001c-8.66699 40 -70.999 111.667 -186.999 215c5.33301 -14 9.33301 -27.667 12 -41c14 -66.667 1.33301 -122.667 -38 -168c15.333 -8.66699 46.666 -23 93.999 -43c51.333 -21.333 81.333 -32 90 -32
c29.333 0 39 23 29 69zM340.001 347.001c-6 28.667 -18.6689 55.6699 -38.002 81.0029c-23.333 30.667 -48 46 -74 46c-28.667 0 -54.667 -14.833 -78 -44.5s-32 -58.834 -26 -87.501c5.33301 -26.667 29 -53.334 71 -80.001c36.667 -23.333 66.334 -35 89.001 -35
c23.333 0 40.333 14.667 51 44c8.66699 25.333 10.334 50.666 5.00098 75.999z" />
    <glyph glyph-name="uniFBAD" unicode="&#x6be;" horiz-adv-x="811" arabic-form="medial" 
d="M830 0l-36.0029 0.000976562c-62.667 0.666992 -114.667 -10.666 -156 -33.999c-53.333 -29.333 -74 -72 -62 -128c12 -56.667 53 -101.334 123 -134.001l-15 -136c-233.333 68.667 -400.333 212.667 -501 432h-215l-31 150h198c-25.333 118 -20.666 232.333 14.001 343
c30 98 64 147 102 147c30.667 0 74.334 -33 131.001 -99c60 -70.667 97.667 -141.334 113 -212.001c16.667 -80.667 10.334 -153 -18.999 -217c-34 -72.667 -89.333 -109 -166 -109c36 -76.667 97.333 -141.667 184 -195c-7.33301 15.333 -12.666 31.333 -15.999 48
c-17.333 80.667 -0.333008 150 51 208c49.333 57.333 114.666 86 195.999 86h73zM396.997 293.001c-9.33301 46 -28.666 86.332 -57.999 120.999c-24.667 28.667 -44 43 -58 43s-26.667 -26.667 -38 -80c-14 -65.333 -12.667 -137.333 4 -216c62 -5.33301 105.667 7 131 37
c21.333 24.667 27.666 56.334 18.999 95.001z" />
    <glyph glyph-name="uniFBAF" unicode="&#x6d2;" horiz-adv-x="977" arabic-form="final" 
d="M957 150l33.0039 -150h-654c-12 0 -25.333 -0.5 -40 -1.5s-28.667 -2.66699 -42 -5s-25.333 -5.66602 -36 -9.99902s-18.334 -9.83301 -23.001 -16.5c-1.33301 -5.33301 -1.33301 -11 0 -17c3.33301 -16 14 -29.667 32 -41c17.333 -14 40.666 -23.333 69.999 -28
c73.333 -12.667 159.666 -20.167 258.999 -22.5s184.5 -2.33301 255.5 0s133.833 4.83301 188.5 7.5l-45 -117c-8 -3.33301 -58.667 -10 -152 -20s-205.333 -13.333 -336 -10c-48.667 1.33301 -95.667 4 -141 8c-59.333 6 -107.333 19.333 -144 40c-36 20 -58 48.333 -66 85
c-3.33301 15.333 -4 33 -2 53c1.33301 19.333 5.66602 42.666 12.999 69.999c12 44 33.333 79.667 64 107c52 42 108.333 64.667 169 68h597z" />
    <glyph glyph-name="unifbb1" unicode="&#x6d3;" horiz-adv-x="977" arabic-form="final" 
d="M957 150l33.0039 -150h-654c-12 0 -25.333 -0.5 -40 -1.5s-28.667 -2.66699 -42 -5s-25.333 -5.66602 -36 -9.99902s-18.334 -9.83301 -23.001 -16.5c-1.33301 -5.33301 -1.33301 -11 0 -17c3.33301 -16 14 -29.667 32 -41c17.333 -14 40.666 -23.333 69.999 -28
c73.333 -12.667 159.666 -20.167 258.999 -22.5s184.5 -2.33301 255.5 0s133.833 4.83301 188.5 7.5l-45 -117c-8 -3.33301 -58.667 -10 -152 -20s-205.333 -13.333 -336 -10c-48.667 1.33301 -95.667 4 -141 8c-59.333 6 -107.333 19.333 -144 40c-36 20 -58 48.333 -66 85
c-3.33301 15.333 -4 33 -2 53c1.33301 19.333 5.66602 42.666 12.999 69.999c12 44 33.333 79.667 64 107c52 42 108.333 64.667 169 68h597zM447.004 377l-362 -98.001l-14 67l89 41c-39.333 32.667 -62.333 65 -69 97c-8 37.333 0 71.5 24 102.5s54.667 46.5 92 46.5
c44.667 0 86 -12.667 124 -38l-12 -57c-31.333 10 -64 15 -98 15c-16.667 0 -33 -4.66699 -49 -14c-18.667 -11.333 -26.667 -24.666 -24 -39.999c10 -46 54.667 -69 134 -69c10.667 0 59 14 145 42z" />
    <glyph glyph-name="uniFBD4" unicode="&#x6ad;" horiz-adv-x="1597" arabic-form="final" 
d="M1597 0h-62.998c-88.667 0.666992 -162.334 47.334 -221.001 140.001l-3 2c-34.667 -52.667 -98.667 -94.667 -192 -126c-112 -38 -239.333 -57 -382 -57c-184.667 0 -321.667 20.333 -411 61c-100 46 -162 124.667 -186 236c-14.667 70 -7.33398 133 21.999 189l100 -29
c-15.333 -46 -18.666 -89.333 -9.99902 -130c24.667 -117.333 152 -176 382 -176h29c120 0 235.667 11.667 347 35c99.333 20.667 167.666 46.667 204.999 78v1c12 37.333 7.33301 99.666 -14 186.999l-191 790l118 68l172 -809c44 -206.667 119 -310 225 -310h41z
M808.002 560l-363 -98l-14 67l90 41c-40 32.667 -63.333 65 -70 97c-8 38 0 72.333 24 103s55 46 93 46c44.667 0 86 -12.667 124 -38l-11 -56c-32 9.33301 -65 14 -99 14c-16.667 0 -33 -4.66699 -49 -14c-18.667 -11.333 -26.667 -24.333 -24 -39
c10 -46.667 54.667 -70 134 -70c10.667 0 59 14 145 42zM578.002 1268l-61 -112l-143 88l65 109zM747.002 1093l-62 -113l-144 90l-61 -106l-140 87l65 113l139 -88l60 104z" />
    <glyph glyph-name="uniFBD5" unicode="&#x6ad;" horiz-adv-x="756" arabic-form="initial" 
d="M49 1417l-61 -112l-143 88l65 109zM218 1242l-62 -113l-144 90l-61 -106l-140 87l65 113l139 -88l60 104zM512 1230l13 -155.001c-252.667 -114 -444.334 -224.333 -575.001 -331c226.667 -157.333 353.667 -300.666 381 -429.999
c12.667 -61.333 4.33398 -120.333 -24.999 -177c-47.333 -90.667 -150.333 -136.334 -309 -137.001h-67l-31 150h133c144 0 205.333 49 184 147c-11.333 54.667 -54.333 115 -129 181c-15.333 13.333 -98.666 78 -249.999 194c-14.667 90 -14 141.333 2 154
c167.333 136.667 391.666 271.334 672.999 404.001z" />
    <glyph glyph-name="uniFBD6" unicode="&#x6ad;" horiz-adv-x="851" arabic-form="medial" 
d="M95 1428l-61 -112l-143 88l65 109zM264 1253l-62 -113l-144 90l-61 -106l-140 87l65 113l139 -88l60 104zM851 0h-31c-165.333 0.666992 -341 112.667 -527 336c7.33301 -20 13 -39.333 17 -58c20.667 -96.667 0 -169 -62 -217
c-53.333 -40 -130.666 -60.333 -231.999 -61h-86l-31 150h77c182 0 261.333 54.333 238 163c-11.333 52.667 -47 103.667 -107 153l-234 185c-18.667 96.667 -23.334 148.667 -14.001 156c70.667 58.667 185.667 136 345 232c152.667 91.333 274.667 157.333 366 198
l12 -154c-96.667 -44 -211 -103.667 -343 -179c-142.667 -81.333 -232.334 -140 -269.001 -176l178 -127c56.667 -40.667 109.334 -84 158.001 -130c112 -104 195.333 -176.333 250 -217c93.333 -69.333 170 -104 230 -104h33z" />
    <glyph glyph-name="uniFBD8" unicode="&#x6c7;" horiz-adv-x="739" arabic-form="final" 
d="M739 0h-129c8 -242 -111 -421 -357 -537l-117 105c117.333 72.667 200.333 133.667 249 183c74 75.333 109.667 158.333 107 249c-32.667 -4.66699 -66.667 -7 -102 -7c-148.667 -4 -234.334 47.333 -257.001 154c-13.333 64.667 -8.66602 132.667 14.001 204
c26 82 68.667 123 128 123c75.333 0 142 -37 200 -111c44.667 -56 80.667 -127 108 -213h124zM445 151c-10.667 40 -28.001 75.999 -52.001 107.999c-29.333 40.667 -61.333 61 -96 61c-24 0 -42 -13.167 -54 -39.5s-15.333 -51.833 -10 -76.5
c6.66699 -32 43.334 -50.333 110.001 -55c45.333 -1.33301 79.333 -0.666016 102 2.00098zM411.999 913.999c15.333 -72.667 -5.33398 -137.001 -62.001 -193.001l76 -46l-38 -53c-24 12.667 -51.667 33.334 -83 62.001c-76.667 -64 -170 -108 -280 -132l-45 66
c117.333 40.667 197.333 82.667 240 126c-36 40 -56.333 71 -61 93c-8.66699 39.333 -1 79.5 23 120.5s54.667 61.5 92 61.5c30.667 0 59.834 -10 87.501 -30s44.5 -45 50.5 -75zM343.999 882.998c-8 37.333 -33.668 55.999 -77.001 55.999c-16.667 0 -31.167 -10 -43.5 -30
s-16.833 -39 -13.5 -57c6.66699 -31.333 32.334 -56.666 77.001 -75.999c45.333 37.333 64.333 73 57 107z" />
    <glyph glyph-name="uniFBDA" unicode="&#x6c6;" horiz-adv-x="739" arabic-form="final" 
d="M739 0h-129c8 -242 -111 -421 -357 -537l-117 105c117.333 72.667 200.333 133.667 249 183c74 75.333 109.667 158.333 107 249c-32.667 -4.66699 -66.667 -7 -102 -7c-148.667 -4 -234.334 47.333 -257.001 154c-13.333 64.667 -8.66602 132.667 14.001 204
c26 82 68.667 123 128 123c75.333 0 142 -37 200 -111c44.667 -56 80.667 -127 108 -213h124zM445 151c-10.667 40 -28.001 75.999 -52.001 107.999c-29.333 40.667 -61.333 61 -96 61c-24 0 -42 -13.167 -54 -39.5s-15.333 -51.833 -10 -76.5
c6.66699 -32 43.334 -50.333 110.001 -55c45.333 -1.33301 79.333 -0.666016 102 2.00098zM334.999 824.999c-8.66699 -8 -17.5 -20.832 -26.5 -38.499s-17.5 -38.5 -25.5 -62.5s-14.667 -50.167 -20 -78.5s-8.33301 -57.5 -9 -87.5h-28l-2 3
c-14 29.333 -29.833 58.166 -47.5 86.499s-35.5 54.333 -53.5 78s-35.167 44.167 -51.5 61.5s-29.833 30 -40.5 38l87 2c19.333 -21.333 37.333 -47.333 54 -78s32 -62.667 46 -96c0 33.333 2.33301 65.333 7 96s11.667 56.667 21 78z" />
    <glyph glyph-name="uniFBDC" unicode="&#x6c8;" horiz-adv-x="739" arabic-form="final" 
d="M739 0h-129c8 -242 -111 -421 -357 -537l-117 105c117.333 72.667 200.333 133.667 249 183c74 75.333 109.667 158.333 107 249c-32.667 -4.66699 -66.667 -7 -102 -7c-148.667 -4 -234.334 47.333 -257.001 154c-13.333 64.667 -8.66602 132.667 14.001 204
c26 82 68.667 123 128 123c75.333 0 142 -37 200 -111c44.667 -56 80.667 -127 108 -213h124zM445 151c-10.667 40 -28.001 75.999 -52.001 107.999c-29.333 40.667 -61.333 61 -96 61c-24 0 -42 -13.167 -54 -39.5s-15.333 -51.833 -10 -76.5
c6.66699 -32 43.334 -50.333 110.001 -55c45.333 -1.33301 79.333 -0.666016 102 2.00098zM259.999 614.999l-42 -23l-107 352l85 44z" />
    <glyph glyph-name="uniFBDF" unicode="&#x6cb;" horiz-adv-x="739" arabic-form="final" 
d="M739 0h-129c8 -242 -111 -421 -357 -537l-117 105c117.333 72.667 200.333 133.667 249 183c74 75.333 109.667 158.333 107 249c-32.667 -4.66699 -66.667 -7 -102 -7c-148.667 -4 -234.334 47.333 -257.001 154c-13.333 64.667 -8.66602 132.667 14.001 204
c26 82 68.667 123 128 123c75.333 0 142 -37 200 -111c44.667 -56 80.667 -127 108 -213h124zM445 151c-10.667 40 -28.001 75.999 -52.001 107.999c-29.333 40.667 -61.333 61 -96 61c-24 0 -42 -13.167 -54 -39.5s-15.333 -51.833 -10 -76.5
c6.66699 -32 43.334 -50.333 110.001 -55c45.333 -1.33301 79.333 -0.666016 102 2.00098zM261.999 859.999l-61 -112l-143 88l65 109zM430.999 684.999l-62 -113l-144 90l-61 -106l-140 87l65 113l139 -88l60 104z" />
    <glyph glyph-name="uniFBE1" unicode="&#x6c5;" horiz-adv-x="721" arabic-form="final" 
d="M739 0h-129c8 -242 -111 -421 -357 -537l-117 105c110.667 68.667 191 127 241 175l-194 -2l16 42l222 10c49.333 64 73 133 71 207c-32.667 -4.66699 -66.667 -7 -102 -7c-148.667 -4 -234.334 47.333 -257.001 154c-13.333 64.667 -8.66602 132.667 14.001 204
c26 82 68.667 123 128 123c75.333 0 142 -37 200 -111c44.667 -56 80.667 -127 108 -213h124zM445 151c-10.667 40 -28.001 75.999 -52.001 107.999c-29.333 40.667 -61.333 61 -96 61c-24 0 -42 -13.167 -54 -39.5s-15.333 -51.833 -10 -76.5
c6.66699 -32 43.334 -50.333 110.001 -55c45.333 -1.33301 79.333 -0.666016 102 2.00098z" />
    <glyph glyph-name="uniFBE3" unicode="&#x6c9;" horiz-adv-x="739" arabic-form="final" 
d="M739 0h-129c8 -242 -111 -421 -357 -537l-117 105c117.333 72.667 200.333 133.667 249 183c74 75.333 109.667 158.333 107 249c-32.667 -4.66699 -66.667 -7 -102 -7c-148.667 -4 -234.334 47.333 -257.001 154c-13.333 64.667 -8.66602 132.667 14.001 204
c26 82 68.667 123 128 123c75.333 0 142 -37 200 -111c44.667 -56 80.667 -127 108 -213h124zM445 151c-10.667 40 -28.001 75.999 -52.001 107.999c-29.333 40.667 -61.333 61 -96 61c-24 0 -42 -13.167 -54 -39.5s-15.333 -51.833 -10 -76.5
c6.66699 -32 43.334 -50.333 110.001 -55c45.333 -1.33301 79.333 -0.666016 102 2.00098zM315.999 593.999c-19.333 21.333 -37.668 47.334 -55.001 78.001s-33 62.667 -47 96c0 -33.333 -2 -65.333 -6 -96s-10.667 -56.667 -20 -78l-89 2c8 8 16.5 20.667 25.5 38
s17.333 37.833 25 61.5s14.334 49.667 20.001 78s9.16699 57.166 10.5 86.499l1 3h28c13.333 -30 28.833 -59.333 46.5 -88s35.5 -55 53.5 -79s35.333 -44.667 52 -62s30.667 -30 42 -38z" />
    <glyph glyph-name="uniFBE5" unicode="&#x6d0;" horiz-adv-x="1049" arabic-form="final" 
d="M642 -790l-110 90l71 90l109 -90zM688 -994l-109 90l71 90l109 -90zM1206 0l-199.002 0.00195312c-99.333 0.666992 -146.666 -10 -141.999 -32c4 -16.667 45.333 -31.334 124 -44.001c81.333 -12.667 135 -25 161 -37c53.333 -24 86.333 -65.333 99 -124
c19.333 -91.333 -37 -168.666 -169 -231.999c-107.333 -52.667 -213.333 -79 -318 -79c-139.333 0 -255 32.667 -347 98c-98.667 70.667 -162.667 174.667 -192 312c-21.333 99.333 -14.666 203.333 20.001 312l116 -37c-24 -88 -28 -168.667 -12 -242
c20.667 -98.667 68.667 -173.334 144 -224.001c68.667 -45.333 153.667 -68 255 -68c174 0 305 39.667 393 119c8 7.33301 11.333 14.666 10 21.999c-2 10 -10.667 16 -26 18c-135.333 20 -228.333 40.333 -279 61c-16.667 7.33301 -32.667 22 -48 44s-25 42.333 -29 61
c-31.333 148 83 222 343 222h64z" />
    <glyph glyph-name="afii52364" unicode="&#x6cc;" horiz-adv-x="1129" arabic-form="final" 
d="M1129 0l-199.002 0.00195312c-99.333 0.666992 -146.666 -10 -141.999 -32c4 -16.667 45.333 -31.334 124 -44.001c81.333 -12.667 135 -25 161 -37c53.333 -24 86.333 -65.333 99 -124c19.333 -91.333 -37 -168.666 -169 -231.999
c-107.333 -52.667 -213.333 -79 -318 -79c-139.333 0 -255 32.667 -347 98c-98.667 70.667 -162.667 174.667 -192 312c-21.333 99.333 -14.666 203.333 20.001 312l116 -37c-24 -88 -28 -168.667 -12 -242c20.667 -98.667 68.667 -173.334 144 -224.001
c68.667 -45.333 153.667 -68 255 -68c174 0 305 39.667 393 119c8 7.33301 11.333 14.666 10 21.999c-2 10 -10.667 16 -26 18c-135.333 20 -228.333 40.333 -279 61c-16.667 7.33301 -32.667 22 -48 44s-25 42.333 -29 61c-31.333 148 83 222 343 222h64z" />
    <glyph glyph-name="uniFBFE" unicode="&#x6cc;" horiz-adv-x="417" arabic-form="initial" 
d="M315 258c36 -171.333 -45.335 -257.333 -244.002 -258h-123l-31 150h130c115.333 0 166.333 31 153 93c-7.33301 33.333 -32.666 72 -75.999 116l-43 44l79 113c82.667 -74.667 134.334 -160.667 155.001 -258zM443.998 -254l-63 -111l-131 84l-60 -100l-139 86l68 113
l126 -82l59 96z" />
    <glyph glyph-name="afii62832" unicode="&#x6cc;" horiz-adv-x="548" arabic-form="medial" 
d="M547 1h-54c-116.667 0 -202 40.667 -256 122c-10 -36.667 -32.5 -66.167 -67.5 -88.5s-73.833 -33.5 -116.5 -33.5h-123l-31 149h114c49.333 0 88.333 11.333 117 34c33.333 26 45 62.667 35 110l-13 63l96 27c21.333 -96.667 52.333 -161.667 93 -195
c32 -26 80.333 -39 145 -39h30zM514 -257l-63 -111l-131 84l-60 -100l-139 86l68 113l126 -82l59 96z" />
    <glyph glyph-name="uniFC5D" unicode="&#xfc5d;" horiz-adv-x="1330" arabic-form="isolated" 
d="M405 615l-43 -23l-107 352l84 44zM1150 660l-20.9941 -132.001c-34.667 14 -73.667 21 -117 21c-64 0 -125.667 -22 -185 -66c-62.667 -46.667 -95.334 -99.334 -98.001 -158.001c0 -5.33301 0.666992 -11.666 2 -18.999c6.66699 -30.667 31.167 -48.167 73.5 -52.5
l213.5 -21.5c124 -14 196.333 -70.333 217 -169c21.333 -100.667 -33.334 -195 -164.001 -283c-124.667 -84 -258.334 -126 -401.001 -126c-139.333 0 -255.666 31.333 -348.999 94c-102.667 68.667 -168.334 170.334 -197.001 305.001c-24.667 116 -17 222.333 23 319
l108 -43c-28.667 -81.333 -35.334 -159 -20.001 -233c41.333 -194.667 183 -292 425 -292c81.333 0 164 15.333 248 46c87.333 32 155.666 73 204.999 123c24 24.667 34 46.334 30 65.001c-4.66699 24.667 -29.334 39.667 -74.001 45
c-184.667 21.333 -291 36.666 -319 45.999c-60.667 20.667 -99 69 -115 145c-22 104 8.66699 202 92 294c80.667 88.667 173.667 133 279 133c52 0 100 -13.667 144 -41z" />
    <glyph glyph-name="afii62882" unicode="&#xfc5e;" arabic-form="isolated" 
d="M111 709c14.667 -70.667 -5.33008 -134.334 -59.9971 -191.001l76 -45l-39 -57c-36.667 19.333 -66 38.333 -88 57c-78.667 -60 -170.334 -102.667 -275.001 -128l-47 67c6.66699 2.66699 15 6.66699 25 12c36 38 50.333 74 43 108c-4 19.333 -18 29 -42 29
c-16 0 -34.333 -8.33301 -55 -25l-30 45c18 28 49 42 93 42c54 0 85.667 -21.667 95 -65c8 -38.667 -1 -74 -27 -106c0 -2.66699 2.33301 -4.66699 7 -6c68.667 23.333 116 49.333 142 78c-39.333 38 -62.333 73 -69 105c-8.66699 38.667 -1.33398 78 21.999 118
c24 42.667 55 64 93 64c29.333 0 57.666 -9.66699 84.999 -29s44.333 -43.666 51 -72.999zM45.0029 678c-8 37.333 -33.332 56 -75.999 56c-15.333 0 -28.833 -9.33301 -40.5 -28s-15.834 -35.667 -12.501 -51c8 -36.667 31 -64 69 -82c49.333 27.333 69.333 62.333 60 105z
M149.004 313c21.333 -42 35.9951 -81.668 43.9951 -119.001c22.667 -105.333 -7.66602 -158 -90.999 -158c-37.333 0 -74.666 29 -111.999 87c-26.667 -84 -67 -126 -121 -126s-87.667 32.333 -101 97c-9.33301 42.667 -6 87.334 10 134.001h44
c-2.66699 -35.333 -2 -62.333 2 -81c6.66699 -31.333 26.334 -47 59.001 -47c48.667 0 69.334 51.667 62.001 155l51 21c11.333 -45.333 20 -75 26 -89c16.667 -34 40 -51 70 -51c35.333 0 48 23.333 38 70c-5.33301 24 -16.666 53.333 -33.999 88z" />
    <glyph glyph-name="afii62883" unicode="&#xfc5f;" arabic-form="isolated" 
d="M230 129l-433 -123l-34 75l432 127zM194 297l-432 -123l-34 75l432 127zM63 727c21.333 -42 35.9961 -81.668 43.9961 -119.001c22.667 -105.333 -7.66602 -158 -90.999 -158c-36.667 0 -74 29 -112 87c-26.667 -84 -67 -126 -121 -126s-87.667 32.333 -101 97
c-9.33301 42.667 -6 87.334 10 134.001h44c-2.66699 -35.333 -2 -62.333 2 -81c6.66699 -31.333 26.334 -47 59.001 -47c48.667 0 69.334 51.667 62.001 155l51 21c12 -45.333 21 -75 27 -89c16.667 -34 39.667 -51 69 -51c35.333 0 48 23.333 38 70
c-5.33301 24 -16.666 53.333 -33.999 88z" />
    <glyph glyph-name="afii62884" unicode="&#xfc60;" arabic-form="isolated" 
d="M154 461l-434 -122l-33 74l432 127zM149 313c21.333 -42 35.9951 -81.668 43.9951 -119.001c22.667 -105.333 -7.66602 -158 -90.999 -158c-37.333 0 -74.666 29 -111.999 87c-26.667 -84 -67 -126 -121 -126s-87.667 32.333 -101 97
c-9.33301 42.667 -6 87.334 10 134.001h44c-2.66699 -35.333 -2 -62.333 2 -81c6.66699 -31.333 26.334 -47 59.001 -47c48.667 0 69.334 51.667 62.001 155l51 21c11.333 -45.333 20 -75 26 -89c16.667 -34 40 -51 70 -51c35.333 0 48 23.333 38 70
c-5.33301 24 -16.666 53.333 -33.999 88z" />
    <glyph glyph-name="afii62885" unicode="&#xfc61;" arabic-form="isolated" 
d="M65 702c15.333 -72.667 -5.33301 -137.001 -62 -193.001l76 -46l-38 -53c-24 12.667 -51.333 33.334 -82 62.001c-77.333 -64 -171 -108 -281 -132l-45 66c108 32 195 71.333 261 118c-50 45.333 -77.333 79 -82 101c-8.66699 39.333 -1 79.5 23 120.5s55 61.5 93 61.5
c30.667 0 59.667 -10 87 -30s44 -45 50 -75zM-1.99902 670.999c-8 38 -33.668 56.999 -77.001 56.999c-17.333 0 -32.166 -10.167 -44.499 -30.5s-16.833 -39.5 -13.5 -57.5c6.66699 -31.333 32.667 -56.666 78 -75.999c44.667 37.333 63.667 73 57 107zM149 312.998
c21.333 -42 35.9951 -81.668 43.9951 -119.001c22.667 -105.333 -7.66602 -158 -90.999 -158c-37.333 0 -74.666 29 -111.999 87c-26.667 -84 -67 -126 -121 -126s-87.667 32.333 -101 97c-9.33301 42.667 -6 87.334 10 134.001h44c-2.66699 -35.333 -2 -62.333 2 -81
c6.66699 -31.333 26.334 -47 59.001 -47c48.667 0 69.334 51.667 62.001 155l51 21c11.333 -45.333 20 -75 26 -89c16.667 -34 40 -51 70 -51c35.333 0 48 23.333 38 70c-5.33301 24 -16.666 53.333 -33.999 88z" />
    <glyph glyph-name="afii62886" unicode="&#xfc62;" arabic-form="isolated" 
d="M224 126l-433 -123l-34 75l432 127zM100 543c21.333 -42 35.9961 -81.668 43.9961 -119.001c22.667 -105.333 -7.66602 -158 -90.999 -158c-36.667 0 -74 29 -112 87c-26.667 -84 -67 -126 -121 -126s-87.667 32.333 -101 97c-9.33301 42.667 -6 87.334 10 134.001h44
c-2.66699 -35.333 -2 -62.333 2 -81c6.66699 -31.333 26.334 -47 59.001 -47c48.667 0 69.334 51.667 62.001 155l51 21c12 -45.333 21 -75 27 -89c16.667 -34 39.667 -51 69 -51c35.333 0 48 23.333 38 70c-5.33301 24 -16.666 53.333 -33.999 88z" />
    <glyph glyph-name="uniFC63" unicode="&#xfc63;" arabic-form="isolated" 
d="M-61 384l-35 -19l-87 285l69 36zM127 305c21.333 -42 35.9961 -81.668 43.9961 -119.001c22.667 -105.333 -7.66602 -158 -90.999 -158c-37.333 0 -74.666 29 -111.999 87c-26.667 -84 -67 -126 -121 -126s-88 32.333 -102 97c-8.66699 42.667 -5 87.334 11 134.001h44
c-2.66699 -35.333 -2 -62.333 2 -81c6.66699 -31.333 26.334 -47 59.001 -47c48.667 0 69.334 51.667 62.001 155l51 21c12 -45.333 20.667 -75 26 -89c16 -34 39 -51 69 -51c35.333 0 48 23.333 38 70c-4.66699 24 -15.667 53.333 -33 88z" />
    <glyph glyph-name="uniFCF2" unicode="&#xfcf2;" horiz-adv-x="701" arabic-form="medial" 
d="M440 770l-434 -122l-33 74l432 127zM426 612c22 -42 36.9971 -81.668 44.9971 -119.001c22 -105.333 -8.66699 -158 -92 -158c-37.333 0 -74.666 29 -111.999 87c-26.667 -84 -67 -126 -121 -126s-88 32.333 -102 97c-9.33301 42.667 -6 87.334 10 134.001h44
c-2 -35.333 -1 -62.333 3 -81c6.66699 -31.333 26.334 -47 59.001 -47c48.667 0 69.334 51.667 62.001 155l50 21c12.667 -45.333 21.667 -75 27 -89c16.667 -34 40 -51 70 -51c35.333 0 48 23.333 38 70c-4.66699 24 -16 53.333 -34 88zM731.997 -0.000976562h-764l-31 150
h763z" />
    <glyph glyph-name="uniFCF3" unicode="&#xfcf3;" horiz-adv-x="701" arabic-form="medial" 
d="M368 1049c15.333 -72.667 -5.33496 -137.001 -62.002 -193.001l75 -46l-37 -53c-24 12.667 -52 33.334 -84 62.001c-77.333 -64 -170.666 -108 -279.999 -132l-45 66c116.667 40.667 196.667 82.667 240 126c-36.667 40 -57.334 71 -62.001 93
c-8.66699 39.333 -1 79.5 23 120.5s55 61.5 93 61.5c30.667 0 59.834 -10 87.501 -30s44.834 -45 51.501 -75zM298.999 1018c-8 38 -33.6689 56.999 -77.002 56.999c-17.333 0 -32.166 -10.167 -44.499 -30.5s-16.5 -39.5 -12.5 -57.5
c6.66699 -31.333 32.334 -56.666 77.001 -75.999c45.333 37.333 64.333 73 57 107zM423.997 666.998c21.333 -42 35.9971 -81.668 43.9971 -119.001c22.667 -105.333 -7.66602 -158 -90.999 -158c-37.333 0 -75 29 -113 87c-26.667 -84 -67 -126 -121 -126
s-88 32.333 -102 97c-8.66699 42.667 -5 87.334 11 134.001h44c-2.66699 -35.333 -2 -62.333 2 -81c6.66699 -31.333 26.334 -47 59.001 -47c48.667 0 69.334 51.667 62.001 155l51 21c12 -45.333 21 -75 27 -89c16 -34 39 -51 69 -51c35.333 0 48 23.333 38 70
c-4.66699 24 -15.667 53.333 -33 88zM731.994 -0.00292969h-764l-31 150h763z" />
    <glyph glyph-name="uniFCF4" unicode="&#xfcf4;" horiz-adv-x="701" arabic-form="medial" 
d="M511 499l-433 -123l-34 75l433 127zM389 916c21.333 -42 35.9961 -81.668 43.9961 -119.001c22.667 -105.333 -7.66602 -158 -90.999 -158c-37.333 0 -75 29 -113 87c-26.667 -84 -67 -126 -121 -126s-88 32.333 -102 97c-8 42.667 -4.33301 87.334 11 134.001h44
c-2.66699 -35.333 -2 -62.333 2 -81c6.66699 -31.333 26.334 -47 59.001 -47c48.667 0 69.334 51.667 62.001 155l51 21c12 -45.333 21 -75 27 -89c16 -34 39 -51 69 -51c35.333 0 48.333 23.333 39 70c-5.33301 24 -16.666 53.333 -33.999 88zM731.996 -0.000976562h-764
l-31 150h763z" />
    <glyph glyph-name="uniFE71" unicode="&#xfe71;" horiz-adv-x="701" arabic-form="medial" 
d="M494 492l-434 -123l-34 75l433 127zM458 660l-434 -123l-33 75l432 127zM732 0h-764l-31 150h763z" />
    <glyph glyph-name="uniFE77" unicode="&#xfe77;" horiz-adv-x="701" arabic-form="medial" 
d="M494 492l-434 -123l-34 75l433 127zM732 0h-764l-31 150h763z" />
    <glyph glyph-name="uniFE79" unicode="&#xfe79;" horiz-adv-x="701" arabic-form="medial" 
d="M488 685c15.333 -72.667 -5.33203 -137.001 -61.999 -193.001l76 -46l-38 -53c-24 12.667 -51.667 33.334 -83 62.001c-78 -64 -171.667 -108 -281 -132l-45 66c117.333 40.667 197.333 82.667 240 126c-36.667 40 -57.334 71 -62.001 93c-8 39.333 0 79.5 24 120.5
s55 61.5 93 61.5c30.667 0 59.667 -10 87 -30s44.333 -45 51 -75zM419.002 653.999c-8 38 -33.6689 56.999 -77.002 56.999c-17.333 0 -32.166 -10.167 -44.499 -30.5s-16.5 -39.5 -12.5 -57.5c6.66699 -31.333 32.334 -56.666 77.001 -75.999
c45.333 37.333 64.333 73 57 107zM732 -0.00195312h-764l-31 150h763z" />
    <glyph glyph-name="uniFE7B" unicode="&#xfe7b;" horiz-adv-x="701" arabic-form="medial" 
d="M639 -253l-434 -123l-34 75l433 127zM732 0h-764l-31 150h763z" />
    <glyph glyph-name="uniFE7D" unicode="&#xfe7d;" horiz-adv-x="701" arabic-form="medial" 
d="M428 658c21.333 -42 35.9971 -81.668 43.9971 -119.001c22.667 -105.333 -7.66602 -158 -90.999 -158c-37.333 0 -75 29 -113 87c-26.667 -84 -67 -126 -121 -126s-88 32.333 -102 97c-8.66699 42.667 -5 87.334 11 134.001h44c-2.66699 -35.333 -2 -62.333 2 -81
c6.66699 -31.333 26.334 -47 59.001 -47c48.667 0 69.334 51.667 62.001 155l51 21c12 -45.333 20.667 -75 26 -89c16.667 -34 40 -51 70 -51c35.333 0 48 23.333 38 70c-4.66699 24 -15.667 53.333 -33 88zM731.997 -0.000976562h-764l-31 150h763z" />
    <glyph glyph-name="uniFE7F" unicode="&#xfe7f;" horiz-adv-x="701" arabic-form="medial" 
d="M422 536c10.667 -50.667 4 -94 -20 -130c-25.333 -38 -63 -57 -113 -57c-42.667 0 -81 13.667 -115 41s-55.667 62.333 -65 105c-15.333 72 -10 129.333 16 172c20.667 34.667 47.667 52 81 52c37.333 0 78 -15.667 122 -47c50.667 -36.667 82 -82 94 -136zM352 527
c-6 30.667 -23.333 55.668 -52 75.001c-26 18 -55 27 -87 27c-16 0 -28.833 -11.833 -38.5 -35.5s-12.834 -43.834 -9.50098 -60.501c12 -54.667 47.333 -82 106 -82c24 0 44.333 6.33301 61 19c18.667 14.667 25.334 33.667 20.001 57zM732 0.000976562h-764l-31 150h763z
" />
    <glyph glyph-name="afii52399" unicode="&#x621;" horiz-adv-x="891" arabic-form="isolated" 
d="M773 153l-578.001 -158.001l-22 103l145 64c-54 43.333 -88 98.333 -102 165c-12.667 60 -2.16699 113.167 31.5 159.5s80.5 69.5 140.5 69.5c88 0 160.667 -26.333 218 -79l-19 -98c-68.667 34 -124.667 51 -168 51c-27.333 0 -52.333 -7.33301 -75 -22
c-27.333 -17.333 -38.333 -38.666 -33 -63.999c8.66699 -40 38.334 -70.333 89.001 -91c38 -16 79.667 -24 125 -24c20 0 93.333 18.667 220 56z" />
    <glyph glyph-name="afii62753" unicode="&#x622;" horiz-adv-x="489" arabic-form="final" 
d="M526 0l-30 0.000976562c-104.667 0.666992 -188 45.667 -250 135c-42.667 61.333 -79.667 153.333 -111 276c-11.333 45.333 -39 166.666 -83 363.999c-31.333 138.667 -69 280.667 -113 426l118 68l193 -831c20.667 -86 43.667 -149.333 69 -190
c40.667 -65.333 96 -98 166 -98h9zM271 1495c-15.333 -37.333 -40.001 -68.333 -74.001 -93c-36.667 -26.667 -76 -40 -118 -40c-25.333 0 -63.666 4.33301 -114.999 13s-89.333 13 -114 13c-42 0 -80.333 -15.667 -115 -47l-76 72c40 56 89.667 84 149 84
c24 0 60.667 -3.83301 110 -11.5s86.333 -11.5 111 -11.5c74.667 0 137.667 29.333 189 88z" />
    <glyph glyph-name="afii62754" unicode="&#x623;" horiz-adv-x="473" arabic-form="final" 
d="M473 0l-30 0.000976562c-104.667 0.666992 -188 45.667 -250 135c-42.667 61.333 -79.667 153.333 -111 276c-11.333 45.333 -39 166.666 -83 363.999c-31.333 138.667 -69 280.667 -113 426l118 68l193 -831c20.667 -86 43.667 -149.333 69 -190
c40.667 -65.333 96 -98 166 -98h9zM60 1438l-362 -98.001l-14 67l89 41c-39.333 32.667 -62.333 65 -69 97c-8 37.333 0 71.5 24 102.5s54.667 46.5 92 46.5c44.667 0 86 -12.667 124 -38l-12 -57c-31.333 10 -64 15 -98 15c-16.667 0 -33 -4.66699 -49 -14
c-18.667 -11.333 -26.667 -24.666 -24 -39.999c10 -46 54.667 -69 134 -69c10.667 0 59 14 145 42z" />
    <glyph glyph-name="afii62755" unicode="&#x624;" horiz-adv-x="739" arabic-form="final" 
d="M739 0h-129c8 -242 -111 -421 -357 -537l-117 105c117.333 72.667 200.333 133.667 249 183c74 75.333 109.667 158.333 107 249c-32.667 -4.66699 -66.667 -7 -102 -7c-148.667 -4 -234.334 47.333 -257.001 154c-13.333 64.667 -8.66602 132.667 14.001 204
c26 82 68.667 123 128 123c75.333 0 142 -37 200 -111c44.667 -56 80.667 -127 108 -213h124zM445 151c-10.667 40 -28.001 75.999 -52.001 107.999c-29.333 40.667 -61.333 61 -96 61c-24 0 -42 -13.167 -54 -39.5s-15.333 -51.833 -10 -76.5
c6.66699 -32 43.334 -50.333 110.001 -55c45.333 -1.33301 79.333 -0.666016 102 2.00098zM397.999 693.999l-362 -98.001l-14 67l89 41c-39.333 32.667 -62.333 65 -69 97c-8 37.333 0 71.5 24 102.5s54.667 46.5 92 46.5c44.667 0 86 -12.667 124 -38l-12 -57
c-31.333 10 -64 15 -98 15c-16.667 0 -33 -4.66699 -49 -14c-18.667 -11.333 -26.667 -24.666 -24 -39.999c10 -46 54.667 -69 134 -69c10.667 0 59 14 145 42z" />
    <glyph glyph-name="afii62756" unicode="&#x625;" horiz-adv-x="473" arabic-form="final" 
d="M473 0l-30 0.000976562c-104.667 0.666992 -188 45.667 -250 135c-42.667 61.333 -79.667 153.333 -111 276c-11.333 45.333 -39 166.666 -83 363.999c-31.333 138.667 -69 280.667 -113 426l118 68l193 -831c20.667 -86 43.667 -149.333 69 -190
c40.667 -65.333 96 -98 166 -98h9zM554 -396.999l-362 -98.001l-14 67l89 41c-39.333 32.667 -62.333 65 -69 97c-8 37.333 0 71.5 24 102.5s54.667 46.5 92 46.5c44.667 0 86 -12.667 124 -38l-12 -57c-31.333 10 -64 15 -98 15c-16.667 0 -33 -4.66699 -49 -14
c-18.667 -11.333 -26.667 -24.666 -24 -39.999c10 -46 54.667 -69 134 -69c10.667 0 59 14 145 42z" />
    <glyph glyph-name="afii62759" unicode="&#x626;" horiz-adv-x="1129" arabic-form="final" 
d="M1129 0l-199.002 0.00195312c-99.333 0.666992 -146.666 -10 -141.999 -32c4 -16.667 45.333 -31.334 124 -44.001c81.333 -12.667 135 -25 161 -37c53.333 -24 86.333 -65.333 99 -124c19.333 -91.333 -37 -168.666 -169 -231.999
c-107.333 -52.667 -213.333 -79 -318 -79c-139.333 0 -255 32.667 -347 98c-98.667 70.667 -162.667 174.667 -192 312c-21.333 99.333 -14.666 203.333 20.001 312l116 -37c-24 -88 -28 -168.667 -12 -242c20.667 -98.667 68.667 -173.334 144 -224.001
c68.667 -45.333 153.667 -68 255 -68c174 0 305 39.667 393 119c8 7.33301 11.333 14.666 10 21.999c-2 10 -10.667 16 -26 18c-135.333 20 -228.333 40.333 -279 61c-16.667 7.33301 -32.667 22 -48 44s-25 42.333 -29 61c-31.333 148 83 222 343 222h64zM636.998 458.002
l-362 -98.001l-14 67l89 41c-39.333 32.667 -62.333 65 -69 97c-8 37.333 0 71.5 24 102.5s54.667 46.5 92 46.5c44.667 0 86 -12.667 124 -38l-12 -57c-31.333 10 -64 15 -98 15c-16.667 0 -33 -4.66699 -49 -14c-18.667 -11.333 -26.667 -24.666 -24 -39.999
c10 -46 54.667 -69 134 -69c10.667 0 59 14 145 42z" />
    <glyph glyph-name="afii62757" unicode="&#x626;" horiz-adv-x="417" arabic-form="initial" 
d="M315 258c36 -171.333 -45.335 -257.333 -244.002 -258h-123l-31 150h130c115.333 0 166.333 31 153 93c-7.33301 33.333 -32.666 72 -75.999 116l-43 44l79 113c82.667 -74.667 134.334 -160.667 155.001 -258zM217.998 712l-362 -98.001l-14 67l89 41
c-39.333 32.667 -62.333 65 -69 97c-8 37.333 0 71.5 24 102.5s54.667 46.5 92 46.5c44.667 0 86 -12.667 124 -38l-12 -57c-31.333 10 -64 15 -98 15c-16.667 0 -33 -4.66699 -49 -14c-18.667 -11.333 -26.667 -24.666 -24 -39.999c10 -46 54.667 -69 134 -69
c10.667 0 59 14 145 42z" />
    <glyph glyph-name="afii62758" unicode="&#x626;" horiz-adv-x="548" arabic-form="medial" 
d="M547 1h-54c-116.667 0 -202 40.667 -256 122c-10 -36.667 -32.5 -66.167 -67.5 -88.5s-73.833 -33.5 -116.5 -33.5h-123l-31 149h114c49.333 0 88.333 11.333 117 34c33.333 26 45 62.667 35 110l-13 63l96 27c21.333 -96.667 52.333 -161.667 93 -195
c32 -26 80.333 -39 145 -39h30zM318 652l-362 -98.001l-14 67l89 41c-39.333 32.667 -62.333 65 -69 97c-8 37.333 0 71.5 24 102.5s54.667 46.5 92 46.5c44.667 0 86 -12.667 124 -38l-12 -57c-31.333 10 -64 15 -98 15c-16.667 0 -33 -4.66699 -49 -14
c-18.667 -11.333 -26.667 -24.666 -24 -39.999c10 -46 54.667 -69 134 -69c10.667 0 59 14 145 42z" />
    <glyph glyph-name="afii57415" unicode="&#x627;" horiz-adv-x="328" arabic-form="isolated" 
d="M320 29l-95 -28l-289 1217l121 51z" />
    <glyph glyph-name="afii62760" unicode="&#x627;" horiz-adv-x="468" arabic-form="final" 
d="M468 0l-30 0.000976562c-104.667 0.666992 -188 45.667 -250 135c-42.667 61.333 -79.667 153.333 -111 276c-11.333 45.333 -39 166.666 -83 363.999c-31.333 138.667 -69 280.667 -113 426l119 68l192 -831c20.667 -86 43.667 -149.333 69 -190
c40.667 -65.333 96 -98 166 -98h9z" />
    <glyph glyph-name="afii62763" unicode="&#x628;" horiz-adv-x="1673" arabic-form="final" 
d="M1673 0h-31.001c-118 0.666992 -197.667 51 -239 151c-81.333 -128 -325.666 -192 -732.999 -192c-184.667 0 -321.667 20.333 -411 61c-100 46 -162 124.667 -186 236c-14.667 70 -7.33398 133 21.999 189l100 -29c-15.333 -46 -18.666 -89.333 -9.99902 -130
c16.667 -80 78.334 -132.667 185.001 -158c51.333 -12 134.666 -18 249.999 -18h49c141.333 0 272 10 392 30c196.667 32.667 293.667 86.667 291 162l-2 56l77 27c16 -75.333 35.333 -129.333 58 -162c33.333 -48.667 83 -73 149 -73h7zM954.999 -320l-70 -128l-150 87
l69 131z" />
    <glyph glyph-name="afii62761" unicode="&#x628;" horiz-adv-x="417" arabic-form="initial" 
d="M315 258c36 -171.333 -45.335 -257.333 -244.002 -258h-123l-31 150h130c115.333 0 166.333 31 153 93c-7.33301 33.333 -32.666 72 -75.999 116l-43 44l79 113c82.667 -74.667 134.334 -160.667 155.001 -258zM354.998 -264l-70 -128l-150 87l69 131z" />
    <glyph glyph-name="afii62762" unicode="&#x628;" horiz-adv-x="548" arabic-form="medial" 
d="M547 1h-54c-116.667 0 -202 40.667 -256 122c-10 -36.667 -32.5 -66.167 -67.5 -88.5s-73.833 -33.5 -116.5 -33.5h-123l-31 149h114c49.333 0 88.333 11.333 117 34c33.333 26 45 62.667 35 110l-13 63l96 27c21.333 -96.667 52.333 -161.667 93 -195
c32 -26 80.333 -39 145 -39h30zM431 -268l-70 -128l-150 87l69 131z" />
    <glyph glyph-name="afii62764" unicode="&#x629;" horiz-adv-x="872" arabic-form="final" 
d="M872 0l-60.001 -0.00195312c-83.333 0.666992 -150.666 20.334 -201.999 59.001c-49.333 36.667 -92.333 96.334 -129 179.001c-56 -50 -137.333 -75 -244 -75c-41.333 0 -79 13.5 -113 40.5s-55.333 60.833 -64 101.5c-30.667 142 49.666 267 240.999 375l-43 110l87 84
l199 -495c35.333 -88.667 67 -146.667 95 -174c38.667 -36.667 98.334 -55 179.001 -55h22zM417.999 377.998l-68.998 171.999c-42.667 -19.333 -81.334 -44 -116.001 -74c-46.667 -41.333 -66.334 -79.666 -59.001 -114.999c5.33301 -24.667 33.333 -37 84 -37
c80 0 133.333 18 160 54zM275.001 1038l-63 -111l-131 84l-60 -100l-139 86l68 113l126 -82l59 96z" />
    <glyph glyph-name="afii62767" unicode="&#x62a;" horiz-adv-x="1673" arabic-form="final" 
d="M1673 0h-31.001c-118 0.666992 -197.667 51 -239 151c-81.333 -128 -325.666 -192 -732.999 -192c-184.667 0 -321.667 20.333 -411 61c-100 46 -162 124.667 -186 236c-14.667 70 -7.33398 133 21.999 189l100 -29c-15.333 -46 -18.666 -89.333 -9.99902 -130
c16.667 -80 78.334 -132.667 185.001 -158c51.333 -12 134.666 -18 249.999 -18h49c141.333 0 272 10 392 30c196.667 32.667 293.667 86.667 291 162l-2 56l77 27c16 -75.333 35.333 -129.333 58 -162c33.333 -48.667 83 -73 149 -73h7zM778.999 780l-63 -111l-131 84
l-60 -100l-139 86l68 113l126 -82l59 96z" />
    <glyph glyph-name="afii62765" unicode="&#x62a;" horiz-adv-x="417" arabic-form="initial" 
d="M315 258c36 -171.333 -45.335 -257.333 -244.002 -258h-123l-31 150h130c115.333 0 166.333 31 153 93c-7.33301 33.333 -32.666 72 -75.999 116l-43 44l79 113c82.667 -74.667 134.334 -160.667 155.001 -258zM225.998 778l-63 -111l-131 84l-60 -100l-139 86l68 113
l126 -82l59 96z" />
    <glyph glyph-name="afii62766" unicode="&#x62a;" horiz-adv-x="548" arabic-form="medial" 
d="M547 1h-54c-116.667 0 -202 40.667 -256 122c-10 -36.667 -32.5 -66.167 -67.5 -88.5s-73.833 -33.5 -116.5 -33.5h-123l-31 149h114c49.333 0 88.333 11.333 117 34c33.333 26 45 62.667 35 110l-13 63l96 27c21.333 -96.667 52.333 -161.667 93 -195
c32 -26 80.333 -39 145 -39h30zM297 702l-63 -111l-131 84l-60 -100l-139 86l68 113l126 -82l59 96z" />
    <glyph glyph-name="afii62770" unicode="&#x62b;" horiz-adv-x="1673" arabic-form="final" 
d="M1673 0h-31.001c-118 0.666992 -197.667 51 -239 151c-81.333 -128 -325.666 -192 -732.999 -192c-184.667 0 -321.667 20.333 -411 61c-100 46 -162 124.667 -186 236c-14.667 70 -7.33398 133 21.999 189l100 -29c-15.333 -46 -18.666 -89.333 -9.99902 -130
c16.667 -80 78.334 -132.667 185.001 -158c51.333 -12 134.666 -18 249.999 -18h49c141.333 0 272 10 392 30c196.667 32.667 293.667 86.667 291 162l-2 56l77 27c16 -75.333 35.333 -129.333 58 -162c33.333 -48.667 83 -73 149 -73h7zM673.999 898l-61 -112l-143 88
l65 109zM842.999 723l-62 -113l-144 90l-61 -106l-140 87l65 113l139 -88l60 104z" />
    <glyph glyph-name="afii62768" unicode="&#x62b;" horiz-adv-x="417" arabic-form="initial" 
d="M315 258c36 -171.333 -45.335 -257.333 -244.002 -258h-123l-31 150h130c115.333 0 166.333 31 153 93c-7.33301 33.333 -32.666 72 -75.999 116l-43 44l79 113c82.667 -74.667 134.334 -160.667 155.001 -258zM80.998 907l-61 -112l-143 88l65 109zM249.998 732
l-62 -113l-144 90l-61 -106l-140 87l65 113l139 -88l60 104z" />
    <glyph glyph-name="afii62769" unicode="&#x62b;" horiz-adv-x="548" arabic-form="medial" 
d="M547 1h-54c-116.667 0 -202 40.667 -256 122c-10 -36.667 -32.5 -66.167 -67.5 -88.5s-73.833 -33.5 -116.5 -33.5h-123l-31 149h114c49.333 0 88.333 11.333 117 34c33.333 26 45 62.667 35 110l-13 63l96 27c21.333 -96.667 52.333 -161.667 93 -195
c32 -26 80.333 -39 145 -39h30zM170 846l-61 -112l-143 88l65 109zM339 671l-62 -113l-144 90l-61 -106l-140 87l65 113l139 -88l60 104z" />
    <glyph glyph-name="afii62773" unicode="&#x62c;" horiz-adv-x="1134" arabic-form="final" 
d="M1322 -702c-125.333 -46 -258.332 -68.999 -398.999 -68.999c-184.667 0 -338 34 -460 102c-148.667 82.667 -241.334 211 -278.001 385c-30.667 144.667 1 277 95 397c76 96 179 171.333 309 226c-172 48 -270.333 72 -295 72c-44 0 -78.333 -31.667 -103 -95l-105 42
c28.667 135.333 82.334 203 161.001 203c47.333 0 143.333 -20 288 -60s258.667 -60 342 -60c35.333 0 70.666 1.66699 105.999 5l-6 -150c-91.333 -1.33301 -156.666 -10.333 -195.999 -27c18 -50.667 49 -84.334 93 -101.001c32 -12 84.667 -18 158 -18h70l32 -150h-109
c-72.667 0.666992 -138 24.667 -196 72s-97.667 107 -119 179c-140.667 -51.333 -247.334 -123 -320.001 -215c-74.667 -95.333 -100 -198.333 -76 -309c49.333 -233.333 255.333 -350 618 -350c134.667 0 242.667 15.667 324 47zM773.001 -214.999l-70 -128l-150 87l69 131
z" />
    <glyph glyph-name="afii62771" unicode="&#x62c;" horiz-adv-x="954" arabic-form="initial" 
d="M864 419l-3.00293 -143c-114.667 -0.666992 -209.667 -25 -285 -73c-41.333 -30 -104.666 -73.667 -189.999 -131c-76 -47.333 -177.667 -71.333 -305 -72h-151l-31 150h156c90 0 163.333 10 220 30c36.667 12.667 85 38 145 76c62.667 40 110.667 66.667 144 80
c-39.333 9.33301 -103 32.333 -191 69c-78.667 33.333 -129 50 -151 50c-34 0 -73 -27.667 -117 -83l-95 49c14.667 40 37.334 78 68.001 114c36 42.667 70 64 102 64c46.667 0 108.667 -16.333 186 -49c122.667 -52 195 -81.667 217 -89
c92.667 -30.667 186.334 -44.667 281.001 -42zM695.997 -249l-70 -128l-150 87l69 131z" />
    <glyph glyph-name="afii62772" unicode="&#x62c;" horiz-adv-x="1100" arabic-form="medial" 
d="M1100 0h-129c-90 0.666992 -161 31 -213 91c-14.667 17.333 -42.667 66.333 -84 147l-271 -157c-94.667 -53.333 -198.667 -80.333 -312 -81h-161l-31 150h156c114.667 0 212 19.667 292 59l246 128c-58.667 12 -134.667 37 -228 75c-84 34.667 -135.667 52 -155 52
c-39.333 0 -73 -26.667 -101 -80l-101 48c39.333 124 91.666 186 156.999 186c44 0 104.667 -16 182 -48c118.667 -48.667 193.334 -78 224.001 -88c98 -31.333 195.667 -47 293 -47c20 0 40 0.666992 60 2l-5 -140c-78.667 -0.666992 -138.667 -11.667 -180 -33
c36.667 -76.667 116 -114.667 238 -114h91zM713 -233l-70 -128l-150 87l69 131z" />
    <glyph glyph-name="afii62776" unicode="&#x62d;" horiz-adv-x="1134" arabic-form="final" 
d="M1322 -702c-125.333 -46 -258.332 -68.999 -398.999 -68.999c-184.667 0 -338 34 -460 102c-148.667 82.667 -241.334 211 -278.001 385c-30.667 144.667 1 277 95 397c76 96 179 171.333 309 226c-172 48 -270.333 72 -295 72c-44 0 -78.333 -31.667 -103 -95l-105 42
c28.667 135.333 82.334 203 161.001 203c47.333 0 143.333 -20 288 -60s258.667 -60 342 -60c35.333 0 70.666 1.66699 105.999 5l-6 -150c-91.333 -1.33301 -156.666 -10.333 -195.999 -27c18 -50.667 49 -84.334 93 -101.001c32 -12 84.667 -18 158 -18h70l32 -150h-109
c-72.667 0.666992 -138 24.667 -196 72s-97.667 107 -119 179c-140.667 -51.333 -247.334 -123 -320.001 -215c-74.667 -95.333 -100 -198.333 -76 -309c49.333 -233.333 255.333 -350 618 -350c134.667 0 242.667 15.667 324 47z" />
    </font>
</defs>
</svg>
