<?xml version="1.0" standalone="no"?>
<!DOCTYPE svg PUBLIC "-//W3C//DTD SVG 1.1//EN" "http://www.w3.org/Graphics/SVG/1.1/DTD/svg11.dtd" >
<svg>
<metadata>
Created by FontForge 20090914 at Wed Aug 26 07:46:47 2015
 By www-data
Typeface &#194;&#169; The scict.ir Corporation plc. Data &#194;&#169; The scict.ir Corporation plc/Type Solutions Inc. 2012-2013. All Rights Reserved.Modify by Hossein Zahedi.
</metadata>
<defs>
<font id="IRTerafik" horiz-adv-x="0" >
  <font-face 
    font-family="IRTerafik"
    font-weight="400"
    font-stretch="normal"
    units-per-em="2048"
    panose-1="2 0 5 3 0 0 0 2 0 2"
    ascent="1638"
    descent="-410"
    x-height="849.999"
    cap-height="1173"
    bbox="-540 -1048 2624 1856.78"
    underline-thickness="60"
    underline-position="-40"
    unicode-range="U+0020-U+FFFC"
  />
<missing-glyph horiz-adv-x="496" 
 />
    <glyph glyph-name="afii64184" unicode="&#xfedf;&#xfee0;&#x651;&#x670;&#xfeea;" horiz-adv-x="1649" arabic-form="isolated" 
d="M1074 1521l-23 -229h-35l-23 229h81zM1267 1128c0 -32 -9.33398 -59.501 -28.001 -82.501s-43.667 -34.5 -75 -34.5c-59.333 0 -102.666 25.333 -129.999 76c-34 -58 -81 -87 -141 -87c-29.333 0 -53 11.667 -71 35c-16 22 -24 48.333 -24 79c0 34.667 11.667 80 35 136
l55 -27c-16 -41.333 -24 -71 -24 -89c0 -33.333 15.333 -50 46 -50c60.667 0 89.667 54 87 162h67c1.33301 -102 30.333 -153 87 -153c29.333 0 44 17.667 44 53c0 18.667 -12.667 49.334 -38 92.001l57 42c35.333 -50 53 -100.667 53 -152zM1578 360.999
c0 -56 -5.00098 -108.999 -15.001 -158.999c-26.667 -134 -110 -201 -250 -201c-122 0 -204.667 64.333 -248 193c-35.333 -133.333 -114.666 -200 -237.999 -200c-125.333 0 -210.333 67.667 -255 203c-65.333 -12.667 -117.666 -19 -156.999 -19
c-80 0 -148.333 14 -205 42c-72.667 36 -109 90 -109 162c0 105.333 121.333 201.666 364 288.999l-20 112l129 40l77 -438c24.667 -138.667 81.667 -208 171 -208c90 0 135 66.667 135 200v529h168v-423c0 -76.667 11.333 -141.667 34 -195c31.333 -74 80 -111 146 -111
c49.333 0 81.666 15.667 96.999 47c10 20 15 58.667 15 116v566h161v-545zM526.998 339l-45 222c-166 -49.333 -249 -103 -249 -161c0 -9.33301 2 -18 6 -26c14.667 -30.667 65.667 -48 153 -52c46.667 -2 91.667 3.66699 135 17z" />
    <glyph glyph-name="afii62834" unicode="&#xfedf;&#xfe82;" horiz-adv-x="996" arabic-form="isolated" 
d="M948 489c0 -158 -59.333 -281.001 -178 -369.001c-106.667 -79.333 -242 -119 -406 -119c-70.667 0.666992 -129.667 18.667 -177 54v124c48.667 -10 111.667 -12.667 189 -8s148 18.334 212 41.001l-421 794l130 85l410 -808c58 53.333 87 143 87 269v606h154v-669z
M675 1303c-115.333 -66.667 -246.331 -99.999 -392.998 -99.999c-73.333 2 -150 25.667 -230 71c-9.33301 -2.66699 -25.333 -24.334 -48 -65.001l-103 62c56.667 101.333 99 152 127 152c5.33301 0 40.166 -15 104.499 -45s119.166 -45 164.499 -45
c127.333 2 253.333 33.667 378 95v-125z" />
    <glyph glyph-name="afii62835" unicode="&#xfee0;&#xfe82;" horiz-adv-x="1143" arabic-form="final" 
d="M1143 1h-41.999c-63.333 0 -123.666 16.667 -180.999 50c-52 30 -90.667 67.333 -116 112c-106.667 -108 -258 -162 -454 -162c-78.667 -1.33301 -141.667 15.667 -189 51v124c47.333 1.33301 109.166 2 185.499 2s152.166 11.333 227.499 34l-421 794l130 85l410 -808
c58 53.333 87 143 87 269v606h154v-659c0 -102 -18 -178 -54 -228c62 -62 133.333 -93 214 -93h49v-177zM675.001 1303c-115.333 -66.667 -246.331 -99.999 -392.998 -99.999c-73.333 2 -150 25.667 -230 71c-9.33301 -2.66699 -25.333 -24.334 -48 -65.001l-103 62
c56.667 101.333 99 152 127 152c5.33301 0 40.166 -15 104.499 -45s119.166 -45 164.499 -45c127.333 2 253.333 33.667 378 95v-125z" />
    <glyph glyph-name="afii62836" unicode="&#xfedf;&#xfe84;" horiz-adv-x="996" arabic-form="isolated" 
d="M948 489c0 -158 -59.333 -281.001 -178 -369.001c-106.667 -79.333 -242 -119 -406 -119c-70.667 0.666992 -129.667 18.667 -177 54v124c48.667 -10 111.667 -12.667 189 -8s148 18.334 212 41.001l-421 794l130 85l410 -808c58 53.333 87 143 87 269v606h154v-669z
M433 1226l-406.001 -138l-29 75l133 46c-32.667 32 -49 74.333 -49 127c0 44.667 22.667 80 68 106c37.333 21.333 80 32 128 32c19.333 0 39.333 -1.66699 60 -5v-68c-14 2 -28 3 -42 3c-30.667 0 -58 -5.66699 -82 -17c-31.333 -14.667 -47 -35.667 -47 -63
c0 -20 8 -36.5 24 -49.5s34.333 -19.5 55 -19.5c24.667 0 78.334 15.333 161.001 46z" />
    <glyph glyph-name="afii62837" unicode="&#xfee0;&#xfe84;" horiz-adv-x="1143" arabic-form="final" 
d="M1143 1h-41.999c-63.333 0 -123.666 16.667 -180.999 50c-52 30 -90.667 67.333 -116 112c-106.667 -108 -258 -162 -454 -162c-78.667 -1.33301 -141.667 15.667 -189 51v124c47.333 1.33301 109.166 2 185.499 2s152.166 11.333 227.499 34l-421 794l130 85l410 -808
c58 53.333 87 143 87 269v606h154v-659c0 -102 -18 -178 -54 -228c62 -62 133.333 -93 214 -93h49v-177zM448.001 1262l-406.001 -138l-29 75l133 46c-32.667 32 -49 74.333 -49 127c0 44.667 22.667 80 68 106c37.333 21.333 80 32 128 32c19.333 0 39.333 -1.66699 60 -5
v-68c-14 2 -28 3 -42 3c-30.667 0 -58 -5.66699 -82 -17c-31.333 -14.667 -47 -35.667 -47 -63c0 -20 8 -36.5 24 -49.5s34.333 -19.5 55 -19.5c24.667 0 78.334 15.333 161.001 46z" />
    <glyph glyph-name="afii62838" unicode="&#xfedf;&#xfe88;" horiz-adv-x="996" arabic-form="isolated" 
d="M948 489c0 -158 -59.333 -281.001 -178 -369.001c-106.667 -79.333 -242 -119 -406 -119c-70.667 0.666992 -129.667 18.667 -177 54v124c48.667 -10 111.667 -12.667 189 -8s148 18.334 212 41.001l-421 794l130 85l410 -808c58 53.333 87 143 87 269v606h154v-669z
M501 -348.001l-406.001 -138l-29 75l133 46c-32.667 32 -49 74.333 -49 127c0 44.667 22.667 80 68 106c37.333 21.333 80 32 128 32c19.333 0 39.333 -1.66699 60 -5v-68c-14 2 -28 3 -42 3c-30.667 0 -58 -5.66699 -82 -17c-31.333 -14.667 -47 -35.667 -47 -63
c0 -20 8 -36.5 24 -49.5s34.333 -19.5 55 -19.5c24.667 0 78.334 15.333 161.001 46z" />
    <glyph glyph-name="afii62839" unicode="&#xfee0;&#xfe88;" horiz-adv-x="1143" arabic-form="final" 
d="M1143 1h-41.999c-63.333 0 -123.666 16.667 -180.999 50c-52 30 -90.667 67.333 -116 112c-106.667 -108 -258 -162 -454 -162c-78.667 -1.33301 -141.667 15.667 -189 51v124c47.333 1.33301 109.166 2 185.499 2s152.166 11.333 227.499 34l-421 794l130 85l410 -808
c58 53.333 87 143 87 269v606h154v-659c0 -102 -18 -178 -54 -228c62 -62 133.333 -93 214 -93h49v-177zM513.001 -336l-406.001 -138l-29 75l133 46c-32.667 32 -49 74.333 -49 127c0 44.667 22.667 80 68 106c37.333 21.333 80 32 128 32c19.333 0 39.333 -1.66699 60 -5
v-68c-14 2 -28 3 -42 3c-30.667 0 -58 -5.66699 -82 -17c-31.333 -14.667 -47 -35.667 -47 -63c0 -20 8 -36.5 24 -49.5s34.333 -19.5 55 -19.5c24.667 0 78.334 15.333 161.001 46z" />
    <glyph glyph-name="afii62840" unicode="&#xfedf;&#xfe8e;" horiz-adv-x="996" arabic-form="isolated" 
d="M948 489c0 -158 -59.333 -281.001 -178 -369.001c-106.667 -79.333 -242 -119 -406 -119c-70.667 0.666992 -129.667 18.667 -177 54v124c48.667 -10 111.667 -12.667 189 -8s148 18.334 212 41.001l-421 794l130 85l410 -808c58 53.333 87 143 87 269v606h154v-669z" />
    <glyph glyph-name="afii62841" unicode="&#xfee0;&#xfe8e;" horiz-adv-x="1143" arabic-form="final" 
d="M1143 1h-41.999c-63.333 0 -123.666 16.667 -180.999 50c-52 30 -90.667 67.333 -116 112c-106.667 -108 -258 -162 -454 -162c-78.667 -1.33301 -141.667 15.667 -189 51v124c47.333 1.33301 109.166 2 185.499 2s152.166 11.333 227.499 34l-421 794l130 85l410 -808
c58 53.333 87 143 87 269v606h154v-659c0 -102 -18 -178 -54 -228c62 -62 133.333 -93 214 -93h49v-177z" />
    <glyph glyph-name="uni0672.fina" unicode="&#x672;" horiz-adv-x="489" 
d="M571 0l-113 -0.000976562c-200.667 0.666992 -301 121.667 -301 363v797h168v-783c0 -67.333 9.66699 -115.666 29 -144.999c24 -36 67.333 -54 130 -54h87v-178zM306 1449c2.66699 1.33301 -1.99902 7.99902 -13.999 19.999s-24.667 20.333 -38 25
c-10 2.66699 -24 -0.833008 -42 -10.5s-29.667 -23.834 -35 -42.501c4.66699 -20.667 14.667 -35.5 30 -44.5s33.5 -14.5 54.5 -16.5s42.667 -1.16699 65 2.5s42.5 7.83398 60.5 12.501c8 2 10 -2.16699 6 -12.5s-10.333 -23.833 -19 -40.5
c-34.667 -25.333 -90.167 -40.666 -166.5 -45.999s-121.166 -23.666 -134.499 -54.999c-7.33301 -2.66699 -10.333 1.5 -9 12.5s3.33301 19.833 6 26.5c11.333 26 35.666 41.167 72.999 45.5s64 10.166 80 17.499c-16.667 0.666992 -36.167 6.83398 -58.5 18.501
s-31.5 33.834 -27.5 66.501c0.666992 25.333 7.83398 48.166 21.501 68.499s30.167 36 49.5 47s41.166 15.167 65.499 12.5s47.833 -14.667 70.5 -36c6.66699 -10.667 6.16699 -21.834 -1.5 -33.501s-19.834 -24.167 -36.501 -37.5z" />
    <glyph glyph-name="uni0673.fina" unicode="&#x673;" horiz-adv-x="571" 
d="M571 0l-113 -0.000976562c-200.667 0.666992 -301 121.667 -301 363v797h168v-783c0 -67.333 9.66699 -115.666 29 -144.999c24 -36 67.333 -54 130 -54h87v-178zM343 -208.001c2.66699 1.33301 -1.99902 7.99902 -13.999 19.999s-24.667 20.333 -38 25
c-10 2.66699 -24 -0.833008 -42 -10.5s-29.667 -23.834 -35 -42.501c4.66699 -20.667 14.667 -35.5 30 -44.5s33.5 -14.5 54.5 -16.5s42.667 -1.16699 65 2.5s42.5 7.83398 60.5 12.501c8 2 10 -2.16699 6 -12.5s-10.333 -23.833 -19 -40.5
c-34.667 -25.333 -90.167 -40.666 -166.5 -45.999s-121.166 -23.666 -134.499 -54.999c-7.33301 -2.66699 -10.333 1.5 -9 12.5s3.33301 19.833 6 26.5c11.333 26 35.666 41.167 72.999 45.5s64 10.166 80 17.499c-16.667 0.666992 -36.167 6.83398 -58.5 18.501
s-31.5 33.834 -27.5 66.501c0.666992 25.333 7.83398 48.166 21.501 68.499s30.167 36 49.5 47s41.166 15.167 65.499 12.5s47.833 -14.667 70.5 -36c6.66699 -10.667 6.16699 -21.834 -1.5 -33.501s-19.834 -24.167 -36.501 -37.5z" />
    <glyph glyph-name="uni0675.fina" unicode="&#x675;" horiz-adv-x="571" 
d="M571 0l-113 -0.000976562c-200.667 0.666992 -301 121.667 -301 363v797h168v-783c0 -67.333 9.66699 -115.666 29 -144.999c24 -36 67.333 -54 130 -54h87v-178zM444 1433l-406.001 -138l-29 75l133 46c-32.667 32 -49 74.333 -49 127c0 44.667 22.667 80 68 106
c37.333 21.333 80 32 128 32c19.333 0 39.333 -1.66699 60 -5v-68c-14 2 -28 3 -42 3c-30.667 0 -58 -5.66699 -82 -17c-31.333 -14.667 -47 -35.667 -47 -63c0 -20 8 -36.5 24 -49.5s34.333 -19.5 55 -19.5c24.667 0 78.334 15.333 161.001 46z" />
    <glyph glyph-name="uni0676.fina" unicode="&#x676;" horiz-adv-x="1060" 
d="M1060 0l-211.002 0.000976562c-56.667 -202 -298.667 -408 -726 -618l-78 134c350.667 166 568 328 652 486h-119c-87.333 0 -155.166 24 -203.499 72s-72.5 116 -72.5 204c0 64 23.667 118.667 71 164s103 68 167 68c64.667 0 126.334 -24 185.001 -72
c74 -60.667 118.333 -147.334 133 -260.001h202v-178zM707.998 175.001c-2 52 -23.999 96.334 -65.999 133.001c-35.333 31.333 -69 47 -101 47c-25.333 0 -49 -7.66699 -71 -23c-24 -16.667 -36 -37.334 -36 -62.001c0 -30 12 -54 36 -72
c21.333 -15.333 47.666 -23 78.999 -23h159zM711.999 797.002l-406.001 -138l-29 75l133 46c-32.667 32 -49 74.333 -49 127c0 44.667 22.667 80 68 106c37.333 21.333 80 32 128 32c19.333 0 39.333 -1.66699 60 -5v-68c-14 2 -28 3 -42 3c-30.667 0 -58 -5.66699 -82 -17
c-31.333 -14.667 -47 -35.667 -47 -63c0 -20 8 -36.5 24 -49.5s34.333 -19.5 55 -19.5c24.667 0 78.334 15.333 161.001 46z" />
    <glyph glyph-name="uni0677.fina" unicode="&#x677;" horiz-adv-x="1060" 
d="M1060 0l-211.002 0.000976562c-56.667 -202 -298.667 -408 -726 -618l-78 134c350.667 166 568 328 652 486h-119c-87.333 0 -155.166 24 -203.499 72s-72.5 116 -72.5 204c0 64 23.667 118.667 71 164s103 68 167 68c64.667 0 126.334 -24 185.001 -72
c74 -60.667 118.333 -147.334 133 -260.001h202v-178zM707.998 175.001c-2 52 -23.999 96.334 -65.999 133.001c-35.333 31.333 -69 47 -101 47c-25.333 0 -49 -7.66699 -71 -23c-24 -16.667 -36 -37.334 -36 -62.001c0 -30 12 -54 36 -72
c21.333 -15.333 47.666 -23 78.999 -23h159zM934.999 745.002l-406.001 -138l-29 75l133 46c-32.667 32 -49 74.333 -49 127c0 44.667 22.667 80 68 106c37.333 21.333 80 32 128 32c19.333 0 39.333 -1.66699 60 -5v-68c-14 2 -28 3 -42 3c-30.667 0 -58 -5.66699 -82 -17
c-31.333 -14.667 -47 -35.667 -47 -63c0 -20 8 -36.5 24 -49.5s34.333 -19.5 55 -19.5c24.667 0 78.334 15.333 161.001 46zM485.14 812.254c0 -69.3232 -42.8721 -114.129 -128.613 -134.419l-256.377 -65.0957l-15.2305 57.4873
c66.5615 16.3447 123.534 33.8164 170.918 52.415c-20.3076 25.9248 -30.4609 53.541 -30.4609 82.8486c0 33.8154 15.2305 63.4043 45.6914 88.7666c25.9482 21.9805 51.8965 32.9707 77.8447 32.9707c33.8457 0 64.5889 -10.4268 92.2285 -31.2793
c29.333 -23.1074 43.999 -51.0059 43.999 -83.6943zM414.063 802.955c0 15.7803 -6.06348 29.3047 -18.1914 40.5771s-26.0889 16.9082 -41.8828 16.9082c-16.3584 0 -30.6016 -5.63574 -42.7295 -16.9082s-18.1924 -24.7988 -18.1924 -40.5791
s6.06445 -29.4473 18.1924 -41.001s26.3711 -17.3311 42.7295 -17.3311c15.7939 0 29.7549 5.63574 41.8828 16.9082s18.1914 25.0811 18.1914 41.4258z" />
    <glyph glyph-name="uni0678.fina" unicode="&#x678;" horiz-adv-x="1447" 
d="M1447 0l-97.999 -0.000976562c36.667 -46 55 -92 55 -138c0 -86 -67.667 -171.333 -203 -256c-150 -94 -324 -141 -522 -141c-176.667 0 -311.334 52.333 -404.001 157c-78.667 88.667 -118 200.334 -118 335.001c0 111.333 11 198.333 33 261l131 -39
c-16 -70.667 -24 -128 -24 -172c0 -86.667 20.333 -160.667 61 -222c65.333 -98.667 175.333 -148 330 -148c94 0 188.667 14.333 284 43c110 33.333 193.333 79 250 137c15.333 15.333 23 30.333 23 45c0 24.667 -20.667 50 -62 76c-64 40 -202 73.667 -414 101l41 139h637
v-178zM827.001 517.999l-406.001 -138l-29 75l133 46c-32.667 32 -49 74.333 -49 127c0 44.667 22.667 80 68 106c37.333 21.333 80 32 128 32c19.333 0 39.333 -1.66699 60 -5v-68c-14 2 -28 3 -42 3c-30.667 0 -58 -5.66699 -82 -17c-31.333 -14.667 -47 -35.667 -47 -63
c0 -20 8 -36.5 24 -49.5s34.333 -19.5 55 -19.5c24.667 0 78.334 15.333 161.001 46z" />
    <glyph glyph-name="uni067C.init" unicode="&#x67c;" horiz-adv-x="449" 
d="M399 252c0 -63.333 -19.333 -118.334 -58 -165.001c-48 -57.333 -116.667 -86.333 -206 -87h-205v178h202c74.667 0 112 27.333 112 82c0 22.667 -8 48.334 -24 77.001l-92 163l129 91c52.667 -95.333 84.667 -155.333 96 -180c30.667 -66 46 -119 46 -159zM358 705.999
h-158v158h158v-158zM142 705.999h-158v158h158v-158zM376 -110.001c0 -44.667 -15.667 -82.835 -47 -114.502s-69.666 -47.5 -114.999 -47.5c-44 0 -82 16 -114 48s-48 70 -48 114c0 42.667 16.5 80.334 49.5 113.001s70.5 49 112.5 49c41.333 0 78.666 -16.667 111.999 -50
s50 -70.666 50 -111.999zM297 -107.002c0 23.333 -8.5 42.5 -25.5 57.5s-37.167 22.5 -60.5 22.5c-20.667 0 -39.167 -8.5 -55.5 -25.5s-24.5 -36.167 -24.5 -57.5c0 -55.333 27.667 -83 83 -83s83 28.667 83 86z" />
    <glyph glyph-name="uni067C.medi" unicode="&#x67c;" horiz-adv-x="538" 
d="M538 0l-25 -0.000976562c-104 0 -178.333 38 -223 114c-46 -76 -115 -114 -207 -114h-153v178h113c62 -0.666992 101.333 12 118 38c11.333 18 17 58.667 17 122v212h154v-164c0 -85.333 15.667 -142.666 47 -171.999c26 -24 73.667 -36 143 -36h16v-178zM418 713.999
h-158v158h158v-158zM202 713.999h-158v158h158v-158zM320 -119.001c0 -44.667 -15.667 -82.835 -47 -114.502s-69.666 -47.5 -114.999 -47.5c-44 0 -82 16 -114 48s-48 70 -48 114c0 42.667 16.5 80.334 49.5 113.001s70.5 49 112.5 49c41.333 0 78.666 -16.667 111.999 -50
s50 -70.666 50 -111.999zM241 -116.002c0 23.333 -8.5 42.5 -25.5 57.5s-37.167 22.5 -60.5 22.5c-20.667 0 -39.167 -8.5 -55.5 -25.5s-24.5 -36.167 -24.5 -57.5c0 -55.333 27.667 -83 83 -83s83 28.667 83 86z" />
    <glyph glyph-name="uni067C.fina" unicode="&#x67c;" horiz-adv-x="1923" 
d="M1923 0h-62.999c-114 0.666992 -202.333 44.667 -265 132c-45.333 -87.333 -123.333 -131 -234 -131h-914c-86.667 0 -156.667 28.5 -210 85.5s-80 129.167 -80 216.5v71h149v-34c0 -108 52 -162 156 -162h883c82.667 0 124 23.667 124 71c0 24 -11 55.667 -33 95
l-83 149l130 86l90 -169c40 -75.333 75.667 -128 107 -158c51.333 -49.333 112.666 -74 183.999 -74h59v-178zM1055 661h-158v158h158v-158zM839.001 661h-158v158h158v-158zM1046 -94c0 -44.667 -15.667 -82.835 -47 -114.502s-69.666 -47.5 -114.999 -47.5
c-44 0 -82 16 -114 48s-48 70 -48 114c0 42.667 16.5 80.334 49.5 113.001s70.5 49 112.5 49c41.333 0 78.666 -16.667 111.999 -50s50 -70.666 50 -111.999zM967.001 -91.001c0 23.333 -8.5 42.5 -25.5 57.5s-37.167 22.5 -60.5 22.5c-20.667 0 -39.167 -8.5 -55.5 -25.5
s-24.5 -36.167 -24.5 -57.5c0 -55.333 27.667 -83 83 -83s83 28.667 83 86z" />
    <glyph glyph-name="uni067D.init" unicode="&#x67d;" horiz-adv-x="449" 
d="M399 252c0 -63.333 -19.333 -118.334 -58 -165.001c-48 -57.333 -116.667 -86.333 -206 -87h-205v178h202c74.667 0 112 27.333 112 82c0 22.667 -8 48.334 -24 77.001l-92 163l129 91c52.667 -95.333 84.667 -155.333 96 -180c30.667 -66 46 -119 46 -159zM360 909.999
h-159v158h159v-158zM143 909.999h-157v158h157v-158zM251 706.999h-159v158h159v-158z" />
    <glyph glyph-name="uni067D.medi" unicode="&#x67d;" horiz-adv-x="538" 
d="M538 0l-25 -0.000976562c-104 0 -178.333 38 -223 114c-46 -76 -115 -114 -207 -114h-153v178h113c62 -0.666992 101.333 12 118 38c11.333 18 17 58.667 17 122v212h154v-164c0 -85.333 15.667 -142.666 47 -171.999c26 -24 73.667 -36 143 -36h16v-178zM437 900.999
h-159v158h159v-158zM220 900.999h-157v158h157v-158zM328 697.999h-159v158h159v-158z" />
    <glyph glyph-name="uni067D.fina" unicode="&#x67d;" horiz-adv-x="1923" 
d="M1923 0h-62.999c-114 0.666992 -202.333 44.667 -265 132c-45.333 -87.333 -123.333 -131 -234 -131h-914c-86.667 0 -156.667 28.5 -210 85.5s-80 129.167 -80 216.5v71h149v-34c0 -108 52 -162 156 -162h883c82.667 0 124 23.667 124 71c0 24 -11 55.667 -33 95
l-83 149l130 86l90 -169c40 -75.333 75.667 -128 107 -158c51.333 -49.333 112.666 -74 183.999 -74h59v-178zM1038 795h-159v158h159v-158zM821.001 795h-157v158h157v-158zM929.001 592h-159v158h159v-158z" />
    <glyph glyph-name="uni0681.init" unicode="&#x681;" horiz-adv-x="949" 
d="M907 117l-83 -117h-894v178h710l-289 255c-43.333 46.667 -93 70 -149 70h-114v152h148c64 0 123.667 -26 179 -78zM488 988l-406.001 -138l-29 75l133 46c-32.667 32 -49 74.333 -49 127c0 44.667 22.667 80 68 106c37.333 21.333 80 32 128 32
c19.333 0 39.333 -1.66699 60 -5v-68c-14 2 -28 3 -42 3c-30.667 0 -58 -5.66699 -82 -17c-31.333 -14.667 -47 -35.667 -47 -63c0 -20 8 -36.5 24 -49.5s34.333 -19.5 55 -19.5c24.667 0 78.334 15.333 161.001 46z" />
    <glyph glyph-name="uni0681.medi" unicode="&#x681;" horiz-adv-x="1230" 
d="M1230 0l-113.999 -0.000976562c-152 0.666992 -279 100.334 -381 299.001c-144.667 -123.333 -256 -204.666 -334 -243.999c-73.333 -36 -157 -54.333 -251 -55h-220v178h131c103.333 0 190 12 260 36c28 9.33301 60.167 24.166 96.5 44.499s76.833 45.833 121.5 76.5
l103 73.5l103 75.5c-120 5.33301 -217.5 9.33301 -292.5 12s-127.833 4 -158.5 4c-60.667 0 -116.334 -19.333 -167.001 -58l-58 117c72.667 60 150.667 90 234 90h16l790 -36v-145c-105.333 0 -201.333 -34.333 -288 -103c48.667 -61.333 89.667 -103.333 123 -126
c57.333 -40.667 126.333 -61 207 -61h79v-178zM807.001 953.999l-406.001 -138l-29 75l133 46c-32.667 32 -49 74.333 -49 127c0 44.667 22.667 80 68 106c37.333 21.333 80 32 128 32c19.333 0 39.333 -1.66699 60 -5v-68c-14 2 -28 3 -42 3
c-30.667 0 -58 -5.66699 -82 -17c-31.333 -14.667 -47 -35.667 -47 -63c0 -20 8 -36.5 24 -49.5s34.333 -19.5 55 -19.5c24.667 0 78.334 15.333 161.001 46z" />
    <glyph glyph-name="uni0681.fina" unicode="&#x681;" horiz-adv-x="1327" 
d="M1327 0l-143.001 -0.00488281c-116 0.666992 -203.667 26.334 -263 77.001c-44.667 36.667 -97.667 114.334 -159 233.001c-111.333 -52.667 -208.666 -119.667 -291.999 -201c-114 -112 -171 -227.333 -171 -346c0 -48.667 11.5 -93.667 34.5 -135
s55.167 -77.166 96.5 -107.499s90.5 -54 147.5 -71s119.167 -25.5 186.5 -25.5c152.667 0 301.667 31.333 447 94l66 -132c-176 -81.333 -348.333 -122 -517 -122c-94 0 -178.333 11.667 -253 35s-138 57.333 -190 102s-91.667 99.667 -119 165s-41 140.333 -41 225
c0 162.667 91.667 316 275 460c96 74.667 236 156.667 420 246c-115.333 7.33301 -206.333 12.833 -273 16.5s-109.667 5.5 -129 5.5c-66 0 -127.667 -20.667 -185 -62l-55 122c72 56 152 84 240 84h22l760 -37v-152c-48.667 0 -112 -12 -190 -36
c-80.667 -25.333 -139.667 -51.666 -177 -78.999c20 -30.667 39.333 -56.667 58 -78s36.667 -37.666 54 -48.999c52.667 -36 126 -54 220 -54h130v-178zM911.999 1006l-406.001 -138l-29 75l133 46c-32.667 32 -49 74.333 -49 127c0 44.667 22.667 80 68 106
c37.333 21.333 80 32 128 32c19.333 0 39.333 -1.66699 60 -5v-68c-14 2 -28 3 -42 3c-30.667 0 -58 -5.66699 -82 -17c-31.333 -14.667 -47 -35.667 -47 -63c0 -20 8 -36.5 24 -49.5s34.333 -19.5 55 -19.5c24.667 0 78.334 15.333 161.001 46z" />
    <glyph glyph-name="uni0682.init" unicode="&#x682;" horiz-adv-x="949" 
d="M907 117l-83 -117h-894v178h710l-289 255c-43.333 46.667 -93 70 -149 70h-114v152h148c64 0 123.667 -26 179 -78zM200 984l98 -98l-111 -111l-110 111l98 98l-98 98l110 111l111 -111z" />
    <glyph glyph-name="uni0682.medi" unicode="&#x682;" horiz-adv-x="1230" 
d="M1230 0l-113.999 -0.000976562c-152 0.666992 -279 100.334 -381 299.001c-144.667 -123.333 -256 -204.666 -334 -243.999c-73.333 -36 -157 -54.333 -251 -55h-220v178h131c103.333 0 190 12 260 36c28 9.33301 60.167 24.166 96.5 44.499s76.833 45.833 121.5 76.5
l103 73.5l103 75.5c-120 5.33301 -217.5 9.33301 -292.5 12s-127.833 4 -158.5 4c-60.667 0 -116.334 -19.333 -167.001 -58l-58 117c72.667 60 150.667 90 234 90h16l790 -36v-145c-105.333 0 -201.333 -34.333 -288 -103c48.667 -61.333 89.667 -103.333 123 -126
c57.333 -40.667 126.333 -61 207 -61h79v-178zM518.001 993.999l98 -98l-111 -111l-110 111l98 98l-98 98l110 111l111 -111z" />
    <glyph glyph-name="uni0682.fina" unicode="&#x682;" horiz-adv-x="1327" 
d="M1327 0l-143.001 -0.00488281c-116 0.666992 -203.667 26.334 -263 77.001c-44.667 36.667 -97.667 114.334 -159 233.001c-111.333 -52.667 -208.666 -119.667 -291.999 -201c-114 -112 -171 -227.333 -171 -346c0 -48.667 11.5 -93.667 34.5 -135
s55.167 -77.166 96.5 -107.499s90.5 -54 147.5 -71s119.167 -25.5 186.5 -25.5c152.667 0 301.667 31.333 447 94l66 -132c-176 -81.333 -348.333 -122 -517 -122c-94 0 -178.333 11.667 -253 35s-138 57.333 -190 102s-91.667 99.667 -119 165s-41 140.333 -41 225
c0 162.667 91.667 316 275 460c96 74.667 236 156.667 420 246c-115.333 7.33301 -206.333 12.833 -273 16.5s-109.667 5.5 -129 5.5c-66 0 -127.667 -20.667 -185 -62l-55 122c72 56 152 84 240 84h22l760 -37v-152c-48.667 0 -112 -12 -190 -36
c-80.667 -25.333 -139.667 -51.666 -177 -78.999c20 -30.667 39.333 -56.667 58 -78s36.667 -37.666 54 -48.999c52.667 -36 126 -54 220 -54h130v-178zM687.999 1024l98 -98l-111 -111l-110 111l98 98l-98 98l110 111l111 -111z" />
    <glyph glyph-name="uni0685.init" unicode="&#x685;" horiz-adv-x="949" 
d="M907 117l-83 -117h-894v178h710l-289 255c-43.333 46.667 -93 70 -149 70h-114v152h148c64 0 123.667 -26 179 -78zM344 1008h-159v158h159v-158zM451 805h-158v158h158v-158zM235 805h-158v158h158v-158z" />
    <glyph glyph-name="uni0685.medi" unicode="&#x685;" horiz-adv-x="1230" 
d="M1230 0l-113.999 -0.000976562c-152 0.666992 -279 100.334 -381 299.001c-144.667 -123.333 -256 -204.666 -334 -243.999c-73.333 -36 -157 -54.333 -251 -55h-220v178h131c103.333 0 190 12 260 36c28 9.33301 60.167 24.166 96.5 44.499s76.833 45.833 121.5 76.5
l103 73.5l103 75.5c-120 5.33301 -217.5 9.33301 -292.5 12s-127.833 4 -158.5 4c-60.667 0 -116.334 -19.333 -167.001 -58l-58 117c72.667 60 150.667 90 234 90h16l790 -36v-145c-105.333 0 -201.333 -34.333 -288 -103c48.667 -61.333 89.667 -103.333 123 -126
c57.333 -40.667 126.333 -61 207 -61h79v-178zM547.001 1010h-159v158h159v-158zM654.001 806.999h-158v158h158v-158zM438.001 806.999h-158v158h158v-158z" />
    <glyph glyph-name="uni0685.fina" unicode="&#x685;" horiz-adv-x="1327" 
d="M1327 0l-143.001 -0.00488281c-116 0.666992 -203.667 26.334 -263 77.001c-44.667 36.667 -97.667 114.334 -159 233.001c-111.333 -52.667 -208.666 -119.667 -291.999 -201c-114 -112 -171 -227.333 -171 -346c0 -48.667 11.5 -93.667 34.5 -135
s55.167 -77.166 96.5 -107.499s90.5 -54 147.5 -71s119.167 -25.5 186.5 -25.5c152.667 0 301.667 31.333 447 94l66 -132c-176 -81.333 -348.333 -122 -517 -122c-94 0 -178.333 11.667 -253 35s-138 57.333 -190 102s-91.667 99.667 -119 165s-41 140.333 -41 225
c0 162.667 91.667 316 275 460c96 74.667 236 156.667 420 246c-115.333 7.33301 -206.333 12.833 -273 16.5s-109.667 5.5 -129 5.5c-66 0 -127.667 -20.667 -185 -62l-55 122c72 56 152 84 240 84h22l760 -37v-152c-48.667 0 -112 -12 -190 -36
c-80.667 -25.333 -139.667 -51.666 -177 -78.999c20 -30.667 39.333 -56.667 58 -78s36.667 -37.666 54 -48.999c52.667 -36 126 -54 220 -54h130v-178zM733.999 1047h-159v158h159v-158zM840.999 843.995h-158v158h158v-158zM624.999 843.995h-158v158h158v-158z" />
    <glyph glyph-name="uni0689.fina" unicode="&#x689;" horiz-adv-x="1312" 
d="M1312 0h-28.001c-123.333 0.666992 -220.666 46.667 -291.999 138c-32.667 -91.333 -120.334 -137 -263.001 -137h-298c-62.667 0 -120.667 13.333 -174 40c-60 29.333 -102.667 70 -128 122l98 104c52 -59.333 105.333 -89 160 -89h346c83.333 0 125 24 125 72
c0 18.667 -8 43.667 -24 75l-228 443l134 86l229 -450c40.667 -80 83 -136.333 127 -169c50.667 -38 117.334 -57 200.001 -57h16v-178zM626.999 -121c0 -44.667 -15.667 -82.835 -47 -114.502s-69.666 -47.5 -114.999 -47.5c-44 0 -82 16 -114 48s-48 70 -48 114
c0 42.667 16.5 80.334 49.5 113.001s70.5 49 112.5 49c41.333 0 78.666 -16.667 111.999 -50s50 -70.666 50 -111.999zM547.999 -118.001c0 23.333 -8.5 42.5 -25.5 57.5s-37.167 22.5 -60.5 22.5c-20.667 0 -39.167 -8.5 -55.5 -25.5s-24.5 -36.167 -24.5 -57.5
c0 -55.333 27.667 -83 83 -83s83 28.667 83 86z" />
    <glyph glyph-name="uni068A.fina" unicode="&#x68a;" horiz-adv-x="1312" 
d="M1312 0h-28.001c-123.333 0.666992 -220.666 46.667 -291.999 138c-32.667 -91.333 -120.334 -137 -263.001 -137h-298c-62.667 0 -120.667 13.333 -174 40c-60 29.333 -102.667 70 -128 122l98 104c52 -59.333 105.333 -89 160 -89h346c83.333 0 125 24 125 72
c0 18.667 -8 43.667 -24 75l-228 443l134 86l229 -450c40.667 -80 83 -136.333 127 -169c50.667 -38 117.334 -57 200.001 -57h16v-178zM426.999 -365h-159v158h159v-158z" />
    <glyph glyph-name="uni068b.fina" unicode="&#x68b;" horiz-adv-x="1312" 
d="M1312 0h-28.001c-123.333 0.666992 -220.666 46.667 -291.999 138c-32.667 -91.333 -120.334 -137 -263.001 -137h-298c-62.667 0 -120.667 13.333 -174 40c-60 29.333 -102.667 70 -128 122l98 104c52 -59.333 105.333 -89 160 -89h346c83.333 0 125 24 125 72
c0 18.667 -8 43.667 -24 75l-228 443l134 86l229 -450c40.667 -80 83 -136.333 127 -169c50.667 -38 117.334 -57 200.001 -57h16v-178zM873.999 1121c0 -39.333 -13.668 -69.667 -41.001 -91c-22 -17.333 -49 -26 -81 -26h-222c-26.667 0 -48.667 6.33301 -66 19v37h74
c14 0 23.667 4.66699 29 14c3.33301 8 5 20 5 36v261h44v-254c18.667 23.333 40.334 43.333 65.001 60c34 23.333 66 35 96 35c26 0 48.667 -8.66699 68 -26s29 -39 29 -65zM825.998 1118c0 13.333 -5 23.999 -15 31.999s-22 12 -36 12c-50 0 -105 -34 -165 -102h146
c18.667 0 34.667 4.66699 48 14c14.667 10.667 22 25.334 22 44.001zM440.998 -364.002h-159v158h159v-158z" />
    <glyph glyph-name="uni068F.fina" unicode="&#x68f;" horiz-adv-x="1312" 
d="M1312 0h-28.001c-123.333 0.666992 -220.666 46.667 -291.999 138c-32.667 -91.333 -120.334 -137 -263.001 -137h-298c-62.667 0 -120.667 13.333 -174 40c-60 29.333 -102.667 70 -128 122l98 104c52 -59.333 105.333 -89 160 -89h346c83.333 0 125 24 125 72
c0 18.667 -8 43.667 -24 75l-228 443l134 86l229 -450c40.667 -80 83 -136.333 127 -169c50.667 -38 117.334 -57 200.001 -57h16v-178zM857.999 1207h-159v158h159v-158zM640.999 1207h-157v158h157v-158zM748.999 1004h-159v158h159v-158z" />
    <glyph glyph-name="uni0690.fina" unicode="&#x690;" horiz-adv-x="1312" 
d="M1312 0h-28.001c-123.333 0.666992 -220.666 46.667 -291.999 138c-32.667 -91.333 -120.334 -137 -263.001 -137h-298c-62.667 0 -120.667 13.333 -174 40c-60 29.333 -102.667 70 -128 122l98 104c52 -59.333 105.333 -89 160 -89h346c83.333 0 125 24 125 72
c0 18.667 -8 43.667 -24 75l-228 443l134 86l229 -450c40.667 -80 83 -136.333 127 -169c50.667 -38 117.334 -57 200.001 -57h16v-178zM763.999 1131l-98 98l98 99l99 -99zM563.999 1131l-98 98l98 99l99 -99zM660.999 1301l-98 98l98 99l99 -99zM660.999 961l-98 98l98 99
l99 -99z" />
    <glyph glyph-name="uni0692.fina" unicode="&#x692;" horiz-adv-x="1154" 
d="M1154 0l-63.001 -0.000976562c-90 0.666992 -163.667 35 -221 103c-6.66699 -40 -26.667 -85 -60 -135c-105.333 -156.667 -334.666 -327 -687.999 -511l-75 140c328 174 541 332.333 639 475c29.333 42.667 44 82.334 44 119.001c0 36 -11.333 74.333 -34 115l-102 183
l137 86l117 -224c60 -115.333 144 -173 252 -173h54v-178zM848.999 1041c-12 -9.33301 -25.167 -24.668 -39.5 -46.001s-28.666 -46.333 -42.999 -75s-27.833 -60.167 -40.5 -94.5s-23.334 -69.166 -32.001 -104.499h-54c-9.33301 36 -20.666 71.167 -33.999 105.5
s-27 65.833 -41 94.5s-28 53.5 -42 74.5s-26.667 36.167 -38 45.5l105 2c17.333 -25.333 32.166 -56.333 44.499 -93s22.833 -75 31.5 -115c8.66699 40 19.5 78.333 32.5 115s28.167 67.667 45.5 93z" />
    <glyph glyph-name="uni0693.fina" unicode="&#x693;" horiz-adv-x="1154" 
d="M1154 0l-63.001 -0.000976562c-90 0.666992 -163.667 35 -221 103c-6.66699 -40 -26.667 -85 -60 -135c-105.333 -156.667 -334.666 -327 -687.999 -511l-75 140c328 174 541 332.333 639 475c29.333 42.667 44 82.334 44 119.001c0 36 -11.333 74.333 -34 115l-102 183
l137 86l117 -224c60 -115.333 144 -173 252 -173h54v-178zM498.999 -574.001c0 -44.667 -15.667 -82.835 -47 -114.502s-69.666 -47.5 -114.999 -47.5c-44 0 -82 16 -114 48s-48 70 -48 114c0 42.667 16.5 80.334 49.5 113.001s70.5 49 112.5 49
c41.333 0 78.666 -16.667 111.999 -50s50 -70.666 50 -111.999zM419.999 -571.002c0 23.333 -8.5 42.5 -25.5 57.5s-37.167 22.5 -60.5 22.5c-20.667 0 -39.167 -8.5 -55.5 -25.5s-24.5 -36.167 -24.5 -57.5c0 -55.333 27.667 -83 83 -83s83 28.667 83 86z" />
    <glyph glyph-name="uni0694.fina" unicode="&#x694;" horiz-adv-x="1154" 
d="M1154 0l-63.001 -0.000976562c-90 0.666992 -163.667 35 -221 103c-6.66699 -40 -26.667 -85 -60 -135c-105.333 -156.667 -334.666 -327 -687.999 -511l-75 140c328 174 541 332.333 639 475c29.333 42.667 44 82.334 44 119.001c0 36 -11.333 74.333 -34 115l-102 183
l137 86l117 -224c60 -115.333 144 -173 252 -173h54v-178zM251.999 -790.001h-159v158h159v-158z" />
    <glyph glyph-name="uni0695.fina" unicode="&#x695;" horiz-adv-x="1154" 
d="M1154 0l-63.001 -0.000976562c-90 0.666992 -163.667 35 -221 103c-6.66699 -40 -26.667 -85 -60 -135c-105.333 -156.667 -334.666 -327 -687.999 -511l-75 140c328 174 541 332.333 639 475c29.333 42.667 44 82.334 44 119.001c0 36 -11.333 74.333 -34 115l-102 183
l137 86l117 -224c60 -115.333 144 -173 252 -173h54v-178zM401.999 -625.001c-12 -9.33301 -25.167 -24.668 -39.5 -46.001s-28.666 -46.333 -42.999 -75s-27.833 -60.167 -40.5 -94.5s-23.334 -69.166 -32.001 -104.499h-54c-9.33301 36 -20.666 71.167 -33.999 105.5
s-27 65.833 -41 94.5s-28 53.5 -42 74.5s-26.667 36.167 -38 45.5l105 2c17.333 -25.333 32.166 -56.333 44.499 -93s22.833 -75 31.5 -115c8.66699 40 19.5 78.333 32.5 115s28.167 67.667 45.5 93z" />
    <glyph glyph-name="uni0696.fina" unicode="&#x696;" horiz-adv-x="1154" 
d="M1154 0l-63.001 -0.000976562c-90 0.666992 -163.667 35 -221 103c-6.66699 -40 -26.667 -85 -60 -135c-105.333 -156.667 -334.666 -327 -687.999 -511l-75 140c328 174 541 332.333 639 475c29.333 42.667 44 82.334 44 119.001c0 36 -11.333 74.333 -34 115l-102 183
l137 86l117 -224c60 -115.333 144 -173 252 -173h54v-178zM430.999 -757.001h-159v158h159v-158zM262.999 -181.001h-159v158h159v-158z" />
    <glyph glyph-name="uni0697.fina" unicode="&#x697;" horiz-adv-x="1154" 
d="M1154 0l-63.001 -0.000976562c-90 0.666992 -163.667 35 -221 103c-6.66699 -40 -26.667 -85 -60 -135c-105.333 -156.667 -334.666 -327 -687.999 -511l-75 140c328 174 541 332.333 639 475c29.333 42.667 44 82.334 44 119.001c0 36 -11.333 74.333 -34 115l-102 183
l137 86l117 -224c60 -115.333 144 -173 252 -173h54v-178zM798.999 696.999h-158v158h158v-158zM582.999 696.999h-158v158h158v-158z" />
    <glyph glyph-name="uni0699.fina" unicode="&#x699;" horiz-adv-x="1154" 
d="M1154 0l-63.001 -0.000976562c-90 0.666992 -163.667 35 -221 103c-6.66699 -40 -26.667 -85 -60 -135c-105.333 -156.667 -334.666 -327 -687.999 -511l-75 140c328 174 541 332.333 639 475c29.333 42.667 44 82.334 44 119.001c0 36 -11.333 74.333 -34 115l-102 183
l137 86l117 -224c60 -115.333 144 -173 252 -173h54v-178zM707.999 834.999l-98 98l98 99l99 -99zM507.999 834.999l-98 98l98 99l99 -99zM604.999 1005l-98 98l98 99l99 -99zM604.999 664.999l-98 98l98 99l99 -99z" />
    <glyph glyph-name="uni069A.init" unicode="&#x69a;" horiz-adv-x="1192" 
d="M1158 240c0 -76 -25.166 -138.331 -75.499 -186.998s-113.833 -73 -190.5 -73c-110.667 0 -189 41.667 -235 125c-54.667 -76 -113.334 -114 -176.001 -114c-97.333 0 -167 41.333 -209 124c-26.667 -46.667 -61.667 -78.334 -105 -95.001
c-32.667 -12.667 -79.334 -19.334 -140.001 -20.001h-97v178h116c50.667 0 86 11.667 106 35c18 21.333 27 58 27 110v213h139l1 -86c2 -190 57.333 -285 166 -285c33.333 0 55.333 18.333 66 55c6.66699 23.333 10 72 10 146v170h141v-130c0 -66 15 -122.667 45 -170
c34.667 -54.667 83.334 -82 146.001 -82c71.333 0 107 29.667 107 89c0 38 -35.333 116.667 -106 236l125 87c92.667 -163.333 139 -272 139 -326zM693.001 702.002h-159v158h159v-158zM703.001 -361.998h-159v158h159v-158z" />
    <glyph glyph-name="uni069A.medi" unicode="&#x69a;" horiz-adv-x="1296" 
d="M1296 0h-29.002c-42 0 -83.667 10.667 -125 32c-44 22 -75 50.667 -93 86c-47.333 -83.333 -111.666 -125 -192.999 -125c-87.333 0 -151.666 41.333 -192.999 124c-48 -83.333 -108.667 -125 -182 -125c-94.667 0 -163.667 41.667 -207 125
c-38.667 -77.333 -102 -116.333 -190 -117h-154v178h144c70 0 105 31.667 105 95v270h145v-77c0 -198 51.667 -297 155 -297c50 0 75 34.667 75 104v270h144v-77c0 -198 54.667 -297 164 -297c54 0 81 34.667 81 104v271h144v-167c0 -132.667 51.667 -199 155 -199h54v-178z
M699.998 728h-159v158h159v-158zM692.998 -339h-159v158h159v-158z" />
    <glyph glyph-name="uni069A.fina" unicode="&#x69a;" horiz-adv-x="2252" 
d="M2252 0l-28 -0.00195312c-42 0 -84 10.667 -126 32c-44.667 22.667 -76.334 51.334 -95.001 86.001c-47.333 -83.333 -111 -125 -191 -125c-92.667 0 -160 41.333 -202 124c-43.333 -77.333 -100.666 -116 -171.999 -116c-52.667 0 -101 14 -145 42
c0 -135.333 -19.333 -238.333 -58 -309c-50.667 -92.667 -129.334 -165.667 -236.001 -219c-98.667 -49.333 -204 -74 -316 -74c-180 0 -319.333 49 -418 147c-86.667 86 -130 195 -130 327c0 119.333 26 234 78 344l129 -39c-38 -112 -57 -204.667 -57 -278
c0 -121.333 47.333 -210.666 142 -267.999c68.667 -41.333 150.334 -62 245.001 -62c119.333 0 223 27 311 81c104 63.333 156 151 156 263c0 16.667 -2 36.334 -6 59.001c-22 124 -74.333 256.667 -157 398l133 84c60.667 -108.667 100.334 -175.667 119.001 -201
c60 -81.333 119 -122 177 -122c39.333 0 66.666 6.66699 81.999 20s23 39.666 23 78.999v270h144v-77c0 -198 54.667 -297 164 -297c54 0 81 34.667 81 104v271h145v-167c0 -132.667 51.667 -199 155 -199h53v-178zM1692 783.998h-159v158h159v-158zM1691 -395.002h-159v158
h159v-158z" />
    <glyph glyph-name="uni069B.init" unicode="&#x69b;" horiz-adv-x="1192" 
d="M1158 240c0 -76 -25.166 -138.331 -75.499 -186.998s-113.833 -73 -190.5 -73c-110.667 0 -189 41.667 -235 125c-54.667 -76 -113.334 -114 -176.001 -114c-97.333 0 -167 41.333 -209 124c-26.667 -46.667 -61.667 -78.334 -105 -95.001
c-32.667 -12.667 -79.334 -19.334 -140.001 -20.001h-97v178h116c50.667 0 86 11.667 106 35c18 21.333 27 58 27 110v213h139l1 -86c2 -190 57.333 -285 166 -285c33.333 0 55.333 18.333 66 55c6.66699 23.333 10 72 10 146v170h141v-130c0 -66 15 -122.667 45 -170
c34.667 -54.667 83.334 -82 146.001 -82c71.333 0 107 29.667 107 89c0 38 -35.333 116.667 -106 236l125 87c92.667 -163.333 139 -272 139 -326zM813.001 -368.998h-159v158h159v-158zM596.001 -368.998h-157v158h157v-158zM704.001 -571.998h-159v158h159v-158z" />
    <glyph glyph-name="uni069B.medi" unicode="&#x69b;" horiz-adv-x="1296" 
d="M1296 0h-29.002c-42 0 -83.667 10.667 -125 32c-44 22 -75 50.667 -93 86c-47.333 -83.333 -111.666 -125 -192.999 -125c-87.333 0 -151.666 41.333 -192.999 124c-48 -83.333 -108.667 -125 -182 -125c-94.667 0 -163.667 41.667 -207 125
c-38.667 -77.333 -102 -116.333 -190 -117h-154v178h144c70 0 105 31.667 105 95v270h145v-77c0 -198 51.667 -297 155 -297c50 0 75 34.667 75 104v270h144v-77c0 -198 54.667 -297 164 -297c54 0 81 34.667 81 104v271h144v-167c0 -132.667 51.667 -199 155 -199h54v-178z
M812.998 -396h-159v158h159v-158zM595.998 -396h-157v158h157v-158zM703.998 -599h-159v158h159v-158z" />
    <glyph glyph-name="uni069B.fina" unicode="&#x69b;" horiz-adv-x="2252" 
d="M2252 0l-28 -0.00195312c-42 0 -84 10.667 -126 32c-44.667 22.667 -76.334 51.334 -95.001 86.001c-47.333 -83.333 -111 -125 -191 -125c-92.667 0 -160 41.333 -202 124c-43.333 -77.333 -100.666 -116 -171.999 -116c-52.667 0 -101 14 -145 42
c0 -135.333 -19.333 -238.333 -58 -309c-50.667 -92.667 -129.334 -165.667 -236.001 -219c-98.667 -49.333 -204 -74 -316 -74c-180 0 -319.333 49 -418 147c-86.667 86 -130 195 -130 327c0 119.333 26 234 78 344l129 -39c-38 -112 -57 -204.667 -57 -278
c0 -121.333 47.333 -210.666 142 -267.999c68.667 -41.333 150.334 -62 245.001 -62c119.333 0 223 27 311 81c104 63.333 156 151 156 263c0 16.667 -2 36.334 -6 59.001c-22 124 -74.333 256.667 -157 398l133 84c60.667 -108.667 100.334 -175.667 119.001 -201
c60 -81.333 119 -122 177 -122c39.333 0 66.666 6.66699 81.999 20s23 39.666 23 78.999v270h144v-77c0 -198 54.667 -297 164 -297c54 0 81 34.667 81 104v271h145v-167c0 -132.667 51.667 -199 155 -199h53v-178zM1857 -405.002h-159v158h159v-158zM1640 -405.002h-157
v158h157v-158zM1748 -608.002h-159v158h159v-158z" />
    <glyph glyph-name="uni069C.init" unicode="&#x69c;" horiz-adv-x="1192" 
d="M1158 240c0 -76 -25.166 -138.331 -75.499 -186.998s-113.833 -73 -190.5 -73c-110.667 0 -189 41.667 -235 125c-54.667 -76 -113.334 -114 -176.001 -114c-97.333 0 -167 41.333 -209 124c-26.667 -46.667 -61.667 -78.334 -105 -95.001
c-32.667 -12.667 -79.334 -19.334 -140.001 -20.001h-97v178h116c50.667 0 86 11.667 106 35c18 21.333 27 58 27 110v213h139l1 -86c2 -190 57.333 -285 166 -285c33.333 0 55.333 18.333 66 55c6.66699 23.333 10 72 10 146v170h141v-130c0 -66 15 -122.667 45 -170
c34.667 -54.667 83.334 -82 146.001 -82c71.333 0 107 29.667 107 89c0 38 -35.333 116.667 -106 236l125 87c92.667 -163.333 139 -272 139 -326zM816.001 -371.998h-159v158h159v-158zM599.001 -371.998h-157v158h157v-158zM707.001 -574.998h-159v158h159v-158z
M702.001 933.002h-159v158h159v-158zM809.001 730.002h-158v158h158v-158zM593.001 730.002h-158v158h158v-158z" />
    <glyph glyph-name="uni069C.medi" unicode="&#x69c;" horiz-adv-x="1296" 
d="M1296 0h-29.002c-42 0 -83.667 10.667 -125 32c-44 22 -75 50.667 -93 86c-47.333 -83.333 -111.666 -125 -192.999 -125c-87.333 0 -151.666 41.333 -192.999 124c-48 -83.333 -108.667 -125 -182 -125c-94.667 0 -163.667 41.667 -207 125
c-38.667 -77.333 -102 -116.333 -190 -117h-154v178h144c70 0 105 31.667 105 95v270h145v-77c0 -198 51.667 -297 155 -297c50 0 75 34.667 75 104v270h144v-77c0 -198 54.667 -297 164 -297c54 0 81 34.667 81 104v271h144v-167c0 -132.667 51.667 -199 155 -199h54v-178z
M791.998 -367h-159v158h159v-158zM574.998 -367h-157v158h157v-158zM682.998 -570h-159v158h159v-158zM677.998 934h-159v158h159v-158zM784.998 731h-158v158h158v-158zM568.998 731h-158v158h158v-158z" />
    <glyph glyph-name="uni069C.fina" unicode="&#x69c;" horiz-adv-x="2252" 
d="M2252 0l-28 -0.00195312c-42 0 -84 10.667 -126 32c-44.667 22.667 -76.334 51.334 -95.001 86.001c-47.333 -83.333 -111 -125 -191 -125c-92.667 0 -160 41.333 -202 124c-43.333 -77.333 -100.666 -116 -171.999 -116c-52.667 0 -101 14 -145 42
c0 -135.333 -19.333 -238.333 -58 -309c-50.667 -92.667 -129.334 -165.667 -236.001 -219c-98.667 -49.333 -204 -74 -316 -74c-180 0 -319.333 49 -418 147c-86.667 86 -130 195 -130 327c0 119.333 26 234 78 344l129 -39c-38 -112 -57 -204.667 -57 -278
c0 -121.333 47.333 -210.666 142 -267.999c68.667 -41.333 150.334 -62 245.001 -62c119.333 0 223 27 311 81c104 63.333 156 151 156 263c0 16.667 -2 36.334 -6 59.001c-22 124 -74.333 256.667 -157 398l133 84c60.667 -108.667 100.334 -175.667 119.001 -201
c60 -81.333 119 -122 177 -122c39.333 0 66.666 6.66699 81.999 20s23 39.666 23 78.999v270h144v-77c0 -198 54.667 -297 164 -297c54 0 81 34.667 81 104v271h145v-167c0 -132.667 51.667 -199 155 -199h53v-178zM1795 -373.002h-159v158h159v-158zM1578 -373.002h-157
v158h157v-158zM1686 -576.002h-159v158h159v-158zM1685 985.998h-159v158h159v-158zM1792 782.998h-158v158h158v-158zM1576 782.998h-158v158h158v-158z" />
    <glyph glyph-name="uni069D.init" unicode="&#x69d;" horiz-adv-x="1294" 
d="M1258 370c0 -114.667 -35.168 -204.832 -105.501 -270.499s-163.5 -98.5 -279.5 -98.5h-336c-106.667 0 -187 36 -241 108c-53.333 -72 -128 -108.333 -224 -109h-142v178h88c64 0 106.333 8 127 24c24 19.333 36 59.666 36 120.999v214h157v-142
c0 -86 8.33301 -138.667 25 -158c198.667 280 395.334 420 590.001 420c80 0 150.833 -28 212.5 -84s92.5 -123.667 92.5 -203zM1105 359.002c0 42.667 -15.333 76.667 -46 102s-67.667 38 -111 38c-152.667 0 -323 -107 -511 -321h450c73.333 0 130 21 170 63
c32 34 48 73.333 48 118zM647.999 -368.998h-158v158h158v-158zM431.999 -368.998h-158v158h158v-158z" />
    <glyph glyph-name="uni069D.medi" unicode="&#x69d;" horiz-adv-x="1445" 
d="M1445 0l-29.001 0.000976562c-107.333 0.666992 -196 33.667 -266 99c-71.333 -65.333 -163.666 -98 -276.999 -98h-336c-106.667 0 -187 36 -241 108c-53.333 -72 -128 -108.333 -224 -109h-142v178h88c64 0 106.333 8 127 24c24 19.333 36 59.666 36 120.999v214h157
v-142c0 -86 8.33301 -138.667 25 -158c198.667 280 395.334 420 590.001 420c80 0 150.833 -28 212.5 -84s92.5 -123.667 92.5 -203c0 -54 -7.66699 -101.667 -23 -143c39.333 -32.667 93.666 -49 162.999 -49h47v-178zM1105 359.001c0 42.667 -15.333 76.667 -46 102
s-67.667 38 -111 38c-152.667 0 -323 -107 -511 -321h450c73.333 0 130 21 170 63c32 34 48 73.333 48 118zM622.999 -371.999h-158v158h158v-158zM406.999 -371.999h-158v158h158v-158z" />
    <glyph glyph-name="uni069D.fina" unicode="&#x69d;" horiz-adv-x="2346" 
d="M2346 0l-22 -0.00195312c-107.333 0.666992 -195.666 33.667 -265 99c-70.667 -65.333 -163 -98 -277 -98h-335c-71.333 0 -126.333 14 -165 42c0 -135.333 -19.333 -238.333 -58 -309c-50.667 -92.667 -129.334 -165.667 -236.001 -219
c-98.667 -49.333 -204 -74 -316 -74c-180 0 -319.333 49 -418 147c-86.667 86 -130 195 -130 327c0 119.333 26 234 78 344l129 -39c-38 -112 -57 -204.667 -57 -278c0 -121.333 47.333 -210.666 142 -267.999c68.667 -41.333 150.334 -62 245.001 -62
c119.333 0 223 27 311 81c104 63.333 156 151 156 263c0 16.667 -2 36.334 -6 59.001c-22 124 -74.333 256.667 -157 398l133 84l78 -156c27.333 -48 57 -86 89 -114c202.667 286.667 401.667 430 597 430c81.333 0 152.333 -27.667 213 -83s91 -123.333 91 -204
c0 -55.333 -7 -103 -21 -143c37.333 -32.667 91.333 -49 162 -49h39v-178zM2014 358.998c0 42.667 -16 77 -48 103c-29.333 24.667 -66 37 -110 37c-146 0 -307 -95.667 -483 -287c-8 -8.66699 -12 -15.667 -12 -21c0 -8.66699 12.667 -13 38 -13h397
c73.333 0 130 21 170 63c32 34 48 73.333 48 118zM1834 -367.002h-158v158h158v-158zM1618 -367.002h-158v158h158v-158z" />
    <glyph glyph-name="uni069E.init" unicode="&#x69e;" horiz-adv-x="1294" 
d="M1258 370c0 -114.667 -35.168 -204.832 -105.501 -270.499s-163.5 -98.5 -279.5 -98.5h-336c-106.667 0 -187 36 -241 108c-53.333 -72 -128 -108.333 -224 -109h-142v178h88c64 0 106.333 8 127 24c24 19.333 36 59.666 36 120.999v214h157v-142
c0 -86 8.33301 -138.667 25 -158c198.667 280 395.334 420 590.001 420c80 0 150.833 -28 212.5 -84s92.5 -123.667 92.5 -203zM1105 359.002c0 42.667 -15.333 76.667 -46 102s-67.667 38 -111 38c-152.667 0 -323 -107 -511 -321h450c73.333 0 130 21 170 63
c32 34 48 73.333 48 118zM544.999 923.002h-159v158h159v-158zM651.999 720.002h-158v158h158v-158zM435.999 720.002h-158v158h158v-158z" />
    <glyph glyph-name="uni069E.medi" unicode="&#x69e;" horiz-adv-x="1445" 
d="M1445 0l-29.001 0.000976562c-107.333 0.666992 -196 33.667 -266 99c-71.333 -65.333 -163.666 -98 -276.999 -98h-336c-106.667 0 -187 36 -241 108c-53.333 -72 -128 -108.333 -224 -109h-142v178h88c64 0 106.333 8 127 24c24 19.333 36 59.666 36 120.999v214h157
v-142c0 -86 8.33301 -138.667 25 -158c198.667 280 395.334 420 590.001 420c80 0 150.833 -28 212.5 -84s92.5 -123.667 92.5 -203c0 -54 -7.66699 -101.667 -23 -143c39.333 -32.667 93.666 -49 162.999 -49h47v-178zM1105 359.001c0 42.667 -15.333 76.667 -46 102
s-67.667 38 -111 38c-152.667 0 -323 -107 -511 -321h450c73.333 0 130 21 170 63c32 34 48 73.333 48 118zM539.999 952.001h-159v158h159v-158zM646.999 749.001h-158v158h158v-158zM430.999 749.001h-158v158h158v-158z" />
    <glyph glyph-name="uni069E.fina" unicode="&#x69e;" horiz-adv-x="2346" 
d="M2346 0l-22 -0.00195312c-107.333 0.666992 -195.666 33.667 -265 99c-70.667 -65.333 -163 -98 -277 -98h-335c-71.333 0 -126.333 14 -165 42c0 -135.333 -19.333 -238.333 -58 -309c-50.667 -92.667 -129.334 -165.667 -236.001 -219
c-98.667 -49.333 -204 -74 -316 -74c-180 0 -319.333 49 -418 147c-86.667 86 -130 195 -130 327c0 119.333 26 234 78 344l129 -39c-38 -112 -57 -204.667 -57 -278c0 -121.333 47.333 -210.666 142 -267.999c68.667 -41.333 150.334 -62 245.001 -62
c119.333 0 223 27 311 81c104 63.333 156 151 156 263c0 16.667 -2 36.334 -6 59.001c-22 124 -74.333 256.667 -157 398l133 84l78 -156c27.333 -48 57 -86 89 -114c202.667 286.667 401.667 430 597 430c81.333 0 152.333 -27.667 213 -83s91 -123.333 91 -204
c0 -55.333 -7 -103 -21 -143c37.333 -32.667 91.333 -49 162 -49h39v-178zM2014 358.998c0 42.667 -16 77 -48 103c-29.333 24.667 -66 37 -110 37c-146 0 -307 -95.667 -483 -287c-8 -8.66699 -12 -15.667 -12 -21c0 -8.66699 12.667 -13 38 -13h397
c73.333 0 130 21 170 63c32 34 48 73.333 48 118zM1337 944.998h-159v158h159v-158zM1444 741.998h-158v158h158v-158zM1228 741.998h-158v158h158v-158z" />
    <glyph glyph-name="uni069F.medi" unicode="&#x69f;" horiz-adv-x="1634" 
d="M1634 0l-53.001 -0.000976562c-97.333 0.666992 -178 34.334 -242 101.001c-72.667 -67.333 -164.667 -101 -276 -101h-698c-83.333 0.666992 -152.666 20.334 -207.999 59.001v119h233c44.667 0 75 15.333 91 46c12 22.667 18 59 18 109v824h138v-801
c59.333 73.333 128 137 206 191c106 73.333 206 110 300 110c82.667 0 153.667 -27 213 -81c61.333 -56 92 -124.667 92 -206c0 -50.667 -8.33301 -99.334 -25 -146.001c40 -30.667 93.333 -46 160 -46h51v-178zM1296 358.999c0 42 -16 76.333 -48 103
c-30 24.667 -66.667 37 -110 37c-158.667 0 -332 -107 -520 -321h460c58.667 0 108.667 15.333 150 46c45.333 33.333 68 78.333 68 135zM1088 1057h-159v158h159v-158zM1195 853.999h-158v158h158v-158zM978.999 853.999h-158v158h158v-158z" />
    <glyph glyph-name="uni06A0.init" unicode="&#x6a0;" horiz-adv-x="874" 
d="M829 0l-899 0.000976562v178h205c-30 56 -45 122 -45 198c0 42 8.66699 81 26 117s41.166 67.5 71.499 94.5s66.333 48.167 108 63.5s86.834 23 135.501 23c116.667 0 236.667 -39 360 -117l-73 -116c-96 54 -182.667 81 -260 81c-26 0 -51 -3.83301 -75 -11.5
s-45 -18.334 -63 -32.001s-32.5 -29.5 -43.5 -47.5s-16.5 -37.333 -16.5 -58c0 -130 75.667 -195 227 -195h342v-178zM475 1015h-159v158h159v-158zM582 812.001h-158v158h158v-158zM366 812.001h-158v158h158v-158z" />
    <glyph glyph-name="uni06A0.medi" unicode="&#x6a0;" horiz-adv-x="745" 
d="M745 0l-45.998 0.00292969c-25.333 0 -52.833 3.66699 -82.5 11s-59.167 17 -88.5 29s-57.666 26.167 -84.999 42.5s-51 33.5 -71 51.5c-94.667 -88.667 -189.334 -133.334 -284.001 -134.001h-158v178h104c100.667 0 171.667 15 213 45
c-2.66699 2 -10.834 9.16699 -24.501 21.5l-44.5 41l-46 42.5c-14.667 13.333 -24.667 22.666 -30 27.999c-63.333 60 -95 110 -95 150c0 49.333 51 87.666 153 114.999c70.667 18 140.667 27 210 27c168 0 252 -60 252 -180c0 -68.667 -46.667 -146.667 -140 -234
c53.333 -37.333 137.666 -56 252.999 -56h10v-178zM484.002 477.003c0 22.667 -37.333 33.998 -112 33.998c-21.333 0 -43 -1.33301 -65 -4s-41.667 -6.16699 -59 -10.5s-31.5 -9.5 -42.5 -15.5s-16.5 -12.333 -16.5 -19c0 -5.33301 5.33301 -14.166 16 -26.499
s24.167 -25.666 40.5 -39.999s34.333 -29 54 -44s38.167 -27.833 55.5 -38.5c86 72 129 126.667 129 164zM377.002 988.001h-159v158h159v-158zM484.002 785.001h-158v158h158v-158zM268.002 785.001h-158v158h158v-158z" />
    <glyph glyph-name="uni06A0.fina" unicode="&#x6a0;" horiz-adv-x="1024" 
d="M1024 0l-61.002 0.000976562c-115.333 0.666992 -222.666 48.334 -321.999 143.001c-56 -29.333 -103.167 -55.333 -141.5 -78s-68.166 -42.334 -89.499 -59.001c-106 -82 -159 -169.333 -159 -262c0 -46.667 10 -88.5 30 -125.5s48 -68.333 84 -94
s79.167 -45.334 129.5 -59.001s106.166 -20.5 167.499 -20.5c118 0 224.667 17 320 51l44 -136c-134 -52 -271 -78 -411 -78c-73.333 0 -141.333 10.833 -204 32.5s-116.667 52.334 -162 92.001s-80.833 87 -106.5 142s-38.5 115.833 -38.5 182.5
c0 95.333 29 181.666 87 258.999c45.333 60 105 113.333 179 160l61 36.5l86 51.5l-22 21l-41.5 40l-42.5 41l-26 25c-58 54.667 -87 101.667 -87 141c0 49.333 51 87.666 153 114.999c70.667 18 141 27 211 27c38 0 72.167 -4.16699 102.5 -12.5s56.333 -20.666 78 -36.999
s38.334 -36.333 50.001 -60s17.5 -50.5 17.5 -80.5c0 -32 -19.333 -74.333 -58 -127c-33.333 -44.667 -64 -77 -92 -97c55.333 -37.333 135 -56 239 -56h25v-178zM765.998 470.001c0 23.333 -36.667 35 -110 35c-117.333 0 -176 -13.667 -176 -41c0 -28 53 -78.333 159 -151
c84.667 64.667 127 117 127 157zM627.998 1013h-159v158h159v-158zM734.998 810.001h-158v158h158v-158zM518.998 810.001h-158v158h158v-158z" />
    <glyph glyph-name="afii57459" unicode="&#x6a1;" horiz-adv-x="672" 
d="M631 349c0 -105.333 -26.667 -188.666 -80 -249.999c-56 -65.333 -136 -98.333 -240 -99h-381v178h395c92.667 0 144.667 40 156 120h-143c-77.333 0 -139.333 21 -186 63c-48.667 42.667 -73.667 102 -75 178c-1.33301 61.333 17 117.666 55 168.999
c42.667 54 94 81.333 154 82c108 0 194.667 -48 260 -144c56.667 -84.667 85 -183.667 85 -297zM477 460c-50 118.667 -111 178 -183 178c-28 0 -51.167 -9.66699 -69.5 -29s-27.5 -43 -27.5 -71c0 -52 40.667 -78 122 -78h158z" />
    <glyph glyph-name="afii57374" unicode="&#x6a1;" horiz-adv-x="749" 
d="M749 0l-85.999 -0.000976562c-62.667 0 -127 10 -193 30c-57.333 17.333 -97 36.333 -119 57c-27.333 -20.667 -69.333 -39.667 -126 -57c-64.667 -20 -126.667 -30 -186 -30h-109v178h124c59.333 0 105.666 5.33301 138.999 16
c-75.333 56.667 -113 133.334 -113 230.001c0 68.667 31 124.667 93 168c54.667 38.667 118 58 190 58c70 0 131.333 -22 184 -66c56 -46 84 -103 84 -171c0 -91.333 -41.333 -164.333 -124 -219c21.333 -10.667 52 -16 92 -16h150v-178zM483.001 395.999
c0 31.333 -13 56.999 -39 76.999s-55 30 -87 30c-33.333 0 -62.333 -8.33301 -87 -25c-28 -19.333 -42 -45 -42 -77c0 -34 12 -66.5 36 -97.5s52.333 -51.833 85 -62.5c33.333 10.667 63.333 30.334 90 59.001c29.333 31.333 44 63.333 44 96z" />
    <glyph glyph-name="afii52258" unicode="&#x6a1;" horiz-adv-x="1875" 
d="M1875 0h-86.998c-38.667 0 -93 9 -163 27c-76.667 19.333 -126.334 39.333 -149.001 60c-28.667 -20.667 -72.334 -40.167 -131.001 -58.5s-119 -27.5 -181 -27.5h-701c-98 0 -173.5 29 -226.5 87s-79.5 136.333 -79.5 235v62h147v-48c0 -106 49.667 -159 149 -159h725
c60 0 106 5.33301 138 16c-74.667 56.667 -112 133.667 -112 231c4.66699 68 36 123.667 94 167c55.333 39.333 118.333 59 189 59c70 0 131.333 -22 184 -66c56 -46.667 84 -104 84 -172c0 -92.667 -41.333 -165.667 -124 -219c22 -10.667 53 -16 93 -16h151v-178z
M1607 396c0 30.667 -13.334 56.668 -40.001 78.001c-25.333 19.333 -53.666 29 -84.999 29c-33.333 0 -62.333 -8.33301 -87 -25c-28 -19.333 -42 -45 -42 -77c0 -34.667 11.5 -67 34.5 -97s51.167 -51 84.5 -63c30.667 9.33301 59.667 27.666 87 54.999
c32 32 48 65.333 48 100z" />
    <glyph glyph-name="uni06A2.init" unicode="&#x6a2;" horiz-adv-x="672" 
d="M631 349c0 -105.333 -26.667 -188.666 -80 -249.999c-56 -65.333 -136 -98.333 -240 -99h-381v178h395c92.667 0 144.667 40 156 120h-143c-77.333 0 -139.333 21 -186 63c-48.667 42.667 -73.667 102 -75 178c-1.33301 61.333 17 117.666 55 168.999
c42.667 54 94 81.333 154 82c108 0 194.667 -48 260 -144c56.667 -84.667 85 -183.667 85 -297zM477 460c-50 118.667 -111 178 -183 178c-28 0 -51.167 -9.66699 -69.5 -29s-27.5 -43 -27.5 -71c0 -52 40.667 -78 122 -78h158zM365 -342h-159v158h159v-158z" />
    <glyph glyph-name="uni06A2.medi" unicode="&#x6a2;" horiz-adv-x="749" 
d="M749 0l-85.999 -0.000976562c-62.667 0 -127 10 -193 30c-57.333 17.333 -97 36.333 -119 57c-27.333 -20.667 -69.333 -39.667 -126 -57c-64.667 -20 -126.667 -30 -186 -30h-109v178h124c59.333 0 105.666 5.33301 138.999 16
c-75.333 56.667 -113 133.334 -113 230.001c0 68.667 31 124.667 93 168c54.667 38.667 118 58 190 58c70 0 131.333 -22 184 -66c56 -46 84 -103 84 -171c0 -91.333 -41.333 -164.333 -124 -219c21.333 -10.667 52 -16 92 -16h150v-178zM483.001 395.999
c0 31.333 -13 56.999 -39 76.999s-55 30 -87 30c-33.333 0 -62.333 -8.33301 -87 -25c-28 -19.333 -42 -45 -42 -77c0 -34 12 -66.5 36 -97.5s52.333 -51.833 85 -62.5c33.333 10.667 63.333 30.334 90 59.001c29.333 31.333 44 63.333 44 96zM439.001 -367.002h-159v158
h159v-158z" />
    <glyph glyph-name="uni06A2.fina" unicode="&#x6a2;" horiz-adv-x="1875" 
d="M1875 0h-86.998c-38.667 0 -93 9 -163 27c-76.667 19.333 -126.334 39.333 -149.001 60c-28.667 -20.667 -72.334 -40.167 -131.001 -58.5s-119 -27.5 -181 -27.5h-701c-98 0 -173.5 29 -226.5 87s-79.5 136.333 -79.5 235v62h147v-48c0 -106 49.667 -159 149 -159h725
c60 0 106 5.33301 138 16c-74.667 56.667 -112 133.667 -112 231c4.66699 68 36 123.667 94 167c55.333 39.333 118.333 59 189 59c70 0 131.333 -22 184 -66c56 -46.667 84 -104 84 -172c0 -92.667 -41.333 -165.667 -124 -219c22 -10.667 53 -16 93 -16h151v-178z
M1607 396c0 30.667 -13.334 56.668 -40.001 78.001c-25.333 19.333 -53.666 29 -84.999 29c-33.333 0 -62.333 -8.33301 -87 -25c-28 -19.333 -42 -45 -42 -77c0 -34.667 11.5 -67 34.5 -97s51.167 -51 84.5 -63c30.667 9.33301 59.667 27.666 87 54.999
c32 32 48 65.333 48 100zM1072 -363.999h-159v158h159v-158z" />
    <glyph glyph-name="uni06A3.init" unicode="&#x6a3;" horiz-adv-x="669" 
d="M631 349c0 -105.333 -26.667 -188.666 -80 -249.999c-56 -65.333 -136 -98.333 -240 -99h-381v178h395c92.667 0 144.667 40 156 120h-143c-77.333 0 -139.333 21 -186 63c-48.667 42.667 -73.667 102 -75 178c-1.33301 61.333 17 117.666 55 168.999
c42.667 54 94 81.333 154 82c108 0 194.667 -48 260 -144c56.667 -84.667 85 -183.667 85 -297zM477 460c-50 118.667 -111 178 -183 178c-28 0 -51.167 -9.66699 -69.5 -29s-27.5 -43 -27.5 -71c0 -52 40.667 -78 122 -78h158zM358 928h-159v158h159v-158zM362 -366h-159
v158h159v-158z" />
    <glyph glyph-name="uni06A3.medi" unicode="&#x6a3;" horiz-adv-x="749" 
d="M749 0l-85.999 -0.000976562c-62.667 0 -127 10 -193 30c-57.333 17.333 -97 36.333 -119 57c-27.333 -20.667 -69.333 -39.667 -126 -57c-64.667 -20 -126.667 -30 -186 -30h-109v178h124c59.333 0 105.666 5.33301 138.999 16
c-75.333 56.667 -113 133.334 -113 230.001c0 68.667 31 124.667 93 168c54.667 38.667 118 58 190 58c70 0 131.333 -22 184 -66c56 -46 84 -103 84 -171c0 -91.333 -41.333 -164.333 -124 -219c21.333 -10.667 52 -16 92 -16h150v-178zM483.001 395.999
c0 31.333 -13 56.999 -39 76.999s-55 30 -87 30c-33.333 0 -62.333 -8.33301 -87 -25c-28 -19.333 -42 -45 -42 -77c0 -34 12 -66.5 36 -97.5s52.333 -51.833 85 -62.5c33.333 10.667 63.333 30.334 90 59.001c29.333 31.333 44 63.333 44 96zM412.001 795.998h-159v158h159
v-158zM419.001 -360.002h-159v158h159v-158z" />
    <glyph glyph-name="uni06A3.fina" unicode="&#x6a3;" horiz-adv-x="1875" 
d="M1875 0h-86.998c-38.667 0 -93 9 -163 27c-76.667 19.333 -126.334 39.333 -149.001 60c-28.667 -20.667 -72.334 -40.167 -131.001 -58.5s-119 -27.5 -181 -27.5h-701c-98 0 -173.5 29 -226.5 87s-79.5 136.333 -79.5 235v62h147v-48c0 -106 49.667 -159 149 -159h725
c60 0 106 5.33301 138 16c-74.667 56.667 -112 133.667 -112 231c4.66699 68 36 123.667 94 167c55.333 39.333 118.333 59 189 59c70 0 131.333 -22 184 -66c56 -46.667 84 -104 84 -172c0 -92.667 -41.333 -165.667 -124 -219c22 -10.667 53 -16 93 -16h151v-178z
M1607 396c0 30.667 -13.334 56.668 -40.001 78.001c-25.333 19.333 -53.666 29 -84.999 29c-33.333 0 -62.333 -8.33301 -87 -25c-28 -19.333 -42 -45 -42 -77c0 -34.667 11.5 -67 34.5 -97s51.167 -51 84.5 -63c30.667 9.33301 59.667 27.666 87 54.999
c32 32 48 65.333 48 100zM1543 820.001h-159v158h159v-158zM1556 -361.999h-159v158h159v-158z" />
    <glyph glyph-name="uni06A5.init" unicode="&#x6a5;" horiz-adv-x="669" 
d="M631 349c0 -105.333 -26.667 -188.666 -80 -249.999c-56 -65.333 -136 -98.333 -240 -99h-381v178h395c92.667 0 144.667 40 156 120h-143c-77.333 0 -139.333 21 -186 63c-48.667 42.667 -73.667 102 -75 178c-1.33301 61.333 17 117.666 55 168.999
c42.667 54 94 81.333 154 82c108 0 194.667 -48 260 -144c56.667 -84.667 85 -183.667 85 -297zM477 460c-50 118.667 -111 178 -183 178c-28 0 -51.167 -9.66699 -69.5 -29s-27.5 -43 -27.5 -71c0 -52 40.667 -78 122 -78h158zM454 -369h-159v158h159v-158zM237 -369h-157
v158h157v-158zM345 -572h-159v158h159v-158z" />
    <glyph glyph-name="uni06A5.medi" unicode="&#x6a5;" horiz-adv-x="749" 
d="M749 0l-85.999 -0.000976562c-62.667 0 -127 10 -193 30c-57.333 17.333 -97 36.333 -119 57c-27.333 -20.667 -69.333 -39.667 -126 -57c-64.667 -20 -126.667 -30 -186 -30h-109v178h124c59.333 0 105.666 5.33301 138.999 16
c-75.333 56.667 -113 133.334 -113 230.001c0 68.667 31 124.667 93 168c54.667 38.667 118 58 190 58c70 0 131.333 -22 184 -66c56 -46 84 -103 84 -171c0 -91.333 -41.333 -164.333 -124 -219c21.333 -10.667 52 -16 92 -16h150v-178zM483.001 395.999
c0 31.333 -13 56.999 -39 76.999s-55 30 -87 30c-33.333 0 -62.333 -8.33301 -87 -25c-28 -19.333 -42 -45 -42 -77c0 -34 12 -66.5 36 -97.5s52.333 -51.833 85 -62.5c33.333 10.667 63.333 30.334 90 59.001c29.333 31.333 44 63.333 44 96zM525.001 -361.002h-159v158
h159v-158zM308.001 -361.002h-157v158h157v-158zM416.001 -564.002h-159v158h159v-158z" />
    <glyph glyph-name="uni06A5.fina" unicode="&#x6a5;" horiz-adv-x="1875" 
d="M1875 0h-86.998c-38.667 0 -93 9 -163 27c-76.667 19.333 -126.334 39.333 -149.001 60c-28.667 -20.667 -72.334 -40.167 -131.001 -58.5s-119 -27.5 -181 -27.5h-701c-98 0 -173.5 29 -226.5 87s-79.5 136.333 -79.5 235v62h147v-48c0 -106 49.667 -159 149 -159h725
c60 0 106 5.33301 138 16c-74.667 56.667 -112 133.667 -112 231c4.66699 68 36 123.667 94 167c55.333 39.333 118.333 59 189 59c70 0 131.333 -22 184 -66c56 -46.667 84 -104 84 -172c0 -92.667 -41.333 -165.667 -124 -219c22 -10.667 53 -16 93 -16h151v-178z
M1607 396c0 30.667 -13.334 56.668 -40.001 78.001c-25.333 19.333 -53.666 29 -84.999 29c-33.333 0 -62.333 -8.33301 -87 -25c-28 -19.333 -42 -45 -42 -77c0 -34.667 11.5 -67 34.5 -97s51.167 -51 84.5 -63c30.667 9.33301 59.667 27.666 87 54.999
c32 32 48 65.333 48 100zM1649 -329.999h-159v158h159v-158zM1432 -329.999h-157v158h157v-158zM1540 -532.999h-159v158h159v-158z" />
    <glyph glyph-name="uni06A7.fina" unicode="&#x6a7;" horiz-adv-x="1403" 
d="M1403 0l-146 0.000976562c-14.667 -151.333 -85.667 -273 -213 -365c-117.333 -84 -255 -126 -413 -126c-160 0 -283.667 39.333 -371 118c-90.667 82 -136 202 -136 360c0 81.333 12.667 163.666 38 246.999l139 -29c-18.667 -81.333 -28 -147 -28 -197
c0 -101.333 28.833 -181 86.5 -239s137.167 -87 238.5 -87c124 0 232.333 22.667 325 68c119.333 57.333 179 140.666 179 249.999h-145c-86.667 2 -154 26.667 -202 74s-72 114.333 -72 201c0 62.667 20 118.334 60 167.001c42.667 52 94.667 78 156 78
c88 0 164.667 -36.333 230 -109c58 -63.333 97.333 -141 118 -233h156v-178zM1104 178.001c-43.333 118 -105.001 176.999 -185.001 176.999c-27.333 0 -50.166 -9.66699 -68.499 -29s-27.5 -42.666 -27.5 -69.999c0 -52.667 40.333 -78.667 121 -78h160zM974.999 685h-159
v158h159v-158z" />
    <glyph glyph-name="uni06A8.fina" unicode="&#x6a8;" horiz-adv-x="1403" 
d="M1403 0l-146 0.000976562c-14.667 -151.333 -85.667 -273 -213 -365c-117.333 -84 -255 -126 -413 -126c-160 0 -283.667 39.333 -371 118c-90.667 82 -136 202 -136 360c0 81.333 12.667 163.666 38 246.999l139 -29c-18.667 -81.333 -28 -147 -28 -197
c0 -101.333 28.833 -181 86.5 -239s137.167 -87 238.5 -87c124 0 232.333 22.667 325 68c119.333 57.333 179 140.666 179 249.999h-145c-86.667 2 -154 26.667 -202 74s-72 114.333 -72 201c0 62.667 20 118.334 60 167.001c42.667 52 94.667 78 156 78
c88 0 164.667 -36.333 230 -109c58 -63.333 97.333 -141 118 -233h156v-178zM1104 178.001c-43.333 118 -105.001 176.999 -185.001 176.999c-27.333 0 -50.166 -9.66699 -68.499 -29s-27.5 -42.666 -27.5 -69.999c0 -52.667 40.333 -78.667 121 -78h160zM971.999 861h-159
v158h159v-158zM1079 658h-158v158h158v-158zM862.999 658h-158v158h158v-158z" />
    <glyph glyph-name="uni06AA.init" unicode="&#x6aa;" horiz-adv-x="1850" 
d="M1705 103c-299.333 -50 -880.666 -84.334 -1744 -103.001v178c526.667 2.66699 891.667 11.667 1095 27c239.333 18.667 458.666 34.334 657.999 47.001c0 6.66699 0.166992 14.667 0.5 24s-0.166992 17 -1.5 23c-4 28.667 -10.667 53.334 -20 74.001
s-22.833 37.5 -40.5 50.5s-40.5 22.167 -68.5 27.5s-63 7 -105 5c-28.667 0 -64.667 -1.5 -108 -4.5l-145 -10.5c-53.333 -4 -110.166 -8 -170.499 -12s-121 -7.5 -182 -10.5s-121.333 -4.83301 -181 -5.5s-115.5 0.666016 -167.5 3.99902
c-41.333 3.33301 -75.833 9 -103.5 17s-50.167 17.5 -67.5 28.5s-30 22.833 -38 35.5s-12.667 25.667 -14 39c-6 30.667 -1.66699 61.167 13 91.5s36.667 60.333 66 90s64.333 58.5 105 86.5s84 55 130 81s93 50.833 141 74.5l138 65.5l120.5 54.5
c36.333 16.333 66.166 30.5 89.499 42.5l15 -168l-138 -57l-148.5 -63.5c-49.667 -21.667 -97.334 -43.667 -143.001 -66s-86.334 -43.5 -122.001 -63.5s-64.167 -38.667 -85.5 -56s-32.333 -32 -33 -44c1.33301 -14.667 14.333 -25.834 39 -33.501s57.667 -13 99 -16
s89 -4 143 -3s111 3.16699 171 6.5s121.167 7.16602 183.5 11.499l180.5 12.5c58 4 111.833 7.16699 161.5 9.5s91.834 2.83301 126.501 1.5c59.333 -4.66699 108.666 -17.667 147.999 -39s68.333 -48.166 87 -80.499s27.334 -69.166 26.001 -110.499
s-12.666 -84.666 -33.999 -129.999c-12.667 -28.667 -38 -72.334 -76 -131.001z" />
    <glyph glyph-name="uni06AA.medi" unicode="&#x6aa;" horiz-adv-x="1916" 
d="M1513 103c-298 -50 -816.331 -84.3359 -1555 -103.003v178c406.667 2.66699 709 11.667 907 27c236 18 455 33.333 657 46l-1 55c-4 28 -10.833 51.833 -20.5 71.5s-23.5 35.667 -41.5 48s-40.833 21 -68.5 26s-61.834 6.5 -102.501 4.5c-28 0 -63.833 -1.5 -107.5 -4.5
l-145.5 -10.5c-53.333 -4 -110.166 -8 -170.499 -12s-121 -7.5 -182 -10.5s-121.333 -4.83301 -181 -5.5s-115.5 0.666016 -167.5 3.99902c-41.333 3.33301 -75.833 9 -103.5 17s-50.167 17.5 -67.5 28.5s-30 22.833 -38 35.5s-12.667 25.667 -14 39
c-6 30.667 -1.66699 61.167 13 91.5s36.667 60.333 66 90s64.333 58.5 105 86.5s84 55 130 81s93 50.833 141 74.5l138 65.5l120.5 54.5c36.333 16.333 66.166 30.5 89.499 42.5l15 -168l-138 -57l-148.5 -63.5c-49.667 -21.667 -97.334 -43.667 -143.001 -66
s-86.334 -43.5 -122.001 -63.5s-64.167 -38.667 -85.5 -56s-32.333 -32 -33 -44c1.33301 -14.667 14.333 -25.834 39 -33.501s57.667 -13 99 -16s89 -4 143 -3s111 3.16699 171 6.5s121.167 7.16602 183.5 11.499l180.5 12.5c58 4 111.833 7.16699 161.5 9.5
s91.834 2.83301 126.501 1.5c59.333 -4.66699 108.666 -17.5 147.999 -38.5s68.333 -47.667 87 -80s27.334 -69.166 26.001 -110.499s-12.666 -84.666 -33.999 -129.999c-1.33301 -3.33301 -3 -6.66602 -5 -9.99902c-0.666992 -8.66699 11.666 -18.667 36.999 -30
c28.667 -12.667 86 -18.334 172 -17.001h127c7.33301 -17.333 12.833 -33.166 16.5 -47.499s5.5 -28.166 5.5 -41.499s-1.83301 -27.166 -5.5 -41.499s-9.16699 -30.166 -16.5 -47.499h-112c-82.667 -1.33301 -144 1.16699 -184 7.5s-70 17.833 -90 34.5l-22 61v0z" />
    <glyph glyph-name="uni06AA.fina" unicode="&#x6aa;" horiz-adv-x="2592" 
d="M207 339c0 -107.333 55.0049 -161.002 165.005 -161.002c543.333 0 934.666 9 1174 27c236 18 455 33.333 657 46l-1 55c-4 28 -10.833 51.833 -20.5 71.5s-23.5 35.667 -41.5 48s-40.833 21 -68.5 26s-61.834 6.5 -102.501 4.5c-28 0 -63.833 -1.5 -107.5 -4.5
l-145.5 -10.5c-53.333 -4 -110.166 -8 -170.499 -12s-121 -7.5 -182 -10.5s-121.333 -4.83301 -181 -5.5s-115.5 0.666016 -167.5 3.99902c-41.333 3.33301 -75.833 9 -103.5 17s-50.167 17.5 -67.5 28.5s-30 22.833 -38 35.5s-12.667 25.667 -14 39
c-6 30.667 -1.66699 61.167 13 91.5s36.667 60.333 66 90s64.333 58.5 105 86.5s84 55 130 81s93 50.833 141 74.5l138 65.5l120.5 54.5c36.333 16.333 66.166 30.5 89.499 42.5l15 -168l-138 -57l-148.5 -63.5c-49.667 -21.667 -97.334 -43.667 -143.001 -66
s-86.334 -43.5 -122.001 -63.5s-64.167 -38.667 -85.5 -56s-32.333 -32 -33 -44c1.33301 -14.667 14.333 -25.834 39 -33.501s57.667 -13 99 -16s89 -4 143 -3s111 3.16699 171 6.5s121.167 7.16602 183.5 11.499l180.5 12.5c58 4 111.833 7.16699 161.5 9.5
s91.834 2.83301 126.501 1.5c59.333 -4.66699 108.666 -17.5 148 -38.5c39.333 -21 68.333 -47.667 87 -80s27.334 -69.166 26 -110.499c-1.33301 -41.333 -12.666 -84.666 -34 -129.999c-1.33301 -3.33301 -3 -6.66602 -5 -9.99902
c-0.666992 -8.66699 11.666 -18.667 36.999 -30c28.667 -12.667 86 -18.334 172 -17.001h127c7.33301 -17.333 12.833 -33.166 16.5 -47.499s5.5 -28.166 5.5 -41.499s-1.83301 -27.166 -5.5 -41.499s-9.16699 -30.166 -16.5 -47.499h-112
c-82.667 -1.33301 -144 1.16699 -184 7.5s-70 17.833 -90 34.5l-22 61c-331.333 -55.333 -935 -89.333 -1811 -102c-94.667 0 -171.334 26.667 -230.001 80c-60.667 55.333 -91 129.666 -91 222.999v75h145v-40v0z" />
    <glyph glyph-name="uni06AB.init" unicode="&#x6ab;" horiz-adv-x="762" 
d="M774 1035l-540 -156.001c-44 -12.667 -66 -30 -66 -52c0 -16 9.33301 -42.333 28 -79l168 -329c35.333 -69.333 53 -125.666 53 -168.999c0 -166 -101 -249.333 -303 -250h-184v178h192c93.333 0 140 26.667 140 80c0 29.333 -13 69 -39 119l-176 339
c-20.667 40 -31 77.667 -31 113c0 88 52.667 147.667 158 179l544 161zM720 839.999c0 -44.667 -15.667 -82.835 -47 -114.502s-69.666 -47.5 -114.999 -47.5c-44 0 -82 16 -114 48s-48 70 -48 114c0 42.667 16.5 80.334 49.5 113.001s70.5 49 112.5 49
c41.333 0 78.666 -16.667 111.999 -50s50 -70.666 50 -111.999zM641 842.998c0 23.333 -8.5 42.5 -25.5 57.5s-37.167 22.5 -60.5 22.5c-20.667 0 -39.167 -8.5 -55.5 -25.5s-24.5 -36.167 -24.5 -57.5c0 -55.333 27.667 -83 83 -83s83 28.667 83 86z" />
    <glyph glyph-name="uni06AB.medi" unicode="&#x6ab;" horiz-adv-x="718" 
d="M774 1035l-540 -155.998c-44 -12.667 -66 -29.667 -66 -51c0 -17.333 9.33301 -44 28 -80l170 -327c54 -104 110.333 -173.333 169 -208c39.333 -23.333 93 -35 161 -35h22v-178h-46c-48.667 0.666992 -100 14.667 -154 42s-94.667 60.666 -122 99.999
c-42.667 -94 -136.667 -141.333 -282 -142h-184v178h192c93.333 0 140 26.667 140 80c0 29.333 -13 69 -39 119l-176 339c-21.333 41.333 -32 79.666 -32 114.999c0 86.667 53 145.667 159 177l544 161zM734 837.002c0 -44.667 -15.667 -82.835 -47 -114.502
s-69.666 -47.5 -114.999 -47.5c-44 0 -82 16 -114 48s-48 70 -48 114c0 42.667 16.5 80.334 49.5 113.001s70.5 49 112.5 49c41.333 0 78.666 -16.667 111.999 -50s50 -70.666 50 -111.999zM655 840.001c0 23.333 -8.5 42.5 -25.5 57.5s-37.167 22.5 -60.5 22.5
c-20.667 0 -39.167 -8.5 -55.5 -25.5s-24.5 -36.167 -24.5 -57.5c0 -55.333 27.667 -83 83 -83s83 28.667 83 86z" />
    <glyph glyph-name="uni06AB.fina" unicode="&#x6ab;" horiz-adv-x="1842" 
d="M1899 1035l-540.999 -155.998c-44 -12.667 -66 -29.667 -66 -51c0 -16 9.66699 -42.667 29 -80l170 -327c54 -104 110.333 -173.333 169 -208c39.333 -23.333 93 -35 161 -35h21v-178h-46c-48.667 0.666992 -100 14.667 -154 42s-94.667 60.666 -122 99.999
c-42 -94 -136.333 -141 -283 -141h-759c-94.667 0 -171.334 26.667 -230.001 80c-60.667 55.333 -91 129.666 -91 222.999v75h145v-40c0 -107.333 55 -161 165 -161h780c92.667 0 139 26.667 139 80c0 29.333 -13 69 -39 119l-176 339c-20.667 40 -31 78.333 -31 115
c0 86.667 52.667 145.667 158 177l544 161zM1822 834.002c0 -44.667 -15.667 -82.835 -47 -114.502s-69.666 -47.5 -114.999 -47.5c-44 0 -82 16 -114 48s-48 70 -48 114c0 42.667 16.5 80.334 49.5 113.001s70.5 49 112.5 49c41.333 0 78.666 -16.667 111.999 -50
s50 -70.666 50 -111.999zM1743 837.001c0 23.333 -8.5 42.5 -25.5 57.5s-37.167 22.5 -60.5 22.5c-20.667 0 -39.167 -8.5 -55.5 -25.5s-24.5 -36.167 -24.5 -57.5c0 -55.333 27.667 -83 83 -83s83 28.667 83 86z" />
    <glyph glyph-name="uni06AE.init" unicode="&#x6ae;" horiz-adv-x="762" 
d="M774 1035l-540 -156.001c-44 -12.667 -66 -30 -66 -52c0 -16 9.33301 -42.333 28 -79l168 -329c35.333 -69.333 53 -125.666 53 -168.999c0 -166 -101 -249.333 -303 -250h-184v178h192c93.333 0 140 26.667 140 80c0 29.333 -13 69 -39 119l-176 339
c-20.667 40 -31 77.667 -31 113c0 88 52.667 147.667 158 179l544 161zM359 -372.001h-159v158h159v-158zM142 -372.001h-157v158h157v-158zM250 -575.001h-159v158h159v-158z" />
    <glyph glyph-name="uni06AE.medi" unicode="&#x6ae;" horiz-adv-x="718" 
d="M774 1035l-540 -155.998c-44 -12.667 -66 -29.667 -66 -51c0 -17.333 9.33301 -44 28 -80l170 -327c54 -104 110.333 -173.333 169 -208c39.333 -23.333 93 -35 161 -35h22v-178h-46c-48.667 0.666992 -100 14.667 -154 42s-94.667 60.666 -122 99.999
c-42.667 -94 -136.667 -141.333 -282 -142h-184v178h192c93.333 0 140 26.667 140 80c0 29.333 -13 69 -39 119l-176 339c-21.333 41.333 -32 79.666 -32 114.999c0 86.667 53 145.667 159 177l544 161zM405 -369.998h-159v158h159v-158zM188 -369.998h-157v158h157v-158z
M296 -572.998h-159v158h159v-158z" />
    <glyph glyph-name="uni06AE.fina" unicode="&#x6ae;" horiz-adv-x="1722" 
d="M1426 384c17.333 -79.333 55.334 -136.331 114.001 -170.998c39.333 -23.333 93 -35 161 -35h21v-178h-46c-48.667 0.666992 -100 14.667 -154 42s-94.667 60.666 -122 99.999c-42 -94 -136.333 -141 -283 -141h-639c-94.667 0 -171.334 26.667 -230.001 80
c-60.667 55.333 -91 129.666 -91 222.999v75h145v-40c0 -107.333 55 -161 165 -161h660c92.667 0 139 26.667 139 80c0 29.333 -13.333 329.333 -40 900h169zM1014 679.002l-463.999 -153l-28 74l165 55c-32.667 30.667 -49 73 -49 127c0 44.667 22.667 80 68 106
c37.333 21.333 80 32 128 32c19.333 0 39.666 -1.33301 60.999 -4v-69c-14.667 2 -29 3 -43 3c-86 0 -129 -26.667 -129 -80c0 -20 8.66699 -36.667 26 -50c15.333 -12.667 33.333 -19 54 -19c24 0 86 17.667 186 53zM943.002 -368.998h-159v158h159v-158zM726.002 -368.998
h-157v158h157v-158zM834.002 -571.998h-159v158h159v-158z" />
    <glyph glyph-name="uni06B0.init" unicode="&#x6b0;" horiz-adv-x="805" 
d="M735 1184l-684 -163l-40 71l689 165zM811 1027l-586 -138c-44 -10.667 -66 -27.667 -66 -51c0 -16.667 9.66699 -43.667 29 -81l176 -338c35.333 -68 53 -124.333 53 -169c0 -166 -101 -249.333 -303 -250h-184v178h192c93.333 0 140 26.667 140 80
c0 29.333 -13 69 -39 119l-176 339c-17.333 33.333 -26 67 -26 101c0 97.333 51 158.333 153 183l580 141zM745 844c0 -44.667 -15.667 -82.835 -47 -114.502s-69.666 -47.5 -114.999 -47.5c-44 0 -82 16 -114 48s-48 70 -48 114c0 42.667 16.5 80.334 49.5 113.001
s70.5 49 112.5 49c41.333 0 78.666 -16.667 111.999 -50s50 -70.666 50 -111.999zM666 846.999c0 23.333 -8.5 42.5 -25.5 57.5s-37.167 22.5 -60.5 22.5c-20.667 0 -39.167 -8.5 -55.5 -25.5s-24.5 -36.167 -24.5 -57.5c0 -55.333 27.667 -83 83 -83s83 28.667 83 86z" />
    <glyph glyph-name="uni06B0.medi" unicode="&#x6b0;" horiz-adv-x="716" 
d="M735 1184l-684 -163l-40 71l689 165zM811 1027l-586.001 -138c-44.667 -10.667 -67 -27.667 -67 -51c0 -16 10 -43 30 -81l178 -336c54.667 -103.333 111.334 -172.333 170.001 -207c40.667 -24 94 -36 160 -36h20v-178h-44c-48.667 -0 -100 13.833 -154 41.5
s-94.667 61.167 -122 100.5c-42.667 -94 -136.667 -141.333 -282 -142h-184v178h192c93.333 0 140 26.667 140 80c0 29.333 -13 69 -39 119l-176 339c-17.333 33.333 -26 67 -26 101c0 97.333 51 158.333 153 183l580 141zM757.999 841
c0 -44.667 -15.667 -82.835 -47 -114.502s-69.666 -47.5 -114.999 -47.5c-44 0 -82 16 -114 48s-48 70 -48 114c0 42.667 16.5 80.334 49.5 113.001s70.5 49 112.5 49c41.333 0 78.666 -16.667 111.999 -50s50 -70.666 50 -111.999zM678.999 843.999
c0 23.333 -8.5 42.5 -25.5 57.5s-37.167 22.5 -60.5 22.5c-20.667 0 -39.167 -8.5 -55.5 -25.5s-24.5 -36.167 -24.5 -57.5c0 -55.333 27.667 -83 83 -83s83 28.667 83 86z" />
    <glyph glyph-name="uni06B0.fina" unicode="&#x6b0;" horiz-adv-x="1842" 
d="M1859 1184l-684 -163l-40 71l689 165zM1935 1027l-585.998 -137.997c-44 -10.667 -66 -27.334 -66 -50.001c0 -18.667 9.66699 -46 29 -82l179 -336c55.333 -103.333 111.666 -172.333 168.999 -207c40 -24 93.667 -36 161 -36h21v-178h-46
c-48.667 0.666992 -100 14.667 -154 42s-94.667 60.666 -122 99.999c-42 -94 -136.333 -141 -283 -141h-759c-94.667 0 -171.334 26.667 -230.001 80c-60.667 55.333 -91 129.666 -91 222.999v75h145v-40c0 -107.333 55 -161 165 -161h780c92.667 0 139 26.667 139 80
c0 29.333 -13 69 -39 119l-176 339c-16.667 32 -25 65.667 -25 101c0 97.333 50.667 158.333 152 183l581 141zM1864 844.003c0 -44.667 -15.667 -82.835 -47 -114.502s-69.666 -47.5 -114.999 -47.5c-44 0 -82 16 -114 48s-48 70 -48 114
c0 42.667 16.5 80.334 49.5 113.001s70.5 49 112.5 49c41.333 0 78.666 -16.667 111.999 -50s50 -70.666 50 -111.999zM1785 847.002c0 23.333 -8.5 42.5 -25.5 57.5s-37.167 22.5 -60.5 22.5c-20.667 0 -39.167 -8.5 -55.5 -25.5s-24.5 -36.167 -24.5 -57.5
c0 -55.333 27.667 -83 83 -83s83 28.667 83 86z" />
    <glyph glyph-name="uni06B2.init" unicode="&#x6b2;" horiz-adv-x="805" 
d="M735 1184l-684 -163l-40 71l689 165zM811 1027l-586 -138c-44 -10.667 -66 -27.667 -66 -51c0 -16.667 9.66699 -43.667 29 -81l176 -338c35.333 -68 53 -124.333 53 -169c0 -166 -101 -249.333 -303 -250h-184v178h192c93.333 0 140 26.667 140 80
c0 29.333 -13 69 -39 119l-176 339c-17.333 33.333 -26 67 -26 101c0 97.333 51 158.333 153 183l580 141zM353 -359h-158v158h158v-158zM137 -359h-158v158h158v-158z" />
    <glyph glyph-name="uni06B2.medi" unicode="&#x6b2;" horiz-adv-x="716" 
d="M735 1184l-684 -163l-40 71l689 165zM811 1027l-586.001 -138c-44.667 -10.667 -67 -27.667 -67 -51c0 -16 10 -43 30 -81l178 -336c54.667 -103.333 111.334 -172.333 170.001 -207c40.667 -24 94 -36 160 -36h20v-178h-44c-48.667 -0 -100 13.833 -154 41.5
s-94.667 61.167 -122 100.5c-42.667 -94 -136.667 -141.333 -282 -142h-184v178h192c93.333 0 140 26.667 140 80c0 29.333 -13 69 -39 119l-176 339c-17.333 33.333 -26 67 -26 101c0 97.333 51 158.333 153 183l580 141zM447.999 -372h-158v158h158v-158zM231.999 -372
h-158v158h158v-158z" />
    <glyph glyph-name="uni06B2.fina" unicode="&#x6b2;" horiz-adv-x="1842" 
d="M1859 1184l-684 -163l-40 71l689 165zM1935 1027l-585.998 -137.997c-44 -10.667 -66 -27.334 -66 -50.001c0 -18.667 9.66699 -46 29 -82l179 -336c55.333 -103.333 111.666 -172.333 168.999 -207c40 -24 93.667 -36 161 -36h21v-178h-46
c-48.667 0.666992 -100 14.667 -154 42s-94.667 60.666 -122 99.999c-42 -94 -136.333 -141 -283 -141h-759c-94.667 0 -171.334 26.667 -230.001 80c-60.667 55.333 -91 129.666 -91 222.999v75h145v-40c0 -107.333 55 -161 165 -161h780c92.667 0 139 26.667 139 80
c0 29.333 -13 69 -39 119l-176 339c-16.667 32 -25 65.667 -25 101c0 97.333 50.667 158.333 152 183l581 141zM1001 -370.997h-158v158h158v-158zM785.002 -370.997h-158v158h158v-158z" />
    <glyph glyph-name="uni06B4.init" unicode="&#x6b4;" horiz-adv-x="805" 
d="M735 1184l-684 -163l-40 71l689 165zM811 1027l-586 -138c-44 -10.667 -66 -27.667 -66 -51c0 -16.667 9.66699 -43.667 29 -81l176 -338c35.333 -68 53 -124.333 53 -169c0 -166 -101 -249.333 -303 -250h-184v178h192c93.333 0 140 26.667 140 80
c0 29.333 -13 69 -39 119l-176 339c-17.333 33.333 -26 67 -26 101c0 97.333 51 158.333 153 183l580 141zM395 1539h-159v158h159v-158zM502 1336h-158v158h158v-158zM286 1336h-158v158h158v-158z" />
    <glyph glyph-name="uni06B4.medi" unicode="&#x6b4;" horiz-adv-x="716" 
d="M735 1184l-684 -163l-40 71l689 165zM811 1027l-586.001 -138c-44.667 -10.667 -67 -27.667 -67 -51c0 -16 10 -43 30 -81l178 -336c54.667 -103.333 111.334 -172.333 170.001 -207c40.667 -24 94 -36 160 -36h20v-178h-44c-48.667 -0 -100 13.833 -154 41.5
s-94.667 61.167 -122 100.5c-42.667 -94 -136.667 -141.333 -282 -142h-184v178h192c93.333 0 140 26.667 140 80c0 29.333 -13 69 -39 119l-176 339c-17.333 33.333 -26 67 -26 101c0 97.333 51 158.333 153 183l580 141zM392.999 1525h-159v158h159v-158zM499.999 1322
h-158v158h158v-158zM283.999 1322h-158v158h158v-158z" />
    <glyph glyph-name="uni06B4.fina" unicode="&#x6b4;" horiz-adv-x="1842" 
d="M1859 1184l-684 -163l-40 71l689 165zM1935 1027l-585.998 -137.997c-44 -10.667 -66 -27.334 -66 -50.001c0 -18.667 9.66699 -46 29 -82l179 -336c55.333 -103.333 111.666 -172.333 168.999 -207c40 -24 93.667 -36 161 -36h21v-178h-46
c-48.667 0.666992 -100 14.667 -154 42s-94.667 60.666 -122 99.999c-42 -94 -136.333 -141 -283 -141h-759c-94.667 0 -171.334 26.667 -230.001 80c-60.667 55.333 -91 129.666 -91 222.999v75h145v-40c0 -107.333 55 -161 165 -161h780c92.667 0 139 26.667 139 80
c0 29.333 -13 69 -39 119l-176 339c-16.667 32 -25 65.667 -25 101c0 97.333 50.667 158.333 152 183l581 141zM1529 1534h-159v158h159v-158zM1636 1331h-158v158h158v-158zM1420 1331h-158v158h158v-158z" />
    <glyph glyph-name="uni06B5.init" unicode="&#x6b5;" horiz-adv-x="341" 
d="M312 1157l27 -881c0 -183.333 -103.667 -275.333 -311 -276h-98v178h101c32 0 58 2.16699 78 6.5s35.833 11.5 47.5 21.5s19.5 23.167 23.5 39.5s6 36.833 6 61.5l-27 850h153zM396 1629c-12 -9.33301 -25.167 -24.668 -39.5 -46.001s-28.666 -46.333 -42.999 -75
s-27.833 -60.167 -40.5 -94.5s-23.334 -69.166 -32.001 -104.499h-54c-9.33301 36 -20.666 71.167 -33.999 105.5s-27 65.833 -41 94.5s-28 53.5 -42 74.5s-26.667 36.167 -38 45.5l105 2c17.333 -25.333 32.166 -56.333 44.499 -93s22.833 -75 31.5 -115
c8.66699 40 19.5 78.333 32.5 115s28.167 67.667 45.5 93z" />
    <glyph glyph-name="uni06B5.medi" unicode="&#x6b5;" horiz-adv-x="542" 
d="M542 0h-29c-20.667 -0 -42.167 3.33301 -64.5 10s-43.5 15.834 -63.5 27.501s-38.167 25.167 -54.5 40.5s-28.5 32 -36.5 50c-38.667 -84.667 -127.334 -127.334 -266.001 -128.001h-98v178h101c60.667 0 100.334 7.33301 119.001 22c24 18.667 36 58.667 36 120v837h153
v-765c0 -142.667 55.667 -214 167 -214h36v-178zM441 1619c-12 -9.33301 -25.167 -24.668 -39.5 -46.001s-28.666 -46.333 -42.999 -75s-27.833 -60.167 -40.5 -94.5s-23.334 -69.166 -32.001 -104.499h-54c-9.33301 36 -20.666 71.167 -33.999 105.5s-27 65.833 -41 94.5
s-28 53.5 -42 74.5s-26.667 36.167 -38 45.5l105 2c17.333 -25.333 32.166 -56.333 44.499 -93s22.833 -75 31.5 -115c8.66699 40 19.5 78.333 32.5 115s28.167 67.667 45.5 93z" />
    <glyph glyph-name="uni06B5.fina" unicode="&#x6b5;" horiz-adv-x="1393" 
d="M1062 1158l28 -748.001c1.33301 -33.333 9.83301 -64.166 25.5 -92.499s36.334 -52.833 62.001 -73.5s54.667 -36.834 87 -48.501s66.166 -17.5 101.499 -17.5h40v-178h-60c-23.333 0 -47.5 3.66699 -72.5 11s-48.833 17 -71.5 29s-43.167 25.833 -61.5 41.5
s-32.833 32.5 -43.5 50.5l5 -164c0 -126.667 -39 -235.334 -117 -326.001c-95.333 -111.333 -231 -167 -407 -167c-72 0 -136.167 10.333 -192.5 31s-104 50.834 -143 90.501s-68.667 87.834 -89 144.501s-30.5 121 -30.5 193c0 90 19 184 57 282l129 -38
c-31.333 -84.667 -47 -164 -47 -238c0 -46 7.66699 -87.167 23 -123.5s37 -67.333 65 -93s62.167 -45.167 102.5 -58.5s85.5 -20 135.5 -20s97 7.16699 141 21.5s82.5 34.5 115.5 60.5s59 57.333 78 94s28.5 77.667 28.5 123l-53 1214h164zM1128 1687
c-12 -9.33301 -25.167 -24.668 -39.5 -46.001s-28.666 -46.333 -42.999 -75s-27.833 -60.167 -40.5 -94.5s-23.334 -69.166 -32.001 -104.499h-54c-9.33301 36 -20.666 71.167 -33.999 105.5s-27 65.833 -41 94.5s-28 53.5 -42 74.5s-26.667 36.167 -38 45.5l105 2
c17.333 -25.333 32.166 -56.333 44.499 -93s22.833 -75 31.5 -115c8.66699 40 19.5 78.333 32.5 115s28.167 67.667 45.5 93z" />
    <glyph glyph-name="uni06B6.init" unicode="&#x6b6;" horiz-adv-x="374" 
d="M312 1157l27 -881c0 -183.333 -103.667 -275.333 -311 -276h-98v178h101c32 0 58 2.16699 78 6.5s35.833 11.5 47.5 21.5s19.5 23.167 23.5 39.5s6 36.833 6 61.5l-27 850h153zM292 1307h-159v158h159v-158z" />
    <glyph glyph-name="uni06B6.medi" unicode="&#x6b6;" horiz-adv-x="542" 
d="M542 0h-29c-20.667 -0 -42.167 3.33301 -64.5 10s-43.5 15.834 -63.5 27.501s-38.167 25.167 -54.5 40.5s-28.5 32 -36.5 50c-38.667 -84.667 -127.334 -127.334 -266.001 -128.001h-98v178h101c60.667 0 100.334 7.33301 119.001 22c24 18.667 36 58.667 36 120v837h153
v-765c0 -142.667 55.667 -214 167 -214h36v-178zM327 1302h-159v158h159v-158z" />
    <glyph glyph-name="uni06B6.fina" unicode="&#x6b6;" horiz-adv-x="1384" 
d="M1062 1158l28 -748.001c1.33301 -33.333 9.83301 -64.166 25.5 -92.499s36.334 -52.833 62.001 -73.5s54.667 -36.834 87 -48.501s66.166 -17.5 101.499 -17.5h40v-178h-60c-23.333 0 -47.5 3.66699 -72.5 11s-48.833 17 -71.5 29s-43.167 25.833 -61.5 41.5
s-32.833 32.5 -43.5 50.5l5 -164c0 -126.667 -39 -235.334 -117 -326.001c-95.333 -111.333 -231 -167 -407 -167c-72 0 -136.167 10.333 -192.5 31s-104 50.834 -143 90.501s-68.667 87.834 -89 144.501s-30.5 121 -30.5 193c0 90 19 184 57 282l129 -38
c-31.333 -84.667 -47 -164 -47 -238c0 -46 7.66699 -87.167 23 -123.5s37 -67.333 65 -93s62.167 -45.167 102.5 -58.5s85.5 -20 135.5 -20s97 7.16699 141 21.5s82.5 34.5 115.5 60.5s59 57.333 78 94s28.5 77.667 28.5 123l-53 1214h164zM1026 1345h-159v158h159v-158z
" />
    <glyph glyph-name="uni06B7.init" unicode="&#x6b7;" horiz-adv-x="374" 
d="M312 1157l27 -881c0 -183.333 -103.667 -275.333 -311 -276h-98v178h101c32 0 58 2.16699 78 6.5s35.833 11.5 47.5 21.5s19.5 23.167 23.5 39.5s6 36.833 6 61.5l-27 850h153zM288 1494h-159v158h159v-158zM395 1291h-158v158h158v-158zM179 1291h-158v158h158v-158z
" />
    <glyph glyph-name="uni06B7.medi" unicode="&#x6b7;" horiz-adv-x="542" 
d="M542 0h-29c-20.667 -0 -42.167 3.33301 -64.5 10s-43.5 15.834 -63.5 27.501s-38.167 25.167 -54.5 40.5s-28.5 32 -36.5 50c-38.667 -84.667 -127.334 -127.334 -266.001 -128.001h-98v178h101c60.667 0 100.334 7.33301 119.001 22c24 18.667 36 58.667 36 120v837h153
v-765c0 -142.667 55.667 -214 167 -214h36v-178zM325 1521h-159v158h159v-158zM432 1318h-158v158h158v-158zM216 1318h-158v158h158v-158z" />
    <glyph glyph-name="uni06B7.fina" unicode="&#x6b7;" horiz-adv-x="1403" 
d="M1062 1158l28 -748.001c1.33301 -33.333 9.83301 -64.166 25.5 -92.499s36.334 -52.833 62.001 -73.5s54.667 -36.834 87 -48.501s66.166 -17.5 101.499 -17.5h40v-178h-60c-23.333 0 -47.5 3.66699 -72.5 11s-48.833 17 -71.5 29s-43.167 25.833 -61.5 41.5
s-32.833 32.5 -43.5 50.5l5 -164c0 -126.667 -39 -235.334 -117 -326.001c-95.333 -111.333 -231 -167 -407 -167c-72 0 -136.167 10.333 -192.5 31s-104 50.834 -143 90.501s-68.667 87.834 -89 144.501s-30.5 121 -30.5 193c0 90 19 184 57 282l129 -38
c-31.333 -84.667 -47 -164 -47 -238c0 -46 7.66699 -87.167 23 -123.5s37 -67.333 65 -93s62.167 -45.167 102.5 -58.5s85.5 -20 135.5 -20s97 7.16699 141 21.5s82.5 34.5 115.5 60.5s59 57.333 78 94s28.5 77.667 28.5 123l-53 1214h164zM1009 1534h-159v158h159v-158z
M1116 1331h-158v158h158v-158zM900 1331h-158v158h158v-158z" />
    <glyph glyph-name="uni06B8.init" unicode="&#x6b8;" horiz-adv-x="374" 
d="M312 1157l27 -881c0 -183.333 -103.667 -275.333 -311 -276h-98v178h101c32 0 58 2.16699 78 6.5s35.833 11.5 47.5 21.5s19.5 23.167 23.5 39.5s6 36.833 6 61.5l-27 850h153zM346 -369h-159v158h159v-158zM129 -369h-157v158h157v-158zM237 -572h-159v158h159v-158z
" />
    <glyph glyph-name="uni06B8.medi" unicode="&#x6b8;" horiz-adv-x="542" 
d="M542 0h-29c-20.667 -0 -42.167 3.33301 -64.5 10s-43.5 15.834 -63.5 27.501s-38.167 25.167 -54.5 40.5s-28.5 32 -36.5 50c-38.667 -84.667 -127.334 -127.334 -266.001 -128.001h-98v178h101c60.667 0 100.334 7.33301 119.001 22c24 18.667 36 58.667 36 120v837h153
v-765c0 -142.667 55.667 -214 167 -214h36v-178zM423 -368h-159v158h159v-158zM206 -368h-157v158h157v-158zM314 -571h-159v158h159v-158z" />
    <glyph glyph-name="uni06B8.fina" unicode="&#x6b8;" horiz-adv-x="1399" 
d="M1062 1158l28 -748.001c1.33301 -33.333 9.83301 -64.166 25.5 -92.499s36.334 -52.833 62.001 -73.5s54.667 -36.834 87 -48.501s66.166 -17.5 101.499 -17.5h40v-178h-60c-23.333 0 -47.5 3.66699 -72.5 11s-48.833 17 -71.5 29s-43.167 25.833 -61.5 41.5
s-32.833 32.5 -43.5 50.5l5 -164c0 -126.667 -39 -235.334 -117 -326.001c-95.333 -111.333 -231 -167 -407 -167c-72 0 -136.167 10.333 -192.5 31s-104 50.834 -143 90.501s-68.667 87.834 -89 144.501s-30.5 121 -30.5 193c0 90 19 184 57 282l129 -38
c-31.333 -84.667 -47 -164 -47 -238c0 -46 7.66699 -87.167 23 -123.5s37 -67.333 65 -93s62.167 -45.167 102.5 -58.5s85.5 -20 135.5 -20s97 7.16699 141 21.5s82.5 34.5 115.5 60.5s59 57.333 78 94s28.5 77.667 28.5 123l-53 1214h164zM806 -820.001h-159v158h159v-158z
M589 -820.001h-157v158h157v-158zM697 -1023h-159v158h159v-158z" />
    <glyph glyph-name="uni06B9.init" unicode="&#x6b9;" horiz-adv-x="449" 
d="M399 252c0 -63.333 -19.333 -118.334 -58 -165.001c-48 -57.333 -116.667 -86.333 -206 -87h-205v178h202c74.667 0 112 27.333 112 82c0 22.667 -8 48.334 -24 77.001l-92 163l129 91c52.667 -95.333 84.667 -155.333 96 -180c30.667 -66 46 -119 46 -159zM228 727.999
h-159v158h159v-158zM231 -335.001h-159v158h159v-158z" />
    <glyph glyph-name="uni06B9.medi" unicode="&#x6b9;" horiz-adv-x="538" 
d="M538 0l-25 -0.000976562c-104 0 -178.333 38 -223 114c-46 -76 -115 -114 -207 -114h-153v178h113c62 -0.666992 101.333 12 118 38c11.333 18 17 58.667 17 122v212h154v-164c0 -85.333 15.667 -142.666 47 -171.999c26 -24 73.667 -36 143 -36h16v-178zM303 727.999
h-159v158h159v-158zM310 -333.001h-159v158h159v-158z" />
    <glyph glyph-name="uni06B9.fina" unicode="&#x6b9;" horiz-adv-x="1472" 
d="M731 463h-159v158h159v-158zM729 -809h-159v158h159v-158zM1472 0l-34.001 -0.00195312c-67.333 0.666992 -121.666 15 -162.999 43c0 -135.333 -19.333 -238.333 -58 -309c-50.667 -92.667 -129.334 -165.667 -236.001 -219c-98.667 -49.333 -204 -74 -316 -74
c-180 0 -319.333 49 -418 147c-86.667 86 -130 195 -130 327c0 119.333 26 234 78 344l129 -39c-38 -112 -57 -204.667 -57 -278c0 -121.333 47.333 -210.666 142 -267.999c68.667 -41.333 150.334 -62 245.001 -62c119.333 0 223 27 311 81c104 63.333 156 151 156 263
c0 16.667 -2 36.334 -6 59.001c-22 124 -74.333 256.667 -157 398l133 84c61.333 -127.333 113.333 -210.333 156 -249c50.667 -46.667 124.667 -70 222 -70h3v-178z" />
    <glyph glyph-name="uni06BC.init" unicode="&#x6bc;" horiz-adv-x="449" 
d="M399 252c0 -63.333 -19.333 -118.334 -58 -165.001c-48 -57.333 -116.667 -86.333 -206 -87h-205v178h202c74.667 0 112 27.333 112 82c0 22.667 -8 48.334 -24 77.001l-92 163l129 91c52.667 -95.333 84.667 -155.333 96 -180c30.667 -66 46 -119 46 -159zM141 685.999
h-159v158h159v-158zM312 -123.001c0 -44.667 -15.667 -82.835 -47 -114.502s-69.666 -47.5 -114.999 -47.5c-44 0 -82 16 -114 48s-48 70 -48 114c0 42.667 16.5 80.334 49.5 113.001s70.5 49 112.5 49c41.333 0 78.666 -16.667 111.999 -50s50 -70.666 50 -111.999z
M233 -120.002c0 23.333 -8.5 42.5 -25.5 57.5s-37.167 22.5 -60.5 22.5c-20.667 0 -39.167 -8.5 -55.5 -25.5s-24.5 -36.167 -24.5 -57.5c0 -55.333 27.667 -83 83 -83s83 28.667 83 86z" />
    <glyph glyph-name="uni06BC.medi" unicode="&#x6bc;" horiz-adv-x="538" 
d="M538 0l-25 -0.000976562c-104 0 -178.333 38 -223 114c-46 -76 -115 -114 -207 -114h-153v178h113c62 -0.666992 101.333 12 118 38c11.333 18 17 58.667 17 122v212h154v-164c0 -85.333 15.667 -142.666 47 -171.999c26 -24 73.667 -36 143 -36h16v-178zM219 686.999
h-159v158h159v-158zM299 -123.001c0 -44.667 -15.667 -82.835 -47 -114.502s-69.666 -47.5 -114.999 -47.5c-44 0 -82 16 -114 48s-48 70 -48 114c0 42.667 16.5 80.334 49.5 113.001s70.5 49 112.5 49c41.333 0 78.666 -16.667 111.999 -50s50 -70.666 50 -111.999z
M220 -120.002c0 23.333 -8.5 42.5 -25.5 57.5s-37.167 22.5 -60.5 22.5c-20.667 0 -39.167 -8.5 -55.5 -25.5s-24.5 -36.167 -24.5 -57.5c0 -55.333 27.667 -83 83 -83s83 28.667 83 86z" />
    <glyph glyph-name="uni06BC.fina" unicode="&#x6bc;" horiz-adv-x="1472" 
d="M719 442h-159v158h159v-158zM1472 0l-34.001 -0.00195312c-67.333 0.666992 -121.666 15 -162.999 43c0 -135.333 -19.333 -238.333 -58 -309c-50.667 -92.667 -129.334 -165.667 -236.001 -219c-98.667 -49.333 -204 -74 -316 -74c-180 0 -319.333 49 -418 147
c-86.667 86 -130 195 -130 327c0 119.333 26 234 78 344l129 -39c-38 -112 -57 -204.667 -57 -278c0 -121.333 47.333 -210.666 142 -267.999c68.667 -41.333 150.334 -62 245.001 -62c119.333 0 223 27 311 81c104 63.333 156 151 156 263c0 16.667 -2 36.334 -6 59.001
c-22 124 -74.333 256.667 -157 398l133 84c61.333 -127.333 113.333 -210.333 156 -249c50.667 -46.667 124.667 -70 222 -70h3v-178zM883.999 -678.002c0 -44.667 -15.667 -82.835 -47 -114.502s-69.666 -47.5 -114.999 -47.5c-44 0 -82 16 -114 48s-48 70 -48 114
c0 42.667 16.5 80.334 49.5 113.001s70.5 49 112.5 49c41.333 0 78.666 -16.667 111.999 -50s50 -70.666 50 -111.999zM804.999 -675.003c0 23.333 -8.5 42.5 -25.5 57.5s-37.167 22.5 -60.5 22.5c-20.667 0 -39.167 -8.5 -55.5 -25.5s-24.5 -36.167 -24.5 -57.5
c0 -55.333 27.667 -83 83 -83s83 28.667 83 86z" />
    <glyph glyph-name="uni06BD.fina" unicode="&#x6bd;" horiz-adv-x="1472" 
d="M1472 0l-34.001 -0.00195312c-67.333 0.666992 -121.666 15 -162.999 43c0 -135.333 -19.333 -238.333 -58 -309c-50.667 -92.667 -129.334 -165.667 -236.001 -219c-98.667 -49.333 -204 -74 -316 -74c-180 0 -319.333 49 -418 147c-86.667 86 -130 195 -130 327
c0 119.333 26 234 78 344l129 -39c-38 -112 -57 -204.667 -57 -278c0 -121.333 47.333 -210.666 142 -267.999c68.667 -41.333 150.334 -62 245.001 -62c119.333 0 223 27 311 81c104 63.333 156 151 156 263c0 16.667 -2 36.334 -6 59.001
c-22 124 -74.333 256.667 -157 398l133 84c61.333 -127.333 113.333 -210.333 156 -249c50.667 -46.667 124.667 -70 222 -70h3v-178zM716.999 643.998h-159v158h159v-158zM823.999 440.998h-158v158h158v-158zM607.999 440.998h-158v158h158v-158z" />
    <glyph glyph-name="uni06BF.init" unicode="&#x6bf;" horiz-adv-x="949" 
d="M907 117l-83 -117h-894v178h710l-289 255c-43.333 46.667 -93 70 -149 70h-114v152h148c64 0 123.667 -26 179 -78zM496 -342h-159v158h159v-158zM279 -342h-157v158h157v-158zM387 -545h-159v158h159v-158zM348 794h-159v158h159v-158z" />
    <glyph glyph-name="uni06BF.medi" unicode="&#x6bf;" horiz-adv-x="1230" 
d="M1230 0l-113.999 -0.000976562c-152 0.666992 -279 100.334 -381 299.001c-144.667 -123.333 -256 -204.666 -334 -243.999c-73.333 -36 -157 -54.333 -251 -55h-220v178h131c103.333 0 190 12 260 36c28 9.33301 60.167 24.166 96.5 44.499s76.833 45.833 121.5 76.5
l103 73.5l103 75.5c-120 5.33301 -217.5 9.33301 -292.5 12s-127.833 4 -158.5 4c-60.667 0 -116.334 -19.333 -167.001 -58l-58 117c72.667 60 150.667 90 234 90h16l790 -36v-145c-105.333 0 -201.333 -34.333 -288 -103c48.667 -61.333 89.667 -103.333 123 -126
c57.333 -40.667 126.333 -61 207 -61h79v-178zM723.001 -343.001h-159v158h159v-158zM506.001 -343.001h-157v158h157v-158zM614.001 -546.001h-159v158h159v-158zM594.001 837.999h-159v158h159v-158z" />
    <glyph glyph-name="uni06BF.fina" unicode="&#x6bf;" horiz-adv-x="1327" 
d="M1327 0l-143.001 -0.00488281c-116 0.666992 -203.667 26.334 -263 77.001c-44.667 36.667 -97.667 114.334 -159 233.001c-111.333 -52.667 -208.666 -119.667 -291.999 -201c-114 -112 -171 -227.333 -171 -346c0 -48.667 11.5 -93.667 34.5 -135
s55.167 -77.166 96.5 -107.499s90.5 -54 147.5 -71s119.167 -25.5 186.5 -25.5c152.667 0 301.667 31.333 447 94l66 -132c-176 -81.333 -348.333 -122 -517 -122c-94 0 -178.333 11.667 -253 35s-138 57.333 -190 102s-91.667 99.667 -119 165s-41 140.333 -41 225
c0 162.667 91.667 316 275 460c96 74.667 236 156.667 420 246c-115.333 7.33301 -206.333 12.833 -273 16.5s-109.667 5.5 -129 5.5c-66 0 -127.667 -20.667 -185 -62l-55 122c72 56 152 84 240 84h22l760 -37v-152c-48.667 0 -112 -12 -190 -36
c-80.667 -25.333 -139.667 -51.666 -177 -78.999c20 -30.667 39.333 -56.667 58 -78s36.667 -37.666 54 -48.999c52.667 -36 126 -54 220 -54h130v-178zM919.999 -243.005h-159v158h159v-158zM702.999 -243.005h-157v158h157v-158zM810.999 -446.005h-159v158h159v-158z
M767.999 853.995h-159v158h159v-158z" />
    <glyph glyph-name="uni06C4.fina" unicode="&#x6c4;" horiz-adv-x="1060" 
d="M1060 0l-211.002 0.000976562c-56.667 -202 -298.667 -408 -726 -618l-78 134c350.667 166 568 328 652 486h-119c-87.333 0 -155.166 24 -203.499 72s-72.5 116 -72.5 204c0 64 23.667 118.667 71 164s103 68 167 68c64.667 0 126.334 -24 185.001 -72
c74 -60.667 118.333 -147.334 133 -260.001h202v-178zM707.998 175.001c-2 52 -23.999 96.334 -65.999 133.001c-35.333 31.333 -69 47 -101 47c-25.333 0 -49 -7.66699 -71 -23c-24 -16.667 -36 -37.334 -36 -62.001c0 -30 12 -54 36 -72
c21.333 -15.333 47.666 -23 78.999 -23h159zM563.999 -581.998c0 -44.667 -15.667 -82.835 -47 -114.502s-69.666 -47.5 -114.999 -47.5c-44 0 -82 16 -114 48s-48 70 -48 114c0 42.667 16.5 80.334 49.5 113.001s70.5 49 112.5 49c41.333 0 78.666 -16.667 111.999 -50
s50 -70.666 50 -111.999zM484.999 -578.999c0 23.333 -8.5 42.5 -25.5 57.5s-37.167 22.5 -60.5 22.5c-20.667 0 -39.167 -8.5 -55.5 -25.5s-24.5 -36.167 -24.5 -57.5c0 -55.333 27.667 -83 83 -83s83 28.667 83 86z" />
    <glyph glyph-name="uni06CA.fina" unicode="&#x6ca;" horiz-adv-x="1060" 
d="M1060 0l-211.002 0.000976562c-56.667 -202 -298.667 -408 -726 -618l-78 134c350.667 166 568 328 652 486h-119c-87.333 0 -155.166 24 -203.499 72s-72.5 116 -72.5 204c0 64 23.667 118.667 71 164s103 68 167 68c64.667 0 126.334 -24 185.001 -72
c74 -60.667 118.333 -147.334 133 -260.001h202v-178zM707.998 175.001c-2 52 -23.999 96.334 -65.999 133.001c-35.333 31.333 -69 47 -101 47c-25.333 0 -49 -7.66699 -71 -23c-24 -16.667 -36 -37.334 -36 -62.001c0 -30 12 -54 36 -72
c21.333 -15.333 47.666 -23 78.999 -23h159zM701.999 638.002h-158v158h158v-158zM485.999 638.002h-158v158h158v-158z" />
    <glyph glyph-name="uni06CD.fina" unicode="&#x6cd;" horiz-adv-x="1447" 
d="M1447 0l-97.999 -0.000976562c36.667 -46 55 -92 55 -138c0 -86 -67.667 -171.333 -203 -256c-150 -94 -324 -141 -522 -141c-176.667 0 -311.334 52.333 -404.001 157c-78.667 88.667 -118 200.334 -118 335.001c0 86 6.33301 157.667 19 215l-213 -82l-17 68l243 60v-3
l1 3l131 -39c-16 -70.667 -24 -128 -24 -172c0 -86.667 20.333 -160.667 61 -222c65.333 -98.667 175.333 -148 330 -148c94 0 188.667 14.333 284 43c110 33.333 193.333 79 250 137c15.333 15.333 23 30.333 23 45c0 24.667 -20.667 50 -62 76
c-64 40 -202 73.667 -414 101l41 139h637v-178z" />
    <glyph glyph-name="uni06CE.init" unicode="&#x6ce;" horiz-adv-x="449" 
d="M399 252c0 -63.333 -19.333 -118.334 -58 -165.001c-48 -57.333 -116.667 -86.333 -206 -87h-205v178h202c74.667 0 112 27.333 112 82c0 22.667 -8 48.334 -24 77.001l-92 163l129 91c52.667 -95.333 84.667 -155.333 96 -180c30.667 -66 46 -119 46 -159zM299 1054
c-12 -9.33301 -25.167 -24.668 -39.5 -46.001s-28.666 -46.333 -42.999 -75s-27.833 -60.167 -40.5 -94.5s-23.334 -69.166 -32.001 -104.499h-54c-9.33301 36 -20.666 71.167 -33.999 105.5s-27 65.833 -41 94.5s-28 53.5 -42 74.5s-26.667 36.167 -38 45.5l105 2
c17.333 -25.333 32.166 -56.333 44.499 -93s22.833 -75 31.5 -115c8.66699 40 19.5 78.333 32.5 115s28.167 67.667 45.5 93zM354 -362.003h-158v158h158v-158zM138 -362.003h-158v158h158v-158z" />
    <glyph glyph-name="uni06CE.medi" unicode="&#x6ce;" horiz-adv-x="538" 
d="M538 0l-25 -0.000976562c-104 0 -178.333 38 -223 114c-46 -76 -115 -114 -207 -114h-153v178h113c62 -0.666992 101.333 12 118 38c11.333 18 17 58.667 17 122v212h154v-164c0 -85.333 15.667 -142.666 47 -171.999c26 -24 73.667 -36 143 -36h16v-178zM433 1017
c-12 -9.33301 -25.167 -24.668 -39.5 -46.001s-28.666 -46.333 -42.999 -75s-27.833 -60.167 -40.5 -94.5s-23.334 -69.166 -32.001 -104.499h-54c-9.33301 36 -20.666 71.167 -33.999 105.5s-27 65.833 -41 94.5s-28 53.5 -42 74.5s-26.667 36.167 -38 45.5l105 2
c17.333 -25.333 32.166 -56.333 44.499 -93s22.833 -75 31.5 -115c8.66699 40 19.5 78.333 32.5 115s28.167 67.667 45.5 93zM447 -365.003h-158v158h158v-158zM231 -365.003h-158v158h158v-158z" />
    <glyph glyph-name="uni06CE.fina" unicode="&#x6ce;" horiz-adv-x="1447" 
d="M1447 0l-97.999 -0.000976562c36.667 -46 55 -92 55 -138c0 -86 -67.667 -171.333 -203 -256c-150 -94 -324 -141 -522 -141c-176.667 0 -311.334 52.333 -404.001 157c-78.667 88.667 -118 200.334 -118 335.001c0 111.333 11 198.333 33 261l131 -39
c-16 -70.667 -24 -128 -24 -172c0 -86.667 20.333 -160.667 61 -222c65.333 -98.667 175.333 -148 330 -148c94 0 188.667 14.333 284 43c110 33.333 193.333 79 250 137c15.333 15.333 23 30.333 23 45c0 24.667 -20.667 50 -62 76c-64 40 -202 73.667 -414 101l41 139h637
v-178zM759.001 678.999c-12 -9.33301 -25.167 -24.668 -39.5 -46.001s-28.666 -46.333 -42.999 -75s-27.833 -60.167 -40.5 -94.5s-23.334 -69.166 -32.001 -104.499h-54c-9.33301 36 -20.666 71.167 -33.999 105.5s-27 65.833 -41 94.5s-28 53.5 -42 74.5
s-26.667 36.167 -38 45.5l105 2c17.333 -25.333 32.166 -56.333 44.499 -93s22.833 -75 31.5 -115c8.66699 40 19.5 78.333 32.5 115s28.167 67.667 45.5 93z" />
    <glyph glyph-name="uni06CF.fina" unicode="&#x6cf;" horiz-adv-x="1060" 
d="M1060 0l-211.002 0.000976562c-56.667 -202 -298.667 -408 -726 -618l-78 134c350.667 166 568 328 652 486h-119c-87.333 0 -155.166 24 -203.499 72s-72.5 116 -72.5 204c0 64 23.667 118.667 71 164s103 68 167 68c64.667 0 126.334 -24 185.001 -72
c74 -60.667 118.333 -147.334 133 -260.001h202v-178zM707.998 175.001c-2 52 -23.999 96.334 -65.999 133.001c-35.333 31.333 -69 47 -101 47c-25.333 0 -49 -7.66699 -71 -23c-24 -16.667 -36 -37.334 -36 -62.001c0 -30 12 -54 36 -72
c21.333 -15.333 47.666 -23 78.999 -23h159zM577.999 686.002h-159v158h159v-158z" />
    <glyph glyph-name="uni06D1.fina" unicode="&#x6d1;" horiz-adv-x="1447" 
d="M925 -830h-159v158h159v-158zM708 -830h-157v158h157v-158zM816 -1033h-159v158h159v-158zM1447 0l-97.999 -0.000976562c36.667 -46 55 -92 55 -138c0 -86 -67.667 -171.333 -203 -256c-150 -94 -324 -141 -522 -141c-176.667 0 -311.334 52.333 -404.001 157
c-78.667 88.667 -118 200.334 -118 335.001c0 111.333 11 198.333 33 261l131 -39c-16 -70.667 -24 -128 -24 -172c0 -86.667 20.333 -160.667 61 -222c65.333 -98.667 175.333 -148 330 -148c94 0 188.667 14.333 284 43c110 33.333 193.333 79 250 137
c15.333 15.333 23 30.333 23 45c0 24.667 -20.667 50 -62 76c-64 40 -202 73.667 -414 101l41 139h637v-178z" />
    <glyph glyph-name="uni06FA.init" unicode="&#x6fa;" horiz-adv-x="1192" 
d="M1158 240c0 -76 -25.166 -138.331 -75.499 -186.998s-113.833 -73 -190.5 -73c-110.667 0 -189 41.667 -235 125c-54.667 -76 -113.334 -114 -176.001 -114c-97.333 0 -167 41.333 -209 124c-26.667 -46.667 -61.667 -78.334 -105 -95.001
c-32.667 -12.667 -79.334 -19.334 -140.001 -20.001h-97v178h116c50.667 0 86 11.667 106 35c18 21.333 27 58 27 110v213h139l1 -86c2 -190 57.333 -285 166 -285c33.333 0 55.333 18.333 66 55c6.66699 23.333 10 72 10 146v170h141v-130c0 -66 15 -122.667 45 -170
c34.667 -54.667 83.334 -82 146.001 -82c71.333 0 107 29.667 107 89c0 38 -35.333 116.667 -106 236l125 87c92.667 -163.333 139 -272 139 -326zM696.001 919.002h-159v158h159v-158zM803.001 716.002h-158v158h158v-158zM587.001 716.002h-158v158h158v-158z
M694.001 -361.998h-159v158h159v-158z" />
    <glyph glyph-name="uni06FA.medi" unicode="&#x6fa;" horiz-adv-x="1296" 
d="M1296 0h-29.002c-42 0 -83.667 10.667 -125 32c-44 22 -75 50.667 -93 86c-47.333 -83.333 -111.666 -125 -192.999 -125c-87.333 0 -151.666 41.333 -192.999 124c-48 -83.333 -108.667 -125 -182 -125c-94.667 0 -163.667 41.667 -207 125
c-38.667 -77.333 -102 -116.333 -190 -117h-154v178h144c70 0 105 31.667 105 95v270h145v-77c0 -198 51.667 -297 155 -297c50 0 75 34.667 75 104v270h144v-77c0 -198 54.667 -297 164 -297c54 0 81 34.667 81 104v271h144v-167c0 -132.667 51.667 -199 155 -199h54v-178z
M703.998 929h-159v158h159v-158zM810.998 726h-158v158h158v-158zM594.998 726h-158v158h158v-158zM717.998 -364h-159v158h159v-158z" />
    <glyph glyph-name="uni06FA.fina" unicode="&#x6fa;" horiz-adv-x="2252" 
d="M2252 0l-28 -0.00195312c-42 0 -84 10.667 -126 32c-44.667 22.667 -76.334 51.334 -95.001 86.001c-47.333 -83.333 -111 -125 -191 -125c-92.667 0 -160 41.333 -202 124c-43.333 -77.333 -100.666 -116 -171.999 -116c-52.667 0 -101 14 -145 42
c0 -135.333 -19.333 -238.333 -58 -309c-50.667 -92.667 -129.334 -165.667 -236.001 -219c-98.667 -49.333 -204 -74 -316 -74c-180 0 -319.333 49 -418 147c-86.667 86 -130 195 -130 327c0 119.333 26 234 78 344l129 -39c-38 -112 -57 -204.667 -57 -278
c0 -121.333 47.333 -210.666 142 -267.999c68.667 -41.333 150.334 -62 245.001 -62c119.333 0 223 27 311 81c104 63.333 156 151 156 263c0 16.667 -2 36.334 -6 59.001c-22 124 -74.333 256.667 -157 398l133 84c60.667 -108.667 100.334 -175.667 119.001 -201
c60 -81.333 119 -122 177 -122c39.333 0 66.666 6.66699 81.999 20s23 39.666 23 78.999v270h144v-77c0 -198 54.667 -297 164 -297c54 0 81 34.667 81 104v271h145v-167c0 -132.667 51.667 -199 155 -199h53v-178zM1645 957.998h-159v158h159v-158zM1752 754.998h-158v158
h158v-158zM1536 754.998h-158v158h158v-158zM1680 -359.002h-159v158h159v-158z" />
    <glyph glyph-name="uni06FB.init" unicode="&#x6fb;" horiz-adv-x="1294" 
d="M1258 370c0 -114.667 -35.168 -204.832 -105.501 -270.499s-163.5 -98.5 -279.5 -98.5h-336c-106.667 0 -187 36 -241 108c-53.333 -72 -128 -108.333 -224 -109h-142v178h88c64 0 106.333 8 127 24c24 19.333 36 59.666 36 120.999v214h157v-142
c0 -86 8.33301 -138.667 25 -158c198.667 280 395.334 420 590.001 420c80 0 150.833 -28 212.5 -84s92.5 -123.667 92.5 -203zM1105 359.002c0 42.667 -15.333 76.667 -46 102s-67.667 38 -111 38c-152.667 0 -323 -107 -511 -321h450c73.333 0 130 21 170 63
c32 34 48 73.333 48 118zM579.999 758.002h-159v158h159v-158zM592.999 -366.998h-159v158h159v-158z" />
    <glyph glyph-name="uni06FB.medi" unicode="&#x6fb;" horiz-adv-x="1445" 
d="M1445 0l-29.001 0.000976562c-107.333 0.666992 -196 33.667 -266 99c-71.333 -65.333 -163.666 -98 -276.999 -98h-336c-106.667 0 -187 36 -241 108c-53.333 -72 -128 -108.333 -224 -109h-142v178h88c64 0 106.333 8 127 24c24 19.333 36 59.666 36 120.999v214h157
v-142c0 -86 8.33301 -138.667 25 -158c198.667 280 395.334 420 590.001 420c80 0 150.833 -28 212.5 -84s92.5 -123.667 92.5 -203c0 -54 -7.66699 -101.667 -23 -143c39.333 -32.667 93.666 -49 162.999 -49h47v-178zM1105 359.001c0 42.667 -15.333 76.667 -46 102
s-67.667 38 -111 38c-152.667 0 -323 -107 -511 -321h450c73.333 0 130 21 170 63c32 34 48 73.333 48 118zM653.999 816.001h-159v158h159v-158zM666.999 -367.999h-159v158h159v-158z" />
    <glyph glyph-name="uni06FB.fina" unicode="&#x6fb;" horiz-adv-x="2346" 
d="M2346 0l-22 -0.00195312c-107.333 0.666992 -195.666 33.667 -265 99c-70.667 -65.333 -163 -98 -277 -98h-335c-71.333 0 -126.333 14 -165 42c0 -135.333 -19.333 -238.333 -58 -309c-50.667 -92.667 -129.334 -165.667 -236.001 -219
c-98.667 -49.333 -204 -74 -316 -74c-180 0 -319.333 49 -418 147c-86.667 86 -130 195 -130 327c0 119.333 26 234 78 344l129 -39c-38 -112 -57 -204.667 -57 -278c0 -121.333 47.333 -210.666 142 -267.999c68.667 -41.333 150.334 -62 245.001 -62
c119.333 0 223 27 311 81c104 63.333 156 151 156 263c0 16.667 -2 36.334 -6 59.001c-22 124 -74.333 256.667 -157 398l133 84l78 -156c27.333 -48 57 -86 89 -114c202.667 286.667 401.667 430 597 430c81.333 0 152.333 -27.667 213 -83s91 -123.333 91 -204
c0 -55.333 -7 -103 -21 -143c37.333 -32.667 91.333 -49 162 -49h39v-178zM2014 358.998c0 42.667 -16 77 -48 103c-29.333 24.667 -66 37 -110 37c-146 0 -307 -95.667 -483 -287c-8 -8.66699 -12 -15.667 -12 -21c0 -8.66699 12.667 -13 38 -13h397
c73.333 0 130 21 170 63c32 34 48 73.333 48 118zM1525 755.998h-159v158h159v-158zM1572 -370.002h-159v158h159v-158z" />
    <glyph glyph-name="uni06FC.init" unicode="&#x6fc;" horiz-adv-x="874" 
d="M829 0l-899 0.000976562v178h205c-30 56 -45 122 -45 198c0 42 8.66699 81 26 117s41.166 67.5 71.499 94.5s66.333 48.167 108 63.5s86.834 23 135.501 23c116.667 0 236.667 -39 360 -117l-73 -116c-96 54 -182.667 81 -260 81c-26 0 -51 -3.83301 -75 -11.5
s-45 -18.334 -63 -32.001s-32.5 -29.5 -43.5 -47.5s-16.5 -37.333 -16.5 -58c0 -130 75.667 -195 227 -195h342v-178zM473 864.001h-159v158h159v-158zM487 -361.999h-159v158h159v-158z" />
    <glyph glyph-name="uni06FC.medi" unicode="&#x6fc;" horiz-adv-x="745" 
d="M745 0l-45.998 0.00292969c-25.333 0 -52.833 3.66699 -82.5 11s-59.167 17 -88.5 29s-57.666 26.167 -84.999 42.5s-51 33.5 -71 51.5c-94.667 -88.667 -189.334 -133.334 -284.001 -134.001h-158v178h104c100.667 0 171.667 15 213 45
c-2.66699 2 -10.834 9.16699 -24.501 21.5l-44.5 41l-46 42.5c-14.667 13.333 -24.667 22.666 -30 27.999c-63.333 60 -95 110 -95 150c0 49.333 51 87.666 153 114.999c70.667 18 140.667 27 210 27c168 0 252 -60 252 -180c0 -68.667 -46.667 -146.667 -140 -234
c53.333 -37.333 137.666 -56 252.999 -56h10v-178zM484.002 477.003c0 22.667 -37.333 33.998 -112 33.998c-21.333 0 -43 -1.33301 -65 -4s-41.667 -6.16699 -59 -10.5s-31.5 -9.5 -42.5 -15.5s-16.5 -12.333 -16.5 -19c0 -5.33301 5.33301 -14.166 16 -26.499
s24.167 -25.666 40.5 -39.999s34.333 -29 54 -44s38.167 -27.833 55.5 -38.5c86 72 129 126.667 129 164zM408.002 792.001h-159v158h159v-158zM415.002 -360.999h-159v158h159v-158z" />
    <glyph glyph-name="uni06FC.fina" unicode="&#x6fc;" horiz-adv-x="1024" 
d="M1024 0l-61.002 0.000976562c-115.333 0.666992 -222.666 48.334 -321.999 143.001c-56 -29.333 -103.167 -55.333 -141.5 -78s-68.166 -42.334 -89.499 -59.001c-106 -82 -159 -169.333 -159 -262c0 -46.667 10 -88.5 30 -125.5s48 -68.333 84 -94
s79.167 -45.334 129.5 -59.001s106.166 -20.5 167.499 -20.5c118 0 224.667 17 320 51l44 -136c-134 -52 -271 -78 -411 -78c-73.333 0 -141.333 10.833 -204 32.5s-116.667 52.334 -162 92.001s-80.833 87 -106.5 142s-38.5 115.833 -38.5 182.5
c0 95.333 29 181.666 87 258.999c45.333 60 105 113.333 179 160l61 36.5l86 51.5l-22 21l-41.5 40l-42.5 41l-26 25c-58 54.667 -87 101.667 -87 141c0 49.333 51 87.666 153 114.999c70.667 18 141 27 211 27c38 0 72.167 -4.16699 102.5 -12.5s56.333 -20.666 78 -36.999
s38.334 -36.333 50.001 -60s17.5 -50.5 17.5 -80.5c0 -32 -19.333 -74.333 -58 -127c-33.333 -44.667 -64 -77 -92 -97c55.333 -37.333 135 -56 239 -56h25v-178zM765.998 470.001c0 23.333 -36.667 35 -110 35c-117.333 0 -176 -13.667 -176 -41c0 -28 53 -78.333 159 -151
c84.667 64.667 127 117 127 157zM669.998 783.001h-159v158h159v-158zM700.998 -338.999h-159v158h159v-158z" />
    <glyph glyph-name="uniFB51" unicode="&#x671;" horiz-adv-x="571" arabic-form="final" 
d="M571 0l-113 -0.000976562c-200.667 0.666992 -301 121.667 -301 363v797h168v-783c0 -67.333 9.66699 -115.666 29 -144.999c24 -36 67.333 -54 130 -54h87v-178zM2 1301c24 25.333 51.167 39.166 81.5 41.499s56.5 -3.16699 78.5 -16.5c28.667 34 55.667 60.5 81 79.5
s45.666 30.833 60.999 35.5c19.333 6.66699 36 6.83398 50 0.500977s24.667 -15.833 32 -28.5s10.833 -27 10.5 -43s-4.83301 -30.667 -13.5 -44c-17.333 -22.667 -39.333 -39.5 -66 -50.5s-57.667 -16.167 -93 -15.5s-72 10.667 -110 30
c-8 4.66699 -17.167 8.16699 -27.5 10.5s-20.666 3.83301 -30.999 4.5s-20.333 0.5 -30 -0.5s-17.5 -2.16699 -23.5 -3.5zM302 1400c-20.667 -6.66699 -40.167 -17.168 -58.5 -31.501s-37.5 -30.833 -57.5 -49.5c4.66699 -3.33301 15.5 -5.33301 32.5 -6s35.167 0 54.5 2
s38 5.83301 56 11.5s30.333 13.5 37 23.5c0.666992 5.33301 0 11.5 -2 18.5s-5.5 13.5 -10.5 19.5s-11.667 10.333 -20 13s-18.833 2.33398 -31.5 -0.999023z" />
    <glyph glyph-name="uniFB53" unicode="&#x67b;" horiz-adv-x="1923" arabic-form="final" 
d="M1923 0h-62.999c-114 0.666992 -202.333 44.667 -265 132c-45.333 -87.333 -123.333 -131 -234 -131h-914c-86.667 0 -156.667 28.5 -210 85.5s-80 129.167 -80 216.5v71h149v-34c0 -108 52 -162 156 -162h883c82.667 0 124 23.667 124 71c0 24 -11 55.667 -33 95
l-83 149l130 86l90 -169c40 -75.333 75.667 -128 107 -158c51.333 -49.333 112.666 -74 183.999 -74h59v-178zM880.001 -358l98 -98l-111 -111l-110 111l98 98l-98 98l110 111l111 -111z" />
    <glyph glyph-name="uniFB54" unicode="&#x67b;" horiz-adv-x="449" arabic-form="initial" 
d="M399 252c0 -63.333 -19.333 -118.334 -58 -165.001c-48 -57.333 -116.667 -86.333 -206 -87h-205v178h202c74.667 0 112 27.333 112 82c0 22.667 -8 48.334 -24 77.001l-92 163l129 91c52.667 -95.333 84.667 -155.333 96 -180c30.667 -66 46 -119 46 -159zM169 -388.001
l98 -98l-111 -111l-110 111l98 98l-98 98l110 111l111 -111z" />
    <glyph glyph-name="uniFB55" unicode="&#x67b;" horiz-adv-x="538" arabic-form="medial" 
d="M538 0l-25 -0.000976562c-104 0 -178.333 38 -223 114c-46 -76 -115 -114 -207 -114h-153v178h113c62 -0.666992 101.333 12 118 38c11.333 18 17 58.667 17 122v212h154v-164c0 -85.333 15.667 -142.666 47 -171.999c26 -24 73.667 -36 143 -36h16v-178zM287 -315.001
l98 -98l-111 -111l-110 111l98 98l-98 98l110 111l111 -111z" />
    <glyph glyph-name="afii62958" unicode="&#x67e;" horiz-adv-x="1923" arabic-form="final" 
d="M1923 0h-62.999c-114 0.666992 -202.333 44.667 -265 132c-45.333 -87.333 -123.333 -131 -234 -131h-914c-86.667 0 -156.667 28.5 -210 85.5s-80 129.167 -80 216.5v71h149v-34c0 -108 52 -162 156 -162h883c82.667 0 124 23.667 124 71c0 24 -11 55.667 -33 95
l-83 149l130 86l90 -169c40 -75.333 75.667 -128 107 -158c51.333 -49.333 112.666 -74 183.999 -74h59v-178zM1079 -368h-159v158h159v-158zM862.001 -368h-157v158h157v-158zM970.001 -571h-159v158h159v-158z" />
    <glyph glyph-name="afii62956" unicode="&#x67e;" horiz-adv-x="449" arabic-form="initial" 
d="M399 252c0 -63.333 -19.333 -118.334 -58 -165.001c-48 -57.333 -116.667 -86.333 -206 -87h-205v178h202c74.667 0 112 27.333 112 82c0 22.667 -8 48.334 -24 77.001l-92 163l129 91c52.667 -95.333 84.667 -155.333 96 -180c30.667 -66 46 -119 46 -159zM394 -370.001
h-159v158h159v-158zM177 -370.001h-157v158h157v-158zM285 -573.001h-159v158h159v-158z" />
    <glyph glyph-name="afii52957" unicode="&#x67e;" horiz-adv-x="538" arabic-form="medial" 
d="M538 0l-25 -0.000976562c-104 0 -178.333 38 -223 114c-46 -76 -115 -114 -207 -114h-153v178h113c62 -0.666992 101.333 12 118 38c11.333 18 17 58.667 17 122v212h154v-164c0 -85.333 15.667 -142.666 47 -171.999c26 -24 73.667 -36 143 -36h16v-178zM434 -367.001
h-159v158h159v-158zM217 -367.001h-157v158h157v-158zM325 -570.001h-159v158h159v-158z" />
    <glyph glyph-name="uniFB5B" unicode="&#x680;" horiz-adv-x="1923" arabic-form="final" 
d="M1923 0h-62.999c-114 0.666992 -202.333 44.667 -265 132c-45.333 -87.333 -123.333 -131 -234 -131h-914c-86.667 0 -156.667 28.5 -210 85.5s-80 129.167 -80 216.5v71h149v-34c0 -108 52 -162 156 -162h883c82.667 0 124 23.667 124 71c0 24 -11 55.667 -33 95
l-83 149l130 86l90 -169c40 -75.333 75.667 -128 107 -158c51.333 -49.333 112.666 -74 183.999 -74h59v-178zM979.001 -535l-98 98l98 99l99 -99zM779.001 -535l-98 98l98 99l99 -99zM876.001 -365l-98 98l98 99l99 -99zM876.001 -705l-98 98l98 99l99 -99z" />
    <glyph glyph-name="uniFB5C" unicode="&#x680;" horiz-adv-x="449" arabic-form="initial" 
d="M399 252c0 -63.333 -19.333 -118.334 -58 -165.001c-48 -57.333 -116.667 -86.333 -206 -87h-205v178h202c74.667 0 112 27.333 112 82c0 22.667 -8 48.334 -24 77.001l-92 163l129 91c52.667 -95.333 84.667 -155.333 96 -180c30.667 -66 46 -119 46 -159z
M252.729 -512.94l-91.9053 91.8037l91.9053 92.7393l92.8428 -92.7393zM65.168 -512.94l-91.9043 91.8037l91.9043 92.7393l92.8428 -92.7393zM156.136 -353.689l-91.9053 91.8027l91.9053 92.7402l92.8428 -92.7402zM156.136 -672.19l-91.9053 91.8027l91.9053 92.7402
l92.8428 -92.7402z" />
    <glyph glyph-name="uniFB5D" unicode="&#x680;" horiz-adv-x="538" arabic-form="medial" 
d="M538 0l-25 -0.000976562c-104 0 -178.333 38 -223 114c-46 -76 -115 -114 -207 -114h-153v178h113c62 -0.666992 101.333 12 118 38c11.333 18 17 58.667 17 122v212h154v-164c0 -85.333 15.667 -142.666 47 -171.999c26 -24 73.667 -36 143 -36h16v-178z
M357.007 -481.251l-92.8447 92.7607l92.8447 93.7061l93.791 -93.7061zM167.529 -481.251l-92.8438 92.7607l92.8438 93.7061l93.791 -93.7061zM259.426 -320.34l-92.8438 92.7598l92.8438 93.707l93.791 -93.707zM259.426 -642.161l-92.8438 92.7598l92.8438 93.707
l93.791 -93.707z" />
    <glyph glyph-name="uniFB5F" unicode="&#x67a;" horiz-adv-x="1923" arabic-form="final" 
d="M1923 0h-62.999c-114 0.666992 -202.333 44.667 -265 132c-45.333 -87.333 -123.333 -131 -234 -131h-914c-86.667 0 -156.667 28.5 -210 85.5s-80 129.167 -80 216.5v71h149v-34c0 -108 52 -162 156 -162h883c82.667 0 124 23.667 124 71c0 24 -11 55.667 -33 95
l-83 149l130 86l90 -169c40 -75.333 75.667 -128 107 -158c51.333 -49.333 112.666 -74 183.999 -74h59v-178zM886.001 812l98 -98l-111 -111l-110 111l98 98l-98 98l110 111l111 -111z" />
    <glyph glyph-name="uniFB60" unicode="&#x67a;" horiz-adv-x="449" arabic-form="initial" 
d="M399 252c0 -63.333 -19.333 -118.334 -58 -165.001c-48 -57.333 -116.667 -86.333 -206 -87h-205v178h202c74.667 0 112 27.333 112 82c0 22.667 -8 48.334 -24 77.001l-92 163l129 91c52.667 -95.333 84.667 -155.333 96 -180c30.667 -66 46 -119 46 -159zM169 862.999
l98 -98l-111 -111l-110 111l98 98l-98 98l110 111l111 -111z" />
    <glyph glyph-name="uniFB61" unicode="&#x67a;" horiz-adv-x="538" arabic-form="medial" 
d="M538 0l-25 -0.000976562c-104 0 -178.333 38 -223 114c-46 -76 -115 -114 -207 -114h-153v178h113c62 -0.666992 101.333 12 118 38c11.333 18 17 58.667 17 122v212h154v-164c0 -85.333 15.667 -142.666 47 -171.999c26 -24 73.667 -36 143 -36h16v-178zM258 865.999
l98 -98l-111 -111l-110 111l98 98l-98 98l110 111l111 -111z" />
    <glyph glyph-name="uniFB63" unicode="&#x67f;" horiz-adv-x="1923" arabic-form="final" 
d="M1923 0h-62.999c-114 0.666992 -202.333 44.667 -265 132c-45.333 -87.333 -123.333 -131 -234 -131h-914c-86.667 0 -156.667 28.5 -210 85.5s-80 129.167 -80 216.5v71h149v-34c0 -108 52 -162 156 -162h883c82.667 0 124 23.667 124 71c0 24 -11 55.667 -33 95
l-83 149l130 86l90 -169c40 -75.333 75.667 -128 107 -158c51.333 -49.333 112.666 -74 183.999 -74h59v-178zM954.001 758l-98 98l98 99l99 -99zM754.001 758l-98 98l98 99l99 -99zM851.001 928l-98 98l98 99l99 -99zM851.001 588l-98 98l98 99l99 -99z" />
    <glyph glyph-name="uniFB64" unicode="&#x67f;" horiz-adv-x="449" arabic-form="initial" 
d="M399 252c0 -63.333 -19.333 -118.334 -58 -165.001c-48 -57.333 -116.667 -86.333 -206 -87h-205v178h202c74.667 0 112 27.333 112 82c0 22.667 -8 48.334 -24 77.001l-92 163l129 91c52.667 -95.333 84.667 -155.333 96 -180c30.667 -66 46 -119 46 -159zM277 842.999
l-98 98l98 99l99 -99zM77 842.999l-98 98l98 99l99 -99zM174 1013l-98 98l98 99l99 -99zM174 672.999l-98 98l98 99l99 -99z" />
    <glyph glyph-name="uniFB65" unicode="&#x67f;" horiz-adv-x="538" arabic-form="medial" 
d="M538 0l-25 -0.000976562c-104 0 -178.333 38 -223 114c-46 -76 -115 -114 -207 -114h-153v178h113c62 -0.666992 101.333 12 118 38c11.333 18 17 58.667 17 122v212h154v-164c0 -85.333 15.667 -142.666 47 -171.999c26 -24 73.667 -36 143 -36h16v-178zM356 825.999
l-98 98l98 99l99 -99zM156 825.999l-98 98l98 99l99 -99zM253 995.999l-98 98l98 99l99 -99zM253 655.999l-98 98l98 99l99 -99z" />
    <glyph glyph-name="uniFB67" unicode="&#x679;" horiz-adv-x="1923" arabic-form="final" 
d="M1923 0h-62.999c-114 0.666992 -202.333 44.667 -265 132c-45.333 -87.333 -123.333 -131 -234 -131h-914c-86.667 0 -156.667 28.5 -210 85.5s-80 129.167 -80 216.5v71h149v-34c0 -108 52 -162 156 -162h883c82.667 0 124 23.667 124 71c0 24 -11 55.667 -33 95
l-83 149l130 86l90 -169c40 -75.333 75.667 -128 107 -158c51.333 -49.333 112.666 -74 183.999 -74h59v-178zM1090 759c0 -39.333 -13.668 -69.667 -41.001 -91c-22 -17.333 -49 -26 -81 -26h-222c-26.667 0 -48.667 6.33301 -66 19v37h74c14 0 23.667 4.66699 29 14
c3.33301 8 5 20 5 36v261h44v-254c18.667 23.333 40.334 43.333 65.001 60c34 23.333 66 35 96 35c26 0 48.667 -8.66699 68 -26s29 -39 29 -65zM1042 755.999c0 13.333 -5 23.999 -15 31.999s-22 12 -36 12c-50 0 -105 -34 -165 -102h146c18.667 0 34.667 4.66699 48 14
c14.667 10.667 22 25.334 22 44.001z" />
    <glyph glyph-name="uniFB68" unicode="&#x679;" horiz-adv-x="449" arabic-form="initial" 
d="M399 252c0 -63.333 -19.333 -118.334 -58 -165.001c-48 -57.333 -116.667 -86.333 -206 -87h-205v178h202c74.667 0 112 27.333 112 82c0 22.667 -8 48.334 -24 77.001l-92 163l129 91c52.667 -95.333 84.667 -155.333 96 -180c30.667 -66 46 -119 46 -159zM389 850.999
c0 -39.333 -13.668 -69.667 -41.001 -91c-22 -17.333 -49 -26 -81 -26h-222c-26.667 0 -48.667 6.33301 -66 19v37h74c14 0 23.667 4.66699 29 14c3.33301 8 5 20 5 36v261h44v-254c18.667 23.333 40.334 43.333 65.001 60c34 23.333 66 35 96 35
c26 0 48.667 -8.66699 68 -26s29 -39 29 -65zM340.999 847.998c0 13.333 -5 23.999 -15 31.999s-22 12 -36 12c-50 0 -105 -34 -165 -102h146c18.667 0 34.667 4.66699 48 14c14.667 10.667 22 25.334 22 44.001z" />
    <glyph glyph-name="uniFB69" unicode="&#x679;" horiz-adv-x="538" arabic-form="medial" 
d="M538 0l-25 -0.000976562c-104 0 -178.333 38 -223 114c-46 -76 -115 -114 -207 -114h-153v178h113c62 -0.666992 101.333 12 118 38c11.333 18 17 58.667 17 122v212h154v-164c0 -85.333 15.667 -142.666 47 -171.999c26 -24 73.667 -36 143 -36h16v-178zM441 848.999
c0 -39.333 -13.668 -69.667 -41.001 -91c-22 -17.333 -49 -26 -81 -26h-222c-26.667 0 -48.667 6.33301 -66 19v37h74c14 0 23.667 4.66699 29 14c3.33301 8 5 20 5 36v261h44v-254c18.667 23.333 40.334 43.333 65.001 60c34 23.333 66 35 96 35
c26 0 48.667 -8.66699 68 -26s29 -39 29 -65zM392.999 845.998c0 13.333 -5 23.999 -15 31.999s-22 12 -36 12c-50 0 -105 -34 -165 -102h146c18.667 0 34.667 4.66699 48 14c14.667 10.667 22 25.334 22 44.001z" />
    <glyph glyph-name="afii57371" unicode="&#x6a4;" horiz-adv-x="1875" arabic-form="final" 
d="M1875 0h-86.998c-38.667 0 -93 9 -163 27c-76.667 19.333 -126.334 39.333 -149.001 60c-28.667 -20.667 -72.334 -40.167 -131.001 -58.5s-119 -27.5 -181 -27.5h-701c-98 0 -173.5 29 -226.5 87s-79.5 136.333 -79.5 235v62h147v-48c0 -106 49.667 -159 149 -159h725
c60 0 106 5.33301 138 16c-74.667 56.667 -112 133.667 -112 231c4.66699 68 36 123.667 94 167c55.333 39.333 118.333 59 189 59c70 0 131.333 -22 184 -66c56 -46.667 84 -104 84 -172c0 -92.667 -41.333 -165.667 -124 -219c22 -10.667 53 -16 93 -16h151v-178z
M1607 396c0 30.667 -13.334 56.668 -40.001 78.001c-25.333 19.333 -53.666 29 -84.999 29c-33.333 0 -62.333 -8.33301 -87 -25c-28 -19.333 -42 -45 -42 -77c0 -34.667 11.5 -67 34.5 -97s51.167 -51 84.5 -63c30.667 9.33301 59.667 27.666 87 54.999
c32 32 48 65.333 48 100zM1531 979.001h-159v158h159v-158zM1638 776.001h-158v158h158v-158zM1422 776.001h-158v158h158v-158z" />
    <glyph glyph-name="afii57372" unicode="&#x6a4;" horiz-adv-x="669" arabic-form="initial" 
d="M631 349c0 -105.333 -26.667 -188.666 -80 -249.999c-56 -65.333 -136 -98.333 -240 -99h-381v178h395c92.667 0 144.667 40 156 120h-143c-77.333 0 -139.333 21 -186 63c-48.667 42.667 -73.667 102 -75 178c-1.33301 61.333 17 117.666 55 168.999
c42.667 54 94 81.333 154 82c108 0 194.667 -48 260 -144c56.667 -84.667 85 -183.667 85 -297zM477 460c-50 118.667 -111 178 -183 178c-28 0 -51.167 -9.66699 -69.5 -29s-27.5 -43 -27.5 -71c0 -52 40.667 -78 122 -78h158zM351 1101h-159v158h159v-158zM458 898h-158
v158h158v-158zM242 898h-158v158h158v-158z" />
    <glyph glyph-name="afii57369" unicode="&#x6a4;" horiz-adv-x="749" arabic-form="medial" 
d="M749 0l-85.999 -0.000976562c-62.667 0 -127 10 -193 30c-57.333 17.333 -97 36.333 -119 57c-27.333 -20.667 -69.333 -39.667 -126 -57c-64.667 -20 -126.667 -30 -186 -30h-109v178h124c59.333 0 105.666 5.33301 138.999 16
c-75.333 56.667 -113 133.334 -113 230.001c0 68.667 31 124.667 93 168c54.667 38.667 118 58 190 58c70 0 131.333 -22 184 -66c56 -46 84 -103 84 -171c0 -91.333 -41.333 -164.333 -124 -219c21.333 -10.667 52 -16 92 -16h150v-178zM483.001 395.999
c0 31.333 -13 56.999 -39 76.999s-55 30 -87 30c-33.333 0 -62.333 -8.33301 -87 -25c-28 -19.333 -42 -45 -42 -77c0 -34 12 -66.5 36 -97.5s52.333 -51.833 85 -62.5c33.333 10.667 63.333 30.334 90 59.001c29.333 31.333 44 63.333 44 96zM413.001 973.998h-159v158h159
v-158zM520.001 770.998h-158v158h158v-158zM304.001 770.998h-158v158h158v-158z" />
    <glyph glyph-name="uniFB6f" unicode="&#x6a6;" horiz-adv-x="1875" arabic-form="final" 
d="M1875 0h-86.998c-38.667 0 -93 9 -163 27c-76.667 19.333 -126.334 39.333 -149.001 60c-28.667 -20.667 -72.334 -40.167 -131.001 -58.5s-119 -27.5 -181 -27.5h-701c-98 0 -173.5 29 -226.5 87s-79.5 136.333 -79.5 235v62h147v-48c0 -106 49.667 -159 149 -159h725
c60 0 106 5.33301 138 16c-74.667 56.667 -112 133.667 -112 231c4.66699 68 36 123.667 94 167c55.333 39.333 118.333 59 189 59c70 0 131.333 -22 184 -66c56 -46.667 84 -104 84 -172c0 -92.667 -41.333 -165.667 -124 -219c22 -10.667 53 -16 93 -16h151v-178z
M1607 396c0 30.667 -13.334 56.668 -40.001 78.001c-25.333 19.333 -53.666 29 -84.999 29c-33.333 0 -62.333 -8.33301 -87 -25c-28 -19.333 -42 -45 -42 -77c0 -34.667 11.5 -67 34.5 -97s51.167 -51 84.5 -63c30.667 9.33301 59.667 27.666 87 54.999
c32 32 48 65.333 48 100zM1565 912.001l-98 98l98 99l99 -99zM1365 912.001l-98 98l98 99l99 -99zM1462 1082l-98 98l98 99l99 -99zM1462 742.001l-98 98l98 99l99 -99z" />
    <glyph glyph-name="uniFB70" unicode="&#x6a6;" horiz-adv-x="669" arabic-form="initial" 
d="M631 349c0 -105.333 -26.667 -188.666 -80 -249.999c-56 -65.333 -136 -98.333 -240 -99h-381v178h395c92.667 0 144.667 40 156 120h-143c-77.333 0 -139.333 21 -186 63c-48.667 42.667 -73.667 102 -75 178c-1.33301 61.333 17 117.666 55 168.999
c42.667 54 94 81.333 154 82c108 0 194.667 -48 260 -144c56.667 -84.667 85 -183.667 85 -297zM477 460c-50 118.667 -111 178 -183 178c-28 0 -51.167 -9.66699 -69.5 -29s-27.5 -43 -27.5 -71c0 -52 40.667 -78 122 -78h158zM394 1030l-98 98l98 99l99 -99zM194 1030
l-98 98l98 99l99 -99zM291 1200l-98 98l98 99l99 -99zM291 860l-98 98l98 99l99 -99z" />
    <glyph glyph-name="uniFB71" unicode="&#x6a6;" horiz-adv-x="749" arabic-form="medial" 
d="M749 0l-85.999 -0.000976562c-62.667 0 -127 10 -193 30c-57.333 17.333 -97 36.333 -119 57c-27.333 -20.667 -69.333 -39.667 -126 -57c-64.667 -20 -126.667 -30 -186 -30h-109v178h124c59.333 0 105.666 5.33301 138.999 16
c-75.333 56.667 -113 133.334 -113 230.001c0 68.667 31 124.667 93 168c54.667 38.667 118 58 190 58c70 0 131.333 -22 184 -66c56 -46 84 -103 84 -171c0 -91.333 -41.333 -164.333 -124 -219c21.333 -10.667 52 -16 92 -16h150v-178zM483.001 395.999
c0 31.333 -13 56.999 -39 76.999s-55 30 -87 30c-33.333 0 -62.333 -8.33301 -87 -25c-28 -19.333 -42 -45 -42 -77c0 -34 12 -66.5 36 -97.5s52.333 -51.833 85 -62.5c33.333 10.667 63.333 30.334 90 59.001c29.333 31.333 44 63.333 44 96zM462.001 928.998l-98 98l98 99
l99 -99zM262.001 928.998l-98 98l98 99l99 -99zM359.001 1099l-98 98l98 99l99 -99zM359.001 758.998l-98 98l98 99l99 -99z" />
    <glyph glyph-name="uniFB73" unicode="&#x684;" horiz-adv-x="1327" arabic-form="final" 
d="M1327 0l-143.001 -0.00488281c-116 0.666992 -203.667 26.334 -263 77.001c-44.667 36.667 -97.667 114.334 -159 233.001c-111.333 -52.667 -208.666 -119.667 -291.999 -201c-114 -112 -171 -227.333 -171 -346c0 -48.667 11.5 -93.667 34.5 -135
s55.167 -77.166 96.5 -107.499s90.5 -54 147.5 -71s119.167 -25.5 186.5 -25.5c152.667 0 301.667 31.333 447 94l66 -132c-176 -81.333 -348.333 -122 -517 -122c-94 0 -178.333 11.667 -253 35s-138 57.333 -190 102s-91.667 99.667 -119 165s-41 140.333 -41 225
c0 162.667 91.667 316 275 460c96 74.667 236 156.667 420 246c-115.333 7.33301 -206.333 12.833 -273 16.5s-109.667 5.5 -129 5.5c-66 0 -127.667 -20.667 -185 -62l-55 122c72 56 152 84 240 84h22l760 -37v-152c-48.667 0 -112 -12 -190 -36
c-80.667 -25.333 -139.667 -51.666 -177 -78.999c20 -30.667 39.333 -56.667 58 -78s36.667 -37.666 54 -48.999c52.667 -36 126 -54 220 -54h130v-178zM697.999 -214.005l98 -98l-111 -111l-110 111l98 98l-98 98l110 111l111 -111z" />
    <glyph glyph-name="uniFB74" unicode="&#x684;" horiz-adv-x="949" arabic-form="initial" 
d="M907 117l-83 -117h-894v178h710l-289 255c-43.333 46.667 -93 70 -149 70h-114v152h148c64 0 123.667 -26 179 -78zM414 -350l98 -98l-111 -111l-110 111l98 98l-98 98l110 111l111 -111z" />
    <glyph glyph-name="uniFB75" unicode="&#x684;" horiz-adv-x="1230" arabic-form="medial" 
d="M1230 0l-113.999 -0.000976562c-152 0.666992 -279 100.334 -381 299.001c-144.667 -123.333 -256 -204.666 -334 -243.999c-73.333 -36 -157 -54.333 -251 -55h-220v178h131c103.333 0 190 12 260 36c28 9.33301 60.167 24.166 96.5 44.499s76.833 45.833 121.5 76.5
l103 73.5l103 75.5c-120 5.33301 -217.5 9.33301 -292.5 12s-127.833 4 -158.5 4c-60.667 0 -116.334 -19.333 -167.001 -58l-58 117c72.667 60 150.667 90 234 90h16l790 -36v-145c-105.333 0 -201.333 -34.333 -288 -103c48.667 -61.333 89.667 -103.333 123 -126
c57.333 -40.667 126.333 -61 207 -61h79v-178zM647.001 -323.001l98 -98l-111 -111l-110 111l98 98l-98 98l110 111l111 -111z" />
    <glyph glyph-name="uniFB77" unicode="&#x683;" horiz-adv-x="1327" arabic-form="final" 
d="M1327 0l-143.001 -0.00488281c-116 0.666992 -203.667 26.334 -263 77.001c-44.667 36.667 -97.667 114.334 -159 233.001c-111.333 -52.667 -208.666 -119.667 -291.999 -201c-114 -112 -171 -227.333 -171 -346c0 -48.667 11.5 -93.667 34.5 -135
s55.167 -77.166 96.5 -107.499s90.5 -54 147.5 -71s119.167 -25.5 186.5 -25.5c152.667 0 301.667 31.333 447 94l66 -132c-176 -81.333 -348.333 -122 -517 -122c-94 0 -178.333 11.667 -253 35s-138 57.333 -190 102s-91.667 99.667 -119 165s-41 140.333 -41 225
c0 162.667 91.667 316 275 460c96 74.667 236 156.667 420 246c-115.333 7.33301 -206.333 12.833 -273 16.5s-109.667 5.5 -129 5.5c-66 0 -127.667 -20.667 -185 -62l-55 122c72 56 152 84 240 84h22l760 -37v-152c-48.667 0 -112 -12 -190 -36
c-80.667 -25.333 -139.667 -51.666 -177 -78.999c20 -30.667 39.333 -56.667 58 -78s36.667 -37.666 54 -48.999c52.667 -36 126 -54 220 -54h130v-178zM894.999 -289.005h-158v158h158v-158zM678.999 -289.005h-158v158h158v-158z" />
    <glyph glyph-name="uniFB78" unicode="&#x683;" horiz-adv-x="949" arabic-form="initial" 
d="M907 117l-83 -117h-894v178h710l-289 255c-43.333 46.667 -93 70 -149 70h-114v152h148c64 0 123.667 -26 179 -78zM596 -370h-158v158h158v-158zM380 -370h-158v158h158v-158z" />
    <glyph glyph-name="uniFB79" unicode="&#x683;" horiz-adv-x="1230" arabic-form="medial" 
d="M1230 0l-113.999 -0.000976562c-152 0.666992 -279 100.334 -381 299.001c-144.667 -123.333 -256 -204.666 -334 -243.999c-73.333 -36 -157 -54.333 -251 -55h-220v178h131c103.333 0 190 12 260 36c28 9.33301 60.167 24.166 96.5 44.499s76.833 45.833 121.5 76.5
l103 73.5l103 75.5c-120 5.33301 -217.5 9.33301 -292.5 12s-127.833 4 -158.5 4c-60.667 0 -116.334 -19.333 -167.001 -58l-58 117c72.667 60 150.667 90 234 90h16l790 -36v-145c-105.333 0 -201.333 -34.333 -288 -103c48.667 -61.333 89.667 -103.333 123 -126
c57.333 -40.667 126.333 -61 207 -61h79v-178zM774.001 -365.001h-158v158h158v-158zM558.001 -365.001h-158v158h158v-158z" />
    <glyph glyph-name="afii62961" unicode="&#x686;" horiz-adv-x="1327" arabic-form="final" 
d="M1327 0l-143.001 -0.00488281c-116 0.666992 -203.667 26.334 -263 77.001c-44.667 36.667 -97.667 114.334 -159 233.001c-111.333 -52.667 -208.666 -119.667 -291.999 -201c-114 -112 -171 -227.333 -171 -346c0 -48.667 11.5 -93.667 34.5 -135
s55.167 -77.166 96.5 -107.499s90.5 -54 147.5 -71s119.167 -25.5 186.5 -25.5c152.667 0 301.667 31.333 447 94l66 -132c-176 -81.333 -348.333 -122 -517 -122c-94 0 -178.333 11.667 -253 35s-138 57.333 -190 102s-91.667 99.667 -119 165s-41 140.333 -41 225
c0 162.667 91.667 316 275 460c96 74.667 236 156.667 420 246c-115.333 7.33301 -206.333 12.833 -273 16.5s-109.667 5.5 -129 5.5c-66 0 -127.667 -20.667 -185 -62l-55 122c72 56 152 84 240 84h22l760 -37v-152c-48.667 0 -112 -12 -190 -36
c-80.667 -25.333 -139.667 -51.666 -177 -78.999c20 -30.667 39.333 -56.667 58 -78s36.667 -37.666 54 -48.999c52.667 -36 126 -54 220 -54h130v-178zM873.999 -238.005h-159v158h159v-158zM656.999 -238.005h-157v158h157v-158zM764.999 -441.005h-159v158h159v-158z" />
    <glyph glyph-name="afii62959" unicode="&#x686;" horiz-adv-x="949" arabic-form="initial" 
d="M907 117l-83 -117h-894v178h710l-289 255c-43.333 46.667 -93 70 -149 70h-114v152h148c64 0 123.667 -26 179 -78zM566 -357h-159v158h159v-158zM349 -357h-157v158h157v-158zM457 -560h-159v158h159v-158z" />
    <glyph glyph-name="afii62960" unicode="&#x686;" horiz-adv-x="1230" arabic-form="medial" 
d="M1230 0l-113.999 -0.000976562c-152 0.666992 -279 100.334 -381 299.001c-144.667 -123.333 -256 -204.666 -334 -243.999c-73.333 -36 -157 -54.333 -251 -55h-220v178h131c103.333 0 190 12 260 36c28 9.33301 60.167 24.166 96.5 44.499s76.833 45.833 121.5 76.5
l103 73.5l103 75.5c-120 5.33301 -217.5 9.33301 -292.5 12s-127.833 4 -158.5 4c-60.667 0 -116.334 -19.333 -167.001 -58l-58 117c72.667 60 150.667 90 234 90h16l790 -36v-145c-105.333 0 -201.333 -34.333 -288 -103c48.667 -61.333 89.667 -103.333 123 -126
c57.333 -40.667 126.333 -61 207 -61h79v-178zM817.001 -316.001h-159v158h159v-158zM600.001 -316.001h-157v158h157v-158zM708.001 -519.001h-159v158h159v-158z" />
    <glyph glyph-name="uniFB7F" unicode="&#x687;" horiz-adv-x="1327" arabic-form="final" 
d="M1327 0l-143.001 -0.00488281c-116 0.666992 -203.667 26.334 -263 77.001c-44.667 36.667 -97.667 114.334 -159 233.001c-111.333 -52.667 -208.666 -119.667 -291.999 -201c-114 -112 -171 -227.333 -171 -346c0 -48.667 11.5 -93.667 34.5 -135
s55.167 -77.166 96.5 -107.499s90.5 -54 147.5 -71s119.167 -25.5 186.5 -25.5c152.667 0 301.667 31.333 447 94l66 -132c-176 -81.333 -348.333 -122 -517 -122c-94 0 -178.333 11.667 -253 35s-138 57.333 -190 102s-91.667 99.667 -119 165s-41 140.333 -41 225
c0 162.667 91.667 316 275 460c96 74.667 236 156.667 420 246c-115.333 7.33301 -206.333 12.833 -273 16.5s-109.667 5.5 -129 5.5c-66 0 -127.667 -20.667 -185 -62l-55 122c72 56 152 84 240 84h22l760 -37v-152c-48.667 0 -112 -12 -190 -36
c-80.667 -25.333 -139.667 -51.666 -177 -78.999c20 -30.667 39.333 -56.667 58 -78s36.667 -37.666 54 -48.999c52.667 -36 126 -54 220 -54h130v-178zM802.999 -313.005l-98 98l98 99l99 -99zM602.999 -313.005l-98 98l98 99l99 -99zM699.999 -143.005l-98 98l98 99
l99 -99zM699.999 -483.005l-98 98l98 99l99 -99z" />
    <glyph glyph-name="uniFB80" unicode="&#x687;" horiz-adv-x="949" arabic-form="initial" 
d="M907 117l-83 -117h-894v178h710l-289 255c-43.333 46.667 -93 70 -149 70h-114v152h148c64 0 123.667 -26 179 -78zM491 -522l-98 98l98 99l99 -99zM291 -522l-98 98l98 99l99 -99zM388 -352l-98 98l98 99l99 -99zM388 -692l-98 98l98 99l99 -99z" />
    <glyph glyph-name="uniFB81" unicode="&#x687;" horiz-adv-x="1230" arabic-form="medial" 
d="M1230 0l-113.999 -0.000976562c-152 0.666992 -279 100.334 -381 299.001c-144.667 -123.333 -256 -204.666 -334 -243.999c-73.333 -36 -157 -54.333 -251 -55h-220v178h131c103.333 0 190 12 260 36c28 9.33301 60.167 24.166 96.5 44.499s76.833 45.833 121.5 76.5
l103 73.5l103 75.5c-120 5.33301 -217.5 9.33301 -292.5 12s-127.833 4 -158.5 4c-60.667 0 -116.334 -19.333 -167.001 -58l-58 117c72.667 60 150.667 90 234 90h16l790 -36v-145c-105.333 0 -201.333 -34.333 -288 -103c48.667 -61.333 89.667 -103.333 123 -126
c57.333 -40.667 126.333 -61 207 -61h79v-178zM728.001 -504.001l-98 98l98 99l99 -99zM528.001 -504.001l-98 98l98 99l99 -99zM625.001 -334.001l-98 98l98 99l99 -99zM625.001 -674.001l-98 98l98 99l99 -99z" />
    <glyph glyph-name="uniFB83" unicode="&#x68d;" horiz-adv-x="1312" arabic-form="final" 
d="M1312 0h-28.001c-123.333 0.666992 -220.666 46.667 -291.999 138c-32.667 -91.333 -120.334 -137 -263.001 -137h-298c-62.667 0 -120.667 13.333 -174 40c-60 29.333 -102.667 70 -128 122l98 104c52 -59.333 105.333 -89 160 -89h346c83.333 0 125 24 125 72
c0 18.667 -8 43.667 -24 75l-228 443l134 86l229 -450c40.667 -80 83 -136.333 127 -169c50.667 -38 117.334 -57 200.001 -57h16v-178zM729.999 -354h-158v158h158v-158zM513.999 -354h-158v158h158v-158z" />
    <glyph glyph-name="uniFB85" unicode="&#x68c;" horiz-adv-x="1312" arabic-form="final" 
d="M1312 0h-28.001c-123.333 0.666992 -220.666 46.667 -291.999 138c-32.667 -91.333 -120.334 -137 -263.001 -137h-298c-62.667 0 -120.667 13.333 -174 40c-60 29.333 -102.667 70 -128 122l98 104c52 -59.333 105.333 -89 160 -89h346c83.333 0 125 24 125 72
c0 18.667 -8 43.667 -24 75l-228 443l134 86l229 -450c40.667 -80 83 -136.333 127 -169c50.667 -38 117.334 -57 200.001 -57h16v-178zM755.999 996h-158v158h158v-158zM539.999 996h-158v158h158v-158z" />
    <glyph glyph-name="uniFB87" unicode="&#x68e;" horiz-adv-x="1312" arabic-form="final" 
d="M1312 0h-28.001c-123.333 0.666992 -220.666 46.667 -291.999 138c-32.667 -91.333 -120.334 -137 -263.001 -137h-298c-62.667 0 -120.667 13.333 -174 40c-60 29.333 -102.667 70 -128 122l98 104c52 -59.333 105.333 -89 160 -89h346c83.333 0 125 24 125 72
c0 18.667 -8 43.667 -24 75l-228 443l134 86l229 -450c40.667 -80 83 -136.333 127 -169c50.667 -38 117.334 -57 200.001 -57h16v-178zM702.999 1186h-159v158h159v-158zM809.999 983h-158v158h158v-158zM593.999 983h-158v158h158v-158z" />
    <glyph glyph-name="uniFB89" unicode="&#x688;" horiz-adv-x="1312" arabic-form="final" 
d="M1312 0h-28.001c-123.333 0.666992 -220.666 46.667 -291.999 138c-32.667 -91.333 -120.334 -137 -263.001 -137h-298c-62.667 0 -120.667 13.333 -174 40c-60 29.333 -102.667 70 -128 122l98 104c52 -59.333 105.333 -89 160 -89h346c83.333 0 125 24 125 72
c0 18.667 -8 43.667 -24 75l-228 443l134 86l229 -450c40.667 -80 83 -136.333 127 -169c50.667 -38 117.334 -57 200.001 -57h16v-178zM788.999 1110c0 -39.333 -13.668 -69.667 -41.001 -91c-22 -17.333 -49 -26 -81 -26h-222c-26.667 0 -48.667 6.33301 -66 19v37h74
c14 0 23.667 4.66699 29 14c3.33301 8 5 20 5 36v261h44v-254c18.667 23.333 40.334 43.333 65.001 60c34 23.333 66 35 96 35c26 0 48.667 -8.66699 68 -26s29 -39 29 -65zM740.998 1107c0 13.333 -5 23.999 -15 31.999s-22 12 -36 12c-50 0 -105 -34 -165 -102h146
c18.667 0 34.667 4.66699 48 14c14.667 10.667 22 25.334 22 44.001z" />
    <glyph glyph-name="afii62962" unicode="&#x698;" horiz-adv-x="1154" arabic-form="final" 
d="M1154 0l-63.001 -0.000976562c-90 0.666992 -163.667 35 -221 103c-6.66699 -40 -26.667 -85 -60 -135c-105.333 -156.667 -334.666 -327 -687.999 -511l-75 140c328 174 541 332.333 639 475c29.333 42.667 44 82.334 44 119.001c0 36 -11.333 74.333 -34 115l-102 183
l137 86l117 -224c60 -115.333 144 -173 252 -173h54v-178zM658.999 911.999h-159v158h159v-158zM765.999 708.999h-158v158h158v-158zM549.999 708.999h-158v158h158v-158z" />
    <glyph glyph-name="uniFB8D" unicode="&#x691;" horiz-adv-x="1154" arabic-form="final" 
d="M1154 0l-63.001 -0.000976562c-90 0.666992 -163.667 35 -221 103c-6.66699 -40 -26.667 -85 -60 -135c-105.333 -156.667 -334.666 -327 -687.999 -511l-75 140c328 174 541 332.333 639 475c29.333 42.667 44 82.334 44 119.001c0 36 -11.333 74.333 -34 115l-102 183
l137 86l117 -224c60 -115.333 144 -173 252 -173h54v-178zM778.999 842.999c0 -39.333 -13.668 -69.667 -41.001 -91c-22 -17.333 -49 -26 -81 -26h-222c-26.667 0 -48.667 6.33301 -66 19v37h74c14 0 23.667 4.66699 29 14c3.33301 8 5 20 5 36v261h44v-254
c18.667 23.333 40.334 43.333 65.001 60c34 23.333 66 35 96 35c26 0 48.667 -8.66699 68 -26s29 -39 29 -65zM730.998 839.998c0 13.333 -5 23.999 -15 31.999s-22 12 -36 12c-50 0 -105 -34 -165 -102h146c18.667 0 34.667 4.66699 48 14
c14.667 10.667 22 25.334 22 44.001z" />
    <glyph glyph-name="afii62964" unicode="&#x6a9;" horiz-adv-x="1842" arabic-form="final" 
d="M1899 1035l-540.999 -155.998c-44 -12.667 -66 -29.667 -66 -51c0 -16 9.66699 -42.667 29 -80l170 -327c54 -104 110.333 -173.333 169 -208c39.333 -23.333 93 -35 161 -35h21v-178h-46c-48.667 0.666992 -100 14.667 -154 42s-94.667 60.666 -122 99.999
c-42 -94 -136.333 -141 -283 -141h-759c-94.667 0 -171.334 26.667 -230.001 80c-60.667 55.333 -91 129.666 -91 222.999v75h145v-40c0 -107.333 55 -161 165 -161h780c92.667 0 139 26.667 139 80c0 29.333 -13 69 -39 119l-176 339c-20.667 40 -31 78.333 -31 115
c0 86.667 52.667 145.667 158 177l544 161z" />
    <glyph glyph-name="afii52305" unicode="&#x6a9;" horiz-adv-x="762" arabic-form="initial" 
d="M774 1035l-540 -156.001c-44 -12.667 -66 -30 -66 -52c0 -16 9.33301 -42.333 28 -79l168 -329c35.333 -69.333 53 -125.666 53 -168.999c0 -166 -101 -249.333 -303 -250h-184v178h192c93.333 0 140 26.667 140 80c0 29.333 -13 69 -39 119l-176 339
c-20.667 40 -31 77.667 -31 113c0 88 52.667 147.667 158 179l544 161z" />
    <glyph glyph-name="afii52306" unicode="&#x6a9;" horiz-adv-x="718" arabic-form="medial" 
d="M774 1035l-540 -155.998c-44 -12.667 -66 -29.667 -66 -51c0 -17.333 9.33301 -44 28 -80l170 -327c54 -104 110.333 -173.333 169 -208c39.333 -23.333 93 -35 161 -35h22v-178h-46c-48.667 0.666992 -100 14.667 -154 42s-94.667 60.666 -122 99.999
c-42.667 -94 -136.667 -141.333 -282 -142h-184v178h192c93.333 0 140 26.667 140 80c0 29.333 -13 69 -39 119l-176 339c-21.333 41.333 -32 79.666 -32 114.999c0 86.667 53 145.667 159 177l544 161z" />
    <glyph glyph-name="afii62967" unicode="&#x6af;" horiz-adv-x="1842" arabic-form="final" 
d="M1859 1184l-684 -163l-40 71l689 165zM1935 1027l-585.998 -137.997c-44 -10.667 -66 -27.334 -66 -50.001c0 -18.667 9.66699 -46 29 -82l179 -336c55.333 -103.333 111.666 -172.333 168.999 -207c40 -24 93.667 -36 161 -36h21v-178h-46
c-48.667 0.666992 -100 14.667 -154 42s-94.667 60.666 -122 99.999c-42 -94 -136.333 -141 -283 -141h-759c-94.667 0 -171.334 26.667 -230.001 80c-60.667 55.333 -91 129.666 -91 222.999v75h145v-40c0 -107.333 55 -161 165 -161h780c92.667 0 139 26.667 139 80
c0 29.333 -13 69 -39 119l-176 339c-16.667 32 -25 65.667 -25 101c0 97.333 50.667 158.333 152 183l581 141z" />
    <glyph glyph-name="afii62965" unicode="&#x6af;" horiz-adv-x="805" arabic-form="initial" 
d="M735 1184l-684 -163l-40 71l689 165zM811 1027l-586 -138c-44 -10.667 -66 -27.667 -66 -51c0 -16.667 9.66699 -43.667 29 -81l176 -338c35.333 -68 53 -124.333 53 -169c0 -166 -101 -249.333 -303 -250h-184v178h192c93.333 0 140 26.667 140 80
c0 29.333 -13 69 -39 119l-176 339c-17.333 33.333 -26 67 -26 101c0 97.333 51 158.333 153 183l580 141z" />
    <glyph glyph-name="afii62966" unicode="&#x6af;" horiz-adv-x="716" arabic-form="medial" 
d="M735 1184l-684 -163l-40 71l689 165zM811 1027l-586.001 -138c-44.667 -10.667 -67 -27.667 -67 -51c0 -16 10 -43 30 -81l178 -336c54.667 -103.333 111.334 -172.333 170.001 -207c40.667 -24 94 -36 160 -36h20v-178h-44c-48.667 -0 -100 13.833 -154 41.5
s-94.667 61.167 -122 100.5c-42.667 -94 -136.667 -141.333 -282 -142h-184v178h192c93.333 0 140 26.667 140 80c0 29.333 -13 69 -39 119l-176 339c-17.333 33.333 -26 67 -26 101c0 97.333 51 158.333 153 183l580 141z" />
    <glyph glyph-name="uniFB97" unicode="&#x6b3;" horiz-adv-x="1842" arabic-form="final" 
d="M1859 1184l-684 -163l-40 71l689 165zM1935 1027l-585.998 -137.997c-44 -10.667 -66 -27.334 -66 -50.001c0 -18.667 9.66699 -46 29 -82l179 -336c55.333 -103.333 111.666 -172.333 168.999 -207c40 -24 93.667 -36 161 -36h21v-178h-46
c-48.667 0.666992 -100 14.667 -154 42s-94.667 60.666 -122 99.999c-42 -94 -136.333 -141 -283 -141h-759c-94.667 0 -171.334 26.667 -230.001 80c-60.667 55.333 -91 129.666 -91 222.999v75h145v-40c0 -107.333 55 -161 165 -161h780c92.667 0 139 26.667 139 80
c0 29.333 -13 69 -39 119l-176 339c-16.667 32 -25 65.667 -25 101c0 97.333 50.667 158.333 152 183l581 141zM826.002 -350.997l98 -98l-111 -111l-110 111l98 98l-98 98l110 111l111 -111z" />
    <glyph glyph-name="uniFB98" unicode="&#x6b3;" horiz-adv-x="805" arabic-form="initial" 
d="M735 1184l-684 -163l-40 71l689 165zM811 1027l-586 -138c-44 -10.667 -66 -27.667 -66 -51c0 -16.667 9.66699 -43.667 29 -81l176 -338c35.333 -68 53 -124.333 53 -169c0 -166 -101 -249.333 -303 -250h-184v178h192c93.333 0 140 26.667 140 80
c0 29.333 -13 69 -39 119l-176 339c-17.333 33.333 -26 67 -26 101c0 97.333 51 158.333 153 183l580 141zM368 -358l98 -98l-111 -111l-110 111l98 98l-98 98l110 111l111 -111z" />
    <glyph glyph-name="uniFB99" unicode="&#x6b3;" horiz-adv-x="716" arabic-form="medial" 
d="M735 1184l-684 -163l-40 71l689 165zM811 1027l-586.001 -138c-44.667 -10.667 -67 -27.667 -67 -51c0 -16 10 -43 30 -81l178 -336c54.667 -103.333 111.334 -172.333 170.001 -207c40.667 -24 94 -36 160 -36h20v-178h-44c-48.667 -0 -100 13.833 -154 41.5
s-94.667 61.167 -122 100.5c-42.667 -94 -136.667 -141.333 -282 -142h-184v178h192c93.333 0 140 26.667 140 80c0 29.333 -13 69 -39 119l-176 339c-17.333 33.333 -26 67 -26 101c0 97.333 51 158.333 153 183l580 141zM420.999 -316l98 -98l-111 -111l-110 111l98 98
l-98 98l110 111l111 -111z" />
    <glyph glyph-name="uniFB9B" unicode="&#x6b1;" horiz-adv-x="1842" arabic-form="final" 
d="M1859 1184l-684 -163l-40 71l689 165zM1935 1027l-585.998 -137.997c-44 -10.667 -66 -27.334 -66 -50.001c0 -18.667 9.66699 -46 29 -82l179 -336c55.333 -103.333 111.666 -172.333 168.999 -207c40 -24 93.667 -36 161 -36h21v-178h-46
c-48.667 0.666992 -100 14.667 -154 42s-94.667 60.666 -122 99.999c-42 -94 -136.333 -141 -283 -141h-759c-94.667 0 -171.334 26.667 -230.001 80c-60.667 55.333 -91 129.666 -91 222.999v75h145v-40c0 -107.333 55 -161 165 -161h780c92.667 0 139 26.667 139 80
c0 29.333 -13 69 -39 119l-176 339c-16.667 32 -25 65.667 -25 101c0 97.333 50.667 158.333 152 183l581 141zM1631 1316h-158v158h158v-158zM1415 1316h-158v158h158v-158z" />
    <glyph glyph-name="uniFB9C" unicode="&#x6b1;" horiz-adv-x="805" arabic-form="initial" 
d="M735 1184l-684 -163l-40 71l689 165zM811 1027l-586 -138c-44 -10.667 -66 -27.667 -66 -51c0 -16.667 9.66699 -43.667 29 -81l176 -338c35.333 -68 53 -124.333 53 -169c0 -166 -101 -249.333 -303 -250h-184v178h192c93.333 0 140 26.667 140 80
c0 29.333 -13 69 -39 119l-176 339c-17.333 33.333 -26 67 -26 101c0 97.333 51 158.333 153 183l580 141zM473 1289h-158v158h158v-158zM257 1289h-158v158h158v-158z" />
    <glyph glyph-name="uniFB9D" unicode="&#x6b1;" horiz-adv-x="716" arabic-form="medial" 
d="M735 1184l-684 -163l-40 71l689 165zM811 1027l-586.001 -138c-44.667 -10.667 -67 -27.667 -67 -51c0 -16 10 -43 30 -81l178 -336c54.667 -103.333 111.334 -172.333 170.001 -207c40.667 -24 94 -36 160 -36h20v-178h-44c-48.667 -0 -100 13.833 -154 41.5
s-94.667 61.167 -122 100.5c-42.667 -94 -136.667 -141.333 -282 -142h-184v178h192c93.333 0 140 26.667 140 80c0 29.333 -13 69 -39 119l-176 339c-17.333 33.333 -26 67 -26 101c0 97.333 51 158.333 153 183l580 141zM504.999 1303h-158v158h158v-158zM288.999 1303
h-158v158h158v-158z" />
    <glyph glyph-name="uniFB9F" unicode="&#x6ba;" horiz-adv-x="1472" arabic-form="final" 
d="M1472 0l-34.001 -0.00195312c-67.333 0.666992 -121.666 15 -162.999 43c0 -135.333 -19.333 -238.333 -58 -309c-50.667 -92.667 -129.334 -165.667 -236.001 -219c-98.667 -49.333 -204 -74 -316 -74c-180 0 -319.333 49 -418 147c-86.667 86 -130 195 -130 327
c0 119.333 26 234 78 344l129 -39c-38 -112 -57 -204.667 -57 -278c0 -121.333 47.333 -210.666 142 -267.999c68.667 -41.333 150.334 -62 245.001 -62c119.333 0 223 27 311 81c104 63.333 156 151 156 263c0 16.667 -2 36.334 -6 59.001
c-22 124 -74.333 256.667 -157 398l133 84c61.333 -127.333 113.333 -210.333 156 -249c50.667 -46.667 124.667 -70 222 -70h3v-178z" />
    <glyph glyph-name="uniFBA1" unicode="&#x6bb;" horiz-adv-x="1472" arabic-form="final" 
d="M1472 0l-34.001 -0.00195312c-67.333 0.666992 -121.666 15 -162.999 43c0 -135.333 -19.333 -238.333 -58 -309c-50.667 -92.667 -129.334 -165.667 -236.001 -219c-98.667 -49.333 -204 -74 -316 -74c-180 0 -319.333 49 -418 147c-86.667 86 -130 195 -130 327
c0 119.333 26 234 78 344l129 -39c-38 -112 -57 -204.667 -57 -278c0 -121.333 47.333 -210.666 142 -267.999c68.667 -41.333 150.334 -62 245.001 -62c119.333 0 223 27 311 81c104 63.333 156 151 156 263c0 16.667 -2 36.334 -6 59.001
c-22 124 -74.333 256.667 -157 398l133 84c61.333 -127.333 113.333 -210.333 156 -249c50.667 -46.667 124.667 -70 222 -70h3v-178zM844.999 696.998c0 -39.333 -13.668 -69.667 -41.001 -91c-22 -17.333 -49 -26 -81 -26h-222c-26.667 0 -48.667 6.33301 -66 19v37h74
c14 0 23.667 4.66699 29 14c3.33301 8 5 20 5 36v261h44v-254c18.667 23.333 40.334 43.333 65.001 60c34 23.333 66 35 96 35c26 0 48.667 -8.66699 68 -26s29 -39 29 -65zM796.998 693.997c0 13.333 -5 23.999 -15 31.999s-22 12 -36 12c-50 0 -105 -34 -165 -102h146
c18.667 0 34.667 4.66699 48 14c14.667 10.667 22 25.334 22 44.001z" />
    <glyph glyph-name="uniFBA4" unicode="&#x6c0;" horiz-adv-x="959" arabic-form="isolated" 
d="M915 275c0 -94.667 -39 -166.333 -117 -215c-63.333 -39.333 -141 -59 -233 -59c-117.333 0 -207 31.167 -269 93.5s-93 151.5 -93 267.5c0 78.667 19 147.667 57 207c44 68 103.333 102 178 102c92 0 192.333 -40.333 301 -121c117.333 -87.333 176 -179 176 -275z
M771 281.001c0 47.333 -44.333 100.333 -133 159c-82 54.667 -144.667 82 -188 82c-34 0 -60.667 -20.333 -80 -61c-15.333 -32.667 -23 -68 -23 -106c0 -58.667 21 -103.667 63 -135c37.333 -28 86.333 -42 147 -42c142.667 0 214 34.333 214 103zM653 910.001
l-406.001 -138l-29 75l133 46c-32.667 32 -49 74.333 -49 127c0 44.667 22.667 80 68 106c37.333 21.333 80 32 128 32c19.333 0 39.333 -1.66699 60 -5v-68c-14 2 -28 3 -42 3c-30.667 0 -58 -5.66699 -82 -17c-31.333 -14.667 -47 -35.667 -47 -63c0 -20 8 -36.5 24 -49.5
s34.333 -19.5 55 -19.5c24.667 0 78.334 15.333 161.001 46z" />
    <glyph glyph-name="uniFBA5" unicode="&#x6c0;" horiz-adv-x="1079" arabic-form="final" 
d="M1079 0h-45.002c-140.667 0.666992 -244 57.334 -310 170.001c-69.333 -20 -150.666 -30 -243.999 -30c-215.333 0 -323 87.667 -323 263c0 64 48 130.667 144 200c16.667 12 82 51 196 117l-37 87l125 85l173 -469c31.333 -84.667 61.333 -142.334 90 -173.001
c44.667 -48 109.334 -72 194.001 -72h37v-178zM655.998 310l-109.999 275c-86 -42 -145 -75.333 -177 -100c-47.333 -36 -71 -73 -71 -111c0 -52 64 -78 192 -78c63.333 0 118.666 4.66699 165.999 14zM617.999 1022l-406.001 -138l-29 75l133 46
c-32.667 32 -49 74.333 -49 127c0 44.667 22.667 80 68 106c37.333 21.333 80 32 128 32c19.333 0 39.333 -1.66699 60 -5v-68c-14 2 -28 3 -42 3c-30.667 0 -58 -5.66699 -82 -17c-31.333 -14.667 -47 -35.667 -47 -63c0 -20 8 -36.5 24 -49.5s34.333 -19.5 55 -19.5
c24.667 0 78.334 15.333 161.001 46z" />
    <glyph glyph-name="uniFBA6" unicode="&#x6c1;" horiz-adv-x="959" arabic-form="isolated" 
d="M915 275c0 -94.667 -39 -166.333 -117 -215c-63.333 -39.333 -141 -59 -233 -59c-117.333 0 -207 31.167 -269 93.5s-93 151.5 -93 267.5c0 78.667 19 147.667 57 207c44 68 103.333 102 178 102c92 0 192.333 -40.333 301 -121c117.333 -87.333 176 -179 176 -275z
M771 281.001c0 47.333 -44.333 100.333 -133 159c-82 54.667 -144.667 82 -188 82c-34 0 -60.667 -20.333 -80 -61c-15.333 -32.667 -23 -68 -23 -106c0 -58.667 21 -103.667 63 -135c37.333 -28 86.333 -42 147 -42c142.667 0 214 34.333 214 103z" />
    <glyph glyph-name="uniFBA8" unicode="&#x6c1;" horiz-adv-x="449" arabic-form="initial" 
d="M307 -108c-76.667 -14 -115 -75 -115 -183h109v-184h-191v104c0 186.667 65.667 285.667 197 297v-34zM399 252c0 -63.333 -19.333 -118.334 -58 -165.001c-48 -57.333 -116.667 -86.333 -206 -87h-205v178h202c74.667 0 112 27.333 112 82
c0 22.667 -8 48.334 -24 77.001l-92 163l129 91c52.667 -95.333 84.667 -155.333 96 -180c30.667 -66 46 -119 46 -159z" />
    <glyph glyph-name="uniFBA9" unicode="&#x6c1;" horiz-adv-x="777" arabic-form="medial" 
d="M786 0l-23 0.000976562c-59.333 0 -115 -11 -167 -33c-68 -28.667 -102 -69 -102 -121c0 -51.333 73 -102 219 -152l-40 -135c-134.667 44.667 -234.667 91.667 -300 141c-108.667 82 -178.667 196.667 -210 344c-21.333 -28.667 -60 -43.334 -116 -44.001h-117v178h117
c43.333 0 72 16.333 86 49c8.66699 20 13 55.333 13 106v214h153v-345c0 -155.333 30.333 -256.333 91 -303c4 66 37.333 127 100 183c72 64 161.667 96 269 96h27v-178z" />
    <glyph glyph-name="uniFBAB" unicode="&#x6be;" horiz-adv-x="978" arabic-form="final" 
d="M989 0l-23.001 -0.000976562c-59.333 0 -115 -11 -167 -33c-68 -28.667 -102 -69 -102 -121c0 -51.333 73 -102 219 -152l-40 -135c-134.667 44.667 -234.667 91.667 -300 141c-108.667 82 -178.667 200.667 -210 356c-47.333 -34 -115 -53 -203 -57
c-12.667 -2 -27.667 0 -45 6s-33.5 15.333 -48.5 28s-27.167 27.834 -36.5 45.501s-12.666 37.167 -9.99902 58.5c194.667 28.667 299 58.667 313 90c8.66699 20 13 55.333 13 106v214h153v-345c0 -155.333 30.333 -256.333 91 -303c4 66 37.333 127 100 183
c72 64 161.667 96 269 96h27v-178z" />
    <glyph glyph-name="uniFBAC" unicode="&#x6be;" horiz-adv-x="993" arabic-form="initial" 
d="M963 117c0 -64 -24.668 -116.666 -74.001 -157.999c-43.333 -36.667 -92.333 -55 -147 -55c-55.333 0 -130 21 -224 63c-70 31.333 -125.667 61.333 -167 90c-79.333 -38 -169.666 -57 -270.999 -57h-150v178h109c105.333 0 165 1.33301 179 4
c-71.333 74 -107 167.333 -107 280c0 56 20 110 60 162c46.667 60.667 107 97 181 109l-94 91l120 100c97.333 -84 197 -183.333 299 -298c190.667 -214.667 286 -384.334 286 -509.001zM823.999 139.001c0 28.667 -21.333 73.999 -64 135.999
c-36.667 53.333 -71.334 96 -104.001 128c2.66699 -53.333 -15.666 -106.666 -54.999 -159.999c-32.667 -44 -66 -74.333 -100 -91c100 -65.333 181 -98 243 -98c53.333 0 80 28.333 80 85zM549.999 457c0 38.667 -17 70.999 -51 96.999c-30.667 24 -66 36 -106 36
c-37.333 0 -71.333 -13 -102 -39s-46 -57.333 -46 -94c0 -45.333 12.333 -88.666 37 -129.999s57 -72.333 97 -93c114 46.667 171 121 171 223z" />
    <glyph glyph-name="uniFBAD" unicode="&#x6be;" horiz-adv-x="770" arabic-form="medial" 
d="M786 0l-23 0.000976562c-59.333 0 -115 -11 -167 -33c-68 -28.667 -102 -69 -102 -121c0 -51.333 73 -102 219 -152l-40 -135c-134.667 44.667 -234.667 91.667 -300 141c-108.667 82 -178.667 196.667 -210 344c-21.333 -28.667 -60 -43.334 -116 -44.001h-117v178h117
c43.333 0 72 16.333 86 49c8.66699 20 13 55.333 13 106v214h153v-345c0 -155.333 30.333 -256.333 91 -303c4 66 37.333 127 100 183c72 64 161.667 96 269 96h27v-178z" />
    <glyph glyph-name="uniFBAF" unicode="&#x6d2;" horiz-adv-x="1018" arabic-form="final" 
d="M1029 178l1.00488 -178h-694c-93.333 -2.66699 -142 -33.334 -146 -92.001c0 -18 5 -31.667 15 -41c20 -14.667 44 -23.334 72 -26.001c66.667 -6 149.5 -10.667 248.5 -14s184.667 -4.33301 257 -3s120.666 2.83301 144.999 4.5s39.166 2.5 44.499 2.5l-39 -150
c-82 -5.33301 -157.5 -8.66602 -226.5 -9.99902s-123.833 -1.66602 -164.5 -0.999023s-85.334 1.33398 -134.001 2.00098l-155 11c-58 5.33301 -97.833 13.666 -119.5 24.999s-33.834 22.333 -36.501 33c-3.33301 15.333 -3.33301 56.333 0 123s10.666 113.667 21.999 141
c23.333 58.667 52.833 102 88.5 130s89.167 42.333 160.5 43h661z" />
    <glyph glyph-name="unifbb1" unicode="&#x6d3;" horiz-adv-x="1018" arabic-form="final" 
d="M1029 178l1.00488 -178h-694c-93.333 -2.66699 -142 -33.334 -146 -92.001c0 -18 5 -31.667 15 -41c20 -14.667 44 -23.334 72 -26.001c66.667 -6 149.5 -10.667 248.5 -14s184.667 -4.33301 257 -3s120.666 2.83301 144.999 4.5s39.166 2.5 44.499 2.5l-39 -150
c-82 -5.33301 -157.5 -8.66602 -226.5 -9.99902s-123.833 -1.66602 -164.5 -0.999023s-85.334 1.33398 -134.001 2.00098l-155 11c-58 5.33301 -97.833 13.666 -119.5 24.999s-33.834 22.333 -36.501 33c-3.33301 15.333 -3.33301 56.333 0 123s10.666 113.667 21.999 141
c23.333 58.667 52.833 102 88.5 130s89.167 42.333 160.5 43h661zM630.005 471l-406.001 -138l-29 75l133 46c-32.667 32 -49 74.333 -49 127c0 44.667 22.667 80 68 106c37.333 21.333 80 32 128 32c19.333 0 39.333 -1.66699 60 -5v-68c-14 2 -28 3 -42 3
c-30.667 0 -58 -5.66699 -82 -17c-31.333 -14.667 -47 -35.667 -47 -63c0 -20 8 -36.5 24 -49.5s34.333 -19.5 55 -19.5c24.667 0 78.334 15.333 161.001 46z" />
    <glyph glyph-name="uniFBD4" unicode="&#x6ad;" horiz-adv-x="1722" arabic-form="final" 
d="M1426 384c17.333 -79.333 55.334 -136.331 114.001 -170.998c39.333 -23.333 93 -35 161 -35h21v-178h-46c-48.667 0.666992 -100 14.667 -154 42s-94.667 60.666 -122 99.999c-42 -94 -136.333 -141 -283 -141h-639c-94.667 0 -171.334 26.667 -230.001 80
c-60.667 55.333 -91 129.666 -91 222.999v75h145v-40c0 -107.333 55 -161 165 -161h660c92.667 0 139 26.667 139 80c0 29.333 -13.333 329.333 -40 900h169zM1014 679.002l-463.999 -153l-28 74l165 55c-32.667 30.667 -49 73 -49 127c0 44.667 22.667 80 68 106
c37.333 21.333 80 32 128 32c19.333 0 39.666 -1.33301 60.999 -4v-69c-14.667 2 -29 3 -43 3c-86 0 -129 -26.667 -129 -80c0 -20 8.66699 -36.667 26 -50c15.333 -12.667 33.333 -19 54 -19c24 0 86 17.667 186 53zM866.002 1269h-159v158h159v-158zM973.002 1066h-158
v158h158v-158zM757.002 1066h-158v158h158v-158z" />
    <glyph glyph-name="uniFBD5" unicode="&#x6ad;" horiz-adv-x="762" arabic-form="initial" 
d="M349 1390h-159v158h159v-158zM456 1187h-158v158h158v-158zM240 1187h-158v158h158v-158zM774 1035l-540 -156.001c-44 -12.667 -66 -30 -66 -52c0 -16 9.33301 -42.333 28 -79l168 -329c35.333 -69.333 53 -125.666 53 -168.999c0 -166 -101 -249.333 -303 -250h-184
v178h192c93.333 0 140 26.667 140 80c0 29.333 -13 69 -39 119l-176 339c-20.667 40 -31 77.667 -31 113c0 88 52.667 147.667 158 179l544 161z" />
    <glyph glyph-name="uniFBD6" unicode="&#x6ad;" horiz-adv-x="718" arabic-form="medial" 
d="M407 1419h-159v158h159v-158zM514 1216h-158v158h158v-158zM298 1216h-158v158h158v-158zM774 1035l-540 -155.998c-44 -12.667 -66 -29.667 -66 -51c0 -17.333 9.33301 -44 28 -80l170 -327c54 -104 110.333 -173.333 169 -208c39.333 -23.333 93 -35 161 -35h22v-178
h-46c-48.667 0.666992 -100 14.667 -154 42s-94.667 60.666 -122 99.999c-42.667 -94 -136.667 -141.333 -282 -142h-184v178h192c93.333 0 140 26.667 140 80c0 29.333 -13 69 -39 119l-176 339c-21.333 41.333 -32 79.666 -32 114.999c0 86.667 53 145.667 159 177
l544 161z" />
    <glyph glyph-name="uniFBD8" unicode="&#x6c7;" horiz-adv-x="1060" arabic-form="final" 
d="M1060 0l-211.002 0.000976562c-56.667 -202 -298.667 -408 -726 -618l-78 134c350.667 166 568 328 652 486h-119c-87.333 0 -155.166 24 -203.499 72s-72.5 116 -72.5 204c0 64 23.667 118.667 71 164s103 68 167 68c64.667 0 126.334 -24 185.001 -72
c74 -60.667 118.333 -147.334 133 -260.001h202v-178zM707.998 175.001c-2 52 -23.999 96.334 -65.999 133.001c-35.333 31.333 -69 47 -101 47c-25.333 0 -49 -7.66699 -71 -23c-24 -16.667 -36 -37.334 -36 -62.001c0 -30 12 -54 36 -72
c21.333 -15.333 47.666 -23 78.999 -23h159zM766.999 844.002c0 -82 -50.668 -135.001 -152.001 -159.001l-303 -77l-18 68c78.667 19.333 146 40 202 62c-24 30.667 -36 63.334 -36 98.001c0 40 18 75 54 105c30.667 26 61.334 39 92.001 39c40 0 76.333 -12.333 109 -37
c34.667 -27.333 52 -60.333 52 -99zM682.998 833.001c0 18.667 -7.16699 34.6689 -21.5 48.002s-30.833 20 -49.5 20c-19.333 0 -36.166 -6.66699 -50.499 -20s-21.5 -29.333 -21.5 -48s7.16699 -34.834 21.5 -48.501s31.166 -20.5 50.499 -20.5
c18.667 0 35.167 6.66699 49.5 20s21.5 29.666 21.5 48.999z" />
    <glyph glyph-name="uniFBDA" unicode="&#x6c6;" horiz-adv-x="1060" arabic-form="final" 
d="M1060 0l-211.002 0.000976562c-56.667 -202 -298.667 -408 -726 -618l-78 134c350.667 166 568 328 652 486h-119c-87.333 0 -155.166 24 -203.499 72s-72.5 116 -72.5 204c0 64 23.667 118.667 71 164s103 68 167 68c64.667 0 126.334 -24 185.001 -72
c74 -60.667 118.333 -147.334 133 -260.001h202v-178zM707.998 175.001c-2 52 -23.999 96.334 -65.999 133.001c-35.333 31.333 -69 47 -101 47c-25.333 0 -49 -7.66699 -71 -23c-24 -16.667 -36 -37.334 -36 -62.001c0 -30 12 -54 36 -72
c21.333 -15.333 47.666 -23 78.999 -23h159zM725.999 966.002c-12 -9.33301 -25.167 -24.668 -39.5 -46.001s-28.666 -46.333 -42.999 -75s-27.833 -60.167 -40.5 -94.5s-23.334 -69.166 -32.001 -104.499h-54c-9.33301 36 -20.666 71.167 -33.999 105.5
s-27 65.833 -41 94.5s-28 53.5 -42 74.5s-26.667 36.167 -38 45.5l105 2c17.333 -25.333 32.166 -56.333 44.499 -93s22.833 -75 31.5 -115c8.66699 40 19.5 78.333 32.5 115s28.167 67.667 45.5 93z" />
    <glyph glyph-name="uniFBDC" unicode="&#x6c8;" horiz-adv-x="1060" arabic-form="final" 
d="M1060 0l-211.002 0.000976562c-56.667 -202 -298.667 -408 -726 -618l-78 134c350.667 166 568 328 652 486h-119c-87.333 0 -155.166 24 -203.499 72s-72.5 116 -72.5 204c0 64 23.667 118.667 71 164s103 68 167 68c64.667 0 126.334 -24 185.001 -72
c74 -60.667 118.333 -147.334 133 -260.001h202v-178zM707.998 175.001c-2 52 -23.999 96.334 -65.999 133.001c-35.333 31.333 -69 47 -101 47c-25.333 0 -49 -7.66699 -71 -23c-24 -16.667 -36 -37.334 -36 -62.001c0 -30 12 -54 36 -72
c21.333 -15.333 47.666 -23 78.999 -23h159zM589.999 1002l-19 -361h-65l-19 361h103z" />
    <glyph glyph-name="uniFBDF" unicode="&#x6cb;" horiz-adv-x="1060" arabic-form="final" 
d="M1060 0l-211.002 0.000976562c-56.667 -202 -298.667 -408 -726 -618l-78 134c350.667 166 568 328 652 486h-119c-87.333 0 -155.166 24 -203.499 72s-72.5 116 -72.5 204c0 64 23.667 118.667 71 164s103 68 167 68c64.667 0 126.334 -24 185.001 -72
c74 -60.667 118.333 -147.334 133 -260.001h202v-178zM707.998 175.001c-2 52 -23.999 96.334 -65.999 133.001c-35.333 31.333 -69 47 -101 47c-25.333 0 -49 -7.66699 -71 -23c-24 -16.667 -36 -37.334 -36 -62.001c0 -30 12 -54 36 -72
c21.333 -15.333 47.666 -23 78.999 -23h159zM584.999 842.002h-159v158h159v-158zM691.999 639.002h-158v158h158v-158zM475.999 639.002h-158v158h158v-158z" />
    <glyph glyph-name="uniFBE1" unicode="&#x6c5;" horiz-adv-x="1050" arabic-form="final" 
d="M1060 0l-211.002 0.000976562c-56.667 -202 -298.667 -408 -726 -618l-78 134c142 67.333 262 134 360 200l-221 -2l5 72l315 2c90.667 72 155 143.333 193 214h-119c-87.333 0 -155.166 24 -203.499 72s-72.5 116 -72.5 204c0 64 23.667 118.667 71 164s103 68 167 68
c64.667 0 126.334 -24 185.001 -72c74 -60.667 118.333 -147.334 133 -260.001h202v-178zM707.998 175.001c-2 52 -23.999 96.334 -65.999 133.001c-35.333 31.333 -69 47 -101 47c-25.333 0 -49 -7.66699 -71 -23c-24 -16.667 -36 -37.334 -36 -62.001c0 -30 12 -54 36 -72
c21.333 -15.333 47.666 -23 78.999 -23h159z" />
    <glyph glyph-name="uniFBE3" unicode="&#x6c9;" horiz-adv-x="1060" arabic-form="final" 
d="M1060 0l-211.002 0.000976562c-56.667 -202 -298.667 -408 -726 -618l-78 134c350.667 166 568 328 652 486h-119c-87.333 0 -155.166 24 -203.499 72s-72.5 116 -72.5 204c0 64 23.667 118.667 71 164s103 68 167 68c64.667 0 126.334 -24 185.001 -72
c74 -60.667 118.333 -147.334 133 -260.001h202v-178zM707.998 175.001c-2 52 -23.999 96.334 -65.999 133.001c-35.333 31.333 -69 47 -101 47c-25.333 0 -49 -7.66699 -71 -23c-24 -16.667 -36 -37.334 -36 -62.001c0 -30 12 -54 36 -72
c21.333 -15.333 47.666 -23 78.999 -23h159zM602.999 646.002c-17.333 25.333 -32.5 56.3311 -45.5 92.998s-23.833 75 -32.5 115c-8.66699 -40 -19.167 -78.333 -31.5 -115s-27.166 -67.667 -44.499 -93l-105 2c11.333 9.33301 24 24.5 38 45.5s28 45.833 42 74.5
s27.667 60.167 41 94.5s24.666 69.5 33.999 105.5h54c8.66699 -35.333 19.334 -70.166 32.001 -104.499s26.167 -65.833 40.5 -94.5s28.666 -53.667 42.999 -75s27.5 -36.666 39.5 -45.999z" />
    <glyph glyph-name="uniFBE5" unicode="&#x6d0;" horiz-adv-x="1447" arabic-form="final" 
d="M742 -839l98 -98l-111 -111l-110 111l98 98l-98 98l110 111l111 -111zM1447 0l-97.999 -0.000976562c36.667 -46 55 -92 55 -138c0 -86 -67.667 -171.333 -203 -256c-150 -94 -324 -141 -522 -141c-176.667 0 -311.334 52.333 -404.001 157
c-78.667 88.667 -118 200.334 -118 335.001c0 111.333 11 198.333 33 261l131 -39c-16 -70.667 -24 -128 -24 -172c0 -86.667 20.333 -160.667 61 -222c65.333 -98.667 175.333 -148 330 -148c94 0 188.667 14.333 284 43c110 33.333 193.333 79 250 137
c15.333 15.333 23 30.333 23 45c0 24.667 -20.667 50 -62 76c-64 40 -202 73.667 -414 101l41 139h637v-178z" />
    <glyph glyph-name="afii52364" unicode="&#x6cc;" horiz-adv-x="1447" arabic-form="final" 
d="M1447 0l-97.999 -0.000976562c36.667 -46 55 -92 55 -138c0 -86 -67.667 -171.333 -203 -256c-150 -94 -324 -141 -522 -141c-176.667 0 -311.334 52.333 -404.001 157c-78.667 88.667 -118 200.334 -118 335.001c0 111.333 11 198.333 33 261l131 -39
c-16 -70.667 -24 -128 -24 -172c0 -86.667 20.333 -160.667 61 -222c65.333 -98.667 175.333 -148 330 -148c94 0 188.667 14.333 284 43c110 33.333 193.333 79 250 137c15.333 15.333 23 30.333 23 45c0 24.667 -20.667 50 -62 76c-64 40 -202 73.667 -414 101l41 139h637
v-178z" />
    <glyph glyph-name="uniFBFE" unicode="&#x6cc;" horiz-adv-x="449" arabic-form="initial" 
d="M399 252c0 -63.333 -19.333 -118.334 -58 -165.001c-48 -57.333 -116.667 -86.333 -206 -87h-205v178h202c74.667 0 112 27.333 112 82c0 22.667 -8 48.334 -24 77.001l-92 163l129 91c52.667 -95.333 84.667 -155.333 96 -180c30.667 -66 46 -119 46 -159zM394 -369.001
h-158v158h158v-158zM178 -369.001h-158v158h158v-158z" />
    <glyph glyph-name="afii62832" unicode="&#x6cc;" horiz-adv-x="538" arabic-form="medial" 
d="M538 0l-25 -0.000976562c-104 0 -178.333 38 -223 114c-46 -76 -115 -114 -207 -114h-153v178h113c62 -0.666992 101.333 12 118 38c11.333 18 17 58.667 17 122v212h154v-164c0 -85.333 15.667 -142.666 47 -171.999c26 -24 73.667 -36 143 -36h16v-178zM437 -367.001
h-158v158h158v-158zM221 -367.001h-158v158h158v-158z" />
    <glyph glyph-name="uniFC5D" unicode="&#xfc5d;" horiz-adv-x="1461" arabic-form="isolated" 
d="M610 1041l-19 -361h-65l-19 361h103zM1417 666l-65 -127.998c-54 28 -105.667 42 -155 42c-92.667 0 -184 -53 -274 -159c-15.333 -18 -23 -35.333 -23 -52c0 -29.333 18 -45.333 54 -48l275 -19c106.667 -8 160 -65 160 -171c0 -89.333 -66 -185.333 -198 -288
c-150.667 -116.667 -322 -175 -514 -175c-153.333 0 -276.333 37.667 -369 113c-100.667 82 -151 197.333 -151 346c0 101.333 16 192.666 48 273.999l123 -41c-22 -75.333 -33 -136.333 -33 -183c0 -226.667 131.333 -340 394 -340c93.333 0 186.333 16.667 279 50
c118 42 204.333 103 259 183c12 17.333 18 32.333 18 45c0 19.333 -15.667 29 -47 29c-147.333 1.33301 -241.333 6.33301 -282 15c-114 25.333 -171 84.666 -171 177.999c0 84 52.667 172 158 264c102 89.333 194.667 134 278 134c86 0 164.667 -23 236 -69z" />
    <glyph glyph-name="afii62882" unicode="&#xfc5e;" arabic-form="isolated" 
d="M267 174c0 -34.667 -9 -64.001 -27 -88.001c-19.333 -26 -46 -39 -80 -39c-58.667 0 -104.667 23.333 -138 70c-34.667 -78.667 -88.334 -118 -161.001 -118c-32 0 -58 12 -78 36c-18.667 22 -28 49 -28 81c0 42.667 13.333 95.334 40 158.001l58 -29
c-17.333 -48 -26 -78.333 -26 -91c0 -41.333 17 -62 51 -62c66.667 0 98.334 56 95.001 168l79 43c2.66699 -110.667 31.667 -166 87 -166c36 0 54 19 54 57c0 22 -15 55.333 -45 100l61 46c38.667 -54 58 -109.333 58 -166zM305 604.999
c-0.666992 -90 -54.332 -146.669 -160.999 -170.002l-357 -90l-20 75c54 15.333 81 46.666 81 93.999c0 16 -2.33301 26.333 -7 31c-4.66699 7.33301 -11.334 11 -20.001 11c-14 0 -32.333 -7.66699 -55 -23l-37 56c32 43.333 67 64.666 105 63.999
c56 -1.33301 84 -30.666 84 -87.999c0 -43.333 -13 -82.666 -39 -117.999l139 40c-30 34.667 -45 71.334 -45 110.001c0 44.667 19.667 83.334 59 116.001c34 28.667 68 43 102 43c44 0 84 -14 120 -42c34 -30 51 -66.333 51 -109zM219.002 592.997
c0 21.333 -7.83301 39.1699 -23.5 53.5029s-34.167 21.5 -55.5 21.5c-20.667 0 -39 -7.33301 -55 -22s-24 -32.334 -24 -53.001s8 -38.334 24 -53.001s34.333 -22 55 -22c21.333 0 39.833 7.16699 55.5 21.5s23.5 32.166 23.5 53.499z" />
    <glyph glyph-name="afii62883" unicode="&#xfc5f;" arabic-form="isolated" 
d="M221 574c0 -34.667 -9 -64.001 -27 -88.001c-19.333 -26 -46 -39 -80 -39c-58.667 0 -104.667 23.333 -138 70c-34.667 -78.667 -88.334 -118 -161.001 -118c-32 0 -58 12 -78 36c-18.667 22 -28 49 -28 81c0 42.667 13.333 95.334 40 158.001l58 -29
c-17.333 -48 -26 -78.333 -26 -91c0 -41.333 17 -62 51 -62c66.667 0 98.334 56 95.001 168l79 43c2.66699 -110.667 31.667 -166 87 -166c36 0 54 19 54 57c0 22 -15 55.333 -45 100l61 46c38.667 -54 58 -109.333 58 -166zM243 293.999l-490 -130l-24 77l489 138z
M243 123.999l-490 -130l-24 77l489 138z" />
    <glyph glyph-name="afii62884" unicode="&#xfc60;" arabic-form="isolated" 
d="M267 174c0 -34.667 -9 -64.001 -27 -88.001c-19.333 -26 -46 -39 -80 -39c-58.667 0 -104.667 23.333 -138 70c-34.667 -78.667 -88.334 -118 -161.001 -118c-32 0 -58 12 -78 36c-18.667 22 -28 49 -28 81c0 42.667 13.333 95.334 40 158.001l58 -29
c-17.333 -48 -26 -78.333 -26 -91c0 -41.333 17 -62 51 -62c66.667 0 98.334 56 95.001 168l79 43c2.66699 -110.667 31.667 -166 87 -166c36 0 54 19 54 57c0 22 -15 55.333 -45 100l61 46c38.667 -54 58 -109.333 58 -166zM256 471.999l-490 -130l-24 77l489 138z" />
    <glyph glyph-name="afii62885" unicode="&#xfc61;" arabic-form="isolated" 
d="M242 178c0 -34.667 -9 -64.001 -27 -88.001c-19.333 -26 -46 -39 -80 -39c-58.667 0 -104.667 23.333 -138 70c-34.667 -78.667 -88.334 -118 -161.001 -118c-32 0 -58 12 -78 36c-18.667 22 -28 49 -28 81c0 42.667 13.333 95.334 40 158.001l58 -29
c-17.333 -48 -26 -78.333 -26 -91c0 -41.333 17 -62 51 -62c66.667 0 98.334 56 95.001 168l79 43c2.66699 -110.667 31.667 -166 87 -166c36 0 54 19 54 57c0 22 -15 55.333 -45 100l61 46c38.667 -54 58 -109.333 58 -166zM263 627.999c0 -90 -56 -148.334 -168 -175.001
l-357 -85l-20 75c101.333 21.333 183.333 44.333 246 69c-26.667 33.333 -40 69.333 -40 108c0 44.667 19.667 83.334 59 116.001c34 28.667 68 43 102 43c44 0 84 -14 120 -42c38.667 -30 58 -66.333 58 -109zM170 615.998c0 21.333 -7.83301 39.1699 -23.5 53.5029
s-34.167 21.5 -55.5 21.5c-20.667 0 -39 -7.33301 -55 -22s-24 -32.334 -24 -53.001s8 -38.334 24 -53.001s34.333 -22 55 -22c21.333 0 39.833 7.16699 55.5 21.5s23.5 32.166 23.5 53.499z" />
    <glyph glyph-name="afii62886" unicode="&#xfc62;" arabic-form="isolated" 
d="M221 414c0 -34.667 -9 -64.001 -27 -88.001c-19.333 -26 -46 -39 -80 -39c-58.667 0 -104.667 23.333 -138 70c-34.667 -78.667 -88.334 -118 -161.001 -118c-32 0 -58 12 -78 36c-18.667 22 -28 49 -28 81c0 42.667 13.333 95.334 40 158.001l58 -29
c-17.333 -48 -26 -78.333 -26 -91c0 -41.333 17 -62 51 -62c66.667 0 98.334 56 95.001 168l79 43c2.66699 -110.667 31.667 -166 87 -166c36 0 54 19 54 57c0 22 -15 55.333 -45 100l61 46c38.667 -54 58 -109.333 58 -166zM243 133.999l-490 -130l-24 77l489 138z" />
    <glyph glyph-name="uniFC63" unicode="&#xfc63;" arabic-form="isolated" 
d="M257 178c0 -34.667 -9 -64.001 -27 -88.001c-19.333 -26 -46 -39 -80 -39c-58.667 0 -104.667 23.333 -138 70c-34.667 -78.667 -88.334 -118 -161.001 -118c-32 0 -58 12 -78 36c-18.667 22 -28 49 -28 81c0 42.667 13.333 95.334 40 158.001l58 -29
c-17.333 -48 -26 -78.333 -26 -91c0 -41.333 17 -62 51 -62c66.667 0 98.334 56 95.001 168l79 43c2.66699 -110.667 31.667 -166 87 -166c36 0 54 19 54 57c0 22 -15 55.333 -45 100l61 46c38.667 -54 58 -109.333 58 -166zM61 786.999l-19 -361h-65l-19 361h103z" />
    <glyph glyph-name="uniFCF2" unicode="&#xfcf2;" horiz-adv-x="654" arabic-form="medial" 
d="M583 637c0 -34.667 -9 -64.001 -27 -88.001c-19.333 -26 -46 -39 -80 -39c-58.667 0 -104.667 23.333 -138 70c-34.667 -78.667 -88.334 -118 -161.001 -118c-32 0 -58 12 -78 36c-18.667 22 -28 49 -28 81c0 42.667 13.333 95.334 40 158.001l58 -29
c-17.333 -48 -26 -78.333 -26 -91c0 -41.333 17 -62 51 -62c66.667 0 98.334 56 95.001 168l79 43c2.66699 -110.667 31.667 -166 87 -166c36 0 54 19 54 57c0 22 -15 55.333 -45 100l61 46c38.667 -54 58 -109.333 58 -166zM572 934.999l-490 -130l-24 77l489 138z
M684 -0.000976562h-711v178h711v-178z" />
    <glyph glyph-name="uniFCF3" unicode="&#xfcf3;" horiz-adv-x="654" arabic-form="medial" 
d="M574 479c0 -34.667 -9 -64.001 -27 -88.001c-19.333 -26 -46 -39 -80 -39c-58.667 0 -104.667 23.333 -138 70c-34.667 -78.667 -88.334 -118 -161.001 -118c-32 0 -58 12 -78 36c-18.667 22 -28 49 -28 81c0 42.667 13.333 95.334 40 158.001l58 -29
c-17.333 -48 -26 -78.333 -26 -91c0 -41.333 17 -62 51 -62c66.667 0 98.334 56 95.001 168l79 43c2.66699 -110.667 31.667 -166 87 -166c36 0 54 19 54 57c0 22 -15 55.333 -45 100l61 46c38.667 -54 58 -109.333 58 -166zM595 928.999c0 -90 -56 -148.334 -168 -175.001
l-357 -85l-20 75c101.333 21.333 183.333 44.333 246 69c-26.667 33.333 -40 69.333 -40 108c0 44.667 19.667 83.334 59 116.001c34 28.667 68 43 102 43c44 0 84 -14 120 -42c38.667 -30 58 -66.333 58 -109zM502 916.998c0 21.333 -7.83301 39.1699 -23.5 53.5029
s-34.167 21.5 -55.5 21.5c-20.667 0 -39 -7.33301 -55 -22s-24 -32.334 -24 -53.001s8 -38.334 24 -53.001s34.333 -22 55 -22c21.333 0 39.833 7.16699 55.5 21.5s23.5 32.166 23.5 53.499zM684 0.00195312h-711v178h711v-178z" />
    <glyph glyph-name="uniFCF4" unicode="&#xfcf4;" horiz-adv-x="654" arabic-form="medial" 
d="M577 740c0 -34.667 -9 -64.001 -27 -88.001c-19.333 -26 -46 -39 -80 -39c-58.667 0 -104.667 23.333 -138 70c-34.667 -78.667 -88.334 -118 -161.001 -118c-32 0 -58 12 -78 36c-18.667 22 -28 49 -28 81c0 42.667 13.333 95.334 40 158.001l58 -29
c-17.333 -48 -26 -78.333 -26 -91c0 -41.333 17 -62 51 -62c66.667 0 98.334 56 95.001 168l79 43c2.66699 -110.667 31.667 -166 87 -166c36 0 54 19 54 57c0 22 -15 55.333 -45 100l61 46c38.667 -54 58 -109.333 58 -166zM584 449.999l-490 -130l-24 77l489 138z
M684 -0.000976562h-711v178h711v-178z" />
    <glyph glyph-name="uniFE71" unicode="&#xfe71;" horiz-adv-x="654" arabic-form="medial" 
d="M608 679l-441 -111l-24 78l440 117zM608 506l-441 -110l-24 77l440 118zM684 0h-711v178h711v-178z" />
    <glyph glyph-name="uniFE77" unicode="&#xfe77;" horiz-adv-x="654" arabic-form="medial" 
d="M572 510l-441 -110l-24 77l440 118zM684 0h-711v178h711v-178z" />
    <glyph glyph-name="uniFE79" unicode="&#xfe79;" horiz-adv-x="654" arabic-form="medial" 
d="M610 733c0 -90 -56 -148.334 -168 -175.001l-357 -85l-20 75c101.333 21.333 183.333 44.333 246 69c-26.667 33.333 -40 69.333 -40 108c0 44.667 19.667 83.334 59 116.001c34 28.667 68 43 102 43c44 0 84 -14 120 -42c38.667 -30 58 -66.333 58 -109zM517 720.999
c0 21.333 -7.83301 39.1699 -23.5 53.5029s-34.167 21.5 -55.5 21.5c-20.667 0 -39 -7.33301 -55 -22s-24 -32.334 -24 -53.001s8 -38.334 24 -53.001s34.333 -22 55 -22c21.333 0 39.833 7.16699 55.5 21.5s23.5 32.166 23.5 53.499zM684 0.00292969h-711v178h711v-178z
" />
    <glyph glyph-name="uniFE7B" unicode="&#xfe7b;" horiz-adv-x="654" arabic-form="medial" 
d="M554 -282l-441 -111l-24 78l440 117zM684 0h-711v178h711v-178z" />
    <glyph glyph-name="uniFE7D" unicode="&#xfe7d;" horiz-adv-x="654" arabic-form="medial" 
d="M585 578c0 -34.667 -9 -64.001 -27 -88.001c-19.333 -26 -46 -39 -80 -39c-58.667 0 -104.667 23.333 -138 70c-34.667 -78.667 -88.334 -118 -161.001 -118c-32 0 -58 12 -78 36c-18.667 22 -28 49 -28 81c0 42.667 13.333 95.334 40 158.001l58 -29
c-17.333 -48 -26 -78.333 -26 -91c0 -41.333 17 -62 51 -62c66.667 0 98.334 56 95.001 168l79 43c2.66699 -110.667 31.667 -166 87 -166c36 0 54 19 54 57c0 22 -15 55.333 -45 100l61 46c38.667 -54 58 -109.333 58 -166zM684 -0.000976562h-711v178h711v-178z" />
    <glyph glyph-name="uniFE7F" unicode="&#xfe7f;" horiz-adv-x="654" arabic-form="medial" 
d="M518 640c0 -53.333 -18.5 -98.667 -55.5 -136s-82.167 -56 -135.5 -56c-52 0 -97 19 -135 57s-57 83 -57 135c0 50 19.5 94.333 58.5 133s83.5 58 133.5 58c48.667 0 92.667 -19.667 132 -59s59 -83.333 59 -132zM425 642.999c0 27.333 -10.168 50 -30.501 68
s-44.166 27 -71.499 27c-24.667 0 -46.667 -10.167 -66 -30.5s-29 -42.833 -29 -67.5c0 -66 33 -99 99 -99c65.333 0 98 34 98 102zM683.999 -0.000976562h-711v178h711v-178z" />
    <glyph glyph-name="afii52399" unicode="&#x621;" horiz-adv-x="981" arabic-form="isolated" 
d="M916 173l-686.001 -181.001l-31 110l232 60c-58.667 58 -88 126.667 -88 206c0 65.333 23.667 118.333 71 159c44.667 38 100 57 166 57c44.667 0 104.334 -9.66699 179.001 -29l-17 -98c-58 14.667 -105 22 -141 22c-35.333 0 -68.333 -10.333 -99 -31
c-34 -23.333 -51 -52 -51 -86c0 -41.333 21.667 -75.666 65 -102.999c38 -24 78.667 -36 122 -36c26.667 0 109 19 247 57z" />
    <glyph glyph-name="afii62753" unicode="&#x622;" horiz-adv-x="621" arabic-form="final" 
d="M621 0l-113 -0.000976562c-200.667 0.666992 -301 121.667 -301 363v797h168v-783c0 -67.333 9.66699 -115.666 29 -144.999c24 -36 67.333 -54 130 -54h87v-178zM668 1388c-115.333 -66.667 -246.331 -99.999 -392.998 -99.999c-73.333 2 -150 25.667 -230 71
c-9.33301 -2.66699 -25.333 -24.334 -48 -65.001l-103 62c56.667 101.333 99 152 127 152c5.33301 0 40.166 -15 104.499 -45s119.166 -45 164.499 -45c127.333 2 253.333 33.667 378 95v-125z" />
    <glyph glyph-name="afii62754" unicode="&#x623;" horiz-adv-x="571" arabic-form="final" 
d="M571 0l-113 -0.000976562c-200.667 0.666992 -301 121.667 -301 363v797h168v-783c0 -67.333 9.66699 -115.666 29 -144.999c24 -36 67.333 -54 130 -54h87v-178zM445 1389l-406.001 -138l-29 75l133 46c-32.667 32 -49 74.333 -49 127c0 44.667 22.667 80 68 106
c37.333 21.333 80 32 128 32c19.333 0 39.333 -1.66699 60 -5v-68c-14 2 -28 3 -42 3c-30.667 0 -58 -5.66699 -82 -17c-31.333 -14.667 -47 -35.667 -47 -63c0 -20 8 -36.5 24 -49.5s34.333 -19.5 55 -19.5c24.667 0 78.334 15.333 161.001 46z" />
    <glyph glyph-name="afii62755" unicode="&#x624;" horiz-adv-x="1060" arabic-form="final" 
d="M1060 0l-211.002 0.000976562c-56.667 -202 -298.667 -408 -726 -618l-78 134c350.667 166 568 328 652 486h-119c-87.333 0 -155.166 24 -203.499 72s-72.5 116 -72.5 204c0 64 23.667 118.667 71 164s103 68 167 68c64.667 0 126.334 -24 185.001 -72
c74 -60.667 118.333 -147.334 133 -260.001h202v-178zM707.998 175.001c-2 52 -23.999 96.334 -65.999 133.001c-35.333 31.333 -69 47 -101 47c-25.333 0 -49 -7.66699 -71 -23c-24 -16.667 -36 -37.334 -36 -62.001c0 -30 12 -54 36 -72
c21.333 -15.333 47.666 -23 78.999 -23h159zM746.999 773.002l-406.001 -138l-29 75l133 46c-32.667 32 -49 74.333 -49 127c0 44.667 22.667 80 68 106c37.333 21.333 80 32 128 32c19.333 0 39.333 -1.66699 60 -5v-68c-14 2 -28 3 -42 3c-30.667 0 -58 -5.66699 -82 -17
c-31.333 -14.667 -47 -35.667 -47 -63c0 -20 8 -36.5 24 -49.5s34.333 -19.5 55 -19.5c24.667 0 78.334 15.333 161.001 46z" />
    <glyph glyph-name="afii62756" unicode="&#x625;" horiz-adv-x="571" arabic-form="final" 
d="M571 0l-113 -0.000976562c-200.667 0.666992 -301 121.667 -301 363v797h168v-783c0 -67.333 9.66699 -115.666 29 -144.999c24 -36 67.333 -54 130 -54h87v-178zM481 -403.001l-406.001 -138l-29 75l133 46c-32.667 32 -49 74.333 -49 127c0 44.667 22.667 80 68 106
c37.333 21.333 80 32 128 32c19.333 0 39.333 -1.66699 60 -5v-68c-14 2 -28 3 -42 3c-30.667 0 -58 -5.66699 -82 -17c-31.333 -14.667 -47 -35.667 -47 -63c0 -20 8 -36.5 24 -49.5s34.333 -19.5 55 -19.5c24.667 0 78.334 15.333 161.001 46z" />
    <glyph glyph-name="afii62759" unicode="&#x626;" horiz-adv-x="1447" arabic-form="final" 
d="M1447 0l-97.999 -0.000976562c36.667 -46 55 -92 55 -138c0 -86 -67.667 -171.333 -203 -256c-150 -94 -324 -141 -522 -141c-176.667 0 -311.334 52.333 -404.001 157c-78.667 88.667 -118 200.334 -118 335.001c0 111.333 11 198.333 33 261l131 -39
c-16 -70.667 -24 -128 -24 -172c0 -86.667 20.333 -160.667 61 -222c65.333 -98.667 175.333 -148 330 -148c94 0 188.667 14.333 284 43c110 33.333 193.333 79 250 137c15.333 15.333 23 30.333 23 45c0 24.667 -20.667 50 -62 76c-64 40 -202 73.667 -414 101l41 139h637
v-178zM791.001 587.999l-406.001 -138l-29 75l133 46c-32.667 32 -49 74.333 -49 127c0 44.667 22.667 80 68 106c37.333 21.333 80 32 128 32c19.333 0 39.333 -1.66699 60 -5v-68c-14 2 -28 3 -42 3c-30.667 0 -58 -5.66699 -82 -17c-31.333 -14.667 -47 -35.667 -47 -63
c0 -20 8 -36.5 24 -49.5s34.333 -19.5 55 -19.5c24.667 0 78.334 15.333 161.001 46z" />
    <glyph glyph-name="afii62757" unicode="&#x626;" horiz-adv-x="449" arabic-form="initial" 
d="M399 252c0 -63.333 -19.333 -118.334 -58 -165.001c-48 -57.333 -116.667 -86.333 -206 -87h-205v178h202c74.667 0 112 27.333 112 82c0 22.667 -8 48.334 -24 77.001l-92 163l129 91c52.667 -95.333 84.667 -155.333 96 -180c30.667 -66 46 -119 46 -159zM408 848.999
l-406.001 -138l-29 75l133 46c-32.667 32 -49 74.333 -49 127c0 44.667 22.667 80 68 106c37.333 21.333 80 32 128 32c19.333 0 39.333 -1.66699 60 -5v-68c-14 2 -28 3 -42 3c-30.667 0 -58 -5.66699 -82 -17c-31.333 -14.667 -47 -35.667 -47 -63c0 -20 8 -36.5 24 -49.5
s34.333 -19.5 55 -19.5c24.667 0 78.334 15.333 161.001 46z" />
    <glyph glyph-name="afii62758" unicode="&#x626;" horiz-adv-x="538" arabic-form="medial" 
d="M538 0l-25 -0.000976562c-104 0 -178.333 38 -223 114c-46 -76 -115 -114 -207 -114h-153v178h113c62 -0.666992 101.333 12 118 38c11.333 18 17 58.667 17 122v212h154v-164c0 -85.333 15.667 -142.666 47 -171.999c26 -24 73.667 -36 143 -36h16v-178zM482 824.999
l-406.001 -138l-29 75l133 46c-32.667 32 -49 74.333 -49 127c0 44.667 22.667 80 68 106c37.333 21.333 80 32 128 32c19.333 0 39.333 -1.66699 60 -5v-68c-14 2 -28 3 -42 3c-30.667 0 -58 -5.66699 -82 -17c-31.333 -14.667 -47 -35.667 -47 -63c0 -20 8 -36.5 24 -49.5
s34.333 -19.5 55 -19.5c24.667 0 78.334 15.333 161.001 46z" />
    <glyph glyph-name="afii57415" unicode="&#x627;" horiz-adv-x="383" arabic-form="isolated" 
d="M311 1h-168v1158h168v-1158z" />
    <glyph glyph-name="afii62760" unicode="&#x627;" horiz-adv-x="571" arabic-form="final" 
d="M571 1l-113 -0.000976562c-200.667 0 -301 120.667 -301 362v797h168v-783c0 -67.333 9.66699 -115.666 29 -144.999c24 -36 67.333 -54 130 -54h87v-177z" />
    <glyph glyph-name="afii62763" unicode="&#x628;" horiz-adv-x="1923" arabic-form="final" 
d="M1923 0h-62.999c-114 0.666992 -202.333 44.667 -265 132c-45.333 -87.333 -123.333 -131 -234 -131h-914c-86.667 0 -156.667 28.5 -210 85.5s-80 129.167 -80 216.5v71h149v-34c0 -108 52 -162 156 -162h883c82.667 0 124 23.667 124 71c0 24 -11 55.667 -33 95
l-83 149l130 86l90 -169c40 -75.333 75.667 -128 107 -158c51.333 -49.333 112.666 -74 183.999 -74h59v-178zM925.001 -344h-159v158h159v-158z" />
    <glyph glyph-name="afii62761" unicode="&#x628;" horiz-adv-x="449" arabic-form="initial" 
d="M399 252c0 -63.333 -19.333 -118.334 -58 -165.001c-48 -57.333 -116.667 -86.333 -206 -87h-205v178h202c74.667 0 112 27.333 112 82c0 22.667 -8 48.334 -24 77.001l-92 163l129 91c52.667 -95.333 84.667 -155.333 96 -180c30.667 -66 46 -119 46 -159zM244 -341.001
h-159v158h159v-158z" />
    <glyph glyph-name="afii62762" unicode="&#x628;" horiz-adv-x="538" arabic-form="medial" 
d="M538 0l-25 -0.000976562c-104 0 -178.333 38 -223 114c-46 -76 -115 -114 -207 -114h-153v178h113c62 -0.666992 101.333 12 118 38c11.333 18 17 58.667 17 122v212h154v-164c0 -85.333 15.667 -142.666 47 -171.999c26 -24 73.667 -36 143 -36h16v-178zM302 -346.001
h-159v158h159v-158z" />
    <glyph glyph-name="afii62764" unicode="&#x629;" horiz-adv-x="1079" arabic-form="final" 
d="M1079 0h-45.002c-140.667 0.666992 -244 57.334 -310 170.001c-69.333 -20 -150.666 -30 -243.999 -30c-215.333 0 -323 87.667 -323 263c0 64 48 130.667 144 200c16.667 12 82 51 196 117l-37 87l125 85l173 -469c31.333 -84.667 61.333 -142.334 90 -173.001
c44.667 -48 109.334 -72 194.001 -72h37v-178zM655.998 310l-109.999 275c-86 -42 -145 -75.333 -177 -100c-47.333 -36 -71 -73 -71 -111c0 -52 64 -78 192 -78c63.333 0 118.666 4.66699 165.999 14zM534.999 975h-158v158h158v-158zM318.999 975h-158v158h158v-158z" />
    <glyph glyph-name="afii62767" unicode="&#x62a;" horiz-adv-x="1923" arabic-form="final" 
d="M1923 0h-62.999c-114 0.666992 -202.333 44.667 -265 132c-45.333 -87.333 -123.333 -131 -234 -131h-914c-86.667 0 -156.667 28.5 -210 85.5s-80 129.167 -80 216.5v71h149v-34c0 -108 52 -162 156 -162h883c82.667 0 124 23.667 124 71c0 24 -11 55.667 -33 95
l-83 149l130 86l90 -169c40 -75.333 75.667 -128 107 -158c51.333 -49.333 112.666 -74 183.999 -74h59v-178zM1000 675h-158v158h158v-158zM784.001 675h-158v158h158v-158z" />
    <glyph glyph-name="afii62765" unicode="&#x62a;" horiz-adv-x="449" arabic-form="initial" 
d="M399 252c0 -63.333 -19.333 -118.334 -58 -165.001c-48 -57.333 -116.667 -86.333 -206 -87h-205v178h202c74.667 0 112 27.333 112 82c0 22.667 -8 48.334 -24 77.001l-92 163l129 91c52.667 -95.333 84.667 -155.333 96 -180c30.667 -66 46 -119 46 -159zM320 717.999
h-158v158h158v-158zM104 717.999h-158v158h158v-158z" />
    <glyph glyph-name="afii62766" unicode="&#x62a;" horiz-adv-x="538" arabic-form="medial" 
d="M538 0l-25 -0.000976562c-104 0 -178.333 38 -223 114c-46 -76 -115 -114 -207 -114h-153v178h113c62 -0.666992 101.333 12 118 38c11.333 18 17 58.667 17 122v212h154v-164c0 -85.333 15.667 -142.666 47 -171.999c26 -24 73.667 -36 143 -36h16v-178zM422 691.999
h-158v158h158v-158zM206 691.999h-158v158h158v-158z" />
    <glyph glyph-name="afii62770" unicode="&#x62b;" horiz-adv-x="1923" arabic-form="final" 
d="M1923 0h-62.999c-114 0.666992 -202.333 44.667 -265 132c-45.333 -87.333 -123.333 -131 -234 -131h-914c-86.667 0 -156.667 28.5 -210 85.5s-80 129.167 -80 216.5v71h149v-34c0 -108 52 -162 156 -162h883c82.667 0 124 23.667 124 71c0 24 -11 55.667 -33 95
l-83 149l130 86l90 -169c40 -75.333 75.667 -128 107 -158c51.333 -49.333 112.666 -74 183.999 -74h59v-178zM930.001 833h-159v158h159v-158zM1037 630h-158v158h158v-158zM821.001 630h-158v158h158v-158z" />
    <glyph glyph-name="afii62768" unicode="&#x62b;" horiz-adv-x="449" arabic-form="initial" 
d="M399 252c0 -63.333 -19.333 -118.334 -58 -165.001c-48 -57.333 -116.667 -86.333 -206 -87h-205v178h202c74.667 0 112 27.333 112 82c0 22.667 -8 48.334 -24 77.001l-92 163l129 91c52.667 -95.333 84.667 -155.333 96 -180c30.667 -66 46 -119 46 -159zM209 897.999
h-159v158h159v-158zM316 694.999h-158v158h158v-158zM100 694.999h-158v158h158v-158z" />
    <glyph glyph-name="afii62769" unicode="&#x62b;" horiz-adv-x="538" arabic-form="medial" 
d="M538 0l-25 -0.000976562c-104 0 -178.333 38 -223 114c-46 -76 -115 -114 -207 -114h-153v178h113c62 -0.666992 101.333 12 118 38c11.333 18 17 58.667 17 122v212h154v-164c0 -85.333 15.667 -142.666 47 -171.999c26 -24 73.667 -36 143 -36h16v-178zM323 888.999
h-159v158h159v-158zM430 685.999h-158v158h158v-158zM214 685.999h-158v158h158v-158z" />
    <glyph glyph-name="afii62773" unicode="&#x62c;" horiz-adv-x="1327" arabic-form="final" 
d="M1327 0l-143.001 -0.00488281c-116 0.666992 -203.667 26.334 -263 77.001c-44.667 36.667 -97.667 114.334 -159 233.001c-111.333 -52.667 -208.666 -119.667 -291.999 -201c-114 -112 -171 -227.333 -171 -346c0 -48.667 11.5 -93.667 34.5 -135
s55.167 -77.166 96.5 -107.499s90.5 -54 147.5 -71s119.167 -25.5 186.5 -25.5c152.667 0 301.667 31.333 447 94l66 -132c-176 -81.333 -348.333 -122 -517 -122c-94 0 -178.333 11.667 -253 35s-138 57.333 -190 102s-91.667 99.667 -119 165s-41 140.333 -41 225
c0 162.667 91.667 316 275 460c96 74.667 236 156.667 420 246c-115.333 7.33301 -206.333 12.833 -273 16.5s-109.667 5.5 -129 5.5c-66 0 -127.667 -20.667 -185 -62l-55 122c72 56 152 84 240 84h22l760 -37v-152c-48.667 0 -112 -12 -190 -36
c-80.667 -25.333 -139.667 -51.666 -177 -78.999c20 -30.667 39.333 -56.667 58 -78s36.667 -37.666 54 -48.999c52.667 -36 126 -54 220 -54h130v-178zM736.999 -301.005h-159v158h159v-158z" />
    <glyph glyph-name="afii62771" unicode="&#x62c;" horiz-adv-x="949" arabic-form="initial" 
d="M907 117l-83 -117h-894v178h710l-289 255c-43.333 46.667 -93 70 -149 70h-114v152h148c64 0 123.667 -26 179 -78zM458 -365h-159v158h159v-158z" />
    <glyph glyph-name="afii62772" unicode="&#x62c;" horiz-adv-x="1230" arabic-form="medial" 
d="M1230 0l-113.999 -0.000976562c-152 0.666992 -279 100.334 -381 299.001c-144.667 -123.333 -256 -204.666 -334 -243.999c-73.333 -36 -157 -54.333 -251 -55h-220v178h131c103.333 0 190 12 260 36c28 9.33301 60.167 24.166 96.5 44.499s76.833 45.833 121.5 76.5
l103 73.5l103 75.5c-120 5.33301 -217.5 9.33301 -292.5 12s-127.833 4 -158.5 4c-60.667 0 -116.334 -19.333 -167.001 -58l-58 117c72.667 60 150.667 90 234 90h16l790 -36v-145c-105.333 0 -201.333 -34.333 -288 -103c48.667 -61.333 89.667 -103.333 123 -126
c57.333 -40.667 126.333 -61 207 -61h79v-178zM711.001 -354.001h-159v158h159v-158z" />
    <glyph glyph-name="afii62776" unicode="&#x62d;" horiz-adv-x="1327" arabic-form="final" 
d="M1327 0l-143.001 -0.00488281c-116 0.666992 -203.667 26.334 -263 77.001c-44.667 36.667 -97.667 114.334 -159 233.001c-111.333 -52.667 -208.666 -119.667 -291.999 -201c-114 -112 -171 -227.333 -171 -346c0 -48.667 11.5 -93.667 34.5 -135
s55.167 -77.166 96.5 -107.499s90.5 -54 147.5 -71s119.167 -25.5 186.5 -25.5c152.667 0 301.667 31.333 447 94l66 -132c-176 -81.333 -348.333 -122 -517 -122c-94 0 -178.333 11.667 -253 35s-138 57.333 -190 102s-91.667 99.667 -119 165s-41 140.333 -41 225
c0 162.667 91.667 316 275 460c96 74.667 236 156.667 420 246c-115.333 7.33301 -206.333 12.833 -273 16.5s-109.667 5.5 -129 5.5c-66 0 -127.667 -20.667 -185 -62l-55 122c72 56 152 84 240 84h22l760 -37v-152c-48.667 0 -112 -12 -190 -36
c-80.667 -25.333 -139.667 -51.666 -177 -78.999c20 -30.667 39.333 -56.667 58 -78s36.667 -37.666 54 -48.999c52.667 -36 126 -54 220 -54h130v-178z" />
    <glyph glyph-name="afii62774" unicode="&#x62d;" horiz-adv-x="949" arabic-form="initial" 
d="M907 117l-83 -117h-894v178h710l-289 255c-43.333 46.667 -93 70 -149 70h-114v152h148c64 0 123.667 -26 179 -78z" />
    <glyph glyph-name="afii62775" unicode="&#x62d;" horiz-adv-x="1230" arabic-form="medial" 
d="M1230 0l-113.999 -0.000976562c-152 0.666992 -279 100.334 -381 299.001c-144.667 -123.333 -256 -204.666 -334 -243.999c-73.333 -36 -157 -54.333 -251 -55h-220v178h131c103.333 0 190 12 260 36c28 9.33301 60.167 24.166 96.5 44.499s76.833 45.833 121.5 76.5
l103 73.5l103 75.5c-120 5.33301 -217.5 9.33301 -292.5 12s-127.833 4 -158.5 4c-60.667 0 -116.334 -19.333 -167.001 -58l-58 117c72.667 60 150.667 90 234 90h16l790 -36v-145c-105.333 0 -201.333 -34.333 -288 -103c48.667 -61.333 89.667 -103.333 123 -126
c57.333 -40.667 126.333 -61 207 -61h79v-178z" />
    <glyph glyph-name="afii62779" unicode="&#x62e;" horiz-adv-x="1327" arabic-form="final" 
d="M1327 0l-143.001 -0.00488281c-116 0.666992 -203.667 26.334 -263 77.001c-44.667 36.667 -97.667 114.334 -159 233.001c-111.333 -52.667 -208.666 -119.667 -291.999 -201c-114 -112 -171 -227.333 -171 -346c0 -48.667 11.5 -93.667 34.5 -135
s55.167 -77.166 96.5 -107.499s90.5 -54 147.5 -71s119.167 -25.5 186.5 -25.5c152.667 0 301.667 31.333 447 94l66 -132c-176 -81.333 -348.333 -122 -517 -122c-94 0 -178.333 11.667 -253 35s-138 57.333 -190 102s-91.667 99.667 -119 165s-41 140.333 -41 225
c0 162.667 91.667 316 275 460c96 74.667 236 156.667 420 246c-115.333 7.33301 -206.333 12.833 -273 16.5s-109.667 5.5 -129 5.5c-66 0 -127.667 -20.667 -185 -62l-55 122c72 56 152 84 240 84h22l760 -37v-152c-48.667 0 -112 -12 -190 -36
c-80.667 -25.333 -139.667 -51.666 -177 -78.999c20 -30.667 39.333 -56.667 58 -78s36.667 -37.666 54 -48.999c52.667 -36 126 -54 220 -54h130v-178zM769.999 873.995h-159v158h159v-158z" />
    <glyph glyph-name="afii62777" unicode="&#x62e;" horiz-adv-x="949" arabic-form="initial" 
d="M907 117l-83 -117h-894v178h710l-289 255c-43.333 46.667 -93 70 -149 70h-114v152h148c64 0 123.667 -26 179 -78zM358 796h-159v158h159v-158z" />
    <glyph glyph-name="afii62778" unicode="&#x62e;" horiz-adv-x="1230" arabic-form="medial" 
d="M1230 0l-113.999 -0.000976562c-152 0.666992 -279 100.334 -381 299.001c-144.667 -123.333 -256 -204.666 -334 -243.999c-73.333 -36 -157 -54.333 -251 -55h-220v178h131c103.333 0 190 12 260 36c28 9.33301 60.167 24.166 96.5 44.499s76.833 45.833 121.5 76.5
l103 73.5l103 75.5c-120 5.33301 -217.5 9.33301 -292.5 12s-127.833 4 -158.5 4c-60.667 0 -116.334 -19.333 -167.001 -58l-58 117c72.667 60 150.667 90 234 90h16l790 -36v-145c-105.333 0 -201.333 -34.333 -288 -103c48.667 -61.333 89.667 -103.333 123 -126
c57.333 -40.667 126.333 -61 207 -61h79v-178zM669.001 803.999h-159v158h159v-158z" />
    <glyph glyph-name="afii62780" unicode="&#x62f;" horiz-adv-x="1312" arabic-form="final" 
d="M1312 0h-28.001c-123.333 0.666992 -220.666 46.667 -291.999 138c-32.667 -91.333 -120.334 -137 -263.001 -137h-298c-62.667 0 -120.667 13.333 -174 40c-60 29.333 -102.667 70 -128 122l98 104c52 -59.333 105.333 -89 160 -89h346c83.333 0 125 24 125 72
c0 18.667 -8 43.667 -24 75l-228 443l134 86l229 -450c40.667 -80 83 -136.333 127 -169c50.667 -38 117.334 -57 200.001 -57h16v-178z" />
    <glyph glyph-name="afii62781" unicode="&#x630;" horiz-adv-x="1312" arabic-form="final" 
d="M1312 0h-28.001c-123.333 0.666992 -220.666 46.667 -291.999 138c-32.667 -91.333 -120.334 -137 -263.001 -137h-298c-62.667 0 -120.667 13.333 -174 40c-60 29.333 -102.667 70 -128 122l98 104c52 -59.333 105.333 -89 160 -89h346c83.333 0 125 24 125 72
c0 18.667 -8 43.667 -24 75l-228 443l134 86l229 -450c40.667 -80 83 -136.333 127 -169c50.667 -38 117.334 -57 200.001 -57h16v-178zM679.999 958h-159v158h159v-158z" />
    <glyph glyph-name="afii62782" unicode="&#x631;" horiz-adv-x="1154" arabic-form="final" 
d="M1154 0l-63.001 -0.000976562c-90 0.666992 -163.667 35 -221 103c-6.66699 -40 -26.667 -85 -60 -135c-105.333 -156.667 -334.666 -327 -687.999 -511l-75 140c328 174 541 332.333 639 475c29.333 42.667 44 82.334 44 119.001c0 36 -11.333 74.333 -34 115l-102 183
l137 86l117 -224c60 -115.333 144 -173 252 -173h54v-178z" />
    <glyph glyph-name="afii62783" unicode="&#x632;" horiz-adv-x="1154" arabic-form="final" 
d="M1154 0l-63.001 -0.000976562c-90 0.666992 -163.667 35 -221 103c-6.66699 -40 -26.667 -85 -60 -135c-105.333 -156.667 -334.666 -327 -687.999 -511l-75 140c328 174 541 332.333 639 475c29.333 42.667 44 82.334 44 119.001c0 36 -11.333 74.333 -34 115l-102 183
l137 86l117 -224c60 -115.333 144 -173 252 -173h54v-178zM679.999 692.999h-159v158h159v-158z" />
    <glyph glyph-name="afii62786" unicode="&#x633;" horiz-adv-x="2252" arabic-form="final" 
d="M2252 0l-28 -0.00195312c-42 0 -84 10.667 -126 32c-44.667 22.667 -76.334 51.334 -95.001 86.001c-47.333 -83.333 -111 -125 -191 -125c-92.667 0 -160 41.333 -202 124c-43.333 -77.333 -100.666 -116 -171.999 -116c-52.667 0 -101 14 -145 42
c0 -135.333 -19.333 -238.333 -58 -309c-50.667 -92.667 -129.334 -165.667 -236.001 -219c-98.667 -49.333 -204 -74 -316 -74c-180 0 -319.333 49 -418 147c-86.667 86 -130 195 -130 327c0 119.333 26 234 78 344l129 -39c-38 -112 -57 -204.667 -57 -278
c0 -121.333 47.333 -210.666 142 -267.999c68.667 -41.333 150.334 -62 245.001 -62c119.333 0 223 27 311 81c104 63.333 156 151 156 263c0 16.667 -2 36.334 -6 59.001c-22 124 -74.333 256.667 -157 398l133 84c60.667 -108.667 100.334 -175.667 119.001 -201
c60 -81.333 119 -122 177 -122c39.333 0 66.666 6.66699 81.999 20s23 39.666 23 78.999v270h144v-77c0 -198 54.667 -297 164 -297c54 0 81 34.667 81 104v271h145v-167c0 -132.667 51.667 -199 155 -199h53v-178z" />
    <glyph glyph-name="afii62784" unicode="&#x633;" horiz-adv-x="1192" arabic-form="initial" 
d="M1158 240c0 -76 -25.166 -138.331 -75.499 -186.998s-113.833 -73 -190.5 -73c-110.667 0 -189 41.667 -235 125c-54.667 -76 -113.334 -114 -176.001 -114c-97.333 0 -167 41.333 -209 124c-26.667 -46.667 -61.667 -78.334 -105 -95.001
c-32.667 -12.667 -79.334 -19.334 -140.001 -20.001h-97v178h116c50.667 0 86 11.667 106 35c18 21.333 27 58 27 110v213h139l1 -86c2 -190 57.333 -285 166 -285c33.333 0 55.333 18.333 66 55c6.66699 23.333 10 72 10 146v170h141v-130c0 -66 15 -122.667 45 -170
c34.667 -54.667 83.334 -82 146.001 -82c71.333 0 107 29.667 107 89c0 38 -35.333 116.667 -106 236l125 87c92.667 -163.333 139 -272 139 -326z" />
    <glyph glyph-name="afii62785" unicode="&#x633;" horiz-adv-x="1296" arabic-form="medial" 
d="M1296 0h-29.002c-42 0 -83.667 10.667 -125 32c-44 22 -75 50.667 -93 86c-47.333 -83.333 -111.666 -125 -192.999 -125c-87.333 0 -151.666 41.333 -192.999 124c-48 -83.333 -108.667 -125 -182 -125c-94.667 0 -163.667 41.667 -207 125
c-38.667 -77.333 -102 -116.333 -190 -117h-154v178h144c70 0 105 31.667 105 95v270h145v-77c0 -198 51.667 -297 155 -297c50 0 75 34.667 75 104v270h144v-77c0 -198 54.667 -297 164 -297c54 0 81 34.667 81 104v271h144v-167c0 -132.667 51.667 -199 155 -199h54v-178z
" />
    <glyph glyph-name="afii62789" unicode="&#x634;" horiz-adv-x="2252" arabic-form="final" 
d="M2252 0l-28 -0.00195312c-42 0 -84 10.667 -126 32c-44.667 22.667 -76.334 51.334 -95.001 86.001c-47.333 -83.333 -111 -125 -191 -125c-92.667 0 -160 41.333 -202 124c-43.333 -77.333 -100.666 -116 -171.999 -116c-52.667 0 -101 14 -145 42
c0 -135.333 -19.333 -238.333 -58 -309c-50.667 -92.667 -129.334 -165.667 -236.001 -219c-98.667 -49.333 -204 -74 -316 -74c-180 0 -319.333 49 -418 147c-86.667 86 -130 195 -130 327c0 119.333 26 234 78 344l129 -39c-38 -112 -57 -204.667 -57 -278
c0 -121.333 47.333 -210.666 142 -267.999c68.667 -41.333 150.334 -62 245.001 -62c119.333 0 223 27 311 81c104 63.333 156 151 156 263c0 16.667 -2 36.334 -6 59.001c-22 124 -74.333 256.667 -157 398l133 84c60.667 -108.667 100.334 -175.667 119.001 -201
c60 -81.333 119 -122 177 -122c39.333 0 66.666 6.66699 81.999 20s23 39.666 23 78.999v270h144v-77c0 -198 54.667 -297 164 -297c54 0 81 34.667 81 104v271h145v-167c0 -132.667 51.667 -199 155 -199h53v-178zM1662 898.998h-159v158h159v-158zM1769 695.998h-158v158
h158v-158zM1553 695.998h-158v158h158v-158z" />
    <glyph glyph-name="afii62787" unicode="&#x634;" horiz-adv-x="1192" arabic-form="initial" 
d="M1158 240c0 -76 -25.166 -138.331 -75.499 -186.998s-113.833 -73 -190.5 -73c-110.667 0 -189 41.667 -235 125c-54.667 -76 -113.334 -114 -176.001 -114c-97.333 0 -167 41.333 -209 124c-26.667 -46.667 -61.667 -78.334 -105 -95.001
c-32.667 -12.667 -79.334 -19.334 -140.001 -20.001h-97v178h116c50.667 0 86 11.667 106 35c18 21.333 27 58 27 110v213h139l1 -86c2 -190 57.333 -285 166 -285c33.333 0 55.333 18.333 66 55c6.66699 23.333 10 72 10 146v170h141v-130c0 -66 15 -122.667 45 -170
c34.667 -54.667 83.334 -82 146.001 -82c71.333 0 107 29.667 107 89c0 38 -35.333 116.667 -106 236l125 87c92.667 -163.333 139 -272 139 -326zM691.517 897.689h-149.393v153.11h149.393v-153.11zM792.052 700.971h-148.453v153.111h148.453v-153.111zM589.104 700.971
h-148.453v153.111h148.453v-153.111z" />
    <glyph glyph-name="afii62788" unicode="&#x634;" horiz-adv-x="1296" arabic-form="medial" 
d="M1296 0h-29.002c-42 0 -83.667 10.667 -125 32c-44 22 -75 50.667 -93 86c-47.333 -83.333 -111.666 -125 -192.999 -125c-87.333 0 -151.666 41.333 -192.999 124c-48 -83.333 -108.667 -125 -182 -125c-94.667 0 -163.667 41.667 -207 125
c-38.667 -77.333 -102 -116.333 -190 -117h-154v178h144c70 0 105 31.667 105 95v270h145v-77c0 -198 51.667 -297 155 -297c50 0 75 34.667 75 104v270h144v-77c0 -198 54.667 -297 164 -297c54 0 81 34.667 81 104v271h144v-167c0 -132.667 51.667 -199 155 -199h54v-178z
M707.998 898h-159v158h159v-158zM814.998 695h-158v158h158v-158zM598.998 695h-158v158h158v-158z" />
    <glyph glyph-name="afii62792" unicode="&#x635;" horiz-adv-x="2346" arabic-form="final" 
d="M2346 0l-22 -0.00195312c-107.333 0.666992 -195.666 33.667 -265 99c-70.667 -65.333 -163 -98 -277 -98h-335c-71.333 0 -126.333 14 -165 42c0 -135.333 -19.333 -238.333 -58 -309c-50.667 -92.667 -129.334 -165.667 -236.001 -219
c-98.667 -49.333 -204 -74 -316 -74c-180 0 -319.333 49 -418 147c-86.667 86 -130 195 -130 327c0 119.333 26 234 78 344l129 -39c-38 -112 -57 -204.667 -57 -278c0 -121.333 47.333 -210.666 142 -267.999c68.667 -41.333 150.334 -62 245.001 -62
c119.333 0 223 27 311 81c104 63.333 156 151 156 263c0 16.667 -2 36.334 -6 59.001c-22 124 -74.333 256.667 -157 398l133 84l78 -156c27.333 -48 57 -86 89 -114c202.667 286.667 401.667 430 597 430c81.333 0 152.333 -27.667 213 -83s91 -123.333 91 -204
c0 -55.333 -7 -103 -21 -143c37.333 -32.667 91.333 -49 162 -49h39v-178zM2014 358.998c0 42.667 -16 77 -48 103c-29.333 24.667 -66 37 -110 37c-146 0 -307 -95.667 -483 -287c-8 -8.66699 -12 -15.667 -12 -21c0 -8.66699 12.667 -13 38 -13h397
c73.333 0 130 21 170 63c32 34 48 73.333 48 118z" />
    <glyph glyph-name="afii62790" unicode="&#x635;" horiz-adv-x="1294" arabic-form="initial" 
d="M1258 370c0 -114.667 -35.168 -204.832 -105.501 -270.499s-163.5 -98.5 -279.5 -98.5h-336c-106.667 0 -187 36 -241 108c-53.333 -72 -128 -108.333 -224 -109h-142v178h88c64 0 106.333 8 127 24c24 19.333 36 59.666 36 120.999v214h157v-142
c0 -86 8.33301 -138.667 25 -158c198.667 280 395.334 420 590.001 420c80 0 150.833 -28 212.5 -84s92.5 -123.667 92.5 -203zM1105 359.002c0 42.667 -15.333 76.667 -46 102s-67.667 38 -111 38c-152.667 0 -323 -107 -511 -321h450c73.333 0 130 21 170 63
c32 34 48 73.333 48 118z" />
    <glyph glyph-name="afii62791" unicode="&#x635;" horiz-adv-x="1445" arabic-form="medial" 
d="M1445 0l-29.001 0.000976562c-107.333 0.666992 -196 33.667 -266 99c-71.333 -65.333 -163.666 -98 -276.999 -98h-336c-106.667 0 -187 36 -241 108c-53.333 -72 -128 -108.333 -224 -109h-142v178h88c64 0 106.333 8 127 24c24 19.333 36 59.666 36 120.999v214h157
v-142c0 -86 8.33301 -138.667 25 -158c198.667 280 395.334 420 590.001 420c80 0 150.833 -28 212.5 -84s92.5 -123.667 92.5 -203c0 -54 -7.66699 -101.667 -23 -143c39.333 -32.667 93.666 -49 162.999 -49h47v-178zM1105 359.001c0 42.667 -15.333 76.667 -46 102
s-67.667 38 -111 38c-152.667 0 -323 -107 -511 -321h450c73.333 0 130 21 170 63c32 34 48 73.333 48 118z" />
    <glyph glyph-name="afii62795" unicode="&#x636;" horiz-adv-x="2346" arabic-form="final" 
d="M2346 0l-22 -0.00195312c-107.333 0.666992 -195.666 33.667 -265 99c-70.667 -65.333 -163 -98 -277 -98h-335c-71.333 0 -126.333 14 -165 42c0 -135.333 -19.333 -238.333 -58 -309c-50.667 -92.667 -129.334 -165.667 -236.001 -219
c-98.667 -49.333 -204 -74 -316 -74c-180 0 -319.333 49 -418 147c-86.667 86 -130 195 -130 327c0 119.333 26 234 78 344l129 -39c-38 -112 -57 -204.667 -57 -278c0 -121.333 47.333 -210.666 142 -267.999c68.667 -41.333 150.334 -62 245.001 -62
c119.333 0 223 27 311 81c104 63.333 156 151 156 263c0 16.667 -2 36.334 -6 59.001c-22 124 -74.333 256.667 -157 398l133 84l78 -156c27.333 -48 57 -86 89 -114c202.667 286.667 401.667 430 597 430c81.333 0 152.333 -27.667 213 -83s91 -123.333 91 -204
c0 -55.333 -7 -103 -21 -143c37.333 -32.667 91.333 -49 162 -49h39v-178zM2014 358.998c0 42.667 -16 77 -48 103c-29.333 24.667 -66 37 -110 37c-146 0 -307 -95.667 -483 -287c-8 -8.66699 -12 -15.667 -12 -21c0 -8.66699 12.667 -13 38 -13h397
c73.333 0 130 21 170 63c32 34 48 73.333 48 118zM1569 772.998h-159v158h159v-158z" />
    <glyph glyph-name="afii62793" unicode="&#x636;" horiz-adv-x="1294" arabic-form="initial" 
d="M1258 370c0 -114.667 -35.168 -204.832 -105.501 -270.499s-163.5 -98.5 -279.5 -98.5h-336c-106.667 0 -187 36 -241 108c-53.333 -72 -128 -108.333 -224 -109h-142v178h88c64 0 106.333 8 127 24c24 19.333 36 59.666 36 120.999v214h157v-142
c0 -86 8.33301 -138.667 25 -158c198.667 280 395.334 420 590.001 420c80 0 150.833 -28 212.5 -84s92.5 -123.667 92.5 -203zM1105 359.002c0 42.667 -15.333 76.667 -46 102s-67.667 38 -111 38c-152.667 0 -323 -107 -511 -321h450c73.333 0 130 21 170 63
c32 34 48 73.333 48 118zM620.999 770.002h-159v158h159v-158z" />
    <glyph glyph-name="afii62794" unicode="&#x636;" horiz-adv-x="1445" arabic-form="medial" 
d="M1445 0l-29.001 0.000976562c-107.333 0.666992 -196 33.667 -266 99c-71.333 -65.333 -163.666 -98 -276.999 -98h-336c-106.667 0 -187 36 -241 108c-53.333 -72 -128 -108.333 -224 -109h-142v178h88c64 0 106.333 8 127 24c24 19.333 36 59.666 36 120.999v214h157
v-142c0 -86 8.33301 -138.667 25 -158c198.667 280 395.334 420 590.001 420c80 0 150.833 -28 212.5 -84s92.5 -123.667 92.5 -203c0 -54 -7.66699 -101.667 -23 -143c39.333 -32.667 93.666 -49 162.999 -49h47v-178zM1105 359.001c0 42.667 -15.333 76.667 -46 102
s-67.667 38 -111 38c-152.667 0 -323 -107 -511 -321h450c73.333 0 130 21 170 63c32 34 48 73.333 48 118zM701.999 777.001h-159v158h159v-158z" />
    <glyph glyph-name="afii62798" unicode="&#x637;" horiz-adv-x="1634" arabic-form="final" 
d="M1634 0l-53.001 -0.000976562c-97.333 0.666992 -178 34.334 -242 101.001c-72.667 -67.333 -164.667 -101 -276 -101h-698c-83.333 0.666992 -152.666 20.334 -207.999 59.001v119h233c44.667 0 75 15.333 91 46c12 22.667 18 59 18 109v824h138v-801
c59.333 73.333 128 137 206 191c106 73.333 206 110 300 110c82.667 0 153.667 -27 213 -81c61.333 -56 92 -124.667 92 -206c0 -50.667 -8.33301 -99.334 -25 -146.001c40 -30.667 93.333 -46 160 -46h51v-178zM1296 358.999c0 42 -16 76.333 -48 103
c-30 24.667 -66.667 37 -110 37c-158.667 0 -332 -107 -520 -321h460c58.667 0 108.667 15.333 150 46c45.333 33.333 68 78.333 68 135z" />
    <glyph glyph-name="afii62796" unicode="&#x637;" horiz-adv-x="1169" arabic-form="initial" 
d="M1131 370c0 -123.333 -42.333 -218.333 -127 -285c-70.667 -56 -156.667 -84.333 -258 -85l-816 1v177h142c45.333 0 76 15.333 92 46c11.333 22 17 58.333 17 109v824h138v-801c60.667 74 129.334 137.667 206.001 191c105.333 73.333 205.666 110 300.999 110
c82.667 0 153.667 -27 213 -81c61.333 -56 92 -124.667 92 -206zM978 359c0 42.667 -16 77 -48 103c-29.333 24.667 -66 37 -110 37c-158 0 -331 -107 -519 -321h459c73.333 0 130 21 170 63c32 34 48 73.333 48 118z" />
    <glyph glyph-name="afii62797" unicode="&#x637;" horiz-adv-x="1316" arabic-form="medial" 
d="M1316 0h-52c-97.333 0.666992 -178.333 34.334 -243 101.001c-72 -66.667 -163.667 -100.334 -275 -101.001h-816v178h142c45.333 0 76 15.333 92 46c11.333 22 17 58.333 17 109v824h138v-801c60.667 74 129.334 137.667 206.001 191
c105.333 73.333 205.666 110 300.999 110c82.667 0 153.667 -27 213 -81c61.333 -56 92 -124.667 92 -206c0 -49.333 -8.33301 -98 -25 -146c39.333 -30.667 92.333 -46 159 -46h51v-178zM978 359c0 42.667 -16 77 -48 103c-29.333 24.667 -66 37 -110 37
c-158 0 -331 -107 -519 -321h459c73.333 0 130 21 170 63c32 34 48 73.333 48 118z" />
    <glyph glyph-name="afii62801" unicode="&#x638;" horiz-adv-x="1634" arabic-form="final" 
d="M1634 0l-53.001 -0.000976562c-97.333 0.666992 -178 34.334 -242 101.001c-72.667 -67.333 -164.667 -101 -276 -101h-698c-83.333 0.666992 -152.666 20.334 -207.999 59.001v119h233c44.667 0 75 15.333 91 46c12 22.667 18 59 18 109v824h138v-801
c59.333 73.333 128 137 206 191c106 73.333 206 110 300 110c82.667 0 153.667 -27 213 -81c61.333 -56 92 -124.667 92 -206c0 -50.667 -8.33301 -99.334 -25 -146.001c40 -30.667 93.333 -46 160 -46h51v-178zM1296 358.999c0 42 -16 76.333 -48 103
c-30 24.667 -66.667 37 -110 37c-158.667 0 -332 -107 -520 -321h460c58.667 0 108.667 15.333 150 46c45.333 33.333 68 78.333 68 135zM1109 846.999h-159v158h159v-158z" />
    <glyph glyph-name="afii62799" unicode="&#x638;" horiz-adv-x="1169" arabic-form="initial" 
d="M768 816h-159v158h159v-158zM1131 370c0 -123.333 -42.333 -218.333 -127 -285c-70.667 -56 -156.667 -84.333 -258 -85l-816 1v177h142c45.333 0 76 15.333 92 46c11.333 22 17 58.333 17 109v824h138v-801c60.667 74 129.334 137.667 206.001 191
c105.333 73.333 205.666 110 300.999 110c82.667 0 153.667 -27 213 -81c61.333 -56 92 -124.667 92 -206zM978 359c0 42.667 -16 77 -48 103c-29.333 24.667 -66 37 -110 37c-158 0 -331 -107 -519 -321h459c73.333 0 130 21 170 63c32 34 48 73.333 48 118z" />
    <glyph glyph-name="afii62800" unicode="&#x638;" horiz-adv-x="1316" arabic-form="medial" 
d="M761 831h-159v158h159v-158zM1316 0h-52c-97.333 0.666992 -178.333 34.334 -243 101.001c-72 -66.667 -163.667 -100.334 -275 -101.001h-816v178h142c45.333 0 76 15.333 92 46c11.333 22 17 58.333 17 109v824h138v-801c60.667 74 129.334 137.667 206.001 191
c105.333 73.333 205.666 110 300.999 110c82.667 0 153.667 -27 213 -81c61.333 -56 92 -124.667 92 -206c0 -49.333 -8.33301 -98 -25 -146c39.333 -30.667 92.333 -46 159 -46h51v-178zM978 359c0 42.667 -16 77 -48 103c-29.333 24.667 -66 37 -110 37
c-158 0 -331 -107 -519 -321h459c73.333 0 130 21 170 63c32 34 48 73.333 48 118z" />
    <glyph glyph-name="afii62804" unicode="&#x639;" horiz-adv-x="1024" arabic-form="final" 
d="M1024 0l-61.002 0.000976562c-115.333 0.666992 -222.666 48.334 -321.999 143.001c-56 -29.333 -103.167 -55.333 -141.5 -78s-68.166 -42.334 -89.499 -59.001c-106 -82 -159 -169.333 -159 -262c0 -46.667 10 -88.5 30 -125.5s48 -68.333 84 -94
s79.167 -45.334 129.5 -59.001s106.166 -20.5 167.499 -20.5c118 0 224.667 17 320 51l44 -136c-134 -52 -271 -78 -411 -78c-73.333 0 -141.333 10.833 -204 32.5s-116.667 52.334 -162 92.001s-80.833 87 -106.5 142s-38.5 115.833 -38.5 182.5
c0 95.333 29 181.666 87 258.999c45.333 60 105 113.333 179 160l61 36.5l86 51.5l-22 21l-41.5 40l-42.5 41l-26 25c-58 54.667 -87 101.667 -87 141c0 49.333 51 87.666 153 114.999c70.667 18 141 27 211 27c38 0 72.167 -4.16699 102.5 -12.5s56.333 -20.666 78 -36.999
s38.334 -36.333 50.001 -60s17.5 -50.5 17.5 -80.5c0 -32 -19.333 -74.333 -58 -127c-33.333 -44.667 -64 -77 -92 -97c55.333 -37.333 135 -56 239 -56h25v-178zM765.998 470.001c0 23.333 -36.667 35 -110 35c-117.333 0 -176 -13.667 -176 -41c0 -28 53 -78.333 159 -151
c84.667 64.667 127 117 127 157z" />
    <glyph glyph-name="afii62802" unicode="&#x639;" horiz-adv-x="874" arabic-form="initial" 
d="M829 0l-899 0.000976562v178h205c-30 56 -45 122 -45 198c0 42 8.66699 81 26 117s41.166 67.5 71.499 94.5s66.333 48.167 108 63.5s86.834 23 135.501 23c116.667 0 236.667 -39 360 -117l-73 -116c-96 54 -182.667 81 -260 81c-26 0 -51 -3.83301 -75 -11.5
s-45 -18.334 -63 -32.001s-32.5 -29.5 -43.5 -47.5s-16.5 -37.333 -16.5 -58c0 -130 75.667 -195 227 -195h342v-178z" />
    <glyph glyph-name="afii62803" unicode="&#x639;" horiz-adv-x="745" arabic-form="medial" 
d="M745 0l-45.998 0.00292969c-25.333 0 -52.833 3.66699 -82.5 11s-59.167 17 -88.5 29s-57.666 26.167 -84.999 42.5s-51 33.5 -71 51.5c-94.667 -88.667 -189.334 -133.334 -284.001 -134.001h-158v178h104c100.667 0 171.667 15 213 45
c-2.66699 2 -10.834 9.16699 -24.501 21.5l-44.5 41l-46 42.5c-14.667 13.333 -24.667 22.666 -30 27.999c-63.333 60 -95 110 -95 150c0 49.333 51 87.666 153 114.999c70.667 18 140.667 27 210 27c168 0 252 -60 252 -180c0 -68.667 -46.667 -146.667 -140 -234
c53.333 -37.333 137.666 -56 252.999 -56h10v-178zM484.002 477.003c0 22.667 -37.333 33.998 -112 33.998c-21.333 0 -43 -1.33301 -65 -4s-41.667 -6.16699 -59 -10.5s-31.5 -9.5 -42.5 -15.5s-16.5 -12.333 -16.5 -19c0 -5.33301 5.33301 -14.166 16 -26.499
s24.167 -25.666 40.5 -39.999s34.333 -29 54 -44s38.167 -27.833 55.5 -38.5c86 72 129 126.667 129 164z" />
    <glyph glyph-name="afii62807" unicode="&#x63a;" horiz-adv-x="1024" arabic-form="final" 
d="M694 757h-159v158h159v-158zM1024 0l-61.002 0.000976562c-115.333 0.666992 -222.666 48.334 -321.999 143.001c-56 -29.333 -103.167 -55.333 -141.5 -78s-68.166 -42.334 -89.499 -59.001c-106 -82 -159 -169.333 -159 -262c0 -46.667 10 -88.5 30 -125.5
s48 -68.333 84 -94s79.167 -45.334 129.5 -59.001s106.166 -20.5 167.499 -20.5c118 0 224.667 17 320 51l44 -136c-134 -52 -271 -78 -411 -78c-73.333 0 -141.333 10.833 -204 32.5s-116.667 52.334 -162 92.001s-80.833 87 -106.5 142s-38.5 115.833 -38.5 182.5
c0 95.333 29 181.666 87 258.999c45.333 60 105 113.333 179 160l61 36.5l86 51.5l-22 21l-41.5 40l-42.5 41l-26 25c-58 54.667 -87 101.667 -87 141c0 49.333 51 87.666 153 114.999c70.667 18 141 27 211 27c38 0 72.167 -4.16699 102.5 -12.5s56.333 -20.666 78 -36.999
s38.334 -36.333 50.001 -60s17.5 -50.5 17.5 -80.5c0 -32 -19.333 -74.333 -58 -127c-33.333 -44.667 -64 -77 -92 -97c55.333 -37.333 135 -56 239 -56h25v-178zM765.998 470.001c0 23.333 -36.667 35 -110 35c-117.333 0 -176 -13.667 -176 -41c0 -28 53 -78.333 159 -151
c84.667 64.667 127 117 127 157z" />
    </font>
</defs>
</svg>
