<?xml version="1.0" standalone="no"?>
<!DOCTYPE svg PUBLIC "-//W3C//DTD SVG 1.1//EN" "http://www.w3.org/Graphics/SVG/1.1/DTD/svg11.dtd" >
<svg>
<metadata>
Created by FontForge 20090914 at Wed Aug 26 07:47:07 2015
 By www-data
Typeface &#194;&#169; The scict.ir Corporation plc. Data &#194;&#169; The scict.ir Corporation plc/Type Solutions Inc. 2012-2013. All Rights Reserved.Modify  by Hossein Zahedi.
</metadata>
<defs>
<font id="IRTerafik-Bold" horiz-adv-x="0" >
  <font-face 
    font-family="IRTerafik"
    font-weight="700"
    font-stretch="normal"
    units-per-em="2048"
    panose-1="2 0 8 6 0 0 0 2 0 2"
    ascent="1638"
    descent="-410"
    x-height="850"
    cap-height="1173"
    bbox="-431 -1164 2973 1960"
    underline-thickness="60"
    underline-position="-40"
    unicode-range="U+0020-U+FFFC"
  />
<missing-glyph horiz-adv-x="496" 
 />
    <glyph glyph-name="afii64184" unicode="&#xfedf;&#xfee0;&#x651;&#x670;&#xfeea;" horiz-adv-x="1854" arabic-form="isolated" 
d="M1796 403c0 -66 -5.8291 -124.167 -17.4961 -174.5s-30.167 -92.5 -55.5 -126.5s-58 -59.5 -98 -76.5s-88.333 -25.5 -145 -25.5c-28.667 0 -56.5 4 -83.5 12s-51.833 19.167 -74.5 33.5s-42.667 31.5 -60 51.5s-30.333 42 -39 66
c-8.66699 -27.333 -21.334 -51.666 -38.001 -72.999s-36.5 -39.5 -59.5 -54.5s-48.333 -26.5 -76 -34.5s-56.834 -12 -87.501 -12c-144 0 -240 71 -288 213c-57.333 -12 -107.333 -18 -150 -18c-47.333 0 -91.5 5.5 -132.5 16.5s-77.167 26.667 -108.5 47
s-56.833 45.166 -76.5 74.499s-31.834 62.333 -36.501 99c-2.66699 8 -4 18 -4 30c0 20 8.83301 41.333 26.5 64s43.167 46.5 76.5 71.5s73.5 51 120.5 78s100.167 54.5 159.5 82.5l-21 122l184 58l87 -493c19.333 -111.333 73.666 -167 162.999 -167
c76.667 0 115 63.667 115 191v550h237v-407c0 -215.333 42.667 -323 128 -323c52.667 0 87.667 15 105 45c12.667 22.667 19 67.667 19 135v550h230v-605zM615.004 396l-38.999 190.999c-34 -13.333 -69.167 -28 -105.5 -44s-73.833 -33.667 -112.5 -53
c-9.33301 -13.333 -14 -24.666 -14 -33.999c0 -21.333 14.5 -38.5 43.5 -51.5s76.5 -19.5 142.5 -19.5c31.333 0 59.666 3.66699 84.999 11zM1250 1668l-31 -282h-41l-24 282h96zM1204 1169c-6 -12.667 -13.6699 -23.668 -23.0029 -33.001s-19.666 -17 -30.999 -23
s-23 -10.5 -35 -13.5s-23.667 -4.5 -35 -4.5c-16.667 0 -32 3 -46 9s-25.667 14.333 -35 25s-16.666 23.334 -21.999 38.001s-8 30.667 -8 48c0 58 17.333 103.667 52 137l59 -40l-20.5 -40.5c-6.33301 -12.333 -9.5 -28.5 -9.5 -48.5c0 -20.667 11 -31 33 -31
c17.333 0 28.333 1 33 3c35.333 12.667 53 54.667 53 126h66c0 -69.333 18 -111.333 54 -126c4 -2 15.667 -3 35 -3s29 10 29 30c0 26.667 -12.333 55 -37 85l68 45c22.667 -33.333 35.667 -53 39 -59c10 -20 15 -46 15 -78c0 -80 -38 -120 -114 -120
c-19.333 0 -40.666 6 -63.999 18s-42 30.667 -56 56z" />
    <glyph glyph-name="afii62834" unicode="&#xfedf;&#xfe82;" horiz-adv-x="1159" arabic-form="isolated" 
d="M1158 632c0 -190.667 -55.3301 -343.667 -165.997 -459s-261.334 -173 -452.001 -173c-106.667 0 -221.334 37 -344.001 111v156h458l-427 849l195 121l420 -837c19.333 19.333 37.666 54.333 54.999 105c16.667 47.333 25 86.333 25 117v611h236v-601zM769.003 1433
c-128.667 -74.667 -264.001 -107.667 -406.001 -99c-49.333 2 -105.666 12.333 -168.999 31s-99.333 27 -108 25c-11.333 0 -30.333 -20.333 -57 -61l-139 76l53 124c26 47.333 53.667 71 83 71c14 0 34.333 -6.33301 61 -19c92.667 -42.667 187 -64 283 -64
c135.333 -0.666992 268.333 26.333 399 81v-165z" />
    <glyph glyph-name="afii62835" unicode="&#xfee0;&#xfe82;" horiz-adv-x="1388" arabic-form="final" 
d="M1388 268l0.000976562 -267h-29c-166.667 0 -270.667 87 -312 261c-108 -174 -275.667 -261 -503 -261c-106.667 0 -221.334 37 -344.001 111v156h458l-427 849l195 121l427 -855c24 23.333 43.667 63.333 59 120c13.333 48 20 92.667 20 134v597h237v-601
c0 -154 21.667 -257.667 65 -311c29.333 -36 78 -54 146 -54h8zM778.001 1433c-128.667 -74.667 -264.001 -107.667 -406.001 -99c-49.333 2 -105.666 12.333 -168.999 31s-99.333 27 -108 25c-11.333 0 -30.333 -20.333 -57 -61l-139 76l53 124c26 47.333 53.667 71 83 71
c14 0 34.333 -6.33301 61 -19c92.667 -42.667 187 -64 283 -64c135.333 -0.666992 268.333 26.333 399 81v-165z" />
    <glyph glyph-name="afii62836" unicode="&#xfedf;&#xfe84;" horiz-adv-x="1130" arabic-form="isolated" 
d="M1129 632c0 -190.667 -55.3301 -343.667 -165.997 -459s-261.334 -173 -452.001 -173c-106.667 0 -221.334 37 -344.001 111v156h458l-427 849l195 121l420 -837c19.333 19.333 37.666 54.333 54.999 105c16.667 47.333 25 86.333 25 117v611h236v-601zM524.003 1407
l-514 -126.002l-31 111l180 46c-38.667 45.333 -58 90.333 -58 135c0 50.667 22.667 91.334 68 122.001c39.333 27.333 85.666 41 138.999 41c38 0 71.667 -8 101 -24v-97c-29.333 7.33301 -58.666 11 -87.999 11c-77.333 0 -116 -22.333 -116 -67
c0 -23.333 10 -42.666 30 -57.999c18 -14.667 39 -22 63 -22c20 0 85 15.333 195 46z" />
    <glyph glyph-name="afii62837" unicode="&#xfee0;&#xfe84;" horiz-adv-x="1355" arabic-form="final" 
d="M1355 268l0.000976562 -267h-29c-166.667 0 -270.667 87 -312 261c-108 -174 -275.667 -261 -503 -261c-106.667 0 -221.334 37 -344.001 111v156h458l-427 849l195 121l427 -855c24 23.333 43.667 63.333 59 120c13.333 48 20 92.667 20 134v597h237v-601
c0 -154 21.667 -257.667 65 -311c29.333 -36 78 -54 146 -54h8zM563.001 1430l-514 -126.002l-31 111l180 46c-38.667 45.333 -58 90.333 -58 135c0 50.667 22.667 91.334 68 122.001c39.333 27.333 85.666 41 138.999 41c38 0 71.667 -8 101 -24v-97
c-29.333 7.33301 -58.666 11 -87.999 11c-77.333 0 -116 -22.333 -116 -67c0 -23.333 10 -42.666 30 -57.999c18 -14.667 39 -22 63 -22c20 0 85 15.333 195 46z" />
    <glyph glyph-name="afii62838" unicode="&#xfedf;&#xfe88;" horiz-adv-x="1130" arabic-form="isolated" 
d="M1129 632c0 -190.667 -55.3301 -343.667 -165.997 -459s-261.334 -173 -452.001 -173c-106.667 0 -221.334 37 -344.001 111v156h458l-427 849l195 121l420 -837c19.333 19.333 37.666 54.333 54.999 105c16.667 47.333 25 86.333 25 117v611h236v-601zM656.003 -483
l-514 -126.002l-31 111l180 46c-38.667 45.333 -58 90.333 -58 135c0 50.667 22.667 91.334 68 122.001c39.333 27.333 85.666 41 138.999 41c38 0 71.667 -8 101 -24v-97c-29.333 7.33301 -58.666 11 -87.999 11c-77.333 0 -116 -22.333 -116 -67
c0 -23.333 10 -42.666 30 -57.999c18 -14.667 39 -22 63 -22c20 0 85 15.333 195 46z" />
    <glyph glyph-name="afii62839" unicode="&#xfee0;&#xfe88;" horiz-adv-x="1355" arabic-form="final" 
d="M1355 268l0.000976562 -267h-29c-166.667 0 -270.667 87 -312 261c-108 -174 -275.667 -261 -503 -261c-106.667 0 -221.334 37 -344.001 111v156h458l-427 849l195 121l427 -855c24 23.333 43.667 63.333 59 120c13.333 48 20 92.667 20 134v597h237v-601
c0 -154 21.667 -257.667 65 -311c29.333 -36 78 -54 146 -54h8zM652.001 -469l-514 -126.002l-31 111l180 46c-38.667 45.333 -58 90.333 -58 135c0 50.667 22.667 91.334 68 122.001c39.333 27.333 85.666 41 138.999 41c38 0 71.667 -8 101 -24v-97
c-29.333 7.33301 -58.666 11 -87.999 11c-77.333 0 -116 -22.333 -116 -67c0 -23.333 10 -42.666 30 -57.999c18 -14.667 39 -22 63 -22c20 0 85 15.333 195 46z" />
    <glyph glyph-name="afii62840" unicode="&#xfedf;&#xfe8e;" horiz-adv-x="1130" arabic-form="isolated" 
d="M1129 632c0 -190.667 -55.3301 -343.667 -165.997 -459s-261.334 -173 -452.001 -173c-106.667 0 -221.334 37 -344.001 111v156h458l-427 849l195 121l420 -837c19.333 19.333 37.666 54.333 54.999 105c16.667 47.333 25 86.333 25 117v611h236v-601z" />
    <glyph glyph-name="afii62841" unicode="&#xfee0;&#xfe8e;" horiz-adv-x="1355" arabic-form="final" 
d="M1355 268l0.000976562 -267h-29c-166.667 0 -270.667 87 -312 261c-108 -174 -275.667 -261 -503 -261c-106.667 0 -221.334 37 -344.001 111v156h458l-427 849l195 121l427 -855c24 23.333 43.667 63.333 59 120c13.333 48 20 92.667 20 134v597h237v-601
c0 -154 21.667 -257.667 65 -311c29.333 -36 78 -54 146 -54h8z" />
    <glyph glyph-name="uni0672.fina" unicode="&#x672;" horiz-adv-x="647" 
d="M647 1h-178.001c-105.333 0 -184.666 46.667 -237.999 140c-42.667 75.333 -64 170 -64 284v810h236v-726c0 -78.667 8.66699 -135 26 -169c25.333 -48 73.333 -72 144 -72h74v-267zM329.999 1522c2.66699 1.33301 -1.99902 7.99902 -13.999 19.999
s-24.667 20.333 -38 25c-10 2.66699 -24 -0.833008 -42 -10.5s-29.667 -23.834 -35 -42.501c4.66699 -20.667 14.667 -35.5 30 -44.5s33.5 -14.5 54.5 -16.5s42.667 -1.16699 65 2.5s42.5 7.83398 60.5 12.501c8 2 10 -2.16699 6 -12.5s-10.333 -23.833 -19 -40.5
c-34.667 -25.333 -90.167 -40.666 -166.5 -45.999s-121.166 -23.666 -134.499 -54.999c-7.33301 -2.66699 -10.333 1.5 -9 12.5s3.33301 19.833 6 26.5c11.333 26 35.666 41.167 72.999 45.5s64 10.166 80 17.499c-16.667 0.666992 -36.167 6.83398 -58.5 18.501
s-31.5 33.834 -27.5 66.501c0.666992 25.333 7.83398 48.166 21.501 68.499s30.167 36 49.5 47s41.166 15.167 65.499 12.5s47.833 -14.667 70.5 -36c6.66699 -10.667 6.16699 -21.834 -1.5 -33.501s-19.834 -24.167 -36.501 -37.5z" />
    <glyph glyph-name="uni0673.fina" unicode="&#x673;" horiz-adv-x="647" 
d="M647 1h-178.001c-105.333 0 -184.666 46.667 -237.999 140c-42.667 75.333 -64 170 -64 284v810h236v-726c0 -78.667 8.66699 -135 26 -169c25.333 -48 73.333 -72 144 -72h74v-267zM333.999 -214c2.66699 1.33301 -1.99902 7.99902 -13.999 19.999
s-24.667 20.333 -38 25c-10 2.66699 -24 -0.833008 -42 -10.5s-29.667 -23.834 -35 -42.501c4.66699 -20.667 14.667 -35.5 30 -44.5s33.5 -14.5 54.5 -16.5s42.667 -1.16699 65 2.5s42.5 7.83398 60.5 12.501c8 2 10 -2.16699 6 -12.5s-10.333 -23.833 -19 -40.5
c-34.667 -25.333 -90.167 -40.666 -166.5 -45.999s-121.166 -23.666 -134.499 -54.999c-7.33301 -2.66699 -10.333 1.5 -9 12.5s3.33301 19.833 6 26.5c11.333 26 35.666 41.167 72.999 45.5s64 10.166 80 17.499c-16.667 0.666992 -36.167 6.83398 -58.5 18.501
s-31.5 33.834 -27.5 66.501c0.666992 25.333 7.83398 48.166 21.501 68.499s30.167 36 49.5 47s41.166 15.167 65.499 12.5s47.833 -14.667 70.5 -36c6.66699 -10.667 6.16699 -21.834 -1.5 -33.501s-19.834 -24.167 -36.501 -37.5z" />
    <glyph glyph-name="uni0675.fina" unicode="&#x675;" horiz-adv-x="647" 
d="M647 1h-178.001c-105.333 0 -184.666 46.667 -237.999 140c-42.667 75.333 -64 170 -64 284v810h236v-726c0 -78.667 8.66699 -135 26 -169c25.333 -48 73.333 -72 144 -72h74v-267zM560.999 1487l-514 -126.002l-31 111l180 46c-38.667 45.333 -58 90.333 -58 135
c0 50.667 22.667 91.334 68 122.001c39.333 27.333 85.666 41 138.999 41c38 0 71.667 -8 101 -24v-97c-29.333 7.33301 -58.666 11 -87.999 11c-77.333 0 -116 -22.333 -116 -67c0 -23.333 10 -42.666 30 -57.999c18 -14.667 39 -22 63 -22c20 0 85 15.333 195 46z" />
    <glyph glyph-name="uni0676.fina" unicode="&#x676;" horiz-adv-x="1084" 
d="M170 376c0 83.333 28 156.332 84 218.999s125.333 94 208 94c83.333 0 163 -29 239 -87c98.667 -75.333 162.667 -186.666 192 -333.999h191v-267h-191c-28 -118 -102.667 -234.667 -224 -350c-134.667 -128 -305.667 -231.333 -513 -310l-108 219l188.5 85.5
c83.667 38.333 154.834 82.833 213.501 133.5c77.333 66.667 135.666 146.334 174.999 239.001c-20 -2 -40.333 -3 -61 -3c-107.333 0 -197 28 -269 84c-83.333 65.333 -125 157.666 -125 276.999zM636 278.999c-2 54 -23.999 98 -65.999 132c-34 28 -66.333 42 -97 42
c-18.667 0 -37.834 -9.16699 -57.501 -27.5s-29.5 -36.833 -29.5 -55.5c0 -57.333 30 -90 90 -98c58 -8 111.333 -5.66699 160 7zM739.001 980.999l-514 -126.002l-31 111l180 46c-38.667 45.333 -58 90.333 -58 135c0 50.667 22.667 91.334 68 122.001
c39.333 27.333 85.666 41 138.999 41c38 0 71.667 -8 101 -24v-97c-29.333 7.33301 -58.666 11 -87.999 11c-77.333 0 -116 -22.333 -116 -67c0 -23.333 10 -42.666 30 -57.999c18 -14.667 39 -22 63 -22c20 0 85 15.333 195 46z" />
    <glyph glyph-name="uni0677.fina" unicode="&#x677;" horiz-adv-x="1163" 
d="M249 376c0 83.333 28 156.332 84 218.999s125.333 94 208 94c83.333 0 163 -29 239 -87c98.667 -75.333 162.667 -186.666 192 -333.999h191v-267h-191c-28 -118 -102.667 -234.667 -224 -350c-134.667 -128 -305.667 -231.333 -513 -310l-108 219l188.5 85.5
c83.667 38.333 154.834 82.833 213.501 133.5c77.333 66.667 135.666 146.334 174.999 239.001c-20 -2 -40.333 -3 -61 -3c-107.333 0 -197 28 -269 84c-83.333 65.333 -125 157.666 -125 276.999zM715 278.999c-2 54 -23.999 98 -65.999 132c-34 28 -66.333 42 -97 42
c-18.667 0 -37.834 -9.16699 -57.501 -27.5s-29.5 -36.833 -29.5 -55.5c0 -57.333 30 -90 90 -98c58 -8 111.333 -5.66699 160 7zM1109 966.999l-514 -126.002l-31 111l180 46c-38.667 45.333 -58 90.333 -58 135c0 50.667 22.667 91.334 68 122.001
c39.333 27.333 85.666 41 138.999 41c38 0 71.667 -8 101 -24v-97c-29.333 7.33301 -58.666 11 -87.999 11c-77.333 0 -116 -22.333 -116 -67c0 -23.333 10 -42.666 30 -57.999c18 -14.667 39 -22 63 -22c20 0 85 15.333 195 46zM480.987 1144.71
c0 34.9434 -25.666 52.415 -76.998 52.415c-17.4863 0 -34.127 -5.91797 -49.9219 -17.7529c-15.7939 -11.8359 -23.6914 -26.208 -23.6914 -43.1152c0 -18.5986 8.03809 -34.5205 24.1152 -47.7656c16.0762 -13.2441 33.7041 -19.0205 52.8828 -17.3301
c49.0752 3.94531 73.6133 28.4619 73.6133 73.5488zM263.532 1047.49c-18.0508 29.3076 -27.0752 59.7422 -27.0752 91.3037c0 44.5244 19.7432 83.1309 59.2285 115.819c34.4092 28.7432 68.8184 43.1152 103.228 43.1152c43.999 0 83.7666 -14.3721 119.304 -43.1152
c37.7939 -30.4346 56.6904 -67.0684 56.6904 -109.902c0 -89.6123 -54.7158 -147.381 -164.148 -173.307l-338.452 -79.4668l-23.6924 91.3027z" />
    <glyph glyph-name="uni0678.fina" unicode="&#x678;" horiz-adv-x="1553" 
d="M1553 1l-38.001 0.00195312c0 -66.667 -11 -123.334 -33 -170.001c-58 -122.667 -169.333 -218.334 -334 -287.001c-139.333 -58.667 -286 -88 -440 -88c-360.667 0 -541 192 -541 576c0 87.333 21 189.333 63 306l208 -66c-23.333 -78 -35 -152.333 -35 -223
c0 -222 113.333 -333 340 -333c246.667 0 416 54 508 162c8 9.33301 12 19.333 12 30c0 14 -8.66699 24 -26 30c-55.333 20 -197.666 57 -426.999 111l62 219h681v-267zM971.999 763.002l-514 -126.002l-31 111l180 46c-38.667 45.333 -58 90.333 -58 135
c0 50.667 22.667 91.334 68 122.001c39.333 27.333 85.666 41 138.999 41c38 0 71.667 -8 101 -24v-97c-29.333 7.33301 -58.666 11 -87.999 11c-77.333 0 -116 -22.333 -116 -67c0 -23.333 10 -42.666 30 -57.999c18 -14.667 39 -22 63 -22c20 0 85 15.333 195 46z" />
    <glyph glyph-name="uni067C.init" unicode="&#x67c;" horiz-adv-x="489" 
d="M150 268c56.667 0 85 21.332 85 63.999c0 16.667 -5.33301 34.667 -16 54l-115 206l213 141c112.667 -187.333 169 -322.666 169 -405.999c0 -217.333 -94.667 -326 -284 -326h-272v267h220zM397 900.999h-211v212h211v-212zM112 900.999h-211v212h211v-212zM380 -86.001
c0 -52.667 -18.5 -97.667 -55.5 -135s-82.167 -56 -135.5 -56c-52 0 -96.833 19 -134.5 57s-56.5 82.667 -56.5 134c0 50 19.333 94.333 58 133s83 58 133 58c49.333 0 93.5 -19.333 132.5 -58s58.5 -83 58.5 -133zM270 -84.001c0 22.667 -8.33398 41.5 -25.001 56.5
s-36.667 22.5 -60 22.5c-19.333 0 -37.166 -8.5 -53.499 -25.5s-24.5 -35.5 -24.5 -55.5c0 -24 7.5 -43.667 22.5 -59s34.833 -23 59.5 -23c54 0 81 28 81 84z" />
    <glyph glyph-name="uni067C.medi" unicode="&#x67c;" horiz-adv-x="622" 
d="M622 1h-27.001c-50.667 0 -99.167 14.667 -145.5 44s-80.5 66.666 -102.5 111.999c-26.667 -57.333 -59.167 -97.666 -97.5 -120.999s-89.166 -35 -152.499 -35h-167v267h87c95.333 0 143 53.667 143 161v263h236v-135c0 -192.667 69.333 -289 208 -289h18v-267z
M501.999 873h-211v212h211v-212zM216.999 873h-211v212h211v-212zM386.999 -86c0 -52.667 -18.5 -97.667 -55.5 -135s-82.167 -56 -135.5 -56c-52 0 -96.833 19 -134.5 57s-56.5 82.667 -56.5 134c0 50 19.333 94.333 58 133s83 58 133 58c49.333 0 93.5 -19.333 132.5 -58
s58.5 -83 58.5 -133zM276.999 -84c0 22.667 -8.33398 41.5 -25.001 56.5s-36.667 22.5 -60 22.5c-19.333 0 -37.166 -8.5 -53.499 -25.5s-24.5 -35.5 -24.5 -55.5c0 -24 7.5 -43.667 22.5 -59s34.833 -23 59.5 -23c54 0 81 28 81 84z" />
    <glyph glyph-name="uni067C.fina" unicode="&#x67c;" horiz-adv-x="2293" 
d="M1699 1h-1185c-231.333 0 -347 120.333 -347 361v150h236v-111c0 -51.333 13.667 -87 41 -107c23.333 -17.333 62 -26 116 -26h1104c54.667 0 82 18.333 82 55c0 18 -6.33301 39 -19 63l-108 206l201 135c8.66699 -14 39 -70.667 91 -170
c101.333 -192.667 223 -289 365 -289h17v-267h-21c-131.333 0 -241.333 62.333 -330 187c-22.667 -124.667 -103.667 -187 -243 -187zM1244 822h-211v212h211v-212zM959 822h-211v212h211v-212zM1236 -85c0 -52.667 -18.5 -97.667 -55.5 -135s-82.167 -56 -135.5 -56
c-52 0 -96.833 19 -134.5 57s-56.5 82.667 -56.5 134c0 50 19.333 94.333 58 133s83 58 133 58c49.333 0 93.5 -19.333 132.5 -58s58.5 -83 58.5 -133zM1126 -83c0 22.667 -8.33398 41.5 -25.001 56.5s-36.667 22.5 -60 22.5c-19.333 0 -37.166 -8.5 -53.499 -25.5
s-24.5 -35.5 -24.5 -55.5c0 -24 7.5 -43.667 22.5 -59s34.833 -23 59.5 -23c54 0 81 28 81 84z" />
    <glyph glyph-name="uni067D.init" unicode="&#x67d;" horiz-adv-x="489" 
d="M150 268c56.667 0 85 21.332 85 63.999c0 16.667 -5.33301 34.667 -16 54l-115 206l213 141c112.667 -187.333 169 -322.666 169 -405.999c0 -217.333 -94.667 -326 -284 -326h-272v267h220zM450 1058h-211v215h211v-215zM187 1058h-209v215h209v-215zM315 806.999h-215
v212h215v-212z" />
    <glyph glyph-name="uni067D.medi" unicode="&#x67d;" horiz-adv-x="622" 
d="M622 1h-27.001c-50.667 0 -99.167 14.667 -145.5 44s-80.5 66.666 -102.5 111.999c-26.667 -57.333 -59.167 -97.666 -97.5 -120.999s-89.166 -35 -152.499 -35h-167v267h87c95.333 0 143 53.667 143 161v263h236v-135c0 -192.667 69.333 -289 208 -289h18v-267z
M512.999 1082h-211v215h211v-215zM249.999 1082h-209v215h209v-215zM377.999 831h-215v212h215v-212z" />
    <glyph glyph-name="uni067D.fina" unicode="&#x67d;" horiz-adv-x="2293" 
d="M1699 1h-1185c-231.333 0 -347 120.333 -347 361v150h236v-111c0 -51.333 13.667 -87 41 -107c23.333 -17.333 62 -26 116 -26h1104c54.667 0 82 18.333 82 55c0 18 -6.33301 39 -19 63l-108 206l201 135c8.66699 -14 39 -70.667 91 -170
c101.333 -192.667 223 -289 365 -289h17v-267h-21c-131.333 0 -241.333 62.333 -330 187c-22.667 -124.667 -103.667 -187 -243 -187zM1256 970h-211v215h211v-215zM993 970h-209v215h209v-215zM1121 719h-215v212h215v-212z" />
    <glyph glyph-name="uni0681.init" unicode="&#x681;" horiz-adv-x="986" 
d="M986 185l-135 -184h-921v267h647l-247 244c-35.333 34.667 -76 52 -122 52h-160v243h206c74 0 135.333 -24.333 184 -73zM693 1109l-514 -126.002l-31 111l180 46c-38.667 45.333 -58 90.333 -58 135c0 50.667 22.667 91.334 68 122.001
c39.333 27.333 85.666 41 138.999 41c38 0 71.667 -8 101 -24v-97c-29.333 7.33301 -58.666 11 -87.999 11c-77.333 0 -116 -22.333 -116 -67c0 -23.333 10 -42.666 30 -57.999c18 -14.667 39 -22 63 -22c20 0 85 15.333 195 46z" />
    <glyph glyph-name="uni0681.medi" unicode="&#x681;" horiz-adv-x="1286" 
d="M851 431c22.667 -25.333 44.3311 -47 64.998 -65s40.334 -32.667 59.001 -44c60.667 -36 133 -54 217 -54h94v-267h-198c-95.333 0 -173 29 -233 87c-28.667 26.667 -79.667 98.334 -153 215.001l-145.5 -123c-40.333 -33.333 -74.5 -58.666 -102.5 -75.999
c-105.333 -68.667 -203.333 -103 -294 -103h-230v267h96c105.333 0 195.666 14.333 270.999 43c31.333 11.333 62.833 26.166 94.5 44.499s63.834 40.166 96.501 65.499l69 53.5l128 100.5c-140 4 -242.667 6 -308 6c-24.667 0 -45.667 -0.5 -63 -1.5
s-34.666 -3.5 -51.999 -7.5s-36.333 -10.167 -57 -18.5s-46.667 -19.833 -78 -34.5l-114 195c76 87.333 167.333 131 274 131l957 -34l-28 -255h-87c-54 0 -105.333 -13.333 -154 -40c-12.667 -7.33301 -29 -18 -49 -32zM935.997 1167l-514 -126.002l-31 111l180 46
c-38.667 45.333 -58 90.333 -58 135c0 50.667 22.667 91.334 68 122.001c39.333 27.333 85.666 41 138.999 41c38 0 71.667 -8 101 -24v-97c-29.333 7.33301 -58.666 11 -87.999 11c-77.333 0 -116 -22.333 -116 -67c0 -23.333 10 -42.666 30 -57.999
c18 -14.667 39 -22 63 -22c20 0 85 15.333 195 46z" />
    <glyph glyph-name="uni0681.fina" unicode="&#x681;" horiz-adv-x="1466" 
d="M424 -131c0 -52.667 9.99902 -100.162 29.999 -142.495s47.833 -78.5 83.5 -108.5s78.334 -53 128.001 -69s104.5 -24 164.5 -24c102.667 0 191.667 13 267 39l72 28c28.667 11.333 63 23.666 103 36.999l114 -219c-187.333 -101.333 -370 -152 -548 -152
c-106.667 0 -201.5 13.167 -284.5 39.5s-153.167 64.833 -210.5 115.5s-101 113.167 -131 187.5s-45 159.166 -45 254.499c0 179.333 90 347.666 270 504.999c52 44.667 107.667 86.167 167 124.5s124.333 74.166 195 107.499c-28.667 1.33301 -56.834 2.33301 -84.501 3
s-55.5 1 -83.5 1c-46 0 -91.333 -1 -136 -3c-53.333 -2 -113.333 -22.333 -180 -61l-120 195c14 18 31.333 35 52 51s43 30 67 42s48.5 21.5 73.5 28.5s48.833 10.5 71.5 10.5l969 -35l-25 -254h-89c-23.333 0 -49 -2.66699 -77 -8s-55.833 -12.5 -83.5 -21.5
s-54 -19.333 -79 -31s-46.167 -23.5 -63.5 -35.5c42.667 -62.667 78 -105.334 106 -128.001c62 -52 137 -78 225 -78h124v-267h-167c-116.667 0 -208.667 29.667 -276 89c-51.333 45.333 -115.666 138.666 -192.999 279.999c-94.667 -58 -180 -127.667 -256 -209
c-100 -107.333 -150 -204.666 -150 -291.999zM1049 1168l-514 -126.002l-31 111l180 46c-38.667 45.333 -58 90.333 -58 135c0 50.667 22.667 91.334 68 122.001c39.333 27.333 85.666 41 138.999 41c38 0 71.667 -8 101 -24v-97c-29.333 7.33301 -58.666 11 -87.999 11
c-77.333 0 -116 -22.333 -116 -67c0 -23.333 10 -42.666 30 -57.999c18 -14.667 39 -22 63 -22c20 0 85 15.333 195 46z" />
    <glyph glyph-name="uni0682.init" unicode="&#x682;" horiz-adv-x="986" 
d="M986 185l-135 -184h-921v267h647l-247 244c-35.333 34.667 -76 52 -122 52h-160v243h206c74 0 135.333 -24.333 184 -73zM494 1192h-211v212h211v-212zM494 934h-211v212h211v-212z" />
    <glyph glyph-name="uni0682.medi" unicode="&#x682;" horiz-adv-x="1286" 
d="M851 431c22.667 -25.333 44.3311 -47 64.998 -65s40.334 -32.667 59.001 -44c60.667 -36 133 -54 217 -54h94v-267h-198c-95.333 0 -173 29 -233 87c-28.667 26.667 -79.667 98.334 -153 215.001l-145.5 -123c-40.333 -33.333 -74.5 -58.666 -102.5 -75.999
c-105.333 -68.667 -203.333 -103 -294 -103h-230v267h96c105.333 0 195.666 14.333 270.999 43c31.333 11.333 62.833 26.166 94.5 44.499s63.834 40.166 96.501 65.499l69 53.5l128 100.5c-140 4 -242.667 6 -308 6c-24.667 0 -45.667 -0.5 -63 -1.5
s-34.666 -3.5 -51.999 -7.5s-36.333 -10.167 -57 -18.5s-46.667 -19.833 -78 -34.5l-114 195c76 87.333 167.333 131 274 131l957 -34l-28 -255h-87c-54 0 -105.333 -13.333 -154 -40c-12.667 -7.33301 -29 -18 -49 -32zM731.997 1263h-211v212h211v-212zM731.997 1005h-211
v212h211v-212z" />
    <glyph glyph-name="uni0682.fina" unicode="&#x682;" horiz-adv-x="1466" 
d="M424 -131c0 -52.667 9.99902 -100.162 29.999 -142.495s47.833 -78.5 83.5 -108.5s78.334 -53 128.001 -69s104.5 -24 164.5 -24c102.667 0 191.667 13 267 39l72 28c28.667 11.333 63 23.666 103 36.999l114 -219c-187.333 -101.333 -370 -152 -548 -152
c-106.667 0 -201.5 13.167 -284.5 39.5s-153.167 64.833 -210.5 115.5s-101 113.167 -131 187.5s-45 159.166 -45 254.499c0 179.333 90 347.666 270 504.999c52 44.667 107.667 86.167 167 124.5s124.333 74.166 195 107.499c-28.667 1.33301 -56.834 2.33301 -84.501 3
s-55.5 1 -83.5 1c-46 0 -91.333 -1 -136 -3c-53.333 -2 -113.333 -22.333 -180 -61l-120 195c14 18 31.333 35 52 51s43 30 67 42s48.5 21.5 73.5 28.5s48.833 10.5 71.5 10.5l969 -35l-25 -254h-89c-23.333 0 -49 -2.66699 -77 -8s-55.833 -12.5 -83.5 -21.5
s-54 -19.333 -79 -31s-46.167 -23.5 -63.5 -35.5c42.667 -62.667 78 -105.334 106 -128.001c62 -52 137 -78 225 -78h124v-267h-167c-116.667 0 -208.667 29.667 -276 89c-51.333 45.333 -115.666 138.666 -192.999 279.999c-94.667 -58 -180 -127.667 -256 -209
c-100 -107.333 -150 -204.666 -150 -291.999zM936.999 1294h-211v212h211v-212zM936.999 1036h-211v212h211v-212z" />
    <glyph glyph-name="uni0685.init" unicode="&#x685;" horiz-adv-x="986" 
d="M986 185l-135 -184h-921v267h647l-247 244c-35.333 34.667 -76 52 -122 52h-160v243h206c74 0 135.333 -24.333 184 -73zM640 959h-211v215h211v-215zM377 959h-209v215h209v-215zM505 1212h-215v213h215v-213z" />
    <glyph glyph-name="uni0685.medi" unicode="&#x685;" horiz-adv-x="1286" 
d="M851 431c22.667 -25.333 44.3311 -47 64.998 -65s40.334 -32.667 59.001 -44c60.667 -36 133 -54 217 -54h94v-267h-198c-95.333 0 -173 29 -233 87c-28.667 26.667 -79.667 98.334 -153 215.001l-145.5 -123c-40.333 -33.333 -74.5 -58.666 -102.5 -75.999
c-105.333 -68.667 -203.333 -103 -294 -103h-230v267h96c105.333 0 195.666 14.333 270.999 43c31.333 11.333 62.833 26.166 94.5 44.499s63.834 40.166 96.501 65.499l69 53.5l128 100.5c-140 4 -242.667 6 -308 6c-24.667 0 -45.667 -0.5 -63 -1.5
s-34.666 -3.5 -51.999 -7.5s-36.333 -10.167 -57 -18.5s-46.667 -19.833 -78 -34.5l-114 195c76 87.333 167.333 131 274 131l957 -34l-28 -255h-87c-54 0 -105.333 -13.333 -154 -40c-12.667 -7.33301 -29 -18 -49 -32zM845.997 1001h-211v215h211v-215zM582.997 1001h-209
v215h209v-215zM710.997 1254h-215v213h215v-213z" />
    <glyph glyph-name="uni0685.fina" unicode="&#x685;" horiz-adv-x="1466" 
d="M424 -131c0 -52.667 9.99902 -100.162 29.999 -142.495s47.833 -78.5 83.5 -108.5s78.334 -53 128.001 -69s104.5 -24 164.5 -24c102.667 0 191.667 13 267 39l72 28c28.667 11.333 63 23.666 103 36.999l114 -219c-187.333 -101.333 -370 -152 -548 -152
c-106.667 0 -201.5 13.167 -284.5 39.5s-153.167 64.833 -210.5 115.5s-101 113.167 -131 187.5s-45 159.166 -45 254.499c0 179.333 90 347.666 270 504.999c52 44.667 107.667 86.167 167 124.5s124.333 74.166 195 107.499c-28.667 1.33301 -56.834 2.33301 -84.501 3
s-55.5 1 -83.5 1c-46 0 -91.333 -1 -136 -3c-53.333 -2 -113.333 -22.333 -180 -61l-120 195c14 18 31.333 35 52 51s43 30 67 42s48.5 21.5 73.5 28.5s48.833 10.5 71.5 10.5l969 -35l-25 -254h-89c-23.333 0 -49 -2.66699 -77 -8s-55.833 -12.5 -83.5 -21.5
s-54 -19.333 -79 -31s-46.167 -23.5 -63.5 -35.5c42.667 -62.667 78 -105.334 106 -128.001c62 -52 137 -78 225 -78h124v-267h-167c-116.667 0 -208.667 29.667 -276 89c-51.333 45.333 -115.666 138.666 -192.999 279.999c-94.667 -58 -180 -127.667 -256 -209
c-100 -107.333 -150 -204.666 -150 -291.999zM1074 1027h-211v215h211v-215zM810.999 1027h-209v215h209v-215zM938.999 1280h-215v213h215v-213z" />
    <glyph glyph-name="uni0689.fina" unicode="&#x689;" horiz-adv-x="1524" 
d="M855 1h-316.001c-125.333 0 -250.666 73 -375.999 219l163 163c69.333 -76.667 131 -115 185 -115h316c94 0 141 19.333 141 58c0 16 -6.33301 36.333 -19 61l-268 521l209 135l281 -556c38.667 -76.667 81.667 -131.667 129 -165c52.667 -36 120 -54 202 -54h22v-267
h-30c-121.333 0 -227.666 52 -318.999 156c-47.333 -60 -83.333 -97.667 -108 -113c-46.667 -28.667 -117.334 -43 -212.001 -43zM850.999 -131c0 -52.667 -18.5 -97.667 -55.5 -135s-82.167 -56 -135.5 -56c-52 0 -96.833 19 -134.5 57s-56.5 82.667 -56.5 134
c0 50 19.333 94.333 58 133s83 58 133 58c49.333 0 93.5 -19.333 132.5 -58s58.5 -83 58.5 -133zM740.999 -129c0 22.667 -8.33398 41.5 -25.001 56.5s-36.667 22.5 -60 22.5c-19.333 0 -37.166 -8.5 -53.499 -25.5s-24.5 -35.5 -24.5 -55.5c0 -24 7.5 -43.667 22.5 -59
s34.833 -23 59.5 -23c54 0 81 28 81 84z" />
    <glyph glyph-name="uni068A.fina" unicode="&#x68a;" horiz-adv-x="1524" 
d="M855 1h-316.001c-125.333 0 -250.666 73 -375.999 219l163 163c69.333 -76.667 131 -115 185 -115h316c94 0 141 19.333 141 58c0 16 -6.33301 36.333 -19 61l-268 521l209 135l281 -556c38.667 -76.667 81.667 -131.667 129 -165c52.667 -36 120 -54 202 -54h22v-267
h-30c-121.333 0 -227.666 52 -318.999 156c-47.333 -60 -83.333 -97.667 -108 -113c-46.667 -28.667 -117.334 -43 -212.001 -43zM660.999 -449h-237v237h237v-237z" />
    <glyph glyph-name="uni068b.fina" unicode="&#x68b;" horiz-adv-x="1524" 
d="M855 1h-316.001c-125.333 0 -250.666 73 -375.999 219l163 163c69.333 -76.667 131 -115 185 -115h316c94 0 141 19.333 141 58c0 16 -6.33301 36.333 -19 61l-268 521l209 135l281 -556c38.667 -76.667 81.667 -131.667 129 -165c52.667 -36 120 -54 202 -54h22v-267
h-30c-121.333 0 -227.666 52 -318.999 156c-47.333 -60 -83.333 -97.667 -108 -113c-46.667 -28.667 -117.334 -43 -212.001 -43zM602.999 1322l0.000976562 281.001h79v-246c23.333 30 48 54.667 74 74c33.333 24.667 65.333 37 96 37c32.667 0 60.667 -14 84 -42
c22 -26 33 -55.667 33 -89c0 -50.667 -18 -89.334 -54 -116.001c-26 -20 -52.333 -30 -79 -30h-233c-36.667 0 -75.334 14.333 -116.001 43v47h91c16.667 0 25 13.667 25 41zM896 1338c0 14 -5.66797 25.333 -17.001 34c-10 8 -22 12 -36 12c-34 0 -79 -34.333 -135 -103
h125c18.667 0 33.834 5 45.501 15s17.5 24 17.5 42zM709.999 -419.999h-237v237h237v-237z" />
    <glyph glyph-name="uni068F.fina" unicode="&#x68f;" horiz-adv-x="1524" 
d="M855 1h-316.001c-125.333 0 -250.666 73 -375.999 219l163 163c69.333 -76.667 131 -115 185 -115h316c94 0 141 19.333 141 58c0 16 -6.33301 36.333 -19 61l-268 521l209 135l281 -556c38.667 -76.667 81.667 -131.667 129 -165c52.667 -36 120 -54 202 -54h22v-267
h-30c-121.333 0 -227.666 52 -318.999 156c-47.333 -60 -83.333 -97.667 -108 -113c-46.667 -28.667 -117.334 -43 -212.001 -43zM969.999 1375h-211v215h211v-215zM706.999 1375h-209v215h209v-215zM834.999 1124h-215v212h215v-212z" />
    <glyph glyph-name="uni0690.fina" unicode="&#x690;" horiz-adv-x="1524" 
d="M855 1h-316.001c-125.333 0 -250.666 73 -375.999 219l163 163c69.333 -76.667 131 -115 185 -115h316c94 0 141 19.333 141 58c0 16 -6.33301 36.333 -19 61l-268 521l209 135l281 -556c38.667 -76.667 81.667 -131.667 129 -165c52.667 -36 120 -54 202 -54h22v-267
h-30c-121.333 0 -227.666 52 -318.999 156c-47.333 -60 -83.333 -97.667 -108 -113c-46.667 -28.667 -117.334 -43 -212.001 -43zM921.999 1333h-211v215h211v-215zM658.999 1333h-209v215h209v-215zM786.999 1082h-215v212h215v-212zM774.999 1615h-215v212h215v-212z" />
    <glyph glyph-name="uni0692.fina" unicode="&#x692;" horiz-adv-x="1219" 
d="M925 129c-5.33301 -22 -26.332 -64.668 -62.999 -128.001c-74 -126.667 -305.667 -300.334 -695 -521.001l-119 215c94.667 51.333 182.667 103 264 155c187.333 120 305.666 221 354.999 303c17.333 28.667 26 63 26 103c0 32.667 -6.33301 62.334 -19 89.001
c-18.667 50.667 -60.334 136.334 -125.001 257.001l215 129l135 -265c31.333 -62 58.333 -104 81 -126c48.667 -48 118.334 -72 209.001 -72h30v-267h-29c-110.667 0 -199 42.667 -265 128zM802.001 1220c-12 -9.33301 -27.8311 -28.8311 -47.498 -58.498
s-39.834 -63.834 -60.501 -102.501s-39.834 -79.334 -57.501 -122.001s-30.834 -81.667 -39.501 -117h-94c-6 24 -14.333 49.667 -25 77s-22.334 54.833 -35.001 82.5s-26 54.5 -40 80.5s-27.5 49.833 -40.5 71.5s-25.167 40.167 -36.5 55.5s-20.666 26.333 -27.999 33
l155 2c8.66699 -12.667 17.667 -30 27 -52s18.5 -45.833 27.5 -71.5s17.167 -51.167 24.5 -76.5s13 -48 17 -68c4 20 9.83301 42.667 17.5 68s16 50.833 25 76.5s18.333 49.5 28 71.5s18.834 39.333 27.501 52z" />
    <glyph glyph-name="uni0693.fina" unicode="&#x693;" horiz-adv-x="1219" 
d="M925 129c-5.33301 -22 -26.332 -64.668 -62.999 -128.001c-74 -126.667 -305.667 -300.334 -695 -521.001l-119 215c94.667 51.333 182.667 103 264 155c187.333 120 305.666 221 354.999 303c17.333 28.667 26 63 26 103c0 32.667 -6.33301 62.334 -19 89.001
c-18.667 50.667 -60.334 136.334 -125.001 257.001l215 129l135 -265c31.333 -62 58.333 -104 81 -126c48.667 -48 118.334 -72 209.001 -72h30v-267h-29c-110.667 0 -199 42.667 -265 128zM690.001 -471.001c0 -52.667 -18.5 -97.667 -55.5 -135s-82.167 -56 -135.5 -56
c-52 0 -96.833 19 -134.5 57s-56.5 82.667 -56.5 134c0 50 19.333 94.333 58 133s83 58 133 58c49.333 0 93.5 -19.333 132.5 -58s58.5 -83 58.5 -133zM580.001 -469.001c0 22.667 -8.33398 41.5 -25.001 56.5s-36.667 22.5 -60 22.5c-19.333 0 -37.166 -8.5 -53.499 -25.5
s-24.5 -35.5 -24.5 -55.5c0 -24 7.5 -43.667 22.5 -59s34.833 -23 59.5 -23c54 0 81 28 81 84z" />
    <glyph glyph-name="uni0694.fina" unicode="&#x694;" horiz-adv-x="1219" 
d="M925 129c-5.33301 -22 -26.332 -64.668 -62.999 -128.001c-74 -126.667 -305.667 -300.334 -695 -521.001l-119 215c94.667 51.333 182.667 103 264 155c187.333 120 305.666 221 354.999 303c17.333 28.667 26 63 26 103c0 32.667 -6.33301 62.334 -19 89.001
c-18.667 50.667 -60.334 136.334 -125.001 257.001l215 129l135 -265c31.333 -62 58.333 -104 81 -126c48.667 -48 118.334 -72 209.001 -72h30v-267h-29c-110.667 0 -199 42.667 -265 128zM590.001 -815.001h-237v237h237v-237z" />
    <glyph glyph-name="uni0695.fina" unicode="&#x695;" horiz-adv-x="1219" 
d="M925 129c-5.33301 -22 -26.332 -64.668 -62.999 -128.001c-74 -126.667 -305.667 -300.334 -695 -521.001l-119 215c94.667 51.333 182.667 103 264 155c187.333 120 305.666 221 354.999 303c17.333 28.667 26 63 26 103c0 32.667 -6.33301 62.334 -19 89.001
c-18.667 50.667 -60.334 136.334 -125.001 257.001l215 129l135 -265c31.333 -62 58.333 -104 81 -126c48.667 -48 118.334 -72 209.001 -72h30v-267h-29c-110.667 0 -199 42.667 -265 128zM590.001 -649.001c-12 -9.33301 -27.8311 -28.8311 -47.498 -58.498
s-39.834 -63.834 -60.501 -102.501s-39.834 -79.334 -57.501 -122.001s-30.834 -81.667 -39.501 -117h-94c-6 24 -14.333 49.667 -25 77s-22.334 54.833 -35.001 82.5s-26 54.5 -40 80.5s-27.5 49.833 -40.5 71.5s-25.167 40.167 -36.5 55.5s-20.666 26.333 -27.999 33
l155 2c8.66699 -12.667 17.667 -30 27 -52s18.5 -45.833 27.5 -71.5s17.167 -51.167 24.5 -76.5s13 -48 17 -68c4 20 9.83301 42.667 17.5 68s16 50.833 25 76.5s18.333 49.5 28 71.5s18.834 39.333 27.501 52z" />
    <glyph glyph-name="uni0696.fina" unicode="&#x696;" horiz-adv-x="1219" 
d="M925 129c-5.33301 -22 -26.332 -64.668 -62.999 -128.001c-74 -126.667 -305.667 -300.334 -695 -521.001l-119 215c94.667 51.333 182.667 103 264 155c187.333 120 305.666 221 354.999 303c17.333 28.667 26 63 26 103c0 32.667 -6.33301 62.334 -19 89.001
c-18.667 50.667 -60.334 136.334 -125.001 257.001l215 129l135 -265c31.333 -62 58.333 -104 81 -126c48.667 -48 118.334 -72 209.001 -72h30v-267h-29c-110.667 0 -199 42.667 -265 128zM495.001 -830.001h-237v237h237v-237zM355.001 0.999023h-237v237h237v-237z" />
    <glyph glyph-name="uni0697.fina" unicode="&#x697;" horiz-adv-x="1219" 
d="M925 129c-5.33301 -22 -26.332 -64.668 -62.999 -128.001c-74 -126.667 -305.667 -300.334 -695 -521.001l-119 215c94.667 51.333 182.667 103 264 155c187.333 120 305.666 221 354.999 303c17.333 28.667 26 63 26 103c0 32.667 -6.33301 62.334 -19 89.001
c-18.667 50.667 -60.334 136.334 -125.001 257.001l215 129l135 -265c31.333 -62 58.333 -104 81 -126c48.667 -48 118.334 -72 209.001 -72h30v-267h-29c-110.667 0 -199 42.667 -265 128zM865.001 853.999h-211v212h211v-212zM580.001 853.999h-211v212h211v-212z" />
    <glyph glyph-name="uni0699.fina" unicode="&#x699;" horiz-adv-x="1219" 
d="M925 129c-5.33301 -22 -26.332 -64.668 -62.999 -128.001c-74 -126.667 -305.667 -300.334 -695 -521.001l-119 215c94.667 51.333 182.667 103 264 155c187.333 120 305.666 221 354.999 303c17.333 28.667 26 63 26 103c0 32.667 -6.33301 62.334 -19 89.001
c-18.667 50.667 -60.334 136.334 -125.001 257.001l215 129l135 -265c31.333 -62 58.333 -104 81 -126c48.667 -48 118.334 -72 209.001 -72h30v-267h-29c-110.667 0 -199 42.667 -265 128zM794.001 1075h-211v215h211v-215zM531.001 1075h-209v215h209v-215z
M659.001 823.999h-215v212h215v-212zM647.001 1357h-215v212h215v-212z" />
    <glyph glyph-name="uni069A.init" unicode="&#x69a;" horiz-adv-x="1431" 
d="M890 685c0 -270.667 62.335 -405.999 187.002 -405.999c74 0 111 31.667 111 95c0 61.333 -34.667 152.666 -104 273.999l195 117c101.333 -164.667 152 -296.334 152 -395.001c0 -106 -25.667 -190.667 -77 -254c-56 -69.333 -135.333 -104 -238 -104
c-128 0 -225.667 50.667 -293 152c-56.667 -108.667 -143.334 -163 -260.001 -163c-50 0 -98.667 14.833 -146 44.5s-83.333 66.834 -108 111.501c-27.333 -48.667 -66.5 -86.834 -117.5 -114.501s-105.167 -41.5 -162.5 -41.5h-99v267h79c46 0 78.667 7.33301 98 22
c28.667 22 43 66 43 132v267h236c0 -139.333 10 -238.666 30 -297.999c25.333 -74.667 72 -112 140 -112c37.333 0 66.666 18.333 87.999 55c18 30.667 27 65.667 27 105v246h219zM900.002 881.001h-237v237h237v-237zM919.002 -439.999h-237v237h237v-237z" />
    <glyph glyph-name="uni069A.medi" unicode="&#x69a;" horiz-adv-x="1639" 
d="M309 157c-56.667 -104 -150 -156 -280 -156h-99v267h81c46 0 78.333 7.33301 97 22c28 22 42 66 42 132v267h236c0 -278 59 -417 177 -417c72 0 108 55.667 108 167v250h243c0 -118 5 -202.333 15 -253c22.667 -114 70.667 -171 144 -171c68 0 102 51 102 153v271h236
c0 -176 18 -293.667 54 -353c27.333 -45.333 76.666 -68 147.999 -68h26v-267h-28c-109.333 0 -198.333 50.667 -267 152c-57.333 -101.333 -136 -152 -236 -152c-112 0 -205.667 46.333 -281 139c-21.333 -44 -58.666 -79 -111.999 -105c-47.333 -22.667 -98 -34 -152 -34
c-52.667 0 -102.667 14 -150 42c-49.333 29.333 -84 67.333 -104 114zM921 884h-237v237h237v-237zM933 -429h-237v237h237v-237z" />
    <glyph glyph-name="uni069A.fina" unicode="&#x69a;" horiz-adv-x="2644" 
d="M1685 684h239c0 -280 55.667 -420 167 -420c68 0 102 51 102 153v271h235c0 -176.667 16.333 -294 49 -352c25.333 -45.333 72.666 -68 142 -68h25v-267h-28c-66 0 -118 11 -156 33c-35.333 21.333 -71.333 60.666 -108 117.999c-64.667 -106 -151.667 -159 -261 -159
c-88.667 0 -170.667 48.667 -246 146c-48.667 -92.667 -120.667 -139 -216 -139c-64.667 0 -117.667 16 -159 48c0 -126.667 -18.667 -233 -56 -319c-48 -111.333 -113 -195 -195 -251c-104 -71.333 -246.333 -107 -427 -107c-220 0 -385 71.667 -495 215
c-86.667 112.667 -130 252 -130 418c0 26 6.66699 70 20 132c15.333 72.667 32.666 130.334 51.999 173.001l206 -73c-34.667 -84.667 -52 -163.334 -52 -236.001c0 -130 46.667 -225.667 140 -287c72 -47.333 162 -71 270 -71c130.667 0 233.334 32.667 308.001 98
c79.333 68.667 119 167 119 295c0 132.667 -64.667 305 -194 517l201 129c26 -49.333 66.667 -122.666 122 -219.999c72 -119.333 141.333 -179 208 -179c78.667 0 118 52 118 156v246zM1932 909h-237v237h237v-237zM1982 -465h-237v237h237v-237z" />
    <glyph glyph-name="uni069B.init" unicode="&#x69b;" horiz-adv-x="1431" 
d="M890 685c0 -270.667 62.335 -405.999 187.002 -405.999c74 0 111 31.667 111 95c0 61.333 -34.667 152.666 -104 273.999l195 117c101.333 -164.667 152 -296.334 152 -395.001c0 -106 -25.667 -190.667 -77 -254c-56 -69.333 -135.333 -104 -238 -104
c-128 0 -225.667 50.667 -293 152c-56.667 -108.667 -143.334 -163 -260.001 -163c-50 0 -98.667 14.833 -146 44.5s-83.333 66.834 -108 111.501c-27.333 -48.667 -66.5 -86.834 -117.5 -114.501s-105.167 -41.5 -162.5 -41.5h-99v267h79c46 0 78.667 7.33301 98 22
c28.667 22 43 66 43 132v267h236c0 -139.333 10 -238.666 30 -297.999c25.333 -74.667 72 -112 140 -112c37.333 0 66.666 18.333 87.999 55c18 30.667 27 65.667 27 105v246h219zM912.002 -418.999h-211v215h211v-215zM649.002 -418.999h-209v215h209v-215z
M777.002 -669.999h-215v212h215v-212z" />
    <glyph glyph-name="uni069B.medi" unicode="&#x69b;" horiz-adv-x="1639" 
d="M309 157c-56.667 -104 -150 -156 -280 -156h-99v267h81c46 0 78.333 7.33301 97 22c28 22 42 66 42 132v267h236c0 -278 59 -417 177 -417c72 0 108 55.667 108 167v250h243c0 -118 5 -202.333 15 -253c22.667 -114 70.667 -171 144 -171c68 0 102 51 102 153v271h236
c0 -176 18 -293.667 54 -353c27.333 -45.333 76.666 -68 147.999 -68h26v-267h-28c-109.333 0 -198.333 50.667 -267 152c-57.333 -101.333 -136 -152 -236 -152c-112 0 -205.667 46.333 -281 139c-21.333 -44 -58.666 -79 -111.999 -105c-47.333 -22.667 -98 -34 -152 -34
c-52.667 0 -102.667 14 -150 42c-49.333 29.333 -84 67.333 -104 114zM992 -438h-211v215h211v-215zM729 -438h-209v215h209v-215zM857 -689h-215v212h215v-212z" />
    <glyph glyph-name="uni069B.fina" unicode="&#x69b;" horiz-adv-x="2644" 
d="M1685 684h239c0 -280 55.667 -420 167 -420c68 0 102 51 102 153v271h235c0 -176.667 16.333 -294 49 -352c25.333 -45.333 72.666 -68 142 -68h25v-267h-28c-66 0 -118 11 -156 33c-35.333 21.333 -71.333 60.666 -108 117.999c-64.667 -106 -151.667 -159 -261 -159
c-88.667 0 -170.667 48.667 -246 146c-48.667 -92.667 -120.667 -139 -216 -139c-64.667 0 -117.667 16 -159 48c0 -126.667 -18.667 -233 -56 -319c-48 -111.333 -113 -195 -195 -251c-104 -71.333 -246.333 -107 -427 -107c-220 0 -385 71.667 -495 215
c-86.667 112.667 -130 252 -130 418c0 26 6.66699 70 20 132c15.333 72.667 32.666 130.334 51.999 173.001l206 -73c-34.667 -84.667 -52 -163.334 -52 -236.001c0 -130 46.667 -225.667 140 -287c72 -47.333 162 -71 270 -71c130.667 0 233.334 32.667 308.001 98
c79.333 68.667 119 167 119 295c0 132.667 -64.667 305 -194 517l201 129c26 -49.333 66.667 -122.666 122 -219.999c72 -119.333 141.333 -179 208 -179c78.667 0 118 52 118 156v246zM2199 -429h-211v215h211v-215zM1936 -429h-209v215h209v-215zM2064 -680h-215v212h215
v-212z" />
    <glyph glyph-name="uni069C.init" unicode="&#x69c;" horiz-adv-x="1431" 
d="M890 685c0 -270.667 62.335 -405.999 187.002 -405.999c74 0 111 31.667 111 95c0 61.333 -34.667 152.666 -104 273.999l195 117c101.333 -164.667 152 -296.334 152 -395.001c0 -106 -25.667 -190.667 -77 -254c-56 -69.333 -135.333 -104 -238 -104
c-128 0 -225.667 50.667 -293 152c-56.667 -108.667 -143.334 -163 -260.001 -163c-50 0 -98.667 14.833 -146 44.5s-83.333 66.834 -108 111.501c-27.333 -48.667 -66.5 -86.834 -117.5 -114.501s-105.167 -41.5 -162.5 -41.5h-99v267h79c46 0 78.667 7.33301 98 22
c28.667 22 43 66 43 132v267h236c0 -139.333 10 -238.666 30 -297.999c25.333 -74.667 72 -112 140 -112c37.333 0 66.666 18.333 87.999 55c18 30.667 27 65.667 27 105v246h219zM997.002 -422.999h-211v215h211v-215zM734.002 -422.999h-209v215h209v-215z
M862.002 -673.999h-215v212h215v-212zM1007 898.001h-211v215h211v-215zM744.002 898.001h-209v215h209v-215zM872.002 1151h-215v213h215v-213z" />
    <glyph glyph-name="uni069C.medi" unicode="&#x69c;" horiz-adv-x="1639" 
d="M309 157c-56.667 -104 -150 -156 -280 -156h-99v267h81c46 0 78.333 7.33301 97 22c28 22 42 66 42 132v267h236c0 -278 59 -417 177 -417c72 0 108 55.667 108 167v250h243c0 -118 5 -202.333 15 -253c22.667 -114 70.667 -171 144 -171c68 0 102 51 102 153v271h236
c0 -176 18 -293.667 54 -353c27.333 -45.333 76.666 -68 147.999 -68h26v-267h-28c-109.333 0 -198.333 50.667 -267 152c-57.333 -101.333 -136 -152 -236 -152c-112 0 -205.667 46.333 -281 139c-21.333 -44 -58.666 -79 -111.999 -105c-47.333 -22.667 -98 -34 -152 -34
c-52.667 0 -102.667 14 -150 42c-49.333 29.333 -84 67.333 -104 114zM1033 -413h-211v215h211v-215zM770 -413h-209v215h209v-215zM898 -664h-215v212h215v-212zM1042 894h-211v215h211v-215zM779 894h-209v215h209v-215zM907 1147h-215v213h215v-213z" />
    <glyph glyph-name="uni069C.fina" unicode="&#x69c;" horiz-adv-x="2644" 
d="M1685 684h239c0 -280 55.667 -420 167 -420c68 0 102 51 102 153v271h235c0 -176.667 16.333 -294 49 -352c25.333 -45.333 72.666 -68 142 -68h25v-267h-28c-66 0 -118 11 -156 33c-35.333 21.333 -71.333 60.666 -108 117.999c-64.667 -106 -151.667 -159 -261 -159
c-88.667 0 -170.667 48.667 -246 146c-48.667 -92.667 -120.667 -139 -216 -139c-64.667 0 -117.667 16 -159 48c0 -126.667 -18.667 -233 -56 -319c-48 -111.333 -113 -195 -195 -251c-104 -71.333 -246.333 -107 -427 -107c-220 0 -385 71.667 -495 215
c-86.667 112.667 -130 252 -130 418c0 26 6.66699 70 20 132c15.333 72.667 32.666 130.334 51.999 173.001l206 -73c-34.667 -84.667 -52 -163.334 -52 -236.001c0 -130 46.667 -225.667 140 -287c72 -47.333 162 -71 270 -71c130.667 0 233.334 32.667 308.001 98
c79.333 68.667 119 167 119 295c0 132.667 -64.667 305 -194 517l201 129c26 -49.333 66.667 -122.666 122 -219.999c72 -119.333 141.333 -179 208 -179c78.667 0 118 52 118 156v246zM2090 -414h-211v215h211v-215zM1827 -414h-209v215h209v-215zM1955 -665h-215v212h215
v-212zM2039 912h-211v215h211v-215zM1776 912h-209v215h209v-215zM1904 1165h-215v213h215v-213z" />
    <glyph glyph-name="uni069D.init" unicode="&#x69d;" horiz-adv-x="1491" 
d="M485 309c234 349.333 453.333 523.998 658 523.998c94 0 175.667 -39.667 245 -119c67.333 -76.667 101 -162.667 101 -258c0 -153.333 -44.667 -270.666 -134 -351.999c-75.333 -68.667 -168.333 -103 -279 -103h-440c-150 0 -251.333 52.333 -304 157
c-26 -52 -55 -88.667 -87 -110c-47.333 -31.333 -119 -47 -215 -47h-100v267h84c88.667 0 133 39 133 117v280h241v-203c0 -27.333 9.83301 -56.666 29.5 -87.999s42.167 -53 67.5 -65zM1052 269.998c139.333 0 209 58.333 209 175c0 41.333 -16 75.333 -48 102
c-30 24.667 -66.333 37 -109 37c-60 0 -124.333 -30 -193 -90c-50 -43.333 -117.333 -118 -202 -224h343zM820 -424.002h-211v212h211v-212zM535 -424.002h-211v212h211v-212z" />
    <glyph glyph-name="uni069D.medi" unicode="&#x69d;" horiz-adv-x="1640" 
d="M1046 268c139.333 0 209 57.999 209 173.999c0 41.333 -16 75.333 -48 102c-30 24.667 -66.333 37 -109 37c-60 0 -124 -30 -192 -90c-49.333 -43.333 -116 -117.666 -200 -222.999h340zM1459 302.999c35.333 -23.333 86.667 -34.999 154 -34.999h27v-267h-29
c-109.333 0 -194.666 38.333 -255.999 115c-69.333 -76.667 -164.333 -115 -285 -115h-438c-148.667 0 -249.334 52 -302.001 156c-36 -55.333 -60.667 -88.333 -74 -99c-48 -38 -123 -57 -225 -57h-101v267h89c84.667 0 127 38.333 127 115v278h240v-202
c0 -70.667 30 -120.334 90 -149.001c231.333 345.333 451.333 518 660 518c96.667 0 179 -38.667 247 -116c65.333 -74.667 98 -161 98 -259c0 -37.333 -7.33301 -87.333 -22 -150zM781.001 -366h-211v212h211v-212zM496.001 -366h-211v212h211v-212z" />
    <glyph glyph-name="uni069D.fina" unicode="&#x69d;" horiz-adv-x="2641" 
d="M2026 268c138.667 0 208 58 208 174c0 41.333 -15 74.833 -45 100.5s-66 38.5 -108 38.5c-60.667 0 -125.667 -30 -195 -90c-48.667 -42.667 -115.667 -117 -201 -223h341zM1481 46c0 -244 -94.665 -427.668 -283.998 -551.001c-119.333 -77.333 -254.333 -116 -405 -116
c-222 0 -387.667 74.333 -497 223c-85.333 116 -128 258.333 -128 427c0 26 6.66699 70.333 20 133c15.333 73.333 32.666 131 51.999 173l206 -73c-34.667 -84.667 -52 -163.667 -52 -237c0 -129.333 47 -224.333 141 -285c71.333 -46 162 -69 272 -69
c132.667 0 236 32 310 96c78 68 117 167 117 297c0 71.333 -20.667 160 -62 266c-34.667 88.667 -76.334 171.334 -125.001 248.001l215 131c104 -231.333 180.333 -356 229 -374c211.333 328.667 420 493 626 493c90 0 172.667 -38.667 248 -116
c71.333 -72.667 107 -147.667 107 -225c0 -90 -7.33301 -151.333 -22 -184c31.333 -23.333 87 -35 167 -35h25v-267h-30c-47.333 0 -95.666 11 -145 33c-54 24 -92 54.667 -114 92c-56 -83.333 -156.667 -125 -302 -125h-434c-71.333 0 -116.333 15 -135 45zM2113 -426.001
h-211v212h211v-212zM1828 -426.001h-211v212h211v-212z" />
    <glyph glyph-name="uni069E.init" unicode="&#x69e;" horiz-adv-x="1491" 
d="M485 309c234 349.333 453.333 523.998 658 523.998c94 0 175.667 -39.667 245 -119c67.333 -76.667 101 -162.667 101 -258c0 -153.333 -44.667 -270.666 -134 -351.999c-75.333 -68.667 -168.333 -103 -279 -103h-440c-150 0 -251.333 52.333 -304 157
c-26 -52 -55 -88.667 -87 -110c-47.333 -31.333 -119 -47 -215 -47h-100v267h84c88.667 0 133 39 133 117v280h241v-203c0 -27.333 9.83301 -56.666 29.5 -87.999s42.167 -53 67.5 -65zM1052 269.998c139.333 0 209 58.333 209 175c0 41.333 -16 75.333 -48 102
c-30 24.667 -66.333 37 -109 37c-60 0 -124.333 -30 -193 -90c-50 -43.333 -117.333 -118 -202 -224h343zM774 917.998h-211v215h211v-215zM511 917.998h-209v215h209v-215zM639 1171h-215v213h215v-213z" />
    <glyph glyph-name="uni069E.medi" unicode="&#x69e;" horiz-adv-x="1640" 
d="M1046 268c139.333 0 209 57.999 209 173.999c0 41.333 -16 75.333 -48 102c-30 24.667 -66.333 37 -109 37c-60 0 -124 -30 -192 -90c-49.333 -43.333 -116 -117.666 -200 -222.999h340zM1459 302.999c35.333 -23.333 86.667 -34.999 154 -34.999h27v-267h-29
c-109.333 0 -194.666 38.333 -255.999 115c-69.333 -76.667 -164.333 -115 -285 -115h-438c-148.667 0 -249.334 52 -302.001 156c-36 -55.333 -60.667 -88.333 -74 -99c-48 -38 -123 -57 -225 -57h-101v267h89c84.667 0 127 38.333 127 115v278h240v-202
c0 -70.667 30 -120.334 90 -149.001c231.333 345.333 451.333 518 660 518c96.667 0 179 -38.667 247 -116c65.333 -74.667 98 -161 98 -259c0 -37.333 -7.33301 -87.333 -22 -150zM830.001 900h-211v215h211v-215zM567.001 900h-209v215h209v-215zM695.001 1153h-215v213
h215v-213z" />
    <glyph glyph-name="uni069E.fina" unicode="&#x69e;" horiz-adv-x="2641" 
d="M2026 268c138.667 0 208 58 208 174c0 41.333 -15 74.833 -45 100.5s-66 38.5 -108 38.5c-60.667 0 -125.667 -30 -195 -90c-48.667 -42.667 -115.667 -117 -201 -223h341zM1481 46c0 -244 -94.665 -427.668 -283.998 -551.001c-119.333 -77.333 -254.333 -116 -405 -116
c-222 0 -387.667 74.333 -497 223c-85.333 116 -128 258.333 -128 427c0 26 6.66699 70.333 20 133c15.333 73.333 32.666 131 51.999 173l206 -73c-34.667 -84.667 -52 -163.667 -52 -237c0 -129.333 47 -224.333 141 -285c71.333 -46 162 -69 272 -69
c132.667 0 236 32 310 96c78 68 117 167 117 297c0 71.333 -20.667 160 -62 266c-34.667 88.667 -76.334 171.334 -125.001 248.001l215 131c104 -231.333 180.333 -356 229 -374c211.333 328.667 420 493 626 493c90 0 172.667 -38.667 248 -116
c71.333 -72.667 107 -147.667 107 -225c0 -90 -7.33301 -151.333 -22 -184c31.333 -23.333 87 -35 167 -35h25v-267h-30c-47.333 0 -95.666 11 -145 33c-54 24 -92 54.667 -114 92c-56 -83.333 -156.667 -125 -302 -125h-434c-71.333 0 -116.333 15 -135 45zM1748 890.999
h-211v215h211v-215zM1485 890.999h-209v215h209v-215zM1613 1144h-215v213h215v-213z" />
    <glyph glyph-name="uni069F.medi" unicode="&#x69f;" horiz-adv-x="1789" 
d="M1397 442c0 40 -15.168 72.666 -45.501 97.999s-66.166 38 -107.499 38c-106 0 -241.333 -103.333 -406 -310h371c55.333 0 100.5 15.333 135.5 46s52.5 73.334 52.5 128.001zM166.999 122.999v152.002h243c30.667 0 56.834 12 78.501 36s32.5 51.667 32.5 83v840h237
v-736c68 89.333 141.667 163.333 221 222c101.333 74.667 197.666 111.667 288.999 111c98 -0.666992 182.667 -39.334 254 -116.001s107 -164.334 107 -263.001c0 -45.333 -5.66699 -95 -17 -149c27.333 -23.333 78 -35 152 -35h25v-267h-29c-64 0 -121 14.333 -171 43
c-37.333 21.333 -64.333 45.333 -81 72c-72.667 -76.667 -168.667 -115 -288 -115h-695c-45.333 0 -107.333 14.333 -186 43c-66.667 24.667 -124 51 -172 79zM1382 995.001h-211v215h211v-215zM1119 995.001h-209v215h209v-215zM1247 1248h-215v213h215v-213z" />
    <glyph glyph-name="uni06A0.init" unicode="&#x6a0;" horiz-adv-x="932" 
d="M931 1h-1001v267h188c-34.667 56 -52 129 -52 219c0 88.667 34 165 102 229c76 72 177.667 108 305 108c142 0 283.333 -45 424 -135c-22.667 -36 -55.334 -96 -98.001 -180c-36 23.333 -86.667 43 -152 59c-54.667 13.333 -99 20 -133 20
c-47.333 0 -89.333 -13.333 -126 -40c-40 -29.333 -60.667 -67 -62 -113c-1.33301 -44 17.334 -81.667 56.001 -113c44 -36 105.667 -54 185 -54h364v-267zM668 986h-211v215h211v-215zM405 986h-209v215h209v-215zM533 1239h-215v213h215v-213z" />
    <glyph glyph-name="uni06A0.medi" unicode="&#x6a0;" horiz-adv-x="838" 
d="M838 1l-53 -0.000976562c-64 0 -134.667 23 -212 69c-49.333 29.333 -86.333 56.333 -111 81c-93.333 -100 -199.666 -150 -318.999 -150h-213v267h116c100 0 175 10.667 225 32c-30.667 25.333 -75.5 64.833 -134.5 118.5s-88.5 104.167 -88.5 151.5
c0 60 54 108.667 162 146c83.333 28.667 161.666 43 234.999 43c72.667 0 135.667 -14 189 -42c66 -35.333 99 -86.333 99 -153c0 -38 -6.33301 -70 -19 -96c-14 -29.333 -49.333 -80.666 -106 -153.999c34 -30.667 85 -46 153 -46h77v-267zM642 930.999h-211v215h211v-215z
M379 930.999h-209v215h209v-215zM507 1184h-215v213h215v-213z" />
    <glyph glyph-name="uni06A0.fina" unicode="&#x6a0;" horiz-adv-x="1210" 
d="M1227 -655c-162.667 -65.333 -318.001 -98.0029 -466.001 -98.0029c-160 0 -296 42 -408 126c-124 92.667 -186 216.334 -186 371.001c0 106 38 205.667 114 299c58 71.333 132.333 135 223 191l156 90l-122 119c-60 60 -90 111.667 -90 155
c0 44.667 30 86.334 90 125.001c72 46.667 167 70 285 70c70 0 137.667 -18.667 203 -56c71.333 -40.667 107 -88 107 -142c0 -81.333 -46.333 -171.666 -139 -270.999c26.667 -21.333 48 -35 64 -41c26 -10 66 -15 120 -15h32v-267h-31
c-115.333 0 -231.666 56.667 -348.999 170c-11.333 0 -50.333 -20 -117 -60c-206.667 -123.333 -310 -241 -310 -353c0 -93.333 46.333 -161 139 -203c68 -31.333 155 -47 261 -47c102 0 217.667 19.667 347 59zM1025 976.997h-211v215h211v-215zM761.999 976.997h-209v215
h209v-215zM889.999 1230h-215v213h215v-213z" />
    <glyph glyph-name="afii57459" unicode="&#x6a1;" horiz-adv-x="822" 
d="M580 591c-6.66699 38.667 -22 72.333 -46 101c-27.333 32 -59.333 48 -96 48c-64.667 0 -97 -25.333 -97 -76c0 -64.667 45 -97 135 -97c54 0 88.667 8 104 24zM-70 -0.000976562l0.000976562 267.001h504c26 0 51 5 75 15c50.667 20.667 76.667 57.667 78 111
c-34.667 -16 -84.334 -24 -149.001 -24c-84.667 0 -152.167 25.167 -202.5 75.5s-76.833 117.833 -79.5 202.5c-2 78 18.333 150 61 216c48 73.333 110 110 186 110c136.667 0 243.667 -66 321 -198c64 -110.667 96 -239.334 96 -386.001c0 -114 -27 -205.667 -81 -275
c-60 -76 -145.333 -114 -256 -114h-553z" />
    <glyph glyph-name="afii57374" unicode="&#x6a1;" horiz-adv-x="872" 
d="M556 498c0 28 -12.667 50.667 -38 68c-22 14.667 -47.667 22 -77 22c-76.667 0 -115 -30 -115 -90c0 -32 14.667 -63 44 -93c23.333 -24 47 -40.667 71 -50c23.333 7.33301 47 23.333 71 48c29.333 30 44 61.667 44 95zM-70 1l-0.000976562 267h303
c-76.667 70.667 -115 149.667 -115 237c0 96 29.667 170.333 89 223c56.667 50.667 133.667 76 231 76c217.333 0 326 -99.667 326 -299c0 -52 -15.333 -103.667 -46 -155c-26 -44 -51 -71.333 -75 -82h229v-267h-132c-46.667 0 -105 15.333 -175 46
c-61.333 26.667 -102.666 50.667 -123.999 72c-32 -26 -74.667 -50.333 -128 -73c-69.333 -30 -132 -45 -188 -45h-195z" />
    <glyph glyph-name="afii52258" unicode="&#x6a1;" horiz-adv-x="2150" 
d="M1835 498c0 28 -12.667 50.666 -38 67.999c-22 14.667 -47.667 22 -77 22c-76.667 0 -115 -30 -115 -90c0 -32 14.333 -63 43 -93c23.333 -24 47.333 -40.667 72 -50c22.667 7.33301 46 23.333 70 48c30 30.667 45 62.334 45 95.001zM504 0.999023
c-108.667 0 -192.999 37.332 -252.999 111.999c-56 68.667 -84 158.667 -84 270v129h236v-101c0 -95.333 55.333 -143 166 -143h942c-76 64 -114 143 -114 237c0 96 29.667 170.333 89 223c56.667 50.667 133.334 76 230.001 76c218 0 327 -99.667 327 -299
c0 -51.333 -15.667 -103 -47 -155c-26.667 -43.333 -51.334 -70.666 -74.001 -81.999h228v-267h-131c-47.333 0 -106 15.333 -176 46c-60.667 26.667 -101.667 50.667 -123 72c-100.667 -78.667 -206.334 -118 -317.001 -118h-899z" />
    <glyph glyph-name="uni06A2.init" unicode="&#x6a2;" horiz-adv-x="822" 
d="M580 591c-6.66699 38.667 -22 72.333 -46 101c-27.333 32 -59.333 48 -96 48c-64.667 0 -97 -25.333 -97 -76c0 -64.667 45 -97 135 -97c54 0 88.667 8 104 24zM-70 -0.000976562l0.000976562 267.001h504c26 0 51 5 75 15c50.667 20.667 76.667 57.667 78 111
c-34.667 -16 -84.334 -24 -149.001 -24c-84.667 0 -152.167 25.167 -202.5 75.5s-76.833 117.833 -79.5 202.5c-2 78 18.333 150 61 216c48 73.333 110 110 186 110c136.667 0 243.667 -66 321 -198c64 -110.667 96 -239.334 96 -386.001c0 -114 -27 -205.667 -81 -275
c-60 -76 -145.333 -114 -256 -114h-553zM505.001 -445h-237v237h237v-237z" />
    <glyph glyph-name="uni06A2.medi" unicode="&#x6a2;" horiz-adv-x="872" 
d="M556 498c0 28 -12.667 50.667 -38 68c-22 14.667 -47.667 22 -77 22c-76.667 0 -115 -30 -115 -90c0 -32 14.667 -63 44 -93c23.333 -24 47 -40.667 71 -50c23.333 7.33301 47 23.333 71 48c29.333 30 44 61.667 44 95zM-70 1l-0.000976562 267h303
c-76.667 70.667 -115 149.667 -115 237c0 96 29.667 170.333 89 223c56.667 50.667 133.667 76 231 76c217.333 0 326 -99.667 326 -299c0 -52 -15.333 -103.667 -46 -155c-26 -44 -51 -71.333 -75 -82h229v-267h-132c-46.667 0 -105 15.333 -175 46
c-61.333 26.667 -102.666 50.667 -123.999 72c-32 -26 -74.667 -50.333 -128 -73c-69.333 -30 -132 -45 -188 -45h-195zM504.999 -447h-237v237h237v-237z" />
    <glyph glyph-name="uni06A2.fina" unicode="&#x6a2;" horiz-adv-x="2150" 
d="M1835 498c0 28 -12.667 50.666 -38 67.999c-22 14.667 -47.667 22 -77 22c-76.667 0 -115 -30 -115 -90c0 -32 14.333 -63 43 -93c23.333 -24 47.333 -40.667 72 -50c22.667 7.33301 46 23.333 70 48c30 30.667 45 62.334 45 95.001zM504 0.999023
c-108.667 0 -192.999 37.332 -252.999 111.999c-56 68.667 -84 158.667 -84 270v129h236v-101c0 -95.333 55.333 -143 166 -143h942c-76 64 -114 143 -114 237c0 96 29.667 170.333 89 223c56.667 50.667 133.334 76 230.001 76c218 0 327 -99.667 327 -299
c0 -51.333 -15.667 -103 -47 -155c-26.667 -43.333 -51.334 -70.666 -74.001 -81.999h228v-267h-131c-47.333 0 -106 15.333 -176 46c-60.667 26.667 -101.667 50.667 -123 72c-100.667 -78.667 -206.334 -118 -317.001 -118h-899zM1850 -444.002h-237v237h237v-237z" />
    <glyph glyph-name="uni06A3.init" unicode="&#x6a3;" horiz-adv-x="822" 
d="M580 591c-6.66699 38.667 -22 72.333 -46 101c-27.333 32 -59.333 48 -96 48c-64.667 0 -97 -25.333 -97 -76c0 -64.667 45 -97 135 -97c54 0 88.667 8 104 24zM-70 -0.000976562l0.000976562 267.001h504c26 0 51 5 75 15c50.667 20.667 76.667 57.667 78 111
c-34.667 -16 -84.334 -24 -149.001 -24c-84.667 0 -152.167 25.167 -202.5 75.5s-76.833 117.833 -79.5 202.5c-2 78 18.333 150 61 216c48 73.333 110 110 186 110c136.667 0 243.667 -66 321 -198c64 -110.667 96 -239.334 96 -386.001c0 -114 -27 -205.667 -81 -275
c-60 -76 -145.333 -114 -256 -114h-553zM522.001 1149h-237v237h237v-237zM496.001 -456h-237v237h237v-237z" />
    <glyph glyph-name="uni06A3.medi" unicode="&#x6a3;" horiz-adv-x="872" 
d="M556 498c0 28 -12.667 50.667 -38 68c-22 14.667 -47.667 22 -77 22c-76.667 0 -115 -30 -115 -90c0 -32 14.667 -63 44 -93c23.333 -24 47 -40.667 71 -50c23.333 7.33301 47 23.333 71 48c29.333 30 44 61.667 44 95zM-70 1l-0.000976562 267h303
c-76.667 70.667 -115 149.667 -115 237c0 96 29.667 170.333 89 223c56.667 50.667 133.667 76 231 76c217.333 0 326 -99.667 326 -299c0 -52 -15.333 -103.667 -46 -155c-26 -44 -51 -71.333 -75 -82h229v-267h-132c-46.667 0 -105 15.333 -175 46
c-61.333 26.667 -102.666 50.667 -123.999 72c-32 -26 -74.667 -50.333 -128 -73c-69.333 -30 -132 -45 -188 -45h-195zM543.999 965h-237v237h237v-237zM547.999 -442h-237v237h237v-237z" />
    <glyph glyph-name="uni06A3.fina" unicode="&#x6a3;" horiz-adv-x="2150" 
d="M1835 498c0 28 -12.667 50.666 -38 67.999c-22 14.667 -47.667 22 -77 22c-76.667 0 -115 -30 -115 -90c0 -32 14.333 -63 43 -93c23.333 -24 47.333 -40.667 72 -50c22.667 7.33301 46 23.333 70 48c30 30.667 45 62.334 45 95.001zM504 0.999023
c-108.667 0 -192.999 37.332 -252.999 111.999c-56 68.667 -84 158.667 -84 270v129h236v-101c0 -95.333 55.333 -143 166 -143h942c-76 64 -114 143 -114 237c0 96 29.667 170.333 89 223c56.667 50.667 133.334 76 230.001 76c218 0 327 -99.667 327 -299
c0 -51.333 -15.667 -103 -47 -155c-26.667 -43.333 -51.334 -70.666 -74.001 -81.999h228v-267h-131c-47.333 0 -106 15.333 -176 46c-60.667 26.667 -101.667 50.667 -123 72c-100.667 -78.667 -206.334 -118 -317.001 -118h-899zM1817 972.998h-237v237h237v-237z
M1808 -446.002h-237v237h237v-237z" />
    <glyph glyph-name="uni06A5.init" unicode="&#x6a5;" horiz-adv-x="822" 
d="M580 591c-6.66699 38.667 -22 72.333 -46 101c-27.333 32 -59.333 48 -96 48c-64.667 0 -97 -25.333 -97 -76c0 -64.667 45 -97 135 -97c54 0 88.667 8 104 24zM-70 -0.000976562l0.000976562 267.001h504c26 0 51 5 75 15c50.667 20.667 76.667 57.667 78 111
c-34.667 -16 -84.334 -24 -149.001 -24c-84.667 0 -152.167 25.167 -202.5 75.5s-76.833 117.833 -79.5 202.5c-2 78 18.333 150 61 216c48 73.333 110 110 186 110c136.667 0 243.667 -66 321 -198c64 -110.667 96 -239.334 96 -386.001c0 -114 -27 -205.667 -81 -275
c-60 -76 -145.333 -114 -256 -114h-553zM586.001 -422h-211v215h211v-215zM323.001 -422h-209v215h209v-215zM451.001 -673h-215v212h215v-212z" />
    <glyph glyph-name="uni06A5.medi" unicode="&#x6a5;" horiz-adv-x="872" 
d="M556 498c0 28 -12.667 50.667 -38 68c-22 14.667 -47.667 22 -77 22c-76.667 0 -115 -30 -115 -90c0 -32 14.667 -63 44 -93c23.333 -24 47 -40.667 71 -50c23.333 7.33301 47 23.333 71 48c29.333 30 44 61.667 44 95zM-70 1l-0.000976562 267h303
c-76.667 70.667 -115 149.667 -115 237c0 96 29.667 170.333 89 223c56.667 50.667 133.667 76 231 76c217.333 0 326 -99.667 326 -299c0 -52 -15.333 -103.667 -46 -155c-26 -44 -51 -71.333 -75 -82h229v-267h-132c-46.667 0 -105 15.333 -175 46
c-61.333 26.667 -102.666 50.667 -123.999 72c-32 -26 -74.667 -50.333 -128 -73c-69.333 -30 -132 -45 -188 -45h-195zM638.999 -422h-211v215h211v-215zM375.999 -422h-209v215h209v-215zM503.999 -673h-215v212h215v-212z" />
    <glyph glyph-name="uni06A5.fina" unicode="&#x6a5;" horiz-adv-x="2150" 
d="M1835 498c0 28 -12.667 50.666 -38 67.999c-22 14.667 -47.667 22 -77 22c-76.667 0 -115 -30 -115 -90c0 -32 14.333 -63 43 -93c23.333 -24 47.333 -40.667 72 -50c22.667 7.33301 46 23.333 70 48c30 30.667 45 62.334 45 95.001zM504 0.999023
c-108.667 0 -192.999 37.332 -252.999 111.999c-56 68.667 -84 158.667 -84 270v129h236v-101c0 -95.333 55.333 -143 166 -143h942c-76 64 -114 143 -114 237c0 96 29.667 170.333 89 223c56.667 50.667 133.334 76 230.001 76c218 0 327 -99.667 327 -299
c0 -51.333 -15.667 -103 -47 -155c-26.667 -43.333 -51.334 -70.666 -74.001 -81.999h228v-267h-131c-47.333 0 -106 15.333 -176 46c-60.667 26.667 -101.667 50.667 -123 72c-100.667 -78.667 -206.334 -118 -317.001 -118h-899zM1909 -424.002h-211v215h211v-215z
M1646 -424.002h-209v215h209v-215zM1774 -675.002h-215v212h215v-212z" />
    <glyph glyph-name="uni06A7.fina" unicode="&#x6a7;" horiz-adv-x="1634" 
d="M1634 1l-133.001 -0.000976562c-25.333 -182 -104.666 -323.667 -237.999 -425c-126 -96 -283 -144 -471 -144c-124.667 0 -234.334 22 -329.001 66c-110 51.333 -188 128 -234 230c-41.333 92.667 -62 201 -62 325c0 61.333 13.667 138 41 230l220 -56
c-16.667 -63.333 -25 -122.666 -25 -177.999c0 -231.333 127.667 -347 383 -347c270.667 0 424.334 99.667 461.001 299h-118c-107.333 0 -190.833 29.333 -250.5 88s-89.5 141.667 -89.5 249c0 84.667 25.667 157.667 77 219c54.667 64.667 123.667 97 207 97
c126 0 230 -58.667 312 -176c41.333 -59.333 74 -129.333 98 -210h151v-267zM1255 243.999c-10 56 -34 101 -72 135c-32 28.667 -63.667 43 -95 43c-25.333 0 -47.333 -7.16699 -66 -21.5s-28 -33.833 -28 -58.5c0 -65.333 45 -98 135 -98h126zM1169 831.999h-237v237h237
v-237z" />
    <glyph glyph-name="uni06A8.fina" unicode="&#x6a8;" horiz-adv-x="1634" 
d="M1634 1l-133.001 -0.000976562c-25.333 -182 -104.666 -323.667 -237.999 -425c-126 -96 -283 -144 -471 -144c-124.667 0 -234.334 22 -329.001 66c-110 51.333 -188 128 -234 230c-41.333 92.667 -62 201 -62 325c0 61.333 13.667 138 41 230l220 -56
c-16.667 -63.333 -25 -122.666 -25 -177.999c0 -231.333 127.667 -347 383 -347c270.667 0 424.334 99.667 461.001 299h-118c-107.333 0 -190.833 29.333 -250.5 88s-89.5 141.667 -89.5 249c0 84.667 25.667 157.667 77 219c54.667 64.667 123.667 97 207 97
c126 0 230 -58.667 312 -176c41.333 -59.333 74 -129.333 98 -210h151v-267zM1255 243.999c-10 56 -34 101 -72 135c-32 28.667 -63.667 43 -95 43c-25.333 0 -47.333 -7.16699 -66 -21.5s-28 -33.833 -28 -58.5c0 -65.333 45 -98 135 -98h126zM1286 780.999h-211v215h211
v-215zM1023 780.999h-209v215h209v-215zM1151 1034h-215v213h215v-213z" />
    <glyph glyph-name="uni06AA.init" unicode="&#x6aa;" horiz-adv-x="1974" 
d="M1779 103c-478 -50 -1086.33 -84.3311 -1825 -102.998v268c406.667 2.66699 709 11.667 907 27c416 18 688.333 33.333 817 46l-1 55c-4 28 -10.833 48.5 -20.5 61.5s-23.5 21.667 -41.5 26s-40.833 5.83301 -68.5 4.5l-102.5 -5c-28 0 -67.833 -1.33301 -119.5 -4
s-110.167 -6 -175.5 -10s-134.833 -7.83301 -208.5 -11.5s-147 -6.83398 -220 -9.50098s-143.333 -4.33398 -211 -5.00098s-127.5 0.666016 -179.5 3.99902c-41.333 3.33301 -75.833 12.166 -103.5 26.499s-50.167 30.666 -67.5 48.999s-30 37 -38 56
s-12.667 35.167 -14 48.5c-3.33301 37.333 3.83398 73.5 21.501 108.5s42.5 68.667 74.5 101s69.667 63 113 92s88.833 56.167 136.5 81.5s96 48.833 145 70.5s95.5 41.167 139.5 58.5s83.833 32.333 119.5 45l84.5 30l13 -242l-127.5 -38.5l-140.5 -44.5
c-47.333 -15.333 -93 -31.166 -137 -47.499s-83.333 -32.333 -118 -48s-62.5 -30.667 -83.5 -45s-31.833 -27.5 -32.5 -39.5c1.33301 -14.667 17.333 -25.834 48 -33.501s71.667 -12.667 123 -15s110.333 -2.66602 177 -0.999023s136.5 4.33398 209.5 8.00098s147 8 222 13
l214 14c67.667 4.33301 129.334 7.83301 185.001 10.5s100.834 3.33398 135.501 2.00098c59.333 -4.66699 109.333 -19 150 -43s71.5 -53.667 92.5 -89s32.5 -74.833 34.5 -118.5s-6 -87.5 -24 -131.5c-1.33301 -3.33301 -3 -6.66602 -5 -9.99902
c-0.666992 -8.66699 -33.334 -79.334 -98.001 -212.001z" />
    <glyph glyph-name="uni06AA.medi" unicode="&#x6aa;" horiz-adv-x="2164" 
d="M1770 103c-478 -50 -1086.34 -84.3301 -1825 -102.997v268c406.667 2.66699 709 11.667 907 27c416 18 688.333 33.333 817 46l-1 55c-4 28 -10.833 48.5 -20.5 61.5s-23.5 21.667 -41.5 26s-40.833 5.83301 -68.5 4.5l-102.5 -5c-28 0 -67.833 -1.33301 -119.5 -4
s-110.167 -6 -175.5 -10s-134.833 -7.83301 -208.5 -11.5s-147 -6.83398 -220 -9.50098s-143.333 -4.33398 -211 -5.00098s-127.5 0.666016 -179.5 3.99902c-41.333 3.33301 -75.833 12.166 -103.5 26.499s-50.167 30.666 -67.5 48.999s-30 37 -38 56
s-12.667 35.167 -14 48.5c-3.33301 37.333 3.83398 73.5 21.501 108.5s42.5 68.667 74.5 101s69.667 63 113 92s88.833 56.167 136.5 81.5s96 48.833 145 70.5s95.5 41.167 139.5 58.5s83.833 32.333 119.5 45l84.5 30l13 -242l-127.5 -38.5l-140.5 -44.5
c-47.333 -15.333 -93 -31.166 -137 -47.499s-83.333 -32.333 -118 -48s-62.5 -30.667 -83.5 -45s-31.833 -27.5 -32.5 -39.5c1.33301 -14.667 17.333 -25.834 48 -33.501s71.667 -12.667 123 -15s110.333 -2.66602 177 -0.999023s136.5 4.33398 209.5 8.00098s147 8 222 13
l214 14c67.667 4.33301 129.334 7.83301 185.001 10.5s100.834 3.33398 135.501 2.00098c59.333 -4.66699 108.666 -18.667 147.999 -42s68.333 -52.666 87 -87.999s27.334 -74.833 26.001 -118.5s-12.666 -88.167 -33.999 -133.5
c-1.33301 -3.33301 -3 -6.66602 -5 -9.99902c-0.666992 -8.66699 11.666 -18.667 36.999 -30c28.667 -12.667 86 -18.334 172 -17.001h127c7.33301 -17.333 12.833 -37.833 16.5 -61.5s5.5 -47.834 5.5 -72.501s-1.83301 -48.834 -5.5 -72.501s-9.16699 -44.167 -16.5 -61.5
h-112c-82.667 -1.33301 -144 1.16699 -184 7.5s-70 17.833 -90 34.5l-22 61v0z" />
    <glyph glyph-name="uni06AA.fina" unicode="&#x6aa;" horiz-adv-x="2935" 
d="M316 401c0 -88.667 50.999 -132.998 152.999 -132.998h209c433.333 2.66699 749 11.667 947 27c416 18 688.333 33.333 817 46l-1 55c-4 28 -10.833 48.5 -20.5 61.5s-23.5 21.667 -41.5 26s-40.833 5.83301 -68.5 4.5l-102.5 -5c-28 0 -67.833 -1.33301 -119.5 -4
s-110.167 -6 -175.5 -10s-134.833 -7.83301 -208.5 -11.5s-147 -6.83398 -220 -9.50098s-143.333 -4.33398 -211 -5.00098s-127.5 0.666016 -179.5 3.99902c-41.333 3.33301 -75.833 12.166 -103.5 26.499s-50.167 30.666 -67.5 48.999s-30 37 -38 56
s-12.667 35.167 -14 48.5c-3.33301 37.333 3.83398 73.5 21.501 108.5s42.5 68.667 74.5 101s69.667 63 113 92s88.833 56.167 136.5 81.5s96 48.833 145 70.5s95.5 41.167 139.5 58.5s83.833 32.333 119.5 45l84.5 30l13 -242l-127.5 -38.5l-140.5 -44.5
c-47.333 -15.333 -93 -31.166 -137 -47.499s-83.333 -32.333 -118 -48s-62.5 -30.667 -83.5 -45s-31.833 -27.5 -32.5 -39.5c1.33301 -14.667 17.333 -25.834 48 -33.501s71.667 -12.667 123 -15s110.333 -2.66602 177 -0.999023s136.5 4.33398 209.5 8.00098s147 8 222 13
l214 14c67.667 4.33301 129.334 7.83301 185 10.5c55.667 2.66699 100.834 3.33398 135.5 2.00098c59.333 -4.66699 108.666 -18.667 148 -42c39.333 -23.333 68.333 -52.666 87 -87.999s27.334 -74.833 26 -118.5c-1.33301 -43.667 -12.666 -88.167 -34 -133.5
c-1.33301 -3.33301 -3 -6.66602 -5 -9.99902c-0.666992 -8.66699 11.666 -18.667 37 -30c28.667 -12.667 86 -18.334 172 -17.001h127c7.33301 -17.333 12.833 -37.833 16.5 -61.5s5.5 -47.834 5.5 -72.501s-1.83301 -48.834 -5.5 -72.501s-9.16699 -44.167 -16.5 -61.5
h-112c-82.667 -1.33301 -144 1 -184 7c-40 6.66699 -70 18.334 -90 35.001l-22 61c-468 -49.333 -1073.67 -83.333 -1817 -102h-10l-38 -1v1h-265c-222 0 -333 127.333 -333 382v129h236v-111v0z" />
    <glyph glyph-name="uni06AB.init" unicode="&#x6ab;" horiz-adv-x="898" 
d="M-70 0v267h265c82.667 0 124 22 124 66c0 20.667 -9.33301 50 -28 88l-176 357c-25.333 51.333 -38 97.666 -38 138.999c0 82 46 136.667 138 164l654 194l93 -202l-576 -148c-35.333 -9.33301 -53 -24.666 -53 -45.999c0 -12 4.66699 -27 14 -45l178 -341
c29.333 -56 44 -114 44 -174c0 -101.333 -38 -181 -114 -239c-69.333 -53.333 -156 -80 -260 -80h-265zM914 870c0 -52.667 -18.5 -97.667 -55.5 -135s-82.167 -56 -135.5 -56c-52 0 -96.833 19 -134.5 57s-56.5 82.667 -56.5 134c0 50 19.333 94.333 58 133s83 58 133 58
c49.333 0 93.5 -19.333 132.5 -58s58.5 -83 58.5 -133zM804 872c0 22.667 -8.33398 41.5 -25.001 56.5s-36.667 22.5 -60 22.5c-19.333 0 -37.166 -8.5 -53.499 -25.5s-24.5 -35.5 -24.5 -55.5c0 -24 7.5 -43.667 22.5 -59s34.833 -23 59.5 -23c54 0 81 28 81 84z" />
    <glyph glyph-name="uni06AB.medi" unicode="&#x6ab;" horiz-adv-x="903" 
d="M-70 1v267h257c79.333 0 119 26 119 78c0 22.667 -7 48 -21 76l-177 357c-26 52.667 -39 98.667 -39 138c0 80.667 46.333 135.667 139 165l612 194l94 -202l-536 -152c-34 -9.33301 -51 -25 -51 -47c0 -11.333 4.66699 -26 14 -44l173 -337
c30.667 -60 75 -110.333 133 -151c71.333 -50 152 -75 242 -75h14v-267h-31c-156 0 -270.667 58 -344 174c-58 -116 -171.667 -174 -341 -174h-257zM851 865c0 -52.667 -18.5 -97.667 -55.5 -135s-82.167 -56 -135.5 -56c-52 0 -96.833 19 -134.5 57s-56.5 82.667 -56.5 134
c0 50 19.333 94.333 58 133s83 58 133 58c49.333 0 93.5 -19.333 132.5 -58s58.5 -83 58.5 -133zM741 867c0 22.667 -8.33398 41.5 -25.001 56.5s-36.667 22.5 -60 22.5c-19.333 0 -37.166 -8.5 -53.499 -25.5s-24.5 -35.5 -24.5 -55.5c0 -24 7.5 -43.667 22.5 -59
s34.833 -23 59.5 -23c54 0 81 28 81 84z" />
    <glyph glyph-name="uni06AB.fina" unicode="&#x6ab;" horiz-adv-x="2228" 
d="M1855 175c-60.667 -116 -175.333 -174.001 -344 -174.001h-1011c-222 0 -333 127.333 -333 382v129h236v-111c0 -88.667 51 -133 153 -133h955c26.667 0 51.667 4.66699 75 14c31.333 12.667 47 30.334 47 53.001c0 30.667 -7 59.667 -21 87l-182 357
c-22 43.333 -33 85.333 -33 126c0 89.333 45.333 148.333 136 177l611 194l93 -205l-535 -153c-34.667 -10 -52 -25.333 -52 -46c0 -12 4.66699 -26.667 14 -44l177 -334c80 -150.667 206.333 -226 379 -226h8v-267h-30c-66 0 -130.333 15.333 -193 46
c-65.333 32 -115.333 74.667 -150 128zM2190 865.999c0 -52.667 -18.5 -97.667 -55.5 -135s-82.167 -56 -135.5 -56c-52 0 -96.833 19 -134.5 57s-56.5 82.667 -56.5 134c0 50 19.333 94.333 58 133s83 58 133 58c49.333 0 93.5 -19.333 132.5 -58s58.5 -83 58.5 -133z
M2080 867.999c0 22.667 -8.33398 41.5 -25.001 56.5s-36.667 22.5 -60 22.5c-19.333 0 -37.166 -8.5 -53.499 -25.5s-24.5 -35.5 -24.5 -55.5c0 -24 7.5 -43.667 22.5 -59s34.833 -23 59.5 -23c54 0 81 28 81 84z" />
    <glyph glyph-name="uni06AE.init" unicode="&#x6ae;" horiz-adv-x="898" 
d="M-70 0v267h265c82.667 0 124 22 124 66c0 20.667 -9.33301 50 -28 88l-176 357c-25.333 51.333 -38 97.666 -38 138.999c0 82 46 136.667 138 164l654 194l93 -202l-576 -148c-35.333 -9.33301 -53 -24.666 -53 -45.999c0 -12 4.66699 -27 14 -45l178 -341
c29.333 -56 44 -114 44 -174c0 -101.333 -38 -181 -114 -239c-69.333 -53.333 -156 -80 -260 -80h-265zM444 -428h-211v215h211v-215zM181 -428h-209v215h209v-215zM309 -679h-215v212h215v-212z" />
    <glyph glyph-name="uni06AE.medi" unicode="&#x6ae;" horiz-adv-x="903" 
d="M-70 1v267h257c79.333 0 119 26 119 78c0 22.667 -7 48 -21 76l-177 357c-26 52.667 -39 98.667 -39 138c0 80.667 46.333 135.667 139 165l612 194l94 -202l-536 -152c-34 -9.33301 -51 -25 -51 -47c0 -11.333 4.66699 -26 14 -44l173 -337
c30.667 -60 75 -110.333 133 -151c71.333 -50 152 -75 242 -75h14v-267h-31c-156 0 -270.667 58 -344 174c-58 -116 -171.667 -174 -341 -174h-257zM521 -427h-211v215h211v-215zM258 -427h-209v215h209v-215zM386 -678h-215v212h215v-212z" />
    <glyph glyph-name="uni06AE.fina" unicode="&#x6ae;" horiz-adv-x="1824" 
d="M1824 1h-54l1 1c-117.333 5.33301 -197.666 54.333 -240.999 147c-64 -98.667 -173.667 -148 -329 -148h-701c-222 0 -333 127.333 -333 382v129h236v-111c0 -88.667 51 -133 153 -133h629h16c14 0.666992 26.667 1.66699 38 3c12.667 2.66699 25 6.33398 37 11.001
c4 1.33301 8.66699 2.33301 14 3c4.66699 2 8.66699 4.33301 12 7c26 18.667 39 54.667 39 108v833h236v-719c0 -84.667 18 -146.334 54 -185.001c37.333 -40.667 97.666 -61 180.999 -61h12v-267zM1137 734l-514.001 -125.001l-31 111l180 45
c-39.333 45.333 -59 90.333 -59 135c0 50 22.667 90.667 68 122c40 27.333 86.333 41 139 41c38.667 0 72.667 -8 102 -24v-97c-29.333 7.33301 -58.666 11 -87.999 11c-77.333 0 -116 -22.333 -116 -67c0 -23.333 10 -42.666 30 -57.999c18 -14.667 39 -22 63 -22
c20 0 85 15.333 195 46zM1022 -418.001h-211v215h211v-215zM758.999 -418.001h-209v215h209v-215zM886.999 -669.001h-215v212h215v-212z" />
    <glyph glyph-name="uni06B0.init" unicode="&#x6b0;" horiz-adv-x="907" 
d="M-70 1v266.999h269c84 0 126 23.333 126 70c0 21.333 -8.66699 49.333 -26 84l-180 357c-26 51.333 -39 97 -39 137c0 77.333 46.667 129.333 140 156l652 185l95 -183l-577 -148c-35.333 -9.33301 -53 -24.666 -53 -45.999c0 -12.667 4.66699 -27.667 14 -45l182 -341
c27.333 -51.333 41 -109.333 41 -174c0 -101.333 -38 -181.333 -114 -240c-69.333 -52.667 -156.333 -79 -261 -79h-269zM114 1251l671 187l55 -125l-663 -188zM856 861.999c0 -52.667 -18.5 -97.667 -55.5 -135s-82.167 -56 -135.5 -56c-52 0 -96.833 19 -134.5 57
s-56.5 82.667 -56.5 134c0 50 19.333 94.333 58 133s83 58 133 58c49.333 0 93.5 -19.333 132.5 -58s58.5 -83 58.5 -133zM746 863.999c0 22.667 -8.33398 41.5 -25.001 56.5s-36.667 22.5 -60 22.5c-19.333 0 -37.166 -8.5 -53.499 -25.5s-24.5 -35.5 -24.5 -55.5
c0 -24 7.5 -43.667 22.5 -59s34.833 -23 59.5 -23c54 0 81 28 81 84z" />
    <glyph glyph-name="uni06B0.medi" unicode="&#x6b0;" horiz-adv-x="915" 
d="M189 268c26.667 0 51.668 4.66602 75.001 13.999c31.333 12.667 47 30.334 47 53.001c0 30.667 -7 59.667 -21 87l-182 357c-24.667 48.667 -37 93 -37 133c0 80 46.333 133.333 139 160l614 175l91 -181l-535 -141c-35.333 -9.33301 -53 -26.333 -53 -51
c0 -12 5 -27.333 15 -46l177 -334c80 -150.667 203 -226 369 -226h27v-267h-28c-70 0 -137.333 14 -202 42c-75.333 32 -126 76 -152 132c-60.667 -116 -175.334 -174 -344.001 -174h-259v267h259zM75.001 1241l671 187l55 -125l-663 -187zM863.001 859.999
c0 -52.667 -18.5 -97.667 -55.5 -135s-82.167 -56 -135.5 -56c-52 0 -96.833 19 -134.5 57s-56.5 82.667 -56.5 134c0 50 19.333 94.333 58 133s83 58 133 58c49.333 0 93.5 -19.333 132.5 -58s58.5 -83 58.5 -133zM753.001 861.999c0 22.667 -8.33398 41.5 -25.001 56.5
s-36.667 22.5 -60 22.5c-19.333 0 -37.166 -8.5 -53.499 -25.5s-24.5 -35.5 -24.5 -55.5c0 -24 7.5 -43.667 22.5 -59s34.833 -23 59.5 -23c54 0 81 28 81 84z" />
    <glyph glyph-name="uni06B0.fina" unicode="&#x6b0;" horiz-adv-x="2228" 
d="M1855 175c-60.667 -116 -175.333 -174 -344 -174h-1011c-222 0 -333 127.333 -333 382v129h236v-111c0 -88.667 51 -133 153 -133h955c26.667 0 51.667 4.66699 75 14c31.333 12.667 47 30.334 47 53.001c0 30.667 -7 59.667 -21 87l-182 357
c-24.667 48.667 -37 93 -37 133c0 80 46.667 133.333 140 160l613 175l91 -181l-535 -141c-35.333 -9.33301 -53 -26.333 -53 -51c0 -12 5 -27.333 15 -46l177 -334c80 -150.667 206.333 -226 379 -226h8v-267h-7c-82.667 0 -161.667 19.667 -237 59
c-67.333 35.333 -110.333 73.666 -129 114.999zM1398 1241l670 187l55 -125l-663 -187zM2182 861c0 -52.667 -18.5 -97.667 -55.5 -135s-82.167 -56 -135.5 -56c-52 0 -96.833 19 -134.5 57s-56.5 82.667 -56.5 134c0 50 19.333 94.333 58 133s83 58 133 58
c49.333 0 93.5 -19.333 132.5 -58s58.5 -83 58.5 -133zM2072 863c0 22.667 -8.33398 41.5 -25.001 56.5s-36.667 22.5 -60 22.5c-19.333 0 -37.166 -8.5 -53.499 -25.5s-24.5 -35.5 -24.5 -55.5c0 -24 7.5 -43.667 22.5 -59s34.833 -23 59.5 -23c54 0 81 28 81 84z" />
    <glyph glyph-name="uni06B2.init" unicode="&#x6b2;" horiz-adv-x="907" 
d="M-70 1v266.999h269c84 0 126 23.333 126 70c0 21.333 -8.66699 49.333 -26 84l-180 357c-26 51.333 -39 97 -39 137c0 77.333 46.667 129.333 140 156l652 185l95 -183l-577 -148c-35.333 -9.33301 -53 -24.666 -53 -45.999c0 -12.667 4.66699 -27.667 14 -45l182 -341
c27.333 -51.333 41 -109.333 41 -174c0 -101.333 -38 -181.333 -114 -240c-69.333 -52.667 -156.333 -79 -261 -79h-269zM114 1251l671 187l55 -125l-663 -188zM457 -414.001h-211v212h211v-212zM172 -414.001h-211v212h211v-212z" />
    <glyph glyph-name="uni06B2.medi" unicode="&#x6b2;" horiz-adv-x="915" 
d="M189 268c26.667 0 51.668 4.66602 75.001 13.999c31.333 12.667 47 30.334 47 53.001c0 30.667 -7 59.667 -21 87l-182 357c-24.667 48.667 -37 93 -37 133c0 80 46.333 133.333 139 160l614 175l91 -181l-535 -141c-35.333 -9.33301 -53 -26.333 -53 -51
c0 -12 5 -27.333 15 -46l177 -334c80 -150.667 203 -226 369 -226h27v-267h-28c-70 0 -137.333 14 -202 42c-75.333 32 -126 76 -152 132c-60.667 -116 -175.334 -174 -344.001 -174h-259v267h259zM75.001 1241l671 187l55 -125l-663 -187zM517.001 -416.001h-211v212h211
v-212zM232.001 -416.001h-211v212h211v-212z" />
    <glyph glyph-name="uni06B2.fina" unicode="&#x6b2;" horiz-adv-x="2228" 
d="M1855 175c-60.667 -116 -175.333 -174 -344 -174h-1011c-222 0 -333 127.333 -333 382v129h236v-111c0 -88.667 51 -133 153 -133h955c26.667 0 51.667 4.66699 75 14c31.333 12.667 47 30.334 47 53.001c0 30.667 -7 59.667 -21 87l-182 357
c-24.667 48.667 -37 93 -37 133c0 80 46.667 133.333 140 160l613 175l91 -181l-535 -141c-35.333 -9.33301 -53 -26.333 -53 -51c0 -12 5 -27.333 15 -46l177 -334c80 -150.667 206.333 -226 379 -226h8v-267h-7c-82.667 0 -161.667 19.667 -237 59
c-67.333 35.333 -110.333 73.666 -129 114.999zM1398 1241l670 187l55 -125l-663 -187zM1210 -420h-211v212h211v-212zM925.001 -420h-211v212h211v-212z" />
    <glyph glyph-name="uni06B4.init" unicode="&#x6b4;" horiz-adv-x="907" 
d="M-70 1v266.999h269c84 0 126 23.333 126 70c0 21.333 -8.66699 49.333 -26 84l-180 357c-26 51.333 -39 97 -39 137c0 77.333 46.667 129.333 140 156l652 185l95 -183l-577 -148c-35.333 -9.33301 -53 -24.666 -53 -45.999c0 -12.667 4.66699 -27.667 14 -45l182 -341
c27.333 -51.333 41 -109.333 41 -174c0 -101.333 -38 -181.333 -114 -240c-69.333 -52.667 -156.333 -79 -261 -79h-269zM114 1251l671 187l55 -125l-663 -188zM630 1472h-211v215h211v-215zM367 1472h-209v215h209v-215zM495 1725h-215v213h215v-213z" />
    <glyph glyph-name="uni06B4.medi" unicode="&#x6b4;" horiz-adv-x="915" 
d="M189 268c26.667 0 51.668 4.66602 75.001 13.999c31.333 12.667 47 30.334 47 53.001c0 30.667 -7 59.667 -21 87l-182 357c-24.667 48.667 -37 93 -37 133c0 80 46.333 133.333 139 160l614 175l91 -181l-535 -141c-35.333 -9.33301 -53 -26.333 -53 -51
c0 -12 5 -27.333 15 -46l177 -334c80 -150.667 203 -226 369 -226h27v-267h-28c-70 0 -137.333 14 -202 42c-75.333 32 -126 76 -152 132c-60.667 -116 -175.334 -174 -344.001 -174h-259v267h259zM75.001 1241l671 187l55 -125l-663 -187zM631.001 1494h-211v215h211v-215z
M368.001 1494h-209v215h209v-215zM496.001 1747h-215v213h215v-213z" />
    <glyph glyph-name="uni06B4.fina" unicode="&#x6b4;" horiz-adv-x="2228" 
d="M1855 175c-60.667 -116 -175.333 -174 -344 -174h-1011c-222 0 -333 127.333 -333 382v129h236v-111c0 -88.667 51 -133 153 -133h955c26.667 0 51.667 4.66699 75 14c31.333 12.667 47 30.334 47 53.001c0 30.667 -7 59.667 -21 87l-182 357
c-24.667 48.667 -37 93 -37 133c0 80 46.667 133.333 140 160l613 175l91 -181l-535 -141c-35.333 -9.33301 -53 -26.333 -53 -51c0 -12 5 -27.333 15 -46l177 -334c80 -150.667 206.333 -226 379 -226h8v-267h-7c-82.667 0 -161.667 19.667 -237 59
c-67.333 35.333 -110.333 73.666 -129 114.999zM1398 1241l670 187l55 -125l-663 -187zM1896 1440h-211v215h211v-215zM1633 1440h-209v215h209v-215zM1761 1693h-215v213h215v-213z" />
    <glyph glyph-name="uni06B5.init" unicode="&#x6b5;" horiz-adv-x="409" 
d="M406 365c0 -242.667 -112.333 -364 -337 -364h-139v267h103c56.667 0 94.667 13.333 114 40c15.333 21.333 23 60 23 116v809h236v-868zM519 1712c-12 -9.33301 -27.8311 -28.8311 -47.498 -58.498s-39.834 -63.834 -60.501 -102.501s-39.834 -79.334 -57.501 -122.001
s-30.834 -81.667 -39.501 -117h-94c-6 24 -14.333 49.667 -25 77s-22.334 54.833 -35.001 82.5s-26 54.5 -40 80.5s-27.5 49.833 -40.5 71.5s-25.167 40.167 -36.5 55.5s-20.666 26.333 -27.999 33l155 2c8.66699 -12.667 17.667 -30 27 -52s18.5 -45.833 27.5 -71.5
s17.167 -51.167 24.5 -76.5s13 -48 17 -68c4 20 9.83301 42.667 17.5 68s16 50.833 25 76.5s18.333 49.5 28 71.5s18.834 39.333 27.501 52z" />
    <glyph glyph-name="uni06B5.medi" unicode="&#x6b5;" horiz-adv-x="653" 
d="M653 1l-27.999 0.000976562c-132 0 -221 50.333 -267 151c-42.667 -100.667 -152 -151 -328 -151h-100v267h84c56 0 95 8 117 24c26 18.667 39 54.667 39 108v833h236v-719c0 -84.667 18 -146.334 54 -185.001c37.333 -40.667 97.666 -61 180.999 -61h12v-267z
M518.001 1712c-12 -9.33301 -27.8311 -28.8311 -47.498 -58.498s-39.834 -63.834 -60.501 -102.501s-39.834 -79.334 -57.501 -122.001s-30.834 -81.667 -39.501 -117h-94c-6 24 -14.333 49.667 -25 77s-22.334 54.833 -35.001 82.5s-26 54.5 -40 80.5
s-27.5 49.833 -40.5 71.5s-25.167 40.167 -36.5 55.5s-20.666 26.333 -27.999 33l155 2c8.66699 -12.667 17.667 -30 27 -52s18.5 -45.833 27.5 -71.5s17.167 -51.167 24.5 -76.5s13 -48 17 -68c4 20 9.83301 42.667 17.5 68s16 50.833 25 76.5s18.333 49.5 28 71.5
s18.834 39.333 27.501 52z" />
    <glyph glyph-name="uni06B5.fina" unicode="&#x6b5;" horiz-adv-x="1501" 
d="M1275 5c0 -143.333 -42.998 -265.335 -128.998 -366.002c-104.667 -122 -256.334 -183 -455.001 -183c-164.667 0 -294.334 54 -389.001 162c-90 102.667 -135 237.334 -135 404.001c0 36.667 6.66699 86.667 20 150c14.667 70.667 32 126 52 166l185 -70
c-30.667 -129.333 -46 -206.666 -46 -231.999c0 -208.667 113.667 -313 341 -313c82 0 153 17 213 51c85.333 48 128 122.333 128 223v1237h219v-688c0 -92 12.333 -158.333 37 -199c32 -52.667 91 -79 177 -79h29v-267h-29c-43.333 0 -85 8.66699 -125 26
c-46 20 -77 47.333 -93 82v-104zM1397 1761c-12 -9.33301 -27.832 -28.8311 -47.499 -58.498s-39.834 -63.834 -60.501 -102.501s-39.834 -79.334 -57.501 -122.001s-30.834 -81.667 -39.501 -117h-94c-6.66699 24 -15.167 49.667 -25.5 77s-21.833 54.833 -34.5 82.5
s-26 54.5 -40 80.5s-27.5 49.833 -40.5 71.5s-25.167 40.167 -36.5 55.5s-20.666 26.333 -27.999 33l155 2c8.66699 -12.667 17.667 -30 27 -52s18.5 -45.833 27.5 -71.5s17.167 -51.167 24.5 -76.5s13 -48 17 -68c4 20 9.83301 42.667 17.5 68s16 50.833 25 76.5
s18.333 49.5 28 71.5s18.834 39.333 27.501 52z" />
    <glyph glyph-name="uni06B6.init" unicode="&#x6b6;" horiz-adv-x="409" 
d="M406 365c0 -242.667 -112.333 -364 -337 -364h-139v267h103c56.667 0 94.667 13.333 114 40c15.333 21.333 23 60 23 116v809h236v-868zM392 1409h-237v237h237v-237z" />
    <glyph glyph-name="uni06B6.medi" unicode="&#x6b6;" horiz-adv-x="653" 
d="M653 1l-27.999 0.000976562c-132 0 -221 50.333 -267 151c-42.667 -100.667 -152 -151 -328 -151h-100v267h84c56 0 95 8 117 24c26 18.667 39 54.667 39 108v833h236v-719c0 -84.667 18 -146.334 54 -185.001c37.333 -40.667 97.666 -61 180.999 -61h12v-267z
M384.001 1420h-237v237h237v-237z" />
    <glyph glyph-name="uni06B6.fina" unicode="&#x6b6;" horiz-adv-x="1507" 
d="M1275 5c0 -143.333 -42.998 -265.335 -128.998 -366.002c-104.667 -122 -256.334 -183 -455.001 -183c-164.667 0 -294.334 54 -389.001 162c-90 102.667 -135 237.334 -135 404.001c0 36.667 6.66699 86.667 20 150c14.667 70.667 32 126 52 166l185 -70
c-30.667 -129.333 -46 -206.666 -46 -231.999c0 -208.667 113.667 -313 341 -313c82 0 153 17 213 51c85.333 48 128 122.333 128 223v1237h219v-688c0 -92 12.333 -158.333 37 -199c32 -52.667 91 -79 177 -79h29v-267h-29c-43.333 0 -85 8.66699 -125 26
c-46 20 -77 47.333 -93 82v-104zM1257 1403h-237v237h237v-237z" />
    <glyph glyph-name="uni06B7.init" unicode="&#x6b7;" horiz-adv-x="409" 
d="M406 365c0 -242.667 -112.333 -364 -337 -364h-139v267h103c56.667 0 94.667 13.333 114 40c15.333 21.333 23 60 23 116v809h236v-868zM486 1414h-211v215h211v-215zM223 1414h-209v215h209v-215zM351 1667h-215v213h215v-213z" />
    <glyph glyph-name="uni06B7.medi" unicode="&#x6b7;" horiz-adv-x="653" 
d="M653 1l-27.999 0.000976562c-132 0 -221 50.333 -267 151c-42.667 -100.667 -152 -151 -328 -151h-100v267h84c56 0 95 8 117 24c26 18.667 39 54.667 39 108v833h236v-719c0 -84.667 18 -146.334 54 -185.001c37.333 -40.667 97.666 -61 180.999 -61h12v-267z
M497.001 1422h-211v215h211v-215zM234.001 1422h-209v215h209v-215zM362.001 1675h-215v213h215v-213z" />
    <glyph glyph-name="uni06B7.fina" unicode="&#x6b7;" horiz-adv-x="1501" 
d="M1275 5c0 -143.333 -42.998 -265.335 -128.998 -366.002c-104.667 -122 -256.334 -183 -455.001 -183c-164.667 0 -294.334 54 -389.001 162c-90 102.667 -135 237.334 -135 404.001c0 36.667 6.66699 86.667 20 150c14.667 70.667 32 126 52 166l185 -70
c-30.667 -129.333 -46 -206.666 -46 -231.999c0 -208.667 113.667 -313 341 -313c82 0 153 17 213 51c85.333 48 128 122.333 128 223v1237h219v-688c0 -92 12.333 -158.333 37 -199c32 -52.667 91 -79 177 -79h29v-267h-29c-43.333 0 -85 8.66699 -125 26
c-46 20 -77 47.333 -93 82v-104zM1354 1376h-211v215h211v-215zM1091 1376h-209v215h209v-215zM1219 1629h-215v213h215v-213z" />
    <glyph glyph-name="uni06B8.init" unicode="&#x6b8;" horiz-adv-x="409" 
d="M406 365c0 -242.667 -112.333 -364 -337 -364h-139v267h103c56.667 0 94.667 13.333 114 40c15.333 21.333 23 60 23 116v809h236v-868zM447 -420h-211v215h211v-215zM184 -420h-209v215h209v-215zM312 -671h-215v212h215v-212z" />
    <glyph glyph-name="uni06B8.medi" unicode="&#x6b8;" horiz-adv-x="653" 
d="M653 1l-27.999 0.000976562c-132 0 -221 50.333 -267 151c-42.667 -100.667 -152 -151 -328 -151h-100v267h84c56 0 95 8 117 24c26 18.667 39 54.667 39 108v833h236v-719c0 -84.667 18 -146.334 54 -185.001c37.333 -40.667 97.666 -61 180.999 -61h12v-267z
M527.001 -428.999h-211v215h211v-215zM264.001 -428.999h-209v215h209v-215zM392.001 -679.999h-215v212h215v-212z" />
    <glyph glyph-name="uni06B8.fina" unicode="&#x6b8;" horiz-adv-x="1514" 
d="M1275 5c0 -143.333 -42.998 -265.335 -128.998 -366.002c-104.667 -122 -256.334 -183 -455.001 -183c-164.667 0 -294.334 54 -389.001 162c-90 102.667 -135 237.334 -135 404.001c0 36.667 6.66699 86.667 20 150c14.667 70.667 32 126 52 166l185 -70
c-30.667 -129.333 -46 -206.666 -46 -231.999c0 -208.667 113.667 -313 341 -313c82 0 153 17 213 51c85.333 48 128 122.333 128 223v1237h219v-688c0 -92 12.333 -158.333 37 -199c32 -52.667 91 -79 177 -79h29v-267h-29c-43.333 0 -85 8.66699 -125 26
c-46 20 -77 47.333 -93 82v-104zM943.002 -907.002h-211v215h211v-215zM680.002 -907.002h-209v215h209v-215zM808.002 -1158h-215v212h215v-212z" />
    <glyph glyph-name="uni06B9.init" unicode="&#x6b9;" horiz-adv-x="489" 
d="M150 268c56.667 0 85 21.332 85 63.999c0 16.667 -5.33301 34.667 -16 54l-115 206l213 141c112.667 -187.333 169 -322.666 169 -405.999c0 -217.333 -94.667 -326 -284 -326h-272v267h220zM243 868.999h-237v237h237v-237zM293 -443.001h-237v237h237v-237z" />
    <glyph glyph-name="uni06B9.medi" unicode="&#x6b9;" horiz-adv-x="622" 
d="M622 1h-27.001c-50.667 0 -99.167 14.667 -145.5 44s-80.5 66.666 -102.5 111.999c-26.667 -57.333 -59.167 -97.666 -97.5 -120.999s-89.166 -35 -152.499 -35h-167v267h87c95.333 0 143 53.667 143 161v263h236v-135c0 -192.667 69.333 -289 208 -289h18v-267z
M385.999 855h-237v237h237v-237zM384.999 -421h-237v237h237v-237z" />
    <glyph glyph-name="uni06B9.fina" unicode="&#x6b9;" horiz-adv-x="1650" 
d="M837 602h-237v237h237v-237zM956 -1002h-237v237h237v-237zM1622 1c-66.667 0 -117.331 16 -151.998 48c0 -126.667 -18.667 -233 -56 -319c-104 -240.667 -309 -361 -615 -361c-220 0 -386 72 -498 216c-89.333 114.667 -134 254.667 -134 420c0 26 6.66699 70 20 132
c15.333 72.667 32.666 130.334 51.999 173.001l206 -73c-34.667 -84.667 -52 -163.334 -52 -236.001c0 -129.333 47 -224.333 141 -285c71.333 -46 162 -69 272 -69c282.667 0 424 129.667 424 389c0 118.667 -64.667 290 -194 514l219 132l93 -198
c44 -94 89.667 -156 137 -186c31.333 -20 76.666 -30 135.999 -30h29v-267h-28z" />
    <glyph glyph-name="uni06BC.init" unicode="&#x6bc;" horiz-adv-x="489" 
d="M150 268c56.667 0 85 21.332 85 63.999c0 16.667 -5.33301 34.667 -16 54l-115 206l213 141c112.667 -187.333 169 -322.666 169 -405.999c0 -217.333 -94.667 -326 -284 -326h-272v267h220zM263 823.999h-237v237h237v-237zM441 -148.001
c0 -52.667 -18.5 -97.667 -55.5 -135s-82.167 -56 -135.5 -56c-52 0 -96.833 19 -134.5 57s-56.5 82.667 -56.5 134c0 50 19.333 94.333 58 133s83 58 133 58c49.333 0 93.5 -19.333 132.5 -58s58.5 -83 58.5 -133zM331 -146.001c0 22.667 -8.33398 41.5 -25.001 56.5
s-36.667 22.5 -60 22.5c-19.333 0 -37.166 -8.5 -53.499 -25.5s-24.5 -35.5 -24.5 -55.5c0 -24 7.5 -43.667 22.5 -59s34.833 -23 59.5 -23c54 0 81 28 81 84z" />
    <glyph glyph-name="uni06BC.medi" unicode="&#x6bc;" horiz-adv-x="622" 
d="M622 1h-27.001c-50.667 0 -99.167 14.667 -145.5 44s-80.5 66.666 -102.5 111.999c-26.667 -57.333 -59.167 -97.666 -97.5 -120.999s-89.166 -35 -152.499 -35h-167v267h87c95.333 0 143 53.667 143 161v263h236v-135c0 -192.667 69.333 -289 208 -289h18v-267z
M389.999 822h-237v237h237v-237zM370.999 -124c0 -52.667 -18.5 -97.667 -55.5 -135s-82.167 -56 -135.5 -56c-52 0 -96.833 19 -134.5 57s-56.5 82.667 -56.5 134c0 50 19.333 94.333 58 133s83 58 133 58c49.333 0 93.5 -19.333 132.5 -58s58.5 -83 58.5 -133z
M260.999 -122c0 22.667 -8.33398 41.5 -25.001 56.5s-36.667 22.5 -60 22.5c-19.333 0 -37.166 -8.5 -53.499 -25.5s-24.5 -35.5 -24.5 -55.5c0 -24 7.5 -43.667 22.5 -59s34.833 -23 59.5 -23c54 0 81 28 81 84z" />
    <glyph glyph-name="uni06BC.fina" unicode="&#x6bc;" horiz-adv-x="1650" 
d="M853 646h-237v237h237v-237zM1622 1c-66.667 0 -117.331 16 -151.998 48c0 -126.667 -18.667 -233 -56 -319c-104 -240.667 -309 -361 -615 -361c-220 0 -386 72 -498 216c-89.333 114.667 -134 254.667 -134 420c0 26 6.66699 70 20 132
c15.333 72.667 32.666 130.334 51.999 173.001l206 -73c-34.667 -84.667 -52 -163.334 -52 -236.001c0 -129.333 47 -224.333 141 -285c71.333 -46 162 -69 272 -69c282.667 0 424 129.667 424 389c0 118.667 -64.667 290 -194 514l219 132l93 -198
c44 -94 89.667 -156 137 -186c31.333 -20 76.666 -30 135.999 -30h29v-267h-28zM989.003 -729c0 -52.667 -18.5 -97.667 -55.5 -135s-82.167 -56 -135.5 -56c-52 0 -96.833 19 -134.5 57s-56.5 82.667 -56.5 134c0 50 19.333 94.333 58 133s83 58 133 58
c49.333 0 93.5 -19.333 132.5 -58s58.5 -83 58.5 -133zM879.003 -727c0 22.667 -8.33398 41.5 -25.001 56.5s-36.667 22.5 -60 22.5c-19.333 0 -37.166 -8.5 -53.499 -25.5s-24.5 -35.5 -24.5 -55.5c0 -24 7.5 -43.667 22.5 -59s34.833 -23 59.5 -23c54 0 81 28 81 84z" />
    <glyph glyph-name="uni06BD.fina" unicode="&#x6bd;" horiz-adv-x="1650" 
d="M1622 1c-66.667 0 -117.331 16 -151.998 48c0 -126.667 -18.667 -233 -56 -319c-104 -240.667 -309 -361 -615 -361c-220 0 -386 72 -498 216c-89.333 114.667 -134 254.667 -134 420c0 26 6.66699 70 20 132c15.333 72.667 32.666 130.334 51.999 173.001l206 -73
c-34.667 -84.667 -52 -163.334 -52 -236.001c0 -129.333 47 -224.333 141 -285c71.333 -46 162 -69 272 -69c282.667 0 424 129.667 424 389c0 118.667 -64.667 290 -194 514l219 132l93 -198c44 -94 89.667 -156 137 -186c31.333 -20 76.666 -30 135.999 -30h29v-267h-28z
M973.003 692h-211v215h211v-215zM710.003 692h-209v215h209v-215zM838.003 945h-215v213h215v-213z" />
    <glyph glyph-name="uni06BF.init" unicode="&#x6bf;" horiz-adv-x="986" 
d="M986 185l-135 -184h-921v267h647l-247 244c-35.333 34.667 -76 52 -122 52h-160v243h206c74 0 135.333 -24.333 184 -73zM569 -421h-211v215h211v-215zM306 -421h-209v215h209v-215zM434 -672h-215v212h215v-212zM387 984h-237v237h237v-237z" />
    <glyph glyph-name="uni06BF.medi" unicode="&#x6bf;" horiz-adv-x="1286" 
d="M851 431c22.667 -25.333 44.3311 -47 64.998 -65s40.334 -32.667 59.001 -44c60.667 -36 133 -54 217 -54h94v-267h-198c-95.333 0 -173 29 -233 87c-28.667 26.667 -79.667 98.334 -153 215.001l-145.5 -123c-40.333 -33.333 -74.5 -58.666 -102.5 -75.999
c-105.333 -68.667 -203.333 -103 -294 -103h-230v267h96c105.333 0 195.666 14.333 270.999 43c31.333 11.333 62.833 26.166 94.5 44.499s63.834 40.166 96.501 65.499l69 53.5l128 100.5c-140 4 -242.667 6 -308 6c-24.667 0 -45.667 -0.5 -63 -1.5
s-34.666 -3.5 -51.999 -7.5s-36.333 -10.167 -57 -18.5s-46.667 -19.833 -78 -34.5l-114 195c76 87.333 167.333 131 274 131l957 -34l-28 -255h-87c-54 0 -105.333 -13.333 -154 -40c-12.667 -7.33301 -29 -18 -49 -32zM779.997 -363h-211v215h211v-215zM516.997 -363h-209
v215h209v-215zM644.997 -614h-215v212h215v-212zM690.997 1013h-237v237h237v-237z" />
    <glyph glyph-name="uni06BF.fina" unicode="&#x6bf;" horiz-adv-x="1466" 
d="M424 -131c0 -52.667 9.99902 -100.162 29.999 -142.495s47.833 -78.5 83.5 -108.5s78.334 -53 128.001 -69s104.5 -24 164.5 -24c102.667 0 191.667 13 267 39l72 28c28.667 11.333 63 23.666 103 36.999l114 -219c-187.333 -101.333 -370 -152 -548 -152
c-106.667 0 -201.5 13.167 -284.5 39.5s-153.167 64.833 -210.5 115.5s-101 113.167 -131 187.5s-45 159.166 -45 254.499c0 179.333 90 347.666 270 504.999c52 44.667 107.667 86.167 167 124.5s124.333 74.166 195 107.499c-28.667 1.33301 -56.834 2.33301 -84.501 3
s-55.5 1 -83.5 1c-46 0 -91.333 -1 -136 -3c-53.333 -2 -113.333 -22.333 -180 -61l-120 195c14 18 31.333 35 52 51s43 30 67 42s48.5 21.5 73.5 28.5s48.833 10.5 71.5 10.5l969 -35l-25 -254h-89c-23.333 0 -49 -2.66699 -77 -8s-55.833 -12.5 -83.5 -21.5
s-54 -19.333 -79 -31s-46.167 -23.5 -63.5 -35.5c42.667 -62.667 78 -105.334 106 -128.001c62 -52 137 -78 225 -78h124v-267h-167c-116.667 0 -208.667 29.667 -276 89c-51.333 45.333 -115.666 138.666 -192.999 279.999c-94.667 -58 -180 -127.667 -256 -209
c-100 -107.333 -150 -204.666 -150 -291.999zM992.548 -155.548h-197.594v201.615h197.594v-201.615zM746.259 -155.548h-195.721v201.615h195.721v-201.615zM866.126 -390.922h-201.34v198.802h201.34v-198.802zM917.999 1016h-237v237h237v-237z" />
    <glyph glyph-name="uni06C4.fina" unicode="&#x6c4;" horiz-adv-x="1084" 
d="M170 376c0 83.333 28 156.332 84 218.999s125.333 94 208 94c83.333 0 163 -29 239 -87c98.667 -75.333 162.667 -186.666 192 -333.999h191v-267h-191c-28 -118 -102.667 -234.667 -224 -350c-134.667 -128 -305.667 -231.333 -513 -310l-108 219l188.5 85.5
c83.667 38.333 154.834 82.833 213.501 133.5c77.333 66.667 135.666 146.334 174.999 239.001c-20 -2 -40.333 -3 -61 -3c-107.333 0 -197 28 -269 84c-83.333 65.333 -125 157.666 -125 276.999zM636 278.999c-2 54 -23.999 98 -65.999 132c-34 28 -66.333 42 -97 42
c-18.667 0 -37.834 -9.16699 -57.501 -27.5s-29.5 -36.833 -29.5 -55.5c0 -57.333 30 -90 90 -98c58 -8 111.333 -5.66699 160 7zM627.001 -664.001c0 -52.667 -18.5 -97.667 -55.5 -135s-82.167 -56 -135.5 -56c-52 0 -96.833 19 -134.5 57s-56.5 82.667 -56.5 134
c0 50 19.333 94.333 58 133s83 58 133 58c49.333 0 93.5 -19.333 132.5 -58s58.5 -83 58.5 -133zM517.001 -662.001c0 22.667 -8.33398 41.5 -25.001 56.5s-36.667 22.5 -60 22.5c-19.333 0 -37.166 -8.5 -53.499 -25.5s-24.5 -35.5 -24.5 -55.5c0 -24 7.5 -43.667 22.5 -59
s34.833 -23 59.5 -23c54 0 81 28 81 84z" />
    <glyph glyph-name="uni06CA.fina" unicode="&#x6ca;" horiz-adv-x="1084" 
d="M170 376c0 83.333 28 156.332 84 218.999s125.333 94 208 94c83.333 0 163 -29 239 -87c98.667 -75.333 162.667 -186.666 192 -333.999h191v-267h-191c-28 -118 -102.667 -234.667 -224 -350c-134.667 -128 -305.667 -231.333 -513 -310l-108 219l188.5 85.5
c83.667 38.333 154.834 82.833 213.501 133.5c77.333 66.667 135.666 146.334 174.999 239.001c-20 -2 -40.333 -3 -61 -3c-107.333 0 -197 28 -269 84c-83.333 65.333 -125 157.666 -125 276.999zM636 278.999c-2 54 -23.999 98 -65.999 132c-34 28 -66.333 42 -97 42
c-18.667 0 -37.834 -9.16699 -57.501 -27.5s-29.5 -36.833 -29.5 -55.5c0 -57.333 30 -90 90 -98c58 -8 111.333 -5.66699 160 7zM665.001 887.999h-211v212h211v-212zM380.001 887.999h-211v212h211v-212z" />
    <glyph glyph-name="uni06CD.fina" unicode="&#x6cd;" horiz-adv-x="1567" 
d="M1573 1l-38.001 0.000976562c0 -66.667 -11 -123.334 -33 -170.001c-58 -122.667 -169.333 -218.334 -334 -287.001c-139.333 -58.667 -286 -88 -440 -88c-360.667 0 -541 192 -541 576c0 58.667 11.667 129.334 35 212.001l-272 -92l25 105l274 80l1 1l208 -66
c-23.333 -78 -35 -152.333 -35 -223c0 -222 113.333 -333 340 -333c246.667 0 416 54 508 162c8 9.33301 12 19.333 12 30c0 14 -8.66699 24 -26 30c-55.333 20 -197.666 57 -426.999 111l62 219h681v-267z" />
    <glyph glyph-name="uni06CE.init" unicode="&#x6ce;" horiz-adv-x="489" 
d="M150 268c56.667 0 85 21.332 85 63.999c0 16.667 -5.33301 34.667 -16 54l-115 206l213 141c112.667 -187.333 169 -322.666 169 -405.999c0 -217.333 -94.667 -326 -284 -326h-272v267h220zM441 1250c-12 -9.33301 -27.8311 -28.8311 -47.498 -58.498
s-39.834 -63.834 -60.501 -102.501s-39.834 -79.334 -57.501 -122.001s-30.834 -81.667 -39.501 -117h-94c-6 24 -14.333 49.667 -25 77s-22.334 54.833 -35.001 82.5s-26 54.5 -40 80.5s-27.5 49.833 -40.5 71.5s-25.167 40.167 -36.5 55.5s-20.666 26.333 -27.999 33
l155 2c8.66699 -12.667 17.667 -30 27 -52s18.5 -45.833 27.5 -71.5s17.167 -51.167 24.5 -76.5s13 -48 17 -68c4 20 9.83301 42.667 17.5 68s16 50.833 25 76.5s18.333 49.5 28 71.5s18.834 39.333 27.501 52zM469.002 -419.999h-211v212h211v-212zM184.002 -419.999h-211
v212h211v-212z" />
    <glyph glyph-name="uni06CE.medi" unicode="&#x6ce;" horiz-adv-x="622" 
d="M622 1h-27.001c-50.667 0 -99.167 14.667 -145.5 44s-80.5 66.666 -102.5 111.999c-26.667 -57.333 -59.167 -97.666 -97.5 -120.999s-89.166 -35 -152.499 -35h-167v267h87c95.333 0 143 53.667 143 161v263h236v-135c0 -192.667 69.333 -289 208 -289h18v-267z
M529.999 1241c-12 -9.33301 -27.8311 -28.8311 -47.498 -58.498s-39.834 -63.834 -60.501 -102.501s-39.834 -79.334 -57.501 -122.001s-30.834 -81.667 -39.501 -117h-94c-6 24 -14.333 49.667 -25 77s-22.334 54.833 -35.001 82.5s-26 54.5 -40 80.5
s-27.5 49.833 -40.5 71.5s-25.167 40.167 -36.5 55.5s-20.666 26.333 -27.999 33l155 2c8.66699 -12.667 17.667 -30 27 -52s18.5 -45.833 27.5 -71.5s17.167 -51.167 24.5 -76.5s13 -48 17 -68c4 20 9.83301 42.667 17.5 68s16 50.833 25 76.5s18.333 49.5 28 71.5
s18.834 39.333 27.501 52zM533.001 -419.998h-211v212h211v-212zM248.001 -419.998h-211v212h211v-212z" />
    <glyph glyph-name="uni06CE.fina" unicode="&#x6ce;" horiz-adv-x="1553" 
d="M1553 1l-38.001 0.00195312c0 -66.667 -11 -123.334 -33 -170.001c-58 -122.667 -169.333 -218.334 -334 -287.001c-139.333 -58.667 -286 -88 -440 -88c-360.667 0 -541 192 -541 576c0 87.333 21 189.333 63 306l208 -66c-23.333 -78 -35 -152.333 -35 -223
c0 -222 113.333 -333 340 -333c246.667 0 416 54 508 162c8 9.33301 12 19.333 12 30c0 14 -8.66699 24 -26 30c-55.333 20 -197.666 57 -426.999 111l62 219h681v-267zM893.999 793.002c-12 -9.33301 -27.8311 -28.8311 -47.498 -58.498s-39.834 -63.834 -60.501 -102.501
s-39.834 -79.334 -57.501 -122.001s-30.834 -81.667 -39.501 -117h-94c-6 24 -14.333 49.667 -25 77s-22.334 54.833 -35.001 82.5s-26 54.5 -40 80.5s-27.5 49.833 -40.5 71.5s-25.167 40.167 -36.5 55.5s-20.666 26.333 -27.999 33l155 2
c8.66699 -12.667 17.667 -30 27 -52s18.5 -45.833 27.5 -71.5s17.167 -51.167 24.5 -76.5s13 -48 17 -68c4 20 9.83301 42.667 17.5 68s16 50.833 25 76.5s18.333 49.5 28 71.5s18.834 39.333 27.501 52z" />
    <glyph glyph-name="uni06CF.fina" unicode="&#x6cf;" horiz-adv-x="1084" 
d="M170 376c0 83.333 28 156.332 84 218.999s125.333 94 208 94c83.333 0 163 -29 239 -87c98.667 -75.333 162.667 -186.666 192 -333.999h191v-267h-191c-28 -118 -102.667 -234.667 -224 -350c-134.667 -128 -305.667 -231.333 -513 -310l-108 219l188.5 85.5
c83.667 38.333 154.834 82.833 213.501 133.5c77.333 66.667 135.666 146.334 174.999 239.001c-20 -2 -40.333 -3 -61 -3c-107.333 0 -197 28 -269 84c-83.333 65.333 -125 157.666 -125 276.999zM636 278.999c-2 54 -23.999 98 -65.999 132c-34 28 -66.333 42 -97 42
c-18.667 0 -37.834 -9.16699 -57.501 -27.5s-29.5 -36.833 -29.5 -55.5c0 -57.333 30 -90 90 -98c58 -8 111.333 -5.66699 160 7zM562.001 870.999h-237v237h237v-237z" />
    <glyph glyph-name="uni06D1.fina" unicode="&#x6d1;" horiz-adv-x="1553" 
d="M993 -877h-211v215h211v-215zM730 -877h-209v215h209v-215zM858 -1128h-215v212h215v-212zM1553 1l-38.001 0.00195312c0 -66.667 -11 -123.334 -33 -170.001c-58 -122.667 -169.333 -218.334 -334 -287.001c-139.333 -58.667 -286 -88 -440 -88
c-360.667 0 -541 192 -541 576c0 87.333 21 189.333 63 306l208 -66c-23.333 -78 -35 -152.333 -35 -223c0 -222 113.333 -333 340 -333c246.667 0 416 54 508 162c8 9.33301 12 19.333 12 30c0 14 -8.66699 24 -26 30c-55.333 20 -197.666 57 -426.999 111l62 219h681v-267
z" />
    <glyph glyph-name="uni06FA.init" unicode="&#x6fa;" horiz-adv-x="1431" 
d="M890 685c0 -270.667 62.335 -405.999 187.002 -405.999c74 0 111 31.667 111 95c0 61.333 -34.667 152.666 -104 273.999l195 117c101.333 -164.667 152 -296.334 152 -395.001c0 -106 -25.667 -190.667 -77 -254c-56 -69.333 -135.333 -104 -238 -104
c-128 0 -225.667 50.667 -293 152c-56.667 -108.667 -143.334 -163 -260.001 -163c-50 0 -98.667 14.833 -146 44.5s-83.333 66.834 -108 111.501c-27.333 -48.667 -66.5 -86.834 -117.5 -114.501s-105.167 -41.5 -162.5 -41.5h-99v267h79c46 0 78.667 7.33301 98 22
c28.667 22 43 66 43 132v267h236c0 -139.333 10 -238.666 30 -297.999c25.333 -74.667 72 -112 140 -112c37.333 0 66.666 18.333 87.999 55c18 30.667 27 65.667 27 105v246h219zM964.002 898.001h-211v215h211v-215zM701.002 898.001h-209v215h209v-215zM829.002 1151
h-215v213h215v-213zM846.002 -448.999h-237v237h237v-237z" />
    <glyph glyph-name="uni06FA.medi" unicode="&#x6fa;" horiz-adv-x="1639" 
d="M309 157c-56.667 -104 -150 -156 -280 -156h-99v267h81c46 0 78.333 7.33301 97 22c28 22 42 66 42 132v267h236c0 -278 59 -417 177 -417c72 0 108 55.667 108 167v250h243c0 -118 5 -202.333 15 -253c22.667 -114 70.667 -171 144 -171c68 0 102 51 102 153v271h236
c0 -176 18 -293.667 54 -353c27.333 -45.333 76.666 -68 147.999 -68h26v-267h-28c-109.333 0 -198.333 50.667 -267 152c-57.333 -101.333 -136 -152 -236 -152c-112 0 -205.667 46.333 -281 139c-21.333 -44 -58.666 -79 -111.999 -105c-47.333 -22.667 -98 -34 -152 -34
c-52.667 0 -102.667 14 -150 42c-49.333 29.333 -84 67.333 -104 114zM1011 957h-211v215h211v-215zM748 957h-209v215h209v-215zM876 1210h-215v213h215v-213zM915 -452h-237v237h237v-237z" />
    <glyph glyph-name="uni06FA.fina" unicode="&#x6fa;" horiz-adv-x="2644" 
d="M1685 684h239c0 -280 55.667 -420 167 -420c68 0 102 51 102 153v271h235c0 -176.667 16.333 -294 49 -352c25.333 -45.333 72.666 -68 142 -68h25v-267h-28c-66 0 -118 11 -156 33c-35.333 21.333 -71.333 60.666 -108 117.999c-64.667 -106 -151.667 -159 -261 -159
c-88.667 0 -170.667 48.667 -246 146c-48.667 -92.667 -120.667 -139 -216 -139c-64.667 0 -117.667 16 -159 48c0 -126.667 -18.667 -233 -56 -319c-48 -111.333 -113 -195 -195 -251c-104 -71.333 -246.333 -107 -427 -107c-220 0 -385 71.667 -495 215
c-86.667 112.667 -130 252 -130 418c0 26 6.66699 70 20 132c15.333 72.667 32.666 130.334 51.999 173.001l206 -73c-34.667 -84.667 -52 -163.334 -52 -236.001c0 -130 46.667 -225.667 140 -287c72 -47.333 162 -71 270 -71c130.667 0 233.334 32.667 308.001 98
c79.333 68.667 119 167 119 295c0 132.667 -64.667 305 -194 517l201 129c26 -49.333 66.667 -122.666 122 -219.999c72 -119.333 141.333 -179 208 -179c78.667 0 118 52 118 156v246zM2033 939h-211v215h211v-215zM1770 939h-209v215h209v-215zM1898 1192h-215v213h215
v-213zM1923 -484h-237v237h237v-237z" />
    <glyph glyph-name="uni06FB.init" unicode="&#x6fb;" horiz-adv-x="1491" 
d="M485 309c234 349.333 453.333 523.998 658 523.998c94 0 175.667 -39.667 245 -119c67.333 -76.667 101 -162.667 101 -258c0 -153.333 -44.667 -270.666 -134 -351.999c-75.333 -68.667 -168.333 -103 -279 -103h-440c-150 0 -251.333 52.333 -304 157
c-26 -52 -55 -88.667 -87 -110c-47.333 -31.333 -119 -47 -215 -47h-100v267h84c88.667 0 133 39 133 117v280h241v-203c0 -27.333 9.83301 -56.666 29.5 -87.999s42.167 -53 67.5 -65zM1052 269.998c139.333 0 209 58.333 209 175c0 41.333 -16 75.333 -48 102
c-30 24.667 -66.333 37 -109 37c-60 0 -124.333 -30 -193 -90c-50 -43.333 -117.333 -118 -202 -224h343zM663 947.998h-237v237h237v-237zM637 -448.002h-237v237h237v-237z" />
    <glyph glyph-name="uni06FB.medi" unicode="&#x6fb;" horiz-adv-x="1640" 
d="M1046 268c139.333 0 209 57.999 209 173.999c0 41.333 -16 75.333 -48 102c-30 24.667 -66.333 37 -109 37c-60 0 -124 -30 -192 -90c-49.333 -43.333 -116 -117.666 -200 -222.999h340zM1459 302.999c35.333 -23.333 86.667 -34.999 154 -34.999h27v-267h-29
c-109.333 0 -194.666 38.333 -255.999 115c-69.333 -76.667 -164.333 -115 -285 -115h-438c-148.667 0 -249.334 52 -302.001 156c-36 -55.333 -60.667 -88.333 -74 -99c-48 -38 -123 -57 -225 -57h-101v267h89c84.667 0 127 38.333 127 115v278h240v-202
c0 -70.667 30 -120.334 90 -149.001c231.333 345.333 451.333 518 660 518c96.667 0 179 -38.667 247 -116c65.333 -74.667 98 -161 98 -259c0 -37.333 -7.33301 -87.333 -22 -150zM709.001 876h-237v237h237v-237zM709.001 -446h-237v237h237v-237z" />
    <glyph glyph-name="uni06FB.fina" unicode="&#x6fb;" horiz-adv-x="2641" 
d="M2026 268c138.667 0 208 58 208 174c0 41.333 -15 74.833 -45 100.5s-66 38.5 -108 38.5c-60.667 0 -125.667 -30 -195 -90c-48.667 -42.667 -115.667 -117 -201 -223h341zM1481 46c0 -244 -94.665 -427.668 -283.998 -551.001c-119.333 -77.333 -254.333 -116 -405 -116
c-222 0 -387.667 74.333 -497 223c-85.333 116 -128 258.333 -128 427c0 26 6.66699 70.333 20 133c15.333 73.333 32.666 131 51.999 173l206 -73c-34.667 -84.667 -52 -163.667 -52 -237c0 -129.333 47 -224.333 141 -285c71.333 -46 162 -69 272 -69
c132.667 0 236 32 310 96c78 68 117 167 117 297c0 71.333 -20.667 160 -62 266c-34.667 88.667 -76.334 171.334 -125.001 248.001l215 131c104 -231.333 180.333 -356 229 -374c211.333 328.667 420 493 626 493c90 0 172.667 -38.667 248 -116
c71.333 -72.667 107 -147.667 107 -225c0 -90 -7.33301 -151.333 -22 -184c31.333 -23.333 87 -35 167 -35h25v-267h-30c-47.333 0 -95.666 11 -145 33c-54 24 -92 54.667 -114 92c-56 -83.333 -156.667 -125 -302 -125h-434c-71.333 0 -116.333 15 -135 45zM1747 967.999
h-237v237h237v-237zM1824 -440.001h-237v237h237v-237z" />
    <glyph glyph-name="uni06FC.init" unicode="&#x6fc;" horiz-adv-x="932" 
d="M931 1h-1001v267h188c-34.667 56 -52 129 -52 219c0 88.667 34 165 102 229c76 72 177.667 108 305 108c142 0 283.333 -45 424 -135c-22.667 -36 -55.334 -96 -98.001 -180c-36 23.333 -86.667 43 -152 59c-54.667 13.333 -99 20 -133 20
c-47.333 0 -89.333 -13.333 -126 -40c-40 -29.333 -60.667 -67 -62 -113c-1.33301 -44 17.334 -81.667 56.001 -113c44 -36 105.667 -54 185 -54h364v-267zM550 1028h-237v237h237v-237zM550 -446h-237v237h237v-237z" />
    <glyph glyph-name="uni06FC.medi" unicode="&#x6fc;" horiz-adv-x="838" 
d="M838 1l-53 -0.000976562c-64 0 -134.667 23 -212 69c-49.333 29.333 -86.333 56.333 -111 81c-93.333 -100 -199.666 -150 -318.999 -150h-213v267h116c100 0 175 10.667 225 32c-30.667 25.333 -75.5 64.833 -134.5 118.5s-88.5 104.167 -88.5 151.5
c0 60 54 108.667 162 146c83.333 28.667 161.666 43 234.999 43c72.667 0 135.667 -14 189 -42c66 -35.333 99 -86.333 99 -153c0 -38 -6.33301 -70 -19 -96c-14 -29.333 -49.333 -80.666 -106 -153.999c34 -30.667 85 -46 153 -46h77v-267zM490 922.999h-237v237h237v-237z
M533 -445.001h-237v237h237v-237z" />
    <glyph glyph-name="uni06FC.fina" unicode="&#x6fc;" horiz-adv-x="1210" 
d="M1227 -655c-162.667 -65.333 -318.001 -98.0029 -466.001 -98.0029c-160 0 -296 42 -408 126c-124 92.667 -186 216.334 -186 371.001c0 106 38 205.667 114 299c58 71.333 132.333 135 223 191l156 90l-122 119c-60 60 -90 111.667 -90 155
c0 44.667 30 86.334 90 125.001c72 46.667 167 70 285 70c70 0 137.667 -18.667 203 -56c71.333 -40.667 107 -88 107 -142c0 -81.333 -46.333 -171.666 -139 -270.999c26.667 -21.333 48 -35 64 -41c26 -10 66 -15 120 -15h32v-267h-31
c-115.333 0 -231.666 56.667 -348.999 170c-11.333 0 -50.333 -20 -117 -60c-206.667 -123.333 -310 -241 -310 -353c0 -93.333 46.333 -161 139 -203c68 -31.333 155 -47 261 -47c102 0 217.667 19.667 347 59zM861.999 985.997h-237v237h237v-237zM906.999 -345.003h-237
v237h237v-237z" />
    <glyph glyph-name="uniFB51" unicode="&#x671;" horiz-adv-x="647" arabic-form="final" 
d="M647 1h-178.001c-105.333 0 -184.666 46.667 -237.999 140c-42.667 75.333 -64 170 -64 284v810h236v-726c0 -78.667 8.66699 -135 26 -169c25.333 -48 73.333 -72 144 -72h74v-267zM564.999 1544c0 -80.667 -32.333 -132 -97 -154
c-31.333 -10.667 -98.666 -16 -201.999 -16c-105.333 0 -194.333 17.333 -267 52v66h132c29.333 56 64.666 103.667 105.999 143c52 48.667 104.333 73 157 73c114 0 171 -54.667 171 -164zM477.999 1537c0 37.333 -32.333 56 -97 56c-48 0 -98 -34.667 -150 -104h161
c57.333 0 86 16 86 48z" />
    <glyph glyph-name="uniFB53" unicode="&#x67b;" horiz-adv-x="2293" arabic-form="final" 
d="M1699 1h-1185c-231.333 0 -347 120.333 -347 361v150h236v-111c0 -51.333 13.667 -87 41 -107c23.333 -17.333 62 -26 116 -26h1104c54.667 0 82 18.333 82 55c0 18 -6.33301 39 -19 63l-108 206l201 135c8.66699 -14 39 -70.667 91 -170
c101.333 -192.667 223 -289 365 -289h17v-267h-21c-131.333 0 -241.333 62.333 -330 187c-22.667 -124.667 -103.667 -187 -243 -187zM1132 -418h-211v212h211v-212zM1132 -676h-211v212h211v-212z" />
    <glyph glyph-name="uniFB54" unicode="&#x67b;" horiz-adv-x="489" arabic-form="initial" 
d="M150 268c56.667 0 85 21.332 85 63.999c0 16.667 -5.33301 34.667 -16 54l-115 206l213 141c112.667 -187.333 169 -322.666 169 -405.999c0 -217.333 -94.667 -326 -284 -326h-272v267h220zM330 -398.001h-211v212h211v-212zM330 -656.001h-211v212h211v-212z" />
    <glyph glyph-name="uniFB55" unicode="&#x67b;" horiz-adv-x="622" arabic-form="medial" 
d="M622 1h-27.001c-50.667 0 -99.167 14.667 -145.5 44s-80.5 66.666 -102.5 111.999c-26.667 -57.333 -59.167 -97.666 -97.5 -120.999s-89.166 -35 -152.499 -35h-167v267h87c95.333 0 143 53.667 143 161v263h236v-135c0 -192.667 69.333 -289 208 -289h18v-267z
M356.999 -410h-211v212h211v-212zM356.999 -668h-211v212h211v-212z" />
    <glyph glyph-name="afii62958" unicode="&#x67e;" horiz-adv-x="2293" arabic-form="final" 
d="M1699 1h-1185c-231.333 0 -347 120.333 -347 361v150h236v-111c0 -51.333 13.667 -87 41 -107c23.333 -17.333 62 -26 116 -26h1104c54.667 0 82 18.333 82 55c0 18 -6.33301 39 -19 63l-108 206l201 135c8.66699 -14 39 -70.667 91 -170
c101.333 -192.667 223 -289 365 -289h17v-267h-21c-131.333 0 -241.333 62.333 -330 187c-22.667 -124.667 -103.667 -187 -243 -187zM1293 -426h-211v215h211v-215zM1030 -426h-209v215h209v-215zM1158 -677h-215v212h215v-212z" />
    <glyph glyph-name="afii62956" unicode="&#x67e;" horiz-adv-x="489" arabic-form="initial" 
d="M150 268c56.667 0 85 21.332 85 63.999c0 16.667 -5.33301 34.667 -16 54l-115 206l213 141c112.667 -187.333 169 -322.666 169 -405.999c0 -217.333 -94.667 -326 -284 -326h-272v267h220zM423 -415.001h-211v215h211v-215zM160 -415.001h-209v215h209v-215z
M288 -666.001h-215v212h215v-212z" />
    <glyph glyph-name="afii52957" unicode="&#x67e;" horiz-adv-x="622" arabic-form="medial" 
d="M622 1h-27.001c-50.667 0 -99.167 14.667 -145.5 44s-80.5 66.666 -102.5 111.999c-26.667 -57.333 -59.167 -97.666 -97.5 -120.999s-89.166 -35 -152.499 -35h-167v267h87c95.333 0 143 53.667 143 161v263h236v-135c0 -192.667 69.333 -289 208 -289h18v-267z
M494.999 -425h-211v215h211v-215zM231.999 -425h-209v215h209v-215zM359.999 -676h-215v212h215v-212z" />
    <glyph glyph-name="uniFB5B" unicode="&#x680;" horiz-adv-x="2293" arabic-form="final" 
d="M1699 1h-1185c-231.333 0 -347 120.333 -347 361v150h236v-111c0 -51.333 13.667 -87 41 -107c23.333 -17.333 62 -26 116 -26h1104c54.667 0 82 18.333 82 55c0 18 -6.33301 39 -19 63l-108 206l201 135c8.66699 -14 39 -70.667 91 -170
c101.333 -192.667 223 -289 365 -289h17v-267h-21c-131.333 0 -241.333 62.333 -330 187c-22.667 -124.667 -103.667 -187 -243 -187zM1269 -704h-211v215h211v-215zM1006 -704h-209v215h209v-215zM1134 -955h-215v212h215v-212zM1122 -422h-215v212h215v-212z" />
    <glyph glyph-name="uniFB5C" unicode="&#x680;" horiz-adv-x="489" arabic-form="initial" 
d="M150 268c56.667 0 85 21.332 85 63.999c0 16.667 -5.33301 34.667 -16 54l-115 206l213 141c112.667 -187.333 169 -322.666 169 -405.999c0 -217.333 -94.667 -326 -284 -326h-272v267h220zM475.338 -638.062h-197.877v201.404h197.877v-201.404zM228.695 -638.062
h-196.001v201.404h196.001v-201.404zM348.734 -873.19h-201.628v198.595h201.628v-198.595zM337.48 -373.894h-201.628v198.595h201.628v-198.595z" />
    <glyph glyph-name="uniFB5D" unicode="&#x680;" horiz-adv-x="622" arabic-form="medial" 
d="M622 1h-27.001c-50.667 0 -99.167 14.667 -145.5 44s-80.5 66.666 -102.5 111.999c-26.667 -57.333 -59.167 -97.666 -97.5 -120.999s-89.166 -35 -152.499 -35h-167v267h87c95.333 0 143 53.667 143 161v263h236v-135c0 -192.667 69.333 -289 208 -289h18v-267z
M509.062 -658.58h-199.899v203.504h199.899v-203.504zM259.898 -658.58h-198.004v203.504h198.004v-203.504zM381.164 -896.16h-203.688v200.665h203.688v-200.665zM369.795 -391.658h-203.688v200.665h203.688v-200.665z" />
    <glyph glyph-name="uniFB5F" unicode="&#x67a;" horiz-adv-x="2293" arabic-form="final" 
d="M1699 1h-1185c-231.333 0 -347 120.333 -347 361v150h236v-111c0 -51.333 13.667 -87 41 -107c23.333 -17.333 62 -26 116 -26h1104c54.667 0 82 18.333 82 55c0 18 -6.33301 39 -19 63l-108 206l201 135c8.66699 -14 39 -70.667 91 -170
c101.333 -192.667 223 -289 365 -289h17v-267h-21c-131.333 0 -241.333 62.333 -330 187c-22.667 -124.667 -103.667 -187 -243 -187zM1138 924h-211v212h211v-212zM1138 666h-211v212h211v-212z" />
    <glyph glyph-name="uniFB60" unicode="&#x67a;" horiz-adv-x="489" arabic-form="initial" 
d="M150 268c56.667 0 85 21.332 85 63.999c0 16.667 -5.33301 34.667 -16 54l-115 206l213 141c112.667 -187.333 169 -322.666 169 -405.999c0 -217.333 -94.667 -326 -284 -326h-272v267h220zM255 1113h-211v212h211v-212zM255 854.999h-211v212h211v-212z" />
    <glyph glyph-name="uniFB61" unicode="&#x67a;" horiz-adv-x="622" arabic-form="medial" 
d="M622 1h-27.001c-50.667 0 -99.167 14.667 -145.5 44s-80.5 66.666 -102.5 111.999c-26.667 -57.333 -59.167 -97.666 -97.5 -120.999s-89.166 -35 -152.499 -35h-167v267h87c95.333 0 143 53.667 143 161v263h236v-135c0 -192.667 69.333 -289 208 -289h18v-267z
M367.999 1155h-211v212h211v-212zM367.999 897h-211v212h211v-212z" />
    <glyph glyph-name="uniFB63" unicode="&#x67f;" horiz-adv-x="2293" arabic-form="final" 
d="M1699 1h-1185c-231.333 0 -347 120.333 -347 361v150h236v-111c0 -51.333 13.667 -87 41 -107c23.333 -17.333 62 -26 116 -26h1104c54.667 0 82 18.333 82 55c0 18 -6.33301 39 -19 63l-108 206l201 135c8.66699 -14 39 -70.667 91 -170
c101.333 -192.667 223 -289 365 -289h17v-267h-21c-131.333 0 -241.333 62.333 -330 187c-22.667 -124.667 -103.667 -187 -243 -187zM1260 911h-211v215h211v-215zM997 911h-209v215h209v-215zM1125 660h-215v212h215v-212zM1113 1193h-215v212h215v-212z" />
    <glyph glyph-name="uniFB64" unicode="&#x67f;" horiz-adv-x="489" arabic-form="initial" 
d="M150 268c56.667 0 85 21.332 85 63.999c0 16.667 -5.33301 34.667 -16 54l-115 206l213 141c112.667 -187.333 169 -322.666 169 -405.999c0 -217.333 -94.667 -326 -284 -326h-272v267h220zM438 1106h-211v215h211v-215zM175 1106h-209v215h209v-215zM303 854.999h-215
v212h215v-212zM291 1388h-215v212h215v-212z" />
    <glyph glyph-name="uniFB65" unicode="&#x67f;" horiz-adv-x="622" arabic-form="medial" 
d="M622 1h-27.001c-50.667 0 -99.167 14.667 -145.5 44s-80.5 66.666 -102.5 111.999c-26.667 -57.333 -59.167 -97.666 -97.5 -120.999s-89.166 -35 -152.499 -35h-167v267h87c95.333 0 143 53.667 143 161v263h236v-135c0 -192.667 69.333 -289 208 -289h18v-267z
M502.999 1123h-211v215h211v-215zM239.999 1123h-209v215h209v-215zM367.999 872h-215v212h215v-212zM355.999 1405h-215v212h215v-212z" />
    <glyph glyph-name="uniFB67" unicode="&#x679;" horiz-adv-x="2293" arabic-form="final" 
d="M1699 1h-1185c-231.333 0 -347 120.333 -347 361v150h236v-111c0 -51.333 13.667 -87 41 -107c23.333 -17.333 62 -26 116 -26h1104c54.667 0 82 18.333 82 55c0 18 -6.33301 39 -19 63l-108 206l201 135c8.66699 -14 39 -70.667 91 -170
c101.333 -192.667 223 -289 365 -289h17v-267h-21c-131.333 0 -241.333 62.333 -330 187c-22.667 -124.667 -103.667 -187 -243 -187zM866 834l0.000976562 281.001h79v-246c23.333 30 48 54.667 74 74c33.333 24.667 65.333 37 96 37c32.667 0 60.667 -14 84 -42
c22 -26 33 -55.667 33 -89c0 -50.667 -18 -89.334 -54 -116.001c-26 -20 -52.333 -30 -79 -30h-233c-36.667 0 -75.334 14.333 -116.001 43v47h91c16.667 0 25 13.667 25 41zM1159 850.001c0 14 -5.66797 25.333 -17.001 34c-10 8 -22 12 -36 12
c-34 0 -79 -34.333 -135 -103h125c18.667 0 33.834 5 45.501 15s17.5 24 17.5 42z" />
    <glyph glyph-name="uniFB68" unicode="&#x679;" horiz-adv-x="489" arabic-form="initial" 
d="M150 268c56.667 0 85 21.332 85 63.999c0 16.667 -5.33301 34.667 -16 54l-115 206l213 141c112.667 -187.333 169 -322.666 169 -405.999c0 -217.333 -94.667 -326 -284 -326h-272v267h220zM54 989.999l0.000976562 281.001h79v-246c23.333 30 48 54.667 74 74
c33.333 24.667 65.333 37 96 37c32.667 0 60.667 -14 84 -42c22 -26 33 -55.667 33 -89c0 -50.667 -18 -89.334 -54 -116.001c-26 -20 -52.333 -30 -79 -30h-233c-36.667 0 -75.334 14.333 -116.001 43v47h91c16.667 0 25 13.667 25 41zM347.001 1006
c0 14 -5.66797 25.333 -17.001 34c-10 8 -22 12 -36 12c-34 0 -79 -34.333 -135 -103h125c18.667 0 33.834 5 45.501 15s17.5 24 17.5 42z" />
    <glyph glyph-name="uniFB69" unicode="&#x679;" horiz-adv-x="622" arabic-form="medial" 
d="M622 1h-27.001c-50.667 0 -99.167 14.667 -145.5 44s-80.5 66.666 -102.5 111.999c-26.667 -57.333 -59.167 -97.666 -97.5 -120.999s-89.166 -35 -152.499 -35h-167v267h87c95.333 0 143 53.667 143 161v263h236v-135c0 -192.667 69.333 -289 208 -289h18v-267z
M117.999 990l0.000976562 281.001h79v-246c23.333 30 48 54.667 74 74c33.333 24.667 65.333 37 96 37c32.667 0 60.667 -14 84 -42c22 -26 33 -55.667 33 -89c0 -50.667 -18 -89.334 -54 -116.001c-26 -20 -52.333 -30 -79 -30h-233c-36.667 0 -75.334 14.333 -116.001 43
v47h91c16.667 0 25 13.667 25 41zM411 1006c0 14 -5.66797 25.333 -17.001 34c-10 8 -22 12 -36 12c-34 0 -79 -34.333 -135 -103h125c18.667 0 33.834 5 45.501 15s17.5 24 17.5 42z" />
    <glyph glyph-name="afii57371" unicode="&#x6a4;" horiz-adv-x="2150" arabic-form="final" 
d="M1835 498c0 28 -12.667 50.666 -38 67.999c-22 14.667 -47.667 22 -77 22c-76.667 0 -115 -30 -115 -90c0 -32 14.333 -63 43 -93c23.333 -24 47.333 -40.667 72 -50c22.667 7.33301 46 23.333 70 48c30 30.667 45 62.334 45 95.001zM504 0.999023
c-108.667 0 -192.999 37.332 -252.999 111.999c-56 68.667 -84 158.667 -84 270v129h236v-101c0 -95.333 55.333 -143 166 -143h942c-76 64 -114 143 -114 237c0 96 29.667 170.333 89 223c56.667 50.667 133.334 76 230.001 76c218 0 327 -99.667 327 -299
c0 -51.333 -15.667 -103 -47 -155c-26.667 -43.333 -51.334 -70.666 -74.001 -81.999h228v-267h-131c-47.333 0 -106 15.333 -176 46c-60.667 26.667 -101.667 50.667 -123 72c-100.667 -78.667 -206.334 -118 -317.001 -118h-899zM1931 976.998h-211v215h211v-215z
M1668 976.998h-209v215h209v-215zM1796 1230h-215v213h215v-213z" />
    <glyph glyph-name="afii57372" unicode="&#x6a4;" horiz-adv-x="822" arabic-form="initial" 
d="M580 591c-6.66699 38.667 -22 72.333 -46 101c-27.333 32 -59.333 48 -96 48c-64.667 0 -97 -25.333 -97 -76c0 -64.667 45 -97 135 -97c54 0 88.667 8 104 24zM-70 -0.000976562l0.000976562 267.001h504c26 0 51 5 75 15c50.667 20.667 76.667 57.667 78 111
c-34.667 -16 -84.334 -24 -149.001 -24c-84.667 0 -152.167 25.167 -202.5 75.5s-76.833 117.833 -79.5 202.5c-2 78 18.333 150 61 216c48 73.333 110 110 186 110c136.667 0 243.667 -66 321 -198c64 -110.667 96 -239.334 96 -386.001c0 -114 -27 -205.667 -81 -275
c-60 -76 -145.333 -114 -256 -114h-553zM638.001 1123h-211v215h211v-215zM375.001 1123h-209v215h209v-215zM503.001 1376h-215v213h215v-213z" />
    <glyph glyph-name="afii57369" unicode="&#x6a4;" horiz-adv-x="872" arabic-form="medial" 
d="M556 498c0 28 -12.667 50.667 -38 68c-22 14.667 -47.667 22 -77 22c-76.667 0 -115 -30 -115 -90c0 -32 14.667 -63 44 -93c23.333 -24 47 -40.667 71 -50c23.333 7.33301 47 23.333 71 48c29.333 30 44 61.667 44 95zM-70 1l-0.000976562 267h303
c-76.667 70.667 -115 149.667 -115 237c0 96 29.667 170.333 89 223c56.667 50.667 133.667 76 231 76c217.333 0 326 -99.667 326 -299c0 -52 -15.333 -103.667 -46 -155c-26 -44 -51 -71.333 -75 -82h229v-267h-132c-46.667 0 -105 15.333 -175 46
c-61.333 26.667 -102.666 50.667 -123.999 72c-32 -26 -74.667 -50.333 -128 -73c-69.333 -30 -132 -45 -188 -45h-195zM672.999 992h-211v215h211v-215zM409.999 992h-209v215h209v-215zM537.999 1245h-215v213h215v-213z" />
    <glyph glyph-name="uniFB6f" unicode="&#x6a6;" horiz-adv-x="2150" arabic-form="final" 
d="M1835 498c0 28 -12.667 50.666 -38 67.999c-22 14.667 -47.667 22 -77 22c-76.667 0 -115 -30 -115 -90c0 -32 14.333 -63 43 -93c23.333 -24 47.333 -40.667 72 -50c22.667 7.33301 46 23.333 70 48c30 30.667 45 62.334 45 95.001zM504 0.999023
c-108.667 0 -192.999 37.332 -252.999 111.999c-56 68.667 -84 158.667 -84 270v129h236v-101c0 -95.333 55.333 -143 166 -143h942c-76 64 -114 143 -114 237c0 96 29.667 170.333 89 223c56.667 50.667 133.334 76 230.001 76c218 0 327 -99.667 327 -299
c0 -51.333 -15.667 -103 -47 -155c-26.667 -43.333 -51.334 -70.666 -74.001 -81.999h228v-267h-131c-47.333 0 -106 15.333 -176 46c-60.667 26.667 -101.667 50.667 -123 72c-100.667 -78.667 -206.334 -118 -317.001 -118h-899zM1939 1231h-211v215h211v-215zM1676 1231
h-209v215h209v-215zM1804 979.998h-215v212h215v-212zM1792 1513h-215v212h215v-212z" />
    <glyph glyph-name="uniFB70" unicode="&#x6a6;" horiz-adv-x="822" arabic-form="initial" 
d="M580 591c-6.66699 38.667 -22 72.333 -46 101c-27.333 32 -59.333 48 -96 48c-64.667 0 -97 -25.333 -97 -76c0 -64.667 45 -97 135 -97c54 0 88.667 8 104 24zM-70 -0.000976562l0.000976562 267.001h504c26 0 51 5 75 15c50.667 20.667 76.667 57.667 78 111
c-34.667 -16 -84.334 -24 -149.001 -24c-84.667 0 -152.167 25.167 -202.5 75.5s-76.833 117.833 -79.5 202.5c-2 78 18.333 150 61 216c48 73.333 110 110 186 110c136.667 0 243.667 -66 321 -198c64 -110.667 96 -239.334 96 -386.001c0 -114 -27 -205.667 -81 -275
c-60 -76 -145.333 -114 -256 -114h-553zM635.001 1393h-211v215h211v-215zM372.001 1393h-209v215h209v-215zM500.001 1142h-215v212h215v-212zM488.001 1675h-215v212h215v-212z" />
    <glyph glyph-name="uniFB71" unicode="&#x6a6;" horiz-adv-x="872" arabic-form="medial" 
d="M556 498c0 28 -12.667 50.667 -38 68c-22 14.667 -47.667 22 -77 22c-76.667 0 -115 -30 -115 -90c0 -32 14.667 -63 44 -93c23.333 -24 47 -40.667 71 -50c23.333 7.33301 47 23.333 71 48c29.333 30 44 61.667 44 95zM-70 1l-0.000976562 267h303
c-76.667 70.667 -115 149.667 -115 237c0 96 29.667 170.333 89 223c56.667 50.667 133.667 76 231 76c217.333 0 326 -99.667 326 -299c0 -52 -15.333 -103.667 -46 -155c-26 -44 -51 -71.333 -75 -82h229v-267h-132c-46.667 0 -105 15.333 -175 46
c-61.333 26.667 -102.666 50.667 -123.999 72c-32 -26 -74.667 -50.333 -128 -73c-69.333 -30 -132 -45 -188 -45h-195zM642.999 1221h-211v215h211v-215zM379.999 1221h-209v215h209v-215zM507.999 970h-215v212h215v-212zM495.999 1503h-215v212h215v-212z" />
    <glyph glyph-name="uniFB73" unicode="&#x684;" horiz-adv-x="1466" arabic-form="final" 
d="M424 -131c0 -52.667 9.99902 -100.162 29.999 -142.495s47.833 -78.5 83.5 -108.5s78.334 -53 128.001 -69s104.5 -24 164.5 -24c102.667 0 191.667 13 267 39l72 28c28.667 11.333 63 23.666 103 36.999l114 -219c-187.333 -101.333 -370 -152 -548 -152
c-106.667 0 -201.5 13.167 -284.5 39.5s-153.167 64.833 -210.5 115.5s-101 113.167 -131 187.5s-45 159.166 -45 254.499c0 179.333 90 347.666 270 504.999c52 44.667 107.667 86.167 167 124.5s124.333 74.166 195 107.499c-28.667 1.33301 -56.834 2.33301 -84.501 3
s-55.5 1 -83.5 1c-46 0 -91.333 -1 -136 -3c-53.333 -2 -113.333 -22.333 -180 -61l-120 195c14 18 31.333 35 52 51s43 30 67 42s48.5 21.5 73.5 28.5s48.833 10.5 71.5 10.5l969 -35l-25 -254h-89c-23.333 0 -49 -2.66699 -77 -8s-55.833 -12.5 -83.5 -21.5
s-54 -19.333 -79 -31s-46.167 -23.5 -63.5 -35.5c42.667 -62.667 78 -105.334 106 -128.001c62 -52 137 -78 225 -78h124v-267h-167c-116.667 0 -208.667 29.667 -276 89c-51.333 45.333 -115.666 138.666 -192.999 279.999c-94.667 -58 -180 -127.667 -256 -209
c-100 -107.333 -150 -204.666 -150 -291.999zM883.999 -112.995h-211v212h211v-212zM883.999 -370.995h-211v212h211v-212z" />
    <glyph glyph-name="uniFB74" unicode="&#x684;" horiz-adv-x="986" arabic-form="initial" 
d="M986 185l-135 -184h-921v267h647l-247 244c-35.333 34.667 -76 52 -122 52h-160v243h206c74 0 135.333 -24.333 184 -73zM374 -423h-211v212h211v-212zM374 -681h-211v212h211v-212z" />
    <glyph glyph-name="uniFB75" unicode="&#x684;" horiz-adv-x="1286" arabic-form="medial" 
d="M851 431c22.667 -25.333 44.3311 -47 64.998 -65s40.334 -32.667 59.001 -44c60.667 -36 133 -54 217 -54h94v-267h-198c-95.333 0 -173 29 -233 87c-28.667 26.667 -79.667 98.334 -153 215.001l-145.5 -123c-40.333 -33.333 -74.5 -58.666 -102.5 -75.999
c-105.333 -68.667 -203.333 -103 -294 -103h-230v267h96c105.333 0 195.666 14.333 270.999 43c31.333 11.333 62.833 26.166 94.5 44.499s63.834 40.166 96.501 65.499l69 53.5l128 100.5c-140 4 -242.667 6 -308 6c-24.667 0 -45.667 -0.5 -63 -1.5
s-34.666 -3.5 -51.999 -7.5s-36.333 -10.167 -57 -18.5s-46.667 -19.833 -78 -34.5l-114 195c76 87.333 167.333 131 274 131l957 -34l-28 -255h-87c-54 0 -105.333 -13.333 -154 -40c-12.667 -7.33301 -29 -18 -49 -32zM651.997 -399h-211v212h211v-212zM651.997 -657h-211
v212h211v-212z" />
    <glyph glyph-name="uniFB77" unicode="&#x683;" horiz-adv-x="1466" arabic-form="final" 
d="M424 -131c0 -52.667 9.99902 -100.162 29.999 -142.495s47.833 -78.5 83.5 -108.5s78.334 -53 128.001 -69s104.5 -24 164.5 -24c102.667 0 191.667 13 267 39l72 28c28.667 11.333 63 23.666 103 36.999l114 -219c-187.333 -101.333 -370 -152 -548 -152
c-106.667 0 -201.5 13.167 -284.5 39.5s-153.167 64.833 -210.5 115.5s-101 113.167 -131 187.5s-45 159.166 -45 254.499c0 179.333 90 347.666 270 504.999c52 44.667 107.667 86.167 167 124.5s124.333 74.166 195 107.499c-28.667 1.33301 -56.834 2.33301 -84.501 3
s-55.5 1 -83.5 1c-46 0 -91.333 -1 -136 -3c-53.333 -2 -113.333 -22.333 -180 -61l-120 195c14 18 31.333 35 52 51s43 30 67 42s48.5 21.5 73.5 28.5s48.833 10.5 71.5 10.5l969 -35l-25 -254h-89c-23.333 0 -49 -2.66699 -77 -8s-55.833 -12.5 -83.5 -21.5
s-54 -19.333 -79 -31s-46.167 -23.5 -63.5 -35.5c42.667 -62.667 78 -105.334 106 -128.001c62 -52 137 -78 225 -78h124v-267h-167c-116.667 0 -208.667 29.667 -276 89c-51.333 45.333 -115.666 138.666 -192.999 279.999c-94.667 -58 -180 -127.667 -256 -209
c-100 -107.333 -150 -204.666 -150 -291.999zM1065 -268.995h-211v212h211v-212zM779.999 -268.995h-211v212h211v-212z" />
    <glyph glyph-name="uniFB78" unicode="&#x683;" horiz-adv-x="986" arabic-form="initial" 
d="M986 185l-135 -184h-921v267h647l-247 244c-35.333 34.667 -76 52 -122 52h-160v243h206c74 0 135.333 -24.333 184 -73zM566 -420h-211v212h211v-212zM281 -420h-211v212h211v-212z" />
    <glyph glyph-name="uniFB79" unicode="&#x683;" horiz-adv-x="1286" arabic-form="medial" 
d="M851 431c22.667 -25.333 44.3311 -47 64.998 -65s40.334 -32.667 59.001 -44c60.667 -36 133 -54 217 -54h94v-267h-198c-95.333 0 -173 29 -233 87c-28.667 26.667 -79.667 98.334 -153 215.001l-145.5 -123c-40.333 -33.333 -74.5 -58.666 -102.5 -75.999
c-105.333 -68.667 -203.333 -103 -294 -103h-230v267h96c105.333 0 195.666 14.333 270.999 43c31.333 11.333 62.833 26.166 94.5 44.499s63.834 40.166 96.501 65.499l69 53.5l128 100.5c-140 4 -242.667 6 -308 6c-24.667 0 -45.667 -0.5 -63 -1.5
s-34.666 -3.5 -51.999 -7.5s-36.333 -10.167 -57 -18.5s-46.667 -19.833 -78 -34.5l-114 195c76 87.333 167.333 131 274 131l957 -34l-28 -255h-87c-54 0 -105.333 -13.333 -154 -40c-12.667 -7.33301 -29 -18 -49 -32zM830.997 -422h-211v212h211v-212zM545.997 -422h-211
v212h211v-212z" />
    <glyph glyph-name="afii62961" unicode="&#x686;" horiz-adv-x="1466" arabic-form="final" 
d="M424 -131c0 -52.667 9.99902 -100.162 29.999 -142.495s47.833 -78.5 83.5 -108.5s78.334 -53 128.001 -69s104.5 -24 164.5 -24c102.667 0 191.667 13 267 39l72 28c28.667 11.333 63 23.666 103 36.999l114 -219c-187.333 -101.333 -370 -152 -548 -152
c-106.667 0 -201.5 13.167 -284.5 39.5s-153.167 64.833 -210.5 115.5s-101 113.167 -131 187.5s-45 159.166 -45 254.499c0 179.333 90 347.666 270 504.999c52 44.667 107.667 86.167 167 124.5s124.333 74.166 195 107.499c-28.667 1.33301 -56.834 2.33301 -84.501 3
s-55.5 1 -83.5 1c-46 0 -91.333 -1 -136 -3c-53.333 -2 -113.333 -22.333 -180 -61l-120 195c14 18 31.333 35 52 51s43 30 67 42s48.5 21.5 73.5 28.5s48.833 10.5 71.5 10.5l969 -35l-25 -254h-89c-23.333 0 -49 -2.66699 -77 -8s-55.833 -12.5 -83.5 -21.5
s-54 -19.333 -79 -31s-46.167 -23.5 -63.5 -35.5c42.667 -62.667 78 -105.334 106 -128.001c62 -52 137 -78 225 -78h124v-267h-167c-116.667 0 -208.667 29.667 -276 89c-51.333 45.333 -115.666 138.666 -192.999 279.999c-94.667 -58 -180 -127.667 -256 -209
c-100 -107.333 -150 -204.666 -150 -291.999zM991.092 -153.921h-193.563v197.01h193.563v-197.01zM749.826 -153.921h-191.728v197.01h191.728v-197.01zM867.248 -383.917h-197.232v194.26h197.232v-194.26z" />
    <glyph glyph-name="afii62959" unicode="&#x686;" horiz-adv-x="986" arabic-form="initial" 
d="M986 185l-135 -184h-921v267h647l-247 244c-35.333 34.667 -76 52 -122 52h-160v243h206c74 0 135.333 -24.333 184 -73zM521 -425h-211v215h211v-215zM258 -425h-209v215h209v-215zM386 -676h-215v212h215v-212z" />
    <glyph glyph-name="afii62960" unicode="&#x686;" horiz-adv-x="1286" arabic-form="medial" 
d="M851 431c22.667 -25.333 44.3311 -47 64.998 -65s40.334 -32.667 59.001 -44c60.667 -36 133 -54 217 -54h94v-267h-198c-95.333 0 -173 29 -233 87c-28.667 26.667 -79.667 98.334 -153 215.001l-145.5 -123c-40.333 -33.333 -74.5 -58.666 -102.5 -75.999
c-105.333 -68.667 -203.333 -103 -294 -103h-230v267h96c105.333 0 195.666 14.333 270.999 43c31.333 11.333 62.833 26.166 94.5 44.499s63.834 40.166 96.501 65.499l69 53.5l128 100.5c-140 4 -242.667 6 -308 6c-24.667 0 -45.667 -0.5 -63 -1.5
s-34.666 -3.5 -51.999 -7.5s-36.333 -10.167 -57 -18.5s-46.667 -19.833 -78 -34.5l-114 195c76 87.333 167.333 131 274 131l957 -34l-28 -255h-87c-54 0 -105.333 -13.333 -154 -40c-12.667 -7.33301 -29 -18 -49 -32zM799.997 -419h-211v215h211v-215zM536.997 -419h-209
v215h209v-215zM664.997 -670h-215v212h215v-212z" />
    <glyph glyph-name="uniFB7F" unicode="&#x687;" horiz-adv-x="1466" arabic-form="final" 
d="M424 -131c0 -52.667 9.99902 -100.162 29.999 -142.495s47.833 -78.5 83.5 -108.5s78.334 -53 128.001 -69s104.5 -24 164.5 -24c102.667 0 191.667 13 267 39l72 28c28.667 11.333 63 23.666 103 36.999l114 -219c-187.333 -101.333 -370 -152 -548 -152
c-106.667 0 -201.5 13.167 -284.5 39.5s-153.167 64.833 -210.5 115.5s-101 113.167 -131 187.5s-45 159.166 -45 254.499c0 179.333 90 347.666 270 504.999c52 44.667 107.667 86.167 167 124.5s124.333 74.166 195 107.499c-28.667 1.33301 -56.834 2.33301 -84.501 3
s-55.5 1 -83.5 1c-46 0 -91.333 -1 -136 -3c-53.333 -2 -113.333 -22.333 -180 -61l-120 195c14 18 31.333 35 52 51s43 30 67 42s48.5 21.5 73.5 28.5s48.833 10.5 71.5 10.5l969 -35l-25 -254h-89c-23.333 0 -49 -2.66699 -77 -8s-55.833 -12.5 -83.5 -21.5
s-54 -19.333 -79 -31s-46.167 -23.5 -63.5 -35.5c42.667 -62.667 78 -105.334 106 -128.001c62 -52 137 -78 225 -78h124v-267h-167c-116.667 0 -208.667 29.667 -276 89c-51.333 45.333 -115.666 138.666 -192.999 279.999c-94.667 -58 -180 -127.667 -256 -209
c-100 -107.333 -150 -204.666 -150 -291.999zM957.49 -199.812h-155.571v158.441h155.571v-158.441zM763.579 -199.812h-154.097v158.441h154.097v-158.441zM857.954 -384.784h-158.521v156.23h158.521v-156.23zM849.106 8.00391h-158.521v156.231h158.521v-156.231z" />
    <glyph glyph-name="uniFB80" unicode="&#x687;" horiz-adv-x="986" arabic-form="initial" 
d="M986 185l-135 -184h-921v267h647l-247 244c-35.333 34.667 -76 52 -122 52h-160v243h206c74 0 135.333 -24.333 184 -73zM697 -685h-211v215h211v-215zM434 -685h-209v215h209v-215zM562 -936h-215v212h215v-212zM550 -403h-215v212h215v-212z" />
    <glyph glyph-name="uniFB81" unicode="&#x687;" horiz-adv-x="1286" arabic-form="medial" 
d="M851 431c22.667 -25.333 44.3311 -47 64.998 -65s40.334 -32.667 59.001 -44c60.667 -36 133 -54 217 -54h94v-267h-198c-95.333 0 -173 29 -233 87c-28.667 26.667 -79.667 98.334 -153 215.001l-145.5 -123c-40.333 -33.333 -74.5 -58.666 -102.5 -75.999
c-105.333 -68.667 -203.333 -103 -294 -103h-230v267h96c105.333 0 195.666 14.333 270.999 43c31.333 11.333 62.833 26.166 94.5 44.499s63.834 40.166 96.501 65.499l69 53.5l128 100.5c-140 4 -242.667 6 -308 6c-24.667 0 -45.667 -0.5 -63 -1.5
s-34.666 -3.5 -51.999 -7.5s-36.333 -10.167 -57 -18.5s-46.667 -19.833 -78 -34.5l-114 195c76 87.333 167.333 131 274 131l957 -34l-28 -255h-87c-54 0 -105.333 -13.333 -154 -40c-12.667 -7.33301 -29 -18 -49 -32zM875.997 -651h-211v215h211v-215zM612.997 -651h-209
v215h209v-215zM740.997 -902h-215v212h215v-212zM728.997 -369h-215v212h215v-212z" />
    <glyph glyph-name="uniFB83" unicode="&#x68d;" horiz-adv-x="1524" arabic-form="final" 
d="M855 1h-316.001c-125.333 0 -250.666 73 -375.999 219l163 163c69.333 -76.667 131 -115 185 -115h316c94 0 141 19.333 141 58c0 16 -6.33301 36.333 -19 61l-268 521l209 135l281 -556c38.667 -76.667 81.667 -131.667 129 -165c52.667 -36 120 -54 202 -54h22v-267
h-30c-121.333 0 -227.666 52 -318.999 156c-47.333 -60 -83.333 -97.667 -108 -113c-46.667 -28.667 -117.334 -43 -212.001 -43zM779.999 -417h-211v212h211v-212zM494.999 -417h-211v212h211v-212z" />
    <glyph glyph-name="uniFB85" unicode="&#x68c;" horiz-adv-x="1524" arabic-form="final" 
d="M855 1h-316.001c-125.333 0 -250.666 73 -375.999 219l163 163c69.333 -76.667 131 -115 185 -115h316c94 0 141 19.333 141 58c0 16 -6.33301 36.333 -19 61l-268 521l209 135l281 -556c38.667 -76.667 81.667 -131.667 129 -165c52.667 -36 120 -54 202 -54h22v-267
h-30c-121.333 0 -227.666 52 -318.999 156c-47.333 -60 -83.333 -97.667 -108 -113c-46.667 -28.667 -117.334 -43 -212.001 -43zM1033 1207h-211v212h211v-212zM747.999 1207h-211v212h211v-212z" />
    <glyph glyph-name="uniFB87" unicode="&#x68e;" horiz-adv-x="1524" arabic-form="final" 
d="M855 1h-316.001c-125.333 0 -250.666 73 -375.999 219l163 163c69.333 -76.667 131 -115 185 -115h316c94 0 141 19.333 141 58c0 16 -6.33301 36.333 -19 61l-268 521l209 135l281 -556c38.667 -76.667 81.667 -131.667 129 -165c52.667 -36 120 -54 202 -54h22v-267
h-30c-121.333 0 -227.666 52 -318.999 156c-47.333 -60 -83.333 -97.667 -108 -113c-46.667 -28.667 -117.334 -43 -212.001 -43zM967.999 1209h-211v215h211v-215zM704.999 1209h-209v215h209v-215zM832.999 1462h-215v213h215v-213z" />
    <glyph glyph-name="uniFB89" unicode="&#x688;" horiz-adv-x="1524" arabic-form="final" 
d="M855 1h-316.001c-125.333 0 -250.666 73 -375.999 219l163 163c69.333 -76.667 131 -115 185 -115h316c94 0 141 19.333 141 58c0 16 -6.33301 36.333 -19 61l-268 521l209 135l281 -556c38.667 -76.667 81.667 -131.667 129 -165c52.667 -36 120 -54 202 -54h22v-267
h-30c-121.333 0 -227.666 52 -318.999 156c-47.333 -60 -83.333 -97.667 -108 -113c-46.667 -28.667 -117.334 -43 -212.001 -43zM617.999 1337l0.000976562 281.001h79v-246c23.333 30 48 54.667 74 74c33.333 24.667 65.333 37 96 37c32.667 0 60.667 -14 84 -42
c22 -26 33 -55.667 33 -89c0 -50.667 -18 -89.334 -54 -116.001c-26 -20 -52.333 -30 -79 -30h-233c-36.667 0 -75.334 14.333 -116.001 43v47h91c16.667 0 25 13.667 25 41zM911 1353c0 14 -5.66797 25.333 -17.001 34c-10 8 -22 12 -36 12c-34 0 -79 -34.333 -135 -103
h125c18.667 0 33.834 5 45.501 15s17.5 24 17.5 42z" />
    <glyph glyph-name="afii62962" unicode="&#x698;" horiz-adv-x="1219" arabic-form="final" 
d="M925 129c-5.33301 -22 -26.332 -64.668 -62.999 -128.001c-74 -126.667 -305.667 -300.334 -695 -521.001l-119 215c94.667 51.333 182.667 103 264 155c187.333 120 305.666 221 354.999 303c17.333 28.667 26 63 26 103c0 32.667 -6.33301 62.334 -19 89.001
c-18.667 50.667 -60.334 136.334 -125.001 257.001l215 129l135 -265c31.333 -62 58.333 -104 81 -126c48.667 -48 118.334 -72 209.001 -72h30v-267h-29c-110.667 0 -199 42.667 -265 128zM864.001 864.999h-211v215h211v-215zM601.001 864.999h-209v215h209v-215z
M729.001 1118h-215v213h215v-213z" />
    <glyph glyph-name="uniFB8D" unicode="&#x691;" horiz-adv-x="1219" arabic-form="final" 
d="M925 129c-5.33301 -22 -26.332 -64.668 -62.999 -128.001c-74 -126.667 -305.667 -300.334 -695 -521.001l-119 215c94.667 51.333 182.667 103 264 155c187.333 120 305.666 221 354.999 303c17.333 28.667 26 63 26 103c0 32.667 -6.33301 62.334 -19 89.001
c-18.667 50.667 -60.334 136.334 -125.001 257.001l215 129l135 -265c31.333 -62 58.333 -104 81 -126c48.667 -48 118.334 -72 209.001 -72h30v-267h-29c-110.667 0 -199 42.667 -265 128zM487.001 1008l0.000976562 281.001h79v-246c23.333 30 48 54.667 74 74
c33.333 24.667 65.333 37 96 37c32.667 0 60.667 -14 84 -42c22 -26 33 -55.667 33 -89c0 -50.667 -18 -89.334 -54 -116.001c-26 -20 -52.333 -30 -79 -30h-233c-36.667 0 -75.334 14.333 -116.001 43v47h91c16.667 0 25 13.667 25 41zM780.002 1024
c0 14 -5.66797 25.333 -17.001 34c-10 8 -22 12 -36 12c-34 0 -79 -34.333 -135 -103h125c18.667 0 33.834 5 45.501 15s17.5 24 17.5 42z" />
    <glyph glyph-name="afii62964" unicode="&#x6a9;" horiz-adv-x="2228" arabic-form="final" 
d="M1855 175c-60.667 -116 -175.333 -174.001 -344 -174.001h-1011c-222 0 -333 127.333 -333 382v129h236v-111c0 -88.667 51 -133 153 -133h955c26.667 0 51.667 4.66699 75 14c31.333 12.667 47 30.334 47 53.001c0 30.667 -7 59.667 -21 87l-182 357
c-22 43.333 -33 85.333 -33 126c0 89.333 45.333 148.333 136 177l611 194l93 -205l-535 -153c-34.667 -10 -52 -25.333 -52 -46c0 -12 4.66699 -26.667 14 -44l177 -334c80 -150.667 206.333 -226 379 -226h8v-267h-30c-66 0 -130.333 15.333 -193 46
c-65.333 32 -115.333 74.667 -150 128z" />
    <glyph glyph-name="afii52305" unicode="&#x6a9;" horiz-adv-x="898" arabic-form="initial" 
d="M-70 0v267h265c82.667 0 124 22 124 66c0 20.667 -9.33301 50 -28 88l-176 357c-25.333 51.333 -38 97.666 -38 138.999c0 82 46 136.667 138 164l654 194l93 -202l-576 -148c-35.333 -9.33301 -53 -24.666 -53 -45.999c0 -12 4.66699 -27 14 -45l178 -341
c29.333 -56 44 -114 44 -174c0 -101.333 -38 -181 -114 -239c-69.333 -53.333 -156 -80 -260 -80h-265z" />
    <glyph glyph-name="afii52306" unicode="&#x6a9;" horiz-adv-x="903" arabic-form="medial" 
d="M-70 1v267h257c79.333 0 119 26 119 78c0 22.667 -7 48 -21 76l-177 357c-26 52.667 -39 98.667 -39 138c0 80.667 46.333 135.667 139 165l612 194l94 -202l-536 -152c-34 -9.33301 -51 -25 -51 -47c0 -11.333 4.66699 -26 14 -44l173 -337
c30.667 -60 75 -110.333 133 -151c71.333 -50 152 -75 242 -75h14v-267h-31c-156 0 -270.667 58 -344 174c-58 -116 -171.667 -174 -341 -174h-257z" />
    <glyph glyph-name="afii62967" unicode="&#x6af;" horiz-adv-x="2228" arabic-form="final" 
d="M1855 175c-60.667 -116 -175.333 -174 -344 -174h-1011c-222 0 -333 127.333 -333 382v129h236v-111c0 -88.667 51 -133 153 -133h955c26.667 0 51.667 4.66699 75 14c31.333 12.667 47 30.334 47 53.001c0 30.667 -7 59.667 -21 87l-182 357
c-24.667 48.667 -37 93 -37 133c0 80 46.667 133.333 140 160l613 175l91 -181l-535 -141c-35.333 -9.33301 -53 -26.333 -53 -51c0 -12 5 -27.333 15 -46l177 -334c80 -150.667 206.333 -226 379 -226h8v-267h-7c-82.667 0 -161.667 19.667 -237 59
c-67.333 35.333 -110.333 73.666 -129 114.999zM1398 1241l670 187l55 -125l-663 -187z" />
    <glyph glyph-name="afii62965" unicode="&#x6af;" horiz-adv-x="907" arabic-form="initial" 
d="M-70 1v266.999h269c84 0 126 23.333 126 70c0 21.333 -8.66699 49.333 -26 84l-180 357c-26 51.333 -39 97 -39 137c0 77.333 46.667 129.333 140 156l652 185l95 -183l-577 -148c-35.333 -9.33301 -53 -24.666 -53 -45.999c0 -12.667 4.66699 -27.667 14 -45l182 -341
c27.333 -51.333 41 -109.333 41 -174c0 -101.333 -38 -181.333 -114 -240c-69.333 -52.667 -156.333 -79 -261 -79h-269zM114 1251l671 187l55 -125l-663 -188z" />
    <glyph glyph-name="afii62966" unicode="&#x6af;" horiz-adv-x="915" arabic-form="medial" 
d="M189 268c26.667 0 51.668 4.66602 75.001 13.999c31.333 12.667 47 30.334 47 53.001c0 30.667 -7 59.667 -21 87l-182 357c-24.667 48.667 -37 93 -37 133c0 80 46.333 133.333 139 160l614 175l91 -181l-535 -141c-35.333 -9.33301 -53 -26.333 -53 -51
c0 -12 5 -27.333 15 -46l177 -334c80 -150.667 203 -226 369 -226h27v-267h-28c-70 0 -137.333 14 -202 42c-75.333 32 -126 76 -152 132c-60.667 -116 -175.334 -174 -344.001 -174h-259v267h259zM75.001 1241l671 187l55 -125l-663 -187z" />
    <glyph glyph-name="uniFB97" unicode="&#x6b3;" horiz-adv-x="2228" arabic-form="final" 
d="M1855 175c-60.667 -116 -175.333 -174 -344 -174h-1011c-222 0 -333 127.333 -333 382v129h236v-111c0 -88.667 51 -133 153 -133h955c26.667 0 51.667 4.66699 75 14c31.333 12.667 47 30.334 47 53.001c0 30.667 -7 59.667 -21 87l-182 357
c-24.667 48.667 -37 93 -37 133c0 80 46.667 133.333 140 160l613 175l91 -181l-535 -141c-35.333 -9.33301 -53 -26.333 -53 -51c0 -12 5 -27.333 15 -46l177 -334c80 -150.667 206.333 -226 379 -226h8v-267h-7c-82.667 0 -161.667 19.667 -237 59
c-67.333 35.333 -110.333 73.666 -129 114.999zM1398 1241l670 187l55 -125l-663 -187zM1066 -417h-211v212h211v-212zM1066 -675h-211v212h211v-212z" />
    <glyph glyph-name="uniFB98" unicode="&#x6b3;" horiz-adv-x="907" arabic-form="initial" 
d="M-70 1v266.999h269c84 0 126 23.333 126 70c0 21.333 -8.66699 49.333 -26 84l-180 357c-26 51.333 -39 97 -39 137c0 77.333 46.667 129.333 140 156l652 185l95 -183l-577 -148c-35.333 -9.33301 -53 -24.666 -53 -45.999c0 -12.667 4.66699 -27.667 14 -45l182 -341
c27.333 -51.333 41 -109.333 41 -174c0 -101.333 -38 -181.333 -114 -240c-69.333 -52.667 -156.333 -79 -261 -79h-269zM114 1251l671 187l55 -125l-663 -188zM311 -425.001h-211v212h211v-212zM311 -683.001h-211v212h211v-212z" />
    <glyph glyph-name="uniFB99" unicode="&#x6b3;" horiz-adv-x="915" arabic-form="medial" 
d="M189 268c26.667 0 51.668 4.66602 75.001 13.999c31.333 12.667 47 30.334 47 53.001c0 30.667 -7 59.667 -21 87l-182 357c-24.667 48.667 -37 93 -37 133c0 80 46.333 133.333 139 160l614 175l91 -181l-535 -141c-35.333 -9.33301 -53 -26.333 -53 -51
c0 -12 5 -27.333 15 -46l177 -334c80 -150.667 203 -226 369 -226h27v-267h-28c-70 0 -137.333 14 -202 42c-75.333 32 -126 76 -152 132c-60.667 -116 -175.334 -174 -344.001 -174h-259v267h259zM75.001 1241l671 187l55 -125l-663 -187zM408.001 -426.001h-211v212h211
v-212zM408.001 -684.001h-211v212h211v-212z" />
    <glyph glyph-name="uniFB9B" unicode="&#x6b1;" horiz-adv-x="2228" arabic-form="final" 
d="M1855 175c-60.667 -116 -175.333 -174 -344 -174h-1011c-222 0 -333 127.333 -333 382v129h236v-111c0 -88.667 51 -133 153 -133h955c26.667 0 51.667 4.66699 75 14c31.333 12.667 47 30.334 47 53.001c0 30.667 -7 59.667 -21 87l-182 357
c-24.667 48.667 -37 93 -37 133c0 80 46.667 133.333 140 160l613 175l91 -181l-535 -141c-35.333 -9.33301 -53 -26.333 -53 -51c0 -12 5 -27.333 15 -46l177 -334c80 -150.667 206.333 -226 379 -226h8v-267h-7c-82.667 0 -161.667 19.667 -237 59
c-67.333 35.333 -110.333 73.666 -129 114.999zM1398 1241l670 187l55 -125l-663 -187zM1896 1443h-211v212h211v-212zM1611 1443h-211v212h211v-212z" />
    <glyph glyph-name="uniFB9C" unicode="&#x6b1;" horiz-adv-x="907" arabic-form="initial" 
d="M-70 1v266.999h269c84 0 126 23.333 126 70c0 21.333 -8.66699 49.333 -26 84l-180 357c-26 51.333 -39 97 -39 137c0 77.333 46.667 129.333 140 156l652 185l95 -183l-577 -148c-35.333 -9.33301 -53 -24.666 -53 -45.999c0 -12.667 4.66699 -27.667 14 -45l182 -341
c27.333 -51.333 41 -109.333 41 -174c0 -101.333 -38 -181.333 -114 -240c-69.333 -52.667 -156.333 -79 -261 -79h-269zM114 1251l671 187l55 -125l-663 -188zM642 1465h-211v212h211v-212zM357 1465h-211v212h211v-212z" />
    <glyph glyph-name="uniFB9D" unicode="&#x6b1;" horiz-adv-x="915" arabic-form="medial" 
d="M189 268c26.667 0 51.668 4.66602 75.001 13.999c31.333 12.667 47 30.334 47 53.001c0 30.667 -7 59.667 -21 87l-182 357c-24.667 48.667 -37 93 -37 133c0 80 46.333 133.333 139 160l614 175l91 -181l-535 -141c-35.333 -9.33301 -53 -26.333 -53 -51
c0 -12 5 -27.333 15 -46l177 -334c80 -150.667 203 -226 369 -226h27v-267h-28c-70 0 -137.333 14 -202 42c-75.333 32 -126 76 -152 132c-60.667 -116 -175.334 -174 -344.001 -174h-259v267h259zM75.001 1241l671 187l55 -125l-663 -187zM613.001 1474h-211v212h211v-212z
M328.001 1474h-211v212h211v-212z" />
    <glyph glyph-name="uniFB9F" unicode="&#x6ba;" horiz-adv-x="1650" arabic-form="final" 
d="M1622 1c-66.667 0 -117.331 16 -151.998 48c0 -126.667 -18.667 -233 -56 -319c-104 -240.667 -309 -361 -615 -361c-220 0 -386 72 -498 216c-89.333 114.667 -134 254.667 -134 420c0 26 6.66699 70 20 132c15.333 72.667 32.666 130.334 51.999 173.001l206 -73
c-34.667 -84.667 -52 -163.334 -52 -236.001c0 -129.333 47 -224.333 141 -285c71.333 -46 162 -69 272 -69c282.667 0 424 129.667 424 389c0 118.667 -64.667 290 -194 514l219 132l93 -198c44 -94 89.667 -156 137 -186c31.333 -20 76.666 -30 135.999 -30h29v-267h-28z
" />
    <glyph glyph-name="uniFBA1" unicode="&#x6bb;" horiz-adv-x="1650" arabic-form="final" 
d="M1622 1c-66.667 0 -117.331 16 -151.998 48c0 -126.667 -18.667 -233 -56 -319c-104 -240.667 -309 -361 -615 -361c-220 0 -386 72 -498 216c-89.333 114.667 -134 254.667 -134 420c0 26 6.66699 70 20 132c15.333 72.667 32.666 130.334 51.999 173.001l206 -73
c-34.667 -84.667 -52 -163.334 -52 -236.001c0 -129.333 47 -224.333 141 -285c71.333 -46 162 -69 272 -69c282.667 0 424 129.667 424 389c0 118.667 -64.667 290 -194 514l219 132l93 -198c44 -94 89.667 -156 137 -186c31.333 -20 76.666 -30 135.999 -30h29v-267h-28z
M594.003 761l0.000976562 281.001h79v-246c23.333 30 48 54.667 74 74c33.333 24.667 65.333 37 96 37c32.667 0 60.667 -14 84 -42c22 -26 33 -55.667 33 -89c0 -50.667 -18 -89.334 -54 -116.001c-26 -20 -52.333 -30 -79 -30h-233c-36.667 0 -75.334 14.333 -116.001 43
v47h91c16.667 0 25 13.667 25 41zM887.004 777.001c0 14 -5.66797 25.333 -17.001 34c-10 8 -22 12 -36 12c-34 0 -79 -34.333 -135 -103h125c18.667 0 33.834 5 45.501 15s17.5 24 17.5 42z" />
    <glyph glyph-name="uniFBA4" unicode="&#x6c0;" horiz-adv-x="1027" arabic-form="isolated" 
d="M1025 313c0 -111.333 -47.666 -194.332 -142.999 -248.999c-74.667 -42.667 -168.334 -64 -281.001 -64c-136.667 0 -243.167 36.833 -319.5 110.5s-114.5 178.167 -114.5 313.5c0 93.333 27.667 176.666 83 249.999c60 80.667 135.333 121 226 121
c104.667 0 220 -50 346 -150c135.333 -107.333 203 -218 203 -332zM761.001 334.001c0 49.333 -36 98.333 -108 147c-63.333 42.667 -115.333 64 -156 64c-27.333 0 -51 -15 -71 -45c-17.333 -26 -26 -53.667 -26 -83c0 -51.333 20.667 -92 62 -122
c36.667 -27.333 81.667 -41 135 -41c109.333 0 164 26.667 164 80zM705.001 1060l-514 -126.002l-31 111l180 46c-38.667 45.333 -58 90.333 -58 135c0 50.667 22.667 91.334 68 122.001c39.333 27.333 85.666 41 138.999 41c38 0 71.667 -8 101 -24v-97
c-29.333 7.33301 -58.666 11 -87.999 11c-77.333 0 -116 -22.333 -116 -67c0 -23.333 10 -42.666 30 -57.999c18 -14.667 39 -22 63 -22c20 0 85 15.333 195 46z" />
    <glyph glyph-name="uniFBA5" unicode="&#x6c0;" horiz-adv-x="1258" arabic-form="final" 
d="M1258 1l-29.999 -0.000976562c-144 0 -267.333 57.667 -370 173c-71.333 -23.333 -164 -35 -278 -35c-160.667 0 -276 44 -346 132c-44.667 56.667 -67 122.667 -67 198c0 60.667 30 120.334 90 179.001c46 44.667 105 86 177 124l122 62l-52 128l202 122l219 -576
c31.333 -82 65.333 -139.667 102 -173c49.333 -44.667 118.666 -67 207.999 -67h23v-267zM733.001 381.999c-37.333 95.333 -71.998 177.667 -103.998 247c-120.667 -60 -198.334 -108.667 -233.001 -146c-2 -5.33301 -3 -20.333 -3 -45c11.333 -42 77.333 -63 198 -63
c37.333 0 84.666 2.33301 141.999 7zM695.003 1286l-514 -126.002l-31 111l180 46c-38.667 45.333 -58 90.333 -58 135c0 50.667 22.667 91.334 68 122.001c39.333 27.333 85.666 41 138.999 41c38 0 71.667 -8 101 -24v-97c-29.333 7.33301 -58.666 11 -87.999 11
c-77.333 0 -116 -22.333 -116 -67c0 -23.333 10 -42.666 30 -57.999c18 -14.667 39 -22 63 -22c20 0 85 15.333 195 46z" />
    <glyph glyph-name="uniFBA6" unicode="&#x6c1;" horiz-adv-x="1027" arabic-form="isolated" 
d="M1025 313c0 -111.333 -47.666 -194.332 -142.999 -248.999c-74.667 -42.667 -168.334 -64 -281.001 -64c-136.667 0 -243.167 36.833 -319.5 110.5s-114.5 178.167 -114.5 313.5c0 93.333 27.667 176.666 83 249.999c60 80.667 135.333 121 226 121
c104.667 0 220 -50 346 -150c135.333 -107.333 203 -218 203 -332zM761.001 334.001c0 49.333 -36 98.333 -108 147c-63.333 42.667 -115.333 64 -156 64c-27.333 0 -51 -15 -71 -45c-17.333 -26 -26 -53.667 -26 -83c0 -51.333 20.667 -92 62 -122
c36.667 -27.333 81.667 -41 135 -41c109.333 0 164 26.667 164 80z" />
    <glyph glyph-name="uniFBA8" unicode="&#x6c1;" horiz-adv-x="489" arabic-form="initial" 
d="M389 -118c-86.667 -15.333 -130 -84.333 -130 -207h123v-208h-216v118c0 211.333 74.333 323.333 223 336v-39zM150 268c56.667 0 85 21.332 85 63.999c0 16.667 -5.33301 34.667 -16 54l-115 206l213 141c112.667 -187.333 169 -322.666 169 -405.999
c0 -217.333 -94.667 -326 -284 -326h-272v267h220z" />
    <glyph glyph-name="uniFBA9" unicode="&#x6c1;" horiz-adv-x="825" arabic-form="medial" 
d="M-63 0v268.004h100c76 0 142 12.167 198 36.5s102 74.166 138 149.499s58 137 66 185l98 -10c-5.33301 -85.333 -17.833 -163.166 -37.5 -233.499s-38.667 -118.833 -57 -145.5s-36.166 -88.334 -53.499 -185.001s2 -193.334 58 -290.001l3 3
c-26 134 -14.833 249.167 33.5 345.5s118.833 144.5 211.5 144.5h143v-268h-104c-34 0 -62.333 -3 -85 -9s-40.834 -14.333 -54.501 -25s-23.167 -22.834 -28.5 -36.501s-8 -27.834 -8 -42.501c0 -25.333 10.5 -57.5 31.5 -96.5s46.5 -73.5 76.5 -103.5l-197 -203
c-66.667 39.333 -122 111.5 -166 216.5s-50.333 224.5 -19 358.5c-42 -28.667 -87.667 -45.667 -137 -51s-119.333 -8 -210 -8z" />
    <glyph glyph-name="uniFBAB" unicode="&#x6be;" horiz-adv-x="1065" arabic-form="final" 
d="M1086 1l-29 0.00195312c-53.333 0 -103 -7.66699 -149 -23c-64 -22 -96 -54.667 -96 -98c0 -30.667 19.333 -57.667 58 -81c34 -20 93.333 -45.333 178 -76l-77 -236c-138 37.333 -257 102.333 -357 195c-87.333 81.333 -152.333 201.333 -195 360
c-28 -24 -75.667 -36 -143 -36c-26 4 -50.333 9.83301 -73 17.5s-43.667 19.667 -63 36s-37 38.666 -53 66.999s-30 65.5 -42 111.5c234 2 352.667 54 356 156v315h237v-454c0 -84.667 10.667 -152.334 32 -203.001c31.333 66 78.833 118.5 142.5 157.5
s132.167 58.5 205.5 58.5h68v-267z" />
    <glyph glyph-name="uniFBAC" unicode="&#x6be;" horiz-adv-x="1147" arabic-form="initial" 
d="M1101 222c0 -92 -26 -166.668 -78 -224.001c-53.333 -59.333 -125.666 -89 -216.999 -89c-68.667 0 -142.667 21.333 -222 64c-15.333 8 -58 35.667 -128 83c-64.667 -37.333 -140 -56 -226 -56h-300v268h93c100 0 166.333 5.66699 199 17
c-34 28 -62.167 65.833 -84.5 113.5s-33.5 93.167 -33.5 136.5c0 103.333 71.667 198.333 215 285c-18.667 16.667 -46.334 37.334 -83.001 62.001l146 174l133 -100c107.333 -85.333 212.333 -177 315 -275c88 -84 149 -150.667 183 -200c58.667 -84.667 88 -171 88 -259z
M897 235.999c0 34.667 -24.667 76.334 -74 125.001l-80 67c-6 -94.667 -46.333 -163.334 -121 -206.001l85 -43.5c37.333 -19 69.333 -28.5 96 -28.5c23.333 0 44.833 8.66699 64.5 26s29.5 37.333 29.5 60zM580 520.999c0 32 -12.665 59.667 -37.998 83s-54 35 -86 35
c-30.667 0 -58.667 -9.33301 -84 -28c-28 -20.667 -42 -46 -42 -76c0 -35.333 11 -73 33 -113c23.333 -42.667 50.666 -69.667 81.999 -81c37.333 4 69.666 26 96.999 66c25.333 37.333 38 75.333 38 114z" />
    <glyph glyph-name="uniFBAD" unicode="&#x6be;" horiz-adv-x="819" arabic-form="medial" 
d="M841 1l-29 0.000976562c-53.333 0 -103 -7.66699 -149 -23c-64 -22 -96 -54.667 -96 -98c0 -30.667 19.333 -57.667 58 -81c34 -20 93.333 -45.333 178 -76l-77 -236c-138 37.333 -257 102.333 -357 195c-87.333 81.333 -152.333 201.333 -195 360
c-28 -27.333 -75.667 -41 -143 -41h-101v267h82c96 0 144 42 144 126v315h237v-454c0 -84.667 10.667 -152.334 32 -203.001c31.333 66 78.833 118.5 142.5 157.5s132.167 58.5 205.5 58.5h68v-267z" />
    <glyph glyph-name="uniFBAF" unicode="&#x6d2;" horiz-adv-x="1053" arabic-form="final" 
d="M1062 268l0.998047 -268.002h-801c-12 0 -24.333 -2.5 -37 -7.5s-24.667 -14 -36 -27s-21.5 -31.167 -30.5 -54.5s-16.167 -53.333 -21.5 -90c14.667 -12.667 36 -20.334 64 -23.001c68 -7.33301 175.5 -12.666 322.5 -15.999s256.667 -4.66602 329 -3.99902
s120.5 2 144.5 4c24.667 1.33301 39.667 2 45 2l-14 -237c-8.66699 -4.66699 -53.834 -9.66699 -135.501 -15s-183.5 -8.16602 -305.5 -8.49902s-207.333 0.5 -256 2.5s-98.667 5.33301 -150 10s-107.666 18 -168.999 40c-35.333 22 -39.166 117.5 -11.499 286.5
s72.834 282.833 135.501 341.5c58 42 117.667 63.333 179 64h747z" />
    <glyph glyph-name="unifbb1" unicode="&#x6d3;" horiz-adv-x="1053" arabic-form="final" 
d="M1062 268l0.998047 -268.002h-801c-12 0 -24.333 -2.5 -37 -7.5s-24.667 -14 -36 -27s-21.5 -31.167 -30.5 -54.5s-16.167 -53.333 -21.5 -90c14.667 -12.667 36 -20.334 64 -23.001c68 -7.33301 175.5 -12.666 322.5 -15.999s256.667 -4.66602 329 -3.99902
s120.5 2 144.5 4c24.667 1.33301 39.667 2 45 2l-14 -237c-8.66699 -4.66699 -53.834 -9.66699 -135.501 -15s-183.5 -8.16602 -305.5 -8.49902s-207.333 0.5 -256 2.5s-98.667 5.33301 -150 10s-107.666 18 -168.999 40c-35.333 22 -39.166 117.5 -11.499 286.5
s72.834 282.833 135.501 341.5c58 42 117.667 63.333 179 64h747zM729.998 574.998l-514 -126.002l-31 111l180 46c-38.667 45.333 -58 90.333 -58 135c0 50.667 22.667 91.334 68 122.001c39.333 27.333 85.666 41 138.999 41c38 0 71.667 -8 101 -24v-97
c-29.333 7.33301 -58.666 11 -87.999 11c-77.333 0 -116 -22.333 -116 -67c0 -23.333 10 -42.666 30 -57.999c18 -14.667 39 -22 63 -22c20 0 85 15.333 195 46z" />
    <glyph glyph-name="uniFBD4" unicode="&#x6ad;" horiz-adv-x="1824" arabic-form="final" 
d="M1824 1h-54l1 1c-117.333 5.33301 -197.666 54.333 -240.999 147c-64 -98.667 -173.667 -148 -329 -148h-701c-222 0 -333 127.333 -333 382v129h236v-111c0 -88.667 51 -133 153 -133h629h16c14 0.666992 26.667 1.66699 38 3c12.667 2.66699 25 6.33398 37 11.001
c4 1.33301 8.66699 2.33301 14 3c4.66699 2 8.66699 4.33301 12 7c26 18.667 39 54.667 39 108v833h236v-719c0 -84.667 18 -146.334 54 -185.001c37.333 -40.667 97.666 -61 180.999 -61h12v-267zM1137 734l-514.001 -125.001l-31 111l180 45
c-39.333 45.333 -59 90.333 -59 135c0 50 22.667 90.667 68 122c40 27.333 86.333 41 139 41c38.667 0 72.667 -8 102 -24v-97c-29.333 7.33301 -58.666 11 -87.999 11c-77.333 0 -116 -22.333 -116 -67c0 -23.333 10 -42.666 30 -57.999c18 -14.667 39 -22 63 -22
c20 0 85 15.333 195 46zM1115 1189h-211v215h211v-215zM851.999 1189h-209v215h209v-215zM979.999 1442h-215v213h215v-213z" />
    <glyph glyph-name="uniFBD5" unicode="&#x6ad;" horiz-adv-x="898" arabic-form="initial" 
d="M612 1265h-211v215h211v-215zM349 1265h-209v215h209v-215zM477 1518h-215v213h215v-213zM-70 0v267h265c82.667 0 124 22 124 66c0 20.667 -9.33301 50 -28 88l-176 357c-25.333 51.333 -38 97.666 -38 138.999c0 82 46 136.667 138 164l654 194l93 -202l-576 -148
c-35.333 -9.33301 -53 -24.666 -53 -45.999c0 -12 4.66699 -27 14 -45l178 -341c29.333 -56 44 -114 44 -174c0 -101.333 -38 -181 -114 -239c-69.333 -53.333 -156 -80 -260 -80h-265z" />
    <glyph glyph-name="uniFBD6" unicode="&#x6ad;" horiz-adv-x="903" arabic-form="medial" 
d="M588 1267h-211v215h211v-215zM325 1267h-209v215h209v-215zM453 1520h-215v213h215v-213zM-70 1v267h257c79.333 0 119 26 119 78c0 22.667 -7 48 -21 76l-177 357c-26 52.667 -39 98.667 -39 138c0 80.667 46.333 135.667 139 165l612 194l94 -202l-536 -152
c-34 -9.33301 -51 -25 -51 -47c0 -11.333 4.66699 -26 14 -44l173 -337c30.667 -60 75 -110.333 133 -151c71.333 -50 152 -75 242 -75h14v-267h-31c-156 0 -270.667 58 -344 174c-58 -116 -171.667 -174 -341 -174h-257z" />
    <glyph glyph-name="uniFBD8" unicode="&#x6c7;" horiz-adv-x="1084" arabic-form="final" 
d="M170 376c0 83.333 28 156.332 84 218.999s125.333 94 208 94c83.333 0 163 -29 239 -87c98.667 -75.333 162.667 -186.666 192 -333.999h191v-267h-191c-28 -118 -102.667 -234.667 -224 -350c-134.667 -128 -305.667 -231.333 -513 -310l-108 219l188.5 85.5
c83.667 38.333 154.834 82.833 213.501 133.5c77.333 66.667 135.666 146.334 174.999 239.001c-20 -2 -40.333 -3 -61 -3c-107.333 0 -197 28 -269 84c-83.333 65.333 -125 157.666 -125 276.999zM636 278.999c-2 54 -23.999 98 -65.999 132c-34 28 -66.333 42 -97 42
c-18.667 0 -37.834 -9.16699 -57.501 -27.5s-29.5 -36.833 -29.5 -55.5c0 -57.333 30 -90 90 -98c58 -8 111.333 -5.66699 160 7zM654.001 1152c0 41.333 -30.332 62 -90.999 62c-20.667 0 -40.334 -7 -59.001 -21s-28 -31 -28 -51c0 -22 9.5 -40.833 28.5 -56.5
s39.833 -22.5 62.5 -20.5c58 4.66699 87 33.667 87 87zM397.002 1037c-21.333 34.667 -32.001 70.666 -32.001 107.999c0 52.667 23.333 98.334 70 137.001c40.667 34 81.334 51 122.001 51c52 0 99 -17 141 -51c44.667 -36 67 -79.333 67 -130
c0 -106 -64.667 -174.333 -194 -205l-400 -94l-28 108z" />
    <glyph glyph-name="uniFBDA" unicode="&#x6c6;" horiz-adv-x="1084" arabic-form="final" 
d="M170 376c0 83.333 28 156.332 84 218.999s125.333 94 208 94c83.333 0 163 -29 239 -87c98.667 -75.333 162.667 -186.666 192 -333.999h191v-267h-191c-28 -118 -102.667 -234.667 -224 -350c-134.667 -128 -305.667 -231.333 -513 -310l-108 219l188.5 85.5
c83.667 38.333 154.834 82.833 213.501 133.5c77.333 66.667 135.666 146.334 174.999 239.001c-20 -2 -40.333 -3 -61 -3c-107.333 0 -197 28 -269 84c-83.333 65.333 -125 157.666 -125 276.999zM636 278.999c-2 54 -23.999 98 -65.999 132c-34 28 -66.333 42 -97 42
c-18.667 0 -37.834 -9.16699 -57.501 -27.5s-29.5 -36.833 -29.5 -55.5c0 -57.333 30 -90 90 -98c58 -8 111.333 -5.66699 160 7zM718.001 1237c-12 -9.33301 -27.8311 -28.8311 -47.498 -58.498s-39.834 -63.834 -60.501 -102.501s-39.834 -79.334 -57.501 -122.001
s-30.834 -81.667 -39.501 -117h-94c-6 24 -14.333 49.667 -25 77s-22.334 54.833 -35.001 82.5s-26 54.5 -40 80.5s-27.5 49.833 -40.5 71.5s-25.167 40.167 -36.5 55.5s-20.666 26.333 -27.999 33l155 2c8.66699 -12.667 17.667 -30 27 -52s18.5 -45.833 27.5 -71.5
s17.167 -51.167 24.5 -76.5s13 -48 17 -68c4 20 9.83301 42.667 17.5 68s16 50.833 25 76.5s18.333 49.5 28 71.5s18.834 39.333 27.501 52z" />
    <glyph glyph-name="uniFBDC" unicode="&#x6c8;" horiz-adv-x="1084" arabic-form="final" 
d="M170 376c0 83.333 28 156.332 84 218.999s125.333 94 208 94c83.333 0 163 -29 239 -87c98.667 -75.333 162.667 -186.666 192 -333.999h191v-267h-191c-28 -118 -102.667 -234.667 -224 -350c-134.667 -128 -305.667 -231.333 -513 -310l-108 219l188.5 85.5
c83.667 38.333 154.834 82.833 213.501 133.5c77.333 66.667 135.666 146.334 174.999 239.001c-20 -2 -40.333 -3 -61 -3c-107.333 0 -197 28 -269 84c-83.333 65.333 -125 157.666 -125 276.999zM636 278.999c-2 54 -23.999 98 -65.999 132c-34 28 -66.333 42 -97 42
c-18.667 0 -37.834 -9.16699 -57.501 -27.5s-29.5 -36.833 -29.5 -55.5c0 -57.333 30 -90 90 -98c58 -8 111.333 -5.66699 160 7zM536.001 1328l-26 -457h-94l-28 457h148z" />
    <glyph glyph-name="uniFBDF" unicode="&#x6cb;" horiz-adv-x="1084" arabic-form="final" 
d="M170 376c0 83.333 28 156.332 84 218.999s125.333 94 208 94c83.333 0 163 -29 239 -87c98.667 -75.333 162.667 -186.666 192 -333.999h191v-267h-191c-28 -118 -102.667 -234.667 -224 -350c-134.667 -128 -305.667 -231.333 -513 -310l-108 219l188.5 85.5
c83.667 38.333 154.834 82.833 213.501 133.5c77.333 66.667 135.666 146.334 174.999 239.001c-20 -2 -40.333 -3 -61 -3c-107.333 0 -197 28 -269 84c-83.333 65.333 -125 157.666 -125 276.999zM636 278.999c-2 54 -23.999 98 -65.999 132c-34 28 -66.333 42 -97 42
c-18.667 0 -37.834 -9.16699 -57.501 -27.5s-29.5 -36.833 -29.5 -55.5c0 -57.333 30 -90 90 -98c58 -8 111.333 -5.66699 160 7zM687.001 822.999h-211v215h211v-215zM424.001 822.999h-209v215h209v-215zM552.001 1076h-215v213h215v-213z" />
    <glyph glyph-name="uniFBE1" unicode="&#x6c5;" horiz-adv-x="1050" arabic-form="final" 
d="M170 376c0 83.333 28 156.332 84 218.999s125.333 94 208 94c83.333 0 163 -29 239 -87c98.667 -75.333 162.667 -186.666 192 -333.999h191v-267h-191c-28 -118 -102.667 -234.667 -224 -350c-134.667 -128 -305.667 -231.333 -513 -310l-108 219l188 86
c52 23.333 99 49.333 141 78l-250 -3l7 100l363 3c54 56.667 96.667 121.334 128 194.001c-20 -2 -40.333 -3 -61 -3c-107.333 0 -197 28 -269 84c-83.333 65.333 -125 157.666 -125 276.999zM636 278.999c-2 54 -23.999 98 -65.999 132c-34 28 -66.333 42 -97 42
c-18.667 0 -37.834 -9.16699 -57.501 -27.5s-29.5 -36.833 -29.5 -55.5c0 -57.333 30 -90 90 -98c58 -8 111.333 -5.66699 160 7z" />
    <glyph glyph-name="uniFBE3" unicode="&#x6c9;" horiz-adv-x="1084" arabic-form="final" 
d="M170 376c0 83.333 28 156.332 84 218.999s125.333 94 208 94c83.333 0 163 -29 239 -87c98.667 -75.333 162.667 -186.666 192 -333.999h191v-267h-191c-28 -118 -102.667 -234.667 -224 -350c-134.667 -128 -305.667 -231.333 -513 -310l-108 219l188.5 85.5
c83.667 38.333 154.834 82.833 213.501 133.5c77.333 66.667 135.666 146.334 174.999 239.001c-20 -2 -40.333 -3 -61 -3c-107.333 0 -197 28 -269 84c-83.333 65.333 -125 157.666 -125 276.999zM636 278.999c-2 54 -23.999 98 -65.999 132c-34 28 -66.333 42 -97 42
c-18.667 0 -37.834 -9.16699 -57.501 -27.5s-29.5 -36.833 -29.5 -55.5c0 -57.333 30 -90 90 -98c58 -8 111.333 -5.66699 160 7zM558.001 827.999c-8.66699 12.667 -17.8359 30.001 -27.5029 52.001s-19 45.833 -28 71.5s-17.333 51.167 -25 76.5s-13.5 48 -17.5 68
c-4 -20 -9.66699 -42.667 -17 -68s-15.5 -50.833 -24.5 -76.5s-18.167 -49.5 -27.5 -71.5s-18.333 -39.333 -27 -52l-155 2c7.33301 6 16.666 16.833 27.999 32.5s23.5 34.334 36.5 56.001s26.5 45.5 40.5 71.5s27.333 52.833 40 80.5s24.334 55.167 35.001 82.5
s19 53 25 77h94c8.66699 -35.333 21.834 -74.333 39.501 -117s36.834 -83.334 57.501 -122.001s40.834 -72.834 60.501 -102.501s35.5 -49.167 47.5 -58.5z" />
    <glyph glyph-name="uniFBE5" unicode="&#x6d0;" horiz-adv-x="1553" arabic-form="final" 
d="M838 -890h-211v212h211v-212zM838 -1148h-211v212h211v-212zM1553 1l-38.001 0.00195312c0 -66.667 -11 -123.334 -33 -170.001c-58 -122.667 -169.333 -218.334 -334 -287.001c-139.333 -58.667 -286 -88 -440 -88c-360.667 0 -541 192 -541 576
c0 87.333 21 189.333 63 306l208 -66c-23.333 -78 -35 -152.333 -35 -223c0 -222 113.333 -333 340 -333c246.667 0 416 54 508 162c8 9.33301 12 19.333 12 30c0 14 -8.66699 24 -26 30c-55.333 20 -197.666 57 -426.999 111l62 219h681v-267z" />
    <glyph glyph-name="afii52364" unicode="&#x6cc;" horiz-adv-x="1553" arabic-form="final" 
d="M1553 1l-38.001 0.00195312c0 -66.667 -11 -123.334 -33 -170.001c-58 -122.667 -169.333 -218.334 -334 -287.001c-139.333 -58.667 -286 -88 -440 -88c-360.667 0 -541 192 -541 576c0 87.333 21 189.333 63 306l208 -66c-23.333 -78 -35 -152.333 -35 -223
c0 -222 113.333 -333 340 -333c246.667 0 416 54 508 162c8 9.33301 12 19.333 12 30c0 14 -8.66699 24 -26 30c-55.333 20 -197.666 57 -426.999 111l62 219h681v-267z" />
    <glyph glyph-name="uniFBFE" unicode="&#x6cc;" horiz-adv-x="489" arabic-form="initial" 
d="M150 268c56.667 0 85 21.332 85 63.999c0 16.667 -5.33301 34.667 -16 54l-115 206l213 141c112.667 -187.333 169 -322.666 169 -405.999c0 -217.333 -94.667 -326 -284 -326h-272v267h220zM435 -420.001h-211v212h211v-212zM150 -420.001h-211v212h211v-212z" />
    <glyph glyph-name="afii62832" unicode="&#x6cc;" horiz-adv-x="622" arabic-form="medial" 
d="M622 1h-27.001c-50.667 0 -99.167 14.667 -145.5 44s-80.5 66.666 -102.5 111.999c-26.667 -57.333 -59.167 -97.666 -97.5 -120.999s-89.166 -35 -152.499 -35h-167v267h87c95.333 0 143 53.667 143 161v263h236v-135c0 -192.667 69.333 -289 208 -289h18v-267z
M528.999 -423h-211v212h211v-212zM243.999 -423h-211v212h211v-212z" />
    <glyph glyph-name="uniFC5D" unicode="&#xfc5d;" horiz-adv-x="1515" arabic-form="isolated" 
d="M610 1041l-19 -361h-65l-19 361h103zM1508 730l-105.001 -187.998c-88.667 39.333 -141.667 59 -159 59c-103.333 0 -192.333 -53.333 -267 -160c-4 -6 -6.33301 -13.667 -7 -23c-0.666992 -10 1.66602 -16 6.99902 -18c31.333 -13.333 76.333 -22 135 -26l177 -13
c67.333 -4.66699 121.333 -25.667 162 -63c42.667 -40 64 -93 64 -159c0 -124 -68.667 -239.667 -206 -347c-157.333 -123.333 -356.333 -185 -597 -185c-195.333 0 -339.666 61 -432.999 183c-74.667 98 -112 226 -112 384c0 86 19.667 188 59 306l212 -63
c-5.33301 -22.667 -13 -57 -23 -103c-8 -36.667 -12 -76.334 -12 -119.001c0 -134 37.333 -225.667 112 -275c48.667 -32 122.334 -48 221.001 -48c96 0 194 15.667 294 47c141.333 44 224.333 107 249 189c-225.333 7.33301 -367.333 22.666 -426 45.999
c-75.333 30 -113 99 -113 207c0 118.667 59.333 228.667 178 330c108 92.667 211 139 309 139c95.333 0 189 -33.333 281 -100z" />
    <glyph glyph-name="afii62882" unicode="&#xfc5e;" arabic-form="isolated" 
d="M310 237c0 -44.667 -12.335 -82.667 -37.002 -114c-26 -33.333 -61 -50 -105 -50c-71.333 0 -125.666 26.667 -162.999 80c-41.333 -97.333 -105 -146 -191 -146c-95.333 0 -143 54.333 -143 163c0 48 21 116.667 63 206l89 -46c-24.667 -64 -37 -102 -37 -114
c0 -46.667 16 -70 48 -70c47.333 0 78 24.333 92 73c8 27.333 11 71.333 9 132l114 60c0 -132.667 30.333 -199 91 -199c32.667 0 47.667 20 45 60c-1.33301 22.667 -7.66602 43.334 -18.999 62.001l-33 51l90 67c24.667 -32.667 46 -73.334 64 -122.001
c15.333 -41.333 23 -72.333 23 -93zM325.998 747c0 -106 -64.667 -174.334 -194 -205.001l-410 -97l-39 105l39 17c41.333 18 62 46.667 62 86c0 22.667 -8.33301 34 -25 34c-14.667 0 -34 -8.66699 -58 -26l-45 65c36 50.667 75.333 75.334 118 74.001
c70 -1.33301 105 -36.666 105 -105.999c0 -38.667 -10.333 -74.334 -31 -107.001l110 42c-20.667 34 -31 72.333 -31 115c0 52.667 23 97.667 69 135c40 32.667 80.667 49 122 49c52 0 99 -17 141 -51c44.667 -36 67 -79.333 67 -130zM214.998 746.999
c0 42 -30.001 62.998 -90.001 62.998c-20 0 -39 -6.66699 -57 -20s-27 -29.666 -27 -48.999c0 -22.667 8.83301 -42.167 26.5 -58.5s37.834 -23.5 60.501 -21.5c58 4.66699 87 33.334 87 86.001z" />
    <glyph glyph-name="afii62883" unicode="&#xfc5f;" arabic-form="isolated" 
d="M333 692c0 -44.667 -12.3359 -82.665 -37.0029 -113.998c-26 -33.333 -61 -50 -105 -50c-71.333 0 -125.666 27 -162.999 81c-41.333 -97.333 -105 -146 -191 -146c-95.333 0 -143 54.333 -143 163c0 47.333 21 115.666 63 204.999l89 -45
c-24.667 -64.667 -37 -103 -37 -115c0 -46 16 -69 48 -69c46.667 0 77.334 24.333 92.001 73c8 27.333 11 71 9 131c23.333 13.333 61.333 33.333 114 60c0 -132.667 30.333 -199 91 -199c32.667 0 47.667 20 45 60c-1.33301 21.333 -7.66602 42.333 -18.999 63
c-11.333 16.667 -22.333 33.667 -33 51l90 67c24.667 -32.667 46 -73.334 64 -122.001c15.333 -42 23 -73.333 23 -94zM306.997 356.002l-560 -139l-31 115l563 142zM312.997 145.002l-559 -139l-31 115l562 143z" />
    <glyph glyph-name="afii62884" unicode="&#xfc60;" arabic-form="isolated" 
d="M284 583l-559 -139l-31 115l562 143zM329 232c0 -44.667 -12.335 -82.667 -37.002 -114c-26 -33.333 -61 -50 -105 -50c-71.333 0 -125.666 26.667 -162.999 80c-41.333 -97.333 -105 -146 -191 -146c-95.333 0 -143 54.333 -143 163c0 48 21 116.667 63 206l89 -46
c-24.667 -64 -37 -102 -37 -114c0 -46.667 16 -70 48 -70c47.333 0 78 24.333 92 73c8 27.333 11 71.333 9 132l114 60c0 -132.667 30.333 -199 91 -199c32.667 0 47.667 20 45 60c-1.33301 22.667 -7.66602 43.334 -18.999 62.001l-33 51l90 67
c24.667 -32.667 46 -73.334 64 -122.001c15.333 -41.333 23 -72.333 23 -93z" />
    <glyph glyph-name="afii62885" unicode="&#xfc61;" arabic-form="isolated" 
d="M326 234c0 -44.667 -12.335 -82.667 -37.002 -114c-26 -33.333 -61 -50 -105 -50c-71.333 0 -125.666 26.667 -162.999 80c-41.333 -97.333 -105 -146 -191 -146c-95.333 0 -143 54.333 -143 163c0 48 21 116.667 63 206l89 -46c-24.667 -64 -37 -102 -37 -114
c0 -46.667 16 -70 48 -70c47.333 0 78 24.333 92 73c8 27.333 11 71.333 9 132l114 60c0 -132.667 30.333 -199 91 -199c32.667 0 47.667 20 45 60c-1.33301 22.667 -7.66602 43.334 -18.999 62.001l-33 51l90 67c24.667 -32.667 46 -73.334 64 -122.001
c15.333 -41.333 23 -72.333 23 -93zM208.998 740c0 40.667 -30.332 61 -90.999 61c-20.667 0 -40.334 -7 -59.001 -21s-28 -31 -28 -51c0 -22.667 9.5 -41.5 28.5 -56.5s39.833 -21.5 62.5 -19.5c58 4.66699 87 33.667 87 87zM-48.001 625
c-21.333 34 -32.001 69.667 -32.001 107c0 52.667 23.333 98.334 70 137.001c40.667 34 81.334 51 122.001 51c52 0 99 -16.667 141 -50c44.667 -36 67 -79.333 67 -130c0 -106.667 -64.667 -175.334 -194 -206.001l-400 -94l-28 108z" />
    <glyph glyph-name="afii62886" unicode="&#xfc62;" arabic-form="isolated" 
d="M310 142l-560 -139l-31 115l563 143zM331 473c0 -44.667 -12.3359 -82.667 -37.0029 -114c-26 -33.333 -61 -50 -105 -50c-71.333 0 -125.666 26.667 -162.999 80c-41.333 -96.667 -105 -145 -191 -145c-95.333 0 -143 54.333 -143 163c0 47.333 21 115.666 63 204.999
l89 -45c-24.667 -64.667 -37 -103 -37 -115c0 -46.667 16 -70 48 -70c46.667 0 77.334 24.667 92.001 74c8 27.333 11 71 9 131l114 60c0 -132.667 30.333 -199 91 -199c32.667 0 47.667 20 45 60c-1.33301 22.667 -7.66602 43.334 -18.999 62.001l-33 52l90 66
c24.667 -31.333 46 -72 64 -122c15.333 -42 23 -73 23 -93z" />
    <glyph glyph-name="uniFC63" unicode="&#xfc63;" arabic-form="isolated" 
d="M43 938l-19 -361h-65l-19 361h103zM336 237c0 -44.667 -12.335 -82.667 -37.002 -114c-26 -33.333 -61 -50 -105 -50c-71.333 0 -125.666 26.667 -162.999 80c-41.333 -97.333 -105 -146 -191 -146c-95.333 0 -143 54.333 -143 163c0 48 21 116.667 63 206l89 -46
c-24.667 -64 -37 -102 -37 -114c0 -46.667 16 -70 48 -70c47.333 0 78 24.333 92 73c8 27.333 11 71.333 9 132l114 60c0 -132.667 30.333 -199 91 -199c32.667 0 47.667 20 45 60c-1.33301 22.667 -7.66602 43.334 -18.999 62.001l-33 51l90 67
c24.667 -32.667 46 -73.334 64 -122.001c15.333 -41.333 23 -72.333 23 -93z" />
    <glyph glyph-name="uniFCF2" unicode="&#xfcf2;" horiz-adv-x="909" arabic-form="medial" 
d="M710 1010l-559 -139l-31 115l562 143zM755 659c0 -44.667 -12.335 -82.667 -37.002 -114c-26 -33.333 -61 -50 -105 -50c-71.333 0 -125.666 26.667 -162.999 80c-41.333 -97.333 -105 -146 -191 -146c-95.333 0 -143 54.333 -143 163c0 48 21 116.667 63 206l89 -46
c-24.667 -64 -37 -102 -37 -114c0 -46.667 16 -70 48 -70c47.333 0 78 24.333 92 73c8 27.333 11 71.333 9 132l114 60c0 -132.667 30.333 -199 91 -199c32.667 0 47.667 20 45 60c-1.33301 22.667 -7.66602 43.334 -18.999 62.001l-33 51l90 67
c24.667 -32.667 46 -73.334 64 -122.001c15.333 -41.333 23 -72.333 23 -93zM934.998 0h-964v268h964v-268z" />
    <glyph glyph-name="uniFCF3" unicode="&#xfcf3;" horiz-adv-x="909" arabic-form="medial" 
d="M764 582c0 -44.667 -12.335 -82.667 -37.002 -114c-26 -33.333 -61 -50 -105 -50c-71.333 0 -125.666 26.667 -162.999 80c-41.333 -97.333 -105 -146 -191 -146c-95.333 0 -143 54.333 -143 163c0 48 21 116.667 63 206l89 -46c-24.667 -64 -37 -102 -37 -114
c0 -46.667 16 -70 48 -70c47.333 0 78 24.333 92 73c8 27.333 11 71.333 9 132l114 60c0 -132.667 30.333 -199 91 -199c32.667 0 47.667 20 45 60c-1.33301 22.667 -7.66602 43.334 -18.999 62.001l-33 51l90 67c24.667 -32.667 46 -73.334 64 -122.001
c15.333 -41.333 23 -72.333 23 -93zM646.998 1088c0 40.667 -30.332 61 -90.999 61c-20.667 0 -40.334 -7 -59.001 -21s-28 -31 -28 -51c0 -22.667 9.5 -41.5 28.5 -56.5s39.833 -21.5 62.5 -19.5c58 4.66699 87 33.667 87 87zM389.999 973
c-21.333 34 -32.001 69.667 -32.001 107c0 52.667 23.333 98.334 70 137.001c40.667 34 81.334 51 122.001 51c52 0 99 -16.667 141 -50c44.667 -36 67 -79.333 67 -130c0 -106.667 -64.667 -175.334 -194 -206.001l-400 -94l-28 108zM934.998 0h-964v268h964v-268z" />
    <glyph glyph-name="uniFCF4" unicode="&#xfcf4;" horiz-adv-x="909" arabic-form="medial" 
d="M729 542l-560 -139l-31 115l563 143zM728 917c0 -44.667 -12.3359 -82.667 -37.0029 -114c-26 -33.333 -61 -50 -105 -50c-71.333 0 -125.666 26.667 -162.999 80c-41.333 -96.667 -105 -145 -191 -145c-95.333 0 -143 54.333 -143 163c0 47.333 21 115.666 63 204.999
l89 -45c-24.667 -64.667 -37 -103 -37 -115c0 -46.667 16 -70 48 -70c46.667 0 77.334 24.667 92.001 74c8 27.333 11 71 9 131l114 60c0 -132.667 30.333 -199 91 -199c32.667 0 47.667 20 45 60c-1.33301 22.667 -7.66602 43.334 -18.999 62.001l-33 52l90 66
c24.667 -31.333 46 -72 64 -122c15.333 -42 23 -73 23 -93zM934.997 0h-964v268h964v-268z" />
    <glyph glyph-name="uniFE71" unicode="&#xfe71;" horiz-adv-x="909" arabic-form="medial" 
d="M730 810l-560 -139l-31 115l563 142zM736 599l-559 -139l-31 115l562 143zM935 0h-964v268h964v-268z" />
    <glyph glyph-name="uniFE77" unicode="&#xfe77;" horiz-adv-x="909" arabic-form="medial" 
d="M729 555l-560 -139l-31 115l563 143zM935 0h-964v268h964v-268z" />
    <glyph glyph-name="uniFE79" unicode="&#xfe79;" horiz-adv-x="909" arabic-form="medial" 
d="M637 732c0 41.333 -30.332 62 -90.999 62c-20.667 0 -40.334 -7 -59.001 -21s-28 -31 -28 -51c0 -22 9.5 -40.833 28.5 -56.5s39.833 -22.5 62.5 -20.5c58 4.66699 87 33.667 87 87zM380.001 617c-21.333 34.667 -32.001 70.666 -32.001 107.999
c0 52.667 23.333 98.334 70 137.001c40.667 34 81.334 51 122.001 51c52 0 99 -17 141 -51c44.667 -36 67 -79.333 67 -130c0 -106 -64.667 -174.333 -194 -205l-400 -94l-28 108zM935 -0.000976562h-964v268h964v-268z" />
    <glyph glyph-name="uniFE7B" unicode="&#xfe7b;" horiz-adv-x="909" arabic-form="medial" 
d="M710 -330l-560 -139l-31 115l563 143zM935 0h-964v268h964v-268z" />
    <glyph glyph-name="uniFE7D" unicode="&#xfe7d;" horiz-adv-x="909" arabic-form="medial" 
d="M772 660c0 -44.667 -12.335 -82.667 -37.002 -114c-26 -33.333 -61 -50 -105 -50c-71.333 0 -125.666 26.667 -162.999 80c-41.333 -97.333 -105 -146 -191 -146c-95.333 0 -143 54.333 -143 163c0 48 21 116.667 63 206l89 -46c-24.667 -64 -37 -102 -37 -114
c0 -46.667 16 -70 48 -70c47.333 0 78 24.333 92 73c8 27.333 11 71.333 9 132l114 60c0 -132.667 30.333 -199 91 -199c32.667 0 47.667 20 45 60c-1.33301 22.667 -7.66602 43.334 -18.999 62.001l-33 51l90 67c24.667 -32.667 46 -73.334 64 -122.001
c15.333 -41.333 23 -72.333 23 -93zM934.998 0h-964v268h964v-268z" />
    <glyph glyph-name="uniFE7F" unicode="&#xfe7f;" horiz-adv-x="909" arabic-form="medial" 
d="M665 650c0 -66 -22.999 -122 -68.999 -168s-102 -69 -168 -69c-64 0 -119.333 23.5 -166 70.5s-70 102.5 -70 166.5c0 61.333 24 116 72 164s102.667 72 164 72s116.166 -24 164.499 -72s72.5 -102.667 72.5 -164zM529.001 652c0 28 -10.332 51.333 -30.999 70
s-45.334 28 -74.001 28c-24.667 0 -47 -10.5 -67 -31.5s-30 -43.833 -30 -68.5c0 -30 9.33301 -54.5 28 -73.5s43 -28.5 73 -28.5c67.333 0 101 34.667 101 104zM935.002 0h-964v268h964v-268z" />
    <glyph glyph-name="afii52399" unicode="&#x621;" horiz-adv-x="1042" arabic-form="isolated" 
d="M1038 34l-829.998 -211.999l-45 163l289 69c-55.333 55.333 -83 126 -83 212c0 77.333 26 138.666 78 183.999c50 44 114 66 192 66c25.333 0 93.666 -11.333 204.999 -34c-4.66699 -29.333 -10.334 -79.333 -17.001 -150l-146 21c-31.333 0 -61.333 -9.33301 -90 -28
c-32.667 -20.667 -49 -46 -49 -76c0 -36 15.667 -66.333 47 -91c28.667 -22.667 61.667 -34 99 -34c28 0 134.667 24.333 320 73z" />
    <glyph glyph-name="afii62753" unicode="&#x622;" horiz-adv-x="690" arabic-form="final" 
d="M690 1h-178.001c-105.333 0 -184.666 46.667 -237.999 140c-42.667 75.333 -64 170 -64 284v810h236v-726c0 -78.667 8.66699 -135 26 -169c25.333 -48 73.333 -72 144 -72h74v-267zM773.999 1461c-128.667 -74.667 -264.001 -107.667 -406.001 -99
c-49.333 2 -105.666 12.333 -168.999 31s-99.333 27 -108 25c-11.333 0 -30.333 -20.333 -57 -61l-139 76l53 124c26 47.333 53.667 71 83 71c14 0 34.333 -6.33301 61 -19c92.667 -42.667 187 -64 283 -64c135.333 -0.666992 268.333 26.333 399 81v-165z" />
    <glyph glyph-name="afii62754" unicode="&#x623;" horiz-adv-x="675" arabic-form="final" 
d="M675 1h-178.001c-105.333 0 -184.666 46.667 -237.999 140c-42.667 75.333 -64 170 -64 284v810h236v-726c0 -78.667 8.66699 -135 26 -169c25.333 -48 73.333 -72 144 -72h74v-267zM589.999 1472l-514 -126.002l-31 111l180 46c-38.667 45.333 -58 90.333 -58 135
c0 50.667 22.667 91.334 68 122.001c39.333 27.333 85.666 41 138.999 41c38 0 71.667 -8 101 -24v-97c-29.333 7.33301 -58.666 11 -87.999 11c-77.333 0 -116 -22.333 -116 -67c0 -23.333 10 -42.666 30 -57.999c18 -14.667 39 -22 63 -22c20 0 85 15.333 195 46z" />
    <glyph glyph-name="afii62755" unicode="&#x624;" horiz-adv-x="1084" arabic-form="final" 
d="M170 376c0 83.333 28 156.332 84 218.999s125.333 94 208 94c83.333 0 163 -29 239 -87c98.667 -75.333 162.667 -186.666 192 -333.999h191v-267h-191c-28 -118 -102.667 -234.667 -224 -350c-134.667 -128 -305.667 -231.333 -513 -310l-108 219l188.5 85.5
c83.667 38.333 154.834 82.833 213.501 133.5c77.333 66.667 135.666 146.334 174.999 239.001c-20 -2 -40.333 -3 -61 -3c-107.333 0 -197 28 -269 84c-83.333 65.333 -125 157.666 -125 276.999zM636 278.999c-2 54 -23.999 98 -65.999 132c-34 28 -66.333 42 -97 42
c-18.667 0 -37.834 -9.16699 -57.501 -27.5s-29.5 -36.833 -29.5 -55.5c0 -57.333 30 -90 90 -98c58 -8 111.333 -5.66699 160 7zM715.001 979.999l-514 -126.002l-31 111l180 46c-38.667 45.333 -58 90.333 -58 135c0 50.667 22.667 91.334 68 122.001
c39.333 27.333 85.666 41 138.999 41c38 0 71.667 -8 101 -24v-97c-29.333 7.33301 -58.666 11 -87.999 11c-77.333 0 -116 -22.333 -116 -67c0 -23.333 10 -42.666 30 -57.999c18 -14.667 39 -22 63 -22c20 0 85 15.333 195 46z" />
    <glyph glyph-name="afii62756" unicode="&#x625;" horiz-adv-x="666" arabic-form="final" 
d="M666 1h-178.001c-105.333 0 -184.666 46.667 -237.999 140c-42.667 75.333 -64 170 -64 284v810h236v-726c0 -78.667 8.66699 -135 26 -169c25.333 -48 73.333 -72 144 -72h74v-267zM614.999 -498l-514 -126.002l-31 111l180 46c-38.667 45.333 -58 90.333 -58 135
c0 50.667 22.667 91.334 68 122.001c39.333 27.333 85.666 41 138.999 41c38 0 71.667 -8 101 -24v-97c-29.333 7.33301 -58.666 11 -87.999 11c-77.333 0 -116 -22.333 -116 -67c0 -23.333 10 -42.666 30 -57.999c18 -14.667 39 -22 63 -22c20 0 85 15.333 195 46z" />
    <glyph glyph-name="afii62759" unicode="&#x626;" horiz-adv-x="1553" arabic-form="final" 
d="M1553 1l-38.001 0.00195312c0 -66.667 -11 -123.334 -33 -170.001c-58 -122.667 -169.333 -218.334 -334 -287.001c-139.333 -58.667 -286 -88 -440 -88c-360.667 0 -541 192 -541 576c0 87.333 21 189.333 63 306l208 -66c-23.333 -78 -35 -152.333 -35 -223
c0 -222 113.333 -333 340 -333c246.667 0 416 54 508 162c8 9.33301 12 19.333 12 30c0 14 -8.66699 24 -26 30c-55.333 20 -197.666 57 -426.999 111l62 219h681v-267zM932.999 640.002l-514 -126.002l-31 111l180 46c-38.667 45.333 -58 90.333 -58 135
c0 50.667 22.667 91.334 68 122.001c39.333 27.333 85.666 41 138.999 41c38 0 71.667 -8 101 -24v-97c-29.333 7.33301 -58.666 11 -87.999 11c-77.333 0 -116 -22.333 -116 -67c0 -23.333 10 -42.666 30 -57.999c18 -14.667 39 -22 63 -22c20 0 85 15.333 195 46z" />
    <glyph glyph-name="afii62757" unicode="&#x626;" horiz-adv-x="489" arabic-form="initial" 
d="M150 268c56.667 0 85 21.332 85 63.999c0 16.667 -5.33301 34.667 -16 54l-115 206l213 141c112.667 -187.333 169 -322.666 169 -405.999c0 -217.333 -94.667 -326 -284 -326h-272v267h220zM445 961.999l-514 -126.002l-31 111l180 46
c-38.667 45.333 -58 90.333 -58 135c0 50.667 22.667 91.334 68 122.001c39.333 27.333 85.666 41 138.999 41c38 0 71.667 -8 101 -24v-97c-29.333 7.33301 -58.666 11 -87.999 11c-77.333 0 -116 -22.333 -116 -67c0 -23.333 10 -42.666 30 -57.999
c18 -14.667 39 -22 63 -22c20 0 85 15.333 195 46z" />
    <glyph glyph-name="afii62758" unicode="&#x626;" horiz-adv-x="622" arabic-form="medial" 
d="M622 1h-27.001c-50.667 0 -99.167 14.667 -145.5 44s-80.5 66.666 -102.5 111.999c-26.667 -57.333 -59.167 -97.666 -97.5 -120.999s-89.166 -35 -152.499 -35h-167v267h87c95.333 0 143 53.667 143 161v263h236v-135c0 -192.667 69.333 -289 208 -289h18v-267z
M536.999 991l-514 -126.002l-31 111l180 46c-38.667 45.333 -58 90.333 -58 135c0 50.667 22.667 91.334 68 122.001c39.333 27.333 85.666 41 138.999 41c38 0 71.667 -8 101 -24v-97c-29.333 7.33301 -58.666 11 -87.999 11c-77.333 0 -116 -22.333 -116 -67
c0 -23.333 10 -42.666 30 -57.999c18 -14.667 39 -22 63 -22c20 0 85 15.333 195 46z" />
    <glyph glyph-name="afii57415" unicode="&#x627;" horiz-adv-x="404" arabic-form="isolated" 
d="M403 1h-236v1233h236v-1233z" />
    <glyph glyph-name="afii62760" unicode="&#x627;" horiz-adv-x="682" arabic-form="final" 
d="M682 1h-178.001c-105.333 0 -184.666 46.667 -237.999 140c-42.667 75.333 -64 170 -64 284v810h236v-726c0 -78.667 8.66699 -135 26 -169c25.333 -48 73.333 -72 144 -72h74v-267z" />
    <glyph glyph-name="afii62763" unicode="&#x628;" horiz-adv-x="2293" arabic-form="final" 
d="M1699 1h-1185c-231.333 0 -347 120.333 -347 361v150h236v-111c0 -51.333 13.667 -87 41 -107c23.333 -17.333 62 -26 116 -26h1104c54.667 0 82 18.333 82 55c0 18 -6.33301 39 -19 63l-108 206l201 135c8.66699 -14 39 -70.667 91 -170
c101.333 -192.667 223 -289 365 -289h17v-267h-21c-131.333 0 -241.333 62.333 -330 187c-22.667 -124.667 -103.667 -187 -243 -187zM1159 -452h-237v237h237v-237z" />
    <glyph glyph-name="afii62761" unicode="&#x628;" horiz-adv-x="489" arabic-form="initial" 
d="M150 268c56.667 0 85 21.332 85 63.999c0 16.667 -5.33301 34.667 -16 54l-115 206l213 141c112.667 -187.333 169 -322.666 169 -405.999c0 -217.333 -94.667 -326 -284 -326h-272v267h220zM322 -446.001h-237v237h237v-237z" />
    <glyph glyph-name="afii62762" unicode="&#x628;" horiz-adv-x="622" arabic-form="medial" 
d="M622 1h-27.001c-50.667 0 -99.167 14.667 -145.5 44s-80.5 66.666 -102.5 111.999c-26.667 -57.333 -59.167 -97.666 -97.5 -120.999s-89.166 -35 -152.499 -35h-167v267h87c95.333 0 143 53.667 143 161v263h236v-135c0 -192.667 69.333 -289 208 -289h18v-267z
M391.999 -440h-237v237h237v-237z" />
    <glyph glyph-name="afii62764" unicode="&#x629;" horiz-adv-x="1258" arabic-form="final" 
d="M1258 1l-29.999 -0.000976562c-144 0 -267.333 57.667 -370 173c-71.333 -23.333 -164 -35 -278 -35c-160.667 0 -276 44 -346 132c-44.667 56.667 -67 122.667 -67 198c0 60.667 30 120.334 90 179.001c46 44.667 105 86 177 124l122 62l-52 128l202 122l219 -576
c31.333 -82 65.333 -139.667 102 -173c49.333 -44.667 118.666 -67 207.999 -67h23v-267zM733.001 381.999c-37.333 95.333 -71.998 177.667 -103.998 247c-120.667 -60 -198.334 -108.667 -233.001 -146c-2 -5.33301 -3 -20.333 -3 -45c11.333 -42 77.333 -63 198 -63
c37.333 0 84.666 2.33301 141.999 7zM752.003 1193h-211v212h211v-212zM467.003 1193h-211v212h211v-212z" />
    <glyph glyph-name="afii62767" unicode="&#x62a;" horiz-adv-x="2293" arabic-form="final" 
d="M1699 1h-1185c-231.333 0 -347 120.333 -347 361v150h236v-111c0 -51.333 13.667 -87 41 -107c23.333 -17.333 62 -26 116 -26h1104c54.667 0 82 18.333 82 55c0 18 -6.33301 39 -19 63l-108 206l201 135c8.66699 -14 39 -70.667 91 -170
c101.333 -192.667 223 -289 365 -289h17v-267h-21c-131.333 0 -241.333 62.333 -330 187c-22.667 -124.667 -103.667 -187 -243 -187zM1262 737h-211v212h211v-212zM977 737h-211v212h211v-212z" />
    <glyph glyph-name="afii62765" unicode="&#x62a;" horiz-adv-x="489" arabic-form="initial" 
d="M150 268c56.667 0 85 21.332 85 63.999c0 16.667 -5.33301 34.667 -16 54l-115 206l213 141c112.667 -187.333 169 -322.666 169 -405.999c0 -217.333 -94.667 -326 -284 -326h-272v267h220zM411 885.999h-211v212h211v-212zM126 885.999h-211v212h211v-212z" />
    <glyph glyph-name="afii62766" unicode="&#x62a;" horiz-adv-x="622" arabic-form="medial" 
d="M622 1h-27.001c-50.667 0 -99.167 14.667 -145.5 44s-80.5 66.666 -102.5 111.999c-26.667 -57.333 -59.167 -97.666 -97.5 -120.999s-89.166 -35 -152.499 -35h-167v267h87c95.333 0 143 53.667 143 161v263h236v-135c0 -192.667 69.333 -289 208 -289h18v-267z
M496.999 891h-211v212h211v-212zM211.999 891h-211v212h211v-212z" />
    <glyph glyph-name="afii62770" unicode="&#x62b;" horiz-adv-x="2293" arabic-form="final" 
d="M1699 1h-1185c-231.333 0 -347 120.333 -347 361v150h236v-111c0 -51.333 13.667 -87 41 -107c23.333 -17.333 62 -26 116 -26h1104c54.667 0 82 18.333 82 55c0 18 -6.33301 39 -19 63l-108 206l201 135c8.66699 -14 39 -70.667 91 -170
c101.333 -192.667 223 -289 365 -289h17v-267h-21c-131.333 0 -241.333 62.333 -330 187c-22.667 -124.667 -103.667 -187 -243 -187zM1230 663h-211v215h211v-215zM967 663h-209v215h209v-215zM1095 916h-215v213h215v-213z" />
    <glyph glyph-name="afii62768" unicode="&#x62b;" horiz-adv-x="489" arabic-form="initial" 
d="M150 268c56.667 0 85 21.332 85 63.999c0 16.667 -5.33301 34.667 -16 54l-115 206l213 141c112.667 -187.333 169 -322.666 169 -405.999c0 -217.333 -94.667 -326 -284 -326h-272v267h220zM397 862.999h-211v215h211v-215zM134 862.999h-209v215h209v-215zM262 1116
h-215v213h215v-213z" />
    <glyph glyph-name="afii62769" unicode="&#x62b;" horiz-adv-x="622" arabic-form="medial" 
d="M622 1h-27.001c-50.667 0 -99.167 14.667 -145.5 44s-80.5 66.666 -102.5 111.999c-26.667 -57.333 -59.167 -97.666 -97.5 -120.999s-89.166 -35 -152.499 -35h-167v267h87c95.333 0 143 53.667 143 161v263h236v-135c0 -192.667 69.333 -289 208 -289h18v-267z
M487.999 879h-211v215h211v-215zM224.999 879h-209v215h209v-215zM352.999 1132h-215v213h215v-213z" />
    <glyph glyph-name="afii62773" unicode="&#x62c;" horiz-adv-x="1466" arabic-form="final" 
d="M424 -131c0 -52.667 9.99902 -100.162 29.999 -142.495s47.833 -78.5 83.5 -108.5s78.334 -53 128.001 -69s104.5 -24 164.5 -24c102.667 0 191.667 13 267 39l72 28c28.667 11.333 63 23.666 103 36.999l114 -219c-187.333 -101.333 -370 -152 -548 -152
c-106.667 0 -201.5 13.167 -284.5 39.5s-153.167 64.833 -210.5 115.5s-101 113.167 -131 187.5s-45 159.166 -45 254.499c0 179.333 90 347.666 270 504.999c52 44.667 107.667 86.167 167 124.5s124.333 74.166 195 107.499c-28.667 1.33301 -56.834 2.33301 -84.501 3
s-55.5 1 -83.5 1c-46 0 -91.333 -1 -136 -3c-53.333 -2 -113.333 -22.333 -180 -61l-120 195c14 18 31.333 35 52 51s43 30 67 42s48.5 21.5 73.5 28.5s48.833 10.5 71.5 10.5l969 -35l-25 -254h-89c-23.333 0 -49 -2.66699 -77 -8s-55.833 -12.5 -83.5 -21.5
s-54 -19.333 -79 -31s-46.167 -23.5 -63.5 -35.5c42.667 -62.667 78 -105.334 106 -128.001c62 -52 137 -78 225 -78h124v-267h-167c-116.667 0 -208.667 29.667 -276 89c-51.333 45.333 -115.666 138.666 -192.999 279.999c-94.667 -58 -180 -127.667 -256 -209
c-100 -107.333 -150 -204.666 -150 -291.999zM943.999 -251.995h-237v237h237v-237z" />
    <glyph glyph-name="afii62771" unicode="&#x62c;" horiz-adv-x="986" arabic-form="initial" 
d="M986 185l-135 -184h-921v267h647l-247 244c-35.333 34.667 -76 52 -122 52h-160v243h206c74 0 135.333 -24.333 184 -73zM443 -444h-237v237h237v-237z" />
    <glyph glyph-name="afii62772" unicode="&#x62c;" horiz-adv-x="1286" arabic-form="medial" 
d="M851 431c22.667 -25.333 44.3311 -47 64.998 -65s40.334 -32.667 59.001 -44c60.667 -36 133 -54 217 -54h94v-267h-198c-95.333 0 -173 29 -233 87c-28.667 26.667 -79.667 98.334 -153 215.001l-145.5 -123c-40.333 -33.333 -74.5 -58.666 -102.5 -75.999
c-105.333 -68.667 -203.333 -103 -294 -103h-230v267h96c105.333 0 195.666 14.333 270.999 43c31.333 11.333 62.833 26.166 94.5 44.499s63.834 40.166 96.501 65.499l69 53.5l128 100.5c-140 4 -242.667 6 -308 6c-24.667 0 -45.667 -0.5 -63 -1.5
s-34.666 -3.5 -51.999 -7.5s-36.333 -10.167 -57 -18.5s-46.667 -19.833 -78 -34.5l-114 195c76 87.333 167.333 131 274 131l957 -34l-28 -255h-87c-54 0 -105.333 -13.333 -154 -40c-12.667 -7.33301 -29 -18 -49 -32zM658.997 -442h-237v237h237v-237z" />
    <glyph glyph-name="afii62776" unicode="&#x62d;" horiz-adv-x="1466" arabic-form="final" 
d="M424 -131c0 -52.667 9.99902 -100.162 29.999 -142.495s47.833 -78.5 83.5 -108.5s78.334 -53 128.001 -69s104.5 -24 164.5 -24c102.667 0 191.667 13 267 39l72 28c28.667 11.333 63 23.666 103 36.999l114 -219c-187.333 -101.333 -370 -152 -548 -152
c-106.667 0 -201.5 13.167 -284.5 39.5s-153.167 64.833 -210.5 115.5s-101 113.167 -131 187.5s-45 159.166 -45 254.499c0 179.333 90 347.666 270 504.999c52 44.667 107.667 86.167 167 124.5s124.333 74.166 195 107.499c-28.667 1.33301 -56.834 2.33301 -84.501 3
s-55.5 1 -83.5 1c-46 0 -91.333 -1 -136 -3c-53.333 -2 -113.333 -22.333 -180 -61l-120 195c14 18 31.333 35 52 51s43 30 67 42s48.5 21.5 73.5 28.5s48.833 10.5 71.5 10.5l969 -35l-25 -254h-89c-23.333 0 -49 -2.66699 -77 -8s-55.833 -12.5 -83.5 -21.5
s-54 -19.333 -79 -31s-46.167 -23.5 -63.5 -35.5c42.667 -62.667 78 -105.334 106 -128.001c62 -52 137 -78 225 -78h124v-267h-167c-116.667 0 -208.667 29.667 -276 89c-51.333 45.333 -115.666 138.666 -192.999 279.999c-94.667 -58 -180 -127.667 -256 -209
c-100 -107.333 -150 -204.666 -150 -291.999z" />
    <glyph glyph-name="afii62774" unicode="&#x62d;" horiz-adv-x="986" arabic-form="initial" 
d="M986 185l-135 -184h-921v267h647l-247 244c-35.333 34.667 -76 52 -122 52h-160v243h206c74 0 135.333 -24.333 184 -73z" />
    <glyph glyph-name="afii62775" unicode="&#x62d;" horiz-adv-x="1286" arabic-form="medial" 
d="M851 431c22.667 -25.333 44.3311 -47 64.998 -65s40.334 -32.667 59.001 -44c60.667 -36 133 -54 217 -54h94v-267h-198c-95.333 0 -173 29 -233 87c-28.667 26.667 -79.667 98.334 -153 215.001l-145.5 -123c-40.333 -33.333 -74.5 -58.666 -102.5 -75.999
c-105.333 -68.667 -203.333 -103 -294 -103h-230v267h96c105.333 0 195.666 14.333 270.999 43c31.333 11.333 62.833 26.166 94.5 44.499s63.834 40.166 96.501 65.499l69 53.5l128 100.5c-140 4 -242.667 6 -308 6c-24.667 0 -45.667 -0.5 -63 -1.5
s-34.666 -3.5 -51.999 -7.5s-36.333 -10.167 -57 -18.5s-46.667 -19.833 -78 -34.5l-114 195c76 87.333 167.333 131 274 131l957 -34l-28 -255h-87c-54 0 -105.333 -13.333 -154 -40c-12.667 -7.33301 -29 -18 -49 -32z" />
    <glyph glyph-name="afii62779" unicode="&#x62e;" horiz-adv-x="1466" arabic-form="final" 
d="M424 -131c0 -52.667 9.99902 -100.162 29.999 -142.495s47.833 -78.5 83.5 -108.5s78.334 -53 128.001 -69s104.5 -24 164.5 -24c102.667 0 191.667 13 267 39l72 28c28.667 11.333 63 23.666 103 36.999l114 -219c-187.333 -101.333 -370 -152 -548 -152
c-106.667 0 -201.5 13.167 -284.5 39.5s-153.167 64.833 -210.5 115.5s-101 113.167 -131 187.5s-45 159.166 -45 254.499c0 179.333 90 347.666 270 504.999c52 44.667 107.667 86.167 167 124.5s124.333 74.166 195 107.499c-28.667 1.33301 -56.834 2.33301 -84.501 3
s-55.5 1 -83.5 1c-46 0 -91.333 -1 -136 -3c-53.333 -2 -113.333 -22.333 -180 -61l-120 195c14 18 31.333 35 52 51s43 30 67 42s48.5 21.5 73.5 28.5s48.833 10.5 71.5 10.5l969 -35l-25 -254h-89c-23.333 0 -49 -2.66699 -77 -8s-55.833 -12.5 -83.5 -21.5
s-54 -19.333 -79 -31s-46.167 -23.5 -63.5 -35.5c42.667 -62.667 78 -105.334 106 -128.001c62 -52 137 -78 225 -78h124v-267h-167c-116.667 0 -208.667 29.667 -276 89c-51.333 45.333 -115.666 138.666 -192.999 279.999c-94.667 -58 -180 -127.667 -256 -209
c-100 -107.333 -150 -204.666 -150 -291.999zM896.999 1087h-237v237h237v-237z" />
    <glyph glyph-name="afii62777" unicode="&#x62e;" horiz-adv-x="986" arabic-form="initial" 
d="M986 185l-135 -184h-921v267h647l-247 244c-35.333 34.667 -76 52 -122 52h-160v243h206c74 0 135.333 -24.333 184 -73zM390 972h-237v237h237v-237z" />
    <glyph glyph-name="afii62778" unicode="&#x62e;" horiz-adv-x="1286" arabic-form="medial" 
d="M851 431c22.667 -25.333 44.3311 -47 64.998 -65s40.334 -32.667 59.001 -44c60.667 -36 133 -54 217 -54h94v-267h-198c-95.333 0 -173 29 -233 87c-28.667 26.667 -79.667 98.334 -153 215.001l-145.5 -123c-40.333 -33.333 -74.5 -58.666 -102.5 -75.999
c-105.333 -68.667 -203.333 -103 -294 -103h-230v267h96c105.333 0 195.666 14.333 270.999 43c31.333 11.333 62.833 26.166 94.5 44.499s63.834 40.166 96.501 65.499l69 53.5l128 100.5c-140 4 -242.667 6 -308 6c-24.667 0 -45.667 -0.5 -63 -1.5
s-34.666 -3.5 -51.999 -7.5s-36.333 -10.167 -57 -18.5s-46.667 -19.833 -78 -34.5l-114 195c76 87.333 167.333 131 274 131l957 -34l-28 -255h-87c-54 0 -105.333 -13.333 -154 -40c-12.667 -7.33301 -29 -18 -49 -32zM710.997 1063h-237v237h237v-237z" />
    <glyph glyph-name="afii62780" unicode="&#x62f;" horiz-adv-x="1524" arabic-form="final" 
d="M855 1h-316.001c-125.333 0 -250.666 73 -375.999 219l163 163c69.333 -76.667 131 -115 185 -115h316c94 0 141 19.333 141 58c0 16 -6.33301 36.333 -19 61l-268 521l209 135l281 -556c38.667 -76.667 81.667 -131.667 129 -165c52.667 -36 120 -54 202 -54h22v-267
h-30c-121.333 0 -227.666 52 -318.999 156c-47.333 -60 -83.333 -97.667 -108 -113c-46.667 -28.667 -117.334 -43 -212.001 -43z" />
    <glyph glyph-name="afii62781" unicode="&#x630;" horiz-adv-x="1524" arabic-form="final" 
d="M855 1h-316.001c-125.333 0 -250.666 73 -375.999 219l163 163c69.333 -76.667 131 -115 185 -115h316c94 0 141 19.333 141 58c0 16 -6.33301 36.333 -19 61l-268 521l209 135l281 -556c38.667 -76.667 81.667 -131.667 129 -165c52.667 -36 120 -54 202 -54h22v-267
h-30c-121.333 0 -227.666 52 -318.999 156c-47.333 -60 -83.333 -97.667 -108 -113c-46.667 -28.667 -117.334 -43 -212.001 -43zM865.999 1203h-237v237h237v-237z" />
    <glyph glyph-name="afii62782" unicode="&#x631;" horiz-adv-x="1219" arabic-form="final" 
d="M925 129c-5.33301 -22 -26.332 -64.668 -62.999 -128.001c-74 -126.667 -305.667 -300.334 -695 -521.001l-119 215c94.667 51.333 182.667 103 264 155c187.333 120 305.666 221 354.999 303c17.333 28.667 26 63 26 103c0 32.667 -6.33301 62.334 -19 89.001
c-18.667 50.667 -60.334 136.334 -125.001 257.001l215 129l135 -265c31.333 -62 58.333 -104 81 -126c48.667 -48 118.334 -72 209.001 -72h30v-267h-29c-110.667 0 -199 42.667 -265 128z" />
    <glyph glyph-name="afii62783" unicode="&#x632;" horiz-adv-x="1219" arabic-form="final" 
d="M925 129c-5.33301 -22 -26.332 -64.668 -62.999 -128.001c-74 -126.667 -305.667 -300.334 -695 -521.001l-119 215c94.667 51.333 182.667 103 264 155c187.333 120 305.666 221 354.999 303c17.333 28.667 26 63 26 103c0 32.667 -6.33301 62.334 -19 89.001
c-18.667 50.667 -60.334 136.334 -125.001 257.001l215 129l135 -265c31.333 -62 58.333 -104 81 -126c48.667 -48 118.334 -72 209.001 -72h30v-267h-29c-110.667 0 -199 42.667 -265 128zM744.001 901.999h-237v237h237v-237z" />
    <glyph glyph-name="afii62786" unicode="&#x633;" horiz-adv-x="2644" arabic-form="final" 
d="M1685 684h239c0 -280 55.667 -420 167 -420c68 0 102 51 102 153v271h235c0 -176.667 16.333 -294 49 -352c25.333 -45.333 72.666 -68 142 -68h25v-267h-28c-66 0 -118 11 -156 33c-35.333 21.333 -71.333 60.666 -108 117.999c-64.667 -106 -151.667 -159 -261 -159
c-88.667 0 -170.667 48.667 -246 146c-48.667 -92.667 -120.667 -139 -216 -139c-64.667 0 -117.667 16 -159 48c0 -126.667 -18.667 -233 -56 -319c-48 -111.333 -113 -195 -195 -251c-104 -71.333 -246.333 -107 -427 -107c-220 0 -385 71.667 -495 215
c-86.667 112.667 -130 252 -130 418c0 26 6.66699 70 20 132c15.333 72.667 32.666 130.334 51.999 173.001l206 -73c-34.667 -84.667 -52 -163.334 -52 -236.001c0 -130 46.667 -225.667 140 -287c72 -47.333 162 -71 270 -71c130.667 0 233.334 32.667 308.001 98
c79.333 68.667 119 167 119 295c0 132.667 -64.667 305 -194 517l201 129c26 -49.333 66.667 -122.666 122 -219.999c72 -119.333 141.333 -179 208 -179c78.667 0 118 52 118 156v246z" />
    <glyph glyph-name="afii62784" unicode="&#x633;" horiz-adv-x="1431" arabic-form="initial" 
d="M890 685c0 -270.667 62.335 -405.999 187.002 -405.999c74 0 111 31.667 111 95c0 61.333 -34.667 152.666 -104 273.999l195 117c101.333 -164.667 152 -296.334 152 -395.001c0 -106 -25.667 -190.667 -77 -254c-56 -69.333 -135.333 -104 -238 -104
c-128 0 -225.667 50.667 -293 152c-56.667 -108.667 -143.334 -163 -260.001 -163c-50 0 -98.667 14.833 -146 44.5s-83.333 66.834 -108 111.501c-27.333 -48.667 -66.5 -86.834 -117.5 -114.501s-105.167 -41.5 -162.5 -41.5h-99v267h79c46 0 78.667 7.33301 98 22
c28.667 22 43 66 43 132v267h236c0 -139.333 10 -238.666 30 -297.999c25.333 -74.667 72 -112 140 -112c37.333 0 66.666 18.333 87.999 55c18 30.667 27 65.667 27 105v246h219z" />
    <glyph glyph-name="afii62785" unicode="&#x633;" horiz-adv-x="1639" arabic-form="medial" 
d="M309 157c-56.667 -104 -150 -156 -280 -156h-99v267h81c46 0 78.333 7.33301 97 22c28 22 42 66 42 132v267h236c0 -278 59 -417 177 -417c72 0 108 55.667 108 167v250h243c0 -118 5 -202.333 15 -253c22.667 -114 70.667 -171 144 -171c68 0 102 51 102 153v271h236
c0 -176 18 -293.667 54 -353c27.333 -45.333 76.666 -68 147.999 -68h26v-267h-28c-109.333 0 -198.333 50.667 -267 152c-57.333 -101.333 -136 -152 -236 -152c-112 0 -205.667 46.333 -281 139c-21.333 -44 -58.666 -79 -111.999 -105c-47.333 -22.667 -98 -34 -152 -34
c-52.667 0 -102.667 14 -150 42c-49.333 29.333 -84 67.333 -104 114z" />
    <glyph glyph-name="afii62789" unicode="&#x634;" horiz-adv-x="2644" arabic-form="final" 
d="M1685 684h239c0 -280 55.667 -420 167 -420c68 0 102 51 102 153v271h235c0 -176.667 16.333 -294 49 -352c25.333 -45.333 72.666 -68 142 -68h25v-267h-28c-66 0 -118 11 -156 33c-35.333 21.333 -71.333 60.666 -108 117.999c-64.667 -106 -151.667 -159 -261 -159
c-88.667 0 -170.667 48.667 -246 146c-48.667 -92.667 -120.667 -139 -216 -139c-64.667 0 -117.667 16 -159 48c0 -126.667 -18.667 -233 -56 -319c-48 -111.333 -113 -195 -195 -251c-104 -71.333 -246.333 -107 -427 -107c-220 0 -385 71.667 -495 215
c-86.667 112.667 -130 252 -130 418c0 26 6.66699 70 20 132c15.333 72.667 32.666 130.334 51.999 173.001l206 -73c-34.667 -84.667 -52 -163.334 -52 -236.001c0 -130 46.667 -225.667 140 -287c72 -47.333 162 -71 270 -71c130.667 0 233.334 32.667 308.001 98
c79.333 68.667 119 167 119 295c0 132.667 -64.667 305 -194 517l201 129c26 -49.333 66.667 -122.666 122 -219.999c72 -119.333 141.333 -179 208 -179c78.667 0 118 52 118 156v246zM2002 938h-211v215h211v-215zM1739 938h-209v215h209v-215zM1867 1191h-215v213h215
v-213z" />
    <glyph glyph-name="afii62787" unicode="&#x634;" horiz-adv-x="1431" arabic-form="initial" 
d="M890 685c0 -270.667 62.335 -405.999 187.002 -405.999c74 0 111 31.667 111 95c0 61.333 -34.667 152.666 -104 273.999l195 117c101.333 -164.667 152 -296.334 152 -395.001c0 -106 -25.667 -190.667 -77 -254c-56 -69.333 -135.333 -104 -238 -104
c-128 0 -225.667 50.667 -293 152c-56.667 -108.667 -143.334 -163 -260.001 -163c-50 0 -98.667 14.833 -146 44.5s-83.333 66.834 -108 111.501c-27.333 -48.667 -66.5 -86.834 -117.5 -114.501s-105.167 -41.5 -162.5 -41.5h-99v267h79c46 0 78.667 7.33301 98 22
c28.667 22 43 66 43 132v267h236c0 -139.333 10 -238.666 30 -297.999c25.333 -74.667 72 -112 140 -112c37.333 0 66.666 18.333 87.999 55c18 30.667 27 65.667 27 105v246h219zM985.669 897.001h-198.251v208.347h198.251v-208.347zM738.561 897.001h-196.371v208.347
h196.371v-208.347zM858.826 1142.17h-202.009v206.409h202.009v-206.409z" />
    <glyph glyph-name="afii62788" unicode="&#x634;" horiz-adv-x="1639" arabic-form="medial" 
d="M309 157c-56.667 -104 -150 -156 -280 -156h-99v267h81c46 0 78.333 7.33301 97 22c28 22 42 66 42 132v267h236c0 -278 59 -417 177 -417c72 0 108 55.667 108 167v250h243c0 -118 5 -202.333 15 -253c22.667 -114 70.667 -171 144 -171c68 0 102 51 102 153v271h236
c0 -176 18 -293.667 54 -353c27.333 -45.333 76.666 -68 147.999 -68h26v-267h-28c-109.333 0 -198.333 50.667 -267 152c-57.333 -101.333 -136 -152 -236 -152c-112 0 -205.667 46.333 -281 139c-21.333 -44 -58.666 -79 -111.999 -105c-47.333 -22.667 -98 -34 -152 -34
c-52.667 0 -102.667 14 -150 42c-49.333 29.333 -84 67.333 -104 114zM1019 953h-211v215h211v-215zM756 953h-209v215h209v-215zM884 1206h-215v213h215v-213z" />
    <glyph glyph-name="afii62792" unicode="&#x635;" horiz-adv-x="2641" arabic-form="final" 
d="M2026 268c138.667 0 208 58 208 174c0 41.333 -15 74.833 -45 100.5s-66 38.5 -108 38.5c-60.667 0 -125.667 -30 -195 -90c-48.667 -42.667 -115.667 -117 -201 -223h341zM1481 46c0 -244 -94.665 -427.668 -283.998 -551.001c-119.333 -77.333 -254.333 -116 -405 -116
c-222 0 -387.667 74.333 -497 223c-85.333 116 -128 258.333 -128 427c0 26 6.66699 70.333 20 133c15.333 73.333 32.666 131 51.999 173l206 -73c-34.667 -84.667 -52 -163.667 -52 -237c0 -129.333 47 -224.333 141 -285c71.333 -46 162 -69 272 -69
c132.667 0 236 32 310 96c78 68 117 167 117 297c0 71.333 -20.667 160 -62 266c-34.667 88.667 -76.334 171.334 -125.001 248.001l215 131c104 -231.333 180.333 -356 229 -374c211.333 328.667 420 493 626 493c90 0 172.667 -38.667 248 -116
c71.333 -72.667 107 -147.667 107 -225c0 -90 -7.33301 -151.333 -22 -184c31.333 -23.333 87 -35 167 -35h25v-267h-30c-47.333 0 -95.666 11 -145 33c-54 24 -92 54.667 -114 92c-56 -83.333 -156.667 -125 -302 -125h-434c-71.333 0 -116.333 15 -135 45z" />
    <glyph glyph-name="afii62790" unicode="&#x635;" horiz-adv-x="1491" arabic-form="initial" 
d="M485 309c234 349.333 453.333 523.998 658 523.998c94 0 175.667 -39.667 245 -119c67.333 -76.667 101 -162.667 101 -258c0 -153.333 -44.667 -270.666 -134 -351.999c-75.333 -68.667 -168.333 -103 -279 -103h-440c-150 0 -251.333 52.333 -304 157
c-26 -52 -55 -88.667 -87 -110c-47.333 -31.333 -119 -47 -215 -47h-100v267h84c88.667 0 133 39 133 117v280h241v-203c0 -27.333 9.83301 -56.666 29.5 -87.999s42.167 -53 67.5 -65zM1052 269.998c139.333 0 209 58.333 209 175c0 41.333 -16 75.333 -48 102
c-30 24.667 -66.333 37 -109 37c-60 0 -124.333 -30 -193 -90c-50 -43.333 -117.333 -118 -202 -224h343z" />
    <glyph glyph-name="afii62791" unicode="&#x635;" horiz-adv-x="1640" arabic-form="medial" 
d="M1046 268c139.333 0 209 57.999 209 173.999c0 41.333 -16 75.333 -48 102c-30 24.667 -66.333 37 -109 37c-60 0 -124 -30 -192 -90c-49.333 -43.333 -116 -117.666 -200 -222.999h340zM1459 302.999c35.333 -23.333 86.667 -34.999 154 -34.999h27v-267h-29
c-109.333 0 -194.666 38.333 -255.999 115c-69.333 -76.667 -164.333 -115 -285 -115h-438c-148.667 0 -249.334 52 -302.001 156c-36 -55.333 -60.667 -88.333 -74 -99c-48 -38 -123 -57 -225 -57h-101v267h89c84.667 0 127 38.333 127 115v278h240v-202
c0 -70.667 30 -120.334 90 -149.001c231.333 345.333 451.333 518 660 518c96.667 0 179 -38.667 247 -116c65.333 -74.667 98 -161 98 -259c0 -37.333 -7.33301 -87.333 -22 -150z" />
    <glyph glyph-name="afii62795" unicode="&#x636;" horiz-adv-x="2641" arabic-form="final" 
d="M2026 268c138.667 0 208 58 208 174c0 41.333 -15 74.833 -45 100.5s-66 38.5 -108 38.5c-60.667 0 -125.667 -30 -195 -90c-48.667 -42.667 -115.667 -117 -201 -223h341zM1481 46c0 -244 -94.665 -427.668 -283.998 -551.001c-119.333 -77.333 -254.333 -116 -405 -116
c-222 0 -387.667 74.333 -497 223c-85.333 116 -128 258.333 -128 427c0 26 6.66699 70.333 20 133c15.333 73.333 32.666 131 51.999 173l206 -73c-34.667 -84.667 -52 -163.667 -52 -237c0 -129.333 47 -224.333 141 -285c71.333 -46 162 -69 272 -69
c132.667 0 236 32 310 96c78 68 117 167 117 297c0 71.333 -20.667 160 -62 266c-34.667 88.667 -76.334 171.334 -125.001 248.001l215 131c104 -231.333 180.333 -356 229 -374c211.333 328.667 420 493 626 493c90 0 172.667 -38.667 248 -116
c71.333 -72.667 107 -147.667 107 -225c0 -90 -7.33301 -151.333 -22 -184c31.333 -23.333 87 -35 167 -35h25v-267h-30c-47.333 0 -95.666 11 -145 33c-54 24 -92 54.667 -114 92c-56 -83.333 -156.667 -125 -302 -125h-434c-71.333 0 -116.333 15 -135 45zM1650 970.999
h-237v237h237v-237z" />
    <glyph glyph-name="afii62793" unicode="&#x636;" horiz-adv-x="1491" arabic-form="initial" 
d="M485 309c234 349.333 453.333 523.998 658 523.998c94 0 175.667 -39.667 245 -119c67.333 -76.667 101 -162.667 101 -258c0 -153.333 -44.667 -270.666 -134 -351.999c-75.333 -68.667 -168.333 -103 -279 -103h-440c-150 0 -251.333 52.333 -304 157
c-26 -52 -55 -88.667 -87 -110c-47.333 -31.333 -119 -47 -215 -47h-100v267h84c88.667 0 133 39 133 117v280h241v-203c0 -27.333 9.83301 -56.666 29.5 -87.999s42.167 -53 67.5 -65zM1052 269.998c139.333 0 209 58.333 209 175c0 41.333 -16 75.333 -48 102
c-30 24.667 -66.333 37 -109 37c-60 0 -124.333 -30 -193 -90c-50 -43.333 -117.333 -118 -202 -224h343zM667 974.998h-237v237h237v-237z" />
    <glyph glyph-name="afii62794" unicode="&#x636;" horiz-adv-x="1640" arabic-form="medial" 
d="M1046 268c139.333 0 209 57.999 209 173.999c0 41.333 -16 75.333 -48 102c-30 24.667 -66.333 37 -109 37c-60 0 -124 -30 -192 -90c-49.333 -43.333 -116 -117.666 -200 -222.999h340zM1459 302.999c35.333 -23.333 86.667 -34.999 154 -34.999h27v-267h-29
c-109.333 0 -194.666 38.333 -255.999 115c-69.333 -76.667 -164.333 -115 -285 -115h-438c-148.667 0 -249.334 52 -302.001 156c-36 -55.333 -60.667 -88.333 -74 -99c-48 -38 -123 -57 -225 -57h-101v267h89c84.667 0 127 38.333 127 115v278h240v-202
c0 -70.667 30 -120.334 90 -149.001c231.333 345.333 451.333 518 660 518c96.667 0 179 -38.667 247 -116c65.333 -74.667 98 -161 98 -259c0 -37.333 -7.33301 -87.333 -22 -150zM686.001 992h-237v237h237v-237z" />
    <glyph glyph-name="afii62798" unicode="&#x637;" horiz-adv-x="1789" arabic-form="final" 
d="M1397 442c0 40 -15.168 72.666 -45.501 97.999s-66.166 38 -107.499 38c-106 0 -241.333 -103.333 -406 -310h371c55.333 0 100.5 15.333 135.5 46s52.5 73.334 52.5 128.001zM166.999 122.999v152.002h243c30.667 0 56.834 12 78.501 36s32.5 51.667 32.5 83v840h237
v-736c68 89.333 141.667 163.333 221 222c101.333 74.667 197.666 111.667 288.999 111c98 -0.666992 182.667 -39.334 254 -116.001s107 -164.334 107 -263.001c0 -45.333 -5.66699 -95 -17 -149c27.333 -23.333 78 -35 152 -35h25v-267h-29c-64 0 -121 14.333 -171 43
c-37.333 21.333 -64.333 45.333 -81 72c-72.667 -76.667 -168.667 -115 -288 -115h-695c-45.333 0 -107.333 14.333 -186 43c-66.667 24.667 -124 51 -172 79z" />
    <glyph glyph-name="afii62796" unicode="&#x637;" horiz-adv-x="1270" arabic-form="initial" 
d="M1049 442c0 40 -15.667 72.999 -47 98.999c-28.667 24.667 -63.667 37 -105 37c-106 0 -241.667 -103.333 -407 -310h372c56 0 101.167 15.333 135.5 46s51.5 73.334 51.5 128.001zM872 0.999023h-942.001v267h82c108 0 162 42 162 126v840h236v-736
c68.667 90 142.334 164 221.001 222c101.333 74.667 198 111.667 290 111c96.667 -0.666992 179.667 -42.667 249 -126c65.333 -78.667 98 -167.334 98 -266.001c0 -151.333 -53.333 -267.666 -160 -348.999c-77.333 -59.333 -156 -89 -236 -89z" />
    <glyph glyph-name="afii62797" unicode="&#x637;" horiz-adv-x="1442" arabic-form="medial" 
d="M1442 1h-29c-120.667 0 -205 38.333 -253 115c-72 -76.667 -168 -115 -288 -115h-942v267h82c54 0 93 7.66699 117 23c30 18.667 45 53 45 103v840h236v-736c68.667 90 142.334 164 221.001 222c101.333 74.667 198 111.667 290 111
c96.667 -0.666992 181 -39.5 253 -116.5s108 -164.167 108 -261.5c0 -46 -6 -96 -18 -150c27.333 -23.333 81.666 -35 162.999 -35h15v-267zM1049 442c0 40 -15.667 72.999 -47 98.999c-28.667 24.667 -63.667 37 -105 37c-106 0 -241.667 -103.333 -407 -310h372
c56 0 101.167 15.333 135.5 46s51.5 73.334 51.5 128.001z" />
    <glyph glyph-name="afii62801" unicode="&#x638;" horiz-adv-x="1789" arabic-form="final" 
d="M1397 442c0 40 -15.168 72.666 -45.501 97.999s-66.166 38 -107.499 38c-106 0 -241.333 -103.333 -406 -310h371c55.333 0 100.5 15.333 135.5 46s52.5 73.334 52.5 128.001zM166.999 122.999v152.002h243c30.667 0 56.834 12 78.501 36s32.5 51.667 32.5 83v840h237
v-736c68 89.333 141.667 163.333 221 222c101.333 74.667 197.666 111.667 288.999 111c98 -0.666992 182.667 -39.334 254 -116.001s107 -164.334 107 -263.001c0 -45.333 -5.66699 -95 -17 -149c27.333 -23.333 78 -35 152 -35h25v-267h-29c-64 0 -121 14.333 -171 43
c-37.333 21.333 -64.333 45.333 -81 72c-72.667 -76.667 -168.667 -115 -288 -115h-695c-45.333 0 -107.333 14.333 -186 43c-66.667 24.667 -124 51 -172 79zM1214 1025h-237v237h237v-237z" />
    <glyph glyph-name="afii62799" unicode="&#x638;" horiz-adv-x="1270" arabic-form="initial" 
d="M863 1036h-237v237h237v-237zM1049 442c0 40 -15.667 72.999 -47 98.999c-28.667 24.667 -63.667 37 -105 37c-106 0 -241.667 -103.333 -407 -310h372c56 0 101.167 15.333 135.5 46s51.5 73.334 51.5 128.001zM872 0.999023h-942.001v267h82c108 0 162 42 162 126v840
h236v-736c68.667 90 142.334 164 221.001 222c101.333 74.667 198 111.667 290 111c96.667 -0.666992 179.667 -42.667 249 -126c65.333 -78.667 98 -167.334 98 -266.001c0 -151.333 -53.333 -267.666 -160 -348.999c-77.333 -59.333 -156 -89 -236 -89z" />
    </font>
</defs>
</svg>
