<?xml version="1.0" standalone="no"?>
<!DOCTYPE svg PUBLIC "-//W3C//DTD SVG 1.1//EN" "http://www.w3.org/Graphics/SVG/1.1/DTD/svg11.dtd" >
<svg>
<metadata>
Created by FontForge 20090914 at Tue Aug 25 16:01:28 2015
 By www-data
Typeface &#194;&#169; The scict.ir Corporation plc. Data &#194;&#169; The scict.ir Corporation plc/Type Solutions Inc. 2012-2013. All Rights Reserved.Modify  by Hossein Zahedi.
</metadata>
<defs>
<font id="IRYekan" horiz-adv-x="0" >
  <font-face 
    font-family="IRYekan"
    font-weight="400"
    font-stretch="normal"
    units-per-em="2048"
    panose-1="2 0 5 6 0 0 0 2 0 2"
    ascent="1638"
    descent="-410"
    x-height="850"
    cap-height="1173"
    bbox="-431 -1134 2959 2678.55"
    underline-thickness="60"
    underline-position="-40"
    unicode-range="U+0020-U+FFFC"
  />
<missing-glyph horiz-adv-x="2048" 
 />
    <glyph glyph-name="afii64184" unicode="&#xfedf;&#xfee0;&#x651;&#x670;&#xfeea;" horiz-adv-x="2859" arabic-form="isolated" 
d="M2697 352c0 -88.667 -22.335 -162.335 -67.002 -221.002c-68.667 -87.333 -169 -131 -301 -131h-218c-87.333 0 -152 4.66699 -194 14c-41.333 11.333 -86.333 37.333 -135 78c-54.667 -44.667 -106 -72 -154 -82c-39.333 -6.66699 -139.666 -10 -300.999 -10
c-91.333 2.66699 -154 16.334 -188 41.001c-18 8 -98 76.333 -240 205c-86 -182 -226 -273 -420 -273c-118.667 0 -221 42.333 -307 127s-129 188.667 -129 312c0 83.333 29.333 168 88 254c31.333 48.667 91.333 116 180 202l-67 78l157 156l684 -727
c56 -60 98.333 -101.667 127 -125c30 -15.333 78.667 -23 146 -23v-2l61 -2h78c58.667 0 100.334 14.333 125.001 43c9.33301 10 18.333 28.667 27 56c9.33301 26.667 14 69 14 127v777h225v-820c0 -80.667 25.333 -134 76 -160c49.333 -12.667 121 -19 215 -19h139
c60 0 103.667 19.333 131 58c16.667 32.667 25 87.334 25 164.001v1017h223v-1114zM699.998 394.999c0 38.667 -13.665 80.3311 -40.998 124.998l-182 182c-86 -78.667 -141.333 -138.667 -166 -180c-24.667 -39.333 -37 -81.666 -37 -126.999c0 -38 17.333 -81.667 52 -131
c35.333 -47.333 87.666 -71 156.999 -71c67.333 0 122.666 25.667 165.999 77c34 38.667 51 80.334 51 125.001zM1522 1585l105.999 -0.000976562v-129c0 -20.667 14.667 -32 44 -34s44 9.33301 44 34v129h103v-129c0 -14 5 -24 15 -30s24.667 -8.66699 44 -8
s29 11.334 29 32.001v135h110v-131c0 -44 -10.667 -77 -32 -99c-23.333 -34 -57 -51 -101 -51c-43.333 0 -80.666 17 -111.999 51c-20.667 -34 -61.667 -51 -123 -51c-40 0 -71.167 14 -93.5 42s-33.5 64 -33.5 108v131zM1811 1692h-104v352h104v-352z" />
    <glyph glyph-name="afii62834" unicode="&#xfedf;&#xfe82;" horiz-adv-x="1328" arabic-form="isolated" 
d="M1235 352c0 -88.667 -20.001 -162.334 -60.001 -221.001c-65.333 -87.333 -164.333 -131 -297 -131h-217c-297.333 0 -446 117.333 -446 352v1114h229v-1017c0 -109.333 13.667 -174.333 41 -195c18 -18 76.667 -27 176 -27h203c58.667 0 102.334 19.333 131.001 58
c14 32.667 21 87.334 21 164.001v1017h219v-1114zM698.999 1618l-472 -0.000976562c-62 2 -107.5 -11.5 -136.5 -40.5s-57.833 -70.833 -86.5 -125.5l-177 66c50.667 122.667 95 198.334 133 227.001c32 27.333 65.667 47 101 59s82 18.667 140 20h498v-206z" />
    <glyph glyph-name="afii62835" unicode="&#xfee0;&#xfe82;" horiz-adv-x="1423" arabic-form="final" 
d="M1462 0c-133.333 0 -237.001 50.666 -311.001 151.999c-76.667 -101.333 -179 -152 -307 -152h-483c-119.333 0 -172.666 75.667 -159.999 227h624c64.667 0 109 19.333 133 58c15.333 32.667 23 87.334 23 164.001v1017h229v-1040c0 -82 22.667 -136 68 -162
c34 -24.667 95.333 -37 184 -37v-227zM431.999 346.999h-226v1119h226v-1088v-31zM712.999 1627l-472 -0.000976562c-62 2 -107.5 -11.5 -136.5 -40.5s-57.833 -70.833 -86.5 -125.5l-177 66c50.667 122.667 95 198.334 133 227.001c32 27.333 65.667 47 101 59
s82 18.667 140 20h498v-206z" />
    <glyph glyph-name="afii62836" unicode="&#xfedf;&#xfe84;" horiz-adv-x="1270" arabic-form="isolated" 
d="M1197 352c0 -88.667 -20.001 -162.334 -60.001 -221.001c-65.333 -87.333 -164.333 -131 -297 -131h-217c-297.333 0 -446 117.333 -446 352v1114h229v-1017c0 -109.333 13.667 -174.333 41 -195c18 -18 76.667 -27 176 -27h203c58.667 0 102.334 19.333 131.001 58
c14 32.667 21 87.334 21 164.001v1017h219v-1114zM563.999 1743l-458 -165.997l-31 101l104 39c-25.333 22 -42.166 46.667 -50.499 74s-10.166 54.5 -5.49902 81.5s15 53 31 78s35.667 46.333 59 64s49.666 30.5 78.999 38.5s59.666 8.66699 90.999 2
c18.667 -3.33301 35.834 -9.83301 51.501 -19.5s32.167 -22.167 49.5 -37.5l-66 -96c-16.667 16.667 -31.167 26.667 -43.5 30s-23.833 5.66602 -34.5 6.99902c-9.33301 0.666992 -19.5 0 -30.5 -2s-21.167 -5.83301 -30.5 -11.5s-17.5 -12.834 -24.5 -21.501
s-11.167 -19 -12.5 -31c-1.33301 -10.667 -0.333008 -20.334 3 -29.001s8.16602 -16.167 14.499 -22.5s14 -11.5 23 -15.5s18.5 -6.33301 28.5 -7c42.667 -4.66699 112 12 208 50z" />
    <glyph glyph-name="afii62837" unicode="&#xfee0;&#xfe84;" horiz-adv-x="1412" arabic-form="final" 
d="M1451 0c-133.333 0 -237.001 50.666 -311.001 151.999c-76.667 -101.333 -179 -152 -307 -152h-483c-119.333 0 -172.666 75.667 -159.999 227h624c64.667 0 109 19.333 133 58c15.333 32.667 23 87.334 23 164.001v1017h229v-1040c0 -82 22.667 -136 68 -162
c34 -24.667 95.333 -37 184 -37v-227zM420.999 346.999h-226v1119h226v-1088v-31zM545.999 1757l-458 -165.997l-31 101l104 39c-25.333 22 -42.166 46.667 -50.499 74s-10.166 54.5 -5.49902 81.5s15 53 31 78s35.667 46.333 59 64s49.666 30.5 78.999 38.5
s59.666 8.66699 90.999 2c18.667 -3.33301 35.834 -9.83301 51.501 -19.5s32.167 -22.167 49.5 -37.5l-66 -96c-16.667 16.667 -31.167 26.667 -43.5 30s-23.833 5.66602 -34.5 6.99902c-9.33301 0.666992 -19.5 0 -30.5 -2s-21.167 -5.83301 -30.5 -11.5
s-17.5 -12.834 -24.5 -21.501s-11.167 -19 -12.5 -31c-1.33301 -10.667 -0.333008 -20.334 3 -29.001s8.16602 -16.167 14.499 -22.5s14 -11.5 23 -15.5s18.5 -6.33301 28.5 -7c42.667 -4.66699 112 12 208 50z" />
    <glyph glyph-name="afii62838" unicode="&#xfedf;&#xfe88;" horiz-adv-x="1269" arabic-form="isolated" 
d="M603 -484l-458 -165.997l-31 101l104 39c-25.333 22 -42.166 46.667 -50.499 74s-10.166 54.5 -5.49902 81.5s15 53 31 78s35.667 46.333 59 64s49.666 30.5 78.999 38.5s59.666 8.66699 90.999 2c18.667 -3.33301 35.834 -9.83301 51.501 -19.5
s32.167 -22.167 49.5 -37.5l-66 -96c-16.667 16.667 -31.167 26.667 -43.5 30s-23.833 5.66602 -34.5 6.99902c-9.33301 0.666992 -19.5 0 -30.5 -2s-21.167 -5.83301 -30.5 -11.5s-17.5 -12.834 -24.5 -21.501s-11.167 -19 -12.5 -31
c-1.33301 -10.667 -0.333008 -20.334 3 -29.001s8.16602 -16.167 14.499 -22.5s14 -11.5 23 -15.5s18.5 -6.33301 28.5 -7c42.667 -4.66699 112 12 208 50zM1182 352.003c0 -88.667 -20.001 -162.334 -60.001 -221.001c-65.333 -87.333 -164.333 -131 -297 -131h-217
c-297.333 0 -446 117.333 -446 352v1114h229v-1017c0 -109.333 13.667 -174.333 41 -195c18 -18 76.667 -27 176 -27h203c58.667 0 102.334 19.333 131.001 58c14 32.667 21 87.334 21 164.001v1017h219v-1114z" />
    <glyph glyph-name="afii62839" unicode="&#xfee0;&#xfe88;" horiz-adv-x="1391" arabic-form="final" 
d="M1430 0c-133.333 0 -237.001 50.666 -311.001 151.999c-76.667 -101.333 -179 -152 -307 -152h-483c-119.333 0 -172.666 75.667 -159.999 227h624c64.667 0 109 19.333 133 58c15.333 32.667 23 87.334 23 164.001v1017h229v-1040c0 -82 22.667 -136 68 -162
c34 -24.667 95.333 -37 184 -37v-227zM399.999 346.999h-226v1119h226v-1088v-31zM606.999 -512.001l-458 -165.997l-31 101l104 39c-25.333 22 -42.166 46.667 -50.499 74s-10.166 54.5 -5.49902 81.5s15 53 31 78s35.667 46.333 59 64s49.666 30.5 78.999 38.5
s59.666 8.66699 90.999 2c18.667 -3.33301 35.834 -9.83301 51.501 -19.5s32.167 -22.167 49.5 -37.5l-66 -96c-16.667 16.667 -31.167 26.667 -43.5 30s-23.833 5.66602 -34.5 6.99902c-9.33301 0.666992 -19.5 0 -30.5 -2s-21.167 -5.83301 -30.5 -11.5
s-17.5 -12.834 -24.5 -21.501s-11.167 -19 -12.5 -31c-1.33301 -10.667 -0.333008 -20.334 3 -29.001s8.16602 -16.167 14.499 -22.5s14 -11.5 23 -15.5s18.5 -6.33301 28.5 -7c42.667 -4.66699 112 12 208 50z" />
    <glyph glyph-name="afii62840" unicode="&#xfedf;&#xfe8e;" horiz-adv-x="1275" arabic-form="isolated" 
d="M1182 352c0 -88.667 -20.001 -162.334 -60.001 -221.001c-65.333 -87.333 -164.333 -131 -297 -131h-217c-297.333 0 -446 117.333 -446 352v1114h229v-1017c0 -109.333 13.667 -174.333 41 -195c18 -18 76.667 -27 176 -27h203c58.667 0 102.334 19.333 131.001 58
c14 32.667 21 87.334 21 164.001v1017h219v-1114z" />
    <glyph glyph-name="afii62841" unicode="&#xfee0;&#xfe8e;" horiz-adv-x="1337" arabic-form="final" 
d="M1376 0c-133.333 0 -237.001 50.666 -311.001 151.999c-76.667 -101.333 -179 -152 -307 -152h-483c-119.333 0 -172.666 75.667 -159.999 227h624c64.667 0 109 19.333 133 58c15.333 32.667 23 87.334 23 164.001v1017h229v-1040c0 -82 22.667 -136 68 -162
c34 -24.667 95.333 -37 184 -37v-227zM345.999 346.999h-226v1119h226v-1088v-31z" />
    <glyph glyph-name="uni0675.fina" unicode="&#x675;" horiz-adv-x="655" 
d="M690 0c-199.333 0 -335.666 37.002 -408.999 111.002c-52 57.333 -78 137.666 -78 240.999v1082h229v-985c0 -102.667 13.667 -165.334 41 -188.001s99.666 -34 216.999 -34v-227zM586 1710l-458 -165.997l-31 101l104 39c-25.333 22 -42.166 46.667 -50.499 74
s-10.166 54.5 -5.49902 81.5s15 53 31 78s35.667 46.333 59 64s49.666 30.5 78.999 38.5s59.666 8.66699 90.999 2c18.667 -3.33301 35.834 -9.83301 51.501 -19.5s32.167 -22.167 49.5 -37.5l-66 -96c-16.667 16.667 -31.167 26.667 -43.5 30
s-23.833 5.66602 -34.5 6.99902c-9.33301 0.666992 -19.5 0 -30.5 -2s-21.167 -5.83301 -30.5 -11.5s-17.5 -12.834 -24.5 -21.501s-11.167 -19 -12.5 -31c-1.33301 -10.667 -0.333008 -20.334 3 -29.001s8.16602 -16.167 14.499 -22.5s14 -11.5 23 -15.5
s18.5 -6.33301 28.5 -7c42.667 -4.66699 112 12 208 50z" />
    <glyph glyph-name="uni0676.fina" unicode="&#x676;" horiz-adv-x="1133" 
d="M1169 0l-154.998 -0.000976562c0 -151.333 -57.333 -288.666 -172 -411.999c-49.333 -50 -110.833 -90.167 -184.5 -120.5s-150.834 -45.5 -231.501 -45.5h-295l-33 226h291c112 0 204.167 35.5 276.5 106.5s108.5 152.833 108.5 245.5c-180 0 -315 24 -405 72
c-124.667 60 -187 179.333 -187 358c0 192.667 46.667 330 140 412c58.667 47.333 148.667 71 270 71c173.333 0 294.666 -73.667 363.999 -221c38.667 -94 58 -249 58 -465h155v-227zM784.002 226.999l0.000976562 218.999c0 90.667 -25.667 155.667 -77 195
c-34.667 30 -73 45 -115 45c-58.667 0 -100.334 -15 -125.001 -45c-34 -35.333 -51 -101.666 -51 -198.999c0 -83.333 24.167 -140 72.5 -170s146.833 -45 295.5 -45zM842.003 1258l-458 -165.997l-31 101l104 39c-25.333 22 -42.166 46.667 -50.499 74
s-10.166 54.5 -5.49902 81.5s15 53 31 78s35.667 46.333 59 64s49.666 30.5 78.999 38.5s59.666 8.66699 90.999 2c18.667 -3.33301 35.834 -9.83301 51.501 -19.5s32.167 -22.167 49.5 -37.5l-66 -96c-16.667 16.667 -31.167 26.667 -43.5 30
s-23.833 5.66602 -34.5 6.99902c-9.33301 0.666992 -19.5 0 -30.5 -2s-21.167 -5.83301 -30.5 -11.5s-17.5 -12.834 -24.5 -21.501s-11.167 -19 -12.5 -31c-1.33301 -10.667 -0.333008 -20.334 3 -29.001s8.16602 -16.167 14.499 -22.5s14 -11.5 23 -15.5
s18.5 -6.33301 28.5 -7c42.667 -4.66699 112 12 208 50z" />
    <glyph glyph-name="uni0678.fina" unicode="&#x678;" horiz-adv-x="1636" 
d="M1673 0h-211l11 -111c0 -129.333 -51.667 -239.5 -155 -330.5s-218.333 -136.5 -345 -136.5h-355c-173.333 0 -315 66.333 -425 199c-93.333 124 -140 277.667 -140 461v407h232v-499c0 -79.333 28 -153.666 84 -222.999c72 -79.333 172.333 -119 301 -119h293
c76 0 140 20.333 192 61c58.667 45.333 88 109.666 88 192.999c0 42 -35.833 68.833 -107.5 80.5s-192.167 17.5 -361.5 17.5l-20 227h919v-227zM774 914l-458 -165.997l-31 101l104 39c-25.333 22 -42.166 46.667 -50.499 74s-10.166 54.5 -5.49902 81.5s15 53 31 78
s35.667 46.333 59 64s49.666 30.5 78.999 38.5s59.666 8.66699 90.999 2c18.667 -3.33301 35.834 -9.83301 51.501 -19.5s32.167 -22.167 49.5 -37.5l-66 -96c-16.667 16.667 -31.167 26.667 -43.5 30s-23.833 5.66602 -34.5 6.99902c-9.33301 0.666992 -19.5 0 -30.5 -2
s-21.167 -5.83301 -30.5 -11.5s-17.5 -12.834 -24.5 -21.501s-11.167 -19 -12.5 -31c-1.33301 -10.667 -0.333008 -20.334 3 -29.001s8.16602 -16.167 14.499 -22.5s14 -11.5 23 -15.5s18.5 -6.33301 28.5 -7c42.667 -4.66699 112 12 208 50z" />
    <glyph glyph-name="afii57459" unicode="&#x6a1;" horiz-adv-x="1066" 
d="M1001 381c0 -132.667 -44.334 -231.668 -133.001 -297.001c-73.333 -56 -147.666 -84 -222.999 -84h-686v227h690c86 0 129 57.333 129 172c-214 0 -349 7 -405 21c-127.333 52 -191 156.333 -191 313c0 114.667 39 204.834 117 270.501s166.667 98.5 266 98.5
c112 0 208.333 -37.667 289 -113c48 -42 84.167 -91 108.5 -147s36.5 -121.667 36.5 -197zM759.999 611.999c0 80.667 -24.666 147 -73.999 199c-38 35.333 -85 53 -141 53c-44 0 -80 -11.167 -108 -33.5s-42 -49.833 -42 -82.5c0 -71.333 20.667 -112.333 62 -123
c13.333 -8.66699 63.666 -13 150.999 -13h152z" />
    <glyph glyph-name="afii57374" unicode="&#x6a1;" horiz-adv-x="1087" 
d="M1149 0l-74 6.00098h-61l-162 4c-62.667 0 -123.334 5 -182.001 15l-103 36c-65.333 -40.667 -281.666 -61 -648.999 -61v227h338c-83.333 97.333 -125 200.666 -125 309.999c0 106 36.833 195.167 110.5 267.5s173.5 108.5 299.5 108.5c117.333 0 212 -42.333 284 -127
c64.667 -80 97 -176 97 -288c0 -100 -26.667 -190.333 -80 -271h307v-227zM717 489.001c0 52 -20.833 98.833 -62.5 140.5s-84.5 62.5 -128.5 62.5c-39.333 0 -78.833 -18 -118.5 -54s-59.5 -76.667 -59.5 -122c0 -91.333 76.667 -171.333 230 -240
c92.667 70 139 141 139 213z" />
    <glyph glyph-name="afii52258" unicode="&#x6a1;" horiz-adv-x="2054" 
d="M2085 0c-266 0 -430.667 17.001 -494 51.001c-21.333 -31.333 -165.333 -47 -432 -47l-760 -4c-86 0 -161.667 43 -227 129c-49.333 74 -74 155.333 -74 244v346h226v-313c0 -119.333 56.667 -179 170 -179h790c-83.333 97.333 -125 200.666 -125 309.999
c0 96.667 36.5 183.5 109.5 260.5s171.833 115.5 296.5 115.5c110.667 0 204 -42.333 280 -127c67.333 -80 101 -175.333 101 -286c0 -98.667 -26.667 -189.667 -80 -273h219v-227zM1741 489.001c0 52 -19.833 98.832 -59.5 140.499s-82.167 62.5 -127.5 62.5
c-38 0 -78.5 -16.667 -121.5 -50s-64.5 -74 -64.5 -122c0 -87.333 78 -168.666 234 -243.999c92.667 57.333 139 128.333 139 213z" />
    <glyph glyph-name="uniFB51" unicode="&#x671;" horiz-adv-x="655" arabic-form="final" 
d="M690 0c-199.333 0 -335.666 37.002 -408.999 111.002c-52 57.333 -78 137.666 -78 240.999v1082h229v-985c0 -102.667 13.667 -165.334 41 -188.001s99.666 -34 216.999 -34v-227zM288 1736c26 19.333 50.498 31 73.498 35s43.333 1.5 61 -7.5
s31.834 -24.167 42.501 -45.5s16.334 -47.333 17.001 -78l-2 -99h-399v73h68zM248.998 1614h159v37c-1.33301 23.333 -9.5 38.5 -24.5 45.5s-35.167 1.16699 -60.5 -17.5z" />
    <glyph glyph-name="uniFB54" unicode="&#x67b;" horiz-adv-x="305" arabic-form="initial" 
 />
    <glyph glyph-name="uniFB55" unicode="&#x67b;" horiz-adv-x="515" arabic-form="medial" 
 />
    <glyph glyph-name="afii62958" unicode="&#x67e;" horiz-adv-x="2173" arabic-form="final" 
d="M2214 0l-143.001 6l-97 14c-52 15.333 -93 39.333 -123 72c-76 -61.333 -149 -92 -219 -92h-1202c-90 -0 -167.167 38.833 -231.5 116.5s-96.5 163.167 -96.5 256.5v346h230v-313c0 -62 7.33301 -102.333 22 -121c24.667 -38.667 73.334 -58 146.001 -58h1061
c64 0 105.667 7.66699 125 23c31.333 27.333 47 79.333 47 156v313h231v-313c0 -56 12.333 -96.333 37 -121c38 -38.667 109 -58 213 -58v-227zM1193 -716c0 -21.333 -4.16699 -41.333 -12.5 -60s-19.5 -35 -33.5 -49s-30.333 -25 -49 -33s-38.334 -12 -59.001 -12
c-21.333 0 -41.166 4 -59.499 12s-34.5 19 -48.5 33s-25 30.333 -33 49s-12 38.667 -12 60c0 20.667 4 40.334 12 59.001s19 35 33 49s30.167 25.167 48.5 33.5s38.166 12.5 59.499 12.5c20.667 0 40.334 -4.16699 59.001 -12.5s35 -19.5 49 -33.5s25.167 -30.333 33.5 -49
s12.5 -38.334 12.5 -59.001zM1017 -368c0 -21.333 -4.16699 -41.333 -12.5 -60s-19.5 -35 -33.5 -49s-30.333 -25 -49 -33s-38.334 -12 -59.001 -12c-21.333 0 -41.166 4 -59.499 12s-34.5 19 -48.5 33s-25 30.333 -33 49s-12 38.667 -12 60c0 20.667 4 40.334 12 59.001
s19 35 33 49s30.167 25.167 48.5 33.5s38.166 12.5 59.499 12.5c20.667 0 40.334 -4.16699 59.001 -12.5s35 -19.5 49 -33.5s25.167 -30.333 33.5 -49s12.5 -38.334 12.5 -59.001zM1387 -368c0 -21.333 -4.16699 -41.333 -12.5 -60s-19.5 -35 -33.5 -49s-30.333 -25 -49 -33
s-38.334 -12 -59.001 -12c-21.333 0 -41.333 4 -60 12s-35 19 -49 33s-25 30.333 -33 49s-12 38.667 -12 60c0 20.667 4 40.334 12 59.001s19 35 33 49s30.333 25.167 49 33.5s38.667 12.5 60 12.5c20.667 0 40.334 -4.16699 59.001 -12.5s35 -19.5 49 -33.5
s25.167 -30.333 33.5 -49s12.5 -38.334 12.5 -59.001z" />
    <glyph glyph-name="afii62956" unicode="&#x67e;" horiz-adv-x="743" arabic-form="initial" 
d="M662 373c0 -100 -33.166 -187.167 -99.499 -261.5s-144.5 -111.5 -234.5 -111.5h-371v227h299c75.333 0 126.666 19.333 153.999 58c10.667 18.667 16 59 16 121v313h236v-346zM533.001 -718c0 -21.333 -4.16699 -41.333 -12.5 -60s-19.5 -35 -33.5 -49
s-30.333 -25 -49 -33s-38.334 -12 -59.001 -12c-21.333 0 -41.166 4 -59.499 12s-34.5 19 -48.5 33s-25 30.333 -33 49s-12 38.667 -12 60c0 20.667 4 40.334 12 59.001s19 35 33 49s30.167 25.167 48.5 33.5s38.166 12.5 59.499 12.5
c20.667 0 40.334 -4.16699 59.001 -12.5s35 -19.5 49 -33.5s25.167 -30.333 33.5 -49s12.5 -38.334 12.5 -59.001zM357.001 -370c0 -21.333 -4.16699 -41.333 -12.5 -60s-19.5 -35 -33.5 -49s-30.333 -25 -49 -33s-38.334 -12 -59.001 -12c-21.333 0 -41.166 4 -59.499 12
s-34.5 19 -48.5 33s-25 30.333 -33 49s-12 38.667 -12 60c0 20.667 4 40.334 12 59.001s19 35 33 49s30.167 25.167 48.5 33.5s38.166 12.5 59.499 12.5c20.667 0 40.334 -4.16699 59.001 -12.5s35 -19.5 49 -33.5s25.167 -30.333 33.5 -49s12.5 -38.334 12.5 -59.001z
M727.001 -370c0 -21.333 -4.16699 -41.333 -12.5 -60s-19.5 -35 -33.5 -49s-30.333 -25 -49 -33s-38.334 -12 -59.001 -12c-21.333 0 -41.333 4 -60 12s-35 19 -49 33s-25 30.333 -33 49s-12 38.667 -12 60c0 20.667 4 40.334 12 59.001s19 35 33 49s30.333 25.167 49 33.5
s38.667 12.5 60 12.5c20.667 0 40.334 -4.16699 59.001 -12.5s35 -19.5 49 -33.5s25.167 -30.333 33.5 -49s12.5 -38.334 12.5 -59.001z" />
    <glyph glyph-name="afii52957" unicode="&#x67e;" horiz-adv-x="936" arabic-form="medial" 
d="M983 0l-135 4l-68 10l-53 27l-65 51c-74 -61.333 -147.333 -92 -220 -92h-489v227h422c74.667 0 124.334 19.333 149.001 58c11.333 18.667 17 59 17 121v313h233v-313c0 -72.667 12.333 -120 37 -142c31.333 -24.667 88.666 -37 171.999 -37v-227zM652 -708
c0 -21.333 -4.16699 -41.333 -12.5 -60s-19.5 -35 -33.5 -49s-30.333 -25 -49 -33s-38.334 -12 -59.001 -12c-21.333 0 -41.166 4 -59.499 12s-34.5 19 -48.5 33s-25 30.333 -33 49s-12 38.667 -12 60c0 20.667 4 40.334 12 59.001s19 35 33 49s30.167 25.167 48.5 33.5
s38.166 12.5 59.499 12.5c20.667 0 40.334 -4.16699 59.001 -12.5s35 -19.5 49 -33.5s25.167 -30.333 33.5 -49s12.5 -38.334 12.5 -59.001zM476 -360c0 -21.333 -4.16699 -41.333 -12.5 -60s-19.5 -35 -33.5 -49s-30.333 -25 -49 -33s-38.334 -12 -59.001 -12
c-21.333 0 -41.166 4 -59.499 12s-34.5 19 -48.5 33s-25 30.333 -33 49s-12 38.667 -12 60c0 20.667 4 40.334 12 59.001s19 35 33 49s30.167 25.167 48.5 33.5s38.166 12.5 59.499 12.5c20.667 0 40.334 -4.16699 59.001 -12.5s35 -19.5 49 -33.5s25.167 -30.333 33.5 -49
s12.5 -38.334 12.5 -59.001zM846 -360c0 -21.333 -4.16699 -41.333 -12.5 -60s-19.5 -35 -33.5 -49s-30.333 -25 -49 -33s-38.334 -12 -59.001 -12c-21.333 0 -41.333 4 -60 12s-35 19 -49 33s-25 30.333 -33 49s-12 38.667 -12 60c0 20.667 4 40.334 12 59.001s19 35 33 49
s30.333 25.167 49 33.5s38.667 12.5 60 12.5c20.667 0 40.334 -4.16699 59.001 -12.5s35 -19.5 49 -33.5s25.167 -30.333 33.5 -49s12.5 -38.334 12.5 -59.001z" />
    <glyph glyph-name="uniFB68" unicode="&#x679;" horiz-adv-x="330" arabic-form="initial" 
 />
    <glyph glyph-name="uniFB69" unicode="&#x679;" horiz-adv-x="522" arabic-form="medial" 
 />
    <glyph glyph-name="afii57371" unicode="&#x6a4;" horiz-adv-x="1691" arabic-form="final" 
 />
    <glyph glyph-name="afii57372" unicode="&#x6a4;" horiz-adv-x="714" arabic-form="initial" 
 />
    <glyph glyph-name="afii57369" unicode="&#x6a4;" horiz-adv-x="849" arabic-form="medial" 
 />
    <glyph glyph-name="afii62961" unicode="&#x686;" horiz-adv-x="1513" arabic-form="final" 
d="M1572 0c-128 0 -225.665 16.998 -292.998 50.998c-47.333 24.667 -81.333 61 -102 109l-29 110l-450 -250c-202 -114.667 -303 -256.667 -303 -426c0 -121.333 50.5 -229.666 151.5 -324.999s208.167 -143 321.5 -143h667l19 -232h-627
c-238.667 0 -433.334 86.667 -584.001 260c-110 135.333 -165 284.333 -165 447v47l4 51c21.333 211.333 131 369 329 473l705 385c-36.667 65.333 -87.834 103.833 -153.501 115.5s-268.5 17.5 -608.5 17.5l-33 223h551c153.333 0 271.5 -40.167 354.5 -120.5
s124.5 -197.166 124.5 -350.499l-208 -118c6.66699 -40 37 -66.167 91 -78.5s133.333 -18.5 238 -18.5v-227zM1142 -632.002c0 -21.333 -4.16699 -41.333 -12.5 -60s-19.5 -35 -33.5 -49s-30.333 -25 -49 -33s-38.334 -12 -59.001 -12c-21.333 0 -41.166 4 -59.499 12
s-34.5 19 -48.5 33s-25 30.333 -33 49s-12 38.667 -12 60c0 20.667 4 40.334 12 59.001s19 35 33 49s30.167 25.167 48.5 33.5s38.166 12.5 59.499 12.5c20.667 0 40.334 -4.16699 59.001 -12.5s35 -19.5 49 -33.5s25.167 -30.333 33.5 -49s12.5 -38.334 12.5 -59.001z
M966.002 -284.002c0 -21.333 -4.16699 -41.333 -12.5 -60s-19.5 -35 -33.5 -49s-30.333 -25 -49 -33s-38.334 -12 -59.001 -12c-21.333 0 -41.166 4 -59.499 12s-34.5 19 -48.5 33s-25 30.333 -33 49s-12 38.667 -12 60c0 20.667 4 40.334 12 59.001s19 35 33 49
s30.167 25.167 48.5 33.5s38.166 12.5 59.499 12.5c20.667 0 40.334 -4.16699 59.001 -12.5s35 -19.5 49 -33.5s25.167 -30.333 33.5 -49s12.5 -38.334 12.5 -59.001zM1336 -284.002c0 -21.333 -4.16699 -41.333 -12.5 -60s-19.5 -35 -33.5 -49s-30.333 -25 -49 -33
s-38.334 -12 -59.001 -12c-21.333 0 -41.333 4 -60 12s-35 19 -49 33s-25 30.333 -33 49s-12 38.667 -12 60c0 20.667 4 40.334 12 59.001s19 35 33 49s30.333 25.167 49 33.5s38.667 12.5 60 12.5c20.667 0 40.334 -4.16699 59.001 -12.5s35 -19.5 49 -33.5
s25.167 -30.333 33.5 -49s12.5 -38.334 12.5 -59.001z" />
    <glyph glyph-name="afii62959" unicode="&#x686;" horiz-adv-x="1309" arabic-form="initial" 
d="M1264 442l-525 -297c-114.667 -65.333 -221.5 -105.833 -320.5 -121.5s-256.167 -23.5 -471.5 -23.5v227h182c87.333 0 145.333 4.33301 174 13c95.333 10.667 184.666 35 267.999 73c56 23.333 131.333 64.333 226 123l217 119c-22 57.333 -74 96.333 -156 117
c-73.333 12 -270.666 18 -591.999 18l-33 223h564c311.333 0 467 -157 467 -471zM856 -692c0 -21.333 -4.16699 -41.333 -12.5 -60s-19.5 -35 -33.5 -49s-30.333 -25 -49 -33s-38.334 -12 -59.001 -12c-21.333 0 -41.166 4 -59.499 12s-34.5 19 -48.5 33s-25 30.333 -33 49
s-12 38.667 -12 60c0 20.667 4 40.334 12 59.001s19 35 33 49s30.167 25.167 48.5 33.5s38.166 12.5 59.499 12.5c20.667 0 40.334 -4.16699 59.001 -12.5s35 -19.5 49 -33.5s25.167 -30.333 33.5 -49s12.5 -38.334 12.5 -59.001zM680 -344
c0 -21.333 -4.16699 -41.333 -12.5 -60s-19.5 -35 -33.5 -49s-30.333 -25 -49 -33s-38.334 -12 -59.001 -12c-21.333 0 -41.166 4 -59.499 12s-34.5 19 -48.5 33s-25 30.333 -33 49s-12 38.667 -12 60c0 20.667 4 40.334 12 59.001s19 35 33 49s30.167 25.167 48.5 33.5
s38.166 12.5 59.499 12.5c20.667 0 40.334 -4.16699 59.001 -12.5s35 -19.5 49 -33.5s25.167 -30.333 33.5 -49s12.5 -38.334 12.5 -59.001zM1050 -344c0 -21.333 -4.16699 -41.333 -12.5 -60s-19.5 -35 -33.5 -49s-30.333 -25 -49 -33s-38.334 -12 -59.001 -12
c-21.333 0 -41.333 4 -60 12s-35 19 -49 33s-25 30.333 -33 49s-12 38.667 -12 60c0 20.667 4 40.334 12 59.001s19 35 33 49s30.333 25.167 49 33.5s38.667 12.5 60 12.5c20.667 0 40.334 -4.16699 59.001 -12.5s35 -19.5 49 -33.5s25.167 -30.333 33.5 -49
s12.5 -38.334 12.5 -59.001z" />
    <glyph glyph-name="afii62960" unicode="&#x686;" horiz-adv-x="1309" arabic-form="medial" 
d="M1346 0c-122 0 -211.666 14.334 -268.999 43.001c-38 19.333 -69.333 55.666 -94 108.999l-27 118c-92.667 -58.667 -182.667 -109 -270 -151c-76.667 -34 -139.334 -60 -188.001 -78c-104 -27.333 -287.667 -41 -551 -41v227h182c87.333 0 145.333 4.33301 174 13
c95.333 10.667 184.666 35 267.999 73c56 23.333 131.333 64.333 226 123l217 119c-22 57.333 -74 96.333 -156 117c-73.333 12 -270.666 18 -591.999 18l-33 223h564c148.667 0 263.667 -40.167 345 -120.5s122 -197.833 122 -352.5l-213 -116
c0 -64.667 98.333 -97 295 -97v-227zM830.001 -691.999c0 -21.333 -4.16699 -41.333 -12.5 -60s-19.5 -35 -33.5 -49s-30.333 -25 -49 -33s-38.334 -12 -59.001 -12c-21.333 0 -41.166 4 -59.499 12s-34.5 19 -48.5 33s-25 30.333 -33 49s-12 38.667 -12 60
c0 20.667 4 40.334 12 59.001s19 35 33 49s30.167 25.167 48.5 33.5s38.166 12.5 59.499 12.5c20.667 0 40.334 -4.16699 59.001 -12.5s35 -19.5 49 -33.5s25.167 -30.333 33.5 -49s12.5 -38.334 12.5 -59.001zM654.001 -343.999c0 -21.333 -4.16699 -41.333 -12.5 -60
s-19.5 -35 -33.5 -49s-30.333 -25 -49 -33s-38.334 -12 -59.001 -12c-21.333 0 -41.166 4 -59.499 12s-34.5 19 -48.5 33s-25 30.333 -33 49s-12 38.667 -12 60c0 20.667 4 40.334 12 59.001s19 35 33 49s30.167 25.167 48.5 33.5s38.166 12.5 59.499 12.5
c20.667 0 40.334 -4.16699 59.001 -12.5s35 -19.5 49 -33.5s25.167 -30.333 33.5 -49s12.5 -38.334 12.5 -59.001zM1024 -343.999c0 -21.333 -4.16699 -41.333 -12.5 -60s-19.5 -35 -33.5 -49s-30.333 -25 -49 -33s-38.334 -12 -59.001 -12c-21.333 0 -41.333 4 -60 12
s-35 19 -49 33s-25 30.333 -33 49s-12 38.667 -12 60c0 20.667 4 40.334 12 59.001s19 35 33 49s30.333 25.167 49 33.5s38.667 12.5 60 12.5c20.667 0 40.334 -4.16699 59.001 -12.5s35 -19.5 49 -33.5s25.167 -30.333 33.5 -49s12.5 -38.334 12.5 -59.001z" />
    <glyph glyph-name="afii62962" unicode="&#x698;" horiz-adv-x="1163" arabic-form="final" 
d="M1200 0c-113.333 0 -194.668 36.334 -244.001 109.001c0 -210.667 -59.333 -384.334 -178 -521.001c-110.667 -110.667 -243.667 -166 -399 -166h-295l-41 226h315c94.667 0 179.834 32 255.501 96s113.5 144 113.5 240v735h225v-330c0 -108 82.667 -162 248 -162v-227z
M860.998 1440c0 -21.333 -4.16699 -41.333 -12.5 -60s-19.5 -35 -33.5 -49s-30.333 -25 -49 -33s-38.334 -12 -59.001 -12c-21.333 0 -41.166 4 -59.499 12s-34.5 19 -48.5 33s-25 30.333 -33 49s-12 38.667 -12 60c0 20.667 4 40.334 12 59.001s19 35 33 49
s30.167 25.167 48.5 33.5s38.166 12.5 59.499 12.5c20.667 0 40.334 -4.16699 59.001 -12.5s35 -19.5 49 -33.5s25.167 -30.333 33.5 -49s12.5 -38.334 12.5 -59.001zM684.998 1092c0 -21.333 -4.16699 -41.333 -12.5 -60s-19.5 -35 -33.5 -49s-30.333 -25 -49 -33
s-38.334 -12 -59.001 -12c-21.333 0 -41.166 4 -59.499 12s-34.5 19 -48.5 33s-25 30.333 -33 49s-12 38.667 -12 60c0 20.667 4 40.334 12 59.001s19 35 33 49s30.167 25.167 48.5 33.5s38.166 12.5 59.499 12.5c20.667 0 40.334 -4.16699 59.001 -12.5s35 -19.5 49 -33.5
s25.167 -30.333 33.5 -49s12.5 -38.334 12.5 -59.001zM1055 1092c0 -21.333 -4.16699 -41.333 -12.5 -60s-19.5 -35 -33.5 -49s-30.333 -25 -49 -33s-38.334 -12 -59.001 -12c-21.333 0 -41.333 4 -60 12s-35 19 -49 33s-25 30.333 -33 49s-12 38.667 -12 60
c0 20.667 4 40.334 12 59.001s19 35 33 49s30.333 25.167 49 33.5s38.667 12.5 60 12.5c20.667 0 40.334 -4.16699 59.001 -12.5s35 -19.5 49 -33.5s25.167 -30.333 33.5 -49s12.5 -38.334 12.5 -59.001z" />
    <glyph glyph-name="afii62964" unicode="&#x6a9;" horiz-adv-x="2234" arabic-form="final" 
d="M2294 0c-170.667 0 -296.335 53.999 -377.002 161.999c-41.333 -108 -139.666 -162 -294.999 -162h-1200c-91.333 0 -168.166 36.5 -230.499 109.5s-93.5 160.833 -93.5 263.5v346h230v-313c0 -63.333 6.66699 -103.666 20 -120.999c24.667 -38.667 74.667 -58 150 -58
h1112c76 0 114 28 114 84c0 28.667 -17.667 63.667 -53 105l-559 624l-40 224l880 340l35 -208l-664 -247l623 -707l165 -166c48 -32.667 109 -49 183 -49v-227z" />
    <glyph glyph-name="afii52305" unicode="&#x6a9;" horiz-adv-x="1071" arabic-form="initial" 
d="M977 311c0 -74.667 -29.334 -145.667 -88.001 -213c-65.333 -65.333 -157.666 -98 -276.999 -98h-665v227h665c87.333 0 131 28.667 131 86c0 26 -14.333 58.333 -43 97l-602 630l-46 241l918 330l28 -221l-670 -247l585 -649c42.667 -52 64 -113 64 -183z" />
    <glyph glyph-name="afii52306" unicode="&#x6a9;" horiz-adv-x="1314" arabic-form="medial" 
d="M1337 0c-84.667 0 -162.168 14.668 -232.501 44.001s-126.5 75.333 -168.5 138c-22 -56 -51.333 -101 -88 -135c-41.333 -31.333 -107.666 -47 -198.999 -47h-684v227h659c79.333 0 119 28.667 119 86c0 27.333 -17.667 61.666 -53 102.999l-571 624l-37 258l904 321
l36 -229l-674 -247l635 -701c92.667 -103.333 159 -167.333 199 -192l59 -17l96 -6v-227z" />
    <glyph glyph-name="afii62967" unicode="&#x6af;" horiz-adv-x="2234" arabic-form="final" 
d="M1937 1723l-884 -339l-22 88l900 335zM2294 0c-170.667 0 -296.335 53.999 -377.002 161.999c-41.333 -108 -139.666 -162 -294.999 -162h-1200c-91.333 0 -168.166 36.5 -230.499 109.5s-93.5 160.833 -93.5 263.5v346h230v-313c0 -63.333 6.66699 -103.666 20 -120.999
c24.667 -38.667 74.667 -58 150 -58h1112c76 0 114 28 114 84c0 28.667 -17.667 63.667 -53 105l-559 624l-39 234l879 330l35 -208l-664 -247l623 -707l165 -166c48 -32.667 109 -49 183 -49v-227z" />
    <glyph glyph-name="afii62965" unicode="&#x6af;" horiz-adv-x="1041" arabic-form="initial" 
d="M977 311c0 -74.667 -29.334 -145.667 -88.001 -213c-65.333 -65.333 -157.666 -98 -276.999 -98h-665v227h665c87.333 0 131 28.667 131 86c0 26 -14.333 58.333 -43 97l-602 630l-47 258l916 321l31 -229l-670 -247l585 -649c42.667 -52 64 -113 64 -183zM930.999 1721
l-869 -313l-10 88l877 309z" />
    <glyph glyph-name="afii62966" unicode="&#x6af;" horiz-adv-x="1309" arabic-form="medial" 
d="M1337 0c-84.667 0 -162.168 14.668 -232.501 44.001s-126.5 75.333 -168.5 138c-22 -56 -51.333 -101 -88 -135c-41.333 -31.333 -107.666 -47 -198.999 -47h-684v227h659c79.333 0 119 28.667 119 86c0 27.333 -17.667 61.666 -53 102.999l-571 624l-37 258l904 321
l36 -229l-674 -247l635 -701c92.667 -103.333 159 -167.333 199 -192l59 -17l96 -6v-227zM951.999 1712l-860 -313l-15 88l867 309z" />
    <glyph glyph-name="uni06BA" unicode="&#x6ba;" arabic-form="isolated" 
 />
    <glyph glyph-name="uniFB9F" unicode="&#x6ba;" arabic-form="final" 
 />
    <glyph glyph-name="uniFBA4" unicode="&#x6c0;" horiz-adv-x="1028" arabic-form="isolated" 
d="M961 395c0 -112 -43.5 -210.332 -130.5 -294.999s-189.167 -127 -306.5 -127c-120 0 -222 43.333 -306 130s-126 189.667 -126 309c0 83.333 25.333 168 76 254l72 92l112 110l-67 78l155 156l414 -432c71.333 -88.667 107 -180.334 107 -275.001zM733 395.001
c0 45.333 -10.999 83 -32.999 113l-186 194c-68 -66.667 -123.333 -127.334 -166 -182.001l-24 -47l-17 -78c0 -31.333 17 -73 51 -125c45.333 -51.333 100.666 -77 165.999 -77c67.333 0 121.333 23.667 162 71c31.333 38.667 47 82.334 47 131.001zM731.001 1417
l-458 -165.997l-31 101l104 39c-25.333 22 -42.166 46.667 -50.499 74s-10.166 54.5 -5.49902 81.5s15 53 31 78s35.667 46.333 59 64s49.666 30.5 78.999 38.5s59.666 8.66699 90.999 2c18.667 -3.33301 35.834 -9.83301 51.501 -19.5s32.167 -22.167 49.5 -37.5l-66 -96
c-16.667 16.667 -31.167 26.667 -43.5 30s-23.833 5.66602 -34.5 6.99902c-9.33301 0.666992 -19.5 0 -30.5 -2s-21.167 -5.83301 -30.5 -11.5s-17.5 -12.834 -24.5 -21.501s-11.167 -19 -12.5 -31c-1.33301 -10.667 -0.333008 -20.334 3 -29.001
s8.16602 -16.167 14.499 -22.5s14 -11.5 23 -15.5s18.5 -6.33301 28.5 -7c42.667 -4.66699 112 12 208 50z" />
    <glyph glyph-name="uniFBA5" unicode="&#x6c0;" horiz-adv-x="1413" arabic-form="final" 
d="M1462 0c-108 0 -181 13.667 -219 41c-18 8 -98 76.333 -240 205c-86 -182 -226 -273 -420 -273c-118.667 0 -221 42.333 -307 127s-129 188.667 -129 312c0 83.333 29.333 168 88 254c31.333 48.667 91.333 116 180 202l-67 78l157 156l684 -727
c56 -60 98.333 -101.667 127 -125c30 -15.333 78.667 -23 146 -23v-227zM804 395c0 38.667 -13.666 80.3311 -40.999 124.998l-182 182c-86 -78.667 -141.333 -138.167 -166 -178.5s-37 -83.166 -37 -128.499c0 -38 17.5 -81.167 52.5 -129.5s87.167 -72.5 156.5 -72.5
c67.333 0 122.666 25.667 165.999 77c34 38.667 51 80.334 51 125.001zM790.001 1379l-458 -165.997l-31 101l104 39c-25.333 22 -42.166 46.667 -50.499 74s-10.166 54.5 -5.49902 81.5s15 53 31 78s35.667 46.333 59 64s49.666 30.5 78.999 38.5s59.666 8.66699 90.999 2
c18.667 -3.33301 35.834 -9.83301 51.501 -19.5s32.167 -22.167 49.5 -37.5l-66 -96c-16.667 16.667 -31.167 26.667 -43.5 30s-23.833 5.66602 -34.5 6.99902c-9.33301 0.666992 -19.5 0 -30.5 -2s-21.167 -5.83301 -30.5 -11.5s-17.5 -12.834 -24.5 -21.501
s-11.167 -19 -12.5 -31c-1.33301 -10.667 -0.333008 -20.334 3 -29.001s8.16602 -16.167 14.499 -22.5s14 -11.5 23 -15.5s18.5 -6.33301 28.5 -7c42.667 -4.66699 112 12 208 50z" />
    <glyph glyph-name="uniFBA6" unicode="&#x6c1;" horiz-adv-x="586" arabic-form="isolated" 
d="M973 395c0 -112 -43.5 -210.332 -130.5 -294.999s-189.167 -127 -306.5 -127c-120 0 -222 43.333 -306 130s-126 189.667 -126 309c0 83.333 25.333 168 76 254l72 92l112 110l-67 78l155 156l414 -432c71.333 -88.667 107 -180.334 107 -275.001zM745 395.001
c0 45.333 -10.999 83 -32.999 113l-186 194c-68 -66.667 -123.333 -127.334 -166 -182.001l-24 -47l-17 -78c0 -31.333 17 -73 51 -125c45.333 -51.333 100.666 -77 165.999 -77c67.333 0 121.333 23.667 162 71c31.333 38.667 47 82.334 47 131.001z" />
    <glyph glyph-name="uniFBA8" unicode="&#x6c1;" arabic-form="initial" 
 />
    <glyph glyph-name="afii62827" unicode="&#x6be;" horiz-adv-x="1014" arabic-form="final" 
d="M1049 0h-175c-69.333 -0 -123.833 -19.167 -163.5 -57.5s-59.5 -79.833 -59.5 -124.5l4 -35l54 -236l-222 -67l-61 297l-4 47c0 84.667 36.667 168 110 250c-55.333 -49.333 -125.333 -74 -210 -74h-396v227h324c68 0 123.333 20 166 60c16 20 30.333 63 43 129l41 250
l229 -41l-57 -281c-1.33301 -31.333 -4.5 -54.833 -9.5 -70.5s-15.5 -39.167 -31.5 -70.5c-12.667 -24.667 -30.334 -52 -53.001 -82c74.667 70.667 150.334 106 227.001 106h244v-227z" />
    <glyph glyph-name="uniFBE5" unicode="&#x6d0;" horiz-adv-x="1226" arabic-form="final" 
d="M1673 0h-211l11 -111c0 -129.333 -51.667 -239.5 -155 -330.5s-218.333 -136.5 -345 -136.5h-355c-173.333 0 -315 66.333 -425 199c-93.333 124 -140 277.667 -140 461v407h232v-499c0 -79.333 28 -153.666 84 -222.999c72 -79.333 172.333 -119 301 -119h293
c76 0 140 20.333 192 61c58.667 45.333 88 109.666 88 192.999c0 42 -35.833 68.833 -107.5 80.5s-192.167 17.5 -361.5 17.5l-20 227h919v-227z" />
    <glyph glyph-name="afii52364" unicode="&#x6cc;" horiz-adv-x="1636" arabic-form="final" 
d="M1673 0h-211l11 -111c0 -129.333 -51.667 -239.5 -155 -330.5s-218.333 -136.5 -345 -136.5h-355c-173.333 0 -315 66.333 -425 199c-93.333 124 -140 277.667 -140 461v407h232v-499c0 -79.333 28 -153.666 84 -222.999c72 -79.333 172.333 -119 301 -119h293
c76 0 140 20.333 192 61c58.667 45.333 88 109.666 88 192.999c0 42 -35.833 68.833 -107.5 80.5s-192.167 17.5 -361.5 17.5l-20 227h919v-227z" />
    <glyph glyph-name="uniFBFE" unicode="&#x6cc;" horiz-adv-x="743" arabic-form="initial" 
d="M662 373c0 -100 -33.166 -187.167 -99.499 -261.5s-144.5 -111.5 -234.5 -111.5h-371v227h299c75.333 0 126.666 19.333 153.999 58c10.667 18.667 16 59 16 121v313h236v-346zM391.001 -372c0 20.667 4 40.334 12 59.001s19 35 33 49s30.333 25.167 49 33.5
s38.667 12.5 60 12.5c20.667 0 40.334 -4.16699 59.001 -12.5s35 -19.5 49 -33.5s25.167 -30.333 33.5 -49s12.5 -38.334 12.5 -59.001c0 -21.333 -4.16699 -41.166 -12.5 -59.499s-19.5 -34.5 -33.5 -48.5s-30.333 -25 -49 -33s-38.334 -12 -59.001 -12
c-21.333 0 -41.333 4 -60 12s-35 19 -49 33s-25 30.167 -33 48.5s-12 38.166 -12 59.499zM42.001 -372c0 20.667 4 40.334 12 59.001s19 35 33 49s30.167 25.167 48.5 33.5s38.166 12.5 59.499 12.5c20.667 0 40.334 -4.16699 59.001 -12.5s35 -19.5 49 -33.5
s25.167 -30.333 33.5 -49s12.5 -38.334 12.5 -59.001c0 -21.333 -4.16699 -41.166 -12.5 -59.499s-19.5 -34.5 -33.5 -48.5s-30.333 -25 -49 -33s-38.334 -12 -59.001 -12c-21.333 0 -41.166 4 -59.499 12s-34.5 19 -48.5 33s-25 30.167 -33 48.5s-12 38.166 -12 59.499z
" />
    <glyph glyph-name="afii62832" unicode="&#x6cc;" horiz-adv-x="936" arabic-form="medial" 
d="M983 0l-135 4l-68 10l-53 27l-65 51c-74 -61.333 -147.333 -92 -220 -92h-489v227h422c74.667 0 124.334 19.333 149.001 58c11.333 18.667 17 59 17 121v313h233v-313c0 -72.667 12.333 -120 37 -142c31.333 -24.667 88.666 -37 171.999 -37v-227zM480 -367
c0 20.667 4 40.334 12 59.001s19 35 33 49s30.333 25.167 49 33.5s38.667 12.5 60 12.5c20.667 0 40.334 -4.16699 59.001 -12.5s35 -19.5 49 -33.5s25.167 -30.333 33.5 -49s12.5 -38.334 12.5 -59.001c0 -21.333 -4.16699 -41.166 -12.5 -59.499s-19.5 -34.5 -33.5 -48.5
s-30.333 -25 -49 -33s-38.334 -12 -59.001 -12c-21.333 0 -41.333 4 -60 12s-35 19 -49 33s-25 30.167 -33 48.5s-12 38.166 -12 59.499zM131 -367c0 20.667 4 40.334 12 59.001s19 35 33 49s30.167 25.167 48.5 33.5s38.166 12.5 59.499 12.5
c20.667 0 40.334 -4.16699 59.001 -12.5s35 -19.5 49 -33.5s25.167 -30.333 33.5 -49s12.5 -38.334 12.5 -59.001c0 -21.333 -4.16699 -41.166 -12.5 -59.499s-19.5 -34.5 -33.5 -48.5s-30.333 -25 -49 -33s-38.334 -12 -59.001 -12c-21.333 0 -41.166 4 -59.499 12
s-34.5 19 -48.5 33s-25 30.167 -33 48.5s-12 38.166 -12 59.499z" />
    <glyph glyph-name="uniFC09" unicode="&#xfc09;" horiz-adv-x="1647" arabic-form="isolated" 
 />
    <glyph glyph-name="uniFC0F" unicode="&#xfc0f;" horiz-adv-x="1669" arabic-form="isolated" 
 />
    <glyph glyph-name="uniFC31" unicode="&#xfc31;" horiz-adv-x="1838" arabic-form="isolated" 
 />
    <glyph glyph-name="uniFC4F" unicode="&#xfc4f;" horiz-adv-x="1661" arabic-form="isolated" 
 />
    <glyph glyph-name="uniFC59" unicode="&#xfc59;" horiz-adv-x="1823" arabic-form="isolated" 
 />
    <glyph glyph-name="uniFC5D" unicode="&#xfc5d;" horiz-adv-x="1636" arabic-form="isolated" 
d="M1561 -74c0 -102 -14.333 -181.667 -43 -239c-16.667 -66 -59.667 -131.667 -129 -197c-108 -104 -238.667 -156 -392 -156h-352c-148.667 0 -276.334 59.167 -383.001 177.5s-160 256.5 -160 414.5v469h215v-499c0 -100 44 -187 132 -261
c72 -51.333 152.333 -77 241 -77h297c80.667 0 157.334 26.667 230.001 80c80 68 120 145 120 231c0 69.333 -28.667 113 -86 131s-204 27 -440 27v389c0 112 39.667 208.167 119 288.5s173.333 120.5 282 120.5h279l10 -213h-280c-76.667 0 -133.334 -37.333 -170.001 -112
c-18 -60 -27 -146.667 -27 -260c204.667 0 343.334 -18 416.001 -54c80.667 -43.333 121 -130 121 -260zM575 735h-104v352h104v-352z" />
    <glyph glyph-name="afii62882" unicode="&#xfc5e;" arabic-form="isolated" 
d="M-252 278l96.002 0.000976562v-136c2 -20.667 19.833 -32 53.5 -34s50.5 9.33301 50.5 34v136h96v-136c0 -14 5.33301 -24.333 16 -31s27.667 -9.33398 51 -8.00098s35 12 35 32v143h100v-131c-2.66699 -44 -11.334 -73.667 -26.001 -89
c-28 -32 -63.667 -47.333 -107 -46c-44 0 -81.667 15.333 -113 46c-20.667 -34 -61.667 -51 -123 -51c-40.667 0 -72.334 12.333 -95.001 37s-34 59 -34 103v131zM264.002 814.001c0.666992 -88 -32.001 -154.002 -98.001 -198.002l-408 -231l-60 102
c62 34 96.333 57.667 103 71c11.333 38 -0.666992 58.667 -36 62c-24.667 0 -65.667 -5.66699 -123 -17l-15 106c174.667 32.667 266 -4.66602 274 -111.999l91 55c-61.333 32 -92.666 80.667 -93.999 146c-1.33301 46.667 12.334 88.667 41.001 126s69 61 121 71
c54 5.33301 101.667 -9.66699 143 -45s61.666 -80.666 60.999 -135.999zM8.00098 805.999c0 -20.667 7 -38 21 -52s31.333 -21 52 -21c20 0 37.167 7 51.5 21s21.5 31.333 21.5 52c0 20 -7.16699 37.167 -21.5 51.5s-31.5 21.5 -51.5 21.5c-20.667 0 -38 -7.16699 -52 -21.5
s-21 -31.5 -21 -51.5z" />
    <glyph glyph-name="afii62883" unicode="&#xfc5f;" arabic-form="isolated" 
d="M-249 703l96.002 0.000976562v-136c2 -20.667 19.833 -32 53.5 -34s50.5 9.33301 50.5 34v136h96v-136c0 -14 5.33301 -24.333 16 -31s27.667 -9.33398 51 -8.00098s35 12 35 32v143h100v-131c-2.66699 -44 -11.334 -73.667 -26.001 -89
c-28 -32 -63.667 -47.333 -107 -46c-44 0 -81.667 15.333 -113 46c-20.667 -34 -61.667 -51 -123 -51c-40.667 0 -72.334 12.333 -95.001 37s-34 59 -34 103v131zM-291.998 263.001l545 141v-98l-545 -139v96zM-291.998 83.001l545 141v-98l-545 -139v96z" />
    <glyph glyph-name="afii62884" unicode="&#xfc60;" arabic-form="isolated" 
d="M-252 278l96.002 0.000976562v-136c2 -20.667 19.833 -32 53.5 -34s50.5 9.33301 50.5 34v136h96v-136c0 -14 5.33301 -24.333 16 -31s27.667 -9.33398 51 -8.00098s35 12 35 32v143h100v-131c-2.66699 -44 -11.334 -73.667 -26.001 -89
c-28 -32 -63.667 -47.333 -107 -46c-44 0 -81.667 15.333 -113 46c-20.667 -34 -61.667 -51 -123 -51c-40.667 0 -72.334 12.333 -95.001 37s-34 59 -34 103v131zM-294.998 503.001l545 141v-98l-545 -139v96z" />
    <glyph glyph-name="afii62885" unicode="&#xfc61;" arabic-form="isolated" 
d="M-252 278l96.002 0.000976562v-136c2 -20.667 19.833 -32 53.5 -34s50.5 9.33301 50.5 34v136h96v-136c0 -14 5.33301 -24.333 16 -31s27.667 -9.33398 51 -8.00098s35 12 35 32v143h100v-131c-2.66699 -44 -11.334 -73.667 -26.001 -89
c-28 -32 -63.667 -47.333 -107 -46c-44 0 -81.667 15.333 -113 46c-20.667 -34 -61.667 -51 -123 -51c-40.667 0 -72.334 12.333 -95.001 37s-34 59 -34 103v131zM249.002 812.001c0.666992 -88 -32.001 -154.001 -98.001 -198.001l-408 -231l-60 102l294 165
c-61.333 32 -92.666 80.667 -93.999 146c-1.33301 46.667 12.334 88.667 41.001 126s69 61 121 71c54 5.33301 101.667 -9.66699 143 -45s61.666 -80.666 60.999 -135.999zM-6.99902 804c0 -20.667 7 -38 21 -52s31.333 -21 52 -21c20 0 37.167 7 51.5 21
s21.5 31.333 21.5 52c0 20 -7.16699 37.167 -21.5 51.5s-31.5 21.5 -51.5 21.5c-20.667 0 -38 -7.16699 -52 -21.5s-21 -31.5 -21 -51.5z" />
    <glyph glyph-name="afii62886" unicode="&#xfc62;" arabic-form="isolated" 
d="M-246 645l96.002 0.000976562v-136c2 -20.667 19.833 -32 53.5 -34s50.5 9.33301 50.5 34v136h96v-136c0 -14 5.33301 -24.333 16 -31s27.667 -9.33398 51 -8.00098s35 12 35 32v143h100v-131c-2.66699 -44 -11.334 -73.667 -26.001 -89
c-28 -32 -63.667 -47.333 -107 -46c-44 0 -81.667 15.333 -113 46c-20.667 -34 -61.667 -51 -123 -51c-40.667 0 -72.334 12.333 -95.001 37s-34 59 -34 103v131zM-278.998 99.001l545 141v-98l-545 -139v96z" />
    <glyph glyph-name="uniFC63" unicode="&#xfc63;" arabic-form="isolated" 
d="M-252 278l96.002 0.000976562v-136c2 -20.667 19.833 -32 53.5 -34s50.5 9.33301 50.5 34v136h96v-136c0 -14 5.33301 -24.333 16 -31s27.667 -9.33398 51 -8.00098s35 12 35 32v143h100v-131c-2.66699 -44 -11.334 -73.667 -26.001 -89
c-28 -32 -63.667 -47.333 -107 -46c-44 0 -81.667 15.333 -113 46c-20.667 -34 -61.667 -51 -123 -51c-40.667 0 -72.334 12.333 -95.001 37s-34 59 -34 103v131zM55.002 371.001h-104v352h104v-352z" />
    <glyph glyph-name="uniFC6E" unicode="&#xfc6e;" horiz-adv-x="1746" arabic-form="final" 
 />
    <glyph glyph-name="uniFC74" unicode="&#xfc74;" horiz-adv-x="1846" arabic-form="final" 
 />
    <glyph glyph-name="uniFC8E" unicode="&#xfc8e;" horiz-adv-x="1809" arabic-form="final" 
 />
    <glyph glyph-name="uniFC95" unicode="&#xfc95;" horiz-adv-x="1805" arabic-form="final" 
 />
    <glyph glyph-name="uniFC9C" unicode="&#xfc9c;" horiz-adv-x="1766" arabic-form="initial" 
 />
    <glyph glyph-name="uniFCF2" unicode="&#xfcf2;" horiz-adv-x="594" arabic-form="medial" 
d="M38 766l96.002 0.000976562v-136c2 -20.667 19.833 -32 53.5 -34s50.5 9.33301 50.5 34v136h96v-136c0 -14 5.33301 -24.333 16 -31s27.667 -9.33398 51 -8.00098s35 12 35 32v143h100v-131c-2.66699 -44 -11.334 -73.667 -26.001 -89c-28 -32 -63.667 -47.333 -107 -46
c-44 0 -81.667 15.333 -113 46c-20.667 -34 -61.667 -51 -123 -51c-40.667 0 -72.334 12.333 -95.001 37s-34 59 -34 103v131zM-6.99805 962.001l545 141v-98l-545 -139v96zM629.002 0.000976562h-656v227h656v-227z" />
    <glyph glyph-name="uniFCF3" unicode="&#xfcf3;" horiz-adv-x="594" arabic-form="medial" 
d="M39 738l96.002 0.000976562v-136c2 -20.667 19.833 -32 53.5 -34s50.5 9.33301 50.5 34v136h96v-136c0 -14 5.33301 -24.333 16 -31s27.667 -9.33398 51 -8.00098s35 12 35 32v143h100v-131c-2.66699 -44 -11.334 -73.667 -26.001 -89c-28 -32 -63.667 -47.333 -107 -46
c-44 0 -81.667 15.333 -113 46c-20.667 -34 -61.667 -51 -123 -51c-40.667 0 -72.334 12.333 -95.001 37s-34 59 -34 103v131zM565.002 1286c0.666992 -88 -32.001 -154.001 -98.001 -198.001l-408 -231l-60 102l294 165c-61.333 32 -92.666 80.667 -93.999 146
c-1.33301 46.667 12.334 88.667 41.001 126s69 61 121 71c54 5.33301 101.667 -9.66699 143 -45s61.666 -80.666 60.999 -135.999zM309.001 1278c0 -20.667 7 -38 21 -52s31.333 -21 52 -21c20 0 37.167 7 51.5 21s21.5 31.333 21.5 52c0 20 -7.16699 37.167 -21.5 51.5
s-31.5 21.5 -51.5 21.5c-20.667 0 -38 -7.16699 -52 -21.5s-21 -31.5 -21 -51.5zM629.001 0h-656v227h656v-227z" />
    <glyph glyph-name="uniFCF4" unicode="&#xfcf4;" horiz-adv-x="594" arabic-form="medial" 
d="M48 1026l96.002 0.000976562v-136c2 -20.667 19.833 -32 53.5 -34s50.5 9.33301 50.5 34v136h96v-136c0 -14 5.33301 -24.333 16 -31s27.667 -9.33398 51 -8.00098s35 12 35 32v143h100v-131c-2.66699 -44 -11.334 -73.667 -26.001 -89c-28 -32 -63.667 -47.333 -107 -46
c-44 0 -81.667 15.333 -113 46c-20.667 -34 -61.667 -51 -123 -51c-40.667 0 -72.334 12.333 -95.001 37s-34 59 -34 103v131zM14.002 490.001l545 141v-98l-545 -139v96zM629.002 0.000976562h-656v227h656v-227z" />
    <glyph glyph-name="uniFE71" unicode="&#xfe71;" horiz-adv-x="594" arabic-form="medial" 
d="M32 747l545 141v-98l-545 -139v96zM32 567l545 141v-98l-545 -139v96zM629 0h-656v227h656v-227z" />
    <glyph glyph-name="uniFE77" unicode="&#xfe77;" horiz-adv-x="594" arabic-form="medial" 
d="M16 621l545 141v-98l-545 -139v96zM629 0h-656v227h656v-227z" />
    <glyph glyph-name="uniFE79" unicode="&#xfe79;" horiz-adv-x="594" arabic-form="medial" 
d="M573 965c0.666992 -88 -32.001 -154.001 -98.001 -198.001l-408 -231l-60 102l294 165c-61.333 32 -92.666 80.667 -93.999 146c-1.33301 46.667 12.334 88.667 41.001 126s69 61 121 71c54 5.33301 101.667 -9.66699 143 -45s61.666 -80.666 60.999 -135.999z
M316.999 956.999c0 -20.667 7 -38 21 -52s31.333 -21 52 -21c20 0 37.167 7 51.5 21s21.5 31.333 21.5 52c0 20 -7.16699 37.167 -21.5 51.5s-31.5 21.5 -51.5 21.5c-20.667 0 -38 -7.16699 -52 -21.5s-21 -31.5 -21 -51.5zM628.999 -0.000976562h-656v227h656v-227z" />
    <glyph glyph-name="uniFE7B" unicode="&#xfe7b;" horiz-adv-x="594" arabic-form="medial" 
d="M20 -427l545 141v-98l-545 -139v96zM629 0h-656v227h656v-227z" />
    <glyph glyph-name="uniFE7D" unicode="&#xfe7d;" horiz-adv-x="594" arabic-form="medial" 
d="M76 886l96.002 0.000976562v-136c2 -20.667 19.833 -32 53.5 -34s50.5 9.33301 50.5 34v136h96v-136c0 -14 5.33301 -24.333 16 -31s27.667 -9.33398 51 -8.00098s35 12 35 32v143h100v-131c-2.66699 -44 -11.334 -73.667 -26.001 -89c-28 -32 -63.667 -47.333 -107 -46
c-44 0 -81.667 15.333 -113 46c-20.667 -34 -61.667 -51 -123 -51c-40.667 0 -72.334 12.333 -95.001 37s-34 59 -34 103v131zM629.002 0.000976562h-656v227h656v-227z" />
    <glyph glyph-name="uniFE7F" unicode="&#xfe7f;" horiz-adv-x="594" arabic-form="medial" 
d="M83 780c0 34 5.83301 65.833 17.5 95.5s27.667 55.334 48 77.001s44.5 39 72.5 52s58.333 19.5 91 19.5s63 -6.5 91 -19.5s52.333 -30.333 73 -52s36.834 -47.334 48.501 -77.001s17.5 -61.5 17.5 -95.5s-5.83301 -65.667 -17.5 -95s-27.834 -54.5 -48.501 -75.5
s-45 -37.667 -73 -50s-58.333 -18.5 -91 -18.5s-63 6.16699 -91 18.5s-52.167 29 -72.5 50s-36.333 46.167 -48 75.5s-17.5 61 -17.5 95zM191 776c0 -36 12.333 -66.667 37 -92s54 -38 88 -38c33.333 0 62.333 12.667 87 38s37 56 37 92c0 37.333 -12.333 69.166 -37 95.499
s-53.667 39.5 -87 39.5c-34 0 -63.333 -13.167 -88 -39.5s-37 -58.166 -37 -95.499zM629 0h-656v227h656v-227z" />
    <glyph glyph-name="afii52399" unicode="&#x621;" horiz-adv-x="952" arabic-form="isolated" 
d="M880 189l-542.001 -228.001l-47 131l187 75c-18.667 11.333 -34.167 24.166 -46.5 38.499s-22 29.333 -29 45s-11.667 31.834 -14 48.501s-3.16602 33.334 -2.49902 50.001c1.33301 32 8.5 61.667 21.5 89s30.167 51.166 51.5 71.499s45.833 36.5 73.5 48.5
s56.167 18.833 85.5 20.5s58.833 -2.5 88.5 -12.5s57.5 -27 83.5 -51l-61 -130c-22 18.667 -45.5 30.834 -70.5 36.501s-50.5 2.16699 -76.5 -10.5c-13.333 -6.66699 -22.833 -18.167 -28.5 -34.5s-7.5 -33.166 -5.5 -50.499s8 -32.833 18 -46.5s23.667 -20.834 41 -21.501
c21.333 -1.33301 50.333 4.16699 87 16.5s78 29.833 124 52.5z" />
    <glyph glyph-name="afii62753" unicode="&#x622;" horiz-adv-x="655" arabic-form="final" 
d="M683 1595l-472 -0.000976562c-62 2 -107.5 -11.5 -136.5 -40.5s-57.833 -70.833 -86.5 -125.5l-177 66c50.667 122.667 95 198.334 133 227.001c32 27.333 65.667 47 101 59s82 18.667 140 20h498v-206zM690 -0.000976562c-199.333 0 -335.666 37.002 -408.999 111.002
c-52 57.333 -78 137.666 -78 240.999v1082h229v-985c0 -102.667 13.667 -165.334 41 -188.001s99.666 -34 216.999 -34v-227z" />
    <glyph glyph-name="afii62754" unicode="&#x623;" horiz-adv-x="655" arabic-form="final" 
d="M576 1718l-458 -165.997l-31 101l104 39c-25.333 22 -42.166 46.667 -50.499 74s-10.166 54.5 -5.49902 81.5s15 53 31 78s35.667 46.333 59 64s49.666 30.5 78.999 38.5s59.666 8.66699 90.999 2c18.667 -3.33301 35.834 -9.83301 51.501 -19.5
s32.167 -22.167 49.5 -37.5l-66 -96c-16.667 16.667 -31.167 26.667 -43.5 30s-23.833 5.66602 -34.5 6.99902c-9.33301 0.666992 -19.5 0 -30.5 -2s-21.167 -5.83301 -30.5 -11.5s-17.5 -12.834 -24.5 -21.501s-11.167 -19 -12.5 -31
c-1.33301 -10.667 -0.333008 -20.334 3 -29.001s8.16602 -16.167 14.499 -22.5s14 -11.5 23 -15.5s18.5 -6.33301 28.5 -7c42.667 -4.66699 112 12 208 50zM690 0.00292969c-199.333 0 -335.666 37.002 -408.999 111.002c-52 57.333 -78 137.666 -78 240.999v1082h229v-985
c0 -102.667 13.667 -165.334 41 -188.001s99.666 -34 216.999 -34v-227z" />
    <glyph glyph-name="afii62755" unicode="&#x624;" horiz-adv-x="1133" arabic-form="final" 
d="M1169 0l-154.998 -0.000976562c0 -151.333 -57.333 -288.666 -172 -411.999c-49.333 -50 -110.833 -90.167 -184.5 -120.5s-150.834 -45.5 -231.501 -45.5h-295l-33 226h291c112 0 204.167 35.5 276.5 106.5s108.5 152.833 108.5 245.5c-180 0 -315 24 -405 72
c-124.667 60 -187 179.333 -187 358c0 192.667 46.667 330 140 412c58.667 47.333 148.667 71 270 71c173.333 0 294.666 -73.667 363.999 -221c38.667 -94 58 -249 58 -465h155v-227zM784.002 226.999l0.000976562 218.999c0 90.667 -25.667 155.667 -77 195
c-34.667 30 -73 45 -115 45c-58.667 0 -100.334 -15 -125.001 -45c-34 -35.333 -51 -101.666 -51 -198.999c0 -83.333 24.167 -140 72.5 -170s146.833 -45 295.5 -45zM800.003 1236l-458 -165.997l-31 101l104 39c-25.333 22 -42.166 46.667 -50.499 74
s-10.166 54.5 -5.49902 81.5s15 53 31 78s35.667 46.333 59 64s49.666 30.5 78.999 38.5s59.666 8.66699 90.999 2c18.667 -3.33301 35.834 -9.83301 51.501 -19.5s32.167 -22.167 49.5 -37.5l-66 -96c-16.667 16.667 -31.167 26.667 -43.5 30
s-23.833 5.66602 -34.5 6.99902c-9.33301 0.666992 -19.5 0 -30.5 -2s-21.167 -5.83301 -30.5 -11.5s-17.5 -12.834 -24.5 -21.501s-11.167 -19 -12.5 -31c-1.33301 -10.667 -0.333008 -20.334 3 -29.001s8.16602 -16.167 14.499 -22.5s14 -11.5 23 -15.5
s18.5 -6.33301 28.5 -7c42.667 -4.66699 112 12 208 50z" />
    <glyph glyph-name="afii62756" unicode="&#x625;" horiz-adv-x="655" arabic-form="final" 
d="M690 0c-199.333 0 -335.666 37.002 -408.999 111.002c-52 57.333 -78 137.666 -78 240.999v1082h229v-985c0 -102.667 13.667 -165.334 41 -188.001s99.666 -34 216.999 -34v-227zM603 -460.998l-458 -165.997l-31 101l104 39c-25.333 22 -42.166 46.667 -50.499 74
s-10.166 54.5 -5.49902 81.5s15 53 31 78s35.667 46.333 59 64s49.666 30.5 78.999 38.5s59.666 8.66699 90.999 2c18.667 -3.33301 35.834 -9.83301 51.501 -19.5s32.167 -22.167 49.5 -37.5l-66 -96c-16.667 16.667 -31.167 26.667 -43.5 30
s-23.833 5.66602 -34.5 6.99902c-9.33301 0.666992 -19.5 0 -30.5 -2s-21.167 -5.83301 -30.5 -11.5s-17.5 -12.834 -24.5 -21.501s-11.167 -19 -12.5 -31c-1.33301 -10.667 -0.333008 -20.334 3 -29.001s8.16602 -16.167 14.499 -22.5s14 -11.5 23 -15.5
s18.5 -6.33301 28.5 -7c42.667 -4.66699 112 12 208 50z" />
    <glyph glyph-name="afii62759" unicode="&#x626;" horiz-adv-x="1636" arabic-form="final" 
d="M1673 0h-211l11 -111c0 -129.333 -51.667 -239.5 -155 -330.5s-218.333 -136.5 -345 -136.5h-355c-173.333 0 -315 66.333 -425 199c-93.333 124 -140 277.667 -140 461v407h232v-499c0 -79.333 28 -153.666 84 -222.999c72 -79.333 172.333 -119 301 -119h293
c76 0 140 20.333 192 61c58.667 45.333 88 109.666 88 192.999c0 42 -35.833 68.833 -107.5 80.5s-192.167 17.5 -361.5 17.5l-20 227h919v-227zM885 886l-458 -165.997l-31 101l104 39c-25.333 22 -42.166 46.667 -50.499 74s-10.166 54.5 -5.49902 81.5s15 53 31 78
s35.667 46.333 59 64s49.666 30.5 78.999 38.5s59.666 8.66699 90.999 2c18.667 -3.33301 35.834 -9.83301 51.501 -19.5s32.167 -22.167 49.5 -37.5l-66 -96c-16.667 16.667 -31.167 26.667 -43.5 30s-23.833 5.66602 -34.5 6.99902c-9.33301 0.666992 -19.5 0 -30.5 -2
s-21.167 -5.83301 -30.5 -11.5s-17.5 -12.834 -24.5 -21.501s-11.167 -19 -12.5 -31c-1.33301 -10.667 -0.333008 -20.334 3 -29.001s8.16602 -16.167 14.499 -22.5s14 -11.5 23 -15.5s18.5 -6.33301 28.5 -7c42.667 -4.66699 112 12 208 50z" />
    <glyph glyph-name="afii62757" unicode="&#x626;" horiz-adv-x="743" arabic-form="initial" 
d="M662 373c0 -100 -33.166 -187.167 -99.499 -261.5s-144.5 -111.5 -234.5 -111.5h-371v227h299c75.333 0 126.666 19.333 153.999 58c10.667 18.667 16 59 16 121v313h236v-346zM695.001 1082l-458 -165.997l-31 101l104 39c-25.333 22 -42.166 46.667 -50.499 74
s-10.166 54.5 -5.49902 81.5s15 53 31 78s35.667 46.333 59 64s49.666 30.5 78.999 38.5s59.666 8.66699 90.999 2c18.667 -3.33301 35.834 -9.83301 51.501 -19.5s32.167 -22.167 49.5 -37.5l-66 -96c-16.667 16.667 -31.167 26.667 -43.5 30
s-23.833 5.66602 -34.5 6.99902c-9.33301 0.666992 -19.5 0 -30.5 -2s-21.167 -5.83301 -30.5 -11.5s-17.5 -12.834 -24.5 -21.501s-11.167 -19 -12.5 -31c-1.33301 -10.667 -0.333008 -20.334 3 -29.001s8.16602 -16.167 14.499 -22.5s14 -11.5 23 -15.5
s18.5 -6.33301 28.5 -7c42.667 -4.66699 112 12 208 50z" />
    <glyph glyph-name="afii62758" unicode="&#x626;" horiz-adv-x="936" arabic-form="medial" 
d="M753 1058l-458 -165.997l-31 101l104 39c-25.333 22 -42.166 46.667 -50.499 74s-10.166 54.5 -5.49902 81.5s15 53 31 78s35.667 46.333 59 64s49.666 30.5 78.999 38.5s59.666 8.66699 90.999 2c18.667 -3.33301 35.834 -9.83301 51.501 -19.5
s32.167 -22.167 49.5 -37.5l-66 -96c-16.667 16.667 -31.167 26.667 -43.5 30s-23.833 5.66602 -34.5 6.99902c-9.33301 0.666992 -19.5 0 -30.5 -2s-21.167 -5.83301 -30.5 -11.5s-17.5 -12.834 -24.5 -21.501s-11.167 -19 -12.5 -31
c-1.33301 -10.667 -0.333008 -20.334 3 -29.001s8.16602 -16.167 14.499 -22.5s14 -11.5 23 -15.5s18.5 -6.33301 28.5 -7c42.667 -4.66699 112 12 208 50zM983 0.00292969l-135 4l-68 10l-53 27l-65 51c-74 -61.333 -147.333 -92 -220 -92h-489v227h422
c74.667 0 124.334 19.333 149.001 58c11.333 18.667 17 59 17 121v313h233v-313c0 -72.667 12.333 -120 37 -142c31.333 -24.667 88.666 -37 171.999 -37v-227z" />
    <glyph glyph-name="afii57415" unicode="&#x627;" horiz-adv-x="568" arabic-form="isolated" 
d="M477 0h-227v1466h227v-1466z" />
    <glyph glyph-name="afii62760" unicode="&#x627;" horiz-adv-x="655" arabic-form="final" 
d="M690 0c-199.333 0 -335.666 37.002 -408.999 111.002c-52 57.333 -78 137.666 -78 240.999v1082h229v-985c0 -102.667 13.667 -165.334 41 -188.001s99.666 -34 216.999 -34v-227z" />
    <glyph glyph-name="afii62763" unicode="&#x628;" horiz-adv-x="2173" arabic-form="final" 
d="M2214 0l-143.001 6l-97 14c-52 15.333 -93 39.333 -123 72c-76 -61.333 -149 -92 -219 -92h-1202c-90 -0 -167.167 38.833 -231.5 116.5s-96.5 163.167 -96.5 256.5v346h230v-313c0 -62 7.33301 -102.333 22 -121c24.667 -38.667 73.334 -58 146.001 -58h1061
c64 0 105.667 7.66699 125 23c31.333 27.333 47 79.333 47 156v313h231v-313c0 -56 12.333 -96.333 37 -121c38 -38.667 109 -58 213 -58v-227zM825.999 -370c0 20.667 4 40.334 12 59.001s19 35 33 49s30.333 25.167 49 33.5s38.667 12.5 60 12.5
c20.667 0 40.334 -4.16699 59.001 -12.5s35 -19.5 49 -33.5s25 -30.333 33 -49s12 -38.334 12 -59.001c0 -21.333 -4 -41.166 -12 -59.499s-19 -34.5 -33 -48.5s-30.333 -25 -49 -33s-38.334 -12 -59.001 -12c-21.333 0 -41.333 4 -60 12s-35 19 -49 33s-25 30.167 -33 48.5
s-12 38.166 -12 59.499z" />
    <glyph glyph-name="afii62761" unicode="&#x628;" horiz-adv-x="743" arabic-form="initial" 
d="M237 -371c0 20.667 4 40.334 12 59.001s19 35 33 49s30.333 25.167 49 33.5s38.667 12.5 60 12.5c20.667 0 40.334 -4.16699 59.001 -12.5s35 -19.5 49 -33.5s25 -30.333 33 -49s12 -38.334 12 -59.001c0 -21.333 -4 -41.166 -12 -59.499s-19 -34.5 -33 -48.5
s-30.333 -25 -49 -33s-38.334 -12 -59.001 -12c-21.333 0 -41.333 4 -60 12s-35 19 -49 33s-25 30.167 -33 48.5s-12 38.166 -12 59.499zM662 373c0 -100 -33.166 -187.167 -99.499 -261.5s-144.5 -111.5 -234.5 -111.5h-371v227h299c75.333 0 126.666 19.333 153.999 58
c10.667 18.667 16 59 16 121v313h236v-346z" />
    <glyph glyph-name="afii62762" unicode="&#x628;" horiz-adv-x="936" arabic-form="medial" 
d="M382 -376c0 20.667 4 40.334 12 59.001s19 35 33 49s30.333 25.167 49 33.5s38.667 12.5 60 12.5c20.667 0 40.334 -4.16699 59.001 -12.5s35 -19.5 49 -33.5s25 -30.333 33 -49s12 -38.334 12 -59.001c0 -21.333 -4 -41.166 -12 -59.499s-19 -34.5 -33 -48.5
s-30.333 -25 -49 -33s-38.334 -12 -59.001 -12c-21.333 0 -41.333 4 -60 12s-35 19 -49 33s-25 30.167 -33 48.5s-12 38.166 -12 59.499zM983 0l-135 4l-68 10l-53 27l-65 51c-74 -61.333 -147.333 -92 -220 -92h-489v227h422c74.667 0 124.334 19.333 149.001 58
c11.333 18.667 17 59 17 121v313h233v-313c0 -72.667 12.333 -120 37 -142c31.333 -24.667 88.666 -37 171.999 -37v-227z" />
    <glyph glyph-name="afii62764" unicode="&#x629;" horiz-adv-x="1413" arabic-form="final" 
d="M1462 0c-108 0 -181 13.667 -219 41c-18 8 -98 76.333 -240 205c-86 -182 -226 -273 -420 -273c-118.667 0 -221 42.333 -307 127s-129 188.667 -129 312c0 83.333 29.333 168 88 254c31.333 48.667 91.333 116 180 202l-67 78l157 156l684 -727
c56 -60 98.333 -101.667 127 -125c30 -15.333 78.667 -23 146 -23v-227zM804 395c0 38.667 -13.666 80.3311 -40.999 124.998l-182 182c-86 -78.667 -141.333 -138.167 -166 -178.5s-37 -83.166 -37 -128.499c0 -38 17.5 -81.167 52.5 -129.5s87.167 -72.5 156.5 -72.5
c67.333 0 122.666 25.667 165.999 77c34 38.667 51 80.334 51 125.001zM477.001 1411c0 20.667 4 40.334 12 59.001s19 35 33 49s30.333 25.167 49 33.5s38.667 12.5 60 12.5c20.667 0 40.334 -4.16699 59.001 -12.5s35 -19.5 49 -33.5s25.167 -30.333 33.5 -49
s12.5 -38.334 12.5 -59.001c0 -21.333 -4.16699 -41.166 -12.5 -59.499s-19.5 -34.5 -33.5 -48.5s-30.333 -25 -49 -33s-38.334 -12 -59.001 -12c-21.333 0 -41.333 4 -60 12s-35 19 -49 33s-25 30.167 -33 48.5s-12 38.166 -12 59.499zM128.001 1411
c0 20.667 4 40.334 12 59.001s19 35 33 49s30.167 25.167 48.5 33.5s38.166 12.5 59.499 12.5c20.667 0 40.334 -4.16699 59.001 -12.5s35 -19.5 49 -33.5s25.167 -30.333 33.5 -49s12.5 -38.334 12.5 -59.001c0 -21.333 -4.16699 -41.166 -12.5 -59.499
s-19.5 -34.5 -33.5 -48.5s-30.333 -25 -49 -33s-38.334 -12 -59.001 -12c-21.333 0 -41.166 4 -59.499 12s-34.5 19 -48.5 33s-25 30.167 -33 48.5s-12 38.166 -12 59.499z" />
    <glyph glyph-name="afii62767" unicode="&#x62a;" horiz-adv-x="2173" arabic-form="final" 
d="M2214 0l-143.001 6l-97 14c-52 15.333 -93 39.333 -123 72c-76 -61.333 -149 -92 -219 -92h-1202c-90 -0 -167.167 38.833 -231.5 116.5s-96.5 163.167 -96.5 256.5v346h230v-313c0 -62 7.33301 -102.333 22 -121c24.667 -38.667 73.334 -58 146.001 -58h1061
c64 0 105.667 7.66699 125 23c31.333 27.333 47 79.333 47 156v313h231v-313c0 -56 12.333 -96.333 37 -121c38 -38.667 109 -58 213 -58v-227zM1079 1081c0 20.667 4 40.334 12 59.001s19 35 33 49s30.333 25.167 49 33.5s38.667 12.5 60 12.5
c20.667 0 40.334 -4.16699 59.001 -12.5s35 -19.5 49 -33.5s25.167 -30.333 33.5 -49s12.5 -38.334 12.5 -59.001c0 -21.333 -4.16699 -41.166 -12.5 -59.499s-19.5 -34.5 -33.5 -48.5s-30.333 -25 -49 -33s-38.334 -12 -59.001 -12c-21.333 0 -41.333 4 -60 12
s-35 19 -49 33s-25 30.167 -33 48.5s-12 38.166 -12 59.499zM729.999 1081c0 20.667 4 40.334 12 59.001s19 35 33 49s30.167 25.167 48.5 33.5s38.166 12.5 59.499 12.5c20.667 0 40.334 -4.16699 59.001 -12.5s35 -19.5 49 -33.5s25.167 -30.333 33.5 -49
s12.5 -38.334 12.5 -59.001c0 -21.333 -4.16699 -41.166 -12.5 -59.499s-19.5 -34.5 -33.5 -48.5s-30.333 -25 -49 -33s-38.334 -12 -59.001 -12c-21.333 0 -41.166 4 -59.499 12s-34.5 19 -48.5 33s-25 30.167 -33 48.5s-12 38.166 -12 59.499z" />
    <glyph glyph-name="afii62765" unicode="&#x62a;" horiz-adv-x="743" arabic-form="initial" 
d="M662 373c0 -100 -33.166 -187.167 -99.499 -261.5s-144.5 -111.5 -234.5 -111.5h-371v227h299c75.333 0 126.666 19.333 153.999 58c10.667 18.667 16 59 16 121v313h236v-346zM371.001 1107c0 20.667 4 40.334 12 59.001s19 35 33 49s30.333 25.167 49 33.5
s38.667 12.5 60 12.5c20.667 0 40.334 -4.16699 59.001 -12.5s35 -19.5 49 -33.5s25.167 -30.333 33.5 -49s12.5 -38.334 12.5 -59.001c0 -21.333 -4.16699 -41.166 -12.5 -59.499s-19.5 -34.5 -33.5 -48.5s-30.333 -25 -49 -33s-38.334 -12 -59.001 -12
c-21.333 0 -41.333 4 -60 12s-35 19 -49 33s-25 30.167 -33 48.5s-12 38.166 -12 59.499zM22.001 1107c0 20.667 4 40.334 12 59.001s19 35 33 49s30.167 25.167 48.5 33.5s38.166 12.5 59.499 12.5c20.667 0 40.334 -4.16699 59.001 -12.5s35 -19.5 49 -33.5
s25.167 -30.333 33.5 -49s12.5 -38.334 12.5 -59.001c0 -21.333 -4.16699 -41.166 -12.5 -59.499s-19.5 -34.5 -33.5 -48.5s-30.333 -25 -49 -33s-38.334 -12 -59.001 -12c-21.333 0 -41.166 4 -59.499 12s-34.5 19 -48.5 33s-25 30.167 -33 48.5s-12 38.166 -12 59.499z
" />
    <glyph glyph-name="afii62766" unicode="&#x62a;" horiz-adv-x="936" arabic-form="medial" 
d="M983 0l-135 4l-68 10l-53 27l-65 51c-74 -61.333 -147.333 -92 -220 -92h-489v227h422c74.667 0 124.334 19.333 149.001 58c11.333 18.667 17 59 17 121v313h233v-313c0 -72.667 12.333 -120 37 -142c31.333 -24.667 88.666 -37 171.999 -37v-227zM450 1081
c0 20.667 4 40.334 12 59.001s19 35 33 49s30.333 25.167 49 33.5s38.667 12.5 60 12.5c20.667 0 40.334 -4.16699 59.001 -12.5s35 -19.5 49 -33.5s25.167 -30.333 33.5 -49s12.5 -38.334 12.5 -59.001c0 -21.333 -4.16699 -41.166 -12.5 -59.499s-19.5 -34.5 -33.5 -48.5
s-30.333 -25 -49 -33s-38.334 -12 -59.001 -12c-21.333 0 -41.333 4 -60 12s-35 19 -49 33s-25 30.167 -33 48.5s-12 38.166 -12 59.499zM101 1081c0 20.667 4 40.334 12 59.001s19 35 33 49s30.167 25.167 48.5 33.5s38.166 12.5 59.499 12.5
c20.667 0 40.334 -4.16699 59.001 -12.5s35 -19.5 49 -33.5s25.167 -30.333 33.5 -49s12.5 -38.334 12.5 -59.001c0 -21.333 -4.16699 -41.166 -12.5 -59.499s-19.5 -34.5 -33.5 -48.5s-30.333 -25 -49 -33s-38.334 -12 -59.001 -12c-21.333 0 -41.166 4 -59.499 12
s-34.5 19 -48.5 33s-25 30.167 -33 48.5s-12 38.166 -12 59.499z" />
    <glyph glyph-name="afii62770" unicode="&#x62b;" horiz-adv-x="2173" arabic-form="final" 
d="M2214 0l-143.001 6l-97 14c-52 15.333 -93 39.333 -123 72c-76 -61.333 -149 -92 -219 -92h-1202c-90 -0 -167.167 38.833 -231.5 116.5s-96.5 163.167 -96.5 256.5v346h230v-313c0 -62 7.33301 -102.333 22 -121c24.667 -38.667 73.334 -58 146.001 -58h1061
c64 0 105.667 7.66699 125 23c31.333 27.333 47 79.333 47 156v313h231v-313c0 -56 12.333 -96.333 37 -121c38 -38.667 109 -58 213 -58v-227zM1178 1427c0 -21.333 -4.16699 -41.333 -12.5 -60s-19.5 -35 -33.5 -49s-30.333 -25 -49 -33s-38.334 -12 -59.001 -12
c-21.333 0 -41.166 4 -59.499 12s-34.5 19 -48.5 33s-25 30.333 -33 49s-12 38.667 -12 60c0 20.667 4 40.334 12 59.001s19 35 33 49s30.167 25.167 48.5 33.5s38.166 12.5 59.499 12.5c20.667 0 40.334 -4.16699 59.001 -12.5s35 -19.5 49 -33.5s25.167 -30.333 33.5 -49
s12.5 -38.334 12.5 -59.001zM1002 1079c0 -21.333 -4.16699 -41.333 -12.5 -60s-19.5 -35 -33.5 -49s-30.333 -25 -49 -33s-38.334 -12 -59.001 -12c-21.333 0 -41.166 4 -59.499 12s-34.5 19 -48.5 33s-25 30.333 -33 49s-12 38.667 -12 60c0 20.667 4 40.334 12 59.001
s19 35 33 49s30.167 25.167 48.5 33.5s38.166 12.5 59.499 12.5c20.667 0 40.334 -4.16699 59.001 -12.5s35 -19.5 49 -33.5s25.167 -30.333 33.5 -49s12.5 -38.334 12.5 -59.001zM1372 1079c0 -21.333 -4.16699 -41.333 -12.5 -60s-19.5 -35 -33.5 -49s-30.333 -25 -49 -33
s-38.334 -12 -59.001 -12c-21.333 0 -41.333 4 -60 12s-35 19 -49 33s-25 30.333 -33 49s-12 38.667 -12 60c0 20.667 4 40.334 12 59.001s19 35 33 49s30.333 25.167 49 33.5s38.667 12.5 60 12.5c20.667 0 40.334 -4.16699 59.001 -12.5s35 -19.5 49 -33.5
s25.167 -30.333 33.5 -49s12.5 -38.334 12.5 -59.001z" />
    <glyph glyph-name="afii62768" unicode="&#x62b;" horiz-adv-x="743" arabic-form="initial" 
d="M662 373c0 -100 -33.166 -187.167 -99.499 -261.5s-144.5 -111.5 -234.5 -111.5h-371v227h299c75.333 0 126.666 19.333 153.999 58c10.667 18.667 16 59 16 121v313h236v-346zM485.001 1451c0 -21.333 -4.16699 -41.333 -12.5 -60s-19.5 -35 -33.5 -49
s-30.333 -25 -49 -33s-38.334 -12 -59.001 -12c-21.333 0 -41.166 4 -59.499 12s-34.5 19 -48.5 33s-25 30.333 -33 49s-12 38.667 -12 60c0 20.667 4 40.334 12 59.001s19 35 33 49s30.167 25.167 48.5 33.5s38.166 12.5 59.499 12.5
c20.667 0 40.334 -4.16699 59.001 -12.5s35 -19.5 49 -33.5s25.167 -30.333 33.5 -49s12.5 -38.334 12.5 -59.001zM309.001 1103c0 -21.333 -4.16699 -41.333 -12.5 -60s-19.5 -35 -33.5 -49s-30.333 -25 -49 -33s-38.334 -12 -59.001 -12c-21.333 0 -41.166 4 -59.499 12
s-34.5 19 -48.5 33s-25 30.333 -33 49s-12 38.667 -12 60c0 20.667 4 40.334 12 59.001s19 35 33 49s30.167 25.167 48.5 33.5s38.166 12.5 59.499 12.5c20.667 0 40.334 -4.16699 59.001 -12.5s35 -19.5 49 -33.5s25.167 -30.333 33.5 -49s12.5 -38.334 12.5 -59.001z
M679.001 1103c0 -21.333 -4.16699 -41.333 -12.5 -60s-19.5 -35 -33.5 -49s-30.333 -25 -49 -33s-38.334 -12 -59.001 -12c-21.333 0 -41.333 4 -60 12s-35 19 -49 33s-25 30.333 -33 49s-12 38.667 -12 60c0 20.667 4 40.334 12 59.001s19 35 33 49s30.333 25.167 49 33.5
s38.667 12.5 60 12.5c20.667 0 40.334 -4.16699 59.001 -12.5s35 -19.5 49 -33.5s25.167 -30.333 33.5 -49s12.5 -38.334 12.5 -59.001z" />
    <glyph glyph-name="afii62769" unicode="&#x62b;" horiz-adv-x="936" arabic-form="medial" 
d="M983 0l-135 4l-68 10l-53 27l-65 51c-74 -61.333 -147.333 -92 -220 -92h-489v227h422c74.667 0 124.334 19.333 149.001 58c11.333 18.667 17 59 17 121v313h233v-313c0 -72.667 12.333 -120 37 -142c31.333 -24.667 88.666 -37 171.999 -37v-227zM648 1426
c0 -21.333 -4.16699 -41.333 -12.5 -60s-19.5 -35 -33.5 -49s-30.333 -25 -49 -33s-38.334 -12 -59.001 -12c-21.333 0 -41.166 4 -59.499 12s-34.5 19 -48.5 33s-25 30.333 -33 49s-12 38.667 -12 60c0 20.667 4 40.334 12 59.001s19 35 33 49s30.167 25.167 48.5 33.5
s38.166 12.5 59.499 12.5c20.667 0 40.334 -4.16699 59.001 -12.5s35 -19.5 49 -33.5s25.167 -30.333 33.5 -49s12.5 -38.334 12.5 -59.001zM472 1078c0 -21.333 -4.16699 -41.333 -12.5 -60s-19.5 -35 -33.5 -49s-30.333 -25 -49 -33s-38.334 -12 -59.001 -12
c-21.333 0 -41.166 4 -59.499 12s-34.5 19 -48.5 33s-25 30.333 -33 49s-12 38.667 -12 60c0 20.667 4 40.334 12 59.001s19 35 33 49s30.167 25.167 48.5 33.5s38.166 12.5 59.499 12.5c20.667 0 40.334 -4.16699 59.001 -12.5s35 -19.5 49 -33.5s25.167 -30.333 33.5 -49
s12.5 -38.334 12.5 -59.001zM842 1078c0 -21.333 -4.16699 -41.333 -12.5 -60s-19.5 -35 -33.5 -49s-30.333 -25 -49 -33s-38.334 -12 -59.001 -12c-21.333 0 -41.333 4 -60 12s-35 19 -49 33s-25 30.333 -33 49s-12 38.667 -12 60c0 20.667 4 40.334 12 59.001s19 35 33 49
s30.333 25.167 49 33.5s38.667 12.5 60 12.5c20.667 0 40.334 -4.16699 59.001 -12.5s35 -19.5 49 -33.5s25.167 -30.333 33.5 -49s12.5 -38.334 12.5 -59.001z" />
    <glyph glyph-name="afii62773" unicode="&#x62c;" horiz-adv-x="1513" arabic-form="final" 
d="M806 -427c0 20.667 4 40.334 12 59.001s19 35 33 49s30.333 25.167 49 33.5s38.667 12.5 60 12.5c20.667 0 40.334 -4.16699 59.001 -12.5s35 -19.5 49 -33.5s25 -30.333 33 -49s12 -38.334 12 -59.001c0 -21.333 -4 -41.166 -12 -59.499s-19 -34.5 -33 -48.5
s-30.333 -25 -49 -33s-38.334 -12 -59.001 -12c-21.333 0 -41.333 4 -60 12s-35 19 -49 33s-25 30.167 -33 48.5s-12 38.166 -12 59.499zM1572 0c-128 0 -225.665 16.998 -292.998 50.998c-47.333 24.667 -81.333 61 -102 109l-29 110l-450 -250
c-202 -114.667 -303 -256.667 -303 -426c0 -121.333 50.5 -229.666 151.5 -324.999s208.167 -143 321.5 -143h667l19 -232h-627c-238.667 0 -433.334 86.667 -584.001 260c-110 135.333 -165 284.333 -165 447v47l4 51c21.333 211.333 131 369 329 473l705 385
c-36.667 65.333 -87.834 103.833 -153.501 115.5s-268.5 17.5 -608.5 17.5l-33 223h551c153.333 0 271.5 -40.167 354.5 -120.5s124.5 -197.166 124.5 -350.499l-208 -118c6.66699 -40 37 -66.167 91 -78.5s133.333 -18.5 238 -18.5v-227z" />
    <glyph glyph-name="afii62771" unicode="&#x62c;" horiz-adv-x="1309" arabic-form="initial" 
d="M1264 442l-525 -297c-114.667 -65.333 -221.5 -105.833 -320.5 -121.5s-256.167 -23.5 -471.5 -23.5v227h182c87.333 0 145.333 4.33301 174 13c95.333 10.667 184.666 35 267.999 73c56 23.333 131.333 64.333 226 123l217 119c-22 57.333 -74 96.333 -156 117
c-73.333 12 -270.666 18 -591.999 18l-33 223h564c311.333 0 467 -157 467 -471zM657 -346c0 20.667 4 40.334 12 59.001s19 35 33 49s30.333 25.167 49 33.5s38.667 12.5 60 12.5c20.667 0 40.334 -4.16699 59.001 -12.5s35 -19.5 49 -33.5s25 -30.333 33 -49
s12 -38.334 12 -59.001c0 -21.333 -4 -41.166 -12 -59.499s-19 -34.5 -33 -48.5s-30.333 -25 -49 -33s-38.334 -12 -59.001 -12c-21.333 0 -41.333 4 -60 12s-35 19 -49 33s-25 30.167 -33 48.5s-12 38.166 -12 59.499z" />
    <glyph glyph-name="afii62772" unicode="&#x62c;" horiz-adv-x="1309" arabic-form="medial" 
d="M1346 0c-122 0 -211.666 14.334 -268.999 43.001c-38 19.333 -69.333 55.666 -94 108.999l-27 118c-92.667 -58.667 -182.667 -109 -270 -151c-76.667 -34 -139.334 -60 -188.001 -78c-104 -27.333 -287.667 -41 -551 -41v227h182c87.333 0 145.333 4.33301 174 13
c95.333 10.667 184.666 35 267.999 73c56 23.333 131.333 64.333 226 123l217 119c-22 57.333 -74 96.333 -156 117c-73.333 12 -270.666 18 -591.999 18l-33 223h564c148.667 0 263.667 -40.167 345 -120.5s122 -197.833 122 -352.5l-213 -116
c0 -64.667 98.333 -97 295 -97v-227zM552.001 -368.999c0 20.667 4 40.334 12 59.001s19 35 33 49s30.333 25.167 49 33.5s38.667 12.5 60 12.5c20.667 0 40.334 -4.16699 59.001 -12.5s35 -19.5 49 -33.5s25 -30.333 33 -49s12 -38.334 12 -59.001
c0 -21.333 -4 -41.166 -12 -59.499s-19 -34.5 -33 -48.5s-30.333 -25 -49 -33s-38.334 -12 -59.001 -12c-21.333 0 -41.333 4 -60 12s-35 19 -49 33s-25 30.167 -33 48.5s-12 38.166 -12 59.499z" />
    <glyph glyph-name="afii62776" unicode="&#x62d;" horiz-adv-x="1513" arabic-form="final" 
d="M1572 0c-128 0 -225.665 16.998 -292.998 50.998c-47.333 24.667 -81.333 61 -102 109l-29 110l-450 -250c-202 -114.667 -303 -256.667 -303 -426c0 -121.333 50.5 -229.666 151.5 -324.999s208.167 -143 321.5 -143h667l19 -232h-627
c-238.667 0 -433.334 86.667 -584.001 260c-110 135.333 -165 284.333 -165 447v47l4 51c21.333 211.333 131 369 329 473l705 385c-36.667 65.333 -87.834 103.833 -153.501 115.5s-268.5 17.5 -608.5 17.5l-33 223h551c153.333 0 271.5 -40.167 354.5 -120.5
s124.5 -197.166 124.5 -350.499l-208 -118c6.66699 -40 37 -66.167 91 -78.5s133.333 -18.5 238 -18.5v-227z" />
    <glyph glyph-name="afii62774" unicode="&#x62d;" horiz-adv-x="1309" arabic-form="initial" 
d="M1264 442l-525 -297c-114.667 -65.333 -221.5 -105.833 -320.5 -121.5s-256.167 -23.5 -471.5 -23.5v227h182c87.333 0 145.333 4.33301 174 13c95.333 10.667 184.666 35 267.999 73c56 23.333 131.333 64.333 226 123l217 119c-22 57.333 -74 96.333 -156 117
c-73.333 12 -270.666 18 -591.999 18l-33 223h564c311.333 0 467 -157 467 -471z" />
    <glyph glyph-name="afii62775" unicode="&#x62d;" horiz-adv-x="1309" arabic-form="medial" 
d="M1346 0c-122 0 -211.666 14.334 -268.999 43.001c-38 19.333 -69.333 55.666 -94 108.999l-27 118c-92.667 -58.667 -182.667 -109 -270 -151c-76.667 -34 -139.334 -60 -188.001 -78c-104 -27.333 -287.667 -41 -551 -41v227h182c87.333 0 145.333 4.33301 174 13
c95.333 10.667 184.666 35 267.999 73c56 23.333 131.333 64.333 226 123l217 119c-22 57.333 -74 96.333 -156 117c-73.333 12 -270.666 18 -591.999 18l-33 223h564c148.667 0 263.667 -40.167 345 -120.5s122 -197.833 122 -352.5l-213 -116
c0 -64.667 98.333 -97 295 -97v-227z" />
    <glyph glyph-name="afii62779" unicode="&#x62e;" horiz-adv-x="1513" arabic-form="final" 
d="M1572 0c-128 0 -225.665 16.998 -292.998 50.998c-47.333 24.667 -81.333 61 -102 109l-29 110l-450 -250c-202 -114.667 -303 -256.667 -303 -426c0 -121.333 50.5 -229.666 151.5 -324.999s208.167 -143 321.5 -143h667l19 -232h-627
c-238.667 0 -433.334 86.667 -584.001 260c-110 135.333 -165 284.333 -165 447v47l4 51c21.333 211.333 131 369 329 473l705 385c-36.667 65.333 -87.834 103.833 -153.501 115.5s-268.5 17.5 -608.5 17.5l-33 223h551c153.333 0 271.5 -40.167 354.5 -120.5
s124.5 -197.166 124.5 -350.499l-208 -118c6.66699 -40 37 -66.167 91 -78.5s133.333 -18.5 238 -18.5v-227zM675.002 1273c0 20.667 4 40.334 12 59.001s19 35 33 49s30.333 25.167 49 33.5s38.667 12.5 60 12.5c20.667 0 40.334 -4.16699 59.001 -12.5s35 -19.5 49 -33.5
s25 -30.333 33 -49s12 -38.334 12 -59.001c0 -21.333 -4 -41.166 -12 -59.499s-19 -34.5 -33 -48.5s-30.333 -25 -49 -33s-38.334 -12 -59.001 -12c-21.333 0 -41.333 4 -60 12s-35 19 -49 33s-25 30.167 -33 48.5s-12 38.166 -12 59.499z" />
    <glyph glyph-name="afii62777" unicode="&#x62e;" horiz-adv-x="1309" arabic-form="initial" 
d="M1264 442l-525 -297c-114.667 -65.333 -221.5 -105.833 -320.5 -121.5s-256.167 -23.5 -471.5 -23.5v227h182c87.333 0 145.333 4.33301 174 13c95.333 10.667 184.666 35 267.999 73c56 23.333 131.333 64.333 226 123l217 119c-22 57.333 -74 96.333 -156 117
c-73.333 12 -270.666 18 -591.999 18l-33 223h564c311.333 0 467 -157 467 -471zM456 1271c0 20.667 4 40.334 12 59.001s19 35 33 49s30.333 25.167 49 33.5s38.667 12.5 60 12.5c20.667 0 40.334 -4.16699 59.001 -12.5s35 -19.5 49 -33.5s25 -30.333 33 -49
s12 -38.334 12 -59.001c0 -21.333 -4 -41.166 -12 -59.499s-19 -34.5 -33 -48.5s-30.333 -25 -49 -33s-38.334 -12 -59.001 -12c-21.333 0 -41.333 4 -60 12s-35 19 -49 33s-25 30.167 -33 48.5s-12 38.166 -12 59.499z" />
    <glyph glyph-name="afii62778" unicode="&#x62e;" horiz-adv-x="1309" arabic-form="medial" 
d="M1346 0c-122 0 -211.666 14.334 -268.999 43.001c-38 19.333 -69.333 55.666 -94 108.999l-27 118c-92.667 -58.667 -182.667 -109 -270 -151c-76.667 -34 -139.334 -60 -188.001 -78c-104 -27.333 -287.667 -41 -551 -41v227h182c87.333 0 145.333 4.33301 174 13
c95.333 10.667 184.666 35 267.999 73c56 23.333 131.333 64.333 226 123l217 119c-22 57.333 -74 96.333 -156 117c-73.333 12 -270.666 18 -591.999 18l-33 223h564c148.667 0 263.667 -40.167 345 -120.5s122 -197.833 122 -352.5l-213 -116
c0 -64.667 98.333 -97 295 -97v-227zM476.001 1245c0 20.667 4 40.334 12 59.001s19 35 33 49s30.333 25.167 49 33.5s38.667 12.5 60 12.5c20.667 0 40.334 -4.16699 59.001 -12.5s35 -19.5 49 -33.5s25 -30.333 33 -49s12 -38.334 12 -59.001
c0 -21.333 -4 -41.166 -12 -59.499s-19 -34.5 -33 -48.5s-30.333 -25 -49 -33s-38.334 -12 -59.001 -12c-21.333 0 -41.333 4 -60 12s-35 19 -49 33s-25 30.167 -33 48.5s-12 38.166 -12 59.499z" />
    <glyph glyph-name="afii62780" unicode="&#x62f;" horiz-adv-x="1569" arabic-form="final" 
d="M1595 0h-109.001c-86 -0 -181.667 53.333 -287 160c-26 -41.333 -58 -79 -96 -113c-49.333 -31.333 -120.333 -47 -213 -47h-702l-33 227h723c86 0 129 28.667 129 86c0 34.667 -13 64 -39 88l-512 545l153 156l687 -727c68 -70 119 -113.667 153 -131
c20.667 -11.333 69.334 -17 146.001 -17v-227z" />
    <glyph glyph-name="afii62781" unicode="&#x630;" horiz-adv-x="1569" arabic-form="final" 
d="M1595 0h-109.001c-86 -0 -181.667 53.333 -287 160c-26 -41.333 -58 -79 -96 -113c-49.333 -31.333 -120.333 -47 -213 -47h-702l-33 227h723c86 0 129 28.667 129 86c0 34.667 -13 64 -39 88l-512 545l153 156l687 -727c68 -70 119 -113.667 153 -131
c20.667 -11.333 69.334 -17 146.001 -17v-227zM365.999 1401c0 20.667 4 40.334 12 59.001s19 35 33 49s30.333 25.167 49 33.5s38.667 12.5 60 12.5c20.667 0 40.334 -4.16699 59.001 -12.5s35 -19.5 49 -33.5s25 -30.333 33 -49s12 -38.334 12 -59.001
c0 -21.333 -4 -41.166 -12 -59.499s-19 -34.5 -33 -48.5s-30.333 -25 -49 -33s-38.334 -12 -59.001 -12c-21.333 0 -41.333 4 -60 12s-35 19 -49 33s-25 30.167 -33 48.5s-12 38.166 -12 59.499z" />
    <glyph glyph-name="afii62782" unicode="&#x631;" horiz-adv-x="1163" arabic-form="final" 
d="M1200 0c-113.333 0 -194.668 36.334 -244.001 109.001c0 -210.667 -59.333 -384.334 -178 -521.001c-110.667 -110.667 -243.667 -166 -399 -166h-295l-41 226h315c94.667 0 179.834 32 255.501 96s113.5 144 113.5 240v735h225v-330c0 -108 82.667 -162 248 -162v-227z
" />
    <glyph glyph-name="afii62783" unicode="&#x632;" horiz-adv-x="1163" arabic-form="final" 
d="M1200 0c-113.333 0 -194.668 36.334 -244.001 109.001c0 -210.667 -59.333 -384.334 -178 -521.001c-110.667 -110.667 -243.667 -166 -399 -166h-295l-41 226h315c94.667 0 179.834 32 255.501 96s113.5 144 113.5 240v735h225v-330c0 -108 82.667 -162 248 -162v-227z
M626.998 1097c0 20.667 4 40.334 12 59.001s19 35 33 49s30.333 25.167 49 33.5s38.667 12.5 60 12.5c20.667 0 40.334 -4.16699 59.001 -12.5s35 -19.5 49 -33.5s25 -30.333 33 -49s12 -38.334 12 -59.001c0 -21.333 -4 -41.166 -12 -59.499s-19 -34.5 -33 -48.5
s-30.333 -25 -49 -33s-38.334 -12 -59.001 -12c-21.333 0 -41.333 4 -60 12s-35 19 -49 33s-25 30.167 -33 48.5s-12 38.166 -12 59.499z" />
    <glyph glyph-name="afii62786" unicode="&#x633;" horiz-adv-x="2916" arabic-form="final" 
d="M2959 0l-93.998 4c-28.667 0 -51 3.33301 -67 10c-66 11.333 -118 48.333 -156 111c-66.667 -100 -160.334 -150 -281 -150c-114.667 0 -214.334 52 -299 156c-84.667 -108 -179.334 -162 -284.001 -162c-86 0 -165.333 34.333 -238 103
c0 -187.333 -54.667 -342.5 -164 -465.5s-242.333 -184.5 -399 -184.5h-359c-148.667 0 -279.334 58.5 -392.001 175.5s-169 255.833 -169 416.5v475h228v-485c0 -99.333 34.833 -183.5 104.5 -252.5s156.167 -103.5 259.5 -103.5h297c106.667 0 194.167 33.333 262.5 100
s102.5 152 102.5 256v715h229v-340c0 -52 24 -99 72 -141c38 -30 79.667 -45 125 -45c100.667 0 151 48.333 151 145v381h234v-338c0 -52 22.333 -99.667 67 -143c38.667 -30 80.334 -45 125 -45c106.667 0 160 48.333 160 145v381h225v-354c0 -49.333 27.333 -89 82 -119
l72 -13l106 -6v-227z" />
    <glyph glyph-name="afii62784" unicode="&#x633;" horiz-adv-x="1845" arabic-form="initial" 
d="M1763 365c0 -126 -30.668 -222.833 -92.001 -290.5s-137 -101.5 -227 -101.5c-110.667 0 -216 52 -316 156c-87.333 -102.667 -180.666 -154 -279.999 -154c-98.667 0 -202.334 61.667 -311.001 185c-38.667 -41.333 -84.667 -81 -138 -119
c-50 -27.333 -103 -41 -159 -41h-291v227h270c56 0 97.667 12.667 125 38s41 70 41 134v320h219v-338c0 -52 24 -99.667 72 -143c40.667 -30 84.334 -45 131.001 -45c102.667 0 154 48.333 154 145v381h221v-338c0 -57.333 25 -105 75 -143c40 -30 81.667 -45 125 -45
c105.333 0 158 48.333 158 145v381h223v-354z" />
    <glyph glyph-name="afii62785" unicode="&#x633;" horiz-adv-x="1985" arabic-form="medial" 
d="M2013 0l-94.002 4.00098c-31.333 0 -54.666 3.33301 -69.999 10c-64 15.333 -112.333 52.333 -145 111c-71.333 -101.333 -158 -152 -260 -152c-109.333 0 -214.666 52 -315.999 156c-92.667 -104 -201.667 -156 -327 -156c-126 0 -230 54 -312 162
c-38 -54.667 -109 -94.334 -213 -119.001c-62.667 -10.667 -175.667 -16 -339 -16v227c202 0 324.5 9 367.5 27s64.5 75.333 64.5 172v293h223v-340c0 -58.667 24.667 -105.667 74 -141c40.667 -30 82.334 -45 125.001 -45c100.667 0 151 48.333 151 145v381h227v-338
c0 -57.333 24 -105 72 -143c39.333 -30 81.666 -45 126.999 -45c104 0 156 48.333 156 145v381h227v-354c0 -49.333 28 -89 84 -119l72 -13l106 -6v-227z" />
    <glyph glyph-name="afii62789" unicode="&#x634;" horiz-adv-x="2916" arabic-form="final" 
d="M2959 0l-93.998 4c-28.667 0 -51 3.33301 -67 10c-66 11.333 -118 48.333 -156 111c-66.667 -100 -160.334 -150 -281 -150c-114.667 0 -214.334 52 -299 156c-84.667 -108 -179.334 -162 -284.001 -162c-86 0 -165.333 34.333 -238 103
c0 -187.333 -54.667 -342.5 -164 -465.5s-242.333 -184.5 -399 -184.5h-359c-148.667 0 -279.334 58.5 -392.001 175.5s-169 255.833 -169 416.5v475h228v-485c0 -99.333 34.833 -183.5 104.5 -252.5s156.167 -103.5 259.5 -103.5h297c106.667 0 194.167 33.333 262.5 100
s102.5 152 102.5 256v715h229v-340c0 -52 24 -99 72 -141c38 -30 79.667 -45 125 -45c100.667 0 151 48.333 151 145v381h234v-338c0 -52 22.333 -99.667 67 -143c38.667 -30 80.334 -45 125 -45c106.667 0 160 48.333 160 145v381h225v-354c0 -49.333 27.333 -89 82 -119
l72 -13l106 -6v-227zM2166 1441c0 -21.333 -4.16699 -41.333 -12.5 -60s-19.5 -35 -33.5 -49s-30.333 -25 -49 -33s-38.334 -12 -59.001 -12c-21.333 0 -41.166 4 -59.499 12s-34.5 19 -48.5 33s-25 30.333 -33 49s-12 38.667 -12 60c0 20.667 4 40.334 12 59.001
s19 35 33 49s30.167 25.167 48.5 33.5s38.166 12.5 59.499 12.5c20.667 0 40.334 -4.16699 59.001 -12.5s35 -19.5 49 -33.5s25.167 -30.333 33.5 -49s12.5 -38.334 12.5 -59.001zM1990 1093c0 -21.333 -4.16699 -41.333 -12.5 -60s-19.5 -35 -33.5 -49s-30.333 -25 -49 -33
s-38.334 -12 -59.001 -12c-21.333 0 -41.166 4 -59.499 12s-34.5 19 -48.5 33s-25 30.333 -33 49s-12 38.667 -12 60c0 20.667 4 40.334 12 59.001s19 35 33 49s30.167 25.167 48.5 33.5s38.166 12.5 59.499 12.5c20.667 0 40.334 -4.16699 59.001 -12.5s35 -19.5 49 -33.5
s25.167 -30.333 33.5 -49s12.5 -38.334 12.5 -59.001zM2360 1093c0 -21.333 -4.16699 -41.333 -12.5 -60s-19.5 -35 -33.5 -49s-30.333 -25 -49 -33s-38.334 -12 -59 -12c-21.333 0 -41.333 4 -60 12s-35 19 -49 33s-25 30.333 -33 49s-12 38.667 -12 60
c0 20.667 4 40.334 12 59.001s19 35 33 49s30.333 25.167 49 33.5s38.667 12.5 60 12.5c20.667 0 40.334 -4.16699 59 -12.5c18.667 -8.33301 35 -19.5 49 -33.5s25.167 -30.333 33.5 -49s12.5 -38.334 12.5 -59.001z" />
    <glyph glyph-name="afii62787" unicode="&#x634;" horiz-adv-x="1845" arabic-form="initial" 
d="M1763 365c0 -126 -30.668 -222.833 -92.001 -290.5s-137 -101.5 -227 -101.5c-110.667 0 -216 52 -316 156c-87.333 -102.667 -180.666 -154 -279.999 -154c-98.667 0 -202.334 61.667 -311.001 185c-38.667 -41.333 -84.667 -81 -138 -119
c-50 -27.333 -103 -41 -159 -41h-291v227h270c56 0 97.667 12.667 125 38s41 70 41 134v320h219v-338c0 -52 24 -99.667 72 -143c40.667 -30 84.334 -45 131.001 -45c102.667 0 154 48.333 154 145v381h221v-338c0 -57.333 25 -105 75 -143c40 -30 81.667 -45 125 -45
c105.333 0 158 48.333 158 145v381h223v-354zM1283 1454c0 -21.333 -4.16699 -41.333 -12.5 -60s-19.5 -35 -33.5 -49s-30.333 -25 -49 -33s-38.334 -12 -59.001 -12c-21.333 0 -41.166 4 -59.499 12s-34.5 19 -48.5 33s-25 30.333 -33 49s-12 38.667 -12 60
c0 20.667 4 40.334 12 59.001s19 35 33 49s30.167 25.167 48.5 33.5s38.166 12.5 59.499 12.5c20.667 0 40.334 -4.16699 59.001 -12.5s35 -19.5 49 -33.5s25.167 -30.333 33.5 -49s12.5 -38.334 12.5 -59.001zM1107 1106c0 -21.333 -4.16699 -41.333 -12.5 -60
s-19.5 -35 -33.5 -49s-30.333 -25 -49 -33s-38.334 -12 -59.001 -12c-21.333 0 -41.166 4 -59.499 12s-34.5 19 -48.5 33s-25 30.333 -33 49s-12 38.667 -12 60c0 20.667 4 40.334 12 59.001s19 35 33 49s30.167 25.167 48.5 33.5s38.166 12.5 59.499 12.5
c20.667 0 40.334 -4.16699 59.001 -12.5s35 -19.5 49 -33.5s25.167 -30.333 33.5 -49s12.5 -38.334 12.5 -59.001zM1477 1106c0 -21.333 -4.16699 -41.333 -12.5 -60s-19.5 -35 -33.5 -49s-30.333 -25 -49 -33s-38.334 -12 -59.001 -12c-21.333 0 -41.333 4 -60 12
s-35 19 -49 33s-25 30.333 -33 49s-12 38.667 -12 60c0 20.667 4 40.334 12 59.001s19 35 33 49s30.333 25.167 49 33.5s38.667 12.5 60 12.5c20.667 0 40.334 -4.16699 59.001 -12.5s35 -19.5 49 -33.5s25.167 -30.333 33.5 -49s12.5 -38.334 12.5 -59.001z" />
    <glyph glyph-name="afii62788" unicode="&#x634;" horiz-adv-x="1985" arabic-form="medial" 
d="M2013 0l-94.002 4.00098c-31.333 0 -54.666 3.33301 -69.999 10c-64 15.333 -112.333 52.333 -145 111c-71.333 -101.333 -158 -152 -260 -152c-109.333 0 -214.666 52 -315.999 156c-92.667 -104 -201.667 -156 -327 -156c-126 0 -230 54 -312 162
c-38 -54.667 -109 -94.334 -213 -119.001c-62.667 -10.667 -175.667 -16 -339 -16v227c202 0 324.5 9 367.5 27s64.5 75.333 64.5 172v293h223v-340c0 -58.667 24.667 -105.667 74 -141c40.667 -30 82.334 -45 125.001 -45c100.667 0 151 48.333 151 145v381h227v-338
c0 -57.333 24 -105 72 -143c39.333 -30 81.666 -45 126.999 -45c104 0 156 48.333 156 145v381h227v-354c0 -49.333 28 -89 84 -119l72 -13l106 -6v-227zM1207 1428c0 -21.333 -4.16699 -41.333 -12.5 -60s-19.5 -35 -33.5 -49s-30.333 -25 -49 -33s-38.334 -12 -59.001 -12
c-21.333 0 -41.166 4 -59.499 12s-34.5 19 -48.5 33s-25 30.333 -33 49s-12 38.667 -12 60c0 20.667 4 40.334 12 59.001s19 35 33 49s30.167 25.167 48.5 33.5s38.166 12.5 59.499 12.5c20.667 0 40.334 -4.16699 59.001 -12.5s35 -19.5 49 -33.5s25.167 -30.333 33.5 -49
s12.5 -38.334 12.5 -59.001zM1031 1080c0 -21.333 -4.16699 -41.333 -12.5 -60s-19.5 -35 -33.5 -49s-30.333 -25 -49 -33s-38.334 -12 -59.001 -12c-21.333 0 -41.166 4 -59.499 12s-34.5 19 -48.5 33s-25 30.333 -33 49s-12 38.667 -12 60c0 20.667 4 40.334 12 59.001
s19 35 33 49s30.167 25.167 48.5 33.5s38.166 12.5 59.499 12.5c20.667 0 40.334 -4.16699 59.001 -12.5s35 -19.5 49 -33.5s25.167 -30.333 33.5 -49s12.5 -38.334 12.5 -59.001zM1401 1080c0 -21.333 -4.16699 -41.333 -12.5 -60s-19.5 -35 -33.5 -49s-30.333 -25 -49 -33
s-38.334 -12 -59.001 -12c-21.333 0 -41.333 4 -60 12s-35 19 -49 33s-25 30.333 -33 49s-12 38.667 -12 60c0 20.667 4 40.334 12 59.001s19 35 33 49s30.333 25.167 49 33.5s38.667 12.5 60 12.5c20.667 0 40.334 -4.16699 59.001 -12.5s35 -19.5 49 -33.5
s25.167 -30.333 33.5 -49s12.5 -38.334 12.5 -59.001z" />
    <glyph glyph-name="afii62792" unicode="&#x635;" horiz-adv-x="2859" arabic-form="final" 
d="M2900 0l-1038 0.000976562c-170.667 0 -271.667 40.333 -303 121c0 -225.333 -56.667 -402.333 -170 -531c-101.333 -112 -236.666 -168 -405.999 -168h-354c-158.667 0 -290.667 61 -396 183c-44.667 54.667 -82.667 120.667 -114 198c-27.333 72.667 -41 152 -41 238
v448h219v-505c0 -86 34.5 -163.5 103.5 -232.5s150.5 -103.5 244.5 -103.5h322c87.333 0 172 41.667 254 125c69.333 70.667 104 141 104 211v735h229v-340c0 -101.333 72.667 -152 218 -152c181.333 458.667 390 688 626 688c68.667 0 136 -19.667 202 -59
s117.167 -94.833 153.5 -166.5s54.5 -154.834 54.5 -249.501c0 -61.333 -12.333 -132.333 -37 -213h129v-227zM2572 449.001c0 96.667 -22.333 167.666 -67 212.999c-7.33301 5.33301 -30 12 -68 20c-70.667 0 -147.667 -48.333 -231 -145
c-63.333 -67.333 -131 -170.666 -203 -309.999h444c83.333 0 125 74 125 222z" />
    <glyph glyph-name="afii62790" unicode="&#x635;" horiz-adv-x="1882" arabic-form="initial" 
d="M1839 442c0 -66.667 -11.165 -138.833 -33.498 -216.5s-50.833 -130.167 -85.5 -157.5c-54.667 -45.333 -148 -68 -280 -68h-582c-156.667 0 -264.334 60.667 -323.001 182c-90.667 -121.333 -194.667 -182 -312 -182h-274v227h254c106 0 159 57.333 159 172v320h226
v-297c0 -130 74.333 -195 223 -195c83.333 220 179.666 389.333 288.999 508s224 178 344 178c49.333 0 107.333 -18.333 174 -55c147.333 -83.333 221 -222 221 -416zM1612 449.001c0 95.333 -24 166.333 -72 213c-8 5.33301 -30.333 12 -67 20
c-63.333 0 -140.666 -48.333 -231.999 -145c-70.667 -76.667 -138.334 -180 -203.001 -310h445c86 0 129 74 129 222z" />
    <glyph glyph-name="afii62791" unicode="&#x635;" horiz-adv-x="1985" arabic-form="medial" 
d="M2013 0h-1155c-156.667 0 -264.334 60.667 -323.001 182c-90.667 -121.333 -194.667 -182 -312 -182h-274v227h254c106 0 159 57.333 159 172v320h226v-297c0 -130 74.333 -195 223 -195c83.333 220 179.666 389.333 288.999 508s224 178 344 178
c56 0 115.333 -18.333 178 -55c144.667 -86 217 -224.667 217 -416c0 -60 -10.333 -131.667 -31 -215h205v-227zM1612 449c0 95.333 -24 166.333 -72 213c-8 5.33301 -30.333 12 -67 20c-63.333 0 -140.666 -48.333 -231.999 -145
c-70.667 -76.667 -138.334 -180 -203.001 -310h445c86 0 129 74 129 222z" />
    <glyph glyph-name="afii62795" unicode="&#x636;" horiz-adv-x="2859" arabic-form="final" 
d="M2900 0l-1038 0.000976562c-170.667 0 -271.667 40.333 -303 121c0 -225.333 -56.667 -402.333 -170 -531c-101.333 -112 -236.666 -168 -405.999 -168h-354c-158.667 0 -290.667 61 -396 183c-44.667 54.667 -82.667 120.667 -114 198c-27.333 72.667 -41 152 -41 238
v448h219v-505c0 -86 34.5 -163.5 103.5 -232.5s150.5 -103.5 244.5 -103.5h322c87.333 0 172 41.667 254 125c69.333 70.667 104 141 104 211v735h229v-340c0 -101.333 72.667 -152 218 -152c181.333 458.667 390 688 626 688c68.667 0 136 -19.667 202 -59
s117.167 -94.833 153.5 -166.5s54.5 -154.834 54.5 -249.501c0 -61.333 -12.333 -132.333 -37 -213h129v-227zM2572 449.001c0 96.667 -22.333 167.666 -67 212.999c-7.33301 5.33301 -30 12 -68 20c-70.667 0 -147.667 -48.333 -231 -145
c-63.333 -67.333 -131 -170.666 -203 -309.999h444c83.333 0 125 74 125 222zM1630 1197c0 20.667 4 40.334 12 59.001s19 35 33 49s30.333 25.167 49 33.5s38.667 12.5 60 12.5c20.667 0 40.334 -4.16699 59.001 -12.5s35 -19.5 49 -33.5s25 -30.333 33 -49
s12 -38.334 12 -59.001c0 -21.333 -4 -41.166 -12 -59.499s-19 -34.5 -33 -48.5s-30.333 -25 -49 -33s-38.334 -12 -59.001 -12c-21.333 0 -41.333 4 -60 12s-35 19 -49 33s-25 30.167 -33 48.5s-12 38.166 -12 59.499z" />
    <glyph glyph-name="afii62793" unicode="&#x636;" horiz-adv-x="1882" arabic-form="initial" 
d="M1839 442c0 -66.667 -11.165 -138.833 -33.498 -216.5s-50.833 -130.167 -85.5 -157.5c-54.667 -45.333 -148 -68 -280 -68h-582c-156.667 0 -264.334 60.667 -323.001 182c-90.667 -121.333 -194.667 -182 -312 -182h-274v227h254c106 0 159 57.333 159 172v320h226
v-297c0 -130 74.333 -195 223 -195c83.333 220 179.666 389.333 288.999 508s224 178 344 178c49.333 0 107.333 -18.333 174 -55c147.333 -83.333 221 -222 221 -416zM1612 449.001c0 95.333 -24 166.333 -72 213c-8 5.33301 -30.333 12 -67 20
c-63.333 0 -140.666 -48.333 -231.999 -145c-70.667 -76.667 -138.334 -180 -203.001 -310h445c86 0 129 74 129 222zM699.002 1245c0 20.667 4 40.334 12 59.001s19 35 33 49s30.333 25.167 49 33.5s38.667 12.5 60 12.5c20.667 0 40.334 -4.16699 59.001 -12.5
s35 -19.5 49 -33.5s25 -30.333 33 -49s12 -38.334 12 -59.001c0 -21.333 -4 -41.166 -12 -59.499s-19 -34.5 -33 -48.5s-30.333 -25 -49 -33s-38.334 -12 -59.001 -12c-21.333 0 -41.333 4 -60 12s-35 19 -49 33s-25 30.167 -33 48.5s-12 38.166 -12 59.499z" />
    <glyph glyph-name="afii62794" unicode="&#x636;" horiz-adv-x="1985" arabic-form="medial" 
d="M2013 0h-1155c-156.667 0 -264.334 60.667 -323.001 182c-90.667 -121.333 -194.667 -182 -312 -182h-274v227h254c106 0 159 57.333 159 172v320h226v-297c0 -130 74.333 -195 223 -195c83.333 220 179.666 389.333 288.999 508s224 178 344 178
c56 0 115.333 -18.333 178 -55c144.667 -86 217 -224.667 217 -416c0 -60 -10.333 -131.667 -31 -215h205v-227zM1612 449c0 95.333 -24 166.333 -72 213c-8 5.33301 -30.333 12 -67 20c-63.333 0 -140.666 -48.333 -231.999 -145
c-70.667 -76.667 -138.334 -180 -203.001 -310h445c86 0 129 74 129 222zM745.002 1246c0 20.667 4 40.334 12 59.001s19 35 33 49s30.333 25.167 49 33.5s38.667 12.5 60 12.5c20.667 0 40.334 -4.16699 59.001 -12.5s35 -19.5 49 -33.5s25 -30.333 33 -49
s12 -38.334 12 -59.001c0 -21.333 -4 -41.166 -12 -59.499s-19 -34.5 -33 -48.5s-30.333 -25 -49 -33s-38.334 -12 -59.001 -12c-21.333 0 -41.333 4 -60 12s-35 19 -49 33s-25 30.167 -33 48.5s-12 38.166 -12 59.499z" />
    <glyph glyph-name="afii62798" unicode="&#x637;" horiz-adv-x="1325" arabic-form="final" 
d="M1348 0h-1250l-47 227h193v1239h229v-817c139.333 176 269.666 264 390.999 264c44 0 102 -18.333 174 -55c143.333 -83.333 215 -227.333 215 -432v-31l-6 -57c0 -24.667 -8 -61.667 -24 -111h125v-227zM1028 457c0 96.667 -24.001 165.001 -72.001 205.001
c-6.66699 5.33301 -29 12 -67 20c-61.333 0 -137 -48.333 -227 -145c-83.333 -80.667 -151.666 -184 -204.999 -310h438c31.333 0 64 23.333 98 70c23.333 43.333 35 96.666 35 159.999z" />
    <glyph glyph-name="afii62796" unicode="&#x637;" horiz-adv-x="1249" arabic-form="initial" 
d="M1165 416c0 -114.667 -29.999 -210.334 -89.999 -287.001c-65.333 -86 -158 -129 -278 -129h-840v227h195v1239h227v-815c136.667 174.667 266.334 262 389.001 262c49.333 0 107.666 -18.667 174.999 -56s121.166 -97.666 161.499 -180.999s60.5 -170 60.5 -260z
M930.001 446c0 104 -25.332 176 -75.999 216c-5.33301 5.33301 -26.333 12 -63 20c-63.333 0 -141.333 -48.333 -234 -145c-76.667 -80.667 -144.334 -184 -203.001 -310h447c86 0 129 73 129 219z" />
    <glyph glyph-name="afii62797" unicode="&#x637;" horiz-adv-x="1202" arabic-form="medial" 
d="M1227 0l-1290 -0.000976562v227h165v1239h226v-817c139.333 176 272.333 264 399 264c42.667 0 98 -18.333 166 -55c143.333 -83.333 215 -225.333 215 -426c0 -79.333 -11 -147.666 -33 -204.999h152v-227zM883 456.999c0 96.667 -22.667 165.001 -68 205.001
c-6.66699 5.33301 -29 12 -67 20c-64.667 0 -142 -48.333 -232 -145c-78 -80.667 -146.333 -184 -205 -310h443c31.333 0 64 23.333 98 70c20.667 43.333 31 96.666 31 159.999z" />
    <glyph glyph-name="afii62801" unicode="&#x638;" horiz-adv-x="1325" arabic-form="final" 
d="M1348 0h-1250l-47 227h193v1239h229v-817c139.333 176 269.666 264 390.999 264c44 0 102 -18.333 174 -55c143.333 -83.333 215 -227.333 215 -432v-31l-6 -57c0 -24.667 -8 -61.667 -24 -111h125v-227zM1028 457c0 96.667 -24.001 165.001 -72.001 205.001
c-6.66699 5.33301 -29 12 -67 20c-61.333 0 -137 -48.333 -227 -145c-83.333 -80.667 -151.666 -184 -204.999 -310h438c31.333 0 64 23.333 98 70c23.333 43.333 35 96.666 35 159.999zM796 1285c0 20.667 4 40.334 12 59.001s19 35 33 49s30.333 25.167 49 33.5
s38.667 12.5 60 12.5c20.667 0 40.334 -4.16699 59.001 -12.5s35 -19.5 49 -33.5s25 -30.333 33 -49s12 -38.334 12 -59.001c0 -21.333 -4 -41.166 -12 -59.499s-19 -34.5 -33 -48.5s-30.333 -25 -49 -33s-38.334 -12 -59.001 -12c-21.333 0 -41.333 4 -60 12s-35 19 -49 33
s-25 30.167 -33 48.5s-12 38.166 -12 59.499z" />
    <glyph glyph-name="afii62799" unicode="&#x638;" horiz-adv-x="1249" arabic-form="initial" 
d="M635 1251c0 20.667 4 40.334 12 59.001s19 35 33 49s30.333 25.167 49 33.5s38.667 12.5 60 12.5c20.667 0 40.334 -4.16699 59.001 -12.5s35 -19.5 49 -33.5s25 -30.333 33 -49s12 -38.334 12 -59.001c0 -21.333 -4 -41.166 -12 -59.499s-19 -34.5 -33 -48.5
s-30.333 -25 -49 -33s-38.334 -12 -59.001 -12c-21.333 0 -41.333 4 -60 12s-35 19 -49 33s-25 30.167 -33 48.5s-12 38.166 -12 59.499zM1165 416c0 -114.667 -29.999 -210.334 -89.999 -287.001c-65.333 -86 -158 -129 -278 -129h-840v227h195v1239h227v-815
c136.667 174.667 266.334 262 389.001 262c49.333 0 107.666 -18.667 174.999 -56s121.166 -97.666 161.499 -180.999s60.5 -170 60.5 -260zM930.001 446c0 104 -25.332 176 -75.999 216c-5.33301 5.33301 -26.333 12 -63 20c-63.333 0 -141.333 -48.333 -234 -145
c-76.667 -80.667 -144.334 -184 -203.001 -310h447c86 0 129 73 129 219z" />
    <glyph glyph-name="afii62800" unicode="&#x638;" horiz-adv-x="1202" arabic-form="medial" 
d="M593 1240c0 20.667 4 40.334 12 59.001s19 35 33 49s30.333 25.167 49 33.5s38.667 12.5 60 12.5c20.667 0 40.334 -4.16699 59.001 -12.5s35 -19.5 49 -33.5s25 -30.333 33 -49s12 -38.334 12 -59.001c0 -21.333 -4 -41.166 -12 -59.499s-19 -34.5 -33 -48.5
s-30.333 -25 -49 -33s-38.334 -12 -59.001 -12c-21.333 0 -41.333 4 -60 12s-35 19 -49 33s-25 30.167 -33 48.5s-12 38.166 -12 59.499zM1227 0l-1290 -0.000976562v227h165v1239h226v-817c139.333 176 272.333 264 399 264c42.667 0 98 -18.333 166 -55
c143.333 -83.333 215 -225.333 215 -426c0 -79.333 -11 -147.666 -33 -204.999h152v-227zM883 456.999c0 96.667 -22.667 165.001 -68 205.001c-6.66699 5.33301 -29 12 -67 20c-64.667 0 -142 -48.333 -232 -145c-78 -80.667 -146.333 -184 -205 -310h443
c31.333 0 64 23.333 98 70c20.667 43.333 31 96.666 31 159.999z" />
    <glyph glyph-name="afii62804" unicode="&#x639;" horiz-adv-x="1515" arabic-form="final" 
d="M1566 0c-163.333 0 -277.333 6.66504 -342 19.998c-129.333 22 -225.333 70.667 -288 146c-367.333 -152.667 -551 -345.334 -551 -578.001c0 -110.667 51.667 -219.667 155 -327c96 -90 198.667 -135 308 -135h667l21 -232h-629c-204.667 0 -378.667 74.333 -522 223
c-75.333 70 -130.333 146.333 -165 229s-52 170.334 -52 263.001c0 143.333 46.667 275.333 140 396s246 228.334 458 323.001l-308 295l82 141l74 149h485c194 0 302.667 -83.667 326 -251c0 -52 -5.33301 -91 -16 -117c-6 -27.333 -19.667 -56.666 -41 -87.999
c-41.333 -58.667 -119.333 -121 -234 -187c66 -28.667 210 -43 432 -43v-227zM1196 622.998c0 12 -5 22.667 -15 32c-17.333 16.667 -50 29 -98 37h-365l250 -266c152 79.333 228 145 228 197z" />
    <glyph glyph-name="afii62802" unicode="&#x639;" horiz-adv-x="1149" arabic-form="initial" 
d="M1102 0l-1153 0.000976562v227h325c-47.333 108 -71 202.333 -71 283c0 120 46.333 222.333 139 307c35.333 30 80.333 54 135 72l78 16l104 8c60.667 0 121.667 -15 183 -45c34 -13.333 62 -30.333 84 -51c31.333 -17.333 62 -42 92 -74l-113 -178
c-117.333 91.333 -218.333 137 -303 137c-82 0 -137.333 -40 -166 -120l-16 -58v-41c0 -44.667 9.66699 -88.334 29 -131.001c34 -83.333 85.667 -125 155 -125h457z" />
    <glyph glyph-name="afii62803" unicode="&#x639;" horiz-adv-x="1055" arabic-form="medial" 
d="M1096 0c-152 0 -259.001 7.16699 -321.001 21.5s-142 62.5 -240 144.5c-86 -72.667 -182.333 -123.334 -289 -152.001c-57.333 -9.33301 -157 -14 -299 -14v227c211.333 0 345 28 401 84l-317 312l73 141l78 149h488c195.333 0 301.666 -83.667 318.999 -251
c0 -52 -2.66699 -88.667 -8 -110s-20.333 -52.333 -45 -93c-35.333 -49.333 -107.666 -108.666 -216.999 -177.999c88.667 -36 214.334 -54 377.001 -54v-227zM742.999 618c0 15.333 -4.33301 28.168 -13 38.501s-39 22.166 -91 35.499h-365l250 -262
c146 71.333 219 134 219 188z" />
    <glyph glyph-name="afii62807" unicode="&#x63a;" horiz-adv-x="1515" arabic-form="final" 
d="M815 1250c0 20.667 4 40.334 12 59.001s19 35 33 49s30.333 25.167 49 33.5s38.667 12.5 60 12.5c20.667 0 40.334 -4.16699 59.001 -12.5s35 -19.5 49 -33.5s25 -30.333 33 -49s12 -38.334 12 -59.001c0 -21.333 -4 -41.166 -12 -59.499s-19 -34.5 -33 -48.5
s-30.333 -25 -49 -33s-38.334 -12 -59.001 -12c-21.333 0 -41.333 4 -60 12s-35 19 -49 33s-25 30.167 -33 48.5s-12 38.166 -12 59.499zM1566 0c-163.333 0 -277.333 6.66504 -342 19.998c-129.333 22 -225.333 70.667 -288 146
c-367.333 -152.667 -551 -345.334 -551 -578.001c0 -110.667 51.667 -219.667 155 -327c96 -90 198.667 -135 308 -135h667l21 -232h-629c-204.667 0 -378.667 74.333 -522 223c-75.333 70 -130.333 146.333 -165 229s-52 170.334 -52 263.001
c0 143.333 46.667 275.333 140 396s246 228.334 458 323.001l-308 295l82 141l74 149h485c194 0 302.667 -83.667 326 -251c0 -52 -5.33301 -91 -16 -117c-6 -27.333 -19.667 -56.666 -41 -87.999c-41.333 -58.667 -119.333 -121 -234 -187c66 -28.667 210 -43 432 -43v-227
zM1196 622.998c0 12 -5 22.667 -15 32c-17.333 16.667 -50 29 -98 37h-365l250 -266c152 79.333 228 145 228 197z" />
    <glyph glyph-name="afii62805" unicode="&#x63a;" horiz-adv-x="1149" arabic-form="initial" 
d="M1102 0l-1153 0.000976562v227h325c-47.333 108 -71 202.333 -71 283c0 120 46.333 222.333 139 307c35.333 30 80.333 54 135 72l78 16l104 8c60.667 0 121.667 -15 183 -45c34 -13.333 62 -30.333 84 -51c31.333 -17.333 62 -42 92 -74l-113 -178
c-117.333 91.333 -218.333 137 -303 137c-82 0 -137.333 -40 -166 -120l-16 -58v-41c0 -44.667 9.66699 -88.334 29 -131.001c34 -83.333 85.667 -125 155 -125h457zM528 1243c0 20.667 4 40.334 12 59.001s19 35 33 49s30.333 25.167 49 33.5s38.667 12.5 60 12.5
c20.667 0 40.334 -4.16699 59.001 -12.5s35 -19.5 49 -33.5s25 -30.333 33 -49s12 -38.334 12 -59.001c0 -21.333 -4 -41.166 -12 -59.499s-19 -34.5 -33 -48.5s-30.333 -25 -49 -33s-38.334 -12 -59.001 -12c-21.333 0 -41.333 4 -60 12s-35 19 -49 33s-25 30.167 -33 48.5
s-12 38.166 -12 59.499z" />
    <glyph glyph-name="afii62806" unicode="&#x63a;" horiz-adv-x="1055" arabic-form="medial" 
d="M1096 0c-152 0 -259.001 7.16699 -321.001 21.5s-142 62.5 -240 144.5c-86 -72.667 -182.333 -123.334 -289 -152.001c-57.333 -9.33301 -157 -14 -299 -14v227c211.333 0 345 28 401 84l-317 312l73 141l78 149h488c195.333 0 301.666 -83.667 318.999 -251
c0 -52 -2.66699 -88.667 -8 -110s-20.333 -52.333 -45 -93c-35.333 -49.333 -107.666 -108.666 -216.999 -177.999c88.667 -36 214.334 -54 377.001 -54v-227zM742.999 618c0 15.333 -4.33301 28.168 -13 38.501s-39 22.166 -91 35.499h-365l250 -262
c146 71.333 219 134 219 188zM385.999 1276c0 20.667 4 40.334 12 59.001s19 35 33 49s30.333 25.167 49 33.5s38.667 12.5 60 12.5c20.667 0 40.334 -4.16699 59.001 -12.5s35 -19.5 49 -33.5s25 -30.333 33 -49s12 -38.334 12 -59.001c0 -21.333 -4 -41.166 -12 -59.499
s-19 -34.5 -33 -48.5s-30.333 -25 -49 -33s-38.334 -12 -59.001 -12c-21.333 0 -41.333 4 -60 12s-35 19 -49 33s-25 30.167 -33 48.5s-12 38.166 -12 59.499z" />
    <glyph glyph-name="afii62810" unicode="&#x641;" horiz-adv-x="2054" arabic-form="final" 
d="M2085 0c-266 0 -430.667 17.001 -494 51.001c-21.333 -31.333 -165.333 -47 -432 -47l-760 -4c-86 0 -161.667 43 -227 129c-49.333 74 -74 155.333 -74 244v346h226v-313c0 -119.333 56.667 -179 170 -179h790c-83.333 97.333 -125 200.666 -125 309.999
c0 96.667 36.5 183.5 109.5 260.5s171.833 115.5 296.5 115.5c110.667 0 204 -42.333 280 -127c67.333 -80 101 -175.333 101 -286c0 -98.667 -26.667 -189.667 -80 -273h219v-227zM1741 489.001c0 52 -19.833 98.832 -59.5 140.499s-82.167 62.5 -127.5 62.5
c-38 0 -78.5 -16.667 -121.5 -50s-64.5 -74 -64.5 -122c0 -87.333 78 -168.666 234 -243.999c92.667 57.333 139 128.333 139 213zM1394 1239c0 20.667 4 40.334 12 59.001s19 35 33 49s30.333 25.167 49 33.5s38.667 12.5 60 12.5c20.667 0 40.334 -4.16699 59.001 -12.5
s35 -19.5 49 -33.5s25 -30.333 33 -49s12 -38.334 12 -59.001c0 -21.333 -4 -41.166 -12 -59.499s-19 -34.5 -33 -48.5s-30.333 -25 -49 -33s-38.334 -12 -59.001 -12c-21.333 0 -41.333 4 -60 12s-35 19 -49 33s-25 30.167 -33 48.5s-12 38.166 -12 59.499z" />
    <glyph glyph-name="afii62808" unicode="&#x641;" horiz-adv-x="1066" arabic-form="initial" 
d="M1001 381c0 -132.667 -44.334 -231.668 -133.001 -297.001c-73.333 -56 -147.666 -84 -222.999 -84h-686v227h690c86 0 129 57.333 129 172c-214 0 -349 7 -405 21c-127.333 52 -191 156.333 -191 313c0 114.667 39 204.834 117 270.501s166.667 98.5 266 98.5
c112 0 208.333 -37.667 289 -113c48 -42 84.167 -91 108.5 -147s36.5 -121.667 36.5 -197zM759.999 611.999c0 80.667 -24.666 147 -73.999 199c-38 35.333 -85 53 -141 53c-44 0 -80 -11.167 -108 -33.5s-42 -49.833 -42 -82.5c0 -71.333 20.667 -112.333 62 -123
c13.333 -8.66699 63.666 -13 150.999 -13h152zM427 1443c0 20.667 4 40.334 12 59.001s19 35 33 49s30.333 25.167 49 33.5s38.667 12.5 60 12.5c20.667 0 40.334 -4.16699 59.001 -12.5s35 -19.5 49 -33.5s25 -30.333 33 -49s12 -38.334 12 -59.001
c0 -21.333 -4 -41.166 -12 -59.499s-19 -34.5 -33 -48.5s-30.333 -25 -49 -33s-38.334 -12 -59.001 -12c-21.333 0 -41.333 4 -60 12s-35 19 -49 33s-25 30.167 -33 48.5s-12 38.166 -12 59.499z" />
    <glyph glyph-name="afii62809" unicode="&#x641;" horiz-adv-x="1087" arabic-form="medial" 
d="M1149 0l-74 6.00098h-61l-162 4c-62.667 0 -123.334 5 -182.001 15l-103 36c-65.333 -40.667 -281.666 -61 -648.999 -61v227h338c-83.333 97.333 -125 200.666 -125 309.999c0 106 36.833 195.167 110.5 267.5s173.5 108.5 299.5 108.5c117.333 0 212 -42.333 284 -127
c64.667 -80 97 -176 97 -288c0 -100 -26.667 -190.333 -80 -271h307v-227zM717 489.001c0 52 -20.833 98.833 -62.5 140.5s-84.5 62.5 -128.5 62.5c-39.333 0 -78.833 -18 -118.5 -54s-59.5 -76.667 -59.5 -122c0 -91.333 76.667 -171.333 230 -240
c92.667 70 139 141 139 213zM403 1275c0 20.667 4 40.334 12 59.001s19 35 33 49s30.333 25.167 49 33.5s38.667 12.5 60 12.5c20.667 0 40.334 -4.16699 59.001 -12.5s35 -19.5 49 -33.5s25 -30.333 33 -49s12 -38.334 12 -59.001c0 -21.333 -4 -41.166 -12 -59.499
s-19 -34.5 -33 -48.5s-30.333 -25 -49 -33s-38.334 -12 -59.001 -12c-21.333 0 -41.333 4 -60 12s-35 19 -49 33s-25 30.167 -33 48.5s-12 38.166 -12 59.499z" />
    <glyph glyph-name="afii62813" unicode="&#x642;" horiz-adv-x="1714" arabic-form="final" 
d="M1757 0l-188.001 -0.00195312c0 -87.333 -15.667 -161.666 -47 -222.999c-27.333 -72.667 -73.333 -137 -138 -193c-108.667 -108 -241 -162 -397 -162h-352c-139.333 0 -264.666 60.833 -375.999 182.5s-167 258.167 -167 409.5v335h225v-365
c0 -83.333 44 -161.333 132 -234c74.667 -62.667 151.667 -94 231 -94h301c87.333 0 166 33.333 236 100c40.667 31.333 71.5 67.5 92.5 108.5s31.5 86.167 31.5 135.5c-222 0 -360.333 10.333 -415 31c-132.667 44.667 -199 152.334 -199 323.001
c0 108 38.167 195.833 114.5 263.5s171.833 101.5 286.5 101.5c118 0 220 -39 306 -117c94 -88.667 141 -213.667 141 -375h182v-227zM1348 226.998c0 74 -29.334 139.001 -88.001 195.001c-45.333 40.667 -96.666 61 -153.999 61c-48 0 -86.667 -10.5 -116 -31.5
s-44 -48.5 -44 -82.5c0 -58.667 26 -100.334 78 -125.001c38 -11.333 146 -17 324 -17zM1152 1085c0 20.667 4 40.334 12 59.001s19 35 33 49s30.333 25.167 49 33.5s38.667 12.5 60 12.5c20.667 0 40.334 -4.16699 59.001 -12.5s35 -19.5 49 -33.5s25.167 -30.333 33.5 -49
s12.5 -38.334 12.5 -59.001c0 -21.333 -4.16699 -41.166 -12.5 -59.499s-19.5 -34.5 -33.5 -48.5s-30.333 -25 -49 -33s-38.334 -12 -59.001 -12c-21.333 0 -41.333 4 -60 12s-35 19 -49 33s-25 30.167 -33 48.5s-12 38.166 -12 59.499zM802.998 1085
c0 20.667 4 40.334 12 59.001s19 35 33 49s30.167 25.167 48.5 33.5s38.166 12.5 59.499 12.5c20.667 0 40.334 -4.16699 59.001 -12.5s35 -19.5 49 -33.5s25.167 -30.333 33.5 -49s12.5 -38.334 12.5 -59.001c0 -21.333 -4.16699 -41.166 -12.5 -59.499
s-19.5 -34.5 -33.5 -48.5s-30.333 -25 -49 -33s-38.334 -12 -59.001 -12c-21.333 0 -41.166 4 -59.499 12s-34.5 19 -48.5 33s-25 30.167 -33 48.5s-12 38.166 -12 59.499z" />
    <glyph glyph-name="afii62811" unicode="&#x642;" horiz-adv-x="1066" arabic-form="initial" 
d="M1001 381c0 -132.667 -44.334 -231.668 -133.001 -297.001c-73.333 -56 -147.666 -84 -222.999 -84h-686v227h690c86 0 129 57.333 129 172c-214 0 -349 7 -405 21c-127.333 52 -191 156.333 -191 313c0 114.667 39 204.834 117 270.501s166.667 98.5 266 98.5
c112 0 208.333 -37.667 289 -113c48 -42 84.167 -91 108.5 -147s36.5 -121.667 36.5 -197zM759.999 611.999c0 80.667 -24.666 147 -73.999 199c-38 35.333 -85 53 -141 53c-44 0 -80 -11.167 -108 -33.5s-42 -49.833 -42 -82.5c0 -71.333 20.667 -112.333 62 -123
c13.333 -8.66699 63.666 -13 150.999 -13h152zM596 1435c0 20.667 4 40.334 12 59.001s19 35 33 49s30.333 25.167 49 33.5s38.667 12.5 60 12.5c20.667 0 40.334 -4.16699 59.001 -12.5s35 -19.5 49 -33.5s25.167 -30.333 33.5 -49s12.5 -38.334 12.5 -59.001
c0 -21.333 -4.16699 -41.166 -12.5 -59.499s-19.5 -34.5 -33.5 -48.5s-30.333 -25 -49 -33s-38.334 -12 -59.001 -12c-21.333 0 -41.333 4 -60 12s-35 19 -49 33s-25 30.167 -33 48.5s-12 38.166 -12 59.499zM247 1435c0 20.667 4 40.334 12 59.001s19 35 33 49
s30.167 25.167 48.5 33.5s38.166 12.5 59.499 12.5c20.667 0 40.334 -4.16699 59.001 -12.5s35 -19.5 49 -33.5s25.167 -30.333 33.5 -49s12.5 -38.334 12.5 -59.001c0 -21.333 -4.16699 -41.166 -12.5 -59.499s-19.5 -34.5 -33.5 -48.5s-30.333 -25 -49 -33
s-38.334 -12 -59.001 -12c-21.333 0 -41.166 4 -59.499 12s-34.5 19 -48.5 33s-25 30.167 -33 48.5s-12 38.166 -12 59.499z" />
    <glyph glyph-name="afii62812" unicode="&#x642;" horiz-adv-x="1087" arabic-form="medial" 
d="M1149 0l-74 6.00098h-61l-162 4c-62.667 0 -123.334 5 -182.001 15l-103 36c-65.333 -40.667 -281.666 -61 -648.999 -61v227h338c-83.333 97.333 -125 200.666 -125 309.999c0 106 36.833 195.167 110.5 267.5s173.5 108.5 299.5 108.5c117.333 0 212 -42.333 284 -127
c64.667 -80 97 -176 97 -288c0 -100 -26.667 -190.333 -80 -271h307v-227zM717 489.001c0 52 -20.833 98.833 -62.5 140.5s-84.5 62.5 -128.5 62.5c-39.333 0 -78.833 -18 -118.5 -54s-59.5 -76.667 -59.5 -122c0 -91.333 76.667 -171.333 230 -240
c92.667 70 139 141 139 213zM555 1253c0 20.667 4 40.334 12 59.001s19 35 33 49s30.333 25.167 49 33.5s38.667 12.5 60 12.5c20.667 0 40.334 -4.16699 59.001 -12.5s35 -19.5 49 -33.5s25.167 -30.333 33.5 -49s12.5 -38.334 12.5 -59.001
c0 -21.333 -4.16699 -41.166 -12.5 -59.499s-19.5 -34.5 -33.5 -48.5s-30.333 -25 -49 -33s-38.334 -12 -59.001 -12c-21.333 0 -41.333 4 -60 12s-35 19 -49 33s-25 30.167 -33 48.5s-12 38.166 -12 59.499zM206 1253c0 20.667 4 40.334 12 59.001s19 35 33 49
s30.167 25.167 48.5 33.5s38.166 12.5 59.499 12.5c20.667 0 40.334 -4.16699 59.001 -12.5s35 -19.5 49 -33.5s25.167 -30.333 33.5 -49s12.5 -38.334 12.5 -59.001c0 -21.333 -4.16699 -41.166 -12.5 -59.499s-19.5 -34.5 -33.5 -48.5s-30.333 -25 -49 -33
s-38.334 -12 -59.001 -12c-21.333 0 -41.166 4 -59.499 12s-34.5 19 -48.5 33s-25 30.167 -33 48.5s-12 38.166 -12 59.499z" />
    <glyph glyph-name="afii62816" unicode="&#x643;" horiz-adv-x="2071" arabic-form="final" 
d="M422 0c-91.333 0 -169.333 36.999 -234 110.999c-60 72 -90 159.333 -90 262v346h230v-313c0 -63.333 6.66699 -103.666 20 -120.999c24.667 -38.667 74.667 -58 150 -58l864 -4h74c61.333 0 104.333 14.333 129 43c9.33301 10 17.333 28.667 24 56
c11.333 26.667 17 69 17 127v1017h229v-1060c0 -80.667 24 -134 72 -160c48.667 -12.667 121.667 -19 219 -19v-227h-72c-87.333 0 -152 4.66699 -194 14c-40 11.333 -85.333 37.333 -136 78c-54.667 -44.667 -105.667 -72 -153 -82c-40 -6.66699 -423 -10 -1149 -10z
M1184 950.999l-437.998 -220.999l-53 129l96 51c-25.333 22.667 -44.666 47.167 -57.999 73.5s-20 55.833 -20 88.5c0 26.667 5.33301 53 16 79s26.667 49.667 48 71c43.333 47.333 97.333 71 162 71c16 -3.33301 36.5 -9 61.5 -17s53.5 -18.667 85.5 -32l-65 -137
c-36.667 28.667 -66.334 43 -89.001 43c-8 0 -16.167 -1.66699 -24.5 -5s-15.833 -9.33301 -22.5 -18l2 4c-18.667 -24.667 -28 -44.334 -28 -59.001c0 -43.333 19 -65 57 -65c21.333 0 49.166 6.66699 83.499 20s74.166 32.333 119.499 57z" />
    <glyph glyph-name="afii57410" unicode="&#x643;" horiz-adv-x="1071" arabic-form="initial" 
d="M977 311c0 -74.667 -29.334 -145.667 -88.001 -213c-65.333 -65.333 -157.666 -98 -276.999 -98h-665v227h665c87.333 0 131 28.667 131 86c0 26 -14.333 58.333 -43 97l-602 630l-46 241l918 330l28 -221l-670 -247l585 -649c42.667 -52 64 -113 64 -183z" />
    <glyph glyph-name="afii62815" unicode="&#x643;" horiz-adv-x="1314" arabic-form="medial" 
d="M1337 0c-84.667 0 -162.168 14.668 -232.501 44.001s-126.5 75.333 -168.5 138c-22 -56 -51.333 -101 -88 -135c-41.333 -31.333 -107.666 -47 -198.999 -47h-684v227h659c79.333 0 119 28.667 119 86c0 27.333 -17.667 61.666 -53 102.999l-571 624l-37 258l904 321
l36 -229l-674 -247l635 -701c92.667 -103.333 159 -167.333 199 -192l59 -17l96 -6v-227z" />
    <glyph glyph-name="afii62819" unicode="&#x644;" horiz-adv-x="1788" arabic-form="final" 
d="M1839 0c-124 0 -210.667 36.335 -260 109.002c0 -210.667 -60 -384.334 -180 -521.001c-108 -110.667 -241.333 -166 -400 -166h-350c-144.667 0 -272.667 59.833 -384 179.5s-167 257.167 -167 412.5v475h226v-505c0 -86 34.333 -163.5 103 -232.5
s157 -103.5 265 -103.5h291c96.667 0 181.667 31.667 255 95s110 143.666 110 240.999v1482h227v-1077c0 -108 88 -162 264 -162v-227z" />
    <glyph glyph-name="afii62817" unicode="&#x644;" horiz-adv-x="552" arabic-form="initial" 
d="M494 352c0 -88.667 -22.667 -162.334 -68 -221.001c-65.333 -87.333 -164.333 -131 -297 -131h-172v227h158c61.333 0 105 19.333 131 58c16 32.667 24 87.334 24 164.001v1017h224v-1114z" />
    <glyph glyph-name="afii62818" unicode="&#x644;" horiz-adv-x="758" arabic-form="medial" 
d="M807 0h-70c-88.667 0 -153.167 5.16699 -193.5 15.5s-84.833 35.833 -133.5 76.5c-54.667 -44.667 -106 -72 -154 -82c-39.333 -6.66699 -139 -10 -299 -10v227l164 -1c61.333 0 104.333 14.333 129 43c9.33301 10 17.833 28 25.5 54s11.5 68 11.5 126v1017h229v-1060
c0 -80.667 25 -130.667 75 -150s122 -29 216 -29v-227z" />
    <glyph glyph-name="afii62822" unicode="&#x645;" horiz-adv-x="1602" arabic-form="final" 
d="M1626 0c-86 0 -156.333 8.99902 -211 26.999c-42 22.667 -87 69 -135 139c-49.333 -121.333 -146.333 -182 -291 -182c-108 0 -202 38 -282 114c-90.667 76.667 -136 181.334 -136 314.001v278c-68 0 -127.333 -22.5 -178 -67.5s-76 -96.833 -76 -155.5v-1045h-219v1014
c0 150.667 40.333 271 121 361c86 77.333 193.333 116 322 116h467c242.667 0 364 -178 364 -534c0 -101.333 84.667 -152 254 -152v-227zM1153 394.999c0 135.333 -13.666 215.333 -40.999 240c-36.667 36.667 -142.334 55 -317.001 55v-321c0 -48 18 -86 54 -114
s78.667 -42 128 -42c44.667 0 85.167 14.667 121.5 44s54.5 75.333 54.5 138z" />
    <glyph glyph-name="afii62820" unicode="&#x645;" horiz-adv-x="1062" arabic-form="initial" 
d="M989 442c0 -142 -32 -254.67 -96 -338.003c-71.333 -92.667 -171 -139 -299 -139c-96.667 0 -182 29.333 -256 88c-83.333 -35.333 -211.666 -53 -384.999 -53v227c125.333 0 199.666 13 222.999 39c8 12.667 12 71.334 12 176.001
c0 132.667 35.167 244.334 105.5 335.001s170.5 136 300.5 136c124 0 220.833 -45.667 290.5 -137s104.5 -202.666 104.5 -333.999zM795 441.997c0 165.333 -67 248 -201 248c-132.667 0 -199 -82.667 -199 -248c0 -166 66.333 -249 199 -249c134 0 201 83 201 249z" />
    <glyph glyph-name="afii62821" unicode="&#x645;" horiz-adv-x="1149" arabic-form="medial" 
d="M1180 0c-82 0 -143.002 8.99707 -183.002 26.9971c-31.333 16 -64 50.667 -98 104c-68 -110.667 -173 -166 -315 -166c-45.333 0 -102.666 18.333 -171.999 55c-56 34.667 -98.333 71.667 -127 111c-16.667 -87.333 -132 -131 -346 -131v227c126.667 0 201 13 223 39
c10.667 12.667 16 71.334 16 176.001c0 132.667 34.5 244.334 103.5 335.001s169.833 136 302.5 136c122.667 0 219.834 -45.667 291.501 -137s107.5 -202.666 107.5 -333.999c0 -92.667 9.5 -151.667 28.5 -177s75.167 -38 168.5 -38v-227zM777.998 441.997
c0 165.333 -65.333 248 -196 248c-134 0 -201 -82.667 -201 -248c0 -166 67 -249 201 -249c130.667 0 196 83 196 249z" />
    <glyph glyph-name="afii62825" unicode="&#x646;" horiz-adv-x="1804" arabic-form="final" 
d="M654 1037c0 20.667 4 40.334 12 59.001s19 35 33 49s30.333 25.167 49 33.5s38.667 12.5 60 12.5c20.667 0 40.334 -4.16699 59.001 -12.5s35 -19.5 49 -33.5s25 -30.333 33 -49s12 -38.334 12 -59.001c0 -21.333 -4 -41.166 -12 -59.499s-19 -34.5 -33 -48.5
s-30.333 -25 -49 -33s-38.334 -12 -59.001 -12c-21.333 0 -41.333 4 -60 12s-35 19 -49 33s-25 30.167 -33 48.5s-12 38.166 -12 59.499zM1829 0c-124.667 0 -209.333 36.335 -254 109.002c0 -210.667 -60 -384.334 -180 -521.001c-108 -110.667 -240.667 -166 -398 -166
h-352c-143.333 0 -270.333 59.833 -381 179.5s-166 257.167 -166 412.5v475h224v-505c0 -86 34 -163.5 102 -232.5s156.667 -103.5 266 -103.5h293c94 0 178 31.667 252 95s111 143.666 111 240.999v735h225v-330c0 -108 86 -162 258 -162v-227z" />
    <glyph glyph-name="afii62823" unicode="&#x646;" horiz-adv-x="743" arabic-form="initial" 
d="M267 1078c0 20.667 4 40.334 12 59.001s19 35 33 49s30.333 25.167 49 33.5s38.667 12.5 60 12.5c20.667 0 40.334 -4.16699 59.001 -12.5s35 -19.5 49 -33.5s25 -30.333 33 -49s12 -38.334 12 -59.001c0 -21.333 -4 -41.166 -12 -59.499s-19 -34.5 -33 -48.5
s-30.333 -25 -49 -33s-38.334 -12 -59.001 -12c-21.333 0 -41.333 4 -60 12s-35 19 -49 33s-25 30.167 -33 48.5s-12 38.166 -12 59.499zM662 373c0 -100 -33.166 -187.167 -99.499 -261.5s-144.5 -111.5 -234.5 -111.5h-371v227h299c75.333 0 126.666 19.333 153.999 58
c10.667 18.667 16 59 16 121v313h236v-346z" />
    <glyph glyph-name="afii62824" unicode="&#x646;" horiz-adv-x="936" arabic-form="medial" 
d="M333 1090c0 20.667 4 40.334 12 59.001s19 35 33 49s30.333 25.167 49 33.5s38.667 12.5 60 12.5c20.667 0 40.334 -4.16699 59.001 -12.5s35 -19.5 49 -33.5s25 -30.333 33 -49s12 -38.334 12 -59.001c0 -21.333 -4 -41.166 -12 -59.499s-19 -34.5 -33 -48.5
s-30.333 -25 -49 -33s-38.334 -12 -59.001 -12c-21.333 0 -41.333 4 -60 12s-35 19 -49 33s-25 30.167 -33 48.5s-12 38.166 -12 59.499zM983 0l-135 4l-68 10l-53 27l-65 51c-74 -61.333 -147.333 -92 -220 -92h-489v227h422c74.667 0 124.334 19.333 149.001 58
c11.333 18.667 17 59 17 121v313h233v-313c0 -72.667 12.333 -120 37 -142c31.333 -24.667 88.666 -37 171.999 -37v-227z" />
    <glyph glyph-name="afii62828" unicode="&#x647;" horiz-adv-x="1413" arabic-form="final" 
d="M1462 0c-108 0 -181 13.667 -219 41c-18 8 -98 76.333 -240 205c-86 -182 -226 -273 -420 -273c-118.667 0 -221 42.333 -307 127s-129 188.667 -129 312c0 83.333 29.333 168 88 254c31.333 48.667 91.333 116 180 202l-67 78l157 156l684 -727
c56 -60 98.333 -101.667 127 -125c30 -15.333 78.667 -23 146 -23v-227zM804 395c0 38.667 -13.666 80.3311 -40.999 124.998l-182 182c-86 -78.667 -141.333 -138.167 -166 -178.5s-37 -83.166 -37 -128.499c0 -38 17.5 -81.167 52.5 -129.5s87.167 -72.5 156.5 -72.5
c67.333 0 122.666 25.667 165.999 77c34 38.667 51 80.334 51 125.001z" />
    <glyph glyph-name="afii62829" unicode="&#x648;" horiz-adv-x="1133" arabic-form="final" 
d="M1169 0l-154.998 -0.000976562c0 -151.333 -57.333 -288.666 -172 -411.999c-49.333 -50 -110.833 -90.167 -184.5 -120.5s-150.834 -45.5 -231.501 -45.5h-295l-33 226h291c112 0 204.167 35.5 276.5 106.5s108.5 152.833 108.5 245.5c-180 0 -315 24 -405 72
c-124.667 60 -187 179.333 -187 358c0 192.667 46.667 330 140 412c58.667 47.333 148.667 71 270 71c173.333 0 294.666 -73.667 363.999 -221c38.667 -94 58 -249 58 -465h155v-227zM784.002 226.999l0.000976562 218.999c0 90.667 -25.667 155.667 -77 195
c-34.667 30 -73 45 -115 45c-58.667 0 -100.334 -15 -125.001 -45c-34 -35.333 -51 -101.666 -51 -198.999c0 -83.333 24.167 -140 72.5 -170s146.833 -45 295.5 -45z" />
    <glyph glyph-name="afii62830" unicode="&#x649;" horiz-adv-x="1636" arabic-form="final" 
d="M1673 0h-211l11 -111c0 -129.333 -51.667 -239.5 -155 -330.5s-218.333 -136.5 -345 -136.5h-355c-173.333 0 -315 66.333 -425 199c-93.333 124 -140 277.667 -140 461v407h232v-499c0 -79.333 28 -153.666 84 -222.999c72 -79.333 172.333 -119 301 -119h293
c76 0 140 20.333 192 61c58.667 45.333 88 109.666 88 192.999c0 42 -35.833 68.833 -107.5 80.5s-192.167 17.5 -361.5 17.5l-20 227h919v-227z" />
    <glyph glyph-name="afii62833" unicode="&#x64a;" horiz-adv-x="1636" arabic-form="final" 
d="M788 -889c0 20.667 4 40.334 12 59.001s19 35 33 49s30.333 25.167 49 33.5s38.667 12.5 60 12.5c20.667 0 40.334 -4.16699 59.001 -12.5s35 -19.5 49 -33.5s25.167 -30.333 33.5 -49s12.5 -38.334 12.5 -59.001c0 -21.333 -4.16699 -41.166 -12.5 -59.499
s-19.5 -34.5 -33.5 -48.5s-30.333 -25 -49 -33s-38.334 -12 -59.001 -12c-21.333 0 -41.333 4 -60 12s-35 19 -49 33s-25 30.167 -33 48.5s-12 38.166 -12 59.499zM439 -889c0 20.667 4 40.334 12 59.001s19 35 33 49s30.167 25.167 48.5 33.5s38.166 12.5 59.499 12.5
c20.667 0 40.334 -4.16699 59.001 -12.5s35 -19.5 49 -33.5s25.167 -30.333 33.5 -49s12.5 -38.334 12.5 -59.001c0 -21.333 -4.16699 -41.166 -12.5 -59.499s-19.5 -34.5 -33.5 -48.5s-30.333 -25 -49 -33s-38.334 -12 -59.001 -12c-21.333 0 -41.166 4 -59.499 12
s-34.5 19 -48.5 33s-25 30.167 -33 48.5s-12 38.166 -12 59.499zM1673 0h-211l11 -111c0 -129.333 -51.667 -239.5 -155 -330.5s-218.333 -136.5 -345 -136.5h-355c-173.333 0 -315 66.333 -425 199c-93.333 124 -140 277.667 -140 461v407h232v-499
c0 -79.333 28 -153.666 84 -222.999c72 -79.333 172.333 -119 301 -119h293c76 0 140 20.333 192 61c58.667 45.333 88 109.666 88 192.999c0 42 -35.833 68.833 -107.5 80.5s-192.167 17.5 -361.5 17.5l-20 227h919v-227z" />
    <glyph glyph-name="afii62831" unicode="&#x64a;" horiz-adv-x="743" arabic-form="initial" 
d="M662 373c0 -100 -33.166 -187.167 -99.499 -261.5s-144.5 -111.5 -234.5 -111.5h-371v227h299c75.333 0 126.666 19.333 153.999 58c10.667 18.667 16 59 16 121v313h236v-346zM405.001 -371c0 20.667 4 40.334 12 59.001s19 35 33 49s30.333 25.167 49 33.5
s38.667 12.5 60 12.5c20.667 0 40.334 -4.16699 59.001 -12.5s35 -19.5 49 -33.5s25.167 -30.333 33.5 -49s12.5 -38.334 12.5 -59.001c0 -21.333 -4.16699 -41.166 -12.5 -59.499s-19.5 -34.5 -33.5 -48.5s-30.333 -25 -49 -33s-38.334 -12 -59.001 -12
c-21.333 0 -41.333 4 -60 12s-35 19 -49 33s-25 30.167 -33 48.5s-12 38.166 -12 59.499zM56.001 -371c0 20.667 4 40.334 12 59.001s19 35 33 49s30.167 25.167 48.5 33.5s38.166 12.5 59.499 12.5c20.667 0 40.334 -4.16699 59.001 -12.5s35 -19.5 49 -33.5
s25.167 -30.333 33.5 -49s12.5 -38.334 12.5 -59.001c0 -21.333 -4.16699 -41.166 -12.5 -59.499s-19.5 -34.5 -33.5 -48.5s-30.333 -25 -49 -33s-38.334 -12 -59.001 -12c-21.333 0 -41.166 4 -59.499 12s-34.5 19 -48.5 33s-25 30.167 -33 48.5s-12 38.166 -12 59.499z
" />
    <glyph glyph-name=".notdef" horiz-adv-x="2048" 
 />
    <glyph glyph-name="space" unicode=" " horiz-adv-x="415" 
 />
    <glyph glyph-name="exclam" unicode="!" horiz-adv-x="437" 
d="M397 109c0 -30 -10.833 -55.833 -32.5 -77.5s-47.5 -32.5 -77.5 -32.5s-55.833 10.833 -77.5 32.5s-32.5 47.5 -32.5 77.5s10.833 55.667 32.5 77s47.5 32 77.5 32s55.833 -10.667 77.5 -32s32.5 -47 32.5 -77zM397 325h-220v1131h220v-1131z" />
    <glyph glyph-name="quotedbl" unicode="&#x22;" horiz-adv-x="1022" 
d="M231 1393c0 54 28 81 84 81c28 -1.33301 48.833 -10 62.5 -26s20.5 -34.333 20.5 -55c0 -53.333 -7 -129.166 -21 -227.499s-21 -171.833 -21 -220.5h-86c0 48.667 -6.5 122.167 -19.5 220.5s-19.5 174.166 -19.5 227.499zM531 1393c0 54 28 81 84 81
c28 -1.33301 48.833 -10 62.5 -26s20.5 -34.333 20.5 -55c0 -53.333 -7 -129.166 -21 -227.499s-21 -171.833 -21 -220.5h-86c0 48.667 -6.5 122.167 -19.5 220.5s-19.5 174.166 -19.5 227.499z" />
    <glyph glyph-name="numbersign" unicode="#" horiz-adv-x="911" 
d="M152 321h-136v120h159l61 289h-220v120h243l71 343h119l-71 -343h252l72 343h119l-69 -343h138v-120h-163l-58 -289h221v-120h-246l-69 -341h-121l68 341h-250l-69 -341h-121zM547 441l61 289h-253l-58 -289h250z" />
    <glyph glyph-name="dollar" unicode="$" horiz-adv-x="911" 
d="M408 -25c-36 4.66699 -68.335 10.833 -97.002 18.5s-54.667 17.834 -78 30.501s-44.5 28 -63.5 46s-36.833 40 -53.5 66c-32.667 50 -51.667 113.333 -57 190l144 26c10.667 -75.333 30.334 -132 59.001 -170c20.667 -25.333 42.834 -45.166 66.501 -59.499
s50.167 -22.833 79.5 -25.5v458c-59.333 12 -120 35 -182 69c-46 25.333 -81.333 60.5 -106 105.5s-37 96.833 -37 155.5c0 101.333 36.333 184.333 109 249c48.667 41.333 120.667 67.666 216 78.999v69h85v-69c84 -9.33301 150 -34.333 198 -75
c63.333 -52 101.666 -124 114.999 -216l-149 -21c-9.33301 56.667 -27.333 100 -54 130s-63.334 50 -110.001 60v-416c36.667 -9.33301 66.834 -17.333 90.501 -24s41.834 -12.667 54.501 -18c64.667 -29.333 113.5 -69.333 146.5 -120s49.5 -110.334 49.5 -179.001
c0 -101.333 -31.667 -185 -95 -251c-32 -34 -68.5 -59.5 -109.5 -76.5s-86.5 -26.833 -136.5 -29.5v-146h-85v144zM407.998 1093c-28 -4.66699 -52.999 -13.001 -74.999 -25.001s-40.833 -26.667 -56.5 -44s-27.667 -36.833 -36 -58.5s-12.5 -44.834 -12.5 -69.501
c0 -49.333 13.667 -90.666 41 -123.999s73.666 -59.666 138.999 -78.999v400zM492.999 96.998c28 3.33301 53.832 11.333 77.499 24s44 29 61 49s30.333 43.167 40 69.5s14.5 54.833 14.5 85.5c0 53.333 -13 95 -39 125c-25.333 32 -76.666 60.667 -153.999 86v-439z" />
    <glyph glyph-name="percent" unicode="%" horiz-adv-x="1032" 
d="M942 1185l-657 -1190h-177l649 1190h185zM106 1057c0 31.333 11.333 58.5 34 81.5s49.667 34.5 81 34.5c32 0 59.5 -11.5 82.5 -34.5s34.5 -50.167 34.5 -81.5s-11.5 -58.333 -34.5 -81s-50.5 -34 -82.5 -34c-31.333 0 -58.333 11.333 -81 34s-34 49.667 -34 81zM641 118
c0 32 11.167 59.333 33.5 82s49.166 34 80.499 34c32 0 59.5 -11.333 82.5 -34s34.5 -50 34.5 -82s-11.5 -59.167 -34.5 -81.5s-50.5 -33.5 -82.5 -33.5c-31.333 0 -58.166 11.167 -80.499 33.5s-33.5 49.5 -33.5 81.5z" />
    <glyph glyph-name="ampersand" unicode="&#x26;" horiz-adv-x="1093" 
d="M778 138c-93.333 -105.333 -205.334 -157.999 -336.001 -157.999c-119.333 0 -214.666 40.667 -285.999 122c-57.333 66 -86 139.333 -86 220c0 146 93 263.333 279 352c-26 30.667 -47.5 57.834 -64.5 81.501s-30.5 45.5 -40.5 65.5s-16.833 38.833 -20.5 56.5
s-5.5 35.167 -5.5 52.5c0 71.333 27.333 132.666 82 183.999c56 52.667 126 79 210 79c78.667 0 143.667 -24.667 195 -74c51.333 -50 77 -109 77 -177c0 -111.333 -74 -206.333 -222 -285l210 -269c12 24 22.667 49.5 32 76.5s17.333 56.167 24 87.5l151 -33
c-13.333 -50.667 -28.666 -96.834 -45.999 -138.501s-37 -79.5 -59 -113.5c54.667 -70.667 115.667 -130.667 183 -180l-97 -115c-28.667 19.333 -57.834 42.833 -87.501 70.5s-60.5 59.5 -92.5 95.5zM484.999 750.001c32 18 57.834 35.001 77.501 51.001s34.167 31 43.5 45
s16.333 28.667 21 44s7 31.666 7 48.999c0 20 -3.33301 38.167 -10 54.5s-15.834 30.5 -27.501 42.5s-25.667 21.333 -42 28s-33.833 10 -52.5 10c-19.333 0 -37.333 -3.33301 -54 -10s-31 -15.667 -43 -27s-21.5 -24.833 -28.5 -40.5s-10.5 -32.5 -10.5 -50.5
c0 -19.333 4.33301 -39 13 -59s22.667 -41 42 -63zM424 580.002c-38.667 -23.333 -70.833 -45.835 -96.5 -67.502s-46 -42.5 -61 -62.5s-25.5 -39.667 -31.5 -59s-9 -38.666 -9 -57.999c0 -24 4.5 -48.667 13.5 -74s23.167 -50.666 42.5 -75.999c38 -51.333 92 -77 162 -77
c21.333 0 43.5 3.66699 66.5 11s45.5 17.5 67.5 30.5s42.5 28.333 61.5 46s35.167 37.167 48.5 58.5z" />
    <glyph glyph-name="quotesingle" unicode="'" horiz-adv-x="586" 
d="M231 1393c0 54 28 81 84 81c28 -1.33301 48.833 -10 62.5 -26s20.5 -34.333 20.5 -55c0 -53.333 -7 -129.166 -21 -227.499s-21 -171.833 -21 -220.5h-86c0 48.667 -6.5 122.167 -19.5 220.5s-19.5 174.166 -19.5 227.499z" />
    <glyph glyph-name="parenleft" unicode="(" horiz-adv-x="860" 
d="M455 -78c-222 293.333 -333.001 576.667 -333.001 850c0 143.333 31.333 287.333 94 432c18.667 57.333 45.834 117.5 81.501 180.5s88.167 134.5 157.5 214.5h141c-49.333 -91.333 -90 -172.166 -122 -242.499s-54.667 -130.5 -68 -180.5
c-42.667 -138 -64 -288.333 -64 -451c0 -244.667 85.333 -512.334 256 -803.001h-143z" />
    <glyph glyph-name="parenright" unicode=")" horiz-adv-x="758" 
d="M122 -78c170.667 290.667 255.999 558.333 255.999 803c0 162.667 -21.333 313 -64 451c-13.333 50 -36 110.167 -68 180.5s-72.667 151.166 -122 242.499h141c69.333 -80 121.833 -151.5 157.5 -214.5s62.834 -123.167 81.501 -180.5
c62.667 -144.667 94 -288.667 94 -432c0 -273.333 -111 -556.666 -333 -849.999h-143z" />
    <glyph glyph-name="asterisk" unicode="*" horiz-adv-x="1126" 
d="M568 347l6 340l-219 -220h-105l277 279h-324l20 93h324l-270 265h93l209 -205l6 300l119 40l-5 -327l206 192h108l-283 -265h335l-22 -93h-314l273 -279h-92l-214 220l-8 -301z" />
    <glyph glyph-name="plus" unicode="+" horiz-adv-x="1253" 
d="M546 181v397h-397v167h397v396h167v-396h396v-167h-396v-397h-167z" />
    <glyph glyph-name="comma" unicode="," horiz-adv-x="259" 
d="M231 169l-157 -335h-83l95 335h145z" />
    <glyph glyph-name="hyphen" unicode="-" horiz-adv-x="1255" 
d="M149 578v167h960v-167h-960z" />
    <glyph glyph-name="period" unicode="." horiz-adv-x="681" 
d="M211 168c0 46.667 16.333 86.667 49 120s71.667 50 117 50c46 0 85.833 -16.667 119.5 -50s50.5 -73.333 50.5 -120c0 -45.333 -16.833 -84.333 -50.5 -117s-73.5 -49 -119.5 -49c-45.333 0 -84.333 16.333 -117 49s-49 71.667 -49 117z" />
    <glyph glyph-name="slash" unicode="/" horiz-adv-x="1032" 
d="M942 1185l-657 -1190h-177l649 1190h185z" />
    <glyph glyph-name="zero" unicode="0" horiz-adv-x="911" 
d="M69 578c0 102 7.83105 190.165 23.498 264.498s39.334 136 71.001 185s71.334 85.667 119.001 110s103.5 37.833 167.5 40.5c64 0 119.5 -12.667 166.5 -38s85.5 -62.333 115.5 -111c16 -23.333 30.167 -49.166 42.5 -77.499s22.833 -60.5 31.5 -96.5
s15.167 -76.667 19.5 -122s6.5 -97 6.5 -155c0 -101.333 -7.66699 -189.166 -23 -263.499s-38.833 -135.833 -70.5 -184.5s-71.5 -85.334 -119.5 -110.001s-104.333 -38 -169 -40c-112.667 0 -201.667 40.667 -267 122c-76 94.667 -114 253.334 -114 476.001z
M215.998 577.998c0 -191.333 22.332 -319.334 66.999 -384.001c44.667 -64 100.334 -96 167.001 -96s122 32 166 96c46 64 69 192 69 384c0 192.667 -23 321 -69 385c-43.333 63.333 -99 95 -167 95c-66 0 -119 -27.667 -159 -83c-49.333 -73.333 -74 -205.666 -74 -396.999
z" />
    <glyph glyph-name="one" unicode="1" horiz-adv-x="911" 
d="M467 0l-0.000976562 917.999c-17.333 -16.667 -37.5 -33.167 -60.5 -49.5s-48.5 -33.166 -76.5 -50.499c-56.667 -33.333 -107.334 -58 -152.001 -74v139c40.667 19.333 78.834 40.666 114.501 63.999s68.167 47.833 97.5 73.5s54.833 51.834 76.5 78.501
s38.834 53 51.501 79h93v-1178h-144z" />
    <glyph glyph-name="two" unicode="2" horiz-adv-x="911" 
d="M824 0l-774.998 -0.00292969c-1.33301 17.333 -0.333008 34.5 3 51.5s8.33301 33.167 15 48.5c10 26 22.5 51.667 37.5 77s33.833 51.333 56.5 78s49.334 54.667 80.001 84s66.667 61 108 95c129.333 104.667 215.666 187.334 258.999 248.001
c44.667 60.667 67 118.334 67 173.001c0 28 -5.33301 54.333 -16 79s-25.834 46.167 -45.501 64.5s-43 32.833 -70 43.5s-56.833 16 -89.5 16c-69.333 0 -124.666 -20.667 -165.999 -62s-62.333 -99.333 -63 -174l-148 17c10 111.333 47.833 195.666 113.5 252.999
s154.5 86 266.5 86c112.667 0 201.667 -31.667 267 -95c65.333 -61.333 98 -138.333 98 -231c0 -47.333 -9.33301 -93.666 -28 -138.999s-50.667 -93 -96 -143c-44 -51.333 -117.667 -120 -221 -206c-86 -71.333 -141.667 -120.666 -167 -147.999
c-12.667 -13.333 -23.834 -26.333 -33.501 -39s-18.834 -25.667 -27.501 -39h575v-138z" />
    <glyph glyph-name="three" unicode="3" horiz-adv-x="911" 
d="M213 330c16.667 -82 45.0029 -141.17 85.0029 -177.503s88 -54.5 144 -54.5c68 0 125 23.667 171 71c46.667 46.667 70 104.334 70 173.001c0 33.333 -5.66699 64 -17 92s-27.333 52.333 -48 73s-45 36.667 -73 48s-58.333 17 -91 17c-14 0 -29.167 -1.33301 -45.5 -4
s-35.166 -7 -56.499 -13l17 127c4.66699 -1.33301 8.83398 -2 12.501 -2h9.5c61.333 0 116.666 15.667 165.999 47c48.667 32.667 73 82.667 73 150c0 26 -4.66699 50.167 -14 72.5s-22.333 41.5 -39 57.5s-36.834 28.5 -60.501 37.5s-49.5 13.5 -77.5 13.5
c-55.333 0 -102 -17.5 -140 -52.5s-61.667 -87.167 -71 -156.5l-145 25c8.66699 48.667 23.167 91.834 43.5 129.501s45.666 69.5 75.999 95.5s65.166 45.667 104.499 59s82.333 20 129 20c48.667 0.666992 94.167 -7.33301 136.5 -24s79.166 -39.167 110.499 -67.5
s55.666 -61 72.999 -98s25.333 -75.167 24 -114.5c0 -52 -13.667 -98.833 -41 -140.5s-67.666 -74.167 -120.999 -97.5c68.667 -16.667 122.5 -50 161.5 -100s58.5 -113.333 58.5 -190c0 -51.333 -9.5 -98.5 -28.5 -141.5s-47.5 -82.833 -85.5 -119.5
c-74.667 -71.333 -168.667 -107 -282 -107c-52 0 -99.333 7.83301 -142 23.5s-81 38.5 -115 68.5c-34 32 -60.667 67.833 -80 107.5s-31.333 83.834 -36 132.501z" />
    <glyph glyph-name="four" unicode="4" horiz-adv-x="911" 
d="M530 280h-508v133l533 760h119v-760h158v-133h-158v-280h-144v280zM530 942l-368 -529h368v529z" />
    <glyph glyph-name="five" unicode="5" horiz-adv-x="911" 
d="M219 319c11.333 -72.667 37.499 -127.667 78.499 -165s89.833 -56 146.5 -56c70.667 0 129.667 26.333 177 79c48 52.667 72 122 72 208c0 40.667 -6.16699 77.5 -18.5 110.5s-29.5 60.833 -51.5 83.5s-48.333 40.167 -79 52.5s-64.667 18.5 -102 18.5
c-46 0 -87.833 -10.5 -125.5 -31.5s-66.5 -47.833 -86.5 -80.5l-136 16l112 603h584v-138h-468l-63 -314c70.667 48.667 144.334 73 221.001 73c102 0 188.333 -35.333 259 -106c71.333 -70 107 -161.333 107 -274c0 -105.333 -31.333 -197 -94 -275
c-74 -95.333 -176.667 -143 -308 -143c-106.667 0 -193.667 29.667 -261 89c-34 30.667 -60.5 65.667 -79.5 105s-30.5 84 -34.5 134z" />
    <glyph glyph-name="six" unicode="6" horiz-adv-x="911" 
d="M672 875c-7.33301 28 -15.3359 52.1689 -24.0029 72.502s-18.667 37.166 -30 50.499c-40 40 -88 60 -144 60c-23.333 0 -45.166 -3 -65.499 -9s-39.166 -15.333 -56.499 -28c-22.667 -16.667 -43 -36.667 -61 -60s-33.333 -51.5 -46 -84.5s-22.5 -71.833 -29.5 -116.5
s-10.5 -96.334 -10.5 -155.001c35.333 52.667 77.833 91.667 127.5 117s102.167 38 157.5 38c95.333 0 176.666 -35.333 243.999 -106c67.333 -71.333 101 -162.666 101 -273.999c0.666992 -55.333 -8.16602 -107.833 -26.499 -157.5s-43.833 -92.834 -76.5 -129.501
s-71.5 -65.334 -116.5 -86.001s-93.833 -29.667 -146.5 -27c-120 0 -218 43.667 -294 131c-75.333 89.333 -113 235.333 -113 438c0 227.333 41.333 392.333 124 495c74.667 89.333 173.334 134 296.001 134c46 0 88.167 -6.66699 126.5 -20s71.833 -32.5 100.5 -57.5
s52.167 -55.667 70.5 -92s30.5 -77.166 36.5 -122.499zM227.997 380.002c-2 -37.333 3.49902 -73.501 16.499 -108.501s30.667 -65.667 53 -92s48.333 -47 78 -62s60.167 -21.5 91.5 -19.5c59.333 0 111 24.667 155 74c44 48 66 114.667 66 200
c0 40.667 -5.66699 77.167 -17 109.5s-27.166 59.833 -47.499 82.5s-44.5 40 -72.5 52s-58.333 18 -91 18c-64 0 -119 -23.333 -165 -70c-44.667 -47.333 -67 -108.666 -67 -183.999z" />
    <glyph glyph-name="seven" unicode="7" horiz-adv-x="911" 
d="M77 1158l761 0.00195312v-112c-76 -81.333 -150.667 -187.666 -224 -318.999c-36.667 -66 -69 -132.333 -97 -199s-52.333 -135.334 -73 -206.001c-14 -48.667 -25.5 -99.834 -34.5 -153.501s-15.5 -109.834 -19.5 -168.501h-149c0.666992 46 5.5 96.667 14.5 152
s22.167 116 39.5 182c17.333 66.667 38.5 131.167 63.5 193.5s53.5 124.166 85.5 185.499c33.333 60.667 67 116.334 101 167.001s69.667 97 107 139h-575v139z" />
    <glyph glyph-name="eight" unicode="8" horiz-adv-x="911" 
d="M290 636c-60.667 22 -105.334 53.167 -134.001 93.5s-43 88.833 -43 145.5c0 85.333 30.667 157 92 215c61.333 58.667 143 88 245 88c104.667 0 187.334 -30 248.001 -90c62 -59.333 93 -131.333 93 -216c0 -55.333 -14 -103 -42 -143s-71.667 -71 -131 -93
c72.667 -23.333 127.667 -61 165 -113s56 -114.333 56 -187c0 -101.333 -35.667 -186 -107 -254c-70 -68 -163.333 -102 -280 -102s-210 34 -280 102s-105 153.667 -105 257c0 76.667 19 140.5 57 191.5s93.333 86.167 166 105.5zM261 880
c0 -28 4.83203 -53.502 14.499 -76.502s23 -42.833 40 -59.5s37.333 -29.667 61 -39s49.5 -14 77.5 -14s53.667 4.66699 77 14s43.333 22.333 60 39s29.667 35.834 39 57.501s14 45.167 14 70.5c0 26.667 -4.83301 51.334 -14.5 74.001s-23 42.334 -40 59.001
s-37.333 29.667 -61 39s-49.167 14 -76.5 14s-52.666 -4.66699 -75.999 -14s-43.5 -22 -60.5 -38s-30.333 -34.833 -40 -56.5s-14.5 -44.834 -14.5 -69.501zM213.999 338.998c-1.33301 -31.333 4 -61.832 16 -91.499s29 -55.834 51 -78.501s47.833 -40.5 77.5 -53.5
s61.5 -18.833 95.5 -17.5c34 0 65.5 5.83301 94.5 17.5s54 28 75 49s37.5 46 49.5 75s18 60.5 18 94.5c0 70 -23 127 -69 171c-46 46 -103.667 69 -173 69c-34 0 -65 -5.83301 -93 -17.5s-53.333 -28.5 -76 -50.5c-44 -44 -66 -99.667 -66 -167z" />
    <glyph glyph-name="nine" unicode="9" horiz-adv-x="911" 
d="M228 283c12 -64.667 34.333 -111.675 67 -141.008s75 -44 127 -44c44 0 82.667 10.167 116 30.5s60.333 47.5 81 81.5c10.667 16.667 20.834 36.834 30.501 60.501s17.834 49.167 24.501 76.5s12 56 16 86s6 59.667 6 89v13c0 4.66699 -0.666992 10.334 -2 17.001
c-14 -23.333 -30.833 -44.333 -50.5 -63s-41.5 -34.834 -65.5 -48.501s-49.833 -24.167 -77.5 -31.5s-56.5 -11 -86.5 -11c-96.667 0 -178.334 35 -245.001 105c-66.667 70.667 -100 163.667 -100 279c0 120 35 215.333 105 286c69.333 73.333 157.333 110 264 110
c37.333 0 73.666 -5.16699 108.999 -15.5s68.166 -25.666 98.499 -45.999s57.833 -45.166 82.5 -74.499s45.334 -63 62.001 -101c16 -39.333 28.167 -86.166 36.5 -140.499s12.5 -117.5 12.5 -189.5c0 -75.333 -4 -142.666 -12 -201.999s-20 -111.666 -36 -156.999
s-36.167 -84.666 -60.5 -117.999s-52.5 -61.666 -84.5 -84.999c-64 -46 -139.667 -69 -227 -69c-46 0 -88 6.5 -126 19.5s-71.167 32 -99.5 57s-51.333 55.667 -69 92s-29.167 77.5 -34.5 123.5zM680 787.992c0 82.667 -22.334 148.335 -67.001 197.002
c-44 48.667 -97 73 -159 73c-64 0 -120 -26 -168 -78c-46.667 -52.667 -70 -120.334 -70 -203.001c0 -73.333 22.333 -134.333 67 -183c44.667 -46.667 100.334 -70 167.001 -70c33.333 0 64 6 92 18s52.333 29.5 73 52.5s36.667 50.667 48 83s17 69.166 17 110.499z" />
    <glyph glyph-name="colon" unicode=":" horiz-adv-x="666" 
d="M197 154c0 42 14.333 77.667 43 107s63.334 44 104.001 44c42.667 0 78.667 -14.667 108 -44s44 -65 44 -107c0 -41.333 -14.667 -76.333 -44 -105s-65.333 -43 -108 -43c-40.667 0 -75.334 14.333 -104.001 43s-43 63.667 -43 105zM197 874
c0 42.667 14.333 78.667 43 108s63.334 44 104.001 44c42.667 0 78.667 -14.667 108 -44s44 -65.333 44 -108c0 -40.667 -14.667 -75.334 -44 -104.001s-65.333 -43 -108 -43c-40.667 0 -75.334 14.333 -104.001 43s-43 63.334 -43 104.001z" />
    <glyph glyph-name="semicolon" unicode=";" horiz-adv-x="359" 
d="M119 495c0 24 8.66699 44.667 26 62s38 26 62 26s44.667 -8.66699 62 -26s26 -38 26 -62s-8.66699 -44.5 -26 -61.5s-38 -25.5 -62 -25.5s-44.667 8.5 -62 25.5s-26 37.5 -26 61.5zM111 87c0 24.667 8.83203 45.834 26.499 63.501s38.834 26.5 63.501 26.5
s45.5 -8.83301 62.5 -26.5s25.5 -38.834 25.5 -63.501v-125c0 -72 -37 -108 -111 -108h-48v72c49.333 0 74 17.333 74 52c0 7.33301 -1 14 -3 20c-60 0 -90 29.667 -90 89z" />
    <glyph glyph-name="less" unicode="&#x3c;" horiz-adv-x="1117" 
d="M955 58l-805 386v90l805 384v-134l-624 -295l624 -297v-134z" />
    <glyph glyph-name="equal" unicode="=" horiz-adv-x="1157" 
d="M82 866h985v-168h-985v168zM82 560h985v-168h-985v168z" />
    <glyph glyph-name="greater" unicode="&#x3e;" horiz-adv-x="1117" 
d="M966 444l-806 -386v134l626 297l-626 295v134l806 -384v-90z" />
    <glyph glyph-name="question" unicode="?" horiz-adv-x="911" 
d="M377 333c0 28 1.99707 54.167 5.99707 78.5s10.333 46.5 19 66.5c11.333 32 29.666 63.333 54.999 94c20 22 54.333 55.333 103 100c50.667 44 83.334 79.333 98.001 106c16 26.667 24 55 24 85c0 54.667 -22.667 104 -68 148c-42.667 42 -96 63 -160 63
c-62 0 -113.333 -19.167 -154 -57.5s-67.667 -97.833 -81 -178.5l-147 16c13.333 110.667 52.833 194.834 118.5 252.501s152.834 86.5 261.501 86.5c115.333 0 206.666 -31.333 273.999 -94c68.667 -62.667 103 -137.667 103 -225c0 -26 -2.83301 -50.833 -8.5 -74.5
s-14.834 -46.834 -27.501 -69.501c-24 -42 -71 -94 -141 -156c-23.333 -20.667 -42.666 -38.667 -57.999 -54s-26.666 -28 -33.999 -38s-13.5 -20.667 -18.5 -32s-9.83301 -23.666 -14.5 -36.999c-3.33301 -12.667 -5.66602 -29.334 -6.99902 -50.001
s-2.66602 -45.667 -3.99902 -75h-139v45zM368.997 164h164v-164h-164v164z" />
    <glyph glyph-name="at" unicode="@" horiz-adv-x="1663" 
d="M929 131c-36 -40.667 -74.9951 -73.001 -116.995 -97.001s-85 -36 -129 -36c-46.667 0 -92.334 13.5 -137.001 40.5s-81.334 69.833 -110.001 128.5c-28 58 -42 121.333 -42 190c0 42 5.16699 84.167 15.5 126.5s26.5 84.833 48.5 127.5
c45.333 85.333 99.666 149.333 162.999 192c32 21.333 63.833 37.166 95.5 47.499s62.834 15.5 93.501 15.5c46 0 90 -12 132 -36s78 -61 108 -111l28 125h143l-115 -536c-16 -75.333 -24 -117 -24 -125c0 -13.333 5.33301 -25.333 16 -36s23.667 -16 39 -16
c27.333 0 64.666 15.667 111.999 47c30.667 21.333 58.167 46.833 82.5 76.5s45 61.834 62 96.501s30 71 39 109s13.5 76 13.5 114c0 44 -5.66699 87 -17 129s-28.333 81.833 -51 119.5s-51.167 72.167 -85.5 103.5s-74.166 58.666 -119.499 81.999
c-89.333 46.667 -188.666 70 -297.999 70c-62.667 0 -123 -7.5 -181 -22.5s-112 -36.833 -162 -65.5s-95.5 -64 -136.5 -106s-75.5 -90.333 -103.5 -145c-57.333 -108.667 -86 -225.667 -86 -351c0 -132 28.167 -244.833 84.5 -338.5s138.833 -163.167 247.5 -208.5
c109.333 -44.667 228.666 -67 357.999 -67c70 0 134.333 6.33301 193 19s111.5 29.834 158.5 51.501s88.333 47 124 76s65.167 60.167 88.5 93.5h144c-13.333 -28 -32 -56.5 -56 -85.5s-52.167 -57.167 -84.5 -84.5s-68.333 -53 -108 -77s-82.5 -44.333 -128.5 -61
c-45.333 -17.333 -95.333 -30 -150 -38s-114.334 -12 -179.001 -12c-88.667 -1.33301 -172.334 7 -251.001 25s-150 44.167 -214 78.5s-119.667 76 -167 125s-84 103.833 -110 164.5c-22.667 50 -39.5 102.167 -50.5 156.5s-16.5 110.833 -16.5 169.5
c0 65.333 6.33301 128.833 19 190.5s33 122.167 61 181.5c66 144.667 158.5 255.334 277.5 332.001s264.167 115 435.5 115c132.667 0 251.334 -26.833 356.001 -80.5s188 -134.167 250 -241.5c25.333 -47.333 44.5 -96 57.5 -146s19.5 -102 19.5 -156
c0 -154.667 -54.667 -291.667 -164 -411c-96 -108 -202 -162 -318 -162c-36.667 0 -66.334 5.83301 -89.001 17.5s-39.334 27.5 -50.001 47.5c-7.33301 12.667 -12.333 35.667 -15 69zM542.005 346.999c0 -36 4.66797 -68.3369 14.001 -97.0039s21.833 -53 37.5 -73
s33.834 -35.167 54.501 -45.5s42.334 -15.5 65.001 -15.5c30 0 61.333 8.83301 94 26.5s64 44.5 94 80.5c15.333 18 29.333 38.333 42 61s23.5 46.834 32.5 72.501s16 52.334 21 80.001s7.5 55.167 7.5 82.5c0 36 -4.83301 68.167 -14.5 96.5s-22.834 52.5 -39.501 72.5
s-36.167 35.167 -58.5 45.5s-46.5 15.5 -72.5 15.5c-34 0 -65.833 -8.66699 -95.5 -26s-58.834 -45.666 -87.501 -84.999c-14.667 -19.333 -27.834 -41.166 -39.501 -65.499s-21.5 -49.333 -29.5 -75s-14.167 -51.5 -18.5 -77.5s-6.5 -50.333 -6.5 -73z" />
    <glyph glyph-name="A" unicode="A" horiz-adv-x="1093" 
d="M447 1173h167l480 -1173h-175l-137 355h-490l-130 -355h-164zM734 482l-123 324l-49 135.5c-14 40.333 -25.667 76.5 -35 108.5c-7.33301 -38 -16 -75.667 -26 -113s-21.667 -74.333 -35 -111l-130 -344h398z" />
    <glyph glyph-name="B" unicode="B" horiz-adv-x="1093" 
d="M120 1173l440.002 0.00292969c89.333 0 161.166 -12 215.499 -36s96.5 -60.667 126.5 -110c31.333 -48 47 -99 47 -153c0 -50 -13.667 -97.333 -41 -142s-68.333 -80.667 -123 -108c71.333 -20.667 126 -55.834 164 -105.501s57 -108.834 57 -177.501
c0 -28 -3.16699 -55 -9.5 -81s-15 -50.333 -26 -73s-23.833 -43.334 -38.5 -62.001s-30.334 -34.667 -47.001 -48c-34 -25.333 -76.5 -44.5 -127.5 -57.5s-114.5 -19.5 -190.5 -19.5h-447v1173zM530.002 680.003c34 0 63.167 1.16895 87.5 3.50195s44.166 5.5 59.499 9.5
c39.333 12.667 69 32.667 89 60s30 61 30 101c0 39.333 -9.16699 73.666 -27.5 102.999s-45.166 49.666 -80.499 60.999c-17.333 5.33301 -40.833 9.33301 -70.5 12s-65.5 4 -107.5 4h-235v-354h255zM567.002 138.005c25.333 0 46.668 0.331055 64.001 0.998047
s31.666 2.33398 42.999 5.00098c24.667 4.66699 47.5 11.834 68.5 21.501s39.167 22.5 54.5 38.5s27.333 35.333 36 58s13 49 13 79c0 44 -11.333 82 -34 114s-54 54.333 -94 67c-20 7.33301 -44.167 12.5 -72.5 15.5s-61.5 4.5 -99.5 4.5h-271v-404h292z" />
    <glyph glyph-name="C" unicode="C" horiz-adv-x="1183" 
d="M1119 372c-16 -64 -38.998 -120.5 -68.998 -169.5s-65.667 -90 -107 -123s-88.166 -57.833 -140.499 -74.5s-108.833 -25 -169.5 -25c-125.333 0 -228 25.667 -308 77s-141 125.666 -183 222.999c-40 98 -60 202.667 -60 314c-2.66699 92 10 175.333 38 250
s67.167 138 117.5 190s109.666 91.833 177.999 119.5s141.833 40.834 220.5 39.501c58.667 0 112.834 -7.66699 162.501 -23s94.167 -37.5 133.5 -66.5s73 -64.667 101 -107s49.667 -90.5 65 -144.5l-152 -36c-28 85.333 -67.5 147.333 -118.5 186s-115.833 58 -194.5 58
c-46 0 -88 -5.66699 -126 -17s-71.833 -27.333 -101.5 -48s-55.334 -45.834 -77.001 -75.501s-38.834 -62.5 -51.501 -98.5s-21.834 -72.667 -27.501 -110s-8.5 -75.666 -8.5 -114.999c0 -101.333 14.5 -188.833 43.5 -262.5s74.5 -129.167 136.5 -166.5
c60.667 -36 126.667 -54 198 -54c88 0 161.833 24.833 221.5 74.5s100.5 124.167 122.5 223.5z" />
    <glyph glyph-name="D" unicode="D" horiz-adv-x="1183" 
d="M126 1173l404.999 0.000976562c45.333 0 85.333 -1.33301 120 -4s64 -6.66699 88 -12c34 -8.66699 65.167 -19.834 93.5 -33.501s54.5 -31.167 78.5 -52.5c62.667 -52.667 109.167 -119.167 139.5 -199.5s45.5 -173.166 45.5 -278.499
c0 -68.667 -6 -130.334 -18 -185.001s-28.167 -103.334 -48.5 -146.001s-43.666 -79.167 -69.999 -109.5s-53.833 -55.166 -82.5 -74.499c-78 -52 -187.333 -78 -328 -78h-423v1173zM532.999 138.001c38.667 0 72.832 1.83008 102.499 5.49707s55.834 9.16699 78.501 16.5
s42.5 16 59.5 26s32.167 21.667 45.5 35c37.333 36.667 66 85.834 86 147.501s30 136.834 30 225.501c0 62 -5.16699 116.5 -15.5 163.5s-24.833 87.333 -43.5 121s-40.5 61.334 -65.5 83.001s-52.167 38.167 -81.5 49.5c-42 15.333 -109.333 23 -202 23h-245v-896h251z" />
    <glyph glyph-name="E" unicode="E" horiz-adv-x="1093" 
d="M130 1173h848v-139h-693v-359h649v-137h-649v-400h719v-138h-874v1173z" />
    <glyph glyph-name="F" unicode="F" horiz-adv-x="1001" 
d="M134 1173h792v-139h-636v-362h551v-139h-551v-533h-156v1173z" />
    <glyph glyph-name="G" unicode="G" horiz-adv-x="1274" 
d="M675 598l496 0.00292969v-434c-75.333 -62 -153.5 -108.167 -234.5 -138.5s-164.5 -45.5 -250.5 -45.5c-58 0 -113.5 6.33301 -166.5 19s-102.167 31.167 -147.5 55.5s-86.166 54.333 -122.499 90s-66.5 76.5 -90.5 122.5c-48 94 -72 198.333 -72 313s24 221 72 319
c46.667 100 115.667 174 207 222c44.667 23.333 92.667 41.166 144 53.499s106.333 18.5 165 18.5c42 0 82.333 -3.5 121 -10.5s74.834 -17.167 108.501 -30.5s64 -29.666 91 -48.999s50.167 -41.333 69.5 -66c38.667 -48.667 68.667 -112.334 90 -191.001l-141 -40
c-8.66699 30 -18.167 56.5 -28.5 79.5s-22.5 43.5 -36.5 61.5s-30.333 33.667 -49 47s-40.334 25 -65.001 35c-46 20.667 -99.333 31 -160 31c-54 0 -102 -6.33301 -144 -19s-78.667 -29.834 -110 -51.501s-57.5 -46.667 -78.5 -75s-37.833 -57.833 -50.5 -88.5
c-30 -72 -45 -150.667 -45 -236c0 -104.667 18 -191.834 54 -261.501s88.333 -122.5 157 -158.5c34.667 -17.333 70.5 -30 107.5 -38s74.5 -12 112.5 -12c66.667 0 132 13 196 39c32 13.333 60.167 26.833 84.5 40.5s45.166 27.5 62.499 41.5v219h-346v138z" />
    <glyph glyph-name="H" unicode="H" horiz-adv-x="1183" 
d="M131 1173h155v-482h610v482h156v-1173h-156v552h-610v-552h-155v1173z" />
    <glyph glyph-name="I" unicode="I" horiz-adv-x="455" 
d="M152 1173h156v-1173h-156v1173z" />
    <glyph glyph-name="J" unicode="J" horiz-adv-x="819" 
d="M186 352c2 -44.667 7.33105 -82 15.998 -112s20.334 -54 35.001 -72s32.5 -30.833 53.5 -38.5s44.833 -11.5 71.5 -11.5c38.667 0 72.167 9.16699 100.5 27.5s47.833 42.5 58.5 72.5c11.333 29.333 17 78.666 17 147.999v807h153v-799
c0 -49.333 -2.83301 -92.666 -8.5 -129.999s-14.5 -70 -26.5 -98s-27.167 -52 -45.5 -72s-40.5 -37 -66.5 -51c-52 -28.667 -112.667 -43 -182 -43c-102 0 -180.667 29.5 -236 88.5s-81.666 147.167 -78.999 264.5z" />
    <glyph glyph-name="K" unicode="K" horiz-adv-x="1093" 
d="M120 1173h155v-582l582 582h211l-491 -475l513 -698h-205l-418 593l-192 -187v-406h-155v1173z" />
    <glyph glyph-name="L" unicode="L" horiz-adv-x="911" 
d="M120 1173h155v-1035h579v-138h-734v1173z" />
    <glyph glyph-name="M" unicode="M" horiz-adv-x="1365" 
d="M122 1173h233.001l278 -831l33 -101c9.33301 -29.333 16.666 -53.333 21.999 -72l62 188l282 816h208v-1173h-149v982l-341 -982h-139l-339 998v-998h-150v1173z" />
    <glyph glyph-name="N" unicode="N" horiz-adv-x="1183" 
d="M125 1173h158l616 -921v921h150v-1173h-159l-616 922v-922h-149v1173z" />
    <glyph glyph-name="O" unicode="O" horiz-adv-x="1274" 
d="M78 572c0 194 52.666 346.333 157.999 457c52.667 54.667 112.5 95.834 179.5 123.501s142.167 41.5 225.5 41.5c81.333 1.33301 156.666 -13.334 225.999 -44.001s129 -73.334 179 -128.001s88.833 -119.334 116.5 -194.001s40.5 -155.667 38.5 -243
c0 -59.333 -6.16699 -116 -18.5 -170s-30.166 -103.833 -53.499 -149.5s-52.333 -86.5 -87 -122.5s-74 -66 -118 -90c-87.333 -48.667 -181.666 -73 -282.999 -73c-55.333 0 -108 6.83301 -158 20.5s-96.333 33.334 -139 59.001s-80.667 56.834 -114 93.501
s-61.333 78 -84 124c-22 46.667 -38.833 94.5 -50.5 143.5s-17.5 99.5 -17.5 151.5zM238.999 569c0 -140.667 37.668 -252.333 113.001 -335c39.333 -40 82.5 -70.167 129.5 -90.5s99.5 -30.5 157.5 -30.5c116.667 0 212.667 41 288 123c75.333 82.667 113 199 113 349
c2 72 -6.66699 137.333 -26 196s-46.833 108.667 -82.5 150s-78.334 73.333 -128.001 96s-103.5 33.667 -161.5 33c-108.667 0 -203.667 -37.667 -285 -113c-78.667 -74.667 -118 -200.667 -118 -378z" />
    <glyph glyph-name="P" unicode="P" horiz-adv-x="1093" 
d="M126 1173l442.998 0.00292969c38.667 0 72.834 -0.833008 102.501 -2.5s54.834 -4.5 75.501 -8.5c42 -5.33301 79.667 -17 113 -35s61.833 -41.333 85.5 -70s42 -61.834 55 -99.501s20.167 -78.834 21.5 -123.501c0 -100.667 -32 -185.334 -96 -254.001
s-178.667 -103 -344 -103h-300v-477h-156v1173zM584.998 614.003c50 0 92.667 4.83301 128 14.5s64 23.667 86 42s38 40.833 48 67.5s15 57 15 91c0 49.333 -12.667 91.333 -38 126s-58 57.667 -98 69c-13.333 3.33301 -31.833 5.83301 -55.5 7.5s-53.167 2.5 -88.5 2.5
h-300v-420h303z" />
    <glyph glyph-name="Q" unicode="Q" horiz-adv-x="1274" 
d="M1016 126c36 -25.333 70.498 -47.165 103.498 -65.498s64.5 -33.166 94.5 -44.499l-46 -108c-42 15.333 -83.667 35 -125 59s-83 52.667 -125 86c-89.333 -48.667 -185.666 -73 -288.999 -73c-80 -1.33301 -154.5 13.167 -223.5 43.5s-128.667 72.666 -179 126.999
s-89.5 118.666 -117.5 192.999s-41 155.166 -39 242.499c0 58 6 113.833 18 167.5s29.667 103.5 53 149.5s51.666 87.333 84.999 124s71.666 67.334 114.999 92.001c44 25.333 90.167 44.166 138.5 56.499s99.5 18.5 153.5 18.5c54 0.666992 105.667 -5.66602 155 -18.999
s94.833 -32.833 136.5 -58.5s79.334 -56.834 113.001 -93.501s62.334 -77.667 86.001 -123s41.5 -94.5 53.5 -147.5s17.333 -108.5 16 -166.5c0 -96 -14.667 -182.5 -44 -259.5s-73.666 -143.833 -132.999 -200.5zM673.998 325.001
c44.667 -12.667 85.5 -28.5039 122.5 -47.5039s69.5 -41.167 97.5 -66.5c92 84 138 209 138 375c1.33301 70.667 -7.66699 135.334 -27 194.001s-46.666 108.834 -81.999 150.501s-77.833 73.834 -127.5 96.501s-103.834 33.667 -162.501 33
c-116 0 -212.333 -39.667 -289 -119c-75.333 -79.333 -113 -197.666 -113 -354.999c0 -152 37.667 -269.333 113 -352c75.333 -80.667 171.666 -121 288.999 -121c56.667 0 109 10.333 157 31c-49.333 32 -100.666 54.333 -153.999 67z" />
    <glyph glyph-name="R" unicode="R" horiz-adv-x="1183" 
d="M130 1173l519.001 -0.000976562c104 0 183 -11 237 -33c56 -21.333 100 -58.333 132 -111c32 -52 48 -110.333 48 -175c0 -84.667 -27 -155.167 -81 -211.5s-137 -92.5 -249 -108.5c40 -19.333 71 -39 93 -59c46 -41.333 89 -93.333 129 -156l204 -319h-196l-153 244
c-35.333 53.333 -65.333 96.5 -90 129.5s-46.667 59.333 -66 79s-37.333 33.834 -54 42.501s-34.334 15 -53.001 19c-16 4.66699 -44.667 7 -86 7h-181v-521h-153v1173zM618.001 654.999c52 -1.33301 96.002 2.66699 132.002 12s65.167 22.833 87.5 40.5s38.833 39 49.5 64
s17 52.5 19 82.5c0 27.333 -5 52.5 -15 75.5s-25.333 43 -46 60s-46.834 30.333 -78.501 40s-68.834 14.5 -111.501 14.5h-372v-389h335z" />
    <glyph glyph-name="S" unicode="S" horiz-adv-x="1093" 
d="M219 390c7.33301 -59.333 23.6709 -107.832 49.0039 -145.499s64.666 -67.834 117.999 -90.501c54 -22.667 114.333 -34 181 -34c44.667 -1.33301 85.167 3.33398 121.5 14.001s67.166 25 92.499 43s44.666 39.167 57.999 63.5s19.333 50.166 18 77.499
c0 36.667 -10.5 68.667 -31.5 96s-56.5 50.333 -106.5 69c-30 13.333 -99.333 32.666 -208 57.999c-108.667 26 -184 50.333 -226 73c-111.333 60 -167 145.333 -167 256c-2 44.667 7.16699 87.167 27.5 127.5s49.166 75.166 86.499 104.499s81.5 52.333 132.5 69
s106.5 24 166.5 22c66 0 125.833 -8.33301 179.5 -25s99.5 -40.167 137.5 -70.5s67.667 -67.166 89 -110.499s32.666 -91.666 33.999 -144.999l-149 -12c-7.33301 75.333 -33.666 132 -78.999 170s-113.666 57 -204.999 57c-47.333 0 -88 -4.66699 -122 -14
s-61.833 -22 -83.5 -38s-37.667 -34.667 -48 -56s-15.5 -44.333 -15.5 -69c0 -41.333 14.667 -75.666 44 -102.999c30.667 -27.333 108.667 -56 234 -86c126.667 -28 213.667 -52.333 261 -73c68.667 -32 119.167 -72 151.5 -120s48.5 -103.667 48.5 -167
c1.33301 -47.333 -8.66699 -92.5 -30 -135.5s-51.5 -80.667 -90.5 -113s-85.333 -57.833 -139 -76.5s-111.834 -27.334 -174.501 -26.001c-78 -2 -147.5 6.33301 -208.5 25s-112.833 45.5 -155.5 80.5s-75.5 77.333 -98.5 127s-35.5 104.5 -37.5 164.5z" />
    <glyph glyph-name="T" unicode="T" horiz-adv-x="1001" 
d="M424 1034h-386v139h930v-139h-388v-1034h-156v1034z" />
    <glyph glyph-name="U" unicode="U" horiz-adv-x="1183" 
d="M1052 1173l-0.00195312 -679c0 -116.667 -13.667 -210.334 -41 -281.001c-25.333 -67.333 -73.666 -123.666 -144.999 -168.999c-35.333 -21.333 -75.5 -37.333 -120.5 -48s-95.833 -16 -152.5 -16c-111.333 0 -201.5 18.833 -270.5 56.5s-118.5 92.167 -148.5 163.5
c-29.333 70.667 -44 168.667 -44 294v679h153v-676c0 -52 2.5 -96.833 7.5 -134.5s11.833 -68.5 20.5 -92.5c20.667 -48 53.667 -85 99 -111c44.667 -26 101.334 -39 170.001 -39c114 0 194.667 25.667 242 77c49.333 51.333 74 151.333 74 300v676h156z" />
    <glyph glyph-name="V" unicode="V" horiz-adv-x="1093" 
d="M6 1173h168.999l305 -852c12.667 -34.667 23.834 -67.667 33.501 -99l28.5 -92l29 95.5c10 31.667 21.333 63.5 34 95.5l317 852h158l-459 -1173h-159z" />
    <glyph glyph-name="W" unicode="W" horiz-adv-x="1546" 
d="M20 1173h158l179 -768c10 -40 19.167 -80.167 27.5 -120.5s16.166 -80.5 23.499 -120.5l35.5 148.5c8.33301 35.667 13.833 58.167 16.5 67.5l223 793h187l168 -593c21.333 -74 39.5 -145.5 54.5 -214.5s27.167 -136.167 36.5 -201.5c7.33301 37.333 15.833 77 25.5 119
s20.834 87.333 33.501 136l183 754h158l-323 -1173h-149l-247 893c-11.333 38 -19.833 68.333 -25.5 91s-9.16699 38 -10.5 46l-35 -137l-249 -893h-159z" />
    <glyph glyph-name="X" unicode="X" horiz-adv-x="1093" 
d="M460 611l-399 562h185l212 -301c44.667 -61.333 76 -109.666 94 -144.999c13.333 21.333 27.833 43.166 43.5 65.499l50.5 69.5l236 311h168l-411 -554l444 -619h-193l-296 418l-50 79l-33.5 -54c-9 -14.667 -16.5 -25.667 -22.5 -33l-294 -410h-188z" />
    <glyph glyph-name="Y" unicode="Y" horiz-adv-x="1093" 
d="M457 497l-451.999 676h189l230 -354l61.5 -100l58.5 -98c17.333 30.667 36.666 63 57.999 97l70 109l227 346h181l-467 -676v-497h-156v497z" />
    <glyph glyph-name="Z" unicode="Z" horiz-adv-x="1001" 
d="M33 144l601.001 750c21.333 28 42.166 53.333 62.499 76l58.5 64h-653v139h839v-139l-659 -813l-71 -83h749v-138h-927v144z" />
    <glyph glyph-name="bracketleft" unicode="[" horiz-adv-x="455" 
d="M111 1173h319v-119h-175v-1260h175v-120h-319v1499z" />
    <glyph glyph-name="backslash" unicode="\" horiz-adv-x="455" 
d="M0 1193h116l339 -1213h-114z" />
    <glyph glyph-name="bracketright" unicode="]" horiz-adv-x="455" 
d="M31 -326v120h174v1260h-174v119h318v-1499h-318z" />
    <glyph glyph-name="asciicircum" unicode="^" horiz-adv-x="1707" 
 />
    <glyph glyph-name="underscore" unicode="_" horiz-adv-x="1707" 
 />
    <glyph glyph-name="grave" unicode="`" horiz-adv-x="212" 
 />
    <glyph glyph-name="a" unicode="a" horiz-adv-x="911" 
d="M662 105c-26.667 -23.333 -52.6689 -42.8291 -78.002 -58.4961s-50.666 -28.5 -75.999 -38.5s-51.166 -17.167 -77.499 -21.5s-53.5 -6.5 -81.5 -6.5c-46 0 -87 6 -123 18s-66.333 28.833 -91 50.5s-43.5 47.5 -56.5 77.5s-19.5 63 -19.5 99
c0 32.667 5.5 62.167 16.5 88.5s26 49.833 45 70.5s41 38 66 52s51.5 25 79.5 33c14 3.33301 31.5 6.66602 52.5 9.99902s46.167 7 75.5 11c58.667 7.33301 109.167 15 151.5 23s77.166 16.667 104.499 26v38c0 59.333 -13 101 -39 125c-37.333 32 -92.333 48 -165 48
c-34 0 -63.167 -2.83301 -87.5 -8.5s-45.166 -14.834 -62.499 -27.501s-31.666 -29.334 -42.999 -50.001s-20.666 -46 -27.999 -76l-142 20c19.333 87.333 59.5 152.5 120.5 195.5s148.833 64.5 263.5 64.5c56 0 103.167 -4.5 141.5 -13.5s69.833 -21.833 94.5 -38.5
s43.667 -36.334 57 -59.001s22.666 -47.667 27.999 -75c5.33301 -26.667 8 -71.667 8 -135v-192c0 -132.667 3 -217 9 -253c6 -33.333 18.333 -67.333 37 -102h-151c-7.33301 15.333 -13.333 31.5 -18 48.5s-8.33398 35.833 -11.001 56.5zM649.998 426.004
c-26 -10.667 -58.665 -20.499 -97.998 -29.499s-85.333 -17.167 -138 -24.5c-29.333 -4.66699 -54 -9.16699 -74 -13.5s-36.833 -9.33301 -50.5 -15s-24.834 -12.334 -33.501 -20.001s-16.334 -16.5 -23.001 -26.5c-13.333 -20.667 -20 -43.667 -20 -69
c0 -39.333 14.333 -71.5 43 -96.5s71 -37.5 127 -37.5s105.5 12.167 148.5 36.5s74.833 57.5 95.5 99.5c15.333 32.667 23 80.667 23 144v52z" />
    <glyph glyph-name="b" unicode="b" horiz-adv-x="911" 
d="M106 0l-0.00390625 1173h144v-419c60.667 76 138.334 114 233.001 114c55.333 0.666992 105.333 -9.5 150 -30.5s82.834 -50.667 114.501 -89s55.834 -84 72.501 -137s24.667 -110.833 24 -173.5c0 -145.333 -36 -258 -108 -338c-73.333 -80 -159.666 -120 -258.999 -120
s-178 42 -236 126v-106h-135zM238.996 431c0 -50.667 3.33301 -94.502 10 -131.502s17 -66.833 31 -89.5c45.333 -73.333 107.333 -110 186 -110c30.667 0 60 6.83301 88 20.5s52.5 34.167 73.5 61.5s37.667 61.333 50 102s18.5 88 18.5 142
c0 55.333 -5.83301 103.333 -17.5 144s-27.667 74.334 -48 101.001s-44.166 46.5 -71.499 59.5s-56.333 19.5 -87 19.5c-62.667 0 -117.334 -27 -164.001 -81c-46 -55.333 -69 -134.666 -69 -237.999z" />
    <glyph glyph-name="c" unicode="c" horiz-adv-x="819" 
d="M805 294c-8 -49.333 -22.167 -93.333 -42.5 -132s-46 -71.5 -77 -98.5s-66.333 -47.667 -106 -62s-82.834 -21.5 -129.501 -21.5c-58.667 0 -111.667 9.66699 -159 29s-87.833 47.833 -121.5 85.5s-59.667 83.834 -78 138.501s-27.5 117.334 -27.5 188.001
c-2.66699 69.333 5.5 132 24.5 188s46 103.333 81 142s76.5 68.167 124.5 88.5s100 29.833 156 28.5c93.333 0 169.166 -23 227.499 -69s95.833 -112.333 112.5 -199l-140 -22c-13.333 56.667 -36.666 99.5 -69.999 128.5s-74.333 43.5 -123 43.5
c-36.667 0 -70 -6.33301 -100 -19s-55.833 -32.334 -77.5 -59.001s-38.5 -60.334 -50.5 -101.001s-18 -89 -18 -145c0 -57.333 5.66699 -106.5 17 -147.5s27.5 -74.833 48.5 -101.5s46 -46.167 75 -58.5s61.5 -18.5 97.5 -18.5c56.667 0 103.834 17 141.501 51
s61.5 87.333 71.5 160z" />
    <glyph glyph-name="d" unicode="d" horiz-adv-x="911" 
d="M658 106c-53.333 -84 -132.332 -125.998 -236.999 -125.998c-51.333 -0.666992 -99.5 10 -144.5 32s-84.167 52.667 -117.5 92s-59.333 86.166 -78 140.499s-27 114.166 -25 179.499c-2 64 5.66699 123.5 23 178.5s42 102.5 74 142.5s70.167 71 114.5 93
s93.166 32 146.499 30c52 0 98.333 -10.5 139 -31.5s72.667 -49.167 96 -84.5v421h144v-1173h-135v106zM205.001 424.002c0 -54.667 6.16602 -102.169 18.499 -142.502s29 -74 50 -101s45.5 -47.167 73.5 -60.5s57.667 -20 89 -20c30.667 0 59.834 6.33301 87.501 19
s51.667 32 72 58s36.5 58.5 48.5 97.5s18 84.5 18 136.5c0 58.667 -6 109.334 -18 152.001s-28.5 77.834 -49.5 105.501s-45.5 48.167 -73.5 61.5s-58.333 20 -91 20s-62.667 -6.5 -90 -19.5s-51 -32.833 -71 -59.5s-35.667 -60.5 -47 -101.5s-17 -89.5 -17 -145.5z" />
    <glyph glyph-name="e" unicode="e" horiz-adv-x="911" 
d="M839 255c-24 -88 -67.502 -155.83 -130.502 -203.497s-143.833 -71.5 -242.5 -71.5c-62.667 0 -119 9.83301 -169 29.5s-92.5 48.167 -127.5 85.5s-61.833 83.166 -80.5 137.499s-28 116.166 -28 185.499c0 71.333 9 134.666 27 189.999s45.333 102.666 82 141.999
c74 78.667 169.667 118 287 118c112.667 0 205.667 -38.667 279 -116c72 -77.333 108 -186 108 -326v-15.5c0 -6.33301 -0.666992 -13.833 -2 -22.5h-634c2.66699 -47.333 10.834 -88.833 24.501 -124.5s31.834 -65.667 54.501 -90s49.167 -42.666 79.5 -54.999
s63.5 -18.5 99.5 -18.5c52.667 0 97.667 13.5 135 40.5s67 71.5 89 133.5zM690.998 506.003c-6 73.333 -23.6689 126.999 -53.002 160.999c-23.333 28 -49.666 48.833 -78.999 62.5s-63 20.5 -101 20.5c-33.333 0 -64 -5.66699 -92 -17s-52.667 -27.666 -74 -48.999
s-38.666 -47 -51.999 -77s-21.333 -63.667 -24 -101h475z" />
    <glyph glyph-name="f" unicode="f" horiz-adv-x="455" 
d="M142 738h-127.999v112h128v91c0 56 5.33301 97.667 16 125c13.333 39.333 37.5 70.333 72.5 93s83.833 34 146.5 34c41.333 0 86.666 -5 135.999 -15l-23 -124c-30 4 -58 6 -84 6c-22 0 -40.667 -2.16699 -56 -6.5s-27.833 -11.5 -37.5 -21.5s-16.667 -23.5 -21 -40.5
s-6.5 -38.5 -6.5 -64.5v-77h165v-112h-165v-738h-143v738z" />
    <glyph glyph-name="g" unicode="g" horiz-adv-x="911" 
d="M221 -92c7.33301 -43.333 23.6689 -74.333 49.002 -93c35.333 -27.333 84 -41 146 -41c66.667 0 118.334 13.333 155.001 40s61.667 64 75 112c6 30 9 91.667 9 185c-64.667 -74 -143.334 -111 -236.001 -111c-117.333 0 -208 42 -272 126
c-32 42 -55.667 88.167 -71 138.5s-23 105.5 -23 165.5c-1.33301 60.667 6.66699 118.167 24 172.5s42 101.5 74 141.5s70.833 71.167 116.5 93.5s96.834 32.5 153.501 30.5c100.667 0 183.334 -40.333 248.001 -121v103h132v-736c0 -132.667 -13.667 -226 -41 -280
c-26.667 -56 -69 -99.667 -127 -131c-58.667 -31.333 -130.334 -47 -215.001 -47c-51.333 0 -97.833 5.66699 -139.5 17s-77.334 28.333 -107.001 51s-52.334 51.167 -68.001 85.5s-22.834 74.5 -21.501 120.5zM202.003 441c0 -56 5.83105 -104.167 17.498 -144.5
s28 -73.5 49 -99.5s45.5 -45.333 73.5 -58s58.667 -19 92 -19c32.667 0 63.334 6.16699 92.001 18.5s53.334 31.5 74.001 57.5s37 58.833 49 98.5s18 86.834 18 141.501c0 52 -6.16699 97.667 -18.5 137s-29.166 72 -50.499 98s-46.333 45.667 -75 59s-59.334 20 -92.001 20
c-31.333 0 -61 -6.5 -89 -19.5s-52.333 -32.5 -73 -58.5s-37 -58.333 -49 -97s-18 -83.334 -18 -134.001z" />
    <glyph glyph-name="h" unicode="h" horiz-adv-x="911" 
d="M108 1173l144 -0.000976562v-421c67.333 77.333 152 116 254 116c64 0 119 -12.167 165 -36.5s79 -58.5 99 -102.5c19.333 -42.667 29 -106 29 -190v-539h-144v539c0 72 -15.5 124.5 -46.5 157.5s-74.833 49.5 -131.5 49.5c-21.333 0 -42.333 -2.83301 -63 -8.5
s-40 -14 -58 -25s-34 -24.167 -48 -39.5s-25 -32.666 -33 -51.999c-7.33301 -19.333 -13 -41.5 -17 -66.5s-6 -54.5 -6 -88.5v-466h-144v1173z" />
    <glyph glyph-name="i" unicode="i" horiz-adv-x="364" 
d="M108 1173h144v-165h-144v165zM108 850h144v-850h-144v850z" />
    <glyph glyph-name="j" unicode="j" horiz-adv-x="364" 
d="M106 1173h144v-167h-144v167zM-47 -206c26.667 -8 48.999 -12 66.999 -12c28 0 49.667 9.66699 65 29c14 18 21 67 21 147v892h144v-896c0 -52 -3.16699 -96.5 -9.5 -133.5s-16.5 -65.833 -30.5 -86.5c-35.333 -52 -92.666 -78 -171.999 -78
c-20 0 -39.333 1.16699 -58 3.5s-37 5.83301 -55 10.5z" />
    <glyph glyph-name="k" unicode="k" horiz-adv-x="819" 
d="M108 1173h144v-668l341 345h187l-325 -316l358 -534h-177l-282 434l-102 -96v-338h-144v1173z" />
    <glyph glyph-name="l" unicode="l" horiz-adv-x="364" 
d="M105 1173h144v-1173h-144v1173z" />
    <glyph glyph-name="m" unicode="m" horiz-adv-x="1365" 
d="M108 850h130v-120c26 42 61 75.5 105 100.5s94.333 37.5 151 37.5c62.667 0 114.334 -13 155.001 -39s69 -62.667 85 -110c34 50 72.833 87.333 116.5 112s92.167 37 145.5 37c85.333 0 150.666 -23 195.999 -69s68 -118 68 -216v-583h-144v536c0 28 -1 52 -3 72
s-5.5 37 -10.5 51s-11.833 25.833 -20.5 35.5s-19.334 18.5 -32.001 26.5c-24.667 15.333 -53 23 -85 23c-30 0 -57.667 -4.83301 -83 -14.5s-47.166 -24.667 -65.499 -45s-32.833 -46.333 -43.5 -78s-16 -69.5 -16 -113.5v-493h-144v552
c0 65.333 -11.667 113.666 -35 144.999s-62 47 -116 47c-31.333 -2 -60.333 -8.16699 -87 -18.5s-49.5 -27.166 -68.5 -50.499s-33.333 -54 -43 -92s-13.5 -85.333 -11.5 -142v-441h-144v850z" />
    <glyph glyph-name="n" unicode="n" horiz-adv-x="911" 
d="M108 850l130.001 -0.000976562v-121c62 92.667 152 139 270 139c40.667 -0.666992 77.5 -6 110.5 -16s61.5 -24 85.5 -42s43.333 -39.667 58 -65s24 -53 28 -83c2 -13.333 3.83301 -31.5 5.5 -54.5s2.5 -51.5 2.5 -85.5v-522h-144v516
c0 29.333 -1.16699 54.833 -3.5 76.5s-6.5 40.334 -12.5 56.001s-13.833 29 -23.5 40s-21.834 20.833 -36.501 29.5c-14 9.33301 -29.333 16 -46 20s-34.667 6 -54 6c-62 0 -115.333 -19.667 -160 -59c-44 -38 -66 -111.667 -66 -221v-464h-144v850z" />
    <glyph glyph-name="o" unicode="o" horiz-adv-x="911" 
d="M54 424c0 156.667 43.665 273.667 130.998 351c72.667 62 161.667 93 267 93c117.333 0 213 -38 287 -114c74 -77.333 111 -182.666 111 -315.999c0 -54.667 -4.16699 -103.334 -12.5 -146.001s-20.666 -80.167 -36.999 -112.5s-36.5 -60.5 -60.5 -84.5
s-51.667 -44.667 -83 -62c-63.333 -35.333 -131.666 -53 -204.999 -53c-118 0 -214 38.333 -288 115c-73.333 76 -110 185.667 -110 329zM202.998 424c0 -54 6.16699 -101.33 18.5 -141.997s29.666 -74.5 51.999 -101.5s48.666 -47.167 78.999 -60.5s63.5 -20 99.5 -20
s69.333 6.66699 100 20s57.167 33.666 79.5 60.999s39.833 61.666 52.5 102.999s19 90 19 146c0 52 -6.5 98 -19.5 138s-30.667 73.5 -53 100.5s-48.833 47.333 -79.5 61s-63.667 20.5 -99 20.5c-36 0 -69.167 -6.83301 -99.5 -20.5s-56.666 -34 -78.999 -61
s-39.666 -60.833 -51.999 -101.5s-18.5 -88.334 -18.5 -143.001z" />
    <glyph glyph-name="p" unicode="p" horiz-adv-x="911" 
d="M108 850l130.998 -0.000976562v-111c30.667 44 65.5 76.5 104.5 97.5s86.167 31.5 141.5 31.5c55.333 2 105.333 -8.16699 150 -30.5s82.834 -53.5 114.501 -93.5s55.834 -87 72.501 -141s24.667 -111.333 24 -172c0 -43.333 -4 -84.666 -12 -123.999
s-19.667 -76 -35 -110s-34.5 -64.667 -57.5 -92s-49.5 -50.333 -79.5 -69c-58 -37.333 -120.333 -56 -187 -56c-48.667 0 -92 10.167 -130 30.5s-69 46.5 -93 78.5v-415h-144v1176zM238.998 418.999c0 -54 6.00098 -101 18.001 -141s28.167 -73.167 48.5 -99.5
s44.333 -46 72 -59s57.167 -19.5 88.5 -19.5c32 0 62 6.66699 90 20s52.5 33.666 73.5 60.999s37.667 61.833 50 103.5s18.5 91.167 18.5 148.5c0 54 -6 101.167 -18 141.5s-28.167 73.833 -48.5 100.5s-44.333 46.667 -72 60s-56.834 20 -87.501 20
c-60.667 0 -114.667 -28.667 -162 -86s-71 -140.666 -71 -249.999z" />
    <glyph glyph-name="q" unicode="q" horiz-adv-x="911" 
d="M649 90c-11.333 -16 -24.832 -30.667 -40.499 -44s-33.167 -25 -52.5 -35s-39.833 -17.667 -61.5 -23s-43.834 -8 -66.501 -8c-100.667 0 -188 40.667 -262 122c-72 80 -108 190.333 -108 331c-2 64.667 5.83301 124 23.5 178s42.834 100.333 75.501 139
s71.167 68.5 115.5 89.5s92.166 30.5 143.499 28.5c104.667 0 187 -44 247 -132v114h130v-1176h-144v416zM205.001 428c0 -54.667 6.16602 -102.5 18.499 -143.5s29 -75.167 50 -102.5s45.833 -47.833 74.5 -61.5s59 -20.5 91 -20.5c30.667 0 59.667 6.5 87 19.5
s51.166 32.5 71.499 58.5s36.333 58.667 48 98s17.5 85.333 17.5 138c0 113.333 -23.333 198.333 -70 255c-46 57.333 -100.333 86 -163 86c-31.333 0 -60.666 -6.5 -87.999 -19.5s-51.166 -33 -71.499 -60s-36.333 -61 -48 -102s-17.5 -89.5 -17.5 -145.5z" />
    <glyph glyph-name="r" unicode="r" horiz-adv-x="546" 
d="M106 850l129.999 -0.000976562v-129c16.667 30 32.5 54.5 47.5 73.5s29.833 34 44.5 45s29.5 18.5 44.5 22.5s30.5 6 46.5 6c25.333 0 50.333 -3.66699 75 -11s49.667 -19 75 -35l-51 -134c-17.333 11.333 -34.833 19.333 -52.5 24s-35.167 7 -52.5 7
c-32 0 -60.5 -9.16699 -85.5 -27.5s-42.833 -44.5 -53.5 -78.5c-7.33301 -25.333 -13.166 -52.166 -17.499 -80.499s-6.5 -57.833 -6.5 -88.5v-444h-144v850z" />
    <glyph glyph-name="s" unicode="s" horiz-adv-x="819" 
d="M194 275c7.33301 -56.667 29.1689 -100.001 65.502 -130.001s87.5 -45 153.5 -45c33.333 0 62.166 3.66699 86.499 11s44.5 17 60.5 29s28 26.167 36 42.5s12 33.5 12 51.5c0 34 -14 59.667 -42 77c-18.667 13.333 -68 30 -148 50
c-52.667 12.667 -97.334 24.834 -134.001 36.501s-65.334 22.5 -86.001 32.5c-20 9.33301 -37.833 20.666 -53.5 33.999s-28.834 28.666 -39.501 45.999c-11.333 17.333 -19.333 35.5 -24 54.5s-7 38.833 -7 59.5c0 39.333 8.5 75 25.5 107s40.5 58.333 70.5 79
c23.333 16 54.333 29.667 93 41s79.667 17 123 17c104.667 -2.66699 184.834 -22.834 240.501 -60.501s88.167 -96.834 97.5 -177.501l-141 -19c-6.66699 44 -25 78.167 -55 102.5s-73.333 36.5 -130 36.5c-33.333 0 -61.666 -3 -84.999 -9s-42.333 -14 -57 -24
s-25.5 -21.5 -32.5 -34.5s-10.5 -26.833 -10.5 -41.5c0 -19.333 6 -36.333 18 -51c5.33301 -7.33301 12.833 -14.166 22.5 -20.499s20.5 -12.166 32.5 -17.499l42.5 -13.5c20.333 -6.33301 48.5 -14.5 84.5 -24.5c52 -13.333 95.5 -25.166 130.5 -35.499
s62.5 -20.166 82.5 -29.499c40.667 -18 72.334 -43.667 95.001 -77c22.667 -32.667 34 -73.667 34 -123c0 -37.333 -8.16699 -72.333 -24.5 -105s-39.5 -61.167 -69.5 -85.5s-66 -43.5 -108 -57.5s-88.667 -21 -140 -21c-110.667 0 -194.834 22.833 -252.501 68.5
s-94.5 114.167 -110.5 205.5z" />
    <glyph glyph-name="t" unicode="t" horiz-adv-x="455" 
d="M444 2c-20.667 -4 -40.1689 -7.16699 -58.502 -9.5s-35.5 -3.5 -51.5 -3.5c-52 0 -92.167 8.16699 -120.5 24.5s-48.833 37.833 -61.5 64.5c-5.33301 14 -9.66602 35 -12.999 63s-5 64 -5 108v489h-104v112h104v210l143 87v-297h145v-112h-145v-497
c0 -41.333 2.66699 -68 8 -80c4.66699 -10.667 13 -20 25 -28c10.667 -6.66699 27 -10 49 -10c8 0 17.333 0.5 28 1.5s22.334 2.83301 35.001 5.5z" />
    <glyph glyph-name="u" unicode="u" horiz-adv-x="911" 
d="M665 125c-66.667 -96.667 -156.667 -145.002 -270 -145.002c-40 0.666992 -76.333 6.33398 -109 17.001s-61.167 25.334 -85.5 44.001s-44 40.5 -59 65.5s-24.5 52.5 -28.5 82.5c-5.33301 28.667 -8 73 -8 133v528h144v-472c0 -75.333 3 -126 9 -152
c9.33301 -37.333 28.5 -66.833 57.5 -88.5s65.167 -32.5 108.5 -32.5c21.333 0 42.333 2.66699 63 8s40 13.333 58 24s34 23.667 48 39s25 32.666 33 51.999c15.333 38.667 23 94.334 23 167.001v455h144v-850h-128v125z" />
    <glyph glyph-name="v" unicode="v" horiz-adv-x="819" 
d="M22 850h150l183 -509l29 -84c9.33301 -28 18 -57 26 -87c6 22 13.667 46.5 23 73.5l31 87.5l188 519h147l-321 -850h-134z" />
    <glyph glyph-name="w" unicode="w" horiz-adv-x="1183" 
d="M5 850h149l134 -491l51 -182l44 175l135 498h149l126 -493l42 -162l50 164l145 491h140l-266 -850h-149l-136 510l-33 144l-172 -654h-148z" />
    <glyph glyph-name="x" unicode="x" horiz-adv-x="819" 
d="M322 442l-288 408h180l132 -200l33 -52l26 -43l65 94l143 201h172l-294 -401l317 -449h-178l-175 264l-45 72l-224 -336h-175z" />
    <glyph glyph-name="y" unicode="y" horiz-adv-x="819" 
d="M85 -192c15.333 -4 30 -7.16602 44 -9.49902s27.333 -3.5 40 -3.5c32 0 57.333 5.33301 76 16s34.334 25.667 47.001 45c5.33301 7.33301 11.5 19.833 18.5 37.5s15.5 41.167 25.5 70.5l13 34l-323 852h156l177 -493c23.333 -62.667 43.333 -128 60 -196
c8.66699 34 17.834 66.833 27.501 98.5s20.167 63.167 31.5 94.5l182 496h145l-323 -864c-17.333 -47.333 -32.833 -86.833 -46.5 -118.5s-24.834 -56.167 -33.501 -73.5c-26.667 -48.667 -56.334 -83.834 -89.001 -105.501s-72 -32.5 -118 -32.5
c-29.333 0 -60.333 5.33301 -93 16z" />
    <glyph glyph-name="z" unicode="z" horiz-adv-x="819" 
d="M33 116l541 622c-63.333 -4 -118 -6 -164 -6h-346v118h694v-96l-460 -540l-88 -98c64 6 124.333 9 181 9h394v-125h-752v116z" />
    <glyph glyph-name="braceleft" unicode="{" horiz-adv-x="547" 
d="M46 490c40 0.666992 73.335 11.4971 100.002 32.4971s43.667 50.167 51 87.5c4 18.667 7.16699 43.667 9.5 75s3.5 69 3.5 113c0.666992 90 2.66699 149 6 177c3.33301 32.667 9 60.834 17 84.501s18.167 43.834 30.5 60.501s27 30.167 44 40.5s36.5 18.5 58.5 24.5
c20 5.33301 52.667 8 98 8h46v-127h-27c-26.667 0 -49.334 -2.33301 -68.001 -7s-32.334 -12 -41.001 -22c-18.667 -18.667 -28 -63.667 -28 -135c0 -70 -0.833008 -126.833 -2.5 -170.5s-3.5 -74.5 -5.5 -92.5c-10 -56 -26.667 -100.333 -50 -133
c-11.333 -15.333 -26 -29.666 -44 -42.999s-40 -26.333 -66 -39c58.667 -23.333 101.334 -61 128.001 -113c26.667 -49.333 40 -131.666 40 -246.999c0 -104 1 -166 3 -186c2 -18 5.33301 -33.167 10 -45.5s12 -22.333 22 -30s23.167 -13.167 39.5 -16.5
s37.166 -5 62.499 -5h27v-125h-46c-26.667 0 -49.334 0.833008 -68.001 2.5s-34 4.5 -46 8.5c-34 13.333 -62.167 33.666 -84.5 60.999s-37.166 62.333 -44.499 105c-3.33301 20.667 -5.83301 48 -7.5 82s-2.83398 75.333 -3.50098 124c0 48.667 -1.16699 89.5 -3.5 122.5
s-5.5 58.5 -9.5 76.5c-8 36 -25 65 -51 87c-25.333 20.667 -58.666 32 -99.999 34v131v0z" />
    <glyph glyph-name="bar" unicode="|" horiz-adv-x="426" 
d="M150 1193h125v-1537h-125v1537z" />
    <glyph glyph-name="braceright" unicode="}" horiz-adv-x="547" 
d="M502 359c-42 -1.33301 -75.668 -12.6641 -101.001 -33.9971s-42.666 -50.333 -51.999 -87c-8 -36 -13 -99 -15 -189c0 -88.667 -1 -147 -3 -175c-4 -33.333 -10.167 -61.666 -18.5 -84.999s-18.5 -43.333 -30.5 -60s-26.333 -30.167 -43 -40.5s-35.667 -18.5 -57 -24.5
c-10.667 -2.66699 -24.167 -4.66699 -40.5 -6s-36.166 -2 -59.499 -2h-44v125h24c56 0 92.667 10 110 30c18.667 20.667 28 65.667 28 135c0 133.333 2 218 6 254c9.33301 59.333 26.833 106.666 52.5 141.999s61.834 62.666 108.501 81.999
c-62 30.667 -105 69.667 -129 117c-25.333 47.333 -38 128.666 -38 243.999c0 52 -0.333008 93.333 -1 124s-1.33398 51.334 -2.00098 62.001c-2 18 -5.5 33 -10.5 45s-12.5 21.667 -22.5 29s-23.333 12.666 -40 15.999s-37.334 5 -62.001 5h-24v127h44
c26 0 48.5 -1.16699 67.5 -3.5s34.833 -5.5 47.5 -9.5c34 -12.667 62 -32.5 84 -59.5s36.667 -61.833 44 -104.5c6 -41.333 9 -110 9 -206c2 -96 7 -162.667 15 -200c8 -36 25 -65.333 51 -88c26.667 -20.667 60.667 -31.334 102 -32.001v-131z" />
    <glyph glyph-name="asciitilde" unicode="~" horiz-adv-x="746" 
d="M111 252c33.333 130.667 95.667 196 187 196c29.333 0 75.666 -18.333 138.999 -55l64 -37c52.667 -30 92.667 -45 120 -45c43.333 0 81 37 113 111h36c-37.333 -125.333 -100.666 -188 -189.999 -188c-36 0 -81.333 16 -136 48l-63 36c-60 34.667 -100 52 -120 52
c-44.667 0 -83 -39.333 -115 -118h-35z" />
    <glyph glyph-name="cent" unicode="&#xa2;" horiz-adv-x="1707" 
d="M918 -306h-130v1519h130v-1519z" />
    <glyph glyph-name="sterling" unicode="&#xa3;" horiz-adv-x="1707" 
d="M1141 1213h-576v122h576v-122z" />
    <glyph glyph-name="currency" unicode="&#xa4;" horiz-adv-x="1707" 
 />
    <glyph glyph-name="yen" unicode="&#xa5;" horiz-adv-x="1707" 
d="M1268 1486h-829v120h829v-120zM1268 1171h-829v120h829v-120z" />
    <glyph glyph-name="brokenbar" unicode="&#xa6;" horiz-adv-x="1707" 
 />
    <glyph glyph-name="section" unicode="&#xa7;" horiz-adv-x="1707" 
 />
    <glyph glyph-name="dieresis" unicode="&#xa8;" horiz-adv-x="862" 
 />
    <glyph glyph-name="copyright" unicode="&#xa9;" horiz-adv-x="1244" 
d="M725 -27c-153.333 0 -284.833 54.667 -394.5 164s-164.5 241.333 -164.5 396s54.833 286.667 164.5 396s241.167 164 394.5 164c155.333 0 287.666 -54.667 396.999 -164s164 -241.333 164 -396s-54.667 -286.667 -164 -396s-241.666 -164 -396.999 -164zM725 18
c142.667 0 264.334 50.333 365.001 151s151 222 151 364s-50.333 263.333 -151 364s-222.334 151 -365.001 151c-141.333 0 -262.333 -50.333 -363 -151s-151 -222 -151 -364s50.333 -263.333 151 -364s221.667 -151 363 -151zM890 246c-70 -22 -132 -33 -186 -33
c-82.667 0 -148 22.167 -196 66.5s-72 105.166 -72 182.499c0 108.667 35 199.5 105 272.5s158 109.5 264 109.5c60.667 0 126.667 -10 198 -30l-36 -139l-52 9l8 82c-46 21.333 -89.667 32 -131 32c-69.333 0 -128 -32.667 -176 -98s-72 -144.666 -72 -237.999
c0 -127.333 59.333 -191 178 -191c67.333 0 127.333 12 180 36z" />
    <glyph glyph-name="guillemotleft" unicode="&#xab;" horiz-adv-x="840" 
d="M483 411c0 52.667 5 103.83 15 153.497s30.833 101.334 62.5 155.001s86.5 92.834 164.5 117.501c8 -4 4 -21.333 -12 -52c-24.667 -52.667 -44.667 -111 -60 -175c-16 -62.667 -24 -130.667 -24 -204v-3c0 -73.333 8 -141.666 24 -204.999
c15.333 -63.333 35.333 -121.333 60 -174c16 -30.667 20 -48 12 -52c-78 24 -133 63 -165 117c-31.333 53.333 -52 104.833 -62 154.5s-15 101.167 -15 154.5v13zM203 410.996c0 52.667 5 103.83 15 153.497s30.833 101.334 62.5 155.001s86.5 92.834 164.5 117.501
c8 -4 4 -21.333 -12 -52c-24.667 -52.667 -44.667 -111 -60 -175c-16 -62.667 -24 -130.667 -24 -204v-3c0 -73.333 8 -141.666 24 -204.999c15.333 -63.333 35.333 -121.333 60 -174c16 -30.667 20 -48 12 -52c-78 24 -133 63 -165 117
c-31.333 53.333 -52 104.833 -62 154.5s-15 101.167 -15 154.5v13z" />
    <glyph glyph-name="logicalnot" unicode="&#xac;" horiz-adv-x="932" 
d="M177 510l16 80h782l-69 -342h-92l52 262h-689z" />
    <glyph glyph-name="registered" unicode="&#xae;" horiz-adv-x="897" 
d="M580 445c-88 0 -163.167 31.167 -225.5 93.5s-93.5 137.5 -93.5 225.5s31.167 163.333 93.5 226s137.5 94 225.5 94c89.333 0 165 -31.333 227 -94s93 -138 93 -226s-31.167 -163.167 -93.5 -225.5s-137.833 -93.5 -226.5 -93.5zM580 484c76.667 0 142.5 27.667 197.5 83
s82.5 121 82.5 197s-27.5 141.667 -82.5 197s-120.833 83 -197.5 83c-76 0 -141.5 -27.667 -196.5 -83s-82.5 -121 -82.5 -197s27.5 -141.667 82.5 -197s120.5 -83 196.5 -83zM529 737l-28 -141h-107l9 43h53l55 276h-53l8 44h132c102 0 153 -28 153 -84
c0 -50 -33.667 -91.667 -101 -125l35 -111h62l-9 -43h-97l-50 141h-62zM538 782h36c82 0 123 28 123 84c0 32.667 -30 49 -90 49h-43z" />
    <glyph glyph-name="macron" unicode="&#xaf;" horiz-adv-x="1118" 
d="M1134 1259h-1150v130h1150v-130z" />
    <glyph glyph-name="degree" unicode="&#xb0;" horiz-adv-x="409" 
d="M395 844c-34 0 -63.167 12 -87.5 36s-36.5 53.333 -36.5 88c0 35.333 12.167 65 36.5 89s53.5 36 87.5 36c34.667 0 64 -12 88 -36s36 -53.667 36 -89c0 -34.667 -12 -64 -36 -88s-53.333 -36 -88 -36zM395 888c21.333 0 39.833 8 55.5 24s23.5 34.667 23.5 56
s-7.83301 40 -23.5 56s-34.167 24 -55.5 24s-40 -8 -56 -24s-24 -34.667 -24 -56s8 -40 24 -56s34.667 -24 56 -24z" />
    <glyph glyph-name="plusminus" unicode="&#xb1;" horiz-adv-x="1707" 
 />
    <glyph glyph-name="twosuperior" unicode="&#xb2;" horiz-adv-x="1707" 
d="M824 0l-774.998 -0.00292969c-1.33301 17.333 -0.333008 34.5 3 51.5s8.33301 33.167 15 48.5c10 26 22.5 51.667 37.5 77s33.833 51.333 56.5 78s49.334 54.667 80.001 84s66.667 61 108 95c129.333 104.667 215.666 187.334 258.999 248.001
c44.667 60.667 67 118.334 67 173.001c0 28 -5.33301 54.333 -16 79s-25.834 46.167 -45.501 64.5s-43 32.833 -70 43.5s-56.833 16 -89.5 16c-69.333 0 -124.666 -20.667 -165.999 -62s-62.333 -99.333 -63 -174l-148 17c10 111.333 47.833 195.666 113.5 252.999
s154.5 86 266.5 86c112.667 0 201.667 -31.667 267 -95c65.333 -61.333 98 -138.333 98 -231c0 -47.333 -9.33301 -93.666 -28 -138.999s-50.667 -93 -96 -143c-44 -51.333 -117.667 -120 -221 -206c-86 -71.333 -141.667 -120.666 -167 -147.999
c-12.667 -13.333 -23.834 -26.333 -33.501 -39s-18.834 -25.667 -27.501 -39h575v-138z" />
    <glyph glyph-name="threesuperior" unicode="&#xb3;" horiz-adv-x="1707" 
d="M213 330c16.667 -82 45.0029 -141.17 85.0029 -177.503s88 -54.5 144 -54.5c68 0 125 23.667 171 71c46.667 46.667 70 104.334 70 173.001c0 33.333 -5.66699 64 -17 92s-27.333 52.333 -48 73s-45 36.667 -73 48s-58.333 17 -91 17c-14 0 -29.167 -1.33301 -45.5 -4
s-35.166 -7 -56.499 -13l17 127c4.66699 -1.33301 8.83398 -2 12.501 -2h9.5c61.333 0 116.666 15.667 165.999 47c48.667 32.667 73 82.667 73 150c0 26 -4.66699 50.167 -14 72.5s-22.333 41.5 -39 57.5s-36.834 28.5 -60.501 37.5s-49.5 13.5 -77.5 13.5
c-55.333 0 -102 -17.5 -140 -52.5s-61.667 -87.167 -71 -156.5l-145 25c8.66699 48.667 23.167 91.834 43.5 129.501s45.666 69.5 75.999 95.5s65.166 45.667 104.499 59s82.333 20 129 20c48.667 0.666992 94.167 -7.33301 136.5 -24s79.166 -39.167 110.499 -67.5
s55.666 -61 72.999 -98s25.333 -75.167 24 -114.5c0 -52 -13.667 -98.833 -41 -140.5s-67.666 -74.167 -120.999 -97.5c68.667 -16.667 122.5 -50 161.5 -100s58.5 -113.333 58.5 -190c0 -51.333 -9.5 -98.5 -28.5 -141.5s-47.5 -82.833 -85.5 -119.5
c-74.667 -71.333 -168.667 -107 -282 -107c-52 0 -99.333 7.83301 -142 23.5s-81 38.5 -115 68.5c-34 32 -60.667 67.833 -80 107.5s-31.333 83.834 -36 132.501z" />
    <glyph glyph-name="acute" unicode="&#xb4;" horiz-adv-x="256" 
 />
    <glyph glyph-name="mu1" unicode="&#xb5;" horiz-adv-x="1707" 
 />
    <glyph glyph-name="paragraph" unicode="&#xb6;" horiz-adv-x="1707" 
 />
    <glyph glyph-name="periodcentered" unicode="&#xb7;" horiz-adv-x="724" 
d="M482 832h-239v285h239v-285z" />
    <glyph glyph-name="cedilla" unicode="&#xb8;" horiz-adv-x="862" 
 />
    <glyph glyph-name="onesuperior" unicode="&#xb9;" horiz-adv-x="1707" 
d="M539 0l-0.000976562 917.999c-17.333 -16.667 -37.5 -33.167 -60.5 -49.5s-48.5 -33.166 -76.5 -50.499c-56.667 -33.333 -107.334 -58 -152.001 -74v139c40.667 19.333 78.834 40.666 114.501 63.999s68.167 47.833 97.5 73.5s54.833 51.834 76.5 78.501
s38.834 53 51.501 79h93v-1178h-144z" />
    <glyph glyph-name="guillemotright" unicode="&#xbb;" horiz-adv-x="825" 
d="M457 398c0 -53.333 -5 -104.829 -15 -154.496s-30.667 -101.167 -62 -154.5c-32 -54 -87 -93 -165 -117c-8 4 -4 21.333 12 52c24.667 52.667 44.667 110.667 60 174c16 63.333 24 131.666 24 204.999v3c0 73.333 -8 141.333 -24 204c-15.333 64 -35.333 122.333 -60 175
c-16 30.667 -20 48 -12 52c78 -24.667 132.833 -63.834 164.5 -117.501s52.5 -105.334 62.5 -155.001s15 -100.834 15 -153.501v-13zM737 398.004c0 -53.333 -5 -104.829 -15 -154.496s-30.667 -101.167 -62 -154.5c-32 -54 -87 -93 -165 -117c-8 4 -4 21.333 12 52
c24.667 52.667 44.667 110.667 60 174c16 63.333 24 131.666 24 204.999v3c0 73.333 -8 141.333 -24 204c-15.333 64 -35.333 122.333 -60 175c-16 30.667 -20 48 -12 52c78 -24.667 132.833 -63.834 164.5 -117.501s52.5 -105.334 62.5 -155.001s15 -100.834 15 -153.501
v-13z" />
    <glyph glyph-name="onequarter" unicode="&#xbc;" horiz-adv-x="2944" 
 />
    <glyph glyph-name="onehalf" unicode="&#xbd;" horiz-adv-x="2944" 
 />
    <glyph glyph-name="threequarters" unicode="&#xbe;" horiz-adv-x="2944" 
 />
    <glyph glyph-name="multiply" unicode="&#xd7;" horiz-adv-x="1159" 
d="M231 380l281 281l-281 281l118 118l281 -281l280 280l118 -118l-280 -280l280 -280l-118 -118l-280 280l-281 -281z" />
    <glyph glyph-name="agrave" unicode="&#xe0;" horiz-adv-x="1075" 
d="M741 331c-14 -43.333 -30.835 -82.6689 -50.502 -118.002s-41.167 -68.333 -64.5 -99c-71.333 -88.667 -146.666 -133 -225.999 -133c-128 0 -208.333 77.667 -241 233c-17.333 80 -18 159 -2 237s47.667 155.333 95 232c48.667 78.667 109 137.667 181 177
s155.667 59 251 59c18.667 0 39.334 -0.166992 62.001 -0.5s45.834 -1.16602 69.501 -2.49902l70.5 -4c23.333 -1.33301 45.333 -2.66602 66 -3.99902l-6 -262v1l4 -393c1.33301 -30 2.83301 -54.833 4.5 -74.5l3.5 -40.5c2 -16.667 11 -25 27 -25
c45.333 0 121.666 77.333 228.999 232l4 -167c-96.667 -132 -194.334 -198 -293.001 -198c-93.333 0 -150.666 48.333 -171.999 145c-2.66699 13.333 -4.66699 32 -6 56s-2 51.333 -2 82zM736.998 757.997c-32.667 11.333 -62.6689 19.834 -90.002 25.501s-56 8.5 -86 8.5
c-42.667 0 -78.5 -14.167 -107.5 -42.5s-51.167 -69.833 -66.5 -124.5c-16.667 -68.667 -26.667 -135.334 -30 -200.001s0.333984 -123.667 11.001 -177c13.333 -68 36.333 -102 69 -102c37.333 0 88 44.667 152 134c32 48 60.333 98 85 150s46.334 108.333 65.001 169z" />
    <glyph glyph-name="acircumflex" unicode="&#xe2;" horiz-adv-x="1707" 
d="M662 105c-26.667 -23.333 -52.6689 -42.8291 -78.002 -58.4961s-50.666 -28.5 -75.999 -38.5s-51.166 -17.167 -77.499 -21.5s-53.5 -6.5 -81.5 -6.5c-46 0 -87 6 -123 18s-66.333 28.833 -91 50.5s-43.5 47.5 -56.5 77.5s-19.5 63 -19.5 99
c0 32.667 5.5 62.167 16.5 88.5s26 49.833 45 70.5s41 38 66 52s51.5 25 79.5 33c14 3.33301 31.5 6.66602 52.5 9.99902s46.167 7 75.5 11c58.667 7.33301 109.167 15 151.5 23s77.166 16.667 104.499 26v38c0 59.333 -13 101 -39 125c-37.333 32 -92.333 48 -165 48
c-34 0 -63.167 -2.83301 -87.5 -8.5s-45.166 -14.834 -62.499 -27.501s-31.666 -29.334 -42.999 -50.001s-20.666 -46 -27.999 -76l-142 20c19.333 87.333 59.5 152.5 120.5 195.5s148.833 64.5 263.5 64.5c56 0 103.167 -4.5 141.5 -13.5s69.833 -21.833 94.5 -38.5
s43.667 -36.334 57 -59.001s22.666 -47.667 27.999 -75c5.33301 -26.667 8 -71.667 8 -135v-192c0 -132.667 3 -217 9 -253c6 -33.333 18.333 -67.333 37 -102h-151c-7.33301 15.333 -13.333 31.5 -18 48.5s-8.33398 35.833 -11.001 56.5zM649.998 426.004
c-26 -10.667 -58.665 -20.499 -97.998 -29.499s-85.333 -17.167 -138 -24.5c-29.333 -4.66699 -54 -9.16699 -74 -13.5s-36.833 -9.33301 -50.5 -15s-24.834 -12.334 -33.501 -20.001s-16.334 -16.5 -23.001 -26.5c-13.333 -20.667 -20 -43.667 -20 -69
c0 -39.333 14.333 -71.5 43 -96.5s71 -37.5 127 -37.5s105.5 12.167 148.5 36.5s74.833 57.5 95.5 99.5c15.333 32.667 23 80.667 23 144v52z" />
    <glyph glyph-name="ccedilla" unicode="&#xe7;" horiz-adv-x="805" 
 />
    <glyph glyph-name="egrave" unicode="&#xe8;" horiz-adv-x="1078" 
 />
    <glyph glyph-name="eacute" unicode="&#xe9;" horiz-adv-x="1078" 
 />
    <glyph glyph-name="ecircumflex" unicode="&#xea;" horiz-adv-x="1078" 
 />
    <glyph glyph-name="edieresis" unicode="&#xeb;" horiz-adv-x="1078" 
 />
    <glyph glyph-name="icircumflex" unicode="&#xee;" horiz-adv-x="1156" 
 />
    <glyph glyph-name="idieresis" unicode="&#xef;" horiz-adv-x="1156" 
 />
    <glyph glyph-name="ocircumflex" unicode="&#xf4;" horiz-adv-x="1707" 
d="M54 424c0 156.667 43.665 273.667 130.998 351c72.667 62 161.667 93 267 93c117.333 0 213 -38 287 -114c74 -77.333 111 -182.666 111 -315.999c0 -54.667 -4.16699 -103.334 -12.5 -146.001s-20.666 -80.167 -36.999 -112.5s-36.5 -60.5 -60.5 -84.5
s-51.667 -44.667 -83 -62c-63.333 -35.333 -131.666 -53 -204.999 -53c-118 0 -214 38.333 -288 115c-73.333 76 -110 185.667 -110 329zM202.998 424c0 -54 6.16699 -101.33 18.5 -141.997s29.666 -74.5 51.999 -101.5s48.666 -47.167 78.999 -60.5s63.5 -20 99.5 -20
s69.333 6.66699 100 20s57.167 33.666 79.5 60.999s39.833 61.666 52.5 102.999s19 90 19 146c0 52 -6.5 98 -19.5 138s-30.667 73.5 -53 100.5s-48.833 47.333 -79.5 61s-63.667 20.5 -99 20.5c-36 0 -69.167 -6.83301 -99.5 -20.5s-56.666 -34 -78.999 -61
s-39.666 -60.833 -51.999 -101.5s-18.5 -88.334 -18.5 -143.001z" />
    <glyph glyph-name="divide" unicode="&#xf7;" horiz-adv-x="1288" 
d="M738 847h-181v207h181v-207zM1091 514h-887v122h887v-122zM738 96h-181v207h181v-207z" />
    <glyph glyph-name="ugrave" unicode="&#xf9;" horiz-adv-x="1142" 
 />
    <glyph glyph-name="ucircumflex" unicode="&#xfb;" horiz-adv-x="1142" 
 />
    <glyph glyph-name="udieresis" unicode="&#xfc;" horiz-adv-x="1142" 
 />
    <glyph glyph-name="OE" unicode="&#x152;" horiz-adv-x="3414" 
 />
    <glyph glyph-name="oe" unicode="&#x153;" horiz-adv-x="3414" 
d="M54 424c0 156.667 43.665 273.667 130.998 351c72.667 62 161.667 93 267 93c117.333 0 213 -38 287 -114c74 -77.333 111 -182.666 111 -315.999c0 -54.667 -4.16699 -103.334 -12.5 -146.001s-20.666 -80.167 -36.999 -112.5s-36.5 -60.5 -60.5 -84.5
s-51.667 -44.667 -83 -62c-63.333 -35.333 -131.666 -53 -204.999 -53c-118 0 -214 38.333 -288 115c-73.333 76 -110 185.667 -110 329zM202.998 424c0 -54 6.16699 -101.33 18.5 -141.997s29.666 -74.5 51.999 -101.5s48.666 -47.167 78.999 -60.5s63.5 -20 99.5 -20
s69.333 6.66699 100 20s57.167 33.666 79.5 60.999s39.833 61.666 52.5 102.999s19 90 19 146c0 52 -6.5 98 -19.5 138s-30.667 73.5 -53 100.5s-48.833 47.333 -79.5 61s-63.667 20.5 -99 20.5c-36 0 -69.167 -6.83301 -99.5 -20.5s-56.666 -34 -78.999 -61
s-39.666 -60.833 -51.999 -101.5s-18.5 -88.334 -18.5 -143.001zM2546 255.003c-24 -88 -67.502 -155.83 -130.502 -203.497s-143.833 -71.5 -242.5 -71.5c-62.667 0 -119 9.83301 -169 29.5s-92.5 48.167 -127.5 85.5s-61.833 83.166 -80.5 137.499
s-28 116.166 -28 185.499c0 71.333 9 134.666 27 189.999s45.333 102.666 82 141.999c74 78.667 169.667 118 287 118c112.667 0 205.667 -38.667 279 -116c72 -77.333 108 -186 108 -326v-15.5c0 -6.33301 -0.666992 -13.833 -2 -22.5h-634
c2.66699 -47.333 10.834 -88.833 24.501 -124.5s31.834 -65.667 54.501 -90s49.167 -42.666 79.5 -54.999s63.5 -18.5 99.5 -18.5c52.667 0 97.667 13.5 135 40.5s67 71.5 89 133.5zM2398 506.006c-6 73.333 -23.6689 126.999 -53.002 160.999
c-23.333 28 -49.666 48.833 -78.999 62.5s-63 20.5 -101 20.5c-33.333 0 -64 -5.66699 -92 -17s-52.667 -27.666 -74 -48.999s-38.666 -47 -51.999 -77s-21.333 -63.667 -24 -101h475z" />
    <glyph glyph-name="florin" unicode="&#x192;" horiz-adv-x="679" 
d="M158 -231l52 213l76 382h-178l9 45h177l4 18c21.333 106 76.333 194.5 165 265.5s188 106.5 298 106.5c38 0 71 -5 99 -15l-96 -106c-34.667 34 -75 51 -121 51c-95.333 0 -157.333 -72.333 -186 -217l-21 -103h187l-9 -45h-187l-114 -577z" />
    <glyph glyph-name="circumflex" unicode="&#x2c6;" horiz-adv-x="862" 
 />
    <glyph glyph-name="gravecomb" unicode="&#x300;" horiz-adv-x="918" 
 />
    <glyph glyph-name="acutecomb" unicode="&#x301;" 
 />
    <glyph glyph-name="uni0343" unicode="&#x343;" 
 />
    <glyph glyph-name="uni040d" unicode="&#x400;" horiz-adv-x="1149" 
 />
    <glyph glyph-name="uni045D" unicode="&#x40d;" horiz-adv-x="1372" 
 />
    <glyph glyph-name="uni0400" unicode="&#x450;" horiz-adv-x="1149" 
 />
    <glyph glyph-name="uni0450" unicode="&#x45d;" horiz-adv-x="1154" 
 />
    <glyph glyph-name="doublevav" unicode="&#x5f0;" horiz-adv-x="1122" 
 />
    <glyph glyph-name="vavyod" unicode="&#x5f1;" horiz-adv-x="1122" 
 />
    <glyph glyph-name="doubleyod" unicode="&#x5f2;" horiz-adv-x="1122" 
 />
    <glyph glyph-name="geresh" unicode="&#x5f3;" horiz-adv-x="432" 
 />
    <glyph glyph-name="gershayim" unicode="&#x5f4;" horiz-adv-x="822" 
 />
    <glyph glyph-name="afii57388" unicode="&#x60c;" horiz-adv-x="610" 
d="M500 147c0 -88.667 -48.668 -133 -146.001 -133c-107.333 0 -161 44.333 -161 133c0 138 11.333 232.333 34 283c34.667 86 109.334 129 224.001 129v-129c-75.333 0 -113 -42.333 -113 -127c108 0 162 -52 162 -156z" />
    <glyph glyph-name="afii57403" unicode="&#x61b;" horiz-adv-x="684" 
d="M459 741c0 -88.667 -48.668 -133 -146.001 -133c-107.333 0 -161 44.333 -161 133c0 138 11.333 232.333 34 283c34.667 86 109.334 129 224.001 129v-129c-75.333 0 -113 -42.333 -113 -127c108 0 162 -52 162 -156zM482.999 180c0 -22 -4 -42.168 -12 -60.501
s-19.167 -34.666 -33.5 -48.999s-30.833 -25.5 -49.5 -33.5s-38 -12 -58 -12c-44 0 -80.667 15 -110 45s-44 66.667 -44 110c0 42.667 14.667 79.667 44 111s66 47 110 47c20 0 39.333 -4.16699 58 -12.5s35.167 -20 49.5 -35s25.5 -31.667 33.5 -50s12 -38.5 12 -60.5z" />
    <glyph glyph-name="afii57407" unicode="&#x61f;" horiz-adv-x="1028" 
d="M940 983h-220.999c0 190 -67.667 285 -203 285c-62.667 0 -110.334 -20.667 -143.001 -62c-27.333 -28.667 -41 -63.334 -41 -104.001c0 -42.667 8.66699 -79 26 -109l115 -125c65.333 -65.333 108.333 -121.333 129 -168l27 -116l12 -154h-219
c0 90 -12.333 160.333 -37 211c-10.667 20.667 -47 63 -109 127c-69.333 66.667 -115 119.334 -137 158.001c-27.333 47.333 -41 102.666 -41 165.999c0 118.667 39 211.334 117 278.001s175.667 100 293 100c114.667 0 211 -30.667 289 -92
c58.667 -46 98 -103.333 118 -172l15 -94zM676.001 139c0 -34 -14.333 -68 -43 -102c-32.667 -24.667 -69 -37 -109 -37c-38 -0 -74 12.333 -108 37c-28.667 27.333 -43 61.333 -43 102c0 84.667 50.333 127 151 127c101.333 0 152 -42.333 152 -127z" />
    <glyph glyph-name="afii57409" unicode="&#x621;" horiz-adv-x="952" 
d="M880 189l-542.001 -228.001l-47 131l187 75c-18.667 11.333 -34.167 24.166 -46.5 38.499s-22 29.333 -29 45s-11.667 31.834 -14 48.501s-3.16602 33.334 -2.49902 50.001c1.33301 32 8.5 61.667 21.5 89s30.167 51.166 51.5 71.499s45.833 36.5 73.5 48.5
s56.167 18.833 85.5 20.5s58.833 -2.5 88.5 -12.5s57.5 -27 83.5 -51l-61 -130c-22 18.667 -45.5 30.834 -70.5 36.501s-50.5 2.16699 -76.5 -10.5c-13.333 -6.66699 -22.833 -18.167 -28.5 -34.5s-7.5 -33.166 -5.5 -50.499s8 -32.833 18 -46.5s23.667 -20.834 41 -21.501
c21.333 -1.33301 50.333 4.16699 87 16.5s78 29.833 124 52.5z" />
    <glyph glyph-name="afii52400" unicode="&#x622;" horiz-adv-x="795" 
d="M543 0h-227v1279.71h227v-1279.71zM789 1445l-472 -0.000976562c-62 2 -107.5 -11.5 -136.5 -40.5s-57.833 -70.833 -86.5 -125.5l-177 66c50.667 122.667 95 198.334 133 227.001c32 27.333 65.667 47 101 59s82 18.667 140 20h498v-206z" />
    <glyph glyph-name="afii57411" unicode="&#x623;" horiz-adv-x="568" 
d="M613 1734l-458 -165.997l-31 101l104 39c-25.333 22 -42.166 46.667 -50.499 74s-10.166 54.5 -5.49902 81.5s15 53 31 78s35.667 46.333 59 64s49.666 30.5 78.999 38.5s59.666 8.66699 90.999 2c18.667 -3.33301 35.834 -9.83301 51.501 -19.5
s32.167 -22.167 49.5 -37.5l-66 -96c-16.667 16.667 -31.167 26.667 -43.5 30s-23.833 5.66602 -34.5 6.99902c-9.33301 0.666992 -19.5 0 -30.5 -2s-21.167 -5.83301 -30.5 -11.5s-17.5 -12.834 -24.5 -21.501s-11.167 -19 -12.5 -31
c-1.33301 -10.667 -0.333008 -20.334 3 -29.001s8.16602 -16.167 14.499 -22.5s14 -11.5 23 -15.5s18.5 -6.33301 28.5 -7c42.667 -4.66699 112 12 208 50zM477 0.00292969h-227v1466h227v-1466z" />
    <glyph glyph-name="afii57412" unicode="&#x624;" horiz-adv-x="1054" 
d="M989 -31c0 -132 -55.668 -256.167 -167.001 -372.5s-246.666 -174.5 -405.999 -174.5h-291l-31 226h287c113.333 0 205.5 35.5 276.5 106.5s106.5 152.833 106.5 245.5c-176 0 -311.333 24 -406 72c-124 60 -186 179.333 -186 358c0 192.667 46.333 330 139 412
c60 48.667 151 73 273 73c172 0 290.667 -71.667 356 -215c32.667 -86 49 -234 49 -444v-287zM763.999 227v239.999c0 146 -60 219 -180 219c-56 0 -98.333 -15 -127 -45c-30 -35.333 -45 -101.666 -45 -198.999c0 -86 22.167 -143.333 66.5 -172s139.5 -43 285.5 -43z
M749.999 1223l-458 -165.997l-31 101l104 39c-25.333 22 -42.166 46.667 -50.499 74s-10.166 54.5 -5.49902 81.5s15 53 31 78s35.667 46.333 59 64s49.666 30.5 78.999 38.5s59.666 8.66699 90.999 2c18.667 -3.33301 35.834 -9.83301 51.501 -19.5
s32.167 -22.167 49.5 -37.5l-66 -96c-16.667 16.667 -31.167 26.667 -43.5 30s-23.833 5.66602 -34.5 6.99902c-9.33301 0.666992 -19.5 0 -30.5 -2s-21.167 -5.83301 -30.5 -11.5s-17.5 -12.834 -24.5 -21.501s-11.167 -19 -12.5 -31
c-1.33301 -10.667 -0.333008 -20.334 3 -29.001s8.16602 -16.167 14.499 -22.5s14 -11.5 23 -15.5s18.5 -6.33301 28.5 -7c42.667 -4.66699 112 12 208 50z" />
    <glyph glyph-name="afii57413" unicode="&#x625;" horiz-adv-x="568" 
d="M477 0h-227v1466h227v-1466zM583 -511l-458 -165.997l-31 101l104 39c-25.333 22 -42.166 46.667 -50.499 74s-10.166 54.5 -5.49902 81.5s15 53 31 78s35.667 46.333 59 64s49.666 30.5 78.999 38.5s59.666 8.66699 90.999 2
c18.667 -3.33301 35.834 -9.83301 51.501 -19.5s32.167 -22.167 49.5 -37.5l-66 -96c-16.667 16.667 -31.167 26.667 -43.5 30s-23.833 5.66602 -34.5 6.99902c-9.33301 0.666992 -19.5 0 -30.5 -2s-21.167 -5.83301 -30.5 -11.5s-17.5 -12.834 -24.5 -21.501
s-11.167 -19 -12.5 -31c-1.33301 -10.667 -0.333008 -20.334 3 -29.001s8.16602 -16.167 14.499 -22.5s14 -11.5 23 -15.5s18.5 -6.33301 28.5 -7c42.667 -4.66699 112 12 208 50z" />
    <glyph glyph-name="afii57414" unicode="&#x626;" horiz-adv-x="1636" 
d="M1561 -74c0 -102 -14.333 -181.667 -43 -239c-16.667 -66 -59.667 -131.667 -129 -197c-108 -104 -238.667 -156 -392 -156h-352c-148.667 0 -276.334 59.167 -383.001 177.5s-160 256.5 -160 414.5v469h215v-499c0 -100 44 -187 132 -261
c72 -51.333 152.333 -77 241 -77h297c80.667 0 157.334 26.667 230.001 80c80 68 120 145 120 231c0 69.333 -28.667 113 -86 131s-204 27 -440 27v389c0 112 39.667 208.167 119 288.5s173.333 120.5 282 120.5h279l10 -213h-280c-76.667 0 -133.334 -37.333 -170.001 -112
c-18 -60 -27 -146.667 -27 -260c204.667 0 343.334 -18 416.001 -54c80.667 -43.333 121 -130 121 -260zM795 959l-458 -165.997l-31 101l104 39c-25.333 22 -42.166 46.667 -50.499 74s-10.166 54.5 -5.49902 81.5s15 53 31 78s35.667 46.333 59 64
s49.666 30.5 78.999 38.5s59.666 8.66699 90.999 2c18.667 -3.33301 35.834 -9.83301 51.501 -19.5s32.167 -22.167 49.5 -37.5l-66 -96c-16.667 16.667 -31.167 26.667 -43.5 30s-23.833 5.66602 -34.5 6.99902c-9.33301 0.666992 -19.5 0 -30.5 -2
s-21.167 -5.83301 -30.5 -11.5s-17.5 -12.834 -24.5 -21.501s-11.167 -19 -12.5 -31c-1.33301 -10.667 -0.333008 -20.334 3 -29.001s8.16602 -16.167 14.499 -22.5s14 -11.5 23 -15.5s18.5 -6.33301 28.5 -7c42.667 -4.66699 112 12 208 50z" />
    <glyph glyph-name="afii57415.001" unicode="&#x627;" horiz-adv-x="568" 
d="M477 0h-227v1466h227v-1466z" />
    <glyph glyph-name="afii57416" unicode="&#x628;" horiz-adv-x="2020" 
d="M1956 373c0 -100 -33.8311 -187.166 -101.498 -261.499s-143.834 -111.5 -228.501 -111.5h-1206c-90 0 -166.833 38.833 -230.5 116.5s-95.5 163.167 -95.5 256.5v346h228v-313c0 -54.667 6.66699 -95 20 -121c24.667 -38.667 73.667 -58 147 -58h1070
c73.333 0 121.666 19.333 144.999 58c14.667 17.333 22 57.666 22 120.999v313h230v-346zM860.002 -368.999c0 20.667 4 40.334 12 59.001s19 35 33 49s30.333 25.167 49 33.5s38.667 12.5 60 12.5c20.667 0 40.334 -4.16699 59.001 -12.5s35 -19.5 49 -33.5
s25 -30.333 33 -49s12 -38.334 12 -59.001c0 -21.333 -4 -41.166 -12 -59.499s-19 -34.5 -33 -48.5s-30.333 -25 -49 -33s-38.334 -12 -59.001 -12c-21.333 0 -41.333 4 -60 12s-35 19 -49 33s-25 30.167 -33 48.5s-12 38.166 -12 59.499z" />
    <glyph glyph-name="afii57417" unicode="&#x629;" horiz-adv-x="1028" 
d="M961 395c0 -112 -43.5 -210.332 -130.5 -294.999s-189.167 -127 -306.5 -127c-120 0 -222 43.333 -306 130s-126 189.667 -126 309c0 83.333 25.333 168 76 254l72 92l112 110l-67 78l155 156l414 -432c71.333 -88.667 107 -180.334 107 -275.001zM733 395.001
c0 45.333 -10.999 83 -32.999 113l-186 194c-68 -66.667 -123.333 -127.334 -166 -182.001l-24 -47l-17 -78c0 -31.333 17 -73 51 -125c45.333 -51.333 100.666 -77 165.999 -77c67.333 0 121.333 23.667 162 71c31.333 38.667 47 82.334 47 131.001zM511.001 1380
c0 20.667 4 40.334 12 59.001s19 35 33 49s30.333 25.167 49 33.5s38.667 12.5 60 12.5c20.667 0 40.334 -4.16699 59.001 -12.5s35 -19.5 49 -33.5s25.167 -30.333 33.5 -49s12.5 -38.334 12.5 -59.001c0 -21.333 -4.16699 -41.166 -12.5 -59.499s-19.5 -34.5 -33.5 -48.5
s-30.333 -25 -49 -33s-38.334 -12 -59.001 -12c-21.333 0 -41.333 4 -60 12s-35 19 -49 33s-25 30.167 -33 48.5s-12 38.166 -12 59.499zM162.001 1380c0 20.667 4 40.334 12 59.001s19 35 33 49s30.167 25.167 48.5 33.5s38.166 12.5 59.499 12.5
c20.667 0 40.334 -4.16699 59.001 -12.5s35 -19.5 49 -33.5s25.167 -30.333 33.5 -49s12.5 -38.334 12.5 -59.001c0 -21.333 -4.16699 -41.166 -12.5 -59.499s-19.5 -34.5 -33.5 -48.5s-30.333 -25 -49 -33s-38.334 -12 -59.001 -12c-21.333 0 -41.166 4 -59.499 12
s-34.5 19 -48.5 33s-25 30.167 -33 48.5s-12 38.166 -12 59.499z" />
    <glyph glyph-name="afii57418" unicode="&#x62a;" horiz-adv-x="2014" 
d="M1956 373c0 -100 -33.8311 -187.166 -101.498 -261.499s-143.834 -111.5 -228.501 -111.5h-1206c-90 0 -166.833 38.833 -230.5 116.5s-95.5 163.167 -95.5 256.5v346h228v-313c0 -54.667 6.66699 -95 20 -121c24.667 -38.667 73.667 -58 147 -58h1070
c73.333 0 121.666 19.333 144.999 58c14.667 17.333 22 57.666 22 120.999v313h230v-346zM1079 1086c0 20.667 4 40.334 12 59.001s19 35 33 49s30.333 25.167 49 33.5s38.667 12.5 60 12.5c20.667 0 40.334 -4.16699 59.001 -12.5s35 -19.5 49 -33.5
s25.167 -30.333 33.5 -49s12.5 -38.334 12.5 -59.001c0 -21.333 -4.16699 -41.166 -12.5 -59.499s-19.5 -34.5 -33.5 -48.5s-30.333 -25 -49 -33s-38.334 -12 -59.001 -12c-21.333 0 -41.333 4 -60 12s-35 19 -49 33s-25 30.167 -33 48.5s-12 38.166 -12 59.499z
M730.002 1086c0 20.667 4 40.334 12 59.001s19 35 33 49s30.167 25.167 48.5 33.5s38.166 12.5 59.499 12.5c20.667 0 40.334 -4.16699 59.001 -12.5s35 -19.5 49 -33.5s25.167 -30.333 33.5 -49s12.5 -38.334 12.5 -59.001c0 -21.333 -4.16699 -41.166 -12.5 -59.499
s-19.5 -34.5 -33.5 -48.5s-30.333 -25 -49 -33s-38.334 -12 -59.001 -12c-21.333 0 -41.166 4 -59.499 12s-34.5 19 -48.5 33s-25 30.167 -33 48.5s-12 38.166 -12 59.499z" />
    <glyph glyph-name="afii57419" unicode="&#x62b;" horiz-adv-x="2023" 
d="M1956 373c0 -100 -33.8311 -187.166 -101.498 -261.499s-143.834 -111.5 -228.501 -111.5h-1206c-90 0 -166.833 38.833 -230.5 116.5s-95.5 163.167 -95.5 256.5v346h228v-313c0 -54.667 6.66699 -95 20 -121c24.667 -38.667 73.667 -58 147 -58h1070
c73.333 0 121.666 19.333 144.999 58c14.667 17.333 22 57.666 22 120.999v313h230v-346zM1153 1435c0 -21.333 -4.16699 -41.333 -12.5 -60s-19.5 -35 -33.5 -49s-30.333 -25 -49 -33s-38.334 -12 -59.001 -12c-21.333 0 -41.166 4 -59.499 12s-34.5 19 -48.5 33
s-25 30.333 -33 49s-12 38.667 -12 60c0 20.667 4 40.334 12 59.001s19 35 33 49s30.167 25.167 48.5 33.5s38.166 12.5 59.499 12.5c20.667 0 40.334 -4.16699 59.001 -12.5s35 -19.5 49 -33.5s25.167 -30.333 33.5 -49s12.5 -38.334 12.5 -59.001zM977.002 1087
c0 -21.333 -4.16699 -41.333 -12.5 -60s-19.5 -35 -33.5 -49s-30.333 -25 -49 -33s-38.334 -12 -59.001 -12c-21.333 0 -41.166 4 -59.499 12s-34.5 19 -48.5 33s-25 30.333 -33 49s-12 38.667 -12 60c0 20.667 4 40.334 12 59.001s19 35 33 49s30.167 25.167 48.5 33.5
s38.166 12.5 59.499 12.5c20.667 0 40.334 -4.16699 59.001 -12.5s35 -19.5 49 -33.5s25.167 -30.333 33.5 -49s12.5 -38.334 12.5 -59.001zM1347 1087c0 -21.333 -4.16699 -41.333 -12.5 -60s-19.5 -35 -33.5 -49s-30.333 -25 -49 -33s-38.334 -12 -59.001 -12
c-21.333 0 -41.333 4 -60 12s-35 19 -49 33s-25 30.333 -33 49s-12 38.667 -12 60c0 20.667 4 40.334 12 59.001s19 35 33 49s30.333 25.167 49 33.5s38.667 12.5 60 12.5c20.667 0 40.334 -4.16699 59.001 -12.5s35 -19.5 49 -33.5s25.167 -30.333 33.5 -49
s12.5 -38.334 12.5 -59.001z" />
    <glyph glyph-name="afii57420" unicode="&#x62c;" horiz-adv-x="1540" 
d="M864 -385c0 20.667 4 40.334 12 59.001s19 35 33 49s30.333 25.167 49 33.5s38.667 12.5 60 12.5c20.667 0 40.334 -4.16699 59.001 -12.5s35 -19.5 49 -33.5s25 -30.333 33 -49s12 -38.334 12 -59.001c0 -21.333 -4 -41.166 -12 -59.499s-19 -34.5 -33 -48.5
s-30.333 -25 -49 -33s-38.334 -12 -59.001 -12c-21.333 0 -41.333 4 -60 12s-35 19 -49 33s-25 30.167 -33 48.5s-12 38.166 -12 59.499zM1573 -1106l-624.998 -0.00195312c-241.333 0 -437.333 86.667 -588 260c-110.667 135.333 -166 284.333 -166 447v47l6 51
c23.333 211.333 132.666 369 327.999 473l705 385c-34.667 65.333 -84.667 103.833 -150 115.5s-269.333 17.5 -612 17.5l-33 223h553c151.333 0 268.666 -40.167 351.999 -120.5s125 -197.166 125 -350.499l-749 -422c-205.333 -114.667 -308 -256.667 -308 -426
c0 -121.333 51.333 -229.666 154 -324.999s210 -143 322 -143h665z" />
    <glyph glyph-name="afii57421" unicode="&#x62d;" horiz-adv-x="1540" 
d="M1573 -1106l-624.998 -0.00195312c-241.333 0 -437.333 86.667 -588 260c-110.667 135.333 -166 284.333 -166 447v47l6 51c23.333 211.333 132.666 369 327.999 473l705 385c-34.667 65.333 -84.667 103.833 -150 115.5s-269.333 17.5 -612 17.5l-33 223h553
c151.333 0 268.666 -40.167 351.999 -120.5s125 -197.166 125 -350.499l-749 -422c-205.333 -114.667 -308 -256.667 -308 -426c0 -121.333 51.333 -229.666 154 -324.999s210 -143 322 -143h665z" />
    <glyph glyph-name="afii57422" unicode="&#x62e;" horiz-adv-x="1540" 
d="M1573 -1106l-624.998 -0.00195312c-241.333 0 -437.333 86.667 -588 260c-110.667 135.333 -166 284.333 -166 447v47l6 51c23.333 211.333 132.666 369 327.999 473l705 385c-34.667 65.333 -84.667 103.833 -150 115.5s-269.333 17.5 -612 17.5l-33 223h553
c151.333 0 268.666 -40.167 351.999 -120.5s125 -197.166 125 -350.499l-749 -422c-205.333 -114.667 -308 -256.667 -308 -426c0 -121.333 51.333 -229.666 154 -324.999s210 -143 322 -143h665zM669.002 1267c0 20.667 4 40.334 12 59.001s19 35 33 49
s30.333 25.167 49 33.5s38.667 12.5 60 12.5c20.667 0 40.334 -4.16699 59.001 -12.5s35 -19.5 49 -33.5s25 -30.333 33 -49s12 -38.334 12 -59.001c0 -21.333 -4 -41.166 -12 -59.499s-19 -34.5 -33 -48.5s-30.333 -25 -49 -33s-38.334 -12 -59.001 -12
c-21.333 0 -41.333 4 -60 12s-35 19 -49 33s-25 30.167 -33 48.5s-12 38.166 -12 59.499z" />
    <glyph glyph-name="afii57423" unicode="&#x62f;" horiz-adv-x="1305" 
d="M1248 303c0 -90 -30.667 -163 -92 -219s-143.333 -84 -246 -84h-702l-33 227h723c86 0 129 30 129 90c0 32 -13 60 -39 84l-512 545l153 156l519 -547c66.667 -75.333 100 -159.333 100 -252z" />
    <glyph glyph-name="afii57424" unicode="&#x630;" horiz-adv-x="1305" 
d="M1248 303c0 -90 -30.667 -163 -92 -219s-143.333 -84 -246 -84h-702l-33 227h723c86 0 129 30 129 90c0 32 -13 60 -39 84l-512 545l153 156l519 -547c66.667 -75.333 100 -159.333 100 -252zM390 1395c0 20.667 4 40.334 12 59.001s19 35 33 49s30.333 25.167 49 33.5
s38.667 12.5 60 12.5c20.667 0 40.334 -4.16699 59.001 -12.5s35 -19.5 49 -33.5s25 -30.333 33 -49s12 -38.334 12 -59.001c0 -21.333 -4 -41.166 -12 -59.499s-19 -34.5 -33 -48.5s-30.333 -25 -49 -33s-38.334 -12 -59.001 -12c-21.333 0 -41.333 4 -60 12s-35 19 -49 33
s-25 30.167 -33 48.5s-12 38.166 -12 59.499z" />
    <glyph glyph-name="afii57425" unicode="&#x631;" horiz-adv-x="1039" 
d="M971 41c0 -165.333 -54.999 -309.833 -164.999 -433.5s-245.667 -185.5 -407 -185.5h-301l-41 234h256c135.333 0 242.666 37 321.999 111c65.333 58.667 98 131 98 217v735h238v-678z" />
    <glyph glyph-name="afii57426" unicode="&#x632;" horiz-adv-x="1039" 
d="M971 41c0 -165.333 -54.999 -309.833 -164.999 -433.5s-245.667 -185.5 -407 -185.5h-301l-41 234h256c135.333 0 242.666 37 321.999 111c65.333 58.667 98 131 98 217v735h238v-678zM581.001 1099c0 20.667 4 40.334 12 59.001s19 35 33 49s30.333 25.167 49 33.5
s38.667 12.5 60 12.5c20.667 0 40.334 -4.16699 59.001 -12.5s35 -19.5 49 -33.5s25 -30.333 33 -49s12 -38.334 12 -59.001c0 -21.333 -4 -41.166 -12 -59.499s-19 -34.5 -33 -48.5s-30.333 -25 -49 -33s-38.334 -12 -59.001 -12c-21.333 0 -41.333 4 -60 12s-35 19 -49 33
s-25 30.167 -33 48.5s-12 38.166 -12 59.499z" />
    <glyph glyph-name="afii57427" unicode="&#x633;" horiz-adv-x="2807" 
d="M2746 365c0 -119.333 -29.667 -214.167 -89 -284.5s-132.666 -105.5 -220 -105.5c-104 0 -211 52 -321 156c-76.667 -104 -168.334 -156 -275.001 -156c-78 0 -163.333 32.333 -256 97c0 -187.333 -54.667 -342.5 -164 -465.5s-243 -184.5 -401 -184.5h-350
c-149.333 0 -280.166 58.5 -392.499 175.5s-168.5 255.833 -168.5 416.5v475h223v-485c0 -99.333 34.167 -183.5 102.5 -252.5s156.833 -103.5 265.5 -103.5h293c108 0 195.833 33.333 263.5 100s101.5 152 101.5 256v715h227v-340c0 -58.667 24.667 -105.667 74 -141
c38 -30 79.667 -45 125 -45c100.667 0 151 48.333 151 145v381h232v-338c0 -52 23 -99.667 69 -143c41.333 -30 82.333 -45 123 -45c105.333 0 158 48.333 158 145v381h229v-354z" />
    <glyph glyph-name="afii57428" unicode="&#x634;" horiz-adv-x="2802" 
d="M2746 365c0 -119.333 -29.667 -214.167 -89 -284.5s-132.666 -105.5 -220 -105.5c-104 0 -211 52 -321 156c-76.667 -104 -168.334 -156 -275.001 -156c-78 0 -163.333 32.333 -256 97c0 -187.333 -54.667 -342.5 -164 -465.5s-243 -184.5 -401 -184.5h-350
c-149.333 0 -280.166 58.5 -392.499 175.5s-168.5 255.833 -168.5 416.5v475h223v-485c0 -99.333 34.167 -183.5 102.5 -252.5s156.833 -103.5 265.5 -103.5h293c108 0 195.833 33.333 263.5 100s101.5 152 101.5 256v715h227v-340c0 -58.667 24.667 -105.667 74 -141
c38 -30 79.667 -45 125 -45c100.667 0 151 48.333 151 145v381h232v-338c0 -52 23 -99.667 69 -143c41.333 -30 82.333 -45 123 -45c105.333 0 158 48.333 158 145v381h229v-354zM2214 1427c0 -21.333 -4.16699 -41.333 -12.5 -60s-19.5 -35 -33.5 -49s-30.333 -25 -49 -33
s-38.334 -12 -59 -12c-21.333 0 -41.166 4 -59.499 12s-34.5 19 -48.5 33s-25 30.333 -33 49s-12 38.667 -12 60c0 20.667 4 40.334 12 59.001s19 35 33 49s30.167 25.167 48.5 33.5s38.166 12.5 59.499 12.5c20.667 0 40.334 -4.16699 59 -12.5
c18.667 -8.33301 35 -19.5 49 -33.5s25.167 -30.333 33.5 -49s12.5 -38.334 12.5 -59.001zM2038 1079c0 -21.333 -4.16699 -41.333 -12.5 -60s-19.5 -35 -33.5 -49s-30.333 -25 -49 -33s-38.334 -12 -59.001 -12c-21.333 0 -41.166 4 -59.499 12s-34.5 19 -48.5 33
s-25 30.333 -33 49s-12 38.667 -12 60c0 20.667 4 40.334 12 59.001s19 35 33 49s30.167 25.167 48.5 33.5s38.166 12.5 59.499 12.5c20.667 0 40.334 -4.16699 59.001 -12.5s35 -19.5 49 -33.5s25.167 -30.333 33.5 -49s12.5 -38.334 12.5 -59.001zM2408 1079
c0 -21.333 -4.16699 -41.333 -12.5 -60s-19.5 -35 -33.5 -49s-30.333 -25 -49 -33s-38.334 -12 -59 -12c-21.333 0 -41.333 4 -60 12s-35 19 -49 33s-25 30.333 -33 49s-12 38.667 -12 60c0 20.667 4 40.334 12 59.001s19 35 33 49s30.333 25.167 49 33.5
s38.667 12.5 60 12.5c20.667 0 40.334 -4.16699 59 -12.5c18.667 -8.33301 35 -19.5 49 -33.5s25.167 -30.333 33.5 -49s12.5 -38.334 12.5 -59.001z" />
    <glyph glyph-name="afii57429" unicode="&#x635;" horiz-adv-x="2890" 
d="M2824 406c0 -112 -33.8311 -207.668 -101.498 -287.001s-168.834 -119 -303.501 -119h-619c-129.333 0 -209.666 40.333 -240.999 121c0 -199.333 -54.333 -365.666 -163 -498.999s-244.334 -200 -407.001 -200h-348c-152.667 0 -284.667 62.5 -396 187.5
s-167 268.833 -167 431.5v448h225v-505c0 -72.667 37.833 -145.5 113.5 -218.5s157.5 -109.5 245.5 -109.5h319c87.333 0 166.833 34.833 238.5 104.5s107.5 144.167 107.5 223.5v735h234v-340c0 -101.333 73.667 -152 221 -152c83.333 220 181.666 389.333 294.999 508
s227.333 178 342 178c54.667 0 113.334 -18.333 176 -55c69.333 -38 124.666 -100.667 166 -188l47 -133c10.667 -40 16 -83.667 16 -131zM2601 431.999c0 79.333 -28.667 156 -86 230c-6.66699 16 -23.667 24 -51 24c-66 0 -143.333 -47.5 -232 -142.5
s-161.667 -200.5 -219 -316.5h445c39.333 0 73 20.833 101 62.5s42 89.167 42 142.5z" />
    </font>
</defs>
</svg>
